<svg xmlns="http://www.w3.org/2000/svg" width="16" height="16" version="1.1" id="svg7"><defs id="defs3"><style id="current-color-scheme" type="text/css"></style></defs><path d="M8 0C3.588 0 0 3.588 0 8s3.588 8 8 8 8-3.588 8-8-3.588-8-8-8zm0 1c3.872 0 7 3.128 7 7a6.968 6.968 0 0 1-1.71 4.582L3.417 2.711A6.968 6.968 0 0 1 8 1zM2.711 3.418l9.871 9.871A6.968 6.968 0 0 1 8 15c-3.872 0-7-3.128-7-7 0-1.756.647-3.355 1.711-4.582z" style="line-height:normal;font-variant-ligatures:normal;font-variant-position:normal;font-variant-caps:normal;font-variant-numeric:normal;font-variant-alternates:normal;font-feature-settings:normal;text-indent:0;text-align:start;text-decoration-line:none;text-decoration-style:solid;text-decoration-color:#000;text-transform:none;text-orientation:mixed;white-space:normal;shape-padding:0;isolation:auto;mix-blend-mode:normal" font-weight="400" overflow="visible" id="path2" color="#000" font-family="sans-serif" text-decoration="none" fill="#5d656b" fill-opacity="1"/></svg>