<svg xmlns="http://www.w3.org/2000/svg" viewBox="0 0 16 16"><path d="M3.494 3c.218 1.455.801 3.107 2.078 4.502-.346.533-.605.996-1.011 1.498H2v1h1.578c-.387.33-.87.694-1.496 1.113l.828.989A17.474 17.474 0 0 0 5.281 10H14V9H6.133C7.683 6.997 8.322 5.021 9 3H7.781c-.413 1.23-.725 2.256-1.437 3.383C5.324 5.224 5.009 4.237 4.824 3h-1.33zm8.387 0c-.868.018-1.533.155-2.018.355l.274.9c.232-.072 1.108-.325 1.623-.325h.072c.716.027.766.262.766.818v.219l-.373.054c-1.736.228-2.664.42-2.664 1.622C9.56 7.48 10.236 8 11.215 8c.676 0 1.12-.255 1.574-.602l.14.51H14V4.54C14 3.51 13.213 3 12.002 3h-.121zm.717 2.678v1.12c-.374.229-.657.391-1.141.391-.434 0-.645-.245-.645-.591 0-.656.636-.765 1.413-.866l.373-.054z" fill="currentColor" color="#5d656b"/></svg>