<svg xmlns="http://www.w3.org/2000/svg" viewBox="0 0 16 16"><path d="M8 2a6.061 6.061 0 0 0-2.877.736c-.172.095-.34.197-.502.307a6 6 0 0 0-.129.098 6.014 6.014 0 0 0-.332.252 6 6 0 0 0-.172.156c-.092.083-.184.165-.271.254l-.008.008a6 6 0 0 0-.014.011 6 6 0 0 0 0 .002 6 6 0 0 0-.132.149c-.08.088-.16.175-.235.267l-.006.008a6 6 0 0 0-.021.023 6 6 0 0 0-.067.094 6 6 0 0 0-.017.022c-.083.109-.163.219-.238.334a6 6 0 0 0-.108.177c-.066.11-.13.22-.19.332a6 6 0 0 0-.09.186 5.946 5.946 0 0 0-.165.373l-.006.016a6 6 0 0 0-.012.023 6 6 0 0 0-.021.067 6 6 0 0 0-.008.021c-.05.136-.098.274-.139.414a6 6 0 0 0-.021.07 6 6 0 0 0-.022.096 6 6 0 0 0-.006.022 5.933 5.933 0 0 0-.091.412 6 6 0 0 0-.002.006 6 6 0 0 0-.01.046 6 6 0 0 0 0 .002 6 6 0 0 0-.004.034 6 6 0 0 0-.014.103 5.98 5.98 0 0 0-.045.377 6 6 0 0 0-.01.08 6 6 0 0 0 0 .002 6 6 0 0 0-.001.041A6 6 0 0 0 2 7.984V8.002a6 6 0 0 0 0 .004 6 6 0 0 0 .03.596 6 6 0 0 0 .001.011 6 6 0 0 0 .088.58 6 6 0 0 0 0 .004 6 6 0 0 0 0 .002c.028.14.068.275.106.41a6 6 0 0 0 .043.166 6 6 0 0 0 .002.006v.002c.029.094.068.184.101.276a6 6 0 0 0 .018.048c.028.076.05.155.082.229a6 6 0 0 0 .002.002 6 6 0 0 0 0 .004c.075.177.16.35.252.517a6 6 0 0 0 .01.02 6 6 0 0 0 0 .002 6 6 0 0 0 1.015 1.353l.01.01a6 6 0 0 0 .06.063 6 6 0 0 0 .793.644l.041.03a6 6 0 0 0 .43.261l.08.045a6 6 0 0 0 .383.186c.056.025.11.052.168.076a6 6 0 0 0 .416.15c.04.014.08.029.121.041a6 6 0 0 0 .447.115l.137.03a6 6 0 0 0 .5.076l.072.01a6 6 0 0 0 .592.035 6 6 0 0 0 4.629-2.19l.008-.011a6 6 0 0 0 .062-.073 6 6 0 0 0 .186-.255c.037-.053.077-.105.113-.159a6 6 0 0 0 .05-.072 6 6 0 0 0 0-.002 6 6 0 0 0 .147-.252c.034-.059.07-.117.102-.178a6 6 0 0 0 .14-.29c.043-.092.086-.182.124-.276a6 6 0 0 0 .03-.072 6 6 0 0 0 .06-.174c.036-.103.074-.207.105-.313a6 6 0 0 0 .025-.08 6 6 0 0 0 0-.002 6 6 0 0 0 .02-.086 6 6 0 0 0 .017-.082l.002-.01c.027-.108.054-.216.075-.327a6 6 0 0 0 .017-.08 6 6 0 0 0 .024-.184c.014-.104.027-.209.037-.315V8.52a6 6 0 0 0 .006-.038 6 6 0 0 0 .005-.052 6 6 0 0 0 0-.004 6 6 0 0 0 .016-.42v-.004A6 6 0 0 0 14 8v-.012a6 6 0 0 0-.03-.582 6 6 0 0 0 0-.004 6 6 0 0 0-.001-.006 6 6 0 0 0 0-.007 6 6 0 0 0 0-.002 5.982 5.982 0 0 0-1.362-3.227 6 6 0 0 0-.148-.164c-.084-.093-.167-.186-.256-.273a6 6 0 0 0-.152-.139 6.01 6.01 0 0 0-.287-.252 6 6 0 0 0-.149-.111 5.998 5.998 0 0 0-.338-.242 6 6 0 0 0-.15-.092 5.994 5.994 0 0 0-.365-.21 6 6 0 0 0-.137-.066 5.951 5.951 0 0 0-.428-.191 6 6 0 0 0-.086-.031 5.953 5.953 0 0 0-.457-.153 6 6 0 0 0-.152-.039 5.934 5.934 0 0 0-.45-.1 6 6 0 0 0-.099-.015 5.985 5.985 0 0 0-.469-.057 6 6 0 0 0-.336-.017C8.098 2.007 8.05 2 8 2zm0 1.006a5 5 0 0 1 .379.017c.04.004.08.004.121.008h.01a5 5 0 0 1 .408.063l.27.062c.256.063.51.149.75.25.131.056.248.121.374.188v.031c.03.013.046.067.094.094.018.01.014.022.031.031.03.016.069.034.063.063-.008.04-.066.031-.094.062.004.058-.047.055-.062.094.009.025.059.032.062.062-.005.033-.074.03-.062.063.054.042.105.01.156 0 .112-.014.212-.008.281-.063-.009-.053.1-.045.094-.093.028.02.065.041.094.062-.01.01-.02.025-.031.031-.022.01-.044.02-.063.032l-.094.062c-.023.016-.07.094-.094.094-.029 0-.072-.038-.093-.032-.03.01-.029.051-.063.063-.066.024-.195-.038-.219.06.028.058.138.032.188.063.03.02.085.09.094.125a.584.584 0 0 1 0 .188c-.031.08-.127.064-.219.062h-.063c-.155-.01-.305-.08-.374.031.005.085.018.147 0 .221-.015.054-.097.108-.094.154.001.024.056.06.062.094.004.018-.008.046 0 .063.026.048.079-.01.125 0 .044.01.094.075.094.125a.263.263 0 0 1-.031.127c-.044.066-.125.057-.188.093-.052.03-.063.103-.094.155-.032.056-.075.076-.062.156a.363.363 0 0 1-.188.187c-.026.012-.069.014-.093.032-.02.014-.035.061-.063.093-.035.04-.075.064-.094.094-.014.023-.016.062-.03.094-.023.042-.067.052-.095.094-.012.02-.016.067-.03.093-.033.058-.07.106-.063.157.005.048.06.049.062.093.003.024-.032.036-.031.063.002.038.028.064.031.094.007.074-.049.106-.062.156-.007.024.006.043 0 .062-.012.037-.062.081-.063.125-.001.031.06.05.063.094.002.03-.037.066-.031.094.01.054.114.114.156.156.057.057.131.096.156.156.021.051.024.15.063.188.029.028.087.032.124.062.036.027.058.033.094.063.061.048.153.162.25.154.051-.01.1-.05.156-.06.06-.01.128-.038.188-.034.046.01.106.037.154.034.05-.01.1-.01.157-.034.099-.042.262-.114.406-.093.11.015.11.138.187.187.088.01.15-.017.221 0 .053.013.12.085.125.127.005.043-.056.097-.063.125-.014.058.01.12 0 .156-.008.03-.031.065-.03.094 0 .026.035.09.062.125.033.042.084.08.125.125.072.084.105.17.156.281.013.028-.012.058 0 .094-.022.168-.077.283-.188.469-.051.06-.127.112-.126.187-.004.18.102.295.093.469-.018.234.018.25 0 .375.079.04.024.168 0 .25-.033.099-.075.122-.093.188.053.023.128.013.187 0l-.094.093a5.17 5.17 0 0 1-.738.616c-.004.002-.008.006-.012.01a5 5 0 0 1-.008.003 5.315 5.315 0 0 1-.681.38 5 5 0 0 1-.236.107 4.716 4.716 0 0 1-.586.19 5 5 0 0 1-.858.147 4.79 4.79 0 0 1-.975-.018c-.049-.005-.097-.013-.146-.019a5 5 0 0 1-.38-.068c-.25-.063-.489-.162-.723-.254-.01-.017-.034-.042-.032-.062.052-.022.15.074.188 0 .019-.036-.025-.122 0-.157.018-.024.12-.023.156-.031.053-.01.126-.017.156-.031.033-.021.069-.095.063-.156-.003-.03-.04-.037-.063-.063-.018-.022.013-.041 0-.062-.024-.036-.084-.043-.093-.094.072-.014.177.06.28.031.05-.014.135-.11.157-.156.007-.014-.008-.045 0-.063.009-.018.028-.052.031-.062.007-.027-.006-.013 0-.031.018-.051.064-.089.094-.125.023-.028.073-.065.094-.094.024-.031.015-.035.031-.063.015-.09-.053-.17-.031-.25.024-.09.163-.146.25-.187.03-.014.069-.022.094-.031l.187-.063c.094-.034.11-.101.156-.187.022-.04.059-.096.063-.125.004-.027-.005-.032 0-.063.005-.03-.008-.06 0-.094a1.01 1.01 0 0 0 .031-.187c0-.04-.03-.058-.031-.094-.007-.13.046-.116.094-.187.024-.036.046-.1.062-.125.081-.12.229-.163.219-.344-.004-.06-.05-.2-.094-.219-.025-.011-.057-.018-.094-.031-.117-.044-.22-.178-.343-.188h-.063c-.048 0-.102-.023-.156-.031-.034-.01-.105.01-.125 0-.031-.015-.038-.076-.063-.094-.02-.014-.063-.02-.093-.031-.05-.018-.068-.059-.125-.062-.018 0-.043.01-.063 0-.03-.01-.064-.014-.094-.032-.036-.021-.078-.031-.093-.062.033-.108-.072-.125-.094-.188-.01-.029.01-.098 0-.125-.013-.036-.053-.063-.094-.093a.37.37 0 0 0-.219-.094c-.045-.01-.101.01-.156 0a.354.354 0 0 1-.187-.094c-.042-.049-.057-.102-.094-.125-.035-.022-.07-.04-.094-.062-.011-.01-.02-.008-.031-.032-.018-.036-.053-.048-.031-.093-.04-.02-.02.038-.063.03-.039-.054-.068-.109-.156-.093-.04.01-.078.093-.125.094-.04 0-.074-.086-.125-.094-.04-.01-.098.036-.125.031-.043-.01-.055-.037-.094-.062-.03-.019-.078-.064-.094-.063-.05 0-.087.1-.156.063-.034-.043.071-.054.031-.094-.03-.03-.038.017-.062.031-.028.018-.063.02-.094.032-.069.026-.133.034-.187.062-.05.026-.065.043-.094.094-.023.042-.059.123-.094.125-.042 0-.055-.044-.094-.06-.114-.051-.186.028-.281.03-.088 0-.222-.135-.219-.218.003-.051.026-.125.032-.188.005-.05.061-.111.062-.156 0-.062-.116-.087-.156-.094-.094-.017-.205.042-.313 0-.02-.034.02-.06.032-.093.006-.018-.007-.042 0-.063.012-.032.078-.06.093-.094.012-.026-.011-.06 0-.093.013-.036.06-.068.063-.094.004-.034-.036-.072-.063-.094-.083.01-.14.007-.187.031-.108.049-.079.184-.188.219a.982.982 0 0 1-.125.031c-.017.01-.039.001-.058 0a5 5 0 0 1 .002-.008 5 5 0 0 1 .002-.011 5 5 0 0 1 0-.004 5 5 0 0 1 .013-.051c.004-.006.008-.012.01-.02.071-.324.181-.64.313-.937h.03c.039.01.062.06.095.063.092.01.111-.085.187-.125.078.01.116-.01.188 0 .048.01.118.058.156.062.032 0 .032-.035.062-.031.03.01.089.058.094.093.005.045-.044.107-.031.157.047.048.151.066.219.093.044-.036.006-.104 0-.156-.001-.023.003-.072 0-.093-.006-.036-.032-.063-.032-.094 0-.144.123-.195.219-.25.041-.024.089-.076.125-.094.051-.025.083-.007.125-.031.076-.043.128-.108.188-.157.027-.065-.003-.154 0-.218.027-.018.064 0 .093 0 .046-.01.068-.068.094-.094.015-.015.045-.016.063-.031.045-.036.054-.078.093-.094a.303.303 0 0 1 .063-.033c.03-.01.077-.013.125-.031.03-.012.113-.018.125-.032.015-.015-.004-.07 0-.093.024-.114.18-.12.281-.157.07-.026.143-.108.22-.093-.014.054-.075.06-.062.125.018.09.125-.018.157-.032.06-.026.168-.063.248-.093.07-.025.192-.044.127-.125-.055-.01-.08.043-.127.062-.033.01-.033-.028-.061-.031-.027 0-.035.036-.063.031-.027-.01-.058-.06-.062-.094-.011-.084.06-.094.094-.156-.024-.076-.124-.032-.188-.062a.112.112 0 0 1 .094-.094c.043-.01.161.008.188.031.014.013-.024.042 0 .063.026.023.06.01.093 0 .012-.057-.073-.026-.062-.063.068-.044.198-.02.281-.031a.687.687 0 0 0 .156-.063c.04-.023.052-.068.094-.031.012.041-.008.072-.031.094-.078.068-.159.14-.219.219.037.036.093.025.154.033.024.01.07-.008.094 0 .03.01.07-.01.094 0 .042.01.052.093.094.093.068 0 .039-.08 0-.126.012-.048.05-.092.033-.125-.031-.063-.15.018-.157-.063-.003-.05.045-.055.063-.094-.008-.096.071-.1.06-.187-.005-.036-.035-.027-.06-.06-.013-.019-.018-.08-.033-.095-.052-.044-.148-.01-.154-.093-.003-.05.006-.103 0-.156-.007-.052-.05-.209-.094-.22-.057-.011-.09.094-.157.126a.373.373 0 0 1-.156.031c-.024-.01-.06-.016-.062-.063-.004-.042.046-.061.062-.093.004-.008-.001-.019 0-.03a5 5 0 0 1 .424-.095h.014c.09-.017.181-.03.273-.043a5 5 0 0 1 .203-.024c.077-.007.154-.01.23-.015a5 5 0 0 1 .2-.006zm-2.03.46v.003c-.03.182-.204.255-.407.25-.046.044-.006.127-.032.187-.02.051-.105.098-.156.094-.037 0-.094-.058-.094-.094 0-.042.07-.044.033-.094.002-.01.021-.02.032-.03.02-.014.042-.021.062-.034.182-.112.367-.193.563-.281zm4.186.188v.002c-.019.01-.014.021-.031.031-.038.024-.065.053-.094.063-.041.015-.088.026-.094.063-.005.03.033.033.032.062-.015.037-.023.049-.031.094.05.083.155-.02.218-.033.028-.01.048-.008.063-.032.017-.027.018-.055.031-.093.014-.042.068-.057.063-.094-.004-.037-.095-.068-.157-.063zm-5.469.627c.048.038.114.121.032.157a.516.516 0 0 1-.155.03c-.01 0-.024-.023-.033-.03.052-.05.103-.109.157-.157zm.188.188c.024 0 .035.06.063.062.027 0 .046-.037.062-.033.042.011.071.095.031.127-.033.01-.038-.037-.062-.033-.069.012-.106.16-.157.156-.048-.01-.08-.122-.03-.156 0-.03-.003-.03 0-.06.014-.019.053-.066.093-.063zm-.25.031c.014 0 .028-.01.033 0-.007.053-.022.069-.062.094-.072.042-.134.096-.157.187-.006.027-.09.1-.125.094-.078-.017.045-.164.063-.188.02-.024.038-.034.06-.062.024-.028.041-.078.063-.094a.248.248 0 0 1 .125-.031zm6.78.156h.001c.079-.01.12.077.156.125.03.04.106.098.155.125.028.015.063.05.094.063.065.029.184.123.187.187.002.033-.036.064-.031.094h.002c.048.008.09-.076.092-.125.092.13.17.268.25.406.037.066.09.12.125.188-.045.012-.056.02-.063.062-.01.057.024.147-.06.157-.054.01-.115-.046-.188-.063-.03-.01-.07.01-.094 0-.055-.018-.046-.091-.094-.125a.497.497 0 0 0-.156-.063c-.027 0-.035.01-.062 0-.034-.01-.097.015-.125 0a.318.318 0 0 1-.094-.093c-.011-.037.091-.063.094-.094.002-.024-.026-.057-.031-.094-.004-.021.005-.047 0-.062-.007-.027-.053-.03-.094-.032h-.094c-.044 0-.133-.007-.188 0h-.093c-.087.01-.153-.01-.221 0a.628.628 0 0 0-.187.063c-.024.011-.031.016-.061.031-.014.01-.044.023-.063.032-.027.012-.066.054-.093.062-.04.01-.086-.01-.156 0-.052 0-.124-.033-.126-.094-.001-.093.163-.046.25-.062.034-.01.055-.039.094-.063.019-.011.013-.019.031-.031.03-.021.089-.07.094-.094.004-.021-.003-.046 0-.062.004-.021.036-.035.063-.063.042-.042.072-.097.125-.125.035-.018.078-.034.094-.062.003-.033-.002-.033 0-.063A.132.132 0 0 1 11 4.75c.054-.012.091 0 .154 0 .027 0 .065.013.094 0 .024-.016.039-.05.063-.063a.248.248 0 0 1 .093-.03zm.562.594h-.123c-.044 0-.101-.023-.127 0 .037.06.104.079.187.094a.19.19 0 0 0 .063-.094zm-6.844-.563h.094c.025 0 .053-.01.062 0-.015.066-.166.056-.218.032.003-.025.03-.027.062-.032zm-.219.125c-.043.032-.087.072-.156.094-.038.012-.087.011-.094-.031-.008-.052.06-.026.094-.031.044-.01.105-.03.156-.032zm6.5 0c-.033.012-.048.084 0 .094.024-.014.038-.05.032-.093-.013-.015-.021-.01-.032 0zm-.062.155v.002c.001.056.011.108 0 .156.032.062.108.01.125-.031.019-.105-.015-.14-.063-.127-.015.01-.046-.013-.062 0zM3.062 7.31c.057.05.09.123.157.156a.49.49 0 0 0 .094.031c.026.01.037-.008.062 0 .053.018.114.044.156.063.064.027.133.124.188.156.003.032-.01.07 0 .094.026.035.052.07.094.093.05.028.076.072.124.094.018.01.038-.01.063 0 .066.02.1.11.156.094.037-.011.026-.058.032-.094.024-.027.054-.062.093-.062.063 0 .07.096.094.156.013.034.053.058.063.094a.951.951 0 0 1 0 .28c-.016.047-.09.044-.127.095-.018.024-.017.076-.032.093-.024.03-.044.035-.062.063a.484.484 0 0 0-.031.062c-.03.064-.088.11-.063.188.01.03.063.057.063.094 0 .044-.087.076-.094.125-.005.035.02.077.031.125.008.035.073.07.094.093.035.04.061.107.094.157.063.096.094.217.156.312.033.049.102.073.125.125.011.026-.01.07 0 .094.036.08.2.178.281.219.038.018.092.012.127.033.053.03.16.108.188.154.024.042.019.154.03.22.016.088-.003.154 0 .249.004.052.032.075.032.127v.094c0 .062.005.124 0 .187a.558.558 0 0 0 0 .094c.003.03.029.033.031.06.003.03-.034.07-.031.094.007.063.05.099.063.156.01.046.037.164.03.219-.003.03-.026.06-.03.094-.003.026.003.038 0 .062-.003.021.003.04 0 .057a5 5 0 0 1-.094-.057c-.267-.18-.524-.399-.75-.625l-.094-.093c-.18-.191-.35-.407-.5-.623-.014-.02-.02-.043-.033-.063a4.774 4.774 0 0 1-.436-.813c-.009-.02-.024-.041-.033-.062a4.945 4.945 0 0 1-.248-.813c-.011-.052-.023-.103-.033-.156a5.176 5.176 0 0 1-.09-.854A5 5 0 0 1 3 8.007a5 5 0 0 1 0-.004 5 5 0 0 1 .004-.059c.004-.215.028-.42.057-.63l.002-.002zm1.936.533c.048-.022.039.055 0 .062-.037.01-.036-.044 0-.062z" fill="currentColor" color="#5d656b"/></svg>