<svg xmlns="http://www.w3.org/2000/svg" viewBox="0 0 16 16"><path d="M8 2a13.365 13.365 0 0 1-.631 1.67c-1.232 2.7-3.162 4.548-3.348 6.252-.005.025-.017.053-.021.078l.016.006c-.004.059-.016.117-.016.176C4 12.291 5.791 14 8 14s4-1.71 4-3.818c0-.058-.012-.117-.016-.176L12 10c-.004-.025-.016-.053-.021-.078-.186-1.704-2.115-3.552-3.348-6.252A13.365 13.365 0 0 1 8 2m0 1.465c.58 1.366 1.338 2.51 1.996 3.506.446.694.95 1.454 1.287 2.299.09.295.144.601.145.912 0 1.807-1.534 3.273-3.428 3.273s-3.428-1.466-3.428-3.273c0-.311.054-.617.145-.912.337-.844.842-1.605 1.287-2.299C6.662 5.975 7.42 4.831 8 3.465" fill="currentColor" color="#5d656b"/><path d="M8 3.47c-.58 1.366-1.338 2.51-1.996 3.506-.446.694-.95 1.454-1.287 2.299-.09.295-.144.601-.145.912 0 1.081.556 2.033 1.402 2.629.29.064.586.097.883.098 2.208 0 3.999-1.709 4-3.817a3.655 3.655 0 0 0-.108-.86c.035.048.068.095.1.143a23.267 23.267 0 0 0-.854-1.404c-.658-.996-1.416-2.14-1.996-3.506" fill-rule="evenodd"/></svg>