<svg xmlns="http://www.w3.org/2000/svg" viewBox="0 0 16 16"><path d="M8 2a13.365 13.365 0 0 1-.631 1.67c-1.232 2.7-3.162 4.548-3.348 6.252-.005.025-.017.053-.021.078l.016.006c-.004.059-.016.117-.016.176C4 12.291 5.791 14 8 14s4-1.71 4-3.818c0-.058-.012-.117-.016-.176L12 10c-.004-.025-.016-.053-.021-.078-.186-1.704-2.115-3.552-3.348-6.252A13.365 13.365 0 0 1 8 2m0 1.465c.58 1.366 1.338 2.51 1.996 3.506.249.387.513.799.759 1.232.005.009-.003.02-.005.03.07.282.106.57.107.859-.001 2.108-1.792 3.816-4 3.816a4.162 4.162 0 0 1-.883-.098c-.846-.596-1.403-1.548-1.402-2.629 0-.311.054-.617.145-.912.337-.844.842-1.605 1.287-2.299C6.662 5.974 7.42 4.83 8 3.464m-1.996 9.367c.085.059.175.109.266.16a3.747 3.747 0 0 1-.266-.16m1.119.502c.088.023.176.047.266.063-.091-.016-.177-.04-.266-.063" fill="currentColor" color="#5d656b"/><path d="M8 3.47c-.58 1.366-1.338 2.51-1.996 3.506-.446.694-.95 1.454-1.287 2.299-.09.295-.144.601-.145.912 0 1.081.556 2.033 1.402 2.629.29.064.586.096.883.098 2.208 0 3.999-1.708 4-3.816a4.157 4.157 0 0 0-.119-.914l.006.007c-.244-.429-.501-.83-.748-1.214C9.338 5.981 8.58 4.837 8 3.471" fill="#fff" fill-rule="evenodd"/></svg>