<svg xmlns="http://www.w3.org/2000/svg" xmlns:xlink="http://www.w3.org/1999/xlink" viewBox="0 0 16 16"><defs><path d="M24 8C15.136 8 8 15.136 8 24h16V8" id="e" fill="url(#a)"/><path d="M408.571 539.798c8.864 0 16-7.136 16-16h-16v16" id="h" fill="url(#b)"/><path d="M408.571 539.798c-8.864 0-16-7.136-16-16h16v16" id="f" fill="url(#c)"/><linearGradient gradientUnits="userSpaceOnUse" x2="408.57" x1="424.57" y2="539.8" y1="523.8" id="b"><stop stop-color="#c1cc00"/><stop stop-color="#dfcd00" offset=".312"/><stop stop-color="#f0cc00" offset=".562"/><stop stop-color="#fd8c08" offset=".75"/><stop stop-color="#f25c13" offset="1"/></linearGradient><linearGradient gradientUnits="userSpaceOnUse" x2="24" x1="8" y2="8" y1="24" id="a"><stop stop-color="#e81877"/><stop stop-color="#dd1d8c" offset=".312"/><stop stop-color="#6d57b1" offset=".562"/><stop stop-color="#2a78c1" offset=".75"/><stop stop-color="#018dcb" offset="1"/></linearGradient><linearGradient gradientUnits="userSpaceOnUse" x2="408.57" x1="424.57" y2="507.8" y1="523.8" id="d"><stop stop-color="#bec900"/><stop stop-color="#9ec80a" offset=".312"/><stop stop-color="#71b93d" offset=".562"/><stop stop-color="#35a48f" offset=".75"/><stop stop-color="#018fca" offset="1"/></linearGradient><linearGradient gradientUnits="userSpaceOnUse" x2="408.57" x1="392.57" y2="539.8" y1="523.8" id="c"><stop stop-color="#e51561"/><stop stop-color="#e4156c" offset=".312"/><stop stop-color="#e71e2c" offset=".562"/><stop stop-color="#e8301e" offset=".75"/><stop stop-color="#e6320e" offset="1"/></linearGradient><linearGradient xlink:href="#d" id="g" gradientUnits="userSpaceOnUse" x1="424.57" y1="523.8" x2="408.57" y2="507.8"/><linearGradient xlink:href="#d" id="i" gradientUnits="userSpaceOnUse" x1="424.57" y1="523.8" x2="408.57" y2="507.8"/><linearGradient xlink:href="#c" id="j" gradientUnits="userSpaceOnUse" x1="392.57" y1="523.8" x2="408.57" y2="539.8"/><linearGradient xlink:href="#d" id="k" gradientUnits="userSpaceOnUse" x1="424.57" y1="523.8" x2="408.57" y2="507.8"/><linearGradient xlink:href="#d" id="l" gradientUnits="userSpaceOnUse" x1="424.57" y1="523.8" x2="408.57" y2="507.8"/></defs><g transform="matrix(.93666 0 0 .9366 -2.304 -967.347)"><g transform="rotate(15 -3071.937 46.542) scale(.4)"><use transform="translate(384.57 499.8)" clip-path="url(#5)" xlink:href="#e" width="100%" height="100%"/><use clip-path="url(#6)" xlink:href="#f" width="100%" height="100%"/><path clip-path="url(#7)" d="M408.571 507.798c8.864 0 16 7.136 16 16h-16v-16" fill="url(#g)"/><use clip-path="url(#8)" xlink:href="#h" width="100%" height="100%"/></g><g transform="matrix(.4 0 0 .4 -152.43 831.84)" opacity=".7"><use transform="translate(384.57 499.8)" clip-path="url(#9)" xlink:href="#e" width="100%" height="100%" filter="url(#4)"/><use clip-path="url(#A)" xlink:href="#f" width="100%" height="100%" filter="url(#4)"/><use clip-path="url(#B)" xlink:href="#h" width="100%" height="100%" filter="url(#4)"/><path clip-path="url(#C)" d="M408.571 507.798c8.864 0 16 7.136 16 16h-16v-16" fill="url(#i)" filter="url(#4)"/></g><use transform="scale(.4) rotate(45 -3087.91 1317.946)" clip-path="url(#9)" xlink:href="#e" width="100%" height="100%" opacity=".35"/><path transform="scale(.4) rotate(45 -2292.3 1103.62)" clip-path="url(#A)" d="M408.571 539.798c-8.864 0-16-7.136-16-16h16v16" opacity=".35" fill="url(#j)"/><use transform="scale(.4) rotate(45 -2292.3 1103.62)" clip-path="url(#B)" xlink:href="#h" width="100%" height="100%" opacity=".35"/><path transform="scale(.4) rotate(45 -2292.3 1103.62)" clip-path="url(#C)" d="M408.571 507.798c8.864 0 16 7.136 16 16h-16v-16" opacity=".35" fill="url(#k)"/><g transform="rotate(75 -454.826 526.113) scale(.4)"><use transform="translate(384.57 499.8)" clip-path="url(#D)" xlink:href="#e" width="100%" height="100%" opacity=".3"/><use clip-path="url(#E)" xlink:href="#f" width="100%" height="100%" opacity=".3"/><use clip-path="url(#F)" xlink:href="#h" width="100%" height="100%" opacity=".3"/><path clip-path="url(#G)" d="M408.571 507.798c8.864 0 16 7.136 16 16h-16v-16" opacity=".3" fill="url(#l)"/></g></g></svg>