<svg xmlns="http://www.w3.org/2000/svg" viewBox="0 0 16 16"><defs id="defs3051"><style type="text/css" id="current-color-scheme">.ColorScheme-Text{color:#5d656b}</style></defs><path d="M7 2v5.041A3.5 3.5 0 0 0 4.004 10.5a3.5 3.5 0 0 0 3.5 3.5 3.5 3.5 0 0 0 3.5-3.5A3.5 3.5 0 0 0 8 7.04V2H7zm.504 6a2.5 2.5 0 0 1 2.5 2.5 2.5 2.5 0 0 1-2.5 2.5 2.5 2.5 0 0 1-2.5-2.5 2.5 2.5 0 0 1 2.5-2.5z" class="ColorScheme-Text" fill="currentColor"/><path d="M10 10.5A2.5 2.5 0 0 1 7.5 13 2.5 2.5 0 0 1 5 10.5 2.5 2.5 0 0 1 7.5 8a2.5 2.5 0 0 1 2.5 2.5z" class="ColorScheme-Text" fill="currentColor" fill-opacity=".5"/></svg>