<svg xmlns="http://www.w3.org/2000/svg" viewBox="0 0 16 16"><path d="M2 2v12h12V5h-1v8H3V5h7V2H2zm5 4c-1.066 0-1.514.352-1.514 1.254L5.456 8c-.047.369-.176.678-.579.678h-.305v.644h.305c.589 0 .61.644.61 1.201-.006.174.013.37.017.479.083.712.538 1 1.496 1v-.594c-.45 0-.606-.116-.67-.406-.034-.116-.037-.514-.05-.705 0-.415-.124-1.035-.723-1.291.473-.203.644-.628.697-1 .024-.104.017-.224.023-.305 0-.866.01-1.103.721-1.103L7 6zm2 0l.002.598c.711 0 .72.237.72 1.103.007.081 0 .2.024.305.053.372.224.797.697 1-.599.256-.722.876-.722 1.29-.014.192-.017.59-.051.706-.064.29-.22.406-.67.406v.594c.958 0 1.413-.288 1.496-1 .004-.109.023-.305.018-.479 0-.557.02-1.2.609-1.2h.305v-.645h-.305c-.403 0-.532-.309-.578-.678l-.031-.746C10.514 6.352 10.066 6 9 6z" fill="currentColor" color="#5d656b"/><path d="M11 5l3-1.5L11 2z" fill="currentColor" color="#f67400"/></svg>