<svg xmlns="http://www.w3.org/2000/svg" viewBox="0 0 16 16"><path d="M2 2v12h12V2h-3v3h2v8H3V5h2V2H2zm4.43 4c-1.066 0-1.514.352-1.514 1.254L4.885 8c-.046.369-.175.678-.578.678h-.305v.644h.305c.589 0 .609.644.609 1.201-.005.174.014.37.018.479.083.712.538 1 1.496 1v-.594c-.45 0-.606-.116-.67-.406-.034-.116-.037-.514-.051-.705 0-.415-.124-1.035-.723-1.291.473-.203.645-.628.698-1 .024-.104.017-.224.023-.305 0-.866.012-1.103.723-1.103V6zM7.5 6v1h1V6h-1zm2.08 0v.598c.711 0 .723.237.723 1.103.006.081 0 .2.023.305.053.372.224.797.697 1-.599.256-.722.876-.722 1.29-.014.192-.017.59-.051.706-.064.29-.22.406-.67.406v.594c.958 0 1.413-.288 1.496-1 .004-.109.023-.305.018-.479 0-.557.02-1.2.61-1.2h.304v-.645h-.305c-.403 0-.532-.309-.578-.678l-.031-.746C11.094 6.352 10.646 6 9.58 6zM7.5 8v4h1V8h-1z" fill="currentColor" color="#5d656b"/><path d="M10 2L8 5 6 2z" fill="currentColor" color="#f67400"/></svg>