<svg xmlns="http://www.w3.org/2000/svg" viewBox="0 0 16 16"><path d="M9.523 2c0 1.424 1.006 2.603 1.762 3.326C10.386 6.24 9.278 6.652 7.25 7l.207 1C11.977 7.224 14 4.382 14 2h-1.107c0 .693-.35 2.03-.95 2.545-.611-.58-1.351-1.477-1.529-2.53L9.524 2zM4 6L2 9h4L4 6zm7.76 3.033c-.868.018-1.534.155-2.018.356l.272.9c.232-.073 1.11-.328 1.625-.328h.07c.716.027.766.265.766.82V11l-.373.055c-1.736.227-2.663.419-2.663 1.62 0 .839.676 1.358 1.655 1.358.676 0 1.12-.255 1.574-.601l.14.51h1.069v-3.37c0-1.029-.786-1.539-1.996-1.539h-.121zM2 11l2 3 2-3H2zm10.475.71v1.12c-.374.228-.655.393-1.14.393-.433 0-.646-.246-.646-.592 0-.656.636-.765 1.413-.865l.373-.055z" fill="currentColor" color="#5d656b"/></svg>