<svg xmlns="http://www.w3.org/2000/svg" viewBox="0 0 16 16"><path d="M5 2L2 4l3 2V2zm1 0v4l3-2-3-2zM4.32 7c-.867.018-1.533.155-2.017.355l.271.9c.232-.072 1.11-.325 1.625-.325h.07c.717.027.768.262.768.818v.219l-.373.054C2.93 9.25 2 9.441 2 10.643 2 11.48 2.676 12 3.654 12c.676 0 1.12-.255 1.575-.602l.14.51h1.07V8.54C6.44 7.51 5.652 7 4.441 7h-.12zm5.203 0c0 1.424 1.006 2.603 1.762 3.326-.899.913-2.007 1.326-4.035 1.674l.207 1C11.977 12.224 14 9.382 14 7h-1.107c0 .693-.35 2.03-.95 2.545-.611-.58-1.351-1.477-1.529-2.53L9.524 7zM5.037 9.678v1.119c-.373.228-.656.392-1.14.392-.434 0-.647-.245-.647-.591 0-.656.637-.765 1.414-.866l.373-.054z" fill="currentColor" color="#5d656b"/></svg>