<svg xmlns="http://www.w3.org/2000/svg" viewBox="0 0 16 16"><defs id="defs3051"><style type="text/css" id="current-color-scheme">.ColorScheme-Text{color:#5d656b}</style></defs><path d="M5.094 2.766A6 6 0 0 0 2 8a6 6 0 0 0 6 6 6 6 0 0 0 6-6 6 6 0 0 0-.09-1h-1.015A5 5 0 0 1 13 8a5 5 0 0 1-5 5 5 5 0 0 1-5-5 5 5 0 0 1 2.725-4.445z" class="ColorScheme-Text" fill="currentColor"/><path d="M5.72 3.55a5 5 0 1 0 7.281 4.449 4.916 4.916 0 0 0-.104-.99S5.716 3.532 5.719 3.55" class="ColorScheme-Text" fill="currentColor" fill-opacity=".5"/></svg>