<svg xmlns="http://www.w3.org/2000/svg" viewBox="0 0 16 16"><path d="M13.428 2.006A1.5 6.75 44.99 0 0 8.05 5.83a1.5 6.75 44.99 0 0-2.656 3.086 2.603 2.603 0 0 1 1.693 1.693 1.5 6.75 44.99 0 0 3.084-2.658 1.5 6.75 44.99 0 0 3.71-5.834 1.5 6.75 44.99 0 0-.247-.111 1.5 6.75 44.99 0 0-.207 0zM12 8c-.39 1.277-1.361 2.371-1.781 3.25a1.766 1.766 0 0 0-.219.875c0 1.039.892 1.875 2 1.875s2-.836 2-1.875c0-.317-.103-.614-.25-.875-.42-.879-1.36-1.973-1.75-3.25zM5 9.996V10c-3 .804-.75 2.703-3 4 3 0 4.5-1.5 4.5-2.502 0-.5.051-1.419-1.5-1.502z" fill="currentColor" color="#5d656b"/></svg>