<svg xmlns="http://www.w3.org/2000/svg" viewBox="0 0 16 16"><path d="M12.5 2a1.5 1.5 0 0 0-1.412 1H2v1c1.855.959 3.165 2.48 3.357 3.303.262 1.119-.141 2.43-1.185 3.857A1.5 1.5 0 0 0 3.5 11 1.5 1.5 0 0 0 2 12.5 1.5 1.5 0 0 0 3.5 14a1.5 1.5 0 0 0 1.412-1H9v1h3v-3H9v1H4.912a1.5 1.5 0 0 0-.037-.096c1.304-1.68 1.899-3.25 1.55-4.763C6.133 5.862 5.242 4.865 3.97 4h7.119A1.5 1.5 0 0 0 12.5 5 1.5 1.5 0 0 0 14 3.5 1.5 1.5 0 0 0 12.5 2zm0 1a.5.5 0 0 1 .5.5.5.5 0 0 1-.5.5.5.5 0 0 1-.5-.5.5.5 0 0 1 .5-.5zm-9 9a.5.5 0 0 1 .494.436.5.5 0 0 1 .004.029.5.5 0 0 1 .002.02.5.5 0 0 1 0 .015.5.5 0 0 1-.5.5.5.5 0 0 1-.492-.414.5.5 0 0 1 0-.002A.5.5 0 0 1 3 12.5a.5.5 0 0 1 .002-.05A.5.5 0 0 1 3.5 12zm6.5 0h1v1h-1v-1z" fill="currentColor" color="#5d656b"/></svg>