<svg xmlns="http://www.w3.org/2000/svg" viewBox="0 0 16 16"><path d="M9.156 2L2 9.125V12c1.075.019 2.844 0 2.844 0L12 4.844 9.156 2zm-.719 2.156l1.407 1.407-2.846 2.875-1.437-1.44 2.877-2.842zM4.845 7.72L6.28 9.125l-.718.719-1.407-1.406.688-.72zM12.123 9c-.196.001-.73.046-1.562.563-.26.162-.453.346-.75.564-.158.116-.726.494-.938.625-.619.383-.841.48-1.375.75-.517.261-1.058.498-1.437.687-1.592.795-4.065.813-4.065.813v1s2.498.032 4.315-.875c.24-.12.668-.318 1.062-.5 0 0 1.119-.593 1.125-.594.196-.109.361-.192.656-.375.228-.14.775-.491 1-.656.33-.243.543-.422.719-.531.385-.302.82-.482 1.25-.469-.034 0 .13.01.281.094.151.084.31.234.438.375.245.332.356.585.406 1.031-.036 1.307-1.28 1.505-2.25 1.5v1c1.979.089 3-.834 3-2.531a2.606 2.606 0 0 0-.156-.844c-.106-.319-.266-.676-.5-.938-.361-.423-.543-.608-1.219-.687V9z" fill="currentColor" color="#5d656b"/></svg>