<svg xmlns="http://www.w3.org/2000/svg" viewBox="0 0 16 16"><path d="M6.5 2a4.5 4.5 0 0 0 0 9 4.5 4.5 0 0 0 2.813-1l4 4 .687-.688-4-4A4.5 4.5 0 0 0 11 6.5 4.5 4.5 0 0 0 6.5 2zm0 1A3.5 3.5 0 0 1 10 6.5c0 .197-.03.375-.063.563-.025.158-.047.317-.093.468-.01.03-.02.064-.031.094-.01.031-.02.063-.032.094a3.442 3.442 0 0 1-.187.406c-.011.02-.02.042-.031.063-.081.147-.181.272-.282.406-.198.263-.424.49-.687.687-.134.1-.26.2-.406.281-.02.012-.043.02-.063.032l-.063.031a3.403 3.403 0 0 1-.437.188c-.031.01-.062.021-.094.03-.15.047-.31.07-.468.095-.182.028-.374.062-.563.062A3.5 3.5 0 0 1 3 6.5c0-.242.016-.49.063-.719A3.499 3.499 0 0 1 6.5 3zM3 12a1 1 0 1 0 0 2 1 1 0 0 0 0-2zm3 0a1 1 0 1 0 0 2 1 1 0 0 0 0-2zm3 0a1 1 0 1 0 0 2 1 1 0 0 0 0-2z" fill="currentColor" color="#5d656b"/></svg>