<svg xmlns="http://www.w3.org/2000/svg" viewBox="0 0 16 16"><path d="M2 2v3h1V3h2V2H2zm4 0v1h4V2H6zm5 0v1h2v2h1V2h-3zM7.855 4c-.704 0-1.322.166-1.855.498l.21.66c.537-.303 1.049-.457 1.534-.457.403 0 .713.096.928.285.215.186.324.467.324.846 0 .207-.054.435-.164.682a4.877 4.877 0 0 1-.395.722c-.156.24-.316.487-.476.74a4.968 4.968 0 0 0-.41.84 2.887 2.887 0 0 0-.188.9h.528c.113-.342.265-.667.453-.974.192-.31.378-.573.558-.787.184-.214.36-.43.528-.644.172-.215.31-.446.412-.696.106-.25.158-.519.158-.808 0-.315-.058-.59-.176-.827a1.4 1.4 0 0 0-.476-.568c-.2-.14-.426-.243-.676-.31A3.115 3.115 0 0 0 7.855 4zM2 6v4h1V6H2zm11 0v4h1V6h-1zm-5.39 4.816c-.22 0-.389.056-.506.17a.57.57 0 0 0-.17.418.59.59 0 0 0 .17.424c.117.114.286.172.505.172.22 0 .387-.058.5-.172a.578.578 0 0 0 .17-.424.57.57 0 0 0-.17-.418c-.113-.114-.28-.17-.5-.17zM2 11v3h3v-1H3v-2H2zm11 0v2h-2v1h3v-3h-1zm-7 2v1h4v-1H6z" fill="currentColor" color="#5d656b"/></svg>