<svg xmlns="http://www.w3.org/2000/svg" viewBox="0 0 16 16"><path d="M2.5 2a.5.5 0 1 0 0 1 .5.5 0 0 0 0-1zm3 0a.5.5 0 1 0 0 1 .5.5 0 0 0 0-1zm7.66 0L9.738 6.31C9.063 6.055 8.211 5.983 7 6 5.644 7.293 4.75 7.71 2 8v1c2.114 3.372 3.475 5 7 5h1c1.074-1.384 1.627-2.39 2-4V9c-.441-.99-.842-1.665-1.326-2.121L14 2.66 13.16 2zM4 4a1 1 0 1 0 0 2 1 1 0 0 0 0-2zm3.53 3.102c2.102.164 2.639.914 3.327 2.597-.572 1.547-.472 1.904-1.584 3.27-3.137-.274-4.22-1.428-5.947-4.139 1.796-.073 2.782-.725 4.203-1.728z" fill="currentColor" color="#5d656b"/></svg>