<svg xmlns="http://www.w3.org/2000/svg" viewBox="0 0 16 16"><path d="M7.252 2c-.941 0-1.711.234-2.31.7-.594.46-.891 1.063-.891 1.812 0 .883.41 1.758 1.234 2.625l.227.242a9.017 9.017 0 0 0-.772.457 4.907 4.907 0 0 0-.681.537c-.224.209-.412.43-.563.666-.146.23-.266.507-.361.828-.09.316-.135.654-.135 1.018 0 .39.101.769.303 1.133.207.363.484.682.832.955.347.273.764.492 1.252.658.493.16 1.009.24 1.547.24 1.238 0 2.418-.412 3.545-1.236L11.766 14l.974-.771-1.336-1.39c.566-.561 1.097-1.256 1.596-2.085l-.957-.602a9.978 9.978 0 0 1-1.412 1.895L7.26 7.555l.547-.282c.123-.064.29-.158.504-.28.218-.124.386-.23.503-.321.118-.091.258-.204.42-.338.168-.14.297-.272.387-.4.09-.134.18-.281.27-.442.095-.166.162-.344.2-.531.04-.187.06-.385.06-.594 0-.765-.263-1.35-.79-1.758C8.835 2.203 8.131 2 7.252 2zm.018.955c.537 0 .944.126 1.218.377.275.246.41.605.41 1.076 0 .236-.043.46-.132.674a1.91 1.91 0 0 1-.32.537c-.124.15-.3.306-.53.467a9.067 9.067 0 0 1-.613.393c-.185.101-.426.224-.723.369l-.185-.192c-.74-.765-1.11-1.51-1.11-2.232 0-.444.194-.799.58-1.067.387-.267.856-.402 1.405-.402zM6.21 8.117l3.513 3.723c-.902.647-1.816.973-2.74.973-.751 0-1.377-.198-1.881-.594-.505-.402-.758-.889-.758-1.461 0-.6.163-1.103.488-1.51.325-.412.785-.788 1.379-1.13z" fill="currentColor" color="#5d656b"/></svg>