<svg xmlns="http://www.w3.org/2000/svg" viewBox="0 0 16 16"><path d="M8.057 2a2.01 2.01 0 0 0-2.02 2v1.75L2 9.75 6.291 14 12 8.344l-1.42-1.406-.504-.5V4c0-1.105-.904-2-2.02-2zm0 1c.557 0 1.01.448 1.01 1v1.438L7.708 4.093l-.662.656V4c0-.552.452-1 1.01-1zm-.348 2.5l2.871 2.844c-3 3.393-3.292-1.127-7.16 1.406L7.709 5.5zM12.5 9c-.292 1.064-1.021 1.977-1.336 2.709a1.6 1.6 0 0 0-.164.729c0 .865.669 1.562 1.5 1.562s1.5-.697 1.5-1.563c0-.264-.077-.51-.188-.728-.314-.732-1.02-1.645-1.312-2.709z" fill="currentColor" color="#5d656b"/></svg>