<svg xmlns="http://www.w3.org/2000/svg" viewBox="0 0 16 16"><path d="M2 2v12h7v-1H3V7h10v2h1V4H9.008l-2-2L7 2.008V2H2zm1 1h3.592l1.002 1H7v.008L6.992 4l-2 2H3V3zm8.5 6A2.5 2.5 0 0 0 9 11.5a2.5 2.5 0 0 0 .416 1.377l.732-.732A1.5 1.5 0 0 1 10 11.5a1.5 1.5 0 0 1 1.5-1.5 1.5 1.5 0 0 1 .645.148l.732-.732A2.5 2.5 0 0 0 11.5 9zm2.084 1.123l-.732.732A1.5 1.5 0 0 1 13 11.5a1.5 1.5 0 0 1-1.5 1.5 1.5 1.5 0 0 1-.645-.148l-.732.732A2.5 2.5 0 0 0 11.5 14a2.5 2.5 0 0 0 2.5-2.5 2.5 2.5 0 0 0-.416-1.377z" fill="currentColor" color="#5d656b"/></svg>