<svg xmlns="http://www.w3.org/2000/svg" viewBox="0 0 16 16"><defs id="defs3051"><style type="text/css" id="current-color-scheme"></style></defs><path d="M5 2a1 1 0 0 0-1 1v2H2v3h1V6h10v2h1V5h-2V3a1 1 0 0 0-1-1H5zm0 1h6v2H5V3zm-.996 6a1 1 0 0 0-1 1 1 1 0 0 0 1 1 1 1 0 0 0 1-1 1 1 0 0 0-1-1zm-1.32 3a2 2 0 0 0-.68 1.5v.5h4v-.5a2 2 0 0 0-.68-1.5h-2.64z" fill="currentColor" color="#5d656b"/><path d="M11 8c-1.662 0-3 1.338-3 3s1.338 3 3 3 3-1.338 3-3-1.338-3-3-3m0 1c1.108 0 2 .892 2 2s-.892 2-2 2-2-.892-2-2 .892-2 2-2m-1 1v2h2v-1h-1v-1z" fill="currentColor" color="#da4453"/></svg>