<svg xmlns="http://www.w3.org/2000/svg" viewBox="0 0 16 16"><path d="M3.826 5.998l-2.83 8h1.145l.972-2.285h2.725l.873 2.285h1.143l-2.59-8H3.826zM8.711 6v8h4a2.286 2.286 0 0 0 2.285-2.285 2.286 2.286 0 0 0-1.533-2.154 2.286 2.286 0 0 0 .39-1.276A2.286 2.286 0 0 0 11.567 6H8.711zm1.143 1.143h1.712a1.143 1.143 0 0 1 1.143 1.142 1.143 1.143 0 0 1-1.143 1.143H9.854V7.143zm-5.311.095l1.072 3.332H3.36l1.184-3.332zm5.31 3.334h2.858a1.143 1.143 0 0 1 1.143 1.143 1.143 1.143 0 0 1-1.143 1.142H9.854v-2.285z" fill="currentColor" color="#5d656b"/><path d="M8.71 5h5l-2.5-3z" fill="currentColor" color="#3daee9"/></svg>