<svg xmlns="http://www.w3.org/2000/svg" viewBox="0 0 16 16"><defs id="defs3051"><style type="text/css" id="current-color-scheme">.ColorScheme-Text{color:#5d656b}</style></defs><path d="M15 1v13H2V1h13zm-1 1H9v5h5V2zM8 2H3v5h5V2zm6 6H9v5h5V8zM8 8H3v5h5V8z" fill="currentColor" color="#fcfcfc"/><path d="M14.293 1L2 13.293V14h.707L15 1.707V1h-.707z" class="ColorScheme-Text" fill="currentColor"/><path d="M14 2v5H9V2h5zM8 2v5H3V2h5zm6 6v5H9V8h5zM8 8v5H3V8h5z" class="ColorScheme-Text" fill="currentColor" fill-opacity=".5"/></svg>