<svg xmlns="http://www.w3.org/2000/svg" viewBox="0 0 16 16"><defs id="defs3051"><style type="text/css" id="current-color-scheme">.ColorScheme-Text{color:#5d656b}</style></defs><g id="g6"><path d="M436.714 532.79v13h-13v-13h13zm-1 1h-5v5h5v-5zm-6 0h-5v5h5v-5zm6 6h-5v5h5v-5zm-6 0h-5v5h5v-5z" fill="currentColor" color="#fcfcfc" transform="matrix(-1 0 0 1 438.714 -531.79)"/><path d="M436.007 532.79l-12.293 12.294v.707h.707l12.293-12.293v-.707h-.707z" class="ColorScheme-Text" fill="currentColor" transform="matrix(-1 0 0 1 438.714 -531.79)"/><path d="M435.714 533.79v5h-5v-5h5zm-6 0v5h-5v-5h5zm6 6v5h-5v-5h5zm-6 0v5h-5v-5h5z" class="ColorScheme-Text" fill="currentColor" fill-opacity=".5" transform="matrix(-1 0 0 1 438.714 -531.79)"/></g></svg>