<svg xmlns="http://www.w3.org/2000/svg" viewBox="0 0 16 16"><defs id="defs3051"><style type="text/css" id="current-color-scheme">.ColorScheme-Text{color:#5d656b}</style></defs><path d="M2 14h6v-1H3V8h5V7H3V2h5V1H2v13zm7 0h5v-1H9v1zm0-6h5V7H9v1zm0-6h5V1H9v1z" fill="currentColor" color="#fcfcfc"/><path d="M14 14V1h1v13z" class="ColorScheme-Text" fill="currentColor"/><path d="M3 2h5v5H3V2zm0 6h5v5H3V8zm6-6h5v5H9V2zm0 6h5v5H9V8z" class="ColorScheme-Text" fill="currentColor" fill-opacity=".5"/></svg>