<svg xmlns="http://www.w3.org/2000/svg" viewBox="0 0 16 16"><defs id="defs3051"><style type="text/css" id="current-color-scheme">.ColorScheme-Text{color:#5d656b}</style></defs><path d="M-419.714-530.79v6h1v-5h5v-1h-6zm7 0v1h5v5h1v-6h-6zm-7 7v6h6v-1h-5v-5h-1zm12 0v5h-5v1h6v-6h-1z" fill="currentColor" color="#fcfcfc"/><path d="M8 1v6H2v1h6v6h1V8h6V7H9V1H8z" class="ColorScheme-Text" fill="currentColor"/><path d="M14 2v5H9V2h5zM8 2v5H3V2h5zm6 6v5H9V8h5zM8 8v5H3V8h5z" class="ColorScheme-Text" fill="currentColor" fill-opacity=".5"/></svg>