<svg xmlns="http://www.w3.org/2000/svg" viewBox="0 0 16 16"><path d="M5.018 2c.01.458.012.8.015 1.23A74.454 74.454 0 0 1 2.018 3c0 3.65 1.67 7.289 5 7.9V13h-1v1h4v-1h-1v-2.1c3.134-.575 4.778-3.837 4.962-7.261.018-.216.017-.346.02-.639a74.822 74.822 0 0 1-3.006.223c.008-.408.017-.815.024-1.223-1.81.453-3.756.582-6 0zm3 2l.619 1.316 1.38.211-1 1.026L9.255 8l-1.236-.684L6.78 8l.237-1.447-1-1.026 1.38-.21L8.018 4zm4.947.094c-.188 2.273-1.007 4.754-3.207 5.601.78-1.442 1.068-3.737 1.18-5.46a66.06 66.06 0 0 0 2.027-.141zM3.072 4.1c.688.058 1.37.109 2.026.142.112 1.723.4 4.013 1.18 5.453C4.078 8.848 3.26 6.371 3.071 4.1z" fill="currentColor" color="#5d656b"/></svg>