<svg xmlns="http://www.w3.org/2000/svg" viewBox="0 0 16 16"><path d="M3 2v2.555l-.877.39L2 4.891v1.203l.127-.057L3 6.42v3.283l-.734.32-.063-.027L2 9.906v1.326l.264-.115.736.328V14h1v-2.111l2 .888v.684l-1.203.535-.008.004H7.25l.75-.334.75.334h2.46l-.007-.004L10 13.461v-.684l2-.888V14h1v-2.555l.736-.328.264.115V9.906l-.203.09-.063.027-.734-.32V6.42l.873-.383.127.057V4.89l-.123.054-.877-.39V2h-1v2.111l-2-.888v-.684l1.203-.535.008-.004H8.75L8 2.334 7.25 2H4.79l.007.004L6 2.539v.684L4 4.11V2H3zm5 1.428l1 .443v3.207l-1 .438-1-.438V3.871l1-.443zm-2 .888v2.325l-2-.875v-.56l2-.89zm4 0l2 .89v.56l-2 .875V4.316zM4 6.857l2 .875v.659l-2 .875V6.857zm8 0v2.409l-2-.875v-.659l2-.875zm-4 1.75l1 .438v3.084l-1 .443-1-.443V9.045l1-.438zm-2 .875v2.202l-2-.89v-.437l2-.875zm4 0l2 .875v.438l-2 .889V9.482z" fill="currentColor" color="#5d656b"/></svg>