<svg xmlns="http://www.w3.org/2000/svg" viewBox="0 0 16 16"><defs id="defs3051"><style type="text/css" id="current-color-scheme">.ColorScheme-Text{color:#5d656b}</style></defs><path d="M6.39 3L2.007 14h1.357l1.189-3h4.928l1.152 3h1.373L7.754 3zm.68 1.328c.113.376.711 2.082 1.797 5.115l.225.557H4.949z" class="ColorScheme-Text" fill="currentColor"/><path d="M13 2a1 1 0 0 0-1 1 1 1 0 0 0 1 1 1 1 0 0 0 1-1 1 1 0 0 0-1-1zm0 3a1 1 0 0 0-1 1 1 1 0 0 0 1 1 1 1 0 0 0 1-1 1 1 0 0 0-1-1zm0 3a1 1 0 0 0-1 1 1 1 0 0 0 1 1 1 1 0 0 0 1-1 1 1 0 0 0-1-1z" class="ColorScheme-Text" fill="currentColor" fill-rule="evenodd"/></svg>