<svg xmlns="http://www.w3.org/2000/svg" viewBox="0 0 16 16"><path d="M7 2a5 5 0 0 0-5 5 5 5 0 0 0 .816 2.73L2 13l2.51-1.672A5 5 0 0 0 7 12a5 5 0 0 0 1.758-.324 3.5 3.5 0 0 1-.508-.881A4 4 0 0 1 7 11a4 4 0 0 1-4-4 4 4 0 0 1 4-4 4 4 0 0 1 3.883 3.057A3.5 3.5 0 0 1 11.5 6a3.5 3.5 0 0 1 .404.025A5 5 0 0 0 7 2zm4.5 5A2.5 2.5 0 0 0 9 9.5a2.5 2.5 0 0 0 1.361 2.223L11.5 14l1.139-2.277A2.5 2.5 0 0 0 14 9.5 2.5 2.5 0 0 0 11.5 7zm0 1A1.5 1.5 0 0 1 13 9.5a1.5 1.5 0 0 1-1.5 1.5A1.5 1.5 0 0 1 10 9.5 1.5 1.5 0 0 1 11.5 8z" fill="currentColor" color="#5d656b"/></svg>