<svg xmlns="http://www.w3.org/2000/svg" viewBox="0 0 16 16"><path d="M8 2a1.5 2.25 0 0 0-1.5 2.25 1.5 2.25 0 0 0 .004.139 2.25 1.5 45 0 0-.096-.1 2.25 1.5 45 0 0-2.65-.531 2.25 1.5 45 0 0 .53 2.652 2.25 1.5 45 0 0 .099.094A2.25 1.5 0 0 0 4.25 6.5 2.25 1.5 0 0 0 2 8a2.25 1.5 0 0 0 2.25 1.5 2.25 1.5 0 0 0 .139-.004 1.5 2.25 45 0 0-.102.096 1.5 2.25 45 0 0-.53 2.65 1.5 2.25 45 0 0 2.651-.53 1.5 2.25 45 0 0 .096-.099 1.5 2.25 0 0 0-.004.137A1.5 2.25 0 0 0 8 14a1.5 2.25 0 0 0 1.5-2.25 1.5 2.25 0 0 0-.004-.139 2.25 1.5 45 0 0 .096.102 2.25 1.5 45 0 0 2.65.53 2.25 1.5 45 0 0-.53-2.651 2.25 1.5 45 0 0-.099-.096 2.25 1.5 0 0 0 .137.004A2.25 1.5 0 0 0 14 8a2.25 1.5 0 0 0-2.25-1.5 2.25 1.5 0 0 0-.139.004 1.5 2.25 45 0 0 .102-.094 1.5 2.25 45 0 0 .53-2.652 1.5 2.25 45 0 0-2.651.531 1.5 2.25 45 0 0-.096.1A1.5 2.25 0 0 0 9.5 4.25 1.5 2.25 0 0 0 8 2zm.746 4.197a1.5 2.25 45 0 0 .315.742 1.5 2.25 45 0 0 .74.315A2.25 1.5 0 0 0 9.5 8a2.25 1.5 0 0 0 .303.746 2.25 1.5 45 0 0-.742.315 2.25 1.5 45 0 0-.315.74A1.5 2.25 0 0 0 8 9.5a1.5 2.25 0 0 0-.746.3 1.5 2.25 45 0 0-.315-.74 1.5 2.25 45 0 0-.74-.314A2.25 1.5 0 0 0 6.5 8a2.25 1.5 0 0 0-.3-.746 2.25 1.5 45 0 0 .74-.315 2.25 1.5 45 0 0 .314-.74A1.5 2.25 0 0 0 8 6.5a1.5 2.25 0 0 0 .746-.303zM8 7.25a.748.748 0 0 0-.75.75c0 .415.335.75.75.75s.75-.335.75-.75A.748.748 0 0 0 8 7.25z" fill="currentColor" color="#5d656b"/></svg>