<svg xmlns="http://www.w3.org/2000/svg" viewBox="0 0 16 16"><path d="M5.318 2C3.485 2 2 3.466 2 5.273c0 .604.167 1.169.457 1.654a5.58 5.58 0 0 0-.117 1.135c0 3.117 2.563 5.645 5.725 5.645.358 0 .707-.034 1.047-.096.467.248 1 .389 1.57.389C12.515 14 14 12.534 14 10.727c0-.522-.125-1.015-.346-1.453.086-.39.133-.795.133-1.211 0-3.117-2.562-5.643-5.723-5.643-.334 0-.66.029-.979.082A3.34 3.34 0 0 0 5.317 2m2.707 2.092c.511 0 .961.059 1.336.174.377.116.695.272.945.465.252.194.439.402.557.617.119.218.18.433.18.643 0 .202-.08.386-.236.545a.787.787 0 0 1-.586.242c-.212 0-.379-.052-.494-.152a1.83 1.83 0 0 1-.342-.447 1.862 1.862 0 0 0-.514-.627c-.192-.144-.513-.217-.955-.217-.41 0-.744.08-.992.24-.239.154-.354.332-.354.541 0 .129.036.236.113.328.081.098.197.184.342.256.15.075.306.134.461.176.159.044.425.108.791.191.463.098.889.209 1.266.328.381.12.71.267.979.439.274.176.493.402.646.672.155.271.232.606.232.994 0 .465-.135.889-.4 1.26-.264.37-.657.663-1.164.871-.502.206-1.102.309-1.787.309-.822 0-1.513-.143-2.051-.424a2.663 2.663 0 0 1-.941-.824c-.243-.346-.367-.688-.367-1.02 0-.207.082-.387.24-.533a.841.841 0 0 1 .596-.219c.197 0 .366.059.504.174.132.11.245.272.336.482.102.229.213.422.33.574.112.147.272.271.479.367.208.097.488.145.832.145.473 0 .861-.098 1.152-.295.285-.192.424-.423.424-.705a.686.686 0 0 0-.221-.535 1.568 1.568 0 0 0-.611-.332 11.88 11.88 0 0 0-1.049-.256 8.462 8.462 0 0 1-1.5-.443 2.47 2.47 0 0 1-.984-.709c-.246-.303-.369-.684-.369-1.131 0-.426.131-.811.389-1.143.256-.329.63-.584 1.111-.76.475-.173 1.039-.262 1.678-.262" fill="currentColor" color="#5d656b"/></svg>