<svg xmlns="http://www.w3.org/2000/svg" viewBox="0 0 16 16"><path d="M10.309 3c-1.36 0-2.463 1.131-2.463 2.525 0 .198.022.39.064.575-2.046-.106-3.86-1.11-5.074-2.637a2.556 2.556 0 0 0-.334 1.267c0 .876.435 1.65 1.096 2.102a2.402 2.402 0 0 1-1.116-.314v.03c0 1.224.849 2.243 1.975 2.475a2.404 2.404 0 0 1-1.111.043c.313 1.003 1.221 1.734 2.299 1.754A4.859 4.859 0 0 1 2 11.865 6.842 6.842 0 0 0 5.773 13c4.529 0 7.004-3.847 7.004-7.184 0-.109-.002-.217-.006-.326.482-.356.899-.8 1.229-1.306a4.83 4.83 0 0 1-1.414.398 2.521 2.521 0 0 0 1.082-1.396 4.847 4.847 0 0 1-1.563.61A2.43 2.43 0 0 0 10.31 3z" fill="currentColor" color="#5d656b"/></svg>