<svg xmlns="http://www.w3.org/2000/svg" viewBox="0 0 16 16"><defs id="defs3051"><style type="text/css" id="current-color-scheme">.ColorScheme-Text{color:#5d656b}</style></defs><path d="M3 4c-.554 0-1 .446-1 1v5c0 .554.446 1 1 1h9c.554 0 1-.446 1-1V5c0-.554-.446-1-1-1zm7 1.5h1v3H6v1L4 8l2-1.5v1h4z" class="ColorScheme-Text" fill="currentColor"/><path d="M13 5v5c0 .554-.446 1-1 1H3c0 .554.446 1 1 1h9c.554 0 1-.446 1-1V6c0-.554-.446-1-1-1" class="ColorScheme-Text" fill="currentColor" fill-opacity=".5"/></svg>