<svg xmlns="http://www.w3.org/2000/svg" viewBox="0 0 16 16"><defs id="defs3051"><style type="text/css" id="current-color-scheme">.ColorScheme-Text{color:#5d656b}</style></defs><path d="M10.5 7c1.939 0 3.5 1.561 3.5 3.5S12.439 14 10.5 14A3.492 3.492 0 0 1 7 10.5C7 8.561 8.561 7 10.5 7z" class="ColorScheme-Text" fill="currentColor" fill-opacity=".5"/><path d="M4 2v2H2v1h2v6H2v1h2v2h1v-2h2.346a3.469 3.469 0 0 1-.297-1H5V5h6v2.049c.354.05.69.15 1 .297V5h2V4h-2V2h-1v2H5V2H4zm9.951 9c-.05.354-.15.69-.297 1H14v-1h-.049zM12 13.654c-.31.148-.646.247-1 .297V14h1v-.346z" class="ColorScheme-Text" fill="currentColor"/></svg>