<svg xmlns="http://www.w3.org/2000/svg" viewBox="0 0 16 16"><path d="M4.5 2A1.5 1.5 0 0 0 3 3.5a1.5 1.5 0 0 0 1 1.412V11a2 2 0 0 0 2 2h1v1l2-1.5L7 11v1H6a1 1 0 0 1-1-1V4.912A1.5 1.5 0 0 0 6 3.5 1.5 1.5 0 0 0 4.5 2zM9 2L7 3.5 9 5V4h1a1 1 0 0 1 1 1v6.088a1.5 1.5 0 0 0-1 1.412 1.5 1.5 0 0 0 1.5 1.5 1.5 1.5 0 0 0 1.5-1.5 1.5 1.5 0 0 0-1-1.412V5a2 2 0 0 0-2-2H9V2zM4.5 3a.5.5 0 0 1 .5.5.5.5 0 0 1-.5.5.5.5 0 0 1-.5-.5.5.5 0 0 1 .5-.5zm7 9a.5.5 0 0 1 .5.5.5.5 0 0 1-.5.5.5.5 0 0 1-.5-.5.5.5 0 0 1 .5-.5z" fill="currentColor" color="#5d656b"/></svg>