<svg xmlns="http://www.w3.org/2000/svg" viewBox="0 0 16 16"><path d="M8 2a6 6 0 0 0-6 6 6 6 0 0 0 6 6 6 6 0 0 0 6-6 6 6 0 0 0-6-6zm0 1a5 5 0 0 1 5 5 5 5 0 0 1-5 5 5 5 0 0 1-5-5 5 5 0 0 1 5-5zm2 1a1.99 1.99 0 0 0-1.734 1.018A3 3 0 0 0 8 5a3 3 0 0 0-3 3 3 3 0 0 0 3 3 3 3 0 0 0 3-3 3 3 0 0 0-.014-.268A1.996 1.996 0 0 0 10 4zm0 1a.998.998 0 0 1 .402 1.914 1 1 0 0 1-.021.01.998.998 0 0 1-1.38-.92A1 1 0 0 1 8.999 6c0-.137.029-.27.078-.389a1 1 0 0 1 0-.002A1.008 1.008 0 0 1 10 5zM8 6c0 1.108.892 2 2 2a2 2 0 0 1-2 2 2 2 0 0 1-2-2 2 2 0 0 1 2-2z" fill="currentColor" color="#5d656b"/></svg>