<svg width="16" height="16" version="1.1" xmlns="http://www.w3.org/2000/svg">
 <defs>
  <style id="current-color-scheme" type="text/css"/>
 </defs>
 <path d="m10 9c-0.554 0-1 0.446-1 1v5c0 0.554 0.446 1 1 1h5c0.554 0 1-0.446 1-1v-5c0-0.554-0.446-1-1-1zm0 1h1v1h1v1h1v-1h1v-1h1v5h-1v-3h-1v1h-1v-1h-1v3h-1z" color="#5d656b" fill="currentColor"/>
 <path d="m3 2v2l-2 2v8h8v-1h-7v-6h2l3.979 1.99v2e-3l0.021 8e-3 0.021-8e-3v-2e-3l3.979-1.99h2v2h1v-3l-2-2v-2zm1 1h8v2.863l-0.246 0.143-3.754 1.877-3.754-1.877-0.246-0.137zm1 1v1h6v-1z" color="#5d656b" fill="currentColor"/>
</svg>
