<svg xmlns="http://www.w3.org/2000/svg" viewBox="0 0 16 16"><path d="M7 2a3 3 0 1 0 0 6 3 3 0 0 0 0-6zm0 1a2 2 0 1 1 .001 3.999A2 2 0 0 1 7 3zm0 6c-2.761 0-5 2.01-5 4.5.001.167.012.334.033.5h9.93a3.99 3.99 0 0 0 .037-.5C12 11.015 9.761 9 7 9zm0 1c1.987.002 3.671 1.279 3.955 3h-7.91c.284-1.721 1.968-2.998 3.955-3z" fill="currentColor" color="#5d656b"/><path d="M13 2a1 1 0 0 0-1 1 1 1 0 0 0 1 1 1 1 0 0 0 1-1 1 1 0 0 0-1-1zm0 3a1 1 0 0 0-1 1 1 1 0 0 0 1 1 1 1 0 0 0 1-1 1 1 0 0 0-1-1zm0 3a1 1 0 0 0-1 1 1 1 0 0 0 1 1 1 1 0 0 0 1-1 1 1 0 0 0-1-1z" fill="currentColor" color="#da4453"/></svg>