<svg xmlns="http://www.w3.org/2000/svg" height="16" width="16"><path d="M11 2v2H2v1h9v1.652a1.998 1.998 0 0 0-.365-.152l-.008-.002a1.998 1.998 0 0 0-2.488 1.334A1.998 1.998 0 0 0 8.098 8H7V6H6v2H2v1h4v1.654a1.998 1.998 0 0 0-.365-.154l-.008-.002a1.998 1.998 0 0 0-2.488 1.334 1.998 1.998 0 0 0-.041.168H2v1h1.145a1.998 1.998 0 0 0 1.326 1.322A1.998 1.998 0 0 0 6.96 13H14v-1H7.004A1.998 1.998 0 0 0 7 11.982V9h1.145a1.998 1.998 0 0 0 1.328 1.322A1.998 1.998 0 0 0 11.96 9H14V8h-1.996A1.998 1.998 0 0 0 12 7.982V5h2V4h-2V2h-1zm-.943 5.457a.98.98 0 0 1 .255.035l.026.008a.98.98 0 0 1 .652 1.217.98.98 0 0 1-1.213.66.98.98 0 0 1-.668-1.209.98.98 0 0 1 .948-.711zm-5 4a.98.98 0 0 1 .256.035l.025.008a.98.98 0 0 1 .652 1.217.98.98 0 0 1-1.213.66.98.98 0 0 1-.668-1.209.98.98 0 0 1 .948-.711z" fill="currentColor" color="#5d656b"/></svg>