<svg xmlns="http://www.w3.org/2000/svg" height="16" width="16"><path d="M9.013 2.009v.777a2 2 0 0 0-.365-.154L8.64 2.63a1.998 1.998 0 0 0-2.5 1.379H2.013v1h4.111A1.998 1.998 0 0 0 7.792 6.52 1.998 1.998 0 0 0 6.128 8.01H2.013v1h4.121a1.998 1.998 0 0 0 1.657 1.464 1.998 1.998 0 0 0-1.674 1.535H2.013v1h4.133a1.998 1.998 0 0 0 3.83.024l.006-.024h4.031v-1h-4v-3h4v-1h-4v-3h4v-1h-4v-2zM8.07 3.56a.98.98 0 0 1 .256.037l.025.006a.98.98 0 1 1-.281-.043zm.943 2.737v.441a2.004 2.004 0 0 0-.365-.154l-.008-.002a2.006 2.006 0 0 0-.3-.065c.235-.033.464-.107.673-.22zM8.07 7.516a.98.98 0 0 1 .256.036l.025.007a.98.98 0 1 1-.281-.043zm.943 2.737v.441a2.017 2.017 0 0 0-.365-.154l-.008-.002c-.099-.03-.2-.05-.303-.064.237-.033.466-.108.676-.22zm-.943 1.219a.98.98 0 0 1 .256.035l.025.006a.98.98 0 1 1-.281-.042z" fill="currentColor" color="#5d656b"/></svg>