<svg xmlns="http://www.w3.org/2000/svg" height="16" width="16"><path d="M8.316 2.9c-.618-.01-1.247.396-1.81 1.1H2v1h3.87c-.425.813-.765 1.828-.976 3H2v1h2.742c-.028.273-.054.546-.07.824.01-.098.023-.196.035-.293.048-.176.107-.354.158-.531h4.28a1.998 1.998 0 0 0 1.328 1.322A1.998 1.998 0 0 0 12.961 9H14V8h-.996a1.998 1.998 0 0 0-1.369-1.5l-.008-.002a1.998 1.998 0 0 0-.815-.068A19.956 19.956 0 0 0 10.361 5H14V4H9.902c-.178-.3-.373-.562-.617-.742l-.082-.059a1.631 1.631 0 0 0-.887-.299zm-.209.739c.092-.01.186-.009.28.006.233.035.476.166.724.355H7.318c.253-.2.515-.332.79-.361zM6.471 5h3.527c.261.388.527.847.801 1.43a1.998 1.998 0 0 0-1.66 1.402A1.998 1.998 0 0 0 9.098 8H5.164c.369-1.128.805-2.197 1.307-3zm4.586 2.457a.98.98 0 0 1 .255.035l.026.008a.98.98 0 0 1 .652 1.217.98.98 0 0 1-1.213.66.98.98 0 0 1-.668-1.209.98.98 0 0 1 .948-.711zm-5.96 2.957a1.998 1.998 0 0 0-1.958 1.418 1.998 1.998 0 0 0-.041.168H2v1h1.144a1.998 1.998 0 0 0 1.327 1.322A1.998 1.998 0 0 0 6.96 13H14v-1H7.004a1.998 1.998 0 0 0-1.37-1.5l-.007-.002a1.998 1.998 0 0 0-.53-.084zm-.04 1.043a.98.98 0 0 1 .255.035l.026.008a.98.98 0 0 1 .652 1.217.98.98 0 0 1-1.213.66.98.98 0 0 1-.668-1.209.98.98 0 0 1 .948-.711z" fill="currentColor" color="#5d656b"/></svg>