<svg xmlns="http://www.w3.org/2000/svg" viewBox="0 0 16 16"><path d="M1.004 2a7 9 0 0 0 6 8.898v-1.02a6 8 0 0 1-5-7.878h-1zm13 0a6 8 0 0 1-5 7.887v1.01a7 9 0 0 0 6-8.895l-1-.002zm-11.5 8a1.5 1.5 0 0 0-1.5 1.5 1.5 1.5 0 0 0 1.5 1.5 1.5 1.5 0 0 0 1.414-1H5v-1H3.918a1.5 1.5 0 0 0-1.414-1zm11 0a1.5 1.5 0 0 0-1.412 1H11v1h1.092a1.5 1.5 0 0 0 1.412 1 1.5 1.5 0 0 0 1.5-1.5 1.5 1.5 0 0 0-1.5-1.5zm-11 1a.5.5 0 0 1 .496.441v.121a.5.5 0 0 1-.496.438.5.5 0 0 1-.5-.5.5.5 0 0 1 .5-.5zm11 0a.5.5 0 0 1 .5.5.5.5 0 0 1-.5.5.5.5 0 0 1-.5-.5.5.5 0 0 1 .5-.5z" fill="currentColor" color="#5d656b"/><path d="M8 8l-3 5h6zm0 2l1 2H7z" fill="currentColor" color="#3daee9"/></svg>