<svg xmlns="http://www.w3.org/2000/svg" viewBox="0 0 16 16"><path d="M11 3.5A7.5 7.5 0 0 0 3.5 11h1A6.5 6.5 0 0 1 11 4.5v-1zm1.004 6.5a2 2 0 0 0-2 2 2 2 0 0 0 .28 1.014l.755-.756a1 1 0 0 1-.035-.258 1 1 0 0 1 1-1 1 1 0 0 1 .258.035l.756-.756A2 2 0 0 0 12.004 10zm1.72.986l-.755.756a1 1 0 0 1 .035.258 1 1 0 0 1-1 1 1 1 0 0 1-.258-.035l-.756.756a2 2 0 0 0 1.014.279 2 2 0 0 0 2-2 2 2 0 0 0-.28-1.014z" fill="currentColor" color="#5d656b"/><path d="M11 2v4h4V2h-4zm1 1h2v2h-2V3zM2 10v4h4v-4H2zm1 1h2v2H3v-2z" fill="currentColor" color="#3daee9"/></svg>