<svg xmlns="http://www.w3.org/2000/svg" viewBox="0 0 16 16"><defs id="defs3051"><style type="text/css" id="current-color-scheme">.ColorScheme-Text{color:#5d656b}</style></defs><path d="M2 2v12h12v-1H3v-1h3.006v-.008l.008.008 2-2h1.591l2 2h2.4v-1H12.02l-2-2H7.6l-2 2H3V8.996h2v-.008l.008.008L6.004 8H8V7H7V6H6v1.996l-.703-.703-.703.703H3V2H2zm4 0v2h1V3h1V2H6zm4 0v1h1v1h1V2h-2zM9 3.59L7.297 5.293 8.004 6 9 5.004 9.996 6l.707-.707L9 3.59zM11 6v1h-1v1h2V6h-1zm3 0l-1 1h1V6z" class="ColorScheme-Text" fill="currentColor"/><path d="M9 5L7.004 7H8v1H6.006l-.998 1h-3.01v4h5l2-.008 5 .008V7h-2v1h-2V7h1L9 5z" class="ColorScheme-Text" fill="currentColor" fill-opacity=".5"/></svg>