<svg xmlns="http://www.w3.org/2000/svg" viewBox="0 0 16 16"><defs id="defs3051"><style type="text/css" id="current-color-scheme">.ColorScheme-Text{color:#5d656b}</style></defs><path d="M2 2v2.996h-.992v.01H2V14h12v-1H3V5.006h4.469l-3 3H3.008v1h1.875l4.123-4.123 2.123 2.123.006-.004.004.004 2.828-2.828c.003.005-.707-.707-.707-.707l-2.125 2.125L9.008 3.47l-.002.002-.002-.002-1.527 1.525H3V2H2zm5.6 7l-2 2H3.006v1h3v-.008l.008.008 2-2h1.591l2 2h2.4v-1H12.02l-2-2H7.6z" class="ColorScheme-Text" fill="currentColor"/><path d="M13.46 3.67l-2.32 2.331-.004-.004-.006.004-2.123-2.123-4.123 4.123H3.009v5h11V4.223z" class="ColorScheme-Text" fill="currentColor" fill-opacity=".5"/></svg>