<svg xmlns="http://www.w3.org/2000/svg" viewBox="0 0 16 16"><path d="M13 2v.596h-.01s.051.924-.094 1.809c-.072.442-.199.864-.357 1.123-.158.259-.284.361-.545.359-.187-.001-.306-.091-.492-.391-.186-.3-.367-.774-.551-1.27-.184-.496-.367-1.014-.654-1.453-.288-.44-.774-.826-1.352-.766-.537.057-.911.519-1.094.971-.183.452-.263.949-.346 1.416-.083.468-.169.907-.277 1.174-.108.267-.15.307-.281.32-.177.019-.26-.04-.441-.33-.182-.29-.365-.775-.549-1.283-.184-.508-.368-1.043-.654-1.494-.287-.451-.782-.851-1.367-.771-.58.079-.981.553-1.232 1.063-.251.509-.399 1.102-.5 1.676a14.9 14.9 0 0 0-.203 2.244l1 .006s.007-1.018.186-2.037c.089-.51.224-1.014.393-1.355.168-.341.321-.472.48-.494.177-.024.248.026.428.309.179.282.361.762.545 1.27.184.508.369 1.047.654 1.502.285.455.77.865 1.357.803.537-.057.913-.519 1.096-.971.183-.452.263-.949.346-1.416.083-.468.169-.907.277-1.174.108-.267.148-.307.279-.32.187-.02.267.037.445.309s.36.733.543 1.227c.183.494.367 1.021.648 1.475.281.454.731.87 1.313.873.6.003 1.09-.378 1.375-.846.285-.467.427-1.018.514-1.547a9.164 9.164 0 0 0 .117-1.604h.004v-1zM5 8c-.417 0-.775.171-1.139.379s-.724.47-1.049.73c-.32.256-.603.51-.813.703v1.395l.354-.354s.484-.483 1.084-.963c.3-.24.627-.477.92-.645.292-.167.559-.246.643-.246.75 0 1.412.607 2.168 1.355.756.749 1.603 1.645 2.832 1.645 1.167 0 2.235-.556 3.03-1.084a9.99 9.99 0 0 0 .973-.738V8.792l-.354.354s-.466.466-1.174.937c-.707.472-1.639.916-2.473.916-.715 0-1.369-.604-2.127-1.355-.758-.751-1.623-1.645-2.873-1.645m-3 5v1h12v-1z" fill="currentColor" color="#5d656b"/></svg>