<svg xmlns="http://www.w3.org/2000/svg" viewBox="0 0 16 16"><defs id="defs3051"><style type="text/css" id="current-color-scheme"></style></defs><path d="M9 2.031a4.5 4.5 0 0 0-1.3.348l.503.873A3.5 3.5 0 0 1 9 3.039zm1 .002v1.008a3.5 3.5 0 0 1 .797.211l.502-.869A4.5 4.5 0 0 0 10 2.033m-3.166.848a4.5 4.5 0 0 0-.953.953l.873.502a3.5 3.5 0 0 1 .58-.586zm5.332 0l-.502.873a3.5 3.5 0 0 1 .586.58l.87-.5a4.5 4.5 0 0 0-.954-.953m1.455 1.818l-.873.504a3.5 3.5 0 0 1 .213.797h1.008a4.5 4.5 0 0 0-.348-1.3M5.383 4.7A4.5 4.5 0 0 0 5.033 6H2v8h8v-3.031a4.5 4.5 0 0 0 1.3-.348l-.503-.873A3.5 3.5 0 0 1 9.5 10a3.5 3.5 0 0 1-3.46-3A3.5 3.5 0 0 1 6 6.5a3.5 3.5 0 0 1 .041-.5 3.5 3.5 0 0 1 .211-.797zM3 7h2.03A4.5 4.5 0 0 0 9 10.967V13H3zm9.959 0a3.5 3.5 0 0 1-.211.797l.869.502A4.5 4.5 0 0 0 13.967 7zm-.713 1.664a3.5 3.5 0 0 1-.58.586l.5.869a4.5 4.5 0 0 0 .953-.953z" fill="currentColor" color="#5d656b"/></svg>