<svg xmlns="http://www.w3.org/2000/svg" viewBox="0 0 16 16"><defs id="defs3051"><style type="text/css" id="current-color-scheme">.ColorScheme-Text{color:#5d656b}</style></defs><path d="M9.5 2a4.5 4.5 0 0 0-4.467 4H2v8h8v-3.031A4.5 4.5 0 0 0 14 6.5 4.5 4.5 0 0 0 9.5 2zm0 1A3.5 3.5 0 0 1 13 6.5 3.5 3.5 0 0 1 9.5 10 3.5 3.5 0 0 1 6 6.5 3.5 3.5 0 0 1 9.5 3zM3 7h2.031A4.5 4.5 0 0 0 9 10.967V13H3V7z" class="ColorScheme-Text" fill="currentColor"/><path d="M9.5 3A3.5 3.5 0 0 0 6 6.5a3.5 3.5 0 0 0 .04.5H3v6h6V9.959a3.5 3.5 0 0 0 .5.041A3.5 3.5 0 0 0 13 6.5 3.5 3.5 0 0 0 9.5 3z" class="ColorScheme-Text" fill="currentColor" fill-opacity=".5"/></svg>