<svg xmlns="http://www.w3.org/2000/svg" viewBox="0 0 16 16"><path d="M9 2.031a4.5 4.5 0 0 0-1.3.348l.503.873A3.5 3.5 0 0 1 9 3.039V2.031zm1 .002v1.008a3.5 3.5 0 0 1 .797.211l.502-.87A4.5 4.5 0 0 0 10 2.034zm-3.166.848a4.5 4.5 0 0 0-.953.953l.873.502a3.5 3.5 0 0 1 .58-.586l-.5-.87zm5.332 0l-.502.873a3.5 3.5 0 0 1 .586.58l.87-.5a4.5 4.5 0 0 0-.954-.953zm1.455 1.818l-.873.504a3.5 3.5 0 0 1 .213.797h1.008a4.5 4.5 0 0 0-.348-1.3zm-8.238.002A4.5 4.5 0 0 0 5.033 6H5v1h.03A4.5 4.5 0 0 0 9 10.967V11h1v-.031a4.5 4.5 0 0 0 1.3-.348l-.503-.873a3.5 3.5 0 0 1-.797.211V6H6.04a3.5 3.5 0 0 1 .212-.797l-.87-.502zM2 6v2h1V7h1V6H2zm4.04 1H9v2.959A3.5 3.5 0 0 1 6.04 7zm6.919 0a3.5 3.5 0 0 1-.211.797l.87.502A4.5 4.5 0 0 0 13.966 7h-1.008zm-.713 1.664a3.5 3.5 0 0 1-.58.586l.5.87a4.5 4.5 0 0 0 .953-.954l-.873-.502zM2 9v1h1V9H2zm0 2v1h1v-1H2zm7 1v1H8v1h2v-2H9zm-7 1v1h1v-1H2zm2 0v1h1v-1H4zm2 0v1h1v-1H6z" fill="currentColor" color="#5d656b"/><path d="M9 7l-2.959.021A3.5 3.5 0 0 0 9 9.959z" fill="currentColor" color="#3daee9"/></svg>