<svg xmlns="http://www.w3.org/2000/svg" viewBox="0 0 16 16"><path d="M7 2v1.102a5 5 0 0 0-1.754.73l-.781-.781L3.05 4.465l.781.781A5 5 0 0 0 3.105 7H2v2h1.102a5 5 0 0 0 .73 1.754l-.781.781 1.414 1.414.781-.781A5 5 0 0 0 7 12.895V14h2V11.869A4 4 0 0 1 8 12a4 4 0 0 1-2.87-1.213A4 4 0 0 1 4 8a4 4 0 0 1 1.213-2.87A4 4 0 0 1 8 4a4 4 0 0 1 2.87 1.213A4 4 0 0 1 12 8a4 4 0 0 1-.133 1H14V7h-1.102a5 5 0 0 0-.73-1.754l.781-.781-1.414-1.414-.781.781A5 5 0 0 0 9 3.105V2H7zm0 4v4l3-2-3-2zm3.666 4l-.666.666L11.334 12 10 13.334l.666.666L12 12.666 13.334 14l.666-.666L12.666 12 14 10.666 13.334 10 12 11.334 10.666 10z" fill="currentColor" color="#5d656b"/></svg>