<svg xmlns="http://www.w3.org/2000/svg" viewBox="0 0 16 16"><defs id="defs3051"><style type="text/css" id="current-color-scheme"></style></defs><path d="M7 2v1.102a5 5 0 0 0-1.754.73l-.781-.781L3.05 4.465l.781.781A5 5 0 0 0 3.105 7H2v2h1.102a5 5 0 0 0 .73 1.754l-.78.781 1.415 1.414.78-.781A5 5 0 0 0 7 12.895V14h1v-2a4 4 0 0 1-2.87-1.213A4 4 0 0 1 4 8a4 4 0 0 1 1.213-2.87A4 4 0 0 1 8 4a4 4 0 0 1 2.87 1.213A4 4 0 0 1 12 8h2V7h-1.102a5 5 0 0 0-.73-1.754l.781-.781-1.414-1.414-.781.781A5 5 0 0 0 9 3.105V2H7zm0 4v4l3-2-3-2zm4 3v3.094l-2-2V11.5l2.281 2.313.219.189.219-.19L14 11.5v-1.406l-2 2V9h-1z" fill="currentColor" color="#da4453"/></svg>