<svg xmlns="http://www.w3.org/2000/svg" viewBox="0 0 16 16"><path d="M8 2.025A5.5 5.5 0 0 0 3.027 7h1.004A4.5 4.5 0 0 1 8 3.033V2.025zm1 .002v1.004A4.5 4.5 0 0 1 12.967 7h1.008A5.5 5.5 0 0 0 9 2.027zM3.03 8A5.5 5.5 0 0 0 8 12.973v-1.004A4.5 4.5 0 0 1 4.033 8H3.03zm9.939 0A4.5 4.5 0 0 1 9 11.967v1.008A5.5 5.5 0 0 0 13.973 8h-1.004z" fill="currentColor" color="#5d656b"/><path d="M7 1v3h3V1H7zm1 1h1v1H8V2zM2 6v3h3V6H2zm10 0v3h3V6h-3zM3 7h1v1H3V7zm10 0h1v1h-1V7zm-6 4v3h3v-3H7zm1 1h1v1H8v-1z" fill="currentColor" color="#3daee9"/></svg>