<svg xmlns="http://www.w3.org/2000/svg" viewBox="0 0 16 16"><path d="M2 2v3h3V2H2zm9 0v3h3V2h-3zM3 3h1v1H3V3zm3 0v1h1V3H6zm3 0v1h1V3H9zm3 0h1v1h-1V3zM3 6v1h1V6H3zm9 0v1h1V6h-1zM3 9v1h1V9H3zm9 0v1h1V9h-1zM2 11v3h3v-3H2zm9 0v3h3v-3h-3zm-8 1h1v1H3v-1zm3 0v1h1v-1H6zm3 0v1h1v-1H9zm3 0h1v1h-1v-1z" fill="currentColor" color="#5d656b"/><path d="M8 6a2 2 0 0 0-2 2 2 2 0 0 0 2 2 2 2 0 0 0 2-2 2 2 0 0 0-2-2m0 1a1 1 0 0 1 1 1 1 1 0 0 1-1 1 1 1 0 0 1-1-1 1 1 0 0 1 1-1" fill="currentColor" color="#3daee9"/></svg>