<svg xmlns="http://www.w3.org/2000/svg" viewBox="0 0 16 16"><path d="M8 2a6 6 0 0 0-4.002 1.537A.5.5 0 0 0 4 3.5a.5.5 0 0 0-.5-.5.5.5 0 0 0-.5.5.5.5 0 0 0 .5.5.5.5 0 0 0 .04-.002A6 6 0 0 0 2 8a6 6 0 0 0 1.537 4.002A.5.5 0 0 0 3.5 12a.5.5 0 0 0-.5.5.5.5 0 0 0 .5.5.5.5 0 0 0 .5-.5.5.5 0 0 0-.002-.04A6 6 0 0 0 8 14a6 6 0 0 0 4.002-1.537.5.5 0 0 0-.002.037.5.5 0 0 0 .5.5.5.5 0 0 0 .5-.5.5.5 0 0 0-.5-.5.5.5 0 0 0-.04.002A6 6 0 0 0 14 8a6 6 0 0 0-1.537-4.002A.5.5 0 0 0 12.5 4a.5.5 0 0 0 .5-.5.5.5 0 0 0-.5-.5.5.5 0 0 0-.5.5.5.5 0 0 0 .002.04A6 6 0 0 0 8 2zm0 1a5 5 0 0 1 5 5 5 5 0 0 1-5 5 5 5 0 0 1-5-5 5 5 0 0 1 5-5zm0 4a1 1 0 0 0-1 1 1 1 0 0 0 1 1 1 1 0 0 0 1-1 1 1 0 0 0-1-1z" fill="currentColor" color="#5d656b"/></svg>