<svg xmlns="http://www.w3.org/2000/svg" viewBox="0 0 16 16"><path d="M3.5 2A1.5 1.5 0 0 0 2 3.5a1.5 1.5 0 0 0 1 1.412v6.176A1.5 1.5 0 0 0 2 12.5 1.5 1.5 0 0 0 3.5 14 1.5 1.5 0 0 0 5 12.5a1.5 1.5 0 0 0-1-1.412V9a1 1 0 0 1 1-1h6a2 2 0 0 0 2-2V4.912A1.5 1.5 0 0 0 14 3.5 1.5 1.5 0 0 0 12.5 2 1.5 1.5 0 0 0 11 3.5a1.5 1.5 0 0 0 1 1.412V6a1 1 0 0 1-1 1H5a2 2 0 0 0-1 .27V4.912A1.5 1.5 0 0 0 5 3.5 1.5 1.5 0 0 0 3.5 2zm0 1a.5.5 0 0 1 .5.5.5.5 0 0 1-.5.5.5.5 0 0 1-.5-.5.5.5 0 0 1 .5-.5zm9 0a.5.5 0 0 1 .5.5.5.5 0 0 1-.5.5.5.5 0 0 1-.5-.5.5.5 0 0 1 .5-.5zM11 9v2H9v1h2v2h1v-2h2v-1h-2V9h-1zm-7.5 3a.5.5 0 0 1 .5.5.5.5 0 0 1-.5.5.5.5 0 0 1-.5-.5.5.5 0 0 1 .5-.5z" fill="currentColor" color="#5d656b"/></svg>