<svg xmlns="http://www.w3.org/2000/svg" viewBox="0 0 16 16"><defs id="defs3051"><style type="text/css" id="current-color-scheme">.ColorScheme-Text{color:#5d656b}</style></defs><path d="M11.004 3.5a7.5 7.5 0 0 0-7.5 7.5h1a6.5 6.5 0 0 1 6.5-6.5v-1zM12 10a2 2 0 0 0-2 2 2 2 0 0 0 .28 1.014l.76-.756A1 1 0 0 1 11 12a1 1 0 0 1 1-1 1 1 0 0 1 .258.035l.752-.756A2 2 0 0 0 12 10zm1.72.986l-.755.756A1 1 0 0 1 13 12a1 1 0 0 1-1 1 1 1 0 0 1-.258-.035l-.756.756A2 2 0 0 0 12 14a2 2 0 0 0 2-2 2 2 0 0 0-.28-1.014z" class="ColorScheme-Text" fill="currentColor"/><path d="M10 4.59a6.5 6.5 0 0 0-5.414 5.414H6v3h3.178a2.993 2.993 0 0 1-.178-1 3 3 0 0 1 3-3 2.99 2.99 0 0 1 1 .176V6.004h-3z" class="ColorScheme-Text" fill="currentColor" fill-opacity=".5"/><path d="M10 2v4h4V2h-4zm1 1h2v2h-2V3zm-9 7v4h4v-4H2zm1 1h2v2H3v-2z" fill="currentColor" color="#3daee9"/></svg>