<svg xmlns="http://www.w3.org/2000/svg" viewBox="0 0 16 16"><path d="M3.5 1.998V2A1.5 1.5 0 0 0 2 3.5a1.48 1.48 0 0 0 1 1.406v6.188c-.586.204-1 .75-1 1.406a1.5 1.5 0 0 0 3 0 1.48 1.48 0 0 0-1-1.406V4.906c.077-.027.148-.054.219-.093l2.875 2.156a1.5 1.5 0 1 0 .625-.75L4.875 4.094A1.5 1.5 0 0 0 3.5 1.998zm0 1a.5.5 0 1 1 0 1 .5.5 0 0 1 0-1zm5 4a.5.5 0 1 1 0 1 .5.5 0 0 1 0-1zm3 1l-.219.188L8 11.498l.719.69L11 9.905V14h1V9.906l2.281 2.281.719-.689-3.281-3.312-.219-.188zm-8 4a.5.5 0 1 1 0 1 .5.5 0 0 1 0-1z" fill="currentColor" color="#5d656b"/></svg>