<svg xmlns="http://www.w3.org/2000/svg" viewBox="0 0 16 16"><path d="M12.338 1.965a2 2 0 0 0-.17.014v.001a2 2 0 0 0-1.727 2.239 2 2 0 0 0 2.239 1.728 2 2 0 0 0 1.328-.763l-.793-.61a1 1 0 0 1-.662.381 1 1 0 0 1-1.121-.863 1 1 0 0 1 .863-1.121 1 1 0 0 1 .74.2l.61-.792a2 2 0 0 0-1.307-.414zM3.033 3.72l-.664.75 5.238 4.642.664-.748-.203-.18a1.998 1.998 0 0 0 .695-3.393A1.998 1.998 0 0 0 5.48 5.892L3.033 3.72zM7.38 5.293a.999.999 0 1 1-.604 1.746 1.001 1.001 0 0 1 .604-1.746zM2.89 9.4l-.371.928.251.102a2 2 0 0 0-.62.828 2 2 0 0 0 1.115 2.6 2 2 0 0 0 2.6-1.118 2 2 0 0 0 .118-1.03l.25.1.371-.927-1.859-.742-1.855-.74zm1.125 1.598a1 1 0 0 1 .361.072 1 1 0 0 1 .559 1.3 1 1 0 0 1-1.3.558 1 1 0 0 1-.558-1.3 1 1 0 0 1 .938-.63z" fill="currentColor" color="#5d656b"/><path d="M14 7a7 7 0 0 0-7 7h1a6 6 0 0 1 6-6V7z" fill="currentColor" color="#3daee9"/></svg>