<svg xmlns="http://www.w3.org/2000/svg" viewBox="0 0 16 16"><path d="M2 2v5h2.5A1.5 1.5 0 0 0 6 5.5c0-.533-.268-1.015-.688-1.281.116-.213.188-.46.188-.719A1.5 1.5 0 0 0 4 2H2zm8 0v5h2.5A1.5 1.5 0 0 0 14 5.5v-2A1.5 1.5 0 0 0 12.5 2H10zM3 3h1a.5.5 0 0 1 0 1H3V3zm8 0h1.5a.5.5 0 0 1 .5.5v2a.5.5 0 0 1-.5.5H11V3zM7 4v1h2V4H7zM3 5h1.5a.5.5 0 0 1 0 1H3V5zM2 9v1h3V9H2zm5 0v1h2V9H7zm4 0v1h3V9h-3zm-5 2l-4 1.5L6 14v-3zm4 0v3l4-1.5-4-1.5zm-2 1a.5.5 0 1 0 0 1 .5.5 0 0 0 0-1z" fill="currentColor" color="#5d656b"/></svg>