<svg xmlns="http://www.w3.org/2000/svg" viewBox="0 0 16 16"><path d="M10.56 4.66l-1.552 5.795.965.26.199-.742a3 3 0 0 0 1.732 1.26 3 3 0 0 0 3.674-2.122 3 3 0 0 0-2.121-3.674 3 3 0 0 0-2.13.225l.198-.742-.964-.26zM4.005 5a3 3 0 0 0-3 3 3 3 0 0 0 3 3 3 3 0 0 0 2-.768v.77h1v-6h-1v.77a3 3 0 0 0-2-.77V5zm0 1.002a2 2 0 0 1 2 2 2 2 0 0 1-2 2 2 2 0 0 1-2-2 2 2 0 0 1 2-2zm8.66.332a2 2 0 0 1 .535.068 2 2 0 0 1 1.414 2.45 2 2 0 0 1-2.449 1.414 2 2 0 0 1-1.414-2.45 2 2 0 0 1 1.914-1.482z" fill="currentColor" color="#5d656b"/><path d="M7.5 2v12h1v-1.611l6.002 1.609.26-.967L8.5 11.355V2h-1z" fill="#1d99f3"/></svg>