<svg width="16" height="16" version="1.1" xmlns="http://www.w3.org/2000/svg">
 <style id="current-color-scheme" type="text/css">.ColorScheme-Text {
            color:#5d656b;
        }</style>
 <path class="ColorScheme-Text" d="m5 2c-0.554 0-1 0.446-1 1v2h-2c-0.554 0-1 0.446-1 1v7c0 0.554 0.446 1 1 1h12c0.554 0 1-0.446 1-1v-7c0-0.554-0.446-1-1-1h-2v-2c0-0.554-0.446-1-1-1h-6zm0 1h6v2h-6v-2zm-3 3h12v1h-4-4-4v-1zm0 2h3v1c0 0.554 0.446 1 1 1h4c0.554 0 1-0.446 1-1v-1h3v5h-12v-5zm4 0h4v1h-4v-1z" fill="currentColor"/>
</svg>
