<svg xmlns="http://www.w3.org/2000/svg" viewBox="0 0 16 16"><path d="M8 2a6 6 0 0 0-6 6 6 6 0 0 0 6 6v-1a5 5 0 0 1-5-5 5 5 0 0 1 5-5 5 5 0 0 1 5 5h1a6 6 0 0 0-6-6zm0 2a4 4 0 0 0-4 4h2a2 2 0 0 1 2-2V4zm0 3a1 1 0 0 0-1 1 1 1 0 0 0 1 1 1 1 0 0 0 1-1 1 1 0 0 0-1-1zm3.5 2A2.5 2.5 0 0 0 9 11.5a2.5 2.5 0 0 0 2.5 2.5 2.5 2.5 0 0 0 2.5-2.5A2.5 2.5 0 0 0 11.5 9zm0 1a1.5 1.5 0 0 1 1.5 1.5 1.5 1.5 0 0 1-1.5 1.5 1.5 1.5 0 0 1-1.5-1.5 1.5 1.5 0 0 1 1.5-1.5zm0 1a.5.5 0 0 0-.5.5.5.5 0 0 0 .5.5.5.5 0 0 0 .5-.5.5.5 0 0 0-.5-.5z" fill="currentColor" color="#5d656b"/></svg>