<svg xmlns="http://www.w3.org/2000/svg" viewBox="0 0 16 16"><path d="M9.008 2.002c-1.667-.04-2.818.762-3.47 1.896-.653 1.135-.895 2.565-1.06 3.965-.164 1.4-.246 2.783-.474 3.756-.114.487-.267.862-.434 1.078-.166.217-.302.298-.58.303H2v1h1.01a1.757 1.757 0 0 0 1.351-.693c.31-.402.485-.9.616-1.46.261-1.118.334-2.509.494-3.868.16-1.36.414-2.677.933-3.58.52-.904 1.216-1.432 2.58-1.399h.012c2.318 0 3.201 1.07 3.652 2.188.33.817.263 1.266.258 1.656-1.486-.455-2.728-.52-3.597-.084-1.03.516-1.522 1.566-1.553 2.633-.031 1.067.355 2.191 1.082 3.078C9.565 13.357 10.665 14 12 14c1.03.01 1.453.003 2 0v-1c-.544.003-.969.01-1.996 0H12c-1.02 0-1.819-.47-2.389-1.164-.57-.695-.88-1.618-.857-2.416C9.146 6.71 12.37 7.554 14 8l-.002-.453s.136-1.352-.422-2.734c-.557-1.38-1.924-2.807-4.568-2.811z" fill="currentColor" color="#5d656b"/></svg>