<svg xmlns="http://www.w3.org/2000/svg" viewBox="0 0 16 16"><path d="M11.5 2A2.5 2.5 0 0 0 9 4.5 2.5 2.5 0 0 0 11.5 7 2.5 2.5 0 0 0 14 4.5 2.5 2.5 0 0 0 11.5 2zm-6 2A2.5 2.5 0 0 0 3 6.5 2.5 2.5 0 0 0 5.5 9 2.5 2.5 0 0 0 8 6.5 2.5 2.5 0 0 0 5.5 4zm6.146 4a3.5 4 0 0 0-3.154 2.273A4.5 5 0 0 1 9.617 12h5.53a3.5 4 0 0 0-3.5-4zm0 1A2.5 3 0 0 1 14 11H9.293a2.5 3 0 0 1 2.353-2zM5.5 10A3.5 4 0 0 0 2 14h7a3.5 4 0 0 0-3.5-4zm0 1a2.5 3 0 0 1 2.354 2H3.146A2.5 3 0 0 1 5.5 11z" fill="currentColor" color="#5d656b"/></svg>