<svg xmlns="http://www.w3.org/2000/svg" viewBox="0 0 16 16"><path d="M4.094 2c-.783.018-1.376.143-1.813.344l.25.906c.21-.073 1.005-.313 1.469-.313h.063c.646.028.687.257.687.813v.219l-.344.062C2.84 4.26 2 4.454 2 5.656 2 6.494 2.617 7 3.5 7c.61 0 .996-.248 1.406-.594L5 7h1V3.531C6 2.502 5.28 2 4.187 2h-.093zM10.5 4l-.219.188L7 7.5l.719.688L10 5.905V14h1V5.906l2.281 2.282L14 7.5l-3.281-3.313L10.5 4zm-5.75.688v1.125c-.337.227-.594.375-1.031.375-.392 0-.594-.248-.594-.594 0-.656.58-.775 1.281-.875l.344-.032zM2 9v1h2.375L2 13.318V14h4v-1H4l2-3V9H2z" fill="currentColor" color="#5d656b"/></svg>