<svg xmlns="http://www.w3.org/2000/svg" viewBox="0 0 16 16"><path d="M5 3C3 3 1.98 4.5 1 4.5S0 4 0 4v8s-.042.5 1 .5S3 11 5 11s3 1 3 1 1-1 3-1 2.896 1.5 4 1.5 1-.5 1-.5V4.062c-.037.141-.219.438-1 .438-1.042 0-2-1.5-4-1.5S8 4 8 4 7 3 5 3zm0 1c.833 0 1.948.385 2.281.719.367.28 1.071.28 1.438 0C8.989 4.449 10.167 4 11 4c2 0 2.313 1.5 4 1.5v6c-.862 0-1.855-1.5-4-1.5-1.167 0-2.41.223-3 .813C7.44 10.252 6.167 10 5 10c-2.051 0-3.357 1.5-4 1.5v-6C2.531 5.5 3 4 5 4z" fill="currentColor" color="#5d656b"/></svg>