<svg xmlns="http://www.w3.org/2000/svg" viewBox="0 0 16 16"><path d="M13.314 2L2 13.295l.715.705L14 2.697 13.314 2zM8 3A9 9 0 0 0 .123 7.668c.129.364.357.677.656.908A8 8 0 0 1 8 4a4 4 0 0 0-4 4 4 4 0 0 0 .105.895L5 8a3 3 0 0 1 3-3l.893-.893a4 4 0 0 0-.543-.09 8 8 0 0 1 .578.055l.879-.879A9 9 0 0 0 8 3zm5.836 2.164l-.715.715a8 8 0 0 1 2.1 2.697c.301-.234.532-.55.66-.918a9 9 0 0 0-2.045-2.494zm-1.941 1.941L11 8a3 3 0 0 1-3 3l-.893.893A4 4 0 0 0 8 12a4 4 0 0 0 4-4 4 4 0 0 0-.105-.895z" fill="currentColor" color="#5d656b"/></svg>