<svg xmlns="http://www.w3.org/2000/svg" width="16" height="16"><defs><style type="text/css" id="current-color-scheme">.ColorScheme-Text{color:#5d656b}</style></defs><path class="ColorScheme-Text" d="M5 2L4 6h8l-1-4-3 1zM3 7L2 8h12l-1-1zM6 11h4v1H6z" fill="currentColor"/><path class="ColorScheme-Text" d="M4.5 9A2.5 2.5 0 0 0 2 11.5 2.5 2.5 0 0 0 4.5 14 2.5 2.5 0 0 0 7 11.5 2.5 2.5 0 0 0 4.5 9zm0 1A1.5 1.5 0 0 1 6 11.5 1.5 1.5 0 0 1 4.5 13 1.5 1.5 0 0 1 3 11.5 1.5 1.5 0 0 1 4.5 10zM11.5 9A2.5 2.5 0 0 0 9 11.5a2.5 2.5 0 0 0 2.5 2.5 2.5 2.5 0 0 0 2.5-2.5A2.5 2.5 0 0 0 11.5 9zm0 1a1.5 1.5 0 0 1 1.5 1.5 1.5 1.5 0 0 1-1.5 1.5 1.5 1.5 0 0 1-1.5-1.5 1.5 1.5 0 0 1 1.5-1.5z" fill="currentColor"/></svg>