<svg xmlns="http://www.w3.org/2000/svg" viewBox="0 0 16 16"><path d="M4.5 2a.5.5 0 0 0-.5.5.5.5 0 0 0 .5.5.5.5 0 0 0 .5-.5.5.5 0 0 0-.5-.5zm3 0a.5.5 0 0 0-.5.5.5.5 0 0 0 .5.5.5.5 0 0 0 .5-.5.5.5 0 0 0-.5-.5zm3 0a.5.5 0 0 0-.5.5.5.5 0 0 0 .5.5.5.5 0 0 0 .5-.5.5.5 0 0 0-.5-.5zM4 4v2H2v8h12V6h-3V4h-1v2H8V4H7v2H5V4H4zM3 7h10v3a2 1 0 0 1-2-1V8h-1v1a2 1 0 0 1-2 1 2 1 0 0 1-2-1V8H5v1a2 1 0 0 1-2 1V7zm2.5 3.104A3 2 0 0 0 8 11a3 2 0 0 0 2.5-.896A3 2 0 0 0 13 11v2H3v-2a3 2 0 0 0 2.5-.896z" fill="currentColor" color="#5d656b"/></svg>