<svg xmlns="http://www.w3.org/2000/svg" viewBox="0 0 16 16"><path d="M8 2a5.96 5.96 0 0 0-3.031.844l.562.562.188.188L7.656 5.53l.719-.718L6.75 3.188c.195-.052.39-.098.594-.126.052-.007.103-.025.156-.03C7.668 3.013 7.827 3 8 3a5 5 0 0 1 5 5c0 .243-.028.486-.063.719-.02.136-.031.274-.062.406a4.737 4.737 0 0 1-.281.813c-.014.03-.018.063-.031.093-.041.092-.109.164-.157.25-.004.008.005.023 0 .031l.75.72A5.96 5.96 0 0 0 14 8a6 6 0 0 0-6-6zM2.844 4.969A5.96 5.96 0 0 0 2 8a6 6 0 0 0 6 6 5.96 5.96 0 0 0 3.031-.844l-.562-.562-.188-.188L8.344 10.5l-.688.688 1.594 1.624c-.195.052-.39.098-.594.126-.052.007-.103.025-.156.03A4.834 4.834 0 0 1 8 13c-.173 0-.332-.014-.5-.031-.168-.017-.337-.03-.5-.063A5.017 5.017 0 0 1 3 8c0-.248.028-.48.063-.719.02-.136.031-.274.062-.406.067-.287.167-.548.281-.813.013-.03.018-.063.031-.093.041-.09.11-.165.157-.25v-.032l-.75-.718z" fill="currentColor" color="#5d656b"/></svg>