<svg xmlns="http://www.w3.org/2000/svg" viewBox="0 0 16 16"><path d="M2 2v12h12V2h-2v2h-2V2H6v2H4V2H2zm1 3h10v8H3V5zm4 1.5A2.5 2.5 0 0 0 4.5 9 2.5 2.5 0 0 0 7 11.5a2.5 2.5 0 0 0 1.002-.21A2.5 2.5 0 0 0 9 11.5 2.5 2.5 0 0 0 11.5 9 2.5 2.5 0 0 0 9 6.5a2.5 2.5 0 0 0-1.002.21A2.5 2.5 0 0 0 7 6.5zm0 1a1.5 1.5 0 0 1 .002 0A2.5 2.5 0 0 0 6.5 9a2.5 2.5 0 0 0 .504 1.5 1.5 1.5 0 0 1-.004 0A1.5 1.5 0 0 1 5.5 9 1.5 1.5 0 0 1 7 7.5zm1.996 0A1.5 1.5 0 0 1 9 7.5 1.5 1.5 0 0 1 10.5 9 1.5 1.5 0 0 1 9 10.5a1.5 1.5 0 0 1-.002 0A2.5 2.5 0 0 0 9.5 9a2.5 2.5 0 0 0-.504-1.5zM8 7.885A1.5 1.5 0 0 1 8.5 9a1.5 1.5 0 0 1-.5 1.115A1.5 1.5 0 0 1 7.5 9 1.5 1.5 0 0 1 8 7.885z" fill="currentColor" color="#5d656b"/></svg>