<svg xmlns="http://www.w3.org/2000/svg" viewBox="0 0 16 16"><g fill="currentColor"><path d="M5 3C3 3 1.98 4.5 1 4.5S0 4 0 4v8s-.042.5 1 .5S3 11 5 11s3 1 3 1v-1.188C7.44 10.252 6.167 10 5 10c-2.051 0-3.357 1.5-4 1.5v-6C2.531 5.5 3 4 5 4c.833 0 1.948.385 2.281.719.367.28 1.071.28 1.438 0C8.989 4.449 10.167 4 11 4c2 0 2.313 1.5 4 1.5v2.256c.384.256.712.58 1 .94V4.062c-.037.14-.219.437-1 .437-1.042 0-2-1.5-4-1.5S8 4 8 4 7 3 5 3z" color="#5d656b"/><path d="M12.5 8c1.939 0 3.5 1.561 3.5 3.5S14.439 15 12.5 15A3.492 3.492 0 0 1 9 11.5C9 9.561 10.561 8 12.5 8z" color="#27ae60"/></g></svg>