<svg width="24" height="24" version="1.1" xmlns="http://www.w3.org/2000/svg">
 <defs>
  <style id="current-color-scheme" type="text/css"/>
 </defs>
 <path d="m12 4c-4.412 0-8 3.588-8 8s3.588 8 8 8 8-3.588 8-8-3.588-8-8-8zm0 1c3.872 0 7 3.128 7 7a6.968 6.968 0 0 1-1.71 4.582l-9.873-9.871a6.968 6.968 0 0 1 4.583-1.711zm-5.289 2.418 9.871 9.871a6.968 6.968 0 0 1-4.582 1.711c-3.872 0-7-3.128-7-7 0-1.756 0.647-3.355 1.711-4.582z" color="#000000" fill="#5d656b" font-weight="400" overflow="visible" style="font-feature-settings:normal;font-variant-alternates:normal;font-variant-caps:normal;font-variant-ligatures:normal;font-variant-numeric:normal;font-variant-position:normal;isolation:auto;mix-blend-mode:normal;shape-padding:0;text-decoration-color:#000000;text-decoration-line:none;text-decoration-style:solid;text-indent:0;text-orientation:mixed;text-transform:none;white-space:normal"/>
</svg>
