<svg xmlns="http://www.w3.org/2000/svg" viewBox="0 0 24 24"><path d="M7.096 7c.27 1.778.967 3.648 2.55 5.354-.72.906-1.629 1.787-2.804 2.646H4v1h1.326c-.498.299-1.026.596-1.607.89L4.314 18a21.61 21.61 0 0 0 3.24-2H20v-1H8.771c2.82-2.54 4.051-5.368 4.948-8H12.36c-.512 1.503-1.103 2.932-1.986 4.309C9.11 9.892 8.518 8.512 8.289 7H7.096zm10.04 0c-1.172.025-2.071.218-2.726.498l.367 1.262c.314-.102 1.5-.46 2.196-.46h.095c.969.039 1.037.37 1.037 1.147v.307l-.505.078c-2.346.319-3.6.586-3.6 2.27 0 1.173.914 1.898 2.236 1.898.914 0 1.514-.357 2.127-.842l.192.715H20V9.154C20 7.714 18.937 7 17.3 7h-.163zm.97 3.75v1.568c-.505.32-.887.547-1.542.547-.586 0-.873-.343-.873-.828 0-.918.859-1.072 1.909-1.213l.505-.074z" fill="currentColor" color="#5d656b"/></svg>