<svg width="24" height="24" version="1.1" xmlns="http://www.w3.org/2000/svg">
 <defs>
  <style id="current-color-scheme" type="text/css"/>
 </defs>
 <g transform="translate(1 -1)" fill="currentColor">
  <path d="m7.41 5.876c-1.593 0.894-2.937 2.401-3.658 3.751-4e-3 1e-3 4e-3 0.023 0 0.031-0.506 1.055-0.715 2.197-0.752 3.343 0.322 2.72 1.168 4.661 3.033 6.249 1.447 1.17 3.177 1.645 4.967 1.75 2.377 3e-3 4.884-1.364 6.218-3 0.028-0.035 0.067-0.058 0.094-0.094 0.01-0.012 0.022-0.02 0.031-0.03 0.014-0.019 0.018-0.045 0.031-0.064 1.208-1.6 1.474-3.084 1.625-4.81-0.444-3.107-1.821-5.224-3.782-6.78m-4.217-0.22a7.023 7.023 0 0 1 1.406 0.158h0.03c0.167 0.035 0.339 0.079 0.5 0.125 0.097 0.027 0.188 0.063 0.282 0.094 0.172 0.057 0.334 0.116 0.5 0.187 0.194 0.08 0.379 0.153 0.563 0.25-0.031 1e-3 -0.063 0.021-0.094 0.031a0.319 0.319 0 0 0-0.125 0.125c-0.02 0.048 5e-3 0.115 0 0.188 0.038 0.017 0.06 0.09 0.125 0.125 0.025 0.014 0.04 0 0.063 0 0.038 0.021 0.07 0.087 0.063 0.125-0.011 0.055-0.088 0.022-0.125 0.063 6e-3 0.078-0.043 0.105-0.063 0.156 0.012 0.033 0.057 0.024 0.063 0.063-7e-3 0.043-0.08 0.049-0.063 0.094 0.072 0.056 0.15-0.022 0.219-0.031 0.149-0.02 0.283 0.04 0.375-0.031-0.012-0.071 0.1-0.092 0.094-0.156-6e-3 -0.048-0.09-0.061-0.125-0.094-0.02-0.018-0.04-0.059-0.063-0.094-0.026-0.04-0.064-0.087-0.094-0.125-0.04-0.052-0.125-0.117-0.125-0.156 0-0.045 0.052-0.063 0.063-0.125-0.012-0.057-0.117 0-0.125-0.063a0.162 0.162 0 0 1 0.03-0.063c0.15 0.082 0.299 0.179 0.439 0.281l0.094 0.063c0.108 0.081 0.207 0.17 0.313 0.25-0.067 0.012-0.101 0.09-0.156 0.156a0.464 0.464 0 0 1-0.156 0.125c-0.028 0.012-0.068-0.016-0.094 0-0.037 0.025-0.051 0.096-0.094 0.125-0.031 0.02-0.124 0.094-0.156 0.094-0.038 0-0.098-0.04-0.125-0.031-0.04 0.013-0.017 0.077-0.063 0.094-0.088 0.03-0.25-0.07-0.281 0.063 0.038 0.076 0.153 0.05 0.219 0.094a0.475 0.475 0 0 1 0.125 0.188c0 0.038 0.015 0.179 0 0.219-0.041 0.106-0.16 0.097-0.281 0.094h-0.094c-0.207-0.014-0.407-0.085-0.5 0.063 7e-3 0.112 0.025 0.182 0 0.28-0.018 0.072-0.097 0.125-0.094 0.188 2e-3 0.032 0.055 0.082 0.063 0.125 5e-3 0.023-0.011 0.073 0 0.094 0.034 0.066 0.127 0 0.188 0 0.059 1e-3 0.126 0.121 0.125 0.188a0.336 0.336 0 0 1-0.063 0.156c-0.058 0.09-0.167 0.077-0.25 0.125-0.07 0.039-0.084 0.119-0.125 0.188-0.044 0.074-0.081 0.11-0.063 0.219a0.485 0.485 0 0 1-0.25 0.25c-0.037 0.017-0.092 0.039-0.125 0.063a0.63 0.63 0 0 0-0.094 0.094c-0.047 0.052-0.1 0.085-0.125 0.125-0.02 0.03-1e-3 0.084-0.031 0.125-0.03 0.056-0.088 0.1-0.125 0.155-0.017 0.026-0.043 0.06-0.063 0.094-0.042 0.077-0.101 0.151-0.094 0.22 7e-3 0.065 0.089 0.067 0.094 0.124 4e-3 0.032-0.033 0.06-0.031 0.094 0 0.051 0.027 0.086 0.03 0.125 2e-3 0.1-0.043 0.12-0.062 0.188-0.01 0.032 8e-3 0.068 0 0.094-0.016 0.05-0.093 0.098-0.094 0.156 0 0.042 0.059 0.097 0.063 0.156 2e-3 0.04-0.038 0.057-0.031 0.094 0.014 0.073 0.162 0.162 0.219 0.219 0.075 0.075 0.155 0.139 0.188 0.219 0.027 0.067 0.04 0.168 0.094 0.219 0.039 0.037 0.106 0.054 0.156 0.094 0.047 0.036 0.107 0.055 0.156 0.094 0.08 0.064 0.183 0.197 0.313 0.188 0.068-1e-3 0.142-0.05 0.219-0.063 0.079-0.014 0.17-0.04 0.25-0.031 0.06 0 0.124 0.066 0.188 0.063 0.067 0 0.143-0.061 0.219-0.094 0.131-0.057 0.338-0.153 0.53-0.125 0.146 0.02 0.15 0.217 0.25 0.28 0.118 2e-3 0.22-0.053 0.313-0.03 0.07 0.017 0.15 0.132 0.156 0.188 7e-3 0.058-0.054 0.12-0.063 0.155-0.018 0.078-0.017 0.17-0.03 0.22-0.012 0.037-0.033 0.085-0.032 0.124a0.54 0.54 0 0 0 0.094 0.188c0.044 0.056 0.103 0.096 0.156 0.156a1.8 1.8 0 0 1 0.22 0.375c0.016 0.037-0.017 0.077 0 0.125-0.03 0.224-0.104 0.377-0.25 0.625-0.07 0.08-0.159 0.15-0.157 0.25-5e-3 0.24 0.136 0.392 0.125 0.624-0.024 0.312 0.024 0.333 0 0.5 0.105 0.053 0.031 0.233 0 0.344-0.045 0.132-0.1 0.162-0.125 0.25 0.071 0.03 0.171 0.019 0.25 0 0 0 0.096 0.4 0.094 0.406-1.522 1.401-3.08 1.853-4.937 2-0.679 0.036-1.264-0.135-1.906-0.281a7.067 7.067 0 0 1-0.5-0.156c0.014-0.013 0.027-0.011 0.031-0.031 0.01-0.04 2e-3 -0.062 0-0.125 0.015-0.065 0.08-0.058 0.094-0.125-0.028-0.048-0.083-0.038-0.125-0.063a0.133 0.133 0 0 1-0.063-0.125c0.07-0.029 0.2 0.066 0.25-0.031 0.025-0.046-0.034-0.14 0-0.188 0.023-0.03 0.17-0.055 0.22-0.063 0.07-0.012 0.147 0 0.187-0.03a0.223 0.223 0 0 0 0.094-0.189c-4e-3 -0.039-0.033-0.059-0.063-0.094-0.025-0.029-0.013-0.066-0.03-0.094-0.032-0.047-0.08-0.058-0.095-0.125 0.096-0.019 0.236 0.102 0.375 0.063 0.066-0.019 0.157-0.188 0.188-0.25v-0.063c0.012-0.026 0.06-0.049 0.063-0.063 1e-3 -0.036-8e-3 -0.07 0-0.094 0.024-0.068 0.085-0.075 0.125-0.125 0.03-0.038 0.065-0.087 0.094-0.125 0.031-0.04 0.042-0.089 0.063-0.125 0.02-0.122-0.06-0.206-0.03-0.312 0.031-0.12 0.195-0.165 0.312-0.22 0.04-0.018 0.092-0.05 0.125-0.062 0.08-0.028 0.176-0.036 0.25-0.063 0.125-0.046 0.157-0.167 0.219-0.281a0.611 0.611 0 0 0 0.063-0.156c5e-3 -0.035-7e-3 -0.053 0-0.094 6e-3 -0.04 0.02-0.081 0.031-0.125a1.1 1.1 0 0 0 0.031-0.219c0-0.053-0.029-0.078-0.031-0.125-9e-3 -0.173 0.061-0.218 0.125-0.313 0.032-0.047 0.04-0.09 0.063-0.125 0.108-0.16 0.295-0.226 0.28-0.468-4e-3 -0.08-0.034-0.256-0.093-0.281-0.034-0.015-0.107-0.011-0.156-0.031-0.158-0.06-0.274-0.27-0.438-0.281-0.035 0-0.055 0.03-0.094 0.03-0.065 0-0.147-0.052-0.219-0.062-0.046-1e-3 -0.129 0.013-0.156 0-0.042-0.02-0.029-0.102-0.063-0.125-0.027-0.018-0.084-0.015-0.125-0.031-0.066-0.025-0.112-0.056-0.188-0.063h-0.094c-0.042-1e-3 -0.086-0.04-0.125-0.063a0.208 0.208 0 0 1-0.094-0.094c0.044-0.144-0.096-0.167-0.125-0.25-0.014-0.039 0.013-0.09 0-0.125-0.017-0.05-0.07-0.084-0.125-0.125-0.097-0.074-0.174-0.139-0.313-0.156h-0.219c-0.078 0-0.16-0.058-0.219-0.125-0.056-0.065-0.076-0.125-0.125-0.156-0.047-0.03-0.124-0.03-0.156-0.063-0.014-0.014-0.017-0.03-0.03-0.063-0.024-0.048-0.062-0.098-0.032-0.156-0.053-0.027-0.035 0.072-0.094 0.063-0.052-0.074-0.1-0.115-0.219-0.094-0.054 1e-3 -0.093 0.06-0.156 0.063-0.052 0-0.088-0.053-0.156-0.063-0.052 0-0.12 0.036-0.156 0.031-0.057-0.01-0.073-0.059-0.125-0.094-0.038-0.025-0.104-0.095-0.125-0.094-0.067 0-0.126 0.143-0.219 0.094-0.045-0.057 0.085-0.07 0.031-0.125-0.04-0.04-0.06 1e-3 -0.094 0.031a0.666 0.666 0 0 1-0.125 0.063c-0.092 0.034-0.147 0.025-0.219 0.063-0.066 0.034-0.087 0.088-0.125 0.156-0.03 0.056-0.079 0.153-0.125 0.156-0.056 0-0.105-0.072-0.155-0.094-0.153-0.066-0.248 0.03-0.375 0.031-0.118 0-0.287-0.17-0.281-0.28 4e-3 -0.068 0.054-0.167 0.063-0.25 6e-3 -0.066 0.062-0.127 0.063-0.188 0-0.081-0.135-0.147-0.188-0.156-0.125-0.023-0.295 0.06-0.438 0-0.027-0.045 0.047-0.081 0.063-0.125 9e-3 -0.025-0.01-0.034 0-0.063 0.016-0.042 0.074-0.08 0.094-0.125 0.015-0.034 0.016-0.082 0.03-0.125 0.018-0.05 0.06-0.091 0.064-0.125 5e-3 -0.045-0.027-0.095-0.063-0.125-0.111 1e-3 -0.187 0-0.25 0.031-0.144 0.066-0.106 0.266-0.25 0.313-0.05 0.016-0.133 0.02-0.188 0.03-0.047 2e-3 -0.107 0.033-0.156 0.032-0.058 0-0.153-0.057-0.188-0.094-0.01-1e-3 -0.024-0.036-0.031-0.063 2e-3 -1e-3 -2e-3 -0.021 0-0.031 0.046-0.223 0.093-0.444 0.156-0.656 3e-3 0-3e-3 -0.022 0-0.03 0.042-0.14 0.103-0.27 0.156-0.407 0.013 0 0.019-0.023 0.03-0.03 0.078-0.054 0.157-0.12 0.25-0.126 0.058 0 0.165 0.02 0.22 0.031 0.05 1e-3 0.082 0.06 0.125 0.063 0.123 1e-3 0.149-0.102 0.25-0.155 0.104 0.015 0.156-1e-3 0.25 0 0.064 0 0.138 0.09 0.188 0.094 0.042 0 0.053-0.07 0.094-0.063 0.04 0 0.119 0.107 0.125 0.155 7e-3 0.06-0.048 0.122-0.031 0.188 0.063 0.064 0.19 0.056 0.28 0.094 0.06-0.048 0.01-0.118 0-0.188-1e-3 -0.03 5e-3 -0.066 0-0.094-5e-3 -0.048-0.03-0.084-0.03-0.124 0-0.19 0.154-0.3 0.28-0.375 0.056-0.033 0.108-0.07 0.156-0.094 0.067-0.034 0.1-0.063 0.156-0.094 0.101-0.057 0.202-0.092 0.281-0.156 0.037-0.086-4e-3 -0.196 0-0.281 0.037-0.022 0.055 0 0.094 0 0.061-0.013 0.09-0.091 0.125-0.125 0.02-0.02 0.07-0.043 0.094-0.063 0.061-0.048 0.072-0.104 0.125-0.125a0.364 0.364 0 0 0 0.094-0.031c0.04-0.011 0.092-0.04 0.156-0.063 0.042-0.014 0.14-0.015 0.156-0.031 0.02-0.02-6e-3 -0.095 0-0.125 0.032-0.15 0.272-0.168 0.406-0.219 0.094-0.036 0.178-0.114 0.281-0.094-0.02 0.072-0.11 0.038-0.094 0.125 0.023 0.121 0.176-0.013 0.22-0.03 0.08-0.035 0.236-0.056 0.343-0.095 0.094-0.034 0.245-0.08 0.156-0.188-0.074 0-0.092 0.066-0.156 0.094-0.044 1e-3 -0.056-0.027-0.094-0.03-0.036 0-0.057 0.037-0.094 0.03-0.037 0-0.088-0.082-0.094-0.125-0.015-0.11 0.11-0.136 0.156-0.219-0.03-0.1-0.166-0.024-0.25-0.063a0.148 0.148 0 0 1 0.125-0.125c0.057 0 0.185 1e-3 0.22 0.031 0.02 0.017 0 0.066 0.03 0.094 0.034 0.031 0.081 1e-3 0.125 0 0.016-0.076-0.106-0.043-0.094-0.094 0.09-0.059 0.265-0.016 0.375-0.03 0.063-2e-3 0.131-0.063 0.188-0.095 0.054-0.03 0.1-0.08 0.156-0.03 0.016 0.053-0.032 0.065-0.063 0.093a2.182 2.182 0 0 0-0.28 0.313c0.048 0.048 0.135 0.022 0.218 0.031 0.032 0 0.06 0.025 0.094 0.031 0.04 1e-3 0.094-0.012 0.125 0 0.056 0.014 0.07 0.094 0.125 0.094 0.091 0 0.083-0.125 0.031-0.188 0.016-0.063 0.053-0.08 0.031-0.125-0.04-0.082-0.21 0.014-0.219-0.094-5e-3 -0.067 0.07-0.075 0.094-0.125-0.01-0.129 0.106-0.135 0.094-0.25-6e-3 -0.048-0.06-0.049-0.094-0.094-0.017-0.023 0-0.076-0.03-0.094-0.07-0.059-0.21-0.044-0.22-0.155-4e-3 -0.066 1e-3 -0.115 0-0.188-9e-3 -0.067-0.066-0.268-0.125-0.281-0.075-0.016-0.129 0.114-0.219 0.156a0.389 0.389 0 0 1-0.188 0.03 0.105 0.105 0 0 1-0.094-0.093c-6e-3 -0.07 0.05-0.082 0.063-0.156-0.01-0.044-0.05-0.03-0.094-0.063-0.049-0.037-0.09-0.116-0.156-0.125-0.033 0-0.093 0.029-0.125 0.031-0.06 0-0.106-0.015-0.156-0.031 0.021-1e-3 0.041-0.024 0.063-0.031 0.122-0.042 0.25-0.059 0.375-0.094 0.022-1e-3 0.041-0.025 0.063-0.031 0.031 0.033 0.056 0.103 0.094 0.125 0.025 0.014 0.063-1e-3 0.094 0 0.098 0.03 0.174 0.085 0.281 0.063 0.037-0.065-0.074-0.074-0.03-0.125 0.071 0 0.131 0.04 0.187 0.063 0.077-0.056 0.128-0.066 0.125-0.156 0-0.046-0.062-0.063-0.094-0.094 0.063-0.011 0.124-0.022 0.188-0.031 5e-3 0.017 0.021 0.03 0.031 0.031a0.768 0.768 0 0 0 0.188-0.063c4e-3 0-6e-3 -0.027 0-0.031 0.253-0.027 0.521-0.031 0.781-0.031m-2.5 0.469c-0.023 0.043-0.047 0.079-0.094 0.094 0.012 0.065-0.084 0.105-0.094 0.156-6e-3 0.035-2e-3 0.094 0 0.125 0.02 0.318-0.25 0.476-0.563 0.468-0.06 0.058-0.029 0.17-0.063 0.25-0.028 0.067-0.12 0.131-0.188 0.125-0.05 0-0.125-0.079-0.125-0.125 0-0.057 0.081-0.09 0.031-0.156 7e-3 -0.044 0.106-0.086 0.094-0.156-0.012-0.074-0.096-0.019-0.188-0.03a0.58 0.58 0 0 1-0.188-0.064c0.101-0.067 0.205-0.126 0.313-0.188 0.094-0.056 0.185-0.105 0.281-0.156 0.252-0.126 0.522-0.243 0.781-0.343m5.375 0.75c-0.027 0-0.04 0.017-0.063 0.03-0.051 0.031-0.054 0.08-0.094 0.094-0.054 0.021-0.117 1e-3 -0.125 0.063-6e-3 0.041 0.033 0.055 0.03 0.094-0.02 0.05-0.052 0.066-0.062 0.125 0.068 0.11 0.229 0 0.313-0.03 0.038-0.012 0.073 0 0.094-0.032 0.023-0.035 0.013-0.105 0.03-0.156 0.02-0.056 0.07-0.043 0.064-0.094-6e-3 -0.05-0.106-0.102-0.188-0.094m-7.312 0.78c0.06 0.017 0.195 0.194 0.063 0.25-0.013 2e-3 -0.187 0.037-0.22 0.032-0.045-1e-3 -0.077-0.086-0.124-0.094-0.092-0.016-0.218 0.1-0.281 0 0.016-0.06 0.086-0.043 0.156-0.063 0.125-0.034 0.298-0.153 0.406-0.125m0.25 0.313c0.03 0 0.055 0.059 0.093 0.063 0.036 0 0.072-0.036 0.094-0.031 0.056 0.015 0.084 0.115 0.031 0.156-0.044 0-0.06-0.037-0.094-0.031-0.09 0.016-0.12 0.193-0.187 0.188-0.064-1e-3 -0.096-0.141-0.031-0.188 2e-3 -0.04-0.033-0.054-0.031-0.094 0.02-0.025 0.072-0.066 0.124-0.063m-0.312 0.03h0.03c-8e-3 0.072-0.038 0.092-0.093 0.126a0.378 0.378 0 0 0-0.188 0.25c-0.01 0.036-0.111 0.133-0.156 0.124-0.106-0.022 0.038-0.22 0.063-0.25 0.027-0.032 0.062-0.055 0.094-0.093 0.03-0.037 0.033-0.105 0.063-0.125a0.441 0.441 0 0 1 0.188-0.031m9.498 0.03c0.048 0.014 0.058 0.07 0.094 0.095 0.027 0.018 0.064 0.012 0.094 0.03 0.035 0.023 0.054 0.06 0.094 0.095 0.056 0.047 0.14 0.088 0.22 0.125 0.015 0 0.043 0.023 0.062 0.03 0.055 0.072 0.104 0.145 0.156 0.22 6e-3 0.04 0.012 0.098 0.031 0.124 0.052 0.071 0.131 0.132 0.188 0.22 0 0.082 0.036 0.132 0.094 0.155 0.073 0.124 0.15 0.248 0.22 0.375 0.028 0.058 0.034 0.129 0.062 0.188h-0.063c-0.066-0.116-0.409-0.139-0.438 0.03-0.013 0.076 0.05 0.176-0.063 0.189-0.07 0-0.153-0.073-0.25-0.094-0.04-1e-3 -0.094 0.014-0.125 0-0.073-0.025-0.062-0.112-0.125-0.156a0.547 0.547 0 0 0-0.188-0.063h-0.094c-0.045-1e-3 -0.118-1e-3 -0.156-0.031-0.036-0.022-0.116-0.062-0.125-0.094-0.014-0.05 0.09-0.114 0.094-0.156 2e-3 -0.03-0.023-0.045-0.03-0.094-6e-3 -0.029 5e-3 -0.074 0-0.094-2e-3 -0.034-0.072-0.062-0.126-0.063-0.048 0-0.084 0.03-0.125 0.031-0.059 0-0.177-0.037-0.25-0.03-0.043 0-0.083 0.027-0.124 0.03h-0.281a0.76 0.76 0 0 0-0.25 0.063c-0.031 0.014-0.054 0.043-0.094 0.063-0.018 1e-3 -0.04 0.021-0.063 0.031-0.038 0.017-0.09 0.053-0.125 0.063-0.052 0.013-0.124 0-0.22 0-0.067 0-0.186-0.014-0.187-0.094 0-0.123 0.227-0.072 0.344-0.094 0.044 0 0.073-0.063 0.125-0.094 0.025-0.015 0.039-0.015 0.063-0.03 0.04-0.029 0.119-0.094 0.125-0.126 6e-3 -0.03-0.035-0.072-0.031-0.094 5e-3 -0.028 0.057-0.058 0.094-0.094 0.056-0.055 0.087-0.12 0.156-0.156 0.047-0.025 0.135-0.024 0.156-0.063 5e-3 -0.043 0-0.055 0-0.094 0.029-0.027 0.038-0.058 0.063-0.063 0.072-0.016 0.135 0.035 0.219 0.031 0.036 0 0.086 0 0.124-0.03 0.033-0.023 0.062-0.046 0.094-0.064 0.035-0.018 0.051-0.059 0.094-0.063 0.105 0 0.171 0.124 0.22 0.188 0.04 0.053 0.152 0.12 0.218 0.156 0.037 0.021 0.084 0.045 0.125 0.063 0.087 0.04 0.247 0.165 0.25 0.25 2e-3 0.042-0.038 0.054-0.03 0.094 0.065 0.011 0.122-0.059 0.124-0.125 0-0.04-0.039-0.05-0.03-0.094 0.03-0.066 0.147 0 0.187-0.03-7e-3 -0.076-0.124-0.087-0.188-0.126-0.034-0.02-0.058-0.048-0.094-0.063-0.052-0.02-0.116-0.032-0.156-0.063-0.038-0.029-0.057-0.08-0.094-0.125-0.054-0.064-0.158-0.073-0.125-0.219 0.016-0.022 0.037-0.069 0.063-0.063m-8.811 0.22h0.094c0.034 0 0.08-0.019 0.094 0-0.022 0.087-0.212 0.062-0.281 0.03 4e-3 -0.033 0.05-0.027 0.094-0.03m-0.313 0.155h0.063a0.71 0.71 0 0 1-0.25 0.125c-0.051 0.016-0.116 0.025-0.125-0.03-0.011-0.07 0.047-0.057 0.094-0.064 0.058 0 0.15-0.029 0.219-0.03m8.687 0c-0.043 0.013-0.066 0.112 0 0.124 0.03-0.018 0.039-0.068 0.03-0.125-0.016-0.018-0.016 0-0.03 0m-0.031 0.188c-0.021 1e-3 -0.04 1e-3 -0.063 0.031 0 0.075 0.015 0.123 0 0.188 0.043 0.082 0.134 0.026 0.156-0.031 0.026-0.139-0.03-0.205-0.094-0.188m0.437 0.375c0.05 0.08 0.141 0.137 0.25 0.156 0.04-0.03 0.044-0.105 0.063-0.156h-0.156c-0.059 0-0.122-0.028-0.156 0m-11.686 2.687c0.164-1e-3 0.212 0.215 0.344 0.28 0.033 0.017 0.082 0.022 0.125 0.031 0.035 1e-3 0.06 0.02 0.094 0.031 0.07 0.024 0.162 1e-3 0.219 0.031 0.085 0.038 0.146 0.207 0.219 0.25 4e-3 0.043-0.013 0.093 0 0.125 0.035 0.047 0.099 0.064 0.156 0.094 0.068 0.037 0.092 0.127 0.156 0.156 0.022 1e-3 0.059 0 0.094 0 0.088 0.027 0.112 0.147 0.188 0.125 0.05-0.014 0.055-0.078 0.063-0.125 0.033-0.036 0.074-0.093 0.125-0.094 0.083 0 0.095 0.075 0.125 0.156 0.017 0.046 0.05 0.108 0.063 0.156 0.02 0.083 0.017 0.325 0 0.375-0.021 0.06-0.106 0.089-0.156 0.156-0.024 0.03-0.044 0.07-0.063 0.094-0.032 0.04-0.07 0.057-0.094 0.094-0.014 0.02-0.018 0.066-0.031 0.094-0.04 0.085-0.096 0.148-0.063 0.25 0.014 0.042 0.062 0.076 0.063 0.125 0 0.058-0.115 0.093-0.125 0.156-7e-3 0.047 0.048 0.126 0.063 0.187 0.01 0.047 0.097 0.094 0.125 0.125 0.047 0.053 0.082 0.121 0.125 0.188 0.085 0.13 0.136 0.28 0.219 0.406 0.043 0.066 0.127 0.12 0.156 0.188 0.015 0.035-0.014 0.094 0 0.125 0.048 0.108 0.266 0.228 0.375 0.281 0.05 0.025 0.11 0 0.156 0.031a0.919 0.919 0 0 1 0.25 0.219c0.032 0.056 0.047 0.193 0.063 0.28 0.02 0.118-5e-3 0.218 0 0.345 4e-3 0.069 0.03 0.118 0.03 0.187v0.094c-1e-3 0.083 8e-3 0.166 0 0.25a0.744 0.744 0 0 0 0 0.125c5e-3 0.041 0.029 0.057 0.032 0.094 2e-3 0.04-0.035 0.095-0.031 0.125 9e-3 0.084 0.077 0.142 0.094 0.22 0.013 0.06 0.039 0.207 0.03 0.28-4e-3 0.04-0.024 0.083-0.03 0.125-4e-3 0.033 5e-3 0.062 0 0.094-6e-3 0.047-0.034 0.081-0.031 0.125 6e-3 0.09 0.08 0.16 0.094 0.25 5e-3 0.03 0 0.065 0 0.094 0 0.027 0.023 0.038 0.03 0.063a6.979 6.979 0 0 1-0.75-0.5 7.065 7.065 0 0 1-0.655-0.563l-0.031-0.03c-1.363-1.331-2.006-3.136-2.094-4.968 0-0.302 0.026-0.584 0.063-0.875v-0.03c0.063 0 0.149-0.093 0.219-0.095m2.688 0.75c0.064-0.03 0.084 0.117 0.03 0.125-0.05 0-0.08-0.102-0.03-0.125" color="#5d656b"/>
  <path d="m11 5a8 8 0 0 0-8 8 8 8 0 0 0 8 8 8 8 0 0 0 8-8 8 8 0 0 0-8-8m0 1a7 7 0 0 1 7 7 7 7 0 0 1-7 7 7 7 0 0 1-7-7 7 7 0 0 1 7-7" color="#3daee9"/>
 </g>
</svg>
