<svg xmlns="http://www.w3.org/2000/svg" viewBox="0 0 24 24"><defs id="defs3051"><style type="text/css" id="current-color-scheme">.ColorScheme-Text{color:#5d656b}</style></defs><path d="M11.988 4L7 8.99v6.02L11.988 20H13V4h-1.012zm3.336 4.281l-.539.862A4 4 0 0 1 16 12a4 4 0 0 1-1.21 2.861l.538.864A5 5 0 0 0 17 12a5 5 0 0 0-1.676-3.719zM4 9v6h2V9H4z" class="ColorScheme-Text" fill="currentColor"/><path d="M14.865 4.537l-.244.977A7 7 0 0 1 19 12a7 7 0 0 1-4.38 6.479l.243.974A8 8 0 0 0 20 12a8 8 0 0 0-5.135-7.463z" class="ColorScheme-Text" fill="currentColor" fill-opacity=".5"/></svg>