<svg xmlns="http://www.w3.org/2000/svg" viewBox="0 0 24 24"><path d="M12 4c-1.108 0-2 .892-2 2 0 .097.012.192.025.285A6.98 6.98 0 0 0 5 13c0 3.878 3.122 7 7 7s7-3.122 7-7a6.97 6.97 0 0 0-1.41-4.213A.98.98 0 0 0 18 8c0-.554-.446-1-1-1a.98.98 0 0 0-.787.41 6.95 6.95 0 0 0-2.238-1.125C13.988 6.192 14 6.097 14 6c0-1.108-.892-2-2-2zm0 1c.554 0 1 .446 1 1 0 .027-.014.05-.016.076A7.068 7.068 0 0 0 12 6c-.335 0-.662.031-.984.076C11.014 6.05 11 6.027 11 6c0-.554.446-1 1-1zm0 2c.26 0 .514.02.764.053l.103.015A5.98 5.98 0 0 1 18 13c0 3.324-2.676 6-6 6s-6-2.676-6-6a5.98 5.98 0 0 1 5.133-5.932l.103-.015C11.486 7.019 11.74 7 12 7zm0 1v4c.554 0 1 .446 1 1h4c0-2.77-2.23-5-5-5z" fill="currentColor" color="#5d656b"/></svg>