<svg xmlns="http://www.w3.org/2000/svg" viewBox="0 0 24 24"><path d="M11.045 4c-1.777 0-2.522.706-2.522 2.51V8.95c0 1.114-.034 2.404-1.015 2.404H7v1.29h.508c.981 0 1.015 1.29 1.015 2.404v2.441c0 1.804.745 2.51 2.522 2.51v-1.184c-1.185 0-1.201-.478-1.201-2.21V14.59c0-.831-.205-2.068-1.203-2.58.998-.513 1.203-1.751 1.203-2.582V7.395c0-1.733.016-2.211 1.2-2.211V4zm1.894 0v1.184c1.185 0 1.217.478 1.217 2.21v2.034c0 .83.205 2.07 1.203 2.582-.998.512-1.203 1.749-1.203 2.58v2.015c0 1.733-.032 2.211-1.217 2.211V20c1.777 0 2.538-.706 2.538-2.51V15.05c0-1.114.068-2.404 1.033-2.404H17v-1.29h-.49c-.965 0-1.033-1.29-1.033-2.404V6.51c0-1.804-.76-2.51-2.538-2.51z" fill="currentColor" color="#5d656b"/></svg>