<svg xmlns="http://www.w3.org/2000/svg" viewBox="0 0 24 24" xmlns:xlink="http://www.w3.org/1999/xlink"><defs><path fill="url(#a)" id="d" d="M24 8C15.136 8 8 15.136 8 24h16V8"/><path fill="url(#b)" id="g" d="M408.571 539.798c8.864 0 16-7.136 16-16h-16v16"/><path fill="url(#c)" id="e" d="M408.571 539.798c-8.864 0-16-7.136-16-16h16v16"/><linearGradient id="b" y1="523.8" y2="539.8" x1="424.57" x2="408.57" gradientUnits="userSpaceOnUse"><stop stop-color="#c1cc00"/><stop offset=".312" stop-color="#dfcd00"/><stop offset=".562" stop-color="#f0cc00"/><stop offset=".75" stop-color="#fd8c08"/><stop offset="1" stop-color="#f25c13"/></linearGradient><linearGradient id="a" y1="24" y2="8" x1="8" x2="24" gradientUnits="userSpaceOnUse"><stop stop-color="#e81877"/><stop offset=".312" stop-color="#dd1d8c"/><stop offset=".562" stop-color="#6d57b1"/><stop offset=".75" stop-color="#2a78c1"/><stop offset="1" stop-color="#018dcb"/></linearGradient><linearGradient id="f" y1="523.8" y2="507.8" x1="424.57" x2="408.57" gradientUnits="userSpaceOnUse"><stop stop-color="#bec900"/><stop offset=".312" stop-color="#9ec80a"/><stop offset=".562" stop-color="#71b93d"/><stop offset=".75" stop-color="#35a48f"/><stop offset="1" stop-color="#018fca"/></linearGradient><linearGradient id="c" y1="523.8" y2="539.8" x1="392.57" x2="408.57" gradientUnits="userSpaceOnUse"><stop stop-color="#e51561"/><stop offset=".312" stop-color="#e4156c"/><stop offset=".562" stop-color="#e71e2c"/><stop offset=".75" stop-color="#e8301e"/><stop offset="1" stop-color="#e6320e"/></linearGradient></defs><g transform="matrix(1.24886 0 0 1.24887 -1.738 -1288.52)"><g transform="rotate(15 -3071.937 46.542) scale(.4)"><use xlink:href="#d" clip-path="url(#5)" transform="translate(384.57 499.8)"/><use xlink:href="#e" clip-path="url(#6)"/><path fill="url(#f)" d="M408.571 507.798c8.864 0 16 7.136 16 16h-16v-16" clip-path="url(#7)"/><use xlink:href="#g" clip-path="url(#8)"/></g><g opacity=".7" transform="matrix(.4 0 0 .4 -152.43 831.84)"><use filter="url(#4)" xlink:href="#d" clip-path="url(#9)" transform="translate(384.57 499.8)"/><use filter="url(#4)" xlink:href="#e" clip-path="url(#A)"/><use filter="url(#4)" xlink:href="#g" clip-path="url(#B)"/><path fill="url(#f)" filter="url(#4)" d="M408.571 507.798c8.864 0 16 7.136 16 16h-16v-16" clip-path="url(#C)"/></g><use opacity=".35" xlink:href="#d" clip-path="url(#9)" transform="scale(.4) rotate(45 -3087.91 1317.946)"/><path opacity=".35" fill="url(#c)" d="M408.571 539.798c-8.864 0-16-7.136-16-16h16v16" clip-path="url(#A)" transform="scale(.4) rotate(45 -2292.3 1103.62)"/><use opacity=".35" xlink:href="#g" clip-path="url(#B)" transform="scale(.4) rotate(45 -2292.3 1103.62)"/><path opacity=".35" fill="url(#f)" d="M408.571 507.798c8.864 0 16 7.136 16 16h-16v-16" clip-path="url(#C)" transform="scale(.4) rotate(45 -2292.3 1103.62)"/><g transform="rotate(75 -454.826 526.113) scale(.4)"><use opacity=".3" xlink:href="#d" clip-path="url(#D)" transform="translate(384.57 499.8)"/><use opacity=".3" xlink:href="#e" clip-path="url(#E)"/><use opacity=".3" xlink:href="#g" clip-path="url(#F)"/><path opacity=".3" fill="url(#f)" d="M408.571 507.798c8.864 0 16 7.136 16 16h-16v-16" clip-path="url(#G)"/></g></g></svg>