<svg xmlns="http://www.w3.org/2000/svg" viewBox="0 0 24 24"><path d="M4 8v9h5v-4h7v2h1v-2h1v2h1v-2h1v-1H9V8H4zm1 1h3v7H5V9z" fill="currentColor" color="#5d656b"/><path d="M17.5 3A3.5 3.5 0 0 0 14 6.5a3.5 3.5 0 0 0 .7 2.094l.716-.717A2.5 2.5 0 0 1 15 6.5 2.5 2.5 0 0 1 17.5 4a2.5 2.5 0 0 1 1.377.416l.717-.717A3.5 3.5 0 0 0 17.5 3zm2.8 1.406l-.716.717A2.5 2.5 0 0 1 20 6.5 2.5 2.5 0 0 1 17.5 9a2.5 2.5 0 0 1-1.377-.416l-.717.717A3.5 3.5 0 0 0 17.5 10 3.5 3.5 0 0 0 21 6.5a3.5 3.5 0 0 0-.7-2.094z" fill="currentColor" color="#3daee9"/></svg>