<svg xmlns="http://www.w3.org/2000/svg" viewBox="0 0 24 24"><path d="M14.031 4c0 1.899 1.341 3.47 2.35 4.436-1.199 1.217-2.677 1.766-5.381 2.23L11.277 12C17.305 10.966 20 7.176 20 4h-1.477c0 .923-.466 2.706-1.265 3.393-.816-.774-1.8-1.969-2.037-3.372L14.03 4zM6 8l-2 3h4L6 8zm11.13 4.97c-1.172.026-2.073.216-2.728.497l.37 1.263c.313-.102 1.5-.459 2.195-.459h.096c.968.039 1.037.37 1.037 1.147v.307l-.506.076c-2.346.319-3.6.586-3.6 2.27 0 1.172.914 1.9 2.236 1.9.914 0 1.514-.358 2.127-.842l.192.715h1.445v-4.719c0-1.44-1.063-2.154-2.7-2.154h-.163zm.97 3.749v1.568c-.505.319-.887.549-1.541.549-.587 0-.873-.346-.873-.83 0-.918.858-1.07 1.908-1.211l.506-.076zM4 17l2 3 2-3H4z" fill="currentColor" color="#5d656b"/></svg>