<svg xmlns="http://www.w3.org/2000/svg" viewBox="0 0 24 24"><path d="M16.781 6.563l-3.843 4.187.75.688L17.53 7.25c-.141-.135-.473-.423-.75-.688zm-9.562.062l-.75.688 3.808 4.101.754-.695L7.22 6.625zm4.281 7.813v2.124h1v-2.125c-.397.005-.705.001-1 0z" fill="currentColor" color="#5d656b"/><path d="M5.5 4A1.5 1.5 0 0 0 4 5.5 1.5 1.5 0 0 0 5.5 7 1.5 1.5 0 0 0 7 5.5 1.5 1.5 0 0 0 5.5 4zm13 0A1.5 1.5 0 0 0 17 5.5 1.5 1.5 0 0 0 18.5 7 1.5 1.5 0 0 0 20 5.5 1.5 1.5 0 0 0 18.5 4zM12 11a1.5 1.5 0 0 0-1.5 1.5A1.5 1.5 0 0 0 12 14a1.5 1.5 0 0 0 1.5-1.5A1.5 1.5 0 0 0 12 11zm0 6a1.5 1.5 0 0 0-1.5 1.5A1.5 1.5 0 0 0 12 20a1.5 1.5 0 0 0 1.5-1.5A1.5 1.5 0 0 0 12 17z" fill="currentColor" color="#3daee9"/></svg>