<svg xmlns="http://www.w3.org/2000/svg" viewBox="0 0 24 24"><path d="M8.012 4c-.578 1-.878 1-.301 2l3.541 6.14-2.059 3.528A2.495 2.495 0 0 0 5 17.5C5 18.885 6.115 20 7.5 20a2.495 2.495 0 0 0 2.451-2.988l1.162-2.014c.78-.001.88-.775 1.334-.785l1.604 2.781A2.495 2.495 0 0 0 16.5 20c1.384 0 2.499-1.115 2.499-2.5a2.495 2.495 0 0 0-4.186-1.838l-2.054-3.521L16.3 6c.578-1 .277-1-.3-2l-3.994 6.848L8.012 4M12 12a.499.499 0 1 1 0 1 .499.499 0 1 1 0-1zm-4.5 4c.831 0 1.5.669 1.5 1.5S8.331 19 7.5 19 6 18.331 6 17.5 6.669 16 7.5 16m9 0c.831 0 1.5.669 1.5 1.5s-.669 1.5-1.5 1.5-1.5-.669-1.5-1.5.669-1.5 1.5-1.5" fill="currentColor" color="#5d656b"/></svg>