<svg xmlns="http://www.w3.org/2000/svg" viewBox="0 0 24 24"><path d="M4 4v16h16V4H4m1 1h14v14H5V5m1 1v2h1V7h1V6H6m6 0a2.495 2.495 0 0 0-2.5 2.5c0 1.385 1.115 2.5 2.5 2.5s2.5-1.115 2.5-2.5S13.385 6 12 6m4 0v1h1v1h1V6h-2m-4 1c.831 0 1.5.669 1.5 1.5S12.831 10 12 10s-1.5-.669-1.5-1.5S11.169 7 12 7m-6 3v2h2v-1H7v-1H6m11 0v1h-1v1h2v-2h-1m-5 2a4.49 4.49 0 0 0-4.5 4.5V18h9v-1.5A4.49 4.49 0 0 0 12 12m0 1c1.939 0 3.5 1.561 3.5 3.5v.5h-7v-.5c0-1.939 1.561-3.5 3.5-3.5" fill="currentColor" color="#5d656b"/></svg>