<svg xmlns="http://www.w3.org/2000/svg" viewBox="0 0 24 24"><path d="M18.564 3.756L15.3 9.574 12.883 8.14 11.86 9.857l5.65 3.36 1.022-1.72-2.375-1.413 3.278-5.84-.872-.488zM8 7a1 1 0 0 0-1 1 1 1 0 0 0 1 1 1 1 0 0 0 1-1 1 1 0 0 0-1-1zM4.5 8a.5.5 0 0 0-.5.5.5.5 0 0 0 .5.5.5.5 0 0 0 .5-.5.5.5 0 0 0-.5-.5zM6 10a1 1 0 0 0-1 1 1 1 0 0 0 1 1 1 1 0 0 0 1-1 1 1 0 0 0-1-1zm5 1c-1.118 1.564-3.164 2.81-7 3v1c2.114 3.372 5 5 9 5h1c1.311-1.587 2.358-3.032 3-5v-1l-5-3h-1zm.53 1.102l4.327 2.597c-.572 1.547-1.472 2.904-2.584 4.27C10 19 7.053 17.54 5.326 14.83c3.118-.31 5.02-1.285 6.203-2.728z" fill="currentColor" color="#5d656b"/></svg>