<svg xmlns="http://www.w3.org/2000/svg" viewBox="0 0 24 24"><path d="M11.912 4a8 6 0 0 0-2.418.303l.838.842A7 5 0 0 1 12 4.996a7 5 0 0 1 .527.02L11.912 4zm1.207.063l.67 1.105a7 5 0 0 1 2.742 1.018l.813-.645a8 6 0 0 0-4.225-1.479zm-4.701.576a8 6 0 0 0-1.86.968l.973.547a7 5 0 0 1 1.664-.732l-.777-.783zm9.74 1.53l-.789.628a7 5 0 0 1 .795.838l1-.293a8 6 0 0 0-1.006-1.172zm-12.44.112a8 6 0 0 0-1.032 1.305l.931.367a7 5 0 0 1 1.012-1.16l-.91-.512zm13.93 1.961l-.966.283a7 5 0 0 1 .297 1.09l1.005.137a8 6 0 0 0-.336-1.51zm-15.386.25a8 6 0 0 0-.258 1.426l1.004-.045a7 5 0 0 1 .181-1.014l-.927-.367zm14.677 2.127a7 5 0 0 1-.587 1.467l.99.275a8 6 0 0 0 .584-1.607l-.987-.135zm-13.83.25l-1.005.045a8 6 0 0 0 .562 1.473l.91-.418a7 5 0 0 1-.467-1.1zm1.088 1.916l-.94.43a8 6 0 0 0 1.772 1.467c.636 2.375-1.84 4.501-1.029 5.312 1.135.108 1.81-1.567 2.082-3.19.102-.138.471-.666.768-1.296a8 6 0 0 0 3.14.488l-1.066-1.066a7 5 0 0 1-1.787-.385c.008-.444-.266-.724-1.135-.545-.001-.001 0-.005-.002-.006-.08 0-.158-.016-.236-.027a7 5 0 0 1-1.567-1.182zm11.461.147a7 5 0 0 1-1.674 1.168l.977.595a8 6 0 0 0 1.777-1.463l-1.08-.3zm-2.834 1.632a7 5 0 0 1-2.43.422l.922.922a8 6 0 0 0 2.594-.681l-1.086-.663z" fill="currentColor" color="#5d656b"/></svg>