<svg xmlns="http://www.w3.org/2000/svg" viewBox="0 0 24 24"><path d="M12 4a8 8 0 1 0 0 16 8 8 0 0 0 0-16zm0 1a7 7 0 0 1 4.531 1.666v.002c.013.02.018.03.032.05L12 11.282 7.437 6.72l.02-.033A7 7 0 0 1 12 5zM6.719 7.438L11.28 12 6.72 16.563c-.102-.122-.168-.188-.262-.297A7 7 0 0 1 5 12a7 7 0 0 1 1.666-4.53l.053-.032zm10.562 0l.024.007A7 7 0 0 1 19 12a7 7 0 0 1-1.678 4.545c-.015.008-.025.009-.04.017L12.718 12l4.562-4.563zM12 12.718l4.563 4.563-.012.026A7 7 0 0 1 12 19a7 7 0 0 1-4.559-1.693l-.003-.026L12 12.72z" fill="currentColor" color="#5d656b"/></svg>