<svg xmlns="http://www.w3.org/2000/svg" viewBox="0 0 24 24"><defs id="defs3051"><style type="text/css" id="current-color-scheme">.ColorScheme-Text{color:#5d656b}</style></defs><path d="M4 3v17h17V3H4zm1 1h7v7H5V4zm8 0h7v7h-7V4zm-8 8h7v7H5v-7zm8 0h7v7h-7v-7z" class="ColorScheme-Text" fill="currentColor" fill-opacity=".1"/><path d="M5 4v7h7V4H5zm8 0v6.293L19.293 4H13zm7 .707L13.707 11H20V4.707zM5 12v6.293L11.293 12H5zm8 0v7h7v-7h-7zm-1 .707L5.707 19H12v-6.293z" class="ColorScheme-Text" fill="currentColor" fill-opacity=".5"/><path d="M20.293 3L4 19.293V20h.707L21 3.707V3h-.707z" class="ColorScheme-Text" fill="currentColor"/></svg>