<svg xmlns="http://www.w3.org/2000/svg" viewBox="0 0 24 24"><path d="M7.75 4c-2.42 0-3.974 3.06-4.203 7h.992c.188-3.388 1.324-6 3.211-6 1.887 0 3.433 2.612 3.695 6h.996c-.295-3.94-2.271-7-4.691-7zm3.791 9c.3 3.998 2.317 6.997 4.709 7 2.392 0 3.951-3.004 4.25-7h-1c-.266 3.44-1.388 5.996-3.25 6-1.862 0-3.441-2.56-3.707-6h-1.002z" fill="currentColor" color="#5d656b"/><path d="M2 10v4h4v-4H2zm8 0v4h4v-4h-4zm8 0v4h4v-4h-4zM3 11h2v2H3v-2zm8 0h2v2h-2v-2zm8 0h2v2h-2v-2z" fill="currentColor" color="#3daee9"/></svg>