<svg xmlns="http://www.w3.org/2000/svg" viewBox="0 0 24 24"><defs id="defs3051"><style type="text/css" id="current-color-scheme">.ColorScheme-Text{color:#5d656b}</style></defs><path d="M4.707 3l1 1H12v6.293L13.707 12H20v6.293l1 1V3H4.707zM4 3.707V20h16.293l-1-1H13v-6.293L11.293 11H5V4.707l-1-1zM13 4h7v7h-7V4zm-8 8h7v7H5v-7z" class="ColorScheme-Text" fill="currentColor" fill-opacity=".1"/><path d="M5.707 4L12 10.293V4H5.707zM13 4v7h7V4h-7zm-8 .707V11h6.293L5 4.707zM5 12v7h7v-7H5zm8.707 0L20 18.293V12h-6.293zm-.707.707V19h6.293L13 12.707z" class="ColorScheme-Text" fill="currentColor" fill-opacity=".5"/><path d="M4 3v.707L20.293 20H21v-.707L4.707 3H4z" class="ColorScheme-Text" fill="currentColor"/></svg>