<svg xmlns="http://www.w3.org/2000/svg" viewBox="0 0 24 24"><path d="M16.979 4c-1.514.438-3.23.67-4.979.672-1.748-.001-3.466-.232-4.98-.668.022.69.077 1.345.136 1.996H7c0-1-1-1-1-1H4v2h.008c0 .034-.008.066-.008.1a7.974 7.974 0 0 0 5.924 7.72c.34.405.7.719 1.076.916V18h-1v1H9v1h6v-1h-1v-1h-1v-2.264c.375-.198.734-.511 1.074-.916A7.974 7.974 0 0 0 20 7.1c0-.034-.007-.066-.008-.1H20V5h-2.016s-.706.005-.984.957V6H16.842c.06-.652.114-1.31.137-2zM5.094 6H6c.268 1 1 1 1 1h.264c.325 2.616.937 4.85 1.75 6.428A6.977 6.977 0 0 1 5 7.1c0-.376.037-.74.094-1.1zM12 6l.62 1.316 1.38.211-1 1.026.236 1.447L12 9.316 10.764 10 11 8.553l-1-1.026 1.38-.21L12 6zm6 0h.906c.057.36.094.724.094 1.1a6.977 6.977 0 0 1-4.02 6.33c.814-1.579 1.429-3.812 1.754-6.43H17s1 0 1-1z" fill="currentColor" color="#5d656b"/></svg>