<svg xmlns="http://www.w3.org/2000/svg" viewBox="0 0 24 24"><defs id="defs3051"><style type="text/css" id="current-color-scheme">.ColorScheme-Text{color:#5d656b}</style></defs><path d="M4 3v15h1v-6h7v6h1v-6h7v6h1V3H4zm1 1h7v7H5V4zm8 0h7v7h-7V4z" class="ColorScheme-Text" fill="currentColor" fill-opacity=".1"/><path d="M5 4v7h7V4H5zm8 0v7h7V4h-7zm-8 8v6h7v-6H5zm8 0v6h7v-6h-7z" class="ColorScheme-Text" fill="currentColor" fill-opacity=".5"/><path d="M4 17v1h17v-1H4zm0 2v1h17v-1H4z" class="ColorScheme-Text" fill="currentColor"/></svg>