<svg xmlns="http://www.w3.org/2000/svg" viewBox="0 0 24 24"><path d="M4 5v14h7v-1H5V6h10v4h4v2h1V9l-4-4H4zm12 7a4 4 0 1 0 0 8 4 4 0 0 0 0-8zm0 .666c.115 0 .222.01.334.021h.082c.035.007.07.015.105.02.096.015.177.041.27.064.171.042.34.099.5.166.088.038.166.081.25.126v.019c.02.009.03.046.063.064.012.007.01.014.021.02.02.01.045.022.041.041-.005.027-.044.021-.062.041.002.039-.031.039-.041.065.006.016.038.021.04.04-.003.022-.049.02-.04.042.036.028.069.006.103 0 .075-.01.142-.007.188-.041-.006-.036.066-.031.062-.063.02.014.044.027.063.041-.008.007-.012.016-.02.02-.014.006-.03.013-.043.021l-.062.041c-.016.01-.047.063-.063.063-.02 0-.048-.024-.062-.02-.02.007-.019.034-.041.041-.044.016-.132-.024-.147.041.019.038.092.02.125.041.02.013.057.061.063.084a.393.393 0 0 1 0 .125c-.021.053-.084.042-.145.041h-.043c-.103-.007-.203-.052-.25.022.003.056.013.095 0 .144-.01.036-.064.074-.062.106 0 .016.038.04.042.062.003.012-.005.03 0 .041.018.033.052-.007.083 0 .029.007.062.05.062.082a.173.173 0 0 1-.02.084c-.029.044-.083.039-.125.063-.034.02-.041.07-.062.105-.022.037-.052.05-.043.104a.243.243 0 0 1-.125.125c-.018.008-.046.007-.062.02-.014.008-.023.042-.041.064-.024.026-.05.042-.063.062-.01.015-.012.041-.021.063-.015.028-.044.034-.063.062-.009.013-.01.045-.02.063-.02.038-.046.07-.042.103.003.032.04.033.042.063.002.016-.022.023-.021.04 0 .026.02.045.021.065.005.05-.033.07-.042.104-.005.016.004.028 0 .04-.008.025-.04.055-.041.085-.001.02.039.033.04.062.002.02-.023.044-.019.063.007.036.076.075.104.103.038.038.086.065.103.106.014.034.017.1.043.125.02.018.057.021.082.04.023.019.038.022.063.042.04.032.103.108.167.103.034-.007.066-.035.104-.04.04-.008.085-.026.125-.022.03.006.072.023.104.021.033-.007.067-.007.105-.021.066-.03.174-.077.27-.063.073.01.073.092.125.125.058.007.1-.011.146 0 .035.009.08.056.084.084.003.029-.039.066-.043.084-.01.039.007.079 0 .104-.005.019-.02.043-.02.062 0 .017.023.061.041.084.022.028.058.052.084.082.05.056.07.114.104.188.009.018-.008.04 0 .064a.76.76 0 0 1-.125.313c-.035.04-.085.075-.084.125-.003.12.068.196.063.312-.012.156.012.167 0 .25.052.027.015.11 0 .166-.023.066-.05.081-.063.125.035.015.086.01.125 0l-.062.063c-.151.15-.323.296-.5.416a3.288 3.288 0 0 1-1.145.5c-.229.05-.465.062-.709.062-.127 0-.252-.005-.375-.02-.098-.01-.196-.021-.291-.04-.189-.04-.367-.119-.543-.188-.006-.011-.021-.03-.02-.043.035-.015.1.05.125 0 .013-.023-.016-.08 0-.103.012-.016.08-.015.104-.02.035-.007.085-.012.105-.021.022-.014.045-.063.041-.104-.002-.02-.025-.026-.04-.043-.013-.015.008-.028 0-.041-.017-.023-.056-.028-.063-.062.048-.01.118.04.187.021.033-.01.089-.073.104-.104.005-.009-.005-.03 0-.042.006-.012.02-.035.021-.041.005-.018-.004-.008 0-.02.012-.034.041-.06.061-.084.015-.019.049-.043.063-.063.016-.02.01-.022.021-.04.01-.061-.036-.115-.021-.168.016-.06.11-.098.167-.125.02-.01.046-.014.063-.02l.125-.041c.063-.023.073-.068.104-.125.014-.027.038-.065.04-.084.003-.017-.003-.021 0-.041.004-.02-.005-.04 0-.063A.69.69 0 0 0 16 17.48c0-.026-.02-.038-.021-.062-.005-.087.03-.078.062-.125.016-.023.032-.067.043-.084.054-.08.151-.107.145-.229-.003-.04-.034-.133-.063-.146-.017-.007-.038-.013-.062-.021-.08-.03-.147-.119-.229-.125h-.041c-.032 0-.07-.015-.105-.02-.023-.007-.07.007-.083 0-.02-.01-.026-.051-.042-.063-.014-.009-.042-.014-.063-.021-.033-.012-.044-.039-.082-.041-.012 0-.03.007-.043 0-.02-.007-.041-.01-.06-.022-.025-.014-.053-.02-.063-.04.022-.072-.048-.084-.063-.126-.006-.019.007-.064 0-.082-.008-.024-.035-.043-.062-.064a.251.251 0 0 0-.147-.063c-.03-.006-.066.007-.103 0a.237.237 0 0 1-.125-.062c-.028-.033-.038-.067-.063-.082-.023-.015-.046-.028-.062-.043-.007-.007-.015-.006-.022-.02-.012-.024-.036-.032-.021-.062-.027-.013-.012.024-.041.02-.026-.037-.045-.074-.104-.063-.026.007-.052.062-.084.062-.026 0-.05-.057-.084-.062-.025-.007-.064.025-.082.021-.028-.006-.036-.023-.062-.04-.02-.013-.052-.042-.063-.042-.033 0-.059.066-.105.041-.023-.028.048-.035.021-.062-.02-.02-.025.01-.04.02-.02.011-.042.014-.063.021-.046.017-.089.022-.125.041a.124.124 0 0 0-.063.062c-.015.028-.039.083-.062.084-.028 0-.037-.03-.063-.04-.076-.034-.124.018-.187.019-.059 0-.15-.091-.147-.146.002-.035.018-.084.022-.126.003-.033.04-.073.041-.103 0-.041-.077-.058-.104-.063-.062-.01-.137.028-.209 0-.013-.022.014-.04.022-.062.005-.012-.005-.028 0-.041.008-.021.053-.04.062-.063.008-.017-.007-.04 0-.062.01-.024.04-.045.041-.063.003-.022-.023-.05-.04-.064-.056.007-.094.008-.126.021-.072.033-.052.124-.125.147a.62.62 0 0 1-.084.02c-.012.006-.027 0-.04 0 0-.007-.002-.013 0-.02.003-.015.016-.026.019-.041.048-.217.122-.426.209-.625h.021c.026.007.041.04.063.041.061.007.074-.057.125-.084.052.007.078-.007.125 0 .032.007.078.038.103.041.022 0 .021-.022.041-.02.02.007.06.039.063.063.003.03-.028.07-.02.104.032.031.1.043.145.062.03-.025.005-.069 0-.104 0-.015.002-.048 0-.062-.003-.024-.02-.042-.02-.063 0-.095.081-.13.145-.167.027-.016.06-.051.084-.063.034-.017.056-.006.084-.02.05-.028.086-.073.125-.105.018-.043-.002-.102 0-.145.018-.01.043 0 .062 0 .031-.006.046-.045.063-.062.01-.01.029-.011.041-.021.03-.024.036-.052.062-.063a.168.168 0 0 1 .041-.021c.02-.007.052-.008.084-.02.021-.007.076-.013.084-.021.01-.01-.002-.048 0-.063.016-.075.12-.078.188-.104.047-.017.093-.071.145-.062-.01.036-.05.039-.042.082.012.06.083-.01.104-.02.04-.017.115-.042.168-.062.047-.017.126-.03.082-.084-.037-.007-.05.028-.082.041-.022.007-.024-.018-.043-.02-.018 0-.023.023-.041.02-.018-.007-.038-.04-.041-.062-.007-.056.04-.062.062-.104-.015-.05-.082-.022-.125-.041a.077.077 0 0 1 .063-.064.244.244 0 0 1 .125.021c.01.009-.015.028 0 .041.017.015.04.007.062 0 .008-.038-.05-.016-.043-.041.046-.03.133-.014.188-.021a.461.461 0 0 0 .105-.041c.027-.016.035-.045.063-.02.008.027-.006.048-.022.062-.05.046-.106.092-.146.145.025.024.064.017.105.021.016.007.046 0 .063 0 .02.007.045-.006.06 0 .029.007.035.063.063.063.045 0 .026-.054 0-.084.008-.031.033-.06.021-.082-.02-.041-.099.012-.103-.041-.003-.033.029-.037.041-.063-.005-.064.048-.067.041-.125-.003-.024-.024-.02-.041-.043-.009-.011-.012-.053-.021-.062-.035-.03-.1-.007-.104-.063-.002-.033.005-.067 0-.103-.005-.034-.033-.14-.063-.146-.037-.008-.058.063-.103.083a.255.255 0 0 1-.105.02c-.016-.007-.04-.01-.041-.041-.003-.028.03-.04.04-.063.003-.006 0-.012 0-.019.049-.013.098-.032.147-.043l.084-.02c.02-.006.042.007.062 0 .09-.016.179-.032.27-.04.11-.012.22-.022.334-.022v-.002zm-1.354.313c-.02.121-.135.171-.271.167-.03.03-.005.085-.021.125-.014.034-.07.066-.104.063-.025 0-.063-.04-.063-.063 0-.028.047-.03.022-.062.001-.007.013-.015.02-.021.013-.01.029-.014.042-.022.121-.074.245-.129.375-.187zm2.791.125c-.012.006-.01.014-.021.021-.025.015-.043.034-.062.041-.028.01-.06.016-.063.041-.003.02.022.022.021.041-.01.025-.016.035-.021.065.034.055.105-.013.146-.022.02-.007.032-.007.042-.021.01-.018.012-.038.021-.063.01-.028.044-.038.041-.062-.003-.025-.062-.045-.104-.041zm-3.646.417c.032.026.077.08.021.104a.339.339 0 0 1-.103.021c-.007 0-.016-.016-.021-.021.034-.033.067-.072.103-.104zm.125.125c.016 0 .024.04.043.041.018 0 .03-.024.041-.021.028.007.048.063.021.084-.022.007-.026-.024-.042-.021-.046.008-.07.108-.104.105-.032-.007-.054-.082-.021-.105 0-.02-.002-.02 0-.041.01-.013.035-.044.062-.042zm-.166.02c.01 0 .018-.007.021 0-.004.035-.015.046-.042.063-.048.028-.089.064-.104.125-.005.018-.061.066-.084.062-.053-.011.031-.11.043-.125.013-.017.026-.022.041-.041.015-.019.026-.052.041-.063a.166.166 0 0 1 .084-.019v-.002zm4.521.105c.053-.006.08.05.104.083a.42.42 0 0 0 .104.084c.018.01.041.032.062.04.043.02.123.083.125.126 0 .02-.023.042-.02.062.033.007.062-.05.063-.082.061.087.113.177.166.27.025.043.06.08.084.125-.03.008-.038.013-.043.04-.007.038.015.1-.041.106-.035.007-.076-.03-.125-.041-.02-.007-.047.007-.063 0-.036-.012-.03-.062-.062-.084a.314.314 0 0 0-.104-.041c-.018 0-.024.007-.042 0-.023-.007-.064.01-.083 0a.214.214 0 0 1-.062-.063c-.007-.024.061-.04.062-.062.002-.016-.018-.04-.021-.064-.003-.015.003-.031 0-.041-.005-.018-.035-.02-.063-.02h-.25c-.058.007-.1-.007-.146 0-.033 0-.094.028-.125.041l-.041.02a.296.296 0 0 1-.041.021c-.019.009-.045.036-.063.041-.026.007-.058-.007-.105 0-.034 0-.081-.022-.082-.062 0-.062.107-.03.166-.041.022-.007.036-.025.063-.041.012-.008.01-.014.021-.022.02-.014.06-.046.062-.062.003-.015-.002-.03 0-.041.003-.014.023-.023.041-.042.028-.028.05-.066.084-.084.024-.011.052-.022.063-.04.003-.022 0-.022 0-.042a.087.087 0 0 1 .041-.021c.036-.008.062 0 .104 0 .018 0 .043.009.062 0 .016-.01.027-.034.043-.041a.166.166 0 0 1 .062-.022zm.375.395h-.084c-.029 0-.066-.015-.083 0 .024.04.07.053.125.063a.129.129 0 0 0 .042-.063zm-4.562-.375h.062c.017 0 .035-.007.041 0-.01.044-.111.037-.146.021.002-.016.022-.018.043-.021zm-.146.084c-.03.021-.058.048-.104.063-.025.007-.058.006-.063-.022-.005-.035.04-.016.063-.02.03-.006.07-.02.104-.021zm4.333 0c-.022.007-.032.056 0 .063.016-.01.024-.034.02-.063-.009-.01-.013-.007-.02 0zm-.042.104c0 .037.007.073 0 .105.02.041.073.007.084-.021.012-.07-.01-.093-.042-.084-.01.006-.031-.01-.042 0zm-5.52 1.562c.038.034.059.083.104.105.016.01.04.015.062.02.017.007.024-.007.041 0a1.3 1.3 0 0 1 .105.041c.043.019.089.084.125.105.002.022-.006.047 0 .063.018.023.035.046.063.063.034.018.05.047.082.062.011.007.026-.007.043 0 .044.013.065.074.104.063.024-.008.017-.039.021-.063.017-.018.036-.041.062-.041.042 0 .048.063.063.104.009.022.035.038.041.062a.629.629 0 0 1 0 .188c-.01.03-.059.028-.084.062-.012.016-.01.051-.02.063-.016.019-.03.024-.042.042-.007.01-.014.028-.02.041-.02.043-.06.074-.043.125.007.021.043.038.043.063 0 .03-.058.052-.063.084-.003.023.013.05.02.082.005.023.049.047.063.063.023.026.04.072.062.105.042.065.064.144.105.207.022.033.068.05.083.084.007.017-.007.046 0 .062.024.054.133.12.187.147.025.013.06.006.084.02.035.02.107.074.125.105.016.028.014.1.021.145.01.058-.002.104 0 .167.002.035.02.048.02.082v.063c0 .041.003.083 0 .125a.39.39 0 0 0 0 .063c.002.02.02.024.021.042.002.02-.023.048-.021.063.005.042.035.065.043.103.007.031.024.11.02.147-.003.02-.017.04-.02.062-.002.018.003.026 0 .041-.002.016.004.029 0 .041l-.063-.04a3.469 3.469 0 0 1-.5-.417l-.062-.064a3.462 3.462 0 0 1-.334-.416c-.009-.013-.013-.028-.021-.041a3.207 3.207 0 0 1-.291-.541c-.007-.014-.016-.029-.022-.043a3.336 3.336 0 0 1-.166-.541 3.337 3.337 0 0 1-.084-.709c0-.158.022-.306.043-.459z" fill="currentColor" color="#5d656b"/></svg>