<svg xmlns="http://www.w3.org/2000/svg" viewBox="0 0 24 24"><path d="M18.969 8.031c.013.072.031.143.031.219v7.5c0 .693-.557 1.25-1.25 1.25H5.25c-.076 0-.147-.018-.219-.031A1.238 1.238 0 0 0 6.25 18h12.5c.693 0 1.25-.557 1.25-1.25v-7.5c0-.617-.446-1.114-1.031-1.219z" fill="#b3b3b3"/><path d="M5.25 7C4.557 7 4 7.557 4 8.25v7.5c0 .693.557 1.25 1.25 1.25h12.5c.693 0 1.25-.557 1.25-1.25v-7.5C19 7.557 18.443 7 17.75 7H5.25zM15 9h1v4h-6v2l-3-2.5 3-2.5v2h5V9z" fill="currentColor" color="#5d656b"/></svg>