<svg xmlns="http://www.w3.org/2000/svg" viewBox="0 0 24 24"><path d="M12.996 4.002c-2.911 2.92-5.832 5.826-8.742 8.736l.002.004-.25.25H4V17h4.008c2.905-2.902 6-6.003 8.99-8.996l-3.998-4-.004-.002zm-.584 1.996L15 8.588l-4.268 4.267-2.587-2.59 4.267-4.267zM17.5 9c-.486 1.703-1.678 3.166-2.203 4.338-.184.348-.297.74-.297 1.162 0 1.385 1.115 2.5 2.5 2.5s2.5-1.115 2.5-2.5c0-.423-.113-.814-.297-1.162-.525-1.172-1.717-2.635-2.203-4.338zM7.437 10.973l2.588 2.59-.707.707-2.59-2.59c.238-.235.473-.471.71-.707zm-1.416 1.414l2.59 2.59.004.002-.707.707-.004-.002-2.59-2.59.707-.707zM4 19v1h16v-1H4z" fill="currentColor" color="#5d656b"/></svg>