<svg xmlns="http://www.w3.org/2000/svg" viewBox="0 0 24 24"><path d="M17.5 4C15.567 4 14 5.79 14 8v3c0 2.21 1.567 4 3.5 4s3.5-1.79 3.5-4V8c0-2.21-1.567-4-3.5-4zm0 1C18.88 5 20 6.343 20 8v3c0 1.657-1.12 3-2.5 3S15 12.657 15 11V8c0-1.657 1.12-3 2.5-3z" fill="#b3b3b3"/><path d="M16.086 16l-.707.707 1.414 1.414-1.414 1.414.707.707 1.414-1.414 1.414 1.414.707-.707-1.414-1.414 1.414-1.414-.707-.707-1.414 1.414L16.086 16z" fill="#da4453"/><path d="M9.5 4C7.567 4 6 5.79 6 8v3c0 2.21 1.567 4 3.5 4s3.5-1.79 3.5-4V8c0-2.21-1.567-4-3.5-4zm0 1C10.88 5 12 6.343 12 8v3c0 1.657-1.12 3-2.5 3S7 12.657 7 11V8c0-1.657 1.12-3 2.5-3zM4 14v1h1v-1H4z" fill="currentColor" color="#5d656b"/></svg>