<svg xmlns="http://www.w3.org/2000/svg" viewBox="0 0 24 24"><path d="M11 4v2.09a5.955 5.955 0 0 0-2.477 1.02L7.051 5.636 5.637 7.05l1.472 1.472A5.955 5.955 0 0 0 6.09 11H4v2h2.09a5.955 5.955 0 0 0 1.02 2.477l-1.473 1.472 1.414 1.414 1.472-1.472A5.955 5.955 0 0 0 11 17.91V20h2v-2.09a5.955 5.955 0 0 0 2.477-1.02l1.472 1.473 1.414-1.414-1.472-1.472A5.955 5.955 0 0 0 17.91 13H20v-2h-2.09a5.955 5.955 0 0 0-1.02-2.477l1.473-1.472-1.414-1.414-1.472 1.472A5.955 5.955 0 0 0 13 6.09V4h-2zm1 3a4.98 4.98 0 0 1 3.494 1.424l.082.082A4.98 4.98 0 0 1 17 12a4.98 4.98 0 0 1-1.424 3.494l-.082.082A4.98 4.98 0 0 1 12 17a4.98 4.98 0 0 1-3.494-1.424l-.082-.082A4.98 4.98 0 0 1 7 12a4.98 4.98 0 0 1 1.424-3.494l.082-.082A4.98 4.98 0 0 1 12 7zm-2 3c-.554 0-1 .446-1 1s.446 1 1 1 1-.446 1-1-.446-1-1-1zm4 0c-.554 0-1 .446-1 1s.446 1 1 1 1-.446 1-1-.446-1-1-1zm-4.908 2.727l-.967.242A4 4 0 0 0 12 16a4 4 0 0 0 3.877-3.031l-.97-.242A3 3 0 0 1 12 15a3 3 0 0 1-2.908-2.273z" fill="currentColor" color="#5d656b"/></svg>