<svg xmlns="http://www.w3.org/2000/svg" viewBox="0 0 24 24"><path d="M12.611 4c-.181 0-.598.018-1.105.113-1.2.226-2.861 1.039-3.33 2.758-.726 2.66 1.135 3.733 1.135 3.733s.665.392.935.47c.812.237 1.68.13 1.68.13s-.35 1.186.342 2.026c.165.201.046.211.046.211s-3.021-.072-4.45 1.51c-1.43 1.582-.653 3.033-.653 3.033s.752 1.916 3.984 2.012c3.247.097 5.24-1.909 5.416-3.422.088-.76-.007-1.486-.373-2.11-.355-.605-.976-1.13-1.572-1.638-.37-.316-.629-.484-.795-.666a.765.765 0 0 1-.185-.55c.007-.232.14-.52.529-.99.71-.86.893-.737 1.322-1.38.129-.192.225-.49.358-.908.08-.252.062-.503.062-.746 0-.526-.125-1.039-.326-1.461-.374-.785-1.015-1.292-1.027-1.33h1.12L17 4.015 12.705 4h-.094zm-.918.73c.657.01 1.634.357 2.225 2.206 1.014 3.17-1.105 3.668-1.105 3.668s-2.432.387-2.88-2.434c-.455-2.873.656-3.027 1.09-3.31 0 0 .276-.132.67-.13zm1.323 9.362s1.95 1.233 2.132 2.14c.205 1.017.218 1.754-1.261 2.565-.437.24-1.197.273-1.68.275-1.186.01-2.094-.458-2.537-.697-.23-.124-1.491-1.63-.545-2.969.238-.336.501-.494.746-.666.522-.365 1.027-.53 1.992-.617.321-.029.732 0 1.153-.031z" fill="currentColor" color="#5d656b"/></svg>