<svg xmlns="http://www.w3.org/2000/svg" viewBox="0 0 24 24"><path d="M12 4a2 3 0 0 0-2 3 2 3 0 0 0 .006.186 3 2 45 0 0-.127-.135 3 2 45 0 0-3.535-.707 3 2 45 0 0 .707 3.535 3 2 45 0 0 .133.127A3 2 0 0 0 7 10a3 2 0 0 0-3 2 3 2 0 0 0 3 2 3 2 0 0 0 .186-.006 2 3 45 0 0-.135.127 2 3 45 0 0-.707 3.535 2 3 45 0 0 3.535-.707 2 3 45 0 0 .127-.133A2 3 0 0 0 10 17a2 3 0 0 0 2 3 2 3 0 0 0 2-3 2 3 0 0 0-.006-.186 3 2 45 0 0 .127.135 3 2 45 0 0 3.535.707 3 2 45 0 0-.707-3.535 3 2 45 0 0-.133-.127A3 2 0 0 0 17 14a3 2 0 0 0 3-2 3 2 0 0 0-3-2 3 2 0 0 0-.186.006 2 3 45 0 0 .135-.127 2 3 45 0 0 .707-3.535 2 3 45 0 0-3.535.707 2 3 45 0 0-.127.133A2 3 0 0 0 14 7a2 3 0 0 0-2-3zm.994 5.598a2 3 45 0 0 .42.988 2 3 45 0 0 .986.42A3 2 0 0 0 14 12a3 2 0 0 0 .402.994 3 2 45 0 0-.988.42 3 2 45 0 0-.42.986A2 3 0 0 0 12 14a2 3 0 0 0-.994.4 2 3 45 0 0-.42-.986 2 3 45 0 0-.986-.42A3 2 0 0 0 10 12a3 2 0 0 0-.4-.994 3 2 45 0 0 .986-.42 3 2 45 0 0 .42-.986A2 3 0 0 0 12 10a2 3 0 0 0 .994-.402zM12 11c-.554 0-1 .446-1 1s.446 1 1 1 1-.446 1-1-.446-1-1-1z" fill="currentColor" color="#5d656b"/></svg>