<svg xmlns="http://www.w3.org/2000/svg" viewBox="0 0 24 24"><path d="M8.426 4C5.982 4 4 5.954 4 8.363c0 .806.223 1.56.61 2.207a7.445 7.445 0 0 0-.157 1.514c0 4.156 3.416 7.525 7.631 7.525.478 0 .945-.044 1.398-.127a4.45 4.45 0 0 0 2.092.518C18.02 20 20 18.047 20 15.637c0-.696-.167-1.354-.46-1.938.114-.52.177-1.06.177-1.615 0-4.156-3.416-7.525-7.631-7.525-.445 0-.882.04-1.307.11A4.447 4.447 0 0 0 8.426 4zm3.61 2.79c.68 0 1.28.078 1.78.231.503.155.927.363 1.26.62.336.258.586.535.742.822.159.29.239.578.239.857 0 .27-.105.514-.313.727a1.06 1.06 0 0 1-.785.324c-.283 0-.503-.069-.656-.203-.143-.124-.29-.319-.455-.598a2.493 2.493 0 0 0-.686-.836c-.256-.192-.684-.289-1.273-.289-.547 0-.992.107-1.323.32-.318.206-.474.444-.474.723 0 .172.05.314.152.438.109.13.262.244.455.34.2.1.409.178.615.234.213.058.567.144 1.055.256.618.13 1.186.277 1.688.435.508.16.948.359 1.306.588.366.235.654.537.86.897.206.36.31.806.31 1.324 0 .62-.18 1.186-.535 1.68-.353.493-.873.883-1.549 1.16-.669.274-1.471.414-2.385.414-1.096 0-2.015-.192-2.732-.567a3.566 3.566 0 0 1-1.258-1.097c-.324-.461-.488-.92-.488-1.361 0-.276.107-.514.318-.71.21-.194.478-.292.797-.292.263 0 .488.077.672.23.176.147.326.364.447.645.136.305.284.562.44.765.15.196.363.36.638.488.277.13.651.196 1.11.196.63 0 1.148-.133 1.537-.395.38-.255.564-.563.564-.94 0-.296-.096-.529-.295-.712A2.094 2.094 0 0 0 13 13.06a16.117 16.117 0 0 0-1.398-.342c-.792-.167-1.465-.365-2-.59-.548-.23-.99-.549-1.313-.947-.328-.404-.492-.912-.492-1.508 0-.569.173-1.08.517-1.522.342-.439.84-.781 1.48-1.015.634-.231 1.389-.348 2.241-.348z" fill="currentColor" color="#5d656b"/></svg>