<svg xmlns="http://www.w3.org/2000/svg" viewBox="0 0 24 24"><path d="M4 7.033l.014.72 2.107.276c.578.503 3.791 4.221 4.281 5.176l.05 2.664c-.315.414-2.235.328-2.235.328l-.164.77s7.197-.144 7.234-.06c-.018-.097.014-.721.014-.721l-2.336-.063s-.152-1.898-.04-3.004c1.533-1.696 4.268-3.611 4.268-3.611l1.858-.317.428-.744-6.325-.039.164.772s1.73.138 1.918.289c-.025.377-2.992 2.754-2.992 2.754L9 7.853l2.273-.175.1-.543L4 7.033zm14.33 4.477l.016 4.066.693.092.961-3.932-1.67-.226zm-.133 4.515l-.113.803.848.139.127-.846-.862-.096z" fill="currentColor" color="#5d656b"/></svg>