<svg xmlns="http://www.w3.org/2000/svg" viewBox="0 0 24 24"><path d="M4 4v1h10V4H4zm0 2v1h6V6H4zm0 4v1h8v-1H4zm0 2v1h4v-1H4zm0 4v1h7v-1H4zm0 2v1h2v-1H4z" fill="currentColor" color="#5d656b"/><path d="M17 4v1h1v2h-1v1h3V7h-1V5h1V4h-3zm-6 2v1h1V6h-1zm2 0v1h1V6h-1zm2 0v1h1V6h-1zm0 4v1h1v2h-1v1h5v-1h-1v-2h1v-1h-5zm2 1h1v2h-1v-2zm-8 1v1h1v-1H9zm2 0v1h1v-1h-1zm2 0v1h1v-1h-1zm0 4v1h1v2h-1v1h7v-1h-1v-2h1v-1h-7zm2 1h1v2h-1v-2zm2 0h1v2h-1v-2zM7 18v1h1v-1H7zm2 0v1h1v-1H9zm2 0v1h1v-1h-1z" fill="currentColor" color="#3daee9"/></svg>