<svg xmlns="http://www.w3.org/2000/svg" viewBox="0 0 24 24"><path d="M16 5L4 8.418v6.164l1 .285V17.3l6 1.7v-2.424L16 18V5zm4.03.428l-.772.63A11 11 0 0 1 21 11.999a11 11 0 0 1-1.75 5.932l.783.642A12 12 0 0 0 22 11.998a12.003 12.003 0 0 0-1.97-6.57zm-5.03.9v10.344L5 13.824V9.176l10-2.848zm2.69 1.016l-.782.638A8 8 0 0 1 18 11.998a7.996 7.996 0 0 1-1.09 4.018l.781.64A9 9 0 0 0 19 11.998a8.999 8.999 0 0 0-1.31-4.654zM3 8.704l-1 .284v5.024l1 .285V8.703zm3 6.448l4 1.139v1.426l-4-1.133v-1.432z" fill="currentColor" color="#5d656b"/></svg>