<svg xmlns="http://www.w3.org/2000/svg" viewBox="0 0 24 24"><path d="M10 5.998c-3.866 0-7 2.678-7 5.982 0 3.305 2.134 5.766 6 5.766-3.222 0-4.834-3.012-4.834-5.766 0-2.753 2.612-4.986 5.834-4.986 1.456 0 2.77.473 3.793 1.227A5 3.916 0 0 0 12 7.955a5 3.916 0 0 0-5 3.918v.01a5 3.916 0 0 0 .02.316C7.212 15.43 10.259 18 14 18c3.866 0 7-2.742 7-6.123C21 8.496 18.866 6 15 6c3.222 0 4.834 3.057 4.834 5.875S17.222 16.977 14 16.977c-1.673 0-3.177-.62-4.24-1.606a5 3.916 0 0 0 2.24.418 5 3.916 0 0 0 4.992-3.809H17c0-.019-.004-.037-.004-.056a5 3.916 0 0 0 .004-.051 5 3.916 0 0 0-.031-.4C16.666 8.407 13.665 5.998 10 5.998z" fill="currentColor" color="#5d656b"/></svg>