<svg xmlns="http://www.w3.org/2000/svg" viewBox="0 0 24 24"><path d="M12 4a8 8 0 0 0-8 8c0 2.028.757 3.871 2 5.281.208.267.499.505.719.719A7.952 7.952 0 0 0 12 20a8 8 0 0 0 8-8 7.952 7.952 0 0 0-2-5.281c-.111-.126-.225-.256-.344-.375L17.281 6A7.952 7.952 0 0 0 12 4zm4.95 3.05a7 7 0 0 1 1.587 2.466c.001.002.003.002.004.005l.02.06c.283.684.357 1.382.423 2.095.005.108.014.214.014.324v.043c-.068 3.545-2.593 6.18-5.953 6.871-.128.02-.256.04-.387.053-.136.01-.272.017-.408.02-.084.002-.166.013-.25.013-.015 0-.03-.004-.045-.004-.822.013-1.597-.193-2.357-.432-.046-.017-.092-.032-.137-.05a7.005 7.005 0 0 1-.504-.221 7 7 0 0 1-1.906-1.344l9.898-9.898z" fill="currentColor" color="#5d656b"/></svg>