<svg xmlns="http://www.w3.org/2000/svg" viewBox="0 0 24 24"><path d="M2 4v16h10v-1H3v-.586l.463-.463 6.267-6.267 1.454 1.45.814.815H12l.816-.814 1.454-1.451L15.586 13H17l-2.023-2.023 5.752-5.754L20.95 5H21v6h1V4H2zm1 1h.049l.222.223 5.752 5.754L3 17V5zm1.463 0h15.074L12 12.537 4.463 5z" fill="currentColor" color="#5d656b"/><path d="M20 12l-.996.994L19 12.99l-5 4.998.008.008L14.004 19H14v1h2l.006-.006.004-.004.01.002-.006-.006L17 19l4-3.996-.705-.71-4.99 4.987-.594-.592 4.992-4.988.592.594.705.703 1-1L20 12z" fill="currentColor" color="#f67400"/></svg>