<svg width="24" height="24" version="1.1" xmlns="http://www.w3.org/2000/svg">
 <defs>
  <style id="current-color-scheme" type="text/css"/>
 </defs>
 <g transform="translate(1,-1)" fill="currentColor">
  <path d="m3 5v3l-2 3v10h20v-10l-2-3v-3zm1 1h14v4.799l-7 4.04-7-4.039zm1 1v0.986l-0.014 0.014h12.028l-0.014-0.014v-0.986zm0 2v1h7v-1zm-3 3h2.078l6.922 3.996 6.922-3.996h2.078v8h-18z" color="#5d656b"/>
  <path d="m13 14c-0.554 0-1 0.446-1 1v5c0 0.554 0.446 1 1 1h5c0.554 0 1-0.446 1-1v-5c0-0.554-0.446-1-1-1zm0 1h1v1h1v1h1v-1h1v-1h1v5h-1v-3h-1v1h-1v-1h-1v3h-1z" color="#5d656b"/>
 </g>
</svg>
