<svg xmlns="http://www.w3.org/2000/svg" viewBox="0 0 24 24"><path d="M13.902 4l-9.168 9.168a3.99 3.99 0 0 0 0 5.656 3.99 3.99 0 0 0 5.657 0l8.46-8.46.708-.708a2.993 2.993 0 0 0 0-4.242 2.993 2.993 0 0 0-4.243 0l-.707.707-8.46 8.461a1.995 1.995 0 0 0 0 2.828 1.995 1.995 0 0 0 2.828 0l8.46-8.46-.707-.708-7.753 7.754-.707.707a.998.998 0 0 1-1.415 0 .998.998 0 0 1 0-1.414l8.461-8.46.707-.708a1.995 1.995 0 0 1 2.829 0 1.995 1.995 0 0 1 0 2.828l-9.168 9.168a2.993 2.993 0 0 1-4.243 0 2.993 2.993 0 0 1 0-4.242l9.168-9.168L13.902 4z" fill="currentColor" color="#5d656b"/></svg>