<svg xmlns="http://www.w3.org/2000/svg" viewBox="0 0 24 24"><path d="M3 4v16h5v-2a1 1 0 0 0-1 1H6V5h1a1 1 0 0 0 2 0h8a1 1 0 0 0 2 0h1v7h1V4H3zm17 8a7 7 0 0 0-14 0 6.983 6.983 0 0 0 2 4.867v-1.58A5.982 5.982 0 0 1 7 12a6 6 0 1 1 12 0h1zM4 5h1v14H4V5zm14 7v1h-1.023A2.97 2.97 0 0 0 14 15.977V16c0 1.108-.892 2-2 2H9v1h3.023A2.97 2.97 0 0 0 15 16.023V16c0-1.108.892-2 2-2h1v1l2-1.5-2-1.5zm-9 1v1h3c.399 0 .767.119 1.078.318.076-.337.21-.649.389-.931A2.95 2.95 0 0 0 12.023 13H9zm9 4v1h-1c-.399 0-.767-.119-1.078-.318-.076.337-.21.649-.389.931a2.95 2.95 0 0 0 1.444.387H18v1l2-1.5-2-1.5z" fill="currentColor" color="#5d656b"/></svg>