<svg xmlns="http://www.w3.org/2000/svg" viewBox="0 0 24 24"><path d="M5.5 4a1.5 1.5 0 1 0 0 3 1.5 1.5 0 0 0 0-3zM8 5v1h1V5H8zm2 0v1h10V5H10zm0 2v1h3V7h-3zm-4.5 3a1.5 1.5 0 1 0 0 3 1.5 1.5 0 0 0 0-3zM8 11v1h1v-1H8zm10 1v1h-1.023A2.97 2.97 0 0 0 14 15.977V16c0 1.108-.892 2-2 2H9v1h3.023A2.97 2.97 0 0 0 15 16.023V16c0-1.108.892-2 2-2h1v1l2-1.5-2-1.5zm-9 1v1h3c.399 0 .767.119 1.078.318.076-.337.21-.649.389-.931A2.95 2.95 0 0 0 12.023 13H9zm-3.5 3a1.5 1.5 0 1 0 0 3 1.5 1.5 0 0 0 0-3zM18 17v1h-1c-.399 0-.767-.119-1.078-.318-.076.337-.21.649-.389.931a2.95 2.95 0 0 0 1.444.387H18v1l2-1.5-2-1.5z" fill="currentColor" color="#5d656b"/></svg>