<svg xmlns="http://www.w3.org/2000/svg" viewBox="0 0 24 24"><path d="M2 3a10 15 0 0 0 8 14.68v-1.043A9 14 0 0 1 3 3H2zm19 0a9 14 0 0 1-7 13.633v1.062A10 15 0 0 0 22 3h-1zM2 16v3h3v-1h1v-1H5v-1H2zm17 0v1h-1v1h1v1h3v-3h-3zM3 17h1v1H3v-1zm4 0v1h1v-1H7zm9 0v1h1v-1h-1zm4 0h1v1h-1v-1z" fill="currentColor" color="#5d656b"/><path d="M12 15a2.5 2.5 0 0 0-2.5 2.5A2.5 2.5 0 0 0 12 20a2.5 2.5 0 0 0 2.5-2.5A2.5 2.5 0 0 0 12 15zm0 1a1.5 1.5 0 0 1 1.5 1.5A1.5 1.5 0 0 1 12 19a1.5 1.5 0 0 1-1.5-1.5A1.5 1.5 0 0 1 12 16z" fill="currentColor" color="#3daee9"/></svg>