<svg xmlns="http://www.w3.org/2000/svg" viewBox="0 0 24 24"><path d="M10.6 4l-.707.707L12.186 7H9v1h3.186l-2.293 2.293.707.707 3.293-3.293.207-.207-.207-.207L10.6 4zM7.5 7a.499.499 0 1 0 0 1 .499.499 0 1 0 0-1zm-3 2a.499.499 0 1 0 0 1 .499.499 0 1 0 0-1zm11.55 0L10 15.05 14.95 20 21 13.95 16.05 9zm0 1.414l3.536 3.535-4.777 4.778-3.536-3.536 4.778-4.777zM3.5 12a.499.499 0 1 0 0 1 .499.499 0 1 0 0-1zm1 3a.499.499 0 1 0 0 1 .499.499 0 1 0 0-1zm3 2a.499.499 0 1 0 0 1 .499.499 0 1 0 0-1z" fill="currentColor" color="#5d656b"/></svg>