<svg xmlns="http://www.w3.org/2000/svg" viewBox="0 0 24 24"><path d="M16 5.5A10.5 10.5 0 0 0 5.5 16h1A9.5 9.5 0 0 1 16 6.5v-1zm1.5 9.5a2.5 2.5 0 0 0-2.5 2.5 2.5 2.5 0 0 0 .416 1.377l.732-.732A1.5 1.5 0 0 1 16 17.5a1.5 1.5 0 0 1 1.5-1.5 1.5 1.5 0 0 1 .645.148l.732-.732A2.5 2.5 0 0 0 17.5 15zm2.084 1.123l-.732.732A1.5 1.5 0 0 1 19 17.5a1.5 1.5 0 0 1-1.5 1.5 1.5 1.5 0 0 1-.645-.148l-.732.732A2.5 2.5 0 0 0 17.5 20a2.5 2.5 0 0 0 2.5-2.5 2.5 2.5 0 0 0-.416-1.377z" fill="currentColor" color="#5d656b"/><path d="M16 4v4h4V4h-4zm1 1h2v2h-2V5zM4 16v4h4v-4H4zm1 1h2v2H5v-2z" fill="currentColor" color="#3daee9"/></svg>