<svg xmlns="http://www.w3.org/2000/svg" viewBox="0 0 24 24"><defs id="defs3051"><style type="text/css" id="current-color-scheme">.ColorScheme-Text{color:#5d656b}</style></defs><path d="M5 4v14H4v1h1v1h1v-1h14v-1H6v-1h3v-.008l.008.008 2-2H12.6l2 2H20v-1h-4.986l-2-2h-2.42l-2 2H6v-4h5v-.008l.008.008.996-.996L12 11l-.703-.703-.703.703H6V4H5zm7 7h2v-1h-1V9h-1v2zm0-6v2h1V6h1V5h-2zm4 0v1h1v1h1V5h-2zm-1 1.594l-.707.707-.996.996.707.707.996-.996.996.996.707-.707L15 6.594zM17 9v1h-1v1h2V9h-1zm3 0l-1 1h1V9z" class="ColorScheme-Text" fill="currentColor"/><path d="M15 8l-1.996 2H14v1h-1.994l-.998 1H6v4h2.6l2-2h2.408L15 15.992 20 16v-6h-2v1h-2v-1h1l-2-2zm-4 7l-2 2H6v1h14v-1h-5.4l-2-2H11z" class="ColorScheme-Text" fill="currentColor" fill-opacity=".5"/></svg>