<svg xmlns="http://www.w3.org/2000/svg" viewBox="0 0 24 24"><path d="M11 4.068c-3.956.49-7 3.84-7 7.932a7.976 7.976 0 0 0 7 7.932v-1.01C7.6 18.438 5 15.537 5 12s2.6-6.438 6-6.922v-1.01zm2 0v1.01c3.4.484 6 3.385 6 6.922s-2.6 6.438-6 6.922v1.01c3.956-.49 7-3.84 7-7.932a7.976 7.976 0 0 0-7-7.932zM12 6c-3.324 0-6 2.676-6 6s2.676 6 6 6 6-2.676 6-6c0-.882-.192-1.716-.531-2.469l-.782.781c.19.53.313 1.092.313 1.688 0 2.77-2.23 5-5 5s-5-2.23-5-5 2.23-5 5-5a4.97 4.97 0 0 1 3.99 2.01l.723-.723A5.978 5.978 0 0 0 12 6zm0 2a3.986 3.986 0 0 0-2.83 1.17l.707.707A2.99 2.99 0 0 1 12 9c1.662 0 3 1.338 3 3s-1.338 3-3 3-3-1.338-3-3c0-.302.056-.587.139-.861l-.782-.782A3.99 3.99 0 0 0 12 16c2.216 0 4-1.784 4-4s-1.784-4-4-4z" fill="currentColor" color="#5d656b"/></svg>