<svg xmlns="http://www.w3.org/2000/svg" viewBox="0 0 24 24"><path d="M5 4v14H4v1h1v1h1v-1h14v-1h-.293l-.748-.748-.828-.828-2-2-.004.004-.006-.004-2.123 2.123-1.295-1.295-.828-.828-2-2H6V11h3.875l2-2 .828-.828 1.295-1.295L16.121 9l.006-.004.004.004 2-2 .828-.828L20 5.13l-.707-.707-1.041 1.04-.828.829-1.297 1.297L14 5.465l-.002.002-.002-.002-1.527 1.527H6V4H5zm1 3h6.46l-.464.465-.828.828L9.461 10H6V7zm0 6.424h3.46l1.708 1.707.828.828.465.465H6v-3zm10.127 2.41l1.297 1.297.828.828.041.041H6v-1.568h6.469l1.527 1.527.002-.002.002.002 2.127-2.125z" fill="currentColor" color="#5d656b"/></svg>