<svg xmlns="http://www.w3.org/2000/svg" viewBox="0 0 24 24"><path d="M4 4v14H3v1h1v1h1v-1h14v-1h-3V9h-4v9h-2V5h1V4H6v14H5V4H4zm8 0v1h1v3h1V4h-2zm4.5 0c-.831 0-1.5.669-1.5 1.5v1c0 .831.669 1.5 1.5 1.5S18 7.331 18 6.5v-1c0-.831-.669-1.5-1.5-1.5zm4 0c-.831 0-1.5.669-1.5 1.5v1c0 .831.669 1.5 1.5 1.5S22 7.331 22 6.5v-1c0-.831-.669-1.5-1.5-1.5zM7 5h2v13H7V5zm9.5 0c.277 0 .5.223.5.5v1a.499.499 0 1 1-1 0v-1c0-.277.223-.5.5-.5zm4 0c.277 0 .5.223.5.5v1a.499.499 0 1 1-1 0v-1c0-.277.223-.5.5-.5zM13 10h2v8h-2v-8z" fill="currentColor" color="#5d656b"/></svg>