<svg xmlns="http://www.w3.org/2000/svg" viewBox="0 0 24 24"><path d="M4 4v14H3v1h1v1h1v-1h14v-1H5v-1h3v-.008l.008.008 2-2H11.6l2 2H19v-1h-4.986l-2-2h-2.42l-2 2H5V9h2.588l1.707 1.707.828.828 2 2 .002-.002.002.002 2.127-2.125 1.297 1.297.828.828 1.04 1.041.708-.707-1.041-1.04-.828-.829-2-2-.004.004-.006-.004-2.123 2.123-1.295-1.295-.828-.828-2-2H6v-.008H5V7h7V6H5V4H4zm8 0v1h1v3h1V4h-2zm4.5 0c-.831 0-1.5.669-1.5 1.5v1c0 .831.669 1.5 1.5 1.5S18 7.331 18 6.5v-1c0-.831-.669-1.5-1.5-1.5zm4 0c-.831 0-1.5.669-1.5 1.5v1c0 .831.669 1.5 1.5 1.5S22 7.331 22 6.5v-1c0-.831-.669-1.5-1.5-1.5zm-4 1c.277 0 .5.223.5.5v1a.499.499 0 1 1-1 0v-1c0-.277.223-.5.5-.5zm4 0c.277 0 .5.223.5.5v1a.499.499 0 1 1-1 0v-1c0-.277.223-.5.5-.5z" fill="currentColor" color="#5d656b"/></svg>