<svg xmlns="http://www.w3.org/2000/svg" viewBox="0 0 24 24"><defs id="defs3051"><style type="text/css" id="current-color-scheme">.ColorScheme-Text{color:#5d656b}</style></defs><path d="M5 4v14H4v1h1v1h1v-1h14v-1H6v-1h3v-.008l.008.008 2-2H12.6l2 2H20v-1h-4.986l-2-2h-2.42l-2 2H6V9h2.588l1.707 1.707.828.828 2 2 .002-.002.002.002 2.127-2.125 1.297 1.297.828.828 1.04 1.041.708-.707-1.041-1.04-.828-.829-2-2-.004.004-.006-.004-2.123 2.123-1.295-1.295-.828-.828-2-2H7v-.008H6V7h7V6H6V4H5zm8 0v1h1v3h1V4h-2zm4.5 0c-.831 0-1.5.669-1.5 1.5v1c0 .831.669 1.5 1.5 1.5S19 7.331 19 6.5v-1c0-.831-.669-1.5-1.5-1.5zm4 0c-.831 0-1.5.669-1.5 1.5v1c0 .831.669 1.5 1.5 1.5S23 7.331 23 6.5v-1c0-.831-.669-1.5-1.5-1.5zm-4 1c.277 0 .5.223.5.5v1a.499.499 0 1 1-1 0v-1c0-.277.223-.5.5-.5zm4 0c.277 0 .5.223.5.5v1a.499.499 0 1 1-1 0v-1c0-.277.223-.5.5-.5z" class="ColorScheme-Text" fill="currentColor"/><path d="M6.008 7v1H9l4 4V7H6.008zM6 9v7h2.594l2-2H11l2-.008.008.008h.006l1.992 1.992 1.996.006L18 15l1.021-1.021-.001-.002-.6.6-1.041-1.042-.828-.828-1.297-1.297-2.127 2.125-.002-.002-.002.002-2-2-.828-.828L8.588 9H6zm5 6l-2 2H6v1h14v-1h-5.4l-2-2H11z" class="ColorScheme-Text" fill="currentColor" fill-opacity=".5"/></svg>