<svg xmlns="http://www.w3.org/2000/svg" viewBox="0 0 24 24"><path d="M10.957 3.002c-.341 0-.664.128-.902.33a2.073 2.073 0 0 0-.53.738c-.254.554-.377 1.206-.505 1.83-.13.625-.262 1.223-.438 1.606a1.16 1.16 0 0 1-.266.394.371.371 0 0 1-.28.1.359.359 0 0 1-.278-.102 1.213 1.213 0 0 1-.272-.41c-.177-.397-.31-1.011-.44-1.646-.128-.635-.25-1.287-.507-1.838-.128-.275-.295-.535-.543-.729a1.33 1.33 0 0 0-.922-.271c-.653.054-1.12.545-1.426 1.094-.305.548-.498 1.206-.638 1.85L3 6.001h1.002c.126-.53.29-1.047.492-1.41.224-.402.438-.572.656-.59.13-.01.182.01.256.068.074.059.168.178.254.364.173.372.305.979.434 1.613s.255 1.295.508 1.86c.126.281.287.546.525.753a1.392 1.392 0 0 0 1.809.012c.238-.202.402-.463.529-.74.254-.554.377-1.202.506-1.827.128-.624.261-1.226.437-1.609.088-.192.184-.321.268-.392a.372.372 0 0 1 .281-.102c.132 0 .195.03.277.1.082.07.176.2.262.392.172.383.299.984.424 1.61.125.625.25 1.274.508 1.83.129.278.296.54.539.742.243.201.567.324.912.324.345 0 .672-.124.914-.326.242-.203.407-.464.533-.742.253-.557.37-1.206.492-1.83.122-.625.247-1.226.42-1.606.087-.19.183-.32.268-.39a.398.398 0 0 1 .297-.104c.284 0 .482.154.707.539.212.362.378.904.494 1.461H19l-.016-.098c-.128-.656-.313-1.324-.636-1.877-.323-.552-.855-1.025-1.545-1.025-.345 0-.672.126-.914.328-.243.202-.407.464-.534.742-.253.557-.37 1.208-.492 1.832-.121.625-.247 1.223-.42 1.604-.086.19-.182.32-.267.39a.397.397 0 0 1-.297.102.407.407 0 0 1-.3-.104 1.133 1.133 0 0 1-.272-.392c-.177-.381-.307-.978-.432-1.602-.125-.624-.245-1.273-.494-1.828-.125-.277-.284-.537-.522-.74a1.403 1.403 0 0 0-.902-.332zM8 11c-1.167 0-2.443.538-3.473 1.053-.753.376-1.25.682-1.527.857v1.192l.277-.186s.725-.484 1.696-.969C5.943 12.462 7.167 12 8 12c.333 0 .742.182 1.2.525.457.343.946.829 1.446 1.329s1.01 1.014 1.553 1.421c.543.407 1.134.725 1.801.725 1.167 0 2.443-.538 3.473-1.053.752-.376 1.25-.681 1.527-.857v-1.192l-.277.186s-.725.484-1.696.969c-.97.485-2.194.947-3.027.947-.333 0-.742-.18-1.2-.523-.457-.343-.946-.83-1.446-1.33-.5-.5-1.01-1.013-1.553-1.42C9.258 11.32 8.667 11 8 11zm-5 7v1h16v-1H3z" fill="currentColor" color="#5d656b"/></svg>