<svg xmlns="http://www.w3.org/2000/svg" xmlns:xlink="http://www.w3.org/1999/xlink" viewBox="0 0 24 24">a<defs><linearGradient gradientUnits="userSpaceOnUse" y2="535.791" x2="433.714" y1="543.791" x1="425.714" id="b" xlink:href="#a" gradientTransform="matrix(1.5 0 0 1.5 -632.571 -797.686)"/><linearGradient id="a"><stop offset="0" stop-color="#1d99f3"/><stop offset="1" stop-color="#cae7fc"/></linearGradient></defs><path d="M4 5v14h16V5H4zm7.941 1A6 6 0 0 1 18 11.922V12a6 6 0 0 1-5.98 6A6 6 0 0 1 6 12.04 6 6 0 0 1 11.941 6z" fill="currentColor" color="#5d656b"/><path d="M18 12a6 6 0 0 1-5.98 6A6 6 0 0 1 6 12.04 6 6 0 0 1 11.941 6 6 6 0 0 1 18 11.921" fill="url(#b)" stroke-width="2" stroke-linecap="square"/></svg>