<svg xmlns="http://www.w3.org/2000/svg" viewBox="0 0 24 24"><path d="M4 4v16h16V4H4zm1 1h14v14H5V5zm2.5 1C6.669 6 6 6.669 6 7.5S6.669 9 7.5 9 9 8.331 9 7.5 8.331 6 7.5 6zm9 0c-.831 0-1.5.669-1.5 1.5S15.669 9 16.5 9 18 8.331 18 7.5 17.331 6 16.5 6zM12 10.5c-.831 0-1.5.669-1.5 1.5s.669 1.5 1.5 1.5 1.5-.669 1.5-1.5-.669-1.5-1.5-1.5zM7.5 15c-.831 0-1.5.669-1.5 1.5S6.669 18 7.5 18 9 17.331 9 16.5 8.331 15 7.5 15zm9 0c-.831 0-1.5.669-1.5 1.5s.669 1.5 1.5 1.5 1.5-.669 1.5-1.5-.669-1.5-1.5-1.5z" fill="currentColor" color="#5d656b"/></svg>