<svg xmlns="http://www.w3.org/2000/svg" viewBox="0 0 24 24"><path d="M12 4a8.008 8.008 0 0 0-2 .266V5.31a7 7 0 0 0-1.316.544l-.008-.007-.733-.733a8 8 0 0 0-2.828 2.828l.522.522.218.219A7 7 0 0 0 5.31 10H4.26A8 8 0 0 0 4 12c.004.675.093 1.347.266 2H5.31a7 7 0 0 0 .544 1.316l-.218.22-.522.52a8 8 0 0 0 2.828 2.829l.522-.522.219-.218A7 7 0 0 0 10 18.69v1.049a8 8 0 0 0 2 .26 8.001 8.001 0 0 0 2-.26v-1.049a7 7 0 0 0 1.316-.546l.22.218.52.522a8 8 0 0 0 2.829-2.828l-.522-.522-.218-.219A7 7 0 0 0 18.689 14h1.045A8.008 8.008 0 0 0 20 12a8.001 8.001 0 0 0-.26-2h-1.049a7 7 0 0 0-.546-1.316l.218-.22.522-.52a8 8 0 0 0-2.828-2.829l-.733.733-.008.007A7 7 0 0 0 14 5.311V4.266A8.008 8.008 0 0 0 12 4zm0 1c.335.001.67.027 1 .076v1.01a6 6 0 0 1 2.47 1.03l.065-.065.65-.65.003-.003c.537.401 1.013.876 1.416 1.413l-.004.003-.65.65-.063.063A6 6 0 0 1 17.91 11h1.016c.048.331.074.665.074 1-.001.335-.027.67-.076 1h-1.01a6 6 0 0 1-1.03 2.47l.065.065.65.65.003.003a6.995 6.995 0 0 1-1.413 1.416l-.003-.004-.65-.65-.063-.063A6 6 0 0 1 13 17.91v1.016A6.993 6.993 0 0 1 12 19c-.335 0-.669-.026-1-.074V17.91a6 6 0 0 1-2.473-1.023l-.062.062-.65.65-.004.005a6.995 6.995 0 0 1-1.413-1.416l.002-.002.65-.65.065-.065A6 6 0 0 1 6.085 13H5.077A7.023 7.023 0 0 1 5 12c0-.335.026-.669.074-1H6.09a6 6 0 0 1 1.023-2.473l-.062-.062-.65-.65-.005-.004a6.995 6.995 0 0 1 1.417-1.413l.001.002.65.65.065.065A6 6 0 0 1 11 6.085V5.077c.33-.049.665-.075 1-.076zm-2 4v6l5-3-5-3z" fill="currentColor" color="#5d656b"/></svg>