<svg xmlns="http://www.w3.org/2000/svg" viewBox="0 0 24 24"><path d="M12 4a8.008 8.008 0 0 0-2 .266V5.31a7 7 0 0 0-1.316.544l-.008-.007-.733-.733a8 8 0 0 0-2.828 2.828l.522.522.218.219A7 7 0 0 0 5.31 10H4.26A8 8 0 0 0 4 12c.004.675.093 1.347.266 2H5.31a7 7 0 0 0 .544 1.316l-.218.22-.522.52a8 8 0 0 0 2.828 2.829l.522-.522.219-.218A7 7 0 0 0 10 18.69v1.049a8 8 0 0 0 2 .26 8.013 8.013 0 0 0 1-.07v-1.006c-.33.049-.665.075-1 .076-.335 0-.669-.026-1-.074V17.91a6 6 0 0 1-2.473-1.023l-.062.062-.65.65-.004.005a6.995 6.995 0 0 1-1.413-1.416l.002-.002.65-.65.065-.065A6 6 0 0 1 6.085 13H5.077A7.023 7.023 0 0 1 5 12c0-.335.026-.669.074-1H6.09a6 6 0 0 1 1.023-2.473l-.062-.062-.65-.65-.005-.004a6.995 6.995 0 0 1 1.417-1.413l.001.002.65.65.065.065A6 6 0 0 1 11 6.085V5.077c.33-.049.665-.075 1-.076.335 0 .669.026 1 .074V6.09a6 6 0 0 1 2.473 1.023l.062-.062.65-.65.004-.005a6.995 6.995 0 0 1 1.413 1.417l-.002.001-.65.65-.065.065A6 6 0 0 1 17.915 11H18.923c.049.33.075.665.076 1 0 .335-.026.669-.074 1H17.91a6 6 0 0 1-.271 1H19.74A8 8 0 0 0 20 12a8.008 8.008 0 0 0-.266-2H18.69a7 7 0 0 0-.545-1.316l.007-.008.733-.733a8 8 0 0 0-2.828-2.828l-.729.729-.012.011A7 7 0 0 0 14 5.31V4.26A8 8 0 0 0 12 4zm-2 5v6l5-3-5-3zm5 6v1h5v-1h-5zm0 2v1h5v-1h-5zm0 2v1h5v-1h-5z" fill="currentColor" color="#5d656b"/></svg>