<svg xmlns="http://www.w3.org/2000/svg" viewBox="0 0 24 24"><path d="M17 5v.998a11.56 11 0 0 0-.113 0V6A11.56 11 0 0 0 5.5 16h1.047a10.509 10 0 0 1 10.35-9A10.509 10 0 0 1 17 7v1h3V5h-3zm1 1h1v1h-1V6z" fill="currentColor" color="#5d656b"/><path d="M5.98 4A2 2 0 0 0 4 6.014a2 2 0 0 0 1.5 1.922V10h1V7.934A2 2 0 0 0 8 6v-.025A2 2 0 0 0 5.98 4zm.01 1A1 1 0 0 1 7 5.986V6a1 1 0 0 1-.996 1A1 1 0 0 1 5 6.006 1 1 0 0 1 5.99 5zm-.49 6v1h1v-1h-1zM4 16v4h4v-4H4zm1 1h2v2H5v-2z" fill="currentColor" color="#3daee9"/></svg>