<svg xmlns="http://www.w3.org/2000/svg" viewBox="0 0 24 24"><path d="M10.6 4.05l-.707.708 2.293 2.293H9v1h3.186l-2.293 2.293.707.707 3.293-3.293.207-.207-.207-.207L10.6 4.05zm-3.1 3a.499.499 0 1 0 0 1 .499.499 0 1 0 0-1zm-3 2a.499.499 0 1 0 0 1 .499.499 0 1 0 0-1zm-1 3a.499.499 0 1 0 0 1 .499.499 0 1 0 0-1zm1 3a.499.499 0 1 0 0 1 .499.499 0 1 0 0-1zm3 2a.499.499 0 1 0 0 1 .499.499 0 1 0 0-1z" fill="currentColor" color="#5d656b"/><path d="M15 11a4 4 0 0 0-4 4 4 4 0 0 0 4 4 4 4 0 0 0 4-4 4 4 0 0 0-4-4zm0 1a3 3 0 0 1 3 3 3 3 0 0 1-3 3 3 3 0 0 1-3-3 3 3 0 0 1 3-3z" fill="currentColor" color="#3daee9"/></svg>