<svg xmlns="http://www.w3.org/2000/svg" viewBox="0 0 24 24"><path d="M4 4v3h1v1h1V7h1V6h1V5H7V4H4zm13 0v1h-1v1h1v1h1v1h1V7h1V4h-3zM5 5h1v1H5V5zm5 0v1h1V5h-1zm3 0v1h1V5h-1zm5 0h1v1h-1V5zM5 10v1h1v-1H5zm13 0v1h1v-1h-1zM5 13v1h1v-1H5zm13 0v1h1v-1h-1zM5 16v1H4v3h3v-1h1v-1H7v-1H6v-1H5zm13 0v1h-1v1h-1v1h1v1h3v-3h-1v-1h-1zM5 18h1v1H5v-1zm5 0v1h1v-1h-1zm3 0v1h1v-1h-1zm5 0h1v1h-1v-1z" fill="currentColor" color="#5d656b"/><path d="M12 10a2 2 0 0 0-2 2 2 2 0 0 0 2 2 2 2 0 0 0 2-2 2 2 0 0 0-2-2zm0 1a1 1 0 0 1 1 1 1 1 0 0 1-1 1 1 1 0 0 1-1-1 1 1 0 0 1 1-1z" fill="currentColor" color="#3daee9"/></svg>