<svg xmlns="http://www.w3.org/2000/svg" viewBox="0 0 24 24"><path d="M5.5 4A1.5 1.5 0 0 0 4 5.5a1.5 1.5 0 0 0 1 1.412v10.176A1.5 1.5 0 0 0 4 18.5 1.5 1.5 0 0 0 5.5 20 1.5 1.5 0 0 0 7 18.5a1.5 1.5 0 0 0-1-1.412V13a1 1 0 0 1 1-1h10a2 2 0 0 0 2-2V6.912A1.5 1.5 0 0 0 20 5.5 1.5 1.5 0 0 0 18.5 4 1.5 1.5 0 0 0 17 5.5a1.5 1.5 0 0 0 1 1.412V10a1 1 0 0 1-1 1H7a2 2 0 0 0-1 .27V6.912A1.5 1.5 0 0 0 7 5.5 1.5 1.5 0 0 0 5.5 4zm0 1a.5.5 0 0 1 .5.5.5.5 0 0 1-.5.5.5.5 0 0 1-.5-.5.5.5 0 0 1 .5-.5zm13 0a.5.5 0 0 1 .5.5.5.5 0 0 1-.5.5.5.5 0 0 1-.5-.5.5.5 0 0 1 .5-.5zM17 15v2h-2v1h2v2h1v-2h2v-1h-2v-2h-1zM5.5 18a.5.5 0 0 1 .5.5.5.5 0 0 1-.5.5.5.5 0 0 1-.5-.5.5.5 0 0 1 .5-.5z" fill="currentColor" color="#5d656b"/></svg>