<svg xmlns="http://www.w3.org/2000/svg" viewBox="0 0 24 24"><path d="M11.5 4c-.654 0-1.202.418-1.408 1H5v12.092A1.497 1.497 0 0 0 5.5 20a1.497 1.497 0 0 0 .5-2.908V6h4.092c.15.425.483.758.908.908V14h1.092A1.497 1.497 0 0 0 15 13.5a1.497 1.497 0 0 0-2.908-.5H12V6.908A1.497 1.497 0 0 0 11.5 4zm0 1a.499.499 0 1 1 0 1 .499.499 0 1 1 0-1zm2 8a.499.499 0 1 1 0 1 .499.499 0 1 1 0-1zm3.5 1v4.293L14.707 16l-.707.707L17.293 20l.207.207.207-.207L21 16.707 20.293 16 18 18.293V14h-1zM5.5 18a.499.499 0 1 1 0 1 .499.499 0 1 1 0-1z" fill="currentColor" color="#5d656b"/></svg>