<svg xmlns="http://www.w3.org/2000/svg" viewBox="0 0 24 24"><path d="M4 4v6h3c1.108 0 2-.892 2-2 0-.81-.481-1.502-1.172-1.816C7.934 5.978 8 5.748 8 5.5 8 4.669 7.331 4 6.5 4H4zm11 0v6h3c1.108 0 2-.892 2-2V6c0-1.108-.892-2-2-2h-3zM5 5h1.5a.499.499 0 1 1 0 1H5V5zm11 0h2c.554 0 1 .446 1 1v2c0 .554-.446 1-1 1h-2V5zM5 7h2c.554 0 1 .446 1 1s-.446 1-1 1H5V7zm6 0v1h2V7h-2zm-6 6v1h2v-1H5zm4 0v1h2v-1H9zm4 0v1h2v-1h-2zm4 0v1h2v-1h-2zM6 16l-2 2 2 2v-4zm12 0v4l2-2-2-2zm-6 1c-.554 0-1 .446-1 1s.446 1 1 1 1-.446 1-1-.446-1-1-1z" fill="currentColor" color="#5d656b"/></svg>