<svg xmlns="http://www.w3.org/2000/svg" viewBox="0 0 24 24"><path d="M3 5s4.134 14.017 4.139 14c.01.007.353.002.609 0h.387c.366.003.815.01.83 0 .005.017 4.139-14 4.139-14H12L8.28 17h-.464L4.104 5H3zm11.379 0l-4.336 13.863L10 19h1.137l1.564-5h6.344l-3.518-9H14.38zm.51 2h.257l2.346 6h-4.48l1.877-6z" fill="currentColor" color="#5d656b"/><path d="M15.99 15l-.99.99L17.01 18 15 20.01l.99.99L18 18.99 20.01 21l.99-.99L18.99 18 21 15.99l-.99-.99L18 17.01 15.99 15z" fill="currentColor" color="#da4453"/></svg>