<svg xmlns="http://www.w3.org/2000/svg" viewBox="0 0 24 24"><path d="M14.01 5c-1.695-.04-2.94.896-3.772 2.191-.831 1.297-1.331 2.962-1.748 4.608-.416 1.646-.745 3.28-1.158 4.457-.206.588-.437 1.059-.67 1.348-.232.288-.419.391-.672.396H4v1h2.01c.58-.011 1.079-.331 1.431-.77.353-.438.608-1 .834-1.644.452-1.29.777-2.93 1.186-4.543.408-1.614.903-3.195 1.62-4.313.716-1.117 1.57-1.762 2.907-1.73h.008c2.713.022 3.864 1.139 4.455 2.252.389.732.328 1.05.361 1.465-1.699-.755-3.135-.952-4.144-.418-1.202.635-1.748 1.98-1.836 3.385-.088 1.405.256 2.927.955 4.146C14.486 18.05 15.597 19 17 19c1.548.015 3.006 0 3.006 0l-.012-1s-1.45.015-2.99 0H17c-.952 0-1.758-.643-2.346-1.668-.587-1.025-.899-2.395-.824-3.586.075-1.19.514-2.146 1.305-2.564.79-.419 2.097-.393 4.119.754l.71.402.036-.817s.064-1.362-.666-2.738C18.604 6.41 17.008 5.027 14.012 5h-.002z" fill="currentColor" color="#5d656b"/></svg>