<svg xmlns="http://www.w3.org/2000/svg" viewBox="0 0 24 24"><path d="M12 4c-4.432 0-8 3.568-8 8a7.982 7.982 0 0 0 10 7.74v-1.033A7.034 7.034 0 0 1 12 19c-3.878 0-7-3.122-7-7s3.122-7 7-7 7 3.122 7 7c0 .696-.105 1.366-.293 2h1.033A7.982 7.982 0 0 0 12 4zm0 2c-3.324 0-6 2.676-6 6h3c0-1.662 1.338-3 3-3V6zm0 4c-1.108 0-2 .892-2 2s.892 2 2 2 2-.892 2-2-.892-2-2-2zm0 1c.554 0 1 .446 1 1s-.446 1-1 1-1-.446-1-1 .446-1 1-1zm3 1c0 .773-.298 1.47-.775 2h3.427c.22-.626.348-1.297.348-2h-3zm-1 2.225A2.979 2.979 0 0 1 12 15v3c.703 0 1.374-.127 2-.348v-3.427zm3.5.775a2.495 2.495 0 0 0-2.5 2.5c0 1.385 1.115 2.5 2.5 2.5s2.5-1.115 2.5-2.5-1.115-2.5-2.5-2.5zm0 1c.831 0 1.5.669 1.5 1.5s-.669 1.5-1.5 1.5-1.5-.669-1.5-1.5.669-1.5 1.5-1.5zm0 1a.499.499 0 1 0 0 1 .499.499 0 1 0 0-1z" fill="currentColor" color="#5d656b"/></svg>