<svg xmlns="http://www.w3.org/2000/svg" viewBox="0 0 24 24"><path d="M4 4v16h16V9h-1v10H5V5h9V4H4zm12.5 0l-.707.707L13 7.5l.707.707L16 5.914V11h1V5.914l2.293 2.293L20 7.5l-2.793-2.793L16.5 4zm-8 2A2.495 2.495 0 0 0 6 8.5C6 9.885 7.115 11 8.5 11S11 9.885 11 8.5 9.885 6 8.5 6zm0 1c.831 0 1.5.669 1.5 1.5S9.331 10 8.5 10 7 9.331 7 8.5 7.669 7 8.5 7zm6.494 4l-3.346 3.344L10.307 13l-.006.008-.008-.008L6 17.293l.707.707 3.592-3.592.642.643.707.707.707-.707L15 12.406l2.293 2.293.707-.707L15.008 11l-.008.008-.006-.008z" fill="currentColor" color="#5d656b"/></svg>