<svg xmlns="http://www.w3.org/2000/svg" viewBox="0 0 24 24"><path d="M7 4S6 4 6 5H4v15h16V5h-2c0-1-1-1-1-1h-3s-1 0-1 1h-2c0-1-1-1-1-1H7zm0 1h3v1H7V5zm7 0h3v1h-3V5zM5 8h14v11H5V8zm5.5 2A3.492 3.492 0 0 0 7 13.5c0 1.939 1.561 3.5 3.5 3.5.54 0 1.044-.13 1.5-.346.456.217.96.346 1.5.346 1.939 0 3.5-1.561 3.5-3.5S15.439 10 13.5 10c-.54 0-1.044.13-1.5.346A3.482 3.482 0 0 0 10.5 10zm0 1c.172 0 .34.018.502.05A3.484 3.484 0 0 0 10 13.5c0 .957.384 1.819 1.002 2.45A2.495 2.495 0 0 1 8 13.5c0-1.385 1.115-2.5 2.5-2.5zm3 0c1.385 0 2.5 1.115 2.5 2.5a2.495 2.495 0 0 1-3.002 2.45A3.484 3.484 0 0 0 14 13.5c0-.957-.384-1.819-1.002-2.45.162-.032.33-.05.502-.05zm-1.5.508a2.485 2.485 0 0 1 0 3.984 2.485 2.485 0 0 1 0-3.984z" fill="currentColor" color="#5d656b"/></svg>