<svg xmlns="http://www.w3.org/2000/svg" viewBox="0 0 24 24"><path d="M4 3.998v1h10v-1H4zM17 4v1h1v2h-1v1h3V7h-1V5h1V4h-3zM4 5.998v1h6v-1H4zm7 0v1h1v-1h-1zm2 0v1h1v-1h-1zm2 0v1h1v-1h-1zm-11 4v1h8v-1H4zM15 10v1h1v2h-1v1h5v-1h-1v-2h1v-1h-5zm2 1h1v2h-1v-2zm-13 .998v1h4v-1H4zm5 0v1h1v-1H9zm2 0v1h1v-1h-1zm2 0v1h1v-1h-1zm-9 4v1h7v-1H4zM13 16v1h1v2h-1v1h7v-1h-1v-2h1v-1h-7zm2 1h1v2h-1v-2zm2 0h1v2h-1v-2zm-13 .998v1h2v-1H4zm3 0v1h1v-1H7zm2 0v1h1v-1H9zm2 0v1h1v-1h-1z" fill="currentColor" color="#5d656b"/></svg>