<svg xmlns="http://www.w3.org/2000/svg" viewBox="0 0 24 24"><defs id="defs3051"><style type="text/css" id="current-color-scheme">.ColorScheme-Text{color:#5d656b}</style></defs><path d="M4 6v12h10v-1H5V7h14v5h1V6H4zm4.5 2C7.669 8 7 8.669 7 9.5V11H6v3h5v-3h-1V9.5C10 8.669 9.331 8 8.5 8zm0 1c.277 0 .5.223.5.5V11H8V9.5c0-.277.223-.5.5-.5zM12 9v1h6V9h-6zm0 2v1h5v-1h-5zm0 2v1h4v-1h-4z" class="ColorScheme-Text" fill="currentColor"/><path d="M18.5 13l-.707.707L20.086 16H15v1h5.086l-2.293 2.293.707.707 2.793-2.793L22 16.5l-.707-.707L18.5 13z" class="ColorScheme-Text" fill="currentColor" fill-opacity=".5"/></svg>