<svg xmlns="http://www.w3.org/2000/svg" viewBox="0 0 24 24"><defs id="defs3051"><style type="text/css" id="current-color-scheme"></style></defs><path d="M4 4v16h7v-1H5V8h14v5h1V4h-2v2h-2V4h-3v2h-2V4H8v2H6V4H4zm4.5 5A2.495 2.495 0 0 0 6 11.5c0 .433.118.835.31 1.19l.76-.76A1.489 1.489 0 0 1 7 11.5c0-.83.669-1.5 1.5-1.5.15 0 .293.03.43.07l.76-.76A2.482 2.482 0 0 0 8.5 9zm2.19 1.31l-.76.76c.04.137.07.28.07.43 0 .83-.669 1.5-1.5 1.5-.15 0-.293-.03-.43-.07l-.76.76c.355.192.757.31 1.19.31 1.385 0 2.5-1.115 2.5-2.5 0-.433-.118-.835-.31-1.19zM12 14v6h8v-6h-8zm1 1h6v1h-1v2h1v1h-6v-1h1v-2h-1v-1zm3 1c-.554 0-1 .446-1 1s.446 1 1 1 1-.446 1-1-.446-1-1-1z" fill="currentColor" color="#5d656b"/></svg>