<svg xmlns="http://www.w3.org/2000/svg" viewBox="0 0 24 24"><path d="M6.111 4v.814h2.073L6 8.068v.733h3.828v-.852H7.582l2.174-3.293V4H6.11zM14 9.992v8.293l-2.293-2.293L11 16.7l3.293 3.293.207.207.207-.207L18 16.7l-.707-.707L15 18.285V9.992h-1zM8.096 10c-.784.018-1.385.155-1.823.355l.247.9c.209-.072 1.002-.325 1.466-.325h.063c.646.027.693.262.693.818v.219l-.338.054C6.838 12.25 6 12.441 6 13.643 6 14.48 6.61 15 7.494 15c.61 0 1.01-.255 1.42-.602l.127.51h.967V11.54c0-1.03-.712-1.539-1.805-1.539h-.107zm.646 2.678v1.119c-.337.228-.592.392-1.03.392-.39 0-.583-.245-.583-.591 0-.656.574-.765 1.275-.866l.338-.054z" fill="currentColor" color="#5d656b"/></svg>