<svg xmlns="http://www.w3.org/2000/svg" viewBox="0 0 24 24"><path d="M11 3a8.058 8.058 0 0 0-2.672.465c-.107.038-.215.073-.32.115l-.006.002a7.949 7.949 0 0 0-1.805 1.023c-.24.181-.471.373-.69.579l-.034.03c-.47.45-.883.958-1.233 1.51l-.045.075a7.953 7.953 0 0 0-.459.853 7.937 7.937 0 0 0-.607 1.95C3.049 10.056 3 10.522 3 11a7.975 7.975 0 0 0 5.092 7.45l.006.003c.006.003.013.004.02.006.33.128.671.233 1.023.316l.011.004c.594.14 1.21.221 1.848.221a7.99 7.99 0 0 0 2-.262v-1.037A7.003 7.003 0 0 1 11 18a7.007 7.007 0 0 1-2.406-.432c.013-.012.035-.019.039-.039.009-.04-.01-.057-.012-.12.015-.066.086-.073.1-.14-.028-.047-.093-.016-.135-.04-.04-.024-.059-.077-.053-.127.07-.03.204.07.254-.028.025-.046-.028-.158.006-.205.023-.031.152-.033.201-.04a.622.622 0 0 0 .194-.054c.043-.028.107-.11.1-.193-.005-.04-.032-.053-.061-.088-.026-.03-.035-.066-.053-.094-.031-.046-.08-.038-.094-.105.096-.019.242.078.38.039.067-.019.158-.159.188-.22a.239.239 0 0 1 .02-.073c.012-.026.037-.047.041-.06a.292.292 0 0 1 .012-.088c.024-.068.087-.089.127-.14.03-.037.045-.082.074-.12.031-.041.06-.077.08-.113.02-.122-.048-.208-.02-.315.032-.12.197-.192.313-.246.04-.019.08-.05.113-.06.08-.029.18-.013.254-.04.125-.045.14-.18.201-.295.03-.053.067-.108.073-.146.005-.035-.013-.067-.006-.107.006-.04.043-.075.054-.12a.96.96 0 0 0 .02-.207c0-.052-.025-.098-.027-.146-.01-.173.063-.193.127-.287.031-.047.045-.101.068-.135.107-.16.293-.238.28-.48-.006-.08-.055-.262-.114-.288-.034-.014-.111 0-.16-.02-.158-.058-.25-.254-.414-.267-.035-.002-.069.015-.108.014-.064 0-.16-.045-.232-.053-.046-.005-.108.014-.135 0-.042-.02-.046-.098-.08-.12-.027-.02-.078-.024-.12-.04-.065-.025-.119-.055-.194-.06-.024-.001-.051.01-.079.005-.042-.006-.076-.056-.115-.08-.048-.03-.093-.043-.113-.086.044-.143-.076-.184-.106-.267-.013-.04-.006-.085-.02-.12-.016-.05-.066-.079-.12-.12-.097-.075-.182-.144-.32-.16-.061-.008-.12.018-.194.013-.078-.005-.176-.074-.234-.14-.057-.065-.084-.122-.133-.153-.047-.03-.109-.03-.14-.06-.015-.014-.014-.036-.028-.067-.023-.048-.063-.074-.033-.133-.054-.027-.055.05-.114.04-.052-.074-.095-.11-.212-.088-.054 0-.084.078-.147.08-.051 0-.092-.057-.16-.067-.052-.007-.112.016-.148.008-.057-.011-.075-.06-.127-.094a.481.481 0 0 0-.133-.068c-.067 0-.115.143-.207.094-.045-.057.073-.086.02-.139-.041-.04-.074.017-.106.04-.037.025-.073.05-.114.065-.091.035-.149.018-.22.055-.067.035-.07.092-.108.16-.03.056-.1.138-.146.14-.056.005-.11-.079-.16-.1-.153-.067-.227.058-.354.06-.118 0-.287-.19-.281-.3.004-.068.039-.171.047-.255.006-.066.052-.105.053-.166 0-.08-.106-.144-.159-.154-.124-.023-.298.05-.441-.006-.027-.045.032-.075.047-.12.009-.024.004-.06.014-.087.015-.042.06-.076.08-.121.015-.034.018-.084.033-.127.017-.049.049-.077.053-.111a.148.148 0 0 0-.047-.127.677.677 0 0 0-.246.039c-.145.065-.118.26-.262.306-.05.017-.12.018-.174.028-.047.009-.103.034-.152.033a.363.363 0 0 1-.194-.094c-.012-.014-.027-.054-.047-.094.079-.38.193-.745.33-1.1.094-.05.174-.127.284-.134.056-.004.14.016.195.027.05.001.09.044.133.047.123.001.153-.087.254-.14.104.014.171-.02.265-.008.064.007.11.078.16.082.043.002.081-.042.122-.035.04.006.107.092.113.14.007.06-.045.116-.027.182.062.064.177.076.267.113.059-.048.01-.137 0-.207-.002-.03.004-.06 0-.088-.006-.048-.027-.091-.027-.132 0-.19.154-.279.281-.354.055-.033.099-.09.147-.113.067-.034.117-.043.173-.074.102-.057.189-.104.268-.168.037-.087.002-.2.006-.286.036-.022.067.01.105.006.061-.013.067-.1.102-.135.02-.02.075-.033.1-.052.06-.048.08-.12.132-.14.02-.008.064-.006.094-.015.04-.01.096-.058.16-.08.042-.014.138-.017.154-.033.02-.02 0-.075.006-.105.033-.151.26-.184.395-.235.094-.035.19-.1.293-.08-.02.072-.116.046-.1.133.023.12.184-.035.227-.053.081-.034.22-.055.326-.093.094-.034.262-.087.174-.194-.074-.005-.11.086-.174.114-.044.006-.035-.038-.072-.042-.036-.002-.057.034-.094.028-.037-.006-.088-.065-.094-.108-.015-.111.095-.155.14-.238-.03-.1-.169-.021-.253-.06.009-.06.07-.102.14-.114.058 0 .187-.002.221.026.02.017.002.06.033.088.035.03.075.026.12.02.016-.077-.099-.058-.086-.108.09-.06.237-.01.347-.026.064 0 .13-.056.186-.088.053-.03.125-.083.181-.033.016.055-.05.073-.08.1-.102.09-.207.195-.287.3.05.048.137.024.219.034.032.004.073.015.107.021.04.007.083.005.114.012.056.014.071.074.127.074.091 0 .092-.098.04-.16.017-.063.042-.096.02-.14-.04-.083-.193-.003-.2-.108-.006-.067.055-.063.08-.113-.012-.129.105-.139.093-.254-.006-.048-.046-.047-.08-.092-.018-.023-.026-.07-.047-.088-.07-.059-.21-.047-.219-.16-.004-.066.016-.121.006-.193-.009-.068-.054-.255-.113-.268-.075-.016-.153.112-.242.154-.049.023-.118.049-.166.04-.032-.007-.095-.053-.1-.114-.006-.07.048-.072.06-.146-.01-.044-.058-.034-.101-.067-.05-.037-.087-.118-.152-.127-.033-.005-.075.025-.108.028-.06.003-.106-.012-.156-.028.16-.056.324-.107.49-.152.031.033.042.097.08.12.026.014.07.01.1.019.098.03.18.083.287.06.037-.064-.076-.082-.033-.133.072.006.118.037.174.059.077-.057.127-.062.125-.152-.001-.055-.044-.081-.073-.12l.18-.027c.013.015.024.037.041.04.038.005.151-.05.174-.061l.017-.014a6.989 6.989 0 0 1 4.068.78c-.032.01-.065.016-.105.03a.394.394 0 0 0-.146.127c-.02.048.005.1 0 .172.038.017.062.092.127.127.024.014.056.007.078.02.038.021.068.07.06.107-.01.055-.082.04-.119.08.006.078-.054.09-.074.141.012.033.061.027.066.066-.006.043-.082.05-.066.094.072.056.147-.01.215-.02.15-.018.3.02.393-.052-.013-.072.076-.097.068-.16-.006-.048-.086-.055-.121-.088-.019-.018-.024-.06-.047-.094-.026-.04-.076-.067-.106-.105-.039-.053-.12-.129-.12-.168 0-.046.056-.057.066-.12-.013-.057-.119-.019-.127-.08a.083.083 0 0 1 .021-.045c.307.168.595.363.871.573h-.011c-.067.012-.092.096-.147.162a.503.503 0 0 1-.168.119c-.027.012-.06.011-.086.027-.037.025-.05.085-.093.114a.677.677 0 0 1-.18.08c-.038 0-.073-.036-.1-.028-.04.013-.037.092-.082.108-.088.031-.235-.08-.265.053.037.076.133.057.199.1a.52.52 0 0 1 .14.187 1.07 1.07 0 0 1-.02.226c-.04.107-.138.071-.26.069-.034-.001-.07.008-.1.005-.207-.014-.415-.088-.508.059.007.113.033.19.008.289-.019.072-.084.137-.08.2.001.031.039.063.046.107.005.023-.01.072 0 .093.034.066.126.01.186.02.059.001.127.094.127.16a.41.41 0 0 1-.072.166c-.059.089-.138.093-.221.14-.07.04-.1.106-.14.175-.045.074-.072.119-.053.226a.528.528 0 0 1-.274.248c-.037.017-.088.023-.121.047-.027.02-.042.07-.08.113-.047.053-.095.074-.12.114-.018.03-.025.091-.046.132-.029.056-.09.084-.127.141-.017.026-.028.079-.047.113-.042.077-.115.134-.107.202.007.065.083.075.088.132.004.033-.023.051-.022.086 0 .051.037.088.041.127.001.1-.036.14-.055.207-.009.033-.003.069-.011.094-.017.05-.087.096-.088.154 0 .042.043.075.047.133.002.04-.021.084-.014.121.014.073.145.157.201.213.076.076.175.133.207.213.028.068.028.158.08.209.04.037.103.06.153.1.046.036.098.066.148.105.081.064.203.191.332.182.068-.005.138-.06.215-.075a1.03 1.03 0 0 1 .26-.013c.06.006.124.042.187.039.067-.004.145-.053.22-.086.133-.057.328-.134.52-.106.147.022.141.188.243.252.117.001.211-.042.304-.02.07.018.156.125.162.18.007.058-.032.146-.04.182-.019.078-.02.17-.034.219-.01.038-.041.061-.04.1 0 .035.043.122.08.168.043.056.114.099.167.16.098.111.14.247.207.394.017.038.035.088.051.135h2.686c.053-.218.114-.432.152-.656A8.096 8.096 0 0 0 19 11a8.136 8.136 0 0 0-.2-1.758 7.984 7.984 0 0 0-.165-.642c-.012-.038-.028-.074-.041-.112a7.893 7.893 0 0 0-.127-.351 7.929 7.929 0 0 0-.18-.434l-.006-.016-.006-.011c-.024-.054-.052-.107-.078-.16-.096-.2-.2-.396-.312-.586l-.004-.008c-.058-.098-.116-.196-.178-.291a7.972 7.972 0 0 0-1.074-1.322c-.093-.092-.192-.177-.29-.264l-.003-.004a7.975 7.975 0 0 0-.897-.701A7.976 7.976 0 0 0 11 3zM8.484 4.47c-.022.044-.045.088-.091.102.012.065-.077.107-.086.158-.006.035.01.076.011.108.02.32-.243.47-.554.46-.061.06-.045.169-.078.249-.028.067-.129.138-.196.133-.05-.004-.105-.075-.105-.121 0-.058.082-.087.033-.153.007-.044.106-.07.094-.14-.013-.074-.116-.036-.207-.047-.052-.007-.112-.037-.166-.063.418-.276.87-.503 1.345-.685zm5.407.753a.196.196 0 0 0-.077.023c-.05.031-.068.079-.107.094-.054.02-.092.003-.1.053-.006.04.035.06.034.1-.02.048-.077.061-.086.12.067.11.23.012.314-.013.038-.011.091-.01.111-.04.024-.035.004-.097.022-.148.02-.056.073-.063.066-.113-.006-.05-.096-.084-.177-.076zM6.55 6c.06.016.22.191.088.248a1.325 1.325 0 0 1-.227.02c-.046-.007-.074-.072-.121-.08-.092-.017-.216.11-.28.005.017-.059.083-.06.153-.08.125-.034.279-.141.387-.113zm.254.322c.031.002.07.037.107.04.036.001.064-.02.086-.014.056.014.08.099.027.14-.043.005-.06-.02-.093-.013-.091.015-.126.193-.194.187-.064-.006-.098-.16-.033-.207.002-.04-.03-.048-.027-.088.02-.025.073-.05.127-.045zm-.301.02c.018 0 .034.006.04.013-.008.072-.065.067-.12.1a.401.401 0 0 0-.18.268c-.009.036-.101.128-.146.119-.106-.022.028-.217.052-.246.027-.033.063-.062.094-.1.03-.037.05-.087.08-.107a.394.394 0 0 1 .18-.047zm9.506.04h.002c.047.014.044.056.08.08.026.02.062.015.092.034.035.022.054.08.093.113.056.047.156.082.235.12l.052.027c.051.066.103.131.15.2 0 .008-.002.018-.001.026.006.04.034.081.053.108.051.07.124.134.181.22 0 .083.034.13.092.153.108.184.206.372.297.566a.48.48 0 0 1-.09-.011c-.066-.116-.397-.124-.426.046-.012.076.038.18-.074.194-.07.009-.143-.073-.24-.094-.04-.009-.096-.002-.127-.014-.073-.025-.064-.094-.127-.138a.529.529 0 0 0-.188-.069c-.035-.004-.07.011-.107.006a.431.431 0 0 1-.146-.058c-.037-.022-.11-.057-.12-.088-.014-.05.09-.105.094-.147.002-.031-.039-.05-.047-.1-.005-.029.012-.06.006-.08 0-.034-.067-.073-.121-.074-.048 0-.092.04-.133.041-.058 0-.154-.033-.226-.027-.045.004-.086.03-.127.033-.117.001-.211-.006-.301 0a.837.837 0 0 0-.24.053c-.031.014-.054.048-.094.068-.018.01-.043.009-.066.02-.038.017-.078.057-.114.066-.052.014-.132-.01-.226-.006-.068.004-.181.003-.182-.08 0-.123.212-.078.328-.1.044-.008.067-.048.12-.08.024-.014.056-.016.08-.033.04-.027.1-.094.107-.127.006-.03-.017-.071-.014-.093.005-.028.038-.058.074-.094.057-.056.117-.13.186-.166.047-.025.113-.023.135-.06.005-.043-.007-.07-.006-.108.029-.027.048-.048.072-.053.072-.015.143.05.227.047.036-.002.068-.027.107-.053.033-.021.068-.038.1-.054.035-.019.072-.058.115-.06.105-.007.146.11.193.173.04.053.153.143.219.18.037.02.086.022.127.04.087.04.259.17.262.255.002.042-.04.074-.034.113.066.01.138-.061.14-.127 0-.041-.042-.064-.034-.107.03-.067.12.001.16-.026-.007-.075-.11-.082-.174-.121-.034-.021-.056-.065-.091-.08-.052-.021-.109-.016-.149-.047-.038-.03-.055-.094-.092-.139-.054-.064-.173-.075-.14-.22.016-.022.053-.055.078-.047zm-8.715.202c.034 0 .064.004.078.018-.022.088-.212.066-.281.035.004-.033.056-.043.1-.047.03-.002.069-.006.103-.006zm8.268.16c-.044.014-.066.108 0 .12.03-.02.054-.044.046-.1-.017-.019-.032-.025-.046-.02zm-8.702.002a.18.18 0 0 1 .07.01.639.639 0 0 1-.234.113c-.05.016-.138.037-.146-.02-.011-.069.074-.054.12-.06.06-.007.122-.04.19-.043zm8.684.186a.157.157 0 0 0-.068.045c0 .074.009.122-.006.187.043.082.138.01.16-.047.026-.139-.022-.203-.086-.185zm.568.369c-.058-.002-.114 0-.148.03.049.08.15.106.26.126.04-.03.042-.095.06-.146-.047 0-.11-.007-.17-.01h-.002zM4.268 10.01c.163-.004.235.209.367.274.033.017.076.018.119.027.035.008.06.022.094.034.07.024.158.021.215.047.085.037.145.197.218.24.004.043-.007.1.006.133.035.046.084.037.14.068.069.037.09.131.155.16.022.001.078.01.113.02.089.026.118.13.194.107.05-.014.045-.066.052-.113.033-.036.07-.093.122-.094.083 0 .09.085.12.166.017.046.061.085.073.133.02.083.011.331-.006.38-.021.062-.104.088-.154.155-.024.032-.035.077-.053.1-.033.04-.083.05-.107.088-.014.02-.026.065-.04.093-.04.085-.094.144-.06.246.014.042.08.07.08.12 0 .058-.123.11-.133.173-.007.048.038.134.053.196.01.046.1.074.127.105.047.053.084.127.127.194.084.13.152.288.234.414.044.066.104.124.133.193.015.035.013.076.027.107.048.108.259.22.368.274.05.025.105.034.152.06.07.04.212.145.248.207.032.056.05.191.066.28.021.117.001.207.006.334.004.068.027.138.028.207 0 .024-.013.043-.014.068-.002.083.02.176.014.26-.004.045-.018.083-.014.12.004.042.024.076.027.112.002.04-.012.09-.008.121.01.085.072.15.088.227.014.061.022.188.014.262-.005.038-.027.076-.033.119-.004.033.005.068 0 .1-.006.046-.036.083-.033.126.006.09.105.164.119.254.005.03-.007.065-.006.094 0 .027.011.051.02.076A6.98 6.98 0 0 1 4 11c0-.313.027-.618.066-.92.064 0 .132-.066.202-.068zm2.716.757c.064-.03.08.093.028.101-.05.007-.076-.08-.028-.101zM14 14v4h2v1h3v-2h-4v-1h4v-2h-3v1h-1v-1h-1z" fill="currentColor" color="#5d656b"/></svg>