<svg xmlns="http://www.w3.org/2000/svg" viewBox="0 0 24 24"><path d="M4 6v12h8v-1H5V7h14v4h1V6H4zm4.5 2C7.669 8 7 8.669 7 9.5V11H6v3h5v-3h-1V9.5C10 8.669 9.331 8 8.5 8zm0 1c.277 0 .5.223.5.5V11H8V9.5c0-.277.223-.5.5-.5zM12 9v1h6V9h-6zm0 2v1h5v-1h-5zm0 2v1h4v-1h-4z" fill="currentColor" color="#5d656b"/><path d="M19 12l-.996.994L18 12.99l-5 4.998.006.006L13 18l.008.008-.004.992H13v1h2l.006-.006.004-.004.01.002-.006-.006L16 19l4-3.996-.01.006.01-.012.998-.998.002-.002L19 12z" fill="currentColor" color="#27ae60"/></svg>