<svg xmlns="http://www.w3.org/2000/svg" viewBox="0 0 24 24"><path d="M19.293 4L4 19.293l.707.707L20 4.707 19.293 4zM12 7a10 10 0 0 0-8.713 5.12c.18.3.434.549.74.72A9 9 0 0 1 12 8a4 4 0 0 0-4 4 4 4 0 0 0 .357 1.643l.774-.774A3 3 0 0 1 9 12a3 3 0 0 1 3-3 3 3 0 0 1 .87.13l.77-.77a4 4 0 0 0-1.296-.342 9 9 0 0 1 1.453.185l.844-.844A10 10 0 0 0 12 7zm5.404 1.596l-.728.728a9 9 0 0 1 3.299 3.514c.308-.173.565-.423.744-.727a10 10 0 0 0-3.315-3.515zM12 10a2 2 0 0 0-2 2l2-2zm3.643.357l-.774.774A3 3 0 0 1 15 12a3 3 0 0 1-3 3 3 3 0 0 1-.87-.13l-.773.773A4 4 0 0 0 12 16a4 4 0 0 0 4-4 4 4 0 0 0-.357-1.643zM14 12l-2 2a2 2 0 0 0 2-2zM2 14c-.667 6-.333 3 0 0z" fill="currentColor" color="#5d656b"/></svg>