<svg xmlns="http://www.w3.org/2000/svg" viewBox="0 0 24 24"><path d="M12 4c-1.442 0-2.79.383-3.955 1.045l.738.738.002-.002 2.78 2.778.706-.707-2.482-2.48A6.945 6.945 0 0 1 12 5c3.878 0 7 3.122 7 7a6.985 6.985 0 0 1-.783 3.217l.738.738A7.981 7.981 0 0 0 20 12c0-4.432-3.568-8-8-8zM5.045 8.045A7.981 7.981 0 0 0 4 12c0 4.432 3.568 8 8 8 1.442 0 2.79-.383 3.955-1.045l-.684-.684.002-.001-2.828-2.829-.707.707 2.479 2.479A6.944 6.944 0 0 1 12 19c-3.878 0-7-3.122-7-7 0-1.162.286-2.254.783-3.217l-.738-.738z" fill="currentColor" color="#5d656b"/></svg>