<svg xmlns="http://www.w3.org/2000/svg" viewBox="0 0 24 24"><path d="M4.707 4a.99.99 0 0 1 .473 1.7.736.736 0 0 1-.164-.596.99.99 0 0 0 .484 1.855c.55 0 .994-.444.994-.994A1.975 1.975 0 0 0 4.707 4zm4 0a.99.99 0 0 1 .473 1.7.736.736 0 0 1-.164-.596.99.99 0 0 0 .484 1.855c.55 0 .994-.444.994-.994A1.975 1.975 0 0 0 8.707 4zm5 0a.99.99 0 0 1 .473 1.7.736.736 0 0 1-.164-.596.99.99 0 0 0 .484 1.855c.55 0 .994-.444.994-.994A1.975 1.975 0 0 0 13.707 4zm4 0a.99.99 0 0 1 .473 1.7.736.736 0 0 1-.164-.596.99.99 0 0 0 .484 1.855c.55 0 .994-.444.994-.994A1.975 1.975 0 0 0 17.707 4zM5 8v2H4v10h16V10h-1V8h-1v2h-3V8h-1v2h-4V8H9v2H6V8H5zm0 3h14v4h-.545A2.45 2.45 0 0 1 16 12.545V12h-1v.545A2.45 2.45 0 0 1 12.545 15h-1.09A2.45 2.45 0 0 1 9 12.545V12H8v.545A2.45 2.45 0 0 1 5.545 15H5v-4zm3.5 3.658A2.989 2.989 0 0 0 11 16h2a2.989 2.989 0 0 0 2.5-1.342A2.989 2.989 0 0 0 18 16h1v1H5v-1h1a2.989 2.989 0 0 0 2.5-1.342zM5 18h14v1H5v-1z" fill="currentColor" color="#5d656b"/></svg>