<svg xmlns="http://www.w3.org/2000/svg" width="16" height="16" version="1.1" id="svg7"><defs id="defs3"><style id="current-color-scheme" type="text/css"></style></defs><g id="user-bookmarks_16" transform="translate(-1447 -240)" stroke-width="1" stroke-miterlimit="4" stroke-dashoffset="0" stroke-opacity="1"><path id="rect5615-89" opacity=".75" fill="none" fill-opacity=".327" stroke="none" stroke-linecap="butt" stroke-linejoin="miter" stroke-dasharray="none" d="M1447 240h16v16h-16z"/><path d="M1459.589 255.499l-4.588-3.225-4.586 3.226 1.469-5.632-4.384-3.274h5.294L1455 240.5l2.206 6.094h5.294l-4.382 3.273z" id="path3092-13" display="inline" opacity=".65" fill="none" fill-opacity="1" stroke="#25282f" stroke-linecap="round" stroke-linejoin="round"/><path d="M1455.002 241.807l-1.794 4.957a.441.469 0 0 1-.412.3h-3.9l3.243 2.423a.441.469 0 0 1 .17.509l-1.152 4.424 3.602-2.534a.441.469 0 0 1 .487 0l3.604 2.532-1.155-4.424a.441.469 0 0 1 .17-.509l3.242-2.42h-3.9a.441.469 0 0 1-.411-.301z" id="path3092-8-59" display="inline" opacity=".65" fill="#5c657a" fill-opacity="1" stroke="none" stroke-linecap="round" stroke-linejoin="round"/></g></svg>