<svg xmlns="http://www.w3.org/2000/svg" width="16" height="16" version="1.1" id="svg7"><defs id="defs3"><style id="current-color-scheme" type="text/css"></style></defs><g id="folder-videos_16" transform="translate(-948 -624)" stroke-linejoin="miter" stroke-miterlimit="4" stroke-dasharray="none" stroke-dashoffset="0" stroke-opacity="1"><path id="rect5615-0" opacity=".75" fill="none" fill-opacity=".327" stroke="none" stroke-width="1" stroke-linecap="butt" d="M948 624h16v16h-16z"/><path d="M953 625v7h6v-7zm0 8v5h6v-5z" id="rect4113-7" opacity=".65" fill="#5c657a" fill-opacity="1" stroke="#102b68" stroke-width="0" stroke-linecap="butt"/><path id="rect3793-7-7" d="M950 624v15h12v-15zm1 1h1v1h-1zm2 0h6v7h-6zm7 0h1v1h-1zm-9 2h1v1h-1zm9 0h1v1h-1zm-9 2h1v1h-1zm9 0h1v1h-1zm-9 2h1v1h-1zm9 0h1v1h-1zm-9 2h1v1h-1zm2 0h6v5h-6zm7 0h1v1h-1zm-9 2h1v1h-1zm9 0h1v1h-1zm-9 2h1v1h-1zm9 0h1v1h-1z" display="inline" opacity=".65" fill="#25282f" fill-opacity="1" stroke="#4b4b4b" stroke-width="0"/></g></svg>