<svg version="1.1" viewBox="0 0 16 16" xmlns="http://www.w3.org/2000/svg">
 <defs>
  <style id="current-color-scheme" type="text/css">.ColorScheme-Text {
        color:#232629;
      }</style>
 </defs>
 <g transform="translate(-958 -762)">
  <g id="dckndcdsx" transform="translate(509,10)">
   <g transform="translate(449,752)">
    <rect width="16" height="16" fill="none"/>
   </g>
  </g>
  <g transform="matrix(.18724 0 0 .1875 858.71 635.75)">
   <g transform="matrix(1.3197 0 0 1.2314 -183.17 -149.72)">
    <rect x="544.67" y="672.7" width="56.658" height="60.634" rx="5.3407" ry="5.3333" fill="#636a78"/>
   </g>
   <rect x="532.94" y="676" width="80.114" height="79.997" rx="10.681" ry="10.667" fill="none" stroke="#272a2f" stroke-opacity=".78431" stroke-width="5.337"/>
   <g transform="matrix(.95683 0 0 1 28.633 13.395)">
    <rect x="535.44" y="670.63" width="5.5817" height="16" ry="0" fill-opacity=".29592"/>
    <ellipse cx="599.63" cy="678.63" rx="2.7908" ry="2.6667" fill-opacity=".29592"/>
    <ellipse cx="588.46" cy="678.63" rx="2.7908" ry="2.6667" fill="#6ba4e7"/>
    <rect transform="rotate(90)" x="675.96" y="-580.09" width="5.3333" height="22.327" ry="0" fill-opacity=".17647"/>
    <rect x="546.6" y="670.63" width="5.5817" height="16" ry="0" fill-opacity=".29592"/>
   </g>
   <g transform="matrix(.95683 0 0 1 28.63 61.354)">
    <rect x="535.44" y="670.63" width="5.5817" height="16" ry="0" fill-opacity=".29592"/>
    <ellipse cx="599.63" cy="678.63" rx="2.7908" ry="2.6667" fill-opacity=".29592"/>
    <ellipse cx="588.46" cy="678.63" rx="2.7908" ry="2.6667" fill="#6ba4e7"/>
    <rect transform="rotate(90)" x="675.96" y="-580.09" width="5.3333" height="22.327" ry="0" fill-opacity=".17647"/>
    <rect x="546.6" y="670.63" width="5.5817" height="16" ry="0" fill-opacity=".29592"/>
   </g>
  </g>
  <rect x="959" y="768" width="14" height="1" fill="#484e57"/>
  <rect x="959" y="771" width="14" height="1" fill="#484e57"/>
 </g>
</svg>
