<svg xmlns="http://www.w3.org/2000/svg" xmlns:xlink="http://www.w3.org/1999/xlink" width="96" height="96" viewBox="0 0 25.4 25.4"><defs><linearGradient xlink:href="#a" id="c" x1="-197.102" y1="217.681" x2="-196.914" y2="219.365" gradientUnits="userSpaceOnUse"/><linearGradient id="a"><stop offset="0"/><stop offset="1" stop-opacity="0"/></linearGradient><clipPath clipPathUnits="userSpaceOnUse" id="b"><rect ry=".529" y="285.358" x=".529" height="9.525" width="15.875" transform="rotate(45)" fill="#5677fc" stroke-width=".251" stroke-opacity=".196" paint-order="markers stroke fill"/></clipPath></defs><g transform="translate(0 -271.6)"><path d="M5.16 274.775c-.44 0-.592.403-.794.794h-1.72c-.265 0-.265.264-.265.264v8.467c0 .44.354.794.794.794h19.05c.44 0 .794-.354.794-.794v-8.467c0-.264-.265-.264-.265-.264H11.51c-.233-.373-.354-.794-.793-.794z" fill="#fff" stroke="#000" stroke-width=".529" stroke-opacity=".267" paint-order="markers stroke fill"/><path d="M5.16 274.775c-.44 0-.592.403-.794.794h-1.72c-.265 0-.265.264-.265.264v8.467c0 .44.354.794.794.794h19.05c.44 0 .794-.354.794-.794v-8.467c0-.264-.265-.264-.265-.264H11.51c-.233-.373-.354-.794-.793-.794z" fill="#fff" paint-order="markers stroke fill"/><path d="M12.7 277.685c-.44 0-.572.414-.794.794l-.463.794H1.058a.264.264 0 0 0-.264.264v13.759c0 .146.118.264.264.264h23.284a.264.264 0 0 0 .264-.264V277.95c0-.265-.264-.265-.264-.265z" fill="#2eb398" stroke="#195f53" stroke-width=".52916" stroke-opacity=".561" paint-order="markers stroke fill"/><rect ry=".397" y="275.304" x="5.556" height=".794" width="4.762" opacity=".25" paint-order="stroke markers fill"/><path d="M12.7 277.685c-.44 0-.572.414-.794.794l-.463.794H1.058a.264.264 0 0 0-.264.264v13.759c0 .146.118.264.264.264h23.284a.264.264 0 0 0 .264-.264V277.95c0-.265-.264-.265-.264-.265z" fill="#2eb398" paint-order="markers stroke fill"/><rect clip-path="url(#b)" transform="rotate(-45 -179.575 -74.382) scale(1.5)" ry=".132" y="217.868" x="-199.587" height="4.762" width="5.292" opacity=".1" fill="url(#c)" paint-order="stroke markers fill"/></g><path d="M11.377 10.848h2.646v4.233h2.46L12.7 18.865 8.916 15.08h2.461z" opacity=".15"/><path d="M11.113 10.583v4.234h-2.91l4.497 4.498 4.498-4.498h-2.91v-4.234zm.264.265h2.646v4.233h2.46L12.7 18.865l-3.784-3.784h2.461z" opacity=".3"/></svg>