<svg xmlns="http://www.w3.org/2000/svg" xmlns:xlink="http://www.w3.org/1999/xlink" width="96" height="96" viewBox="0 0 25.4 25.4"><defs><linearGradient xlink:href="#a" id="c" x1="-197.102" y1="217.681" x2="-196.914" y2="219.365" gradientUnits="userSpaceOnUse"/><linearGradient id="a"><stop offset="0"/><stop offset="1" stop-opacity="0"/></linearGradient><clipPath clipPathUnits="userSpaceOnUse" id="b"><rect ry=".529" y="285.358" x=".529" height="9.525" width="15.875" transform="rotate(45)" fill="#5677fc" stroke-width=".251" stroke-opacity=".196" paint-order="markers stroke fill"/></clipPath></defs><g transform="translate(0 -271.6)"><path d="M5.16 274.775c-.44 0-.592.403-.794.794h-1.72c-.265 0-.265.264-.265.264v8.467c0 .44.354.794.794.794h19.05c.44 0 .794-.354.794-.794v-8.467c0-.264-.265-.264-.265-.264H11.51c-.233-.373-.354-.794-.793-.794z" fill="#fff" stroke="#000" stroke-width=".529" stroke-opacity=".267" paint-order="markers stroke fill"/><path d="M5.16 274.775c-.44 0-.592.403-.794.794h-1.72c-.265 0-.265.264-.265.264v8.467c0 .44.354.794.794.794h19.05c.44 0 .794-.354.794-.794v-8.467c0-.264-.265-.264-.265-.264H11.51c-.233-.373-.354-.794-.793-.794z" fill="#fff" paint-order="markers stroke fill"/><path d="M12.7 277.685c-.44 0-.572.414-.794.794l-.463.794H1.058a.264.264 0 0 0-.264.264v13.759c0 .146.118.264.264.264h23.284a.264.264 0 0 0 .264-.264V277.95c0-.265-.264-.265-.264-.265z" fill="#2eb398" stroke="#195f53" stroke-width=".52916" stroke-opacity=".561" paint-order="markers stroke fill"/><rect ry=".397" y="275.304" x="5.556" height=".794" width="4.762" opacity=".25" paint-order="stroke markers fill"/><path d="M12.7 277.685c-.44 0-.572.414-.794.794l-.463.794H1.058a.264.264 0 0 0-.264.264v13.759c0 .146.118.264.264.264h23.284a.264.264 0 0 0 .264-.264V277.95c0-.265-.264-.265-.264-.265z" fill="#2eb398" paint-order="markers stroke fill"/><rect clip-path="url(#b)" transform="rotate(-45 -179.575 -74.382) scale(1.5)" ry=".132" y="217.868" x="-199.587" height="4.762" width="5.292" opacity=".1" fill="url(#c)" paint-order="stroke markers fill"/></g><path d="M12.965 10.906c-1.946 0-3.547 1.28-3.722 3.15H8.3l1.394 1.75 1.394-1.75h-.91c.172-1.363 1.356-2.237 2.788-2.237 1.549 0 2.807 1.237 2.807 2.762s-1.258 2.762-2.807 2.762a2.82 2.82 0 0 1-2.11-.941l-.682.622a3.75 3.75 0 0 0 2.792 1.232c2.062 0 3.736-1.646 3.736-3.675s-1.674-3.675-3.736-3.675zm-.115 1.49l-.35 2.45 1.75 1.4v-.35l-1.05-1.4v-2.1z" style="marker:none" color="#000" overflow="visible" opacity=".3"/></svg>