<svg width="64" height="64" version="1.1" viewBox="0 0 16.933 16.933" xmlns="http://www.w3.org/2000/svg" xmlns:xlink="http://www.w3.org/1999/xlink">
 <defs>
  <linearGradient id="c" x1="-197.1" x2="-196.91" y1="217.68" y2="219.36" gradientUnits="userSpaceOnUse">
   <stop offset="0"/>
   <stop stop-opacity="0" offset="1"/>
  </linearGradient>
  <clipPath id="b">
   <rect transform="rotate(45)" x=".529" y="285.36" width="15.875" height="9.525" ry=".529" fill="#5677fc" stroke-opacity=".196" stroke-width=".251" paint-order="markers stroke fill"/>
  </clipPath>
 </defs>
 <g transform="translate(0 -280.07)">
  <path d="M3.175 282.448c-.293 0-.265.264-.265.53H1.852c-.265 0-.265 0-.265.264v5.556c0 .293.237.53.53.53h12.7c.293 0 .529-.237.529-.53v-5.556c0-.265 0-.265-.265-.265H7.673c0-.265.028-.53-.265-.53z" fill="#fff" fill-opacity=".976" stroke="#000" stroke-opacity=".268" stroke-width=".529" paint-order="markers stroke fill"/>
  <path d="M3.175 282.448c-.293 0-.265.264-.265.53H1.852c-.265 0-.265 0-.265.264v5.556c0 .293.237.53.53.53h12.7c.293 0 .529-.237.529-.53v-5.556c0-.265 0-.265-.265-.265H7.673c0-.265.028-.53-.265-.53z" fill="#fff" fill-opacity=".976" paint-order="markers stroke fill"/>
  <path d="M8.467 284.3c-.293 0-.382.276-.53.53l-.308.528H.794c-.265 0-.265.265-.265.265v8.996c0 .264.265.264.265.264H16.14c.264 0 .264-.264.264-.264v-10.054c0-.265-.264-.265-.264-.265z" fill="none" stroke="#003779" stroke-opacity=".561" stroke-width=".529" paint-order="markers stroke fill"/>
  <path d="M8.467 284.3c-.293 0-.382.276-.53.53l-.308.528H.794c-.265 0-.265.265-.265.265v8.996c0 .264.265.264.265.264H16.14c.264 0 .264-.264.264-.264v-10.054c0-.265-.264-.265-.264-.265z" fill="#2eb398" paint-order="markers stroke fill"/>
  <rect transform="rotate(-45)" x="-199.59" y="217.87" width="5.292" height="4.762" ry=".132" clip-path="url(#b)" fill="url(#c)" opacity=".1" paint-order="stroke markers fill"/>
  <rect x="3.44" y="283.24" width="3.704" height=".529" rx=".265" ry=".265" fill-opacity=".267" paint-order="markers stroke fill"/>
 </g>
 <path transform="scale(.26458)" d="m32.352 27.99c-0.23253-0.011897-0.38131 0.015303-0.39453 0.017578-0.091145-0.006727-0.15625-0.02414-0.33203-0.007812a1.0001 1.0001 0 0 0-0.27344 0.066406 1.0001 1.0001 0 0 0-0.015624 0.007813c-0.17315 0.022375-0.32827 0.021707-0.58203 0.13281a1.0001 1.0001 0 0 0-0.55469 0.62695s-0.14966 0.52176-0.24219 1.5215c-0.042437 0.45986-0.13635 0.63743-0.19336 0.72266-0.057012 0.085226-0.095487 0.11204-0.27148 0.23633-0.20772 0.14618-0.19745 0.14044-0.24414 0.16992-0.50398 0.097839-0.57796 0.21899-1.2324-0.32422v0.00586c-0.75673-0.62866-1.1523-0.88477-1.1523-0.88477a1.0001 1.0001 0 0 0-0.89258-0.082031c-0.70317 0.2762-0.9965 0.72289-1.0273 0.76758-0.067303 0.047532-0.47513 0.31724-0.74414 0.99805a1.0001 1.0001 0 0 0 0.080078 0.90039s0.25751 0.3934 0.88672 1.1504c0.53921 0.64836 0.41297 0.73361 0.31641 1.2266-0.030275 0.047864-0.018035 0.041482-0.16211 0.24414a1.0001 1.0001 0 0 0-0.007812 0.00586c-0.12396 0.17606-0.15134 0.21652-0.23633 0.27344s-0.26331 0.14901-0.72266 0.19141c-1.0017 0.092664-1.5059 0.24414-1.5059 0.24414a1.0001 1.0001 0 0 0-0.60547 0.55469c-0.28263 0.65211-0.24414 1.2246-0.24414 1.2246a1.0001 1.0001 0 0 0 0 0.029297s-0.038729 0.57375 0.24414 1.2266a1.0001 1.0001 0 0 0 0.60547 0.55273s0.50422 0.15932 1.5059 0.25195c0.45929 0.042407 0.63753 0.1266 0.72266 0.18359 0.08512 0.056997 0.11792 0.10361 0.24414 0.28125 0.13818 0.19541 0.14208 0.19808 0.16992 0.24219 0.097809 0.50311 0.21937 0.57394-0.32422 1.2266-0.62922 0.75696-0.88672 1.1582-0.88672 1.1582a1.0001 1.0001 0 0 0-0.080078 0.89453c0.27307 0.68847 0.6944 0.96958 0.75195 1.0098 0.040022 0.057904 0.32192 0.48967 1.0195 0.76172a1.0001 1.0001 0 0 0 0.89258-0.089844s0.3956-0.24832 1.1523-0.87695c0.64984-0.5394 0.73057-0.41522 1.2246-0.31836 0.048081 0.029859 0.046944 0.017842 0.25195 0.16211 0.17647 0.12488 0.2145 0.15106 0.27148 0.23633 0.056981 0.085268 0.15093 0.26322 0.19336 0.72266 0.092767 1.0023 0.25 1.5137 0.25 1.5137a1.0001 1.0001 0 0 0 0.55469 0.59766c0.65201 0.28237 1.2246 0.24414 1.2246 0.24414a1.0001 1.0001 0 0 0 0.021484 0s0.58116 0.039783 1.2344-0.24414a1.0001 1.0001 0 0 0 0.54492-0.59766s0.16049-0.50967 0.25195-1.5137c0.042547-0.46052 0.12512-0.61795 0.19922-0.72266 0.074103-0.1047 0.20121-0.20482 0.47266-0.39844a1.0001 1.0001 0 0 0 0.013671-0.015625c0.53682-0.10137 0.58588-0.22211 1.2559 0.33398 0.75607 0.62922 1.1504 0.87695 1.1504 0.87695a1.0001 1.0001 0 0 0 0.89453 0.089844c0.69465-0.2719 0.97761-0.70412 1.0176-0.76172 0.057903-0.040252 0.48072-0.31803 0.75391-1.0098a1.0001 1.0001 0 0 0-0.082031-0.89453s-0.24968-0.40123-0.87891-1.1582a1.0001 1.0001 0 0 0-0.00586 0c-0.55651-0.6679-0.42694-0.71744-0.32617-1.2559a1.0001 1.0001 0 0 0 0.015625-0.013672c0.19401-0.27153 0.29344-0.39073 0.39844-0.46484 0.105-0.074118 0.26107-0.16391 0.72266-0.20703v0.007813c0.9991-0.092412 1.5215-0.24414 1.5215-0.24414a1.0001 1.0001 0 0 0 0.63477-0.56055c0.29231-0.67456 0.2004-1.1839 0.19141-1.2402 0.009071-0.056241 0.09389-0.56551-0.19922-1.2402a1.0001 1.0001 0 0 0-0.62695-0.5625s-0.52249-0.14391-1.5215-0.23633c-0.46186-0.042566-0.6182-0.12538-0.72266-0.19922-0.10447-0.073834-0.20383-0.20033-0.39844-0.47266l0.11719 0.23633c-0.078238-0.21117-0.090217-0.18113-0.13281-0.24219-0.10079-0.53882-0.23058-0.59525 0.32617-1.2637a1.0001 1.0001 0 0 0 0.007813 0c0.62732-0.75627 0.87695-1.1504 0.87695-1.1504a1.0001 1.0001 0 0 0 0.082031-0.90039c-0.2737-0.68956-0.69629-0.97154-0.75391-1.0117-0.040109-0.057888-0.31645-0.48162-1.0098-0.75391a1.0001 1.0001 0 0 0-0.90234 0.082031s-0.39324 0.25572-1.1504 0.88477v-0.00586c-0.35534 0.29494-0.51556 0.33708-0.61328 0.3457-0.097726 0.008618-0.25397-0.020317-0.59766-0.16992-0.35966-0.1566-0.49846-0.2485-0.55469-0.31641-0.056233-0.067908-0.13282-0.19811-0.17578-0.66406-0.092455-0.99895-0.23633-1.5215-0.23633-1.5215a1.0001 1.0001 0 0 0-0.55469-0.62695c-0.34851-0.154-0.66395-0.2049-0.89648-0.2168zm-0.63476 1.0078c0.16585-0.015383 0.28125 0 0.28125 0s0.48896-0.033731 0.84375 0.12305c0 0 0.11375 0.37964 0.20117 1.3242 0.10664 1.1566 0.52919 1.4616 1.3262 1.8086 0.79707 0.347 1.3566 0.42123 2.25-0.32031 0.7301-0.60658 1.0449-0.80469 1.0449-0.80469 0.35996 0.14136 0.68164 0.52148 0.68164 0.52148s0.38072 0.32377 0.52344 0.68359c0 0-0.19921 0.31499-0.80469 1.0449-0.74299 0.89202-0.67177 1.4741-0.5625 2.127 0.056581 0.12465 0.15355 0.23282 0.20117 0.36133 0.38574 0.53979 0.69065 0.9793 1.8477 1.0859 0.94474 0.0874 1.3262 0.19922 1.3262 0.19922 0.15409 0.3547 0.11914 0.84375 0.11914 0.84375s0.035105 0.48779-0.11914 0.84375c0 0-0.38134 0.11379-1.3262 0.20117-1.1557 0.10792-1.462 0.54424-1.8477 1.084h-0.041016c-0.047585 0.12722-0.1032 0.23664-0.16016 0.36133-0.10928 0.65289-0.18051 1.2372 0.5625 2.1289 0.60676 0.72996 0.80274 1.0449 0.80274 1.0449-0.1426 0.3611-0.52148 0.68164-0.52148 0.68164s-0.32234 0.38009-0.68359 0.52148c0 0-0.3141-0.19615-1.043-0.80273-0.89338-0.74151-1.4778-0.67302-2.1309-0.5625-0.12476 0.056543-0.23275 0.11456-0.36133 0.16211v0.039063c-0.53868 0.38425-0.97725 0.69235-1.084 1.8477-0.086175 0.9459-0.20117 1.2852-0.20117 1.2852-0.35478 0.15421-0.84375 0.16016-0.84375 0.16016 0-1e-6 -0.48767-0.005949-0.84375-0.16016 0 0-0.11375-0.34058-0.20117-1.2852-0.10668-1.1553-0.54862-1.451-0.88281-1.6875-0.33419-0.23513-0.43781-0.30283-0.5625-0.35938-0.65306-0.10923-1.2355-0.181-2.1289 0.56055-0.73018 0.60658-1.0449 0.80273-1.0449 0.80273-0.36251-0.14137-0.68359-0.52148-0.68359-0.52148s-0.37877-0.32182-0.52148-0.68164c0 0 0.19598-0.31499 0.80274-1.0449 0.74299-0.89202 0.67372-1.4761 0.56445-2.1289-0.056581-0.12594-0.12679-0.22838-0.36328-0.5625-0.23654-0.33289-0.53186-0.77615-1.6875-0.88281-0.94481-0.087385-1.2852-0.20117-1.2852-0.20117-0.15424-0.35598-0.16016-0.84375-0.16016-0.84375s0.005873-0.48778 0.16016-0.84375c0 0 0.34033-0.11182 1.2852-0.19922 1.1557-0.10668 1.4523-0.55063 1.6875-0.88477 0.2366-0.33284 0.30632-0.43784 0.36328-0.5625 0.10927-0.65289 0.17726-1.2351-0.56445-2.127-0.60676-0.72998-0.80274-1.0449-0.80274-1.0449 0.14269-0.36111 0.52148-0.68359 0.52148-0.68359s0.3237-0.38012 0.68359-0.52148c0 0 0.31478 0.1981 1.0449 0.80469 0.89338 0.74152 1.4759 0.66979 2.1289 0.56055 0.12594-0.056539 0.22831-0.12614 0.5625-0.36133 0.33289-0.23509 0.77608-0.53092 0.88281-1.6875 0.087422-0.94456 0.20117-1.3242 0.20117-1.3242 0.17611-0.077093 0.3954-0.10435 0.5625-0.12109v-0.001953zm0.28125 6.4277a2.5711 2.5703 0 0 0 0 5.1406 2.5711 2.5703 0 1 0 0-5.1406zm-0.003906 0.99805a1.0001 1.0001 0 0 0 0.007812 0c0.60817-5.9e-4 0.93445 0.1954 1.1797 0.4707 0.24524 0.2753 0.39258 0.68149 0.39258 1.1016 0 0.42008-0.14682 0.82324-0.39258 1.0996-0.24445 0.27489-0.57774 0.47002-1.1797 0.47266-0.60599-6.04e-4 -0.93647-0.1964-1.1816-0.47266-0.24517-0.27625-0.39062-0.6791-0.39062-1.0996 0-0.42051 0.146-0.83227 0.39062-1.1074 0.24463-0.27516 0.56784-0.46545 1.1738-0.46484z" color="#000000" color-rendering="auto" dominant-baseline="auto" image-rendering="auto" opacity=".3" shape-rendering="auto" solid-color="#000000" style="font-feature-settings:normal;font-variant-alternates:normal;font-variant-caps:normal;font-variant-ligatures:normal;font-variant-numeric:normal;font-variant-position:normal;isolation:auto;mix-blend-mode:normal;shape-padding:0;text-decoration-color:#000000;text-decoration-line:none;text-decoration-style:solid;text-indent:0;text-orientation:mixed;text-transform:none;white-space:normal"/>
 <path d="m8.3916 7.6728c-0.04421 0.00443-0.10204 0.011565-0.14863 0.031962 0 0-0.03026 0.10064-0.05339 0.35055-0.02824 0.30601-0.14557 0.38424-0.23365 0.44644-0.08842 0.062225-0.11565 0.080585-0.14897 0.095544-0.17277 0.028903-0.32686 0.047603-0.56323-0.14859-0.19318-0.16049-0.27617-0.21251-0.27617-0.21251-0.09522 0.037401-0.18094 0.13805-0.18094 0.13805s-0.10033 0.085005-0.13808 0.18055c0 0 0.05204 0.083304 0.21258 0.27644 0.19624 0.23596 0.17788 0.39036 0.14897 0.5631-0.01507 0.032982-0.03332 0.060524-0.09592 0.14859-0.06224 0.088405-0.14046 0.20571-0.44623 0.23394-0.24998 0.023123-0.34012 0.053043-0.34012 0.053043-0.04082 0.094183-0.04251 0.22305-0.04251 0.22305s0.0017 0.1292 0.04251 0.22339c0 0 0.09014 0.02992 0.34012 0.05304 0.30576 0.02822 0.38365 0.14553 0.44623 0.2336 0.06257 0.0884 0.08095 0.1156 0.09592 0.14892 0.02891 0.17273 0.04761 0.32709-0.14897 0.5631-0.16053 0.19312-0.21258 0.27644-0.21258 0.27644 0.03776 0.0952 0.13808 0.18021 0.13808 0.18021s0.08503 0.10099 0.18094 0.13839c0 0 0.08298-0.05202 0.27617-0.21251 0.23637-0.1962 0.39045-0.17749 0.56323-0.14859 0.03299 0.01496 0.06055 0.03299 0.14897 0.0952 0.08842 0.06256 0.20542 0.14077 0.23365 0.44644 0.02313 0.24991 0.05339 0.34002 0.05339 0.34002 0.09421 0.0408 0.2231 0.0425 0.2231 0.0425s0.12924-0.0017 0.22311-0.0425c0 0 0.03026-0.08976 0.05306-0.34002 0.02824-0.30567 0.14454-0.38696 0.28706-0.48862v-0.01057c0.03402-0.01258 0.06257-0.02754 0.09558-0.0425 0.17277-0.02924 0.3272-0.0476 0.56357 0.14859 0.19284 0.16049 0.27617 0.21251 0.27617 0.21251 0.09558-0.03741 0.1806-0.13805 0.1806-0.13805s0.10069-0.08501 0.13842-0.18055c0 0-0.05204-0.08331-0.21258-0.27644-0.19658-0.23593-0.17789-0.39032-0.14897-0.56306 0.01507-0.03299 0.02993-0.06189 0.04252-0.09555h0.01058c0.10204-0.1428 0.18333-0.25842 0.4891-0.28697 0.24998-0.02312 0.35064-0.05304 0.35064-0.05304 0.04081-0.09418 0.03197-0.22339 0.03197-0.22339s0.0088-0.1292-0.03197-0.22305c0 0-0.10069-0.029919-0.35064-0.053043-0.30612-0.028213-0.38704-0.14416-0.4891-0.28697-0.0126-0.034001-0.03809-0.062565-0.05306-0.095544-0.02891-0.17273-0.04761-0.32709 0.14897-0.5631 0.1602-0.19312 0.21258-0.27644 0.21258-0.27644-0.03776-0.095202-0.13842-0.18055-0.13842-0.18055s-0.08503-0.10064-0.18027-0.13805c0 0-0.08334 0.052021-0.27651 0.21251-0.23637 0.1962-0.38432 0.17681-0.5952 0.085005-0.21086-0.091805-0.32277-0.17239-0.35098-0.47841-0.02313-0.24991-0.05306-0.35022-0.05306-0.35022-0.09387-0.04148-0.2231-0.032643-0.2231-0.032643s-0.03062-0.00407-0.0745 0zm0.07447 1.7001a0.68025 0.68005 0 1 1 0 1.3601 0.68025 0.68005 0 0 1 0-1.3601z" opacity=".15" stroke-width=".26457"/>
</svg>
