<svg width="96" height="96" version="1.1" viewBox="0 0 25.4 25.4" xmlns="http://www.w3.org/2000/svg" xmlns:xlink="http://www.w3.org/1999/xlink">
 <defs>
  <clipPath id="b">
   <rect transform="rotate(45)" x=".529" y="285.36" width="15.875" height="9.525" ry=".529" fill="#5294e2" stroke-opacity=".196" stroke-width=".251" paint-order="markers stroke fill"/>
  </clipPath>
  <linearGradient id="c" x1="-197.1" x2="-196.91" y1="217.68" y2="219.36" gradientUnits="userSpaceOnUse">
   <stop offset="0"/>
   <stop stop-opacity="0" offset="1"/>
  </linearGradient>
 </defs>
 <g transform="translate(0 -271.6)">
  <path d="M5.027 275.04c-.44 0-.592.403-.794.793H2.646c-.265 0-.265.265-.265.265v8.334c0 .44.354.794.794.794h19.05c.44 0 .794-.354.794-.794v-8.334c0-.265-.265-.265-.265-.265H11.642c-.233-.373-.354-.793-.794-.793z" fill="#fff" stroke="#000" stroke-opacity=".255" stroke-width=".529" paint-order="markers stroke fill"/>
  <path d="M5.027 275.04c-.44 0-.592.403-.794.793H2.646c-.265 0-.265.265-.265.265v8.334c0 .44.354.794.794.794h19.05c.44 0 .794-.354.794-.794v-8.334c0-.265-.265-.265-.265-.265H11.642c-.233-.373-.354-.793-.794-.793z" fill="#fff" paint-order="markers stroke fill"/>
  <path d="M12.7 281.125c-.44 0-.572.546-.794.926l-.232.397H1.058c-.264 0-.264.264-.264.264v10.584c0 .264.264.264.264.264h23.284s.264 0 .264-.264V281.39c0-.265-.264-.265-.264-.265z" fill="#5294e2" stroke="#003479" stroke-opacity=".561" stroke-width=".529" paint-order="markers stroke fill"/>
  <path d="M12.7 281.125c-.44 0-.572.546-.794.926l-.232.397H1.058c-.264 0-.264.264-.264.264v10.584c0 .264.264.264.264.264h23.284s.264 0 .264-.264V281.39c0-.265-.264-.265-.264-.265z" fill="#2eb398" paint-order="markers stroke fill"/>
  <rect transform="rotate(-45 -179.58 -74.382) scale(1.5)" x="-199.59" y="217.87" width="5.292" height="4.762" ry=".132" clip-path="url(#b)" fill="url(#c)" opacity=".1" paint-order="stroke markers fill"/>
 </g>
</svg>
