<svg xmlns="http://www.w3.org/2000/svg" xmlns:xlink="http://www.w3.org/1999/xlink" width="96" height="96" viewBox="0 0 25.4 25.4"><defs><linearGradient id="a"><stop offset="0"/><stop offset="1" stop-opacity="0"/></linearGradient><linearGradient xlink:href="#a" id="d" x1="-197.102" y1="217.681" x2="-196.914" y2="219.365" gradientUnits="userSpaceOnUse"/><clipPath clipPathUnits="userSpaceOnUse" id="c"><rect ry=".529" y="285.358" x=".529" height="9.525" width="15.875" transform="rotate(45)" fill="#5677fc" stroke-width=".251" stroke-opacity=".196" paint-order="markers stroke fill"/></clipPath><linearGradient xlink:href="#b" id="e" gradientUnits="userSpaceOnUse" x1="18" y1="64" x2="32" y2="64"/><linearGradient id="b"><stop offset="0" stop-opacity=".51"/><stop offset="1" stop-opacity=".392"/></linearGradient></defs><g transform="translate(0 -271.6)"><path d="M5.16 274.775c-.44 0-.592.403-.794.794h-1.72c-.265 0-.265.264-.265.264v8.467c0 .44.354.794.794.794h19.05c.44 0 .794-.354.794-.794v-8.467c0-.264-.265-.264-.265-.264H11.51c-.233-.373-.354-.794-.793-.794z" fill="#fff" stroke="#000" stroke-width=".529" stroke-opacity=".267" paint-order="markers stroke fill"/><path d="M5.16 274.775c-.44 0-.592.403-.794.794h-1.72c-.265 0-.265.264-.265.264v8.467c0 .44.354.794.794.794h19.05c.44 0 .794-.354.794-.794v-8.467c0-.264-.265-.264-.265-.264H11.51c-.233-.373-.354-.794-.793-.794z" fill="#fff" paint-order="markers stroke fill"/><path d="M12.7 277.685c-.44 0-.572.414-.794.794l-.463.794H1.058a.264.264 0 0 0-.264.264v13.759c0 .146.118.264.264.264h23.284a.264.264 0 0 0 .264-.264V277.95c0-.265-.264-.265-.264-.265H12.7z" fill="#2eb398" stroke="#195f53" stroke-width=".52916" stroke-opacity=".561" paint-order="markers stroke fill"/><rect ry=".397" y="275.304" x="5.556" height=".794" width="4.762" opacity=".25" paint-order="stroke markers fill"/><path d="M12.7 277.685c-.44 0-.572.414-.794.794l-.463.794H1.058a.264.264 0 0 0-.264.264v13.759c0 .146.118.264.264.264h23.284a.264.264 0 0 0 .264-.264V277.95c0-.265-.264-.265-.264-.265H12.7z" fill="#2eb398" paint-order="markers stroke fill"/><rect clip-path="url(#c)" transform="rotate(-45 -179.575 -74.382) scale(1.5)" ry=".132" y="217.868" x="-199.587" height="4.762" width="5.292" opacity=".1" fill="url(#d)" paint-order="stroke markers fill"/></g><path d="M10.848 10.583v1.588h5.292v-1.588zm3.969 5.292a1.323 1.058 0 0 0-1.323 1.058 1.323 1.058 0 0 0 1.323 1.059 1.323 1.058 0 0 0 1.323-1.059 1.323 1.058 0 0 0-1.323-1.058zm-5.557.53a1.323 1.058 0 0 0-1.322 1.057 1.323 1.058 0 0 0 1.322 1.059 1.323 1.058 0 0 0 1.323-1.059 1.323 1.058 0 0 0-1.323-1.058z" opacity=".15" fill="#000"/><path d="M10.583 10.319v6.414a1.587 1.323 0 0 0-1.323-.593 1.587 1.323 0 0 0-1.587 1.322 1.587 1.323 0 0 0 1.587 1.323 1.587 1.323 0 0 0 1.588-1.323v-5.027h5.292v3.77a1.587 1.323 0 0 0-1.323-.595 1.587 1.323 0 0 0-1.588 1.323 1.587 1.323 0 0 0 1.588 1.323 1.587 1.323 0 0 0 1.587-1.323 1.587 1.323 0 0 0-.01-.142h.01V10.32zm.265.264h5.292v1.588h-5.292zm3.969 5.292a1.323 1.058 0 0 1 1.323 1.058 1.323 1.058 0 0 1-1.323 1.059 1.323 1.058 0 0 1-1.323-1.059 1.323 1.058 0 0 1 1.323-1.058zm-5.557.53a1.323 1.058 0 0 1 1.323 1.057 1.323 1.058 0 0 1-1.323 1.059 1.323 1.058 0 0 1-1.322-1.059 1.323 1.058 0 0 1 1.322-1.058z" opacity=".3"/></svg>