<svg width="32" height="32" version="1.1" xmlns="http://www.w3.org/2000/svg">
 <g transform="translate(239.35 74.322)">
  <path d="M-226.113-52.322c-.404 0-.73.275-.729.616v4.845l-2.277.154c-.404 0-.728.275-.728.616v.769h13v-.769c0-.34-.325-.616-.729-.616l-2.267-.154v-4.845c0-.341-.325-.616-.729-.616z" fill="none" stroke="#42677f" stroke-opacity=".291"/>
  <path d="M-225.892-52.405c-.26 0-.452.184-.45.407v5.349l-2.545.184h-.01c-.26 0-.45.184-.45.407v.269h12v-.269c0-.223-.19-.407-.45-.407h-.012l-2.543-.184v-5.349c0-.223-.19-.407-.45-.407z" fill="#fafafa"/>
  <rect x="-237.85" y="-71.322" width="29" height="19" rx="1" ry="1" fill="#435455" stroke="#252d31" stroke-dashoffset=".5" stroke-linecap="round" stroke-linejoin="round" stroke-opacity=".784"/>
  <path d="m-237.35-70.822h28v18h-28z" fill="#2eb398" fill-rule="evenodd"/>
 </g>
</svg>
