<svg width="16" height="16" version="1.1" viewBox="0 0 16 16" xmlns="http://www.w3.org/2000/svg">
 <defs>
  <style id="current-color-scheme" type="text/css">.ColorScheme-Text { color:#d3dae3; } .ColorScheme-Highlight { color:#5294e2; }</style>
 </defs>
 <rect x="1" y="9" width="14" height="4" fill="#edeff3" stroke-linecap="round" stroke-linejoin="round" stroke-width="2" style="paint-order:stroke fill markers"/>
 <rect x="1" y="2" width="14" height="4" fill="#edeff3" stroke-linecap="round" stroke-linejoin="round" stroke-width="2" style="paint-order:stroke fill markers"/>
 <path class="ColorScheme-Text" d="m1 1c-0.554 0-1 0.446-1 1v4c0 0.554 0.446 1 1 1h1v1h-1c-0.554 0-1 0.446-1 1v4c0 0.554 0.446 1 1 1h1v1h1v-1h10v1h1v-1h1c0.554 0 1-0.446 1-1v-4c0-0.554-0.446-1-1-1h-1v-1h1c0.554 0 1-0.446 1-1v-4c0-0.554-0.446-1-1-1zm0 1h14v4h-14zm2 5h10v1h-10zm-2 2h14v4h-14z" fill-opacity=".23922"/>
 <rect x="2" y="3" width="9" height="2" fill="#cfd1d5" stroke-linecap="round" stroke-linejoin="round" stroke-width="1.8974" style="paint-order:stroke fill markers"/>
 <circle cx="13" cy="4" r="1" fill-opacity=".23922" stroke-linecap="round" stroke-linejoin="round" stroke-width="2" style="paint-order:stroke fill markers"/>
 <rect x="2" y="10" width="9" height="2" fill="#cfd1d5" stroke-linecap="round" stroke-linejoin="round" stroke-width="1.8974" style="paint-order:stroke fill markers"/>
 <circle cx="13" cy="11" r="1" fill-opacity=".23922" stroke-linecap="round" stroke-linejoin="round" stroke-width="2" style="paint-order:stroke fill markers"/>
</svg>
