<svg width="16" height="16" version="1.1" xmlns="http://www.w3.org/2000/svg">
 <defs>
  <style id="current-color-scheme" type="text/css"/>
 </defs>
 <g transform="translate(-730 -944)">
  <rect x="730" y="944" width="16" height="16" fill-opacity=".023529"/>
  <g fill="#464c5c">
   <path d="m741 947c-0.54379 0-1 1-1 1h-4s-0.45623-0.998-1-0.998c-0.74312 0-2.2676 0.7961-2.252 1.121-0.19255 0.166-0.37016 0.3732-0.49805 0.629 0 0-1.239 4.083-1.25 6.75 0.10206 1.766 1.0664 1.4882 1.25 1.5 0.25269 0 0.47136-0.02 0.75-0.25 0.14257-0.129 0.86072-0.8608 1.25-1.25 0.38928-0.3893 0.5-0.5 1-0.5h5.5c0.49991 0.01 0.61072 0.1107 1 0.5s1.1074 1.123 1.25 1.252c0.27864 0.23 0.49731 0.246 0.75 0.25 0.18359-0.012 1.1479 0.264 1.25-1.502-0.0111-2.667-1.25-6.75-1.25-6.75-0.12789-0.2558-0.30551-0.461-0.49805-0.627 0.0156-0.3249-1.5088-1.121-2.252-1.121z" stroke="#464c5c" stroke-width=".2"/>
   <path d="m735 947c-0.74312 0-2.268 0.7966-2.2524 1.1216v5e-4c-0.19255 0.166-0.36966 0.37214-0.49755 0.62791 0 0-1.239 4.0828-1.25 6.7498 0.10206 1.766 1.0664 1.4882 1.25 1.5 0.25269-4e-3 0.47136-0.02 0.75-0.25 0.14257-0.12891 0.86071-0.86068 1.25-1.25 0.38928-0.38929 0.5-0.5 1-0.5h2.7503v-7.001h-2.0003s-0.45622-0.99876-0.99999-0.99876z"/>
   <path d="m741 947c0.74311 0 2.268 0.7966 2.2524 1.1216 0.19254 0.166 0.36966 0.37215 0.49755 0.62793 0 0 1.2387 4.0828 1.2497 6.7498-0.10207 1.766-1.0664 1.4887-1.25 1.5004-0.25269-4e-3 -0.47136-0.02-0.75-0.25-0.14258-0.12893-0.86044-0.86119-1.2497-1.2504-0.38928-0.3893-0.50008-0.49091-0.99999-0.5h-2.75v-7.0006h2s0.4562-0.99925 0.99999-0.99925z"/>
  </g>
  <g>
   <ellipse cx="741.5" cy="948.5" rx=".49999" ry=".49999" fill="#fff669"/>
   <ellipse cx="741.5" cy="950.5" rx=".5" ry=".49999" fill="#8ce755"/>
   <ellipse cx="742.5" cy="949.5" rx=".5" ry=".49999" fill="#ff5656"/>
   <ellipse cx="740.5" cy="949.5" rx=".5" ry=".49999" fill="#5294e2"/>
  </g>
  <ellipse cx="740.25" cy="952.75" rx="1.25" ry="1.25" fill-opacity=".39216"/>
  <ellipse cx="740.25" cy="952.75" rx=".74999" ry=".74999" fill="#595f6f"/>
  <ellipse cx="735.75" cy="952.75" rx="1.25" ry="1.25" fill-opacity=".39216"/>
  <path d="m735.5 952v0.49999h-0.49999v0.5h0.49999v0.49999h0.5v-0.49999h0.49999v-0.5h-0.49999v-0.49999z" fill="#595f6f"/>
  <ellipse cx="733.75" cy="950.25" rx="1.25" ry="1.25" fill-opacity=".39216"/>
  <ellipse cx="733.75" cy="950.25" rx=".74999" ry=".74999" fill="#595f6f"/>
  <path d="m741 946c-0.88488 0-1.26 0.5663-1.5117 0.9121-0.033 0.045-0.0234 0.044-0.0527 0.088h-2.8711c-0.0293-0.044-0.0197-0.043-0.0527-0.088-0.25189-0.3452-0.62806-0.9101-1.5117-0.9101-0.72866 0-1.3024 0.2621-1.8633 0.5468-0.28046 0.1424-0.53545 0.2932-0.76758 0.4766-0.11606 0.092-0.22855 0.1892-0.3457 0.3379-0.0237 0.03-0.0281 0.1269-0.0547 0.164-0.22364 0.2166-0.45027 0.4513-0.61328 0.7774l-0.0371 0.076-0.0254 0.08s-1.2806 4.0647-1.293 7.0371v0.031l2e-3 0.031c0.0617 1.0672 0.46908 1.8712 1.1094 2.2247 0.32014 0.1767 0.63549 0.2186 0.85351 0.2246 0.21803 0.01 0.48137 0.01 0.22071-0.01h0.0644c0.30546 0 0.93194-0.1032 1.3867-0.4786l0.0176-0.016 0.0176-0.014c0.14945-0.1352 0.32289-0.3153 0.57031-0.5644 0.24741-0.2491 0.52438-0.5303 0.71484-0.7207 0.17889-0.1789 0.23405-0.2186 0.21289-0.209 0.0124 4e-4 0.0178 0 0.0801 0h5.4805c0.18433 0 0.12649 0.01 0.0859-0.012-0.0405-0.022 0.035 0.027 0.22662 0.2188 0.1899 0.1899 0.4675 0.4711 0.7148 0.7207 0.2474 0.2496 0.419 0.4295 0.5703 0.5664l0.018 0.016 0.018 0.014c0.4592 0.379 1.0853 0.474 1.3711 0.4785h0.08c-0.26 0.017 0 0.016 0.2226 0.01 0.2181-0.01 0.5338-0.05 0.8535-0.2265 0.6395-0.3541 1.0458-1.1576 1.1074-2.2247v-0.062c-0.012-2.9724-1.293-7.0371-1.293-7.0371l-0.025-0.08-0.037-0.076c-0.1637-0.3275-0.3909-0.5606-0.6133-0.7754-0.027-0.037-0.031-0.1339-0.055-0.1641-0.1172-0.1487-0.2297-0.2462-0.3457-0.3379-0.2322-0.1833-0.4872-0.3341-0.7676-0.4765-0.2599-0.132-0.5838-0.1555-0.8633-0.2539v-0.2969h-1zm0 1c0.7431 0 2.2676 0.7962 2.252 1.1211 0.1925 0.166 0.3701 0.3712 0.498 0.627 0 0 1.2389 4.083 1.25 6.75-0.1021 1.766-1.0664 1.4899-1.25 1.5019-0.2527 0-0.4714-0.02-0.75-0.25-0.1426-0.129-0.8607-0.8626-1.25-1.2519s-0.5001-0.49-1-0.5h-5.5c-0.5 0-0.61072 0.1107-1 0.5-0.38928 0.3892-1.1074 1.121-1.25 1.25-0.27864 0.23-0.49731 0.25-0.75 0.25-0.18359-0.012-1.1479 0.266-1.25-1.5 0.011-2.667 1.25-6.75 1.25-6.75 0.12789-0.2558 0.3055-0.463 0.49805-0.629-0.0156-0.3249 1.5088-1.121 2.252-1.121 0.54377 0 1 0.998 1 0.998h4s0.45621-1 1-1z" color="#000000" color-rendering="auto" fill="#2c303c" fill-opacity=".90588" image-rendering="auto" shape-rendering="auto" solid-color="#000000" style="isolation:auto;mix-blend-mode:normal;text-decoration-color:#000000;text-decoration-line:none;text-decoration-style:solid;text-indent:0;text-transform:none;white-space:normal"/>
 </g>
</svg>
