<svg width="16" height="16" version="1.1" xmlns="http://www.w3.org/2000/svg">
 <defs>
  <style id="current-color-scheme" type="text/css"/>
 </defs>
 <g transform="matrix(.71426 0 0 .71418 -481.13 -29.139)">
  <path d="m685.5 42.197c-1.745 0-2.9932 0.3645-3.8947 0.95117-0.90153 0.58666-1.4654 1.4-1.8225 2.3332-0.71422 1.8666-0.57132 4.2001-0.57132 5.9405 0 3.2464 0.4048 5.8598 1.4685 7.6409 1.0636 1.781 2.7577 2.7371 4.8201 2.7371 2.0624 0 3.7564-0.9561 4.8201-2.7371 1.0636-1.781 1.4685-4.3944 1.4685-7.6409 0-1.7403 0.14288-4.0739-0.57134-5.9405-0.35708-0.93329-0.92099-1.7466-1.8225-2.3332-0.90154-0.58666-2.1496-0.95117-3.8947-0.95117z" fill="#fafafa"/>
  <path d="m692.48 51.394c0 6.8654-2.4002 11.106-6.9825 11.106s-6.9825-4.2404-6.9825-11.106c0-3.6346-0.65462-9.8942 6.9825-9.8942 7.6371 0 6.9825 6.2596 6.9825 9.8942z" fill="none" stroke="#2c3854" stroke-opacity=".21569" stroke-width="1.4001"/>
  <rect x="684.8" y="42.197" width="1.4" height="5.6008" rx="0" ry="0" fill="#2c3854" fill-opacity=".12157"/>
  <rect x="684" y="46" width="3" height="6" rx="2.8001" ry="2.1003" fill="#8e949f"/>
 </g>
</svg>
