<svg width="16" height="16" version="1.1" xmlns="http://www.w3.org/2000/svg">
 <defs>
  <style id="current-color-scheme" type="text/css">.ColorScheme-Text { color:#d3dae3; } .ColorScheme-Highlight { color:#5294e2; }</style>
 </defs>
 <rect x="2" y="1" width="12" height="14" fill="#4c5263" style="paint-order:stroke fill markers"/>
 <path d="m2 0c-0.554 0-1 0.446-1 1v14c0 0.554 0.446 1 1 1h12c0.554 0 1-0.446 1-1v-14c0-0.554-0.446-1-1-1zm0 1h12v14h-12z" fill="#2d2f39" stroke-linecap="round" stroke-linejoin="round" stroke-width="2" style="paint-order:stroke fill markers"/>
 <rect x="4" y="2" width="2" height="2" fill="#1f91b7" opacity=".5" style="paint-order:stroke fill markers"/>
 <rect x="7" y="2" width="2" height="2" fill="#fff" opacity=".5" style="paint-order:stroke fill markers"/>
 <rect x="10" y="2" width="2" height="2" fill="#1f91b7" opacity=".5" style="paint-order:stroke fill markers"/>
 <rect x="4" y="5" width="2" height="2" fill="#fff" opacity=".5" style="paint-order:stroke fill markers"/>
 <rect x="7" y="5" width="2" height="2" fill="#1f91b7" opacity=".5" style="paint-order:stroke fill markers"/>
 <rect x="10" y="5" width="2" height="2" fill="#fff" opacity=".5" style="paint-order:stroke fill markers"/>
 <rect x="4" y="8" width="2" height="2" fill="#1f91b7" opacity=".5" style="paint-order:stroke fill markers"/>
 <rect x="7" y="8" width="2" height="2" fill="#fff" opacity=".5" style="paint-order:stroke fill markers"/>
 <rect x="10" y="8" width="2" height="2" fill="#1f91b7" opacity=".5" style="paint-order:stroke fill markers"/>
 <rect x="7" y="11" width="2" height="2" fill="#1f91b7" opacity=".5" style="paint-order:stroke fill markers"/>
</svg>
