<svg width="16" height="16" version="1.1" xmlns="http://www.w3.org/2000/svg">
 <defs>
  <style id="current-color-scheme" type="text/css"/>
 </defs>
 <g transform="translate(1)">
  <g transform="translate(-655,-812)">
   <path d="m662 813c-2.77 0-5 2.23-5 5v1h2v-1c0-1.662 1.338-3 3-3s3 1.338 3 3v1h2v-1c0-2.77-2.23-5-5-5z" enable-background="new" fill="none" stroke="#4f6698" stroke-opacity=".26667" stroke-width="2"/>
   <path d="m662 813c-2.77 0-5 2.23-5 5v1h2v-1c0-1.662 1.338-3 3-3s3 1.338 3 3v1h2v-1c0-2.77-2.23-5-5-5z" enable-background="new" fill="#fafafa"/>
   <rect transform="matrix(0,-1,-1,0,0,0)" x="-827" y="-668" width="9" height="12" rx="1" ry="1" enable-background="new" fill="#fecd38"/>
   <rect transform="matrix(0,-1,-1,0,0,0)" x="-827.5" y="-668.5" width="10" height="13" rx="1.5" ry="1.5" enable-background="new" fill="none" stroke="#463500" stroke-opacity=".41176"/>
  </g>
 </g>
</svg>
