<svg width="16" height="16" version="1.1" viewBox="0 0 16 16" xmlns="http://www.w3.org/2000/svg">
 <defs>
  <style id="current-color-scheme" type="text/css">.ColorScheme-Text { color:#d3dae3; } .ColorScheme-Highlight { color:#5294e2; }</style>
 </defs>
 <g transform="translate(-201,-850)">
  <rect x="201" y="850" width="16" height="16" fill="none"/>
  <g fill="#5294e2">
   <path transform="translate(-244,-74)" d="m453 934c-1.0214 5.9e-4 -2.004 0.39192-2.7461 1.0938l2.7461 2.9199 2.7441-2.916c-0.74104-0.70279-1.7228-1.0955-2.7441-1.0977z" opacity=".35"/>
   <path d="m208.83 851.99c-2.9428 0.0459-5.7529 1.3091-7.834 3.5215l1.834 1.9492c1.6669-1.5754 3.8724-2.455 6.166-2.459 2.2944 2e-3 4.5014 0.88018 6.1699 2.4551l1.8301-1.9453c-2.1624-2.2989-5.1082-3.5692-8.166-3.5215z" opacity=".35"/>
   <path d="m209 856c-2.0396 2e-3 -4.0015 0.7832-5.4844 2.1836l2.0566 2.1856c0.92614-0.87684 2.1524-1.3666 3.4277-1.3691 1.2758 1e-3 2.5028 0.49059 3.4297 1.3672l2.0527-2.1816c-1.4821-1.4006-3.4432-2.1824-5.4824-2.1856z" opacity=".35"/>
  </g>
 </g>
 <g class="ColorScheme-Text" fill="currentColor">
  <path d="M10.937 11.007v1c0 .276.1.537.282.718l.78.782-.78.78a1.015 1.015 0 0 0-.282.72v1h1c.276 0 .538-.1.719-.282l.781-.78.782.78c.18.181.442.282.718.282h1v-1c0-.276-.1-.538-.281-.72l-.781-.78.781-.782c.181-.18.281-.442.281-.718v-1h-1c-.276 0-.537.1-.718.28l-.782.782-.781-.781a1.015 1.015 0 0 0-.719-.281h-1z" fill="#808080"/>
 </g>
</svg>
