<svg height="22" width="22" xmlns="http://www.w3.org/2000/svg"><g transform="translate(-77 -881.393)"><path d="M87.877 885.395a6.992 6.992 0 0 0-3.883 1.277 6.972 6.972 0 0 0-1.714 9.727 6.97 6.97 0 0 0 9.724 1.715 6.97 6.97 0 0 0 2.89-6.854 6.836 6.836 0 0 0-.527-1.701l-6.351 7.258-.688.812-.78-.75-3-3c-.377-.376-.377-1.06 0-1.437.375-.377 1.06-.377 1.437 0l2.25 2.25 6.023-6.893a6.942 6.942 0 0 0-5.38-2.404z" style="marker:none" color="#000" overflow="visible" fill="#bebebe"/><rect height="22" rx=".144" ry=".151" style="marker:none" width="22" x="77" y="881.393" color="#bebebe" overflow="visible" fill="none"/></g></svg>