<svg height="22" width="22" xmlns="http://www.w3.org/2000/svg"><path style="marker:none" color="#bebebe" overflow="visible" fill="none" d="M0 0h22v22H0z"/><path d="M9.497 4c-.794.001-.781.033-.532 1.031L10.59 10h-4.5L4.872 8.219C4.732 8.009 4.749 8 4.528 8h-.219c-.428 0-.281.438-.281.438L4.309 11l-.281 2.563s-.14.437.25.437h.25c.211 0 .204-.009.344-.219L6.09 12h4.5l-1.625 4.938C8.704 17.983 8.701 18 9.497 18c.432 0 .433-.012.718-.5l3.688-5.5h3.094c.554 0 1-.446 1-1s-.446-1-1-1h-3.094l-3.688-5.5c-.266-.457-.283-.498-.656-.5h-.062z" fill="#bebebe"/></svg>