<?xml version="1.0" encoding="UTF-8" standalone="no"?>
<svg
   width="22"
   height="22"
   version="1.1"
   id="svg3"
   sodipodi:docname="battery-full-charging.svg"
   xmlns:inkscape="http://www.inkscape.org/namespaces/inkscape"
   xmlns:sodipodi="http://sodipodi.sourceforge.net/DTD/sodipodi-0.dtd"
   xmlns="http://www.w3.org/2000/svg"
   xmlns:svg="http://www.w3.org/2000/svg">
  <sodipodi:namedview
     id="namedview3"
     pagecolor="#ffffff"
     bordercolor="#000000"
     borderopacity="0.25"
     inkscape:showpageshadow="2"
     inkscape:pageopacity="0.0"
     inkscape:pagecheckerboard="0"
     inkscape:deskcolor="#d1d1d1" />
  <defs
     id="defs1">
    <style
       id="current-color-scheme"
       type="text/css">
   .ColorScheme-Text { color:#d3dae3; } .ColorScheme-Highlight { color:#4285f4; }
  </style>
  </defs>
  <g
     style="fill:currentColor"
     class="ColorScheme-Text"
     id="g3">
    <path
       d="M8 8v3.094L9.844 8zm4 0v2h2V8zm2 4.906L12.156 16H14zM8 14v2h2v-2z"
       id="path1" />
    <path
       d="M9 4v1h4V4zM6.844 6C6.563 6.047 6 6.25 6 7v10c0 1 1 1 1 1h8c1 0 1-1 1-1V7s0-1-1-1H7s-.062-.016-.156 0zM7 7h8v10H7z"
       id="path2" />
    <path
       d="M11 8v3h3l-3 5v-3H8z"
       id="path3" />
  </g>
  <rect
     style="opacity:1;fill:#e0e5eb;fill-opacity:1"
     id="rect3"
     width="8.7722168"
     height="7.1812744"
     x="16.880127"
     y="2.4840088"
     rx="0.43713379"
     ry="0.43713379" />
</svg>
