<svg height="22" width="22" xmlns="http://www.w3.org/2000/svg"><path d="M8 8v3.094L9.844 8zm4 0v2h2V8zm2 4.906L12.156 16H14zM8 14v2h2v-2z" opacity=".35" fill="#bebebe"/><path d="M14 12.906L12.156 16H14v-3.094zM8 14v2h2v-2H8z" fill="#bebebe"/><path style="marker:none" color="#ddd" overflow="visible" fill="none" d="M22 0v22H0V0z"/><path d="M9 4v1h4V4zM6.844 6C6.563 6.047 6 6.25 6 7v10c0 1 1 1 1 1h8c1 0 1-1 1-1V7s0-1-1-1H7s-.062-.016-.156 0zM7 7h8v10H7z" fill="#bebebe"/><path d="M11 8v3h3l-3 5v-3H8z" fill="#bebebe"/><path d="M6.844 6C6.563 6.047 6 6.25 6 7v10c0 1 1 1 1 1h8c1 0 1-1 1-1V7s0-1-1-1H7c-.052 0-.062-.016-.156 0zM7 7h8v10H7z" fill="#bebebe"/></svg>