<svg height="22" width="22" xmlns="http://www.w3.org/2000/svg"><path d="M7.5 2.002c-.277 0-.5.223-.5.5v1.656c.32-.083.656-.156 1-.156h1v-1.5c0-.277-.223-.5-.5-.5h-1zm3 0c-.277 0-.5.223-.5.5v1.5h2v-1.5c0-.277-.223-.5-.5-.5h-1zm3 0c-.277 0-.5.223-.5.5v1.5h1c.344 0 .68.073 1 .156V2.502c0-.277-.223-.5-.5-.5h-1zm-5.5 3c-1.662 0-3 1.338-3 3v6c0 1.662 1.338 3 3 3h6c1.662 0 3-1.338 3-3v-6c0-1.662-1.338-3-3-3H8zm-5.5 2c-.277 0-.5.223-.5.5v1c0 .277.223.5.5.5H4v-1c0-.345.073-.681.156-1H2.5zm5.5 0h6c.554 0 1 .446 1 1v6c0 .554-.446 1-1 1H8c-.554 0-1-.446-1-1v-6c0-.554.446-1 1-1zm9.844 0c.083.319.156.655.156 1v1h1.5c.277 0 .5-.223.5-.5v-1c0-.277-.223-.5-.5-.5h-1.656zM8 8.002v6h6v-6H8zm-5.5 2c-.277 0-.5.223-.5.5v1c0 .277.223.5.5.5H4v-2H2.5zm15.5 0v2h1.5c.277 0 .5-.223.5-.5v-1c0-.277-.223-.5-.5-.5H18zm-15.5 3c-.277 0-.5.223-.5.5v1c0 .277.223.5.5.5h1.656c-.083-.32-.156-.656-.156-1v-1H2.5zm15.5 0v1c0 .344-.073.68-.156 1H19.5c.277 0 .5-.223.5-.5v-1c0-.277-.223-.5-.5-.5H18zM7 17.845v1.657c0 .277.223.5.5.5h1c.277 0 .5-.223.5-.5v-1.5H8c-.344 0-.68-.074-1-.157zm8 0c-.32.083-.656.157-1 .157h-1v1.5c0 .277.223.5.5.5h1c.277 0 .5-.223.5-.5v-1.657zm-5 .157v1.5c0 .277.223.5.5.5h1c.277 0 .5-.223.5-.5v-1.5h-2z" color="#000" fill="#bebebe" stroke-width="2"/><path style="marker:none" color="#bebebe" overflow="visible" fill="none" d="M0 0h22v22H0z"/></svg>