<svg width="22" height="22" version="1.1" viewBox="0 0 22 22" xmlns="http://www.w3.org/2000/svg">
 <defs>
  <style id="current-color-scheme" type="text/css">.ColorScheme-Text {
    color:#4d4d4d;
    }</style>
 </defs>
 <g transform="translate(0,-26)">
  <path class="ColorScheme-Text" transform="translate(0,26)" d="m11 2a9 9 0 0 0-9 9 9 9 0 0 0 9 9 9 9 0 0 0 9-9 9 9 0 0 0-9-9zm0 2a7 7 0 0 1 7 7 7 7 0 0 1-7 7 7 7 0 0 1-7-7 7 7 0 0 1 7-7zm0 2a1 1 0 0 0-1 1 1 1 0 0 0 1 1 1 1 0 0 0 1-1 1 1 0 0 0-1-1zm-2 3c-0.554 0-1 0.446-1 1s0.446 1 1 1h1v3.9883c-0.019125 1.3485 2.0191 1.3485 2 0v-4.9766c2.9e-5 -0.002132-0.001969-0.003731-0.001953-0.00586 1.3e-5 -0.002127 0.001953-0.003728 0.001953-0.005859 0-0.10108-0.029-0.19332-0.056641-0.28516-0.00965-0.032064-0.006849-0.06901-0.019531-0.099609l-0.001953-0.0019532c-0.030459-0.073022-0.082854-0.13041-0.12891-0.19336-0.030323-0.04145-0.049711-0.090727-0.085938-0.12695-0.034357-0.034347-0.080097-0.052944-0.11914-0.082031-0.065942-0.049127-0.12791-0.10295-0.20508-0.13477-0.013738-0.0056773-0.030883-0.0027374-0.044921-0.0078125-0.10632-0.038328-0.21804-0.068359-0.33789-0.068359h-0.015625-1.9844z" fill="#bebebe"/>
 </g>
</svg>
