<svg height="22" width="22" xmlns="http://www.w3.org/2000/svg"><path d="M7 3.002l-5 3 4 2.984-4.01 3.008L7 15.002l4-3-5-3 5-3 5 3.015-5 2.985 1.777 1.334A5 5 0 0 1 17 11.002a5.003 5.003 0 0 1 2.98.994l.03-.018L16 9.002l4-3-5-3-4 2.984-4-2.984zm10 9a4 4 0 1 0 0 8 4 4 0 0 0 0-8zm-6 1l-4 3-1-.6v.6l5 3 1.476-.885A5 5 0 0 1 12 16.002a5 5 0 0 1 .396-1.953L11 13.002zm6 0v1a2 2 0 0 0-2 2h-1a3 3 0 0 1 3-3zm2 3h1a3 3 0 0 1-3 3v-1a2 2 0 0 0 2-2z" color="#000" fill="#bebebe"/><path style="marker:none" color="#bebebe" overflow="visible" fill="none" d="M0 0h22v22H0z"/></svg>