<svg height="22" width="22" xmlns="http://www.w3.org/2000/svg"><g color="#bebebe"><path d="M5 3S3 3 3 5.062V17c0 2 2 2 2 2h12c2 0 2-2 2-2V5s0-2-2-2H5zm.351 4.324h1.045v3.146h2.842V7.324h1.045V15H9.238v-3.655H6.396V15H5.351V7.324zm10.334 1.78c.233 0 .452.029.655.087.202.058.395.148.58.272v.966a2.14 2.14 0 0 0-.617-.343 2.095 2.095 0 0 0-.688-.11c-.59 0-1.042.187-1.353.557-.312.37-.467.904-.467 1.603V15h-.951V9.242h.95v1.125c.158-.408.4-.72.725-.936.33-.219.717-.328 1.166-.328z" fill="#bebebe"/><path style="marker:none" overflow="visible" fill="none" d="M0 0h22v22H0z"/></g></svg>