<svg height="22" width="22" xmlns="http://www.w3.org/2000/svg"><g color="#bebebe"><path d="M5 3S3 3 3 5.062V17c0 2 2 2 2 2h12c2 0 2-2 2-2V5s0-2-2-2H5zm.351 4.324h1.045v3.414L9.64 7.324h1.22L7.87 10.46 10.946 15H9.691l-2.504-3.846-.79.844V15H5.35V7.324zm6.633 1.928h.945v3.568c0 .518.092.897.274 1.14.185.244.47.366.853.366.446 0 .787-.155 1.024-.467.236-.315.353-.767.353-1.353V9.252h.952V15h-.952v-.864a1.779 1.779 0 0 1-.687.756 1.945 1.945 0 0 1-1.014.256c-.59 0-1.028-.19-1.316-.574-.288-.387-.432-.973-.432-1.754V9.252z" fill="#bebebe"/><path style="marker:none" overflow="visible" fill="none" d="M0 0h22v22H0z"/></g></svg>