<svg height="22" width="22" xmlns="http://www.w3.org/2000/svg"><g color="#bebebe"><path d="M5 3S3 3 3 5.062V17c0 2 2 2 2 2h12c2 0 2-2 2-2V5s0-2-2-2H5zm6.984 4h.945v3.105a1.77 1.77 0 0 1 .686-.746c.288-.171.627-.256 1.022-.256.586 0 1.024.193 1.312.58.291.384.436.967.436 1.748V15h-.952V11.43c0-.517-.09-.897-.271-1.14-.182-.244-.466-.366-.854-.366-.442 0-.783.158-1.023.473-.237.312-.356.762-.356 1.348V15h-.945V7zm-7.096.324h5.858v.873H8.344V15H7.3V8.197H4.888v-.873z" fill="#bebebe"/><path style="marker:none" overflow="visible" fill="none" d="M0 0h22v22H0z"/></g></svg>