<svg height="22" width="22" xmlns="http://www.w3.org/2000/svg"><g color="#bebebe"><path d="M5 3S3 3 3 5.062V17c0 2 2 2 2 2h12c2 0 2-2 2-2V5s0-2-2-2H5zm6.804 3.943h2.463v5.969c0 .425.077.747.23.963.159.216.391.322.696.322H16.3V15h-1.2c-.565 0-1.004-.182-1.316-.545-.308-.364-.46-.878-.46-1.543V7.683h-1.519v-.74zm-6.714.38h1.388l1.326 3.91 1.336-3.91h1.395V15h-.961V8.218l-1.37 4.047H7.42L6.047 8.218V15H5.09V7.324z" fill="#bebebe"/><path style="marker:none" overflow="visible" fill="none" d="M0 0h22v22H0z"/></g></svg>