<svg height="22" width="22" xmlns="http://www.w3.org/2000/svg"><g color="#bebebe"><path d="M5 3S3 3 3 5.062V17c0 2 2 2 2 2h12c2 0 2-2 2-2V5s0-2-2-2H5zm.383 4.324H7.52c.843 0 1.49.19 1.94.57.449.38.672.93.672 1.65 0 .508-.139.923-.416 1.245-.275.319-.662.514-1.163.586.268.068.496.198.684.39.189.189.424.568.705 1.137L10.986 15H9.871l-.914-1.938c-.264-.552-.502-.907-.715-1.064-.21-.161-.483-.242-.822-.242h-.994V15H5.383V7.324zm1.043.853v2.725h1.136c.497 0 .868-.111 1.112-.334.243-.223.365-.564.365-1.023 0-.443-.13-.779-.39-1.012-.258-.237-.634-.356-1.128-.356H6.426zm5.558 1.075h.945v3.568c0 .518.092.897.274 1.14.185.244.47.366.853.366.446 0 .787-.155 1.024-.467.236-.315.353-.767.353-1.353V9.252h.952V15h-.952v-.864a1.779 1.779 0 0 1-.687.756 1.945 1.945 0 0 1-1.014.256c-.59 0-1.028-.19-1.316-.574-.288-.387-.432-.973-.432-1.754V9.252z" fill="#bebebe"/><path style="marker:none" overflow="visible" fill="none" d="M0 0h22v22H0z"/></g></svg>