<svg height="22" width="22" xmlns="http://www.w3.org/2000/svg"><g color="#bebebe"><path d="M5 3S3 3 3 5.062V17c0 2 2 2 2 2h12c2 0 2-2 2-2V5s0-2-2-2H5zm7.195 4h.977v4.632l2.484-2.39h1.15l-2.267 2.17L17.162 15h-1.156l-2.13-2.971-.704.662V15h-.977V7zm-6.79.324h1.042v5.203c0 .374.01.642.031.803.02.157.056.28.108.365.11.202.267.354.472.457.21.103.461.154.756.154.298 0 .55-.051.756-.154a1.1 1.1 0 0 0 .479-.457.965.965 0 0 0 .107-.365 6.97 6.97 0 0 0 .031-.793V7.324h1.04v4.73c0 .785-.052 1.344-.151 1.676-.096.33-.262.6-.502.817a2.241 2.241 0 0 1-.777.453c-.292.1-.62.148-.983.148A3.01 3.01 0 0 1 6.838 15a2.29 2.29 0 0 1-.782-.453 1.742 1.742 0 0 1-.504-.823c-.099-.339-.148-.895-.148-1.67v-4.73z" fill="#bebebe"/><path style="marker:none" overflow="visible" fill="none" d="M0 0h22v22H0z"/></g></svg>