<svg height="22" width="22" xmlns="http://www.w3.org/2000/svg"><g color="#bebebe"><path d="M5 3S3 3 3 5.062V17c0 2 2 2 2 2h12c2 0 2-2 2-2V5s0-2-2-2H5zm.09 4.324h1.388l1.326 3.908L9.14 7.324h1.395V15h-.961V8.218l-1.37 4.047H7.42L6.047 8.218V15H5.09V7.324zm9.546 1.78c.587 0 1.025.192 1.313.58.291.383.436.966.436 1.747V15h-.952V11.43c0-.517-.09-.897-.271-1.14-.182-.244-.466-.366-.854-.366-.442 0-.783.158-1.023.473-.237.312-.356.762-.356 1.348V15h-.945V9.242h.945v.863a1.77 1.77 0 0 1 .686-.746c.288-.171.627-.256 1.021-.256z" fill="#bebebe"/><path style="marker:none" overflow="visible" fill="none" d="M0 0h22v22H0z"/></g></svg>