<svg height="22" width="22" xmlns="http://www.w3.org/2000/svg"><g color="#bebebe"><path d="M5 3S3 3 3 5.062V17c0 2 2 2 2 2h12c2 0 2-2 2-2V5s0-2-2-2H5zm2.187 4.324h1.26L10.797 15H9.722l-.566-2H6.469l-.557 2H4.838l2.35-7.676zm.627.916L6.72 12.168h2.19L7.814 8.24zm7.871.863c.233 0 .452.03.655.088.202.058.395.148.58.272v.966a2.14 2.14 0 0 0-.617-.343 2.095 2.095 0 0 0-.688-.11c-.59 0-1.042.187-1.353.557-.312.37-.467.904-.467 1.603V15h-.951V9.242h.95v1.125c.158-.408.4-.72.725-.936.33-.219.717-.328 1.166-.328z" fill="#bebebe"/><path style="marker:none" overflow="visible" fill="none" d="M0 0h22v22H0z"/></g></svg>