<svg height="22" width="22" xmlns="http://www.w3.org/2000/svg"><g color="#bebebe"><path d="M5 3S3 3 3 5.062V17c0 2 2 2 2 2h12c2 0 2-2 2-2V5s0-2-2-2H5zm.66 4.324h2.242c.857 0 1.507.195 1.95.586.442.387.661.956.661 1.707 0 .757-.22 1.33-.662 1.717-.438.387-1.089.582-1.949.582H6.7V15H5.66V7.324zm7.533.283h.945v1.635h2.149v.734h-2.149v3.127c0 .425.082.72.243.889.16.168.442.252.843.252h1.063V15H15.13c-.71 0-1.21-.142-1.502-.426-.292-.285-.436-.775-.436-1.47V9.975h-1.537v-.734h1.537V7.607zm-6.494.57v2.885h1.203c.48 0 .854-.127 1.121-.38.271-.254.406-.61.406-1.065 0-.456-.134-.809-.402-1.059-.267-.253-.642-.38-1.125-.38H6.7z" fill="#bebebe"/><path style="marker:none" overflow="visible" fill="none" d="M0 0h22v22H0z"/></g></svg>