<svg height="22" width="22" xmlns="http://www.w3.org/2000/svg"><g color="#bebebe"><path d="M5 3S3 3 3 5.062V17c0 2 2 2 2 2h12c2 0 2-2 2-2V5s0-2-2-2H5zm3.283 4.185a3.156 3.156 0 0 1 1.78.55V8.8a2.88 2.88 0 0 0-.854-.58c-.292-.127-.6-.19-.926-.19-.675 0-1.182.26-1.521.785-.336.521-.504 1.307-.504 2.356 0 1.066.162 1.857.488 2.37.329.511.833.766 1.512.766.23 0 .43-.026.601-.078a1.43 1.43 0 0 0 .473-.252v-2.06H8.217v-.854h2.107v3.305a2.897 2.897 0 0 1-.941.586c-.347.13-.72.195-1.125.195-.974 0-1.732-.347-2.274-1.043-.541-.699-.812-1.677-.812-2.935 0-1.255.274-2.23.822-2.93.548-.703 1.312-1.055 2.289-1.055zm7.402 1.918c.233 0 .452.03.655.088.202.058.395.148.58.272v.966a2.14 2.14 0 0 0-.617-.343 2.095 2.095 0 0 0-.688-.11c-.59 0-1.042.187-1.353.557-.312.37-.467.904-.467 1.603V15h-.951V9.242h.95v1.125c.158-.408.4-.72.725-.936.33-.219.717-.328 1.166-.328z" fill="#bebebe"/><path style="marker:none" overflow="visible" fill="none" d="M0 0h22v22H0z"/></g></svg>