<svg height="22" width="22" xmlns="http://www.w3.org/2000/svg"><g color="#bebebe"><path d="M5 3S3 3 3 5.062V17c0 2 2 2 2 2h12c2 0 2-2 2-2V5s0-2-2-2H5zm.66 4.324h4.557v.873H6.699v2.273h3.363v.875H6.7v2.782h3.615V15H5.66V7.324zm7.533.283h.945v1.635h2.149v.734h-2.149v3.127c0 .425.082.72.243.889.16.168.442.252.843.252h1.063V15H15.13c-.71 0-1.21-.142-1.502-.426-.292-.285-.436-.775-.436-1.47V9.975h-1.537v-.734h1.537V7.607z" fill="#bebebe"/><path style="marker:none" overflow="visible" fill="none" d="M0 0h22v22H0z"/></g></svg>