<svg height="22" width="22" xmlns="http://www.w3.org/2000/svg"><g color="#bebebe"><path d="M5 3S3 3 3 5.062V17c0 2 2 2 2 2h12c2 0 2-2 2-2V5s0-2-2-2H5zm2.892 4.185c.295 0 .604.035.93.104.326.065.67.163 1.03.297V8.64a4.09 4.09 0 0 0-.952-.457 3.072 3.072 0 0 0-.957-.154c-.49 0-.877.114-1.162.344-.284.226-.426.532-.426.92 0 .339.093.599.278.777.188.178.538.327 1.048.447l.545.123c.72.168 1.244.431 1.573.791.329.36.494.85.494 1.471 0 .73-.226 1.288-.678 1.672-.452.384-1.11.574-1.975.574-.36 0-.722-.038-1.086-.117a5.918 5.918 0 0 1-1.093-.344v-1.105c.394.25.765.432 1.115.549a3.38 3.38 0 0 0 1.064.175c.525 0 .932-.116 1.223-.35.291-.236.438-.566.438-.988 0-.383-.1-.676-.303-.878-.199-.203-.548-.358-1.045-.467l-.555-.13c-.713-.16-1.23-.404-1.552-.73-.323-.325-.483-.762-.483-1.31 0-.686.228-1.235.688-1.647.462-.414 1.077-.62 1.841-.62zm3.604 2.057h.982l1.67 4.832 1.676-4.832h.982L14.762 15h-1.22l-2.046-5.758z" fill="#bebebe"/><path style="marker:none" overflow="visible" fill="none" d="M0 0h22v22H0z"/></g></svg>