<svg height="22" width="22" xmlns="http://www.w3.org/2000/svg"><g color="#bebebe"><path d="M5 3S3 3 3 5.062V17c0 2 2 2 2 2h12c2 0 2-2 2-2V5s0-2-2-2H5zm.09 4.324h1.388l1.326 3.908L9.14 7.324h1.395V15h-.961V8.218l-1.37 4.047H7.42L6.047 8.218V15H5.09V7.324zm6.427 1.918h1.002l1.707 4.504 1.682-4.504h1.002l-1.518 3.906c-.157.401-.358.93-.601 1.584-.34.905-.567 1.458-.684 1.656a1.605 1.605 0 0 1-.59.602 1.656 1.656 0 0 1-.828.201h-.762v-.793h.561c.278 0 .495-.081.652-.242.158-.161.359-.576.602-1.248l-2.225-5.666z" fill="#bebebe"/><path style="marker:none" overflow="visible" fill="none" d="M0 0h22v22H0z"/></g></svg>