<svg height="22" width="22" xmlns="http://www.w3.org/2000/svg"><g color="#bebebe"><path d="M5 3S3 3 3 5.062V17c0 2 2 2 2 2h12c2 0 2-2 2-2V5s0-2-2-2H5zm10.31 4h1.137v.787h-1.074c-.34 0-.575.07-.71.21-.13.138-.194.382-.194.735v.51h1.978v.734H14.47V15h-.948V9.976h-1.537v-.734h1.537v-.4c0-.631.144-1.097.432-1.395.291-.298.744-.447 1.357-.447zm-9.464.324h4.519v.873H6.888v2.264h3.153v.873H6.888V15H5.846V7.324z" fill="#bebebe"/><path style="marker:none" overflow="visible" fill="none" d="M0 0h22v22H0z"/></g></svg>