<svg height="22" width="22" xmlns="http://www.w3.org/2000/svg"><g color="#bebebe"><path d="M5 3S3 3 3 5.062V17c0 2 2 2 2 2h12c2 0 2-2 2-2V5s0-2-2-2H5zm8.773 4h.947v1.197h-.947V7zm-5.88.185c.294 0 .603.035.93.104.325.065.668.163 1.028.297V8.64a4.09 4.09 0 0 0-.95-.457 3.072 3.072 0 0 0-.958-.154c-.49 0-.877.114-1.162.344-.284.226-.426.532-.426.92 0 .339.093.599.278.777.188.178.538.327 1.048.447l.545.123c.72.168 1.244.431 1.573.791.329.36.494.85.494 1.471 0 .73-.226 1.288-.678 1.672-.452.384-1.11.574-1.975.574-.36 0-.722-.038-1.086-.117a5.918 5.918 0 0 1-1.093-.344v-1.105c.394.25.765.432 1.115.549a3.38 3.38 0 0 0 1.064.175c.525 0 .932-.116 1.223-.35.291-.236.438-.566.438-.988 0-.383-.1-.676-.303-.878-.199-.203-.548-.358-1.045-.467l-.555-.13c-.713-.16-1.23-.404-1.553-.73-.322-.325-.482-.762-.482-1.31 0-.686.228-1.235.688-1.647.462-.414 1.077-.62 1.841-.62zm4.406 2.057h2.421v5.023h1.875V15h-4.699v-.735h1.877V9.976H12.3v-.734z" fill="#bebebe"/><path style="marker:none" overflow="visible" fill="none" d="M0 0h22v22H0z"/></g></svg>