<?xml version="1.0" encoding="UTF-8" standalone="no"?>
<svg
   xmlns:dc="http://purl.org/dc/elements/1.1/"
   xmlns:cc="http://creativecommons.org/ns#"
   xmlns:rdf="http://www.w3.org/1999/02/22-rdf-syntax-ns#"
   xmlns:svg="http://www.w3.org/2000/svg"
   xmlns="http://www.w3.org/2000/svg"
   xmlns:sodipodi="http://sodipodi.sourceforge.net/DTD/sodipodi-0.dtd"
   xmlns:inkscape="http://www.inkscape.org/namespaces/inkscape"
   width="22"
   height="22"
   version="1.1"
   id="svg7"
   sodipodi:docname="fcitx-kbd-panel.svg"
   inkscape:version="0.92.4 (5da689c313, 2019-01-14)">
  <metadata
     id="metadata11">
    <rdf:RDF>
      <cc:Work
         rdf:about="">
        <dc:format>image/svg+xml</dc:format>
        <dc:type
           rdf:resource="http://purl.org/dc/dcmitype/StillImage" />
        <dc:title />
      </cc:Work>
    </rdf:RDF>
  </metadata>
  <sodipodi:namedview
     pagecolor="#ffffff"
     bordercolor="#666666"
     borderopacity="1"
     objecttolerance="10"
     gridtolerance="10"
     guidetolerance="10"
     inkscape:pageopacity="0"
     inkscape:pageshadow="2"
     inkscape:window-width="1366"
     inkscape:window-height="711"
     id="namedview9"
     showgrid="false"
     inkscape:zoom="3.7926636"
     inkscape:cx="2.6760952"
     inkscape:cy="27.096934"
     inkscape:window-x="0"
     inkscape:window-y="27"
     inkscape:window-maximized="1"
     inkscape:current-layer="svg7" />
  <defs
     id="defs3">
    <style
       id="current-color-scheme"
       type="text/css">
   .ColorScheme-Text { color:#dfdfdf; } .ColorScheme-Highlight { color:#5294e2; }
  </style>
  </defs>
  <path
     id="path2"
     style="color:#000000;overflow:visible;fill:#dddddd;fill-opacity:1;marker:none"
     overflow="visible"
     d="m 6,4.0000001 c -1.108,0 -2,0.892 -2,2 V 16 c 0,1.108 0.892,2 2,2 h 10 c 1.108,0 2,-0.892 2,-2 V 6.0000001 c 0,-1.1080001 -0.892,-2 -2,-2 z m 0,1 h 10 c 0.554,0 1,0.446 1,1 V 15 c 0,0.554 -0.446,1 -1,1 H 6 C 5.446,16 5,15.554 5,15 V 6.0000001 c 0,-0.554 0.446,-1 1,-1 z m 6.656,3.994 c -0.79,0 -1.548,0.2569999 -2.28,0.7499999 l 0.374,0.85 c 0.312,-0.21 0.616,-0.36 0.906,-0.469 0.298,-0.116 0.571,-0.156 0.876,-0.156 0.449,0 0.791,0.104 1.03,0.344 0.24,0.232 0.438,0.548 0.438,0.968 v 0.307 C 13.79,11.508 13.48,11.444 13.219,11.4 a 4.015,4.015 0 0 0 -0.781,-0.062 c -0.356,0 -0.672,0.038 -0.969,0.125 -0.29,0.087 -0.564,0.215 -0.781,0.375 -0.21,0.16 -0.353,0.345 -0.469,0.562 -0.116,0.218 -0.188,0.55 -0.188,0.819 0,0.254 0.063,0.501 0.157,0.719 0.101,0.217 0.208,0.402 0.375,0.562 0.174,0.16 0.393,0.28 0.625,0.375 0.239,0.087 0.505,0.125 0.781,0.125 0.428,0 0.818,-0.076 1.188,-0.25 0.377,-0.181 0.683,-0.448 0.937,-0.781 l 0.031,0.344 a 0.743,0.743 0 0 0 0.219,0.437 c 0.123,0.109 0.299,0.173 0.531,0.188 0.08,0 0.187,0.006 0.281,0 0.102,-0.008 0.197,-0.01 0.313,-0.032 V 13.875 C 15.345,13.868 15.165,13.839 15.115,13.781 A 0.497,0.497 0 0 1 15,13.469 V 11.338 C 15,10.591 14.904,10.018 14.469,9.619 14.034,9.22 13.439,8.9940001 12.656,8.9940001 Z M 12.566,12.064 c 0.218,0 0.608,0.05 0.833,0.094 0.232,0.044 0.398,0.106 0.601,0.186 v 0.75 c 0,0.145 -0.129,0.307 -0.281,0.437 -0.427,0.38 -0.94,0.43 -1.438,0.469 -0.326,0 -0.734,0.018 -0.944,-0.171 C 11.127,13.633 11,13.408 11,13.125 c 0,-0.305 0.295,-0.569 0.563,-0.75 a 1.67,1.67 0 0 1 1.004,-0.31 z"
     inkscape:connector-curvature="0" />
</svg>
