<svg height="22" width="22" xmlns="http://www.w3.org/2000/svg"><path style="marker:none" color="#ddd" overflow="visible" fill="none" d="M22 0v22H0V0z"/><path d="M5.5 3c-.277 0-.5.223-.5.5V4l-2-.002v14.501c0 .277.223.5.5.5h6c.277 0 .5-.223.5-.5V4L9.5 4H8v-.5c0-.277-.223-.5-.5-.5z" color="#bebebe" opacity=".35" fill="#bebebe" stroke-width="0" stroke-linecap="round" stroke-linejoin="round"/><path d="M3 10.998V18.5c0 .277.223.5.5.5h6c.277 0 .5-.223.5-.5v-7.502z" color="#bebebe" fill="#bebebe" stroke-width="0" stroke-linecap="round" stroke-linejoin="round"/><path d="M13 3.998c-.554 0-1 .446-1 1v13c0 .554.446 1 1 1h5c.554 0 1-.446 1-1v-13c0-.554-.446-1-1-1h-5zm0 3h1v1h-1v-1zm2 0h1v1h-1v-1zm2 1h1v7h-1v-7zm-4 1h1v1h-1v-1zm2 0h1v1h-1v-1zm-2 2h1v1h-1v-1zm2 0h1v1h-1v-1zm-2 2h1v1h-1v-1zm2 0h1v1h-1v-1zm-2 2h1v1h-1v-1zm2 0h1v1h-1v-1z" fill="#bebebe" fill-rule="evenodd"/></svg>