<svg height="22" width="22" xmlns="http://www.w3.org/2000/svg"><path style="marker:none" color="#bebebe" overflow="visible" fill="none" d="M0 0h22v22H0z"/><path d="M11 4C9.338 4 8 5.338 8 7v5c0 .564.17 1.082.437 1.531L14 8V7c0-1.662-1.338-3-3-3zM6 9v2.906A.5.5 0 0 0 6 12a4.9 4.9 0 0 0 1 2.969l.687-.688c-.005-.007.005-.024 0-.031A4.031 4.031 0 0 1 7 12a.5.5 0 0 0 0-.031V9H6zm9.094 0L15 9.094v2.718a.5.5 0 0 0 0 .094V12c0 2.213-1.785 4-4 4a4.01 4.01 0 0 1-2.219-.688H8.75L8.094 16c.565.407 1.2.73 1.906.875V19h2v-2.125c2.274-.465 4-2.466 4-4.875a.5.5 0 0 0 0-.031v-.063a.5.5 0 0 0 0-.093V9h-.906zM14 10.094l-4.5 4.5A2.993 2.993 0 0 0 14 12v-1.906z" style="marker:none" color="#bebebe" overflow="visible" fill="#bebebe" stroke-width="2"/><path d="M15.469 4.484l-11 11 1.062 1.063 11-11-1.062-1.063z" style="line-height:normal;-inkscape-font-specification:Sans;text-indent:0;text-align:start;text-decoration-line:none;text-transform:none;block-progression:tb;marker:none" color="#000" font-weight="400" font-family="Sans" overflow="visible" fill="#bebebe" stroke-width="1.5"/></svg>