<svg height="22" width="22" xmlns="http://www.w3.org/2000/svg"><path style="marker:none" color="#ddd" overflow="visible" fill="none" d="M22 0v22H0V0z"/><path d="M5.5 3c-.476 0-.5.5-.5.5V4L3 4V18.5c0 .277.223.5.5.5h5c.277 0 .5-.224.5-.5V3.997L8.5 4H7v-.5c0-.277-.223-.5-.5-.5z" color="#bebebe" opacity=".35" fill="#ef2929" stroke-width="0" stroke-linecap="round" stroke-linejoin="round"/><path d="M14 5.998c-1.676.115-3 1.96-3 4V10h3zm1 0V10h3v-.002c0-2.04-1.324-3.885-3-4zM11 11V13.18c0 2.115 1.419 3.818 3.182 3.818h.636c1.763 0 3.182-1.703 3.182-3.818V11z" fill="#bebebe"/><path d="M3 15.998V18.5c0 .277.223.5.5.5h5c.277 0 .5-.223.5-.5v-2.502z" color="#bebebe" fill="#ef2929" stroke-width="0" stroke-linecap="round" stroke-linejoin="round"/></svg>