<svg height="22" width="22" xmlns="http://www.w3.org/2000/svg"><g color="#bebebe"><path style="marker:none" overflow="visible" fill="none" d="M0 0h22v22H0z"/><path d="M3 6.062V16c0 2 2 2 2 2h12c2 0 2-2 2-2V6s0-2-2-2H5S3 4 3 6.062zM5 6h4c.666.016 1.167.838.875 1.437L8.5 10.22c.355.115.75.195.97.437.332.366.53.81.53 1.344v2c0 1.112-.907 2-2 2H5v-2h3v-2H7c-.666-.016-1.166-.838-.875-1.438L7.375 8H5zm10 0c2 0 2 2 2 2v1h-2V8h-2v6h2v-2h-1v-1.969L16 10l1 .031v3.938S17 16 15 16h-2s-2 0-2-2V8c0-2 2-2 2-2z" fill="#bebebe"/></g></svg>