<svg height="22" width="22" xmlns="http://www.w3.org/2000/svg"><g color="#bebebe"><path style="marker:none" overflow="visible" fill="none" d="M0 0h22v22H0z"/><path d="M16.5 3c-.277 0-.5.222-.5.5v14c0 .276.223.5.5.5h1c.277 0 .5-.224.5-.5v-14c0-.278-.223-.5-.5-.5h-1zm-3 3c-.277 0-.5.222-.5.5v11c0 .276.223.5.5.5h1c.277 0 .5-.224.5-.5v-11c0-.278-.223-.5-.5-.5h-1zm-3 3c-.277 0-.5.222-.5.5v8c0 .276.223.5.5.5h1c.277 0 .5-.224.5-.5v-8c0-.278-.223-.5-.5-.5h-1zm-3 3c-.277 0-.5.222-.5.5v5c0 .276.223.5.5.5h1c.277 0 .5-.224.5-.5v-5c0-.278-.223-.5-.5-.5h-1z" style="marker:none" overflow="visible" opacity=".35" fill="#bebebe"/><path d="M4.5 15h1c.277 0 .5.223.5.5v2c0 .277-.223.5-.5.5h-1a.499.499 0 0 1-.5-.5v-2c0-.277.223-.5.5-.5z" style="marker:none" overflow="visible" fill="#bebebe"/></g></svg>