<svg height="22" width="22" xmlns="http://www.w3.org/2000/svg"><path style="marker:none" color="#bebebe" overflow="visible" fill="none" d="M0 22V0h22v22z"/><path d="M11.031 5C7.997 5 5.265 6.078 3 7.75l8.031 8.75L19 7.719C16.743 6.065 14.042 5 11.031 5zm0 1c2.37 0 4.474.821 6.375 2l-6.375 7-6.437-6.969C6.507 6.836 8.638 6 11.03 6z" style="marker:none" color="#000" overflow="visible" fill="#bebebe"/><path d="M11.031 7c-1.73 0-3.289.573-4.781 1.344l4.781 5.156 4.719-5.188C14.274 7.556 12.74 7 11.031 7z" style="marker:none" color="#000" overflow="visible" fill="#bebebe"/></svg>