<svg height="22" width="22" xmlns="http://www.w3.org/2000/svg"><path d="M13 3.469V6h-3v1h4V5.531L17.406 8.5l-1.656 1.563c.15.28.25.596.25.937 0 .042.003.083 0 .125L19 8.5l-5.188-4.375zM13 13v.531l.656-.531zM9 7.469l-.813.656L3 12.5l5.187 4.375.813.656V15h3v-1H8V15.469L4.594 12.5 6 11.125c-.003-.042 0-.083 0-.125 0-1.108.892-2 2-2h1v-.5z" color="#000" opacity=".35" fill="#bebebe"/><path d="M8 10a1 1 0 1 0 0 2 1 1 0 0 0 0-2zm3 0a1 1 0 1 0 0 2 1 1 0 0 0 0-2zm3 0a1 1 0 1 0 0 2 1 1 0 0 0 0-2z" fill="#bebebe"/><path style="marker:none" color="#bebebe" overflow="visible" fill="none" d="M22 0H0v22h22z"/></svg>