<svg height="22" width="22" xmlns="http://www.w3.org/2000/svg"><path style="marker:none" color="#bebebe" overflow="visible" fill="none" d="M0 22V0h22v22z"/><path d="M11.034 5C8 5 5.268 6.078 3.003 7.75l8.031 8.75 7.969-8.781C16.746 6.065 14.045 5 11.034 5zm-.062 1c2.393 0 4.524.836 6.437 2.031l-6.437 7L4.597 8c1.9-1.179 4.005-2 6.375-2z" style="marker:none" color="#000" overflow="visible" fill="#bebebe"/><path d="M10.972 9.406c-1.12 0-2.148.258-3.094.719l3.094 3.406 3.093-3.375c-.948-.461-1.973-.75-3.093-.75z" style="marker:none" color="#000" overflow="visible" fill="#bebebe"/></svg>