<svg height="22" width="22" xmlns="http://www.w3.org/2000/svg"><path d="M11 5.002c-3.035 0-5.766 1.078-8.031 2.75l.232.254h15.51l.258-.286c-2.257-1.653-4.958-2.718-7.97-2.718zm-2.291 9.004l2.29 2.496 2.266-2.496H8.71z" style="marker:none" color="#000" overflow="visible" opacity=".35" fill="#bebebe"/><path style="marker:none" color="#bebebe" overflow="visible" fill="none" d="M0 22V0h22v22z"/><path d="M5.997 9.002c-1.108 0-2 .892-2 2s.892 2 2 2 2-.892 2-2-.892-2-2-2zm5 0c-1.108 0-2 .892-2 2s.892 2 2 2 2-.892 2-2-.892-2-2-2zm5 0c-1.108 0-2 .892-2 2s.892 2 2 2 2-.892 2-2-.892-2-2-2z" style="marker:none" color="#000" overflow="visible" fill="#bebebe"/></svg>