<svg height="22" width="22" xmlns="http://www.w3.org/2000/svg"><path style="marker:none" color="#bebebe" overflow="visible" fill="none" d="M0 0h22v22H0z"/><path d="M16.5 3c-.277 0-.5.222-.5.5V13h2V3.5c0-.278-.223-.5-.5-.5h-1zm-3 3c-.277 0-.5.222-.5.5V13h2V6.5c0-.278-.223-.5-.5-.5h-1zm-3 3c-.277 0-.5.222-.5.5v8c0 .276.223.5.5.5h1c.277 0 .5-.224.5-.5v-8c0-.278-.223-.5-.5-.5h-1zm-3 3c-.277 0-.5.222-.5.5v5c0 .276.223.5.5.5h1c.277 0 .5-.224.5-.5v-5c0-.278-.223-.5-.5-.5h-1zm-3 3c-.277 0-.5.222-.5.5v2c0 .276.223.5.5.5h1c.277 0 .5-.224.5-.5v-2c0-.278-.223-.5-.5-.5h-1z" style="marker:none" color="#bebebe" overflow="visible" opacity=".35" fill="#bebebe"/><path d="M14 14v1c0 .276.1.538.281.719l.781.781-.78.781A1.015 1.015 0 0 0 14 18v1h1c.276 0 .538-.1.719-.281l.781-.782.781.782c.181.18.443.281.719.281h1v-1c0-.276-.1-.538-.281-.719l-.782-.781.782-.781c.18-.181.281-.443.281-.719v-1h-1c-.276 0-.538.1-.719.281l-.781.781s-.473-.58-.781-.78C15.503 14.14 15.276 14 15 14z" fill="#bebebe"/></svg>