<svg width="22" height="22" version="1.1" xmlns="http://www.w3.org/2000/svg">
 <defs>
  <style id="current-color-scheme" type="text/css">.ColorScheme-Text { color:#d3dae3; } .ColorScheme-Highlight { color:#4285f4; }</style>
 </defs>
 <g class="ColorScheme-Text" transform="translate(-1,-1)" fill="currentColor">
  <path d="m6 3c-1.108 0-2 0.892-2 2v14c0 1.108 0.892 2 2 2h12c1.108 0 2-0.892 2-2v-14c0-1.108-0.892-2-2-2zm0 1h12c0.554 0 1 0.446 1 1v14c0 0.554-0.446 1-1 1h-12c-0.554 0-1-0.446-1-1v-14c0-0.554 0.446-1 1-1z"/>
  <rect x="7" y="7" width="10" height="1" rx="0" ry="0"/>
  <rect x="7" y="11" width="10" height="1" rx="0" ry="0"/>
  <rect x="7" y="15" width="7" height="1" rx="0" ry="0"/>
 </g>
</svg>
