<svg height="22" width="22" xmlns="http://www.w3.org/2000/svg"><path style="marker:none" color="#bebebe" overflow="visible" fill="none" d="M0 0h22v22H0z"/><path d="M19.219 3.127a.502.502 0 0 0-.188.156l-.5.5-.156-.156-6 6 .156.156-.5.5-.031.719.719-.032.5-.5.156.157 6-6-.156-.157.5-.5c.293-.298-.025-.91-.438-.843a.651.651 0 0 0-.062 0zM5 5.002c-.554 0-1 .446-1 1v9c0 .554.446 1 1 1h12c.554 0 1-.446 1-1V7.439l-3.906 3.906-.719.688-.156-.156-.063.062-.406.031-.719.032-1.062.03L11 10.97l.031-.719.031-.406.063-.062-.156-.157.687-.718L15.562 5H5zm-1 11v1c0 .554.446 1 1 1h12c.554 0 1-.446 1-1v-1c0 .554-.446 1-1 1H5c-.554 0-1-.446-1-1z" color="#000" fill="#bebebe"/></svg>