<svg height="22" width="22" xmlns="http://www.w3.org/2000/svg"><path style="marker:none" color="#ddd" overflow="visible" fill="none" d="M22 0v22H0V0z"/><path d="M12 3c-1 0-1 1-1 1v14s0 1 1 1h6c1 0 1-1 1-1V4s0-1-1-1zm1 2.003h4v11h-4z" fill="#bebebe"/><path d="M5.5 3a.5.5 0 0 0-.5.5V4l-2-.002v14.501c0 .277.223.5.5.5l5-.002c.277 0 .5-.223.5-.5v-14.5l-.5.001H7v-.5c0-.277-.223-.5-.5-.5z" color="#bebebe" opacity=".35" fill="#ef2929" stroke-width="0" stroke-linecap="round" stroke-linejoin="round"/><path d="M3 16v2.5c0 .277.223.5.5.5l5-.002a.505.505 0 0 0 .5-.5v-2.5z" color="#bebebe" fill="#ef2929" stroke-width="0" stroke-linecap="round" stroke-linejoin="round"/></svg>