<svg height="22" width="22" xmlns="http://www.w3.org/2000/svg"><path d="M10.064 1v2.25c-3.173.4-5.75 2.735-6.532 5.797H5.54c.823-2.21 3.004-3.934 5.386-3.918.058-.002.116-.002.174-.002a5.607 5.607 0 0 1 2.486.61c1.388.63 2.42 1.876 2.923 3.31h2.023C17.75 5.985 15.173 3.65 12 3.25V1zM3.532 12.953c.782 3.062 3.359 5.398 6.532 5.797V21H12v-2.25c3.173-.4 5.75-2.735 6.532-5.797h-1.995c-.782 2.328-3.201 4.003-5.647 3.917-2.38.012-4.54-1.704-5.346-3.917z" fill="#bebebe"/><path d="M11.034 6.577c-2.354 0-4.263 1.916-4.263 4.3 0 0-.028.405.094.86h6.548a2.538 2.538 0 0 1-.925 1.244c-.99.788-2.49.502-3.334-.383H7.128a4.263 4.263 0 0 0 3.906 2.58c2.355 0 4.264-1.925 4.264-4.3 0 0 0-.442-.085-.86h-6.55c.369-.94 1.249-1.702 2.272-1.71.05-.002.102-.003.153-.002.685.014 1.35.342 1.813.851h2.04a4.263 4.263 0 0 0-3.907-2.58z" fill="#bebebe"/><path style="marker:none" color="#bebebe" overflow="visible" fill="none" d="M0 0h22v22H0z"/></svg>