<svg height="22" width="22" xmlns="http://www.w3.org/2000/svg"><g transform="translate(-77 -857.391)" color="#bebebe"><rect height="22" rx=".144" ry=".151" style="marker:none" width="22" x="77" y="857.391" overflow="visible" fill="none"/><path d="M88 860.39c-.554 0-1 .447-1 1v5.005c0 .554.446 1 1 1s1-.446 1-1v-5.004c0-.554-.446-1-1-1zm2.94 2.993a1 1 0 0 0-.543 1.809 3.993 3.993 0 0 1 1.404 4.45 3.993 3.993 0 0 1-3.77 2.753 3.994 3.994 0 0 1-3.812-2.694 3.994 3.994 0 0 1 1.336-4.472 1 1 0 1 0-1.223-1.582 6.008 6.008 0 0 0-2.002 6.709 6.006 6.006 0 0 0 5.717 4.039 6.008 6.008 0 0 0 5.654-4.13 6.007 6.007 0 0 0-2.107-6.675 1 1 0 0 0-.654-.207z" fill="#ef2929"/></g></svg>