<svg height="22" width="22" xmlns="http://www.w3.org/2000/svg"><path style="marker:none" color="#bebebe" overflow="visible" fill="none" d="M0 0h22v22H0z"/><path d="M16 5.003s2 0 2 2H4c0-2 1.969-2 1.969-2zm2 8c0 2-2 2-2 2h-1l-2 3-2-3H6c-1.108 0-2-.892-2-2z" opacity=".35" fill="#bebebe"/><path d="M6 8c-1.108 0-2 .892-2 2s.892 2 2 2 2-.892 2-2-.892-2-2-2zm5 0c-1.108 0-2 .892-2 2s.892 2 2 2 2-.892 2-2-.892-2-2-2zm5 0c-1.108 0-2 .892-2 2s.892 2 2 2 2-.892 2-2-.892-2-2-2z" style="marker:none" color="#000" overflow="visible" fill="#bebebe"/></svg>