<svg height="22" width="22" xmlns="http://www.w3.org/2000/svg"><path style="marker:none" color="#bebebe" overflow="visible" fill="none" stroke-width="1.781" d="M0 0h22v22H0z"/><path d="M11 3.003c-2.071 0-3.835 1.268-4.594 3.062A3.981 3.981 0 0 0 3 10.003a4 4 0 0 0 4 4h8.5a3.5 3.5 0 0 0 3.5-3.5 3.49 3.49 0 0 0-3.094-3.469A5.011 5.011 0 0 0 11 3.003zM5.98 14.993a.5.5 0 0 0-.426.283l-1 2a.5.5 0 1 0 .894.448l1-2a.5.5 0 0 0-.468-.73zm2.5 0a.5.5 0 0 0-.426.283l-1 2a.5.5 0 1 0 .894.448l1-2a.5.5 0 0 0-.468-.73zm2.5 0a.5.5 0 0 0-.426.283l-1 2a.5.5 0 1 0 .894.448l1-2a.5.5 0 0 0-.468-.73zm2.5 0a.5.5 0 0 0-.426.283l-1 2a.5.5 0 1 0 .894.448l1-2a.5.5 0 0 0-.468-.73zm2.5 0a.5.5 0 0 0-.426.283l-1 2a.5.5 0 1 0 .894.448l1-2a.5.5 0 0 0-.468-.73z" style="line-height:normal;text-indent:0;text-align:start;text-decoration-line:none;text-decoration-style:solid;text-decoration-color:#000;text-transform:none;block-progression:tb;white-space:normal;isolation:auto;mix-blend-mode:normal;solid-color:#000;solid-opacity:1" color="#000" font-weight="400" font-family="sans-serif" overflow="visible" fill="#bebebe" stroke-linecap="round"/></svg>