<svg height="22" width="22" xmlns="http://www.w3.org/2000/svg"><path style="marker:none" color="#bebebe" overflow="visible" fill="none" stroke-width="1.781" d="M0 0h22v22H0z"/><path d="M11 3C8.929 3 7.165 4.268 6.406 6.063A3.981 3.981 0 0 0 3 10a4 4 0 0 0 4 4h.406a3.68 3.68 0 0 1 2.125-1.688C10.151 10.99 11.506 9.974 13 10c1.908-.03 3.582 1.485 3.875 3.344.143.045.27.09.406.156a3.471 3.471 0 0 0 1.719-3 3.49 3.49 0 0 0-3.094-3.469A5.011 5.011 0 0 0 11 3zm2 9c-.34 0-.676.077-.969.25-.588.319-.89.947-1.062 1.563-.023.212-.29.124-.438.187H15c.02-1.066-.924-2.037-2-2z" fill="#bebebe"/><path d="M13 11c-1.312 0-2.405.858-2.813 2.031A2.494 2.494 0 0 0 10.5 18H16a2 2 0 1 0 0-4 3 3 0 0 0-3-3z" fill="#bebebe"/></svg>