<svg height="22" width="22" xmlns="http://www.w3.org/2000/svg"><path d="M11 3C8.929 3 7.165 4.268 6.406 6.063A3.981 3.981 0 0 0 3 10a4 4 0 0 0 4 4h8.5a3.5 3.5 0 0 0 3.5-3.5 3.49 3.49 0 0 0-3.094-3.469A5.011 5.011 0 0 0 11 3z" fill="#bebebe"/><path style="marker:none" color="#bebebe" overflow="visible" fill="none" stroke-width="1.781" d="M0 0h22v22H0z"/><path d="M6 15v1.133l-.982-.567-.5.868.98.566-.98.566.5.868.982-.567V19h1v-1.133l.982.567.5-.868-.98-.566.98-.566-.5-.868-.982.567V15H6zM11 15v1.133l-.982-.567-.5.868.98.566-.98.566.5.868.982-.567V19h1v-1.133l.982.567.5-.868-.98-.566.98-.566-.5-.868-.982.567V15h-1zM16 15v1.133l-.982-.567-.5.868.98.566-.98.566.5.868.982-.567V19h1v-1.133l.982.567.5-.868-.98-.566.98-.566-.5-.868-.982.567V15h-1z" opacity=".35" fill="#bebebe" stroke-width="4" stroke-linecap="round" stroke-linejoin="round"/></svg>