<svg width="16" height="16" version="1.1" xmlns="http://www.w3.org/2000/svg">
 <defs>
  <style id="current-color-scheme" type="text/css"/>
 </defs>
 <g transform="translate(129.86 20.179)">
  <path d="m-126.47-13.108v0.43594c0 2.1874 1.7614 4.1862 3.8134 4.4031v2.5322h-1.5904c-0.31047 0-0.56043 0.15395-0.56043 0.47598s0.24996 0.58128 0.56043 0.58128h4.7637c0.31049 0 0.56044-0.25925 0.56044-0.58128s-0.25009-0.46693-0.56044-0.47598h-1.5362v-2.5322c2.052-0.21691 3.7592-2.2157 3.7592-4.4031v-0.43594h-1.0727v0.43594c0 1.7036-1.1018 3.0984-2.6866 3.3112l7e-5 -1.7671c1e-5 -0.32202-0.61285-0.58127-0.8457-0.58127-0.23286 0-0.7915 0.25925-0.7915 0.58127v1.7671c-1.5848-0.21277-2.7407-1.64-2.7407-3.3112v-0.43594z" fill="#6c748c" stroke="#242832" stroke-opacity=".78431"/>
  <path d="m-121.86-19.179c-1.1674 0-2.1031 0.9534-2.1031 2.1429v4.2857c0 1.1895 0.93571 2.1429 2.1031 2.1429s2.1031-0.9534 2.1031-2.1429v-4.2857c0-1.1895-0.93572-2.1429-2.1031-2.1429z" fill="#fafafa"/>
  <rect x="-124.47" y="-19.679" width="5.0909" height="9.4286" rx="2.545" ry="2.545" fill="none" stroke="#4f6698" stroke-opacity=".26667"/>
 </g>
</svg>
