<svg width="16" height="16" version="1.1" xmlns="http://www.w3.org/2000/svg">
 <defs>
  <style id="current-color-scheme" type="text/css"/>
 </defs>
 <g transform="translate(-215,-48)">
  <rect x="215" y="48" width="16" height="16" rx=".5" ry=".5" fill="none"/>
  <path d="m228.5 56.5v1.5833c-0.55724-0.7263-1.0225-1.1033-2-1.1033v5.52c1.574 0 3-1.2357 3-2.76 0-0.12232-0.0127-0.24189-0.0303-0.36h0.0303v-2.88z" fill="#4c5263" stroke="#272a2f" stroke-opacity=".78431"/>
  <path d="m216.5 56.25v3h0.0303c-0.0177 0.12303-0.0303 0.24759-0.0303 0.375 0 1.5878 1.426 2.875 3 2.875v-5.75c-0.9775 0-1.4428 0.39275-2 1.1493v-1.6493z" fill="#4c5263" stroke="#272a2f" stroke-opacity=".78431"/>
  <g fill="#6e768e">
   <path d="m223.08 51c-1.4795-0.022231-3.034 0.83914-4.0803 1.9127l0.70161 0.58723c0.87138-0.91369 2.0589-1.4285 3.2984-1.4299 1.2399 7e-4 2.428 0.5152 3.2999 1.4289l0.7001-0.58618c-1.007-1.0333-2.4958-1.8914-3.9197-1.9127z"/>
   <rect x="219" y="56" width="2" height="7" rx="2" ry=".7"/>
   <rect x="225" y="56" width="2" height="7" rx="2" ry=".7"/>
  </g>
  <path d="m223 49.5c-3.5898 0-6.5 3.0323-6.5 7h1.3333c0-3.1538 2.3132-5.5263 5.1667-5.5263s5.1667 2.3725 5.1667 5.5263h1.3333c0-3.9677-2.9102-7-6.5-7z" fill="#575e71" stroke="#242832" stroke-opacity=".78431"/>
 </g>
</svg>
