<svg width="16" height="16" version="1.1" xmlns="http://www.w3.org/2000/svg">
 <defs>
  <style id="current-color-scheme" type="text/css"/>
 </defs>
 <path d="m3 1v14h10v-14z" fill="#e1e3e7"/>
 <rect x="2.4996" y=".5" width="11" height="14.999" rx=".5" ry=".5" fill="none" stroke="#000" stroke-opacity=".2398"/>
 <g>
  <g>
   <path d="m9.906 2.4982-4.8839 5.0096c-0.96202 0.75844-1.5138 1.8475-1.5159 2.992-1e-5 2.2113 2.0118 4.0039 4.4935 4.0039s4.4935-1.7926 4.4935-4.0039c-1e-3 -0.0689-4e-3 -0.13784-9e-3 -0.20664 5e-3 -0.0115 9e-3 -0.0233 9e-3 -0.036v-7.6377c0-0.0672-0.0607-0.12131-0.13616-0.12131h-2.451z" fill="#edeff3" stroke="#cbcdd1"/>
   <ellipse cx="8.4996" cy="10.499" rx="2" ry="2" fill="#e1e3e7" stroke="#cfd1d5"/>
   <rect x="4.4996" y="2.4989" width="7" height="4.2853" rx="1" ry="1" fill="#4c5263" stroke="#333641"/>
  </g>
  <path d="m5.4806 3.3992v0.35711h0.91469v-0.35711zm1.035 0v0.35711h0.86655v-0.35711zm0.9869 0v0.35711h0.75822v-0.35711zm0.87858 0v0.35711h0.33699v-0.35711zm-2.9005 0.71422v0.3571h1.4563v-0.3571zm1.6007 0v0.3571h0.69805v-0.3571zm0.83044 0v0.3571h0.32495v-0.3571zm-2.4311 1.0713v0.35711h1.6127v-0.35711zm1.7331 0v0.35711h0.84409v-0.35711z" fill="#e9eaee"/>
  <path d="m8.7174 5.1858v0.35711h1.5296v-0.35711z" fill="#e9eaee"/>
 </g>
</svg>
