<svg version="1.1" viewBox="0 0 16 16" xmlns="http://www.w3.org/2000/svg">
 <style id="current-color-scheme" type="text/css">.ColorScheme-Text {
            color:#232629;
        }</style>
 <circle cx="8" cy="8" r="6" fill="#f9f9f9" fill-rule="evenodd" style="paint-order:fill markers stroke"/>
 <g fill="#4c5263">
  <path d="m3 8a5 5 0 0 0 5 5v-5z" color="#232629" opacity=".35"/>
  <path d="m13 8a5 5 0 0 1-5 5v-5z" color="#232629" opacity=".75"/>
  <path d="m8 1a7 7 0 0 0-7 7 7 7 0 0 0 7 7 7 7 0 0 0 7-7 7 7 0 0 0-7-7zm0 1a6 6 0 0 0-0.49414 0.023438 6 6 0 0 1 0.49414-0.023438zm0.49414 0.023438a6 6 0 0 1 0.35547 0.042969 6 6 0 0 0-0.35547-0.042969zm-1.3438 0.042969a6 6 0 0 0-0.24219 0.037109 6 6 0 0 1 0.24219-0.037109zm1.9414 0.037109a6 6 0 0 1 0.32422 0.072266 6 6 0 0 0-0.32422-0.072266zm-2.5078 0.072266a6 6 0 0 0-0.26562 0.068359 6 6 0 0 1 0.26562-0.068359zm3.0977 0.068359a6 6 0 0 1 0.29883 0.099609 6 6 0 0 0-0.29883-0.099609zm-3.6621 0.099609a6 6 0 0 0-0.2793 0.10352 6 6 0 0 1 0.2793-0.10352zm4.2402 0.10352a6 6 0 0 1 0.25391 0.11133 6 6 0 0 0-0.25391-0.11133zm-4.7734 0.11133a6 6 0 0 0-0.2832 0.13672 6 6 0 0 1 0.2832-0.13672zm5.3105 0.13672a6 6 0 0 1 0.26172 0.15039 6 6 0 0 0-0.26172-0.15039zm-5.8555 0.15039a6 6 0 0 0-0.25977 0.16016 6 6 0 0 1 0.25977-0.16016zm3.0586 0.1543v5h5a5 5 0 0 1-5 5 5 5 0 0 1-5-5 5 5 0 0 1 5-5zm3.3184 0.0058594a6 6 0 0 1 0.24219 0.17188 6 6 0 0 0-0.24219-0.17188zm-6.8789 0.17188a6 6 0 0 0-0.23047 0.17578 6 6 0 0 1 0.23047-0.17578zm7.3516 0.17578a6 6 0 0 1 0.23828 0.20898 6 6 0 0 0-0.23828-0.20898zm-7.8203 0.20898a6 6 0 0 0-0.21094 0.19727 6 6 0 0 1 0.21094-0.19727zm8.2695 0.19727a6 6 0 0 1 0.19727 0.21094 6 6 0 0 0-0.19727-0.21094zm-8.6777 0.21094a6 6 0 0 0-0.20898 0.23828 6 6 0 0 1 0.20898-0.23828zm9.084 0.23828a6 6 0 0 1 0.17578 0.23047 6 6 0 0 0-0.17578-0.23047zm-9.4687 0.23047a6 6 0 0 0-0.17188 0.24219 6 6 0 0 1 0.17188-0.24219zm9.8164 0.24219a6 6 0 0 1 0.16016 0.25977 6 6 0 0 0-0.16016-0.25977zm-10.148 0.25977a6 6 0 0 0-0.15039 0.26172 6 6 0 0 1 0.15039-0.26172zm10.459 0.26172a6 6 0 0 1 0.13672 0.2832 6 6 0 0 0-0.13672-0.2832zm-10.746 0.2832a6 6 0 0 0-0.11133 0.25391 6 6 0 0 1 0.11133-0.25391zm10.994 0.25391a6 6 0 0 1 0.10352 0.2793 6 6 0 0 0-0.10352-0.2793zm-11.209 0.2793a6 6 0 0 0-0.099609 0.29883 6 6 0 0 1 0.099609-0.29883zm11.412 0.29883a6 6 0 0 1 0.06836 0.26562 6 6 0 0 0-0.06836-0.26562zm-11.58 0.26562a6 6 0 0 0-0.072266 0.32422 6 6 0 0 1 0.072266-0.32422zm11.721 0.32422a6 6 0 0 1 0.03711 0.24219 6 6 0 0 0-0.03711-0.24219zm-11.83 0.24219a6 6 0 0 0-0.042969 0.35547 6 6 0 0 1 0.042969-0.35547zm11.91 0.35547a6 6 0 0 1 0.023438 0.49414 6 6 0 0 0-0.023438-0.49414zm-11.977 0.49414a6 6 0 0 0 0.023438 0.49414 6 6 0 0 1-0.023438-0.49414zm11.977 0.49414a6 6 0 0 1-0.042968 0.35547 6 6 0 0 0 0.042968-0.35547zm-11.91 0.35547a6 6 0 0 0 0.037109 0.24219 6 6 0 0 1-0.037109-0.24219zm11.83 0.24219a6 6 0 0 1-0.072265 0.32422 6 6 0 0 0 0.072265-0.32422zm-11.721 0.32422a6 6 0 0 0 0.068359 0.26562 6 6 0 0 1-0.068359-0.26562zm11.58 0.26562a6 6 0 0 1-0.099609 0.29883 6 6 0 0 0 0.099609-0.29883zm-11.412 0.29883a6 6 0 0 0 0.10352 0.2793 6 6 0 0 1-0.10352-0.2793zm11.209 0.2793a6 6 0 0 1-0.11133 0.25391 6 6 0 0 0 0.11133-0.25391zm-10.994 0.25391a6 6 0 0 0 0.13672 0.2832 6 6 0 0 1-0.13672-0.2832zm10.746 0.2832a6 6 0 0 1-0.15039 0.26172 6 6 0 0 0 0.15039-0.26172zm-10.459 0.26172a6 6 0 0 0 0.16016 0.25976 6 6 0 0 1-0.16016-0.25976zm10.148 0.25976a6 6 0 0 1-0.17188 0.24219 6 6 0 0 0 0.17188-0.24219zm-9.8164 0.24219a6 6 0 0 0 0.17578 0.23047 6 6 0 0 1-0.17578-0.23047zm9.4687 0.23047a6 6 0 0 1-0.20898 0.23828 6 6 0 0 0 0.20898-0.23828zm-9.084 0.23828a6 6 0 0 0 0.19727 0.21094 6 6 0 0 1-0.19727-0.21094zm8.6777 0.21094a6 6 0 0 1-0.21094 0.19727 6 6 0 0 0 0.21094-0.19727zm-8.2695 0.19727a6 6 0 0 0 0.23828 0.20898 6 6 0 0 1-0.23828-0.20898zm7.8203 0.20898a6 6 0 0 1-0.23047 0.17578 6 6 0 0 0 0.23047-0.17578zm-7.3516 0.17578a6 6 0 0 0 0.24219 0.17188 6 6 0 0 1-0.24219-0.17188zm6.8789 0.17188a6 6 0 0 1-0.25976 0.16016 6 6 0 0 0 0.25976-0.16016zm-6.377 0.16016a6 6 0 0 0 0.26172 0.15039 6 6 0 0 1-0.26172-0.15039zm5.8555 0.15039a6 6 0 0 1-0.2832 0.13672 6 6 0 0 0 0.2832-0.13672zm-5.3105 0.13672a6 6 0 0 0 0.25391 0.11133 6 6 0 0 1-0.25391-0.11133zm4.7734 0.11133a6 6 0 0 1-0.2793 0.10352 6 6 0 0 0 0.2793-0.10352zm-4.2402 0.10352a6 6 0 0 0 0.29883 0.099609 6 6 0 0 1-0.29883-0.099609zm3.6621 0.099609a6 6 0 0 1-0.26562 0.06836 6 6 0 0 0 0.26562-0.06836zm-3.0977 0.06836a6 6 0 0 0 0.32422 0.072265 6 6 0 0 1-0.32422-0.072265zm2.5078 0.072265a6 6 0 0 1-0.24219 0.03711 6 6 0 0 0 0.24219-0.03711zm-1.9414 0.03711a6 6 0 0 0 0.35547 0.042968 6 6 0 0 1-0.35547-0.042968zm1.3438 0.042968a6 6 0 0 1-0.49414 0.023438 6 6 0 0 0 0.49414-0.023438z" fill-rule="evenodd" style="paint-order:fill markers stroke"/>
 </g>
</svg>
