<svg width="24" height="24" version="1.1" xmlns="http://www.w3.org/2000/svg">
 <defs>
  <style id="current-color-scheme" type="text/css"/>
 </defs>
 <g transform="translate(.99783 -.99744)">
  <path d="m11.352 2.9961c-0.23136-0.012329-0.37963 0.015347-0.39258 0.017578-0.09064-0.00685-0.15587-0.018525-0.33398-0.00195a1.0001 1.0001 0 0 0-0.0078 0.00195 1.0001 1.0001 0 0 0-0.25977 0.060547c-0.17606 0.021667-0.34075 0.023631-0.60352 0.13867a1.0001 1.0001 0 0 0-0.55664 0.62891s-0.14772 0.51981-0.24023 1.5195c-0.042424 0.45987-0.1344 0.64136-0.19141 0.72656s-0.095388 0.11195-0.27148 0.23633c-0.2675 0.18823-0.28487 0.19541-0.32031 0.21484-0.41826 0.086512-0.54484 0.14029-1.1562-0.36719-0.75673-0.62866-1.1523-0.88086-1.1523-0.88086a1.0001 1.0001 0 0 0-0.89649-0.083984c-0.69291 0.27214-0.97423 0.69936-1.0137 0.75586-0.056612 0.039537-0.48295 0.32103-0.75586 1.0117a1.0001 1.0001 0 0 0 0.082031 0.89648s0.2536 0.39733 0.88281 1.1543c0.50557 0.60791 0.45468 0.73861 0.36914 1.1523-0.019849 0.0364-0.026522 0.05531-0.21484 0.32031a1.0001 1.0001 0 0 0-0.00391 0.0019c-0.12396 0.17606-0.15135 0.21652-0.23633 0.27344s-0.26526 0.14901-0.72461 0.19141c-1.0017 0.09265-1.5078 0.24805-1.5078 0.24805a1.0001 1.0001 0 0 0-0.60352 0.55078c-0.28255 0.65203-0.24219 1.2266-0.24219 1.2266a1.0001 1.0001 0 0 0 0 0.02734s-0.040711 0.57568 0.24219 1.2285a1.0001 1.0001 0 0 0 0.60352 0.55078s0.50615 0.1554 1.5078 0.24805c0.4593 0.04239 0.63948 0.13441 0.72461 0.19141 0.085127 0.05699 0.11394 0.0977 0.24023 0.27539 0.18572 0.26241 0.19581 0.28168 0.21484 0.31641 0.086559 0.41801 0.13888 0.54446-0.36914 1.1543a1.0001 1.0001 0 0 0 0 2e-3c-0.62921 0.75692-0.88281 1.1543-0.88281 1.1543a1.0001 1.0001 0 0 0-0.082031 0.89844c0.27188 0.68564 0.69109 0.95932 0.75195 1.002 0.038069 0.05524 0.31955 0.4907 1.0195 0.76367a1.0001 1.0001 0 0 0 0.89453-0.08398s0.39561-0.2522 1.1523-0.88086c0.61041-0.50664 0.73789-0.45338 1.1543-0.36719 0.039137 0.02106 0.057973 0.02888 0.32227 0.21484 0.1731 0.12247 0.21494 0.15173 0.27148 0.23633 0.056978 0.08525 0.14898 0.26514 0.19141 0.72461 0.092765 1.0023 0.25 1.5117 0.25 1.5117a1.0001 1.0001 0 0 0 0.55078 0.59961c0.65203 0.28238 1.2266 0.24219 1.2266 0.24219a1.0001 1.0001 0 0 0 0.02734 0s0.57522 0.03987 1.2285-0.24414a1.0001 1.0001 0 0 0 0.54883-0.59766s0.15859-0.50966 0.25-1.5137l-2e-3 2e-3c0.04253-0.46051 0.12706-0.62186 0.20117-0.72656s0.19922-0.20474 0.4707-0.39844a1.0001 1.0001 0 0 0 0.05274-0.04101c0.0018-8.72e-4 0.0041-3e-3 0.0059-0.0039 0.47687-0.09554 0.57011-0.17032 1.2109 0.36133 0.75607 0.62922 1.1543 0.88281 1.1543 0.88281a1.0001 1.0001 0 0 0 0.89453 0.08203c0.69249-0.27101 0.96993-0.69382 1.0117-0.75391 0.05576-0.03869 0.48578-0.32026 0.75977-1.0137a1.0001 1.0001 0 0 0-0.08203-0.89648s-0.2536-0.39733-0.88281-1.1543a1.0001 1.0001 0 0 0 0-2e-3c-0.53421-0.64124-0.4566-0.73172-0.36133-1.2109v-2e-3a1.0001 1.0001 0 0 0 0.04297-0.05469c0.194-0.27153 0.29344-0.39464 0.39844-0.46875 0.10474-0.07393 0.26951-0.15796 0.72852-0.20117 0.99912-0.09241 1.5176-0.23828 1.5176-0.23828a1.0001 1.0001 0 0 0 0.63281-0.56055c0.29186-0.6735 0.20062-1.1842 0.19141-1.2422 0.0093-0.0579 0.10172-0.56822-0.19141-1.2422a1.0001 1.0001 0 0 0-0.63281-0.55859s-0.5185-0.14587-1.5176-0.23828c-0.46183-0.04258-0.62403-0.12732-0.72852-0.20117-0.10449-0.07386-0.20386-0.19647-0.39844-0.46875-0.01593-0.02363-0.03941-0.07944-0.04687-0.08594-0.09105-0.44649-0.15545-0.5566 0.36523-1.1816a1.0001 1.0001 0 0 0 0-0.00195c0.6273-0.75627 0.88086-1.1523 0.88086-1.1523a1.0001 1.0001 0 0 0 0.08203-0.90039c-0.27361-0.68998-0.69657-0.9698-0.75391-1.0098-0.03977-0.057431-0.31995-0.4834-1.0137-0.75586a1.0001 1.0001 0 0 0-0.89453 0.082031s-0.39712 0.25378-1.1543 0.88281c-0.35536 0.29494-0.51359 0.33317-0.61133 0.3418s-0.25792-0.018364-0.60156-0.16797c-0.35968-0.15659-0.49455-0.25436-0.55078-0.32227s-0.13476-0.19613-0.17774-0.66211a1.0001 1.0001 0 0 0-2e-3 0c-0.0924-0.99895-0.23633-1.5176-0.23633-1.5176a1.0001 1.0001 0 0 0-0.55469-0.62891c-0.3487-0.15409-0.66317-0.20642-0.89453-0.21875zm-0.63476 1.0098c0.16583-0.015429 0.28125 0 0.28125 0s0.48896-0.03178 0.84375 0.125c0 0 0.11376 0.37769 0.20117 1.3223 0.10666 1.1567 0.52917 1.4616 1.3262 1.8086 0.79701 0.34698 1.3566 0.42121 2.25-0.32031 0.73016-0.60659 1.0449-0.80469 1.0449-0.80469 0.35994 0.14136 0.68164 0.52344 0.68164 0.52344 0 1e-7 0.3788 0.32181 0.52148 0.68164-1e-6 0-0.19727 0.31497-0.80274 1.0449-0.74303 0.89195-0.67176 1.4761-0.5625 2.1289 0.05656 0.12465 0.15361 0.23086 0.20117 0.35938 0.38571 0.53976 0.69071 0.97927 1.8477 1.0859 0.94481 0.08739 1.3262 0.19922 1.3262 0.19922 0.15426 0.35469 0.11914 0.84375 0.11914 0.84375s0.03512 0.48777-0.11914 0.84375c0 0-0.38133 0.11378-1.3262 0.20117-1.1557 0.10795-1.462 0.54423-1.8477 1.084h-0.04102c-0.04757 0.12722-0.1036 0.23667-0.16016 0.36133-0.10926 0.65288-0.18051 1.237 0.5625 2.1289 0.60675 0.72995 0.80274 1.0449 0.80274 1.0449-0.14269 0.36112-0.52148 0.68164-0.52148 0.68164s-0.32237 0.38012-0.68359 0.52148c0 0-0.3141-0.19615-1.043-0.80274-0.89339-0.74152-1.4778-0.67107-2.1309-0.56055-0.12469 0.05655-0.23278 0.11261-0.36133 0.16016v0.03906c-0.53862 0.3843-0.97728 0.69232-1.084 1.8477-0.08612 0.94586-0.20117 1.2852-0.20117 1.2852-0.35479 0.15424-0.84375 0.16016-0.84375 0.16016s-0.48767-0.0059-0.84375-0.16016c0 0-0.11375-0.34058-0.20117-1.2852-0.10669-1.1553-0.54858-1.451-0.88281-1.6875-0.33423-0.23517-0.43781-0.30282-0.5625-0.35938-0.65301-0.10923-1.2355-0.18098-2.1289 0.56055-0.73016 0.60659-1.0449 0.80274-1.0449 0.80274-0.36251-0.14136-0.68359-0.52148-0.68359-0.52148s-0.3788-0.32181-0.52148-0.68164c0 0 0.19598-0.31497 0.80273-1.0449 0.74303-0.89195 0.67373-1.4761 0.56445-2.1289-0.056558-0.12594-0.12675-0.22837-0.36328-0.5625-0.23657-0.33285-0.53184-0.77615-1.6875-0.88281-0.94483-0.08739-1.2852-0.20117-1.2852-0.20117-0.15426-0.35598-0.16016-0.84375-0.16016-0.84375s0.0059-0.48778 0.16016-0.84375c1e-7 0 0.34031-0.11183 1.2852-0.19922 1.1557-0.10666 1.4523-0.55063 1.6875-0.88477 0.23653-0.33285 0.30672-0.43588 0.36328-0.56055 0.10926-0.65289 0.17728-1.237-0.56445-2.1289-0.60675-0.72995-0.80273-1.0449-0.80273-1.0449 0.14269-0.36112 0.52148-0.68164 0.52148-0.68164s0.32366-0.38207 0.68359-0.52344c0-1e-7 0.31476 0.1981 1.0449 0.80469 0.89339 0.74152 1.4759 0.66978 2.1289 0.56055 0.12599-0.056546 0.22827-0.12615 0.5625-0.36133 0.33294-0.23516 0.77611-0.53088 0.88281-1.6875 0.087404-0.94452 0.20117-1.3242 0.20117-1.3242 0.17612-0.077105 0.39538-0.10439 0.5625-0.12109v-0.00195zm0.28125 6.4277a2.571 2.5703 0 0 0 0 5.1406 2.571 2.5703 0 1 0 0-5.1406zm0 1a1.0001 1.0001 0 0 0 2e-3 0c0.60774-3.6e-4 0.93642 0.19132 1.1816 0.4668 0.24522 0.27548 0.38867 0.68142 0.38867 1.1016 0 0.42015-0.14509 0.82738-0.39062 1.1035-0.24524 0.27574-0.57361 0.46784-1.1797 0.46875-0.60643-3.59e-4 -0.93646-0.1927-1.1816-0.46875-0.24518-0.27605-0.38867-0.6831-0.38867-1.1035 0-0.42041 0.14382-0.82616 0.38867-1.1016 0.24486-0.2754 0.57325-0.46716 1.1797-0.4668z" color="#000000" color-rendering="auto" dominant-baseline="auto" fill="#25282f" image-rendering="auto" opacity=".65" shape-rendering="auto" solid-color="#000000" style="font-feature-settings:normal;font-variant-alternates:normal;font-variant-caps:normal;font-variant-ligatures:normal;font-variant-numeric:normal;font-variant-position:normal;isolation:auto;mix-blend-mode:normal;shape-padding:0;text-decoration-color:#000000;text-decoration-line:none;text-decoration-style:solid;text-indent:0;text-orientation:mixed;text-transform:none;white-space:normal"/>
  <path d="m10.717 4.0082c-0.16712 0.016701-0.38565 0.043701-0.56177 0.12081 0 0-0.11442 0.3804-0.20182 1.3249-0.1067 1.1566-0.5502 1.4522-0.88313 1.6874-0.33423 0.23518-0.43706 0.30457-0.56305 0.36112-0.65303 0.10923-1.2354 0.17992-2.1288-0.5616-0.73016-0.60659-1.0438-0.80321-1.0438-0.80321-0.35994 0.14136-0.68388 0.52177-0.68388 0.52177s-0.37922 0.32129-0.52191 0.68241c0 0 0.19668 0.31486 0.80343 1.0448 0.74173 0.89189 0.67231 1.4754 0.56305 2.1282-0.056558 0.12466-0.12597 0.22875-0.36251 0.5616-0.23525 0.33413-0.53091 0.77751-1.6866 0.88417-0.94485 0.08739-1.2855 0.20048-1.2855 0.20048-0.15426 0.35598-0.16069 0.84304-0.16069 0.84304s0.00643 0.48835 0.16069 0.84433c0 0 0.34066 0.11309 1.2855 0.20048 1.1557 0.10666 1.45 0.55004 1.6866 0.88289 0.23653 0.33413 0.30595 0.43695 0.36251 0.56289 0.10927 0.65285 0.17997 1.2363-0.56305 2.1282-0.60675 0.72995-0.80343 1.0448-0.80343 1.0448 0.14269 0.35983 0.52191 0.68112 0.52191 0.68112s0.32138 0.38169 0.68388 0.52306c0 0 0.31366-0.19662 1.0438-0.80321 0.89342-0.74152 1.4757-0.67083 2.1288-0.5616 0.12469 0.05655 0.22882 0.12466 0.56305 0.35983 0.33424 0.23647 0.77644 0.53204 0.88313 1.6874 0.08742 0.94458 0.20182 1.2851 0.20182 1.2851 0.35608 0.15421 0.84329 0.16064 0.84329 0.16064s0.48849-0.0064 0.84329-0.16064c0 0 0.11442-0.33927 0.20053-1.2851 0.1067-1.1553 0.54634-1.4625 1.085-1.8468v-0.03984c0.12855-0.04755 0.23653-0.10409 0.36122-0.16064 0.65303-0.11052 1.2367-0.17992 2.13 0.5616 0.72887 0.60659 1.0438 0.80321 1.0438 0.80321 0.36122-0.14136 0.6826-0.52177 0.6826-0.52177s0.38051-0.32129 0.5232-0.68241c0 0-0.19668-0.31486-0.80343-1.0448-0.74301-0.89189-0.67231-1.4754-0.56305-2.1282 0.05656-0.12466 0.11312-0.2339 0.16069-0.36112h0.03986c0.38565-0.53976 0.69288-0.97671 1.8486-1.0847 0.94485-0.08739 1.3253-0.20048 1.3253-0.20048 0.15426-0.35598 0.12083-0.84433 0.12083-0.84433s0.03343-0.48835-0.12083-0.84304c0 0-0.38051-0.11309-1.3253-0.20048-1.157-0.10666-1.4629-0.54489-1.8486-1.0846-0.04756-0.12851-0.14398-0.23647-0.20054-0.36112-0.10926-0.65285-0.17997-1.2363 0.56305-2.1282 0.60547-0.72995 0.80343-1.0448 0.80343-1.0448-0.14269-0.35983-0.5232-0.68241-0.5232-0.68241s-0.32138-0.3804-0.68131-0.52177c0 0-0.31495 0.19662-1.0451 0.80321-0.89342 0.74152-1.4526 0.66826-2.2496 0.32129-0.797-0.34699-1.2199-0.65156-1.3266-1.8082-0.08742-0.94458-0.20053-1.3236-0.20053-1.3236-0.35479-0.15678-0.84329-0.12338-0.84329-0.12338s-0.11569-0.015429-0.28152 0zm0.28152 6.4256a2.571 2.5703 0 1 1 0 5.1405 2.571 2.5703 0 0 1 0-5.1405z" fill="#5c657a" opacity=".65"/>
 </g>
</svg>
