<svg width="24" height="24" version="1.1" xmlns="http://www.w3.org/2000/svg">
 <defs>
  <style id="current-color-scheme" type="text/css"/>
 </defs>
 <g transform="translate(1,2)">
  <path d="m6 2c-0.554 0-1 0.446-1 1h-2v8h16v-8h-8c0-0.554-0.446-1-1-1z" fill="#fff" stroke="#000" stroke-linecap="round" stroke-linejoin="round" stroke-opacity=".26667" stroke-width="2" style="paint-order:stroke markers fill"/>
  <path d="m6 2c-0.554 0-1 0.446-1 1h-2v8h16v-8h-8c0-0.554-0.446-1-1-1z" fill="#fff" style="paint-order:stroke markers fill"/>
  <path d="m12 6-2 2h-9l3e-7 11h20v-13z" fill="#6ba4e7" stroke="#003479" stroke-linecap="round" stroke-linejoin="round" stroke-opacity=".56078" stroke-width="2"/>
  <path d="m12 6-2 2h-9l3e-7 11h20v-13z" fill="#6ba4e7"/>
  <path d="m12 6-2 2h-6.3926l-2.6074 0.69922v2.0703l17.799-4.7695h-6.7988zm9 1.4082-20 5.3594v2.0703l20-5.3594zm0 4-20 5.3594v2.0703l20-5.3594zm0 3.9316-13.66 3.6602h7.7266l5.9336-1.5898v-2.0703z" fill="#fff" opacity=".35" style="paint-order:fill markers stroke"/>
 </g>
</svg>
