<svg width="128px" height="128px" version="1.1" viewBox="0 0 128 128" xmlns="http://www.w3.org/2000/svg">
 <g fill="none" stroke="#99c1f1" stroke-linecap="round" stroke-width="8">
  <path d="m7.0703 61.012h86.422"/>
  <path transform="matrix(0 -1 1 0 0 -172)" d="m-201.9 93.492c0 5.5586-2.9648 10.695-7.7773 13.473-4.8125 2.7812-10.742 2.7812-15.555 0-4.8164-2.7773-7.7812-7.9141-7.7812-13.473"/>
  <path d="m7.0703 73.023h92.547"/>
  <path transform="matrix(0 1 1 0 0 -172)" d="m281.57 84.477c6.8516 6.8555 8.25 17.453 3.4023 25.848-4.8438 8.3945-14.723 12.484-24.082 9.9766-9.3633-2.5078-15.871-10.992-15.871-20.684"/>
  <path d="m7.0703 85.031h52.91"/>
  <path transform="matrix(0 1 1 0 0 -172)" d="m268.71 50.766c4.6484 1.2422 7.5742 5.8359 6.7383 10.574-0.83594 4.7383-5.1562 8.0547-9.9492 7.6328-4.793-0.41797-8.4727-4.4336-8.4727-9.2422"/>
 </g>
 <path d="m86.828 13.016c-3.6641 2.0078-7.2266 4.3008-10.105 7.3281-4.7812 5.0195-7.4531 11.984-7.25 18.914-0.082031-5.4648 1.7969-10.938 5.2148-15.203 2.125-2.6523 4.8281-4.8398 7.8672-6.3633 1.8047 1.2227 3.1016 3.168 3.5352 5.3047 0.35938 1.7539 0.14453 3.6016-0.45312 5.293-0.60156 1.6914-1.5781 3.2305-2.7266 4.6055-1.2617 1.5039-2.7305 2.8242-4.0234 4.2969-1.2969 1.4766-2.4414 3.1562-2.8711 5.0703-0.44531 1.9648-0.09375 4.0742 0.88281 5.8359 1.0352 1.8672 2.7617 3.3398 4.7734 4.0664-3.707-0.42969-7.3281-1.5781-10.609-3.3594-6.3789-3.4727-11.438-9.543-13.078-16.617-0.83984-3.6133-0.78516-7.4648 0.42188-10.969s3.6094-6.6328 6.8242-8.4766c1.9883-1.1406 4.3047-1.7812 6.582-1.5195 1.7656 0.20312 3.4648 0.95312 4.8047 2.1211 1.5234-3.1836 4.5742-5.5938 8.0195-6.3438 1.1055-0.24219 2.293-0.3125 3.3398 0.11328 0.52344 0.21094 1 0.55078 1.3438 1s0.54297 1.0117 0.52344 1.5742c-0.011719 0.39453-0.12891 0.77734-0.31641 1.125-0.1875 0.34375-0.44141 0.65234-0.73047 0.91797-0.57812 0.53125-1.2812 0.90625-1.9688 1.2852zm0 0" fill="#3fc379" stroke="#328e5a" stroke-linecap="round" stroke-linejoin="round" stroke-width="2"/>
 <path d="m7.0703 72h92.547" fill="none" stroke="#c8def7" stroke-linecap="round" stroke-width="2"/>
 <path transform="matrix(0 1 1 0 0 -172)" d="m280.55 84.477c6.8555 6.8555 8.25 17.453 3.4023 25.848-4.8438 8.3945-14.723 12.484-24.082 9.9766-9.3633-2.5078-15.871-10.992-15.871-20.684" fill="none" stroke="#c8def7" stroke-linecap="round" stroke-width="2"/>
 <path d="m7.0703 60h86.422" fill="none" stroke="#c8def7" stroke-linecap="round" stroke-width="2"/>
 <path transform="matrix(0 -1 1 0 0 -172)" d="m-200.89 93.492c0 5.5586-2.9648 10.695-7.7773 13.473-4.8164 2.7812-10.746 2.7812-15.559 0-4.8125-2.7773-7.7773-7.9141-7.7773-13.473" fill="none" stroke="#c8def7" stroke-linecap="round" stroke-width="2"/>
 <path d="m7.0703 84h52.91" fill="none" stroke="#c8def7" stroke-linecap="round" stroke-width="2"/>
 <path transform="matrix(0 1 1 0 0 -172)" d="m267.68 50.766c4.6484 1.2422 7.5742 5.8359 6.7383 10.574-0.83594 4.7383-5.1562 8.0547-9.9492 7.6328-4.793-0.41797-8.4727-4.4336-8.4727-9.2422" fill="none" stroke="#c8def7" stroke-linecap="round" stroke-width="2"/>
</svg>
