<svg width="128px" height="128px" version="1.1" viewBox="0 0 128 128" xmlns="http://www.w3.org/2000/svg">
 <path d="m64 2a6 6 0 0 0-6 6v1.4023l-0.91211-0.54688a6 6 0 0 0-4.543-0.67578 6 6 0 0 0-3.6895 2.7324 6 6 0 0 0 2.0566 8.2324l7.0879 4.2539v30.293l-26.488-15.293-0.14062-8.2656a6 6 0 0 0-6.1016-5.8984 6 6 0 0 0-5.8984 6.1016l0.017578 1.0625-0.79883-0.46094a6 6 0 0 0-4.5527-0.59961 6 6 0 0 0-3.6426 2.7949 6 6 0 0 0 2.1953 8.1953l0.80273 0.46289-0.93359 0.51758a6 6 0 0 0-2.334 8.1582 6 6 0 0 0 8.1582 2.334l7.2285-4.0117 26.537 15.32-26.564 15.336-7.2246-4.0117a6 6 0 0 0-4.5625-0.52344 6 6 0 0 0-3.5957 2.8574 6 6 0 0 0 2.334 8.1582l0.92969 0.51562-0.80273 0.46484a6 6 0 0 0-2.1953 8.1953 6 6 0 0 0 8.1953 2.1953l0.80273-0.46289-0.017578 1.0664a6 6 0 0 0 5.9004 6.0996 6 6 0 0 0 6.0996-5.9004l0.13672-8.2637 26.516-15.309v30.551l-7.0879 4.2539a6 6 0 0 0-2.0566 8.2324 6 6 0 0 0 8.2324 2.0566l0.91211-0.54687v0.92578a6 6 0 0 0 6 6 6 6 0 0 0 6-6v-0.92578l0.91211 0.54687a6 6 0 0 0 8.2324-2.0566 6 6 0 0 0-2.0566-8.2324l-7.0879-4.2539v-30.604l26.25 15.154 0.13672 8.2637a6 6 0 0 0 6.0996 5.9004 6 6 0 0 0 5.9004-6.0996l-0.01758-1.0684 1.2168 0.70312a6 6 0 0 0 8.1953-2.1953 6 6 0 0 0-2.1953-8.1953l-1.2168-0.70312 0.92969-0.51562a6 6 0 0 0 2.334-8.1582 6 6 0 0 0-3.5957-2.8574 6 6 0 0 0-4.5625 0.52344l-7.2246 4.0117-26.205-15.129 26.178-15.113 7.2246 4.0117a6 6 0 0 0 8.1582-2.334 6 6 0 0 0-2.334-8.1582l-0.92968-0.51562 1.2168-0.70312a6 6 0 0 0 2.1953-8.1953 6 6 0 0 0-3.6426-2.7949 6 6 0 0 0-4.5527 0.59961l-1.2168 0.70312 0.01758-1.0684a6 6 0 0 0-5.9004-6.0996 6 6 0 0 0-6.0996 5.9004l-0.13672 8.2637-26.223 15.139v-30.346l7.0879-4.2539a6 6 0 0 0 2.0566-8.2324 6 6 0 0 0-8.2324-2.0566l-0.91211 0.54688v-1.4023a6 6 0 0 0-6-6z" color="#000000" fill="#99c1f1" stroke="#5492de" stroke-linecap="round" stroke-width="2"/>
 <path d="m64 6a2 2 0 0 0-2 2v8.4688l-6.9707-4.1836a2 2 0 0 0-2.7441 0.68555 2 2 0 0 0 0.68555 2.7441l9.0293 5.418v39.484l-34.449-19.889-0.17969-10.527a2 2 0 0 0-2.0332-1.9668 2 2 0 0 0-1.9668 2.0332l0.13867 8.1289-6.9199-3.9961a2 2 0 0 0-2.7324 0.73242 2 2 0 0 0 0.73242 2.7324l6.9199 3.9961-7.1094 3.9453a2 2 0 0 0-0.77734 2.7188 2 2 0 0 0 2.7188 0.77734l9.207-5.1094 34.496 19.916-34.523 19.932-9.2031-5.1094a2 2 0 0 0-2.7188 0.77734 2 2 0 0 0 0.77734 2.7188l7.1074 3.9453-6.9219 3.9961a2 2 0 0 0-0.73242 2.7324 2 2 0 0 0 2.7324 0.73242l6.9219-3.9961-0.13672 8.1289a2 2 0 0 0 1.9668 2.0332 2 2 0 0 0 2.0332-1.9668l0.17578-10.527 34.477-19.904v39.742l-9.0293 5.418a2 2 0 0 0-0.68555 2.7441 2 2 0 0 0 2.7441 0.68555l6.9707-4.1836v7.9922a2 2 0 0 0 2 2 2 2 0 0 0 2-2v-7.9922l6.9707 4.1836a2 2 0 0 0 2.7441-0.68555 2 2 0 0 0-0.68555-2.7441l-9.0293-5.418v-39.797l34.211 19.752 0.17578 10.527a2 2 0 0 0 2.0332 1.9668 2 2 0 0 0 1.9668-2.0332l-0.13672-8.1289 7.3359 4.2344a2 2 0 0 0 2.7324-0.73242 2 2 0 0 0-0.73242-2.7324l-7.334-4.2344 7.1055-3.9453a2 2 0 0 0 0.77735-2.7188 2 2 0 0 0-1.1973-0.95312 2 2 0 0 0-1.5215 0.17578l-9.2031 5.1094-34.164-19.725 34.137-19.709 9.2031 5.1094a2 2 0 0 0 2.7188-0.77734 2 2 0 0 0-0.77734-2.7188l-7.1055-3.9453 7.334-4.2344a2 2 0 0 0 0.73243-2.7324 2 2 0 0 0-2.7324-0.73242l-7.3359 4.2344 0.13672-8.1289a2 2 0 0 0-1.9668-2.0332 2 2 0 0 0-2.0332 1.9668l-0.17579 10.527-34.184 19.736v-39.539l9.0293-5.418a2 2 0 0 0 0.68555-2.7441 2 2 0 0 0-2.7441-0.68555l-6.9707 4.1836v-8.4688a2 2 0 0 0-2-2z" color="#000000" fill="#ffffff" stroke-linecap="round"/>
</svg>
