<svg width="128" height="128" version="1.1" xmlns="http://www.w3.org/2000/svg" xmlns:xlink="http://www.w3.org/1999/xlink">
 <path d="M79.492 48.063A28.926 28.926 0 0053.227 64.94a21.711 21.711 0 00-9.899-2.414c-11.414.012-20.867 8.868-21.625 20.258-.023-.004-.05-.004-.074-.004-7.988 0-14.469 6.477-14.469 14.465 0 7.992 6.48 14.469 14.469 14.469h81.012c9.586 0 17.359-7.774 17.359-17.36a17.358 17.358 0 00-11.625-16.367 28.6 28.6 0 00.05-.992c0-15.98-12.952-28.933-28.933-28.933zm0 0" fill="#f8fbfe" stroke="#c5d1dd" stroke-opacity=".94826" stroke-width="2"/>
</svg>
