<svg width="128" height="128" version="1.1" xmlns="http://www.w3.org/2000/svg" xmlns:xlink="http://www.w3.org/1999/xlink">
 <g fill="#62a0ea" stroke="#317cd8" stroke-linecap="round" stroke-width="2">
  <path d="m28.512 118.49 8.023-25.426" color="#000000"/>
  <path d="m37.438 90.205a3 3 0 0 0-3.7637 1.959l-8.0234 25.426a3 3 0 0 0 1.959 3.7637 3 3 0 0 0 3.7637-1.959l8.0234-25.426a3 3 0 0 0-1.959-3.7637z" color="#000000"/>
 </g>
 <path d="m27.477 118.39 8.023-25.425" fill="#62a0ea" stroke="#c8def7" stroke-linecap="round"/>
 <g fill="#62a0ea" stroke="#317cd8" stroke-linecap="round" stroke-width="2">
  <path d="m42.512 118.49 8.023-25.426" color="#000000"/>
  <path d="m51.438 90.205a3 3 0 0 0-3.7637 1.959l-8.0234 25.426a3 3 0 0 0 1.959 3.7637 3 3 0 0 0 3.7637-1.959l8.0234-25.426a3 3 0 0 0-1.959-3.7637z" color="#000000"/>
 </g>
 <path d="m41.477 118.39 8.023-25.425" fill="#62a0ea" stroke="#c8def7" stroke-linecap="round"/>
 <g fill="#62a0ea" stroke="#317cd8" stroke-linecap="round" stroke-width="2">
  <path d="m56.512 118.49 8.023-25.426" color="#000000"/>
  <path d="m65.438 90.205a3 3 0 0 0-3.7637 1.959l-8.0234 25.426a3 3 0 0 0 1.959 3.7637 3 3 0 0 0 3.7637-1.959l8.0234-25.426a3 3 0 0 0-1.959-3.7637z" color="#000000"/>
 </g>
 <path d="m55.477 118.39 8.023-25.425" fill="#62a0ea" stroke="#c8def7" stroke-linecap="round"/>
 <g fill="#62a0ea" stroke="#317cd8" stroke-linecap="round" stroke-width="2">
  <path d="m70.512 118.49 8.023-25.426" color="#000000"/>
  <path d="m79.438 90.205a3 3 0 0 0-3.7637 1.959l-8.0234 25.426a3 3 0 0 0 1.959 3.7637 3 3 0 0 0 3.7637-1.959l8.0234-25.426a3 3 0 0 0-1.959-3.7637z" color="#000000"/>
 </g>
 <path d="m69.477 118.39 8.023-25.425" fill="#62a0ea" stroke="#c8def7" stroke-linecap="round"/>
 <g fill="#62a0ea" stroke="#317cd8" stroke-linecap="round" stroke-width="2">
  <path d="m84.512 118.49 8.023-25.426" color="#000000"/>
  <path d="m93.438 90.205a3 3 0 0 0-3.7637 1.959l-8.0234 25.426a3 3 0 0 0 1.959 3.7637 3 3 0 0 0 3.7637-1.959l8.0234-25.426a3 3 0 0 0-1.959-3.7637z" color="#000000"/>
 </g>
 <path d="m83.477 118.39 8.023-25.425" fill="#62a0ea" stroke="#c8def7" stroke-linecap="round"/>
 <path d="M79.492 18.063A28.926 28.926 0 0053.227 34.94a21.711 21.711 0 00-9.899-2.414c-11.414.012-20.867 8.868-21.625 20.258-.023-.004-.05-.004-.074-.004-7.988 0-14.469 6.477-14.469 14.465 0 7.992 6.48 14.469 14.469 14.469h81.012c9.586 0 17.359-7.774 17.359-17.36a17.358 17.358 0 00-11.625-16.367c.023-.332.04-.664.05-.992 0-15.98-12.952-28.933-28.933-28.933zm0 0" fill="#9a9996" stroke="#6d6c69" stroke-width="2"/>
</svg>
