<svg width="128" height="128" version="1.1" xmlns="http://www.w3.org/2000/svg" xmlns:xlink="http://www.w3.org/1999/xlink">
 <path d="M79.492 20.062a28.926 28.926 0 00-26.265 16.88 21.711 21.711 0 00-9.899-2.415c-11.414.012-20.867 8.868-21.625 20.258-.023-.004-.05-.004-.074-.004-7.988 0-14.469 6.477-14.469 14.465 0 7.992 6.48 14.469 14.469 14.469h81.012c9.586 0 17.359-7.774 17.359-17.36a17.358 17.358 0 00-11.625-16.367c.023-.332.04-.664.05-.992 0-15.98-12.952-28.934-28.933-28.934zm0 0" fill="#5e5c64" stroke="#37353b" stroke-width="2"/>
 <path d="M106.668 110.348L73.684 48.352c-.95-1.723-2.664-2.68-4.575-2.68s-3.632 1.148-4.597 2.871l-32.739 61.996c-.77 1.527-.78 3.633.168 5.164.95 1.531 2.477 2.297 4.387 2.297h65.723c1.91 0 3.636-.957 4.406-2.488.961-1.532.969-3.446.211-5.164zm0 0" fill="#ff7800" stroke="#a65812" stroke-width="2"/>
 <path d="m69.07 103.26c-2.015 0-3.566-1.578-3.566-3.63 0-2.206 1.394-3.628 3.566-3.628 2.168 0 3.41 1.422 3.567 3.629 0 2.05-1.399 3.629-3.567 3.629zm-1.136-11.728-1.965-15.719h6.203l-1.965 18.313z" fill="#ffffff"/>
</svg>
