<svg width="128" height="128" version="1.1" xmlns="http://www.w3.org/2000/svg" xmlns:xlink="http://www.w3.org/1999/xlink">
 <g fill="none" stroke-linecap="round">
  <path d="m19.773 94.05h70.368" stroke="#99c1f1" stroke-width="4"/>
  <path d="m19.773 93.656h70.368" stroke="#c8def7"/>
  <path d="m27.773 102.05h70.368" stroke="#99c1f1" stroke-width="4"/>
  <path d="m27.773 101.66h70.368" stroke="#c8def7"/>
  <path d="m23.773 110.05h70.368" stroke="#99c1f1" stroke-width="4"/>
  <path d="m23.773 109.66h70.368" stroke="#c8def7"/>
  <path d="m45.773 118.05h70.368" stroke="#99c1f1" stroke-width="4"/>
  <path d="m45.773 117.66h70.368" stroke="#c8def7"/>
 </g>
 <path d="m79.912 20.349a28.926 28.926 0 0 0-26.265 16.877 21.711 21.711 0 0 0-9.899-2.414c-11.414 0.012-20.867 8.868-21.625 20.258-0.023-4e-3 -0.05-4e-3 -0.074-4e-3 -7.988 0-14.469 6.477-14.469 14.465 0 7.992 6.48 14.469 14.469 14.469h81.012c9.586 0 17.359-7.774 17.359-17.36a17.358 17.358 0 0 0-11.625-16.367 28.6 28.6 0 0 0 0.05-0.992c0-15.98-12.952-28.933-28.933-28.933z" fill="#f8fbfe" stroke="#c5d1dd" stroke-opacity=".94826" stroke-width="2"/>
</svg>
