<svg width="128" height="128" version="1.1" xmlns="http://www.w3.org/2000/svg" xmlns:xlink="http://www.w3.org/1999/xlink">
 <clipPath id="e">
  <path d="m7 18h113v70h-113z"/>
 </clipPath>
 <clipPath id="f">
  <path d="M79.496 18.063a28.927 28.927 0 00-26.27 16.878 21.711 21.711 0 00-9.898-2.414c-11.414.012-20.867 8.868-21.625 20.258-.027-.004-.05 0-.074-.004-7.988 0-14.465 6.477-14.465 14.465 0 .168.02.332.024.5h-.024V69C7.164 80 15 88 26 88h72c14 0 22-9 22-22v-1.145h-.02c.012-.168.016-.335.02-.5a17.358 17.358 0 00-11.625-16.367 30.2 30.2 0 00.055-.996c0-15.976-12.957-28.93-28.934-28.93zm0 0"/>
 </clipPath>
 <filter id="c" x="0" y="0" width="1" height="1">
  <feColorMatrix in="SourceGraphic" values="0 0 0 0 1 0 0 0 0 1 0 0 0 0 1 0 0 0 1 0"/>
 </filter>
 <mask id="g">
  <g filter="url(#c)">
   <path d="M0 0h128v128H0z" fill-opacity=".439"/>
  </g>
 </mask>
 <path d="m59 60-11 35h24.391l-1.237 4h-8.154l5 27 24-27h-10.72l4.41-14h-21.393l7.703-25z" fill="#f9f06b" stroke="#dbcd10" stroke-width="2"/>
 <path d="m79.492 17.347a28.926 28.926 0 0 0-26.265 16.88 21.711 21.711 0 0 0-9.899-2.415c-11.414 0.012-20.867 8.868-21.625 20.258-0.023-4e-3 -0.05-4e-3 -0.074-4e-3 -7.988 0-14.469 6.477-14.469 14.465 0 7.992 6.48 14.469 14.469 14.469h81.012c9.586 0 17.359-7.774 17.359-17.36a17.358 17.358 0 0 0-11.625-16.367c0.023-0.332 0.04-0.664 0.05-0.992 0-15.98-12.952-28.934-28.933-28.934z" fill="#5e5c64" stroke="#37353b" stroke-width="2"/>
</svg>
