<svg width="128" height="128" version="1.1" xmlns="http://www.w3.org/2000/svg" xmlns:xlink="http://www.w3.org/1999/xlink">
 <path d="m79.912 15.349a28.926 28.926 0 0 0-26.265 16.877 21.711 21.711 0 0 0-9.899-2.414c-11.414 0.012-20.867 8.868-21.625 20.258-0.023-4e-3 -0.05-4e-3 -0.074-4e-3 -7.988 0-14.469 6.477-14.469 14.465 0 7.992 6.48 14.469 14.469 14.469h81.012c9.586 0 17.359-7.774 17.359-17.36a17.358 17.358 0 0 0-11.625-16.367 28.6 28.6 0 0 0 0.05-0.992c0-15.98-12.952-28.933-28.933-28.933z" fill="#f8fbfe" stroke="#c5d1dd" stroke-opacity=".94826" stroke-width="2"/>
 <path d="M44 88l-12 12 .027.012a7.025 7.025 0 004.945 12.016A7.025 7.025 0 0044 105zm26.027 7.973l-12 12 .028.011A7.025 7.025 0 0063 120a7.025 7.025 0 007.027-7.027zM92 85.984l-8.492 8.493.02.007a4.97 4.97 0 003.5 8.5A4.97 4.97 0 0092 98.016zm0 0" fill="#62a0ea" stroke="#4588d9" stroke-linecap="round" stroke-linejoin="round" stroke-width="2"/>
 <path d="M36 104a2 2 0 11-2-2 2 2 0 012 2zm26 8a2 2 0 11-2-2 2 2 0 012 2zm24.32-15.383c0 .781-.632 1.418-1.414 1.418a1.417 1.417 0 010-2.832c.781 0 1.414.633 1.414 1.414zm0 0" fill="#99c1f1"/>
</svg>
