<?xml version="1.0" encoding="UTF-8"?>
<svg height="128px" viewBox="0 0 128 128" width="128px" xmlns="http://www.w3.org/2000/svg">
    <g fill="none" stroke-linecap="round">
        <path d="m 95.519531 39.625 c -8.832031 5.359375 -27.371093 7.722656 -43.96875 5.605469 c -16.59375 -2.117188 -26.460937 -8.101563 -23.394531 -14.199219 c 3.070312 -6.09375 18.179688 -10.535156 35.84375 -10.535156" stroke="#62a0ea" stroke-width="10"/>
        <path d="m 95.519531 37.625 c -8.832031 5.359375 -27.371093 7.722656 -43.96875 5.605469 c -16.59375 -2.117188 -26.460937 -8.101563 -23.394531 -14.199219 c 3.070312 -6.09375 18.179688 -10.535156 35.84375 -10.535156" stroke="#99c1f1" stroke-width="2"/>
        <g stroke="#62a0ea" stroke-width="10">
            <path d="m 95.519531 29.625 c -7.359375 4.464844 -21.675781 6.9375 -36.269531 6.265625 s -26.59375 -4.359375 -30.40625 -9.34375 c -3.808594 -4.980469 1.320312 -10.277344 13 -13.417969 c 11.679688 -3.136718 27.605469 -3.503906 40.355469 -0.925781"/>
            <path d="m 89.734375 50.265625 c -8 2.800781 -19.265625 4.144531 -30.484375 3.625 c -11.21875 -0.515625 -21.113281 -2.832031 -26.769531 -6.265625"/>
            <path d="m 82.199219 62.292969 c -14.265625 2.882812 -32.285157 2.054687 -43.933594 -2.027344"/>
            <path d="m 89.734375 70.265625 c -9.195313 3.222656 -22.59375 4.480469 -35.152344 3.300781"/>
            <path d="m 89.734375 80.265625 c -6.824219 2.390625 -16.082031 3.734375 -25.734375 3.734375"/>
            <path d="m 82.199219 92.292969 c -5.535157 1.117187 -11.8125 1.707031 -18.199219 1.707031"/>
            <path d="m 73.417969 103.566406 c -6.167969 0.578125 -12.667969 0.578125 -18.835938 0"/>
            <path d="m 73.417969 113.566406 c -3.070313 0.289063 -6.238281 0.433594 -9.417969 0.433594"/>
            <path d="m 65.117188 123.992188 c -0.371094 0.003906 -0.746094 0.007812 -1.117188 0.007812"/>
        </g>
        <path d="m 95.519531 27.625 c -7.359375 4.464844 -21.675781 6.9375 -36.269531 6.265625 s -26.59375 -4.359375 -30.40625 -9.34375 c -3.808594 -4.980469 1.320312 -10.277344 13 -13.417969 c 11.679688 -3.136718 27.605469 -3.503906 40.355469 -0.925781" stroke="#99c1f1" stroke-width="2"/>
        <path d="m 89.734375 48.265625 c -8 2.800781 -19.265625 4.144531 -30.484375 3.625 c -11.21875 -0.515625 -21.113281 -2.832031 -26.769531 -6.265625" stroke="#99c1f1" stroke-width="2"/>
        <path d="m 82.199219 60.292969 c -14.265625 2.882812 -32.285157 2.054687 -43.933594 -2.027344" stroke="#99c1f1" stroke-width="2"/>
        <path d="m 89.734375 68.265625 c -9.195313 3.222656 -22.59375 4.480469 -35.152344 3.300781" stroke="#99c1f1" stroke-width="2"/>
        <path d="m 89.734375 78.265625 c -6.824219 2.390625 -16.082031 3.734375 -25.734375 3.734375" stroke="#99c1f1" stroke-width="2"/>
        <path d="m 82.199219 90.292969 c -5.535157 1.117187 -11.8125 1.707031 -18.199219 1.707031" stroke="#99c1f1" stroke-width="2"/>
        <path d="m 73.417969 101.566406 c -6.167969 0.578125 -12.667969 0.578125 -18.835938 0" stroke="#99c1f1" stroke-width="2"/>
        <path d="m 73.417969 111.566406 c -3.070313 0.289063 -6.238281 0.433594 -9.417969 0.433594" stroke="#99c1f1" stroke-width="2"/>
        <path d="m 65.117188 121.992188 c -0.371094 0.003906 -0.746094 0.007812 -1.117188 0.007812" stroke="#99c1f1" stroke-width="2"/>
    </g>
</svg>
