<?xml version="1.0" encoding="UTF-8" standalone="no"?>
<svg
   xmlns:dc="http://purl.org/dc/elements/1.1/"
   xmlns:cc="http://creativecommons.org/ns#"
   xmlns:rdf="http://www.w3.org/1999/02/22-rdf-syntax-ns#"
   xmlns:svg="http://www.w3.org/2000/svg"
   xmlns="http://www.w3.org/2000/svg"
   xmlns:sodipodi="http://sodipodi.sourceforge.net/DTD/sodipodi-0.dtd"
   xmlns:inkscape="http://www.inkscape.org/namespaces/inkscape"
   version="1.0"
   width="16"
   height="16"
   id="svg3783"
   sodipodi:docname="extension.svg"
   inkscape:version="0.92.4 (5da689c313, 2019-01-14)">
  <sodipodi:namedview
     pagecolor="#ffffff"
     bordercolor="#666666"
     borderopacity="1"
     objecttolerance="10"
     gridtolerance="10"
     guidetolerance="10"
     inkscape:pageopacity="0"
     inkscape:pageshadow="2"
     inkscape:window-width="1366"
     inkscape:window-height="697"
     id="namedview56"
     showgrid="false"
     inkscape:zoom="10.429825"
     inkscape:cx="4.7130058"
     inkscape:cy="11.892985"
     inkscape:window-x="0"
     inkscape:window-y="0"
     inkscape:window-maximized="1"
     inkscape:current-layer="svg3783" />
  <metadata
     id="metadata43">
    <rdf:RDF>
      <cc:Work
         rdf:about="">
        <dc:format>image/svg+xml</dc:format>
        <dc:type
           rdf:resource="http://purl.org/dc/dcmitype/StillImage" />
        <dc:title></dc:title>
      </cc:Work>
    </rdf:RDF>
  </metadata>
  <defs
     id="defs3785" />
  <path
     id="rect4168"
     d="M 6.2068966,0 C 5.0642384,0 4.1379311,0.9263073 4.1379311,2.0689655 4.1386759,2.8098345 4.5355079,3.493757 5.1783405,3.862069 H 0.5517242 C 0.246069,3.862069 0,4.1081379 0,4.4137931 V 8.4886853 C 0.3683122,7.8458527 1.0522344,7.4490215 1.7931035,7.4482759 c 1.1426582,0 2.0689655,0.9263073 2.0689655,2.0689655 0,1.1426586 -0.9263073,2.0689656 -2.0689655,2.0689656 C 1.0518996,11.585131 0.3678993,11.187636 0,10.544181 v 4.904095 C 0,15.753931 0.246069,16 0.5517242,16 H 5.1783405 C 4.5355079,15.631688 4.1386768,14.947766 4.1379311,14.206897 c 0,-1.142659 0.9263073,-2.068966 2.0689655,-2.068966 1.1426584,0 2.0689654,0.926307 2.0689654,2.068966 C 8.274762,14.9481 7.877291,15.632101 7.233836,16 h 4.352371 c 0.305655,0 0.551724,-0.246069 0.551724,-0.551724 v -4.904095 c 0.367899,0.643455 1.0519,1.040948 1.793104,1.042026 C 15.073693,11.586207 16,10.6599 16,9.5172414 16,8.3745832 15.073693,7.4482759 13.931035,7.4482759 13.190166,7.4490207 12.506243,7.8458527 12.137931,8.4886853 V 4.4137931 c 0,-0.3056552 -0.246069,-0.5517241 -0.551724,-0.5517241 H 7.233836 C 7.877291,3.4941697 8.274784,2.8101694 8.275862,2.0689655 8.275862,0.9263073 7.349555,0 6.2068966,0 Z"
     style="opacity:1;fill:#a4e451;fill-opacity:1;stroke:none;stroke-width:1;stroke-linejoin:round;stroke-miterlimit:4;stroke-dasharray:none;stroke-opacity:0.49803922"
     inkscape:connector-curvature="0" />
</svg>
