<?xml version="1.0" encoding="UTF-8" standalone="no"?>
<!-- Created with Inkscape (http://www.inkscape.org/) -->

<svg
   xmlns:dc="http://purl.org/dc/elements/1.1/"
   xmlns:cc="http://creativecommons.org/ns#"
   xmlns:rdf="http://www.w3.org/1999/02/22-rdf-syntax-ns#"
   xmlns:svg="http://www.w3.org/2000/svg"
   xmlns="http://www.w3.org/2000/svg"
   xmlns:sodipodi="http://sodipodi.sourceforge.net/DTD/sodipodi-0.dtd"
   xmlns:inkscape="http://www.inkscape.org/namespaces/inkscape"
   width="16"
   height="16"
   viewBox="0 0 4.2333333 4.2333335"
   version="1.1"
   id="svg3222"
   inkscape:version="0.92.4 (5da689c313, 2019-01-14)"
   sodipodi:docname="text-x-c++.svg">
  <defs
     id="defs3216">
    <linearGradient
       id="linearGradient2490-6-6">
      <stop
         id="stop2492-1-04"
         style="stop-color:#791235;stop-opacity:1"
         offset="0" />
      <stop
         id="stop2494-0-8"
         style="stop-color:#dd3b27;stop-opacity:1"
         offset="1" />
    </linearGradient>
    <linearGradient
       id="linearGradient3316-1">
      <stop
         id="stop3318-0"
         style="stop-color:#ffffff;stop-opacity:1;"
         offset="0" />
      <stop
         offset="0.09090909"
         style="stop-color:#ffffff;stop-opacity:0.23529412;"
         id="stop3320-8" />
      <stop
         id="stop3322-1"
         style="stop-color:#ffffff;stop-opacity:0.15686275;"
         offset="0.9545455" />
      <stop
         id="stop3324-6"
         style="stop-color:#ffffff;stop-opacity:0.39215687;"
         offset="1" />
    </linearGradient>
  </defs>
  <sodipodi:namedview
     id="base"
     pagecolor="#ffffff"
     bordercolor="#666666"
     borderopacity="1.0"
     inkscape:pageopacity="0.0"
     inkscape:pageshadow="2"
     inkscape:zoom="3.959798"
     inkscape:cx="-6.6006515"
     inkscape:cy="29.714505"
     inkscape:document-units="mm"
     inkscape:current-layer="layer1"
     showgrid="true"
     units="px"
     inkscape:window-width="1366"
     inkscape:window-height="697"
     inkscape:window-x="0"
     inkscape:window-y="0"
     inkscape:window-maximized="1">
    <inkscape:grid
       type="xygrid"
       id="grid885" />
  </sodipodi:namedview>
  <metadata
     id="metadata3219">
    <rdf:RDF>
      <cc:Work
         rdf:about="">
        <dc:format>image/svg+xml</dc:format>
        <dc:type
           rdf:resource="http://purl.org/dc/dcmitype/StillImage" />
        <dc:title></dc:title>
      </cc:Work>
    </rdf:RDF>
  </metadata>
  <g
     inkscape:label="Layer 1"
     inkscape:groupmode="layer"
     id="layer1"
     transform="translate(0,-292.76665)">
    <path
       inkscape:connector-curvature="0"
       style="fill:#8fca35;stroke-width:0.26458332;fill-opacity:1"
       d="m 2.1166667,293.29582 v 0.26458 H 1.8520834 v 0.26459 h 0.2645833 v 0.26458 H 2.38125 v -0.26458 H 2.6458334 V 293.5604 H 2.38125 v -0.26458 z m 1.0583333,0 v 0.26458 H 2.9104167 v 0.26459 H 3.175 v 0.26458 h 0.2645834 v -0.26458 H 3.7041667 V 293.5604 H 3.4395834 v -0.26458 z m -2.38125,1.32292 c -0.14657916,0 -0.26458333,0.118 -0.26458333,0.26458 v 1.32292 c 0,0.14658 0.11800417,0.26458 0.26458333,0.26458 h 1.3229167 c 0.1465792,0 0.2645833,-0.118 0.2645833,-0.26458 v -0.17622 l -0.2645833,-0.0884 c 0,0.14658 -0.1180042,0.26459 -0.2645833,0.26459 H 1.0583333 c -0.14657913,0 -0.2645833,-0.11801 -0.2645833,-0.26459 v -0.79375 c 0,-0.14658 0.11800417,-0.26458 0.2645833,-0.26458 h 0.7937501 c 0.1465791,0 0.2645833,0.118 0.2645833,0.26458 L 2.38125,295.0595 v -0.17621 c 0,-0.14658 -0.1180041,-0.26458 -0.2645833,-0.26458 z"
       id="path2" />
  </g>
</svg>
