<?xml version="1.0" encoding="UTF-8" standalone="no"?>
<svg
   xmlns:dc="http://purl.org/dc/elements/1.1/"
   xmlns:cc="http://creativecommons.org/ns#"
   xmlns:rdf="http://www.w3.org/1999/02/22-rdf-syntax-ns#"
   xmlns:svg="http://www.w3.org/2000/svg"
   xmlns="http://www.w3.org/2000/svg"
   xmlns:sodipodi="http://sodipodi.sourceforge.net/DTD/sodipodi-0.dtd"
   xmlns:inkscape="http://www.inkscape.org/namespaces/inkscape"
   height="16"
   id="svg7384"
   version="1.1"
   width="16"
   inkscape:version="0.91 r13725"
   sodipodi:docname="window-pop-out-symbolic.svg">
  <sodipodi:namedview
     pagecolor="#ffffff"
     bordercolor="#666666"
     borderopacity="1"
     objecttolerance="10"
     gridtolerance="10"
     guidetolerance="10"
     inkscape:pageopacity="0"
     inkscape:pageshadow="2"
     inkscape:window-width="1223"
     inkscape:window-height="676"
     id="namedview18"
     showgrid="false"
     inkscape:object-paths="true"
     inkscape:object-nodes="true"
     showborder="false"
     inkscape:zoom="1"
     inkscape:cx="7.2050821"
     inkscape:cy="6.1177714"
     inkscape:window-x="0"
     inkscape:window-y="27"
     inkscape:window-maximized="0"
     inkscape:current-layer="svg7384">
    <inkscape:grid
       type="xygrid"
       id="grid4152" />
  </sodipodi:namedview>
  <metadata
     id="metadata90">
    <rdf:RDF>
      <cc:Work
         rdf:about="">
        <dc:format>image/svg+xml</dc:format>
        <dc:type
           rdf:resource="http://purl.org/dc/dcmitype/StillImage" />
        <dc:title>elementary Symbolic Icon Theme</dc:title>
      </cc:Work>
    </rdf:RDF>
  </metadata>
  <title
     id="title9167">elementary Symbolic Icon Theme</title>
  <defs
     id="defs7386">
    <filter
       color-interpolation-filters="sRGB"
       id="filter7554">
      <feBlend
         id="feBlend7556"
         in2="BackgroundImage"
         mode="darken" />
    </filter>
    <filter
       color-interpolation-filters="sRGB"
       id="filter7554-7">
      <feBlend
         id="feBlend7556-6"
         in2="BackgroundImage"
         mode="darken" />
    </filter>
  </defs>
  <g
     id="layer9"
     label="status"
     style="display:inline"
     transform="translate(-313.0004,-188)" />
  <g
     id="layer10"
     style="display:inline"
     transform="translate(-313.0004,-188)" />
  <g
     id="layer13"
     style="display:inline"
     transform="translate(-313.0004,-188)" />
  <g
     id="layer14"
     transform="translate(-313.0004,-188)" />
  <g
     id="layer15"
     style="display:inline"
     transform="translate(-313.0004,-188)" />
  <g
     id="g71291"
     style="display:inline"
     transform="translate(-313.0004,-188)" />
  <path
     style="color:#000000;font-style:normal;font-variant:normal;font-weight:normal;font-stretch:normal;font-size:medium;line-height:normal;font-family:Sans;-inkscape-font-specification:Sans;text-indent:0;text-align:start;text-decoration:none;text-decoration-line:none;letter-spacing:normal;word-spacing:normal;text-transform:none;direction:ltr;block-progression:tb;writing-mode:lr-tb;baseline-shift:baseline;text-anchor:start;display:inline;overflow:visible;visibility:visible;fill:#bebebe;fill-opacity:1;stroke:none;stroke-width:2;marker:none;enable-background:new"
     d="m 9,6.9492188 -6.9316406,0.068359 c -0.5821714,0.00575 -0.8085249,0.330049 -0.9101563,0.6132813 -0.00708,0.01534 -0.00933,0.031215 -0.015625,0.046875 -0.05643,0.1813792 -0.074238,0.3398437 -0.074219,0.3398437 l 0,3.0000002 0,3 c 5e-5,0.52358 0.47642,0.99995 1,1 l 3,0 2,0 L 9,14.949219 c 0.52358,-5e-5 0.99995,-0.47642 1,-1 l 0,-3 0,-3.0000002 c 2e-5,0 -0.017788,-0.1677309 -0.080078,-0.3574219 -0.0035,-0.00831 -0.00411,-0.017175 -0.00781,-0.025391 C 9.8114124,7.2823091 9.5851615,6.9434423 9,6.9492188 Z M 2,9 9,9 9,13.974609 9,14 4.9042969,14 2.0683594,14.017578 2.0683594,14 2,14 2,9 Z"
     id="rect6099-9"
     inkscape:connector-curvature="0" />
  <g
     id="layer12"
     style="display:inline"
     transform="translate(-312.0004,-188)">
    <path
       d="m 322.0004,188.99996 2.25,2.22322 -1.71428,1.71428 c -0.0129,0.0129 -0.0147,0.0134 -0.0268,0.0268 -0.38059,0.42057 -0.37876,1.06767 0.0268,1.47321 0.40534,0.40535 1.05262,0.43359 1.47321,0.0536 l 0.21429,-0.21428 1.55357,-1.52679 2.22321,2.25 0,-6 z"
       id="path3288-51-5"
       style="color:#bebebe;display:inline;overflow:visible;visibility:visible;fill:#bebebe;fill-opacity:1;fill-rule:nonzero;stroke:none;stroke-width:1;marker:none;enable-background:accumulate"
       inkscape:connector-curvature="0"
       sodipodi:nodetypes="ccscccccccc" />
  </g>
</svg>
