<?xml version="1.0" encoding="UTF-8" standalone="no"?>
<svg
   xmlns:dc="http://purl.org/dc/elements/1.1/"
   xmlns:cc="http://creativecommons.org/ns#"
   xmlns:rdf="http://www.w3.org/1999/02/22-rdf-syntax-ns#"
   xmlns:svg="http://www.w3.org/2000/svg"
   xmlns="http://www.w3.org/2000/svg"
   xmlns:sodipodi="http://sodipodi.sourceforge.net/DTD/sodipodi-0.dtd"
   xmlns:inkscape="http://www.inkscape.org/namespaces/inkscape"
   version="1.1"
   width="48"
   height="48"
   id="svg6649"
   sodipodi:docname="accessories-calculator.svg"
   inkscape:version="0.92.4 (5da689c313, 2019-01-14)">
  <sodipodi:namedview
     pagecolor="#ffffff"
     bordercolor="#666666"
     borderopacity="1"
     objecttolerance="10"
     gridtolerance="10"
     guidetolerance="10"
     inkscape:pageopacity="0"
     inkscape:pageshadow="2"
     inkscape:window-width="1366"
     inkscape:window-height="710"
     id="namedview112"
     showgrid="false"
     inkscape:zoom="6.9532167"
     inkscape:cx="30.635163"
     inkscape:cy="33.857717"
     inkscape:window-x="0"
     inkscape:window-y="32"
     inkscape:window-maximized="1"
     inkscape:current-layer="svg6649" />
  <defs
     id="defs6651" />
  <metadata
     id="metadata6654">
    <rdf:RDF>
      <cc:Work
         rdf:about="">
        <dc:format>image/svg+xml</dc:format>
        <dc:type
           rdf:resource="http://purl.org/dc/dcmitype/StillImage" />
        <dc:title />
      </cc:Work>
    </rdf:RDF>
  </metadata>
  <rect
     width="38"
     height="42"
     rx="1.5"
     ry="1.5"
     x="5"
     y="2"
     id="rect5505-21"
     style="color:#000000;fill:#e2e2e2;fill-opacity:1;fill-rule:nonzero;stroke:none;stroke-width:0.99999994;marker:none;visibility:visible;display:inline;overflow:visible;enable-background:accumulate" />
  <rect
     width="39"
     height="43"
     rx="2"
     ry="2.2051282"
     x="4.5000124"
     y="1.4999954"
     id="rect5505-21-3-2"
     style="opacity:0.35;color:#000000;fill:none;stroke:#000000;stroke-width:1;stroke-linecap:round;stroke-linejoin:round;stroke-miterlimit:4;stroke-opacity:1;stroke-dasharray:none;stroke-dashoffset:0;marker:none;visibility:visible;display:inline;overflow:visible;enable-background:accumulate" />
  <rect
     width="14"
     height="10"
     rx="1"
     ry="1"
     x="25.579311"
     y="30.5"
     id="rect5505-21-0"
     style="color:#000000;fill:#3e85e2;fill-opacity:1;fill-rule:nonzero;stroke:none;stroke-width:0.99999994;marker:none;visibility:visible;display:inline;overflow:visible;enable-background:accumulate" />
  <rect
     width="14"
     height="10"
     rx="1"
     ry="1"
     x="25.579311"
     y="30.5"
     id="rect5505-21-3-2-3"
     style="opacity:0.25;color:#000000;fill:none;stroke:#001764;stroke-width:1;stroke-linecap:round;stroke-linejoin:round;stroke-miterlimit:4;stroke-opacity:1;stroke-dasharray:none;stroke-dashoffset:0;marker:none;visibility:visible;display:inline;overflow:visible;enable-background:accumulate" />
  <rect
     width="14"
     height="10"
     rx="1"
     ry="1"
     x="8.5"
     y="30.5"
     id="rect5505-21-0-0"
     style="color:#000000;fill:#74767c;fill-opacity:1;fill-rule:nonzero;stroke:none;stroke-width:0.99999994;marker:none;visibility:visible;display:inline;overflow:visible;enable-background:accumulate" />
  <rect
     width="14"
     height="10"
     rx="1"
     ry="1"
     x="8.5"
     y="30.5"
     id="rect5505-21-3-2-3-2"
     style="opacity:0.25;color:#000000;fill:none;stroke:#000000;stroke-width:1;stroke-linecap:round;stroke-linejoin:round;stroke-miterlimit:4;stroke-opacity:1;stroke-dasharray:none;stroke-dashoffset:0;marker:none;visibility:visible;display:inline;overflow:visible;enable-background:accumulate" />
  <rect
     width="14"
     height="10"
     rx="1"
     ry="1"
     x="8.5"
     y="18.5"
     id="rect5505-21-0-0-9"
     style="color:#000000;fill:#74767c;fill-opacity:1;fill-rule:nonzero;stroke:none;stroke-width:0.99999994;marker:none;visibility:visible;display:inline;overflow:visible;enable-background:accumulate" />
  <rect
     width="14"
     height="10"
     rx="1"
     ry="1"
     x="8.5"
     y="18.5"
     id="rect5505-21-3-2-3-2-6"
     style="opacity:0.25;color:#000000;fill:none;stroke:#000000;stroke-width:1;stroke-linecap:round;stroke-linejoin:round;stroke-miterlimit:4;stroke-opacity:1;stroke-dasharray:none;stroke-dashoffset:0;marker:none;visibility:visible;display:inline;overflow:visible;enable-background:accumulate" />
  <rect
     width="14"
     height="10"
     rx="1"
     ry="1"
     x="25.579311"
     y="18.5"
     id="rect5505-21-0-0-9-4"
     style="color:#000000;fill:#74767c;fill-opacity:1;fill-rule:nonzero;stroke:none;stroke-width:0.99999994;marker:none;visibility:visible;display:inline;overflow:visible;enable-background:accumulate" />
  <rect
     width="14"
     height="10"
     rx="1"
     ry="1"
     x="25.579311"
     y="18.5"
     id="rect5505-21-3-2-3-2-6-0"
     style="opacity:0.25;color:#000000;fill:none;stroke:#000000;stroke-width:1;stroke-linecap:round;stroke-linejoin:round;stroke-miterlimit:4;stroke-opacity:1;stroke-dasharray:none;stroke-dashoffset:0;marker:none;visibility:visible;display:inline;overflow:visible;enable-background:accumulate" />
  <rect
     width="32"
     height="11"
     rx="2"
     ry="2"
     x="8"
     y="5"
     id="rect4940-8"
     style="color:#000000;fill:#f2f2f2;fill-opacity:1;fill-rule:nonzero;stroke:none;stroke-width:0.75;marker:none;visibility:visible;display:inline;overflow:visible;enable-background:accumulate" />
  <rect
     width="31"
     height="10"
     rx="1"
     ry="1"
     x="8.5"
     y="5.5"
     id="rect4940-8-8"
     style="opacity:0.5;color:#000000;fill:none;stroke:#50525e;stroke-width:0.99999994;stroke-miterlimit:4;stroke-opacity:1;stroke-dasharray:none;marker:none;visibility:visible;display:inline;overflow:visible;enable-background:accumulate" />
  <path
     d="m 25.09375,8 c -0.622613,5e-6 -1.144211,0.1763366 -1.59375,0.5 l 0.46875,0.71875 c 0.204539,-0.1326101 0.396169,-0.2273013 0.5625,-0.28125 0.168576,-0.053941 0.338164,-0.093746 0.5,-0.09375 0.467519,4.2e-6 0.687497,0.1893864 0.6875,0.5625 -3e-6,0.2427545 -0.07243,0.3988569 -0.25,0.5 -0.175322,0.098902 -0.461643,0.156253 -0.84375,0.15625 l -0.375,0 0,0.8125 0.375,0 c 0.413574,2e-6 0.717441,0.02835 0.90625,0.125 0.188804,0.09665 0.281247,0.268489 0.28125,0.5 -3e-6,0.258486 -0.08592,0.445621 -0.25,0.5625 -0.164084,0.116881 -0.437354,0.187501 -0.78125,0.1875 -0.224771,10e-7 -0.426986,-0.03306 -0.65625,-0.09375 -0.229266,-0.06069 -0.465196,-0.153348 -0.65625,-0.25 l 0,0.90625 c 0.413575,0.177568 0.902547,0.25 1.4375,0.25 0.638343,0 1.12485,-0.112019 1.46875,-0.375 0.343894,-0.265228 0.531246,-0.650735 0.53125,-1.125 -4e-6,-0.325914 -0.107963,-0.590194 -0.3125,-0.78125 -0.204544,-0.193299 -0.508411,-0.294298 -0.90625,-0.34375 l 0,-0.03125 c 0.337152,-0.08091 0.594688,-0.221718 0.78125,-0.4375 C 26.655305,9.7529744 26.749996,9.4954379 26.75,9.1875 26.749996,8.818882 26.609193,8.5192925 26.3125,8.3125 26.018049,8.1057169 25.603975,8.000005 25.09375,8 z m 6.03125,0.0625 -1.59375,1.28125 0.5,0.625 L 30.59375,9.5 c 0.06743,-0.053941 0.201926,-0.1706737 0.375,-0.34375 l -0.03125,0.53125 0,0.46875 0,2.84375 1.03125,0 0,-4.9375 z m 4.21875,0 -2.15625,3.1875 0,0.71875 2.09375,0 0,1.03125 1.03125,0 0,-1.03125 0.59375,0 0,-0.8125 -0.59375,0 0,-3.09375 z M 35.3125,9.25 c -0.0067,0.04271 0.01124,0.2035254 0,0.46875 -0.01124,0.2652312 -0.03125,0.485646 -0.03125,0.625 l 0,0.8125 -1.1875,0 L 35,9.8125 C 35.116878,9.6371831 35.229333,9.4343146 35.3125,9.25 z m -7.15625,2.6875 c -0.193303,10e-7 -0.367604,0.0596 -0.46875,0.15625 -0.101147,0.09665 -0.125,0.248694 -0.125,0.4375 0,0.182064 0.05286,0.305104 0.15625,0.40625 0.103393,0.0989 0.248693,0.15625 0.4375,0.15625 0.18431,0 0.302855,-0.0551 0.40625,-0.15625 0.103392,-0.103394 0.156248,-0.228682 0.15625,-0.40625 -2e-6,-0.18431 -0.05286,-0.338601 -0.15625,-0.4375 -0.101148,-0.0989 -0.219692,-0.156249 -0.40625,-0.15625 z"
     id="text5060"
     style="font-size:6.90492249px;font-style:normal;font-variant:normal;font-weight:bold;font-stretch:normal;text-align:end;line-height:125%;letter-spacing:0px;word-spacing:0px;text-anchor:end;fill:#666666;fill-opacity:1;stroke:none;font-family:Open Sans;-inkscape-font-specification:Open Sans Bold" />
  <path
     d="m 15,21 0,2 -2,0 0,1 2,0 0,2 1,0 0,-2 2,0 0,-1 -2,0 0,-2 -1,0 z m 15.09375,2 0,1 0.625,0 1.25,0 1.25,0 0.625,0 1.25,0 0,-1 -1.25,0 -0.625,0 -1.25,0 -0.625,0 -1.25,0 z M 13,33 l 0,0.625 c 0,0.172587 0.0744,0.324394 0.1875,0.4375 L 14.59375,35.5 13.1875,36.9375 C 13.074394,37.050606 13,37.202413 13,37.375 l 0,0.625 0.625,0 c 0.172587,0 0.324394,-0.0744 0.4375,-0.1875 L 15.5,36.40625 16.9375,37.8125 C 17.050606,37.925606 17.202413,38 17.375,38 L 18,38 18,37.375 c 0,-0.172587 -0.0744,-0.324394 -0.1875,-0.4375 L 16.40625,35.5 17.8125,34.0625 C 17.925606,33.949394 18,33.797587 18,33.625 L 18,33 17.375,33 c -0.172587,0 -0.324394,0.0744 -0.4375,0.1875 L 15.5,34.59375 14.0625,33.1875 C 13.949394,33.074394 13.797587,33 13.625,33 L 13,33 z m 17,1 0,1 0.625,0 1.25,0 1.25,0 0.625,0 1.25,0 0,-1 -1.25,0 -0.625,0 -1.25,0 -0.625,0 -1.25,0 z m 0,2 0,1 0.625,0 1.25,0 1.25,0 0.625,0 1.25,0 0,-1 -1.25,0 -0.625,0 -1.25,0 -0.625,0 -1.25,0 z"
     id="path4086"
     style="font-size:9.881423px;font-style:normal;font-variant:normal;font-weight:normal;font-stretch:normal;line-height:125%;letter-spacing:0px;word-spacing:0px;fill:#ffffff;fill-opacity:1;stroke:none;display:inline;enable-background:new;font-family:Helvetica;-inkscape-font-specification:Helvetica" />
</svg>
