<?xml version="1.0" encoding="UTF-8" standalone="no"?>
<svg
   xmlns:dc="http://purl.org/dc/elements/1.1/"
   xmlns:cc="http://creativecommons.org/ns#"
   xmlns:rdf="http://www.w3.org/1999/02/22-rdf-syntax-ns#"
   xmlns:svg="http://www.w3.org/2000/svg"
   xmlns="http://www.w3.org/2000/svg"
   xmlns:sodipodi="http://sodipodi.sourceforge.net/DTD/sodipodi-0.dtd"
   xmlns:inkscape="http://www.inkscape.org/namespaces/inkscape"
   version="1.1"
   width="48"
   height="48"
   id="svg4405"
   sodipodi:docname="accessories-character-map.svg"
   inkscape:version="0.92.4 (5da689c313, 2019-01-14)">
  <sodipodi:namedview
     pagecolor="#ffffff"
     bordercolor="#666666"
     borderopacity="1"
     objecttolerance="10"
     gridtolerance="10"
     guidetolerance="10"
     inkscape:pageopacity="0"
     inkscape:pageshadow="2"
     inkscape:window-width="1366"
     inkscape:window-height="697"
     id="namedview40"
     showgrid="false"
     inkscape:zoom="4.9166667"
     inkscape:cx="9.3167721"
     inkscape:cy="33.158852"
     inkscape:window-x="0"
     inkscape:window-y="0"
     inkscape:window-maximized="1"
     inkscape:current-layer="svg4405" />
  <defs
     id="defs4407" />
  <metadata
     id="metadata4410">
    <rdf:RDF>
      <cc:Work
         rdf:about="">
        <dc:format>image/svg+xml</dc:format>
        <dc:type
           rdf:resource="http://purl.org/dc/dcmitype/StillImage" />
        <dc:title />
      </cc:Work>
    </rdf:RDF>
  </metadata>
  <rect
     style="color:#000000;fill:none;stroke:#555761;stroke-width:1;stroke-linecap:round;stroke-linejoin:round;stroke-miterlimit:4;stroke-opacity:1;stroke-dasharray:none;stroke-dashoffset:0;marker:none;visibility:visible;display:inline;overflow:visible;enable-background:accumulate;opacity:0.25"
     id="rect5505-21-6"
     y="5.5"
     x="4.5000081"
     ry="2"
     rx="2"
     height="39"
     width="39" />
  <rect
     width="37.999935"
     height="37.999935"
     rx="1.5"
     ry="1.5"
     x="5"
     y="6.0000648"
     id="rect5505"
     style="color:#000000;fill:#f3f3f3;fill-opacity:1;fill-rule:nonzero;stroke:none;stroke-width:1;marker:none;visibility:visible;display:inline;overflow:visible;enable-background:accumulate" />
  <g
     style="color:#000000;font-style:normal;font-variant:normal;font-weight:normal;font-stretch:normal;font-size:20.27930832px;line-height:125%;font-family:'Open Sans';-inkscape-font-specification:'Open Sans';text-indent:0;text-align:start;text-decoration:none;text-decoration-line:none;letter-spacing:0px;word-spacing:0px;text-transform:none;direction:ltr;block-progression:tb;writing-mode:lr-tb;baseline-shift:baseline;text-anchor:start;display:inline;overflow:visible;visibility:visible;opacity:0.5;fill:#ffffff;fill-opacity:1;fill-rule:nonzero;stroke:none;marker:none;enable-background:accumulate"
     id="text4643-5-8-9-9-3-6-3-7" />
  <g
     style="font-style:normal;font-variant:normal;font-weight:normal;font-stretch:normal;font-size:20.27930832px;line-height:125%;font-family:'Open Sans';-inkscape-font-specification:'Open Sans';text-align:start;letter-spacing:0px;word-spacing:0px;writing-mode:lr-tb;text-anchor:start;display:inline;opacity:0.7;fill:#555761;fill-opacity:1;stroke:none"
     id="text4643-5-8-9-9-3-6-3">
    <path
       d="m 36.666613,19.10636 q 0,1.406085 -0.435689,2.574522 -0.435688,1.168436 -1.227848,1.812067 -0.792161,0.64363 -1.821969,0.64363 -0.851573,0 -1.435791,-0.514904 -0.584219,-0.514904 -0.693141,-1.316967 l -0.07922,0 q -0.39608,0.861475 -1.13873,1.346673 -0.732749,0.485198 -1.742754,0.485198 -1.4853,0 -2.326971,-1.010004 -0.831768,-1.019907 -0.831768,-2.76266 0,-2.020009 1.168436,-3.277564 1.168437,-1.267457 3.069622,-1.267457 0.673337,0 1.524909,0.128726 0.851573,0.118824 1.534811,0.336668 l -0.24755,4.653943 0,0.217844 q 0,1.762557 1.316967,1.762557 0.901082,0 1.465497,-1.059514 0.564414,-1.069417 0.564414,-2.772562 0,-1.792263 -0.732749,-3.138936 -0.732748,-1.346673 -2.089323,-2.069519 -1.346673,-0.732748 -3.099328,-0.732748 -2.208147,0 -3.841978,0.920886 -1.633831,0.910985 -2.495306,2.61413 -0.861474,1.693243 -0.861474,3.921194 0,3.020112 1.594223,4.644041 1.594223,1.623929 4.594531,1.623929 2.079421,0 4.317274,-0.851573 l 0,1.316967 q -1.901185,0.831769 -4.317274,0.831769 -3.594429,0 -5.584732,-1.9705 -1.980401,-1.980401 -1.980401,-5.525319 0,-2.574521 1.059515,-4.584629 1.059514,-2.010107 3.020112,-3.10923 1.960597,-1.109024 4.49551,-1.109024 2.128932,0 3.782567,0.901082 1.663537,0.891181 2.564619,2.544816 0.910985,1.643733 0.910985,3.792468 z m -10.238675,1.297163 q 0,2.515109 1.930892,2.515109 2.049715,0 2.227951,-3.099327 l 0.138628,-2.584424 q -0.712944,-0.19804 -1.554615,-0.19804 -1.287261,0 -2.020009,0.89118 -0.722847,0.891181 -0.722847,2.475502 z"
       style="fill:#555761"
       id="path4173" />
  </g>
  <path
     style="color:#000000;fill:#000000;fill-opacity:1;fill-rule:nonzero;stroke:none;stroke-width:1;marker:none;visibility:visible;display:inline;overflow:visible;enable-background:accumulate;opacity:0.1"
     d="M 5 39.5 L 5 42.5 C 5 43.331 5.669 44 6.5 44 L 41.5 44 C 42.331 44 43 43.331 43 42.5 L 43 39.5 C 43 40.331 42.331 41 41.5 41 L 6.5 41 C 5.669 41 5 40.331 5 39.5 z "
     id="rect5505-0" />
</svg>
