<?xml version="1.0" encoding="UTF-8" standalone="no"?>
<svg
   xmlns:dc="http://purl.org/dc/elements/1.1/"
   xmlns:cc="http://creativecommons.org/ns#"
   xmlns:rdf="http://www.w3.org/1999/02/22-rdf-syntax-ns#"
   xmlns:svg="http://www.w3.org/2000/svg"
   xmlns="http://www.w3.org/2000/svg"
   xmlns:xlink="http://www.w3.org/1999/xlink"
   xmlns:sodipodi="http://sodipodi.sourceforge.net/DTD/sodipodi-0.dtd"
   xmlns:inkscape="http://www.inkscape.org/namespaces/inkscape"
   version="1.1"
   width="48"
   height="48"
   id="svg4375"
   sodipodi:docname="accessories-text-editor.svg"
   inkscape:version="0.92.4 (5da689c313, 2019-01-14)">
  <sodipodi:namedview
     pagecolor="#ffffff"
     bordercolor="#666666"
     borderopacity="1"
     objecttolerance="10"
     gridtolerance="10"
     guidetolerance="10"
     inkscape:pageopacity="0"
     inkscape:pageshadow="2"
     inkscape:window-width="1366"
     inkscape:window-height="697"
     id="namedview120"
     showgrid="true"
     inkscape:zoom="6.9532167"
     inkscape:cx="13.568281"
     inkscape:cy="27.914001"
     inkscape:window-x="0"
     inkscape:window-y="0"
     inkscape:window-maximized="1"
     inkscape:current-layer="svg4375">
    <inkscape:grid
       type="xygrid"
       id="grid963" />
  </sodipodi:namedview>
  <defs
     id="defs4377">
    <linearGradient
       x1="9"
       y1="29.056757"
       x2="9"
       y2="26.02973"
       id="linearGradient3407"
       xlink:href="#linearGradient3290-678"
       gradientUnits="userSpaceOnUse"
       gradientTransform="matrix(0.6380091,-0.6411367,0.8596263,0.8553493,-3.661342,16.73061)" />
    <linearGradient
       id="linearGradient3290-678">
      <stop
         id="stop2607"
         style="stop-color:#ece5a5;stop-opacity:1"
         offset="0" />
      <stop
         id="stop2609"
         style="stop-color:#fcfbf2;stop-opacity:1"
         offset="1" />
    </linearGradient>
    <linearGradient
       x1="5.5178981"
       y1="37.371799"
       x2="9.5220556"
       y2="41.391716"
       id="linearGradient3409"
       xlink:href="#linearGradient3191-577"
       gradientUnits="userSpaceOnUse"
       gradientTransform="matrix(0.5603647,0.02418622,0.02415646,0.5596736,19.546549,13.104104)" />
    <linearGradient
       id="linearGradient3191-577">
      <stop
         id="stop2613"
         style="stop-color:#dbce48;stop-opacity:1"
         offset="0" />
      <stop
         id="stop2615"
         style="stop-color:#c5b625;stop-opacity:1"
         offset="1" />
    </linearGradient>
    <linearGradient
       x1="30.037716"
       y1="24.989594"
       x2="30.037716"
       y2="30.000141"
       id="linearGradient3412"
       xlink:href="#linearGradient3223-699"
       gradientUnits="userSpaceOnUse"
       gradientTransform="matrix(0.6380091,-0.6411367,0.8596262,0.8553492,-2.328784,15.391523)" />
    <linearGradient
       id="linearGradient3223-699">
      <stop
         id="stop2599"
         style="stop-color:#b1b1b1;stop-opacity:1"
         offset="0" />
      <stop
         id="stop2601"
         style="stop-color:#ffffff;stop-opacity:1"
         offset="0.5" />
      <stop
         id="stop2603"
         style="stop-color:#8f8f8f;stop-opacity:1"
         offset="1" />
    </linearGradient>
    <linearGradient
       x1="30.037716"
       y1="24.989594"
       x2="30.037716"
       y2="30.000141"
       id="linearGradient3415"
       xlink:href="#linearGradient3240-907"
       gradientUnits="userSpaceOnUse"
       gradientTransform="matrix(0.6380091,-0.6411367,0.8596262,0.8553492,-1.428304,14.486632)" />
    <linearGradient
       id="linearGradient3240-907">
      <stop
         id="stop2591"
         style="stop-color:#565656;stop-opacity:1"
         offset="0" />
      <stop
         id="stop2593"
         style="stop-color:#9a9a9a;stop-opacity:1"
         offset="0.5" />
      <stop
         id="stop2595"
         style="stop-color:#545454;stop-opacity:1"
         offset="1" />
    </linearGradient>
    <linearGradient
       x1="30.037716"
       y1="24.989594"
       x2="30.037716"
       y2="30.000141"
       id="linearGradient3418"
       xlink:href="#linearGradient3223-768"
       gradientUnits="userSpaceOnUse"
       gradientTransform="matrix(0.6380091,-0.6411367,0.8596262,0.8553492,-2.966794,16.032658)" />
    <linearGradient
       id="linearGradient3223-768">
      <stop
         id="stop2583"
         style="stop-color:#b1b1b1;stop-opacity:1"
         offset="0" />
      <stop
         id="stop2585"
         style="stop-color:#ffffff;stop-opacity:1"
         offset="0.5" />
      <stop
         id="stop2587"
         style="stop-color:#8f8f8f;stop-opacity:1"
         offset="1" />
    </linearGradient>
    <linearGradient
       x1="30.037716"
       y1="24.989594"
       x2="30.037716"
       y2="30.000141"
       id="linearGradient3421"
       xlink:href="#linearGradient3240-686"
       gradientUnits="userSpaceOnUse"
       gradientTransform="matrix(0.6380091,-0.6411367,0.8596262,0.8553492,-2.784076,15.849046)" />
    <linearGradient
       id="linearGradient3240-686">
      <stop
         id="stop2575"
         style="stop-color:#565656;stop-opacity:1"
         offset="0" />
      <stop
         id="stop2577"
         style="stop-color:#9a9a9a;stop-opacity:1"
         offset="0.5" />
      <stop
         id="stop2579"
         style="stop-color:#545454;stop-opacity:1"
         offset="1" />
    </linearGradient>
    <linearGradient
       x1="30.037716"
       y1="24.989594"
       x2="30.037716"
       y2="30.000141"
       id="linearGradient3424"
       xlink:href="#linearGradient3223-789"
       gradientUnits="userSpaceOnUse"
       gradientTransform="matrix(0.6380091,-0.6411367,0.8596262,0.8553492,-3.601733,16.670712)" />
    <linearGradient
       id="linearGradient3223-789">
      <stop
         id="stop2567"
         style="stop-color:#b1b1b1;stop-opacity:1"
         offset="0" />
      <stop
         id="stop2569"
         style="stop-color:#ffffff;stop-opacity:1"
         offset="0.5" />
      <stop
         id="stop2571"
         style="stop-color:#8f8f8f;stop-opacity:1"
         offset="1" />
    </linearGradient>
    <linearGradient
       x1="30.037716"
       y1="24.989594"
       x2="30.037716"
       y2="30.000141"
       id="linearGradient3427"
       xlink:href="#linearGradient3240-279"
       gradientUnits="userSpaceOnUse"
       gradientTransform="matrix(0.6380091,-0.6411367,0.8596262,0.8553492,-3.419016,16.487099)" />
    <linearGradient
       id="linearGradient3240-279">
      <stop
         id="stop2559"
         style="stop-color:#565656;stop-opacity:1"
         offset="0" />
      <stop
         id="stop2561"
         style="stop-color:#9a9a9a;stop-opacity:1"
         offset="0.5" />
      <stop
         id="stop2563"
         style="stop-color:#545454;stop-opacity:1"
         offset="1" />
    </linearGradient>
    <linearGradient
       x1="23.575972"
       y1="25.356892"
       x2="23.575972"
       y2="31.210939"
       id="linearGradient3432"
       xlink:href="#linearGradient3155-40"
       gradientUnits="userSpaceOnUse"
       gradientTransform="matrix(0.6565695,-0.659788,0.7345237,0.7308691,-1.012959,19.863185)"
       spreadMethod="pad" />
    <linearGradient
       id="linearGradient3155-40">
      <stop
         id="stop2541"
         style="stop-color:#181818;stop-opacity:1"
         offset="0" />
      <stop
         id="stop2543"
         style="stop-color:#dbdbdb;stop-opacity:1"
         offset="0.13482948" />
      <stop
         id="stop2545"
         style="stop-color:#a4a4a4;stop-opacity:1"
         offset="0.20224422" />
      <stop
         id="stop2547"
         style="stop-color:#ffffff;stop-opacity:1"
         offset="0.26965895" />
      <stop
         id="stop2549"
         style="stop-color:#8d8d8d;stop-opacity:1"
         offset="0.44650277" />
      <stop
         id="stop2551"
         style="stop-color:#959595;stop-opacity:1"
         offset="0.57114136" />
      <stop
         id="stop2553"
         style="stop-color:#cecece;stop-opacity:1"
         offset="0.72038066" />
      <stop
         id="stop2555"
         style="stop-color:#181818;stop-opacity:1"
         offset="1" />
    </linearGradient>
    <linearGradient
       x1="22.004084"
       y1="44.854229"
       x2="22.004084"
       y2="3.0718794"
       id="linearGradient3436"
       xlink:href="#linearGradient3104"
       gradientUnits="userSpaceOnUse" />
    <linearGradient
       id="linearGradient3104">
      <stop
         id="stop3106"
         style="stop-color:#a0a0a0;stop-opacity:1"
         offset="0" />
      <stop
         id="stop3108"
         style="stop-color:#c8c8c8;stop-opacity:1"
         offset="1" />
    </linearGradient>
    <linearGradient
       x1="68.437271"
       y1="4.410717"
       x2="68.437271"
       y2="40.927929"
       id="linearGradient3388"
       xlink:href="#linearGradient3454"
       gradientUnits="userSpaceOnUse"
       gradientTransform="matrix(0.89189031,0,0,1.0580283,-39.848219,-2.843318)" />
    <linearGradient
       id="linearGradient3454">
      <stop
         id="stop3456"
         style="stop-color:#ffffff;stop-opacity:1"
         offset="0" />
      <stop
         id="stop3458"
         style="stop-color:#ffffff;stop-opacity:0.23529412"
         offset="0.0097359" />
      <stop
         id="stop3460"
         style="stop-color:#ffffff;stop-opacity:0.15686275"
         offset="0.99001008" />
      <stop
         id="stop3462"
         style="stop-color:#ffffff;stop-opacity:0.39215687"
         offset="1" />
    </linearGradient>
    <linearGradient
       x1="-60.969666"
       y1="13.668072"
       x2="-60.908253"
       y2="114.5354"
       id="linearGradient3458"
       xlink:href="#linearGradient3600"
       gradientUnits="userSpaceOnUse"
       gradientTransform="matrix(0.43751048,2.65089e-4,-2.6637648e-4,0.43539595,46.156983,-6.2332098)" />
    <linearGradient
       id="linearGradient3600">
      <stop
         id="stop3828"
         style="stop-color:#f4f4f4;stop-opacity:1"
         offset="0" />
      <stop
         id="stop3604"
         style="stop-color:#dbdbdb;stop-opacity:1"
         offset="1" />
    </linearGradient>
    <linearGradient
       x1="-51.786404"
       y1="53.514328"
       x2="-51.786404"
       y2="3.6336823"
       id="linearGradient3394"
       xlink:href="#linearGradient3104-8-8-97"
       gradientUnits="userSpaceOnUse"
       gradientTransform="matrix(0.80749834,0,0,0.83374395,59.410297,0.2581128)" />
    <linearGradient
       id="linearGradient3104-8-8-97">
      <stop
         id="stop3106-5-4-3"
         style="stop-color:#000000;stop-opacity:0.32173914"
         offset="0" />
      <stop
         id="stop3108-4-3-7"
         style="stop-color:#000000;stop-opacity:0.27826086"
         offset="1" />
    </linearGradient>
    <radialGradient
       cx="605.71429"
       cy="486.64789"
       r="117.14286"
       fx="605.71429"
       fy="486.64789"
       id="radialGradient3463"
       xlink:href="#linearGradient5060"
       gradientUnits="userSpaceOnUse"
       gradientTransform="matrix(0.02289231,0,0,0.01235294,26.353705,38.470849)" />
    <linearGradient
       id="linearGradient5060">
      <stop
         id="stop5062"
         style="stop-color:#000000;stop-opacity:1"
         offset="0" />
      <stop
         id="stop5064"
         style="stop-color:#000000;stop-opacity:0"
         offset="1" />
    </linearGradient>
    <radialGradient
       cx="605.71429"
       cy="486.64789"
       r="117.14286"
       fx="605.71429"
       fy="486.64789"
       id="radialGradient3466"
       xlink:href="#linearGradient5060"
       gradientUnits="userSpaceOnUse"
       gradientTransform="matrix(-0.02289231,0,0,0.01235294,21.646291,38.470849)" />
    <linearGradient
       id="linearGradient5048">
      <stop
         id="stop5050"
         style="stop-color:#000000;stop-opacity:0"
         offset="0" />
      <stop
         id="stop5056"
         style="stop-color:#000000;stop-opacity:1"
         offset="0.5" />
      <stop
         id="stop5052"
         style="stop-color:#000000;stop-opacity:0"
         offset="1" />
    </linearGradient>
    <linearGradient
       x1="302.85715"
       y1="366.64789"
       x2="302.85715"
       y2="609.50507"
       id="linearGradient4369"
       xlink:href="#linearGradient5048"
       gradientUnits="userSpaceOnUse"
       gradientTransform="matrix(0.06689349,0,0,0.01235294,-0.1772195,38.470823)" />
  </defs>
  <metadata
     id="metadata4380">
    <rdf:RDF>
      <cc:Work
         rdf:about="">
        <dc:format>image/svg+xml</dc:format>
        <dc:type
           rdf:resource="http://purl.org/dc/dcmitype/StillImage" />
        <dc:title />
      </cc:Work>
    </rdf:RDF>
  </metadata>
  <rect
     transform="rotate(90)"
     ry="0"
     rx="0"
     y="-40"
     x="16"
     height="32"
     width="0.25"
     id="rect975"
     style="opacity:1;fill:#bad5ff;fill-opacity:0.59215686;stroke:none;stroke-width:1;stroke-linecap:round;stroke-linejoin:round;stroke-miterlimit:4;stroke-dasharray:none;stroke-opacity:1;paint-order:markers stroke fill" />
  <rect
     style="opacity:1;fill:#bad5ff;fill-opacity:0.59215686;stroke:none;stroke-width:1;stroke-linecap:round;stroke-linejoin:round;stroke-miterlimit:4;stroke-dasharray:none;stroke-opacity:1;paint-order:markers stroke fill"
     id="rect977"
     width="0.25"
     height="32"
     x="18"
     y="-40"
     rx="0"
     ry="0"
     transform="rotate(90)" />
  <rect
     transform="rotate(90)"
     ry="0"
     rx="0"
     y="-40"
     x="20"
     height="32"
     width="0.25"
     id="rect979"
     style="opacity:1;fill:#bad5ff;fill-opacity:0.59215686;stroke:none;stroke-width:1;stroke-linecap:round;stroke-linejoin:round;stroke-miterlimit:4;stroke-dasharray:none;stroke-opacity:1;paint-order:markers stroke fill" />
  <rect
     style="opacity:1;fill:#bad5ff;fill-opacity:0.59215686;stroke:none;stroke-width:1;stroke-linecap:round;stroke-linejoin:round;stroke-miterlimit:4;stroke-dasharray:none;stroke-opacity:1;paint-order:markers stroke fill"
     id="rect981"
     width="0.25"
     height="32"
     x="22"
     y="-40"
     rx="0"
     ry="0"
     transform="rotate(90)" />
  <rect
     transform="rotate(90)"
     ry="0"
     rx="0"
     y="-40"
     x="24"
     height="32"
     width="0.25"
     id="rect983"
     style="opacity:1;fill:#bad5ff;fill-opacity:0.59215686;stroke:none;stroke-width:1;stroke-linecap:round;stroke-linejoin:round;stroke-miterlimit:4;stroke-dasharray:none;stroke-opacity:1;paint-order:markers stroke fill" />
  <rect
     style="opacity:1;fill:#bad5ff;fill-opacity:0.59215686;stroke:none;stroke-width:1;stroke-linecap:round;stroke-linejoin:round;stroke-miterlimit:4;stroke-dasharray:none;stroke-opacity:1;paint-order:markers stroke fill"
     id="rect985"
     width="0.25"
     height="32"
     x="26"
     y="-40"
     rx="0"
     ry="0"
     transform="rotate(90)" />
  <rect
     transform="rotate(90)"
     ry="0"
     rx="0"
     y="-40"
     x="28"
     height="32"
     width="0.25"
     id="rect987"
     style="opacity:1;fill:#bad5ff;fill-opacity:0.59215686;stroke:none;stroke-width:1;stroke-linecap:round;stroke-linejoin:round;stroke-miterlimit:4;stroke-dasharray:none;stroke-opacity:1;paint-order:markers stroke fill" />
  <rect
     style="opacity:1;fill:#bad5ff;fill-opacity:0.59215686;stroke:none;stroke-width:1;stroke-linecap:round;stroke-linejoin:round;stroke-miterlimit:4;stroke-dasharray:none;stroke-opacity:1;paint-order:markers stroke fill"
     id="rect989"
     width="0.25"
     height="32"
     x="30"
     y="-40"
     rx="0"
     ry="0"
     transform="rotate(90)" />
  <rect
     transform="rotate(90)"
     ry="0"
     rx="0"
     y="-40"
     x="32"
     height="32"
     width="0.25"
     id="rect991"
     style="opacity:1;fill:#bad5ff;fill-opacity:0.59215686;stroke:none;stroke-width:1;stroke-linecap:round;stroke-linejoin:round;stroke-miterlimit:4;stroke-dasharray:none;stroke-opacity:1;paint-order:markers stroke fill" />
  <rect
     style="opacity:1;fill:#bad5ff;fill-opacity:0.59215686;stroke:none;stroke-width:1;stroke-linecap:round;stroke-linejoin:round;stroke-miterlimit:4;stroke-dasharray:none;stroke-opacity:1;paint-order:markers stroke fill"
     id="rect993"
     width="0.25"
     height="32"
     x="34"
     y="-40"
     rx="0"
     ry="0"
     transform="rotate(90)" />
  <rect
     transform="rotate(90)"
     ry="0"
     rx="0"
     y="-40"
     x="36"
     height="32"
     width="0.25"
     id="rect995"
     style="opacity:1;fill:#bad5ff;fill-opacity:0.59215686;stroke:none;stroke-width:1;stroke-linecap:round;stroke-linejoin:round;stroke-miterlimit:4;stroke-dasharray:none;stroke-opacity:1;paint-order:markers stroke fill" />
  <rect
     style="opacity:1;fill:#bad5ff;fill-opacity:0.59215686;stroke:none;stroke-width:1;stroke-linecap:round;stroke-linejoin:round;stroke-miterlimit:4;stroke-dasharray:none;stroke-opacity:1;paint-order:markers stroke fill"
     id="rect997"
     width="0.25"
     height="32"
     x="38"
     y="-40"
     rx="0"
     ry="0"
     transform="rotate(90)" />
  <rect
     style="opacity:1;fill:#f3f3f3;fill-opacity:1;stroke:#5e5750;stroke-width:1;stroke-linecap:round;stroke-linejoin:round;stroke-miterlimit:4;stroke-dasharray:none;stroke-opacity:0.25490198;paint-order:fill markers stroke"
     id="rect961"
     width="33"
     height="39"
     x="7.5"
     y="4.5"
     rx="0"
     ry="0" />
  <rect
     transform="rotate(90)"
     ry="0"
     rx="0"
     y="-40"
     x="40"
     height="32"
     width="0.25"
     id="rect999"
     style="opacity:1;fill:#bad5ff;fill-opacity:0.59215686;stroke:none;stroke-width:1;stroke-linecap:round;stroke-linejoin:round;stroke-miterlimit:4;stroke-dasharray:none;stroke-opacity:1;paint-order:markers stroke fill" />
  <path
     inkscape:connector-curvature="0"
     style="fill:none;stroke:url(#linearGradient3436);stroke-width:1px;stroke-linecap:butt;stroke-linejoin:miter;stroke-opacity:1"
     id="path3715"
     d="m 12.998934,11.546347 h 2.34797 m 0.335425,0 h 2.180258 m 0.350956,0 h 1.945461 m 0.319893,0 h 0.83856 m 0.335425,0 h 1.878376 m 0.368967,0 h 4.930737 m 0.335426,0 h 3.756752 m 0.335425,0 h 1.140442 M 12.998934,13.5 h 3.640632 m 0.423562,0 h 1.739577 m 0.321577,0 h 0.85845 m 0.349272,0 h 1.602406 m 0.335425,0 h 1.643346 m 0.31021,0 h 2.580441 m 0.335426,0 h 3.404208 m -17.544532,1.980028 h 3.081427 m 0.323704,0 h 5.074837 m 0.31103,0 h 2.461186 m 0.315453,0 h 2.30241 m 0.330181,0 h 1.961321 m 0.315454,0 L 32.5606,15.5 m -19.561666,2 h 4.284352 m 0.336433,0 h 4.630578 m 0.319893,0 h 1.81966 m 0.335425,0 h 4.331127 m 0.291512,0 h 2.968536 m 0.335426,0 h 1.174909 m 0.335425,0 h 0.649892 m -21.813168,2 h 1.599235 m 0.491344,0 h 5.921499 m -8.012078,10 h 3.640632 m 0.423562,0 h 1.739577 m 0.321577,0 h 0.85845 m 0.349272,0 h 1.602406 m 0.335425,0 h 1.643346 m 0.31021,0 h 2.580441 m -13.804898,3.980028 h 3.081427 m 0.323704,0 h 5.074837 m 0.31103,0 h 2.461186 m 8.697299,0.06136 h 5.026898 M 12.998934,27.5 h 4.284352 m 0.336433,0 h 4.630578 m 0.319893,0 h 1.81966 m 0.335425,0 h 4.331127 m -16.057468,-4 h 2.34797 m 0.335425,0 h 2.180258 m 0.350956,0 h 1.945461 m 0.319893,0 h 0.83856 m 0.335425,0 h 1.878376 m 0.368967,0 h 4.930737 m 0.335426,0 h 3.756752 m -19.924206,2 h 3.954284 m 0.311043,0 h 4.198951 m 0.319893,0 h 1.641931 m 0.310036,0 h 3.950279 m 0.316902,0 h 4.314197 m -19.317516,10 h 3.695207 m 0.396663,0 h 1.629116 m 0.381575,0 h 0.812557 m 0.258655,0 h 1.604035 m 0.212949,0 h 8.492084 m 0.399586,0 h 2.266883 m 0.304807,0 h 0.572374 m -16.81675,2 h 1.20539 m -5.415131,0 h 3.856881 m 1.866532,0 h 2.804548 m 0.29667,0 h 4.116902 m 0.319893,0 h 2.792858 m 0.281139,0 h 0.575511 m 0.314681,0 h 3.546443 m 0.362569,0 h 1.85674 m -18.781626,2 h 1.701949 m -5.91169,0 h 3.856881 m 2.423647,0 h 2.392767" />
  <rect
     ry="0"
     rx="0"
     y="5"
     x="36"
     height="38"
     width="0.5"
     id="rect967"
     style="opacity:1;fill:#bad5ff;fill-opacity:0.59215686;stroke:none;stroke-width:1;stroke-linecap:round;stroke-linejoin:round;stroke-miterlimit:4;stroke-dasharray:none;stroke-opacity:1;paint-order:markers stroke fill" />
  <path
     inkscape:connector-curvature="0"
     style="fill:#3c3c3c;fill-opacity:1;stroke:#0c0c0c;stroke-width:0.5;stroke-linecap:butt;stroke-linejoin:round;stroke-miterlimit:4;stroke-dasharray:none;stroke-dashoffset:0;stroke-opacity:1"
     id="rect2383"
     d="m 24.934095,31.028461 c 0.445921,-0.334616 1.697104,0.293067 2.846888,1.43713 1.147034,1.141326 1.75142,2.362602 1.42438,2.812888 -0.0012,0.0017 0.02814,0.02504 0.02686,0.02673 L 45.242268,19.216683 C 45.64875,18.808208 45.017185,17.517377 43.830899,16.336995 42.644617,15.156613 41.35062,14.531459 40.944135,14.939936 Z" />
  <path
     inkscape:connector-curvature="0"
     style="opacity:0.8;fill:#ffb6ed;fill-opacity:1;stroke:#e28ccd;stroke-width:0.5;stroke-linecap:butt;stroke-linejoin:round;stroke-miterlimit:4;stroke-dasharray:none;stroke-dashoffset:0;stroke-opacity:1"
     id="rect3175"
     d="m 38.990234,16.903417 c 0.445921,-0.334616 1.697105,0.293068 2.846888,1.43713 1.147033,1.141325 1.75142,2.362602 1.424379,2.812887 -0.0012,0.0017 0.02814,0.02504 0.02686,0.02673 l 1.953903,-1.963482 0.03988,-0.04007 c 0.0013,-0.0017 -0.02811,-0.02502 -0.02686,-0.02673 0.327036,-0.450285 -0.277352,-1.671561 -1.424385,-2.812886 -1.149782,-1.144062 -2.400965,-1.771747 -2.846887,-1.43713 l -0.03988,0.04007 -1.953901,1.963481 z" />
  <path
     inkscape:connector-curvature="0"
     style="fill:#b1b1b1;fill-opacity:1;stroke:none"
     id="path3216"
     d="m 36.617427,19.287853 c 0.445922,-0.334617 1.697107,0.293067 2.846888,1.437129 1.147035,1.141326 1.751422,2.362601 1.42438,2.812887 -0.0012,0.0017 0.02813,0.02504 0.02686,0.02673 l 0.199377,-0.200357 c 0.0013,-0.0017 -0.02811,-0.02502 -0.02686,-0.02673 0.327044,-0.450285 -0.277344,-1.671561 -1.424379,-2.812886 -1.149782,-1.144062 -2.400966,-1.771747 -2.846889,-1.43713 l -0.199377,0.200356 z" />
  <path
     inkscape:connector-curvature="0"
     style="fill:#b1b1b1;fill-opacity:1;stroke:none"
     id="path3250"
     d="m 37.252367,18.6498 c 0.445923,-0.334617 1.697107,0.293067 2.846888,1.437129 1.147035,1.141326 1.751422,2.362601 1.424381,2.812887 -0.0012,0.0017 0.02814,0.02504 0.02686,0.02673 l 0.199377,-0.200356 c 0.0013,-0.0017 -0.02811,-0.02502 -0.02686,-0.02673 0.327042,-0.450286 -0.277345,-1.671563 -1.424379,-2.812886 -1.149781,-1.144063 -2.400966,-1.771748 -2.846889,-1.43713 z" />
  <path
     inkscape:connector-curvature="0"
     style="fill:#b1b1b1;fill-opacity:1;stroke:none"
     id="path3258"
     d="m 37.890378,18.008663 c 0.445919,-0.334617 1.697105,0.293067 2.846887,1.437131 1.147033,1.141324 1.751422,2.3626 1.424379,2.812885 -0.0012,0.0017 0.02814,0.02504 0.02686,0.02673 l 0.199378,-0.200354 c 0.0013,-0.0017 -0.02811,-0.02502 -0.02686,-0.02673 0.327042,-0.450287 -0.277346,-1.671563 -1.424379,-2.812887 -1.149782,-1.144063 -2.400967,-1.771748 -2.846888,-1.43713 z" />
  <path
     inkscape:connector-curvature="0"
     style="fill:url(#linearGradient3407);fill-opacity:1;fill-rule:evenodd;stroke:url(#linearGradient3409);stroke-width:0.5;stroke-linecap:butt;stroke-linejoin:miter;stroke-miterlimit:4;stroke-dasharray:none;stroke-opacity:1"
     id="path3270"
     d="m 21.865994,38.310367 7.283734,-2.970838 0.06206,-0.06205 c 0.327041,-0.450289 -0.285228,-1.67166 -1.432262,-2.812988 -1.149783,-1.144062 -2.399488,-1.768277 -2.845409,-1.43366 l -3.068118,7.279536 z" />
  <path
     inkscape:connector-curvature="0"
     style="fill:#0c0c0c;fill-opacity:1;fill-rule:evenodd;stroke:#0c0c0c;stroke-width:0.5;stroke-linecap:butt;stroke-linejoin:miter;stroke-miterlimit:4;stroke-dasharray:none;stroke-opacity:1"
     id="path3281"
     d="m 22.697063,36.338766 -0.831516,1.96381 1.986639,-0.814434 C 23.69296,37.297418 23.545968,37.103699 23.354795,36.913478 23.134704,36.694481 22.918224,36.516791 22.697063,36.338766 Z" />
  <rect
     style="opacity:1;fill:#f6b6b6;fill-opacity:0.69411765;stroke:none;stroke-width:1;stroke-linecap:round;stroke-linejoin:round;stroke-miterlimit:4;stroke-dasharray:none;stroke-opacity:1;paint-order:markers stroke fill"
     id="rect965"
     width="0.5"
     height="38"
     x="11.510093"
     y="5"
     rx="0"
     ry="0" />
  <rect
     style="opacity:1;fill:#bad5ff;fill-opacity:0.59215686;stroke:none;stroke-width:1;stroke-linecap:round;stroke-linejoin:round;stroke-miterlimit:4;stroke-dasharray:none;stroke-opacity:1;paint-order:markers stroke fill"
     id="rect969"
     width="0.25"
     height="32"
     x="9"
     y="-40"
     rx="0"
     ry="0"
     transform="rotate(90)" />
  <rect
     transform="rotate(90)"
     ry="0"
     rx="0"
     y="-40"
     x="12"
     height="32"
     width="0.25"
     id="rect971"
     style="opacity:1;fill:#bad5ff;fill-opacity:0.59215686;stroke:none;stroke-width:1;stroke-linecap:round;stroke-linejoin:round;stroke-miterlimit:4;stroke-dasharray:none;stroke-opacity:1;paint-order:markers stroke fill" />
  <rect
     style="opacity:1;fill:#bad5ff;fill-opacity:0.59215686;stroke:none;stroke-width:1;stroke-linecap:round;stroke-linejoin:round;stroke-miterlimit:4;stroke-dasharray:none;stroke-opacity:1;paint-order:markers stroke fill"
     id="rect973"
     width="0.25"
     height="32"
     x="14"
     y="-40"
     rx="0"
     ry="0"
     transform="rotate(90)" />
</svg>
