<?xml version="1.0" encoding="UTF-8" standalone="no"?>
<svg
   xmlns:dc="http://purl.org/dc/elements/1.1/"
   xmlns:cc="http://creativecommons.org/ns#"
   xmlns:rdf="http://www.w3.org/1999/02/22-rdf-syntax-ns#"
   xmlns:svg="http://www.w3.org/2000/svg"
   xmlns="http://www.w3.org/2000/svg"
   xmlns:sodipodi="http://sodipodi.sourceforge.net/DTD/sodipodi-0.dtd"
   xmlns:inkscape="http://www.inkscape.org/namespaces/inkscape"
   version="1.1"
   width="48"
   height="48"
   id="svg5390"
   sodipodi:docname="applications-development.svg"
   inkscape:version="0.92.4 (5da689c313, 2019-01-14)">
  <sodipodi:namedview
     pagecolor="#ffffff"
     bordercolor="#666666"
     borderopacity="1"
     objecttolerance="10"
     gridtolerance="10"
     guidetolerance="10"
     inkscape:pageopacity="0"
     inkscape:pageshadow="2"
     inkscape:window-width="1366"
     inkscape:window-height="697"
     id="namedview46"
     showgrid="false"
     inkscape:zoom="6.9532167"
     inkscape:cx="6.7541149"
     inkscape:cy="29.555178"
     inkscape:window-x="0"
     inkscape:window-y="0"
     inkscape:window-maximized="1"
     inkscape:current-layer="svg5390" />
  <defs
     id="defs5392" />
  <metadata
     id="metadata5395">
    <rdf:RDF>
      <cc:Work
         rdf:about="">
        <dc:format>image/svg+xml</dc:format>
        <dc:type
           rdf:resource="http://purl.org/dc/dcmitype/StillImage" />
        <dc:title />
      </cc:Work>
    </rdf:RDF>
  </metadata>
  <rect
     style="color:#000000;display:inline;overflow:visible;visibility:visible;fill:#4eb5eb;fill-opacity:1;fill-rule:nonzero;stroke:#207fd0;stroke-width:1;stroke-linecap:round;stroke-linejoin:round;stroke-miterlimit:4;stroke-dasharray:none;stroke-dashoffset:0;stroke-opacity:0.84705882;marker:none;enable-background:accumulate"
     id="rect5505-21-69-0"
     y="4.5"
     x="4.5"
     ry="2"
     rx="2"
     height="39"
     width="39" />
  <path
     inkscape:connector-curvature="0"
     style="color:#000000;display:inline;overflow:visible;visibility:visible;opacity:0.1;fill:#ffffff;fill-opacity:1;fill-rule:nonzero;stroke:none;stroke-width:1;marker:none;enable-background:accumulate"
     id="rect3132"
     d="M 8.5,7 V 9 H 7 v 1 h 1.5 v 4 H 7 v 1 h 1.5 v 4 H 7 v 1 h 1.5 v 4 H 7 v 1 h 1.5 v 4 H 7 v 1 h 1.5 v 4 H 7 v 1 h 1.5 v 4 H 7 v 1 h 1.5 v 1 h 1 v -1 h 4 v 1 h 1 v -1 h 4 v 1 h 1 v -1 h 4 v 1 h 1 v -1 h 4 v 1 h 1 v -1 h 4 v 1 h 1 v -1 h 4 v 1 h 1 V 40 H 41 V 39 H 39.5 V 35 H 41 V 34 H 39.5 V 30 H 41 V 29 H 39.5 V 25 H 41 V 24 H 39.5 V 20 H 41 V 19 H 39.5 V 15 H 41 V 14 H 39.5 V 10 H 41 V 9 H 39.5 V 7 h -1 v 2 h -4 V 7 h -1 v 2 h -4 V 7 h -1 v 2 h -4 V 7 h -1 v 2 h -4 V 7 h -1 v 2 h -4 V 7 h -1 v 2 h -4 V 7 Z m 1,3 h 4 v 4 h -4 z m 5,0 h 4 v 4 h -4 z m 5,0 h 4 v 4 h -4 z m 5,0 h 4 v 4 h -4 z m 5,0 h 4 v 4 h -4 z m 5,0 h 4 v 4 h -4 z m -25,5 h 4 v 4 h -4 z m 5,0 h 4 v 4 h -4 z m 5,0 h 4 v 4 h -4 z m 5,0 h 4 v 4 h -4 z m 5,0 h 4 v 4 h -4 z m 5,0 h 4 v 4 h -4 z m -25,5 h 4 v 4 h -4 z m 5,0 h 4 v 4 h -4 z m 5,0 h 4 v 4 h -4 z m 5,0 h 4 v 4 h -4 z m 5,0 h 4 v 4 h -4 z m 5,0 h 4 v 4 h -4 z m -25,5 h 4 v 4 h -4 z m 5,0 h 4 v 4 h -4 z m 5,0 h 4 v 4 h -4 z m 5,0 h 4 v 4 h -4 z m 5,0 h 4 v 4 h -4 z m 5,0 h 4 v 4 h -4 z m -25,5 h 4 v 4 h -4 z m 5,0 h 4 v 4 h -4 z m 5,0 h 4 v 4 h -4 z m 5,0 h 4 v 4 h -4 z m 5,0 h 4 v 4 h -4 z m 5,0 h 4 v 4 h -4 z m -25,5 h 4 v 4 h -4 z m 5,0 h 4 v 4 h -4 z m 5,0 h 4 v 4 h -4 z m 5,0 h 4 v 4 h -4 z m 5,0 h 4 v 4 h -4 z m 5,0 h 4 v 4 h -4 z" />
  <path
     inkscape:connector-curvature="0"
     style="color:#000000;display:inline;overflow:visible;visibility:visible;opacity:0.25;fill:#2e8ed3;fill-opacity:1;fill-rule:nonzero;stroke:none;stroke-width:0.99999988;marker:none;enable-background:accumulate"
     id="path5258"
     d="m 24.28125,8.0694608 c -1.91323,0.08556 -4.181564,0.63702 -6.84375,1.84375 a 0.94633117,0.94633117 0 0 0 0.46875,1.8125002 c 0,0 2.450953,-0.147307 4.21875,0.4375 0.883898,0.292403 1.513629,0.729524 1.75,1.28125 0.236371,0.551726 0.236073,1.462824 -0.6875,3.0625 l -2.9375,5.0625 -0.40625,-0.21875 a 0.94633117,0.94633117 0 0 0 -1.28125,0.34375 l -8.09375,14.03125 a 0.94633117,0.94633117 0 0 0 0.34375,1.28125 l 4.84375,2.8125 a 0.94633117,0.94633117 0 0 0 1.28125,-0.34375 l 8.125,-14.03125 a 0.94633117,0.94633117 0 0 0 -0.34375,-1.28125 l -0.40625,-0.25 2.9375,-5.0625 0.21875,-0.34375 v -0.03125 c 0.206125,-0.336204 0.653398,-0.902475 1.125,-1.21875 0.392491,-0.26322 0.74693,-0.345805 1.25,-0.15625 l 0.5,2.09375 a 0.94633117,0.94633117 0 0 0 0.4375,0.59375 L 33,21.069461 a 0.94633117,0.94633117 0 0 0 1.28125,-0.34375 l 3.25,-5.65625 A 0.94633117,0.94633117 0 0 0 37.1875,13.788211 L 35,12.506961 a 0.94633117,0.94633117 0 0 0 -0.71875,-0.09375 L 32.5,12.881961 C 32.123718,11.946185 31.306759,10.227315 28.9375,9.0069608 27.72981,8.3849058 26.192458,7.983992 24.28125,8.0694608 Z" />
  <path
     inkscape:connector-curvature="0"
     style="color:#000000;display:inline;overflow:visible;visibility:visible;fill:#ffffff;fill-opacity:1;fill-rule:nonzero;stroke:none;stroke-width:0.99999988;marker:none;enable-background:accumulate"
     id="rect4740"
     d="m 28.514168,9.836177 c -2.142582,-1.103599 -5.516256,-1.408032 -10.68072,0.932943 0,0 10.184925,-0.776866 6.160473,6.193691 l -3.40353,5.895088 -1.21705,-0.702665 L 11.270744,36.189342 16.138944,39 24.241541,24.965891 23.02449,24.263227 26.428019,18.36814 26.647602,17.987812 c 0.476713,-0.785386 1.938377,-2.785581 3.972754,-1.611031 l 0.631217,2.595689 2.205904,1.273579 3.271779,-5.666888 -2.205903,-1.273579 -2.519627,0.675131 c 0,0 -0.734812,-2.725625 -3.489559,-4.144536 z" />
</svg>
