<?xml version="1.0" encoding="UTF-8" standalone="no"?>
<svg
   xmlns:dc="http://purl.org/dc/elements/1.1/"
   xmlns:cc="http://creativecommons.org/ns#"
   xmlns:rdf="http://www.w3.org/1999/02/22-rdf-syntax-ns#"
   xmlns:svg="http://www.w3.org/2000/svg"
   xmlns="http://www.w3.org/2000/svg"
   xmlns:sodipodi="http://sodipodi.sourceforge.net/DTD/sodipodi-0.dtd"
   xmlns:inkscape="http://www.inkscape.org/namespaces/inkscape"
   version="1.1"
   width="48"
   height="48"
   id="svg4031"
   sodipodi:docname="applications-system.svg"
   inkscape:version="0.92.4 (5da689c313, 2019-01-14)">
  <sodipodi:namedview
     pagecolor="#ffffff"
     bordercolor="#666666"
     borderopacity="1"
     objecttolerance="10"
     gridtolerance="10"
     guidetolerance="10"
     inkscape:pageopacity="0"
     inkscape:pageshadow="2"
     inkscape:window-width="1366"
     inkscape:window-height="697"
     id="namedview31"
     showgrid="false"
     inkscape:zoom="3.4766083"
     inkscape:cx="3.0239552"
     inkscape:cy="24.199475"
     inkscape:window-x="0"
     inkscape:window-y="0"
     inkscape:window-maximized="1"
     inkscape:current-layer="svg4031" />
  <defs
     id="defs4033" />
  <metadata
     id="metadata4036">
    <rdf:RDF>
      <cc:Work
         rdf:about="">
        <dc:format>image/svg+xml</dc:format>
        <dc:type
           rdf:resource="http://purl.org/dc/dcmitype/StillImage" />
        <dc:title />
      </cc:Work>
    </rdf:RDF>
  </metadata>
  <path
     inkscape:connector-curvature="0"
     style="color:#000000;display:inline;overflow:visible;visibility:visible;fill:#67748d;fill-opacity:1;fill-rule:nonzero;stroke:#4f5765;stroke-width:2;marker:none;enable-background:accumulate;stroke-opacity:1;stroke-miterlimit:4;stroke-dasharray:none;opacity:0.9"
     id="path838"
     d="M 24.000003,3.9999991 C 12.964693,3.9999991 4,12.964688 4,23.999998 4,35.035311 12.964693,44.000004 24.000003,44.000001 35.035309,44.000001 44.00001,35.035311 44,23.999998 44,12.964688 35.035309,3.9999991 24.000003,3.9999991 Z" />
  <path
     d="M 24.000003,3.9999991 C 12.964693,3.9999991 4,12.964688 4,23.999998 4,35.035311 12.964693,44.000004 24.000003,44.000001 35.035309,44.000001 44.00001,35.035311 44,23.999998 44,12.964688 35.035309,3.9999991 24.000003,3.9999991 Z"
     id="path2555-3"
     style="color:#000000;display:inline;overflow:visible;visibility:visible;fill:#67748d;fill-opacity:1;fill-rule:nonzero;stroke:none;stroke-width:1;marker:none;enable-background:accumulate"
     inkscape:connector-curvature="0" />
  <path
     style="color:#000000;clip-rule:nonzero;display:inline;overflow:visible;visibility:visible;opacity:1;isolation:auto;mix-blend-mode:normal;color-interpolation:sRGB;color-interpolation-filters:linearRGB;solid-color:#000000;solid-opacity:1;fill:#ffffff;fill-opacity:1;fill-rule:nonzero;stroke:none;stroke-width:1;stroke-linecap:round;stroke-linejoin:round;stroke-miterlimit:4;stroke-dasharray:none;stroke-dashoffset:0;stroke-opacity:1;marker:none;color-rendering:auto;image-rendering:auto;shape-rendering:auto;text-rendering:auto;enable-background:accumulate"
     id="path3782"
     d="m 17.625,12.875141 c -0.31487,0 -0.608048,0.12382 -0.875,0.25 l -0.625,0.375 c -3.067692,2.02341 -5.22986,5.15026 -5.875,8.8125 -6.88e-4,0.004 -0.06182,-0.0038 -0.0625,0 -0.017,0.10086 0.0148,0.210824 0,0.3125 -0.0926,0.617666 -0.1875,1.229142 -0.1875,1.875 0,7.455844 6.268014,13.5 14,13.5 7.731986,0 14,-6.044156 14,-13.5 0,-0.573518 -0.05176,-1.132366 -0.125,-1.6875 -0.02312,-0.17264 -0.095,-0.329736 -0.125,-0.5 -0.64514,-3.66224 -2.807308,-6.78909 -5.875,-8.8125 l -0.625,-0.375 c -0.266952,-0.12618 -0.56013,-0.25 -0.875,-0.25 -1.138892,0 -2.0625,0.923608 -2.0625,2.0625 0,0.648164 0.344864,1.246962 0.8125,1.625 0.14862,0.12016 0.321496,0.237 0.5,0.3125 1.932542,1.285956 3.364682,3.208196 4,5.4375 0.012,0.04254 0.0509,0.08236 0.0625,0.125 0.207862,0.763616 0.3125,1.546374 0.3125,2.375 0,5.325604 -4.477152,9.625 -10,9.625 -5.522848,0 -10,-4.299396 -10,-9.625 0,-0.828626 0.10464,-1.611384 0.3125,-2.375 0.012,-0.04446 0.0499,-0.0808 0.0625,-0.125 0.635318,-2.229304 2.067458,-4.151544 4,-5.4375 0.1785,-0.0755 0.35137,-0.19234 0.5,-0.3125 0.467636,-0.378038 0.8125,-0.976836 0.8125,-1.625 0,-1.138892 -0.923608,-2.0625 -2.0625,-2.0625 z M 24,8.000141 c 1.108,0 2,0.892 2,2 v 12 c 0,1.108 -0.892,2 -2,2 -1.108,0 -2,-0.892 -2,-2 v -12 c 0,-1.108 0.892,-2 2,-2 z"
     inkscape:connector-curvature="0" />
</svg>
