<?xml version="1.0" encoding="UTF-8" standalone="no"?>
<svg
   xmlns:dc="http://purl.org/dc/elements/1.1/"
   xmlns:cc="http://creativecommons.org/ns#"
   xmlns:rdf="http://www.w3.org/1999/02/22-rdf-syntax-ns#"
   xmlns:svg="http://www.w3.org/2000/svg"
   xmlns="http://www.w3.org/2000/svg"
   xmlns:sodipodi="http://sodipodi.sourceforge.net/DTD/sodipodi-0.dtd"
   xmlns:inkscape="http://www.inkscape.org/namespaces/inkscape"
   version="1.1"
   width="48"
   height="48"
   id="svg3992"
   sodipodi:docname="applications-games.svg"
   inkscape:version="0.92.4 (5da689c313, 2019-01-14)">
  <sodipodi:namedview
     pagecolor="#ffffff"
     bordercolor="#666666"
     borderopacity="1"
     objecttolerance="10"
     gridtolerance="10"
     guidetolerance="10"
     inkscape:pageopacity="0"
     inkscape:pageshadow="2"
     inkscape:window-width="1366"
     inkscape:window-height="697"
     id="namedview47"
     showgrid="false"
     inkscape:zoom="4.9166667"
     inkscape:cx="-1.4237288"
     inkscape:cy="24"
     inkscape:window-x="0"
     inkscape:window-y="0"
     inkscape:window-maximized="1"
     inkscape:current-layer="svg3992" />
  <defs
     id="defs3994" />
  <metadata
     id="metadata3997">
    <rdf:RDF>
      <cc:Work
         rdf:about="">
        <dc:format>image/svg+xml</dc:format>
        <dc:type
           rdf:resource="http://purl.org/dc/dcmitype/StillImage" />
        <dc:title></dc:title>
      </cc:Work>
    </rdf:RDF>
  </metadata>
  <g
     transform="translate(-584.00037,-912)"
     id="input-gaming_48"
     inkscape:label="#g6513">
    <rect
       y="912"
       x="584.00037"
       height="48"
       width="48"
       id="rect4138-2-8-2-8"
       style="opacity:1;fill:none;fill-opacity:0.02352941;stroke:none;stroke-width:0.1;stroke-linecap:butt;stroke-linejoin:miter;stroke-miterlimit:4;stroke-dasharray:none;stroke-dashoffset:0;stroke-opacity:0.78431373" />
    <path
       inkscape:connector-curvature="0"
       id="rect4268-17-4-3"
       d="m 599.00057,921.0038 c -2.22935,0 -6.80469,2.3903 -6.75781,3.3652 -0.57767,0.498 -1.10852,1.1175 -1.49219,1.8848 0,0 -4.71684,11.499 -4.75,19.5 0.30619,5.2983 2.59962,6.1639 3.15039,6.1992 0.75808,-0.012 1.5137,-0.06 2.34961,-0.75 0.42775,-0.3867 4.08215,-4.4845 5.25,-5.6523 1.16785,-1.1679 1.5001,-1.4824 3,-1.5 h 8.25 8.25 c 1.4999,0.0176 1.83215,0.3321 3,1.5 1.16785,1.1678 4.82225,5.2656 5.25,5.6523 0.83591,0.69 1.59153,0.738 2.34961,0.75 0.55077,-0.0353 2.8442,-0.9009 3.15039,-6.1992 -0.0332,-8.001 -4.75,-19.5 -4.75,-19.5 -0.38367,-0.7673 -0.91452,-1.3868 -1.49219,-1.8848 0.0469,-0.9749 -4.52846,-3.3652 -6.75781,-3.3652 -1.63135,0 -3.40039,1.9961 -3.40039,1.9961 h -5.59961 -5.59961 c 0,0 -1.76904,-1.9961 -3.40039,-1.9961 z"
       style="opacity:1;fill:#464c5c;fill-opacity:1;stroke:#464c5c;stroke-width:0.2;stroke-miterlimit:4;stroke-dasharray:none;stroke-opacity:1" />
    <path
       sodipodi:nodetypes="cccccccsscccsc"
       inkscape:connector-curvature="0"
       id="rect4268-17-4"
       d="m 617.00059,921.00335 c 2.22935,0 6.8042,2.38982 6.75732,3.36474 v 10e-4 c 0.57767,0.49799 1.10902,1.11643 1.49269,1.88375 0,0 4.71642,11.49893 4.74958,19.5 -0.30619,5.29823 -2.59923,6.16491 -3.15,6.20016 -0.75808,-0.0121 -1.51367,-0.06 -2.34958,-0.75 -0.42775,-0.38673 -4.08216,-4.48515 -5.25001,-5.653 -1.16785,-1.16784 -1.5001,-1.48236 -3,-1.5 h -8.25 V 923 h 5.60041 c 0,0 1.76824,-1.99716 3.39959,-1.99716 z"
       style="opacity:1;fill:#464c5c;fill-opacity:1;stroke:none;stroke-width:0.2;stroke-miterlimit:4;stroke-dasharray:none;stroke-opacity:1" />
    <path
       sodipodi:nodetypes="cccccccsscccsc"
       inkscape:connector-curvature="0"
       id="rect4268-17"
       d="m 599.00059,921.00335 c -2.22935,0 -6.8042,2.38982 -6.75732,3.36474 v 10e-4 c -0.57767,0.49799 -1.10902,1.11643 -1.49269,1.88375 0,0 -4.71642,11.49893 -4.74958,19.5 0.30619,5.29823 2.59923,6.16491 3.15,6.20016 0.75808,-0.0121 1.51367,-0.06 2.34958,-0.75 0.42775,-0.38673 4.08216,-4.48515 5.25001,-5.653 1.16785,-1.16784 1.5001,-1.48236 3,-1.5 h 8.25 V 923 H 602.401 c 0,0 -1.76906,-1.99716 -3.40041,-1.99716 z"
       style="opacity:1;fill:#464c5c;fill-opacity:1;stroke:none;stroke-width:0.2;stroke-miterlimit:4;stroke-dasharray:none;stroke-opacity:1" />
    <ellipse
       ry="1.9999989"
       rx="2"
       cy="927"
       cx="620"
       id="path4529-6-5-92-6-7"
       style="fill:#000000;fill-opacity:0.19607843;stroke:none;stroke-width:0.2;stroke-miterlimit:4;stroke-dasharray:none;stroke-opacity:1" />
    <ellipse
       ry="0.9999851"
       rx="0.9999938"
       cy="927"
       cx="620"
       id="path4500-1-22"
       style="fill:#fff669;fill-opacity:1;stroke:none;stroke-width:0.2;stroke-miterlimit:4;stroke-dasharray:none;stroke-opacity:1" />
    <ellipse
       ry="1.9999988"
       rx="2"
       cy="933"
       cx="620"
       id="path4529-6-5-92-2-2-6"
       style="fill:#000000;fill-opacity:0.19607843;stroke:none;stroke-width:0.2;stroke-miterlimit:4;stroke-dasharray:none;stroke-opacity:1" />
    <ellipse
       ry="0.9999913"
       rx="1"
       cy="933"
       cx="620"
       id="path4500-4-9-10"
       style="fill:#8ce755;fill-opacity:1;stroke:none;stroke-width:0.2;stroke-miterlimit:4;stroke-dasharray:none;stroke-opacity:1" />
    <ellipse
       ry="1.9999895"
       rx="1.9999906"
       cy="930"
       cx="623"
       id="path4529-6-5-92-0-3-6"
       style="fill:#000000;fill-opacity:0.19607843;stroke:none;stroke-width:0.2;stroke-miterlimit:4;stroke-dasharray:none;stroke-opacity:1" />
    <ellipse
       ry="0.9999913"
       rx="1"
       cy="930"
       cx="623"
       id="path4500-9-1-1"
       style="fill:#ff5656;fill-opacity:1;stroke:none;stroke-width:0.2;stroke-miterlimit:4;stroke-dasharray:none;stroke-opacity:1" />
    <ellipse
       ry="1.9999988"
       rx="2"
       cy="930"
       cx="617"
       id="path4529-6-5-92-3-9-59"
       style="fill:#000000;fill-opacity:0.19607843;stroke:none;stroke-width:0.2;stroke-miterlimit:4;stroke-dasharray:none;stroke-opacity:1" />
    <ellipse
       ry="0.9999913"
       rx="1"
       cy="930"
       cx="617"
       id="path4500-2-4-4"
       style="fill:#5294e2;fill-opacity:1;stroke:none;stroke-width:0.2;stroke-miterlimit:4;stroke-dasharray:none;stroke-opacity:1" />
    <ellipse
       ry="3.9986451"
       rx="3.9986496"
       cy="930.00134"
       cx="595.99866"
       id="path4529-0-6-8-9-2-7-6-6-8-9"
       style="fill:#000000;fill-opacity:0.39215686;stroke:none;stroke-width:0.2;stroke-miterlimit:4;stroke-dasharray:none;stroke-opacity:1" />
    <ellipse
       ry="3.0000043"
       rx="3"
       cy="930.0033"
       cx="596.00061"
       id="path4529-0-6-8-9-2-3-5-2-1-4-0"
       style="fill:#636979;fill-opacity:1;stroke:none;stroke-width:0.2;stroke-miterlimit:4;stroke-dasharray:none;stroke-opacity:1" />
    <ellipse
       ry="1.9999967"
       rx="2"
       cy="930.00269"
       cx="596"
       id="path4529-0-6-8-9-2-3-5-3-9-8-5-9"
       style="fill:#333949;fill-opacity:1;stroke:none;stroke-width:0.2;stroke-miterlimit:4;stroke-dasharray:none;stroke-opacity:1" />
    <ellipse
       ry="3.9999878"
       rx="3.9999924"
       cy="938"
       cx="614"
       id="path4529-0-6-8-9-2-7-6-6-8-6-7"
       style="fill:#000000;fill-opacity:0.39215686;stroke:none;stroke-width:0.2;stroke-miterlimit:4;stroke-dasharray:none;stroke-opacity:1" />
    <ellipse
       ry="3.0000043"
       rx="3"
       cy="938"
       cx="614"
       id="path4529-0-6-8-9-2-3-5-2-1-4-3-7"
       style="fill:#636979;fill-opacity:1;stroke:none;stroke-width:0.2;stroke-miterlimit:4;stroke-dasharray:none;stroke-opacity:1" />
    <ellipse
       ry="1.9999881"
       rx="1.9999915"
       cy="938"
       cx="614"
       id="path4529-0-6-8-9-2-3-5-3-9-8-5-2-11"
       style="fill:#333949;fill-opacity:1;stroke:none;stroke-width:0.2;stroke-miterlimit:4;stroke-dasharray:none;stroke-opacity:1" />
    <ellipse
       ry="3.9999878"
       rx="3.9999924"
       cy="938"
       cx="602"
       id="path4529-0-6-8-9-2-7-6-6-8-6-0-59"
       style="fill:#000000;fill-opacity:0.39215686;stroke:none;stroke-width:0.2;stroke-miterlimit:4;stroke-dasharray:none;stroke-opacity:1" />
    <path
       sodipodi:nodetypes="cccc"
       inkscape:connector-curvature="0"
       id="path4584-77"
       d="m 591.50058,924.875 c 0,0 5.05958,-2.01795 6.91574,-2.11741 1.5247,0 4.25563,4.6761 5.08427,4.74241 h 4.5"
       style="fill:none;fill-rule:evenodd;stroke:#5e6474;stroke-width:1px;stroke-linecap:butt;stroke-linejoin:miter;stroke-opacity:1" />
    <path
       sodipodi:nodetypes="cccc"
       inkscape:connector-curvature="0"
       id="path4584-6-6"
       d="m 624.50059,924.875 c 0,0 -5.05957,-2.01795 -6.91573,-2.11741 -1.5247,0 -4.25563,4.6761 -5.08427,4.74241 h -4.5"
       style="fill:none;fill-rule:evenodd;stroke:#5e6474;stroke-width:1px;stroke-linecap:butt;stroke-linejoin:miter;stroke-opacity:1" />
    <path
       sodipodi:nodetypes="ccccccccccccc"
       id="rect4275-7-5-3"
       d="m 601,935.99998 v 1 h -1 v 2 h 1 v 1 h 2 v -1 h 1 v -2 h -1 v -1 z"
       style="fill:none;fill-opacity:1;stroke:#636979;stroke-width:2;stroke-miterlimit:4;stroke-dasharray:none;stroke-opacity:0.78431373"
       inkscape:connector-curvature="0" />
    <path
       sodipodi:nodetypes="ccccccccccccc"
       inkscape:connector-curvature="0"
       id="rect4275-6-65"
       d="m 601,935.99998 v 1 h -1 v 2 h 1 v 1 h 2 v -1 h 1 v -2 h -1 v -1 z"
       style="fill:#333949;fill-opacity:1;stroke:none;stroke-width:0.2;stroke-miterlimit:4;stroke-dasharray:none;stroke-opacity:1" />
    <ellipse
       ry="0.99998546"
       rx="0.9999935"
       cy="930"
       cx="605"
       id="path4529-6-5-92-6-9-6"
       style="fill:#000000;fill-opacity:0.3014354;stroke:none;stroke-width:0.2;stroke-miterlimit:4;stroke-dasharray:none;stroke-opacity:1" />
    <ellipse
       ry="0.99998546"
       rx="0.9999935"
       cy="930"
       cx="611"
       id="path4529-6-5-92-6-9-3-39"
       style="fill:#000000;fill-opacity:0.3014354;stroke:none;stroke-width:0.2;stroke-miterlimit:4;stroke-dasharray:none;stroke-opacity:1" />
    <path
       sodipodi:nodetypes="cccccsscccccccccssccccscccsc"
       inkscape:connector-curvature="0"
       id="rect4268-17-4-8"
       d="m 599.00051,921.0039 c -1.98473,0 -5.82079,1.8924 -6.60742,2.9961 0.48226,-0.1816 1.04746,-0.392 1.70508,-0.6192 1.50964,-0.5213 3.20675,-1.0629 4.29101,-1.1211 h 0.0137 0.0137 c 0.63675,0 1.13856,0.3907 1.65625,0.8613 0.51768,0.4706 1.03777,1.0713 1.53125,1.666 0.49347,0.5948 0.96099,1.1852 1.34179,1.6153 0.1904,0.215 0.36077,0.3907 0.48633,0.498 0.12327,0.1056 0.21377,0.1106 0.10547,0.1016 h 4.46289 4.46289 c -0.1083,0.01 -0.0178,0 0.10547,-0.1016 0.12556,-0.1073 0.29593,-0.283 0.48633,-0.498 0.3808,-0.4301 0.84832,-1.0205 1.34179,-1.6153 0.49348,-0.5947 1.01357,-1.1954 1.53125,-1.666 0.51769,-0.4706 1.0195,-0.8613 1.65625,-0.8613 h 0.0137 0.0137 c 1.08426,0.058 2.78137,0.5998 4.29101,1.1211 0.65762,0.2272 1.22282,0.4376 1.70508,0.6192 -0.78663,-1.1037 -4.62269,-2.9961 -6.60742,-2.9961 -1.63135,0 -3.40039,1.9961 -3.40039,1.9961 h -5.59961 -5.59961 c 0,0 -1.76904,-1.9961 -3.40039,-1.9961 z"
       style="opacity:1;fill:#3e4454;fill-opacity:1;stroke:none;stroke-width:0.2;stroke-miterlimit:4;stroke-dasharray:none;stroke-opacity:1" />
    <path
       id="rect4268-17-4-3-5"
       d="m 599.00057,920.0038 c -1.47207,0 -3.18006,0.6612 -4.68555,1.4258 -0.75274,0.3823 -1.43181,0.7926 -1.96875,1.2168 -0.26847,0.2121 -0.50266,0.4252 -0.70312,0.6797 -0.0746,0.095 -0.0815,0.2871 -0.14844,0.4062 -0.61831,0.5528 -1.21123,1.2194 -1.63867,2.0742 l -0.0156,0.033 -0.0156,0.035 c 0,0 -4.78945,11.4849 -4.82422,19.875 v 0.031 l 0.002,0.031 c 0.16121,2.7896 0.85358,4.5402 1.68946,5.625 0.83587,1.0848 1.6869,1.4683 2.39453,1.5137 h 0.041 0.0391 c 0.78976,-0.013 1.92418,-0.1148 2.9707,-0.9786 l 0.0176,-0.014 0.0156,-0.018 c 0.23324,-0.2109 0.47828,-0.4871 0.90235,-0.9473 0.42406,-0.4601 0.95748,-1.0453 1.51367,-1.6543 1.11237,-1.218 2.33193,-2.5468 2.87109,-3.0859 0.58213,-0.5822 0.91035,-0.8812 1.14649,-1.0098 0.23613,-0.1286 0.47726,-0.1892 1.1582,-0.1972 h 8.23828 8.23828 c 0.68105,0.01 0.92203,0.069 1.1582,0.1972 0.23617,0.1286 0.5644,0.4277 1.14649,1.0098 0.53916,0.5391 1.75872,1.8679 2.87109,3.0859 0.55619,0.609 1.08961,1.1942 1.51367,1.6543 0.42407,0.4602 0.66911,0.7364 0.90235,0.9473 l 0.0156,0.018 0.0176,0.014 c 1.04652,0.8638 2.18094,0.9661 2.9707,0.9786 h 0.0391 0.0391 c 0.70861,-0.045 1.56061,-0.4289 2.39648,-1.5137 0.83588,-1.0848 1.52825,-2.8354 1.68946,-5.625 l 0.002,-0.031 v -0.031 c -0.0348,-8.39 -4.82422,-19.875 -4.82422,-19.875 l -0.0156,-0.035 -0.0156,-0.033 c -0.42744,-0.8548 -1.02036,-1.5214 -1.63867,-2.0742 -0.067,-0.1191 -0.0738,-0.3115 -0.14844,-0.4062 -0.20046,-0.2545 -0.43465,-0.4676 -0.70312,-0.6797 -0.53694,-0.4242 -1.21601,-0.8345 -1.96875,-1.2168 -1.5055,-0.7646 -3.21348,-1.4258 -4.68555,-1.4258 -1.22354,0 -2.1971,0.6458 -2.92383,1.207 -0.50986,0.3938 -0.66741,0.588 -0.85937,0.7891 h -5.2168 -5.2168 c -0.19196,-0.2011 -0.34951,-0.3953 -0.85937,-0.7891 -0.72673,-0.5612 -1.70029,-1.207 -2.92383,-1.207 z m 0,1 c 1.63135,0 3.40039,1.9961 3.40039,1.9961 h 5.59961 5.59961 c 0,0 1.76904,-1.9961 3.40039,-1.9961 2.22935,0 6.80471,2.3903 6.75781,3.3652 0.57767,0.498 1.10852,1.1175 1.49219,1.8848 0,0 4.7168,11.499 4.75,19.5 -0.30619,5.2983 -2.59962,6.1642 -3.15039,6.1992 -0.75808,-0.012 -1.5137,-0.06 -2.34961,-0.75 -0.42775,-0.3867 -4.08215,-4.4845 -5.25,-5.6523 -1.16785,-1.1679 -1.5001,-1.482 -3,-1.5 h -8.25 -8.25 c -1.4999,0.018 -1.83215,0.3321 -3,1.5 -1.16785,1.1678 -4.82225,5.2656 -5.25,5.6523 -0.83591,0.69 -1.59153,0.738 -2.34961,0.75 -0.55077,-0.035 -2.8442,-0.9009 -3.15039,-6.1992 0.0332,-8.001 4.75,-19.5 4.75,-19.5 0.38367,-0.7673 0.91452,-1.3868 1.49219,-1.8848 -0.0469,-0.9749 4.52846,-3.3652 6.75781,-3.3652 z"
       style="color:#000000;font-style:normal;font-variant:normal;font-weight:normal;font-stretch:normal;font-size:medium;line-height:normal;font-family:sans-serif;text-indent:0;text-align:start;text-decoration:none;text-decoration-line:none;text-decoration-style:solid;text-decoration-color:#000000;letter-spacing:normal;word-spacing:normal;text-transform:none;writing-mode:lr-tb;direction:ltr;baseline-shift:baseline;text-anchor:start;white-space:normal;clip-rule:nonzero;display:inline;overflow:visible;visibility:visible;opacity:1;isolation:auto;mix-blend-mode:normal;color-interpolation:sRGB;color-interpolation-filters:linearRGB;solid-color:#000000;solid-opacity:1;fill:#2c303c;fill-opacity:0.90588235;fill-rule:nonzero;stroke:none;stroke-width:2;stroke-linecap:butt;stroke-linejoin:miter;stroke-miterlimit:4;stroke-dasharray:none;stroke-dashoffset:0;stroke-opacity:1;color-rendering:auto;image-rendering:auto;shape-rendering:auto;text-rendering:auto;enable-background:accumulate"
       inkscape:connector-curvature="0" />
  </g>
</svg>
