<?xml version="1.0" encoding="UTF-8" standalone="no"?>
<svg
   xmlns:dc="http://purl.org/dc/elements/1.1/"
   xmlns:cc="http://creativecommons.org/ns#"
   xmlns:rdf="http://www.w3.org/1999/02/22-rdf-syntax-ns#"
   xmlns:svg="http://www.w3.org/2000/svg"
   xmlns="http://www.w3.org/2000/svg"
   xmlns:sodipodi="http://sodipodi.sourceforge.net/DTD/sodipodi-0.dtd"
   xmlns:inkscape="http://www.inkscape.org/namespaces/inkscape"
   version="1.1"
   width="48"
   height="48"
   id="svg3992"
   sodipodi:docname="applications-education.svg"
   inkscape:version="0.92.4 (5da689c313, 2019-01-14)">
  <sodipodi:namedview
     pagecolor="#ffffff"
     bordercolor="#666666"
     borderopacity="1"
     objecttolerance="10"
     gridtolerance="10"
     guidetolerance="10"
     inkscape:pageopacity="0"
     inkscape:pageshadow="2"
     inkscape:window-width="1366"
     inkscape:window-height="697"
     id="namedview43"
     showgrid="false"
     inkscape:zoom="3.4766083"
     inkscape:cx="18.121557"
     inkscape:cy="39.047509"
     inkscape:window-x="0"
     inkscape:window-y="0"
     inkscape:window-maximized="1"
     inkscape:current-layer="svg3992" />
  <defs
     id="defs3994" />
  <metadata
     id="metadata3997">
    <rdf:RDF>
      <cc:Work
         rdf:about="">
        <dc:format>image/svg+xml</dc:format>
        <dc:type
           rdf:resource="http://purl.org/dc/dcmitype/StillImage" />
        <dc:title />
      </cc:Work>
    </rdf:RDF>
  </metadata>
  <rect
     style="color:#000000;display:inline;overflow:visible;visibility:visible;opacity:0.9;fill:#5ace87;fill-opacity:1;fill-rule:nonzero;stroke:#304b3a;stroke-width:2;stroke-miterlimit:4;stroke-dasharray:none;stroke-opacity:1;marker:none;enable-background:accumulate"
     id="rect5505-21-3"
     y="5"
     x="5"
     ry="2"
     rx="2"
     height="38"
     width="38" />
  <rect
     width="38"
     height="38"
     rx="2"
     ry="2"
     x="5"
     y="5"
     id="rect868"
     style="color:#000000;display:inline;overflow:visible;visibility:visible;fill:#2e6f52;fill-opacity:1;fill-rule:nonzero;stroke:none;stroke-width:2;stroke-miterlimit:4;stroke-dasharray:none;stroke-opacity:1;marker:none;enable-background:accumulate" />
  <path
     d="m 9.712773,23.258678 c -0.330944,0.02361 0.30321,-0.601884 0,0 z m 4.9408,0 c 0.05922,0.615841 -0.181993,-0.272525 0,0 z m 3.072001,7.2576 c -0.38585,0.417166 -0.28851,0.507838 -0.5248,-0.0896 -0.375801,0.711699 -0.975571,0.520198 -1.177601,-0.2432 -0.267889,-1.112007 -0.849205,-2.019274 -1.336804,-3.063198 -0.567552,-1.063853 -2.306127,-0.853081 -3.056799,-0.693599 -0.457803,0.254372 -0.254971,2.123944 -0.662397,0.979197 0.631495,0.239801 -0.372807,-1.04548 0.1792,-1.216 -0.754863,0.389263 -0.517973,1.827873 -0.348002,2.469601 -0.161942,0.715949 -0.401713,1.288149 -1.034398,1.127199 -0.304973,0.100355 -0.653223,0.163269 -0.7808,0.121909 -0.822946,0.06047 -0.101606,-0.830225 -0.6912,-1.171509 0.116397,-0.788016 1.241085,-0.398108 0.5376,-1.3696 0.198098,-1.064421 0.884498,-1.641012 0.0896,-2.521596 0.04592,-0.355529 0.839234,-0.769786 0.985601,-1.062404 1.105564,0.0539 -0.292128,-1.612743 0.448,-1.5872 -0.173879,-0.351846 0.600298,-0.640869 -0.2048,-0.7936 0.09379,-0.454552 0.01125,-0.982585 0.3456,-0.4224 0.660478,-0.05238 0.744344,-0.749843 0.064,-0.3584 0.0023,-0.47019 0.227398,-1.524826 0.256,-0.5888 0.576395,-0.28779 0.04794,-1.154126 0.1536,-1.5744 -0.336013,-0.206495 0.998154,-1.805046 1.619196,-0.870391 0.857827,-0.07479 0.742775,1.015674 0.659204,1.804791 0.97822,0.290722 0.108147,2.340355 0.996761,2.318439 0.04016,0.786353 -0.07353,2.067405 0.526433,2.523165 0.671076,-0.225976 -0.559732,0.982483 0.364802,0.708799 0.302279,0.139441 0.519745,1.048217 0.812804,0.363197 0.351043,0.358196 0.988401,1.308453 0.150393,0.457603 -0.724159,-0.133756 0.14676,1.288146 -0.598393,0.425597 -0.142089,0.620974 0.68799,0.469734 0.358394,1.139202 0.424801,0.136493 0.256041,-0.505311 0.404801,0.217599 0.354377,0.986269 1.100506,1.719622 1.415996,2.761599 l 0.048,0.208 z m -9.126401,-3.5456 c -0.36824,0.341775 0.04677,-0.296476 0,0 z m -0.256,0.64 c -0.192259,-0.133732 0.08553,-0.400957 0,0 z m 0.1024,0.384 c -0.533142,0.182933 -0.09282,-0.635179 0,0 z m -0.256,1.3184 c -0.308097,0.630115 -0.430653,-0.33243 0,0 z m 2.752,0 c -0.03256,0.772358 -0.368736,0.257299 0,0 z m -2.8032,0.4608 c -0.07337,0.444258 -0.347473,-0.107994 0,0 z m 3.0848,-11.7504 c -0.407263,0.241709 0.219653,0.424507 0,0 z m 0.8064,0.32 c 0.04331,-0.200256 -0.295604,0.04288 0,0 z m 0.0512,2.4832 c 0.201297,-1.231762 -1.003976,0.992977 -0.208003,0.0064 l 0.0928,-0.04481 0.1152,0.0384 z m -1.1136,0.4736 c -0.313989,-0.716996 -0.383,0.577162 0,0 z m 3.072,1.1008 c -0.128829,-0.457902 -0.40771,-1.263887 -0.560005,-1.407993 0.21477,0.393787 -0.06267,1.313537 0.560005,1.407993 z m -2.4832,-0.512 c 0.03718,-0.237835 -0.253863,0.04501 0,0 z m -0.3328,0.7168 c -0.559904,-0.351499 0.06098,0.889336 0,0 z m 2.9056,0.2688 c 0.06501,-0.400495 -0.414916,0.08458 0,0 z m -0.7296,2.2272 c 0.26174,-1.203861 -0.687003,-2.28411 -0.914403,-3.397595 -1.009369,0.253306 0.588234,1.114092 -0.455197,1.055195 -0.330333,0.261862 0.742363,0.172915 -0.0384,0.403205 -0.319384,0.278262 0.436269,0.628708 -0.1344,0.774399 0.312498,0.017 -0.54529,1.004211 0.416,0.899999 0.386904,0.01077 0.793135,0.0462 1.126403,0.264797 z m -1.9328,-1.28 c 0.01543,-0.133246 -0.15813,-0.141113 0,0 z m -1.1648,0.2304 c -0.673575,0.324309 0.02217,1.220895 -0.0192,0.108804 z m 0.3072,1.9328 c -0.291816,-0.724477 -0.501518,0.441045 0,0 z m -0.5888,0.4352 c 0.134512,-0.993683 -0.559308,0.100995 0,0 z m -0.4608,0.2816 c -0.03197,-1.016261 -0.661808,0.173271 0,0 z m 1.664,0.2688 c 0,-0.128146 0,-0.08251 0,0 z m -0.8192,0.384 c 0.08146,-0.522209 -0.146184,-0.964423 -0.1024,-0.187767 0.02605,0.09076 -0.07269,0.243932 0.1024,0.187767 z m -0.896,0.5248 c 0.120507,-0.737835 -0.496851,0.116558 0,0 z m 0.512,0.8576 c 0.0052,-0.912064 -0.236834,-0.681173 -0.256,0.0512 0.09223,0.01592 0.172427,-0.02572 0.256,-0.0512 z m -1.28,0.6912 c -0.156092,-0.278403 -0.179911,0.03195 0,0 z m 17.386051,-11.52 c -0.35617,0.175187 -1.02302,-0.757343 0,0 z m 0.256,5.5168 c -0.28579,0.160375 -0.10534,-0.328569 0,0 z m 0.6784,-4.0704 c -0.33764,-0.237717 -1.22919,-0.873135 -0.7424,0.0512 -0.25116,0.593245 1.15364,-0.306092 0.51781,0.357797 -0.29886,0.111254 0.14909,0.482086 -0.39933,0.470926 0.94515,0.485414 -1.36914,1.170365 -0.72008,1.628877 -0.36536,0.327837 -0.60795,0.526202 -0.9088,0.1792 -0.17251,0.581836 -0.71821,-0.520734 -0.6016,0.3072 0.12856,0.686606 0.97502,-0.416619 0.4352,0.5632 -0.63082,0.682499 0.58307,1.11774 0.35519,0.0896 0.6122,-0.546409 0.27488,2.397728 0.80961,1.318395 -0.25259,-0.756021 0.99451,-0.502222 0.28479,-0.0032 -0.0961,0.579759 0.41514,1.058406 0.0992,1.398396 0.56835,-0.278038 0.28428,0.430813 0.0743,0.411755 0.0544,0.405254 -0.54432,1.219966 -0.25356,0.151448 -0.19138,-0.821547 -0.84894,0.227172 -0.3688,0.463999 -0.57053,0.332295 0.0687,1.474125 -0.46319,1.315198 0.23117,-0.915536 -0.22343,-0.509266 -0.52721,-0.0592 -0.30153,0.290268 -0.19503,1.344807 -0.6216,0.7632 -0.32546,0.404151 -0.95926,0.850868 -1.70319,1.071199 -0.002,0.127983 -0.22217,-0.813083 -0.6552,-0.1016 -0.16188,-0.133598 -0.15052,-0.89031 -0.7552,-0.3552 -0.19567,-0.63436 -0.38344,-0.132424 -0.4664,-0.1632 -0.26565,-0.627877 -0.80605,-0.546356 -0.6504,0.1312 -0.40802,0.18688 -0.39134,-1.258128 -0.832,-0.278399 -0.65915,-0.450465 0.68419,-1.584028 -0.2784,-1.750401 0.42908,-0.621073 -0.20171,-1.327101 0.3168,-1.887997 0.23173,-0.769858 -0.12153,-1.720937 -0.1504,-2.246403 -0.25337,0.235899 0.29426,-0.563672 0.0672,-0.822394 0.66239,-0.833658 -0.83232,-0.580956 0.048,-1.180799 -0.0939,-0.892671 -0.45085,-2.142205 0.1792,-3.027207 0.47335,-0.09532 0.87636,-0.575225 1.2704,-0.249591 0.31323,-0.583144 0.89454,-0.08393 1.2,-0.723209 0.59636,-0.290987 0.68253,0.838814 1.1904,0.2688 -0.93309,-0.436234 0.78896,-0.274626 0.6656,0.2176 0.34266,-0.660592 1.10391,-0.19069 1.41001,-0.248885 -0.90899,0.340407 0.55922,0.403825 0.85879,0.721692 0.46217,0.335983 1.17971,0.589998 1.3152,1.216793 z m -8.1664,5.6448 c -0.18166,-0.314656 0.0577,-0.387159 0,0 z m 7.8208,0.1536 c -0.64313,0.01456 0.14418,-0.687752 0,0 z m -0.5888,1.984 c 0.21438,0.618404 -0.41641,-0.128303 0,0 z m -1.0624,1.7024 c -0.70169,-0.156305 0.2208,-0.494552 0,0 z m -1.9584,-11.3408 c -0.0721,-0.371297 -0.28013,0.236747 0,0 z m 1.0496,0.2048 c 0.13106,-0.604751 -0.73861,0.0047 0,0 z m -0.2816,0.5888 c 0.0323,-0.532773 -0.18575,-0.129921 0,0 z m 1.728,0.32 c -0.28894,-0.241134 -0.13815,0.424636 0,0 z m -0.8576,0 c -0.24951,0.324462 0.003,0.657019 0,0 z m 0.9088,0.7936 c 0.0904,-0.984853 -0.60232,0.311334 0,0 z m 0,0.3584 c -0.50225,0.05257 -0.0114,0.268309 0,0 z m -0.384,0.1664 c -0.38382,-0.09255 0.0202,0.436833 0,0 z m -0.3456,0.3328 c -0.32102,-0.288506 -0.19376,0.33252 0,0 z m -0.5888,0.5248 c 0.28431,-1.151819 -0.80619,-1.767526 -1.22241,-2.076792 -0.60807,0.352511 -1.06666,-0.701813 -1.55519,-0.02241 -0.71429,-1.171351 -1.3614,0.780578 -1.0176,0.924808 0.46763,-0.675253 0.37642,-0.457413 0.2624,0.144 0.41602,0.194036 0.15732,0.956857 0.0896,0.671992 0.63719,0.481519 0.0788,1.433791 0.6912,1.9712 0.25499,-0.694747 1.29182,-0.401969 1.64799,-1.185595 0.28756,0.134124 -0.0618,1.625915 0.51521,0.711995 -0.0288,-0.444345 -0.38849,-0.947019 0.2048,-1.3824 0.0732,0.113643 0.21346,0.30296 0.384,0.2432 z m -3.8912,-0.2432 c -0.0355,-0.680722 -0.60906,0.147101 0,0 z m 4.9536,0.2432 c 0.009,-0.30847 -0.41162,0.104808 0,0 z m -5.184,0.0256 c -0.46127,-0.03911 0.15556,0.562551 0,0 z m 4.7104,0.5248 c -0.0602,-0.505564 -0.12728,0.285995 0,0 z m -4.1344,0.064 c -0.66889,-0.779949 -0.14426,1.497536 -0.2048,0.1152 l 0.1216,-0.09919 z m -0.8448,0.1792 c -0.21446,-0.05992 0.0507,0.286307 0,0 z m 1.1648,0.9856 c -0.12914,-0.572046 -0.62789,0.297675 0,0 z m 0.4096,0.3328 c -0.10728,-0.544296 -0.0936,-0.237921 0,0 z m -0.9344,0.256 c 0.0801,-0.365109 -0.2415,-0.343335 0,0 z m 2.8416,-0.256 c -0.16299,0.261723 -0.0282,0.374756 0,0 z m -3.6864,0.256 c 0.11767,-0.651376 -0.80145,0.138535 0,0 z m 0.5888,0.5248 c 0.0472,-0.356949 -0.50247,-0.0234 0,0 z m -0.5888,0.0384 c -0.34348,0.03877 -0.0798,0.670759 0,0 z m 4.9536,0.7808 c 0.21583,-0.539506 -0.3741,-0.427648 0,0 z m -4.16,-0.0256 c -0.44887,0.04066 0.0163,0.798915 -0.01,0.06335 z m 4.416,0.5632 c 0.0999,-0.635518 -0.30157,-0.09327 0,0 z m -5.1584,-0.4736 c -0.5244,0.296681 0.17302,1.448329 0.0288,0.307204 l -0.0152,-0.153601 z m 4.6976,1.0496 c -0.038,-0.702871 -0.21508,-1.446606 -0.9984,-1.408 0.15635,-0.635339 -0.78156,0.454252 -0.8608,-0.492795 -0.0645,-0.227922 -0.26738,0.632178 -0.5216,0.159995 0.23728,-0.635547 -0.13811,-1.838167 -0.2048,-0.5504 0.42735,0.530264 -0.81776,0.640538 -0.63479,0.155291 -0.31617,0.315953 -0.0169,0.694447 -0.47881,1.022309 0.44985,-0.05994 0.80931,0.33976 0.2048,0.448 0.64606,0.652977 -0.099,1.757369 0.1888,2.342402 0.0309,0.496235 -0.0344,0.661782 0.2592,0.857598 0.11427,1.211168 2.09101,0.110647 2.432,-0.6144 0.2377,-0.636167 0.79192,-1.179222 0.6144,-1.92 z m -3.584,-0.0512 c -0.15919,-0.144564 -0.13181,0.574547 -0.3808,0.713603 -0.21431,0.562962 0.531,1.317528 0.0992,0.476797 -0.21918,-0.429333 0.55935,-0.731495 0.2816,-1.1904 z m -1.1136,1.8176 c 0.29142,-1.259363 -0.89851,0.183297 0,0 z m 1.3824,0.8704 c -0.0573,-0.217431 -0.22069,0.09375 0,0 z m -1.5232,0.384 c 0.11849,-0.949897 -0.43325,-0.24352 0,0 z m 12.901,-10.816 c -0.0631,0.32702 -0.36237,0.0043 0,0 z m 7.4624,10.176 c -0.1489,0.417697 -0.89573,1.802622 -0.92161,1.004801 -0.82699,-0.115299 -0.57405,0.86912 -1.248,0.467199 -0.42164,0.13209 -0.73256,0.248647 -0.83013,0.413513 -0.56735,-0.567856 -1.08796,0.41465 -1.83547,-0.109513 -0.49632,0.02633 -0.90181,-0.594643 -0.92479,0.1824 -0.50001,-0.849454 -1.71755,-0.528781 -2.1248,-1.4464 -0.74527,0.398465 -1.88779,-0.573352 -2.2688,-0.700798 -0.0339,-0.539159 -1.01477,-1.794452 -0.8032,-0.502402 -0.13622,0.323414 -0.69174,-0.869701 -0.1664,-1.0112 -1.07013,0.07419 -0.27601,-1.210818 -0.6912,-1.728 -0.31199,-0.334236 -0.11463,-1.765914 -0.6464,-0.694396 -0.27167,0.29091 0.17515,-0.970064 0.48,-1.020804 -0.21068,-0.542165 1.0136,-1.341283 -0.0256,-1.2032 0.41387,-0.185568 0.78846,-1.429299 0.76297,-1.165635 0.0303,1.306243 1.19942,0.03946 0.66103,-0.642357 -0.0526,0.233878 0.87722,1.185297 1.024,0.0736 -0.0962,-0.660078 -0.20725,-0.535071 0.31009,-0.316568 0.45897,-0.202958 0.29879,-0.795276 0.55054,-0.887226 -0.0417,0.491026 0.18021,0.987639 0.35217,0.160587 0.80885,0.196673 0.67574,-1.172962 1.41916,-0.593996 0.0321,-0.946975 1.06106,-0.0045 1.23044,-0.916404 -0.0534,0.778309 0.48335,0.09988 0.8832,0.4608 0.27332,-0.721093 1.16958,-0.786179 1.13279,-0.111991 0.36565,-0.331939 1.26729,0.06862 0.544,0.6816 -0.0544,0.308798 0.76913,0.201225 0.0192,0.505599 -0.64435,0.241426 -1.70896,-0.468172 -2.6928,-0.0568 -1.07834,0.454512 -2.15391,1.079036 -3.00799,1.899199 -0.50834,0.565057 -0.29414,1.314635 -0.9056,1.547999 0.0799,1.076441 -0.55901,2.232001 0.0464,3.188796 0.90422,0.878741 1.3783,1.826204 2.67579,2.144001 0.54697,0.172656 0.73781,0.917993 1.1706,0.4952 1.14708,0.288818 2.08166,0.84927 3.16068,0.419999 1.05498,0.279875 1.32284,-1.229623 1.50812,-1.491198 0.57332,0.04553 0.72714,-1.527836 1.0144,-0.3304 0.17551,0.400907 0.31757,0.853411 0.14721,1.283998 z m -11.9424,-2.688 c -0.0929,0.307234 -0.1907,-0.382158 0,0 z m -0.064,0.3968 c -0.19656,0.03304 0.033,-0.196557 0,0 z m 1.536,1.8944 c -0.20502,0.0078 0.0584,-0.484491 0,0 z m 6.4768,-9.7152 c -0.1756,-0.64697 -0.55034,0.03761 0,0 z m -7.0016,3.8272 c -0.35051,-0.108568 -0.0679,0.234173 0,0 z m -0.256,0.9856 c -0.42603,0.08646 -0.0875,0.419342 0,0 z m 1.3056,0.8832 c -0.30778,-0.138924 -0.0423,0.660736 0,0 z m -1.0496,0.7168 c 0.0482,-0.325448 -0.19537,0.0063 0,0 z m -0.192,1.536 c -0.006,-0.481796 -0.26291,0.26371 0,0 z m 10.7904,1.472 c -0.62744,-0.219372 -0.14825,0.946269 0,0 z m 0,0.8832 c 0.0336,-0.431334 -0.49184,-0.0206 0,0 z m -4.9664,0.5248 c -0.36256,0.02378 0.0334,0.401146 0,0 z m -1.472,0.1664 c -0.0895,-0.521354 -0.33683,0.290463 0,0 z"
     id="text4230"
     style="font-style:normal;font-variant:normal;font-weight:bold;font-stretch:normal;font-size:16px;line-height:100%;font-family:Eraser;-inkscape-font-specification:'Eraser Bold';letter-spacing:0px;word-spacing:0px;fill:#ffffff;fill-opacity:1;stroke:none"
     inkscape:connector-curvature="0" />
</svg>
