<?xml version="1.0" encoding="UTF-8" standalone="no"?>
<svg
   xmlns:dc="http://purl.org/dc/elements/1.1/"
   xmlns:cc="http://creativecommons.org/ns#"
   xmlns:rdf="http://www.w3.org/1999/02/22-rdf-syntax-ns#"
   xmlns:svg="http://www.w3.org/2000/svg"
   xmlns="http://www.w3.org/2000/svg"
   xmlns:sodipodi="http://sodipodi.sourceforge.net/DTD/sodipodi-0.dtd"
   xmlns:inkscape="http://www.inkscape.org/namespaces/inkscape"
   version="1.0"
   width="48"
   height="48"
   id="svg2"
   sodipodi:docname="applications-utilities.svg"
   inkscape:version="0.92.4 (5da689c313, 2019-01-14)">
  <sodipodi:namedview
     pagecolor="#ffffff"
     bordercolor="#666666"
     borderopacity="1"
     objecttolerance="10"
     gridtolerance="10"
     guidetolerance="10"
     inkscape:pageopacity="0"
     inkscape:pageshadow="2"
     inkscape:window-width="1366"
     inkscape:window-height="697"
     id="namedview88"
     showgrid="true"
     inkscape:snap-bbox="true"
     inkscape:bbox-nodes="true"
     inkscape:snap-bbox-edge-midpoints="true"
     inkscape:zoom="3.4766083"
     inkscape:cx="-32.706997"
     inkscape:cy="27.020448"
     inkscape:window-x="0"
     inkscape:window-y="0"
     inkscape:window-maximized="1"
     inkscape:current-layer="svg2">
    <inkscape:grid
       type="xygrid"
       id="grid918" />
  </sodipodi:namedview>
  <metadata
     id="metadata89">
    <rdf:RDF>
      <cc:Work
         rdf:about="">
        <dc:format>image/svg+xml</dc:format>
        <dc:type
           rdf:resource="http://purl.org/dc/dcmitype/StillImage" />
      </cc:Work>
    </rdf:RDF>
  </metadata>
  <defs
     id="defs4" />
  <rect
     style="color:#000000;display:inline;overflow:visible;visibility:visible;fill:#4e9feb;fill-opacity:1;fill-rule:nonzero;stroke:#2071d0;stroke-width:1;stroke-linecap:round;stroke-linejoin:round;stroke-miterlimit:4;stroke-dasharray:none;stroke-dashoffset:0;stroke-opacity:0.84705883;marker:none;enable-background:accumulate"
     id="rect5505-21-69-0"
     y="4.5"
     x="4.5"
     ry="2"
     rx="2"
     height="39"
     width="39" />
  <path
     inkscape:connector-curvature="0"
     style="color:#000000;display:inline;overflow:visible;visibility:visible;opacity:0.1;fill:#ffffff;fill-opacity:1;fill-rule:nonzero;stroke:none;stroke-width:1;marker:none;enable-background:accumulate"
     id="rect3132"
     d="M 8.5,7 V 9 H 7 v 1 h 1.5 v 4 H 7 v 1 h 1.5 v 4 H 7 v 1 h 1.5 v 4 H 7 v 1 h 1.5 v 4 H 7 v 1 h 1.5 v 4 H 7 v 1 h 1.5 v 4 H 7 v 1 h 1.5 v 1 h 1 v -1 h 4 v 1 h 1 v -1 h 4 v 1 h 1 v -1 h 4 v 1 h 1 v -1 h 4 v 1 h 1 v -1 h 4 v 1 h 1 v -1 h 4 v 1 h 1 V 40 H 41 V 39 H 39.5 V 35 H 41 V 34 H 39.5 V 30 H 41 V 29 H 39.5 V 25 H 41 V 24 H 39.5 V 20 H 41 V 19 H 39.5 V 15 H 41 V 14 H 39.5 V 10 H 41 V 9 H 39.5 V 7 h -1 v 2 h -4 V 7 h -1 v 2 h -4 V 7 h -1 v 2 h -4 V 7 h -1 v 2 h -4 V 7 h -1 v 2 h -4 V 7 h -1 v 2 h -4 V 7 Z m 1,3 h 4 v 4 h -4 z m 5,0 h 4 v 4 h -4 z m 5,0 h 4 v 4 h -4 z m 5,0 h 4 v 4 h -4 z m 5,0 h 4 v 4 h -4 z m 5,0 h 4 v 4 h -4 z m -25,5 h 4 v 4 h -4 z m 5,0 h 4 v 4 h -4 z m 5,0 h 4 v 4 h -4 z m 5,0 h 4 v 4 h -4 z m 5,0 h 4 v 4 h -4 z m 5,0 h 4 v 4 h -4 z m -25,5 h 4 v 4 h -4 z m 5,0 h 4 v 4 h -4 z m 5,0 h 4 v 4 h -4 z m 5,0 h 4 v 4 h -4 z m 5,0 h 4 v 4 h -4 z m 5,0 h 4 v 4 h -4 z m -25,5 h 4 v 4 h -4 z m 5,0 h 4 v 4 h -4 z m 5,0 h 4 v 4 h -4 z m 5,0 h 4 v 4 h -4 z m 5,0 h 4 v 4 h -4 z m 5,0 h 4 v 4 h -4 z m -25,5 h 4 v 4 h -4 z m 5,0 h 4 v 4 h -4 z m 5,0 h 4 v 4 h -4 z m 5,0 h 4 v 4 h -4 z m 5,0 h 4 v 4 h -4 z m 5,0 h 4 v 4 h -4 z m -25,5 h 4 v 4 h -4 z m 5,0 h 4 v 4 h -4 z m 5,0 h 4 v 4 h -4 z m 5,0 h 4 v 4 h -4 z m 5,0 h 4 v 4 h -4 z m 5,0 h 4 v 4 h -4 z" />
  <rect
     style="opacity:0.65;vector-effect:none;fill:#ffffff;fill-opacity:1;stroke:#000000;stroke-width:0.99999994;stroke-linecap:butt;stroke-linejoin:miter;stroke-miterlimit:4;stroke-dasharray:none;stroke-dashoffset:0;stroke-opacity:0.25490196;paint-order:stroke markers fill"
     id="rect922"
     width="9"
     height="14.384617"
     x="19.5"
     y="23.115383"
     rx="4.4999986"
     ry="3.5857484" />
  <path
     style="opacity:1;fill:#ffffff;fill-opacity:1;stroke:#000000;stroke-width:0.99999988;stroke-miterlimit:4;stroke-dasharray:none;stroke-opacity:0.25490196;paint-order:stroke markers fill"
     d="M 19.846154,12.01952 C 16.869357,13.568257 15.001347,16.644432 15,20.000007 15.000001,24.970572 19.029437,29 24,29 c 4.970563,0 9,-4.029427 9,-8.999992 -0.0029,-3.354136 -1.870649,-6.428374 -4.846152,-7.976431 v 6.591807 L 24,22.76923 19.846154,18.615384 Z"
     id="path924"
     inkscape:connector-curvature="0"
     sodipodi:nodetypes="ccscccccc" />
  <path
     sodipodi:nodetypes="ccscccccc"
     inkscape:connector-curvature="0"
     id="path841"
     d="M 19.846154,12.01952 C 16.869357,13.568257 15.001347,16.644432 15,20.000007 15.000001,24.970572 19.029437,29 24,29 c 4.970563,0 9,-4.029427 9,-8.999992 -0.0029,-3.354136 -1.870649,-6.428374 -4.846152,-7.976431 v 6.591807 L 24,22.76923 19.846154,18.615384 Z"
     style="opacity:1;fill:#ffffff;fill-opacity:1;stroke:none;stroke-width:0.99999988;stroke-miterlimit:4;stroke-dasharray:none;stroke-opacity:0.25490196;paint-order:stroke markers fill" />
</svg>
