<svg xmlns="http://www.w3.org/2000/svg" height="48" width="48"><rect y="15" x="11" ry="0" rx="0" height="27" width="18" fill="#6ebbf6"/><path style="line-height:normal;text-indent:0;text-align:start;text-decoration-line:none;text-decoration-style:solid;text-decoration-color:#000;text-transform:none;block-progression:tb;white-space:normal;isolation:auto;mix-blend-mode:normal;solid-color:#000;solid-opacity:1;marker:none" d="M7.65 15a.647.647 0 0 0-.65.643v25.714c0 .355.291.643.65.643h24.7c.359 0 .65-.288.65-.643V15.643a.647.647 0 0 0-.65-.643H7.65zM12 16h15.8v25H12V16zm-3.5 2h2v1h-2v-1zm21 0h2v1h-2v-1zm-21 3h2v1h-2v-1zm21 0h2v1h-2v-1zm-21 3h2v1h-2v-1zm21 0h2v1h-2v-1zm-21 3h2v1h-2v-1zm21 0h2v1h-2v-1zm-21 3h2v1h-2v-1zm21 0h2v1h-2v-1zm-21 3h2v1h-2v-1zm21 0h2v1h-2v-1zm-21 3h2v1h-2v-1zm21 0h2v1h-2v-1zm-21 3h2v1h-2v-1zm21 0h2v1h-2v-1z" color="#000" font-weight="400" font-family="sans-serif" overflow="visible" opacity=".7"/><path d="M12.5 28.5h14.938" style="marker:none" display="block" overflow="visible" opacity=".7" fill="none" stroke="#000" stroke-linecap="square" stroke-linejoin="round"/><path style="marker:none" d="M8.5 18v1h2v-1zm0 3v1h2v-1zm0 3v1h2v-1zm0 3v1h2v-1zm0 3v1h2v-1zm21 0v1h2v-1zm-21 3v1h2v-1zm21 0v1h2v-1zm-21 3v1h2v-1zm21 0v1h2v-1zm-21 3v1h2v-1zm21 0v1h2v-1z" color="#000" overflow="visible" opacity=".3" fill="#e6e6e6"/><rect style="marker:none" y="5.5" x="17.5" ry="2" rx="2" height="25" width="25" color="#000" overflow="visible" fill="#fb9347"/><rect style="marker:none" y="5.5" x="17.5" ry="2" rx="2" height="25" width="25" color="#000" overflow="visible" opacity=".35" fill="none" stroke="#a62100" stroke-linecap="round" stroke-linejoin="round"/><path style="marker:none" d="M30.467 8c-.54-.077-.453.422-.445.774-.006 4.169.012 8.34-.009 12.508-.145.325-.552.01-.8.072-1.735-.054-3.602 1.195-3.848 3.03-.253 1.38 1.032 2.594 2.322 2.615 1.918.053 3.578-1.878 3.334-3.814.007-3.328-.013-6.66.01-9.986.131-.316.486-.019.651.095 1.521.92 2.85 2.446 2.945 4.327.081 1.089-.147 2.173-.46 3.208 1.398-2.301 1.322-5.504-.406-7.606-1.33-1.388-2.58-3.045-2.833-5.03-.05-.187-.307-.185-.46-.192z" color="#000" overflow="visible" fill="#fff6ec"/></svg>