<?xml version="1.0" encoding="UTF-8" standalone="no"?>
<svg
   xmlns:dc="http://purl.org/dc/elements/1.1/"
   xmlns:cc="http://creativecommons.org/ns#"
   xmlns:rdf="http://www.w3.org/1999/02/22-rdf-syntax-ns#"
   xmlns:svg="http://www.w3.org/2000/svg"
   xmlns="http://www.w3.org/2000/svg"
   xmlns:sodipodi="http://sodipodi.sourceforge.net/DTD/sodipodi-0.dtd"
   xmlns:inkscape="http://www.inkscape.org/namespaces/inkscape"
   id="svg4082"
   height="48"
   width="48"
   version="1.1"
   sodipodi:docname="applications-internet.svg"
   inkscape:version="0.92.4 (5da689c313, 2019-01-14)">
  <sodipodi:namedview
     pagecolor="#ffffff"
     bordercolor="#666666"
     borderopacity="1"
     objecttolerance="10"
     gridtolerance="10"
     guidetolerance="10"
     inkscape:pageopacity="0"
     inkscape:pageshadow="2"
     inkscape:window-width="1366"
     inkscape:window-height="697"
     id="namedview43"
     showgrid="false"
     inkscape:zoom="4.9166667"
     inkscape:cx="40.961029"
     inkscape:cy="28.316845"
     inkscape:window-x="0"
     inkscape:window-y="0"
     inkscape:window-maximized="1"
     inkscape:current-layer="svg4082" />
  <defs
     id="defs4084" />
  <metadata
     id="metadata4087">
    <rdf:RDF>
      <cc:Work
         rdf:about="">
        <dc:format>image/svg+xml</dc:format>
        <dc:type
           rdf:resource="http://purl.org/dc/dcmitype/StillImage" />
        <dc:title />
      </cc:Work>
    </rdf:RDF>
  </metadata>
  <path
     style="color:#000000;fill:#f9f9f9;fill-opacity:1;fill-rule:nonzero;stroke:none;stroke-width:1;marker:none;visibility:visible;display:inline;overflow:visible;enable-background:accumulate"
     id="rect4519"
     d="m 27.914905,7 c -4.357292,0 -8.130867,2.549563 -10.001331,6.250015 -1.212317,-0.787081 -2.647431,-1.249979 -4.190162,-1.249979 -4.3242568,0 -7.8297768,3.581651 -7.8297768,7.999992 0,0.702453 0.1087322,1.38205 0.2752605,2.031204 C 3.0457608,24.183493 1,27.845 1,31.999955 1,38.647949 6.2381285,44 12.744673,44 l 22.510661,0 C 41.761886,44 47,38.647949 47,31.999955 c 0,-5.308692 -3.354225,-9.78442 -8.01331,-11.374989 0.126411,-0.68995 0.183508,-1.397483 0.183508,-2.124928 C 39.170198,12.148695 34.131047,7 27.914905,7 z" />
  <path
     style="opacity:0.35;color:#000000;fill:none;stroke:#555761;stroke-width:0.99999994;stroke-linecap:round;stroke-linejoin:round;stroke-miterlimit:4;stroke-opacity:1;stroke-dasharray:none;stroke-dashoffset:0;marker:none;visibility:visible;display:inline;overflow:visible;enable-background:accumulate"
     id="rect4519-6"
     d="m 28.000001,6.4999997 c -4.452007,0 -8.307616,2.6184603 -10.218749,6.4189353 -1.238671,-0.808364 -2.704975,-1.283765 -4.281244,-1.283765 -4.4182724,0 -8.0000071,3.678452 -8.0000071,8.216208 0,0.721438 0.1111277,1.419412 0.2812521,2.086112 C 2.5902322,24.147901 0.5,27.908377 0.5,32.175643 c 0,6.827672 5.3519926,12.324355 11.999998,12.324355 l 23.000016,0 c 6.64799,0 11.999986,-5.496683 11.999986,-12.324355 0,-5.452179 -3.427153,-10.048872 -8.187505,-11.68243 0.12916,-0.708606 0.18749,-1.43526 0.18749,-2.182355 0,-6.523 -5.148705,-11.8108583 -11.499984,-11.8108583 z" />
</svg>
