<?xml version="1.0" encoding="UTF-8" standalone="no"?>
<svg
   xmlns:dc="http://purl.org/dc/elements/1.1/"
   xmlns:cc="http://creativecommons.org/ns#"
   xmlns:rdf="http://www.w3.org/1999/02/22-rdf-syntax-ns#"
   xmlns:svg="http://www.w3.org/2000/svg"
   xmlns="http://www.w3.org/2000/svg"
   xmlns:xlink="http://www.w3.org/1999/xlink"
   xmlns:sodipodi="http://sodipodi.sourceforge.net/DTD/sodipodi-0.dtd"
   xmlns:inkscape="http://www.inkscape.org/namespaces/inkscape"
   version="1.1"
   width="48"
   height="48"
   id="svg4362"
   sodipodi:docname="apport.svg"
   inkscape:version="0.92.4 (5da689c313, 2019-01-14)">
  <sodipodi:namedview
     pagecolor="#ffffff"
     bordercolor="#666666"
     borderopacity="1"
     objecttolerance="10"
     gridtolerance="10"
     guidetolerance="10"
     inkscape:pageopacity="0"
     inkscape:pageshadow="2"
     inkscape:window-width="1366"
     inkscape:window-height="697"
     id="namedview182"
     showgrid="false"
     inkscape:zoom="4.9166667"
     inkscape:cx="-29.794288"
     inkscape:cy="19.539517"
     inkscape:window-x="0"
     inkscape:window-y="0"
     inkscape:window-maximized="1"
     inkscape:current-layer="svg4362" />
  <defs
     id="defs4364">
    <linearGradient
       x1="-3.8120477"
       y1="14.568024"
       x2="-5.4384832"
       y2="8.8043308"
       id="linearGradient5108"
       xlink:href="#linearGradient3707-319-631-407-324-616-674-812-821-107-178-392-400-6-3-549-901-1-9-100-4-2"
       gradientUnits="userSpaceOnUse"
       gradientTransform="matrix(1.0897832,0,0,0.70733866,37.620339,2.3757569)" />
    <linearGradient
       id="linearGradient3707-319-631-407-324-616-674-812-821-107-178-392-400-6-3-549-901-1-9-100-4-2">
      <stop
         id="stop17839-7-3"
         style="stop-color:#000000;stop-opacity:1"
         offset="0" />
      <stop
         id="stop17841-4-8"
         style="stop-color:#161616;stop-opacity:1"
         offset="1" />
    </linearGradient>
    <linearGradient
       x1="-3.8120477"
       y1="14.568024"
       x2="-5.4384832"
       y2="8.8043308"
       id="linearGradient7375-1"
       xlink:href="#linearGradient3707-319-631-407-324-616-674-812-821-107-178-392-400-6-3-549-901-1-9-100-4"
       gradientUnits="userSpaceOnUse"
       gradientTransform="matrix(2,0,0,1.7683467,48.99642,-5.935608)" />
    <linearGradient
       id="linearGradient3707-319-631-407-324-616-674-812-821-107-178-392-400-6-3-549-901-1-9-100-4">
      <stop
         id="stop17839-7"
         style="stop-color:#000000;stop-opacity:1"
         offset="0" />
      <stop
         id="stop17841-4"
         style="stop-color:#161616;stop-opacity:1"
         offset="1" />
    </linearGradient>
  </defs>
  <metadata
     id="metadata4367">
    <rdf:RDF>
      <cc:Work
         rdf:about="">
        <dc:format>image/svg+xml</dc:format>
        <dc:type
           rdf:resource="http://purl.org/dc/dcmitype/StillImage" />
        <dc:title />
      </cc:Work>
    </rdf:RDF>
  </metadata>
  <rect
     style="color:#000000;display:inline;overflow:visible;visibility:visible;fill:#bad557;fill-opacity:1;fill-rule:nonzero;stroke:#599f15;stroke-width:1;stroke-linecap:round;stroke-linejoin:round;stroke-miterlimit:4;stroke-dasharray:none;stroke-dashoffset:0;stroke-opacity:0.74509805;marker:none;enable-background:accumulate"
     id="rect5505-21"
     y="5.5"
     x="4.5000081"
     ry="2"
     rx="2"
     height="39"
     width="39" />
  <rect
     style="color:#000000;display:inline;overflow:visible;visibility:visible;fill:#4d4d4d;fill-opacity:1;fill-rule:nonzero;stroke:#000000;stroke-width:1;stroke-linecap:round;stroke-linejoin:round;stroke-miterlimit:4;stroke-dasharray:none;stroke-dashoffset:0;stroke-opacity:1;marker:none;enable-background:accumulate"
     id="rect4659"
     y="19.5"
     x="15.5"
     ry="8.5"
     rx="8.5"
     height="19"
     width="17" />
  <rect
     style="color:#000000;display:inline;overflow:visible;visibility:visible;opacity:0.5;fill:none;stroke:#000000;stroke-width:1;stroke-linecap:round;stroke-linejoin:round;stroke-miterlimit:4;stroke-dasharray:none;stroke-dashoffset:0;stroke-opacity:1;marker:none;enable-background:accumulate"
     id="rect4659-3"
     y="11.5"
     x="15.5"
     ry="8.5"
     rx="8.5"
     height="19"
     width="17" />
  <path
     inkscape:connector-curvature="0"
     style="fill:#cf3738;fill-opacity:1;stroke:#791235;stroke-width:1px;stroke-linecap:butt;stroke-linejoin:miter;stroke-opacity:1"
     id="path3899"
     d="m 13.78125,16.15625 c -3.617753,2.264433 -6.96875,5.884962 -6.96875,11.5625 0,12.133394 7.9375,13.71875 7.9375,13.71875 0,0 3.523564,-13.353064 9.125,-21.28125 L 23.75,19.375 c -4.401286,-0.04822 -8.163195,-1.35244 -9.96875,-3.21875 z" />
  <path
     inkscape:connector-curvature="0"
     style="opacity:0.3;fill:#ff932e;fill-opacity:1;stroke:none"
     id="path4216"
     d="m 15.510851,37.621911 -1.101103,3.31027 c 0,0 -5.9391776,-1.459422 -6.9844277,-10.875961 2.8849607,7.385293 8.0855307,7.565691 8.0855307,7.565691 z" />
  <path
     inkscape:connector-curvature="0"
     style="fill:#1a1a1a;stroke:none;stroke-width:1.24330354"
     id="path4178-0"
     d="M 14.000001,27.5 A 1.4999999,1.4999999 0 1 0 17,27.5 a 1.4999999,1.4999999 0 1 0 -2.999999,0 z" />
  <path
     inkscape:connector-curvature="0"
     style="fill:#1a1a1a;stroke:none;stroke-width:0.82886904"
     id="path4178-6-4"
     d="m 12,22 a 1,1 0 1 0 2,0 1,1 0 1 0 -2,0 z" />
  <path
     inkscape:connector-curvature="0"
     style="fill:#1a1a1a;stroke:none;stroke-width:0.82886904"
     id="path4178-6-9-8"
     d="m 11,33 a 1,1 0 1 0 2,0 1,1 0 1 0 -2,0 z" />
  <path
     inkscape:connector-curvature="0"
     style="fill:#cf3738;fill-opacity:1;stroke:#791235;stroke-width:1px;stroke-linecap:butt;stroke-linejoin:miter;stroke-opacity:1"
     id="path3899-9"
     d="m 34.20575,16.15625 c 3.617753,2.264433 6.96875,5.884962 6.96875,11.5625 0,12.133394 -7.9375,13.71875 -7.9375,13.71875 0,0 -3.523564,-13.353064 -9.125,-21.28125 L 24.237,19.375 c 4.401286,-0.04822 8.163195,-1.35244 9.96875,-3.21875 z" />
  <path
     inkscape:connector-curvature="0"
     style="opacity:0.3;fill:#ff932e;fill-opacity:1;stroke:none"
     id="path4216-4"
     d="m 32.476149,37.621911 1.101103,3.31027 c 0,0 5.939178,-1.459422 6.984428,-10.875961 -2.884961,7.385293 -8.085531,7.565691 -8.085531,7.565691 z" />
  <path
     inkscape:connector-curvature="0"
     style="fill:#1a1a1a;stroke:none;stroke-width:1.24330354"
     id="path4178-0-4"
     d="m 33.986999,27.5 a 1.4999999,1.4999999 0 1 1 -2.999999,0 1.4999999,1.4999999 0 1 1 2.999999,0 z" />
  <path
     inkscape:connector-curvature="0"
     style="fill:#1a1a1a;stroke:none;stroke-width:0.82886904"
     id="path4178-6-4-8"
     d="m 35.987,22 a 1,1 0 1 1 -2,0 1,1 0 1 1 2,0 z" />
  <path
     inkscape:connector-curvature="0"
     style="fill:#1a1a1a;stroke:none;stroke-width:0.82886904"
     id="path4178-6-9-8-6"
     d="m 36.987,33 a 1,1 0 1 1 -2,0 1,1 0 1 1 2,0 z" />
  <path
     inkscape:connector-curvature="0"
     style="color:#000000;display:inline;overflow:visible;visibility:visible;fill:#4d4d4d;fill-opacity:1;fill-rule:nonzero;stroke:url(#linearGradient7375-1);stroke-width:1;stroke-linecap:round;stroke-linejoin:round;stroke-miterlimit:4;stroke-dasharray:none;stroke-dashoffset:0;stroke-opacity:1;marker:none;enable-background:accumulate"
     id="path4485"
     d="m 24,9.375 c -4.51614,0 -8.399542,2.953818 -10.09375,7.183908 C 15.800431,18.236399 19.604958,19.375 24,19.375 c 4.395042,0 8.199569,-1.138601 10.09375,-2.816092 C 32.399542,12.328818 28.51614,9.375 24,9.375 Z" />
  <path
     inkscape:connector-curvature="0"
     style="color:#000000;display:inline;overflow:visible;visibility:visible;fill:#666666;fill-opacity:1;fill-rule:nonzero;stroke:url(#linearGradient5108);stroke-width:1;stroke-linecap:round;stroke-linejoin:round;stroke-miterlimit:4;stroke-dasharray:none;stroke-dashoffset:0;stroke-opacity:1;marker:none;enable-background:accumulate"
     id="path4485-9"
     d="m 24,8.5 c -2.460806,0 -4.576839,1.181527 -5.5,2.873563 C 19.532123,12.044559 21.605179,12.5 24,12.5 c 2.394821,0 4.467877,-0.455441 5.5,-1.126437 C 28.576839,9.681527 26.460808,8.5 24,8.5 Z" />
  <path
     inkscape:connector-curvature="0"
     style="color:#000000;display:inline;overflow:visible;visibility:visible;fill:#0b0b0b;fill-opacity:1;stroke:none;stroke-width:2px;marker:none;enable-background:accumulate"
     id="path5155"
     d="m 21.000001,8 a 1.000001,1.000001 0 1 1 -2.000002,0 1.000001,1.000001 0 1 1 2.000002,0 z" />
  <path
     inkscape:connector-curvature="0"
     style="color:#000000;display:inline;overflow:visible;visibility:visible;fill:#0b0b0b;fill-opacity:1;stroke:none;stroke-width:2px;marker:none;enable-background:accumulate"
     id="path5155-5"
     d="m 29.000001,8 a 1.000001,1.000001 0 1 1 -2.000002,0 1.000001,1.000001 0 1 1 2.000002,0 z" />
</svg>
