<?xml version="1.0" encoding="UTF-8" standalone="no"?>
<svg
   xmlns:dc="http://purl.org/dc/elements/1.1/"
   xmlns:cc="http://creativecommons.org/ns#"
   xmlns:rdf="http://www.w3.org/1999/02/22-rdf-syntax-ns#"
   xmlns:svg="http://www.w3.org/2000/svg"
   xmlns="http://www.w3.org/2000/svg"
   xmlns:sodipodi="http://sodipodi.sourceforge.net/DTD/sodipodi-0.dtd"
   xmlns:inkscape="http://www.inkscape.org/namespaces/inkscape"
   height="48"
   width="48"
   version="1.1"
   id="svg83"
   sodipodi:docname="cs-desklets.svg"
   inkscape:version="0.92.4 (5da689c313, 2019-01-14)">
  <metadata
     id="metadata87">
    <rdf:RDF>
      <cc:Work
         rdf:about="">
        <dc:format>image/svg+xml</dc:format>
        <dc:type
           rdf:resource="http://purl.org/dc/dcmitype/StillImage" />
        <dc:title></dc:title>
      </cc:Work>
    </rdf:RDF>
  </metadata>
  <sodipodi:namedview
     pagecolor="#ffffff"
     bordercolor="#666666"
     borderopacity="1"
     objecttolerance="10"
     gridtolerance="10"
     guidetolerance="10"
     inkscape:pageopacity="0"
     inkscape:pageshadow="2"
     inkscape:window-width="1366"
     inkscape:window-height="697"
     id="namedview85"
     showgrid="true"
     inkscape:zoom="1.2291667"
     inkscape:cx="21.749158"
     inkscape:cy="49.628165"
     inkscape:window-x="0"
     inkscape:window-y="0"
     inkscape:window-maximized="1"
     inkscape:current-layer="svg83">
    <inkscape:grid
       type="xygrid"
       id="grid914" />
  </sodipodi:namedview>
  <defs
     id="defs49" />
  <rect
     style="color:#000000;display:inline;overflow:visible;visibility:visible;opacity:0.75;fill:none;fill-opacity:1;fill-rule:nonzero;stroke:#b5950b;stroke-width:2;stroke-miterlimit:4;stroke-dasharray:none;stroke-opacity:1;marker:none;enable-background:accumulate"
     id="rect5505-21"
     y="5"
     x="5"
     ry="2"
     rx="2"
     height="38"
     width="38" />
  <rect
     width="38"
     height="38"
     rx="2"
     ry="2"
     x="5"
     y="5"
     id="rect868"
     style="color:#000000;display:inline;overflow:visible;visibility:visible;fill:#f5d858;fill-opacity:1;fill-rule:nonzero;stroke:none;stroke-width:2;stroke-miterlimit:4;stroke-dasharray:none;stroke-opacity:1;marker:none;enable-background:accumulate" />
  <path
     d="m 6.9621064,24.122761 c 0.01407,-0.211193 0.054556,-0.366067 0.1214333,-0.464624 0.066878,-0.09856 0.2076677,-0.219989 0.4223897,-0.364309 0.2147075,-0.14431 0.4487815,-0.20239 0.702198,-0.174236 0.2534261,0.02816 0.2886248,0.170716 0.1055962,0.427667 -0.1830382,0.256956 -0.2710351,0.510406 -0.2639953,0.760302 0.00706,0.249916 0.1407949,0.42943 0.4012656,0.538546 0.2604706,0.109116 0.5438277,0.08976 0.8500519,-0.05808 0.306229,-0.147834 0.6634938,-0.367824 1.0718092,-0.659988 0.4083,-0.29215 0.820135,-0.661717 1.235461,-1.108784 0.415341,-0.44702 0.76909,-0.89231 1.061245,-1.335776 0.292144,-0.443499 0.526204,-0.857111 0.702198,-1.240743 0.175984,-0.383662 0.285105,-0.762031 0.327348,-1.135148 0.04221,-0.373101 -0.07568,-0.725103 -0.35375,-1.055962 -0.278079,-0.330863 -0.422394,-0.608943 -0.432944,-0.834205 -0.01056,-0.225262 0.117908,-0.443499 0.385428,-0.654706 0.478698,9e-6 0.811348,0.140804 0.997906,0.422385 0.186549,0.281599 0.355503,0.570239 0.506853,0.865898 0.151344,0.295679 0.28158,0.59665 0.390706,0.902874 0.109106,0.306239 0.223504,0.584309 0.34319,0.834206 0.119666,0.24992 0.207663,0.506852 0.26399,0.770866 0.05631,0.263996 0.146068,0.545605 0.269273,0.84477 0.123186,0.299194 0.228782,0.614225 0.316789,0.945084 0.08799,0.330873 0.230539,0.346715 0.427667,0.04752 0.197103,-0.299185 0.508629,-0.675835 0.934519,-1.129865 0.425895,-0.454059 0.795501,-0.837711 1.108784,-1.150994 0.313255,-0.313264 0.663494,-0.62479 1.05068,-0.93452 0.387172,-0.309744 0.781383,-0.587814 1.182687,-0.834205 0.401252,-0.246386 0.848276,-0.468138 1.341058,-0.665271 0.492782,-0.197103 0.932742,-0.29214 1.319977,-0.285109 0.387171,0.007 0.749738,0.06864 1.087655,0.184795 0.337889,0.116166 0.615954,0.249921 0.834205,0.401266 0.218213,0.151364 0.394207,0.339675 0.527981,0.564957 0.133736,0.225281 0.207654,0.619507 0.221752,1.182687 -0.105615,0.239356 -0.234093,0.348472 -0.385428,0.327348 -0.151374,-0.02111 -0.237613,-0.186548 -0.258713,-0.496288 -0.02113,-0.309744 -0.135537,-0.564956 -0.34319,-0.765584 -0.207692,-0.200628 -0.415365,-0.346701 -0.623013,-0.438227 -0.207692,-0.09151 -0.480489,-0.165429 -0.818359,-0.221752 -0.337927,-0.05631 -0.670553,-0.02991 -0.997906,0.07919 -0.327367,0.109125 -0.681117,0.281599 -1.061244,0.517416 -0.380166,0.235842 -0.823689,0.526253 -1.330541,0.871181 -0.5069,0.344957 -0.997906,0.758526 -1.473065,1.240744 -0.475197,0.482218 -0.865899,0.931013 -1.172123,1.346339 -0.306243,0.41535 -0.57725,0.814854 -0.813076,1.198534 -0.235841,0.383671 -0.408315,0.791996 -0.517417,1.224897 -0.109126,0.432949 -0.246401,0.846547 -0.411825,1.240744 -0.165444,0.394226 -0.374879,0.696915 -0.628295,0.908108 -0.380156,-0.05632 -0.579027,-0.170716 -0.596602,-0.34319 -0.01762,-0.172474 0.03342,-0.367829 0.153117,-0.586038 0.119666,-0.218232 0.221742,-0.494559 0.306229,-0.828923 0.08447,-0.334388 0.133746,-0.681117 0.147835,-1.040115 0.01407,-0.359017 -0.03871,-0.726823 -0.158395,-1.103492 -0.119685,-0.376622 -0.234083,-0.693411 -0.34319,-0.950366 -0.109126,-0.256946 -0.228801,-0.469901 -0.359027,-0.63886 -0.130245,-0.168949 -0.269278,-0.163671 -0.417107,0.01584 -0.147845,0.179519 -0.360795,0.448791 -0.63886,0.807795 -0.27808,0.359032 -0.623013,0.74095 -1.034833,1.145711 -0.411835,0.404791 -0.950366,0.862393 -1.615637,1.372751 -0.665271,0.510406 -1.2671548,0.851829 -1.8057003,1.024269 -0.5385455,0.172474 -0.976777,0.207673 -1.3146945,0.105596 C 7.5745453,25.641608 7.3439911,25.470896 7.2207716,25.23155 7.097576,24.992198 7.0113367,24.622607 6.9620632,24.122766 m 12.5236448,0.96093 c 0.112636,0.168954 0.251673,0.256951 0.417107,0.26399 0.165434,0.007 0.322066,-0.03872 0.469906,-0.137275 0.147834,-0.09856 0.322066,-0.19183 0.522699,-0.279832 0.200632,-0.088 0.395983,-0.197113 0.586037,-0.327348 0.190068,-0.130236 0.285105,-0.293907 0.28511,-0.491006 -5e-6,-0.197113 -0.07392,-0.350225 -0.221752,-0.459346 -0.14784,-0.109111 -0.209435,-0.248149 -0.184796,-0.417107 0.02463,-0.168954 0.102071,-0.28511 0.232312,-0.348468 0.13023,-0.06335 0.346705,-0.09855 0.649423,-0.105596 0.316784,0.06336 0.510358,0.221757 0.580804,0.475183 0.07039,0.253436 0.06512,0.489277 -0.01585,0.70748 -0.08096,0.218237 0.01935,0.41535 0.300952,0.59132 0.281585,0.175993 0.533263,0.234074 0.75502,0.174236 0.221747,-0.05984 0.346705,0.0088 0.374869,0.205915 -0.0352,0.211192 -0.09328,0.337908 -0.174236,0.380146 -0.08096,0.04224 -0.244639,0.08096 -0.491006,0.116156 -0.246396,0.0352 -0.542051,-0.04048 -0.887027,-0.227034 -0.344953,-0.186553 -0.591368,-0.22351 -0.739174,-0.110879 -0.147839,0.112636 -0.369591,0.258714 -0.66527,0.438227 -0.295675,0.179514 -0.586086,0.322071 -0.871181,0.427667 -0.285115,0.105596 -0.61072,0.158395 -0.976777,0.158395 -0.337908,-0.112636 -0.57725,-0.286873 -0.718045,-0.522699 -0.140795,-0.235832 -0.211192,-0.494559 -0.211192,-0.776149 0.0352,-0.197113 0.181276,-0.413588 0.438226,-0.649424 0.256951,-0.235832 0.503347,-0.432945 0.739174,-0.59132 0.235831,-0.158394 0.475183,-0.27455 0.718045,-0.348467 0.242871,-0.07391 0.415345,-0.06335 0.517416,0.03168 0.102077,0.09504 0.168954,0.211197 0.200633,0.348467 0.03169,0.13728 0.01758,0.248154 -0.04226,0.332631 -0.05984,0.08448 -0.147839,0.140794 -0.26399,0.168953 -0.116161,0.02816 -0.276313,0.06512 -0.480441,0.110879 -0.204153,0.04576 -0.424148,0.158399 -0.659989,0.337908 -0.235831,0.179513 -0.297432,0.35375 -0.184796,0.522699 m 4.540638,-0.158395 c 0.0704,-0.190073 0.167196,-0.390706 0.290392,-0.601884 0.123195,-0.211192 0.406548,-0.517416 0.850052,-0.918672 0.443504,-0.401266 0.770866,-0.760303 0.982059,-1.077091 -0.323833,0.04224 -0.540322,0.06512 -0.649424,0.06864 -0.109121,0.0035 -0.174236,-0.0616 -0.195355,-0.195356 -0.02113,-0.13375 0.01056,-0.232307 0.09504,-0.295669 0.08448,-0.06335 0.249911,-0.110874 0.496288,-0.142558 0.246391,-0.03167 0.503347,-0.07215 0.770867,-0.121438 0.471663,-0.443499 0.857111,-0.799006 1.156276,-1.066526 0.299184,-0.267506 0.619507,-0.556121 0.96093,-0.865899 0.341423,-0.309744 0.665271,-0.568462 0.971495,-0.776149 0.306224,-0.207667 0.571967,-0.315021 0.797278,-0.322071 0.13375,0.176004 0.0088,0.434712 -0.374869,0.776149 -0.383671,0.341438 -0.688128,0.62479 -0.913391,0.850052 l -0.649424,0.649424 c -0.207677,0.207678 -0.445271,0.455831 -0.712762,0.744456 0.344943,-0.04223 0.860616,-0.102072 1.546968,-0.179514 0.686351,-0.07743 1.388597,-0.149592 2.106642,-0.216474 0.718045,-0.06687 1.441371,-0.124953 2.170029,-0.174236 0.728609,-0.04927 1.443148,-0.08095 2.143617,-0.09504 0.700421,-0.01407 1.429078,-0.01231 2.185827,0.0053 0.756749,0.0176 1.372751,0.04928 1.847958,0.09504 0.475169,0.04576 0.853558,0.19184 1.135147,0.438227 -0.288648,0.09152 -0.552663,0.121442 -0.791995,0.08976 -0.239366,-0.03167 -0.496336,-0.05631 -0.770867,-0.07392 -0.274569,-0.01759 -0.603661,-0.02111 -0.987341,-0.01056 -0.383681,0.01056 -0.848324,0.02464 -1.39388,0.04224 -0.545604,0.0176 -1.128136,0.02993 -1.747644,0.03696 -0.619507,0.007 -1.247802,0.03697 -1.884885,0.08976 -0.637131,0.0528 -1.24252,0.109121 -1.816265,0.168954 -0.573744,0.05984 -1.170346,0.114398 -1.789853,0.163671 -0.619507,0.04928 -1.059468,0.08272 -1.319977,0.100319 -0.260475,0.0176 -0.475187,0.03697 -0.644141,0.05808 -0.168959,0.02112 -0.307992,0.05808 -0.417108,0.110878 -0.109121,0.0528 -0.225277,0.131998 -0.348467,0.237594 -0.123201,0.105601 -0.276313,0.251673 -0.459346,0.438227 -0.183039,0.186558 -0.399508,0.429429 -0.649424,0.728609 -0.249916,0.299194 -0.471668,0.55612 -0.665271,0.770866 -0.193598,0.214717 -0.33263,0.415346 -0.417107,0.601884 -0.08448,0.186554 -0.09504,0.351988 -0.03169,0.496288 0.06336,0.144315 0.183034,0.232312 0.359028,0.263991 0.175993,0.03168 0.513911,-0.03872 1.013704,-0.211193 0.499841,-0.172473 0.855334,-0.32559 1.066527,-0.459346 0.211187,-0.133755 0.371344,-0.218232 0.480441,-0.253431 0.109111,-0.0352 0.193588,-0.01232 0.253431,0.06864 0.05983,0.08096 -0.02641,0.219995 -0.258713,0.417108 -0.232317,0.197113 -0.439989,0.348467 -0.623013,0.454064 -0.183039,0.105596 -0.392469,0.204152 -0.628295,0.295669 -0.235837,0.09152 -0.50157,0.158394 -0.797278,0.200633 -0.190078,0.02816 -0.369592,0.04224 -0.538546,0.04224 -0.105596,0 -0.207677,-0.0035 -0.306229,-0.01056 -0.26751,-0.02816 -0.476945,-0.08976 -0.628295,-0.184796 -0.151354,-0.09504 -0.251673,-0.219995 -0.300951,-0.374869 -0.05632,-0.140795 -0.08448,-0.26751 -0.08448,-0.380146 0,-0.007 0.0034,-0.0176 0.01056,-0.03168 0,-0.119676 0.0352,-0.27455 0.105596,-0.464624 m 4.699056,-0.527981 c 0.429424,-0.140795 0.716316,-0.27455 0.860616,-0.401265 0.144315,-0.126716 0.20591,-0.242872 0.184796,-0.348468 -0.02113,-0.105596 -0.140795,-0.102076 -0.359027,0.01056 -0.218232,0.112641 -0.367829,0.227034 -0.448786,0.34319 -0.08096,0.11616 -0.160157,0.248153 -0.237594,0.395988 m -0.929237,0.696916 c 0,-0.366067 0.04576,-0.647647 0.137275,-0.84477 0.09152,-0.197113 0.241113,-0.401265 0.448786,-0.612448 0.207673,-0.211193 0.415345,-0.394226 0.623013,-0.54911 0.207672,-0.15487 0.420627,-0.260471 0.638859,-0.316789 l 0.242872,-0.01056 c 0.218232,0.007 0.408305,0.06688 0.570238,0.179513 0.161915,0.112641 0.23055,0.311511 0.205915,0.596602 -0.02463,0.285114 -0.165438,0.531486 -0.422384,0.739173 -0.256956,0.207678 -0.547334,0.35727 -0.871181,0.448787 -0.323829,0.09152 -0.498065,0.174236 -0.522699,0.248153 -0.02463,0.07392 0.02814,0.154875 0.158394,0.242872 0.130236,0.088 0.422385,0.144314 0.876463,0.168953 0.454064,0.02464 0.825418,10e-7 1.114067,-0.07392 0.288629,-0.07392 0.522699,-0.153112 0.702198,-0.237594 0.179508,-0.08448 0.320303,-0.140795 0.422385,-0.168954 0.102071,-0.02816 0.184791,0.02464 0.248153,0.158395 -0.183038,0.26047 -0.383671,0.452306 -0.601884,0.575521 -0.218237,0.123195 -0.491006,0.234074 -0.818359,0.33263 -0.327353,0.09856 -0.72688,0.158394 -1.198533,0.179514 h -0.28511 c -0.513911,-0.04928 -0.860617,-0.117919 -1.040116,-0.205915 -0.179513,-0.088 -0.318551,-0.191831 -0.417107,-0.311512 -0.09856,-0.119675 -0.168954,-0.299189 -0.211193,-0.538545 m 4.788806,0.09504 c 0.07392,0.204153 0.211192,0.290392 0.411825,0.258714 0.200633,-0.03168 0.383666,-0.100314 0.54911,-0.205915 0.168954,-0.109117 0.339665,-0.269268 0.512134,-0.480442 0.172474,-0.214712 0.248149,-0.360784 0.227034,-0.438226 -0.415349,0.302709 -0.742679,0.503346 -0.982059,0.601884 -0.235836,0.09856 -0.475188,0.186553 -0.718044,0.26399 M 31.5236,24.714102 c 0.0071,-0.225272 0.02992,-0.397745 0.06864,-0.517416 0.0387,-0.119676 0.103839,-0.200633 0.195356,-0.242872 0.09152,-0.04224 0.207672,-0.05632 0.348467,-0.04224 0.140795,0.01408 0.246391,0.251673 0.316789,0.712762 0.295669,-0.05632 0.550838,-0.139032 0.765584,-0.248153 0.214713,-0.109116 0.418865,-0.21295 0.612449,-0.311511 0.193593,-0.102077 0.420622,-0.209431 0.681117,-0.322071 0.260471,-0.112636 0.503347,-0.235832 0.728609,-0.369587 0.225267,-0.137275 0.394226,-0.27103 0.506852,-0.401266 0.112631,-0.13375 0.197108,-0.26751 0.253431,-0.401265 0.05631,-0.137271 0.15135,-0.221748 0.28511,-0.253431 0.158389,0.0035 0.274545,0.03696 0.348467,0.100314 0.07391,0.05984 0.119671,0.202395 0.137275,0.427667 -0.0071,0.09856 -0.03169,0.195355 -0.07392,0.290392 -0.04226,0.09504 -0.135522,0.209435 -0.279832,0.34319 -0.1408,0.13024 -0.292155,0.237594 -0.454064,0.322071 -0.158399,0.08096 -0.33615,0.181276 -0.533263,0.300951 -0.193598,0.119676 -0.388954,0.279833 -0.586038,0.480442 -0.193597,0.200632 -0.334392,0.395988 -0.422384,0.586037 -0.08448,0.186553 -0.172479,0.35727 -0.263991,0.512134 -0.09152,0.151355 -0.230554,0.276313 -0.417107,0.374869 -0.186559,0.09504 -0.475188,0.154875 -0.865899,0.179514 -0.260471,-0.007 -0.464623,-0.04048 -0.612448,-0.100314 -0.147835,-0.05984 -0.30271,-0.237594 -0.464624,-0.533263 -0.161914,-0.29567 -0.253431,-0.59132 -0.27455,-0.887028"
     id="path73"
     inkscape:connector-curvature="0"
     style="opacity:0.5;fill:#000000;stroke-width:1" />
  <rect
     style="opacity:0.1;fill:#000000;fill-opacity:1;stroke:none;stroke-width:1;stroke-linecap:round;stroke-linejoin:round;stroke-miterlimit:4;stroke-dasharray:none;stroke-opacity:1;paint-order:fill markers stroke"
     id="rect916"
     width="34"
     height="1"
     x="7"
     y="13"
     rx="0"
     ry="0" />
  <rect
     ry="0"
     rx="0"
     y="17"
     x="7"
     height="1"
     width="34"
     id="rect918"
     style="opacity:0.1;fill:#000000;fill-opacity:1;stroke:none;stroke-width:1;stroke-linecap:round;stroke-linejoin:round;stroke-miterlimit:4;stroke-dasharray:none;stroke-opacity:1;paint-order:fill markers stroke" />
  <rect
     style="opacity:0.1;fill:#000000;fill-opacity:1;stroke:none;stroke-width:1;stroke-linecap:round;stroke-linejoin:round;stroke-miterlimit:4;stroke-dasharray:none;stroke-opacity:1;paint-order:fill markers stroke"
     id="rect920"
     width="34"
     height="1"
     x="7"
     y="21"
     rx="0"
     ry="0" />
  <rect
     ry="0"
     rx="0"
     y="25"
     x="7"
     height="1"
     width="34"
     id="rect922"
     style="opacity:0.1;fill:#000000;fill-opacity:1;stroke:none;stroke-width:1;stroke-linecap:round;stroke-linejoin:round;stroke-miterlimit:4;stroke-dasharray:none;stroke-opacity:1;paint-order:fill markers stroke" />
  <rect
     style="opacity:0.1;fill:#000000;fill-opacity:1;stroke:none;stroke-width:1;stroke-linecap:round;stroke-linejoin:round;stroke-miterlimit:4;stroke-dasharray:none;stroke-opacity:1;paint-order:fill markers stroke"
     id="rect924"
     width="34"
     height="1"
     x="7"
     y="29"
     rx="0"
     ry="0" />
  <rect
     ry="0"
     rx="0"
     y="33"
     x="7"
     height="1"
     width="34"
     id="rect926"
     style="opacity:0.1;fill:#000000;fill-opacity:1;stroke:none;stroke-width:1;stroke-linecap:round;stroke-linejoin:round;stroke-miterlimit:4;stroke-dasharray:none;stroke-opacity:1;paint-order:fill markers stroke" />
  <rect
     style="opacity:0.1;fill:#000000;fill-opacity:1;stroke:none;stroke-width:1;stroke-linecap:round;stroke-linejoin:round;stroke-miterlimit:4;stroke-dasharray:none;stroke-opacity:1;paint-order:fill markers stroke"
     id="rect928"
     width="34"
     height="1"
     x="7"
     y="37"
     rx="0"
     ry="0" />
  <rect
     ry="0"
     rx="0"
     y="9"
     x="7"
     height="1"
     width="34"
     id="rect930"
     style="opacity:0.1;fill:#000000;fill-opacity:1;stroke:none;stroke-width:1;stroke-linecap:round;stroke-linejoin:round;stroke-miterlimit:4;stroke-dasharray:none;stroke-opacity:1;paint-order:fill markers stroke" />
</svg>
