<?xml version="1.0" encoding="UTF-8" standalone="no"?>
<svg
   xmlns:dc="http://purl.org/dc/elements/1.1/"
   xmlns:cc="http://creativecommons.org/ns#"
   xmlns:rdf="http://www.w3.org/1999/02/22-rdf-syntax-ns#"
   xmlns:svg="http://www.w3.org/2000/svg"
   xmlns="http://www.w3.org/2000/svg"
   xmlns:sodipodi="http://sodipodi.sourceforge.net/DTD/sodipodi-0.dtd"
   xmlns:inkscape="http://www.inkscape.org/namespaces/inkscape"
   height="48"
   width="48"
   version="1.1"
   id="svg2"
   inkscape:version="0.92.4 (5da689c313, 2019-01-14)"
   sodipodi:docname="cs-overview.svg">
  <metadata
     id="metadata91">
    <rdf:RDF>
      <cc:Work
         rdf:about="">
        <dc:format>image/svg+xml</dc:format>
        <dc:type
           rdf:resource="http://purl.org/dc/dcmitype/StillImage" />
        <dc:title></dc:title>
      </cc:Work>
    </rdf:RDF>
  </metadata>
  <sodipodi:namedview
     pagecolor="#ffffff"
     bordercolor="#666666"
     borderopacity="1"
     objecttolerance="10"
     gridtolerance="10"
     guidetolerance="10"
     inkscape:pageopacity="0"
     inkscape:pageshadow="2"
     inkscape:window-width="1366"
     inkscape:window-height="697"
     id="namedview89"
     showgrid="true"
     inkscape:zoom="2.4583334"
     inkscape:cx="-34.189391"
     inkscape:cy="52.707095"
     inkscape:window-x="0"
     inkscape:window-y="0"
     inkscape:window-maximized="1"
     inkscape:current-layer="svg2"
     inkscape:snap-object-midpoints="true"
     inkscape:snap-center="true">
    <inkscape:grid
       type="xygrid"
       id="grid897" />
  </sodipodi:namedview>
  <defs
     id="defs4" />
  <g
     id="g903"
     transform="translate(0,-1)">
    <rect
       width="43"
       height="38"
       rx="1.5"
       ry="1.5"
       x="2.5"
       y="6.4999981"
       id="rect5505-21-3-8-5-2"
       style="color:#000000;display:inline;overflow:visible;visibility:visible;opacity:1;fill:#4fa4f4;fill-opacity:1;fill-rule:nonzero;stroke:none;stroke-width:0.99999994;marker:none;enable-background:accumulate" />
    <path
       id="rect921-3"
       d="M 4,6.5 C 3.169,6.5 2.5,7.169 2.5,8 v 4 h 43 V 8 C 45.5,7.169 44.831,6.5 44,6.5 Z"
       style="opacity:0.35;vector-effect:none;fill:#000000;fill-opacity:1;stroke:none;stroke-width:1;stroke-linecap:round;stroke-linejoin:round;stroke-miterlimit:4;stroke-dasharray:none;stroke-dashoffset:0;stroke-opacity:1;marker:none;paint-order:normal"
       inkscape:connector-curvature="0" />
    <rect
       width="43"
       height="38"
       rx="1.5"
       ry="1.5"
       x="2.5"
       y="6.5000005"
       id="rect5505-21-3-8-9-1-1"
       style="color:#000000;clip-rule:nonzero;display:inline;overflow:visible;visibility:visible;opacity:0.35;isolation:auto;mix-blend-mode:normal;color-interpolation:sRGB;color-interpolation-filters:linearRGB;solid-color:#000000;solid-opacity:1;vector-effect:none;fill:#000000;fill-opacity:0;fill-rule:nonzero;stroke:#002e99;stroke-width:1;stroke-linecap:round;stroke-linejoin:round;stroke-miterlimit:4;stroke-dasharray:none;stroke-dashoffset:0;stroke-opacity:1;marker:none;color-rendering:auto;image-rendering:auto;shape-rendering:auto;text-rendering:auto;enable-background:accumulate" />
    <path
       id="rect5505-21-3-8-9-1-1-2"
       d="M 45.5,12 V 8 C 45.5,7.169 44.831,6.5 44,6.5 H 4 C 3.169,6.5 2.5,7.169 2.5,8 v 4"
       style="color:#000000;clip-rule:nonzero;display:inline;overflow:visible;visibility:visible;opacity:0.5;isolation:auto;mix-blend-mode:normal;color-interpolation:sRGB;color-interpolation-filters:linearRGB;solid-color:#000000;solid-opacity:1;vector-effect:none;fill:none;fill-opacity:1;fill-rule:nonzero;stroke:#111111;stroke-width:1;stroke-linecap:butt;stroke-linejoin:round;stroke-miterlimit:4;stroke-dasharray:none;stroke-dashoffset:0;stroke-opacity:1;marker:none;color-rendering:auto;image-rendering:auto;shape-rendering:auto;text-rendering:auto;enable-background:accumulate"
       inkscape:connector-curvature="0" />
  </g>
  <g
     transform="matrix(3.7795276,0,0,3.7795276,0.50000001,-1060.5197)"
     id="g871">
    <path
       inkscape:connector-curvature="0"
       id="circle833"
       transform="matrix(0.26458333,0,0,0.26458333,0,280.06667)"
       d="M 2,13 V 30 A 15.999989,15.999989 0 0 0 18,14 15.999989,15.999989 0 0 0 17.962891,13 Z"
       style="opacity:0.15;fill:#000000;fill-opacity:1;stroke:none;stroke-width:4.57142544;stroke-linecap:round;stroke-linejoin:round;stroke-miterlimit:4;stroke-dasharray:none;stroke-opacity:0.05882353;paint-order:markers stroke fill" />
    <path
       inkscape:connector-curvature="0"
       id="circle841"
       transform="matrix(0.26458333,0,0,0.26458333,0,280.06667)"
       d="M 2,13 V 25 A 10.999989,10.999989 0 0 0 13,14 10.999989,10.999989 0 0 0 12.945312,13 Z"
       style="opacity:0.15;fill:#000000;fill-opacity:1;stroke:none;stroke-width:3.14285374;stroke-linecap:round;stroke-linejoin:round;stroke-miterlimit:4;stroke-dasharray:none;stroke-opacity:0.05882353;paint-order:markers stroke fill" />
    <path
       inkscape:connector-curvature="0"
       id="circle843"
       transform="matrix(0.26458333,0,0,0.26458333,0,280.06667)"
       d="m 2,13 v 7 A 6,6 0 0 0 8,14 6,6 0 0 0 7.914063,13 Z"
       style="opacity:0.15;fill:#000000;fill-opacity:1;stroke:none;stroke-width:1.71428573;stroke-linecap:round;stroke-linejoin:round;stroke-miterlimit:4;stroke-dasharray:none;stroke-opacity:0.05882353;paint-order:markers stroke fill" />
  </g>
  <g
     id="g923"
     transform="matrix(-3.7795276,0,0,-3.7795276,47,1114.5197)">
    <path
       style="opacity:0.15;fill:#000000;fill-opacity:1;stroke:none;stroke-width:4.57142544;stroke-linecap:round;stroke-linejoin:round;stroke-miterlimit:4;stroke-dasharray:none;stroke-opacity:0.05882353;paint-order:markers stroke fill"
       d="M 2,13 V 30 A 15.999989,15.999989 0 0 0 18,14 15.999989,15.999989 0 0 0 17.962891,13 Z"
       transform="matrix(0.26458333,0,0,0.26458333,0,280.06667)"
       id="path917"
       inkscape:connector-curvature="0" />
    <path
       style="opacity:0.15;fill:#000000;fill-opacity:1;stroke:none;stroke-width:3.14285374;stroke-linecap:round;stroke-linejoin:round;stroke-miterlimit:4;stroke-dasharray:none;stroke-opacity:0.05882353;paint-order:markers stroke fill"
       d="M 2,13 V 25 A 10.999989,10.999989 0 0 0 13,14 10.999989,10.999989 0 0 0 12.945312,13 Z"
       transform="matrix(0.26458333,0,0,0.26458333,0,280.06667)"
       id="path919"
       inkscape:connector-curvature="0" />
    <path
       style="opacity:0.15;fill:#000000;fill-opacity:1;stroke:none;stroke-width:1.71428573;stroke-linecap:round;stroke-linejoin:round;stroke-miterlimit:4;stroke-dasharray:none;stroke-opacity:0.05882353;paint-order:markers stroke fill"
       d="m 2,13 v 7 A 6,6 0 0 0 8,14 6,6 0 0 0 7.914063,13 Z"
       transform="matrix(0.26458333,0,0,0.26458333,0,280.06667)"
       id="path921"
       inkscape:connector-curvature="0" />
  </g>
</svg>
