<?xml version="1.0" encoding="UTF-8" standalone="no"?>
<svg
   xmlns:dc="http://purl.org/dc/elements/1.1/"
   xmlns:cc="http://creativecommons.org/ns#"
   xmlns:rdf="http://www.w3.org/1999/02/22-rdf-syntax-ns#"
   xmlns:svg="http://www.w3.org/2000/svg"
   xmlns="http://www.w3.org/2000/svg"
   xmlns:sodipodi="http://sodipodi.sourceforge.net/DTD/sodipodi-0.dtd"
   xmlns:inkscape="http://www.inkscape.org/namespaces/inkscape"
   height="48"
   width="48"
   version="1.1"
   id="svg69"
   sodipodi:docname="cs-panel.svg"
   inkscape:version="0.92.4 (5da689c313, 2019-01-14)">
  <metadata
     id="metadata73">
    <rdf:RDF>
      <cc:Work
         rdf:about="">
        <dc:format>image/svg+xml</dc:format>
        <dc:type
           rdf:resource="http://purl.org/dc/dcmitype/StillImage" />
        <dc:title></dc:title>
      </cc:Work>
    </rdf:RDF>
  </metadata>
  <sodipodi:namedview
     pagecolor="#ffffff"
     bordercolor="#666666"
     borderopacity="1"
     objecttolerance="10"
     gridtolerance="10"
     guidetolerance="10"
     inkscape:pageopacity="0"
     inkscape:pageshadow="2"
     inkscape:window-width="1366"
     inkscape:window-height="697"
     id="namedview71"
     showgrid="true"
     inkscape:snap-bbox="true"
     inkscape:bbox-nodes="true"
     inkscape:zoom="3.4766083"
     inkscape:cx="87.5778"
     inkscape:cy="51.472293"
     inkscape:window-x="0"
     inkscape:window-y="0"
     inkscape:window-maximized="1"
     inkscape:current-layer="svg69">
    <inkscape:grid
       type="xygrid"
       id="grid937" />
  </sodipodi:namedview>
  <defs
     id="defs47" />
  <rect
     width="43"
     height="38"
     rx="2"
     ry="2"
     x="2.5"
     y="-43.5"
     id="rect1887"
     style="fill:#e6e6e6;fill-opacity:1;stroke:#000000;stroke-linecap:round;stroke-linejoin:round;stroke-opacity:0.19607843"
     transform="scale(1,-1)" />
  <path
     style="fill:#f9f9f9;stroke-linecap:round;stroke-linejoin:round"
     d="M 3,35 V 8 C 3,6 5,6 5,6 h 38 c 2,0 2,2 2,2 v 27 z"
     id="rect6287"
     inkscape:connector-curvature="0" />
  <path
     style="opacity:0.15;fill:#000000;fill-opacity:1;stroke:none;stroke-linecap:round;stroke-linejoin:round;stroke-opacity:1"
     d="M 3,36 H 45 V 35 H 3 Z"
     id="rect4236"
     inkscape:connector-curvature="0" />
  <path
     style="opacity:0.9;fill:#cccccc;fill-opacity:1;stroke:none;stroke-width:1;stroke-linecap:round;stroke-linejoin:round;stroke-miterlimit:4;stroke-dasharray:none;stroke-opacity:1;paint-order:fill markers stroke"
     d="M 7.5 37 A 2.5 2.5 0 0 0 5 39.5 A 2.5 2.5 0 0 0 7.5 42 A 2.5 2.5 0 0 0 10 39.5 A 2.5 2.5 0 0 0 7.5 37 z M 7.5 38 A 1.5 1.5 0 0 1 9 39.5 A 1.5 1.5 0 0 1 7.5 41 A 1.5 1.5 0 0 1 6 39.5 A 1.5 1.5 0 0 1 7.5 38 z "
     id="path877" />
  <circle
     transform="scale(1,-1)"
     r="1.5"
     cy="-39.5"
     cx="7.5"
     id="circle939"
     style="opacity:0.9;fill:#9f9f9f;fill-opacity:1;stroke:none;stroke-width:1;stroke-linecap:round;stroke-linejoin:round;stroke-miterlimit:4;stroke-dasharray:none;stroke-opacity:1;paint-order:fill markers stroke" />
  <g
     id="g950">
    <rect
       ry="1"
       rx="1"
       y="37"
       x="12"
       height="5"
       width="5"
       id="rect944"
       style="opacity:0.75;fill:#b3b3b3;fill-opacity:1;stroke:none;stroke-width:3;stroke-linecap:round;stroke-linejoin:miter;stroke-miterlimit:4;stroke-dasharray:none;stroke-opacity:0.74509804;paint-order:fill markers stroke" />
    <rect
       style="opacity:0.75;fill:#f9f9f9;fill-opacity:1;stroke:none;stroke-width:3;stroke-linecap:round;stroke-linejoin:miter;stroke-miterlimit:4;stroke-dasharray:none;stroke-opacity:0.74509804;paint-order:fill markers stroke"
       id="rect946"
       width="3"
       height="3"
       x="13"
       y="38"
       rx="0.60000002"
       ry="0.60000002" />
  </g>
  <g
     id="g956"
     transform="translate(7)">
    <rect
       style="opacity:0.75;fill:#b3b3b3;fill-opacity:1;stroke:none;stroke-width:3;stroke-linecap:round;stroke-linejoin:miter;stroke-miterlimit:4;stroke-dasharray:none;stroke-opacity:0.74509804;paint-order:fill markers stroke"
       id="rect952"
       width="5"
       height="5"
       x="12"
       y="37"
       rx="1"
       ry="1" />
    <rect
       ry="0.60000002"
       rx="0.60000002"
       y="38"
       x="13"
       height="3"
       width="3"
       id="rect954"
       style="opacity:0.75;fill:#f9f9f9;fill-opacity:1;stroke:none;stroke-width:3;stroke-linecap:round;stroke-linejoin:miter;stroke-miterlimit:4;stroke-dasharray:none;stroke-opacity:0.74509804;paint-order:fill markers stroke" />
  </g>
  <rect
     style="opacity:0.75;fill:#b3b3b3;fill-opacity:1;stroke:none;stroke-width:3;stroke-linecap:round;stroke-linejoin:miter;stroke-miterlimit:4;stroke-dasharray:none;stroke-opacity:0.74509804;paint-order:fill markers stroke"
     id="rect970"
     width="11"
     height="3"
     x="31"
     y="38"
     rx="0"
     ry="0" />
</svg>
