<?xml version="1.0" encoding="UTF-8" standalone="no"?>
<!-- Created with Inkscape (http://www.inkscape.org/) -->

<svg
   xmlns:dc="http://purl.org/dc/elements/1.1/"
   xmlns:cc="http://creativecommons.org/ns#"
   xmlns:rdf="http://www.w3.org/1999/02/22-rdf-syntax-ns#"
   xmlns:svg="http://www.w3.org/2000/svg"
   xmlns="http://www.w3.org/2000/svg"
   xmlns:xlink="http://www.w3.org/1999/xlink"
   xmlns:sodipodi="http://sodipodi.sourceforge.net/DTD/sodipodi-0.dtd"
   xmlns:inkscape="http://www.inkscape.org/namespaces/inkscape"
   version="1.0"
   width="48"
   height="48"
   id="svg2408"
   inkscape:version="0.92.4 (5da689c313, 2019-01-14)"
   sodipodi:docname="csd-housekeeping.svg">
  <sodipodi:namedview
     pagecolor="#ffffff"
     bordercolor="#666666"
     borderopacity="1"
     objecttolerance="10"
     gridtolerance="10"
     guidetolerance="10"
     inkscape:pageopacity="0"
     inkscape:pageshadow="2"
     inkscape:window-width="1366"
     inkscape:window-height="697"
     id="namedview75"
     showgrid="false"
     inkscape:zoom="5.6568542"
     inkscape:cx="-3.2513672"
     inkscape:cy="37.259126"
     inkscape:window-x="0"
     inkscape:window-y="0"
     inkscape:window-maximized="1"
     inkscape:current-layer="svg2408"
     showguides="true" />
  <defs
     id="defs2410">
    <linearGradient
       x1="45.447727"
       y1="92.539597"
       x2="45.447727"
       y2="7.0165396"
       id="ButtonShadow"
       gradientUnits="userSpaceOnUse"
       gradientTransform="scale(1.0058652,0.994169)">
      <stop
         id="stop3750"
         style="stop-color:#000000;stop-opacity:1"
         offset="0" />
      <stop
         id="stop3752"
         style="stop-color:#000000;stop-opacity:0.58823532"
         offset="1" />
    </linearGradient>
    <linearGradient
       id="linearGradient3737">
      <stop
         id="stop3739"
         style="stop-color:#ffffff;stop-opacity:1"
         offset="0" />
      <stop
         id="stop3741"
         style="stop-color:#ffffff;stop-opacity:0"
         offset="1" />
    </linearGradient>
    <filter
       id="filter3174"
       style="color-interpolation-filters:sRGB">
      <feGaussianBlur
         id="feGaussianBlur3176"
         stdDeviation="1.71" />
    </filter>
    <filter
       x="-0.192"
       y="-0.192"
       width="1.3839999"
       height="1.3839999"
       id="filter3794"
       style="color-interpolation-filters:sRGB">
      <feGaussianBlur
         id="feGaussianBlur3796"
         stdDeviation="5.28" />
    </filter>
    <linearGradient
       x1="48"
       y1="20.220806"
       x2="48"
       y2="138.66119"
       id="linearGradient3613"
       xlink:href="#linearGradient3737"
       gradientUnits="userSpaceOnUse" />
    <clipPath
       id="clipPath3613">
      <rect
         width="84"
         height="84"
         rx="6"
         ry="6"
         x="6"
         y="6"
         id="rect3615"
         style="fill:#ffffff;fill-opacity:1;fill-rule:nonzero;stroke:none" />
    </clipPath>
  </defs>
  <metadata
     id="metadata2413">
    <rdf:RDF>
      <cc:Work
         rdf:about="">
        <dc:format>image/svg+xml</dc:format>
        <dc:type
           rdf:resource="http://purl.org/dc/dcmitype/StillImage" />
        <dc:title></dc:title>
      </cc:Work>
    </rdf:RDF>
  </metadata>
  <g
     id="layer2"
     style="display:none"
     transform="translate(0,-48)">
    <rect
       width="86"
       height="85"
       rx="6"
       ry="6"
       x="5"
       y="7"
       id="rect3745"
       style="opacity:0.9;fill:url(#ButtonShadow);fill-opacity:1;fill-rule:nonzero;stroke:none;filter:url(#filter3174)" />
  </g>
  <g
     id="layer5"
     style="display:none"
     transform="translate(0,-48)">
    <rect
       width="66"
       height="66"
       rx="12"
       ry="12"
       x="15"
       y="15"
       clip-path="url(#clipPath3613)"
       id="rect3171"
       style="opacity:0.1;fill:url(#linearGradient3613);fill-opacity:1;fill-rule:nonzero;stroke:#ffffff;stroke-width:0.5;stroke-linecap:round;stroke-linejoin:miter;stroke-miterlimit:4;stroke-dasharray:none;stroke-dashoffset:0;stroke-opacity:1;filter:url(#filter3794)" />
  </g>
  <path
     inkscape:connector-curvature="0"
     style="color:#000000;display:inline;overflow:visible;visibility:visible;opacity:0.98999999;fill:#52a6f5;fill-opacity:0.99215686;fill-rule:nonzero;stroke:none;stroke-width:0.99999988;marker:none;enable-background:accumulate"
     id="path2555-7-8-5-0-9"
     d="M 24.000001,3.4999999 C 12.688804,3.4999999 3.5000004,12.688802 3.5000004,23.999999 3.5000004,35.311197 12.688804,44.5 24.000001,44.5 35.311197,44.5 44.500019,35.311197 44.5,23.999999 44.5,12.688802 35.311197,3.4999999 24.000001,3.4999999 Z" />
  <path
     inkscape:connector-curvature="0"
     style="color:#000000;clip-rule:nonzero;display:inline;overflow:visible;visibility:visible;opacity:0.35;isolation:auto;mix-blend-mode:normal;color-interpolation:sRGB;color-interpolation-filters:linearRGB;solid-color:#000000;solid-opacity:1;fill:none;fill-opacity:1;fill-rule:nonzero;stroke:#002e99;stroke-width:0.99999988;stroke-linecap:round;stroke-linejoin:round;stroke-miterlimit:4;stroke-dasharray:none;stroke-dashoffset:0;stroke-opacity:1;marker:none;color-rendering:auto;image-rendering:auto;shape-rendering:auto;text-rendering:auto;enable-background:accumulate"
     id="path2555-6"
     d="m 24.000003,3.4999989 c -11.311192,0 -20.5000028,9.1888061 -20.5000028,20.5000001 0,11.311194 9.1888108,20.500005 20.5000028,20.500002 11.311188,0 20.500008,-9.188808 20.499997,-20.500002 C 44.5,12.688805 35.311191,3.4999989 24.000003,3.4999989 Z" />
  <path
     inkscape:connector-curvature="0"
     id="path842"
     d="m 29.649081,13.629157 c -1.051014,-0.01852 -2.147913,0.198224 -3.177412,0.652935 -1.905207,0.841937 -3.278792,2.696446 -4.090586,4.090587 -0.365408,-0.08896 -0.755981,0.08593 -0.925641,0.439446 -0.162342,0.338131 -0.0676,0.730202 0.202581,0.964599 -0.07404,0.164949 -0.118509,0.274925 -0.135574,0.317897 l -3.944104,8.661136 c -0.397578,-0.183044 -0.871319,-0.02069 -1.067449,0.375554 -0.199788,0.402453 -0.03467,0.890652 0.367764,1.090823 l 0.02649,0.01091 -0.886684,1.951015 h -2.205021 c -0.449238,0 -0.813442,0.364219 -0.813442,0.813443 0,0.449253 0.364204,0.813442 0.813442,0.813442 h 4.06877 c 0.449238,0 0.815001,-0.364189 0.815001,-0.813442 0,-0.449224 -0.365763,-0.813443 -0.815001,-0.813443 h -0.07636 l 0.565669,-1.240422 c 0.07447,0.02111 0.149122,0.03584 0.224398,0.03584 0.299066,0 0.586867,-0.165829 0.729294,-0.451912 0.186384,-0.375162 0.05441,-0.821146 -0.289847,-1.042516 l 4.085912,-8.974357 c 0.110256,0.05096 0.22537,0.07636 0.339713,0.07636 0.303151,0 0.593967,-0.171008 0.733968,-0.462821 0.186342,-0.387797 0.0352,-0.847412 -0.33348,-1.05654 0.696218,-1.173162 1.810574,-2.652832 3.269352,-3.297402 1.568267,-0.69297 3.376295,-0.683033 4.606391,0.02649 0.904601,0.522108 1.424615,1.353374 1.545852,2.469935 0.227069,2.09118 0.03468,3.493446 -0.570345,4.168502 -0.05579,0.06212 -0.118072,0.114823 -0.180765,0.165183 v 1.821674 c 0.501323,-0.169172 0.983022,-0.445393 1.391579,-0.900708 0.940773,-1.047837 1.259832,-2.824417 0.977065,-5.430741 -0.17493,-1.615028 -1.009553,-2.930972 -2.349944,-3.704124 v 0.0031 c -0.844966,-0.487686 -1.850575,-0.74194 -2.90159,-0.760459 z m 0.06857,7.975475 c -0.449619,0 -4.985441,0.373768 -6.183408,6.295607 l -0.768252,4.89468 c 0,0.449615 0.363822,1.017582 0.813442,1.017582 h 3.863073 c -0.464727,-0.598553 -0.744877,-1.347135 -0.744877,-2.161388 0,-1.949572 1.586702,-3.535826 3.535826,-3.535826 0.531025,0 1.032989,0.121227 1.485077,0.331922 v -3.833464 -1.651817 -0.950576 c 0,-0.449615 0.04291,-0.40672 -0.406721,-0.40672 z m 0.515804,7.324097 c -1.500737,0 -2.722383,1.221674 -2.722383,2.722384 0,0.881379 0.423319,1.664096 1.07524,2.161388 0.227063,0.173393 0.481099,0.311098 0.755784,0.406721 0.279539,0.0971 0.579268,0.152715 0.891357,0.152715 0.312129,0 0.610266,-0.05561 0.8898,-0.152715 0.288134,-0.100116 0.554874,-0.246501 0.790068,-0.431655 0.22137,-0.174297 0.416719,-0.380394 0.575019,-0.613977 0.294587,-0.435021 0.465937,-0.958905 0.465937,-1.522477 0,-0.533026 -0.15505,-1.029294 -0.420746,-1.449236 -0.116974,-0.183044 -0.253259,-0.353135 -0.408281,-0.503338 -0.124934,-0.120923 -0.260667,-0.228417 -0.406721,-0.32413 -0.427663,-0.279841 -0.937373,-0.44568 -1.485078,-0.44568 z"
     style="fill:#ffffff;fill-opacity:0.99328859;stroke:none;stroke-width:0.99999994;stroke-miterlimit:4;stroke-dasharray:none;stroke-opacity:0.25490196" />
</svg>
