<?xml version="1.0" encoding="UTF-8" standalone="no"?>
<svg
   xmlns:dc="http://purl.org/dc/elements/1.1/"
   xmlns:cc="http://creativecommons.org/ns#"
   xmlns:rdf="http://www.w3.org/1999/02/22-rdf-syntax-ns#"
   xmlns:svg="http://www.w3.org/2000/svg"
   xmlns="http://www.w3.org/2000/svg"
   xmlns:sodipodi="http://sodipodi.sourceforge.net/DTD/sodipodi-0.dtd"
   xmlns:inkscape="http://www.inkscape.org/namespaces/inkscape"
   id="svg11300"
   width="48"
   height="48"
   style="enable-background:new"
   version="1.0"
   viewBox="0 0 48 48"
   sodipodi:docname="goa-account-owncloud.svg"
   inkscape:version="0.92.4 (5da689c313, 2019-01-14)">
  <defs
     id="defs13" />
  <sodipodi:namedview
     pagecolor="#ffffff"
     bordercolor="#666666"
     borderopacity="1"
     objecttolerance="10"
     gridtolerance="10"
     guidetolerance="10"
     inkscape:pageopacity="0"
     inkscape:pageshadow="2"
     inkscape:window-width="1366"
     inkscape:window-height="697"
     id="namedview11"
     showgrid="false"
     inkscape:zoom="7.375"
     inkscape:cx="58.998782"
     inkscape:cy="23.020569"
     inkscape:window-x="0"
     inkscape:window-y="0"
     inkscape:window-maximized="1"
     inkscape:current-layer="svg11300" />
  <title
     id="title4162">Adwaita Icon Template</title>
  <metadata
     id="metadata4">
    <rdf:RDF>
      <cc:Work
         rdf:about="">
        <dc:format>image/svg+xml</dc:format>
        <dc:type
           rdf:resource="http://purl.org/dc/dcmitype/StillImage" />
        <dc:creator>
          <cc:Agent>
            <dc:title>GNOME Design Team</dc:title>
          </cc:Agent>
        </dc:creator>
        <dc:source />
        <cc:license
           rdf:resource="http://creativecommons.org/licenses/by-sa/4.0/" />
        <dc:title>Adwaita Icon Template</dc:title>
        <dc:subject>
          <rdf:Bag />
        </dc:subject>
        <dc:date />
        <dc:rights>
          <cc:Agent>
            <dc:title />
          </cc:Agent>
        </dc:rights>
        <dc:publisher>
          <cc:Agent>
            <dc:title />
          </cc:Agent>
        </dc:publisher>
        <dc:identifier />
        <dc:relation />
        <dc:language />
        <dc:coverage />
        <dc:description />
        <dc:contributor>
          <cc:Agent>
            <dc:title />
          </cc:Agent>
        </dc:contributor>
      </cc:Work>
      <cc:License
         rdf:about="http://creativecommons.org/licenses/by-sa/4.0/">
        <cc:permits
           rdf:resource="http://creativecommons.org/ns#Reproduction" />
        <cc:permits
           rdf:resource="http://creativecommons.org/ns#Distribution" />
        <cc:requires
           rdf:resource="http://creativecommons.org/ns#Notice" />
        <cc:requires
           rdf:resource="http://creativecommons.org/ns#Attribution" />
        <cc:permits
           rdf:resource="http://creativecommons.org/ns#DerivativeWorks" />
        <cc:requires
           rdf:resource="http://creativecommons.org/ns#ShareAlike" />
      </cc:License>
    </rdf:RDF>
  </metadata>
  <g
     id="layer1"
     transform="matrix(0.375,0,0,0.375,0,-64.5)"
     style="stroke-width:2.66666675">
    <g
       id="layer9"
       style="stroke-width:2.66666675">
      <g
         id="g3930"
         transform="translate(-300,-160)"
         style="stroke-width:2.66666675;enable-background:new">
        <g
           id="g2139"
           transform="translate(668,160)"
           style="stroke-width:2.66666675;enable-background:new">
          <rect
             id="rect2137"
             x="-356"
             y="184"
             width="104"
             height="104"
             rx="8"
             ry="8"
             style="fill:#0082c9;stroke-width:2.66666675;paint-order:normal;enable-background:new;stroke:#006498;stroke-opacity:0.74509805" />
        </g>
        <path
           id="path8670-3"
           d="m 364.06,378 c -8.2368,0 -15.156,5.6406 -17.269,13.23 -1.845,-4.0591 -5.9055,-6.9354 -10.624,-6.9354 -6.4214,10e-4 -11.704,5.2821 -11.704,11.705 -0.001,6.4247 5.2801,11.706 11.703,11.707 4.7194,-10e-4 8.7772,-2.8796 10.622,-6.9387 2.1126,7.5897 9.0328,13.232 17.272,13.232 8.1933,10e-4 15.077,-5.5793 17.233,-13.104 1.8747,3.984 5.8732,6.8096 10.537,6.8102 6.4247,0 11.707,-5.2821 11.707,-11.707 0,-6.4247 -5.2815,-11.705 -11.706,-11.704 -4.664,0.001 -8.6651,2.8268 -10.539,6.8109 -2.1574,-7.5252 -9.0388,-13.106 -17.231,-13.105 z m 0,6.8708 a 11.077,11.077 0 0 1 11.13,11.128 c 0,6.1875 -4.9421,11.131 -11.13,11.13 a 11.077,11.077 0 0 1 -11.127,-11.13 c 0,-6.1875 4.9421,-11.128 11.128,-11.128 z m -27.893,6.2943 c 2.7109,0 4.8334,2.1231 4.834,4.8333 0,2.7109 -2.1218,4.8367 -4.8334,4.8367 -2.7102,0 -4.8334,-2.1258 -4.8327,-4.8367 0,-2.7102 2.1231,-4.8333 4.8334,-4.8333 z m 55.664,0 c 2.7109,0 4.8353,2.1218 4.8353,4.8333 0,2.7116 -2.1238,4.8367 -4.8353,4.8367 -2.7109,0 -4.834,-2.1258 -4.8334,-4.8367 0,-2.7102 2.1231,-4.8333 4.8334,-4.8333 z"
           style="color:#000000;text-indent:0;text-decoration:none;text-decoration-line:none;text-decoration-style:solid;text-decoration-color:#000000;text-transform:none;white-space:normal;isolation:auto;mix-blend-mode:normal;fill:#ffffff;stroke-width:2.66666675;enable-background:new"
           inkscape:connector-curvature="0" />
      </g>
    </g>
  </g>
</svg>
