<?xml version="1.0" encoding="UTF-8" standalone="no"?>
<svg
   xmlns:dc="http://purl.org/dc/elements/1.1/"
   xmlns:cc="http://creativecommons.org/ns#"
   xmlns:rdf="http://www.w3.org/1999/02/22-rdf-syntax-ns#"
   xmlns:svg="http://www.w3.org/2000/svg"
   xmlns="http://www.w3.org/2000/svg"
   xmlns:sodipodi="http://sodipodi.sourceforge.net/DTD/sodipodi-0.dtd"
   xmlns:inkscape="http://www.inkscape.org/namespaces/inkscape"
   id="svg11300"
   width="48"
   height="48"
   style="enable-background:new"
   version="1.0"
   viewBox="0 0 48 48"
   sodipodi:docname="goa-account-ubuntusso.svg"
   inkscape:version="0.92.4 (5da689c313, 2019-01-14)">
  <defs
     id="defs13" />
  <sodipodi:namedview
     pagecolor="#ffffff"
     bordercolor="#666666"
     borderopacity="1"
     objecttolerance="10"
     gridtolerance="10"
     guidetolerance="10"
     inkscape:pageopacity="0"
     inkscape:pageshadow="2"
     inkscape:window-width="1366"
     inkscape:window-height="697"
     id="namedview11"
     showgrid="false"
     inkscape:zoom="5.2149125"
     inkscape:cx="39.069152"
     inkscape:cy="25.169134"
     inkscape:window-x="0"
     inkscape:window-y="0"
     inkscape:window-maximized="1"
     inkscape:current-layer="svg11300" />
  <title
     id="title4162">Ubuntu One Icon</title>
  <metadata
     id="metadata4">
    <rdf:RDF>
      <cc:Work
         rdf:about="">
        <dc:format>image/svg+xml</dc:format>
        <dc:type
           rdf:resource="http://purl.org/dc/dcmitype/StillImage" />
        <dc:creator>
          <cc:Agent>
            <dc:title>Andrea Azzarone</dc:title>
          </cc:Agent>
        </dc:creator>
        <dc:source />
        <cc:license
           rdf:resource="http://creativecommons.org/licenses/by-sa/4.0/" />
        <dc:title>Ubuntu One Icon</dc:title>
        <dc:subject>
          <rdf:Bag />
        </dc:subject>
        <dc:date />
        <dc:rights>
          <cc:Agent>
            <dc:title />
          </cc:Agent>
        </dc:rights>
        <dc:publisher>
          <cc:Agent>
            <dc:title />
          </cc:Agent>
        </dc:publisher>
        <dc:identifier />
        <dc:relation />
        <dc:language />
        <dc:coverage />
        <dc:description />
        <dc:contributor>
          <cc:Agent>
            <dc:title />
          </cc:Agent>
        </dc:contributor>
      </cc:Work>
      <cc:License
         rdf:about="http://creativecommons.org/licenses/by-sa/4.0/">
        <cc:permits
           rdf:resource="http://creativecommons.org/ns#Reproduction" />
        <cc:permits
           rdf:resource="http://creativecommons.org/ns#Distribution" />
        <cc:requires
           rdf:resource="http://creativecommons.org/ns#Notice" />
        <cc:requires
           rdf:resource="http://creativecommons.org/ns#Attribution" />
        <cc:permits
           rdf:resource="http://creativecommons.org/ns#DerivativeWorks" />
        <cc:requires
           rdf:resource="http://creativecommons.org/ns#ShareAlike" />
      </cc:License>
    </rdf:RDF>
  </metadata>
  <g
     id="layer1"
     transform="matrix(0.375,0,0,0.375,1.125e-5,-64.5)"
     style="stroke-width:2.66666675">
    <g
       id="layer9"
       style="stroke-width:2.66666675">
      <g
         id="g3900"
         transform="translate(-3e-5,-160)"
         style="stroke-width:2.66666675;enable-background:new">
        <g
           id="g1747"
           transform="translate(368,160)"
           style="stroke-width:2.66666675;enable-background:new">
          <rect
             id="rect1745"
             x="-356"
             y="184"
             width="104"
             height="104"
             rx="8"
             ry="8"
             style="fill:#e95420;stroke-width:2.66666675;paint-order:normal;enable-background:new;stroke:#a43610;stroke-opacity:0.74509805" />
        </g>
        <path
           id="path4060-7"
           d="m 46.31,361.97 c -3.2515,0.0493 -6.6064,0.0979 -7.4554,0.10827 l -1.5436,0.0184 -0.002,4.4584 c -0.0052,11.651 0.2795,41.158 0.40726,42.204 0.14353,1.1736 0.18097,1.3707 0.64767,3.4192 1.2944,5.6809 5.5197,11.605 10.048,14.089 3.6101,1.9801 6.4892,2.9921 10.328,3.6304 3.7395,0.62149 14.27,0.0721 20.873,-1.0891 0.61417,-0.10827 1.6783,-0.29197 2.3647,-0.40896 2.8873,-0.49109 4.9019,-0.891 7.1598,-1.4213 0.28902,-0.0677 0.75671,-0.16157 1.0392,-0.20816 l 0.51367,-0.0848 -0.09361,-32.257 c -0.07189,-24.816 -0.13006,-32.281 -0.25092,-32.36 -0.08639,-0.0563 -4.0295,-0.0882 -8.7623,-0.0707 l -8.605,0.0322 -0.03319,25.176 -0.03319,25.176 -16.355,-0.069 -0.06569,-16.627 -0.06569,-16.627 -6.9881,-0.1342 1.7722,-3.6874 c 0.97479,-2.0281 2.7983,-5.7872 4.0525,-8.3532 1.254,-2.5661 2.28,-4.7534 2.28,-4.8606 0,-0.21755 -0.31858,-0.21889 -11.232,-0.0533"
           style="fill:#ffffff;stroke-width:0.88482666"
           inkscape:connector-curvature="0" />
      </g>
    </g>
  </g>
</svg>
