<?xml version="1.0" encoding="UTF-8" standalone="no"?>
<svg
   xmlns:dc="http://purl.org/dc/elements/1.1/"
   xmlns:cc="http://creativecommons.org/ns#"
   xmlns:rdf="http://www.w3.org/1999/02/22-rdf-syntax-ns#"
   xmlns:svg="http://www.w3.org/2000/svg"
   xmlns="http://www.w3.org/2000/svg"
   xmlns:sodipodi="http://sodipodi.sourceforge.net/DTD/sodipodi-0.dtd"
   xmlns:inkscape="http://www.inkscape.org/namespaces/inkscape"
   id="svg11300"
   width="48"
   height="48"
   style="enable-background:new"
   version="1.0"
   viewBox="0 0 48 48"
   sodipodi:docname="goa-account-foursquare.svg"
   inkscape:version="0.92.4 (5da689c313, 2019-01-14)">
  <defs
     id="defs13" />
  <sodipodi:namedview
     pagecolor="#ffffff"
     bordercolor="#666666"
     borderopacity="1"
     objecttolerance="10"
     gridtolerance="10"
     guidetolerance="10"
     inkscape:pageopacity="0"
     inkscape:pageshadow="2"
     inkscape:window-width="1366"
     inkscape:window-height="697"
     id="namedview11"
     showgrid="false"
     inkscape:zoom="7.375"
     inkscape:cx="24.280636"
     inkscape:cy="27.494191"
     inkscape:window-x="0"
     inkscape:window-y="0"
     inkscape:window-maximized="1"
     inkscape:current-layer="svg11300" />
  <title
     id="title4162">Adwaita Icon Template</title>
  <metadata
     id="metadata4">
    <rdf:RDF>
      <cc:Work
         rdf:about="">
        <dc:format>image/svg+xml</dc:format>
        <dc:type
           rdf:resource="http://purl.org/dc/dcmitype/StillImage" />
        <dc:creator>
          <cc:Agent>
            <dc:title>GNOME Design Team</dc:title>
          </cc:Agent>
        </dc:creator>
        <dc:source />
        <cc:license
           rdf:resource="http://creativecommons.org/licenses/by-sa/4.0/" />
        <dc:title>Adwaita Icon Template</dc:title>
        <dc:subject>
          <rdf:Bag />
        </dc:subject>
        <dc:date />
        <dc:rights>
          <cc:Agent>
            <dc:title />
          </cc:Agent>
        </dc:rights>
        <dc:publisher>
          <cc:Agent>
            <dc:title />
          </cc:Agent>
        </dc:publisher>
        <dc:identifier />
        <dc:relation />
        <dc:language />
        <dc:coverage />
        <dc:description />
        <dc:contributor>
          <cc:Agent>
            <dc:title />
          </cc:Agent>
        </dc:contributor>
      </cc:Work>
      <cc:License
         rdf:about="http://creativecommons.org/licenses/by-sa/4.0/">
        <cc:permits
           rdf:resource="http://creativecommons.org/ns#Reproduction" />
        <cc:permits
           rdf:resource="http://creativecommons.org/ns#Distribution" />
        <cc:requires
           rdf:resource="http://creativecommons.org/ns#Notice" />
        <cc:requires
           rdf:resource="http://creativecommons.org/ns#Attribution" />
        <cc:permits
           rdf:resource="http://creativecommons.org/ns#DerivativeWorks" />
        <cc:requires
           rdf:resource="http://creativecommons.org/ns#ShareAlike" />
      </cc:License>
    </rdf:RDF>
  </metadata>
  <g
     id="layer1"
     transform="matrix(0.375,0,0,0.375,0,-64.5)"
     style="stroke-width:2.66666675">
    <g
       id="layer9"
       style="stroke-width:2.66666675">
      <g
         id="g211"
         transform="translate(-8.5,-20)"
         style="stroke-width:2.66666675">
        <g
           id="g2147"
           transform="translate(376.5,20)"
           style="stroke-width:2.66666675;enable-background:new">
          <rect
             id="rect2145"
             x="-356"
             y="184"
             width="104"
             height="104"
             rx="8"
             ry="8"
             style="fill:#ef2975;stroke-width:2.66666675;paint-order:normal;enable-background:new;stroke:#a40c46;stroke-opacity:0.74509805" />
        </g>
        <path
           id="path22"
           d="m 89.875979,233.73862 -1.660733,8.01897 c -0.189798,0.8541 -0.99644,1.61328 -1.99288,1.61328 H 71.797713 c -1.613284,0 -2.94187,1.32859 -2.94187,2.94187 v 1.75563 c 0,1.61329 1.328586,2.94187 2.94187,2.94187 h 12.194526 c 1.138788,0 2.087778,1.09134 1.850531,2.27758 -0.237248,1.23369 -1.518385,7.49702 -1.660733,8.16132 -0.0949,0.71175 -0.854092,1.61328 -1.99288,1.61328 h -9.964399 c -2.087778,0.0475 -2.514824,0.0949 -3.748511,1.61328 -1.233688,1.51839 -12.147077,15.18385 -12.147077,15.18385 -0.0949,0.14236 -0.189798,0.0949 -0.189798,-0.0475 v -46.45308 c 0,-1.09134 0.901541,-1.99288 1.99288,-1.99288 h 29.940645 c 1.043889,0 2.087779,1.04389 1.803082,2.37248 m 2.182677,-10.01185 H 55.095483 c -5.077099,0 -6.595483,3.84341 -6.595483,6.26334 v 58.7425 c 0,2.89442 1.470935,3.74851 2.277577,4.08066 0.806651,0.33214 2.94187,0.56939 4.460254,-0.94899 0,0 17.556322,-20.45075 17.841019,-20.78289 0.284697,-0.33216 0.427045,-0.33216 0.616843,-0.33216 H 84.79888 c 4.744952,0 5.646493,-3.27402 6.168438,-5.26689 0.427045,-1.66074 5.314346,-25.3855 6.83273,-32.88252 1.138788,-5.78884 -0.332147,-8.87306 -5.741392,-8.87306"
           style="fill:#ffffff;stroke-width:2.66666675;enable-background:new"
           inkscape:connector-curvature="0" />
      </g>
    </g>
  </g>
</svg>
