<?xml version="1.0" encoding="UTF-8" standalone="no"?>
<svg
   xmlns:dc="http://purl.org/dc/elements/1.1/"
   xmlns:cc="http://creativecommons.org/ns#"
   xmlns:rdf="http://www.w3.org/1999/02/22-rdf-syntax-ns#"
   xmlns:svg="http://www.w3.org/2000/svg"
   xmlns="http://www.w3.org/2000/svg"
   xmlns:sodipodi="http://sodipodi.sourceforge.net/DTD/sodipodi-0.dtd"
   xmlns:inkscape="http://www.inkscape.org/namespaces/inkscape"
   height="48"
   width="48"
   version="1.1"
   id="svg134"
   sodipodi:docname="cs-login.svg"
   inkscape:version="0.92.4 (5da689c313, 2019-01-14)">
  <metadata
     id="metadata138">
    <rdf:RDF>
      <cc:Work
         rdf:about="">
        <dc:format>image/svg+xml</dc:format>
        <dc:type
           rdf:resource="http://purl.org/dc/dcmitype/StillImage" />
        <dc:title />
      </cc:Work>
    </rdf:RDF>
  </metadata>
  <sodipodi:namedview
     pagecolor="#ffffff"
     bordercolor="#666666"
     borderopacity="1"
     objecttolerance="10"
     gridtolerance="10"
     guidetolerance="10"
     inkscape:pageopacity="0"
     inkscape:pageshadow="2"
     inkscape:window-width="1366"
     inkscape:window-height="697"
     id="namedview136"
     showgrid="true"
     inkscape:zoom="6.9532167"
     inkscape:cx="14.700808"
     inkscape:cy="43.014057"
     inkscape:window-x="0"
     inkscape:window-y="0"
     inkscape:window-maximized="1"
     inkscape:current-layer="svg134"
     inkscape:snap-bbox="true"
     inkscape:bbox-nodes="true">
    <inkscape:grid
       type="xygrid"
       id="grid980" />
  </sodipodi:namedview>
  <defs
     id="defs52" />
  <g
     id="g859"
     transform="translate(0,-1)">
    <rect
       width="43"
       height="38"
       rx="1.5"
       ry="1.5"
       x="2.5"
       y="6.4999981"
       id="rect5505-21-3-8-5-2"
       style="color:#000000;display:inline;overflow:visible;visibility:visible;opacity:1;fill:#4fa4f4;fill-opacity:1;fill-rule:nonzero;stroke:none;stroke-width:0.99999994;marker:none;enable-background:accumulate" />
    <path
       id="rect921-3"
       d="M 4,6.5 C 3.169,6.5 2.5,7.169 2.5,8 v 4 h 43 V 8 C 45.5,7.169 44.831,6.5 44,6.5 Z"
       style="opacity:0.35;vector-effect:none;fill:#000000;fill-opacity:1;stroke:none;stroke-width:1;stroke-linecap:round;stroke-linejoin:round;stroke-miterlimit:4;stroke-dasharray:none;stroke-dashoffset:0;stroke-opacity:1;marker:none;paint-order:normal"
       inkscape:connector-curvature="0" />
    <rect
       width="43"
       height="38"
       rx="1.5"
       ry="1.5"
       x="2.5"
       y="6.5000005"
       id="rect5505-21-3-8-9-1-1"
       style="color:#000000;clip-rule:nonzero;display:inline;overflow:visible;visibility:visible;opacity:0.35;isolation:auto;mix-blend-mode:normal;color-interpolation:sRGB;color-interpolation-filters:linearRGB;solid-color:#000000;solid-opacity:1;vector-effect:none;fill:#000000;fill-opacity:0;fill-rule:nonzero;stroke:#002e99;stroke-width:1;stroke-linecap:round;stroke-linejoin:round;stroke-miterlimit:4;stroke-dasharray:none;stroke-dashoffset:0;stroke-opacity:1;marker:none;color-rendering:auto;image-rendering:auto;shape-rendering:auto;text-rendering:auto;enable-background:accumulate" />
    <path
       id="rect5505-21-3-8-9-1-1-2"
       d="M 45.5,12 V 8 C 45.5,7.169 44.831,6.5 44,6.5 H 4 C 3.169,6.5 2.5,7.169 2.5,8 v 4"
       style="color:#000000;clip-rule:nonzero;display:inline;overflow:visible;visibility:visible;opacity:0.5;isolation:auto;mix-blend-mode:normal;color-interpolation:sRGB;color-interpolation-filters:linearRGB;solid-color:#000000;solid-opacity:1;vector-effect:none;fill:none;fill-opacity:1;fill-rule:nonzero;stroke:#111111;stroke-width:1;stroke-linecap:butt;stroke-linejoin:round;stroke-miterlimit:4;stroke-dasharray:none;stroke-dashoffset:0;stroke-opacity:1;marker:none;color-rendering:auto;image-rendering:auto;shape-rendering:auto;text-rendering:auto;enable-background:accumulate"
       inkscape:connector-curvature="0" />
    <g
       transform="scale(0.5)"
       style="fill:#ffffff;stroke-width:2"
       id="g76">
      <rect
         style="opacity:0.2;stroke-width:2"
         id="rect70"
         x="12"
         y="72"
         width="72"
         height="10" />
      <rect
         style="opacity:0.3;stroke-width:2"
         id="rect72"
         x="26"
         y="30"
         width="44"
         height="32"
         ry="4.0226998"
         rx="3.5197999" />
      <rect
         id="rect74"
         x="32"
         y="44"
         width="32"
         height="10"
         ry="1.6666667"
         rx="1.8823529"
         style="opacity:0.75;stroke-width:2" />
    </g>
    <path
       inkscape:connector-curvature="0"
       id="path82"
       d="m 20,24.5 a 1.25,1.25 0 1 1 -2.5,0 1.25,1.25 0 1 1 2.5,0 z"
       style="opacity:0.5;fill:#000000;stroke-width:1" />
    <path
       inkscape:connector-curvature="0"
       id="path84"
       d="m 23.5,24.5 a 1.25,1.25 0 1 1 -2.5,0 1.25,1.25 0 1 1 2.5,0 z"
       style="opacity:0.5;fill:#000000;stroke-width:1" />
    <path
       inkscape:connector-curvature="0"
       id="path86"
       d="m 27,24.5 a 1.25,1.25 0 1 1 -2.5,0 1.25,1.25 0 1 1 2.5,0 z"
       style="opacity:0.5;fill:#000000;stroke-width:1" />
    <path
       inkscape:connector-curvature="0"
       id="path88"
       d="m 30.5,24.5 a 1.25,1.25 0 1 1 -2.5,0 1.25,1.25 0 1 1 2.5,0 z"
       style="opacity:0.5;fill:#000000;stroke-width:1" />
    <g
       transform="scale(0.5)"
       style="fill:#ffffff;stroke-width:2"
       id="g108">
      <path
         inkscape:connector-curvature="0"
         id="path90"
         d="m 32.549,35.65 c -3e-6,0.14341 -0.02416,0.27747 -0.07249,0.40218 -0.04677,0.12315 -0.11769,0.23071 -0.21278,0.32268 -0.09353,0.09041 -0.21122,0.16212 -0.35307,0.21512 -0.14186,0.053 -0.30709,0.0795 -0.4957,0.0795 h -0.96803 v 1.2837 h -0.4466 v -3.2946 h 1.3866 c 0.19485,3e-6 0.36476,0.02416 0.50973,0.07248 0.14497,0.04677 0.26578,0.1138 0.36242,0.20109 0.09664,0.08574 0.16913,0.19018 0.21746,0.31332 0.04832,0.12159 0.07248,0.25643 0.07249,0.40451 m -0.44894,0.0047 c -2e-6,-0.20888 -0.06391,-0.3671 -0.19173,-0.47466 -0.12782,-0.10912 -0.31956,-0.16367 -0.5752,-0.16368 h -0.88619 v 1.3001 h 0.9049 c 0.2572,2e-6 0.44582,-0.05689 0.56585,-0.17069 0.12158,-0.11379 0.18238,-0.27747 0.18238,-0.49103"
         style="stroke-width:2" />
      <path
         inkscape:connector-curvature="0"
         id="path92"
         d="m 33.774,38 c -0.25409,0 -0.44504,-0.06703 -0.57287,-0.20109 -0.12782,-0.13406 -0.19174,-0.318 -0.19174,-0.55182 0,-0.16679 0.03118,-0.30319 0.09353,-0.40919 0.06391,-0.10756 0.14653,-0.19173 0.24785,-0.25253 0.10288,-0.06079 0.21979,-0.10288 0.35074,-0.12626 0.13094,-0.02338 0.26422,-0.03663 0.39984,-0.03975 l 0.56819,-0.0094 v -0.138 c -2e-6,-0.10444 -0.01091,-0.19329 -0.03274,-0.26656 -0.02183,-0.07326 -0.05534,-0.1325 -0.10054,-0.1777 -0.04521,-0.0452 -0.1021,-0.07794 -0.17069,-0.09821 -0.06703,-0.02182 -0.14653,-0.03273 -0.2385,-0.03274 -0.08106,2e-6 -0.15432,0.0062 -0.21979,0.01871 -0.06547,0.01091 -0.12237,0.03196 -0.17069,0.06313 -0.04832,0.02962 -0.0873,0.07093 -0.11691,0.12393 -0.02962,0.05144 -0.0491,0.11691 -0.05846,0.19641 l -0.43959,-0.03975 c 0.01559,-0.09976 0.04521,-0.19095 0.08885,-0.27357 0.04365,-0.08417 0.10522,-0.15666 0.18472,-0.21746 0.08106,-0.06079 0.1816,-0.10756 0.30163,-0.14029 0.12159,-0.03429 0.26812,-0.05144 0.43959,-0.05144 0.318,2e-6 0.55728,0.07327 0.71784,0.21979 0.16056,0.14497 0.24084,0.35541 0.24084,0.63132 v 1.0896 c -2e-6,0.12471 0.01637,0.21901 0.0491,0.28292 0.03273,0.06235 0.09509,0.09353 0.18706,0.09353 0.02338,0 0.04676,-0.0016 0.07015,-0.0047 0.02338,-0.0031 0.04598,-0.007 0.06781,-0.01169 v 0.26188 c -0.053,0.01247 -0.106,0.02182 -0.159,0.02806 -0.05144,0.0062 -0.10678,0.0094 -0.16601,0.0094 -0.0795,0 -0.14809,-0.01013 -0.20576,-0.0304 -0.05612,-0.02182 -0.1021,-0.05378 -0.13796,-0.09587 -0.03585,-0.04365 -0.06313,-0.09665 -0.08184,-0.159 -0.01871,-0.06391 -0.0304,-0.13796 -0.03507,-0.22213 h -0.01403 c -0.04521,0.08106 -0.09509,0.15432 -0.14965,0.21979 -0.053,0.06547 -0.11535,0.12159 -0.18706,0.16835 -0.07171,0.04521 -0.15354,0.08028 -0.24551,0.10522 -0.09041,0.02494 -0.19485,0.03741 -0.31332,0.03741 m 0.09587,-0.31566 c 0.13406,0 0.25097,-0.02416 0.35073,-0.07249 0.10132,-0.04988 0.18472,-0.11301 0.25019,-0.1894 0.06703,-0.07638 0.11691,-0.15978 0.14965,-0.25019 0.03273,-0.09041 0.0491,-0.17692 0.0491,-0.25954 v -0.2081 l -0.46063,0.0094 c -0.10288,0.0016 -0.20109,0.0094 -0.29462,0.02338 -0.09197,0.01247 -0.17303,0.03819 -0.24318,0.07716 -0.07015,0.03897 -0.12626,0.09353 -0.16835,0.16368 -0.04053,0.07015 -0.06079,0.16212 -0.06079,0.27591 0,0.13718 0.03663,0.24318 0.1099,0.318 0.07482,0.07482 0.18082,0.11224 0.318,0.11224"
         style="stroke-width:2" />
      <path
         inkscape:connector-curvature="0"
         id="path94"
         d="m 37.693,37.254 c -3e-6,0.11847 -0.02338,0.22447 -0.07015,0.318 -0.04521,0.09197 -0.11146,0.16991 -0.19875,0.23382 -0.0873,0.06235 -0.19485,0.11068 -0.32268,0.14497 -0.12627,0.03274 -0.27124,0.0491 -0.43491,0.0491 -0.14653,0 -0.27903,-0.01169 -0.3975,-0.03507 -0.117,-0.022 -0.22,-0.058 -0.309,-0.108 -0.088,-0.05 -0.163,-0.115 -0.224,-0.196 -0.059,-0.083 -0.103,-0.183 -0.131,-0.302 l 0.37178,-0.07249 c 0.03585,0.13562 0.1099,0.23538 0.22213,0.29929 0.11223,0.06235 0.26812,0.09353 0.46765,0.09353 0.09041,0 0.17303,-0.0062 0.24785,-0.01871 0.07638,-0.01247 0.14185,-0.03351 0.19641,-0.06313 0.05456,-0.03118 0.09664,-0.07171 0.12626,-0.12159 0.03117,-0.05144 0.04676,-0.11457 0.04677,-0.1894 -2e-6,-0.07638 -0.01793,-0.13873 -0.05378,-0.18706 -0.03585,-0.04988 -0.08574,-0.09119 -0.14965,-0.12393 -0.06391,-0.03274 -0.14185,-0.06079 -0.23382,-0.08418 -0.09041,-0.02494 -0.19018,-0.05222 -0.29929,-0.08184 -0.10132,-0.0265 -0.20187,-0.05612 -0.30163,-0.08885 -0.09977,-0.03273 -0.19018,-0.0756 -0.27124,-0.1286 -0.0795,-0.05456 -0.14419,-0.12159 -0.19407,-0.20109 -0.04988,-0.0795 -0.07482,-0.17926 -0.07482,-0.29929 0,-0.2307 0.08184,-0.40607 0.24551,-0.5261 0.16523,-0.12158 0.40529,-0.18238 0.72017,-0.18238 0.27903,3e-6 0.50038,0.04911 0.66406,0.14731 0.16523,0.09821 0.26967,0.25565 0.31332,0.47232 l -0.37879,0.04676 c -0.01403,-0.06547 -0.03975,-0.12003 -0.07716,-0.16368 -0.03741,-0.0452 -0.08262,-0.08106 -0.13562,-0.10756 -0.053,-0.02806 -0.11302,-0.04754 -0.18004,-0.05846 -0.06547,-0.01247 -0.13406,-0.0187 -0.20576,-0.01871 -0.19018,3e-6 -0.33047,0.02884 -0.42088,0.08651 -0.09041,0.05768 -0.13562,0.14497 -0.13562,0.26188 -10e-7,0.06859 0.01637,0.12549 0.0491,0.17069 0.03429,0.04365 0.08106,0.08106 0.14029,0.11224 0.06079,0.02962 0.13328,0.05612 0.21746,0.0795 0.08418,0.02182 0.17692,0.04521 0.27825,0.07015 0.06703,0.01715 0.13562,0.03585 0.20576,0.05612 0.07014,0.01871 0.13795,0.04209 0.20342,0.07015 0.06703,0.0265 0.12938,0.05846 0.18706,0.09587 0.05923,0.03585 0.11067,0.0795 0.15432,0.13094 0.04364,0.05144 0.07794,0.11146 0.10288,0.18004 0.0265,0.06859 0.03975,0.14809 0.03975,0.2385"
         style="stroke-width:2" />
      <path
         inkscape:connector-curvature="0"
         id="path96"
         d="m 40.087,37.254 c -2e-6,0.11847 -0.02338,0.22447 -0.07015,0.318 -0.04521,0.09197 -0.11146,0.16991 -0.19875,0.23382 -0.0873,0.06235 -0.19485,0.11068 -0.32268,0.14497 -0.12627,0.03274 -0.27124,0.0491 -0.43491,0.0491 -0.14653,0 -0.27903,-0.01169 -0.3975,-0.03507 -0.117,-0.022 -0.22,-0.058 -0.309,-0.108 -0.088,-0.05 -0.163,-0.115 -0.224,-0.196 -0.059,-0.083 -0.103,-0.183 -0.131,-0.302 l 0.37178,-0.07249 c 0.03585,0.13562 0.1099,0.23538 0.22213,0.29929 0.11223,0.06235 0.26812,0.09353 0.46764,0.09353 0.09041,0 0.17303,-0.0062 0.24785,-0.01871 0.07638,-0.01247 0.14185,-0.03351 0.19641,-0.06313 0.05456,-0.03118 0.09664,-0.07171 0.12626,-0.12159 0.03117,-0.05144 0.04676,-0.11457 0.04676,-0.1894 -1e-6,-0.07638 -0.01793,-0.13873 -0.05378,-0.18706 -0.03585,-0.04988 -0.08574,-0.09119 -0.14965,-0.12393 -0.06391,-0.03274 -0.14185,-0.06079 -0.23382,-0.08418 -0.09041,-0.02494 -0.19018,-0.05222 -0.29929,-0.08184 -0.10132,-0.0265 -0.20187,-0.05612 -0.30163,-0.08885 -0.09977,-0.03273 -0.19018,-0.0756 -0.27123,-0.1286 -0.0795,-0.05456 -0.14419,-0.12159 -0.19407,-0.20109 -0.04988,-0.0795 -0.07482,-0.17926 -0.07482,-0.29929 -10e-7,-0.2307 0.08184,-0.40607 0.24551,-0.5261 0.16523,-0.12158 0.40529,-0.18238 0.72017,-0.18238 0.27903,3e-6 0.50038,0.04911 0.66406,0.14731 0.16523,0.09821 0.26967,0.25565 0.31332,0.47232 l -0.37879,0.04676 c -0.01403,-0.06547 -0.03975,-0.12003 -0.07716,-0.16368 -0.03741,-0.0452 -0.08262,-0.08106 -0.13562,-0.10756 -0.053,-0.02806 -0.11302,-0.04754 -0.18004,-0.05846 -0.06547,-0.01247 -0.13406,-0.0187 -0.20576,-0.01871 -0.19018,3e-6 -0.33047,0.02884 -0.42088,0.08651 -0.09041,0.05768 -0.13562,0.14497 -0.13562,0.26188 -1e-6,0.06859 0.01637,0.12549 0.0491,0.17069 0.03429,0.04365 0.08106,0.08106 0.14029,0.11224 0.06079,0.02962 0.13328,0.05612 0.21746,0.0795 0.08418,0.02182 0.17692,0.04521 0.27825,0.07015 0.06703,0.01715 0.13562,0.03585 0.20576,0.05612 0.07015,0.01871 0.13795,0.04209 0.20343,0.07015 0.06703,0.0265 0.12938,0.05846 0.18706,0.09587 0.05923,0.03585 0.11067,0.0795 0.15432,0.13094 0.04364,0.05144 0.07794,0.11146 0.10288,0.18004 0.0265,0.06859 0.03975,0.14809 0.03975,0.2385"
         style="stroke-width:2" />
      <path
         inkscape:connector-curvature="0"
         id="path98"
         d="m 43.005,37.953 h -0.489 l -0.404,-1.632 c -0.01247,-0.04209 -0.02572,-0.09431 -0.03975,-0.15666 -0.01247,-0.06235 -0.02494,-0.12314 -0.03741,-0.18238 -0.01559,-0.06859 -0.0304,-0.13951 -0.04443,-0.21278 -0.01403,0.07015 -0.02884,0.13952 -0.04443,0.2081 -0.01247,0.05924 -0.0265,0.12081 -0.04209,0.18472 -0.01403,0.06391 -0.02728,0.12003 -0.03975,0.16835 l -0.4162,1.6227 h -0.48635 l -0.70848,-2.53 h 0.4162 l 0.4279,1.7186 c 0.01091,0.03585 0.02182,0.08028 0.03274,0.13328 0.01091,0.05144 0.02182,0.1021 0.03273,0.15198 0.01091,0.05768 0.0226,0.11691 0.03507,0.1777 0.01247,-0.05924 0.02572,-0.11691 0.03975,-0.17303 0.01247,-0.04832 0.02494,-0.09743 0.03741,-0.14731 0.01247,-0.04988 0.02338,-0.09119 0.03274,-0.12393 l 0.45829,-1.7373 h 0.45128 l 0.44192,1.7373 c 0.01091,0.04053 0.0226,0.08651 0.03507,0.13796 0.01247,0.05144 0.02416,0.09977 0.03507,0.14497 0.01247,0.053 0.02494,0.10678 0.03741,0.16134 0.01247,-0.05924 0.02494,-0.11691 0.03741,-0.17303 0.01091,-0.04832 0.02182,-0.09821 0.03274,-0.14965 0.01247,-0.053 0.02416,-0.09976 0.03507,-0.14029 l 0.4466,-1.7186 h 0.41153 l -0.72485,2.53"
         style="stroke-width:2" />
      <path
         inkscape:connector-curvature="0"
         id="path100"
         d="m 46.183,36.686 c -2e-6,0.44271 -0.09743,0.7724 -0.29228,0.98907 -0.19486,0.21668 -0.47778,0.32501 -0.84878,0.32501 -0.17615,0 -0.33359,-0.0265 -0.47232,-0.0795 -0.13874,-0.053 -0.25643,-0.13406 -0.35307,-0.24318 -0.09509,-0.10912 -0.16835,-0.24551 -0.21979,-0.40919 -0.04988,-0.16523 -0.07482,-0.35931 -0.07482,-0.58222 0,-0.87294 0.37801,-1.3094 1.134,-1.3094 0.19641,2e-6 0.36554,0.02728 0.5074,0.08184 0.14341,0.05456 0.26032,0.1364 0.35073,0.24551 0.09197,0.10912 0.15978,0.24552 0.20343,0.40919 0.04364,0.16368 0.06547,0.35463 0.06547,0.57286 m -0.44192,0 c -2e-6,-0.19641 -0.01559,-0.35853 -0.04677,-0.48635 -0.02962,-0.12782 -0.07404,-0.22992 -0.13328,-0.30631 -0.05768,-0.07638 -0.1286,-0.12938 -0.21278,-0.159 -0.08418,-0.03117 -0.17927,-0.04676 -0.28526,-0.04677 -0.10756,2e-6 -0.20499,0.01637 -0.29228,0.0491 -0.08574,0.03118 -0.159,0.08574 -0.21979,0.16368 -0.0608,0.07638 -0.10756,0.17849 -0.14029,0.30631 -0.03118,0.12782 -0.04677,0.2876 -0.04676,0.47934 -1e-6,0.19641 0.01715,0.35931 0.05144,0.48869 0.03429,0.12782 0.08106,0.22993 0.14029,0.30631 0.06079,0.07638 0.13172,0.13016 0.21278,0.16134 0.08262,0.03118 0.17225,0.04676 0.2689,0.04676 0.10756,0 0.20498,-0.01481 0.29228,-0.04443 0.08729,-0.03118 0.16134,-0.08495 0.22213,-0.16134 0.06079,-0.07638 0.10756,-0.17926 0.14029,-0.30865 0.03273,-0.12938 0.0491,-0.29228 0.0491,-0.48869"
         style="stroke-width:2" />
      <path
         inkscape:connector-curvature="0"
         id="path102"
         d="m 46.718,37.953 v -1.9407 c 0,-0.053 -7.79e-4,-0.10678 -0.0023,-0.16134 0,-0.05611 -7.8e-4,-0.10989 -0.0023,-0.16134 -0.0016,-0.05144 -0.0031,-0.09976 -0.0047,-0.14497 -0.0016,-0.0452 -0.0031,-0.08573 -0.0047,-0.12159 h 0.3975 c 0.0016,0.03586 0.0031,0.07716 0.0047,0.12393 0.0031,0.04521 0.0055,0.09197 0.007,0.14029 0.0031,0.04833 0.0047,0.09509 0.0047,0.14029 0.0016,0.04365 0.0023,0.08106 0.0023,0.11224 h 0.0094 c 0.02962,-0.09665 0.06079,-0.18004 0.09353,-0.25019 0.03429,-0.0717 0.07404,-0.13016 0.11925,-0.17537 0.0452,-0.04676 0.09898,-0.08106 0.16134,-0.10288 0.06235,-0.02338 0.13795,-0.03507 0.22681,-0.03507 0.03429,2e-6 0.06703,0.0031 0.09821,0.0094 0.03117,0.0047 0.05534,0.0094 0.07249,0.01403 v 0.38581 c -0.02806,-0.0078 -0.0608,-0.01325 -0.09821,-0.01637 -0.03741,-0.0047 -0.0795,-0.007 -0.12626,-0.007 -0.09665,3e-6 -0.17927,0.02183 -0.24785,0.06547 -0.06703,0.04365 -0.12237,0.10444 -0.16602,0.18238 -0.04209,0.07638 -0.07326,0.16836 -0.09353,0.27591 -0.02027,0.106 -0.0304,0.22213 -0.0304,0.3484 v 1.3188 h -0.42088"
         style="stroke-width:2" />
      <path
         inkscape:connector-curvature="0"
         id="path104"
         d="m 49.905,37.546 c -0.07794,0.16212 -0.1816,0.27825 -0.31098,0.3484 -0.12782,0.07015 -0.28682,0.10522 -0.477,0.10522 -0.31956,0 -0.55494,-0.10756 -0.70614,-0.32268 -0.14965,-0.21512 -0.22447,-0.54091 -0.22447,-0.97738 -1e-6,-0.88229 0.3102,-1.3234 0.93061,-1.3234 0.19173,2e-6 0.35151,0.03508 0.47934,0.10522 0.12782,0.07015 0.2307,0.1816 0.30865,0.33437 h 0.0047 c -2e-6,-0.01559 -7.82e-4,-0.03975 -0.0023,-0.07249 -2e-6,-0.03429 -7.81e-4,-0.06937 -0.0023,-0.10522 -2e-6,-0.03741 -2e-6,-0.07248 0,-0.10522 -2e-6,-0.03273 -2e-6,-0.05611 0,-0.07015 v -0.97972 h 0.42088 v 2.9485 c -2e-6,0.06079 -2e-6,0.11925 0,0.17537 0.0016,0.05612 0.0031,0.10756 0.0047,0.15432 0.0016,0.04677 0.0031,0.08729 0.0047,0.12159 0.0016,0.03273 0.0031,0.05612 0.0047,0.07015 h -0.40218 c -0.0031,-0.01559 -0.0062,-0.03741 -0.0094,-0.06547 -0.0016,-0.02962 -0.0039,-0.06313 -0.007,-0.10054 -0.0016,-0.03741 -0.0031,-0.07638 -0.0047,-0.11691 -0.0016,-0.04209 -0.0023,-0.0834 -0.0023,-0.12393 h -0.0094 m -1.277,-0.86 c -10e-7,0.17459 0.01091,0.32424 0.03274,0.44894 0.02182,0.12471 0.0569,0.22759 0.10522,0.30865 0.04832,0.0795 0.1099,0.13796 0.18472,0.17537 0.07482,0.03741 0.16601,0.05612 0.27357,0.05612 0.11068,0 0.2081,-0.01793 0.29228,-0.05378 0.08573,-0.03585 0.15666,-0.09353 0.21278,-0.17303 0.05767,-0.08106 0.10132,-0.18628 0.13094,-0.31566 0.02961,-0.12938 0.04442,-0.2876 0.04443,-0.47466 -2e-6,-0.17926 -0.01481,-0.33047 -0.04443,-0.45362 -0.02962,-0.1247 -0.07327,-0.22525 -0.13094,-0.30163 -0.05768,-0.07638 -0.1286,-0.13094 -0.21278,-0.16368 -0.08262,-0.03429 -0.17849,-0.05144 -0.2876,-0.05144 -0.10288,2e-6 -0.19174,0.01793 -0.26656,0.05378 -0.07482,0.03586 -0.13718,0.09353 -0.18706,0.17303 -0.04988,0.0795 -0.0873,0.18316 -0.11224,0.31098 -0.02338,0.12627 -0.03507,0.27981 -0.03507,0.46063"
         style="stroke-width:2" />
      <path
         inkscape:connector-curvature="0"
         id="path106"
         d="m 52.417,35.907 v -0.48401 h 0.45595 v 0.484 h -0.456 m 0,2.046 v -0.48401 h 0.45595 v 0.484 h -0.456"
         style="stroke-width:2" />
    </g>
  </g>
</svg>
