<?xml version="1.0" encoding="UTF-8" standalone="no"?>
<svg
   xmlns:dc="http://purl.org/dc/elements/1.1/"
   xmlns:cc="http://creativecommons.org/ns#"
   xmlns:rdf="http://www.w3.org/1999/02/22-rdf-syntax-ns#"
   xmlns:svg="http://www.w3.org/2000/svg"
   xmlns="http://www.w3.org/2000/svg"
   xmlns:sodipodi="http://sodipodi.sourceforge.net/DTD/sodipodi-0.dtd"
   xmlns:inkscape="http://www.inkscape.org/namespaces/inkscape"
   version="1.1"
   width="48"
   height="48"
   id="svg6649"
   sodipodi:docname="multimedia-audio-player.svg"
   inkscape:version="0.92.4 (5da689c313, 2019-01-14)">
  <sodipodi:namedview
     pagecolor="#ffffff"
     bordercolor="#666666"
     borderopacity="1"
     objecttolerance="10"
     gridtolerance="10"
     guidetolerance="10"
     inkscape:pageopacity="0"
     inkscape:pageshadow="2"
     inkscape:window-width="1366"
     inkscape:window-height="697"
     id="namedview42"
     showgrid="false"
     inkscape:zoom="9.8333333"
     inkscape:cx="16.59953"
     inkscape:cy="25.220915"
     inkscape:window-x="0"
     inkscape:window-y="0"
     inkscape:window-maximized="1"
     inkscape:current-layer="svg6649" />
  <defs
     id="defs6651" />
  <metadata
     id="metadata6654">
    <rdf:RDF>
      <cc:Work
         rdf:about="">
        <dc:format>image/svg+xml</dc:format>
        <dc:type
           rdf:resource="http://purl.org/dc/dcmitype/StillImage" />
        <dc:title />
      </cc:Work>
    </rdf:RDF>
  </metadata>
  <rect
     style="color:#000000;display:inline;overflow:visible;visibility:visible;opacity:1;fill:#fb9145;fill-opacity:1;fill-rule:nonzero;stroke:none;stroke-width:0.99999994;marker:none;enable-background:accumulate"
     id="rect5505-21"
     y="5.4999948"
     x="4.5000124"
     ry="2"
     rx="2"
     height="39"
     width="39" />
  <rect
     style="color:#000000;display:inline;overflow:visible;visibility:visible;opacity:0.35;fill:none;stroke:#a62100;stroke-width:1;stroke-linecap:round;stroke-linejoin:round;stroke-miterlimit:4;stroke-dasharray:none;stroke-dashoffset:0;stroke-opacity:1;marker:none;enable-background:accumulate"
     id="rect5505-21-3-2"
     y="5.4999948"
     x="4.5000124"
     ry="2"
     rx="2"
     height="39"
     width="39" />
  <path
     style="opacity:1;fill:#fff6eb;fill-opacity:1;stroke:none"
     id="path7249-8-0-3-6-1-6-0"
     d="m 24.898824,9.250213 c -1.08439,0 -0.89223,0.716971 -0.89223,1.447464 l -0.0132,20.760127 c 0,0 -0.61105,-0.05183 -1.02753,-0.05183 -3.16164,-0.192741 -6.61603,2.099863 -6.9321,5.408431 -0.37251,2.630505 2.40685,4.794826 4.88534,4.385699 3.12275,-0.331787 5.44616,-3.482982 5.03899,-6.594544 0.009,-5.478491 -0.0176,-10.963324 0.0132,-16.437855 0.21287,-0.243806 0.64723,0.275292 0.87148,0.300763 2.51147,1.486031 4.73307,3.936556 4.88303,6.988266 0.16489,2.384617 -0.55705,4.71792 -1.36945,6.928592 2.72201,-3.350739 3.59339,-8.238801 1.70189,-12.196527 -0.96737,-2.297402 -3.14963,-3.713202 -4.37043,-5.847089 -0.90155,-1.426008 -1.58769,-3.01795 -1.80237,-4.701463 -0.17675,-0.35106 -0.54117,-0.393807 -0.88545,-0.390032 z" />
</svg>
