<?xml version="1.0" encoding="UTF-8" standalone="no"?>
<svg
   xmlns:dc="http://purl.org/dc/elements/1.1/"
   xmlns:cc="http://creativecommons.org/ns#"
   xmlns:rdf="http://www.w3.org/1999/02/22-rdf-syntax-ns#"
   xmlns:svg="http://www.w3.org/2000/svg"
   xmlns="http://www.w3.org/2000/svg"
   xmlns:xlink="http://www.w3.org/1999/xlink"
   xmlns:sodipodi="http://sodipodi.sourceforge.net/DTD/sodipodi-0.dtd"
   xmlns:inkscape="http://www.inkscape.org/namespaces/inkscape"
   version="1.0"
   width="48"
   height="48"
   id="svg6476"
   sodipodi:docname="preferences-desktop-sound.svg"
   inkscape:version="0.92.4 (5da689c313, 2019-01-14)">
  <sodipodi:namedview
     pagecolor="#ffffff"
     bordercolor="#666666"
     borderopacity="1"
     objecttolerance="10"
     gridtolerance="10"
     guidetolerance="10"
     inkscape:pageopacity="0"
     inkscape:pageshadow="2"
     inkscape:window-width="1366"
     inkscape:window-height="697"
     id="namedview88"
     showgrid="false"
     inkscape:zoom="6.9532167"
     inkscape:cx="1.4108157"
     inkscape:cy="27.796632"
     inkscape:window-x="0"
     inkscape:window-y="0"
     inkscape:window-maximized="1"
     inkscape:current-layer="svg6476" />
  <metadata
     id="metadata89">
    <rdf:RDF>
      <cc:Work
         rdf:about="">
        <dc:format>image/svg+xml</dc:format>
        <dc:type
           rdf:resource="http://purl.org/dc/dcmitype/StillImage" />
        <dc:title />
      </cc:Work>
    </rdf:RDF>
  </metadata>
  <defs
     id="defs6478" />
  <g
     transform="matrix(1.051282,0,0,1.051282,-73.769226,-152.61538)"
     id="cdkcmd"
     inkscape:label="#g8038"
     style="stroke-width:0.9512195">
    <use
       height="100%"
       width="100%"
       transform="translate(0,128)"
       id="use4802"
       xlink:href="#rect4142"
       y="0"
       x="0"
       style="stroke-width:0.9512195" />
    <path
       sodipodi:nodetypes="ccsscccsscccsscccsscc"
       id="rect4197"
       d="m 92.999999,148.5 c -3.712931,0.001 -7.34835,1.00356 -10.478861,3 H 78.563189 C 77.452407,151.5 76.5,152.45241 76.5,153.56319 v 3.9923 c -1.99017,3.12066 -2.992279,6.74327 -3,10.44451 0.0012,3.71293 1.003563,7.34835 3,10.47886 v 3.95795 c 0,1.11078 0.952407,2.06319 2.063189,2.06319 h 3.992303 c 3.120655,1.99017 6.743264,2.99228 10.444507,3 3.712931,-0.001 7.348351,-1.00356 10.478861,-3 h 3.95795 c 1.11078,0 2.06319,-0.95241 2.06319,-2.06319 v -3.9923 c 1.99017,-3.12066 2.99228,-6.74327 3,-10.44451 -0.001,-3.71293 -1.00356,-7.34835 -3,-10.47886 v -3.95795 c 0,-1.11078 -0.95241,-2.06319 -2.06319,-2.06319 h -3.9923 c -3.12066,-1.99017 -6.743268,-2.99228 -10.444511,-3 z"
       style="opacity:1;fill:#4c5263;fill-opacity:1;stroke:#252831;stroke-width:0.95121938;stroke-linecap:butt;stroke-linejoin:miter;stroke-miterlimit:4;stroke-dasharray:none;stroke-dashoffset:0;stroke-opacity:0.78431373"
       inkscape:connector-curvature="0" />
    <ellipse
       ry="16.500002"
       rx="16.5"
       cy="168"
       cx="93"
       id="path4195"
       style="opacity:1;fill:#fff669;fill-opacity:1;stroke:#252831;stroke-width:0.95121932;stroke-linecap:butt;stroke-linejoin:miter;stroke-miterlimit:4;stroke-dasharray:none;stroke-dashoffset:0;stroke-opacity:0.78431373" />
    <rect
       ry="1.5"
       rx="1.5"
       y="153.75"
       x="78.75"
       height="1.5"
       width="1.5"
       id="rect4235"
       style="opacity:1;fill:#b2b7bf;fill-opacity:1;stroke:none;stroke-width:0.9512195;stroke-linecap:butt;stroke-linejoin:miter;stroke-miterlimit:4;stroke-dasharray:none;stroke-dashoffset:0;stroke-opacity:0.78431373" />
    <rect
       ry="1.5"
       rx="1.5"
       y="153.75"
       x="105.75"
       height="1.5"
       width="1.5"
       id="rect4235-9"
       style="opacity:1;fill:#b2b7bf;fill-opacity:1;stroke:none;stroke-width:0.9512195;stroke-linecap:butt;stroke-linejoin:miter;stroke-miterlimit:4;stroke-dasharray:none;stroke-dashoffset:0;stroke-opacity:0.78431373" />
    <rect
       ry="1.5"
       rx="1.5"
       y="180.75"
       x="105.75"
       height="1.5"
       width="1.5"
       id="rect4235-7"
       style="opacity:1;fill:#b2b7bf;fill-opacity:1;stroke:none;stroke-width:0.9512195;stroke-linecap:butt;stroke-linejoin:miter;stroke-miterlimit:4;stroke-dasharray:none;stroke-dashoffset:0;stroke-opacity:0.78431373" />
    <rect
       ry="1.5"
       rx="1.5"
       y="180.75"
       x="78.75"
       height="1.5"
       width="1.5"
       id="rect4235-3"
       style="opacity:1;fill:#b2b7bf;fill-opacity:1;stroke:none;stroke-width:0.9512195;stroke-linecap:butt;stroke-linejoin:miter;stroke-miterlimit:4;stroke-dasharray:none;stroke-dashoffset:0;stroke-opacity:0.78431373" />
    <circle
       r="6"
       cy="168"
       cx="93"
       id="path4264"
       style="opacity:1;fill:#4c5263;fill-opacity:1;stroke:none;stroke-width:0.95121944;stroke-linecap:butt;stroke-linejoin:miter;stroke-miterlimit:4;stroke-dasharray:none;stroke-dashoffset:0;stroke-opacity:0.78431373" />
  </g>
</svg>
