<svg xmlns="http://www.w3.org/2000/svg" height="48" width="48"><path d="M24 3.5C12.689 3.5 3.5 12.689 3.5 24S12.689 44.5 24 44.5 44.5 35.311 44.5 24 35.311 3.5 24 3.5z" style="marker:none;isolation:auto;mix-blend-mode:normal;solid-color:#000;solid-opacity:1;filter-blend-mode:normal;filter-gaussianBlur-deviation:0" color="#000" overflow="visible" fill="#737f97"/><path d="M24 3.5C12.689 3.5 3.5 12.689 3.5 24S12.689 44.5 24 44.5 44.5 35.311 44.5 24 35.311 3.5 24 3.5z" style="marker:none;isolation:auto;mix-blend-mode:normal;solid-color:#000;solid-opacity:1;filter-blend-mode:normal;filter-gaussianBlur-deviation:0" color="#000" overflow="visible" opacity=".35" fill="none" stroke="#1c2c38" stroke-linecap="round" stroke-linejoin="round"/><path style="marker:none" d="M23 12c-.554 0-1 .446-1 1v2.25a8.872 8.872 0 0 0-2.781 1.156l-1.594-1.593a.988.988 0 0 0-1.406 0l-1.407 1.406a.988.988 0 0 0 0 1.406l1.594 1.594A8.872 8.872 0 0 0 15.25 22H13c-.554 0-1 .446-1 1v2c0 .554.446 1 1 1h2.25a8.872 8.872 0 0 0 1.156 2.781l-1.593 1.594a.988.988 0 0 0 0 1.406l1.406 1.407a.988.988 0 0 0 1.406 0l1.594-1.594A8.872 8.872 0 0 0 22 32.75V35c0 .554.446 1 1 1h2c.554 0 1-.446 1-1v-2.25a8.872 8.872 0 0 0 2.781-1.156l1.594 1.593a.988.988 0 0 0 1.406 0l1.407-1.406a.988.988 0 0 0 0-1.406l-1.594-1.594A8.872 8.872 0 0 0 32.75 26H35c.554 0 1-.446 1-1v-2c0-.554-.446-1-1-1h-2.25a8.872 8.872 0 0 0-1.156-2.781l1.593-1.594a.988.988 0 0 0 0-1.406l-1.406-1.407a.988.988 0 0 0-1.406 0l-1.594 1.594A8.872 8.872 0 0 0 26 15.25V13c0-.554-.446-1-1-1h-2zm1 8c2.208 0 4 1.792 4 4s-1.792 4-4 4-4-1.792-4-4 1.792-4 4-4z" color="#000" overflow="visible" fill="#455365"/><path style="marker:none" d="M23 12.5c-.75.1-.432.994-.5 1.518-.065.506.14 1.086-.122 1.543-.703.394-1.6.432-2.295.898-.368.22-.943.697-1.304.195-.563-.53-1.066-1.133-1.669-1.616-.62-.113-.927.605-1.363.934-.357.37-1.121.896-.495 1.405.521.563 1.138 1.055 1.602 1.661.101.684-.658 1.186-.764 1.852-.34.473-.118 1.376-.752 1.6-.844.047-1.7-.044-2.54.047-.51.358-.222 1.079-.298 1.617.014.513-.167 1.428.636 1.346.765.03 1.548-.06 2.303.043.559.428.378 1.337.788 1.895.097.559.903 1.054.56 1.642-.567.617-1.223 1.159-1.749 1.81-.113.62.605.927.934 1.363.37.357.896 1.121 1.405.495.563-.521 1.055-1.138 1.661-1.602.684-.101 1.186.658 1.852.764.473.34 1.376.118 1.6.752.047.844-.044 1.7.047 2.54.358.51 1.079.222 1.617.298.513-.014 1.428.167 1.346-.636.03-.765-.06-1.548.043-2.303.428-.559 1.337-.378 1.895-.788.559-.097 1.054-.903 1.642-.56.617.567 1.159 1.223 1.81 1.749.62.113.927-.605 1.364-.934.356-.37 1.12-.896.494-1.405-.521-.563-1.138-1.055-1.602-1.661-.101-.684.658-1.186.764-1.852.34-.473.118-1.376.752-1.6.844-.047 1.7.044 2.54-.047.51-.358.222-1.079.298-1.617-.014-.513.167-1.428-.636-1.346-.765-.03-1.548.06-2.303-.043-.559-.428-.378-1.337-.788-1.895-.097-.559-.903-1.054-.56-1.642.567-.617 1.223-1.159 1.749-1.81.113-.62-.605-.927-.934-1.364-.37-.356-.896-1.12-1.405-.494-.563.521-1.055 1.138-1.661 1.602-.684.101-1.186-.658-1.852-.764-.473-.34-1.376-.118-1.6-.752-.047-.844.044-1.7-.047-2.54-.358-.51-1.079-.222-1.617-.298H23z" color="#000" overflow="visible" opacity=".1" fill="none" stroke="#000"/><path style="marker:none" d="M24 28.508c2.653.078 4.933-2.569 4.448-5.182-.33-2.625-3.272-4.486-5.781-3.614-2.463.698-3.888 3.705-2.811 6.042.679 1.634 2.369 2.774 4.144 2.754z" overflow="visible" opacity=".1" fill="none" stroke="#000"/></svg>