<?xml version="1.0" encoding="UTF-8" standalone="no"?>
<svg
   xmlns:dc="http://purl.org/dc/elements/1.1/"
   xmlns:cc="http://creativecommons.org/ns#"
   xmlns:rdf="http://www.w3.org/1999/02/22-rdf-syntax-ns#"
   xmlns:svg="http://www.w3.org/2000/svg"
   xmlns="http://www.w3.org/2000/svg"
   xmlns:sodipodi="http://sodipodi.sourceforge.net/DTD/sodipodi-0.dtd"
   xmlns:inkscape="http://www.inkscape.org/namespaces/inkscape"
   version="1.1"
   width="48"
   height="48"
   id="svg4031"
   sodipodi:docname="preferences-desktop-accessibility.svg"
   inkscape:version="0.92.4 (5da689c313, 2019-01-14)">
  <sodipodi:namedview
     pagecolor="#ffffff"
     bordercolor="#666666"
     borderopacity="1"
     objecttolerance="10"
     gridtolerance="10"
     guidetolerance="10"
     inkscape:pageopacity="0"
     inkscape:pageshadow="2"
     inkscape:window-width="1366"
     inkscape:window-height="697"
     id="namedview29"
     showgrid="false"
     inkscape:zoom="13.906433"
     inkscape:cx="25.05412"
     inkscape:cy="3.5562478"
     inkscape:window-x="0"
     inkscape:window-y="0"
     inkscape:window-maximized="1"
     inkscape:current-layer="svg4031" />
  <defs
     id="defs4033" />
  <metadata
     id="metadata4036">
    <rdf:RDF>
      <cc:Work
         rdf:about="">
        <dc:format>image/svg+xml</dc:format>
        <dc:type
           rdf:resource="http://purl.org/dc/dcmitype/StillImage" />
        <dc:title />
      </cc:Work>
    </rdf:RDF>
  </metadata>
  <path
     d="m 24.000001,3.499999 c -11.311198,0 -20.5000012,9.188802 -20.5000012,20.499999 0,11.311198 9.1888032,20.500001 20.5000012,20.500001 11.311196,0 20.500018,-9.188803 20.499999,-20.500001 C 44.5,12.688801 35.311197,3.499999 24.000001,3.499999 Z"
     id="path2555-7-8-5-0-9"
     style="color:#000000;display:inline;overflow:visible;visibility:visible;opacity:0.98999999;fill:#4ea2f3;fill-opacity:0.99215686;fill-rule:nonzero;stroke:none;stroke-width:0.99999988;marker:none;enable-background:accumulate" />
  <path
     d="m 24.000003,3.499998 c -11.311193,0 -20.5000034,9.188806 -20.5000034,20.5 0,11.311194 9.1888104,20.500005 20.5000034,20.500002 11.311188,0 20.500008,-9.188808 20.499997,-20.500002 0,-11.311194 -9.188809,-20.5 -20.499997,-20.5 z"
     id="path2555-6"
     style="opacity:0.35;color:#000000;fill:none;stroke:#002e99;stroke-width:0.99999988;stroke-linecap:round;stroke-linejoin:round;stroke-miterlimit:4;stroke-opacity:1;stroke-dasharray:none;stroke-dashoffset:0;marker:none;visibility:visible;display:inline;overflow:visible;enable-background:accumulate;clip-rule:nonzero;isolation:auto;mix-blend-mode:normal;color-interpolation:sRGB;color-interpolation-filters:linearRGB;solid-color:#000000;solid-opacity:1;fill-opacity:1;fill-rule:nonzero;filter-blend-mode:normal;filter-gaussianBlur-deviation:0;color-rendering:auto;image-rendering:auto;shape-rendering:auto;text-rendering:auto" />
  <path
     style="color:#000000;display:inline;overflow:visible;visibility:visible;fill:#ffffff;fill-opacity:1;fill-rule:nonzero;stroke:none;marker:none;enable-background:accumulate"
     id="path6668"
     d="m 27.111493,14.977204 c 0,1.643415 -1.330975,2.977204 -2.970926,2.977204 -1.639951,0 -2.970926,-1.333788 -2.970926,-2.977204 0,-1.643417 1.330975,-2.977205 2.970926,-2.977205 1.639951,0 2.970926,1.333788 2.970926,2.977205 z m 7.415019,3.165732 c -0.137411,0.02231 -0.267252,0.07662 -0.378534,0.158436 L 23.99969,19.887239 13.906059,18.279502 c -0.260921,-0.189644 -0.627763,-0.246433 -0.919311,-0.105636 -0.291549,0.140795 -0.482679,0.474505 -0.486699,0.792053 -0.0037,0.317591 0.198775,0.59148 0.486699,0.739259 l 7.909344,2.514371 -0.0541,5.772147 -2.790888,8.644815 c -0.268797,0.393649 -0.186871,0.899205 0.216311,1.161642 0.403199,0.262476 0.974971,0.182503 1.243795,-0.211191 l 4.503932,-9.331234 4.418914,9.315108 c 0.238943,0.4083 0.771577,0.550134 1.189709,0.316829 0.418132,-0.233302 0.5634,-0.753381 0.324466,-1.161684 L 27.209148,28.043976 27.10101,22.60989 35.121334,19.674251 c 0.324053,-0.22189 0.464832,-0.641962 0.324477,-1.003251 -0.140366,-0.361328 -0.526103,-0.571844 -0.91933,-0.528063 h 2.7e-5 z" />
</svg>
