<?xml version="1.0" encoding="UTF-8" standalone="no"?>
<svg
   xmlns:dc="http://purl.org/dc/elements/1.1/"
   xmlns:cc="http://creativecommons.org/ns#"
   xmlns:rdf="http://www.w3.org/1999/02/22-rdf-syntax-ns#"
   xmlns:svg="http://www.w3.org/2000/svg"
   xmlns="http://www.w3.org/2000/svg"
   xmlns:sodipodi="http://sodipodi.sourceforge.net/DTD/sodipodi-0.dtd"
   xmlns:inkscape="http://www.inkscape.org/namespaces/inkscape"
   id="svg4279"
   height="48"
   width="48"
   version="1.1"
   sodipodi:docname="preferences-system.svg"
   inkscape:version="0.92.4 (5da689c313, 2019-01-14)">
  <sodipodi:namedview
     pagecolor="#ffffff"
     bordercolor="#666666"
     borderopacity="1"
     objecttolerance="10"
     gridtolerance="10"
     guidetolerance="10"
     inkscape:pageopacity="0"
     inkscape:pageshadow="2"
     inkscape:window-width="1366"
     inkscape:window-height="697"
     id="namedview34"
     showgrid="false"
     inkscape:zoom="3.4766083"
     inkscape:cx="30.16553"
     inkscape:cy="48.14038"
     inkscape:window-x="0"
     inkscape:window-y="0"
     inkscape:window-maximized="1"
     inkscape:current-layer="svg4279" />
  <defs
     id="defs4281" />
  <metadata
     id="metadata4284">
    <rdf:RDF>
      <cc:Work
         rdf:about="">
        <dc:format>image/svg+xml</dc:format>
        <dc:type
           rdf:resource="http://purl.org/dc/dcmitype/StillImage" />
        <dc:title />
      </cc:Work>
    </rdf:RDF>
  </metadata>
  <path
     d="M 24,3.5 C 12.688808,3.5 3.5,12.688807 3.5,24 3.5,35.311192 12.688808,44.500003 24,44.5 35.311191,44.5 44.500007,35.311192 44.5,24 44.5,12.688807 35.311191,3.5 24,3.5 Z"
     id="path2555-7-65"
     style="color:#000000;display:inline;overflow:visible;visibility:visible;fill:#737f97;fill-opacity:1;fill-rule:nonzero;stroke:none;stroke-width:0.99999994;marker:none;enable-background:accumulate;clip-rule:nonzero;opacity:1;isolation:auto;mix-blend-mode:normal;color-interpolation:sRGB;color-interpolation-filters:linearRGB;solid-color:#000000;solid-opacity:1;stroke-linecap:butt;stroke-linejoin:miter;stroke-miterlimit:4;stroke-dasharray:none;stroke-dashoffset:0;stroke-opacity:1;filter-blend-mode:normal;filter-gaussianBlur-deviation:0;color-rendering:auto;image-rendering:auto;shape-rendering:auto;text-rendering:auto" />
  <path
     d="M 24,3.5 C 12.688807,3.5 3.5,12.688805 3.5,23.999998 3.5,35.311193 12.688807,44.500004 24,44.5 35.311193,44.5 44.500014,35.311193 44.5,23.999998 44.5,12.688805 35.311193,3.5 24,3.5 Z"
     id="path2555-7-1-7"
     style="color:#000000;display:inline;overflow:visible;visibility:visible;opacity:0.35;fill:none;stroke:#1c2c38;stroke-width:1;stroke-linecap:round;stroke-linejoin:round;stroke-miterlimit:4;stroke-dasharray:none;stroke-dashoffset:0;stroke-opacity:1;marker:none;enable-background:accumulate;clip-rule:nonzero;isolation:auto;mix-blend-mode:normal;color-interpolation:sRGB;color-interpolation-filters:linearRGB;solid-color:#000000;solid-opacity:1;fill-opacity:1;fill-rule:nonzero;filter-blend-mode:normal;filter-gaussianBlur-deviation:0;color-rendering:auto;image-rendering:auto;shape-rendering:auto;text-rendering:auto" />
  <path
     style="color:#000000;display:inline;overflow:visible;visibility:visible;fill:#455365;fill-opacity:1;fill-rule:nonzero;stroke:none;stroke-width:1;marker:none;enable-background:accumulate"
     id="rect3557"
     d="m 23,12 c -0.554,0 -1,0.446 -1,1 l 0,2.25 c -1.005406,0.228939 -1.934872,0.621619 -2.78125,1.15625 L 17.625,14.8125 c -0.391737,-0.391737 -1.014512,-0.391737 -1.40625,0 l -1.40625,1.40625 c -0.391737,0.391737 -0.391737,1.014512 0,1.40625 l 1.59375,1.59375 C 15.871619,20.065128 15.478939,20.994594 15.25,22 L 13,22 c -0.554,0 -1,0.446 -1,1 l 0,2 c 0,0.554 0.446,1 1,1 l 2.25,0 c 0.228939,1.005406 0.621619,1.934872 1.15625,2.78125 L 14.8125,30.375 c -0.391737,0.391737 -0.391737,1.014512 0,1.40625 l 1.40625,1.40625 c 0.391737,0.391737 1.014512,0.391739 1.40625,0 l 1.59375,-1.59375 C 20.065128,32.128381 20.994594,32.521061 22,32.75 L 22,35 c 0,0.554 0.446,1 1,1 l 2,0 c 0.554,0 1,-0.446 1,-1 l 0,-2.25 c 1.005406,-0.228939 1.934872,-0.621619 2.78125,-1.15625 L 30.375,33.1875 c 0.391737,0.391737 1.014512,0.391735 1.40625,0 l 1.40625,-1.40625 c 0.391737,-0.391737 0.391739,-1.014514 0,-1.40625 L 31.59375,28.78125 C 32.128381,27.934872 32.521061,27.005406 32.75,26 L 35,26 c 0.554,0 1,-0.446 1,-1 l 0,-2 c 0,-0.554 -0.446,-1 -1,-1 l -2.25,0 C 32.521061,20.994594 32.128381,20.065128 31.59375,19.21875 L 33.1875,17.625 c 0.391737,-0.391737 0.391735,-1.014512 0,-1.40625 L 31.78125,14.8125 c -0.391737,-0.391737 -1.014514,-0.391737 -1.40625,0 l -1.59375,1.59375 C 27.934872,15.871619 27.005406,15.478939 26,15.25 L 26,13 c 0,-0.554 -0.446,-1 -1,-1 l -2,0 z m 1,8 c 2.208,-1e-6 4,1.792 4,4 0,2.208001 -1.792,4 -4,4 -2.207999,1e-6 -4,-1.792 -4,-4 1e-6,-2.207999 1.792,-4 4,-4 z" />
  <path
     style="color:#000000;display:inline;overflow:visible;visibility:visible;opacity:0.1;fill:none;stroke:#000000;stroke-width:1;stroke-linecap:butt;stroke-linejoin:miter;stroke-miterlimit:4;stroke-dasharray:none;stroke-dashoffset:0;stroke-opacity:1;marker:none;enable-background:accumulate"
     id="path4324"
     d="m 23,12.5 c -0.749401,0.100836 -0.431654,0.994225 -0.5,1.518234 -0.06533,0.505749 0.140724,1.086074 -0.12176,1.542612 -0.702909,0.394465 -1.600472,0.431983 -2.295042,0.897674 -0.368254,0.219801 -0.942772,0.697238 -1.304198,0.19548 -0.563059,-0.530393 -1.065881,-1.133181 -1.668933,-1.615507 -0.61966,-0.113046 -0.926793,0.604823 -1.363567,0.933757 -0.356937,0.370601 -1.120901,0.895364 -0.49425,1.405 0.521006,0.563212 1.1377,1.054596 1.601314,1.661112 0.101607,0.683744 -0.65736,1.185459 -0.763484,1.851492 -0.340041,0.473597 -0.117836,1.376389 -0.752416,1.600101 -0.844118,0.04661 -1.699625,-0.04394 -2.539298,0.047 -0.511261,0.358077 -0.221958,1.078608 -0.298366,1.617043 0.0139,0.512518 -0.167193,1.427591 0.635765,1.346002 0.76525,0.03035 1.547786,-0.05969 2.302854,0.04284 0.559354,0.427849 0.378343,1.337151 0.788769,1.895194 0.09666,0.558648 0.902573,1.05374 0.560525,1.642398 -0.567778,0.616545 -1.223987,1.158215 -1.74942,1.809501 -0.113046,0.61966 0.604823,0.926793 0.933757,1.363567 0.370601,0.356937 0.895364,1.120901 1.405,0.49425 0.563212,-0.521006 1.054596,-1.1377 1.661112,-1.601314 0.683744,-0.101607 1.185459,0.65736 1.851492,0.763484 0.473597,0.340041 1.376389,0.117836 1.600101,0.752416 0.04661,0.844118 -0.04394,1.699625 0.047,2.539298 0.358077,0.511261 1.078608,0.221958 1.617043,0.298366 0.512518,-0.0139 1.427591,0.167193 1.346002,-0.635765 0.03035,-0.76525 -0.05969,-1.547786 0.04284,-2.302854 0.427849,-0.559354 1.337151,-0.378343 1.895194,-0.788769 0.558648,-0.09666 1.05374,-0.902573 1.642398,-0.560525 0.616545,0.567778 1.158215,1.223987 1.809501,1.74942 0.61966,0.113046 0.926793,-0.604823 1.363567,-0.933757 0.356937,-0.370601 1.1209,-0.895364 0.49425,-1.405 -0.521006,-0.563212 -1.1377,-1.054596 -1.601314,-1.661112 -0.101607,-0.683744 0.65736,-1.185459 0.763484,-1.851492 0.340041,-0.473597 0.117836,-1.376389 0.752416,-1.600101 0.844118,-0.04661 1.699625,0.04394 2.539298,-0.047 C 35.712895,25.104968 35.423592,24.384437 35.5,23.846002 35.4861,23.333484 35.667193,22.418411 34.864235,22.5 c -0.76525,-0.03035 -1.547786,0.05969 -2.302854,-0.04284 -0.559354,-0.427849 -0.378343,-1.337151 -0.788769,-1.895194 -0.09666,-0.558648 -0.902573,-1.05374 -0.560525,-1.642398 0.567778,-0.616545 1.223987,-1.158215 1.74942,-1.809501 0.113046,-0.61966 -0.604823,-0.926793 -0.933757,-1.363567 -0.370601,-0.356938 -0.895364,-1.120899 -1.405,-0.49425 -0.563212,0.521006 -1.054596,1.1377 -1.661112,1.601314 -0.683744,0.101607 -1.185459,-0.65736 -1.851492,-0.763484 -0.473597,-0.340041 -1.376389,-0.117836 -1.600101,-0.752416 -0.04661,-0.844118 0.04394,-1.699625 -0.047,-2.539298 C 25.104968,12.287105 24.384437,12.576408 23.846002,12.5 c -0.282001,0 -0.564001,0 -0.846002,0 z" />
  <path
     style="display:inline;overflow:visible;visibility:visible;opacity:0.1;fill:none;stroke:#000000;stroke-width:1;stroke-miterlimit:4;stroke-dasharray:none;stroke-opacity:1;marker:none;enable-background:accumulate"
     id="path4309"
     d="m 24,28.508259 c 2.652547,0.07738 4.932812,-2.569049 4.447817,-5.18209 -0.330082,-2.625026 -3.271414,-4.486105 -5.78081,-3.614406 -2.463048,0.698295 -3.887996,3.705348 -2.811417,6.042226 0.679292,1.634262 2.368996,2.773583 4.14441,2.75427 z" />
</svg>
