<?xml version="1.0" encoding="UTF-8" standalone="no"?>
<svg
   xmlns:dc="http://purl.org/dc/elements/1.1/"
   xmlns:cc="http://creativecommons.org/ns#"
   xmlns:rdf="http://www.w3.org/1999/02/22-rdf-syntax-ns#"
   xmlns:svg="http://www.w3.org/2000/svg"
   xmlns="http://www.w3.org/2000/svg"
   xmlns:sodipodi="http://sodipodi.sourceforge.net/DTD/sodipodi-0.dtd"
   xmlns:inkscape="http://www.inkscape.org/namespaces/inkscape"
   id="svg4279"
   height="48"
   width="48"
   version="1.1"
   sodipodi:docname="preferences-system-time.svg"
   inkscape:version="0.92.4 (5da689c313, 2019-01-14)">
  <sodipodi:namedview
     pagecolor="#ffffff"
     bordercolor="#666666"
     borderopacity="1"
     objecttolerance="10"
     gridtolerance="10"
     guidetolerance="10"
     inkscape:pageopacity="0"
     inkscape:pageshadow="2"
     inkscape:window-width="1366"
     inkscape:window-height="697"
     id="namedview37"
     showgrid="false"
     inkscape:zoom="3.4766083"
     inkscape:cx="-4.8465454"
     inkscape:cy="29.954451"
     inkscape:window-x="0"
     inkscape:window-y="0"
     inkscape:window-maximized="1"
     inkscape:current-layer="svg4279" />
  <defs
     id="defs4281" />
  <metadata
     id="metadata4284">
    <rdf:RDF>
      <cc:Work
         rdf:about="">
        <dc:format>image/svg+xml</dc:format>
        <dc:type
           rdf:resource="http://purl.org/dc/dcmitype/StillImage" />
        <dc:title />
      </cc:Work>
    </rdf:RDF>
  </metadata>
  <path
     d="M 24,3.5 C 12.688808,3.5 3.5,12.688807 3.5,24 3.5,35.311192 12.688808,44.500003 24,44.5 35.311191,44.5 44.500007,35.311192 44.5,24 44.5,12.688807 35.311191,3.5 24,3.5 Z"
     id="path2555-7-65"
     style="color:#000000;display:inline;overflow:visible;visibility:visible;fill:#f9f9f9;fill-opacity:1;fill-rule:nonzero;stroke:none;stroke-width:1;marker:none;enable-background:accumulate" />
  <path
     d="M 24,3.5 C 12.688807,3.5 3.5,12.688805 3.5,23.999998 3.5,35.311193 12.688807,44.500004 24,44.5 35.311193,44.5 44.500014,35.311193 44.5,23.999998 44.5,12.688805 35.311193,3.5 24,3.5 Z"
     id="path2555-7-1-7"
     style="color:#000000;display:inline;overflow:visible;visibility:visible;opacity:0.25;fill:none;stroke:#000000;stroke-width:0.99999994;stroke-linecap:round;stroke-linejoin:round;stroke-miterlimit:4;stroke-dasharray:none;stroke-dashoffset:0;stroke-opacity:1;marker:none;enable-background:accumulate" />
  <path
     d="M 22.8,25.321512 34.20044,12.3"
     id="path2312"
     style="fill:none;stroke:#333333;stroke-width:0.59999996;stroke-linecap:round;stroke-linejoin:miter;stroke-miterlimit:4;stroke-dasharray:none;stroke-opacity:1" />
  <path
     d="M 25.286917,24.175796 15.3,23.527491"
     id="path2314"
     style="fill:#0000ff;fill-opacity:1;stroke:#333333;stroke-width:0.59999996;stroke-linecap:round;stroke-linejoin:miter;stroke-miterlimit:4;stroke-dasharray:none;stroke-opacity:1" />
  <path
     d="m 22.8,21.075433 5.405664,14.624568"
     id="path2316"
     style="fill:none;stroke:#eb5c3a;stroke-width:0.59999996;stroke-linecap:round;stroke-linejoin:miter;stroke-miterlimit:4;stroke-dasharray:none;stroke-opacity:1" />
  <path
     d="m 25.529126,6.0873787 c -0.175224,3.2e-6 -0.338914,0.038916 -0.480582,0.087379 -0.137947,0.044741 -0.245127,0.071421 -0.349515,0.131068 -0.10066,0.059654 -0.198758,0.158799 -0.262136,0.2184466 -0.06337,0.059654 -0.108699,0.065012 -0.131068,0.087379 l 0.262136,0.3058253 c 0.0261,-0.033551 0.0826,-0.078871 0.131068,-0.131068 0.05219,-0.055919 0.100199,-0.126288 0.174757,-0.1747573 0.07456,-0.048464 0.165203,-0.097512 0.262136,-0.1310679 0.100661,-0.037279 0.226484,-0.043687 0.349515,-0.043689 0.119296,3e-6 0.216348,0.010136 0.305825,0.043689 0.09321,0.033556 0.158794,0.075148 0.218447,0.1310679 0.06337,0.055925 0.101233,0.1476143 0.131068,0.2184466 0.03355,0.070837 0.04369,0.1039247 0.04369,0.1747573 -3e-6,0.1118475 -0.02027,0.2238079 -0.08738,0.3058253 -0.06339,0.082021 -0.161477,0.1513416 -0.262136,0.2184466 -0.10066,0.067108 -0.186526,0.1188363 -0.305825,0.1747572 -0.115577,0.052196 -0.248856,0.122565 -0.349514,0.1747573 -0.190138,0.1006616 -0.313866,0.1902537 -0.436894,0.3058253 -0.119296,0.111846 -0.234991,0.2264864 -0.305825,0.3495145 -0.06711,0.1230291 -0.104966,0.2589909 -0.131068,0.3932039 -0.02237,0.1304857 -0.04369,0.2989516 -0.04369,0.4368932 h 2.402913 V 9.0145639 h -1.96602 c 0.01492,-0.1155718 0.05382,-0.2163489 0.08738,-0.3058252 0.03729,-0.089476 0.103917,-0.187572 0.174757,-0.2621359 0.07084,-0.074563 0.15029,-0.1476106 0.262136,-0.2184466 0.111845,-0.070834 0.269125,-0.1438823 0.436893,-0.2184466 0.07083,-0.033552 0.154017,-0.078873 0.262136,-0.131068 0.111845,-0.052192 0.201435,-0.1364253 0.305825,-0.2184466 0.104379,-0.082017 0.191299,-0.1502894 0.262136,-0.2621359 0.07456,-0.1155705 0.131068,-0.2803084 0.131068,-0.4368932 -3e-6,-0.1192991 -0.03891,-0.2014343 -0.08738,-0.3058253 C 26.485509,6.5472274 26.408741,6.4315377 26.315532,6.3495154 26.222322,6.2674994 26.100228,6.2194988 25.966017,6.1747581 25.835537,6.1262961 25.69689,6.0873821 25.529124,6.0873791 Z m -2.752427,0.043689 c -0.0074,0.018644 -0.06769,0.075148 -0.131068,0.131068 -0.06337,0.055925 -0.125238,0.1113819 -0.218447,0.1747572 -0.08948,0.063381 -0.201437,0.1262936 -0.305825,0.1747573 -0.10066,0.048469 -0.176389,0.087382 -0.262136,0.087379 v 0.3495145 c 0.07084,2.3e-6 0.125238,-0.013855 0.218447,-0.043689 0.09321,-0.029823 0.220077,-0.086327 0.305825,-0.131068 0.08948,-0.044735 0.147611,-0.078871 0.218447,-0.1310679 0.07084,-0.052191 0.141202,-0.086327 0.174757,-0.131068 V 9.0145634 H 21.990291 V 9.364078 h 1.878641 V 9.0145634 H 23.169903 V 6.1310683 Z M 7.3980578,22.033981 c -0.1975936,2e-6 -0.3964673,0.01655 -0.5679612,0.08738 -0.171496,0.07084 -0.3101367,0.182798 -0.4368932,0.305825 -0.1230291,0.123029 -0.2312625,0.269129 -0.3058253,0.436893 -0.070835,0.164041 -0.087379,0.334138 -0.087379,0.524272 -3e-7,0.18641 0.016543,0.360235 0.087379,0.524272 0.070834,0.16404 0.1827957,0.313865 0.3058253,0.436893 0.1230291,0.119297 0.2728534,0.191302 0.4368932,0.262136 0.1677657,0.06711 0.3341345,0.131068 0.5242718,0.131068 0.2535127,0 0.4577456,-0.08797 0.6553398,-0.218447 0.2013179,-0.13048 0.3548713,-0.304309 0.4368932,-0.524271 -2.6e-6,0.275884 -0.031459,0.526486 -0.087379,0.742718 -0.052196,0.212505 -0.1215164,0.378874 -0.2184466,0.524272 -0.093206,0.149127 -0.2153031,0.271223 -0.3495146,0.349514 -0.134215,0.07829 -0.2728561,0.131068 -0.4368932,0.131068 -0.208778,0 -0.3964672,-0.05918 -0.5679611,-0.174757 C 6.6149112,25.460971 6.5114551,25.282369 6.4368927,25.092233 l -0.2621359,0.262136 c 0.108116,0.231145 0.2718052,0.393785 0.4805825,0.524271 0.2087757,0.130481 0.438057,0.174756 0.6990291,0.174758 0.2199593,-2e-6 0.4326971,-0.03414 0.6116505,-0.131068 C 8.144968,25.8254 8.2761523,25.686757 8.4029121,25.485437 8.5333949,25.287845 8.6378996,25.04097 8.7087374,24.742718 8.7795694,24.440739 8.8398022,24.096817 8.8398053,23.694174 8.8398022,23.436933 8.7795693,23.200196 8.7087374,22.995146 8.6378996,22.786371 8.5296667,22.612546 8.4029121,22.470874 8.2798805,22.329207 8.1412398,22.195925 7.9660189,22.121359 7.7907936,22.043071 7.6068326,22.033983 7.3980578,22.033981 Z m 33.3349522,0 c -0.134214,2e-6 -0.266448,0.01021 -0.393204,0.04369 -0.126762,0.02983 -0.245127,0.07515 -0.349515,0.131068 -0.104393,0.05592 -0.180117,0.136436 -0.262136,0.218446 -0.08202,0.07829 -0.173708,0.165207 -0.218446,0.262136 l 0.262136,0.218447 c 0.08202,-0.167765 0.189203,-0.299997 0.349514,-0.393204 0.164039,-0.09693 0.355455,-0.131068 0.567961,-0.131068 0.115578,3e-6 0.252581,0.01384 0.349515,0.04369 0.10066,0.02983 0.191299,0.07143 0.262136,0.131068 0.07456,0.05592 0.133752,0.132704 0.174757,0.218446 0.04101,0.08202 0.04369,0.150294 0.04369,0.262136 -2e-6,0.212506 -0.0656,0.390059 -0.218446,0.524271 -0.152857,0.134214 -0.368274,0.218448 -0.65534,0.218447 h -0.174757 v 0.305825 h 0.131068 c 0.316891,2e-6 0.57495,0.06932 0.742718,0.218447 0.167764,0.149127 0.262133,0.354408 0.262136,0.61165 -3e-6,0.253514 -0.101834,0.477437 -0.262136,0.611651 -0.160312,0.137946 -0.375729,0.174757 -0.65534,0.174757 -0.242331,0 -0.45134,-0.03414 -0.61165,-0.131068 -0.160311,-0.09693 -0.271223,-0.229165 -0.349515,-0.393204 l -0.262136,0.262136 c 0.108112,0.201321 0.268078,0.325049 0.480583,0.436893 0.212503,0.115578 0.459378,0.174756 0.742718,0.174758 0.193862,-2e-6 0.367688,-0.03146 0.524272,-0.08738 0.160309,-0.05219 0.281357,-0.117786 0.393204,-0.218447 0.115564,-0.09693 0.202482,-0.207845 0.262136,-0.349514 0.06337,-0.137947 0.131068,-0.312816 0.131068,-0.480583 -3e-6,-0.268427 -0.06933,-0.472659 -0.218447,-0.655339 -0.1454,-0.182679 -0.365595,-0.308504 -0.61165,-0.349515 0.115563,-0.01492 0.216347,-0.03519 0.305825,-0.08738 0.09321,-0.05592 0.198755,-0.140154 0.262136,-0.218446 0.06337,-0.08201 0.09752,-0.161475 0.131068,-0.262136 0.03355,-0.104379 0.04369,-0.193978 0.04369,-0.305825 -2e-6,-0.149124 -0.02774,-0.313861 -0.08738,-0.436893 -0.05592,-0.123026 -0.15775,-0.220073 -0.262136,-0.305823 -0.104393,-0.08948 -0.20412,-0.169977 -0.349515,-0.218446 -0.141672,-0.04846 -0.309089,-0.04369 -0.480582,-0.04369 z M 7.3980578,22.339806 c 0.1416681,3e-6 0.2701729,0.03146 0.3932038,0.08738 0.126755,0.0522 0.2126191,0.121519 0.3058253,0.218446 0.09693,0.09321 0.2062111,0.22276 0.2621359,0.349515 0.055919,0.123029 0.087376,0.255264 0.087379,0.393203 -2.6e-6,0.141672 -0.031459,0.266448 -0.087379,0.393204 -0.052196,0.123029 -0.1215164,0.212622 -0.2184466,0.305825 -0.093206,0.09321 -0.2227595,0.206215 -0.3495146,0.262136 -0.1267591,0.05219 -0.2515357,0.04369 -0.3932038,0.04369 -0.1416714,10e-7 -0.266448,0.0085 -0.3932039,-0.04369 -0.1230306,-0.05592 -0.2563116,-0.168931 -0.3495146,-0.262136 -0.093205,-0.0932 -0.162525,-0.182794 -0.2184466,-0.305825 -0.055922,-0.126762 -0.087379,-0.251532 -0.087379,-0.393204 -6e-7,-0.141668 0.035183,-0.270171 0.087379,-0.393203 0.055921,-0.126748 0.1252423,-0.256309 0.2184466,-0.349515 0.096932,-0.09321 0.2264843,-0.16625 0.3495146,-0.218447 0.1267563,-0.05592 0.2515325,-0.08738 0.3932039,-0.08738 z M 24.305825,37.849514 c -0.219962,4e-6 -0.4327,0.07783 -0.61165,0.174757 -0.178953,0.09694 -0.306408,0.235577 -0.436893,0.436894 -0.126762,0.197596 -0.234992,0.44074 -0.305826,0.742718 -0.07084,0.298255 -0.08738,0.645904 -0.08738,1.048544 0,0.257244 0.02027,0.490253 0.08738,0.699029 0.07084,0.205049 0.179068,0.382602 0.305826,0.524272 0.126761,0.141671 0.261669,0.227534 0.436893,0.305825 0.175221,0.07456 0.359183,0.131068 0.567961,0.131068 0.19759,0 0.396464,-0.01654 0.567961,-0.08738 0.171493,-0.07084 0.313861,-0.182796 0.436893,-0.305825 0.126762,-0.123029 0.234987,-0.272853 0.305826,-0.436893 0.07456,-0.167766 0.08738,-0.334135 0.08738,-0.524272 -3e-6,-0.186406 -0.01655,-0.360231 -0.08738,-0.524272 -0.07084,-0.164037 -0.182799,-0.31759 -0.305826,-0.436893 -0.123029,-0.123029 -0.269129,-0.195026 -0.436893,-0.262136 -0.164041,-0.07083 -0.334137,-0.131068 -0.524272,-0.131068 -0.253515,3e-6 -0.454021,0.08797 -0.65534,0.218447 -0.197593,0.130481 -0.354874,0.304312 -0.436893,0.524272 0,-0.272153 0.03519,-0.526484 0.08738,-0.742719 0.05592,-0.216231 0.125238,-0.42256 0.218446,-0.567961 0.09693,-0.149123 0.2153,-0.227531 0.349515,-0.305825 0.134214,-0.07829 0.272853,-0.131068 0.436893,-0.131068 0.208775,4e-6 0.396464,0.05919 0.567961,0.174757 0.171493,0.111845 0.318639,0.24676 0.393204,0.436893 l 0.218447,-0.218446 c -0.108126,-0.231143 -0.271809,-0.393783 -0.480583,-0.524272 -0.208779,-0.130481 -0.43806,-0.218443 -0.699029,-0.218447 z m -0.04369,1.660194 c 0.137946,3e-6 0.266445,0.03146 0.393204,0.08738 0.126762,0.05219 0.256309,0.125238 0.349514,0.218447 0.09321,0.09321 0.162522,0.222759 0.218447,0.349514 0.05592,0.123029 0.08738,0.251536 0.08738,0.393204 -3e-6,0.141671 -0.03146,0.266448 -0.08738,0.393204 -0.05219,0.123029 -0.121519,0.212622 -0.218447,0.305825 -0.09321,0.09321 -0.222759,0.206214 -0.349514,0.262136 -0.123029,0.05219 -0.251536,0.04369 -0.393204,0.04369 -0.141671,0 -0.266448,0.0085 -0.393204,-0.04369 -0.123029,-0.05592 -0.208894,-0.168931 -0.305825,-0.262136 -0.09321,-0.09693 -0.206215,-0.182795 -0.262136,-0.305825 -0.05592,-0.123029 -0.04369,-0.251533 -0.04369,-0.393204 -2e-6,-0.141668 -0.0085,-0.270173 0.04369,-0.393204 0.05592,-0.126762 0.125238,-0.256309 0.218446,-0.349514 0.09693,-0.09321 0.222756,-0.16625 0.349515,-0.218447 0.126762,-0.05592 0.251533,-0.08738 0.393204,-0.08738 z"
     id="text4045"
     style="font-style:normal;font-variant:normal;font-weight:normal;font-stretch:normal;font-size:4px;line-height:125%;font-family:Raleway;-inkscape-font-specification:Raleway;letter-spacing:0px;word-spacing:0px;opacity:0.4;fill:#000000;fill-opacity:1;stroke:none" />
  <path
     d="m 24.748311,24.127695 a 0.7483114,0.74628702 0 1 1 -1.496622,0 0.7483114,0.74628702 0 1 1 1.496622,0 z"
     id="path4117"
     style="color:#000000;display:inline;overflow:visible;visibility:visible;fill:#e6e6e6;fill-opacity:1;fill-rule:nonzero;stroke:none;stroke-width:1.49459708;marker:none;enable-background:accumulate" />
</svg>
