<svg xmlns="http://www.w3.org/2000/svg" xmlns:xlink="http://www.w3.org/1999/xlink" width="48" height="48"><defs><filter color-interpolation-filters="sRGB" id="k"><feGaussianBlur stdDeviation=".637"/></filter><clipPath id="i"><path d="M108.813 58A2.806 2.806 0 0 0 106 60.813v24.374A2.806 2.806 0 0 0 108.813 88h24.374A2.806 2.806 0 0 0 136 85.187V60.814A2.806 2.806 0 0 0 133.187 58h-24.375zM116 62.5h10v8.75h5L121 85l-10-13.75h5V62.5z" fill="#fff"/></clipPath><linearGradient x1="65.263" y1="64.205" x2="65.263" y2="50.069" id="j" xlink:href="#a" gradientUnits="userSpaceOnUse" gradientTransform="matrix(.625 0 0 .625 78.5 32.25)"/><filter color-interpolation-filters="sRGB" id="f"><feGaussianBlur stdDeviation="1.2"/></filter><linearGradient x1="70" y1="54" x2="70" y2="75.095" id="h" xlink:href="#b" gradientUnits="userSpaceOnUse" gradientTransform="translate(0 4)"/><linearGradient x1="56" y1="72" x2="88" y2="72" id="g" xlink:href="#c" gradientUnits="userSpaceOnUse" gradientTransform="translate(-140.5 3.5) scale(.9375)"/><linearGradient x1="65.263" y1="64.205" x2="65.263" y2="50.069" id="l" xlink:href="#b" gradientUnits="userSpaceOnUse" gradientTransform="matrix(.625 0 0 .625 28.5 31.25)"/><filter color-interpolation-filters="sRGB" id="e"><feGaussianBlur stdDeviation="1.71"/></filter><linearGradient id="b"><stop offset="0" stop-color="#fff"/><stop offset="1" stop-color="#fff" stop-opacity="0"/></linearGradient><linearGradient x1="45.448" y1="92.54" x2="45.448" y2="7.017" id="d" gradientUnits="userSpaceOnUse" gradientTransform="scale(1.00587 .99417)"><stop offset="0"/><stop offset="1" stop-opacity=".588"/></linearGradient><linearGradient id="a"><stop offset="0"/><stop offset="1" stop-opacity="0"/></linearGradient><linearGradient id="c"><stop offset="0" stop-color="#499119"/><stop offset="1" stop-color="#8fd625"/></linearGradient></defs><rect transform="scale(1 -1)" width="38" height="38" rx="1.5" ry="1.5" x="5" y="-43.967" style="marker:none" color="#000" overflow="visible" fill="#f9f9f9" enable-background="accumulate"/><rect width="39" height="39" rx="2" ry="2" x="4.5" y="5.467" style="marker:none;font-variant-east_asian:normal" color="#000" fill="none" stroke="#555761" stroke-linecap="round" stroke-linejoin="round" overflow="visible" enable-background="accumulate" opacity=".35"/><rect width="28" height="14" rx="7" ry="7" x="10" y="18" style="marker:none" color="#000" overflow="visible" fill="#46a7e9" enable-background="accumulate"/><path d="M9.085 9a1 1 0 0 1-2 0 1 1 0 1 1 2 0zM41.085 9a1 1 0 0 1-2 0 1 1 0 1 1 2 0zM9.085 41a1 1 0 0 1-2 0 1 1 0 1 1 2 0zM41.085 41a1 1 0 0 1-2 0 1 1 0 1 1 2 0z" style="marker:none" color="#000" overflow="visible" opacity=".2" fill-rule="evenodd" enable-background="accumulate"/><path d="M37 26a6 6 0 0 1-12 0 6 6 0 1 1 12 0z" style="marker:none" color="#000" overflow="visible" opacity=".15" fill="#0e4774" enable-background="accumulate"/><path style="marker:none" d="M31 18.5c3.586 0 6.5 2.914 6.5 6.5s-2.914 6.5-6.5 6.5a6.504 6.504 0 0 1-6.5-6.5c0-3.586 2.914-6.5 6.5-6.5z" color="#000" overflow="visible" fill="#f9f9f9" enable-background="accumulate"/><path style="marker:none" d="M31 18.5c3.586 0 6.5 2.914 6.5 6.5s-2.914 6.5-6.5 6.5a6.504 6.504 0 0 1-6.5-6.5c0-3.586 2.914-6.5 6.5-6.5z" color="#000" overflow="visible" opacity=".5" fill="none" stroke="#656565" stroke-linecap="round" stroke-linejoin="round" enable-background="accumulate"/></svg>