<?xml version="1.0" encoding="UTF-8" standalone="no"?>
<svg
   xmlns:dc="http://purl.org/dc/elements/1.1/"
   xmlns:cc="http://creativecommons.org/ns#"
   xmlns:rdf="http://www.w3.org/1999/02/22-rdf-syntax-ns#"
   xmlns:svg="http://www.w3.org/2000/svg"
   xmlns="http://www.w3.org/2000/svg"
   xmlns:sodipodi="http://sodipodi.sourceforge.net/DTD/sodipodi-0.dtd"
   xmlns:inkscape="http://www.inkscape.org/namespaces/inkscape"
   version="1.1"
   width="48"
   height="48"
   id="svg5572"
   viewBox="0 0 48 48"
   sodipodi:docname="preferences-desktop-peripherals.svg"
   inkscape:version="0.92.4 (5da689c313, 2019-01-14)">
  <sodipodi:namedview
     pagecolor="#ffffff"
     bordercolor="#666666"
     borderopacity="1"
     objecttolerance="10"
     gridtolerance="10"
     guidetolerance="10"
     inkscape:pageopacity="0"
     inkscape:pageshadow="2"
     inkscape:window-width="1366"
     inkscape:window-height="697"
     id="namedview69"
     showgrid="true"
     inkscape:snap-bbox="true"
     inkscape:bbox-nodes="true"
     inkscape:snap-bbox-edge-midpoints="true"
     inkscape:zoom="4.9166667"
     inkscape:cx="-1.9739299"
     inkscape:cy="22.826022"
     inkscape:window-x="0"
     inkscape:window-y="0"
     inkscape:window-maximized="1"
     inkscape:current-layer="svg5572">
    <inkscape:grid
       type="xygrid"
       id="grid892" />
  </sodipodi:namedview>
  <metadata
     id="metadata33">
    <rdf:RDF>
      <cc:Work
         rdf:about="">
        <dc:format>image/svg+xml</dc:format>
        <dc:type
           rdf:resource="http://purl.org/dc/dcmitype/StillImage" />
      </cc:Work>
    </rdf:RDF>
  </metadata>
  <defs
     id="defs5574" />
  <rect
     style="color:#000000;display:inline;overflow:visible;visibility:visible;fill:#e6e6e6;fill-opacity:1;fill-rule:nonzero;stroke:#000000;stroke-width:1;stroke-miterlimit:4;stroke-dasharray:none;stroke-opacity:0.19607843;marker:none;enable-background:accumulate"
     id="rect5505"
     y="9.5"
     x="10.5"
     ry="2.4166667"
     rx="2.25"
     height="29"
     width="33" />
  <g
     id="g890"
     transform="translate(-6.9999954)">
    <path
       d="m 23.957031,3.5 c -2.716039,0.061363 -5.775961,0.2198339 -8.34375,1.9121094 a 0.96200285,0.91614295 0 0 0 -0.1875,0.1484375 c -2.667532,2.9655993 -2.183464,6.9007751 -2.603515,9.9179691 a 0.96200285,0.91614295 0 0 0 -0.03125,0.05859 c -0.482438,7.73236 -0.456666,15.573704 0.783203,23.298829 a 0.96200285,0.91614295 0 0 0 0,0.0293 c 0.40329,2.045276 1.74076,4.2164 4.203125,4.779297 0.02399,0.0057 0.03831,0.02414 0.0625,0.0293 v -0.0293 c 3.736097,1.090821 7.771536,1.091827 11.511718,0.269531 1.93717,-0.426532 3.944957,-1.569816 4.642579,-3.644531 0.003,-0.0086 -0.003,-0.02041 0,-0.0293 0.910539,-2.478679 0.892581,-5.030203 1.160156,-7.347656 a 0.96200285,0.91614295 0 0 0 0.03125,-0.03125 C 35.684133,25.427483 35.65001,17.923386 34.652344,10.490234 34.51422,9.436078 34.289593,8.2762188 33.742188,7.2050781 33.200713,6.1455504 32.315296,5.1869717 31.013672,4.6660156 c -0.006,-0.00191 0.006,-0.028956 0,-0.03125 -0.009,-0.00382 -0.02182,0.00382 -0.03125,0 C 28.706754,3.6619394 26.220744,3.5833564 24.019531,3.5 a 0.96200285,0.91614295 0 0 0 -0.0625,0 z"
       id="path4487"
       style="color:#000000;display:inline;overflow:visible;visibility:visible;fill:#f9f9f9;fill-opacity:1;fill-rule:nonzero;stroke:none;stroke-width:0.99992192;stroke-linecap:butt;stroke-linejoin:round;stroke-miterlimit:4;stroke-dasharray:none;stroke-dashoffset:0;stroke-opacity:1;marker:none;enable-background:accumulate"
       inkscape:connector-curvature="0" />
    <path
       d="m 23.95654,3.5004864 c -2.716039,0.061363 -5.775119,0.2193494 -8.342908,1.9116249 A 0.96200285,0.91614295 0 0 0 15.425446,5.561457 c -2.667532,2.9655993 -2.183187,6.89936 -2.603238,9.916554 a 0.96200285,0.91614295 0 0 0 -0.03131,0.05974 c -0.482438,7.73236 -0.455761,15.572804 0.784108,23.297929 a 0.96200285,0.91614295 0 0 0 0,0.02982 c 0.40329,2.045276 1.740453,4.216165 4.202818,4.779062 0.02399,0.0057 0.03854,0.02466 0.06273,0.02982 v -0.02982 c 3.736097,1.090821 7.770522,1.091118 11.510704,0.268823 1.93717,-0.426532 3.944296,-1.56932 4.641918,-3.644035 0.003,-0.0086 -0.003,-0.02093 0,-0.02982 0.910539,-2.478679 0.892905,-5.030355 1.16048,-7.347808 a 0.96200285,0.91614295 0 0 0 0.03131,-0.02982 C 35.683552,25.428057 35.649438,17.923065 34.651772,10.489913 34.513648,9.4357568 34.289612,8.2754482 33.742207,7.2043075 33.200733,6.1447798 32.315135,5.1863867 31.013511,4.6654306 c -0.006,-0.00191 0.006,-0.027527 0,-0.029821 -0.009,-0.00382 -0.02188,0.00382 -0.03131,0 C 28.706533,3.6627834 26.220532,3.5839384 24.019319,3.500582 a 0.96200285,0.91614295 0 0 0 -0.06273,0 z"
       id="path4487-0"
       style="color:#000000;display:inline;overflow:visible;visibility:visible;opacity:0.15;fill:none;fill-opacity:1;fill-rule:nonzero;stroke:#000000;stroke-width:0.99992192;stroke-linecap:butt;stroke-linejoin:round;stroke-miterlimit:4;stroke-dasharray:none;stroke-dashoffset:0;stroke-opacity:1;marker:none;enable-background:accumulate"
       inkscape:connector-curvature="0" />
  </g>
</svg>
