<?xml version="1.0" encoding="UTF-8" standalone="no"?>
<!-- Created with Inkscape (http://www.inkscape.org/) -->

<svg
   xmlns:dc="http://purl.org/dc/elements/1.1/"
   xmlns:cc="http://creativecommons.org/ns#"
   xmlns:rdf="http://www.w3.org/1999/02/22-rdf-syntax-ns#"
   xmlns:svg="http://www.w3.org/2000/svg"
   xmlns="http://www.w3.org/2000/svg"
   xmlns:xlink="http://www.w3.org/1999/xlink"
   xmlns:sodipodi="http://sodipodi.sourceforge.net/DTD/sodipodi-0.dtd"
   xmlns:inkscape="http://www.inkscape.org/namespaces/inkscape"
   version="1.0"
   width="48"
   height="48"
   id="svg2408"
   style="display:inline"
   sodipodi:docname="software-sources.svg"
   inkscape:version="0.92.4 (5da689c313, 2019-01-14)">
  <sodipodi:namedview
     pagecolor="#ffffff"
     bordercolor="#666666"
     borderopacity="1"
     objecttolerance="10"
     gridtolerance="10"
     guidetolerance="10"
     inkscape:pageopacity="0"
     inkscape:pageshadow="2"
     inkscape:window-width="1366"
     inkscape:window-height="710"
     id="namedview290"
     showgrid="true"
     inkscape:snap-bbox="true"
     inkscape:bbox-nodes="true"
     inkscape:snap-bbox-edge-midpoints="true"
     inkscape:zoom="3.4766083"
     inkscape:cx="38.295785"
     inkscape:cy="46.533209"
     inkscape:window-x="0"
     inkscape:window-y="32"
     inkscape:window-maximized="1"
     inkscape:current-layer="svg2408"
     inkscape:object-paths="true"
     inkscape:snap-intersection-paths="true"
     inkscape:snap-smooth-nodes="true"
     inkscape:snap-midpoints="true">
    <inkscape:grid
       type="xygrid"
       id="grid1121" />
  </sodipodi:namedview>
  <defs
     id="defs2410">
    <linearGradient
       id="linearGradient3778">
      <stop
         id="stop3780"
         style="stop-color:#1e74af;stop-opacity:1"
         offset="0" />
      <stop
         id="stop3782"
         style="stop-color:#84c0ea;stop-opacity:1"
         offset="1" />
    </linearGradient>
    <linearGradient
       id="linearGradient5010">
      <stop
         id="stop5012"
         style="stop-color:#000000;stop-opacity:1"
         offset="0" />
      <stop
         id="stop5014"
         style="stop-color:#000000;stop-opacity:0"
         offset="1" />
    </linearGradient>
    <linearGradient
       x1="45.447727"
       y1="92.539597"
       x2="45.447727"
       y2="7.0165396"
       id="ButtonShadow"
       gradientUnits="userSpaceOnUse"
       gradientTransform="scale(1.0058652,0.994169)">
      <stop
         id="stop3750"
         style="stop-color:#000000;stop-opacity:1"
         offset="0" />
      <stop
         id="stop3752"
         style="stop-color:#000000;stop-opacity:0.58823532"
         offset="1" />
    </linearGradient>
    <linearGradient
       id="linearGradient3737">
      <stop
         id="stop3739"
         style="stop-color:#ffffff;stop-opacity:1"
         offset="0" />
      <stop
         id="stop3741"
         style="stop-color:#ffffff;stop-opacity:0"
         offset="1" />
    </linearGradient>
    <filter
       id="filter3174"
       style="color-interpolation-filters:sRGB">
      <feGaussianBlur
         id="feGaussianBlur3176"
         stdDeviation="1.71" />
    </filter>
    <linearGradient
       x1="65.262688"
       y1="64.205269"
       x2="65.262688"
       y2="50.068527"
       id="linearGradient3832"
       xlink:href="#linearGradient3737"
       gradientUnits="userSpaceOnUse"
       gradientTransform="matrix(0.625,0,0,0.625,28.5,31.25)" />
    <linearGradient
       x1="56"
       y1="72"
       x2="88"
       y2="72"
       id="linearGradient3773"
       xlink:href="#linearGradient3778"
       gradientUnits="userSpaceOnUse"
       gradientTransform="matrix(0.9375,0,0,0.9375,-140.5,3.5)" />
    <linearGradient
       x1="70"
       y1="54"
       x2="70"
       y2="75.095024"
       id="linearGradient3788"
       xlink:href="#linearGradient3737"
       gradientUnits="userSpaceOnUse"
       gradientTransform="translate(0,4)" />
    <filter
       id="filter3806"
       style="color-interpolation-filters:sRGB">
      <feGaussianBlur
         id="feGaussianBlur3808"
         stdDeviation="1.2" />
    </filter>
    <linearGradient
       x1="65.262688"
       y1="64.205269"
       x2="65.262688"
       y2="50.068527"
       id="linearGradient3812"
       xlink:href="#linearGradient5010"
       gradientUnits="userSpaceOnUse"
       gradientTransform="matrix(0.625,0,0,0.625,78.5,32.25)" />
    <clipPath
       id="clipPath3823">
      <path
         d="M 108.8125,58 C 107.25437,58 106,59.254375 106,60.8125 v 24.375 C 106,86.745625 107.25437,88 108.8125,88 h 24.375 C 134.74562,88 136,86.745625 136,85.1875 V 60.8125 C 136,59.254375 134.74562,58 133.1875,58 Z M 116,62.5 h 10 v 8.75 h 5 L 121,85 111,71.25 h 5 z"
         inkscape:connector-curvature="0"
         id="path3825"
         style="fill:#ffffff;fill-opacity:1;stroke:none" />
    </clipPath>
    <filter
       id="filter3831"
       style="color-interpolation-filters:sRGB">
      <feGaussianBlur
         id="feGaussianBlur3833"
         stdDeviation="0.6375" />
    </filter>
    <linearGradient
       x1="51.42857"
       y1="72.785713"
       x2="90.714287"
       y2="72.785713"
       id="linearGradient3844"
       xlink:href="#linearGradient3778"
       gradientUnits="userSpaceOnUse" />
    <clipPath
       id="clipPath3871">
      <path
         d="M 0,95.999997 V 156 H 96.000001 V 95.999997 Z M 68,116 c 9.941125,0 18,8.05888 18,18 0,9.94112 -8.058875,18 -18,18 -9.941125,0 -18,-8.05888 -18,-18 0,-9.94112 8.058875,-18 18,-18 z"
         inkscape:connector-curvature="0"
         id="path3873"
         style="fill:#ffffff;fill-opacity:1;stroke:none" />
    </clipPath>
    <filter
       id="filter3866"
       style="color-interpolation-filters:sRGB">
      <feGaussianBlur
         id="feGaussianBlur3868"
         stdDeviation="1.44" />
    </filter>
    <linearGradient
       x1="64.321426"
       y1="55.310268"
       x2="64.321426"
       y2="84.889679"
       id="linearGradient3857-6"
       xlink:href="#linearGradient3737-1"
       gradientUnits="userSpaceOnUse"
       gradientTransform="translate(-2)" />
    <linearGradient
       id="linearGradient3737-1">
      <stop
         id="stop3739-5"
         style="stop-color:#ffffff;stop-opacity:1"
         offset="0" />
      <stop
         id="stop3741-9"
         style="stop-color:#ffffff;stop-opacity:0"
         offset="1" />
    </linearGradient>
    <linearGradient
       id="linearGradient2312">
      <stop
         id="stop2314"
         style="stop-color:#e3ebf3;stop-opacity:1"
         offset="0" />
      <stop
         id="stop2316"
         style="stop-color:#cedceb;stop-opacity:0.39215687"
         offset="1" />
    </linearGradient>
    <radialGradient
       cx="22.109167"
       cy="19.780535"
       r="19.18985"
       fx="22.109167"
       fy="19.780535"
       id="radialGradient3146"
       xlink:href="#linearGradient2312"
       gradientUnits="userSpaceOnUse"
       gradientTransform="matrix(0.94406626,0,0,0.88116978,44.405871,53.026474)" />
  </defs>
  <metadata
     id="metadata2413">
    <rdf:RDF>
      <cc:Work
         rdf:about="">
        <dc:format>image/svg+xml</dc:format>
        <dc:type
           rdf:resource="http://purl.org/dc/dcmitype/StillImage" />
        <dc:title />
      </cc:Work>
    </rdf:RDF>
  </metadata>
  <g
     id="layer2"
     style="display:none"
     transform="translate(0,-48)">
    <path
       d="M 11,7 48,5 85,7 c 3.324,0 6,2.676 6,6 v 73 c 0,3.324 -2.676,6 -6,6 H 11 C 7.676,92 5,89.324 5,86 V 13 C 5,9.676 7.676,7 11,7 Z"
       inkscape:connector-curvature="0"
       id="rect3745"
       style="opacity:0.9;fill:url(#ButtonShadow);fill-opacity:1;fill-rule:nonzero;stroke:none;filter:url(#filter3174)" />
  </g>
  <g
     id="layer4"
     style="display:none"
     transform="translate(0,-48)">
    <rect
       width="30"
       height="30"
       rx="2.8125"
       ry="2.8125"
       x="-86"
       y="56"
       transform="rotate(-90,2,2)"
       id="rect3790"
       style="opacity:0.6;fill:#000000;fill-opacity:1;stroke:none;filter:url(#filter3806)" />
    <rect
       width="30"
       height="30"
       rx="2.8125"
       ry="2.8125"
       x="-88"
       y="56"
       transform="rotate(-90)"
       id="rect2993"
       style="fill:url(#linearGradient3773);fill-opacity:1;stroke:none" />
    <path
       d="M 58.8125,58 C 57.254375,58 56,59.254375 56,60.8125 v 24.375 c 0,0.873066 0.410816,1.641163 1.03125,2.15625 C 57.02841,87.289908 57,87.242129 57,87.1875 V 62.8125 C 57,61.254375 58.17075,60 59.625,60 h 22.75 C 83.82925,60 85,61.254375 85,62.8125 v 24.375 c 0,0.05463 -0.02841,0.102408 -0.03125,0.15625 C 85.589184,86.828663 86,86.060566 86,85.1875 V 60.8125 C 86,59.254375 84.745625,58 83.1875,58 Z"
       inkscape:connector-curvature="0"
       id="rect3775"
       style="opacity:0.5;fill:url(#linearGradient3788);fill-opacity:1;stroke:none" />
    <path
       d="m 116,63.5 v 8.75 h -5 L 121,86 131,72.25 h -5 V 63.5 Z"
       inkscape:connector-curvature="0"
       transform="translate(-50)"
       clip-path="url(#clipPath3823)"
       id="path3810"
       style="display:inline;opacity:0.6;fill:url(#linearGradient3812);fill-opacity:1;fill-rule:nonzero;stroke:none;filter:url(#filter3831)" />
    <path
       d="m 66,62.5 v 8.75 H 61 L 71,85 81,71.25 H 76 V 62.5 Z"
       inkscape:connector-curvature="0"
       id="path4278"
       style="display:inline;fill:url(#linearGradient3832);fill-opacity:1;fill-rule:nonzero;stroke:none" />
  </g>
  <g
     id="layer6"
     style="display:none"
     transform="translate(0,-48)">
    <rect
       width="36"
       height="36"
       rx="18"
       ry="18"
       x="50"
       y="118"
       transform="translate(1.373291e-7,-60)"
       clip-path="url(#clipPath3871)"
       id="rect3859"
       style="display:inline;opacity:0.6;fill:#000000;fill-opacity:1;stroke:none;filter:url(#filter3866)" />
    <path
       d="m 90.714283,72.785713 a 19.642857,19.642857 0 1 1 -39.285713,0 19.642857,19.642857 0 1 1 39.285713,0 z"
       transform="matrix(0,-0.91636366,0.91636366,0,1.3018175,139.12727)"
       id="path3836"
       style="fill:url(#linearGradient3844);fill-opacity:1;stroke:none"
       inkscape:connector-curvature="0" />
    <path
       d="m 67.985086,56.378807 -2.057995,0.23861 -2.535211,0.70091 -0.477216,0.4623 1.580779,1.08865 v 0.62635 l -0.626347,0.62635 0.820215,1.62551 0.551782,-0.29826 0.685998,-1.10356 c 1.060186,-0.3284 2.019644,-0.69624 3.027341,-1.16321 l 0.820215,-2.10274 z m -4.816901,0.25352 c -0.453342,0.12819 -0.903975,0.27064 -1.342171,0.43248 l -0.01491,0.0149 c -0.0087,0.003 -0.02114,-0.003 -0.02983,0 -0.604892,0.22522 -1.187288,0.48949 -1.759734,0.77548 l 0.89478,0.16404 0.342999,-0.31317 0.685998,-0.14913 c 0.470145,-0.22909 0.947717,-0.39014 1.446562,-0.55178 l -0.223695,-0.37283 z m -4.101077,1.77465 -0.134217,0.31317 0.05965,0.77548 -0.536868,0.4623 -0.342999,0.86496 h 0.685998 l 0.342999,-0.77548 c 0.295964,-0.2097 0.578427,-0.4245 0.879868,-0.62635 l 0.685998,0.23861 c 0.457306,0.31128 0.914313,0.6138 1.371996,0.92461 l 0.700912,-0.62635 -0.760563,-0.29826 -0.343,-0.70091 -1.312344,-0.16404 -0.05965,-0.38774 -0.626346,0.14913 -0.268434,0.55178 z m 17.582435,0.62635 -1.312345,0.31317 -0.820215,0.53687 v 0.4623 l -1.297432,0.86495 0.268435,1.23778 0.760563,-0.53686 0.477216,0.53686 0.551781,0.31318 0.342999,-0.92461 -0.208782,-0.55178 0.208782,-0.38774 0.745651,-0.70091 h 0.342999 l -0.342999,0.77548 v 0.70091 c 0.315318,-0.086 0.646663,-0.10893 0.969345,-0.14913 l -0.89478,0.61143 -0.07457,0.40265 -1.028998,0.85004 -1.028997,-0.23861 v -0.61143 l -0.477217,0.29826 0.208783,0.55178 h -0.760563 l -0.402652,0.70091 -0.521955,0.58161 -0.924606,0.19387 0.551781,0.55178 0.134217,0.53687 h -0.685998 l -0.894781,0.47722 v 1.38691 h 0.417565 l 0.372825,0.43247 0.864954,-0.43247 0.342999,-0.85005 0.611433,-0.38773 0.134218,-0.31318 1.028997,-0.23861 0.551781,0.62635 0.611433,0.31317 -0.342999,0.70092 0.551782,-0.14913 0.283347,-0.70092 -0.685999,-0.79039 h 0.268434 l 0.685999,0.55179 0.134217,0.77547 0.626346,0.70091 0.134217,-1.01408 0.342999,-0.14913 c 0.339298,0.3529 0.609012,0.76604 0.89478,1.16321 l 1.028998,0.0746 0.611433,0.38774 -0.268434,0.38773 -0.626346,0.55179 h -0.879867 l -1.178128,-0.38774 -0.611433,0.0746 -0.447391,0.50704 -1.267605,-1.28251 -0.894781,-0.23861 -1.297431,0.16404 -1.178127,0.31317 c -0.654616,0.74355 -1.289274,1.47967 -1.908865,2.25187 l -0.760564,1.78956 0.343,0.38774 -0.611434,0.93952 0.685999,1.62551 c 0.583527,0.66135 1.162143,1.32161 1.744821,1.98343 l 0.850042,-0.73074 0.387738,0.43248 0.924606,-0.59652 0.313173,0.35791 h 0.924607 l 0.521955,0.59653 -0.328086,1.07373 0.656172,0.74565 -0.02983,1.28252 0.477216,0.92461 -0.342999,0.79038 c -0.03418,0.57263 -0.05965,1.12737 -0.05965,1.70009 0.281238,0.77589 0.55465,1.55987 0.820216,2.34134 l 0.193869,1.23778 v 0.62634 h 0.49213 l 0.74565,-0.4623 h 0.894781 l 1.34217,-1.52112 -0.178956,-0.50705 0.89478,-0.77547 -0.656172,-0.74566 0.790389,-0.65617 0.760564,-0.4623 0.342999,-0.38774 -0.208782,-0.86495 c 0,-0.72595 0,-1.45126 0,-2.1773 l 0.626346,-1.32726 0.74565,-0.85004 0.820216,-2.02817 v -0.53686 c -0.406913,0.0513 -0.794985,0.0904 -1.193041,0.1193 l -0.02982,0.0298 -0.02982,-0.0298 c -0.240947,0.0164 -0.482983,0.0298 -0.730737,0.0298 -0.437008,-0.92004 -0.770779,-1.84113 -1.103563,-2.80364 l -0.581607,-0.65617 -0.29826,-1.13339 0.193869,-0.2237 0.79039,0.89478 0.924606,1.98343 0.551781,0.61144 -0.268434,0.70091 0.521955,0.59652 c 0.01963,-0.001 0.04004,0.001 0.05965,0 l 0.820216,-0.82022 1.133388,-0.77547 0.626345,-0.70091 v -0.79039 c -0.137362,-0.25953 -0.279259,-0.51591 -0.417565,-0.77546 l -0.551781,0.62635 -0.417564,-0.46231 -0.611433,-0.47721 v -0.99917 l 0.715824,0.8053 0.79039,-0.10439 c 0.3595,0.32698 0.713678,0.62688 1.028999,0.99917 l 0.507042,-0.5667 c -0.725536,-4.44474 -3.07624,-8.34317 -6.412595,-11.08036 l -0.134217,0.20879 -0.685998,0.77547 -0.879867,-0.9246 h 0.879867 l 0.372825,-0.41757 c -0.03078,-0.0237 -0.05854,-0.0511 -0.08948,-0.0746 l -1.506214,-0.28335 -0.89478,-0.31317 z m -18.760562,0.0597 c -0.242646,0.16567 -0.46691,0.34501 -0.700912,0.52195 l -0.104391,0.26844 c 0,0 -0.188073,0.0315 -0.328086,0.0596 -3.882634,3.12203 -6.456825,7.81685 -6.755592,13.10853 0.186423,0.32011 0.417564,0.686 0.417564,0.686 l 1.446562,0.85004 1.431648,0.40265 0.626347,0.77548 0.954432,0.70091 0.551782,-0.0895 0.417564,0.19387 v 0.1193 l -0.551782,1.47639 -0.417564,0.62635 0.134217,0.31317 -0.342999,1.16321 1.23778,2.26678 1.237779,1.08865 0.551781,0.77548 -0.07456,1.64043 0.417565,0.9246 -0.417565,1.78956 c 0,0 -0.0098,0.0132 0.01491,0.11931 0.576819,0.40897 1.180569,0.79285 1.804474,1.13338 0.0098,0.005 0.02004,0.01 0.02982,0.0149 0.02683,0.0126 0.06416,0.0333 0.08948,0.0447 0.221179,0.1004 0.38346,0.15962 0.417564,0.13422 0.135945,-0.10348 0.253521,-0.19387 0.253521,-0.19387 l -0.134217,-0.38774 0.551782,-0.55178 0.208782,-0.53687 0.879867,-0.31317 0.685998,-1.715 -0.193869,-0.4623 0.477216,-0.70091 1.028998,-0.23861 0.551781,-1.25269 -0.134217,-1.55095 0.820216,-1.16322 0.134217,-1.16321 c -1.12665,-0.55976 -2.252094,-1.13869 -3.37034,-1.715 l -0.536868,-1.08865 -1.028998,-0.23861 -0.551781,-1.47638 -1.371996,0.14913 -1.163215,-0.85004 -1.23778,1.08864 v 0.16405 c -0.373849,-0.10811 -0.830336,-0.12302 -1.163214,-0.32809 l -0.283347,-0.77548 v -0.85003 l -0.820216,0.0746 c 0.06873,-0.545 0.139583,-1.08061 0.208783,-1.62552 h -0.49213 l -0.477216,0.61144 -0.477216,0.2386 -0.685999,-0.38773 -0.07456,-0.86496 0.149129,-0.9246 1.028998,-0.77548 h 0.820215 l 0.134218,-0.47722 1.028997,0.23861 0.760563,0.93952 0.134217,-1.56586 1.297432,-1.08865 0.492129,-1.16322 0.954433,-0.38774 0.551781,-0.77547 1.237779,-0.23861 0.611434,-0.93952 c -0.617702,0 -1.231511,0 -1.849213,0 l 1.163214,-0.53687 h 0.820216 l 1.163214,-0.38774 0.14913,-0.47721 -0.417564,-0.38774 -0.477216,-0.14913 0.134217,-0.4623 -0.342999,-0.70091 -0.820216,0.29826 0.134217,-0.61144 -0.954432,-0.55178 -0.760563,1.32726 0.07456,0.4623 -0.760563,0.31317 -0.477217,1.01409 -0.208782,-0.93952 -1.297432,-0.53687 -0.208782,-0.70091 1.714996,-1.01408 0.74565,-0.70092 0.07456,-0.85004 -0.417564,-0.2386 -0.07456,-0.0149 z m 11.945318,0.95443 -0.536868,0.29826 -0.283348,-0.0746 -0.05965,0.47721 0.477217,0.29826 0.820215,-0.53687 -0.417564,-0.4623 z m -9.052195,0.14913 -0.551782,0.38774 0.685999,0.4623 h 0.551781 v -0.53687 z m 10.841755,1.78956 v 0.4623 l 0.283348,0.31318 v 0.70091 l -0.14913,0.93952 0.760563,-0.16405 0.551781,-0.53686 -0.477216,-0.46231 c -0.161341,-0.43051 -0.349846,-0.83987 -0.551781,-1.25274 H 71.62386 Z m -0.268433,0.93952 -0.49213,0.14913 0.14913,0.85004 0.611433,-0.29826 z m -9.469759,1.40182 0.193868,1.08865 0.417565,-0.62634 z"
       inkscape:connector-curvature="0"
       id="path4144"
       style="display:inline;fill:url(#radialGradient3146);fill-opacity:1;fill-rule:nonzero;stroke-miterlimit:4" />
    <g
       id="g4106"
       style="display:inline">
      <path
         d="m 68,56 c -9.941125,0 -18,8.058875 -18,18 0,3.6617 1.09067,7.063961 2.96875,9.90625 C 51.722125,81.541769 51,78.858787 51,76 c 0,-9.388841 7.611159,-17 17,-17 9.388841,0 17,7.611159 17,17 0,2.858787 -0.722125,5.541769 -1.96875,7.90625 C 84.90933,81.063961 86,77.6617 86,74 86,64.058875 77.941125,56 68,56 Z"
         inkscape:connector-curvature="0"
         id="path3846"
         style="opacity:0.3;fill:url(#linearGradient3857-6);fill-opacity:1;stroke:none" />
      <path
         d="m 68,56 c -9.94112,0 -18,8.05887 -18,18 0,0.168593 0.02664,0.33252 0.03125,0.5 C 50.298212,64.79197 58.227473,57 68,57 c 9.73052,0 17.63723,7.725255 17.96875,17.375 v -1 C 85.63723,63.725255 77.73052,56 68,56 Z"
         inkscape:connector-curvature="0"
         id="path4097"
         style="display:inline;opacity:0.3;fill:#ffffff;fill-opacity:1;stroke:none" />
    </g>
  </g>
  <g
     id="g911"
     transform="translate(-1.1117723,-1.1563415)">
    <g
       style="stroke:#003ac8;stroke-width:0.65907109;stroke-miterlimit:4;stroke-dasharray:none;stroke-opacity:0.62745098"
       transform="matrix(2.9913804,0,0,3.0783914,-0.23422319,-863.06217)"
       id="g20">
      <rect
         style="opacity:1;fill:none;fill-opacity:1;stroke:#003ac8;stroke-width:0.65907109;stroke-miterlimit:4;stroke-dasharray:none;stroke-opacity:0.62745098;paint-order:stroke markers fill"
         id="rect822"
         width="12.712687"
         height="12.33472"
         x="2.1166666"
         y="282.36597"
         ry="0.49338052" />
    </g>
    <g
       id="g876"
       transform="matrix(2.9913804,0,0,2.8731653,-0.23422319,-803.84761)"
       style="stroke:none;stroke-width:0.68220341;stroke-miterlimit:4;stroke-dasharray:none;stroke-opacity:0.62745098">
      <rect
         ry="0.52902436"
         y="281.92041"
         x="2.1214268"
         height="13.225831"
         width="12.703166"
         id="rect870"
         style="opacity:1;fill:#7cb2ff;fill-opacity:1;stroke:none;stroke-width:0.68220341;stroke-miterlimit:4;stroke-dasharray:none;stroke-opacity:0.62745098;paint-order:stroke markers fill" />
      <path
         transform="matrix(0.26458333,0,0,0.26458333,0,280.06667)"
         id="path872"
         d="M 10,7 C 8.8920186,7 8,7.8920186 8,9 V 28.068359 A 35.000002,35.000002 0 0 0 40,49 35.000002,35.000002 0 0 0 56,45.119141 V 9 C 56,7.8920186 55.107981,7 54,7 Z"
         style="opacity:0.1;fill:#0000ff;fill-opacity:1;stroke:none;stroke-width:2.57840633;stroke-miterlimit:4;stroke-dasharray:none;stroke-opacity:0.62745098;paint-order:stroke markers fill"
         inkscape:connector-curvature="0" />
    </g>
    <path
       id="path824"
       d="m 15.56611,11.562841 a 9.3932641,9.3979793 0 0 0 9.393263,9.39798 9.3932641,9.3979793 0 0 0 9.393265,-9.39798 h -2.348316 a 7.0449486,7.048485 0 0 1 -7.044949,7.048485 7.0449486,7.048485 0 0 1 -7.044947,-7.048485 z"
       style="opacity:1;fill:#ffffff;fill-opacity:1;stroke:none;stroke-width:2.77531552;stroke-miterlimit:4;stroke-dasharray:none;stroke-opacity:0.03821656;paint-order:stroke markers fill"
       inkscape:connector-curvature="0" />
  </g>
  <path
     style="color:#000000;display:inline;overflow:visible;visibility:visible;fill:#ffffff;fill-opacity:1;fill-rule:nonzero;stroke:#2f5271;stroke-width:1;stroke-miterlimit:4;stroke-dasharray:none;stroke-opacity:0.32173917;marker:none;enable-background:accumulate"
     d="m 37,28 c -4.96589,0 -9,4.03411 -9,9 0,4.965889 4.03411,9.000002 9,9 4.965885,0 9.000004,-4.034111 9,-9 0,-4.96589 -4.034115,-9 -9,-9 z m 0,7 c 1.10353,0 2,0.896468 2,2 2e-6,1.10353 -0.89647,2 -2,2 -1.103532,0 -2,-0.89647 -2,-2 0,-1.103532 0.896468,-2 2,-2 z"
     id="path2555-03"
     inkscape:connector-curvature="0"
     sodipodi:nodetypes="sssssscsss" />
  <path
     style="opacity:0.5;fill:#375389;fill-opacity:1;fill-rule:evenodd;stroke:none;stroke-width:2;stroke-linecap:square;stroke-linejoin:miter;stroke-miterlimit:4;stroke-dasharray:none;stroke-opacity:1;paint-order:fill markers stroke"
     d="M 37 32 A 5 5 0 0 0 32 37 A 5 5 0 0 0 37 42 A 5 5 0 0 0 42 37 A 5 5 0 0 0 37 32 z M 37 35 A 2 2 0 0 1 39 37 A 2 2 0 0 1 37 39 A 2 2 0 0 1 35 37 A 2 2 0 0 1 37 35 z "
     id="path873" />
</svg>
