<?xml version="1.0" encoding="UTF-8" standalone="no"?>
<!-- Created with Inkscape (http://www.inkscape.org/) -->

<svg
   xmlns:dc="http://purl.org/dc/elements/1.1/"
   xmlns:cc="http://creativecommons.org/ns#"
   xmlns:rdf="http://www.w3.org/1999/02/22-rdf-syntax-ns#"
   xmlns:svg="http://www.w3.org/2000/svg"
   xmlns="http://www.w3.org/2000/svg"
   xmlns:xlink="http://www.w3.org/1999/xlink"
   xmlns:sodipodi="http://sodipodi.sourceforge.net/DTD/sodipodi-0.dtd"
   xmlns:inkscape="http://www.inkscape.org/namespaces/inkscape"
   version="1.0"
   width="48"
   height="48"
   id="svg4030"
   inkscape:version="0.92.4 (5da689c313, 2019-01-14)"
   sodipodi:docname="software-properties.svg">
  <metadata
     id="metadata98139">
    <rdf:RDF>
      <cc:Work
         rdf:about="">
        <dc:format>image/svg+xml</dc:format>
        <dc:type
           rdf:resource="http://purl.org/dc/dcmitype/StillImage" />
        <dc:title></dc:title>
      </cc:Work>
    </rdf:RDF>
  </metadata>
  <sodipodi:namedview
     pagecolor="#ffffff"
     bordercolor="#666666"
     borderopacity="1"
     objecttolerance="10"
     gridtolerance="10"
     guidetolerance="10"
     inkscape:pageopacity="0"
     inkscape:pageshadow="2"
     inkscape:window-width="1366"
     inkscape:window-height="697"
     id="namedview98137"
     showgrid="true"
     inkscape:zoom="5.2149125"
     inkscape:cx="12.001669"
     inkscape:cy="25.846026"
     inkscape:window-x="0"
     inkscape:window-y="0"
     inkscape:window-maximized="1"
     inkscape:current-layer="svg4030">
    <inkscape:grid
       type="xygrid"
       id="grid913" />
  </sodipodi:namedview>
  <defs
     id="defs4032">
    <radialGradient
       cx="5"
       cy="41.5"
       r="5"
       fx="5"
       fy="41.5"
       id="radialGradient3944"
       xlink:href="#linearGradient3681"
       gradientUnits="userSpaceOnUse"
       gradientTransform="matrix(0.5938225,0,0,1.5366531,41.140892,-103.93618)" />
    <linearGradient
       id="linearGradient3703">
      <stop
         id="stop3705"
         style="stop-color:#000000;stop-opacity:0"
         offset="0" />
      <stop
         id="stop3711"
         style="stop-color:#000000;stop-opacity:1"
         offset="0.5" />
      <stop
         id="stop3707"
         style="stop-color:#000000;stop-opacity:0"
         offset="1" />
    </linearGradient>
    <linearGradient
       x1="17.554192"
       y1="46.000275"
       x2="17.554192"
       y2="34.999718"
       id="linearGradient3942"
       xlink:href="#linearGradient3703"
       gradientUnits="userSpaceOnUse"
       gradientTransform="matrix(1.7570316,0,0,1.3969574,-17.394014,-16.411698)" />
    <linearGradient
       id="linearGradient3681">
      <stop
         id="stop3683"
         style="stop-color:#000000;stop-opacity:1"
         offset="0" />
      <stop
         id="stop3685"
         style="stop-color:#000000;stop-opacity:0"
         offset="1" />
    </linearGradient>
    <radialGradient
       cx="5"
       cy="41.5"
       r="5"
       fx="5"
       fy="41.5"
       id="radialGradient3940"
       xlink:href="#linearGradient3681"
       gradientUnits="userSpaceOnUse"
       gradientTransform="matrix(0.5938225,0,0,1.5366531,-6.6594735,-103.93618)" />
    <linearGradient
       id="linearGradient3295">
      <stop
         id="stop3297"
         style="stop-color:#c9af8b;stop-opacity:1"
         offset="0" />
      <stop
         id="stop3299"
         style="stop-color:#ad8757;stop-opacity:1"
         offset="0.23942046" />
      <stop
         id="stop3301"
         style="stop-color:#c2a57f;stop-opacity:1"
         offset="0.27582464" />
      <stop
         id="stop3303"
         style="stop-color:#9d7d53;stop-opacity:1"
         offset="1" />
    </linearGradient>
    <linearGradient
       x1="15.464298"
       y1="7.9756851"
       x2="15.464298"
       y2="45.04248"
       id="linearGradient3974"
       xlink:href="#linearGradient3295"
       gradientUnits="userSpaceOnUse"
       gradientTransform="matrix(1.3414025,0,0,1.3287417,-0.1936585,0.370193)" />
    <linearGradient
       id="linearGradient3199">
      <stop
         id="stop3201"
         style="stop-color:#dac197;stop-opacity:1"
         offset="0" />
      <stop
         id="stop3203"
         style="stop-color:#c1a581;stop-opacity:1"
         offset="0.23942046" />
      <stop
         id="stop3205"
         style="stop-color:#dac197;stop-opacity:1"
         offset="0.27582464" />
      <stop
         id="stop3207"
         style="stop-color:#a68b60;stop-opacity:1"
         offset="1" />
    </linearGradient>
    <linearGradient
       x1="24.822832"
       y1="15.377745"
       x2="24.996943"
       y2="37.27668"
       id="linearGradient3972"
       xlink:href="#linearGradient3199"
       gradientUnits="userSpaceOnUse"
       gradientTransform="matrix(1.7199799,0,0,2.0691988,-8.336229,-19.947272)" />
    <linearGradient
       id="linearGradient3219">
      <stop
         id="stop3225"
         style="stop-color:#cbad7a;stop-opacity:1"
         offset="0" />
      <stop
         id="stop3227"
         style="stop-color:#cbae7d;stop-opacity:0"
         offset="1" />
    </linearGradient>
    <radialGradient
       cx="24"
       cy="31"
       r="20"
       fx="24"
       fy="31"
       id="radialGradient3969"
       xlink:href="#linearGradient3219"
       gradientUnits="userSpaceOnUse"
       gradientTransform="matrix(2.2339043,0,0,0.875,-21.613703,14.374997)" />
    <linearGradient
       id="linearGradient4559">
      <stop
         id="stop4561"
         style="stop-color:#ffffff;stop-opacity:0"
         offset="0" />
      <stop
         id="stop4563"
         style="stop-color:#ffffff;stop-opacity:0"
         offset="1" />
    </linearGradient>
    <linearGradient
       x1="23.451576"
       y1="30.554907"
       x2="43.00663"
       y2="45.934479"
       id="linearGradient3966"
       xlink:href="#linearGradient4559"
       gradientUnits="userSpaceOnUse"
       gradientTransform="matrix(1.7199799,0,0,1.5608559,-8.336229,-6.6763471)" />
    <linearGradient
       id="linearGradient3275">
      <stop
         id="stop3277"
         style="stop-color:#ffffff;stop-opacity:0"
         offset="0" />
      <stop
         id="stop3283"
         style="stop-color:#ffffff;stop-opacity:1"
         offset="0.16682135" />
      <stop
         id="stop3285"
         style="stop-color:#ffffff;stop-opacity:1"
         offset="0.83237511" />
      <stop
         id="stop3279"
         style="stop-color:#ffffff;stop-opacity:0"
         offset="1" />
    </linearGradient>
    <linearGradient
       x1="44.994774"
       y1="17.5"
       x2="3.0052247"
       y2="17.5"
       id="linearGradient3960"
       xlink:href="#linearGradient3275"
       gradientUnits="userSpaceOnUse"
       gradientTransform="matrix(1.3417982,0,0,1.3287417,-0.2031568,0.247021)"
       spreadMethod="reflect" />
    <linearGradient
       id="linearGradient3980">
      <stop
         id="stop3982"
         style="stop-color:#ffffff;stop-opacity:1"
         offset="0" />
      <stop
         id="stop3984"
         style="stop-color:#ffffff;stop-opacity:1"
         offset="0.32468599" />
      <stop
         id="stop3986"
         style="stop-color:#ffffff;stop-opacity:0.6901961"
         offset="0.3736864" />
      <stop
         id="stop3988"
         style="stop-color:#ffffff;stop-opacity:0"
         offset="1" />
    </linearGradient>
    <linearGradient
       x1="26"
       y1="22"
       x2="26"
       y2="8"
       id="linearGradient3963"
       xlink:href="#linearGradient3980"
       gradientUnits="userSpaceOnUse"
       gradientTransform="matrix(1.4999999,0,0,1.3571429,-3.9999994,0.1428574)" />
    <radialGradient
       collect="always"
       xlink:href="#linearGradient8647"
       id="radialGradient5565"
       gradientUnits="userSpaceOnUse"
       gradientTransform="matrix(1.6396161,0,0,1.349992,13.560846,18.4751)"
       cx="12.465816"
       cy="5.3052077"
       fx="12.465816"
       fy="5.3052077"
       r="10.499999" />
    <linearGradient
       id="linearGradient8647">
      <stop
         style="stop-color:#8fb1dc;stop-opacity:1;"
         offset="0"
         id="stop8649" />
      <stop
         style="stop-color:#3465a4;stop-opacity:1;"
         offset="1"
         id="stop8651" />
    </linearGradient>
    <radialGradient
       collect="always"
       xlink:href="#linearGradient8924"
       id="radialGradient5562"
       gradientUnits="userSpaceOnUse"
       gradientTransform="matrix(0.05079629,1.8806334,-1.3065264,0.03722342,56.991846,-19.739002)"
       cx="24.652573"
       cy="18.94449"
       fx="24.652485"
       fy="18.944481"
       r="8.6174498" />
    <linearGradient
       id="linearGradient8924">
      <stop
         id="stop8926"
         offset="0"
         style="stop-color:#cee14b" />
      <stop
         id="stop8928"
         offset="1"
         style="stop-color:#9db029" />
    </linearGradient>
    <linearGradient
       collect="always"
       xlink:href="#linearGradient4873"
       id="linearGradient5559"
       gradientUnits="userSpaceOnUse"
       gradientTransform="matrix(1.4292867,0,0,1.429254,-54.902217,39.017879)"
       x1="63.397362"
       y1="-12.742159"
       x2="59.919094"
       y2="-1.9899801" />
    <linearGradient
       id="linearGradient4873"
       collect="always">
      <stop
         id="stop4875"
         offset="0"
         style="stop-color:#ffffff;stop-opacity:1;" />
      <stop
         id="stop4877"
         offset="1"
         style="stop-color:#ffffff;stop-opacity:0;" />
    </linearGradient>
  </defs>
  <g
     id="g911"
     transform="translate(-1.1117723,-1.1563413)">
    <g
       style="stroke:#003ac8;stroke-width:0.65907109;stroke-miterlimit:4;stroke-dasharray:none;stroke-opacity:0.62745098"
       transform="matrix(2.9913804,0,0,3.0783914,-0.23422319,-863.06217)"
       id="g20">
      <rect
         style="opacity:1;fill:none;fill-opacity:1;stroke:#003ac8;stroke-width:0.65907109;stroke-miterlimit:4;stroke-dasharray:none;stroke-opacity:0.62745098;paint-order:stroke markers fill"
         id="rect822"
         width="12.712687"
         height="12.33472"
         x="2.1166666"
         y="282.36597"
         ry="0.49338052" />
    </g>
    <g
       id="g876"
       transform="matrix(2.9913804,0,0,2.8731653,-0.23422319,-803.84761)"
       style="stroke:none;stroke-width:0.68220341;stroke-miterlimit:4;stroke-dasharray:none;stroke-opacity:0.62745098">
      <rect
         ry="0.52902436"
         y="281.92041"
         x="2.1214268"
         height="13.225831"
         width="12.703166"
         id="rect870"
         style="opacity:1;fill:#7cb2ff;fill-opacity:1;stroke:none;stroke-width:0.68220341;stroke-miterlimit:4;stroke-dasharray:none;stroke-opacity:0.62745098;paint-order:stroke markers fill" />
      <path
         transform="matrix(0.26458333,0,0,0.26458333,0,280.06667)"
         id="path872"
         d="M 10,7 C 8.8920186,7 8,7.8920186 8,9 V 28.068359 A 35.000002,35.000002 0 0 0 40,49 35.000002,35.000002 0 0 0 56,45.119141 V 9 C 56,7.8920186 55.107981,7 54,7 Z"
         style="opacity:0.1;fill:#0000ff;fill-opacity:1;stroke:none;stroke-width:2.57840633;stroke-miterlimit:4;stroke-dasharray:none;stroke-opacity:0.62745098;paint-order:stroke markers fill"
         inkscape:connector-curvature="0" />
    </g>
    <path
       id="path824"
       d="m 15.56611,11.562841 a 9.3932641,9.3979793 0 0 0 9.393263,9.39798 9.3932641,9.3979793 0 0 0 9.393265,-9.39798 h -2.348316 a 7.0449486,7.048485 0 0 1 -7.044949,7.048485 7.0449486,7.048485 0 0 1 -7.044947,-7.048485 z"
       style="opacity:1;fill:#ffffff;fill-opacity:1;stroke:none;stroke-width:2.77531552;stroke-miterlimit:4;stroke-dasharray:none;stroke-opacity:0.03821656;paint-order:stroke markers fill"
       inkscape:connector-curvature="0" />
  </g>
  <path
     inkscape:connector-curvature="0"
     style="color:#000000;display:inline;overflow:visible;visibility:visible;fill:#ffffff;fill-opacity:1;fill-rule:nonzero;stroke:#2f5271;stroke-width:1;marker:none;enable-background:accumulate;stroke-opacity:0.32173917;stroke-miterlimit:4;stroke-dasharray:none"
     id="path2555-03"
     d="m 37,28 c -4.96589,0 -9,4.03411 -9,9 0,4.965889 4.03411,9.000002 9,9 4.965885,0 8.999999,-4.034111 8.999995,-9 0,-4.96589 -4.03411,-9 -8.999995,-9 z" />
  <path
     style="color:#000000;display:inline;overflow:visible;visibility:visible;fill:#819ab1;fill-opacity:1;fill-rule:nonzero;stroke:none;stroke-width:1;marker:none;enable-background:accumulate"
     id="rect3557"
     d="m 36.499998,31 c -0.277,0 -0.5,0.222999 -0.5,0.5 v 1.125 c -0.502703,0.114469 -0.967436,0.310809 -1.390625,0.578125 L 33.812498,32.40625 c -0.195868,-0.195869 -0.507256,-0.195869 -0.703125,0 l -0.703125,0.703125 c -0.195868,0.195868 -0.195868,0.507256 0,0.703125 l 0.796875,0.796875 C 32.935807,35.032564 32.739468,35.497297 32.624998,36 h -1.125 c -0.277,0 -0.5,0.223 -0.5,0.499999 V 37.5 c 0,0.277 0.223,0.499999 0.5,0.499999 h 1.125 c 0.11447,0.502704 0.310809,0.967437 0.578125,1.390626 L 32.406248,40.1875 c -0.195868,0.195868 -0.195868,0.507255 0,0.703125 l 0.703125,0.703125 c 0.195869,0.195868 0.507256,0.195869 0.703125,0 l 0.796875,-0.796875 c 0.423189,0.267316 0.887922,0.463655 1.390625,0.578124 v 1.125 c 0,0.277001 0.223,0.500001 0.5,0.500001 h 1 c 0.277,0 0.5,-0.223 0.5,-0.500001 v -1.125 c 0.502703,-0.114469 0.967436,-0.310808 1.390625,-0.578124 l 0.796875,0.796875 c 0.195869,0.195868 0.507256,0.195867 0.703125,0 l 0.703125,-0.703125 c 0.195869,-0.195869 0.195869,-0.507258 0,-0.703125 l -0.796875,-0.796875 c 0.267316,-0.423189 0.463655,-0.887922 0.578125,-1.390626 h 1.125 c 0.277,0 0.5,-0.222999 0.5,-0.499999 V 36.499999 C 42.999998,36.223 42.776998,36 42.499998,36 h -1.125 c -0.11447,-0.502703 -0.310809,-0.967436 -0.578125,-1.390625 L 41.593748,33.8125 c 0.195869,-0.195869 0.195868,-0.507256 0,-0.703125 L 40.890623,32.40625 c -0.195868,-0.195869 -0.507257,-0.195869 -0.703125,0 l -0.796875,0.796875 C 38.967434,32.935809 38.502701,32.739469 37.999998,32.625 V 31.5 c 0,-0.277001 -0.223,-0.5 -0.5,-0.5 z m 0.5,3.999999 c 1.104,0 2,0.896001 2,2.000001 0,1.104 -0.896,2 -2,2 -1.103999,0 -2,-0.896 -2,-2 1e-6,-1.103999 0.896,-2 2,-2.000001 z"
     inkscape:connector-curvature="0" />
</svg>
