<?xml version="1.0" encoding="UTF-8" standalone="no"?>
<svg
   xmlns:dc="http://purl.org/dc/elements/1.1/"
   xmlns:cc="http://creativecommons.org/ns#"
   xmlns:rdf="http://www.w3.org/1999/02/22-rdf-syntax-ns#"
   xmlns:svg="http://www.w3.org/2000/svg"
   xmlns="http://www.w3.org/2000/svg"
   xmlns:sodipodi="http://sodipodi.sourceforge.net/DTD/sodipodi-0.dtd"
   xmlns:inkscape="http://www.inkscape.org/namespaces/inkscape"
   version="1.0"
   width="48"
   height="48"
   id="svg11300"
   sodipodi:docname="system-users.svg"
   inkscape:version="0.92.4 (5da689c313, 2019-01-14)">
  <sodipodi:namedview
     pagecolor="#ffffff"
     bordercolor="#666666"
     borderopacity="1"
     objecttolerance="10"
     gridtolerance="10"
     guidetolerance="10"
     inkscape:pageopacity="0"
     inkscape:pageshadow="2"
     inkscape:window-width="1366"
     inkscape:window-height="697"
     id="namedview54"
     showgrid="false"
     inkscape:zoom="2.4583333"
     inkscape:cx="13.146863"
     inkscape:cy="9.2417492"
     inkscape:window-x="0"
     inkscape:window-y="0"
     inkscape:window-maximized="1"
     inkscape:current-layer="svg11300" />
  <metadata
     id="metadata55">
    <rdf:RDF>
      <cc:Work
         rdf:about="">
        <dc:format>image/svg+xml</dc:format>
        <dc:type
           rdf:resource="http://purl.org/dc/dcmitype/StillImage" />
      </cc:Work>
    </rdf:RDF>
  </metadata>
  <defs
     id="defs3" />
  <g
     id="g4747"
     transform="translate(0,-1)">
    <path
       inkscape:connector-curvature="0"
       id="path3766-9-9"
       d="m 14.49609,10 c -2.50141,0 -4.5,1.935051 -4.5,4.310547 0.02123,0.954724 0.10292,2.080103 0.64844,4.666015 0.0475,0.136076 0.41559,0.695465 0.85937,1.246094 l 0.07618,0.09375 0.02343,0.119141 c 0.31582,1.51594 0.49103,2.813511 0.20704,4.435547 l -0.03321,0.183593 -0.14453,0.119141 C 10.36746,26.202215 8.33579,26.845925 6.625,27.513672 5.7696,27.847545 4.99762,28.182163 4.48047,28.517578 3.96332,28.852993 3.77048,29.132736 3.77148,29.355469 l 0.002,0.03516 L 3,35.076172 c 0.0017,0.235572 0.18328,0.554675 0.7207,0.916016 0.53996,0.36304 1.38289,0.722468 2.44141,1.023437 C 8.27915,37.617564 11.25818,38 14.54883,38 c 3.29064,0 6.27112,-0.382424 8.38867,-0.984375 1.05877,-0.300974 1.90321,-0.66038 2.44336,-1.023437 0.53817,-0.361734 0.72165,-0.680459 0.72265,-0.916016 l -0.77343,-5.683594 v -0.0332 C 25.32977,29.304328 25.30819,29.22867 25.19531,29.099609 25.08244,28.970549 24.88228,28.812572 24.61719,28.650391 24.087,28.326028 23.30391,27.986858 22.4414,27.638672 20.71641,26.9423 18.6807,26.228324 17.43359,25.166016 l -0.14648,-0.126954 -0.02539,-0.191406 c -0.18881,-1.521625 -0.04741,-2.993194 0.25195,-4.474609 l 0.02149,-0.105469 0.0625,-0.08789 C 17.97812,19.65492 18.2907,19.137511 18.3457,18.976563 18.96014,16.28685 18.96024,15.337389 18.99414,14.304688 18.99054,11.93211 16.99526,10.000001 14.49609,10 Z"
       style="opacity:0.6;fill:#f8f8f8;fill-opacity:1;stroke:none;stroke-width:1;stroke-miterlimit:4;stroke-dasharray:none;stroke-opacity:1" />
    <g
       id="g4280">
      <g
         id="g4271">
        <path
           id="path3766-9"
           d="m 14.5,9.5 c -2.761438,0 -5,2.154149 -5,4.810547 0.021642,0.983079 0.102393,2.149701 0.666016,4.808594 0.105166,0.325174 0.497856,0.853085 0.953125,1.417968 0.311918,1.497261 0.473665,2.702879 0.203125,4.248047 -2.263873,1.839906 -8.0536008,2.667504 -8.0449222,4.572266 L 2.5,35.072266 C 2.5,36.965813 7.8965873,38.5 14.554688,38.5 c 6.6581,0 12.05664,-1.534187 12.05664,-3.427734 l -0.777344,-5.714844 c -0.0092,-1.63022 -5.8342,-2.667504 -8.070312,-4.572266 -0.180269,-1.4528 -0.04847,-2.864353 0.24414,-4.3125 0.391271,-0.539662 0.725,-1.040691 0.826172,-1.353515 C 19.468237,16.355758 19.465981,15.341224 19.5,14.310547 19.5,11.654149 17.26144,9.5 14.5,9.5 Z"
           style="opacity:0.6;fill:none;fill-opacity:1;stroke:#2e3544;stroke-width:1;stroke-miterlimit:4;stroke-dasharray:none;stroke-opacity:0.30363045"
           inkscape:connector-curvature="0" />
      </g>
      <g
         id="g3912">
        <path
           id="path3766"
           d="m 30,5.5 c -4.142136,0 -7.5,3.134007 -7.5,7 0.03246,1.430727 0.154571,3.130379 1,7 0.226961,0.680882 1.286291,1.87936 2.361328,3.029297 C 26.046563,23.824589 26.092856,25.047615 25.84375,26.5 22.933057,28.914876 15.488842,30 15.5,32.5 l -1,7.5 c 0,2.485281 6.939586,4.5 15.5,4.5 8.560414,0 15.5,-2.014719 15.5,-4.5 l -1,-7.5 C 44.48813,30.360337 37,29 34.125,26.5 33.9726,25.246203 34.003835,24.015264 34.140625,22.779297 35.178475,21.555507 36.256392,20.230824 36.5,19.5 c 0.951375,-4.021691 0.948972,-5.5 1,-7 0,-3.865993 -3.357864,-7 -7.5,-7 z"
           style="fill:none;fill-opacity:1;stroke:#2e3544;stroke-width:1;stroke-miterlimit:4;stroke-dasharray:none;stroke-opacity:0.30363045"
           inkscape:connector-curvature="0" />
      </g>
    </g>
    <path
       inkscape:connector-curvature="0"
       id="path3766-6"
       d="m 30.000002,6 c -3.888338,0 -6.995502,2.9216211 -6.998047,6.496094 0.03199,1.402196 0.153284,3.058792 0.980469,6.857422 0.07133,0.205746 0.360111,0.663897 0.769531,1.169922 0.413539,0.511114 0.940317,1.092545 1.474609,1.664062 l 0.107422,0.115234 0.02148,0.15625 c 0.189827,1.327399 0.239227,2.616348 -0.01953,4.125 l -0.03125,0.183594 -0.142579,0.117188 c -1.58823,1.317685 -4.19566,2.168709 -6.40039,3.046875 -1.102365,0.439083 -2.101318,0.880669 -2.783203,1.332031 -0.681882,0.451362 -0.980212,0.857669 -0.978512,1.234375 v 0.0332 l -0.996094,7.474609 c 0.0024,0.387598 0.286777,0.845769 0.998047,1.333985 0.714272,0.490276 1.807958,0.963651 3.177735,1.361328 2.739551,0.795354 6.57933,1.298828 10.820312,1.298828 4.24098,0 8.080771,-0.503471 10.82031,-1.298828 1.36978,-0.397677 2.46346,-0.871052 3.17774,-1.361328 0.71127,-0.488216 0.99604,-0.946387 0.99804,-1.333985 l -0.99609,-7.4707 v -0.0332 c -6.8e-4,-0.121793 -0.05031,-0.257844 -0.21094,-0.445312 -0.16062,-0.187469 -0.42725,-0.403689 -0.77539,-0.621094 -0.69628,-0.434811 -1.70796,-0.880359 -2.81836,-1.337891 -2.220798,-0.915062 -4.832623,-1.859127 -6.398435,-3.220703 l -0.144531,-0.125 -0.02344,-0.191406 c -0.158112,-1.300834 -0.12421,-2.572175 0.01563,-3.835938 l 0.01563,-0.152343 0.09961,-0.117188 c 0.516585,-0.609149 1.039216,-1.23921 1.457023,-1.798831 0.415174,-0.556095 0.719871,-1.063269 0.802734,-1.306641 0.931129,-3.947458 0.929709,-5.352552 0.980469,-6.853515 C 36.997702,8.9214253 33.888502,6 30.000002,6 Z"
       style="fill:#f8f8f8;fill-opacity:1;stroke:none;stroke-width:1;stroke-miterlimit:4;stroke-dasharray:none;stroke-opacity:1" />
  </g>
</svg>
