<?xml version="1.0" encoding="UTF-8" standalone="no"?>
<svg
   xmlns:dc="http://purl.org/dc/elements/1.1/"
   xmlns:cc="http://creativecommons.org/ns#"
   xmlns:rdf="http://www.w3.org/1999/02/22-rdf-syntax-ns#"
   xmlns:svg="http://www.w3.org/2000/svg"
   xmlns="http://www.w3.org/2000/svg"
   xmlns:sodipodi="http://sodipodi.sourceforge.net/DTD/sodipodi-0.dtd"
   xmlns:inkscape="http://www.inkscape.org/namespaces/inkscape"
   version="1.1"
   width="48"
   height="48"
   id="svg6649"
   sodipodi:docname="system-software-update.svg"
   inkscape:version="0.92.4 (5da689c313, 2019-01-14)">
  <sodipodi:namedview
     pagecolor="#ffffff"
     bordercolor="#666666"
     borderopacity="1"
     objecttolerance="10"
     gridtolerance="10"
     guidetolerance="10"
     inkscape:pageopacity="0"
     inkscape:pageshadow="2"
     inkscape:window-width="1366"
     inkscape:window-height="697"
     id="namedview42"
     showgrid="false"
     inkscape:zoom="19.666667"
     inkscape:cx="32.759709"
     inkscape:cy="35.370165"
     inkscape:window-x="0"
     inkscape:window-y="0"
     inkscape:window-maximized="1"
     inkscape:current-layer="svg6649" />
  <defs
     id="defs6651" />
  <metadata
     id="metadata6654">
    <rdf:RDF>
      <cc:Work
         rdf:about="">
        <dc:format>image/svg+xml</dc:format>
        <dc:type
           rdf:resource="http://purl.org/dc/dcmitype/StillImage" />
        <dc:title />
      </cc:Work>
    </rdf:RDF>
  </metadata>
  <rect
     style="color:#000000;display:inline;overflow:visible;visibility:visible;opacity:1;fill:#fc9448;fill-opacity:1;fill-rule:nonzero;stroke:none;stroke-width:0.99999994;marker:none;enable-background:accumulate"
     id="rect5505-21"
     y="5.4999948"
     x="4.5000124"
     ry="2"
     rx="2"
     height="39"
     width="39" />
  <rect
     style="color:#000000;display:inline;overflow:visible;visibility:visible;opacity:0.35;fill:none;stroke:#a62100;stroke-width:1;stroke-linecap:round;stroke-linejoin:round;stroke-miterlimit:4;stroke-dasharray:none;stroke-dashoffset:0;stroke-opacity:1;marker:none;enable-background:accumulate"
     id="rect5505-21-3-2"
     y="5.4999948"
     x="4.5000124"
     ry="2"
     rx="2"
     height="39"
     width="39" />
  <path
     style="color:#000000;display:inline;overflow:visible;visibility:visible;opacity:1;fill:#fff6e9;fill-opacity:1;fill-rule:nonzero;stroke:none;stroke-width:1;marker:none;enable-background:accumulate"
     id="path4285"
     d="m 24,13.000246 c -5.585313,0 -10.25564,3.833062 -11.59375,9 H 15.375 c 1.239513,-3.568632 4.635663,-6.125 8.625,-6.125 2.774543,0 5.262777,1.233895 6.9375,3.1875 L 27,23.000246 h 9 v -9 l -3.03125,3.03125 C 30.777623,14.552743 27.569507,13.000246 24,13.000246 Z m -12,15 v 9 l 3.53125,-3.53125 c 2.165168,2.179478 5.15247,3.53125 8.46875,3.53125 5.585313,0 10.25564,-3.833062 11.59375,-9 H 32.625 c -1.239513,3.568632 -4.635663,6.125 -8.625,6.125 -2.517699,0 -4.78533,-1.039255 -6.4375,-2.6875 L 21,28.000246 Z" />
</svg>
