<svg width="22" height="22" version="1.1" xmlns="http://www.w3.org/2000/svg">
 <defs>
  <style id="current-color-scheme" type="text/css"/>
 </defs>
 <path d="m14.164 0c-2.0802-9.6975e-5 -4.0743 0.82987-5.541 2.3047-2.4217 2.4132-2.8674 6.0675-1.3496 9.0547l-6.6562 6.0898c-0.63096 0.57752-0.68499 1.3894-0.57031 2.0176 0.11468 0.62816 0.38132 1.1928 0.83594 1.6484h0.001953c0.45585 0.45569 1.0183 0.72312 1.6465 0.83789s1.4402 0.06271 2.0195-0.56641c6.52e-4 -6.5e-4 0.0013-0.0013 0.00195-2e-3l6.0918-6.6582c2.9881 1.5184 6.6439 1.0735 9.0586-1.3477l2e-3 -2e-3c3.0516-3.0484 3.0516-8.0238 0-11.072-1.3738-1.3812-3.2138-2.189-5.1505-2.2867-0.1514-0.01463-0.26051-0.017397-0.39056-0.017909zm0 1c1.8141 3.045e-4 3.5531 0.72363 4.832 2.0098 2.672 2.6669 2.672 6.9952 0 9.6621-2.3047 2.3118-5.9239 2.6694-8.6367 0.85352-0.03143 0.04285-0.05165 0.09035-0.08594 0.12891l-6.459 7.0547c-0.51289 0.55698-1.6869 0.23478-2.2227-0.30078-0.53575-0.53696-0.85743-1.7094-0.29883-2.2207l7.0547-6.457c0.040004-0.03571 0.088905-0.05399 0.12891-0.08399-1.8178-2.7129-1.4592-6.3328 0.85547-8.6367 1.2789-1.2861 3.018-2.0095 4.832-2.0098zm0 2.7363c-1.0894-0.00286-2.1352 0.42794-2.9062 1.1973-1.6024 1.6064-1.6024 4.2061 0 5.8125 1.607 1.6018 4.2075 1.6018 5.8145 0 1.6024-1.6064 1.6024-4.2061 0-5.8125-0.80152-0.80118-1.8581-1.1973-2.9082-1.1973zm-2e-3 1h2e-3c0.79889 0 1.5938 0.29716 2.2012 0.9043 1.2189 1.224 1.2189 3.1725 0 4.3965-1.2243 1.2205-3.1753 1.2211-4.4004 2e-3l-2e-3 -2e-3c-1.2195-1.2247-1.2189-3.1746 2e-3 -4.3984 0.58329-0.58077 1.3738-0.90482 2.1973-0.90234z" color="#000000" color-rendering="auto" dominant-baseline="auto" fill="#25282f" image-rendering="auto" opacity=".65" shape-rendering="auto" solid-color="#000000" style="font-feature-settings:normal;font-variant-alternates:normal;font-variant-caps:normal;font-variant-ligatures:normal;font-variant-numeric:normal;font-variant-position:normal;isolation:auto;mix-blend-mode:normal;shape-padding:0;text-decoration-color:#000000;text-decoration-line:none;text-decoration-style:solid;text-indent:0;text-orientation:mixed;text-transform:none;white-space:normal"/>
 <path d="m14.165 1a6.8148 6.8124 0 0 0-4.8332 2.0095 6.829 6.8267 0 0 0-0.85578 8.6362c-0.040001 0.02999-0.08858 0.04998-0.12858 0.08569l-7.0547 6.4554c-0.55861 0.51129-0.23716 1.6853 0.29859 2.2222 0.53575 0.53556 1.7116 0.8569 2.2245 0.29992l6.4576-7.0552c0.03429-0.03856 0.05429-0.08569 0.08572-0.12854a6.829 6.8267 0 0 0 8.6378-0.85404 6.829 6.8267 0 0 0 0-9.6611 6.8148 6.8124 0 0 0-4.8318-2.0095zm0 2.7363c1.0501 0 2.1058 0.39561 2.9073 1.1968a4.1174 4.116 0 0 1 0 5.8127 4.1174 4.116 0 0 1-5.8147 0 4.1174 4.116 0 0 1 0-5.8127 4.0988 4.0974 0 0 1 2.9073-1.1968z" fill="#5c657a" opacity=".65"/>
</svg>
