<svg width="22" height="22" version="1.1" xmlns="http://www.w3.org/2000/svg">
 <defs>
  <style id="current-color-scheme" type="text/css"/>
 </defs>
 <g transform="translate(-422,-618)">
  <rect x="422" y="618" width="22" height="22" fill="none" opacity=".75"/>
  <g fill="#5c657a" stroke-width="0">
   <rect x="431" y="619" width="12" height="4" opacity=".65"/>
   <ellipse cx="439.5" cy="634.5" rx="3.5" ry="2.5" opacity=".65"/>
   <ellipse cx="426.5" cy="636.5" rx="3.5" ry="2.5" opacity=".65"/>
  </g>
  <path d="m430 618v16.324c-0.82464-0.80114-2.0779-1.3242-3.5-1.3242-2.4853 0-4.5 1.567-4.5 3.5s2.0147 3.5 4.5 3.5c2.4853 0 4.5-1.567 4.5-3.5 0-7e-3 -2e-3 -0.0142-2e-3 -0.0215h2e-3v-12.479h12v8.3242c-0.82464-0.80112-2.0779-1.3242-3.5-1.3242-2.4853 0-4.5 1.567-4.5 3.5s2.0147 3.5 4.5 3.5c2.4853 0 4.5-1.567 4.5-3.5 0-0.0127-4e-3 -0.0245-4e-3 -0.0371h4e-3v-16.463h-14zm1 1h12v4h-12zm8.5 13c1.933 0 3.5 1.1193 3.5 2.5s-1.567 2.5-3.5 2.5c-1.933 0-3.5-1.1193-3.5-2.5s1.567-2.5 3.5-2.5zm-13 2c1.933 0 3.5 1.1193 3.5 2.5s-1.567 2.5-3.5 2.5c-1.933 0-3.5-1.1193-3.5-2.5s1.567-2.5 3.5-2.5z" fill="#25282f" opacity=".65" stroke-width="0"/>
 </g>
</svg>
