<svg width="16" height="16" version="1.1" xmlns="http://www.w3.org/2000/svg">
 <defs>
  <style id="current-color-scheme" type="text/css"/>
 </defs>
 <g transform="translate(-1457 -762)">
  <g id="omkj" transform="translate(1457 762)">
   <path d="M0 0h16v16H0z" fill="none"/>
  </g>
  <g transform="translate(1457 762)">
   <g>
    <path d="M2.817.5h10.367c.287 0 .43.398.518.839l.467 2.322c.089.441-.231.839-.518.839H2.35c-.288 0-.608-.398-.52-.839l.467-2.322C2.387.898 2.53.5 2.817.5z" fill="#637378" stroke="#272d2f" stroke-opacity=".78431"/>
    <path d="M13.09 1l-1.603 11.807c-.04.294-.227.537-.509.537H5.022c-.282 0-.47-.243-.51-.537L2.91 1z" opacity=".3"/>
    <path d="M14.145 4.5l-1.11 10.512c-.029.27-.23.49-.517.49H3.483c-.286 0-.489-.22-.517-.49L1.856 4.5z" fill="#637378" stroke="#272d2f" stroke-opacity=".78431"/>
   </g>
   <path d="M5.767 11.817a1.05 1.05 0 0 0-.126.434c0 .027 0 .062.007.111l-.872-1.502a.39.39 0 0 1-.049-.182c0-.063.021-.14.049-.188l.419-.734-.468-.265 1.522-.028.74 1.334-.475-.272zm.67-4.397a.681.681 0 0 1 .614-.357c.286 0 .51.133.67.405l.237.398-.824 1.59-1.332-.94zm.097 5.606a.73.73 0 0 1-.725-.727c0-.111.049-.3.118-.419l.224-.398h1.654v1.544h-1.27zM7.86 7.377A.856.856 0 0 0 7.45 7h1.716c.154 0 .272.063.342.182l.426.727.46-.273-.74 1.328-1.513-.022.467-.265zm2.645 4.119c.21 0 .384-.056.53-.168l-.865 1.51a.377.377 0 0 1-.342.188h-.816v.538l-.782-1.307.782-1.306v.545h1.493zm.67-1.258c.063.112.098.23.098.357 0 .251-.16.517-.384.642a.778.778 0 0 1-.398.091h-.46l-.824-1.425 1.333-.762z" fill="#fff"/>
  </g>
 </g>
 <path d="m19.078-37.993h64v64h-64z" fill="none"/>
</svg>
