<svg xmlns="http://www.w3.org/2000/svg" width="64" height="64"><g transform="translate(0 15.999)"><path fill="none" d="M0-16h64v64H0z"/><rect width="46" height="54" x="-7" y="-59" fill="#cad945" color="#bebebe" overflow="visible" ry="0" transform="rotate(90)"/><rect width="47" height="55" x="-7.5" y="-59.5" fill="none" stroke="#70781f" stroke-opacity=".784" color="#bebebe" overflow="visible" ry="0" transform="rotate(90)"/><path d="M32-7h1v46h-1z" opacity=".15"/></g><path fill="#0c2809" d="m40.238 28.872 3.033-3.033a1.155 1.155 0 0 0 0-1.657 1.155 1.155 0 0 0-1.656 0l-3.454 3.453a13.625 13.625 0 0 0-6.16-1.47c-2.24 0-4.34.537-6.206 1.47l-3.477-3.453a1.155 1.155 0 0 0-1.657 0 1.155 1.155 0 0 0 0 1.657l3.057 3.056c-3.453 2.544-5.716 6.627-5.716 11.27h28c0-4.643-2.264-8.75-5.764-11.293zm-13.237 6.293h-2v-2h2zm12 0h-2v-2h2z" opacity=".5"/></svg>