<svg xmlns="http://www.w3.org/2000/svg" width="64" height="64"><rect width="46" height="54" x="8.999" y="-59" fill="#f9f9f9" color="#bebebe" overflow="visible" ry="0" transform="rotate(90)"/><rect width="47" height="55" x="8.499" y="-59.5" fill="none" stroke="#000" stroke-opacity=".137" color="#bebebe" overflow="visible" ry="0" transform="rotate(90)"/><g fill="#d70751"><path d="M34.609 32.943c-.551.007.103.283.823.394.2-.155.379-.312.54-.464-.448.11-.904.112-1.363.07m2.957-.737c.329-.454.568-.95.652-1.462-.074.365-.271.68-.458 1.014-1.03.649-.098-.385-.001-.779-1.107 1.396-.153.837-.193 1.227m1.092-2.842c.067-.992-.195-.678-.283-.3.103.054.184.7.283.3M32.518 15.8c.295.052.636.092.587.163.323-.071.396-.136-.587-.164M33.105 15.963l-.207.043.193-.018.014-.025"/><path d="M42.278 29.133c.033.892-.26 1.325-.526 2.09l-.476.237c-.39.758.038.481-.241 1.084-.61.54-1.846 1.692-2.242 1.798-.29-.007.195-.342.259-.473-.815.56-.654.84-1.9 1.18l-.036-.081c-3.073 1.445-7.34-1.42-7.285-5.327-.032.248-.093.186-.16.285-.16-2.01.928-4.03 2.762-4.855 1.793-.888 3.896-.524 5.18.674-.705-.924-2.11-1.904-3.774-1.813-1.63.026-3.156 1.062-3.665 2.188-.835.525-.933 2.027-1.296 2.302-.49 3.6.92 5.154 3.308 6.984.375.253.105.291.156.484a6.475 6.475 0 0 1-2.117-1.618c.317.464.66.914 1.102 1.268-.749-.252-1.748-1.812-2.039-1.875 1.29 2.308 5.23 4.048 7.294 3.184-.956.036-2.169.02-3.241-.377-.452-.232-1.064-.711-.954-.801 2.816 1.051 5.724.796 8.16-1.157.621-.483 1.298-1.305 1.494-1.316-.295.444.05.214-.176.605.617-.996-.269-.406.638-1.72l.335.46c-.125-.827 1.027-1.83.91-3.139.265-.4.295.431.014 1.35.39-1.02.103-1.184.203-2.026.107.283.25.584.323.883-.254-.987.259-1.661.387-2.235-.127-.055-.392.436-.453-.728.01-.506.141-.265.192-.39-.099-.057-.36-.445-.518-1.19.114-.174.307.454.463.48-.1-.592-.273-1.043-.28-1.497-.458-.955-.163.128-.533-.41-.487-1.517.403-.352.464-1.041.737 1.068 1.157 2.724 1.35 3.41a13.959 13.959 0 0 0-.676-2.43c.225.094-.36-1.72.292-.52-.697-2.56-2.98-4.954-5.08-6.077.256.235.58.53.465.577-1.045-.622-.862-.671-1.011-.934-.85-.346-.907.029-1.47.001-1.604-.851-1.913-.76-3.39-1.293l.067.314c-1.062-.354-1.238.133-2.386 0-.07-.054.368-.197.729-.249-1.028.136-.98-.203-1.985.037.247-.173.51-.289.774-.436-.838.05-2 .487-1.642.09-1.366.61-3.793 1.466-5.155 2.743l-.043-.286c-.624.749-2.722 2.237-2.889 3.208l-.167.039c-.324.55-.535 1.173-.792 1.738-.425.724-.623.279-.562.392-.835 1.694-1.251 3.117-1.61 4.285.256.381.007 2.298.103 3.832-.419 7.577 5.318 14.933 11.589 16.631.919.33 2.285.318 3.448.35-1.372-.392-1.549-.207-2.885-.673-.964-.454-1.175-.973-1.858-1.565l.27.477c-1.338-.474-.778-.586-1.868-.931l.29-.377c-.435-.033-1.15-.73-1.346-1.118l-.475.019c-.57-.703-.874-1.211-.852-1.605l-.153.274c-.174-.298-2.1-2.64-1.1-2.095-.186-.169-.433-.276-.7-.762l.203-.232c-.48-.618-.884-1.411-.853-1.675.256.346.434.41.61.47-1.214-3.011-1.282-.166-2.2-3.065l.193-.015c-.148-.226-.24-.469-.36-.708l.086-.843c-.874-1.009-.244-4.295-.118-6.096.087-.733.73-1.513 1.217-2.736l-.297-.051c.569-.992 3.246-3.983 4.487-3.83.6-.754-.12-.003-.237-.192 1.32-1.366 1.735-.965 2.626-1.211.96-.57-.825.223-.37-.217 1.661-.424 1.177-.964 3.343-1.18.229.13-.53.201-.72.37 1.383-.677 4.377-.523 6.323.375 2.256 1.055 4.793 4.173 4.893 7.106l.114.03c-.058 1.167.178 2.516-.231 3.754l.277-.586"/><path d="m28.593 33.7-.078.385c.363.493.65 1.026 1.112 1.41-.332-.65-.58-.917-1.034-1.796m.856-.033c-.192-.213-.305-.468-.432-.721.121.446.37.83.602 1.221l-.17-.5m15.153-3.294-.081.204a9.8 9.8 0 0 1-.961 3.064 9.66 9.66 0 0 0 1.042-3.268M32.628 15.535c.372-.136.915-.075 1.311-.164-.515.043-1.028.068-1.535.133l.224.031m-13.083 6.957c.086.794-.597 1.103.151.578.402-.905-.156-.25-.15-.578m-.882 3.678c.173-.53.204-.848.27-1.155-.476.61-.22.74-.27 1.155"/></g><path d="M32 8.999h1v46h-1z" opacity=".1"/></svg>