<svg xmlns="http://www.w3.org/2000/svg" width="64" height="64"><rect width="64" height="64" y="988.36" fill="none" opacity=".75" rx="0" ry="0" transform="translate(0 -988.36)"/><path fill="#5f656d" d="m8.991 1.009 46.01.004v57.985H8.992V1.008z"/><path fill="none" stroke="#2b3135" stroke-linejoin="round" d="m8.5.5 47 .003V59.5h-47V.5z" opacity=".85"/><path fill="#fff" fill-rule="evenodd" d="M18 19c-.554 0-1 .446-1 1v20c0 .554.446 1 1 1h28c.554 0 1-.446 1-1V20c0-.554-.446-1-1-1H18zm20 1a1 1 0 0 1 1 1 1 1 0 0 1-1 1 1 1 0 0 1-1-1 1 1 0 0 1 1-1zm3 0a1 1 0 0 1 1 1 1 1 0 0 1-1 1 1 1 0 0 1-1-1 1 1 0 0 1 1-1zm3 0a1 1 0 0 1 1 1 1 1 0 0 1-1 1 1 1 0 0 1-1-1 1 1 0 0 1 1-1zm-26 3h6v17h-6V23zm7 0h21v17H25V23z" style="paint-order:fill markers stroke"/><path fill="#fff" d="M31.371 37h1.323l1.446-2.701c.26-.491.519-1.01.805-1.61H35c.327.6.6 1.119.86 1.61L37.332 37h1.391l-2.92-5.102L38.535 27H37.21l-1.337 2.551c-.246.464-.437.887-.71 1.46h-.054c-.327-.573-.532-.996-.791-1.46L32.953 27h-1.391l2.728 4.83z" aria-label="X"/></svg>