<svg xmlns="http://www.w3.org/2000/svg" width="64" height="64"><rect width="64" height="64" y="-.012" fill="none" opacity=".75" rx="0" ry="0"/><path fill="#8542c2" d="M9 1.002H55v59H9.003v-59z" color="#000" overflow="visible"/><path fill="none" stroke="#643191" stroke-linecap="round" stroke-linejoin="round" stroke-width="1.002" d="m8.5.499 47 .004V60.5H8.502V.499z" color="#000" overflow="visible"/><path d="M26.5 19.451c-.831 0-1.5.669-1.5 1.5s.669 1.5 1.5 1.5 1.5-.669 1.5-1.5-.669-1.5-1.5-1.5m8.5.1-3 3 5 5-5 5 3 3 8-8zm-11.5 8c-1.385 0-2.5 1.115-2.5 2.5s1.115 2.5 2.5 2.5 2.5-1.115 2.5-2.5-1.115-2.5-2.5-2.5m5.5 8c-1.662 0-3 1.338-3 3s1.338 3 3 3 3-1.338 3-3-1.338-3-3-3" color="#4d4d4d" opacity=".7" style="isolation:auto;mix-blend-mode:normal"/></svg>