<svg xmlns="http://www.w3.org/2000/svg" width="64" height="64"><g transform="translate(0 -988.37)"><path fill="#3f755a" d="m8.991 989.37 46.01.004v57.985H8.992V989.37z"/><path fill="none" stroke="#264133" stroke-linejoin="round" stroke-width=".745" d="m6.5.5 35 .003v44.003h-35z" opacity=".75" transform="matrix(1.3428 0 0 1.3408 -.228 988.19)"/><rect width="64" height="64" y="988.36" fill="none" opacity=".75" rx="0" ry="0"/></g><g fill="#fff" stroke-width=".088"><path d="M32.632 16.5c-4.877.868-9.756 2.02-14.632 2.873 0 7.418-.004 14.84 0 22.26 4.85.85 9.704 1.983 14.545 2.867h1.453v-28zm-3.255 8.728c-.85 1.74-1.702 3.48-2.567 5.213.874 1.781 1.768 3.55 2.646 5.33-.766-.044-1.53-.092-2.296-.146-.54-1.326-1.2-2.608-1.588-3.994-.432 1.291-1.05 2.51-1.545 3.775-.697-.01-1.394-.038-2.09-.067.817-1.6 1.606-3.213 2.449-4.803-.716-1.638-1.501-3.244-2.24-4.873.7-.041 1.4-.082 2.1-.12.474 1.243.992 2.47 1.384 3.746.42-1.351 1.046-2.624 1.584-3.93a97.38 97.38 0 0 1 2.163-.131zM34.998 20v2h3v2h-3v1h3v2.003h-3V28h3v2h-3v1h3v2h-3v1h3v2h-3v1h3v2h-3v2h10V20zm4 2h4v2h-4zm0 3h4v2.003h-4zm0 3h4v2h-4zm0 3h4v2h-4zm0 3h4v2h-4zm0 3h4v2h-4z"/></g></svg>