<svg xmlns="http://www.w3.org/2000/svg" width="64" height="64"><g transform="translate(0 -988.36)"><path fill="#341c05" d="m8.991 989.371 46.01.004v57.985H8.992v-57.989z"/><path fill="none" stroke="#ff7c00" stroke-linejoin="round" stroke-width=".745" d="m6.5.5 35 .003v44.003h-35V.5z" transform="matrix(1.3428 0 0 1.3408 -.228 988.19)"/><rect width="64" height="64" y="988.36" fill="none" opacity=".75" rx="0" ry="0"/></g><path fill="#ff7c00" d="m25.764 34.678-1.448 5.5c-.037.147-.092.183-.275.183h-2.695c-.184 0-.22-.055-.184-.275l5.207-18.223c.092-.33.147-.623.184-1.521 0-.129.054-.184.146-.184h3.85c.128 0 .183.037.22.184l5.83 19.782c.037.146 0 .238-.147.238H33.41c-.147 0-.238-.037-.275-.165l-1.522-5.518zm5.097-2.97c-.514-2.035-1.724-6.472-2.182-8.617h-.037c-.385 2.145-1.356 5.775-2.126 8.617zm8.25-10.193c0-1.173.825-1.87 1.87-1.87 1.118 0 1.87.752 1.87 1.87 0 1.21-.788 1.87-1.907 1.87-1.063 0-1.833-.66-1.833-1.87zm.22 4.162c0-.147.055-.22.22-.22h2.878c.147 0 .22.055.22.22v14.465c0 .146-.036.22-.22.22h-2.841c-.184 0-.239-.092-.239-.239V25.676z" class="st1"/></svg>