<svg xmlns="http://www.w3.org/2000/svg" width="64" height="64"><rect width="64" height="64" y="-.012" fill="none" opacity=".75" rx="0" ry="0"/><path fill="#3d58a4" d="M9 1.002H55v59H9.003v-59z" color="#000" overflow="visible"/><path fill="none" stroke="#2f437f" stroke-linecap="round" stroke-linejoin="round" stroke-width="1.002" d="m8.5.499 47 .004V60.5H8.502V.499z" color="#000" overflow="visible"/><path fill="#fff" d="M22 19.501c-.554 0-1 .446-1 1v20c0 .554.446 1 1 1h20c.554 0 1-.446 1-1v-20c0-.554-.446-1-1-1zm0 1h20v20H22zm15.5 1.5-2.5 2.5h-6.05a2.5 2.5 0 0 0-2.45-2 2.5 2.5 0 0 0-2.5 2.5 2.5 2.5 0 0 0 2 2.445v9.05h4v2h5v-2h3v-9l2.5-2.5zm0 1.199 1.801 1.801-1.801 1.801-1.5-1.5V24.7zm-11 .3A1.5 1.5 0 0 1 28 25a1.5 1.5 0 0 1-1.5 1.5A1.5 1.5 0 0 1 25 25a1.5 1.5 0 0 1 1.5-1.5m2.445 2h6.05l2 2v8h-2v-2h-5v2h-3v-8.05a2.5 2.5 0 0 0 1.945-1.948m2.055 9h3v3h-3z" opacity=".75"/></svg>