<svg xmlns="http://www.w3.org/2000/svg" width="64" height="64" version="1.0"><g transform="translate(0 -988.362)"><path fill="#fafafa" d="m8.991 989.371 46.01.004v57.985H8.992v-57.989z"/><path fill="none" stroke="#4f6698" stroke-linejoin="round" stroke-opacity=".267" stroke-width=".745" d="m6.5.5 35 .003v44.003h-35V.5z" transform="matrix(1.34284 0 0 1.34075 -.228 988.192)"/><rect width="64" height="64" y="988.362" fill="none" opacity=".75" rx="0" ry="0"/></g><path fill="#99e159" d="M30 10v4h4v-4zm4 4v4h4v-4zm0 4h-4v4h4zm-4 0v-4h-4v4zm0 15.969V34h4v-.031z" opacity=".2"/><path fill="#99e159" d="M26 18v4h4v-4zm4 4v4h8v-8h-4v4zm0 4h-4v4h4z" opacity=".6"/><path fill="#99e159" d="M30 26v4h4v-4zm4 4v4h-4v-4h-4v3.71h-8L32 51l14-17.29-8 .003V30z" color="#bebebe" overflow="visible" style="marker:none"/></svg>