<svg xmlns="http://www.w3.org/2000/svg" height="64" width="64"><g transform="translate(0 -988.362)"><path d="M8.991 989.371l46.01.004v57.985H8.992v-57.989z" fill="#dd5248"/><path d="M6.5.5l35 .003v44.003h-35V.5z" fill="none" stroke="#91231b" stroke-width=".745" stroke-linejoin="round" opacity=".75" transform="matrix(1.34284 0 0 1.34075 -.228 988.192)"/><rect ry="0" rx="0" y="988.362" height="64" width="64" opacity=".75" fill="none"/></g><path d="M34 17l-17 3v22l17 3V17zm3.281 4c-.32.003-.645.019-.968.031L35 21.063v5.061l.5.063c.997.125 3.342.087 4.906-.063 4.209-.404 6.862-1.56 6.407-2.781-.511-1.37-4.733-2.385-9.532-2.344zM47 24.438l-.375.437c-.494.594-1.858 1.226-3.531 1.594-1.034.227-2.151.313-4.719.375L35 26.906v3.907l3.281-.094c2.6-.062 3.613-.15 4.782-.407 1.685-.368 2.998-.898 3.5-1.437l.343-.375.063-2.031.031-2.032zm-22.281 1.75h1c.833 0 1.03.038 1.093.25.042.14.625 2.294 1.313 4.78a479.334 479.334 0 0 0 1.313 4.688c.046.133-.174.196-.782.188-.458-.007-.905-.055-1-.094-.094-.039-.265-.56-.406-1.156l-.281-1.063h-2.656l-.22.969-.187 1-.937.031-.907.032.063-.25c.044-.145.558-1.978 1.125-4.063s1.13-4.11 1.25-4.531l.219-.782zm.937 2.25c-.04.01-.233.644-.437 1.468a94.36 94.36 0 0 1-.469 1.844c-.068.225.046.281.875.281h.938l-.438-1.718c-.235-.943-.446-1.798-.469-1.875zM47 29.063l-.438.468c-1.14 1.236-4.822 2.014-9.343 1.969l-2.125-.031-.063 1.875L35 35.219l.25.093c.546.165 5.76-.045 7.063-.28 1.818-.33 3.484-.893 4.093-1.407l.5-.438.063-2.062.031-2.063zm0 4.5l-.438.53c-1.065 1.228-4.339 1.952-8.937 1.97H35v3.812l.781.063c1.583.111 2.159.086 4.094-.063 3.275-.253 5.775-.918 6.594-1.781l.437-.469.063-2.031.031-2.032z" style="isolation:auto;mix-blend-mode:normal;solid-color:#000;solid-opacity:1;marker:none" color="#000" overflow="visible" fill="#fff"/></svg>