<svg xmlns="http://www.w3.org/2000/svg" width="64" height="64"><rect width="64" height="64" y="-.012" fill="none" opacity=".75" rx="0" ry="0"/><path fill="none" d="m8.5.499 47 .004v59H8.502v-59z" opacity=".3"/><path fill="#35677f" d="m8.992 1.05 46.013.004v57.987H8.992z"/><path fill="none" stroke="#2b4b5a" stroke-linejoin="round" stroke-opacity=".8" d="m8.502.542 47.001.004v58.998H8.502z"/><path fill="#fff" d="M15.001 9.04v1.002h3.19V9.041zm3.61 0v1.002h3.02V9.041zm3.439 0v1.002h2.646V9.041zm3.061 0v1.002h1.176V9.041zm1.6 0v1.002h2.6V9.041zm3.06 0v1.002h6.717V9.041zm-14.77 3.002v1.001h5.076v-1.001zm5.578 0v1.001h2.434v-1.001zm2.9 0v1.001h1.133v-1.001zm1.636 0v1.001h2.18v-1.001zm2.683 0v1.001h2.185v-1.001zm2.646 0v1.001h3.564v-1.001zm4.07 0v1.001h4.657v-1.001zm-19.513 3v.999h5.624v-.998zm6.043 0v.999h6.04v-.998zm-6.047 3.002v.998h3.107v-.998zm3.526 0v.998h2.9v-.998zm3.319 0v.998H24.4v-.998zm5.242 14.997v1.001h3.152v-1.001zm3.568 0v1.001h2.937v-1.001zm3.356 0v1.001h2.48v-1.001zm-6.924 3v1.002h2.521v-1.001zm2.94 0v1.002h6.464v-1.001zm6.88 0v1.002h4.95v-1.001zm-9.82 3.002v.998h3.273v-.998zm3.738 0v.998h5.745v-.998zm6.169 0v.998h3.942v-.998zm-9.903 3v.999h2.517v-.998zm2.937 0v.999h2.559v-.998zm2.978 0v.999h3.651v-.998zm4.07 0v.999h.757v-.998zm1.172 0v.999h4.744v-.998zM27.001 51.04v1.002h3.273v-.998zm3.693 0v1.002h3.024v-.998zm3.485 0v1.002h2.6v-.998zm3.023 0v1.002h4.15v-.998zm4.612 0v1.002h6.757v-.998zM15.002 21.04v1.002h4.112V21.04zm0 3.001v1.002h4.153v-1.005zm4.573-3v1h7.51v-1zm.041 3v1.002h6.842v-1.005zm1.595 21v1h6.169v-1zm6.63 0v1h2.434v-1zm2.895 0v1h5.794v-1zm6.255 0v1h3.988v-1zm4.407 0v1h1.55v-1zm2.015 0v1h.922v-1zm1.342 0v1h2.475v-1zm-21.53 3v1.002h1.093V48.04zm1.384 0v1.002h2.184V48.04zm2.52 0v1.002h2.182V48.04zm2.854 0v1.002h3.481V48.04zm3.901 0v1.002h4.535V48.04zm5.163 0v1.002h3.061V48.04zm3.44 0v1.002h.714V48.04zM15 51.042h4.078v.998h-4.082zm3.693-24v.998h3.024v-.998zm-3.693 3.001v.998h1.342v-.994zm4.237 2.997v1.002h2.476v-1.001zm.17 3.002v1.001h3.648v-1.001zm-.465 3v.998h2.77v-.998zm-.502 3.001v.998h2.853v-.998zM15 45.041v1.001h5.745v-1.001zm0 3v1.002h4.952v-1.001zm5.33 0v1.002h2.392v-1.001zm-.84 3.002v.998h4.49v-.998zm-4.49-24v.998h3.141v-.998zm0 5.998v1.001h3.693v-1.001zm0 3v1.002h3.942v-1.001zm0 3.002v.998h3.402v-.998zm0 3v.999h2.978v-.998z"/></svg>