<svg xmlns="http://www.w3.org/2000/svg" width="64" height="64"><g transform="translate(0 -988.362)"><path fill="#fafafa" d="m8.991 989.371 46.01.004v57.985H8.992v-57.989z"/><path fill="none" stroke="#4f6698" stroke-linejoin="round" stroke-opacity=".267" stroke-width=".745" d="m6.5.5 35 .003v44.003h-35V.5z" transform="matrix(1.34284 0 0 1.34075 -.228 988.192)"/><rect width="64" height="64" y="988.362" fill="none" opacity=".75" rx="0" ry="0"/></g><path fill="#4d88cf" d="m31.934 14-13.88 8.012L18 37.988 32 46l14-7.998-.06-15.99L31.933 14zm0 1.27v11.568l1.63.974-1.63.94-11.748-6.787 11.748-6.695zM45 22.832v14.633l-13 7.443V30.273l13-7.441z" color="#000" overflow="visible" style="isolation:auto;mix-blend-mode:normal;solid-color:#000;solid-opacity:1;marker:none"/></svg>