<svg xmlns="http://www.w3.org/2000/svg" width="64" height="64" viewBox="0 0 16.933 16.933"><g transform="translate(0 -261.5) scale(.26458)"><path fill="#3374d4" d="m8.991 989.37 46.01.004v57.985H8.992V989.37z"/><path fill="none" stroke="#183f78" stroke-linejoin="round" stroke-width=".745" d="m6.5.5 35 .003v44.003h-35z" opacity=".75" transform="matrix(1.3428 0 0 1.3408 -.228 988.19)"/><rect width="64" height="64" y="988.36" fill="none" opacity=".75" rx="0" ry="0"/></g><g fill="#fff" stroke-width=".088"><path d="M8.633 4.234c-1.29.23-2.581.535-3.871.76v5.89c1.283.225 2.567.524 3.848.758h.385V4.234zm-.499 2.4L7.54 9.129l-.488-.039c-.112-.557-.243-1.11-.343-1.67-.098.543-.226 1.082-.34 1.622a31.85 31.85 0 0 1-.485-.03c-.14-.74-.304-1.475-.435-2.218l.433-.017c.087.536.185 1.07.26 1.606.12-.55.24-1.1.358-1.65.16-.01.32-.017.48-.025.112.568.227 1.135.348 1.7.095-.583.2-1.166.302-1.749.168-.006.336-.015.504-.025zM9.26 5.292h2.646v5.292H9.26v-.53h2.117V9.79H9.26v-.529h2.117v-.264H9.26v-.53h2.117v-.264H9.26v-.53h2.117V7.41H9.26v-.528h2.117v-.266H9.26v-.529h2.117v-.264H9.26z"/></g></svg>