<svg xmlns="http://www.w3.org/2000/svg" width="64" height="64" viewBox="0 0 16.933 16.933"><g transform="translate(0 4.233) scale(.26458)"><path fill="none" d="M0-16h64v64H0z"/><rect width="46" height="54" x="-7" y="-59" fill="#d3ab7d" color="#bebebe" overflow="visible" ry="0" transform="rotate(90)"/><rect width="47" height="55" x="-7.5" y="-59.5" fill="none" stroke="#5d3614" stroke-opacity=".614" color="#bebebe" overflow="visible" ry="0" transform="rotate(90)"/><path fill="#fff" d="M36-6.999v46h-7v-46z" opacity=".3"/><path d="M32-7h1v46h-1z" opacity=".15"/></g><path fill="#b38856" d="M2.646 11.377v.265H5.82v-.265zm0 .53v.264h2.646v-.265zm0 .528v.265H5.82v-.265zm0 .53v.264h2.116v-.265z" color="#000"/><g fill="#b38856" stroke-width=".035" aria-label="CAB"><path d="M3.674 9.646v.182q-.087-.081-.186-.121-.098-.04-.21-.04-.218 0-.334.134-.116.133-.116.386 0 .252.116.386.116.133.335.133.11 0 .209-.04.099-.04.186-.121v.18q-.09.061-.192.092-.1.03-.214.03-.29 0-.456-.176-.166-.178-.166-.484 0-.308.166-.484.167-.178.456-.178.115 0 .216.03.101.03.19.091zM4.367 9.717l-.234.635h.469zm-.098-.17h.196l.486 1.276h-.18l-.116-.327h-.574l-.117.327h-.181zM5.31 10.214v.467h.276q.14 0 .206-.057.068-.058.068-.177 0-.12-.068-.176-.067-.057-.206-.057zm0-.525v.385h.255q.126 0 .188-.047.062-.048.062-.146 0-.096-.062-.144-.062-.048-.188-.048zm-.173-.141h.44q.198 0 .305.082.107.082.107.233 0 .117-.055.186t-.16.086q.127.027.197.115.07.086.07.216 0 .17-.116.264-.116.093-.33.093h-.458z"/></g></svg>