<svg xmlns="http://www.w3.org/2000/svg" xmlns:xlink="http://www.w3.org/1999/xlink" width="64" height="64" viewBox="0 0 16.933 16.933"><defs><linearGradient xlink:href="#a" id="b" x1="-666.12" x2="-553.27" y1="413.04" y2="525.91" gradientTransform="matrix(.99884 0 0 .9987 689.01 -388.84)" gradientUnits="userSpaceOnUse"/><linearGradient id="a"><stop offset="0" stop-color="#3b3b3b"/><stop offset="1" stop-color="#fff"/></linearGradient><linearGradient xlink:href="#a" id="c" x1="-553.27" x2="-666.12" y1="525.91" y2="413.05" gradientTransform="matrix(.99884 0 0 .9987 689.01 -388.84)" gradientUnits="userSpaceOnUse"/></defs><g transform="translate(0 -261.5) scale(.26458)"><path fill="#fafafa" d="m8.991 989.37 46.01.004v57.985H8.992V989.37z"/><path fill="none" stroke="#4f6698" stroke-linejoin="round" stroke-opacity=".267" stroke-width=".745" d="m6.5.5 35 .003v44.003h-35z" transform="matrix(1.3428 0 0 1.3408 -.228 988.19)"/><rect width="64" height="64" y="988.36" fill="none" opacity=".75" rx="0" ry="0"/></g><g fill-rule="evenodd" color="#000"><path fill="url(#b)" d="M79.865 119.1c35.398 48.255 70.04-13.469 69.989-50.587C149.794 24.627 105.313.099 79.836.099 38.944.099 0 33.895 0 80.135 0 131.531 44.64 160 79.836 160c-7.965-1.147-34.506-6.834-34.863-67.967-.24-41.347 13.488-57.866 34.805-50.599.477.177 23.514 9.265 23.514 38.951 0 29.56-23.427 38.715-23.427 38.715z" transform="matrix(.0496 0 0 .0496 4.497 3.97)"/><path fill="url(#c)" d="M79.823 41.401C56.433 33.339 27.78 52.617 27.78 91.23c0 63.048 46.721 68.77 52.384 68.77C121.056 160 160 126.204 160 79.964 160 28.568 115.36.099 80.164.099c9.748-1.35 52.541 10.55 52.541 69.037 0 38.141-31.953 58.905-52.735 50.033-.477-.177-23.514-9.264-23.514-38.951 0-29.56 23.367-38.818 23.367-38.818z" transform="matrix(.0496 0 0 .0496 4.497 3.97)"/></g></svg>