<?xml version="1.0" encoding="UTF-8" standalone="no"?>
<!-- Created with Inkscape (http://www.inkscape.org/) -->

<svg
   xmlns:dc="http://purl.org/dc/elements/1.1/"
   xmlns:cc="http://creativecommons.org/ns#"
   xmlns:rdf="http://www.w3.org/1999/02/22-rdf-syntax-ns#"
   xmlns:svg="http://www.w3.org/2000/svg"
   xmlns="http://www.w3.org/2000/svg"
   xmlns:sodipodi="http://sodipodi.sourceforge.net/DTD/sodipodi-0.dtd"
   xmlns:inkscape="http://www.inkscape.org/namespaces/inkscape"
   width="64"
   height="64"
   viewBox="0 0 16.933333 16.933334"
   version="1.1"
   id="svg3222"
   inkscape:version="0.92.4 (5da689c313, 2019-01-14)"
   sodipodi:docname="exec.svg">
  <defs
     id="defs3216" />
  <sodipodi:namedview
     id="base"
     pagecolor="#ffffff"
     bordercolor="#666666"
     borderopacity="1.0"
     inkscape:pageopacity="0.0"
     inkscape:pageshadow="2"
     inkscape:zoom="7.9195959"
     inkscape:cx="15.495623"
     inkscape:cy="56.330822"
     inkscape:document-units="mm"
     inkscape:current-layer="layer1"
     showgrid="false"
     units="px"
     inkscape:window-width="1366"
     inkscape:window-height="708"
     inkscape:window-x="0"
     inkscape:window-y="30"
     inkscape:window-maximized="1" />
  <metadata
     id="metadata3219">
    <rdf:RDF>
      <cc:Work
         rdf:about="">
        <dc:format>image/svg+xml</dc:format>
        <dc:type
           rdf:resource="http://purl.org/dc/dcmitype/StillImage" />
        <dc:title />
      </cc:Work>
    </rdf:RDF>
  </metadata>
  <g
     inkscape:label="Layer 1"
     inkscape:groupmode="layer"
     id="layer1"
     transform="translate(0,-280.06665)">
    <g
       transform="matrix(0.26458333,0,0,0.26458333,1.0666667e-7,18.562493)"
       id="text-x-preview_64"
       inkscape:label="#g4141">
      <g
         transform="matrix(1.3428376,0,0,1.340755,-0.22814694,988.19153)"
         id="layer1-1-7"
         inkscape:label="Layer 1">
        <path
           inkscape:connector-curvature="0"
           style="display:inline;fill:#fafafa;fill-opacity:1;stroke:none;stroke-width:0.99992186;stroke-linecap:butt;stroke-linejoin:round;stroke-miterlimit:4;stroke-dasharray:none;stroke-dashoffset:0;stroke-opacity:0.42452829"
           id="path4160-2"
           d="m 6.8655256,0.87983895 c 7.8515454,0 34.2636264,0.002756 34.2636264,0.002756 l 4e-5,43.24831005 c 0,0 -22.842445,0 -34.2636664,0 0,-14.417024 0,-28.834046 0,-43.25106605 z"
           sodipodi:nodetypes="ccccc" />
        <path
           inkscape:connector-curvature="0"
           style="display:inline;fill:none;fill-opacity:1;stroke:#4f6698;stroke-width:0.74521309;stroke-linecap:butt;stroke-linejoin:round;stroke-miterlimit:4;stroke-dasharray:none;stroke-dashoffset:0;stroke-opacity:0.26666667"
           id="path4160-3-1"
           d="m 6.4999609,0.49996093 c 8.0202951,0 35.0000391,0.0028 35.0000391,0.0028 l 4.2e-5,44.00280307 c 0,0 -23.333387,0 -35.0000811,0 0,-14.668535 0,-29.33707 0,-44.00560307 z"
           sodipodi:nodetypes="ccccc" />
      </g>
      <rect
         ry="2.17285e-05"
         rx="2.17285e-05"
         y="988.36218"
         x="0"
         height="63.999996"
         width="64"
         id="rect4139"
         style="opacity:0.75;fill:none;fill-opacity:0.56122448;stroke:none;stroke-width:1;stroke-linecap:butt;stroke-linejoin:miter;stroke-miterlimit:4;stroke-dasharray:none;stroke-dashoffset:0;stroke-opacity:1" />
    </g>
    <g
       id="g828"
       transform="translate(11.839995,-0.14159864)">
      <path
         d="m -2.8451112,292.6446 c 0.1465792,0 0.2645834,-0.118 0.2645834,-0.26458 v -0.88471 c 0.3624262,-0.0856 0.7006166,-0.23149 1.0087239,-0.42167 l 0.62838544,0.62839 c 0.1036369,0.10363 0.2684199,0.10363 0.3720839,0 l 0.752395,-0.75243 c 0.103638,-0.10363 0.103638,-0.26842 0,-0.37205 l -0.628385,-0.62839 c 0.190209,-0.30813 0.336127,-0.64632 0.421693,-1.00872 h 0.884687 c 0.14657896,0 0.26458296,-0.11801 0.26458296,-0.26459 v -1.05833 c 0,-0.14658 -0.118004,-0.26458 -0.26458296,-0.26458 h -0.884687 c -0.08549,-0.36206 -0.231828,-0.70091 -0.421693,-1.00873 l 0.628385,-0.62838 c 0.103638,-0.10367 0.103638,-0.26842 0,-0.37209 l -0.752395,-0.75239 c -0.103664,-0.10367 -0.268447,-0.10367 -0.3720839,0 l -0.62838544,0.62838 c -0.3078162,-0.18986 -0.6466681,-0.3362 -1.0087239,-0.42169 v -0.88469 c 0,-0.14658 -0.1180042,-0.26458 -0.2645834,-0.26458 h -1.0583333 c -0.1465792,0 -0.2645833,0.118 -0.2645833,0.26458 v 0.88469 c -0.3624263,0.0856 -0.7006167,0.23148 -1.008724,0.42169 l -0.6283854,-0.62838 c -0.1036373,-0.10367 -0.2684198,-0.10367 -0.3720571,0 l -0.7524221,0.75239 c -0.1036372,0.10367 -0.1036372,0.26842 0,0.37209 l 0.6283854,0.62838 c -0.1902089,0.30811 -0.3361266,0.6463 -0.4216664,1.00873 h -0.8847137 c -0.1465792,0 -0.2645834,0.118 -0.2645834,0.26458 v 1.05833 c 0,0.14658 0.1180042,0.26459 0.2645834,0.26459 h 0.8847137 c 0.08546,0.36205 0.2318014,0.70088 0.4216664,1.00872 l -0.6283854,0.62839 c -0.1036372,0.10363 -0.1036372,0.26842 0,0.37205 l 0.7524221,0.75243 c 0.1036373,0.10363 0.2684198,0.10363 0.3720571,0 l 0.6283854,-0.62839 c 0.3078163,0.18986 0.6466681,0.33621 1.008724,0.42167 v 0.88471 c 0,0.14658 0.1180041,0.26458 0.2645833,0.26458 z m -0.5291666,-2.91041 c -0.8763,0 -1.5875,-0.7112 -1.5875,-1.5875 0,-0.8763 0.7112,-1.5875 1.5875,-1.5875 0.8763,0 1.5875,0.7112 1.5875,1.5875 0,0.8763 -0.7112,1.5875 -1.5875,1.5875 z"
         inkscape:connector-curvature="0"
         id="rect2588-4"
         style="display:inline;overflow:visible;visibility:visible;opacity:1;fill:#000000;fill-opacity:0.05882353;fill-rule:nonzero;stroke:none;stroke-width:0.44979167;marker:none;enable-background:accumulate" />
      <path
         inkscape:connector-curvature="0"
         id="rect2588-4-8-3"
         d="m -3.9034445,283.64877 c -0.1465792,0 -0.2645833,0.118 -0.2645833,0.26458 v 0.88469 c -0.3624263,0.0856 -0.7006167,0.23148 -1.008724,0.42169 l -0.6283854,-0.62838 c -0.1036373,-0.10367 -0.2684198,-0.10367 -0.3720571,0 l -0.7524221,0.75239 c -0.1036372,0.10367 -0.1036372,0.26842 0,0.37209 l 0.6283854,0.62838 c -0.1902089,0.30811 -0.3361002,0.6463 -0.4216664,1.00873 h -0.8847137 c -0.1465792,0 -0.2645834,0.118 -0.2645834,0.26458 v 1.05833 c 0,0.14658 0.1180042,0.26459 0.2645834,0.26459 h 0.8847137 c 0.08546,0.36205 0.2318014,0.70088 0.4216664,1.00872 l -0.6283854,0.62839 c -0.1036372,0.10363 -0.1036372,0.26842 0,0.37205 l 0.7524221,0.75243 c 0.1036373,0.10363 0.2684198,0.10363 0.3720571,0 l 0.6283854,-0.62839 c 0.3078163,0.18986 0.6466681,0.33621 1.008724,0.42167 v 0.88471 c 0,0.14658 0.1180041,0.26458 0.2645833,0.26458 h 1.0583333 c 0.1465792,0 0.2645834,-0.118 0.2645834,-0.26458 v -0.88471 c 0.3624262,-0.0856 0.7006166,-0.23149 1.0087239,-0.42167 l 0.62838544,0.62839 c 0.1036369,0.10363 0.2684199,0.10363 0.3720839,0 l 0.752395,-0.75243 c 0.103638,-0.10363 0.103638,-0.26842 0,-0.37205 l -0.628385,-0.62839 c 0.190209,-0.30813 0.336127,-0.64632 0.421693,-1.00872 h 0.884687 c 0.14657896,0 0.26458296,-0.11801 0.26458296,-0.26459 v -1.05833 c 0,-0.14658 -0.118004,-0.26458 -0.26458296,-0.26458 h -0.884687 c -0.08549,-0.36206 -0.231828,-0.70091 -0.421693,-1.00873 l 0.628385,-0.62838 c 0.103638,-0.10367 0.103638,-0.26842 0,-0.37209 l -0.752395,-0.75239 c -0.103664,-0.10367 -0.268447,-0.10367 -0.3720839,0 l -0.62838544,0.62838 c -0.3078162,-0.18986 -0.6466681,-0.3362 -1.0087239,-0.42169 v -0.88469 c 0,-0.14658 -0.1180042,-0.26458 -0.2645834,-0.26458 z m 0.066146,0.33073 h 0.9260417 v 1.08056 l 0.2547673,0.0599 c 0.3248025,0.0767 0.6308989,0.20857 0.9110662,0.38137 l 0.2226998,0.13747 0.76533394,-0.76533 0.656802,0.6568 -0.7653077,0.76534 0.1369217,0.22219 c 0.1728,0.28014 0.304694,0.58674 0.381397,0.91157 l 0.06046,0.25427 h 1.080029 v 0.92604 h -1.080029 l -0.06046,0.25476 c -0.07684,0.32536 -0.20828,0.63061 -0.381397,0.91104 l -0.1369216,0.22273 0.7653076,0.76533 -0.656802,0.65681 -0.76533384,-0.76534 -0.2226998,0.13748 c -0.2804318,0.17309 -0.5857081,0.30456 -0.9110662,0.38137 l -0.2547673,0.0599 v 1.08005 h -0.926042 v -1.08005 l -0.2547673,-0.0599 c -0.3248025,-0.0766 -0.6308989,-0.20854 -0.9110398,-0.38134 l -0.2227262,-0.13748 -0.7653338,0.76534 -0.6568016,-0.65681 0.7653073,-0.76533 -0.1369219,-0.22273 c -0.1728258,-0.28019 -0.3046942,-0.58621 -0.3813969,-0.91104 l -0.060457,-0.25476 h -1.0800294 v -0.92604 h 1.0800291 l 0.060457,-0.25427 c 0.076835,-0.32538 0.20828,-0.63063 0.3813969,-0.91104 l 0.137451,-0.22272 -0.7653337,-0.76534 0.6562989,-0.6568 0.7653338,0.76533 0.2227262,-0.13747 c 0.280379,-0.17312 0.5856817,-0.30457 0.9110398,-0.38137 l 0.2547673,-0.0599 z m 0.4630209,2.24896 c -1.0552377,0 -1.9182292,0.86299 -1.9182292,1.91823 0,1.05526 0.8629915,1.91823 1.9182292,1.91823 1.0552377,0 1.9182291,-0.86297 1.9182291,-1.91823 0,-1.05524 -0.8629914,-1.91823 -1.9182291,-1.91823 z m 0,0.33073 c 0.8763,0 1.5875,0.7112 1.5875,1.5875 0,0.8763 -0.7112,1.5875 -1.5875,1.5875 -0.8763,0 -1.5875,-0.7112 -1.5875,-1.5875 0,-0.8763 0.7112,-1.5875 1.5875,-1.5875 z"
         style="display:inline;overflow:visible;visibility:visible;opacity:1;fill:#58698f;fill-opacity:0.2077295;fill-rule:nonzero;stroke:none;stroke-width:0.44979167;marker:none;enable-background:accumulate" />
    </g>
  </g>
</svg>
