<?xml version="1.0" encoding="UTF-8" standalone="no"?>
<!-- Created with Inkscape (http://www.inkscape.org/) -->

<svg
   xmlns:dc="http://purl.org/dc/elements/1.1/"
   xmlns:cc="http://creativecommons.org/ns#"
   xmlns:rdf="http://www.w3.org/1999/02/22-rdf-syntax-ns#"
   xmlns:svg="http://www.w3.org/2000/svg"
   xmlns="http://www.w3.org/2000/svg"
   xmlns:sodipodi="http://sodipodi.sourceforge.net/DTD/sodipodi-0.dtd"
   xmlns:inkscape="http://www.inkscape.org/namespaces/inkscape"
   width="64"
   height="64"
   viewBox="0 0 16.933333 16.933334"
   version="1.1"
   id="svg3222"
   inkscape:version="0.92.4 (5da689c313, 2019-01-14)"
   sodipodi:docname="application-x-cd-image.svg">
  <defs
     id="defs3216" />
  <sodipodi:namedview
     id="base"
     pagecolor="#ffffff"
     bordercolor="#666666"
     borderopacity="1.0"
     inkscape:pageopacity="0.0"
     inkscape:pageshadow="2"
     inkscape:zoom="1.4"
     inkscape:cx="-10.038318"
     inkscape:cy="37.295839"
     inkscape:document-units="mm"
     inkscape:current-layer="layer1"
     showgrid="false"
     units="px"
     inkscape:window-width="1024"
     inkscape:window-height="576"
     inkscape:window-x="-205"
     inkscape:window-y="139"
     inkscape:window-maximized="0" />
  <metadata
     id="metadata3219">
    <rdf:RDF>
      <cc:Work
         rdf:about="">
        <dc:format>image/svg+xml</dc:format>
        <dc:type
           rdf:resource="http://purl.org/dc/dcmitype/StillImage" />
        <dc:title></dc:title>
      </cc:Work>
    </rdf:RDF>
  </metadata>
  <g
     inkscape:label="Layer 1"
     inkscape:groupmode="layer"
     id="layer1"
     transform="translate(0,-280.06665)">
    <g
       transform="matrix(0.26458333,0,0,0.26458333,1.0666667e-7,18.562493)"
       id="text-x-preview_64"
       inkscape:label="#g4141">
      <g
         transform="matrix(1.3428376,0,0,1.340755,-0.22814694,988.19153)"
         id="layer1-1-7"
         inkscape:label="Layer 1">
        <path
           inkscape:connector-curvature="0"
           style="display:inline;fill:#fafafa;fill-opacity:1;stroke:none;stroke-width:0.99992186;stroke-linecap:butt;stroke-linejoin:round;stroke-miterlimit:4;stroke-dasharray:none;stroke-dashoffset:0;stroke-opacity:0.42452829"
           id="path4160-2"
           d="m 6.8655256,0.87983895 c 7.8515454,0 34.2636264,0.002756 34.2636264,0.002756 l 4e-5,43.24831005 c 0,0 -22.842445,0 -34.2636664,0 0,-14.417024 0,-28.834046 0,-43.25106605 z"
           sodipodi:nodetypes="ccccc" />
        <path
           inkscape:connector-curvature="0"
           style="display:inline;fill:none;fill-opacity:1;stroke:#4f6698;stroke-width:0.74521309;stroke-linecap:butt;stroke-linejoin:round;stroke-miterlimit:4;stroke-dasharray:none;stroke-dashoffset:0;stroke-opacity:0.26666667"
           id="path4160-3-1"
           d="m 6.4999609,0.49996093 c 8.0202951,0 35.0000391,0.0028 35.0000391,0.0028 l 4.2e-5,44.00280307 c 0,0 -23.333387,0 -35.0000811,0 0,-14.668535 0,-29.33707 0,-44.00560307 z"
           sodipodi:nodetypes="ccccc" />
      </g>
      <rect
         ry="2.17285e-05"
         rx="2.17285e-05"
         y="988.36218"
         x="0"
         height="63.999996"
         width="64"
         id="rect4139"
         style="opacity:0.75;fill:none;fill-opacity:0.56122448;stroke:none;stroke-width:1;stroke-linecap:butt;stroke-linejoin:miter;stroke-miterlimit:4;stroke-dasharray:none;stroke-dashoffset:0;stroke-opacity:1" />
    </g>
    <g
       id="g830"
       transform="translate(1.5676508,13.022216)">
      <path
         d="m 12.322024,274.98287 c 0,-3.00646 -2.417498,-5.42396 -5.4239584,-5.42396 -3.0064604,0 -5.4239583,2.4175 -5.4239583,5.42396 0,3.00646 2.4174979,5.42396 5.4239583,5.42396 3.0064604,0 5.4239584,-2.4175 5.4239584,-5.42396 z m -3.4395834,0 c 0,1.09222 -0.870294,1.98437 -1.984375,1.98437 -1.1359356,0 -1.984375,-0.91421 -1.984375,-1.98437 0,-1.09202 0.8047302,-1.98438 1.984375,-1.98438 1.1796448,0 1.984375,0.91401 1.984375,1.98438 z"
         id="path2781-02"
         style="fill:#f3f3f3;fill-opacity:1;fill-rule:nonzero;stroke:#cdd5e5;stroke-width:0.26458332;stroke-miterlimit:4;stroke-opacity:1"
         inkscape:connector-curvature="0" />
      <path
         d="m 6.8980656,272.8662 c -1.1684,0 -2.1166667,0.94827 -2.1166667,2.11667 0,1.1684 0.9482667,2.11666 2.1166667,2.11666 1.1684,0 2.1166667,-0.94826 2.1166667,-2.11666 0,-1.1684 -0.9482667,-2.11667 -2.1166667,-2.11667 z m 0,1.05833 c 0.5842,0 1.0583333,0.47414 1.0583333,1.05834 0,0.5842 -0.4741333,1.05833 -1.0583333,1.05833 -0.5842,0 -1.0583333,-0.47413 -1.0583333,-1.05833 0,-0.5842 0.4741333,-1.05834 1.0583333,-1.05834 z"
         id="path2474-9"
         style="display:inline;overflow:visible;visibility:visible;opacity:0.5;fill:#ffffff;fill-opacity:1;fill-rule:nonzero;stroke:none;stroke-width:0.26458332;marker:none;enable-background:accumulate"
         inkscape:connector-curvature="0" />
      <path
         d="m 6.8980656,272.99849 c -1.095375,0 -1.984375,0.889 -1.984375,1.98438 0,1.09537 0.889,1.98437 1.984375,1.98437 1.095375,0 1.984375,-0.889 1.984375,-1.98437 0,-1.09538 -0.889,-1.98438 -1.984375,-1.98438 z m 0,0.99219 c 0.5476875,0 0.9921875,0.4445 0.9921875,0.99219 0,0.54768 -0.4445,0.99218 -0.9921875,0.99218 -0.5476875,0 -0.9921875,-0.4445 -0.9921875,-0.99218 0,-0.54769 0.4445,-0.99219 0.9921875,-0.99219 z"
         id="path3418-5"
         style="display:inline;overflow:visible;visibility:visible;fill:none;stroke:#cdd5e5;stroke-width:0.26458332;stroke-linecap:butt;stroke-linejoin:round;stroke-miterlimit:4;stroke-dasharray:none;stroke-dashoffset:0;stroke-opacity:1;marker:none;enable-background:accumulate"
         inkscape:connector-curvature="0" />
    </g>
  </g>
</svg>
