<svg xmlns="http://www.w3.org/2000/svg" width="64" height="64" viewBox="0 0 16.933 16.933"><g transform="translate(0 -261.5) scale(.26458)"><path fill="#008a50" d="m8.991 989.37 46.01.004v57.985H8.992V989.37z"/><path fill="none" stroke="#004026" stroke-linejoin="round" stroke-width=".745" d="m6.5.5 35 .003v44.003h-35z" opacity=".75" transform="matrix(1.3428 0 0 1.3408 -.228 988.19)"/><rect width="64" height="64" y="988.36" fill="none" opacity=".75" rx="0" ry="0"/></g><g fill="#fff" stroke-width=".088"><path d="M8.634 4.366c-1.29.23-2.581.534-3.871.76v5.89c1.283.224 2.567.524 3.848.758h.385V4.366zm-.861 2.309c-.225.46-.45.92-.68 1.38.232.47.469.938.7 1.41a48.933 48.933 0 0 1-.607-.04c-.143-.35-.317-.69-.42-1.056-.114.341-.277.664-.409.999-.184-.003-.368-.01-.553-.018.217-.423.425-.85.648-1.27-.189-.434-.397-.86-.592-1.29l.555-.032c.126.33.263.654.366.991.112-.357.277-.694.42-1.04.19-.013.38-.025.572-.034zM9.26 5.292v.529h.794v.529H9.26v.264h.794v.53H9.26v.264h.794v.53H9.26v.264h.794v.53H9.26v.264h.794v.529H9.26v.264h.794v.53H9.26v.529h2.646V5.292zm1.058.529h1.059v.529h-1.059zm0 .793h1.059v.53h-1.059zm0 .794h1.059v.53h-1.059zm0 .794h1.059v.53h-1.059zm0 .794h1.059v.529h-1.059zm0 .793h1.059v.53h-1.059z"/></g></svg>