<svg xmlns="http://www.w3.org/2000/svg" width="64" height="64" viewBox="0 0 16.933 16.933"><g transform="translate(0 -261.5) scale(.26458)"><path fill="#fafafa" d="m8.991 989.37 46.01.004v57.985H8.992V989.37z"/><path fill="none" stroke="#4f6698" stroke-linejoin="round" stroke-opacity=".267" stroke-width=".745" d="m6.5.5 35 .003v44.003h-35z" transform="matrix(1.3428 0 0 1.3408 -.228 988.19)"/><rect width="64" height="64" y="988.36" fill="none" opacity=".75" rx="0" ry="0"/></g><path fill="#999" d="M24.128 5.002v6.085h2.91c.589 0 .952.475.952.475l.105.139.106-.136.001-.001s.373-.467.953-.477h2.91V5.002h-2.91c-.509 0-.783.219-.966.397l-.092.09-.093-.09a1.283 1.283 0 0 0-.966-.397zm.265.265h2.645c.592 0 .952.474.952.474l.107.143.106-.142V5.74s.36-.474.952-.474h2.646v5.556h-2.648c-.503.007-.78.225-.963.4l-.092.087-.092-.089c-.178-.174-.48-.423-.968-.398h-2.645V5.399z" color="#000" style="font-feature-settings:normal;font-variant-alternates:normal;font-variant-caps:normal;font-variant-ligatures:none;font-variant-numeric:normal;font-variant-position:normal;isolation:auto;mix-blend-mode:normal;shape-padding:0;text-decoration-color:#000;text-decoration-line:none;text-decoration-style:solid;text-indent:0;text-transform:none;white-space:normal" transform="translate(-19.63 -.416)"/><path fill="#999" d="M26.377 6.193v.132h.926v-.132zm2.514 0v.132h2.38v-.132zm-2.514.529v.132h.926v-.132zm2.514 0v.132h2.38v-.132zm-2.514.529v.132h.926v-.132zm2.514 0v.132h2.38v-.132zm-3.97.53v.131h2.382V7.78zm3.97 0v.131h2.38V7.78zm-3.97.528v.133h2.382v-.133zm3.97 0v.133h2.38v-.133zm-3.97.53v.132h2.382v-.133zm3.97 0v.132h2.38v-.133zm-3.97.529V9.5h2.382v-.132zm3.97 0V9.5h2.38v-.132zm-3.97.529v.132h2.382v-.132zm3.97 0v.132h1.322v-.132z" color="#000" style="font-feature-settings:normal;font-variant-alternates:normal;font-variant-caps:normal;font-variant-ligatures:none;font-variant-numeric:normal;font-variant-position:normal;isolation:auto;mix-blend-mode:normal;shape-padding:0;text-decoration-color:#000;text-decoration-line:none;text-decoration-style:solid;text-indent:0;text-transform:none;white-space:normal" transform="translate(-19.63 -.416)"/><path fill="gray" d="m5.814 5.777-.42 1.105h-.103v.085h.298v-.085h-.095l.1-.255h.492l.1.255h-.129v.085h.427v-.085h-.118l-.42-1.105zm.026.191.217.574h-.43z" color="#bebebe" font-size="13.717" font-weight="400" letter-spacing="0" overflow="visible" word-spacing="0"/></svg>