<svg xmlns="http://www.w3.org/2000/svg" width="64" height="64"><rect width="64" height="64" y="-.012" fill="none" opacity=".75" rx="0" ry="0"/><path fill="#5f6c79" d="M9 1.002H55v59H9.003v-59z" color="#000" overflow="visible"/><path fill="none" stroke="#47515b" stroke-linecap="round" stroke-linejoin="round" stroke-width="1.002" d="m8.5.499 47 .004V60.5H8.502V.499z" color="#000" overflow="visible"/><path fill="#fff" d="M21 19.501v22h22v-22zm1 1h20v20H22zm2 3v2h16v-2zm0 4v1h7v-1zm9 0v1h7v-1zm-9 3v1h7v-1zm9 0v1h7v-1zm-9 3v1h7v-1zm9 0v1h7v-1zm-9 3v1h7v-1zm9 0v1h7v-1z" color="#000" opacity=".9" style="isolation:auto;mix-blend-mode:normal"/></svg>