<?xml version="1.0" encoding="UTF-8" standalone="no"?>
<!-- Created with Inkscape (http://www.inkscape.org/) -->

<svg
   xmlns:dc="http://purl.org/dc/elements/1.1/"
   xmlns:cc="http://creativecommons.org/ns#"
   xmlns:rdf="http://www.w3.org/1999/02/22-rdf-syntax-ns#"
   xmlns:svg="http://www.w3.org/2000/svg"
   xmlns="http://www.w3.org/2000/svg"
   xmlns:sodipodi="http://sodipodi.sourceforge.net/DTD/sodipodi-0.dtd"
   xmlns:inkscape="http://www.inkscape.org/namespaces/inkscape"
   width="64"
   height="64"
   viewBox="0 0 16.933333 16.933334"
   version="1.1"
   id="svg3222"
   inkscape:version="0.92.4 (5da689c313, 2019-01-14)"
   sodipodi:docname="application-rss_xml.svg">
  <defs
     id="defs3216">
    <linearGradient
       id="linearGradient2490-6-6">
      <stop
         id="stop2492-1-04"
         style="stop-color:#791235;stop-opacity:1"
         offset="0" />
      <stop
         id="stop2494-0-8"
         style="stop-color:#dd3b27;stop-opacity:1"
         offset="1" />
    </linearGradient>
    <linearGradient
       id="linearGradient3316-1">
      <stop
         id="stop3318-0"
         style="stop-color:#ffffff;stop-opacity:1;"
         offset="0" />
      <stop
         offset="0.09090909"
         style="stop-color:#ffffff;stop-opacity:0.23529412;"
         id="stop3320-8" />
      <stop
         id="stop3322-1"
         style="stop-color:#ffffff;stop-opacity:0.15686275;"
         offset="0.9545455" />
      <stop
         id="stop3324-6"
         style="stop-color:#ffffff;stop-opacity:0.39215687;"
         offset="1" />
    </linearGradient>
  </defs>
  <sodipodi:namedview
     id="base"
     pagecolor="#ffffff"
     bordercolor="#666666"
     borderopacity="1.0"
     inkscape:pageopacity="0.0"
     inkscape:pageshadow="2"
     inkscape:zoom="5.6"
     inkscape:cx="15.424581"
     inkscape:cy="44.783559"
     inkscape:document-units="mm"
     inkscape:current-layer="layer1"
     showgrid="true"
     units="px"
     inkscape:window-width="1024"
     inkscape:window-height="576"
     inkscape:window-x="33"
     inkscape:window-y="191"
     inkscape:window-maximized="0">
    <inkscape:grid
       type="xygrid"
       id="grid885" />
  </sodipodi:namedview>
  <metadata
     id="metadata3219">
    <rdf:RDF>
      <cc:Work
         rdf:about="">
        <dc:format>image/svg+xml</dc:format>
        <dc:type
           rdf:resource="http://purl.org/dc/dcmitype/StillImage" />
        <dc:title></dc:title>
      </cc:Work>
    </rdf:RDF>
  </metadata>
  <g
     inkscape:label="Layer 1"
     inkscape:groupmode="layer"
     id="layer1"
     transform="translate(0,-280.06665)">
    <g
       id="g4314"
       style="fill:#c3cadb;fill-opacity:1"
       transform="matrix(0.26458333,0,0,0.26458333,-9.5007628e-4,18.56343)" />
    <g
       transform="matrix(0.26458333,0,0,0.26458333,-198.4375,76.866653)"
       id="application-rss_xml_64"
       inkscape:label="#g8237">
      <g
         inkscape:label="#g12943"
         id="dckjndc"
         transform="translate(-1032,512)">
        <g
           transform="translate(1782,-732.36218)"
           id="dckjncdcd"
           inkscape:label="#g4141">
          <g
             transform="matrix(1.3428376,0,0,1.340755,-0.22814694,988.19153)"
             id="layer1-1-7-5-4"
             inkscape:label="Layer 1" />
          <rect
             ry="2.17285e-05"
             rx="2.17285e-05"
             y="988.36218"
             x="0"
             height="63.999996"
             width="64"
             id="rect4139-0-9"
             style="opacity:0.75;fill:none;fill-opacity:0.56122448;stroke:none;stroke-width:1;stroke-linecap:butt;stroke-linejoin:miter;stroke-miterlimit:4;stroke-dasharray:none;stroke-dashoffset:0;stroke-opacity:1" />
        </g>
        <g
           inkscape:label="Layer 1"
           id="layer1-95-5"
           transform="translate(1782,256)">
          <path
             d="M 9,1 C 19.540936,1 54.999941,1.0037 54.999941,1.0037 L 55,59 C 55,59 24.333333,59 9,59 9,39.666667 9,20.33334 9,1.0000064 Z"
             inkscape:connector-curvature="0"
             id="path4160-65-6"
             style="color:#000000;display:inline;overflow:visible;visibility:visible;fill:#fc8f36;fill-opacity:1;fill-rule:nonzero;stroke:none;stroke-width:1;marker:none;enable-background:accumulate" />
          <path
             d="m 8.4999684,0.4998999 c 10.7700936,0 47.0000286,0.004 47.0000286,0.004 l 4.9e-5,58.9962201 c 0,0 -31.333384,0 -47.0000776,0 0,-19.6668 0,-39.3334 0,-58.9999701 z"
             inkscape:connector-curvature="0"
             id="path4160-6-1-9-7"
             style="display:inline;opacity:0.3;fill:none;stroke:none;stroke-width:0.9999218;stroke-linecap:butt;stroke-linejoin:round;stroke-miterlimit:4;stroke-dasharray:none;stroke-dashoffset:0;stroke-opacity:1" />
          <path
             sodipodi:nodetypes="ccccc"
             d="m 8.4999613,0.499961 c 10.7701037,0 47.0000227,0.003754 47.0000227,0.003754 l 5.7e-5,58.996323 c 0,0 -31.333385,0 -47.0000797,0 0,-19.666693 0,-39.333387 0,-59.00007841 z"
             id="path4160-3-8-9-4-9"
             style="display:inline;fill:none;fill-opacity:1;stroke:#b85700;stroke-width:0.99992186;stroke-linecap:butt;stroke-linejoin:round;stroke-miterlimit:4;stroke-dasharray:none;stroke-dashoffset:0;stroke-opacity:0.77611941"
             inkscape:connector-curvature="0" />
        </g>
      </g>
      <path
         inkscape:connector-curvature="0"
         d="m 765.12658,818.80319 c 0,-0.61415 0.21203,-1.12975 0.63606,-1.5468 0.42406,-0.42459 0.94276,-0.6369 1.55611,-0.63692 0.5982,2e-5 1.10554,0.21233 1.52202,0.63692 0.42404,0.41705 0.63606,0.93265 0.63606,1.5468 0,0.59902 -0.21202,1.11083 -0.63606,1.53542 -0.41648,0.41705 -0.92382,0.62556 -1.52202,0.62555 -0.61335,10e-6 -1.13205,-0.2085 -1.55611,-0.62555 -0.42403,-0.41701 -0.63606,-0.92882 -0.63606,-1.53542 M 765,808.94148 v 3.63278 c 4.64037,0 8.40935,3.77632 8.40935,8.42574 h 3.64468 c 0,-6.65998 -5.40702,-12.05852 -12.05403,-12.05852 z m 0.006,-7.94896 v 4.01561 c 8.81056,0 15.96429,7.16326 15.96429,15.98557 h 4.02945 c 3e-5,-11.04375 -8.96466,-20.00118 -19.99371,-20.00118 z"
         id="path4311-7-4"
         style="font-style:normal;font-variant:normal;font-weight:bold;font-stretch:normal;font-size:13.58991337px;line-height:125%;font-family:'Bitstream Vera Serif';text-align:start;writing-mode:lr-tb;text-anchor:start;fill:#ffffff;fill-opacity:1;stroke:none" />
    </g>
  </g>
</svg>
