<svg xmlns="http://www.w3.org/2000/svg" width="64" height="64"><defs><linearGradient id="a" x2="0" y1="54" y2="10" gradientTransform="translate(-97.627 -6.237)" gradientUnits="userSpaceOnUse"><stop offset="0" stop-color="#dedede"/><stop offset="1" stop-color="#ececec"/></linearGradient></defs><g transform="translate(0 15.999)"><path fill="none" d="M0-16h64v64H0z"/><rect width="46" height="54" x="-7" y="-59" fill="#6e7c8b" color="#bebebe" overflow="visible" ry="0" transform="rotate(90)"/><rect width="47" height="55" x="-7.5" y="-59.5" fill="none" stroke="#59646f" color="#bebebe" overflow="visible" ry="0" transform="rotate(90)"/><path fill="#eaeaea" d="M5-7.001v1.002h4v-1.002H5zm50 0v1.002h4v-1.002h-4zM5 37.998V39h4v-1.002zm50 0V39h4v-1.002z" color="#bebebe"/></g><path fill="#ececec" d="M32 21a11 11 0 0 0-11 11 11 11 0 0 0 11 11 11 11 0 0 0 11-11 11 11 0 0 0-11-11m.145.951a10 10 0 0 1 10 10 10 10 0 0 1-10 10 10 10 0 0 1-10-10 10 10 0 0 1 10-10"/><path fill="#edeef8" fill-rule="evenodd" d="M38 31.462 28 39V25z"/><path fill="url(#a)" d="M-92.627 5.763v4h4v-4zm50 0v4h4v-4zm-50 6v4h4v-4zm50 0v4h4v-4zm-50 6v4h4v-4zm50 0v4h4v-4zm-50 6v4h4v-4zm50 0v4h4v-4zm-50 6v4h4v-4zm50 0v4h4v-4zm-50 6v4h4v-4zm50 0v4h4v-4zm-50 6v4h4v-4zm50 0v4h4v-4z" transform="translate(97.627 6.237)"/></svg>