<svg xmlns="http://www.w3.org/2000/svg" width="64" height="64" viewBox="0 0 16.933 16.933"><g stroke-width=".265"><path fill="none" d="M0 0h16.933v16.933H0z"/><rect width="12.171" height="14.287" x="2.381" y="-15.61" fill="#f45454" color="#bebebe" overflow="visible" ry="0" transform="rotate(90)"/><rect width="12.435" height="14.552" x="2.249" y="-15.743" fill="#f45454" stroke="#f12020" color="#bebebe" opacity=".9" overflow="visible" ry="0" transform="rotate(90)"/></g><path d="M8.467 2.38h.264v12.172h-.264z" opacity=".15"/><g fill="#fff" stroke-width="1.143" opacity=".35"><path d="M8.467 4.762a3.704 3.704 0 0 0-3.705 3.705 3.704 3.704 0 0 0 3.705 3.704 3.704 3.704 0 0 0 3.704-3.704 3.704 3.704 0 0 0-3.704-3.705zm0 .463a3.241 3.241 0 0 1 3.24 3.242 3.241 3.241 0 0 1-3.24 3.24 3.241 3.241 0 0 1-3.242-3.24 3.241 3.241 0 0 1 3.242-3.242z"/><path d="M8.467 6.151a2.315 2.315 0 0 0-1.537.588l.329.328a1.852 1.852 0 0 1 1.208-.453 1.852 1.852 0 0 1 1.852 1.853h.463A2.315 2.315 0 0 0 8.467 6.15zM6.37 7.49a2.315 2.315 0 0 0-.22.978h.463a1.852 1.852 0 0 1 .11-.625z"/><path d="M9.089 7.154 8.095 9.46a.556.556 0 0 0-.129.27l-.003.007h.003c-.042.26.102.503.333.561.23.059.473-.088.56-.336h.002v-.013l.012-.035a.563.563 0 0 0 .003-.255z"/></g></svg>