<svg xmlns="http://www.w3.org/2000/svg" width="64" height="64"><rect width="64" height="64" y="-.012" fill="none" opacity=".75" rx="0" ry="0"/><path fill="#913d88" d="M9 1.002H55v59H9.003v-59z" color="#000" overflow="visible"/><path fill="none" stroke="#6d2e66" stroke-linecap="round" stroke-linejoin="round" stroke-width="1.002" d="m8.5.499 47 .004V60.5H8.502V.499z" color="#000" overflow="visible"/><path fill="#fff" d="M22 19.501c-.554 0-1 .446-1 1v20c0 .554.446 1 1 1h18c.554 0 1-.446 1-1v-1h1c.554 0 1-.446 1-1v-4a.976.976 0 0 0-.152-.5.976.976 0 0 0 .152-.5v-4a.976.976 0 0 0-.152-.5.976.976 0 0 0 .152-.5v-4c0-.554-.446-1-1-1h-1v-3c0-.554-.446-1-1-1zm0 1h18v20H22zm1 2v1h7v-1zm9 0v1h7v-1zm9 2h1v4h-1zm-18 1v1h7v-1zm9 0v1h7v-1zm-9 3v1h7v-1zm9 0v1h7v-1zm9 1h1v4h-1zm-18 2v1h7v-1zm9 0v1h7v-1zm-9 3v1h7v-1zm9 0v1h7v-1zm9 0h1v4h-1zm-18 3v1h7v-1zm9 0v1h7v-1z" color="#000" opacity=".75" style="isolation:auto;mix-blend-mode:normal"/></svg>