<svg xmlns="http://www.w3.org/2000/svg" width="64" height="64"><g transform="translate(0 -988.37)"><path fill="#4747b5" d="m8.991 989.37 46.01.004v57.985H8.992V989.37z"/><path fill="none" stroke="#161452" stroke-linejoin="round" stroke-width=".745" d="m6.5.5 35 .003v44.003h-35z" opacity=".75" transform="matrix(1.3428 0 0 1.3408 -.228 988.19)"/><rect width="64" height="64" y="988.36" fill="none" opacity=".75" rx="0" ry="0"/></g><g fill="#fff" stroke-width=".088"><path d="M32.63 16.003c-4.876.869-9.755 2.021-14.631 2.874 0 7.417-.004 14.839 0 22.26 4.85.85 9.704 1.982 14.546 2.866h1.453v-28zm-1.886 9.07-2.246 9.43-1.844-.145c-.423-2.106-.916-4.199-1.295-6.314-.372 2.055-.856 4.09-1.282 6.133-.61-.032-1.224-.07-1.838-.112-.528-2.799-1.149-5.58-1.642-8.385.544-.025 1.091-.047 1.635-.066.328 2.026.7 4.043.986 6.072.449-2.08.907-4.16 1.352-6.24.605-.036 1.21-.061 1.813-.093.424 2.147.856 4.29 1.314 6.428.36-2.207.757-4.408 1.142-6.613a75.758 75.758 0 0 0 1.905-.095zM35 20.003h10v20H35v-2h8v-1h-8v-2h8v-1h-8v-2h8v-1h-8v-2h8v-1h-8v-1.996h8v-1.004h-8v-2h8v-1h-8z"/></g></svg>