<?xml version="1.0" encoding="UTF-8" standalone="no"?>
<!-- Created with Inkscape (http://www.inkscape.org/) -->

<svg
   xmlns:dc="http://purl.org/dc/elements/1.1/"
   xmlns:cc="http://creativecommons.org/ns#"
   xmlns:rdf="http://www.w3.org/1999/02/22-rdf-syntax-ns#"
   xmlns:svg="http://www.w3.org/2000/svg"
   xmlns="http://www.w3.org/2000/svg"
   xmlns:sodipodi="http://sodipodi.sourceforge.net/DTD/sodipodi-0.dtd"
   xmlns:inkscape="http://www.inkscape.org/namespaces/inkscape"
   width="64"
   height="64"
   viewBox="0 0 16.933333 16.933334"
   version="1.1"
   id="svg3222"
   inkscape:version="0.92.4 (5da689c313, 2019-01-14)"
   sodipodi:docname="application-pdf.svg">
  <defs
     id="defs3216">
    <linearGradient
       id="linearGradient3242-6-6">
      <stop
         id="stop3244-3-4"
         style="stop-color:#f8b17e;stop-opacity:1"
         offset="0" />
      <stop
         id="stop3246-2-3"
         style="stop-color:#e35d4f;stop-opacity:1"
         offset="0.26238" />
      <stop
         id="stop3248-0-3"
         style="stop-color:#c6262e;stop-opacity:1"
         offset="0.66093999" />
      <stop
         id="stop3250-6-3"
         style="stop-color:#690b54;stop-opacity:1"
         offset="1" />
    </linearGradient>
    <linearGradient
       id="linearGradient2490-6-6">
      <stop
         id="stop2492-1-04"
         style="stop-color:#791235;stop-opacity:1"
         offset="0" />
      <stop
         id="stop2494-0-8"
         style="stop-color:#dd3b27;stop-opacity:1"
         offset="1" />
    </linearGradient>
    <linearGradient
       id="linearGradient3316-1">
      <stop
         id="stop3318-0"
         style="stop-color:#ffffff;stop-opacity:1;"
         offset="0" />
      <stop
         offset="0.09090909"
         style="stop-color:#ffffff;stop-opacity:0.23529412;"
         id="stop3320-8" />
      <stop
         id="stop3322-1"
         style="stop-color:#ffffff;stop-opacity:0.15686275;"
         offset="0.9545455" />
      <stop
         id="stop3324-6"
         style="stop-color:#ffffff;stop-opacity:0.39215687;"
         offset="1" />
    </linearGradient>
  </defs>
  <sodipodi:namedview
     id="base"
     pagecolor="#ffffff"
     bordercolor="#666666"
     borderopacity="1.0"
     inkscape:pageopacity="0.0"
     inkscape:pageshadow="2"
     inkscape:zoom="11.2"
     inkscape:cx="31.797994"
     inkscape:cy="55.30684"
     inkscape:document-units="mm"
     inkscape:current-layer="layer1"
     showgrid="true"
     units="px"
     inkscape:window-width="1024"
     inkscape:window-height="576"
     inkscape:window-x="27"
     inkscape:window-y="54"
     inkscape:window-maximized="0">
    <inkscape:grid
       type="xygrid"
       id="grid903" />
  </sodipodi:namedview>
  <metadata
     id="metadata3219">
    <rdf:RDF>
      <cc:Work
         rdf:about="">
        <dc:format>image/svg+xml</dc:format>
        <dc:type
           rdf:resource="http://purl.org/dc/dcmitype/StillImage" />
        <dc:title></dc:title>
      </cc:Work>
    </rdf:RDF>
  </metadata>
  <g
     inkscape:label="Layer 1"
     inkscape:groupmode="layer"
     id="layer1"
     transform="translate(0,-280.06665)">
    <g
       transform="matrix(0.26458333,0,0,0.26458333,-471.48749,246.19998)"
       id="application-pdf_64"
       inkscape:label="#g12606">
      <g
         inkscape:label="#g4141"
         id="dcdkjncd"
         transform="translate(1782,-860.36218)">
        <g
           inkscape:label="Layer 1"
           id="layer1-1-7-7"
           transform="matrix(1.3428376,0,0,1.340755,-0.22814694,988.19153)" />
        <rect
           style="opacity:0.75;fill:none;fill-opacity:0.56122448;stroke:none;stroke-width:1;stroke-linecap:butt;stroke-linejoin:miter;stroke-miterlimit:4;stroke-dasharray:none;stroke-dashoffset:0;stroke-opacity:1"
           id="rect4139-9"
           width="64"
           height="63.999996"
           x="0"
           y="988.36218"
           rx="2.17285e-05"
           ry="2.17285e-05" />
      </g>
      <g
         id="layer1-39"
         inkscape:label="Layer 1"
         transform="translate(1782,144)">
        <path
           inkscape:connector-curvature="0"
           style="color:#000000;display:inline;overflow:visible;visibility:visible;fill:#f35450;fill-opacity:1;fill-rule:nonzero;stroke:none;stroke-width:0.99999994;stroke-linecap:round;stroke-linejoin:round;stroke-miterlimit:4;stroke-dasharray:none;stroke-dashoffset:0;stroke-opacity:1;marker:none;enable-background:accumulate"
           id="path4160-06"
           d="m 9,-14.999981 c 10.540934,0 45.999946,0.0038 45.999946,0.0038 L 55,44 C 55,44 24.333334,44 9,44 9,24.333312 9,4.6666548 9,-15 Z"
           sodipodi:nodetypes="ccccc" />
        <path
           inkscape:connector-curvature="0"
           style="color:#000000;display:inline;overflow:visible;visibility:visible;fill:none;fill-opacity:1;fill-rule:nonzero;stroke:#8c0b08;stroke-width:0.99999994;stroke-linecap:round;stroke-linejoin:round;stroke-miterlimit:4;stroke-dasharray:none;stroke-dashoffset:0;stroke-opacity:0.7254902;marker:none;enable-background:accumulate"
           id="path4160-7-4"
           d="m 8.5,-15.5 c 10.770086,0 46.999944,0.0038 46.999944,0.0038 L 55.5,44.499978 c 0,0 -31.333333,0 -47,0 0,-19.999999 0,-39.9999995 0,-59.999997 z"
           sodipodi:nodetypes="ccccc" />
        <path
           inkscape:connector-curvature="0"
           style="color:#bebebe;display:inline;overflow:visible;visibility:visible;fill:#ffffff;fill-opacity:1;fill-rule:nonzero;stroke:none;stroke-width:0.99999994;marker:none;enable-background:accumulate"
           d="m 30.293034,0 c -0.64576,0 -1.24965,0.31609 -1.39574,0.83777 -0.54253,1.99999 0.0648,5.09302 1.07739,8.9469004 l -0.3055,0.7461196 c -0.77541,1.89016 -1.74465,3.77259 -2.59694,5.44308 -3.51893,6.88515 -6.25648,10.60013 -8.08184,10.86043 l -0.007,-0.0756 c -0.0396,-0.85885 1.5453,-3.07309 3.69357,-4.83364 0.22407,-0.18122 1.18026,-1.10629 1.18026,-1.10629 0,0 -1.29067,0.68133 -1.58066,0.85704 -2.69188,1.60681 -4.03139,3.21671 -4.24991,4.28533 -0.0648,0.3174 -0.0232,0.70797 0.25723,0.86832 l 0.68826,0.34572 c 1.87368,0.93793 4.17771,-1.52829 7.2408,-6.8967 3.11694,-1.02251 7.00603,-1.9852 10.54686,-2.50687 3.16966,1.81107 6.8054,2.67336 8.2024,2.30104 0.26583,-0.0703 0.54545,-0.27894 0.68825,-0.47114 0.112,-0.17682 0.26856,-0.88439 0.26856,-0.88439 0,0 -0.26283,0.35766 -0.47922,0.46309 -0.88412,0.41735 -3.67542,-0.27894 -6.53969,-1.68035 2.4766,-0.2636 4.53977,-0.27376 5.64242,0.0787 1.40036,0.44701 1.40158,0.90521 1.38289,0.99856 0.0189,-0.0769 0.0816,-0.38386 0.0739,-0.51455 -0.0318,-0.33608 -0.13542,-0.63619 -0.38913,-0.8844 -0.51837,-0.51071 -1.79832,-0.76807 -3.54242,-0.79113 -1.3146,-0.0143 -2.89094,0.1008 -4.60205,0.34571 -0.78417,-0.45029 -1.61163,-0.9453 -2.26732,-1.55814 -1.66276,-1.55298 -3.05644,-3.70916 -3.92189,-6.1264897 0.0591,-0.23173 0.11562,-0.45817 0.16722,-0.68662 0.24055,-1.0818103 0.41323,-4.6583703 0.41323,-4.6583703 0,0 -0.68508,2.68692 -0.7927,3.09218 -0.0692,0.25701 -0.15521,0.53131 -0.25407,0.8168703 -0.525,-1.8451303 -0.79112,-3.6332403 -0.79112,-4.9896203 0,-0.3833 0.0329,-1.12918 0.14147,-1.71897 0.0529,-0.42063 0.20525,-0.63905 0.36345,-0.74449 0.31299,0.0759 0.66335,0.5559 1.02911,1.35875 0.31409,0.69412 0.29425,1.49801 0.29425,1.99553 0,0 0.33685,-1.23198 0.25888,-1.96014 -0.0475,-0.43713 -0.46334,-1.56168 -1.34747,-1.5485 h -0.0724 l -0.39395,-0.004 z m 0.3007,11.17078 c 0.91492,1.83963 2.17676,3.5866 3.83192,4.98802 0.36899,0.31191 0.7616,0.60865 1.16576,0.88761 -3.00597,0.55903 -6.16291,1.34542 -9.09645,2.5744 0.53047,-0.94233 1.10405,-1.96903 1.69162,-3.0761 1.13783,-2.15155 1.8273,-3.81107 2.40715,-5.37393 z"
           id="path13620-9"
           clip-path="none" />
      </g>
    </g>
  </g>
</svg>
