<svg height="64" viewBox="0 0 64 64" width="64" xmlns="http://www.w3.org/2000/svg">
  <path d="m0-.012027h64v64h-64z" fill="none" opacity=".75" />
  <path d="m8.9992 1.0016h46.002v59h-45.998v-59z" fill="#2a1180" stroke-width="3.7796" />
  <path d="m8.5003.49889 46.999.00378v59.997h-46.996v-60.001z" fill="none" stroke="#7c61db" stroke-linecap="round" stroke-linejoin="round" stroke-width="1.0016" />
  <g fill="#fff">
    <g transform="matrix(.04049083 0 0 .04049083 11.272256 5.438335)">
      <path d="m402.927 450.435c-20.773-28.727-61.722-47.584-99.879-47.584-63.048 0-121.68 38.732-121.68 145.021v178.196c0 12.077 9.797 21.801 21.874 21.801 12.085 0 21.881-9.797 21.881-21.801v-178.196c-.022-80.778 38.959-101.341 77.925-101.341s77.933 32.391 77.933 87.057v192.48c0 12.077 9.796 21.801 21.873 21.801h.095.095c12.078 0 21.874-9.724 21.874-21.801v-192.48c0-54.666 38.966-87.057 77.932-87.057 24.738 0 77.925 10.987 77.925 87.057l1.48 64.647c0 119.452 80.177 149.634 131.199 149.634s127.453-35.242 129.012-140.93v-169.122c0-29.092-43.878-29.092-43.878 0v169.122c0 80.177-59.623 97.255-85.134 97.255s-87.466-12.018-87.466-105.959l-1.458-61.109c0-90.605-56.853-137.919-121.68-137.919-38.157 0-79.149 22.501-99.923 51.228z" />
      <path d="m621.197 340.896c0-43.733 32.209-91.11 87.903-91.11s87.795 47.377 87.795 91.11c0 32.8 43.835 32.8 43.835 0 0-76.533-57.713-134.843-131.63-134.843-73.916 0-131.614 58.31-131.614 134.843.007 32.8 43.711 32.8 43.711 0z" />
      <path d="m742.185 342.117c0-15.949-12.916-28.864-28.864-28.864s-28.864 12.915-28.864 28.864c0 15.948 12.916 28.863 28.864 28.863s28.864-12.915 28.864-28.863z" />
    </g>
    <g stroke-width=".832075">
      <path d="m20.052723 40.025453 2.320712 5.792028 2.320711-5.792028h1.213986v7.098647h-.936085v-2.764377l.08776-2.983772-2.330463 5.748149h-.71669l-2.325587-5.733523.09263 2.969146v2.764377h-.936086v-7.098647z" />
      <path d="m29.652474 43.959936q-1.204235-.346156-1.75516-.848327-.54605-.507046-.54605-1.248114 0-.838576.667936-1.384626.672811-.550925 1.745409-.550925.731316 0 1.301743.282776.575303.282775.887331.780071.316904.497295.316904 1.087224h-.940961q0-.643559-.409537-1.009217-.409537-.370534-1.15548-.370534-.692313 0-1.082349.307153-.38516.302278-.38516.843452 0 .433915.365658.736192.370534.297402 1.25299.54605.88733.248647 1.384626.550925.50217.297402.741067.697189.243772.399786.243772.94096 0 .862954-.672811 1.384627-.672811.516797-1.799039.516797-.731316 0-1.365124-.277901-.633808-.282775-.979965-.77032-.341281-.487544-.341281-1.106726h.940961q0 .643559.472918 1.018968.477794.370534 1.272491.370534.741068 0 1.135979-.302278.394911-.302277.394911-.82395 0-.521672-.365659-.804448-.365658-.287651-1.32612-.565552z" />
      <path d="m38.706174 44.871644q-.131637 1.126228-.833701 1.740534-.697189.609431-1.857544.609431-1.257865 0-2.018434-.901958-.755694-.901957-.755694-2.413345v-.682562q0-.989715.351032-1.740533.355907-.750819 1.004341-1.150605.648434-.404662 1.501637-.404662 1.131103 0 1.813665.633808.682563.628932.794698 1.745409h-.940961q-.121886-.848328-.531423-1.228612-.404662-.380285-1.135979-.380285-.897082 0-1.409003.663061-.507047.66306-.507047 1.886796v.687438q0 1.15548.482669 1.838043.482669.682562 1.350499.682562.780071 0 1.194483-.351032.419289-.355908.555801-1.233488z" />
      <path d="m42.299376 42.745951 1.70153-2.720498h1.101851l-2.242705 3.520071 2.296335 3.578576h-1.111602l-1.745409-2.769253-1.75516 2.769253h-1.106726l2.30121-3.578576-2.24758-3.520071h1.096975z" />
    </g>
  </g>
</svg>
