<svg xmlns="http://www.w3.org/2000/svg" width="64" height="64" viewBox="0 0 16.933 16.933"><g transform="translate(0 -261.504) scale(.26458)"><path fill="#fafafa" d="m8.991 989.371 46.01.004v57.985H8.992v-57.989z"/><path fill="none" stroke="#4f6698" stroke-linejoin="round" stroke-opacity=".267" stroke-width=".745" d="m6.5.5 35 .003v44.003h-35V.5z" transform="matrix(1.34284 0 0 1.34075 -.228 988.192)"/><rect width="64" height="64" y="988.362" fill="none" opacity=".75" rx="0" ry="0"/></g><path fill="#f3f3f3" stroke="#cdd5e5" stroke-width=".265" d="M13.89 7.938a5.41 5.41 0 0 0-5.424-5.424 5.41 5.41 0 0 0-5.424 5.424 5.41 5.41 0 0 0 5.424 5.424 5.41 5.41 0 0 0 5.424-5.424zm-3.44 0c0 1.093-.87 1.985-1.984 1.985A1.975 1.975 0 0 1 6.48 7.938c0-1.092.805-1.984 1.985-1.984 1.18 0 1.984.914 1.984 1.984z"/><path fill="#fff" d="M8.466 5.822a2.117 2.117 0 1 0 .001 4.235 2.117 2.117 0 0 0-.001-4.235zm0 1.058a1.059 1.059 0 1 1-.001 2.118 1.059 1.059 0 0 1 0-2.118z" opacity=".5" overflow="visible" style="marker:none"/><path fill="none" stroke="#cdd5e5" stroke-linejoin="round" stroke-width=".265" d="M8.466 5.954a1.985 1.985 0 1 0 .001 3.97 1.985 1.985 0 0 0-.001-3.97zm0 .992a.993.993 0 1 1-.001 1.985.993.993 0 0 1 0-1.985z" overflow="visible" style="marker:none"/></svg>