<svg xmlns="http://www.w3.org/2000/svg" width="64" height="64" viewBox="0 0 16.933 16.933"><rect width="16.933" height="16.933" y="-.003" fill="none" opacity=".75" rx="0" ry="0"/><path fill="#20aaf3" d="M2.381.265h12.171v15.61H2.382V.265z" color="#000" overflow="visible"/><path fill="none" stroke="#2584b7" stroke-linecap="round" stroke-linejoin="round" stroke-width=".265" d="m2.249.132 12.435.001v15.874H2.25V.132z" color="#000" overflow="visible"/><g fill="#fff"><path d="M5.168 5.556a.16.16 0 0 0-.14.157v2.861a.16.16 0 0 0 .156.158h1.43v.529H5.557v.529h1.851V8.202H5.674a.113.113 0 0 1-.108-.108v-1.9c-.002-.05.034-.1.082-.108a.103.103 0 0 1 .025 0h2.944c.054 0 .107.05.107.107v.686h.537V5.713a.163.163 0 0 0-.157-.157" opacity=".5"/><path d="M7.815 7.144a.165.165 0 0 0-.143.157v2.86c0 .083.076.158.16.158h1.427v.792h1.059v-.792h1.429a.164.164 0 0 0 .158-.158v-2.86a.165.165 0 0 0-.158-.158m-3.453.53a.064.064 0 0 1 .02 0h2.949a.11.11 0 0 1 .106.106v1.905a.11.11 0 0 1-.106.106h-2.95a.11.11 0 0 1-.106-.106V7.779a.11.11 0 0 1 .087-.107m-.093 3.175v.53h3.175v-.53"/></g></svg>