<?xml version="1.0" encoding="UTF-8" standalone="no"?>
<svg
   xmlns:dc="http://purl.org/dc/elements/1.1/"
   xmlns:cc="http://creativecommons.org/ns#"
   xmlns:rdf="http://www.w3.org/1999/02/22-rdf-syntax-ns#"
   xmlns:svg="http://www.w3.org/2000/svg"
   xmlns="http://www.w3.org/2000/svg"
   xmlns:sodipodi="http://sodipodi.sourceforge.net/DTD/sodipodi-0.dtd"
   xmlns:inkscape="http://www.inkscape.org/namespaces/inkscape"
   id="svg3844"
   height="64"
   width="64"
   version="1.1"
   sodipodi:docname="application-pgp.svg"
   inkscape:version="0.92.4 (5da689c313, 2019-01-14)">
  <sodipodi:namedview
     pagecolor="#ffffff"
     bordercolor="#666666"
     borderopacity="1"
     objecttolerance="10"
     gridtolerance="10"
     guidetolerance="10"
     inkscape:pageopacity="0"
     inkscape:pageshadow="2"
     inkscape:window-width="1366"
     inkscape:window-height="713"
     id="namedview36"
     showgrid="false"
     inkscape:zoom="3.6875"
     inkscape:cx="-13.372544"
     inkscape:cy="29.407978"
     inkscape:window-x="0"
     inkscape:window-y="25"
     inkscape:window-maximized="1"
     inkscape:current-layer="svg3844" />
  <defs
     id="defs3846" />
  <metadata
     id="metadata3849">
    <rdf:RDF>
      <cc:Work
         rdf:about="">
        <dc:format>image/svg+xml</dc:format>
        <dc:type
           rdf:resource="http://purl.org/dc/dcmitype/StillImage" />
        <dc:title />
      </cc:Work>
    </rdf:RDF>
  </metadata>
  <g
     transform="translate(4.0314962e-7,-988.36218)"
     id="text-x-preview_64"
     inkscape:label="#g4141">
    <g
       transform="matrix(1.3428376,0,0,1.340755,-0.22814694,988.19153)"
       id="layer1-1-7"
       inkscape:label="Layer 1">
      <path
         inkscape:connector-curvature="0"
         style="display:inline;fill:#fafafa;fill-opacity:1;stroke:none;stroke-width:0.99992186;stroke-linecap:butt;stroke-linejoin:round;stroke-miterlimit:4;stroke-dasharray:none;stroke-dashoffset:0;stroke-opacity:0.42452829"
         id="path4160-2"
         d="m 6.8655256,0.87983895 c 7.8515454,0 34.2636264,0.002756 34.2636264,0.002756 l 4e-5,43.24831005 c 0,0 -22.842445,0 -34.2636664,0 0,-14.417024 0,-28.834046 0,-43.25106605 z"
         sodipodi:nodetypes="ccccc" />
      <path
         inkscape:connector-curvature="0"
         style="display:inline;fill:none;fill-opacity:1;stroke:#4f6698;stroke-width:0.74521309;stroke-linecap:butt;stroke-linejoin:round;stroke-miterlimit:4;stroke-dasharray:none;stroke-dashoffset:0;stroke-opacity:0.26666667"
         id="path4160-3-1"
         d="m 6.4999609,0.49996093 c 8.0202951,0 35.0000391,0.0028 35.0000391,0.0028 l 4.2e-5,44.00280307 c 0,0 -23.333387,0 -35.0000811,0 0,-14.668535 0,-29.33707 0,-44.00560307 z"
         sodipodi:nodetypes="ccccc" />
    </g>
    <rect
       ry="2.17285e-05"
       rx="2.17285e-05"
       y="988.36218"
       x="0"
       height="63.999996"
       width="64"
       id="rect4139"
       style="opacity:0.75;fill:none;fill-opacity:0.56122448;stroke:none;stroke-width:1;stroke-linecap:butt;stroke-linejoin:miter;stroke-miterlimit:4;stroke-dasharray:none;stroke-dashoffset:0;stroke-opacity:1" />
  </g>
  <path
     d="m 31.999992,19.99996 c -4.432,0 -8,3.568 -8,8 l 0,4 -1,0 0,5.6875 0.40625,-0.53125 c 0.581327,-0.7807 2.130809,-1.8958 3.34375,-2.375 0.639031,-0.2525 2.173397,-0.52955 3.90625,-0.71875 2.610848,-0.2934 7.543628,-0.0625 9.34375,-2.0625 l 0,-4 c 0,-4.432 -3.568,-8 -8,-8 z m 0.65625,0.96875 c 0.379167,0.02212 0.750798,0.06626 1.125,0.15625 1.344371,0.3231 1.496153,0.6343 0.1875,0.375 -2.058992,-0.4081 -4.793765,0.5085 -6.46875,2.1875 -0.50085,0.5021 -1.132724,1.33345 -1.40625,1.84375 -0.563565,1.0515 -0.474902,0.37425 0.125,-0.90625 1.096804,-2.34115 3.783331,-3.811124 6.4375,-3.65625 z m -0.65625,3.03125 c 2.216,0 4,1.784 4,4 l 0,4 -8,0 0,-4 c 0,-2.216 1.784,-4 4,-4 z m 9,9.15625 -1.0625,0.875 c -0.577501,0.4914 -1.481249,1.1639 -2.03125,1.5 -1.125633,0.6879 -3.794346,1.65625 -4.59375,1.65625 -0.300686,0 -0.47696,0.0728 -0.40625,0.1875 0.13326,0.216 1.731037,0.11885 3.40625,-0.21875 0.550002,-0.1107 1.826248,-0.6098 2.84375,-1.125 l 1.84375,-0.9375 0,-0.96875 0,-0.96875 z m 0,2.15625 -0.5625,0.78125 c -1.865716,2.5717 -4.903768,3.9967 -9.125,4.25 -2.819488,0.1691 -1.787198,0.49 1.59375,0.5 2.290276,0.0032 2.80651,-0.06645 4.1875,-0.53125 0.863973,-0.2907 1.5814,-0.51275 1.625,-0.46875 0.157322,0.1576 -1.53296,1.55625 -2.46875,2.03125 -1.793001,0.9101 -3.01394,1.1655 -6.25,1.3125 -2.298805,0.1044 -3.242571,0.22325 -3.6875,0.46875 -0.566543,0.312 -0.192185,0.33375 7.03125,0.34375 l 7.65625,0 0,-8.6875 z"
     id="rect3164"
     style="color:#000000;fill:#0093dd;fill-opacity:1;fill-rule:nonzero;stroke:none;stroke-width:1;marker:none;visibility:visible;display:inline;overflow:visible;enable-background:accumulate" />
</svg>
