<?xml version="1.0" encoding="UTF-8" standalone="no"?>
<!-- Created with Inkscape (http://www.inkscape.org/) -->

<svg
   xmlns:dc="http://purl.org/dc/elements/1.1/"
   xmlns:cc="http://creativecommons.org/ns#"
   xmlns:rdf="http://www.w3.org/1999/02/22-rdf-syntax-ns#"
   xmlns:svg="http://www.w3.org/2000/svg"
   xmlns="http://www.w3.org/2000/svg"
   xmlns:sodipodi="http://sodipodi.sourceforge.net/DTD/sodipodi-0.dtd"
   xmlns:inkscape="http://www.inkscape.org/namespaces/inkscape"
   width="64"
   height="64"
   viewBox="0 0 16.933333 16.933334"
   version="1.1"
   id="svg3222"
   inkscape:version="0.92.4 (5da689c313, 2019-01-14)"
   sodipodi:docname="application-pgp-signature.svg">
  <defs
     id="defs3216" />
  <sodipodi:namedview
     id="base"
     pagecolor="#ffffff"
     bordercolor="#666666"
     borderopacity="1.0"
     inkscape:pageopacity="0.0"
     inkscape:pageshadow="2"
     inkscape:zoom="5.6"
     inkscape:cx="28.739922"
     inkscape:cy="41.42185"
     inkscape:document-units="mm"
     inkscape:current-layer="layer1"
     showgrid="false"
     units="px"
     inkscape:window-width="1366"
     inkscape:window-height="713"
     inkscape:window-x="0"
     inkscape:window-y="25"
     inkscape:window-maximized="1" />
  <metadata
     id="metadata3219">
    <rdf:RDF>
      <cc:Work
         rdf:about="">
        <dc:format>image/svg+xml</dc:format>
        <dc:type
           rdf:resource="http://purl.org/dc/dcmitype/StillImage" />
        <dc:title />
      </cc:Work>
    </rdf:RDF>
  </metadata>
  <g
     inkscape:label="Layer 1"
     inkscape:groupmode="layer"
     id="layer1"
     transform="translate(0,-280.06665)">
    <g
       transform="matrix(0.26458333,0,0,0.26458333,1.0666667e-7,18.562493)"
       id="text-x-preview_64"
       inkscape:label="#g4141">
      <g
         transform="matrix(1.3428376,0,0,1.340755,-0.22814694,988.19153)"
         id="layer1-1-7"
         inkscape:label="Layer 1">
        <path
           inkscape:connector-curvature="0"
           style="display:inline;fill:#fafafa;fill-opacity:1;stroke:none;stroke-width:0.99992186;stroke-linecap:butt;stroke-linejoin:round;stroke-miterlimit:4;stroke-dasharray:none;stroke-dashoffset:0;stroke-opacity:0.42452829"
           id="path4160-2"
           d="m 6.8655256,0.87983895 c 7.8515454,0 34.2636264,0.002756 34.2636264,0.002756 l 4e-5,43.24831005 c 0,0 -22.842445,0 -34.2636664,0 0,-14.417024 0,-28.834046 0,-43.25106605 z"
           sodipodi:nodetypes="ccccc" />
        <path
           inkscape:connector-curvature="0"
           style="display:inline;fill:none;fill-opacity:1;stroke:#4f6698;stroke-width:0.74521309;stroke-linecap:butt;stroke-linejoin:round;stroke-miterlimit:4;stroke-dasharray:none;stroke-dashoffset:0;stroke-opacity:0.26666667"
           id="path4160-3-1"
           d="m 6.4999609,0.49996093 c 8.0202951,0 35.0000391,0.0028 35.0000391,0.0028 l 4.2e-5,44.00280307 c 0,0 -23.333387,0 -35.0000811,0 0,-14.668535 0,-29.33707 0,-44.00560307 z"
           sodipodi:nodetypes="ccccc" />
      </g>
      <rect
         ry="2.17285e-05"
         rx="2.17285e-05"
         y="988.36218"
         x="0"
         height="63.999996"
         width="64"
         id="rect4139"
         style="opacity:0.75;fill:none;fill-opacity:0.56122448;stroke:none;stroke-width:1;stroke-linecap:butt;stroke-linejoin:miter;stroke-miterlimit:4;stroke-dasharray:none;stroke-dashoffset:0;stroke-opacity:1" />
    </g>
    <g
       style="fill:#57688e;fill-opacity:0.47058824;stroke-width:0.42708093"
       transform="matrix(0.61951566,0,0,0.61951566,3.5025746,-359.00862)"
       id="g10">
      <g
         transform="matrix(9.5e-4,-1.3e-4,-1.3e-4,-9.5e-4,3.256,1044.43)"
         id="g6"
         style="fill:#57688e;fill-opacity:0.47058824;stroke-width:0.42708093">
        <path
           inkscape:connector-curvature="0"
           d="m 9471.8,4996 c -30.7,-15.4 -172.7,-143.9 -314.6,-285.9 l -259,-260.9 -71,65.2 c -99.8,88.3 -203.4,119 -308.9,88.3 C 8445.4,4581.6 8255.4,4397.4 7002.6,3146.5 6212.1,2358 5567.5,1705.6 5567.5,1694.1 c 0,-9.6 239.8,-259 531.4,-550.6 l 533.4,-533.4 934.4,934.4 c 514.2,514.2 940.1,928.6 947.8,920.9 25,-24.9 11.5,-483.5 -19.2,-627.4 C 8480,1759.3 8430.1,1621.2 8386,1531 8307.3,1369.8 8299.7,1360.2 7140.8,197.6 6499.9,-445.1 5964.6,-991.9 5953.1,-1014.9 c -32.6,-63.3 -24.9,-191.9 15.4,-270.5 67.1,-132.4 270.5,-199.5 401,-130.5 90.2,48 2388.6,2369.4 2469.2,2496.1 234.1,360.7 341.5,849.9 297.4,1352.6 -17.3,199.5 -49.9,393.3 -88.2,533.4 -11.5,38.4 23,80.6 237.9,297.4 203.4,207.2 251.3,266.7 262.9,326.2 24.9,126.6 -3.8,203.4 -115.1,318.5 l -103.6,107.4 276.3,278.2 c 226.4,230.2 276.3,291.6 287.8,351.1 47.7,253.1 -194,454.6 -422.3,351"
           id="path2"
           style="fill:#57688e;fill-opacity:0.47058824;stroke-width:0.42708093" />
        <path
           inkscape:connector-curvature="0"
           d="M 3253.7,-602.4 C 1605.6,-2252.4 1369.7,-2498 1208.5,-2714.8 888.1,-3146.5 510.1,-3819.9 233.9,-4445.4 c -178.4,-401 -178.4,-362.6 0,-297.4 550.6,203.4 1281.6,556.4 1717.1,830.7 425.9,268.6 502.7,341.5 2417.4,2256.2 L 6210.2,188 5673,725.2 c -295.5,295.5 -541,537.2 -546.8,537.2 -5.8,0 -848,-840.3 -1872.5,-1864.8"
           id="path4"
           style="fill:#57688e;fill-opacity:0.47058824;stroke-width:0.42708093" />
      </g>
      <path
         inkscape:connector-curvature="0"
         d="m 7.935,1047.18 c -0.234,0.05 -0.494,0.252 -0.62,0.485 -0.034,0.061 -0.088,0.198 -0.121,0.301 -0.031,0.106 -0.061,0.193 -0.063,0.196 -0.018,0.023 -0.465,0.13 -0.728,0.175 -0.618,0.108 -0.786,0.148 -0.847,0.205 -0.119,0.11 -0.027,0.22 0.141,0.171 0.045,-0.014 0.236,-0.052 0.42,-0.083 0.184,-0.032 0.465,-0.09 0.625,-0.126 0.16,-0.038 0.294,-0.063 0.301,-0.056 0.007,0.01 -0.02,0.135 -0.063,0.285 l -0.076,0.27 -0.169,0.074 c -0.092,0.04 -0.225,0.11 -0.294,0.157 -0.211,0.139 -0.252,0.314 -0.103,0.427 0.081,0.061 0.305,0.059 0.445,0 0.124,-0.056 0.193,-0.135 0.29,-0.339 0.052,-0.106 0.092,-0.162 0.124,-0.169 0.025,-0.01 0.247,-0.052 0.494,-0.103 0.247,-0.05 0.472,-0.097 0.501,-0.103 0.047,-0.011 0.052,-0.01 0.038,0.036 -0.009,0.027 -0.049,0.106 -0.092,0.175 -0.043,0.07 -0.076,0.153 -0.076,0.186 0,0.07 0.058,0.139 0.106,0.121 0.018,-0.01 0.043,-0.014 0.054,-0.014 0.011,0 0.061,-0.036 0.11,-0.081 0.092,-0.083 0.315,-0.49 0.315,-0.575 0,-0.043 0.034,-0.054 0.054,-0.02 0.007,0.011 0.059,0.032 0.115,0.045 0.079,0.02 0.101,0.036 0.101,0.072 0,0.07 0.115,0.171 0.216,0.191 0.079,0.014 0.18,0 0.288,-0.047 0.038,-0.016 0.04,-0.011 0.027,0.047 -0.009,0.036 -0.074,0.15 -0.144,0.256 -0.148,0.22 -0.328,0.571 -0.375,0.726 -0.038,0.133 -0.022,0.231 0.047,0.279 0.063,0.04 0.166,0.022 0.22,-0.036 0.047,-0.052 0.303,-0.593 0.398,-0.84 0.067,-0.173 0.099,-0.22 0.252,-0.382 0.126,-0.132 0.166,-0.164 0.139,-0.112 -0.045,0.097 -0.043,0.171 0.007,0.216 0.106,0.097 0.258,0 0.391,-0.24 0.079,-0.144 0.137,-0.187 0.429,-0.324 l 0.153,-0.07 -0.016,0.083 c -0.009,0.045 -0.061,0.173 -0.115,0.283 -0.106,0.223 -0.126,0.364 -0.063,0.485 0.043,0.083 0.088,0.085 0.294,0.014 0.288,-0.097 0.663,-0.319 0.759,-0.447 0.133,-0.18 0.173,-0.353 0.092,-0.411 -0.083,-0.061 -0.13,-0.036 -0.236,0.119 -0.142,0.211 -0.317,0.375 -0.485,0.458 -0.079,0.041 -0.148,0.068 -0.155,0.061 -0.009,-0.01 0.171,-0.492 0.267,-0.719 0.02,-0.047 0.036,-0.106 0.036,-0.13 0,-0.063 -0.079,-0.135 -0.146,-0.135 -0.031,0 -0.18,0.061 -0.328,0.137 -0.308,0.153 -0.288,0.166 -0.209,-0.121 0.047,-0.177 0.031,-0.225 -0.076,-0.236 -0.103,-0.011 -0.144,0.023 -0.238,0.191 -0.061,0.114 -0.141,0.209 -0.296,0.353 -0.204,0.188 -0.213,0.195 -0.261,0.162 -0.072,-0.052 -0.112,-0.045 -0.288,0.043 -0.171,0.085 -0.227,0.097 -0.27,0.045 -0.036,-0.043 0.02,-0.065 0.333,-0.126 0.303,-0.059 0.341,-0.074 0.341,-0.137 0,-0.101 -0.083,-0.198 -0.231,-0.263 -0.256,-0.115 -0.285,-0.121 -0.398,-0.092 -0.121,0.032 -0.301,0.205 -0.326,0.312 -0.025,0.112 -0.101,0.079 -0.101,-0.045 0,-0.052 -0.063,-0.182 -0.099,-0.205 -0.076,-0.052 -0.2,0.061 -0.294,0.267 l -0.074,0.159 -0.166,0.036 c -0.216,0.047 -0.842,0.173 -0.926,0.189 -0.054,0.01 -0.063,0.01 -0.052,-0.027 0.009,-0.023 0.036,-0.121 0.063,-0.222 0.07,-0.278 0.09,-0.314 0.191,-0.35 0.121,-0.043 0.53,-0.218 0.636,-0.272 0.049,-0.025 0.15,-0.101 0.225,-0.169 0.227,-0.211 0.263,-0.407 0.101,-0.55 -0.045,-0.038 -0.103,-0.079 -0.13,-0.09 -0.083,-0.032 -0.287,-0.043 -0.386,-0.023 z m 0.288,0.31 c 0.045,0.045 0.045,0.047 0.005,0.133 -0.027,0.054 -0.09,0.117 -0.169,0.171 -0.137,0.094 -0.566,0.267 -0.58,0.236 -0.018,-0.052 0.119,-0.36 0.207,-0.458 0.117,-0.132 0.151,-0.146 0.337,-0.135 0.119,0.01 0.166,0.018 0.2,0.054 m -1.465,1.869 c -0.029,0.056 -0.106,0.097 -0.148,0.081 -0.049,-0.02 -0.036,-0.047 0.043,-0.088 0.103,-0.052 0.135,-0.05 0.106,0.01 z"
         id="path8"
         style="fill:#57688e;fill-opacity:0.47058824;stroke-width:0.42708093" />
    </g>
  </g>
</svg>
