<svg xmlns="http://www.w3.org/2000/svg" width="64" height="64"><g transform="translate(0 -988.362)"><path fill="#fafafa" d="m8.991 989.371 46.01.004v57.985H8.992v-57.989z"/><path fill="none" stroke="#4f6698" stroke-linejoin="round" stroke-opacity=".267" stroke-width=".745" d="m6.5.5 35 .003v44.003h-35V.5z" transform="matrix(1.34284 0 0 1.34075 -.228 988.192)"/><rect width="64" height="64" y="988.362" fill="none" opacity=".75" rx="0" ry="0"/></g><path fill="#ff8080" d="m39.53 18.004-6.406.818c.934.466 2.216.35 2.608 1.719zm1.641.109-3.683 2.132 6.318-.06zm-9.529 2.236c-.76.044-1.672.303-2.689.81-3.252 1.62-6.313 5.102-6.84 7.774-.527 2.67 1.68 3.52 4.933 1.9 3.252-1.62 6.313-5.094 6.84-7.765.362-1.836-.57-2.814-2.244-2.719zm3.034 5.02 7.64-.11-6.296-3.806c-.01 1.211-.66 3.289-1.344 3.915zm9.239-.037.081-3.91-6.582-.415zm-.355.955-7.63.118 5.541 3.746zm-9.284.409c-4.078 5.45-13.744 10.95-13.83 2.734l-.45 9.65c.103.584.85 2.321 3.343 2.791 6.32.22 10.643.303 19.34-.882.734-4.066.69-8.264.881-12.42-2.806 4.36-5.9 7.708-9.94 9.76 2.83-2.35 5.143-4.92 7.297-7.523l-6.64-4.11z"/></svg>