<svg xmlns="http://www.w3.org/2000/svg" width="64" height="64"><rect width="64" height="64" y="-.012" fill="none" opacity=".75" rx="0" ry="0"/><path fill="#4bc94b" d="M9 1.002H55v59H9.003v-59z" color="#000" overflow="visible"/><path fill="none" stroke="#389738" stroke-linecap="round" stroke-linejoin="round" stroke-width="1.002" d="m8.5.499 47 .004V60.5H8.502V.499z" color="#000" overflow="visible"/><path fill="#fff" d="M35 19.501c-.554 0-1 .446-1 1v2H22c-.554 0-1 .446-1 1v17c0 .554.446 1 1 1h17c.554 0 1-.446 1-1v-4h2c.554 0 1-.446 1-1v-15c0-.554-.446-1-1-1h-2zm0 1h7v15h-2v-12c0-.554-.446-1-1-1-1.556-.611-4.061-.985-4-2m-13 3h17v17H22zm1 2v4h15v-4zm0 6v1h7v-1zm8 0v1h7v-1zm-8 3v1h7v-1zm8 0v1h7v-1zm-8 3v1h7v-1zm8 0v1h7v-1z" color="#000" opacity=".9" style="isolation:auto;mix-blend-mode:normal"/></svg>