<svg xmlns="http://www.w3.org/2000/svg" width="64" height="64"><path fill="none" d="M0-.012h64v64H0z" opacity=".75"/><path fill="#2a1180" d="M9 1.002H55v59H9.003v-59z"/><path fill="none" stroke="#7c61db" stroke-linecap="round" stroke-linejoin="round" stroke-width="1.002" d="m8.5.499 47 .004V60.5H8.502V.499z"/><g fill="#fff"><path d="M27.587 30.458c-.841-1.164-2.5-1.927-4.044-1.927-2.553 0-4.927 1.568-4.927 5.872v7.215a.885.885 0 0 0 1.772 0v-7.215c-.001-3.27 1.577-4.103 3.155-4.103s3.155 1.311 3.155 3.525v7.793c0 .49.397.883.886.883h.008a.883.883 0 0 0 .885-.883v-7.793c0-2.214 1.578-3.525 3.156-3.525 1.002 0 3.155.444 3.155 3.525l.06 2.617c0 4.837 3.246 6.059 5.312 6.059s5.161-1.427 5.224-5.706v-6.848c0-1.178-1.776-1.178-1.776 0v6.848c0 3.246-2.415 3.938-3.448 3.938s-3.541-.487-3.541-4.29l-.06-2.475c0-3.669-2.301-5.585-4.926-5.585-1.545 0-3.205.911-4.046 2.075zM36.425 26.022c0-1.77 1.304-3.689 3.56-3.689s3.554 1.919 3.554 3.69c0 1.327 1.775 1.327 1.775 0 0-3.1-2.337-5.46-5.33-5.46s-5.33 2.36-5.33 5.46c.001 1.327 1.77 1.327 1.77 0z"/><path d="M41.324 26.072a1.168 1.168 0 1 0-2.337-.001 1.168 1.168 0 0 0 2.337 0z"/></g></svg>