<svg height="64" viewBox="0 0 64 64" width="64" xmlns="http://www.w3.org/2000/svg">
  <path d="m0-.012027h64v64h-64z" fill="none" opacity=".75" />
  <path d="m8.9992 1.0016h46.002v59h-45.998v-59z" fill="#3889e9" stroke-width="3.7796" />
  <path d="m8.5003.49889 46.999.00378v59.997h-46.996v-60.001z" fill="none" stroke="#60a1ed" stroke-linecap="round" stroke-linejoin="round" stroke-width="1.0016" />
  <path d="m31.067527 13.781592a1.8720183 1.8720183 0 0 0 -1.075792 3.404313c-1.373049 4.147459-3.87851 10.913619-6.41582 13.447391 0 0 3.712187 5.623131 3.722804 9.367168a1.4084372 1.4084372 0 0 0 -1.380128 1.415515c0 .778534.608672 1.397821 1.37305 1.415515v4.649966h9.381324v-4.649966h.01062c.778533 0 1.404898-.629904 1.404898-1.415515s-.626365-1.415515-1.404898-1.415515h-.02123c.01416-3.747575 3.76173-9.36363 3.76173-9.36363-2.53731-2.53731-5.042771-9.30347-6.415821-13.44739a1.8755571 1.8755571 0 0 0 -1.072252-3.407852v17.106496a1.8755571 1.8755571 0 1 1 -1.875557 0v-13.362459z" fill="#fff" stroke-width="3.53878" />
</svg>
