<svg xmlns="http://www.w3.org/2000/svg" width="64" height="64"><g transform="translate(0 15.999)"><path fill="none" d="M0-16h64v64H0z"/><rect width="46" height="54" x="-7" y="-59" fill="#ff8f2b" color="#bebebe" overflow="visible" ry="0" transform="rotate(90)"/><rect width="47" height="55" x="-7.5" y="-59.5" fill="none" stroke="#c06a1d" color="#bebebe" overflow="visible" ry="0" transform="rotate(90)"/><path d="M32-7h1v46h-1z" opacity=".15"/></g><path fill="#fff" fill-rule="evenodd" d="M35.002 17c1.257 4.953-4.435 6.449-6.489 9.533-1.399 2.102.687 4.36 3.53 6.925-1.109-2.506-4.869-4.699.002-8.546C38.118 20.118 35.002 17 35.002 17zm3.758 6.128s-10.27 2.564-5.365 8.216c1.447 1.667-.38 3.165-.38 3.165s3.674-1.896 1.987-4.272c-1.576-2.215-2.785-3.315 3.758-7.11zm1.818 10.096c-.36.001-.744.064-1.137.202-.315.111-.48.37-.48.37s.199-.08.643-.172c1.817-.379 4.42 2.432-1.21 5.356-.025.07-.112.148-.112.148 6.694-1.76 5.235-5.91 2.296-5.904zm-12.06.285c-.442-.01-2.348.018-4.626 1.12-3.08 1.49 7.617 2.168 13.154.711.576-.393 1.371-.734 1.371-.734s-2.265.405-4.521.595c-2.763.231-5.726.277-7.213.078-3.522-.47 1.93-1.766 1.93-1.766s-.032-.002-.096-.004zm-1.174 3.407c-5.08 1.686 2.828 3.6 9.928 1.523-.755-.266-1.234-.753-1.234-.753-3.471.669-5.476.647-8.016.385-1.964-.203-.678-1.155-.678-1.155zm.718 3.285c-4.613 1.288 2.806 3.95 8.68 1.434-.962-.373-1.652-.805-1.652-.805-2.62.495-3.834.534-6.212.263-1.962-.225-.816-.892-.816-.892zm-3.204 2.177c-2.071.064-6.123 1.926-2.418 2.528 11.974 1.94 21.827-.875 18.721-2.276 0 0 .849.7-.934 1.24-3.389 1.027-14.109 1.336-17.087.041-1.07-.466.937-1.111 1.569-1.248.658-.142 1.034-.116 1.034-.116-.186-.131-.502-.181-.886-.17zm18.204 1.78s-.377.969-4.464 1.738c-4.612.868-10.3.767-13.672.21 0 0 .69.572 4.24.8 5.402.346 13.7-.192 13.897-2.748z" clip-rule="evenodd" opacity=".5"/></svg>