<svg xmlns="http://www.w3.org/2000/svg" width="64" height="64" viewBox="0 0 16.933 16.933"><g transform="translate(0 -261.5) scale(.26458)"><path fill="#46a926" d="m8.991 989.37 46.01.004v57.985H8.992V989.37z"/><path fill="none" stroke="#347c1c" stroke-linejoin="round" stroke-width=".745" d="m6.5.5 35 .003v44.003h-35z" transform="matrix(1.3428 0 0 1.3408 -.228 988.19)"/><rect width="64" height="64" y="988.36" fill="none" opacity=".75" rx="0" ry="0"/></g><path fill="#fff" d="M7.753 4.404c-.489-.032-1.038.314-1.019.849-.057.318.25.555.236.842-.18.08-.318.08-.445.08H4.408v2.094c.165.36.503-.154.77-.098.509-.107.967.34.991.833.068.47-.114 1.082-.647 1.177a1.097 1.097 0 0 1-.834-.18c-.284-.172-.302.205-.28.39v2.133h2.434c.36-.165-.154-.502-.098-.769-.107-.509.34-.968.833-.992.47-.067 1.082.115 1.177.648.049.288-.005.597-.18.833-.172.285.205.303.39.28h1.794v-2.423c.17-.363.506.168.782.09a.823.823 0 0 0 .956-.674c.112-.492-.028-1.145-.566-1.318-.341-.116-.681.033-.97.208-.265.037-.194-.283-.202-.449V6.174H8.674c-.363-.169.168-.506.09-.781a.823.823 0 0 0-.674-.956 1.6 1.6 0 0 0-.337-.033z" color="#000"/></svg>