<svg xmlns="http://www.w3.org/2000/svg" viewBox="0 0 64 64"><g color="#000"><circle cx="37" cy="32" r="24" fill="#fbeaab" stroke="#eccf60" stroke-width="2"/><circle cx="37" cy="32" r="24" fill="#fbeaab"/><path fill="#f3c53d" stroke="#dbaa11" stroke-width="2" d="M5 7v50h50V37h-4.096A4.893 4.893 0 0 1 46 32.096v-.191a4.893 4.893 0 0 1 4.904-4.904H55v-20z"/><path fill="#f3c53d" d="M5 7v50h50V37h-4.096A4.893 4.893 0 0 1 46 32.096v-.191a4.893 4.893 0 0 1 4.904-4.904H55v-20z"/><path fill="#fff" d="M21 21v16.05a3.486 3.486 0 0 0-2.5-1.053c-1.939 0-3.5 1.561-3.5 3.5s1.561 3.5 3.5 3.5a3.486 3.486 0 0 0 3.49-3.4H22v-13.6h14v8.05a3.486 3.486 0 0 0-2.5-1.053c-1.939 0-3.5 1.561-3.5 3.5s1.561 3.5 3.5 3.5 3.5-1.561 3.5-3.5v-15.5H22zm1 2h14v2H22z" opacity=".75"/></g></svg>