<svg xmlns="http://www.w3.org/2000/svg" width="64" height="64" viewBox="0 0 16.933 16.933"><g transform="translate(0 -261.504) scale(.26458)"><path fill="#fafafa" d="m8.991 989.371 46.01.004v57.985H8.992v-57.989z"/><path fill="none" stroke="#4f6698" stroke-linejoin="round" stroke-opacity=".267" stroke-width=".745" d="m6.5.5 35 .003v44.003h-35V.5z" transform="matrix(1.34284 0 0 1.34075 -.228 988.192)"/><rect width="64" height="64" y="988.362" fill="none" opacity=".75" rx="0" ry="0"/></g><path fill="#f2f2f2" stroke="#4f6596" stroke-linecap="round" stroke-linejoin="round" stroke-opacity=".267" stroke-width=".529" d="M5.026 6.616v.406a1.058 1.058 0 0 1 .53.915 1.058 1.058 0 0 1-.53.916v.408h6.88v-.409a1.058 1.058 0 0 1-.529-.915 1.058 1.058 0 0 1 .528-.914v-.407H5.026zm3.44.263a1.058 1.058 0 0 1 1.058 1.058 1.058 1.058 0 0 1-1.058 1.059 1.058 1.058 0 0 1-1.059-1.059A1.058 1.058 0 0 1 8.466 6.88z" paint-order="stroke markers fill"/><path fill="#f2f2f2" d="M5.026 6.616v.406a1.058 1.058 0 0 1 .53.915 1.058 1.058 0 0 1-.53.916v.408h6.88v-.409a1.058 1.058 0 0 1-.529-.915 1.058 1.058 0 0 1 .528-.914v-.407H5.026zm3.44.263a1.058 1.058 0 0 1 1.058 1.058 1.058 1.058 0 0 1-1.058 1.059 1.058 1.058 0 0 1-1.059-1.059A1.058 1.058 0 0 1 8.466 6.88z" paint-order="stroke markers fill"/></svg>