<svg xmlns="http://www.w3.org/2000/svg" width="64" height="64" viewBox="0 0 16.933 16.933"><g transform="translate(0 -261.5) scale(.26458)"><path fill="#e34e2b" d="m8.991 989.37 46.01.004v57.985H8.992V989.37z"/><path fill="none" stroke="#7e2412" stroke-linejoin="round" stroke-width=".745" d="m6.5.5 35 .003v44.003h-35z" opacity=".75" transform="matrix(1.3428 0 0 1.3408 -.228 988.19)"/><rect width="64" height="64" y="988.36" fill="none" opacity=".75" rx="0" ry="0"/></g><g fill="#fff" stroke-width=".088"><path d="M8.633 4.366c-1.29.23-2.581.534-3.871.76v5.89c1.283.224 2.567.524 3.848.758h.385V4.366zM6.845 6.698c.254-.005.498.032.697.211.38.461.28 1.31-.284 1.586-.2.102-.43.088-.647.081-.001.345-.002.69-.001 1.034l-.525-.044c-.008-.941-.01-1.84 0-2.783.25-.03.505-.08.76-.085zm-.03.511c-.07-.001-.14.005-.205.008-.003.296-.005.592.014.887.175-.021.403-.003.503-.185a.64.64 0 0 0-.011-.579c-.073-.102-.185-.127-.3-.13zM9.26 5.292v.977c.086-.023.174-.045.265-.05v1.19h1.183c-.042.36-.203.731-.522.92-.273.184-.61.203-.926.133v.534h2.116v.264H9.26v.53h2.116v.264H9.26v.794h2.646V5.292H9.26zm.53.766a1.243 1.243 0 0 1 1.088 1.086H9.79V6.058z"/></g></svg>