<svg xmlns="http://www.w3.org/2000/svg" width="64" height="64" viewBox="0 0 16.933 16.933"><path fill="#fafafa" d="M2.379.268h12.173v15.343H2.38V.268Z" style="stroke-width:.26458"/><path fill="none" stroke="#4f6698" stroke-linejoin="round" stroke-opacity=".267" stroke-width=".264" d="M2.249.133h12.435v15.61H2.249Z"/><rect width="16.933" height="16.933" fill="none" opacity=".75" rx="0" ry="0" style="stroke-width:.26458"/><path fill="#b4bfd8" d="M4.233 2.381v.265h.844V2.38Zm.955 0v.265h.8V2.38Zm.91 0v.265h.7V2.38Zm.811 0v.265h.311V2.38Zm.422 0v.265h.688V2.38Zm.81 0v.265h1.777V2.38Zm-3.908.794v.265h1.344v-.265Zm1.477 0v.265h.644v-.265Zm.766 0v.265h.3v-.265Zm.433 0v.265h.578v-.265Zm.71 0v.265h.578v-.265Zm.7 0v.265h.944v-.265Zm1.077 0v.265h1.233v-.265ZM7.41 13.494v.264h.866v-.264zm.977 0v.264h.8v-.264zm.921 0v.264h.689v-.264zm.8 0v.264h1.099v-.264zm1.221 0v.264h1.788v-.264ZM6.41 12.7v.265h.288V12.7Zm.366 0v.265h.577V12.7Zm.666 0v.265h.577V12.7Zm.755 0v.265h.922V12.7Zm1.033 0v.265h1.199V12.7Zm1.365 0v.265h.81V12.7Zm.91 0v.265h.19V12.7Zm-7.272.794h1.08v.264h-1.08Zm.001-.794v.265h1.31V12.7Zm1.41 0v.265h.632V12.7Zm-.223.794v.264H6.61v-.264z"/><path fill="#fafafa" d="M3.704 3.704h3.97v.529h-3.97zM3.968 4.498h3.704v.529H3.968zm5.292 7.408h3.704v.529H9.26z"/><path d="M28.6 30.5h75.1v37.3H69v262.7h34.7V368H28.6Z" class="st1" style="fill:#a2a2a2;stroke-width:11.2504;fill-opacity:1" transform="matrix(.02352 0 0 .02352 3.83 3.253)"/><path d="M276.4 101.5v39.1h-60.1v181.9H174V140.6h-60.4v-39.1z" style="stroke-width:11.2504;fill:#666" transform="matrix(.02352 0 0 .02352 3.83 3.253)"/><path d="M365.7 368h-75.1v-37.3h34.7V68h-34.7V30.5h75.1z" class="st1" style="fill:#a2a2a2;stroke-width:11.2504;fill-opacity:1" transform="matrix(.02352 0 0 .02352 3.83 3.253)"/></svg>