<svg xmlns="http://www.w3.org/2000/svg" width="64" height="64"><g transform="translate(0 -988.362)"><path fill="#fafafa" d="m8.991 989.371 46.01.004v57.985H8.992v-57.989z"/><path fill="none" stroke="#4f6698" stroke-linejoin="round" stroke-opacity=".267" stroke-width=".745" d="m6.5.5 35 .003v44.003h-35V.5z" transform="matrix(1.34284 0 0 1.34075 -.228 988.192)"/><rect width="64" height="64" y="988.362" fill="none" opacity=".75" rx="0" ry="0"/></g><rect width="30" height="5" x="17" y="19" fill="#4f6596" fill-opacity=".267" paint-order="markers stroke fill" rx="1" ry="1"/><rect width="28" height="3" x="18" y="20" fill="#f2f2f2" paint-order="markers stroke fill" rx="0" ry="0"/><rect width="30" height="5" x="17" y="26" fill="#4f6596" fill-opacity=".267" paint-order="markers stroke fill" rx="1" ry="1"/><rect width="28" height="3" x="18" y="27" fill="#f2f2f2" paint-order="markers stroke fill" rx="0" ry="0"/><rect width="30" height="5" x="17" y="33" fill="#4f6596" fill-opacity=".267" paint-order="markers stroke fill" rx="1" ry="1"/><rect width="28" height="3" x="18" y="34" fill="#f2f2f2" paint-order="markers stroke fill" rx="0" ry="0"/><rect width="30" height="5" x="17" y="40" fill="#4f6596" fill-opacity=".267" paint-order="markers stroke fill" rx="1" ry="1"/><rect width="28" height="3" x="18" y="41" fill="#f2f2f2" paint-order="markers stroke fill" rx="0" ry="0"/></svg>