<?xml version="1.0" encoding="UTF-8" standalone="no"?>
<svg
   xmlns:dc="http://purl.org/dc/elements/1.1/"
   xmlns:cc="http://creativecommons.org/ns#"
   xmlns:rdf="http://www.w3.org/1999/02/22-rdf-syntax-ns#"
   xmlns:svg="http://www.w3.org/2000/svg"
   xmlns="http://www.w3.org/2000/svg"
   xmlns:sodipodi="http://sodipodi.sourceforge.net/DTD/sodipodi-0.dtd"
   xmlns:inkscape="http://www.inkscape.org/namespaces/inkscape"
   version="1.1"
   width="64"
   height="64"
   id="svg3844"
   sodipodi:docname="application-illustrator.svg"
   inkscape:version="0.92.4 (5da689c313, 2019-01-14)">
  <sodipodi:namedview
     pagecolor="#ffffff"
     bordercolor="#666666"
     borderopacity="1"
     objecttolerance="10"
     gridtolerance="10"
     guidetolerance="10"
     inkscape:pageopacity="0"
     inkscape:pageshadow="2"
     inkscape:window-width="1366"
     inkscape:window-height="713"
     id="namedview42"
     showgrid="true"
     inkscape:zoom="10.429825"
     inkscape:cx="25.070389"
     inkscape:cy="55.271115"
     inkscape:window-x="0"
     inkscape:window-y="25"
     inkscape:window-maximized="1"
     inkscape:current-layer="svg3844">
    <inkscape:grid
       type="xygrid"
       id="grid867" />
  </sodipodi:namedview>
  <defs
     id="defs3846" />
  <metadata
     id="metadata3849">
    <rdf:RDF>
      <cc:Work
         rdf:about="">
        <dc:format>image/svg+xml</dc:format>
        <dc:type
           rdf:resource="http://purl.org/dc/dcmitype/StillImage" />
        <dc:title />
      </cc:Work>
    </rdf:RDF>
  </metadata>
  <g
     transform="translate(4.0314962e-7,-988.36218)"
     id="text-x-preview_64"
     inkscape:label="#g4141">
    <g
       transform="matrix(1.3428376,0,0,1.340755,-0.22814694,988.19153)"
       id="layer1-1-7"
       inkscape:label="Layer 1">
      <path
         inkscape:connector-curvature="0"
         style="display:inline;fill:#fc8f36;fill-opacity:1;stroke:none;stroke-width:0.99992186;stroke-linecap:butt;stroke-linejoin:round;stroke-miterlimit:4;stroke-dasharray:none;stroke-dashoffset:0;stroke-opacity:0.42452829"
         id="path4160-2"
         d="m 6.8655256,0.87983895 c 7.8515454,0 34.2636264,0.002756 34.2636264,0.002756 l 4e-5,43.24831005 c 0,0 -22.842445,0 -34.2636664,0 0,-14.417024 0,-28.834046 0,-43.25106605 z"
         sodipodi:nodetypes="ccccc" />
      <path
         inkscape:connector-curvature="0"
         style="display:inline;fill:none;fill-opacity:1;stroke:#ac5200;stroke-width:0.74521309;stroke-linecap:butt;stroke-linejoin:round;stroke-miterlimit:4;stroke-dasharray:none;stroke-dashoffset:0;stroke-opacity:1;opacity:0.75"
         id="path4160-3-1"
         d="m 6.4999609,0.49996093 c 8.0202951,0 35.0000391,0.0028 35.0000391,0.0028 l 4.2e-5,44.00280307 c 0,0 -23.333387,0 -35.0000811,0 0,-14.668535 0,-29.33707 0,-44.00560307 z"
         sodipodi:nodetypes="ccccc" />
    </g>
    <rect
       ry="2.17285e-05"
       rx="2.17285e-05"
       y="988.36218"
       x="0"
       height="63.999996"
       width="64"
       id="rect4139"
       style="opacity:0.75;fill:none;fill-opacity:0.56122448;stroke:none;stroke-width:1;stroke-linecap:butt;stroke-linejoin:miter;stroke-miterlimit:4;stroke-dasharray:none;stroke-dashoffset:0;stroke-opacity:1" />
  </g>
  <path
     d="m 43.53125,17 c -0.34137,2.9e-5 -0.688759,0.04698 -1,0.125 -0.301208,0.07806 -0.55033,0.205607 -0.78125,0.40625 -0.220887,0.189547 -0.400731,0.457975 -0.53125,0.78125 -0.130523,0.312176 -0.187503,0.708147 -0.1875,1.1875 -3e-6,0.46825 0.05698,0.864222 0.1875,1.1875 0.130519,0.323322 0.310363,0.580603 0.53125,0.78125 0.23092,0.189542 0.480042,0.31709 0.78125,0.40625 0.311241,0.07805 0.65863,0.125021 1,0.125 0.341361,2.9e-5 0.667539,-0.04694 0.96875,-0.125 0.301198,-0.08917 0.56036,-0.216708 0.78125,-0.40625 0.230917,-0.200647 0.400721,-0.457928 0.53125,-0.78125 0.140563,-0.323278 0.218743,-0.71925 0.21875,-1.1875 -7e-6,-0.479353 -0.0782,-0.875324 -0.21875,-1.1875 C 45.681971,17.989225 45.512167,17.720797 45.28125,17.53125 45.06036,17.330607 44.801198,17.20307 44.5,17.125 44.198789,17.04699 43.872611,17.000026 43.53125,17 Z m -18.3125,2 -7.46875,23 4.9375,0 2,-6 7.21875,0 1.875,6 4.90625,0 -7.5,-23 -5.96875,0 z m 3,3.15625 c 0.05244,0.366627 0.155359,0.820043 0.28125,1.34375 0.125866,0.523745 0.269872,1.070042 0.40625,1.59375 0.146844,0.513268 0.28036,0.97681 0.40625,1.40625 0.125866,0.42947 0.21831,0.717724 0.28125,0.90625 L 31.0625,32 l -5.625,0 1.46875,-4.59375 c 0.03146,-0.115204 0.09331,-0.290322 0.15625,-0.53125 0.07342,-0.240898 0.13482,-0.49825 0.21875,-0.8125 0.08391,-0.31422 0.18683,-0.64385 0.28125,-1 0.0944,-0.356116 0.16607,-0.716824 0.25,-1.0625 0.0944,-0.356116 0.18706,-0.685747 0.25,-1 0.07341,-0.314217 0.11428,-0.613292 0.15625,-0.84375 z M 41,24 l 0,18 5,0 0,-18 -5,0 z"
     id="path3031"
     style="color:#000000;display:inline;overflow:visible;visibility:visible;fill:#ffae60;fill-opacity:1;fill-rule:nonzero;stroke:none;stroke-width:0.99999994;marker:none;enable-background:accumulate;clip-rule:nonzero;opacity:1;isolation:auto;mix-blend-mode:normal;color-interpolation:sRGB;color-interpolation-filters:linearRGB;solid-color:#000000;solid-opacity:1;stroke-linecap:butt;stroke-linejoin:miter;stroke-miterlimit:4;stroke-dasharray:none;stroke-dashoffset:0;stroke-opacity:1;filter-blend-mode:normal;filter-gaussianBlur-deviation:0;color-rendering:auto;image-rendering:auto;shape-rendering:auto;text-rendering:auto" />
  <path
     d="m 43.637034,17 c -0.34137,2.9e-5 -0.688759,0.04698 -1,0.125 -0.301208,0.07806 -0.55033,0.205607 -0.78125,0.40625 -0.220887,0.189547 -0.400731,0.457975 -0.53125,0.78125 -0.130523,0.312176 -0.187503,0.708147 -0.1875,1.1875 -3e-6,0.46825 0.05698,0.864222 0.1875,1.1875 0.130519,0.323322 0.310363,0.580603 0.53125,0.78125 0.23092,0.189542 0.480042,0.31709 0.78125,0.40625 0.311241,0.07805 0.65863,0.125021 1,0.125 0.341361,2.9e-5 0.667539,-0.04694 0.96875,-0.125 0.301198,-0.08917 0.56036,-0.216708 0.78125,-0.40625 0.230917,-0.200647 0.400721,-0.457928 0.53125,-0.78125 0.140563,-0.323278 0.218743,-0.71925 0.21875,-1.1875 -7e-6,-0.479353 -0.0782,-0.875324 -0.21875,-1.1875 -0.130529,-0.323275 -0.300333,-0.591703 -0.53125,-0.78125 C 45.166144,17.330607 44.906982,17.20307 44.605784,17.125 44.304573,17.04699 43.978395,17.000026 43.637034,17 Z m -18.3125,2 -7.46875,23 h 4.9375 l 2,-6 h 7.21875 l 1.875,6 h 4.90625 l -7.5,-23 z m 3,3.15625 c 0.05244,0.366627 0.155359,0.820043 0.28125,1.34375 0.125866,0.523745 0.269872,1.070042 0.40625,1.59375 0.146844,0.513268 0.28036,0.97681 0.40625,1.40625 0.125866,0.42947 0.21831,0.717724 0.28125,0.90625 L 31.168284,32 h -5.625 l 1.46875,-4.59375 c 0.03146,-0.115204 0.09331,-0.290322 0.15625,-0.53125 0.07342,-0.240898 0.13482,-0.49825 0.21875,-0.8125 0.08391,-0.31422 0.18683,-0.64385 0.28125,-1 0.0944,-0.356116 0.16607,-0.716824 0.25,-1.0625 0.0944,-0.356116 0.18706,-0.685747 0.25,-1 0.07341,-0.314217 0.11428,-0.613292 0.15625,-0.84375 z M 41.105784,24 v 18 h 5 V 24 Z"
     id="path865"
     style="color:#000000;clip-rule:nonzero;display:inline;overflow:visible;visibility:visible;opacity:1;isolation:auto;mix-blend-mode:normal;color-interpolation:sRGB;color-interpolation-filters:linearRGB;solid-color:#000000;solid-opacity:1;fill:#ffffff;fill-opacity:1;fill-rule:nonzero;stroke:none;stroke-width:2;stroke-linecap:butt;stroke-linejoin:miter;stroke-miterlimit:4;stroke-dasharray:none;stroke-dashoffset:0;stroke-opacity:1;marker:none;paint-order:markers stroke fill;color-rendering:auto;image-rendering:auto;shape-rendering:auto;text-rendering:auto;enable-background:accumulate"
     inkscape:connector-curvature="0" />
</svg>
