<svg xmlns="http://www.w3.org/2000/svg" width="64" height="64" viewBox="0 0 16.933 16.933"><g transform="translate(0 -261.5) scale(.26458)"><path fill="#df5943" d="m8.991 989.37 46.01.004v57.985H8.992V989.37z"/><path fill="none" stroke="#ac3320" stroke-linejoin="round" stroke-width=".745" d="m6.5.5 35 .003v44.003h-35z" transform="matrix(1.3428 0 0 1.3408 -.228 988.19)"/><rect width="64" height="64" y="988.36" fill="none" opacity=".75" rx="0" ry="0"/></g><path fill="#fff" fill-rule="evenodd" d="M9.26 4.498c.333 1.31-1.173 1.706-1.716 2.522-.37.556.182 1.154.934 1.832-.293-.663-1.288-1.243 0-2.26 1.607-1.27.783-2.094.783-2.094zm.995 1.621s-2.717.679-1.42 2.174c.384.44-.1.837-.1.837s.972-.501.526-1.13c-.417-.586-.737-.877.994-1.88zm.481 2.671a.916.916 0 0 0-.3.054c-.084.03-.128.098-.128.098s.053-.021.17-.046c.481-.1 1.17.643-.32 1.417-.006.019-.03.04-.03.04 1.772-.466 1.386-1.564.608-1.563zm-3.19.076a2.799 2.799 0 0 0-1.225.296c-.814.394 2.016.574 3.48.188.153-.104.363-.194.363-.194s-.599.107-1.196.157c-.73.062-1.515.074-1.908.021-.932-.125.51-.467.51-.467l-.025-.001zm-.311.901c-1.344.446.748.952 2.626.403a.938.938 0 0 1-.326-.2c-.918.178-1.449.172-2.12.103-.52-.054-.18-.306-.18-.306zm.19.87c-1.22.34.742 1.044 2.296.379-.254-.1-.437-.213-.437-.213-.693.13-1.014.14-1.643.07-.52-.06-.216-.237-.216-.237zm-.848.575c-.548.017-1.62.51-.64.669 3.168.513 5.775-.231 4.954-.602 0 0 .224.185-.248.328-.896.272-3.733.354-4.52.01-.283-.122.248-.293.415-.33.174-.037.273-.03.273-.03-.049-.035-.133-.048-.234-.045zm4.817.471s-.1.256-1.182.46c-1.22.23-2.725.203-3.617.056 0 0 .183.15 1.122.211 1.43.092 3.625-.05 3.677-.727z" clip-rule="evenodd"/></svg>