<svg xmlns="http://www.w3.org/2000/svg" width="64" height="64"><rect width="64" height="64" y="-.012" fill="none" opacity=".75" rx="0" ry="0"/><path fill="#8542c2" d="M9 1.002H55v59H9.003v-59z" color="#000" overflow="visible"/><path fill="none" stroke="#643191" stroke-linecap="round" stroke-linejoin="round" stroke-width="1.002" d="m8.5.499 47 .004V60.5H8.502V.499z" color="#000" overflow="visible"/><path fill="#fff" d="M32 19.501c-6.075 0-11 1.343-11 3v10a11 3 0 0 0 1 1.242 11 3 0 0 0 .012.006 11 3 0 0 0 .476.252 11 3 0 0 0 .032.014 11 3 0 0 0 .55.232 11 3 0 0 0 .065.024 11 3 0 0 0 .59.2 11 3 0 0 0 .132.042 11 3 0 0 0 .65.18 11 3 0 0 0 .1.025 11 3 0 0 0 .774.176 11 3 0 0 0 .053.01 11 3 0 0 0 .814.15 11 3 0 0 0 .139.023 11 3 0 0 0 .779.115 11 3 0 0 0 .22.03 11 3 0 0 0 .737.082 11 3 0 0 0 .367.037 11 3 0 0 0 .54.045 11 3 0 0 0 .591.04 11 3 0 0 0 .49.026 11 3 0 0 0 .576.024 11 3 0 0 0 .463.013 11 3 0 0 0 .85.012 11 3 0 0 0 .959-.014 11 3 0 0 0 .414-.013 11 3 0 0 0 .717-.03 11 3 0 0 0 .346-.021 11 3 0 0 0 .707-.049 11 3 0 0 0 .318-.03 11 3 0 0 0 .768-.075 11 3 0 0 0 .18-.022 11 3 0 0 0 .808-.107 11 3 0 0 0 .213-.035 11 3 0 0 0 .677-.112 11 3 0 0 0 .313-.06 11 3 0 0 0 .596-.125 11 3 0 0 0 .195-.047 11 3 0 0 0 .662-.168 11 3 0 0 0 .014-.004 11 3 0 0 0 .023-.008 11 3 0 0 0 .701-.219 11 3 0 0 0 .637-.244 11 3 0 0 0 .002 0 11 3 0 0 0 .006-.002 11 3 0 0 0 .535-.254 11 3 0 0 0 .006-.004 11 3 0 0 0 .203-.115 11 3 0 0 0 1-1.242v-10c0-1.657-4.925-3-11-3m0 16h-1v3h1v1h-8v-1h-3v3h3v-1h16v1h3v-3h-3v1h-7v-1h1v-3zm0-15c5.523 0 10 .895 10 2s-4.477 2-10 2-10-.895-10-2 4.477-2 10-2m-10 3.242c1.784 1.069 5.692 1.756 10 1.758 4.308-.001 8.216-.688 10-1.758v3.758c0 1.105-4.477 2-10 2s-10-.895-10-2zm0 5c1.784 1.069 5.692 1.756 10 1.758 4.308-.001 8.216-.688 10-1.758v3.758a10 2 0 0 1-10 2 10 2 0 0 1-10-2v-2zm10 7.758h1v1h-1zm-10 3h1v1h-1zm19 0h1v1h-1z" opacity=".75"/></svg>