<svg xmlns="http://www.w3.org/2000/svg" width="64" height="64"><rect width="64" height="64" y="-.012" fill="none" opacity=".75" rx="0" ry="0"/><path fill="#ff8830" d="M9 1.002H55v59H9.003v-59z" color="#000" overflow="visible"/><path fill="none" stroke="#c35e13" stroke-linecap="round" stroke-linejoin="round" stroke-opacity=".8" stroke-width="1.002" d="m8.5.499 47 .004V60.5H8.502V.499z" color="#000" overflow="visible"/><path fill="#fff" d="M17.178 25.294c-2.8 0-5.576.54-8.178 1.59v3.183c2.427-1.26 4.965-1.69 8.178-1.713.295-.003.575.019.87.032-.042 5.338-.867 16.338-3.804 20.354-4.246-11.062-3.73-9.091-.867.334-.214.118-.415.26-.6.422l-1.316-.998.658 1.912c-1.041.159-2.081.157-3.119.15v1.135c.993-.32 2.003-.392 3.15.264.042.21.148.394.241.576l-3.39 1.382v.749c1.302-.452 2.593-.86 3.81-1.524.192.175.448.3.717.395l-4.12 6.462h1.168c1.149-1.596 1.982-4.605 3.582-6.341.225.02.484.054.747.021a23.021 23.021 0 0 0 .162 6.32h2.248c-.765-2.118-1.626-4.217-1.51-6.503.852.33 1.296.758 2.244 1.425-.426-.648-.947-1.07-1.313-1.88.085-.132.153-.273.206-.42 4.362 1.678 8.445 2.15 12.875 4.843l2.421 1.817a11.63 11.63 0 0 1-.52.718h3.575c.09-.057.18-.116.27-.175a22.308 22.308 0 0 0 3.71-12.295c0-12.21-9.848-22.234-22.091-22.234h-.004zm3.627 3.422c7.302 1.452 13.675 7.255 15.059 14.055l-.33.424c-.615 1.076-6.38 2.936-8.47 3.603-3.994.866-6.855 2.918-10.689 3.06a2.88 2.88 0 0 0-.84-.786c2.332-4.194 1.568-15.41 5.27-20.355zM9 31.833v3.002c1.711 4.541 1.646 3.629 0-3.002zM35.297 44.65h.002l.865.846c0 .68-.071 1.346-.183 2.033-.567 3.627-1.287 7.211-2.78 10.145l-3.173-1.057c-3.62-1.782-9.044-2.944-12.902-5.517 5.53-3.212 12.103-4.505 18.172-6.45z"/></svg>