<svg xmlns="http://www.w3.org/2000/svg" width="64" height="64"><rect width="64" height="64" y="-.012" fill="none" opacity=".75" rx="0" ry="0"/><path fill="#396939" d="M8.992 1.01h46.013V59H8.992z"/><g fill="none"><path stroke="#264026" stroke-linejoin="round" stroke-opacity=".8" d="m8.502.5 47.001.004v58.998H8.502z"/><g stroke="#fff" stroke-width="1.002"><path stroke-opacity=".324" d="M37.501 7.74v44.804M27.5 7.74v44.8"/><path d="M48.201 10.5H13.999m3.5-2.808V52.68"/><path stroke-opacity=".324" d="M48.443 14.499H14.306M48.443 50.5H14.306m34.137-3.999H14.306m34.137-3.999H14.306M48.443 38.5H14.306M48.443 34.5H14.306m34.137-3.999H14.306M48.443 26.5H14.306m34.137-4H14.306m34.137-3.998H14.306"/><path stroke-linecap="square" d="M14.499 7.499H48.5v45.004H14.499z"/></g></g><path fill="#fff" fill-opacity=".49" d="M15.001 8.001h33v2h-33zm2 2.998v41h-2.004V11z"/></svg>