<svg xmlns="http://www.w3.org/2000/svg" width="64" height="64"><rect width="64" height="64" y="-.012" fill="none" opacity=".75" rx="0" ry="0"/><path fill="#51db51" d="M9 1.002H55v59H9.003v-59z" color="#000" overflow="visible"/><path fill="none" stroke="#3da43d" stroke-linecap="round" stroke-linejoin="round" stroke-width="1.002" d="m8.5.499 47 .004V60.5H8.502V.499z" color="#000" overflow="visible"/><g fill="#fff" color="#000"><path d="M35.776 19.515a7.21 7.21 0 0 0-7.212 7.207c0 1.082.246 2.103.673 3.02l-1.234 1.461-.107 1.37c-.011.01-1.344.048-1.344.048l-.686.496s.006 1.495 0 1.475l-.002.002-1.467.023-.621.71-.014 1.34s-1.266-.084-1.395.034c-.81.746-1.355 1.277-1.355 1.277l.006 3.506.688-.002 9.338-9.336a7.217 7.217 0 0 0 1.648 1.078l.002-.002a7.174 7.174 0 0 0 3.084.701 7.209 7.209 0 0 0 7.21-7.207 7.208 7.208 0 0 0-7.212-7.205m1.377 3.434a2.403 2.403 0 1 1-.003 4.807 2.403 2.403 0 0 1 .003-4.807" opacity=".75"/><path d="M37.151 22.95a2.404 2.404 0 1 0 .001 4.809 2.404 2.404 0 0 0 0-4.809m0 1.373a1.03 1.03 0 1 1-.002 2.06 1.03 1.03 0 0 1 .002-2.06m-6.11 7.828-9.342 9.34h3.434l8.154-8.01a7.222 7.222 0 0 1-2.245-1.328" opacity=".5"/></g></svg>