<svg xmlns="http://www.w3.org/2000/svg" width="64" height="64" viewBox="0 0 16.933 16.933"><g transform="translate(0 -261.5) scale(.26458)"><path fill="#40ace8" d="m8.991 989.37 46.01.004v57.985H8.992V989.37z"/><path fill="none" stroke="#1887c4" stroke-linejoin="round" stroke-width=".745" d="m6.5.5 35 .003v44.003h-35z" transform="matrix(1.3428 0 0 1.3408 -.228 988.19)"/><rect width="64" height="64" y="988.36" fill="none" opacity=".75" rx="0" ry="0"/></g><path fill="#ff6e65" d="M8.437 4.498a3.969 3.969 0 0 0-3.94 3.968 3.969 3.969 0 0 0 3.97 3.97 3.969 3.969 0 0 0 3.968-3.97 3.969 3.969 0 0 0-3.969-3.968 3.969 3.969 0 0 0-.03 0zm.027 1.587a2.381 2.381 0 0 1 .002 0 2.381 2.381 0 0 1 2.382 2.382 2.381 2.381 0 0 1-2.382 2.38 2.381 2.381 0 0 1-2.38-2.38 2.381 2.381 0 0 1 2.378-2.382z" style="paint-order:stroke fill markers"/><path fill="#fff" d="M4.862 6.821a3.948 3.948 0 0 0-.364 1.645c0 .587.134 1.144.364 1.646l1.389-.794a2.378 2.378 0 0 1-.166-.852c0-.3.064-.587.166-.851M12.072 6.821l-1.39.794c.102.264.166.55.166.851s-.064.587-.165.852l1.389.794c.229-.502.363-1.059.363-1.646s-.134-1.144-.363-1.645m-4.457 3.862-.794 1.388c.502.23 1.059.364 1.646.364s1.144-.134 1.645-.364l-.794-1.389c-.264.102-.55.166-.851.166s-.587-.064-.852-.166m.852-6.184c-.587 0-1.144.134-1.646.363l.794 1.39c.265-.102.55-.166.852-.166.3 0 .587.064.851.165l.794-1.389a3.948 3.948 0 0 0-1.645-.363"/></svg>