<svg xmlns="http://www.w3.org/2000/svg" width="64" height="64"><rect width="64" height="64" y="-.012" fill="none" opacity=".75" rx="0" ry="0"/><path fill="#515151" d="M9 1.002H55v59H9.003v-59z" color="#000" overflow="visible"/><path fill="none" stroke="#3a3a3a" stroke-linecap="round" stroke-linejoin="round" stroke-width="1.002" d="m8.5.499 47 .004V60.5H8.502V.499z" color="#000" overflow="visible"/><g fill="none"><path stroke="#1d99f3" d="M21 30.514c7.043 0 8.346 8.962 11.453 8.99 3.107.025 4.507-9.011 11.547-9.011"/><path stroke="#da4453" d="M21 29.546c7.043 0 8.475-6.1 11.485-6.094 2.99.006 4.475 7.042 11.515 7.042"/><path stroke="#d6d6d6" d="M21 29.546c7.043 0 7.47-10.014 11.47-10.014S36.96 30.493 44 30.493"/></g><g fill="#d6d6d6"><path d="M20 19.001h1v23h-1z" color="#000"/><path d="M20 30.001h24v1H20z"/><path d="M26 29.001h1v3h-1zM32 29.001h1v3h-1zM38 29.001h1v3h-1z"/></g></svg>