<svg xmlns="http://www.w3.org/2000/svg" width="64" height="64"><rect width="64" height="64" y="-.012" fill="none" opacity=".75" rx="0" ry="0"/><path fill="#84603e" d="M8.992 1.01h46.013V59H8.992z"/><path fill="none" stroke="#453423" stroke-linejoin="round" stroke-opacity=".8" d="m8.502.5 47.001.004v58.998H8.502z"/><path fill="#fff" d="M15.999 15.001v.998h3.19v-.994zm3.61 0v.998h3.023v-.994zm3.439 0v.998h2.646v-.994zm3.065 0v.998h1.176v-.994zm1.595 0v.998h2.6v-.994zm3.062 0v.998h6.716v-.994zm-14.771 3.001V19h5.08v-.998zm5.582 0V19h2.434v-.998zm2.895 0V19h1.134v-.998zm1.637 0V19h2.185v-.998zm2.683 0V19h2.185v-.998zm2.646 0V19h3.568v-.998zm4.07 0V19h4.661v-.998zM16 20.999v1.002h5.624v-1.002zm6.047 0v1.002h6.036v-1.002zM16 24v1.002h3.107V24zm3.526 0v1.002h2.895V24zm3.315 0v1.002h2.559V24zm-6.841 3.001V28h4.112v-.998zm0 3.001V31h4.157v-.998zm32.002 2a8.001 8.001 0 0 1-6.04 7.755 8.001 8.001 0 0 1-8.995-3.953 8.001 8.001 0 0 1 1.625-9.695 8.001 8.001 0 0 1 9.796-.801l-4.384 6.69zm-32.002.997v1.002h3.19v-1.005zm3.61 0v1.002h3.023v-1.005zm3.439 0v1.002h2.645v-1.005zM15.998 36v1.002h5.08V36zm5.583 0v1.002h2.434V36zm2.895 0v1.002h1.134V36zM16 39.001V40h5.624v-.998zm0 3.001V43h3.107v-.998zm3.526 0V43h2.895v-.998zm3.315 0V43h2.559v-.998z"/></svg>