<svg xmlns="http://www.w3.org/2000/svg" width="64" height="64"><g transform="translate(0 -988.38)"><path fill="#813d17" d="m8.991 989.37 46.01.004v57.985H8.992V989.37z"/><path fill="none" stroke="#472815" stroke-linejoin="round" stroke-opacity=".78" stroke-width=".745" d="m6.5.5 35 .003v44.003h-35z" transform="matrix(1.3428 0 0 1.3408 -.228 988.19)"/><rect width="64" height="64" y="988.36" fill="none" opacity=".75" rx="0" ry="0"/></g><g fill="#fff" stroke-width=".088"><path d="M32.63 16.5c-4.877.869-9.756 2.02-14.633 2.873 0 7.418-.003 14.84 0 22.26 4.851.85 9.705 1.983 14.546 2.867h1.453v-28zm-6.76 8.817c.962-.02 1.885.118 2.635.797 1.437 1.743 1.057 4.95-1.073 5.993-.757.387-1.623.334-2.447.307-.003 1.303-.007 2.607-.003 3.91-.66-.057-1.323-.113-1.983-.167-.03-3.56-.037-6.958.003-10.518.939-.117 1.906-.301 2.868-.321zm-.11 1.932c-.263-.007-.532.017-.778.028-.01 1.12-.016 2.237.054 3.353.663-.08 1.523-.013 1.903-.7.316-.673.336-1.533-.044-2.186-.277-.386-.698-.483-1.136-.495zM35 20v3.696c.324-.088.657-.173 1-.194V28h4.47c-.158 1.365-.767 2.768-1.97 3.48-1.035.696-2.31.767-3.5.503V34h7.998v1H35v2h7.998v1H35v2h-.002v1h10V20zm2 2.897c2.126.22 3.884 1.982 4.115 4.103H37z"/></g></svg>