<svg xmlns="http://www.w3.org/2000/svg" width="64" height="64" viewBox="0 0 16.933 16.933"><g transform="translate(0 -261.5) scale(.26458)"><path fill="#1a96ae" d="m8.991 989.37 46.01.004v57.985H8.992V989.37z"/><path fill="none" stroke="#125e6f" stroke-linejoin="round" stroke-width=".745" d="m6.5.5 35 .003v44.003h-35z" transform="matrix(1.3428 0 0 1.3408 -.228 988.19)"/><rect width="64" height="64" y="988.36" fill="none" opacity=".75" rx="0" ry="0"/></g><style>.st0{fill:#8aac0f}.st1{display:none;fill:#0f380e}.st2{stroke:#889650;stroke-width:.745;stroke-linejoin:round;stroke-opacity:.267}.st2,.st3{fill:none}</style><path fill="#fff" d="M90.314 12.704v33h18.3c2.1 0 3.7-1.7 3.7-3.7v-29.3zm4 4h14v11h-14zm5 20h-2v2h-2v-2h-2v-2h2v-2h2v2h2zm7 1c-.6 0-1-.4-1-1s.4-1 1-1 1 .4 1 1-.4 1-1 1zm2-2c-.6 0-1-.4-1-1s.4-1 1-1 1 .4 1 1-.4 1-1 1z" style="fill:#0f380e" transform="translate(-18.339 .612) scale(.26458)"/></svg>