<svg xmlns="http://www.w3.org/2000/svg" width="64" height="64" viewBox="0 0 16.933 16.933"><rect width="64" height="64" y="988.362" fill="none" opacity=".75" rx="0" ry="0" transform="translate(0 -261.504) scale(.26458)"/><path fill="#fc8f36" d="M2.381.265h12.171V15.61H2.382V.265z" color="#000" overflow="visible" style="marker:none"/><path fill="none" d="m2.249.132 12.435.001v15.61H2.25V.133z" opacity=".3"/><path fill="none" stroke="#b85700" stroke-linejoin="round" stroke-opacity=".776" stroke-width=".265" d="m2.249.132 12.435.001v15.61H2.25V.133z"/><path fill="#fff" d="M4.002 13.442c0-.163.056-.3.169-.41a.56.56 0 0 1 .411-.168c.159 0 .293.056.403.168.112.11.168.247.168.41a.554.554 0 0 1-.168.406.548.548 0 0 1-.403.165.565.565 0 0 1-.411-.165.548.548 0 0 1-.169-.406m-.033-2.61v.962c1.228 0 2.225.999 2.225 2.229h.964c0-1.762-1.43-3.19-3.19-3.19zM3.97 8.73v1.063a4.229 4.229 0 0 1 4.224 4.23H9.26A5.294 5.294 0 0 0 3.97 8.73z" font-family="Bitstream Vera Serif" font-size="13.59" font-weight="700" style="line-height:125%;text-align:start"/></svg>