<svg xmlns="http://www.w3.org/2000/svg" width="64" height="64"><rect width="64" height="64" y="988.362" fill="none" opacity=".75" rx="0" ry="0" transform="translate(0 -988.362)"/><path fill="#90d344" d="m8.991 1.009 46.01.004v57.985H8.992V1.008z"/><path fill="none" stroke="#4e7b31" stroke-linejoin="round" d="m8.5.5 47 .003V59.5h-47V.5z" opacity=".85"/><path fill="#3f3f3f" stroke="#2c2c2c" stroke-linejoin="round" stroke-width="2" d="M8.991 1.009 17 1.013v57.985H8.991V1.008z" paint-order="markers stroke fill"/><path fill="#fff" d="m36 39.58-9.427-9.577L36 20.427l3.142 3.192-6.285 6.384L36 33.195l9.427-9.576-8.212-8.342a1.698 1.698 0 0 0-2.43 0L21.503 28.77a1.765 1.765 0 0 0 0 2.468L34.785 44.73a1.698 1.698 0 0 0 2.43 0l13.282-13.492c.67-.682.67-1.787 0-2.468l-1.927-1.96z"/><path fill="#3f3f3f" d="M8.991 1.009 17 1.013v57.985H8.991V1.008z" paint-order="markers stroke fill"/></svg>