<svg xmlns="http://www.w3.org/2000/svg" width="64" height="64"><rect width="64" height="64" y="-.012" fill="none" opacity=".75" rx="0" ry="0"/><path fill="#f35450" d="M9 1.002H55v59H9.003v-59z" color="#000" overflow="visible"/><path fill="#383838" stroke="#2a2a2a" stroke-linecap="round" stroke-linejoin="round" stroke-width="1.002" d="m8.5.499 47 .004V60.5H8.502V.499z" color="#000" overflow="visible"/><path fill="#fff" d="M9.256 1.118V2.15h2.068v2.062H9.256v1.03h2.068v2.063H9.256v1.03h2.068v2.062H9.256v1.031h2.068v2.062H9.256v1.03h2.068v2.063H9.256v1.03h2.068v2.062H9.256v1.031h2.068v2.062H9.256v1.031h2.068v2.062H9.256v1.03h2.068v2.062H9.256v1.031h2.068v2.062H9.256v1.031h2.068v2.062H9.256v1.03h2.068v2.063H9.256v1.03h2.068v2.062H9.256v1.031h2.068v2.062H9.256v1.03h2.068v2.063H9.256v1.03h2.068v2.062H9.256v1.031h2.068v2.062H9.256v1.031h2.068v2.062H9.256v1.03h2.068v2.063h1.034v-2.062h2.068v2.062h1.034v-2.062h2.067v2.062h1.034v-2.062h2.068v2.062h1.034v-2.062h2.068v2.062h1.034v-2.062h2.067v2.062h1.034v-2.062h2.068v2.062h1.034v-2.062h2.068v2.062h1.034v-2.062h2.068v2.062h1.033v-2.062h2.068v2.062h1.034v-2.062h2.068v2.062h1.034v-2.062h2.068v2.062h1.034v-2.062h2.067v2.062h1.034v-2.062h2.068v2.062h1.034v-2.062h2.068v-1.031H52.68v-2.062h2.068v-1.03H52.68v-2.063h2.068v-1.03H52.68V48.54h2.068v-1.031H52.68v-2.062h2.068v-1.031H52.68v-2.062h2.068v-1.03H52.68v-2.062h2.068V38.23H52.68v-2.062h2.068v-1.031H52.68v-2.062h2.068v-1.03H52.68v-2.063h2.068v-1.03H52.68V26.89h2.068V25.86H52.68v-2.062h2.068v-1.03H52.68v-2.063h2.068v-1.03H52.68v-2.062h2.068v-1.031H52.68V14.52h2.068l-1.034-1.031H52.68v-1.03l-1.034-1.032v2.062h-2.068v-2.062h2.068l-1.034-1.03h-1.034V9.364l-1.034-1.03v2.061h-2.067V8.335h2.067L47.51 7.304h-1.034V6.273l-1.033-1.031v2.062h-2.068V5.242h2.068L44.409 4.21h-1.034V3.18L42.34 2.15v2.06h-2.068V2.15h2.068l-1.034-1.032H11.324zm3.102 1.031h2.068v2.062h-2.068zm3.102 0h2.067v2.062H15.46zm3.101 0h2.068v2.062h-2.068zm3.102 0h2.068v2.062h-2.068zm3.102 0h2.067v2.062h-2.067zm3.101 0h2.068v2.062h-2.068zm3.102 0h2.068v2.062h-2.068zm3.102 0h2.068v2.062H34.07zm3.101 0h2.068v2.062h-2.068zM12.357 5.242h2.068v2.062h-2.068zm3.102 0h2.068v2.062h-2.068zm3.102 0h2.068v2.062H18.56zm3.102 0h2.067v2.062h-2.067zm3.101 0h2.068v2.062h-2.068zm3.102 0h2.068v2.062h-2.068zm3.102 0h2.067v2.062h-2.067zm3.101 0h2.068v2.062H34.07zm3.102 0h2.068v2.062H37.17zm3.102 0h2.068v2.062h-2.068zM12.358 8.335h2.068v2.061h-2.068zm3.101 0h2.068v2.061H15.46zm3.102 0h2.068v2.061H18.56zm3.102 0h2.068v2.061h-2.068zm3.102 0h2.067v2.061h-2.067zm3.101 0h2.068v2.061h-2.068zm3.102 0h2.068v2.061h-2.068zm3.102 0h2.067v2.061H34.07zm3.101 0h2.068v2.061h-2.068zm3.102 0h2.068v2.061h-2.068zm3.102 0h2.068v2.061h-2.068zm-31.017 3.092h2.068v2.062h-2.068zm3.101 0h2.068v2.062H15.46zm3.102 0h2.068v2.062H18.56zm3.102 0h2.068v2.062h-2.068zm3.102 0h2.067v2.062h-2.067zm3.101 0h2.068v2.062h-2.068zm3.102 0h2.068v2.062h-2.068zm3.102 0h2.067v2.062H34.07zm3.101 0h2.068v2.062h-2.068zm3.102 0h2.068v2.062h-2.068zm3.102 0h2.068v2.062h-2.068zm3.101 0h2.068v2.062h-2.068zM12.357 14.52h2.068v2.062h-2.068zm3.102 0h2.068v2.062h-2.068zm3.102 0h2.068v2.062H18.56zm3.102 0h2.067v2.062h-2.067zm3.101 0h2.068v2.062h-2.068zm3.102 0h2.068v2.062h-2.068zm3.102 0h2.067v2.062h-2.067zm3.101 0h2.068v2.062H34.07zm3.102 0h2.068v2.062H37.17zm3.102 0h2.068v2.062h-2.068zm3.101 0h2.068v2.062h-2.068zm3.102 0h2.068v2.062h-2.068zm3.102 0h2.068v2.062h-2.068zm-37.22 3.093h2.068v2.062h-2.068zm3.102 0h2.067v2.062H15.46zm3.101 0h2.068v2.062h-2.068zm3.102 0h2.068v2.062h-2.068zm3.102 0h2.067v2.062h-2.067zm3.101 0h2.068v2.062h-2.068zm3.102 0h2.068v2.062h-2.068zm3.102 0h2.068v2.062H34.07zm3.101 0h2.068v2.062h-2.068zm3.102 0h2.068v2.062h-2.068zm3.102 0h2.068v2.062h-2.068zm3.102 0h2.067v2.062h-2.067zm3.101 0h2.068v2.062h-2.068zm-37.22 3.093h2.068v2.062h-2.068zm3.102 0h2.068v2.062H15.46zm3.102 0h2.067v2.062h-2.067zm3.101 0h2.068v2.062h-2.068zm3.102 0h2.068v2.062h-2.068zm3.102 0h2.068v2.062h-2.068zm3.101 0h2.068v2.062h-2.068zm3.102 0h2.068v2.062H34.07zm3.102 0h2.068v2.062h-2.068zm3.102 0h2.067v2.062h-2.067zm3.101 0h2.068v2.062h-2.068zm3.102 0h2.068v2.062h-2.068zm3.102 0h2.067v2.062H49.58zm-37.22 3.093h2.067v2.061H12.36zm3.101 0h2.068v2.061H15.46zm3.102 0h2.068v2.061h-2.068zm3.102 0h2.068v2.061h-2.068zm3.101 0h2.068v2.061h-2.068zm3.102 0h2.068v2.061h-2.068zm3.102 0h2.068v2.061h-2.068zm3.102 0h2.067v2.061h-2.067zm3.101 0h2.068v2.061h-2.068zm3.102 0h2.068v2.061h-2.068zm3.102 0h2.067v2.061h-2.067zm3.101 0h2.068v2.061h-2.068zm3.102 0h2.068v2.061h-2.068zm-37.22 3.092h2.068v2.062h-2.068zm3.102 0h2.068v2.062H15.46zm3.101 0h2.068v2.062h-2.068zm3.102 0h2.068v2.062h-2.068zm3.102 0h2.068v2.062h-2.068zm3.102 0h2.067v2.062h-2.067zm3.101 0h2.068v2.062h-2.068zm3.102 0h2.068v2.062H34.07zm3.102 0h2.067v2.062h-2.067zm3.101 0h2.068v2.062h-2.068zm3.102 0h2.068v2.062h-2.068zm3.102 0h2.068v2.062h-2.068zm3.101 0h2.068v2.062H49.58zm-37.22 3.093h2.068v2.062H12.36zm3.102 0h2.068v2.062H15.46zm3.102 0h2.068v2.062h-2.068zm3.102 0h2.067v2.062h-2.067zm3.101 0h2.068v2.062h-2.068zm3.102 0h2.068v2.062h-2.068zm3.102 0h2.067v2.062H30.97zm3.101 0h2.068v2.062h-2.068zm3.102 0h2.068v2.062h-2.068zm3.102 0h2.068v2.062h-2.068zm3.101 0h2.068v2.062h-2.068zm3.102 0h2.068v2.062h-2.068zm3.102 0h2.068v2.062H49.58zm-37.22 3.093h2.068v2.062H12.36zm3.102 0h2.067v2.062h-2.067zm3.101 0h2.068v2.062h-2.068zm3.102 0h2.068v2.062h-2.068zm3.102 0h2.067v2.062h-2.067zm3.101 0h2.068v2.062h-2.068zm3.102 0h2.068v2.062H30.97zm3.102 0h2.068v2.062h-2.068zm3.101 0h2.068v2.062h-2.068zm3.102 0h2.068v2.062h-2.068zm3.102 0h2.068v2.062h-2.068zm3.102 0h2.067v2.062H46.48zm3.101 0h2.068v2.062H49.58zM12.36 36.17h2.068v2.062H12.36zm3.102 0h2.068v2.062h-2.068zm3.102 0h2.067v2.062h-2.067V37.2zm3.101 0h2.068v2.062h-2.068V37.2zm3.102 0h2.068v2.062h-2.068V37.2zm3.102 0h2.068v2.062h-2.068V37.2zm3.101 0h2.068v2.062H30.97V37.2zm3.102 0h2.068v2.062h-2.068V37.2zm3.102 0h2.068v2.062h-2.068V37.2zm3.102 0h2.067v2.062h-2.067V37.2zm3.101 0h2.068v2.062h-2.068V37.2zm3.102 0h2.068v2.062h-2.068V37.2zm3.102 0h2.067v2.062h-2.067zm-37.22 3.093h2.067v2.061h-2.067zm3.101 0h2.068v2.061h-2.068zm3.102 0h2.068v2.061h-2.068zm3.102 0h2.068v2.061h-2.068v-1.03zm3.101 0h2.068v2.061h-2.068v-1.03zm3.102 0h2.068v2.061h-2.068v-1.03zm3.102 0h2.068v2.061H30.97v-1.03zm3.102 0h2.067v2.061h-2.067v-1.03zm3.101 0h2.068v2.061h-2.068v-1.03zm3.102 0h2.068v2.061h-2.068v-1.03zm3.102 0h2.067v2.061h-2.067v-1.03zm3.101 0h2.068v2.061H46.48v-1.03zm3.102 0h2.068v2.061H49.58v-1.03zm-37.22 3.092h2.068v2.062H12.36zm3.102 0h2.068v2.062h-2.068zm3.101 0h2.068v2.062h-2.068zm3.102 0h2.068v2.062h-2.068zm3.102 0h2.068v2.062h-2.068zm3.102 0h2.067v2.062H27.87zm3.101 0h2.068v2.062h-2.068zm3.102 0h2.068v2.062h-2.068zm3.102 0h2.067v2.062h-2.067zm3.101 0h2.068v2.062h-2.068zm3.102 0h2.068v2.062h-2.068zm3.102 0h2.068v2.062H46.48zm3.101 0h2.068v2.062h-2.068zm-37.22 3.093h2.068v2.062h-2.068zm3.102 0h2.068v2.062h-2.068zm3.102 0h2.068v2.062h-2.068zm3.102 0h2.067v2.062h-2.067zm3.101 0h2.068v2.062h-2.068zm3.102 0h2.068v2.062H27.87zm3.102 0h2.067v2.062h-2.067zm3.101 0h2.068v2.062h-2.068zm3.102 0h2.068v2.062h-2.068zm3.102 0h2.068v2.062h-2.068zm3.101 0h2.068v2.062h-2.068zm3.102 0h2.068v2.062H46.48zm3.102 0h2.068v2.062h-2.068zm-37.22 3.093h2.068v2.062h-2.068zm3.102 0h2.067v2.062h-2.067zm3.101 0h2.068v2.062h-2.068zm3.102 0h2.068v2.062h-2.068zm3.102 0h2.067v2.062H24.77zm3.101 0h2.068v2.062H27.87zm3.102 0h2.068v2.062h-2.068zm3.102 0h2.068v2.062h-2.068zm3.101 0h2.068v2.062h-2.068zm3.102 0h2.068v2.062h-2.068zm3.102 0h2.068v2.062h-2.068v-1.031zm3.102 0h2.067v2.062h-2.067v-1.031zm3.101 0h2.068v2.062h-2.068v-1.031zm-37.22 3.093h2.068v2.062h-2.068zm3.102 0h2.068v2.062h-2.068zm3.102 0h2.067v2.062h-2.067zm3.101 0h2.068v2.062h-2.068zm3.102 0h2.068v2.062h-2.068zm3.102 0h2.068v2.062H27.87zm3.101 0h2.068v2.062h-2.068zm3.102 0h2.068v2.062h-2.068zm3.102 0h2.068v2.062h-2.068zm3.102 0h2.067v2.062h-2.067zm3.101 0h2.068v2.062h-2.068zm3.102 0h2.068v2.062H46.48zm3.102 0h2.067v2.062h-2.067zm-37.22 3.093h2.067v2.061h-2.067zm3.101 0h2.068v2.061h-2.068zm3.102 0h2.068v2.061h-2.068zm3.102 0h2.068v2.061h-2.068zm3.101 0h2.068v2.061H24.77zm3.102 0h2.068v2.061H27.87zm3.102 0h2.068v2.061h-2.068zm3.102 0h2.067v2.061h-2.067zm3.101 0h2.068v2.061h-2.068zm3.102 0h2.068v2.061h-2.068zm3.102 0h2.067v2.061H43.38zm3.101 0h2.068v2.061h-2.068zm3.102 0h2.068v2.061h-2.068z" color="#000" opacity=".1"/><path fill="#afafaf" d="m40.002 23.004-8 .004-4.441 7.691-1.555-2.695h-2v1h1.428l2.133 3.693 5.02-8.693h6.42v1h1zm-5 3c-1.662 0-3 1.338-3 3a2.993 2.993 0 0 0 5 2.225v.775h1v-6h-1v.775a2.98 2.98 0 0 0-2-.775m0 1c1.108 0 2 .892 2 2s-.892 2-2 2-2-.892-2-2 .892-2 2-2m-11.99 6.99c-.006 0-.01.223-.01.5s.004.5.01.5h17.98c.006 0 .01-.223.01-.5s-.004-.5-.01-.5zm8 3c-.006 0-.01.223-.01.5s.004.5.01.5h1.98c.006 0 .01-.223.01-.5s-.004-.5-.01-.5z" color="#000"/></svg>