<svg xmlns="http://www.w3.org/2000/svg" width="64" height="64" viewBox="0 0 16.933 16.933"><g transform="translate(0 4.233) scale(.26458)"><path fill="none" d="M0-16h64v64H0z"/><rect width="46" height="54" x="-7" y="-59" fill="#84c835" color="#bebebe" overflow="visible" ry="0" transform="rotate(90)"/><rect width="47" height="55" x="-7.5" y="-59.5" fill="none" stroke="#48781f" stroke-opacity=".784" color="#bebebe" overflow="visible" ry="0" transform="rotate(90)"/><path d="M32-7h1v46h-1z" opacity=".15"/></g><path fill="#0c2809" d="m10.646 7.639.803-.803c.123-.123.123-.314 0-.438s-.315-.123-.439 0l-.913.914a3.605 3.605 0 0 0-1.63-.39c-.593 0-1.149.143-1.642.39l-.92-.914c-.124-.123-.315-.123-.439 0s-.123.315 0 .438l.81.81a3.694 3.694 0 0 0-1.513 2.981h7.408a3.683 3.683 0 0 0-1.525-2.988zM7.144 9.304h-.53v-.53h.53zm3.175 0h-.53v-.53h.53z" opacity=".5"/></svg>