<svg xmlns="http://www.w3.org/2000/svg" width="64" height="64" viewBox="0 0 16.933 16.933"><g transform="translate(0 -261.5) scale(.26458)"><path fill="#eb253e" d="m8.991 989.37 46.01.004v57.985H8.992V989.37z"/><path fill="none" stroke="#b01024" stroke-linejoin="round" stroke-width=".745" d="m6.5.5 35 .003v44.003h-35z" transform="matrix(1.3428 0 0 1.3408 -.228 988.19)"/><rect width="64" height="64" y="988.36" fill="none" opacity=".75" rx="0" ry="0"/></g><path fill="#fff" fill-rule="evenodd" d="M9.079 4.806 6.057 8.385c.787.126 2.116 1.121 1.916 2.443.408-.98-.342-2.176-1.062-2.658L9.547 5.02a1.244 1.244 0 0 0-.468-.215zm-1.017.25c-.117 0-.205.017-.2.017L6.895 6.18c-.542.03-1.07.066-1.581.118-.364.038-.654.327-.706.713a19.517 19.517 0 0 0-.111 2.124c0 .735.037 1.448.111 2.13.052.432.342.647.706.714 1.01.163 2.472.007 2.472-1.381 0-1.3-2.13-1.857-2.859-1.5L8.292 5.08a.95.95 0 0 0-.23-.025zm2.22 1.138s-1.893 4.203-2.08 4.634c-.281.638-.667 1.106-1.224 1.27.49.022.98.03 1.485.03 1.106 0 2.16-.053 3.148-.15a.805.805 0 0 0 .705-.712 17.97 17.97 0 0 0 .12-2.131c0-.735-.038-1.448-.12-2.124a.798.798 0 0 0-.705-.713c-.43-.044-.876-.081-1.33-.104z" clip-rule="evenodd"/></svg>