<svg xmlns="http://www.w3.org/2000/svg" width="64" height="64"><rect width="64" height="64" y="-.012" fill="none" opacity=".75" rx="0" ry="0"/><path fill="#986230" d="M9 1.002H55v59H9.003v-59z" color="#000" overflow="visible"/><path fill="none" stroke="#63401f" stroke-linecap="round" stroke-linejoin="round" stroke-width="1.002" d="m8.5.499 47 .004V60.5H8.502V.499z" color="#000" overflow="visible"/><path fill="#fff" d="M24 19.501a1 1 0 0 0-1 1h-2v21h22v-21h-2a1 1 0 0 0-1-1h-5a1 1 0 0 0-1 1h-3a1 1 0 0 0-1-1zm0 1h6.449v1H24zm11 0h5v1h-5zm-13 4h20v16H22zm2 2v5h1v-2h6v2h1v-5h-1v2h-6v-2zm8 7v5.25h1v-2.25h6v2h1v-5h-1v2h-6v-2z" color="#000" opacity=".75" style="isolation:auto;mix-blend-mode:normal"/></svg>