<svg xmlns="http://www.w3.org/2000/svg" width="64" height="64"><g transform="translate(0 -988.362)"><path d="M8.991 989.371l46.01.004v57.985H8.992v-57.989z" fill="#fc8f36"/><path d="M6.5.5l35 .003v44.003h-35V.5z" fill="none" stroke="#ac5200" stroke-width=".745" stroke-linejoin="round" opacity=".75" transform="matrix(1.34284 0 0 1.34075 -.228 988.192)"/><rect ry="0" rx="0" y="988.362" height="64" width="64" opacity=".75" fill="none"/></g><path d="M43.531 17c-.341 0-.689.047-1 .125-.301.078-.55.206-.781.406-.22.19-.4.458-.531.782-.13.312-.188.708-.188 1.187 0 .468.057.864.188 1.188.13.323.31.58.531.78.23.19.48.318.781.407.311.078.659.125 1 .125.342 0 .668-.047.969-.125.301-.09.56-.217.781-.406.231-.2.401-.458.532-.782.14-.323.218-.719.218-1.187 0-.48-.078-.875-.218-1.188-.131-.323-.3-.591-.532-.78a1.8 1.8 0 0 0-.781-.407 3.87 3.87 0 0 0-.969-.125zM25.22 19l-7.47 23h4.938l2-6h7.218l1.875 6h4.907l-7.5-23h-5.97zm3 3.156c.052.367.155.82.281 1.344.126.524.27 1.07.406 1.594.147.513.28.977.407 1.406.125.43.218.718.28.906L31.064 32h-5.625l1.468-4.594c.032-.115.094-.29.157-.531.073-.24.134-.498.218-.813.084-.314.187-.643.282-1 .094-.356.166-.716.25-1.062.094-.356.187-.686.25-1 .073-.314.114-.613.156-.844zM41 24v18h5V24h-5z" style="marker:none;isolation:auto;mix-blend-mode:normal;solid-color:#000;solid-opacity:1;filter-blend-mode:normal;filter-gaussianBlur-deviation:0" color="#000" overflow="visible" fill="#ffae60"/><path d="M43.637 17c-.341 0-.689.047-1 .125-.301.078-.55.206-.781.406-.221.19-.4.458-.531.782-.131.312-.188.708-.188 1.187 0 .468.057.864.188 1.188.13.323.31.58.53.78.232.19.48.318.782.407.311.078.659.125 1 .125.341 0 .668-.047.969-.125.301-.09.56-.217.781-.406.231-.2.4-.458.531-.782.14-.323.219-.719.219-1.187 0-.48-.078-.875-.219-1.188-.13-.323-.3-.591-.531-.78a1.8 1.8 0 0 0-.781-.407 3.87 3.87 0 0 0-.969-.125zm-18.312 2l-7.47 23h4.938l2-6h7.219l1.875 6h4.906l-7.5-23zm3 3.156c.052.367.155.82.28 1.344.127.524.27 1.07.407 1.594.147.513.28.977.406 1.406.126.43.219.718.282.906L31.168 32h-5.625l1.469-4.594c.031-.115.093-.29.156-.531.074-.24.135-.498.219-.813.084-.314.187-.643.281-1 .095-.356.166-.716.25-1.062.095-.356.187-.686.25-1 .074-.314.115-.613.157-.844zM41.105 24v18h5V24z" style="isolation:auto;mix-blend-mode:normal;solid-color:#000;solid-opacity:1;marker:none" color="#000" overflow="visible" fill="#fff" paint-order="markers stroke fill"/></svg>