<svg version="1.1" viewBox="0 0 64 64" xmlns="http://www.w3.org/2000/svg">
 <rect y="-1.4648e-5" width="64" height="64" rx="0" ry="0" fill="none" opacity=".75"/>
 <path d="m8.5 0.5 47 4e-3v58.996h-47z" fill="none" opacity=".3"/>
 <path d="m8.991 1.05c10.544 0 46.01 5e-3 46.01 5e-3v57.985h-46.009v-57.99z" fill="#25bb70"/>
 <path d="m8.5002 0.5414 46.998 0.004022v58.999h-46.998z" fill="none" stroke="#53ab45" stroke-linejoin="round" stroke-width=".99964"/>
 <g fill="#ffffff" opacity=".75">
  <path d="m29.168 18.873c-1.2718 0.28272-2.5298 0.67635-3.7093 1.27 0.02697 1.0415 0.09431 2.0394 0.2308 3.053-0.45805 0.29346-0.93951 0.54533-1.3673 0.88887-0.4347 0.33442-0.87863 0.65437-1.2722 1.0455-0.78636-0.52012-1.6186-1.0089-2.4761-1.4404-0.92422 0.99466-1.7884 2.0682-2.4943 3.2695 0.55479 0.87086 1.1499 1.7462 1.701 2.4288v7.373c0.01349 1.2e-4 0.02695 6.27e-4 0.04031 0.0019l4.5201 0.43582c0.23677 0.02285 0.42238 0.21343 0.43887 0.4507l0.13934 1.9953 3.9429 0.28137 0.27164-1.8416c0.03522-0.23877 0.24001-0.41572 0.48152-0.41572h4.7688c0.24139 0 0.44619 0.17696 0.48141 0.41572l0.27164 1.8416 3.943-0.28137 0.13928-1.9953c0.01661-0.23727 0.20204-0.42773 0.43881-0.4507l4.5183-0.43582c0.01336-0.0012 0.02671-0.0018 0.0402-0.0019v-0.58834l0.0019-5.85e-4v-6.784c0.6365-0.80128 1.2392-1.6851 1.701-2.4288-0.70569-1.2013-1.5703-2.2749-2.4946-3.2695-0.85717 0.43146-1.6898 0.92023-2.4761 1.4404-0.39349-0.39112-0.83668-0.71106-1.272-1.0455-0.42771-0.34354-0.9097-0.5954-1.3669-0.88887 0.13612-1.0136 0.20341-2.0115 0.23051-3.053-1.1796-0.59367-2.4375-0.9873-3.7099-1.27-0.508 0.85379-0.97258 1.7784-1.3772 2.6822-0.47978-0.08017-0.9618-0.10986-1.4445-0.1156v-7.62e-4c-0.0034 0-0.0065 7.62e-4 -0.0094 7.62e-4 -3e-3 0-0.0061-7.62e-4 -0.0091-7.62e-4v7.62e-4c-0.48353 0.0057-0.96519 0.03543-1.4451 0.1156-0.40436-0.90387-0.86861-1.8285-1.3774-2.6822zm-3.576 10.786c1.5045 0 2.724 1.2185 2.724 2.7226 0 1.505-1.2194 2.7243-2.724 2.7243-1.5038 0-2.7236-1.2192-2.7236-2.7243 0-1.504 1.2198-2.7226 2.7236-2.7226zm12.815 0c1.5037 0 2.7233 1.2185 2.7233 2.7226 0 1.505-1.2197 2.7243-2.7233 2.7243-1.5048 0-2.7243-1.2192-2.7243-2.7243 0-1.504 1.2195-2.7226 2.7243-2.7226zm-6.408 1.5933c0.48428 0 0.87762 0.35724 0.87762 0.79682v2.5077c0 0.43995-0.39334 0.79688-0.87762 0.79688s-0.8768-0.35693-0.8768-0.79688v-2.5077c0-0.43957 0.39252-0.79682 0.8768-0.79682z"/>
  <path d="m40.162 38.129-0.13999 2.0059c-0.01686 0.24176-0.20917 0.4342-0.45094 0.45156l-4.8147 0.34354c-0.01174 8.74e-4 -0.02348 0.0012-0.03509 0.0012-0.23927 0-0.44569-0.17558-0.48103-0.41584l-0.27611-1.8724h-3.9285l-0.27611 1.8724c-0.03709 0.252-0.26237 0.4332-0.51612 0.4146l-4.8147-0.34354c-0.24176-0.01736-0.43408-0.2098-0.45094-0.45156l-0.13999-2.0059-4.0644-0.39187c0.0019 0.43682 0.0075 0.91536 0.0075 1.0106 0 4.2926 5.4453 6.3558 12.211 6.3795h0.0166c6.7654-0.02373 12.209-2.087 12.209-6.3795 0-0.09703 0.0059-0.57357 0.0079-1.0106z"/>
  <path d="m27.661 32.543c0 0.99828-0.80909 1.8074-1.8081 1.8074-0.99853 0-1.8081-0.80909-1.8081-1.8074 0-0.99828 0.80959-1.8081 1.8081-1.8081 0.99903 0 1.8081 0.80984 1.8081 1.8081"/>
  <path d="m36.339 32.543c0 0.99828 0.80884 1.8074 1.8071 1.8074 0.99928 0 1.8081-0.80909 1.8081-1.8074 0-0.99828-0.80884-1.8081-1.8081-1.8081-0.99828 0-1.8071 0.80984-1.8071 1.8081"/>
 </g>
</svg>
