<svg xmlns="http://www.w3.org/2000/svg" width="64" height="64"><rect width="64" height="64" y="-.012" fill="none" opacity=".75" rx="0" ry="0"/><path fill="#585858" d="M9 1.002H55v59H9.003v-59z" color="#000" overflow="visible"/><path fill="none" stroke="#404040" stroke-linecap="round" stroke-linejoin="round" stroke-width="1.002" d="m8.5.499 47 .004V60.5H8.502V.499z" color="#000" overflow="visible"/><path fill="#e0e0e0" d="M30.3 18.502c-1.254 0-2.889.693-4.384 1.857-.897.377-1.527 1.249-1.527 2.263 0 .318.061.628.179.917-1.55.294-2.724 1.629-2.724 3.23 0 .333.051.661.152.978-.639.617-1 1.454-1 2.339 0 .692.22 1.334.595 1.865a3.212 3.212 0 0 0-.595 1.868c0 1.197.667 2.293 1.724 2.871a3.695 3.695 0 0 0-.027.446c0 1.614 1.078 3.041 2.64 3.527a3.797 3.797 0 0 0 3.27 1.838 3.804 3.804 0 0 0 3.393-2.057 3.804 3.804 0 0 0 3.393 2.057 3.8 3.8 0 0 0 3.272-1.838c1.563-.486 2.638-1.913 2.638-3.527 0-.149-.009-.298-.027-.446a3.283 3.283 0 0 0 1.724-2.871c0-.676-.204-1.318-.593-1.868.374-.53.593-1.173.593-1.865 0-.885-.361-1.723-1-2.339.101-.317.152-.645.152-.978 0-1.6-1.174-2.936-2.724-3.23a2.42 2.42 0 0 0 .179-.917c0-1.014-.63-1.886-1.527-2.263-1.495-1.164-3.129-1.857-4.384-1.857a2.11 2.11 0 0 0-1.697.85 2.108 2.108 0 0 0-1.697-.85m0 .778c.716 0 1.299.57 1.299 1.27v5.03a2.113 2.113 0 0 0-1.299-.444c-.22 0-.398.174-.398.389s.178.389.398.389c.716 0 1.299.57 1.299 1.27v9.344a3.792 3.792 0 0 0-2.01-1.31.4.4 0 0 0-.488.275.39.39 0 0 0 .281.477c1.306.343 2.217 1.505 2.217 2.826 0 1.615-1.344 2.929-2.995 2.929a2.998 2.998 0 0 1-2.65-1.569.398.398 0 0 0-.25-.194c-1.305-.343-2.215-1.504-2.215-2.824 0-.197.02-.396.06-.589a.387.387 0 0 0-.228-.433 2.514 2.514 0 0 1-1.529-2.296c0-.451.119-.882.347-1.264a3.394 3.394 0 0 0 2.223.824c.22 0 .398-.174.398-.389s-.178-.389-.398-.389c-1.418 0-2.57-1.129-2.57-2.515 0-.746.337-1.45.924-1.929a.382.382 0 0 0 .113-.444 2.44 2.44 0 0 1-.189-.944c0-1.386 1.152-2.513 2.57-2.513s2.572 1.127 2.572 2.513c0 .215.178.389.398.389s.398-.174.398-.389c0-1.744-1.395-3.174-3.151-3.283a1.65 1.65 0 0 1-.242-.864c0-.693.43-1.288 1.043-1.546a.34.34 0 0 0 .068-.029c.19-.071.395-.109.61-.109.666 0 1.261.364 1.552.949a.4.4 0 0 0 .53.179.383.383 0 0 0 .183-.519 2.524 2.524 0 0 0-1.685-1.319c1.015-.605 2.01-.949 2.812-.949m3.393 0c.798 0 1.797.344 2.812.949a2.527 2.527 0 0 0-1.685 1.319.384.384 0 0 0 .183.519.402.402 0 0 0 .532-.179 1.714 1.714 0 0 1 1.55-.949 1.732 1.732 0 0 1 .68.138 1.684 1.684 0 0 1 1.043 1.546c0 .307-.085.604-.244.864-1.756.109-3.149 1.539-3.149 3.283 0 .215.178.389.398.389s.398-.174.398-.389c0-1.386 1.152-2.513 2.57-2.513s2.572 1.127 2.572 2.513c0 .324-.064.641-.189.944a.383.383 0 0 0 .113.444c.587.48.924 1.183.924 1.929 0 1.386-1.154 2.515-2.572 2.515-.22 0-.398.174-.398.389s.178.389.398.389c.852 0 1.629-.312 2.223-.824.228.382.349.813.349 1.264 0 .991-.6 1.892-1.529 2.296a.387.387 0 0 0-.228.433c.04.193.06.392.06.589 0 1.32-.912 2.48-2.217 2.824a.398.398 0 0 0-.248.194 3 3 0 0 1-2.652 1.569c-1.652 0-2.995-1.314-2.995-2.929 0-.109-.006-.219-.016-.326a.352.352 0 0 0 .016-.103V25.526c0-.7.583-1.27 1.299-1.27.22 0 .398-.174.398-.389s-.178-.389-.398-.389c-.49 0-.941.167-1.299.444v-3.373c0-.7.583-1.27 1.299-1.27m5.938 6.686a.393.393 0 0 0-.398.389c0 1.386-1.152 2.513-2.57 2.513a2.579 2.579 0 0 1-1.837-.753c-.154-.153-.407-.156-.564-.006s-.16.396-.006.549c.551.55 1.264.887 2.036.969.183 1.183 1.23 2.093 2.49 2.093.22 0 .398-.174.398-.389s-.178-.389-.398-.389a1.718 1.718 0 0 1-1.683-1.325c1.65-.211 2.929-1.592 2.929-3.262a.393.393 0 0 0-.398-.389m-14.42.416a.392.392 0 0 0-.398.387c0 1.67 1.279 3.054 2.929 3.264a1.716 1.716 0 0 1-1.683 1.323c-.22 0-.398.174-.398.389s.178.389.398.389c1.26 0 2.308-.91 2.49-2.093a3.366 3.366 0 0 0 2.036-.967c.154-.153.151-.401-.006-.551s-.408-.148-.562.006a2.58 2.58 0 0 1-1.837.755c-1.418 0-2.572-1.129-2.572-2.515a.392.392 0 0 0-.398-.387m8.483 5.804c-.22 0-.398.174-.398.389s.178.389.398.389c1.418 0 2.572 1.129 2.572 2.515 0 .089-.006.177-.016.265-1.234.489-2.106 1.673-2.106 3.052 0 .215.178.389.398.389s.398-.174.398-.389c0-1.386 1.154-2.515 2.572-2.515.22 0 .398-.174.398-.389s-.178-.389-.398-.389c-.153 0-.305.011-.452.031l.002-.055c0-1.815-1.511-3.293-3.368-3.293m-4.664.829c-1.856 0-3.368 1.478-3.368 3.293l.002.055a3.55 3.55 0 0 0-.452-.031c-.22 0-.398.174-.398.389s.178.389.398.389c1.418 0 2.572 1.129 2.572 2.515 0 .215.178.389.398.389s.398-.174.398-.389c0-1.379-.872-2.564-2.106-3.052a2.6 2.6 0 0 1-.016-.265c0-1.386 1.154-2.515 2.572-2.515.22 0 .398-.174.398-.389s-.178-.389-.398-.389" color="#000" opacity=".75" style="isolation:auto;mix-blend-mode:normal"/></svg>