<svg xmlns="http://www.w3.org/2000/svg" width="64" height="64"><rect width="64" height="64" y="-.012" fill="none" opacity=".75" rx="0" ry="0"/><path fill="#f9d24c" d="M9 1.002H55v59H9.003v-59z" color="#000" overflow="visible"/><path fill="none" stroke="#bb9d39" stroke-linecap="round" stroke-linejoin="round" stroke-width="1.002" d="m8.5.499 47 .004V60.5H8.502V.499z" color="#000" overflow="visible"/><path fill="#fff" fill-rule="evenodd" d="M32 19.501c-1.876 7-7 11.134-7 15a7 7 0 1 0 14 0c0-3.866-5.124-8-7-15m4.813 11.428A6 6 0 0 1 38 34.501a6 6 0 0 1-6 6 6 6 0 0 1-3.566-1.183A7 7 0 0 0 30 39.5a7 7 0 0 0 7-7 6.999 6.999 0 0 0-.188-1.572" color="#4d4d4d" opacity=".9" style="isolation:auto;mix-blend-mode:normal"/></svg>