<svg xmlns="http://www.w3.org/2000/svg" width="64" height="64" viewBox="0 0 16.933 16.933"><g transform="translate(0 -261.504) scale(.26458)"><path fill="#fafafa" d="m8.991 989.371 46.01.004v57.985H8.992v-57.989z"/><path fill="none" stroke="#4f6698" stroke-linejoin="round" stroke-opacity=".267" stroke-width=".745" d="m6.5.5 35 .003v44.003h-35V.5z" transform="matrix(1.34284 0 0 1.34075 -.228 988.192)"/><rect width="64" height="64" y="988.362" fill="none" opacity=".75" rx="0" ry="0"/></g><g paint-order="stroke markers fill"><path fill="#f2f2f2" stroke="#475272" stroke-linecap="round" stroke-linejoin="round" stroke-opacity=".255" stroke-width=".529" d="m11.786 3.068-.231.523a1.342 1.342 0 0 0-.559-.013l-.206-.534-.456.176.207.534a1.342 1.342 0 0 0-.406.385l-.522-.231-.197.446.523.231a1.342 1.342 0 0 0-.014.559l-.533.206.176.456.535-.207a1.342 1.342 0 0 0 .385.404l-.232.524.446.197.231-.523a1.342 1.342 0 0 0 .559.013l.206.534.456-.176-.207-.535a1.342 1.342 0 0 0 .404-.385l.524.232.197-.446-.524-.232a1.342 1.342 0 0 0 .014-.558l.534-.207-.176-.455-.535.207A1.342 1.342 0 0 0 12 3.788l.232-.523zm-.246 1.158a.732.732 0 0 1 .373.966.732.732 0 0 1-.965.373.732.732 0 0 1-.374-.965.732.732 0 0 1 .966-.374z"/><path fill="#e6e6e6" stroke="#475272" stroke-linecap="round" stroke-linejoin="round" stroke-opacity=".255" stroke-width=".529" d="M6.601 6.483v.96a2.253 2.253 0 0 0-.866.36l-.68-.68-.58.58.68.68a2.253 2.253 0 0 0-.36.866h-.96v.819h.96a2.253 2.253 0 0 0 .36.867l-.68.679.58.58.681-.682a2.253 2.253 0 0 0 .865.36v.961h.819v-.96a2.253 2.253 0 0 0 .867-.359l.679.68.58-.58-.681-.681a2.253 2.253 0 0 0 .36-.865h.96v-.819h-.96a2.253 2.253 0 0 0-.36-.866l.68-.68-.58-.58-.68.681a2.253 2.253 0 0 0-.865-.36v-.96zm.41 1.946a1.229 1.229 0 0 1 1.228 1.23 1.229 1.229 0 0 1-1.228 1.228 1.229 1.229 0 0 1-1.23-1.229 1.229 1.229 0 0 1 1.23-1.229z"/><path fill="#f2f2f2" d="M6.601 6.483v.96a2.253 2.253 0 0 0-.866.36l-.68-.68-.58.58.68.68a2.253 2.253 0 0 0-.36.866h-.96v.819h.96a2.253 2.253 0 0 0 .36.867l-.68.679.58.58.681-.682a2.253 2.253 0 0 0 .865.36v.961h.819v-.96a2.253 2.253 0 0 0 .867-.359l.679.68.58-.58-.681-.681a2.253 2.253 0 0 0 .36-.865h.96v-.819h-.96a2.253 2.253 0 0 0-.36-.866l.68-.68-.58-.58-.68.681a2.253 2.253 0 0 0-.865-.36v-.96zm.41 1.946a1.229 1.229 0 0 1 1.228 1.23 1.229 1.229 0 0 1-1.228 1.228 1.229 1.229 0 0 1-1.23-1.229 1.229 1.229 0 0 1 1.23-1.229zm4.775-5.361-.231.523a1.342 1.342 0 0 0-.559-.013l-.206-.534-.456.176.207.534a1.342 1.342 0 0 0-.406.385l-.522-.231-.197.446.523.231a1.342 1.342 0 0 0-.014.559l-.533.206.176.456.535-.207a1.342 1.342 0 0 0 .385.404l-.232.524.446.197.231-.523a1.342 1.342 0 0 0 .559.013l.206.534.456-.176-.207-.535a1.342 1.342 0 0 0 .404-.385l.524.232.197-.446-.524-.232a1.342 1.342 0 0 0 .014-.558l.534-.207-.176-.455-.535.207A1.342 1.342 0 0 0 12 3.788l.232-.523zm-.246 1.158a.732.732 0 0 1 .373.966.732.732 0 0 1-.965.373.732.732 0 0 1-.374-.965.732.732 0 0 1 .966-.374z"/></g></svg>