<svg xmlns="http://www.w3.org/2000/svg" width="64" height="64" viewBox="0 0 16.933 16.933"><g transform="translate(0 -261.5) scale(.26458)"><path fill="#262626" d="m8.991 989.37 46.01.004v57.985H8.992V989.37z"/><path fill="none" stroke="#00c8ff" stroke-linejoin="round" stroke-width=".745" d="m6.5.5 35 .003v44.003h-35z" transform="matrix(1.3428 0 0 1.3408 -.228 988.19)"/><rect width="64" height="64" y="988.36" fill="none" opacity=".75" rx="0" ry="0"/></g><path fill="#00c8ff" d="M5.406 5.305c0-.034.068-.058.107-.058.31-.015.77-.024 1.251-.024 1.344 0 1.868.737 1.868 1.683 0 1.232-.893 1.76-1.99 1.76-.184 0-.247-.01-.378-.01v1.863c0 .04-.014.059-.058.059h-.742c-.039 0-.058-.015-.058-.059zm.863 2.576c.112.01.2.01.393.01.568 0 1.101-.2 1.101-.97 0-.617-.383-.927-1.028-.927-.194 0-.378.01-.466.014zm4.172-.578c-.383 0-.514.194-.514.355 0 .174.087.295.601.562.762.369 1 .723 1 1.242 0 .776-.593 1.193-1.393 1.193-.422 0-.786-.087-.994-.208-.034-.015-.039-.04-.039-.078v-.713c0-.049.024-.063.058-.039a1.8 1.8 0 0 0 .975.286c.383 0 .543-.16.543-.378 0-.175-.111-.33-.601-.582-.689-.33-.975-.665-.975-1.222 0-.626.49-1.145 1.339-1.145.417 0 .708.063.868.136.039.024.049.063.049.097v.664c0 .039-.025.063-.073.049-.214-.136-.529-.219-.844-.219z" class="st1"/></svg>