<svg xmlns="http://www.w3.org/2000/svg" width="64" height="64"><rect width="64" height="64" y="-.012" fill="none" opacity=".75" rx="0" ry="0"/><path fill="#4040bf" d="M9 1.002H55v59H9.003v-59z" color="#000" overflow="visible"/><path fill="none" stroke="#30308f" stroke-linecap="round" stroke-linejoin="round" stroke-width="1.002" d="m8.5.499 47 .004V60.5H8.502V.499z" color="#000" overflow="visible"/><path d="M21 19.501v13h7v-1h-4v-4h4v-1h6v-7zm1 1h1v2h-1zm2 0h7v4h-7zm8 0h1v2h-1zm-10 3h1v2h-1zm10 0h1v2h-1zm-10 4h1v2h-1zm7 0v10l4 4v-4h10v-10zm1 1h12v8H30zm-8 2h1v1h-1z" color="#000" opacity=".7" style="isolation:auto;mix-blend-mode:normal"/></svg>