<svg xmlns="http://www.w3.org/2000/svg" width="64" height="64"><rect width="64" height="64" y="988.362" fill="none" opacity=".75" rx="0" ry="0" transform="translate(0 -988.362)"/><path fill="#eb7867" d="m8.991 1.009 46.01.004v57.985H8.992V1.008z"/><path fill="none" stroke="#d3221d" stroke-linejoin="round" d="m8.5.5 47 .003V59.5h-47V.5z" opacity=".85"/><path fill="#3f3f3f" stroke="#2c2c2c" stroke-linejoin="round" stroke-width="2" d="M8.991 1.009 17 1.013v57.985H8.991V1.008z" paint-order="markers stroke fill"/><path fill="#3f3f3f" d="M8.991 1.009 17 1.013v57.985H8.991V1.008z" paint-order="markers stroke fill"/><path fill="#fff" fill-rule="evenodd" d="m36.711 16.003-3.022 4.86-5.408-2.282.608 6.03-5.467.992 4 4.119-4.681 4.43 6.207.992-.978 6.282 5.541-2.904 2.889 5.481 2.889-5.407 5.17 2.756-.118-5.897 5.6-.681L46 30.092l3.822-4.489-5.422-1.051.489-5.778-5.467 2.148z"/></svg>