<svg width="64" height="64" version="1.1" xmlns="http://www.w3.org/2000/svg">
 <path d="m0-0.012h64v64h-64z" fill="none" opacity=".75"/>
 <path d="m9 1.002h46v59h-45.997v-59z" fill="#5d42b8"/>
 <path d="m8.5 0.499 47 4e-3v59.997h-46.998v-60.001z" fill="none" stroke="#3d306b" stroke-linecap="round" stroke-linejoin="round" stroke-width="1.002"/>
 <g fill="#fff">
  <path d="M27.587 23.677c-.841-1.163-2.5-1.927-4.044-1.927-2.553 0-4.927 1.568-4.927 5.872v7.215a.885.885 0 0 0 1.772 0v-7.215c-.001-3.27 1.577-4.103 3.155-4.103s3.155 1.311 3.155 3.525v7.793c0 .49.397.883.886.883h.008a.883.883 0 0 0 .886-.883v-7.793c0-2.214 1.577-3.525 3.155-3.525 1.002 0 3.155.445 3.155 3.525l.06 2.617c0 4.837 3.247 6.06 5.313 6.06s5.16-1.428 5.223-5.707v-6.848c0-1.178-1.776-1.178-1.776 0v6.848c0 3.246-2.414 3.938-3.447 3.938s-3.542-.487-3.542-4.29l-.059-2.475c0-3.669-2.302-5.584-4.927-5.584-1.545 0-3.205.91-4.046 2.074zM36.425 19.241c0-1.77 1.304-3.689 3.56-3.689s3.554 1.919 3.554 3.69c0 1.328 1.775 1.328 1.775 0 0-3.1-2.337-5.46-5.33-5.46s-5.329 2.36-5.329 5.46c0 1.328 1.77 1.328 1.77 0z"/>
  <path d="m41.324 19.29a1.168 1.168 0 1 0-2.337 0 1.168 1.168 0 0 0 2.337 0z"/>
  <g stroke-width=".832">
   <path d="m20.053 40.025 2.32 5.792 2.321-5.792h1.214v7.1h-.936V44.36l.088-2.984-2.33 5.748h-.717l-2.326-5.733.093 2.969v2.764h-.936v-7.099zM29.652 43.96q-1.204-.346-1.755-.848-.546-.507-.546-1.249 0-.838.668-1.384.673-.551 1.746-.551.73 0 1.301.283.576.282.888.78.317.497.317 1.087h-.941q0-.644-.41-1.01-.41-.37-1.155-.37-.693 0-1.083.307-.385.303-.385.844 0 .434.366.736.37.297 1.253.546.887.249 1.384.551.503.297.741.697.244.4.244.941 0 .863-.673 1.385-.672.517-1.799.517-.731 0-1.365-.278-.634-.283-.98-.77-.341-.488-.341-1.107h.941q0 .643.473 1.019.478.37 1.272.37.741 0 1.136-.302.395-.302.395-.824t-.365-.805q-.366-.287-1.327-.565zM38.706 44.872q-.131 1.126-.834 1.74-.697.61-1.857.61-1.258 0-2.019-.902-.755-.902-.755-2.414v-.682q0-.99.35-1.74.357-.752 1.005-1.151.649-.405 1.502-.405 1.13 0 1.813.634.683.629.795 1.745h-.94q-.123-.848-.532-1.228-.405-.38-1.136-.38-.897 0-1.41.662-.506.663-.506 1.887v.688q0 1.155.482 1.838.483.682 1.35.682.781 0 1.195-.35.42-.357.556-1.234zM42.3 42.746l1.7-2.72h1.103l-2.243 3.52 2.296 3.578h-1.111l-1.746-2.77-1.755 2.77h-1.107l2.302-3.578-2.248-3.52h1.097z"/>
  </g>
 </g>
</svg>
