<svg xmlns="http://www.w3.org/2000/svg" width="64" height="64" viewBox="0 0 16.933 16.933"><g transform="translate(0 -261.5) scale(.26458)"><path fill="#fafafa" d="m8.991 989.37 46.01.004v57.985H8.992V989.37z"/><path fill="none" stroke="#4f6698" stroke-linejoin="round" stroke-opacity=".267" stroke-width=".745" d="m6.5.5 35 .003v44.003h-35z" transform="matrix(1.3428 0 0 1.3408 -.228 988.19)"/><rect width="64" height="64" y="988.36" fill="none" opacity=".75" rx="0" ry="0"/></g><g fill="#f09020"><path d="m11.12 13.759-.525.002v-1.4c-.247.237-.802.708-.802.708l-.789-.707v1.397l-.53-.003v-2.114l.507.005c.017 0 .036.018.05.032.21.21.764.676.764.676s.59-.497.76-.669a.123.123 0 0 1 .099-.041c.108.002.354-.003.467-.003zM6.83 12.244l.571-.564c.017-.017.043-.036.064-.036.163-.002.48-.002.48-.002v2.117h-.529v-1.376L6.09 13.71a.149.149 0 0 1-.117.049c-.2-.003-.658 0-.658 0zM5.07 12.742l-1.101-1.1.574.001a.13.13 0 0 1 .104.042c.228.231.458.46.687.688.016.017.034.032.053.05.243-.243.485-.482.724-.723a.169.169 0 0 1 .135-.057h.556L5.654 12.79c-.308.307-.617.612-.924.92a.154.154 0 0 1-.123.049h-.546zM11.65 11.642h.529v1.72s.691 0 1.01 0a.132.132 0 0 1 .105.042c.1.103.201.208.303.31l.04.045H11.65z" class="cls-1"/></g><g fill="none" stroke="#999" stroke-width="8" transform="matrix(.06614 0 0 .06614 -1.587 -1.851)"><ellipse cx="152" cy="115.98" stroke-dashoffset="1" stroke-linejoin="round" rx="52" ry="20"/><path d="M99.999 115.99v48"/><g stroke-dashoffset="1" stroke-linejoin="round"><path d="M204 131.98a52 20 0 0 1-26 17.32 52 20 0 0 1-52 0 52 20 0 0 1-26-17.32"/><path d="M204 147.98a52 20 0 0 1-26 17.321 52 20 0 0 1-52 0 52 20 0 0 1-26-17.321"/><path d="M204 163.98a52 20 0 0 1-26 17.321 52 20 0 0 1-52 0 52 20 0 0 1-26-17.321"/></g><path d="M204 115.99v48"/></g></svg>