<svg xmlns="http://www.w3.org/2000/svg" width="64" height="64"><rect width="64" height="64" y="-.012" fill="none" opacity=".75" rx="0" ry="0"/><path fill="#8542c2" d="M9 1.002H55v59H9.003v-59z" color="#000" overflow="visible"/><path fill="none" stroke="#643191" stroke-linecap="round" stroke-linejoin="round" stroke-width="1.002" d="m8.5.499 47 .004V60.5H8.502V.499z" color="#000" overflow="visible"/><path fill="#fff" d="m36 18.501-4 4.5-1.26 1.5H34v1h-8v11h-3.238l1.238 1.5 4 4.5 4-4.5 1.26-1.5H30v-1h8v-11h3.238L40 23.001zm0 1.504 3.107 3.496H37v11h-7v-2h5v-9h-2.107zm-9 6.496h7v2h-5v9h2.107L28 40.997l-3.107-3.496H27v-1zm3 3h4v2h-4z" color="#4d4d4d" opacity=".75" style="isolation:auto;mix-blend-mode:normal"/></svg>