<svg xmlns="http://www.w3.org/2000/svg" width="64" height="64" viewBox="0 0 16.933 16.933"><rect width="64" height="64" y="988.36" fill="none" opacity=".75" rx="0" ry="0" transform="translate(0 -261.5) scale(.26458)"/><path fill="#55c1ec" d="M2.381.265h12.171V15.61H2.382V.265z" overflow="visible"/><path fill="none" d="m2.249.132 12.435.001v15.61H2.25V.133z" opacity=".3"/><path fill="none" stroke="#1e95c2" stroke-linejoin="round" stroke-width=".265" d="m2.249.132 12.435.001v15.61H2.25V.133z"/><g fill="#fff"><path d="M8.467 6.238a3.44 3.44 0 0 0-3.44 3.44 3.44 3.44 0 0 0 3.44 3.439 3.44 3.44 0 0 0 3.44-3.44 3.44 3.44 0 0 0-3.44-3.44zm0 1.393a2.046 2.046 0 0 1 2.046 2.046 2.046 2.046 0 0 1-2.046 2.045 2.046 2.046 0 0 1-2.046-2.045 2.046 2.046 0 0 1 2.046-2.046z" opacity=".15" style="paint-order:stroke markers fill" transform="translate(0 -1.607)"/><g style="paint-order:stroke markers fill"><path d="M8.467 5.153a2.91 2.91 0 0 0-2.91 2.91 2.91 2.91 0 0 0 2.91 2.91 2.91 2.91 0 0 0 2.91-2.91 2.91 2.91 0 0 0-2.91-2.91zm0 1.323a1.587 1.587 0 0 1 1.587 1.588A1.587 1.587 0 0 1 8.467 9.65a1.587 1.587 0 0 1-1.588-1.587 1.587 1.587 0 0 1 1.588-1.588z"/><path d="M7.938 3.963h1.058v1.852H7.938zm0 6.35h1.058v1.852H7.938zm4.63-2.778v1.058h-1.852V7.535zm-6.35 0v1.058H4.366V7.535zm5.522 3.055-.747.748-1.31-1.31.748-.748zM7.25 6.1l-.747.748-1.31-1.31.748-.748zm-1.309 5.238-.748-.748 1.31-1.31.748.748zm4.49-4.49L9.683 6.1l1.31-1.31.748.748z"/></g></g></svg>