<svg xmlns="http://www.w3.org/2000/svg" width="64" height="64" viewBox="0 0 16.933 16.933"><g transform="translate(0 -261.504) scale(.26458)"><path fill="#fafafa" d="m8.991 989.371 46.01.004v57.985H8.992v-57.989z" style="fill:#209ddf;fill-opacity:1"/><path d="M30.208 1003.374v3.489h-7.674v3.256h18.849v-3.256h-7.92v-3.49zm1.304 7.381a6.377 6.377 0 0 0-6.378 6.378 6.377 6.377 0 0 0 6.378 6.378 6.377 6.377 0 0 0 6.377-6.378 6.377 6.377 0 0 0-6.377-6.378zm-.06 3.201a3.187 3.187 0 1 1 .063 6.377 3.179 3.179 0 0 1-2.252-.933 3.192 3.192 0 0 1 2.189-5.445zm.205 10.29a2.317 2.317 0 1 0 .004 4.634 2.317 2.317 0 0 0-.003-4.634zM22 1025.699v7.675h20v-3.257H25.256v-4.418z" style="fill:#fff;stroke-width:2.02316"/><path fill="none" stroke="#4f6698" stroke-linejoin="round" stroke-opacity=".267" stroke-width=".745" d="m6.5.5 35 .003v44.003h-35z" style="stroke:#287bb8;stroke-opacity:.266667" transform="matrix(1.34284 0 0 1.34075 -.228 988.192)"/><rect width="64" height="64" y="988.362" fill="none" opacity=".75" rx="0" ry="0"/></g></svg>