<svg xmlns="http://www.w3.org/2000/svg" width="64" height="64"><rect width="64" height="64" y="-.012" fill="none" opacity=".75" rx="0" ry="0"/><path fill="#8542c2" d="M9 1.002H55v59H9.003v-59z" color="#000" overflow="visible"/><path fill="none" stroke="#643191" stroke-linecap="round" stroke-linejoin="round" stroke-width="1.002" d="m8.5.499 47 .004V60.5H8.502V.499z" color="#000" overflow="visible"/><path fill="#fff" d="M32 19.502a11 3 0 0 0-2.125.059c-.02 0-.041 0-.061.002-.059.003-.113.008-.172.012a11 3 0 0 0-1.924.164 11 3 0 0 0-.002 0 11 3 0 0 0-1.782.263c-.036.007-.075.011-.111.018a11 3 0 0 0-1.518.344c-.037.01-.077.017-.113.027a11 3 0 0 0-1.215.4c-.057.022-.119.044-.174.066a11 3 0 0 0-.222.102c-.11.05-.22.1-.32.152a11 3 0 0 0-.194.11c-.093.053-.186.106-.268.161a11 3 0 0 0-.138.104c-.08.06-.155.12-.221.182a11 3 0 0 0-.096.101 1.531 1.531 0 0 0-.154.188 11 3 0 0 0-.069.121.97.97 0 0 0-.074.166 11 3 0 0 0-.047.258v10a11 3 0 0 0 1 1.242 11 3 0 0 0 .012.006 11 3 0 0 0 .476.252 11 3 0 0 0 .032.014 11 3 0 0 0 .55.232 11 3 0 0 0 .065.024 11 3 0 0 0 .59.2 11 3 0 0 0 .132.042 11 3 0 0 0 .65.18 11 3 0 0 0 .1.025 11 3 0 0 0 .774.176 11 3 0 0 0 .053.01 11 3 0 0 0 .814.15 11 3 0 0 0 .139.023 11 3 0 0 0 .779.115 11 3 0 0 0 .22.03 11 3 0 0 0 .737.082 11 3 0 0 0 .367.037 11 3 0 0 0 .54.045 11 3 0 0 0 .591.04 11 3 0 0 0 .49.026 11 3 0 0 0 .577.024 11 3 0 0 0 .462.013 11 3 0 0 0 .85.012 11 3 0 0 0 .959-.014 11 3 0 0 0 .414-.013 11 3 0 0 0 .717-.03 11 3 0 0 0 .346-.021 11 3 0 0 0 .707-.049 11 3 0 0 0 .318-.03 11 3 0 0 0 .768-.075 11 3 0 0 0 .18-.022 11 3 0 0 0 .808-.107 11 3 0 0 0 .213-.035 11 3 0 0 0 .677-.112 11 3 0 0 0 .313-.06 11 3 0 0 0 .596-.125 11 3 0 0 0 .195-.047 11 3 0 0 0 .662-.168 11 3 0 0 0 .014-.004 11 3 0 0 0 .023-.008 11 3 0 0 0 .701-.219 11 3 0 0 0 .637-.244 11 3 0 0 0 .002 0 11 3 0 0 0 .006-.002 11 3 0 0 0 .535-.254 11 3 0 0 0 .006-.004 11 3 0 0 0 .203-.115 11 3 0 0 0 1-1.242v-4h-2.385c-1.732.596-4.922 1-8.615 1-5.523 0-10-.9-10-2v-3.758l.004.002a11 3 0 0 0 .744.371l.031.014a11 3 0 0 0 .93.34 11 3 0 0 0 1.058.287l.088.02a11 3 0 0 0 2.512.441l.11.014a11 3 0 0 0 1.316.137l.115.01a11 3 0 0 0 1.398.086c.108.005.217.006.326.01a11 3 0 0 0 1.368.026 11 3 0 0 0 3-.117v-.977a10 2 0 0 1-1 .053v-.01c-.65.03-1.307.051-2 .051-.69 0-1.365-.014-2.016-.041a43.146 43.146 0 0 1-1.714-.105 10 2 0 0 1-.29-.023 33.64 33.64 0 0 1-1.5-.164l-.095-.012a23.583 23.583 0 0 1-1.354-.225 10 2 0 0 1-.139-.026c-.393-.08-.746-.166-1.068-.258a10 2 0 0 1-.172-.049 6.548 6.548 0 0 1-.764-.28 10 2 0 0 1-.177-.079c-.03-.015-.054-.03-.082-.045a10 2 0 0 1-.233-.14c-.03-.022-.057-.044-.084-.066a10 2 0 0 1-.133-.118c-.027-.029-.047-.058-.068-.088a10 2 0 0 1-.068-.113c-.023-.058-.043-.108-.043-.168a10 2 0 0 1 .2-.396 10 2 0 0 1 .622-.397 6.44 6.44 0 0 1 .816-.301 10 2 0 0 1 .104-.033 10 2 0 0 1 .004-.002c.342-.1.729-.192 1.154-.277l.045-.01a23.86 23.86 0 0 1 1.375-.23 10 2 0 0 1 .142-.019c.456-.06.946-.113 1.451-.158a10 2 0 0 1 .35-.031 44.04 44.04 0 0 1 1.594-.098 10 2 0 0 1 .22-.01 42.591 42.591 0 0 1 3.923.013v-.01a10 2 0 0 1 1 .053v-.98a11 3 0 0 0-3-.114m0 16h-1v3h1v1h-8v-1h-3v3h3v-1h16v1h3v-3h-3v1h-7v-1h1v-3zm7-16v3h1v-1.219a2.96 2.96 0 0 1 1 2.219c0 1.662-1.338 3-3 3h-2v1h2c2.216 0 4-1.784 4-4a3.953 3.953 0 0 0-1.373-3H42v-1zm-17 9.24c1.784 1.07 5.692 1.759 10 1.76 4.31-.001 8.22-.69 10-1.76v3.76a10 2 0 0 1-10 2 10 2 0 0 1-10-2v-2zm10 7.76h1v1h-1zm-10 3h1v1h-1zm19 0h1v1h-1z" opacity=".75"/></svg>