<svg xmlns="http://www.w3.org/2000/svg" width="64" height="64" viewBox="0 0 16.933 16.933"><rect width="16.933" height="16.933" fill="none" opacity=".75" rx="0" ry="0"/><path fill="#90d344" d="m2.379.267 12.173.001V15.61H2.379V.267z"/><g stroke-linejoin="round"><path fill="none" stroke="#4e7b31" stroke-width=".265" d="m2.249.132 12.435.001v15.61H2.249z" opacity=".85"/><ellipse cx="8.466" cy="10.848" opacity=".1" rx="2.381" ry="1.058" style="paint-order:stroke fill markers"/><ellipse cx="8.466" cy="10.848" opacity=".1" rx="1.587" ry=".529" style="paint-order:stroke fill markers"/></g><path fill="#fff" fill-rule="evenodd" d="M8.466 4.498a2.381 2.381 0 0 0-2.38 2.381c0 1.315 1.587 3.969 2.38 3.969.794 0 2.382-2.654 2.382-3.969a2.381 2.381 0 0 0-2.382-2.381zm0 1.058a1.323 1.323 0 1 1 0 2.646 1.323 1.323 0 0 1 0-2.646z"/></svg>