<svg height="64" viewBox="0 0 64 64" width="64" xmlns="http://www.w3.org/2000/svg">
  <path d="m0-.012027h64v64h-64z" fill="none" opacity=".75" />
  <path d="m8.9992 1.0016h46.002v59h-45.998v-59z" fill="#4b6386" stroke-width="3.7796" />
  <path d="m8.5003.49889 46.999.00378v59.997h-46.996v-60.001z" fill="none" stroke="#35455e" stroke-linecap="round" stroke-linejoin="round" stroke-width="1.0016" />
  <path d="m43.323127 16.939924c-.07221.00025-.145456.01971-.213318.06225-.360534.226036-.261841.781317.151063.848695.19003.03101.385051.142384.466919.267333.03272.04996.05283.09661.04486.103453-.458972.393337-.966735.774538-1.031801.774538-.10194 0-.306656-.224042-.335999-.367128-.07843-.382654-.17295-.507915-.421144-.557556-.234734-.04695-.535204.194282-.535583.429382-.000325.19892.170207.395464.412902.476077.171578.05699.487978.289646.487978.358886 0 .03035-.681391.553215-.954896.732422l-.106204.06958-.143738-.154725c-.07929-.08501-.153638-.19844-.164794-.251771-.01112-.05333-.02967-.142036-.0412-.196838-.02883-.137221-.21305-.299309-.374451-.32959-.311282-.0584-.588568.235249-.507201.537415.04398.163337.223603.343323.343323.343323.09173 0 .341263.124645.406494.203248.02677.03225.03899.08256.02747.112605-.0115.03006-.197336.174277-.413818.319519-.216483.145248-.402357.293756-.412904.330506-.01063.03676-.02986.286197-.04303.55481-.02904.593086-.08367.801409-.289307 1.113283-.179208.271797-.324882.419477-2.323612 2.345584-2.660234 2.563573-4.214907 4.036565-4.259954 4.036565-.02458 0-.161555-.07982-.304871-.176697-.633399-.428166-.7715-.513377-1.148083-.706788-1.230225-.631837-2.354384-.707736-3.328863-.22522-.489872.24256-.869008.616359-1.771548 1.746828-.836441 1.047674-1.382011 1.616755-1.84479 1.922609-.536717.354727-.807355.470993-2.214663.957644-1.76164.609182-2.130228.769819-2.785953 1.209413-1.301451.872492-2.11702 1.860025-2.514041 3.045048-.254906.760784-.241121 1.982822.03204 2.83997.567023 1.779227 2.089125 3.762267 4.158331 5.418096.685377.548457 1.414332.998591 2.122194 1.310122.649421.285811 1.076881.405616 1.708376.478821.253739.02943.886438.02222 1.184694-.01373 1.13692-.13713 2.269825-.830691 3.223576-1.97205.692986-.829297 1.042828-1.535145 1.676334-3.391117.795449-2.330409 1.032711-2.663051 3.007511-4.216008 1.140087-.89655 1.541602-1.337676 1.768801-1.940005.438514-1.16255.162339-2.437988-.855104-3.951422-.185124-.275366-.345572-.525725-.357057-.555725-.02141-.05581.07745-.171306.717775-.840455.187838-.196289.713147-.746087 1.167299-1.221315 3.973455-4.157847 4.364276-4.542723 4.808356-4.734198.105215-.04538.323768-.07378.727845-.09613.31739-.01752.604279-.04152.638123-.0531.03388-.01163.185528-.207262.336915-.433959.151391-.226693.292886-.411987.314026-.411987.08824 0 .25263.234475.276489.393677.02828.188633.12282.305098.308534.38269.174445.0729.320125.03552.455017-.118107.147131-.167576.176753-.319093.09705-.487065-.06862-.144591-.259246-.283814-.3891-.283814-.113243 0-.265029-.0844-.393677-.219727l-.10803-.114442.305788-.424807c.168245-.233563.347608-.475428.399167-.537414l.0943-.112605.167543.181275c.107778.116142.176629.230377.193176.319519.03488.187902.107704.289749.257263.360717.249104.118207.476143.04089.603333-.205078.08071-.156048.06878-.299954-.03845-.457764-.09153-.134696-.163228-.169876-.477905-.234375-.137817-.02825-.367126-.234774-.367126-.330506 0-.06903.622969-.882946.768128-1.003419.04974-.04127.07806-.02749.188599.08972.07155.07587.149337.208768.172119.295716.0662.252502.122383.341589.261841.413819.198947.103053.400381.06439.557556-.107115.114768-.125247.124784-.154428.107117-.311282-.01546-.137094-.04706-.198797-.153809-.29663-.07899-.07239-.175112-.122682-.231629-.122682-.130007 0-.273945-.08019-.422975-.235293l-.123595-.129089.255432-.272828c.310776-.331991.365161-.442083.313111-.635376-.05871-.218002-.463087-.800954-.71045-1.024477-.266699-.240998-.720641-.519736-.891726-.547486-.204509-.03319-.304014.01588-.601501.298462l-.28473.270998-.164795-.174867c-.120715-.127765-.170654-.216351-.189498-.334153-.041972-.262498-.251213-.437457-.467835-.436707zm-14.677754 16.445638c.269724.000781.550852.06999.841372.207825.92519.438947 1.30598 1.492306.875246 2.418827-.213792.459885-.614666.8284-1.058351.974121-.709801.233128-1.479319.04162-1.966555-.489807-.361069-.393815-.48008-.746639-.459595-1.360476.01262-.378134.02609-.443327.136412-.677491.08658-.183773.195391-.331187.375368-.507203.387134-.37861.806566-.567097 1.256103-.565796zm-4.268192 3.729864c.03948.0031.07763.01733.13092.04395.131738.06577 1.787839 1.706094 2.118532 2.098391.143743.170513.184088.246239.181275.342407-.0044.153478-.10239.307464-.240783.379029-.19851.102652-.27696.0727-.625306-.239868-.444801-.399117-1.758523-1.718001-1.892398-1.899726-.205293-.278681-.116056-.610936.1886-.70221.05909-.01771.09968-.02511.13916-.02197z" fill="#fff" stroke-width=".029926" />
</svg>
