<svg xmlns="http://www.w3.org/2000/svg" width="64" height="64" viewBox="0 0 16.933 16.933"><g transform="translate(0 -261.5) scale(.26458)"><rect width="64" height="64" y="988.37" fill="none" opacity=".75" rx="0" ry="0"/><path fill="none" d="m8.5 988.87 47 .004v58.996h-47z" opacity=".3"/><path fill="#209ddf" d="M8.99 989.42c10.545 0 46.01.005 46.01.005v57.985H8.993v-57.99z"/><path fill="none" stroke="#1e85b9" stroke-linejoin="round" d="m8.5 988.92 47 .004v58.997h-47z"/><path fill="#fff" d="M30.208 1003.4v3.49h-7.674v3.255h18.85v-3.256h-7.92v-3.489zm1.304 7.381a6.377 6.377 0 0 0-6.378 6.378 6.377 6.377 0 0 0 6.378 6.378 6.377 6.377 0 0 0 6.378-6.378 6.377 6.377 0 0 0-6.378-6.378zm-.06 3.201a3.188 3.188 0 1 1 .063 6.377 3.179 3.179 0 0 1-2.252-.932 3.192 3.192 0 0 1 2.189-5.446zm.205 10.29a2.317 2.317 0 1 0 .004 4.635 2.317 2.317 0 0 0-.003-4.635zM22 1025.726v7.674h20v-3.256H25.256v-4.418z"/></g></svg>