<svg width="64" height="64" version="1.1" viewBox="0 0 16.933 16.933" xmlns="http://www.w3.org/2000/svg">
 <g transform="matrix(.26458 0 0 .26458 0 -261.5)">
  <rect y="988.37" width="64" height="64" rx="0" ry="0" fill="none" opacity=".75" stroke-width=".99999"/>
  <path d="m8.4999 988.87 47 4e-3v58.996h-47z" fill="none" opacity=".3" stroke-width=".99999"/>
  <path d="m8.9909 989.42c10.544 0 46.01 5e-3 46.01 5e-3v57.985h-46.009v-57.99z" fill="#209ddf" stroke-width=".99999"/>
  <path d="m8.5004 988.92 46.999 4e-3v58.997h-46.999z" fill="none" stroke="#1e85b9" stroke-linejoin="round" stroke-width=".99963"/>
  <path d="m30.208 1003.4v3.4891h-7.6738v3.2563h18.849v-3.2563h-7.9188v-3.4891zm1.3039 7.3813c-3.5226-4e-4 -6.3783 2.8554-6.3777 6.378-3.23e-4 3.5224 2.8553 6.378 6.3777 6.3776 3.5224 4e-4 6.378-2.8552 6.3777-6.3776 5.44e-4 -3.5226-2.8551-6.3784-6.3777-6.378zm-0.06 3.2009c0.8544-0.015 1.7005 0.3075 2.3274 0.936 0.91185 0.9135 1.1836 2.2855 0.6876 3.4774-0.49605 1.191-1.6605 1.9671-2.9518 1.964-0.8451 0-1.6554-0.3345-2.2523-0.9331-0.597-0.5984-0.93375-1.4115-0.93255-2.2564 0-1.2915 0.7788-2.4543 1.9718-2.9476 0.3729-0.1545 0.76155-0.2325 1.1499-0.2415zm0.2055 10.29c-1.2794 0-2.3153 1.04-2.3148 2.3194 0.0014 1.2783 1.0372 2.3144 2.3156 2.316 1.2799 5e-4 2.3181-1.0361 2.3195-2.316 4.72e-4 -1.2812-1.0383-2.3199-2.3195-2.3194zm-9.6574 1.4535v7.6744h20v-3.2565h-16.744v-4.4179z" fill="#ffffff" stroke-width="2.0232"/>
 </g>
</svg>
