<svg xmlns="http://www.w3.org/2000/svg" width="64" height="64" viewBox="0 0 16.933 16.933"><g transform="translate(0 -261.5) scale(.26458)"><path fill="#fafafa" d="m8.991 989.37 46.01.004v57.985H8.992V989.37z"/><path fill="none" stroke="#4f6698" stroke-linejoin="round" stroke-opacity=".267" stroke-width=".745" d="m6.5.5 35 .003v44.003h-35z" transform="matrix(1.3428 0 0 1.3408 -.228 988.19)"/><rect width="64" height="64" y="988.36" fill="none" opacity=".75" rx="0" ry="0"/></g><g stroke-width="4"><path fill="none" stroke="#f34f17" stroke-width=".26456" d="m5.923 7.054 5.084 2.805"/><path fill="#8f76e4" fill-opacity=".251" fill-rule="evenodd" stroke="#8c59d9" stroke-width=".26456" d="M6.35 12.17c3.44 1.588 5.027-2.116 2.117-3.703s-1.323-5.292 2.116-3.705"/><g stroke-dashoffset="1" transform="matrix(.06614 0 0 .06614 -1.587 -1.852)"><circle cx="108" cy="132" r="6" fill="none" stroke="#f34f17" stroke-linejoin="round"/><circle cx="196" cy="180" r="6" fill="none" stroke="#f34f17" stroke-linejoin="round"/><g fill="#fff" stroke="#8f76e4"><path d="M178 94h12v12h-12zM146 150h12v12h-12zM114 206h12v12h-12z"/></g></g></g></svg>