<svg xmlns="http://www.w3.org/2000/svg" width="64" height="64"><rect width="64" height="64" y="-.012" fill="none" opacity=".75" rx="0" ry="0"/><path fill="#249ce7" d="M9 1.002H55v59H9.003v-59z" color="#000" overflow="visible"/><path fill="none" stroke="#1873ad" stroke-linecap="round" stroke-linejoin="round" stroke-width="1.002" d="m8.5.499 47 .004V60.5H8.502V.499z" color="#000" overflow="visible"/><path fill="#fff" fill-opacity=".252" d="M15 1h1v59h-1z"/><path fill-opacity=".083" d="M16 1h1v59h-1z" color="#000"/><path fill="#fff" d="M23 20v22h22V20h-1v1h-2v-1h-2v1h-2v-1h-2v1h-3v-1h-2v1h-3v-1h-2v1h-2v-1zm1 3h20v18H24V23m3 4v1h14v-1zm0 4v1h8v-1zm0 4v1h11v-1zm11 3v1h3v-1z" color="#000" opacity=".8" style="isolation:auto;mix-blend-mode:normal"/></svg>