<svg xmlns="http://www.w3.org/2000/svg" width="64" height="64"><rect width="64" height="64" y="988.362" fill="none" opacity=".75" rx="0" ry="0" transform="translate(0 -988.362)"/><path fill="none" d="m8.5.5 47 .004V59.5h-47V.5z" opacity=".3"/><path fill="#2095f2" d="M8.991 1.05c10.544 0 46.01.005 46.01.005V59.04H8.992V1.05z"/><path fill="none" stroke="#1378c5" stroke-linejoin="round" stroke-width=".745" d="m6.5.5 35 .003v44.003h-35V.5z" transform="matrix(1.34284 0 0 1.34076 -.228 -.129)"/><path fill="#fff" d="M30 19.042v4h4v-4zm1 1h2v2h-2zM29.336 21.3l-1.932.518.26.967 1.932-.518zm-3 1-1.932.518.26.967 1.932-.518zm8.664.275v1.035l6.143 1.645L35 27.009v14.03h.03L43 38.762v-14.06zm-12 .467a1 1 0 0 0-1 1 1 1 0 0 0 1 1 1 1 0 0 0 1-1 1 1 0 0 0-1-1m-2 2v14l12 2v-14zm21 1.01v11.303l-6-1.61v-7.978zM36 36.78l5.322 1.426L36 39.727z" color="#000" opacity=".75" overflow="visible" style="isolation:auto;mix-blend-mode:normal;solid-color:#000;solid-opacity:1"/></svg>