<svg xmlns="http://www.w3.org/2000/svg" height="64" width="64"><rect width="64" height="64" y="988.362" rx="0" ry="0" opacity=".75" fill="none" transform="translate(0 -988.362)"/><path d="M8.5.5l47 .004V59.5h-47V.5z" opacity=".3" fill="none"/><path d="M8.991 1.05c10.544 0 46.01.005 46.01.005V59.04H8.992V1.05z" fill="#2095f2"/><path d="M6.5.5l35 .003v44.003h-35V.5z" fill="none" stroke="#1378c5" stroke-width=".745" stroke-linejoin="round" transform="matrix(1.34284 0 0 1.34076 -.228 -.129)"/><path style="isolation:auto;mix-blend-mode:normal;solid-color:#000;solid-opacity:1;marker:none;filter-blend-mode:normal;filter-gaussianBlur-deviation:0" d="M23.3 19.836a40.26 40.26 0 0 0-6.378.545V43h5.371v-8.183s10.584.982 10.785-6.756c0 0 1.396-8.316-9.778-8.225zm.546 4.028c3.26.013 4.112 1.168 4.196 3.316 0 4.502-5.749 3.399-5.749 3.399v-6.63c.57-.044 1.087-.086 1.553-.085zm16.757 1.973c-1.305.059-2.59.362-3.735 1.007-2.12 1.25-2.385 4.3-1.217 6.294 1.46 2.155 4.267 2.464 6.253 3.945 1.008.67.489 2.368-.672 2.476-2.138.35-4.288-.423-6.21-1.301v3.063c-.267.908.848.93 1.468 1.175 2.309.56 4.81.645 7.092-.083 2.016-.594 3.466-2.603 3.357-4.7a4.93 4.93 0 0 0-.293-1.637c-.795-2.202-3.26-2.92-5.162-3.86-1.208-.31-2.987-1.821-1.385-2.854 1.8-.565 3.662.277 5.288 1.007l1.175-2.812c.393-.884-1.513-.87-2.099-1.259a12.296 12.296 0 0 0-3.86-.461z" color="#000" overflow="visible" fill="#fff"/></svg>