<svg xmlns="http://www.w3.org/2000/svg" xmlns:xlink="http://www.w3.org/1999/xlink" width="64" height="64" viewBox="0 0 16.933 16.933"><defs><linearGradient id="c" x1="1278" x2="1278" y1="-1062.6" y2="-1118.6" gradientTransform="matrix(2 0 0 2 -1069 630.66)" gradientUnits="userSpaceOnUse"><stop offset="0" stop-color="#dc85e9"/><stop offset="1" stop-color="#f8dcfb"/></linearGradient><linearGradient xlink:href="#a" id="d" x1="1559.5" x2="1542" y1="184" y2="184" gradientTransform="matrix(-1 0 0 1 2865 -1753.6)" gradientUnits="userSpaceOnUse"/><linearGradient id="a"><stop offset="0" stop-color="#9200ff"/><stop offset="1" stop-color="#f0f" stop-opacity="0"/></linearGradient><linearGradient xlink:href="#a" id="e" x1="1559.5" x2="1542" y1="184" y2="184" gradientTransform="translate(-123 -1753.6)" gradientUnits="userSpaceOnUse"/><linearGradient id="g" x1="453.5" x2="404.5" y1="970.5" y2="970.5" gradientTransform="matrix(2 0 0 2 513 -3495.6)" gradientUnits="userSpaceOnUse"><stop offset="0" stop-color="#e196fb"/><stop offset=".13" stop-color="#f4c7fa"/><stop offset=".314" stop-color="#e091f3"/><stop offset=".441" stop-color="#d764e9"/><stop offset=".684" stop-color="#e7adf0"/><stop offset=".756" stop-color="#e6a9f8"/><stop offset=".88" stop-color="#e595f2"/><stop offset="1" stop-color="#f2cbf8"/></linearGradient><linearGradient id="h" x1="1322" x2="1419" y1="-1568.5" y2="-1568.5" gradientTransform="translate(.023)" gradientUnits="userSpaceOnUse"><stop offset="0" stop-color="#9207a7"/><stop offset=".273" stop-color="#c658bc"/><stop offset=".51" stop-color="#a42eb6"/><stop offset=".834" stop-color="#b415cd"/><stop offset="1" stop-color="#950ba8"/></linearGradient><linearGradient xlink:href="#b" id="k" x1="1510.5" x2="1485.9" y1="169" y2="194" gradientTransform="matrix(.98448 0 0 .97253 -100.35 -1749)" gradientUnits="userSpaceOnUse"/><linearGradient id="b"><stop offset="0" stop-color="#fff"/><stop offset="1" stop-color="#fff" stop-opacity="0"/></linearGradient><linearGradient xlink:href="#b" id="n" x1="1354.6" x2="1383.4" y1="-1522.4" y2="-1544" gradientTransform="matrix(.97626 .12644 -.36742 .97673 -556.18 -210.6)" gradientUnits="userSpaceOnUse"/><linearGradient id="j" x1="1372.9" x2="1372.9" y1="-1544.4" y2="-1558.6" gradientTransform="translate(0 -.5)" gradientUnits="userSpaceOnUse"><stop offset="0" stop-color="#fff"/><stop offset="1" stop-color="#a00" stop-opacity="0"/></linearGradient><radialGradient id="f" cx="152.33" cy="-754.64" r="15" gradientTransform="matrix(0 1.0153 -4.2774 0 -1857 -1670.5)" gradientUnits="userSpaceOnUse"><stop offset="0" stop-color="purple"/><stop offset=".727" stop-color="purple"/><stop offset="1" stop-color="#f0f" stop-opacity="0"/></radialGradient><radialGradient id="i" cx="518.85" cy="730.48" r="22.89" gradientTransform="matrix(.95982 0 0 .26823 21.681 534.37)" gradientUnits="userSpaceOnUse"><stop offset="0" stop-color="#dc85e9"/><stop offset="1" stop-color="#f2cbf8"/></radialGradient></defs><path fill="#f9f9f9" fill-rule="evenodd" d="M3.44 1.323H2.38V15.61h12.171V4.498l-2.91-3.175z" style="paint-order:stroke fill markers"/><path fill="#b138b4" d="M3.44 1.058H2.116v14.816H14.816V4.234l-3.174-3.176zm0 .53h7.982l2.865 2.864v10.893H2.646V1.587h.793z" color="#000" style="font-feature-settings:normal;font-variant-alternates:normal;font-variant-caps:normal;font-variant-ligatures:normal;font-variant-numeric:normal;font-variant-position:normal;isolation:auto;mix-blend-mode:normal;paint-order:fill markers stroke;shape-padding:0;text-decoration-color:#000;text-decoration-line:none;text-decoration-style:solid;text-indent:0;text-orientation:mixed;text-transform:none;white-space:normal"/><path fill="#b138b4" fill-rule="evenodd" d="m12.171 1.058 2.646 2.646V1.058z" style="paint-order:stroke fill markers"/><g stroke-width=".571" transform="matrix(.05788 0 0 .05788 -70.882 97.98)"><path fill="url(#c)" d="M1307-1602.6v6h28v-6zm32 0v6h30v-6zm34 0v6h30v-6zm34 0v6h28v-6zm-100 10v8h28v-8zm32 0v8h30v-8zm34 0v8h30v-8zm34 0v8h28v-8zm-100 12v8h28v-8zm32 0v8h30v-8zm34 0v8h30v-8zm34 0v8h28v-8zm-100 12v8h28v-8zm32 0v8h30v-8zm34 0v8h30v-8zm34 0v8h28v-8zm-100 12v8h28v-8zm32 0v8h30v-8zm34 0v8h30v-8zm34 0v8h28v-8zm-100 12v8h28v-8zm32 0v8h30v-8zm34 0v8h30v-8zm34 0v8h28v-8zm-100 12v8h28v-8zm32 0v8h30v-8zm34 0v8h30v-8zm34 0v8h28v-8zm-100 12v8h28v-8zm32 0v8h30v-8zm34 0v8h30v-8zm34 0v8h28v-8zm-100 12v8h28v-8zm32 0v8h30v-8zm34 0v8h30v-8zm34 0v8h28v-8zm-100 12v6h28v-6zm32 0v6h30v-6zm34 0v6h30v-6zm34 0v6h28v-6z" color="#000"/><path fill="purple" d="M1307-1602.6v1h28v-1zm32 0v1h30v-1zm34 0v1h30v-1zm34 0v1h28v-1zm-100 10v1h28v-1zm32 0v1h30v-1zm34 0v1h30v-1zm34 0v1h28v-1zm-100 12v1h28v-1zm32 0v1h30v-1zm34 0v1h30v-1zm34 0v1h28v-1zm-100 12v1h28v-1zm32 0v1h30v-1zm34 0v1h30v-1zm34 0v1h28v-1zm-100 12v1h28v-1zm32 0v1h30v-1zm34 0v1h30v-1zm34 0v1h28v-1zm-100 12v1h28v-1zm32 0v1h30v-1zm34 0v1h30v-1zm34 0v1h28v-1zm-100 12v1h28v-1zm32 0v1h30v-1zm34 0v1h30v-1zm34 0v1h28v-1zm-100 12v1h28v-1zm32 0v1h30v-1zm34 0v1h30v-1zm34 0v1h28v-1zm-100 12v1h28v-1zm32 0v1h30v-1zm34 0v1h30v-1zm34 0v1h28v-1zm-100 12v1h28v-1zm32 0v1h30v-1zm34 0v1h30v-1zm34 0v1h28v-1z" color="#000" opacity=".25"/><path fill="none" stroke="#fff" stroke-width="1.143" d="M1336.9-1582.9c-4.423 1.105-8 2.64-10.563 4.281-2.562 1.64-4.21 3.592-4.219 5.938-.078 19.65-.062 38.386-.062 54 0 2.294 1.65 4.261 4.22 5.906 2.567 1.645 6.188 3.057 10.593 4.25 8.81 2.386 20.86 3.844 34.188 3.844s25.377-1.458 34.188-3.844c4.405-1.193 8.026-2.605 10.594-4.25 2.568-1.645 4.196-3.623 4.196-5.917v-54c0-2.346-1.696-4.286-4.258-5.927-2.562-1.64-6.162-3.09-10.563-4.281-8.8-2.383-20.826-3.781-34.156-3.781-13.42 0-24.7 1.418-34.157 3.781zm34.156-1.781c13.188-.024 25.115 1.46 33.688 3.781 4.286 1.16 7.736 2.593 10.031 4.063 2.296 1.47 3.462 2.917 3.344 4.156-.21 2.205-2.579 3.735-4.25 4.688-2.711 1.544-5.952 2.709-8.875 3.468-9.98 2.59-19.947 3.535-29.531 3.78-13.261.213-26.41-.73-38.531-3.842-2.813-.733-5.25-1.637-7.656-2.844-2.161-1.082-5.063-2.881-5.28-5.249-.118-1.274 1.047-2.686 3.343-4.156 2.296-1.47 5.697-3.094 10.03-4.063 11.927-2.664 23.655-3.764 33.687-3.782zm-47 16.125a12.121 12.121 0 0 0 2.281 1.812c3.29 1.997 7.309 3.488 10.563 4.281 13.105 3.04 26.118 4.086 38.625 3.72 10.112-.32 20.321-1.07 29.687-3.72 4.635-1.31 9.565-2.896 12.844-6.093v12.875c0 .582 0 1.22-.125 1.719-.273 1.105-1.369 2.436-3.344 3.593-3.264 1.912-6.839 3.083-10 3.938-11.231 2.74-22.915 3.735-33.53 3.75-11.456-.088-23.536-1.125-33.688-3.782-4.357-1.374-8.725-2.561-11.874-5.468-.726-.677-1.134-1.406-1.313-2.031-.162-.567-.124-1.122-.124-1.72v-12.874zm0 18.03c.388.385.835.765 1.313 1.126 3.832 2.648 8.599 4.187 12.75 5.219 11.482 2.606 21.65 3.477 32.938 3.5 11.353-.234 22.474-.814 32.938-3.5 3.704-.967 7.68-2.385 10.688-3.907 1.143-.579 2.937-2.034 3.375-2.438v12.845c0 .581 0 1.22-.125 1.718-.274 1.105-1.403 2.382-3.344 3.594-4.289 2.516-9.373 3.903-13.844 4.875-10.39 2.016-19.91 2.798-29.688 2.812-4.946 0-9.712-.172-14.188-.593-10.05-1.229-18.982-2.152-27.5-6.063a15.468 15.468 0 0 1-3.875-2.593 4.643 4.643 0 0 1-1.312-2.032 2.59 2.59 0 0 1-.124-.718c-.035-4.615 0-9.23 0-13.844zm0 18c1.566 1.542 3.638 2.706 5.531 3.501 8.676 3.597 18.943 5.062 27.125 5.75 4.935.405 9.77.594 14.344.593 11.369-.184 22.449-.886 32.938-3.5 4.219-1.145 8.17-2.41 11.657-4.468.934-.555 1.67-1.193 2.406-1.875v13.844c0 1.296-1.023 2.752-3.312 4.218-2.29 1.466-5.72 2.84-10 4-8.563 2.32-20.506 3.781-33.688 3.781s-25.125-1.462-33.688-3.78c-4.282-1.16-7.71-2.535-10-4-2.29-1.467-3.313-2.923-3.313-4.22v-13.843z" color="#000" opacity=".5" style="text-decoration-line:none;text-indent:0;text-transform:none"/><path fill="url(#d)" d="M1322-1602.6v6h-15v-6zm0 10v8h-15v-8zm0 12v8h-15v-8zm0 12v8h-15v-8zm0 12v8h-15v-8zm0 12v8h-15v-8zm0 12v8h-15v-8zm0 12v8h-15v-8zm0 12v8h-15v-8zm0 12v6h-15v-6z" color="#000" opacity=".35"/><path fill="url(#e)" d="M1420-1602.6v6h15v-6zm0 10v8h15v-8zm0 12v8h15v-8zm0 12v8h15v-8zm0 12v8h15v-8zm0 12v8h15v-8zm0 12v8h15v-8zm0 12v8h15v-8zm0 12v8h15v-8zm0 12v6h15v-6z" color="#000" opacity=".35"/><path fill="url(#f)" d="M1307-1530.6h128v30h-128z" color="#000" opacity=".5"/><path fill="url(#g)" d="M1323-1570.6v52c0 7.18 21.49 13 48 13s48-5.82 48-13v-52z" color="#000"/><path fill="url(#h)" d="M1336.9-1582.9c-4.423 1.105-8 2.64-10.563 4.281-2.562 1.64-4.21 3.592-4.219 5.938-.078 19.65-.062 38.386-.062 54 0 2.294 1.65 4.261 4.22 5.906 2.567 1.645 6.188 3.057 10.593 4.25 8.81 2.386 20.86 3.844 34.188 3.844s25.377-1.458 34.188-3.844c4.405-1.193 8.026-2.605 10.594-4.25 2.568-1.645 4.196-3.623 4.196-5.917v-54c0-2.346-1.696-4.286-4.258-5.927-2.562-1.64-6.162-3.09-10.563-4.281-8.8-2.383-20.826-3.781-34.156-3.781-13.42 0-24.7 1.418-34.157 3.781zm34.156-1.781c13.188-.024 25.115 1.46 33.688 3.781 4.286 1.16 7.736 2.593 10.031 4.063 2.296 1.47 3.462 2.917 3.344 4.156-.21 2.205-2.579 3.735-4.25 4.688-2.711 1.544-5.952 2.709-8.875 3.468-9.98 2.59-19.947 3.535-29.531 3.78-13.261.213-26.41-.73-38.531-3.842-2.813-.733-5.25-1.637-7.656-2.844-2.161-1.082-5.063-2.881-5.28-5.249-.118-1.274 1.047-2.686 3.343-4.156 2.296-1.47 5.697-3.094 10.03-4.063 11.927-2.664 23.655-3.764 33.687-3.782zm-47 16.125a12.121 12.121 0 0 0 2.281 1.812c3.29 1.997 7.309 3.488 10.563 4.281 13.105 3.04 26.118 4.086 38.625 3.72 10.112-.32 20.321-1.07 29.687-3.72 4.635-1.31 9.565-2.896 12.844-6.093v12.875c0 .582 0 1.22-.125 1.719-.273 1.105-1.369 2.436-3.344 3.593-3.264 1.912-6.839 3.083-10 3.938-11.231 2.74-22.915 3.735-33.53 3.75-11.456-.088-23.536-1.125-33.688-3.782-4.357-1.374-8.725-2.561-11.874-5.468-.726-.677-1.134-1.406-1.313-2.031-.162-.567-.124-1.122-.124-1.72v-12.874zm0 18.03c.388.385.835.765 1.313 1.126 3.832 2.648 8.599 4.187 12.75 5.219 11.482 2.606 21.65 3.477 32.938 3.5 11.353-.234 22.474-.814 32.938-3.5 3.704-.967 7.68-2.385 10.688-3.907 1.143-.579 2.937-2.034 3.375-2.438v12.845c0 .581 0 1.22-.125 1.718-.274 1.105-1.403 2.382-3.344 3.594-4.289 2.516-9.373 3.903-13.844 4.875-10.39 2.016-19.91 2.798-29.688 2.812-4.946 0-9.712-.172-14.188-.593-10.05-1.229-18.982-2.152-27.5-6.063a15.468 15.468 0 0 1-3.875-2.593 4.643 4.643 0 0 1-1.312-2.032 2.59 2.59 0 0 1-.124-.718c-.035-4.615 0-9.23 0-13.844zm0 18c1.566 1.542 3.638 2.706 5.531 3.501 8.676 3.597 18.943 5.062 27.125 5.75 4.935.405 9.77.594 14.344.593 11.369-.184 22.449-.886 32.938-3.5 4.219-1.145 8.17-2.41 11.657-4.468.934-.555 1.67-1.193 2.406-1.875v13.844c0 1.296-1.023 2.752-3.312 4.218-2.29 1.466-5.72 2.84-10 4-8.563 2.32-20.506 3.781-33.688 3.781s-25.125-1.462-33.688-3.78c-4.282-1.16-7.71-2.535-10-4-2.29-1.467-3.313-2.923-3.313-4.22v-13.843z" color="#000" style="text-decoration-line:none;text-indent:0;text-transform:none"/><path fill="url(#i)" d="M542.12 730.31a22.438 5.688 0 1 1-44.875 0 22.438 5.688 0 1 1 44.875 0z" color="#000" transform="matrix(2.0947 0 0 2.1099 282.41 -3113.5)"/><path id="l" fill="none" stroke="#fff" stroke-width=".571" d="M1324.5-1567.4v12.087c0 6.7 20.816 12.133 46.495 12.133 25.678 0 46.495-5.432 46.495-12.133v-12.026c-4.157 3.715-19.627 9.196-46.349 9.196s-42.752-5.541-46.641-9.257z" color="#000" opacity=".5"/><path fill="none" stroke="#fff" stroke-width=".279" d="M542.12 730.31a22.438 5.688 0 1 1-44.875 0 22.438 5.688 0 1 1 44.875 0z" color="#000" opacity=".5" transform="matrix(2.0724 0 0 2.022 293.99 -3049.3)"/><path id="m" fill="url(#j)" d="M1324.5-1566.9v10.087c0 6.7 20.816 12.133 46.495 12.133 25.678 0 46.495-5.432 46.495-12.133v-10.026c-4.157 3.715-19.627 9.196-46.349 9.196s-42.752-5.541-46.641-9.257z" color="#000" opacity=".25"/><path fill="url(#k)" d="m1336.8-1580.5 71.375 15.074-19.444 3.89-31.504-22.125z" opacity=".25"/><use xlink:href="#l" width="5033" height="1085" transform="translate(0 18)"/><use xlink:href="#m" width="5033" height="1085" transform="translate(0 18)"/><use xlink:href="#l" width="5033" height="1085" transform="translate(0 36)"/><use xlink:href="#m" width="5033" height="1085" transform="translate(0 36)"/><path fill="url(#n)" d="M1331.7-1563.9s1.28 21.614 9.426 36.528 15.245 19.133 15.245 19.133l16.834-1.45s-17.05-11.447-25.067-27.664c-8.017-16.217-10.008-24.395-10.008-24.395z" opacity=".25"/></g></svg>