<svg width="64" height="64" version="1.1" viewBox="0 0 16.933 16.933" xmlns="http://www.w3.org/2000/svg" xmlns:xlink="http://www.w3.org/1999/xlink">
 <path d="m2.3812 0.26511h12.171v15.61h-12.17v-15.61z" color="#000000" fill="#555555" overflow="visible" stroke-width=".26458"/>
 <path d="m2.2489 0.13202 12.435 0.001058v15.874h-12.435v-15.875z" color="#000000" fill="none" overflow="visible" stroke="#373737" stroke-linecap="round" stroke-linejoin="round" stroke-width=".26511"/>
 <path d="m4.2193 10.33v1.852h8.466v-1.852h-8.466zm0.19843 0.19843h8.0691v1.4552h-8.0691v-1.4552z" fill="#ffffff" opacity=".35"/>
 <path d="m4.2193 4.7738v5.5561h8.466v-5.5561h-8.466zm0.26458 0.19895h7.9368c0.036641 0 0.066144 0.029503 0.066144 0.066144v5.0265c0 0.036642-0.029503 0.066145-0.066144 0.066145h-7.9368c-0.036642 0-0.066145-0.029503-0.066145-0.066145v-5.0265c0-0.036642 0.029503-0.066144 0.066145-0.066144z" fill="#ffffff" opacity=".5"/>
 <path d="m6.5516 10.975v0.10186a0.39663 0.39658 0 0 0-0.089964-0.03902 0.33075 0.3307 0 0 0-0.092345-0.0131c-0.047231 0-0.082555 0.0079-0.10584 0.02328-0.023152 0.01508-0.034663 0.03836-0.034663 0.06958 0 0.02831 0.00873 0.04947 0.026063 0.06349 0.017464 0.01389 0.060593 0.02751 0.12965 0.04074l0.041939 0.0079c0.051729 0.0098 0.090758 0.02937 0.11722 0.05886 0.026857 0.02937 0.040219 0.06773 0.040219 0.11482 0 0.0627-0.022226 0.11178-0.066811 0.14723-0.044585 0.03519-0.1065 0.05265-0.18575 0.05265-0.031355 0-0.064165-0.0034-0.098563-0.01019a0.87702 0.87688 0 0 1-0.11153-0.02937v-0.10754c0.038896 0.01984 0.076072 0.03505 0.11153 0.04524 0.035589 0.0098 0.069061 0.01468 0.10081 0.01468 0.04604 0 0.081761-0.0093 0.10716-0.02778a0.09261 0.092596 0 0 0 0.037838-0.07858c0-0.04841-0.046305-0.08175-0.13878-0.10027l-0.0045-0.0013-0.039028-0.0079c-0.060064-0.01177-0.10386-0.03135-0.13137-0.05887-0.027518-0.02791-0.041277-0.06588-0.041277-0.11376 0-0.06085 0.020506-0.10768 0.061652-0.14048 0.041145-0.03307 0.099886-0.04987 0.17609-0.04987 0.034001 0 0.066679 0.0032 0.097902 0.0097 0.031355 0.0061 0.062181 0.01534 0.092345 0.02778m0.33075 0.30451c0 0.08069 0.012701 0.14167 0.03797 0.18281 0.025666 0.04114 0.063504 0.06177 0.11378 0.06177 0.050274 0 0.088112-0.02064 0.11378-0.06177 0.026063-0.0414 0.039161-0.10238 0.039161-0.18281s-0.012965-0.14114-0.039161-0.18228c-0.025666-0.04154-0.063504-0.0623-0.11378-0.0623-0.050274 0-0.088112 0.0205-0.11378 0.06178-0.025269 0.04101-0.03797 0.10199-0.03797 0.18281m0.30469 0.23546a0.18257 0.18255 0 0 1-0.069193 0.07249c-0.028577 0.01667-0.062049 0.025-0.10015 0.025-0.07594 0-0.13587-0.02937-0.18006-0.08783-0.043791-0.05886-0.065753-0.13982-0.065753-0.24287 0-0.1049 0.021962-0.18704 0.065753-0.24631 0.043791-0.05926 0.10386-0.08889 0.17993-0.08889 0.037838 0 0.071045 0.0083 0.099754 0.025 0.029106 0.01614 0.052258 0.03995 0.069722 0.0713v-0.08095h0.10465v0.8753h-0.10465v-0.32229m0.84632-0.40742a0.23576 0.23572 0 0 0-0.068002-0.03796 0.23152 0.23149 0 0 0-0.075808-0.01191c-0.064827 0-0.11457 0.02037-0.14897 0.06111-0.034398 0.04087-0.051597 0.09974-0.051597 0.17673v0.31536h-0.10465v-0.63415h0.10478v0.12395c0.017331-0.04498 0.043924-0.07924 0.079777-0.10305a0.22623 0.2262 0 0 1 0.1286-0.03611c0.025666 0 0.049612 0.0032 0.071839 0.0097 0.022359 0.0065 0.043659 0.0164 0.064033 0.03003v0.10635m0.44982-0.31747v0.18003h0.23668v0.08096h-0.23668v0.34419c0 0.04683 0.00886 0.07937 0.026592 0.09789 0.017728 0.01852 0.048686 0.02778 0.092875 0.02778h0.11722v0.08334h-0.1274c-0.078057 0-0.13323-0.01574-0.16537-0.04709-0.032017-0.03122-0.048157-0.08519-0.048157-0.16191v-0.34425h-0.16934v-0.08096h0.16934v-0.18003h0.10425m0.96579 0.87305v0.08148h-0.03625c-0.093933 0-0.15704-0.01389-0.18919-0.0418-0.031752-0.02804-0.047496-0.0836-0.047496-0.16707v-0.13532c0-0.05688-0.010187-0.09643-0.030561-0.11826-0.019977-0.02196-0.056492-0.03294-0.10928-0.03294h-0.035192v-0.08095h0.035192c0.053185 0 0.089832-0.01058 0.10981-0.03228 0.019977-0.02143 0.030032-0.06058 0.030032-0.1172v-0.13585c0-0.08334 0.015876-0.13889 0.047628-0.16641 0.032017-0.02791 0.095124-0.04193 0.18919-0.04193h0.036118v0.08095h-0.03969c-0.05292 0-0.087318 0.0083-0.10359 0.025-0.015876 0.01614-0.023814 0.05106-0.023814 0.10463v0.14048c0 0.05926-0.00873 0.10225-0.025931 0.1291-0.017067 0.02672-0.046305 0.04497-0.087847 0.05424 0.041939 0.01018 0.071442 0.02871 0.088376 0.05556s0.025402 0.06958 0.025402 0.12844v0.14048c0 0.05397 0.00794 0.08902 0.023814 0.10529 0.016273 0.01627 0.050803 0.02434 0.10359 0.02434h0.03969m0.70119-0.70108-0.22703 0.30345 0.24912 0.3307h-0.12066l-0.18575-0.25424-0.18522 0.25411h-0.12039l0.24899-0.33057-0.22703-0.30345h0.1155l0.16815 0.22924 0.16709-0.22924h0.11722m0.18522 0.70108h0.0385c0.05318 0 0.08798-0.0083 0.10425-0.02487 0.01614-0.01667 0.02434-0.05159 0.02434-0.10476v-0.14035c0-0.059 0.0085-0.10186 0.0254-0.12858 0.01707-0.02685 0.04644-0.04537 0.08838-0.05556-0.04154-0.0093-0.07104-0.02751-0.08838-0.05424-0.01694-0.02685-0.0254-0.06984-0.0254-0.1291v-0.14048c0-0.05318-0.0081-0.0881-0.02434-0.10463-0.01627-0.01667-0.05107-0.025-0.10425-0.025h-0.0385v-0.08095h0.03506c0.09393 0 0.15691 0.01402 0.18866 0.04193 0.03175 0.02751 0.04763 0.08307 0.04763 0.16641v0.13585c0 0.05662 0.0099 0.09577 0.0299 0.1172 0.02037 0.02156 0.05715 0.03228 0.11047 0.03228h0.03625v0.08095h-0.03625c-0.05332 0-0.0901 0.01098-0.11047 0.03294-0.01998 0.02183-0.03003 0.06124-0.03003 0.11826v0.13532c0 0.08334-0.01588 0.13903-0.04763 0.16707-0.03175 0.02778-0.09446 0.0418-0.18853 0.0418h-0.03506v-0.08148" fill="#ffffff" opacity=".9" stroke-width=".13229"/>
 <path d="m11.858 5.1378v4.8282m-6.8124-4.8282v4.8282m3.3731-4.8282v4.8282m-3.7702-0.26456h7.6068m-7.6068-2.9763h7.6068m-7.6068-1.3228h7.6068" fill="none" opacity=".25" stroke="#f87019" stroke-dasharray="0.06614, 0.06614" stroke-linecap="square" stroke-width=".06614"/>
 <path d="m11.858 5.1378v4.8282m-6.8124-4.8282v4.8282m3.3731-4.8282v4.8282m-3.7702-0.26456h7.6068m-7.6068-2.9763h7.6068m-7.6068-1.3228h7.6068" fill="none" opacity=".7" stroke="#f87019" stroke-dasharray="0.06614, 0.19842" stroke-linecap="square" stroke-width=".06614"/>
 <path d="m7.9231 5.3693h3.9705v0.79368h-0.39704v-0.26456h-3.2422l-1.6177 3.8361h-0.235l-0.99078-2.1142-0.38579 0.20219-0.14233-0.49572 0.80069-0.30464 0.83297 1.6257 1.4063-3.2786" fill="#ffffff" opacity=".8" stroke-width=".06614"/>
 <path d="m11.653 6.6921h-0.65591l-0.80625 1.058h-0.0205l-0.77893-1.058h-0.71061l1.1159 1.4835v0.01885l-1.1569 1.5401h0.65591l0.86088-1.1461h0.0205l0.86094 1.1461h0.71061l-1.1842-1.5652v-0.01885l1.0887-1.4584" fill="#ffffff" opacity=".8" stroke-width=".06614"/>
</svg>
