<svg xmlns="http://www.w3.org/2000/svg" xmlns:xlink="http://www.w3.org/1999/xlink" width="64" height="64" viewBox="0 0 16.933 16.933"><defs><linearGradient id="w" x1="1171.2" x2="1171.2" y1="-1513.4" y2="-1575.6" gradientTransform="matrix(.0588 0 0 .0588 -37.865 99.829)" gradientUnits="userSpaceOnUse"><stop offset="0" stop-color="#ecbb10"/><stop offset="1" stop-color="#ffd251"/></linearGradient><linearGradient xlink:href="#a" id="v" x1="-17" x2="144" y1="-1194.6" y2="-1194.6" gradientTransform="matrix(.0263 0 0 .0588 24.831 81.806)" gradientUnits="userSpaceOnUse"/><linearGradient id="a"><stop offset="0" stop-color="#d40000" stop-opacity="0"/><stop offset=".493" stop-color="#a00"/><stop offset="1" stop-color="#a00" stop-opacity="0"/></linearGradient><linearGradient xlink:href="#a" id="t" x1="-17" x2="144" y1="-1194.6" y2="-1194.6" gradientTransform="matrix(.01022 0 0 .0588 28.571 80.924)" gradientUnits="userSpaceOnUse"/><linearGradient xlink:href="#b" id="s" x1="1162" x2="1162" y1="889.01" y2="900.72" gradientTransform="matrix(.06477 0 0 .06024 -48.641 -45.195)" gradientUnits="userSpaceOnUse"/><linearGradient id="b"><stop offset="0" stop-color="#ff6a1e"/><stop offset="1" stop-color="#d45500" stop-opacity="0"/></linearGradient><linearGradient xlink:href="#b" id="q" x1="1155" x2="1165.5" y1="899.99" y2="893.35" gradientTransform="matrix(-.08756 0 0 .08033 129.78 -60.725)" gradientUnits="userSpaceOnUse"/><linearGradient xlink:href="#b" id="p" x1="1155" x2="1165.5" y1="899.99" y2="893.35" gradientTransform="matrix(.08756 0 0 .08033 -76.552 -60.725)" gradientUnits="userSpaceOnUse"/><linearGradient id="o" x1="1162.2" x2="1162.2" y1="900.72" y2="887.07" gradientTransform="matrix(.26267 0 0 .24098 -278.6 -205.43)" gradientUnits="userSpaceOnUse"><stop offset="0" stop-color="#edc33e"/><stop offset="1" stop-color="#fae6a5"/></linearGradient><linearGradient id="n" x1="1162.6" x2="1162.6" y1="900.19" y2="887.43" gradientTransform="matrix(.27346 0 0 .25344 -291.14 -216.6)" gradientUnits="userSpaceOnUse"><stop offset="0" stop-color="#f8ca35"/><stop offset="1" stop-color="#fef0c4"/></linearGradient><linearGradient id="m" x1="1065.8" x2="1065.8" y1="-1561.4" y2="-1495.6" gradientTransform="matrix(.0588 0 0 .0588 -37.88 99.738)" gradientUnits="userSpaceOnUse"><stop offset="0" stop-color="#e2b006"/><stop offset="1" stop-color="#bc8611"/></linearGradient><linearGradient xlink:href="#c" id="l" x1="529.25" x2="535" y1="-1568.6" y2="-1574.6" gradientTransform="matrix(.14699 0 0 .29397 -50.3 471.88)" gradientUnits="userSpaceOnUse"/><linearGradient id="c"><stop offset="0" stop-color="#b42c00"/><stop offset="1" stop-color="#ffc600" stop-opacity="0"/></linearGradient><linearGradient xlink:href="#c" id="k" x1="529.25" x2="535" y1="-1568.6" y2="-1574.6" gradientTransform="matrix(.14699 0 0 .29397 -108.74 471.88)" gradientUnits="userSpaceOnUse"/><linearGradient id="j" x1="1171" x2="1138" y1="-1562.1" y2="-1504.9" gradientTransform="matrix(.0588 0 0 .0588 -37.865 99.797)" gradientUnits="userSpaceOnUse"><stop offset="0" stop-color="#e4bc33"/><stop offset="1" stop-color="#cd9215"/></linearGradient><linearGradient id="i" x1="1171.2" x2="1171.2" y1="-1513.4" y2="-1575.6" gradientTransform="matrix(.0588 0 0 .0588 -37.865 99.797)" gradientUnits="userSpaceOnUse"><stop offset="0" stop-color="#d7ae1e"/><stop offset="1" stop-color="#ffd251"/></linearGradient><linearGradient id="h" x1="1079.5" x2="1079.5" y1="-2650.3" y2="-2617.5" gradientTransform="matrix(.11759 0 0 .1194 -95.895 323.48)" gradientUnits="userSpaceOnUse"><stop offset="0" stop-color="#a88200"/><stop offset="1" stop-color="#724a00"/></linearGradient><linearGradient id="f" x1="1183.5" x2="1168" y1="671.49" y2="686.96" gradientTransform="translate(-125.92 -78.731) scale(.12828)" gradientUnits="userSpaceOnUse"><stop offset="0" stop-color="#f7c3a1"/><stop offset=".472" stop-color="#f1b38e"/><stop offset="1" stop-color="#f17571"/></linearGradient><linearGradient id="d" x1="1180.2" x2="1180.2" y1="688.53" y2="658.13" gradientTransform="translate(-134.36 -83.545) scale(.13541)" gradientUnits="userSpaceOnUse"><stop offset="0" stop-color="#f6b7a8"/><stop offset="1" stop-color="#fee9d6"/></linearGradient><linearGradient id="e" x1="1179.3" x2="1195.1" y1="678.06" y2="662.17" gradientTransform="translate(-134.36 -83.545) scale(.13541)" gradientUnits="userSpaceOnUse"><stop offset="0" stop-color="#ad4e07"/><stop offset="1" stop-color="#e9744d"/></linearGradient><linearGradient id="u" x1="529.25" x2="535.44" y1="-1568.6" y2="-1574.8" gradientTransform="matrix(.0392 0 0 .0392 3.296 73.464)" gradientUnits="userSpaceOnUse"><stop offset="0" stop-color="green"/><stop offset="1" stop-color="#0f0" stop-opacity="0"/></linearGradient><radialGradient id="x" cx="-1535.2" cy="-848.92" r="10" gradientTransform="matrix(-.18276 0 0 -.26603 -287.74 -255.78)" gradientUnits="userSpaceOnUse"><stop offset="0" stop-color="#fffb88"/><stop offset="1" stop-color="#b97f00" stop-opacity="0"/></radialGradient><radialGradient id="r" cx="-1535.5" cy="-853" r="10" gradientTransform="matrix(-.1523 0 0 -.14699 -222.13 -151.94)" gradientUnits="userSpaceOnUse"><stop offset="0" stop-color="#fff"/><stop offset="1" stop-color="#ffd5d5" stop-opacity="0"/></radialGradient><radialGradient id="g" cx="-2578.7" cy="-1363.4" r="10" gradientTransform="matrix(.12574 0 0 .13021 350.99 184.51)" gradientUnits="userSpaceOnUse"><stop offset="0" stop-color="#fff"/><stop offset="1" stop-color="#ffbcd5" stop-opacity="0"/></radialGradient></defs><path fill="#fff" fill-rule="evenodd" d="M3.44 1.323H2.38V15.61h12.171V4.498l-2.91-3.175z" style="paint-order:stroke fill markers"/><path fill="#d17520" d="M3.44 1.058H2.116v14.816H14.816V4.234l-3.174-3.176zm0 .53h7.982l2.865 2.864v10.893H2.646V1.587h.793z" color="#000" style="font-feature-settings:normal;font-variant-alternates:normal;font-variant-caps:normal;font-variant-ligatures:normal;font-variant-numeric:normal;font-variant-position:normal;isolation:auto;mix-blend-mode:normal;paint-order:fill markers stroke;shape-padding:0;text-decoration-color:#000;text-decoration-line:none;text-decoration-style:solid;text-indent:0;text-orientation:mixed;text-transform:none;white-space:normal"/><path fill="#d17520" fill-rule="evenodd" d="m12.171 1.058 2.646 2.646V1.058z" style="paint-order:stroke fill markers"/><g transform="translate(-18.982 -.455)"><path fill="none" stroke="#000" stroke-width=".118" d="M28.264 8.04a2.234 2.234 0 1 1-4.468 0 2.234 2.234 0 1 1 4.468 0z" color="#000" opacity=".15"/><path fill="url(#d)" stroke="url(#e)" stroke-width=".118" d="M28.264 7.922a2.234 2.234 0 1 1-4.468 0 2.234 2.234 0 1 1 4.468 0z" color="#000"/><path fill="url(#f)" d="M28.147 7.922a2.117 2.117 0 1 1-4.233 0 2.117 2.117 0 1 1 4.233 0z" color="#000"/><path d="M26.609 8.04a.06.057 0 0 0-.009.008.06.057 0 0 0-.036.025l-1.172 1.878-1.163 1.886a.06.057 0 0 0-.01.009.06.057 0 0 0 0 .016.06.057 0 0 0 0 .017.06.057 0 0 0 .01.016.06.057 0 0 0 .009.009.06.057 0 0 0 .009.008.06.057 0 0 0 .036.008h4.67a.06.057 0 0 0 .036-.008.06.057 0 0 0 .01-.008.06.057 0 0 0 .008-.009.06.057 0 0 0 .01-.016.06.057 0 0 0 0-.017.06.057 0 0 0 0-.016.06.057 0 0 0-.01-.009l-1.163-1.886-1.172-1.878a.06.057 0 0 0-.036-.025.06.057 0 0 0-.018-.008.06.057 0 0 0-.009 0zm.009.175 1.118 1.794 1.119 1.795h-4.474l1.118-1.795z" color="#000" opacity=".15" style="text-decoration-line:none;text-indent:0;text-transform:none"/><path fill="url(#g)" d="M28.029 6.982a1.294 1.294 0 1 1-2.587 0 1.294 1.294 0 1 1 2.587 0z" color="#000" opacity=".25"/><rect width="3.88" height="3.88" x="27.279" y="7.158" color="#000" opacity=".15" rx=".118" ry=".118"/><rect width="3.88" height="3.88" x="27.279" y="7.04" fill="url(#h)" color="#000" opacity=".8" rx=".118" ry=".118"/><path fill="url(#i)" d="M27.397 7.158h3.645v3.645h-3.645z" color="#000"/><path fill="url(#j)" d="M27.456 7.217h3.528v3.528h-3.528z" color="#000"/><path fill="url(#k)" d="M-30.984 7.217h1.764v3.528h-1.764z" color="#000" opacity=".35" transform="scale(-1 1)"/><path fill="url(#l)" d="M27.456 7.217h1.764v3.528h-1.764z" color="#000" opacity=".5"/><path fill="url(#m)" d="M26.609 7.923a.06.057 0 0 0-.009.008.06.057 0 0 0-.036.025l-1.172 1.878-1.163 1.886a.06.057 0 0 0-.01.008.06.057 0 0 0 0 .017.06.057 0 0 0 0 .016.06.057 0 0 0 .01.017.06.057 0 0 0 .009.008.06.057 0 0 0 .009.008.06.057 0 0 0 .036.009h4.67a.06.057 0 0 0 .036-.009.06.057 0 0 0 .01-.008.06.057 0 0 0 .008-.008.06.057 0 0 0 .01-.017.06.057 0 0 0 0-.016.06.057 0 0 0 0-.017.06.057 0 0 0-.01-.008l-1.163-1.886-1.172-1.878a.06.057 0 0 0-.036-.025.06.057 0 0 0-.018-.008.06.057 0 0 0-.009 0zm.009.174 1.118 1.795 1.119 1.794h-4.474l1.118-1.794z" color="#000" style="text-decoration-line:none;text-indent:0;text-transform:none"/><path fill="url(#n)" d="M28.852 11.685h-4.468l2.234-3.586 1.117 1.793z" color="#000"/><path fill="url(#o)" d="M28.764 11.626h-4.292l2.146-3.41 1.073 1.705z" color="#000"/><path fill="url(#p)" d="M25.903 11.626h-1.43l.715-1.137.357.569z" color="#000" opacity=".35"/><path fill="url(#q)" d="M27.323 11.626h1.43l-.357-.568-.358-.569-.357.569z" color="#000" opacity=".35"/><path fill="url(#r)" d="M10.215-28.029h1.47v2.94h-1.47z" color="#000" opacity=".5" transform="rotate(90)"/><path fill="url(#s)" d="M27.147 9.069h-1.058l.264-.427.265-.426.264.426z" color="#000" opacity=".25"/><path id="y" fill="#9ef290" stroke="#18a303" stroke-width=".059" d="M23.943 11.421h.647v.647h-.647z" color="#000" opacity=".75"/><path fill="none" d="M28.397 10.862h2.705V7.099h-3.763v2.07z" color="#000"/><path fill="url(#t)" d="M28.397 10.686h1.646v.059h-1.646z" color="#000" opacity=".25"/><path d="M26.265 8.334h.706v.059h-.706z" color="#000" opacity=".15"/><path id="z" fill="url(#u)" d="M24.031 11.509h.47v.47h-.47z" color="#000" opacity=".75"/><path d="M23.914 12.097h.706v.118h-.706z" color="#000" opacity=".05"/><path fill="url(#v)" d="M24.384 11.568h4.233v.059h-4.233z" color="#000" opacity=".1"/><path fill="url(#w)" d="m27.464 9.082-.051.03 1.034 1.691.052-.031z" color="#000" opacity=".5" style="text-decoration-line:none;text-indent:0;text-transform:none"/><path fill="url(#x)" d="M-8.922-30.984h1.764v3.528h-1.764z" color="#000" opacity=".5" transform="matrix(0 -1 -1 0 0 0)"/><use xlink:href="#y" width="5033" height="1085" transform="translate(2.352 -3.763)"/><use xlink:href="#z" width="5033" height="1085" transform="translate(2.352 -3.763)"/><path d="M28.617 12.097h.706v.118h-.706z" color="#000" opacity=".05"/><use xlink:href="#y" width="5033" height="1085" transform="translate(4.704)"/><use xlink:href="#z" width="5033" height="1085" transform="translate(4.704)"/></g></svg>