<svg width="64" height="64" version="1.1" viewBox="0 0 16.933 16.933" xmlns="http://www.w3.org/2000/svg" xmlns:xlink="http://www.w3.org/1999/xlink">
 <rect y="-.0031749" width="16.933" height="16.933" rx="0" ry="0" fill="none" opacity=".75" stroke-width=".26458"/>
 <path d="m2.3812 0.26511h12.171v15.61h-12.17v-15.61z" color="#000000" fill="#b138b4" overflow="visible" stroke-width=".26458"/>
 <path d="m2.2489 0.13202 12.435 0.001058v15.874h-12.435v-15.875z" color="#000000" fill="none" overflow="visible" stroke="#77107a" stroke-linecap="round" stroke-linejoin="round" stroke-width=".26511"/>
 <path d="m4.7672 5.2215v0.34728h1.6206v-0.34728zm1.8522 0v0.34728h1.7364v-0.34728zm1.9679 0v0.34728h1.7364v-0.34728zm1.9679 0v0.34728h1.6206v-0.34728zm-5.788 0.5788v0.46304h1.6206v-0.46304zm1.8522 0v0.46304h1.7364v-0.46304zm1.9679 0v0.46304h1.7364v-0.46304zm1.9679 0v0.46304h1.6206v-0.46304zm-5.788 0.69456v0.46304h1.6206v-0.46304zm1.8522 0v0.46304h1.7364v-0.46304zm1.9679 0v0.46304h1.7364v-0.46304zm1.9679 0v0.46304h1.6206v-0.46304zm-5.788 0.69456v0.46304h1.6206v-0.46304zm1.8522 0v0.46304h1.7364v-0.46304zm1.9679 0v0.46304h1.7364v-0.46304zm1.9679 0v0.46304h1.6206v-0.46304zm-5.788 0.69456v0.46304h1.6206v-0.46304zm1.8522 0v0.46304h1.7364v-0.46304zm1.9679 0v0.46304h1.7364v-0.46304zm1.9679 0v0.46304h1.6206v-0.46304zm-5.788 0.69456v0.46304h1.6206v-0.46304zm1.8522 0v0.46304h1.7364v-0.46304zm1.9679 0v0.46304h1.7364v-0.46304zm1.9679 0v0.46304h1.6206v-0.46304zm-5.788 0.69456v0.46304h1.6206v-0.46304zm1.8522 0v0.46304h1.7364v-0.46304zm1.9679 0v0.46304h1.7364v-0.46304zm1.9679 0v0.46304h1.6206v-0.46304zm-5.788 0.69456v0.46304h1.6206v-0.46304zm1.8522 0v0.46304h1.7364v-0.46304zm1.9679 0v0.46304h1.7364v-0.46304zm1.9679 0v0.46304h1.6206v-0.46304zm-5.788 0.69456v0.46304h1.6206v-0.46304zm1.8522 0v0.46304h1.7364v-0.46304zm1.9679 0v0.46304h1.7364v-0.46304zm1.9679 0v0.46304h1.6206v-0.46304zm-5.788 0.69456v0.34728h1.6206v-0.34728zm1.8522 0v0.34728h1.7364v-0.34728zm1.9679 0v0.34728h1.7364v-0.34728zm1.9679 0v0.34728h1.6206v-0.34728z" color="#000000" fill="#ffffff" opacity=".5" stroke-width=".03305"/>
 <path d="m5.6932 7.0737v3.0098c0 0.41558 1.2438 0.75244 2.7782 0.75244 1.5344 0 2.7782-0.33686 2.7782-0.75244v-3.0098z" color="#000000" fill="#ffffff" stroke-width=".03305"/>
 <path d="m6.4978 6.3617c-0.256 0.063957-0.46304 0.1528-0.61139 0.24778-0.14829 0.094923-0.24367 0.2079-0.2442 0.34369-0.00451 1.1373-0.00359 2.2218-0.00359 3.1255 0 0.13278 0.095502 0.24663 0.24425 0.34184 0.14858 0.09521 0.35816 0.17694 0.61312 0.24599 0.50992 0.1381 1.2074 0.22249 1.9788 0.22249 0.77142 0 1.4688-0.08439 1.9788-0.22249 0.25496-0.06905 0.46454-0.15078 0.61318-0.24599 0.14864-0.09521 0.24286-0.2097 0.24286-0.34248v-3.1255c0-0.13579-0.09816-0.24807-0.24645-0.34305-0.14829-0.094923-0.35666-0.17885-0.61138-0.24778-0.50934-0.13793-1.2054-0.21884-1.9769-0.21884-0.77675 0-1.4296 0.082074-1.977 0.21884zm1.9769-0.10308c0.76332-0.00139 1.4537 0.084505 1.9499 0.21884 0.24807 0.067141 0.44776 0.15008 0.58059 0.23517 0.13289 0.085084 0.20038 0.16884 0.19355 0.24055-0.01215 0.12763-0.14927 0.21618-0.24599 0.27134-0.15691 0.089367-0.3445 0.1568-0.51368 0.20073-0.57764 0.14991-1.1545 0.20461-1.7093 0.21879-0.76755 0.012328-1.5286-0.042252-2.2302-0.22238-0.16282-0.042426-0.30387-0.09475-0.44313-0.16461-0.12508-0.062626-0.29305-0.16675-0.30561-0.30381-0.0068299-0.073739 0.0606-0.15547 0.19349-0.24055s0.32974-0.17908 0.58054-0.23517c0.69033-0.15419 1.3692-0.21786 1.9498-0.2189zm-2.7204 0.93332a0.70156 0.70156 0 0 0 0.13202 0.10488c0.19043 0.11559 0.42304 0.20189 0.61139 0.24778 0.75852 0.17596 1.5117 0.2365 2.2356 0.21531 0.58528-0.018522 1.1762-0.061932 1.7183-0.21531 0.26827-0.075823 0.55362-0.16762 0.74341-0.35266v0.7452c0 0.033686 0 0.070614-0.0072 0.099496-0.0158 0.063957-0.07924 0.141-0.19355 0.20796-0.18892 0.11067-0.39584 0.17844-0.5788 0.22793-0.65009 0.15859-1.3264 0.21618-1.9408 0.21705-0.66307-0.0050934-1.3623-0.065115-1.9499-0.2189-0.25218-0.079527-0.505-0.14823-0.68727-0.31649-0.042021-0.039185-0.065636-0.081379-0.075996-0.11755-0.0093766-0.032818-0.0071772-0.064941-0.0071772-0.099554v-0.74515zm0 1.0436c0.022457 0.022284 0.04833 0.044278 0.075996 0.065173 0.2218 0.15327 0.49771 0.24234 0.73797 0.30208 0.66458 0.15084 1.2531 0.20125 1.9065 0.20258 0.65711-0.013544 1.3008-0.047114 1.9065-0.20258 0.21439-0.05597 0.44452-0.13804 0.61862-0.22614 0.06616-0.033513 0.16999-0.11773 0.19534-0.14111v0.74347c0 0.033628 0 0.070614-0.0072 0.099438-0.01586 0.063957-0.08121 0.13787-0.19355 0.20802-0.24825 0.14563-0.54251 0.22591-0.80129 0.28216-0.60137 0.11669-1.1524 0.16195-1.7183 0.16276-0.28627 0-0.56213-0.00996-0.8212-0.034323-0.58169-0.071134-1.0987-0.12456-1.5917-0.35093a0.89529 0.89529 0 0 1-0.22432-0.15008 0.26874 0.26874 0 0 1-0.075938-0.11761 0.14991 0.14991 0 0 1-0.0071772-0.041558c-0.00203-0.26712 0-0.53423 0-0.80129zm0 1.0418c0.09064 0.089251 0.21057 0.15662 0.32013 0.20264 0.50217 0.20819 1.0964 0.29299 1.57 0.33281 0.28564 0.023441 0.56549 0.034381 0.83023 0.034323 0.65804-0.01065 1.2993-0.051282 1.9065-0.20258 0.2442-0.066273 0.47288-0.13949 0.67471-0.25861 0.05406-0.032123 0.09666-0.069051 0.13926-0.10852v0.80129c0 0.07501-0.05921 0.15928-0.1917 0.24414-0.13255 0.08485-0.33107 0.16438-0.5788 0.23152-0.49563 0.13428-1.1869 0.21884-1.9499 0.21884-0.76297 0-1.4542-0.08462-1.9499-0.21879-0.24784-0.06714-0.44625-0.14672-0.5788-0.23152-0.13255-0.08491-0.19176-0.16918-0.19176-0.24425v-0.80123z" color="#000000" fill="#940aa8" stroke-width=".03305" style="text-decoration-line:none;text-indent:0;text-transform:none"/>
 <path d="m11.191 6.9568a2.7204 0.69462 0 1 1-5.4407 0 2.7204 0.69462 0 1 1 5.4407 0z" color="#000000" fill="#fee0ff" stroke-width=".06948"/>
</svg>
