<svg xmlns="http://www.w3.org/2000/svg" width="64" height="64" viewBox="0 0 16.933 16.933"><defs><linearGradient id="a" x1="230" x2="230" y1="-581.64" y2="-578.64" gradientTransform="matrix(1.7499 0 0 1.5 3002.5 -245.19)" gradientUnits="userSpaceOnUse"><stop offset="0" stop-color="#63bbee"/><stop offset="1" stop-color="#aadcf7"/></linearGradient><linearGradient id="b" x1="445.7" x2="441.39" y1="1103.6" y2="1099.8" gradientUnits="userSpaceOnUse"><stop offset="0" stop-color="#e9b913"/><stop offset="1" stop-color="#ff0"/></linearGradient><linearGradient id="c" x1="345" x2="345" y1="1173" y2="1178" gradientTransform="matrix(1.75 0 0 1.6513 2787.2 -3053.9)" gradientUnits="userSpaceOnUse"><stop offset="0" stop-color="#92e285"/><stop offset="1" stop-color="#18a303"/></linearGradient></defs><path fill="#f9f9f9" fill-rule="evenodd" d="M3.44 1.323H2.38V15.61h12.171V4.498l-2.91-3.175z" style="paint-order:stroke fill markers"/><path fill="#5b5b5b" d="M3.44 1.058H2.116v14.816H14.816V4.234l-3.174-3.176zm0 .53h7.982l2.865 2.864v10.893H2.646V1.587h.793z" color="#000" style="font-feature-settings:normal;font-variant-alternates:normal;font-variant-caps:normal;font-variant-ligatures:normal;font-variant-numeric:normal;font-variant-position:normal;isolation:auto;mix-blend-mode:normal;paint-order:fill markers stroke;shape-padding:0;text-decoration-color:#000;text-decoration-line:none;text-decoration-style:solid;text-indent:0;text-orientation:mixed;text-transform:none;white-space:normal"/><path fill="#5b5b5b" fill-rule="evenodd" d="m12.171 1.058 2.646 2.646V1.058z" style="paint-order:stroke fill markers"/><g fill="#fff"><path d="M8.738 7.942h3.175v.264H8.738zM10.59 5.164h2.117v1.455h-2.116zM8.738 5.296h1.588v.265H8.738zM8.738 5.825h1.588v.265H8.738zM8.738 6.354h1.588v.265H8.738zM8.738 6.883h3.97v.265h-3.97zM8.738 7.413h3.97v.264h-3.97z" opacity=".6"/></g><path fill="#1c99e0" d="M10.59 5.031h2.117v1.456h-2.116z"/><path fill="url(#a)" d="M3391-1117.6h13.999v9H3391z" transform="translate(-437.873 153.011) scale(.13229)"/><path fill="#fff" d="m11.808 5.865-.54-.641-.54.783v.143h1.851v-.143l-.386-.427z" opacity=".5"/><path fill="#fff" d="M12.568 5.818a.661.661 90 0 1-.661-.661h.661z" opacity=".5"/><path fill="url(#b)" d="M448.77 1099.7a7.585 4.688 0 0 1-7.585 4.688v-4.688z" opacity=".74" transform="matrix(0 .07135 -.1176 0 141.888 -26.321)"/><path fill="url(#c)" d="m3399.2-1110.8-4.083-4.846-4.084 5.923v1.077h14v-1.077l-2.916-3.23z" transform="translate(-437.873 153.011) scale(.13229)"/><path fill="none" stroke="#fff" stroke-width=".13229" d="M10.789 5.23h1.72v1.058h-1.72z" opacity=".35"/><g fill="#1c99e0"><path d="M8.738 5.164h1.588v.264H8.738zM8.738 5.693h1.588v.264H8.738zM8.738 6.222h1.588v.265H8.738zM8.738 6.751h3.97v.265h-3.97zM8.738 7.28h3.97v.265h-3.97zM8.738 7.81h3.175v.264H8.738z"/></g><g fill="#fff"><path d="M8.738 11.642h3.175v.264H8.738zM10.59 8.864h2.117v1.455h-2.116zM8.738 8.996h1.588v.265H8.738zM8.738 9.525h1.588v.265H8.738zM8.738 10.054h1.588v.265H8.738zM8.738 10.583h3.97v.265h-3.97zM8.738 11.113h3.97v.264h-3.97z" opacity=".6"/></g><path fill="#1c99e0" d="M10.59 8.731h2.117v1.456h-2.116z"/><path fill="url(#a)" d="M3391-1117.6h13.999v9H3391z" transform="translate(-437.873 156.711) scale(.13229)"/><path fill="#fff" d="m11.808 9.565-.54-.641-.54.783v.143h1.851v-.143l-.386-.427z" opacity=".5"/><path fill="#fff" d="M12.568 9.518a.661.661 90 0 1-.661-.661h.661z" opacity=".5"/><path fill="url(#b)" d="M448.77 1099.7a7.585 4.688 0 0 1-7.585 4.688v-4.688z" opacity=".74" transform="matrix(0 .07135 -.1176 0 141.888 -22.621)"/><path fill="url(#c)" d="m3399.2-1110.8-4.083-4.846-4.084 5.923v1.077h14v-1.077l-2.916-3.23z" transform="translate(-437.873 156.711) scale(.13229)"/><path fill="none" stroke="#fff" stroke-width=".13229" d="M10.789 8.93h1.72v1.058h-1.72z" opacity=".35"/><g fill="#1c99e0"><path d="M8.738 8.864h1.588v.264H8.738zM8.738 9.393h1.588v.264H8.738zM8.738 9.922h1.588v.265H8.738zM8.738 10.451h3.97v.265h-3.97zM8.738 10.98h3.97v.265h-3.97zM8.738 11.51h3.175v.264H8.738z"/></g><g fill="#fff"><path d="M4.238 11.642h3.175v.264H4.238zM6.09 8.864h2.117v1.455H6.091zM4.238 8.996h1.588v.265H4.238zM4.238 9.525h1.588v.265H4.238zM4.238 10.054h1.588v.265H4.238zM4.238 10.583h3.97v.265h-3.97zM4.238 11.113h3.97v.264h-3.97z" opacity=".6"/></g><path fill="#1c99e0" d="M6.09 8.731h2.117v1.456H6.091z"/><path fill="url(#a)" d="M3391-1117.6h13.999v9H3391z" transform="translate(-442.373 156.711) scale(.13229)"/><path fill="#fff" d="m7.308 9.565-.54-.641-.54.783v.143h1.851v-.143l-.386-.427z" opacity=".5"/><path fill="#fff" d="M8.068 9.518a.661.661 90 0 1-.661-.661h.661z" opacity=".5"/><path fill="url(#b)" d="M448.77 1099.7a7.585 4.688 0 0 1-7.585 4.688v-4.688z" opacity=".74" transform="matrix(0 .07135 -.1176 0 137.388 -22.621)"/><path fill="url(#c)" d="m3399.2-1110.8-4.083-4.846-4.084 5.923v1.077h14v-1.077l-2.916-3.23z" transform="translate(-442.373 156.711) scale(.13229)"/><path fill="none" stroke="#fff" stroke-width=".13229" d="M6.289 8.93h1.72v1.058h-1.72z" opacity=".35"/><g fill="#1c99e0"><path d="M4.238 8.864h1.588v.264H4.238zM4.238 9.393h1.588v.264H4.238zM4.238 9.922h1.588v.265H4.238zM4.238 10.451h3.97v.265h-3.97zM4.238 10.98h3.97v.265h-3.97zM4.238 11.51h3.175v.264H4.238z"/></g><g fill="#fff"><path d="M4.238 7.942h3.175v.264H4.238zM6.09 5.164h2.117v1.455H6.091zM4.238 5.296h1.588v.265H4.238zM4.238 5.825h1.588v.265H4.238zM4.238 6.354h1.588v.265H4.238zM4.238 6.883h3.97v.265h-3.97zM4.238 7.413h3.97v.264h-3.97z" opacity=".6"/></g><path fill="#1c99e0" d="M6.09 5.031h2.117v1.456H6.091z"/><path fill="url(#a)" d="M3391-1117.6h13.999v9H3391z" transform="translate(-442.373 153.011) scale(.13229)"/><path fill="#fff" d="m7.308 5.865-.54-.641-.54.783v.143h1.851v-.143l-.386-.427z" opacity=".5"/><path fill="#fff" d="M8.068 5.818a.661.661 90 0 1-.661-.661h.661z" opacity=".5"/><path fill="url(#b)" d="M448.77 1099.7a7.585 4.688 0 0 1-7.585 4.688v-4.688z" opacity=".74" transform="matrix(0 .07135 -.1176 0 137.388 -26.321)"/><path fill="url(#c)" d="m3399.2-1110.8-4.083-4.846-4.084 5.923v1.077h14v-1.077l-2.916-3.23z" transform="translate(-442.373 153.011) scale(.13229)"/><path fill="none" stroke="#fff" stroke-width=".13229" d="M6.289 5.23h1.72v1.058h-1.72z" opacity=".35"/><g fill="#1c99e0"><path d="M4.238 5.164h1.588v.264H4.238zM4.238 5.693h1.588v.264H4.238zM4.238 6.222h1.588v.265H4.238zM4.238 6.751h3.97v.265h-3.97zM4.238 7.28h3.97v.265h-3.97zM4.238 7.81h3.175v.264H4.238z"/></g></svg>