<svg xmlns="http://www.w3.org/2000/svg" xmlns:xlink="http://www.w3.org/1999/xlink" width="64" height="64" viewBox="0 0 16.933 16.933"><defs><linearGradient id="d"><stop offset="0" stop-opacity="0"/><stop offset=".493"/><stop offset="1" stop-opacity="0"/></linearGradient><linearGradient id="e" x1="298" x2="298" y1="-1587.6" y2="-1507.6" gradientTransform="matrix(.0599 0 0 .0599 -4.364 110.86)" gradientUnits="userSpaceOnUse"><stop offset="0" stop-color="#259dd2"/><stop offset="1" stop-color="#025583"/></linearGradient><linearGradient id="f" x1="298" x2="298" y1="-1571.2" y2="-1497.6" gradientUnits="userSpaceOnUse"><stop offset="0" stop-color="#259dd2"/><stop offset="1" stop-color="#065d8d"/></linearGradient><linearGradient id="g" x1="230" x2="230" y1="-581.64" y2="-577.57" gradientTransform="matrix(.58814 0 0 .47924 -116.26 293.83)" gradientUnits="userSpaceOnUse"><stop offset="0" stop-color="#44adeb"/><stop offset="1" stop-color="#aadcf7"/></linearGradient><linearGradient id="h" x1="345" x2="345" y1="1173" y2="1178" gradientTransform="matrix(-.53113 0 0 .48562 202.18 -554.69)" gradientUnits="userSpaceOnUse"><stop offset="0" stop-color="#666"/><stop offset="1" stop-color="#333"/></linearGradient><linearGradient id="i" x1="346.7" x2="361.37" y1="-1313.5" y2="-1303.8" gradientTransform="matrix(.0599 0 0 .0599 -4.364 95.104)" gradientUnits="userSpaceOnUse"><stop offset="0" stop-color="#fff"/><stop offset="1" stop-color="#fff" stop-opacity="0"/></linearGradient><linearGradient id="j" x1="345" x2="345" y1="1173.9" y2="1178" gradientTransform="matrix(.53113 0 0 .48562 -168.85 -554.54)" gradientUnits="userSpaceOnUse"><stop offset="0" stop-color="#666"/><stop offset="1" stop-color="#1a1a1a"/></linearGradient><linearGradient id="k" x1="298.19" x2="298.19" y1="-631.15" y2="-634.27" gradientTransform="translate(-28.257 113.52) scale(.15175)" gradientUnits="userSpaceOnUse"><stop offset="0" stop-color="#18a303"/><stop offset="1" stop-color="#106802"/></linearGradient><linearGradient xlink:href="#a" id="l" x1="345" x2="345" y1="1173" y2="1178" gradientTransform="matrix(.53113 0 0 .48562 -168.85 -553.94)" gradientUnits="userSpaceOnUse"/><linearGradient id="a"><stop offset="0" stop-color="#0369a3"/><stop offset="1" stop-color="#047fc6"/></linearGradient><linearGradient xlink:href="#b" id="m" x1="337.37" x2="337.37" y1="-1311.4" y2="-1304.4" gradientTransform="matrix(.0599 0 0 .0599 -4.364 95.104)" gradientUnits="userSpaceOnUse"/><linearGradient id="b"><stop offset="0" stop-color="#666"/><stop offset="1" stop-color="#666" stop-opacity=".5"/></linearGradient><linearGradient xlink:href="#b" id="o" x1="337.37" x2="337.37" y1="-1311.4" y2="-1299.6" gradientTransform="matrix(.0599 0 0 .0599 -4.364 95.104)" gradientUnits="userSpaceOnUse"/><linearGradient xlink:href="#c" id="p" x1="349.55" x2="349.55" y1="-1308.9" y2="-1302.7" gradientTransform="matrix(.0599 0 0 .0599 -4.364 95.104)" gradientUnits="userSpaceOnUse"/><linearGradient id="c"><stop offset="0" stop-color="gray"/><stop offset="1" stop-color="#666"/></linearGradient><linearGradient xlink:href="#c" id="q" x1="349.55" x2="349.55" y1="-1307.7" y2="-1301.2" gradientTransform="matrix(.0599 0 0 .0599 -4.364 95.104)" gradientUnits="userSpaceOnUse"/><linearGradient xlink:href="#a" id="r" x1="337.38" x2="337.38" y1="-1293.6" y2="-1287.5" gradientTransform="matrix(.0599 0 0 .0599 -4.364 95.104)" gradientUnits="userSpaceOnUse"/><linearGradient id="s" x1="445.7" x2="441.39" y1="1103.6" y2="1099.8" gradientTransform="matrix(0 .10268 -.16613 0 201.64 -30.207)" gradientUnits="userSpaceOnUse"><stop offset="0" stop-color="#e9b913"/><stop offset="1" stop-color="#ff0"/></linearGradient><linearGradient xlink:href="#d" id="t" x1="-17" x2="144" y1="-1194.6" y2="-1194.6" gradientTransform="matrix(.0314 0 0 .0599 14.71 89.533)" gradientUnits="userSpaceOnUse"/><linearGradient xlink:href="#d" id="u" x1="-17" x2="144" y1="-1194.6" y2="-1194.6" gradientTransform="matrix(.0314 0 0 .0599 14.71 86.598)" gradientUnits="userSpaceOnUse"/><linearGradient xlink:href="#d" id="w" x1="-17" x2="144" y1="-1194.6" y2="-1194.6" gradientTransform="matrix(.01786 0 0 .0599 15.397 57.179)" gradientUnits="userSpaceOnUse"/><linearGradient xlink:href="#d" id="x" x1="-17" x2="144" y1="-1194.6" y2="-1194.6" gradientTransform="matrix(.01786 0 0 .0599 15.397 52.566)" gradientUnits="userSpaceOnUse"/><linearGradient xlink:href="#d" id="y" x1="-17" x2="144" y1="-1194.6" y2="-1194.6" gradientTransform="matrix(.01786 0 0 .0599 15.397 57.358)" gradientUnits="userSpaceOnUse"/><linearGradient xlink:href="#d" id="z" x1="-17" x2="144" y1="-1194.6" y2="-1194.6" gradientTransform="matrix(.0314 0 0 .0599 14.71 89.713)" gradientUnits="userSpaceOnUse"/><linearGradient xlink:href="#d" id="A" x1="-17" x2="144" y1="-1194.6" y2="-1194.6" gradientTransform="matrix(.01786 0 0 .0599 15.397 52.386)" gradientUnits="userSpaceOnUse"/><linearGradient xlink:href="#d" id="v" x1="-17" x2="144" y1="-1194.6" y2="-1194.6" gradientTransform="matrix(.01153 0 0 .0599 12.245 86.418)" gradientUnits="userSpaceOnUse"/><radialGradient id="n" cx="-1535.3" cy="-842.91" r="10" gradientTransform="matrix(-.19863 0 0 -.45434 -320.03 -401.93)" gradientUnits="userSpaceOnUse"><stop offset="0" stop-color="#fff"/><stop offset="1" stop-color="#00a8ff" stop-opacity="0"/></radialGradient></defs><path fill="#f9f9f9" fill-rule="evenodd" d="M3.44 1.323H2.38V15.61h12.171V4.498l-2.91-3.175z" style="paint-order:stroke fill markers"/><path fill="#036fad" d="M3.44 1.058H2.116v14.816H14.816V4.234l-3.174-3.176zm0 .53h7.982l2.865 2.864v10.893H2.646V1.587h.793z" color="#000" style="font-feature-settings:normal;font-variant-alternates:normal;font-variant-caps:normal;font-variant-ligatures:normal;font-variant-numeric:normal;font-variant-position:normal;isolation:auto;mix-blend-mode:normal;paint-order:fill markers stroke;shape-padding:0;text-decoration-color:#000;text-decoration-line:none;text-decoration-style:solid;text-indent:0;text-orientation:mixed;text-transform:none;white-space:normal"/><path fill="#036fad" fill-rule="evenodd" d="m12.171 1.058 2.646 2.646V1.058z" style="paint-order:stroke fill markers"/><g transform="translate(-6.904 -9.562)"><path fill="#fff" d="M14.146 14.914h5.032v3.355h-5.032zM12.049 14.914v.3h1.857v-.3zm-.54.599v.3h2.397v-.3zm0 .6v.299h2.397v-.3zm0 .598v.3h2.397v-.3zm0 .6v.299h2.397v-.3zm0 .598v.3h2.397v-.3zm0 .6v.299h7.669v-.3zm0 .598v.3h7.669v-.3zm0 .6v.299h7.669v-.3zm0 .598v.3h7.669v-.3zm0 .6v.299h5.033v-.3z" color="#000"/><path fill="url(#e)" d="M14.146 14.854h5.032v3.355h-5.032z" color="#000"/><g fill="url(#f)" color="#000" transform="matrix(.0599 0 0 .0599 -4.364 110.8)"><path d="M274-1601.6h31v5h-31zM265-1541.6h128v5H265zM265-1501.6h84v5h-84zM265-1591.6h40v5h-40zM265-1581.6h40v5h-40zM265-1571.6h40v5h-40zM265-1561.6h40v5h-40zM265-1551.6h40v5h-40zM265-1531.6h128v5H265zM265-1521.6h128v5H265zM265-1511.6h128v5H265z"/></g><path fill="url(#g)" d="M14.386 15.093h4.553v2.875h-4.553z" color="#000"/><path fill="#fff" d="M17.701 15.94c-.902.36-1.784.852-2.383 1.632 1.227 0 2.393-.059 3.62-.059v-.542c-.303-.263-.862-.9-1.237-1.031z" color="#000" opacity=".5"/><path fill="url(#h)" d="M17.724 15.996c.304.152.831.68 1.214 1.062v.456h-3.49c.607-.76 1.517-1.214 2.276-1.518z" color="#000"/><path fill="#333" d="m16.61 16.878.027-.214.398-.17.224-.21.394-.16-.103.259-.153.269-.092.292-.063.169-.632-.235z"/><path fill="url(#i)" d="M15.55 15.508c-.386.582-.71 1.11-1.164 1.63l.004.422c1.005 0 2.665.013 3.67.013-.842-.611-1.76-1.173-2.282-2.099-.072.064-.182-.03-.228.034z" color="#000" opacity=".5"/><path fill="url(#j)" d="M16.738 16.679c-.454-.377-.683-.683-.986-1.138-.09.027-.086.016-.152 0 0 0-.406.603-.607.91-.201.308-.607.76-.607.76v.303h3.49s-.834-.603-1.138-.835z" color="#000"/><path fill="url(#k)" d="M18.938 17.21h-.196l-.866.152s-.857-.228-.986-.228c-.126 0-.532.076-.608.076-.053 0-.38-.152-.456-.152-.127 0-.274.161-.654.228 0 0-.109-.242-.18-.228-.455.176-.607.152-.607.152v.759h4.553v-.759z" color="#000"/><path fill="url(#l)" d="M14.386 17.362v.607h3.946l.151-.152-.151-.151-.304-.152-.759-.152-.758-.076-.683.076h-1.442z" color="#000"/><path fill="#333" d="m14.689 17.058.216-.347.256-.303.196-.357.243-.359-.165.454-.12.373-.059.236-.108.25c-.044-.031-.1-.032-.15-.049l-.142.056-.167.046z"/><path fill="url(#m)" d="m15.246 17.065.163-.412.08-.425.115-.263.072-.273.1.28.028.269.12.238.12.274.022.194-.2.056-.191-.074-.211.137h-.218z"/><path fill="gray" d="m17.202 17.134-.266-.192-.17-.135.165.257.271.07z"/><path fill="url(#n)" d="M-17.01-18.938h1.917v4.553h-1.917z" color="#000" transform="matrix(0 -1 -1 0 0 0)"/><path fill="#e9b913" d="M18.938 15.987a.899.899 0 0 1-.899-.899h.899z" color="#000" opacity=".5"/><path fill="url(#o)" d="m17.425 16.952.094-.302.115-.263.072-.272.1.28.127.24.093.238-.014.255.127.127-.26-.014-.527-.109.073-.18z" color="#000"/><path fill="url(#p)" d="m16.814 17.058-.221-.335-.392-.427-.324-.426-.125-.178.136.46.148.277.133.422.038.207.136.046.209-.049c.087-.008.175.002.262.003z"/><path fill="url(#q)" d="m18.877 17.12-.178-.107-.25-.342-.367-.317-.286-.24.055.2.253.4.028.36.152.117.342-.066.251-.005z" color="#000"/><path fill="url(#r)" d="m14.387 17.517-.002.451h3.794v-.151l-.151-.152-.76-.152-.758-.076-.759.076-.82.023z" color="#000"/><path fill="#0088b7" d="m16.512 17.366-.762.086-.813.063-.496.001.489.02h.838l.742-.077.76.072.338.066.416.097.137.13.019.145h.07l.011-.167-.204-.195-.79-.149z" color="#000"/><path fill="#1c99e0" d="m16.055 17.817.152-.152h.607l.455.152.152.152h-.304l-1.062-.152z" opacity=".5"/><path fill="#fff" d="m15.752 15.692.094.354c.077.142.227.203.352.324.18.175.38.382.456.449l-.061-.096-.392-.428-.324-.425z" opacity=".4"/><path d="m15.601 15.692-.196.456-.195.547-.214.262c.03.007.126.03.152.05l.109-.252.058-.236.121-.374z" opacity=".25"/><path fill="#ff0" d="M15.825 17.059c-.124 0-.266.152-.623.22l-.013.008c.006.003.029.007.108-.005.106-.016.483-.176.573-.17.09.005.359.158.412.153.053-.005.562-.08.657-.058l.97.217.834-.153.195.005v-.065h-.196l-.865.151s-.858-.228-.987-.228c-.126 0-.532.077-.608.077-.053 0-.38-.152-.457-.152z" opacity=".35"/><path fill="url(#s)" d="M18.939 15.872a.779.779 0 0 1-.779-.779h.779z" color="#000" opacity=".74"/><path fill="#fff" d="M17.98 15.093c0 .53.429.958.958.958v-.059a.899.899 0 0 1-.899-.899z" color="#000" opacity=".5"/><path fill="#fff" d="m17.795 16.114.056.2.253.4.028.36.152.118.026-.005-.135-.135-.026-.345-.145-.222.388.207.307.32-.249-.34-.367-.318zm.904.899.015.016-.004-.009z" opacity=".4"/><path fill="url(#t)" d="M14.176 17.969h5.054v.06h-5.054z" color="#000" opacity=".25"/><path fill="url(#u)" d="M14.176 15.033h5.054v.06h-5.054z" color="#000" opacity=".15"/><path fill="#fff" d="M14.386 15.093v2.875h4.553v-2.875zm.06.06h4.433v2.756h-4.433z" color="#000" opacity=".35"/><path id="B" fill="url(#v)" d="M12.049 14.854h1.857v.06h-1.857z" color="#000" opacity=".25"/><path fill="url(#w)" d="M15.093-14.386h2.875v.06h-2.875z" color="#000" opacity=".25" transform="rotate(90)"/><path fill="url(#x)" d="M15.093-18.998h2.875v.06h-2.875z" color="#000" opacity=".25" transform="rotate(90)"/><path fill="url(#y)" d="M15.093-14.206h2.875v.06h-2.875z" color="#000" opacity=".25" transform="rotate(90)"/><path fill="url(#z)" d="M14.176 18.148h5.054v.06h-5.054z" color="#000" opacity=".25"/><path fill="url(#A)" d="M15.093-19.178h2.875v.06h-2.875z" color="#000" opacity=".25" transform="rotate(90)"/><use xlink:href="#B" width="5033" height="1085" transform="matrix(1.2903 0 0 .99998 -4.037 .6)"/><use xlink:href="#B" width="5033" height="1085" transform="matrix(1.2903 0 0 .99998 -4.037 1.198)"/><use xlink:href="#B" width="5033" height="1085" transform="matrix(1.2903 0 0 .99998 -4.037 1.797)"/><use xlink:href="#B" width="5033" height="1085" transform="matrix(1.2903 0 0 .99998 -4.037 2.396)"/><use xlink:href="#B" width="5033" height="1085" transform="matrix(1.2903 0 0 .99998 -4.037 2.995)"/><use xlink:href="#B" width="5033" height="1085" transform="matrix(4.129 0 0 .99998 -38.242 3.595)"/><use xlink:href="#B" width="5033" height="1085" transform="matrix(4.129 0 0 .99998 -38.242 4.194)"/><use xlink:href="#B" width="5033" height="1085" transform="matrix(4.129 0 0 .99998 -38.242 4.793)"/><use xlink:href="#B" width="5033" height="1085" transform="matrix(4.129 0 0 .99998 -38.242 5.392)"/><use xlink:href="#B" width="5033" height="1085" transform="matrix(2.7097 0 0 .99998 -21.14 5.99)"/></g></svg>