<svg xmlns="http://www.w3.org/2000/svg" xmlns:xlink="http://www.w3.org/1999/xlink" width="64" height="64" viewBox="0 0 16.933 16.933"><defs><linearGradient id="g" x1="850.25" x2="850.25" y1="-1506.6" y2="-1510.6" gradientUnits="userSpaceOnUse"><stop offset="0" stop-color="gray"/><stop offset="1" stop-color="#333"/></linearGradient><linearGradient id="h" x1="809.62" x2="809.62" y1="-1074.8" y2="-1116.8" gradientTransform="matrix(2.0333 0 0 2.0476 -752.27 686.81)" gradientUnits="userSpaceOnUse"><stop offset="0" stop-color="#d36118"/><stop offset="1" stop-color="#f09e6f"/></linearGradient><linearGradient id="i" x1="812" x2="812" y1="-1075.6" y2="-1115.6" gradientTransform="matrix(2.0333 0 0 2.15 -752.27 798.98)" gradientUnits="userSpaceOnUse"><stop offset="0" stop-color="#edbfa1"/><stop offset="1" stop-color="#fdf1ea"/></linearGradient><linearGradient id="l" x1="825.25" x2="825.25" y1="-1559.6" y2="-1525.6" gradientUnits="userSpaceOnUse"><stop offset="0" stop-color="#b84603"/><stop offset="1" stop-color="#622502"/></linearGradient><linearGradient xlink:href="#a" id="m" x1="895.5" x2="895.5" y1="647.81" y2="735.75" gradientUnits="userSpaceOnUse"/><linearGradient id="a"><stop offset="0" stop-color="#e67325"/><stop offset="1" stop-color="#c8400c"/></linearGradient><linearGradient id="n" x1="798.25" x2="902" y1="-1589.1" y2="-1589.1" gradientUnits="userSpaceOnUse"><stop offset="0" stop-color="#8e2103"/><stop offset=".169" stop-color="#e46f1f"/><stop offset=".838" stop-color="#e66d20"/><stop offset="1" stop-color="#922504"/></linearGradient><linearGradient id="o" x1="902.25" x2="902.25" y1="-1534.4" y2="-1524.4" gradientUnits="userSpaceOnUse"><stop offset="0" stop-color="gray"/><stop offset="1" stop-color="#606060"/></linearGradient><linearGradient id="p" x1="714" x2="714" y1="-1063.6" y2="-1079.2" gradientTransform="matrix(1.1795 0 0 1.5 10.846 67.819)" gradientUnits="userSpaceOnUse"><stop offset="0" stop-color="#fff"/><stop offset="1" stop-color="#fff" stop-opacity="0"/></linearGradient><linearGradient id="q" x1="889" x2="879" y1="-1054.6" y2="-1042.6" gradientTransform="matrix(2 0 0 2 -898 556.64)" gradientUnits="userSpaceOnUse"><stop offset="0" stop-color="#18a303"/><stop offset="1" stop-color="#106802"/></linearGradient><linearGradient id="r" x1="818.03" x2="882.24" y1="-1575.7" y2="-1575.7" gradientUnits="userSpaceOnUse"><stop offset="0" stop-color="#8e2103"/><stop offset=".169" stop-color="#e45c1f"/><stop offset=".838" stop-color="#e45c1f"/><stop offset="1" stop-color="#922504"/></linearGradient><linearGradient xlink:href="#b" id="s" x1="-17" x2="144" y1="-1194.6" y2="-1194.6" gradientTransform="matrix(.72671 0 0 1 802.35 -405)" gradientUnits="userSpaceOnUse"/><linearGradient id="b"><stop offset="0" stop-color="#fff" stop-opacity="0"/><stop offset=".493" stop-color="#fff"/><stop offset="1" stop-color="#fff" stop-opacity="0"/></linearGradient><linearGradient xlink:href="#a" id="t" x1="895.5" x2="895.5" y1="621.56" y2="709.5" gradientUnits="userSpaceOnUse"/><linearGradient xlink:href="#a" id="u" x1="895.5" x2="895.5" y1="595.31" y2="683.25" gradientUnits="userSpaceOnUse"/><linearGradient xlink:href="#a" id="v" x1="895.5" x2="895.5" y1="569.06" y2="657" gradientUnits="userSpaceOnUse"/><linearGradient xlink:href="#c" id="w" x1="-17" x2="144" y1="-1194.6" y2="-1194.6" gradientTransform="matrix(.64596 0 0 1 808.98 -396)" gradientUnits="userSpaceOnUse"/><linearGradient id="c"><stop offset="0" stop-opacity="0"/><stop offset=".493"/><stop offset="1" stop-opacity="0"/></linearGradient><linearGradient xlink:href="#c" id="x" x1="-17" x2="144" y1="-1194.6" y2="-1194.6" gradientTransform="matrix(.39752 0 0 1 824.76 -386)" gradientUnits="userSpaceOnUse"/><linearGradient xlink:href="#c" id="y" x1="-17" x2="144" y1="-1194.6" y2="-1194.6" gradientTransform="matrix(.7205 0 0 1 804.25 -319)" gradientUnits="userSpaceOnUse"/><linearGradient xlink:href="#b" id="A" x1="-17" x2="144" y1="-1194.6" y2="-1194.6" gradientTransform="matrix(.28611 0 0 1 858.01 -333.94)" gradientUnits="userSpaceOnUse"/><linearGradient id="I" x1="881" x2="887" y1="-1042.6" y2="-1048.6" gradientTransform="matrix(2 0 0 2 -898 556.64)" gradientUnits="userSpaceOnUse"><stop offset="0" stop-color="#78db67"/><stop offset="1" stop-color="#ccf4c6"/></linearGradient><linearGradient id="j" x1="529.25" x2="535" y1="-1568.6" y2="-1574.6" gradientTransform="matrix(1.6667 0 0 7 -91.667 9465.8)" gradientUnits="userSpaceOnUse"><stop offset="0" stop-color="red"/><stop offset="1" stop-color="#ffc600" stop-opacity="0"/></linearGradient><linearGradient xlink:href="#c" id="z" x1="-17" x2="144" y1="-1194.6" y2="-1194.6" gradientTransform="matrix(.28611 0 0 1 857.86 -364)" gradientUnits="userSpaceOnUse"/><linearGradient xlink:href="#c" id="B" x1="-17" x2="144" y1="-1194.6" y2="-1194.6" gradientTransform="matrix(.18634 0 0 1 813.17 -365)" gradientUnits="userSpaceOnUse"/><linearGradient id="C" x1="-17" x2="144" y1="-1194.6" y2="-1194.6" gradientTransform="matrix(.50932 0 0 1 -1589 403.64)" gradientUnits="userSpaceOnUse"><stop offset="0" stop-color="#d40000" stop-opacity="0"/><stop offset=".493" stop-color="#d40000"/><stop offset="1" stop-color="#d40000" stop-opacity="0"/></linearGradient><radialGradient id="e" cx="152.33" cy="-754.64" r="15" gradientTransform="matrix(0 .27074 -4.0434 0 -2202 -1535.9)" gradientUnits="userSpaceOnUse"><stop offset="0" stop-color="gray" stop-opacity=".502"/><stop offset="1" stop-opacity="0"/></radialGradient><radialGradient id="k" cx="-1535.5" cy="-853" r="10" gradientTransform="matrix(-3.3157 0 0 -3.2 -6604 -3579.6)" gradientUnits="userSpaceOnUse"><stop offset="0" stop-color="#fff"/><stop offset="1" stop-color="#ffd5d5" stop-opacity="0"/></radialGradient><radialGradient id="d" cx="152.33" cy="-754.64" r="15" gradientTransform="matrix(0 .16921 -.83542 0 197.03 -1518)" gradientUnits="userSpaceOnUse"><stop offset="0" stop-opacity=".502"/><stop offset="1" stop-opacity="0"/></radialGradient></defs><path fill="#f9f9f9" fill-rule="evenodd" d="M3.44 1.323H2.38V15.61h12.171V4.498l-2.91-3.175z" style="paint-order:stroke fill markers"/><path fill="#ad450d" d="M3.44 1.058H2.116v14.816H14.816V4.234l-3.174-3.176zm0 .53h7.982l2.865 2.864v10.893H2.646V1.587h.793z" color="#000" style="font-feature-settings:normal;font-variant-alternates:normal;font-variant-caps:normal;font-variant-ligatures:normal;font-variant-numeric:normal;font-variant-position:normal;isolation:auto;mix-blend-mode:normal;paint-order:fill markers stroke;shape-padding:0;text-decoration-color:#000;text-decoration-line:none;text-decoration-style:solid;text-indent:0;text-orientation:mixed;text-transform:none;white-space:normal"/><path fill="#ad450d" fill-rule="evenodd" d="m12.171 1.058 2.646 2.646V1.058z" style="paint-order:stroke fill markers"/><g transform="matrix(.05788 0 0 .05788 -40.728 97.951)"><path id="J" fill="url(#d)" d="M815-1494.6h25v5h-25z" color="#000" opacity=".5"/><path fill="url(#e)" d="M789-1498.6h121v8H789z" color="#000" opacity=".4"/><path id="f" fill="#4d4d4d" d="m846.24-1508.6-24.242 16h9.769l3.398-1.114 18.833-14.886z"/><use xlink:href="#f" width="5033" height="1085" transform="matrix(-1 0 0 1 1699 0)"/><path fill="#4d4d4d" d="m854-1508.6 24 16h-10.011l-3.086-.878L846-1508.6z"/><path id="K" fill="url(#g)" d="m844.24-1508.6-24.242 16h11.758l20.242-16z"/><path fill="url(#g)" d="M844-1512.6h12v6h-12z" color="#000"/><rect width="128" height="92" x="786" y="-1602.6" fill="#a33e03" color="#000" rx="2" ry="2"/><rect width="122" height="86" x="789" y="-1599.6" fill="url(#h)" color="#000" rx="4" ry="4"/><rect width="122" height="86" x="789" y="-1599.6" fill="url(#i)" color="#000" rx="4" ry="4"/><rect id="E" width="20" height="84" x="790" y="-1598.6" fill="url(#j)" color="#000" opacity=".35" rx="4" ry="4"/><path fill="#fff" d="M850-1559.6h52v36h-52z" color="#000" opacity=".5"/><path fill="url(#k)" d="M-1545.6-882h32v64h-32z" color="#000" transform="rotate(90)"/><g fill="#fff" color="#000" opacity=".5"><path d="M810-1558.6h30v4h-30zM810-1548.6h30v4h-30zM810-1538.6h30v4h-30zM810-1528.6h30v4h-30z"/></g><path fill="url(#l)" d="M810-1559.6h30v4h-30z" color="#000"/><g fill="#fff" color="#000"><path d="M804-1546.616a2 2 0 1 1-4 0 2 2 0 1 1 4 0zM804-1536.616a2 2 0 1 1-4 0 2 2 0 1 1 4 0zM804-1556.616a2 2 0 1 1-4 0 2 2 0 1 1 4 0zM804-1526.616a2 2 0 1 1-4 0 2 2 0 1 1 4 0z"/></g><path fill="url(#m)" d="M901 651.75a5.5 5.25 0 1 1-11 0 5.5 5.25 0 1 1 11 0z" color="#000" transform="matrix(.36364 0 0 .38095 476.36 -1805.9)"/><path fill="#fff" d="M798-1589.6h104v5H798z" color="#000"/><path fill="url(#n)" d="M798-1590.6h104v5H798z" color="#000"/><path fill="url(#o)" d="M850-1560.6h52v36h-52z" color="#000"/><path fill="#dfdfdf" d="M853-1557.6h46v30h-46z" color="#000"/><path fill="url(#p)" d="M853-1557.6h46v30h-46z" color="#000"/><path id="H" d="M856-1552.6h40v2h-40z" color="#000" opacity=".05"/><path fill="none" stroke="url(#q)" stroke-linecap="round" stroke-linejoin="round" stroke-width="3" d="m859-1533.6 11-11 8 8 15-15"/><path fill="#fff" d="M818-1579.6h64v5h-64z" color="#000"/><path fill="url(#r)" d="M818-1580.6h64v5h-64z" color="#000"/><path fill="url(#s)" d="M790-1599.6h117v1H790z" color="#000"/><path fill="url(#l)" d="M810-1549.6h30v4h-30z" color="#000"/><path fill="url(#t)" d="M901 651.75a5.5 5.25 0 1 1-11 0 5.5 5.25 0 1 1 11 0z" color="#000" transform="matrix(.36364 0 0 .38095 476.36 -1795.9)"/><path fill="url(#l)" d="M810-1539.6h30v4h-30z" color="#000"/><path fill="url(#u)" d="M901 651.75a5.5 5.25 0 1 1-11 0 5.5 5.25 0 1 1 11 0z" color="#000" transform="matrix(.36364 0 0 .38095 476.36 -1785.9)"/><path fill="url(#l)" d="M810-1529.6h30v4h-30z" color="#000"/><path fill="url(#v)" d="M901 651.75a5.5 5.25 0 1 1-11 0 5.5 5.25 0 1 1 11 0z" color="#000" transform="matrix(.36364 0 0 .38095 476.36 -1775.9)"/><path fill="url(#w)" d="M798-1590.6h104v1H798z" color="#000" opacity=".25"/><path fill="url(#x)" d="M818-1580.6h64v1h-64z" color="#000" opacity=".5"/><path fill="url(#y)" d="M792-1513.6h116v1H792z" color="#000" opacity=".5"/><path id="G" fill="url(#z)" d="M853-1558.6h46.063v1H853z" color="#000" opacity=".25"/><path fill="url(#A)" d="M853.15-1528.6h46.063v1H853.15z" color="#000"/><path id="F" fill="url(#B)" d="M810-1559.6h30v1h-30z" color="#000" opacity=".25"/><path id="D" fill="url(#C)" d="M-1597.6-791h82v1h-82z" color="#000" opacity=".15" transform="rotate(90)"/><use xlink:href="#D" width="5033" height="1085" transform="translate(119)"/><use xlink:href="#E" width="5033" height="1085" transform="matrix(-1 0 0 1 1700 0)"/><use xlink:href="#F" width="5033" height="1085" transform="translate(0 10)"/><use xlink:href="#F" width="5033" height="1085" transform="translate(0 20)"/><use xlink:href="#F" width="5033" height="1085" transform="translate(0 30)"/><use xlink:href="#G" width="5033" height="1085" transform="translate(0 31)"/><use xlink:href="#H" width="5033" height="1085" transform="translate(0 6)"/><use xlink:href="#H" width="5033" height="1085" transform="translate(0 12)"/><use xlink:href="#H" width="5033" height="1085" transform="translate(0 17)"/><path fill="none" stroke="url(#I)" stroke-linecap="round" stroke-linejoin="round" stroke-width="1.5" d="m859-1533.6 11-11 8 8 15-15"/><use xlink:href="#J" width="5033" height="1085" transform="matrix(-1 0 0 1 1699 0)"/><use xlink:href="#K" width="5033" height="1085" transform="matrix(-1 0 0 1 1699 0)"/></g></svg>