<svg width="64" height="64" version="1.1" viewBox="0 0 16.933 16.933" xmlns="http://www.w3.org/2000/svg" xmlns:xlink="http://www.w3.org/1999/xlink">
 <g transform="matrix(.26458 0 0 .26458 0 -261.5)">
  <path d="m8.991 989.37 46.01 4e-3v57.985h-46.009v-57.989z" fill="#008a50"/>
  <path transform="matrix(1.3428 0 0 1.3408 -.228 988.19)" d="m6.5 0.5 35 3e-3v44.003h-35z" fill="none" opacity=".75" stroke="#004026" stroke-linejoin="round" stroke-width=".745"/>
  <rect y="988.36" width="64" height="64" rx="0" ry="0" fill="none" opacity=".75"/>
 </g>
 <path d="m4.5356 5.0285v6.4491h7.309v-6.4491h-7.309zm0.18396 0.18396h1.5973v0.85988h-1.5973v-0.85988zm1.7813 0h1.5973v0.85988h-1.5973v-0.85988zm1.7813 0h1.5968v0.85988h-1.5968v-0.85988zm1.7813 0h1.5968v0.85988h-1.5968v-0.85988zm-5.3438 1.0444h1.5973v0.85988h-1.5973v-0.85988zm1.7813 0h1.5973v0.85988h-1.5973v-0.85988zm1.7813 0h1.5968v0.85988h-1.5968v-0.85988zm1.7813 0h1.5968v0.85988h-1.5968v-0.85988zm-5.3438 1.0438h1.5973v0.85988h-1.5973v-0.85988zm1.7813 0h1.5973v0.85988h-1.5973v-0.85988zm1.7813 0h1.5968v0.85988h-1.5968v-0.85988zm1.7813 0h1.5968v0.85988h-1.5968v-0.85988zm-5.3438 1.0444h1.5973v0.85988h-1.5973v-0.85988zm1.7813 0h1.5973v0.85988h-1.5973v-0.85988zm1.7813 0h1.5968v0.85988h-1.5968v-0.85988zm1.7813 0h1.5968v0.85988h-1.5968v-0.85988zm-5.3438 1.0438h1.5973v0.85988h-1.5973v-0.85988zm1.7813 0h1.5973v0.85988h-1.5973v-0.85988zm-1.7813 1.0444h1.5973v0.85988h-1.5973v-0.85988zm1.7813 0h1.5973v0.85988h-1.5973v-0.85988z" fill="#ffffff" stroke-width=".06142"/>
 <path d="m7.6065 8.4064h4.7908v3.4395h-4.7908z" color="#000000" fill="#005b35" stroke-width=".06142"/>
 <path d="m7.7293 8.5292h4.5451v3.1938h-4.5451z" color="#000000" fill="#ffffff" stroke-width=".06142"/>
 <path d="m9.0192 8.8978h0.85988v2.5796h-0.85988z" color="#000000" fill="#a33e03" stroke-width=".06142"/>
 <path d="m10.125 10.249h0.85988v1.2284h-0.85988z" color="#000000" fill="#c99c00" stroke-width=".06142"/>
 <path d="m11.23 9.7576h0.85988v1.7198h-0.85988z" color="#000000" fill="#43c330" stroke-width=".06142"/>
 <path d="m9.0806 11.416h0.73704v-2.4568h-0.73704z" color="#000000" fill="#f5b893" stroke-width=".06142"/>
 <path d="m10.186 11.416h0.73704v-1.1056h-0.73704z" color="#000000" fill="#f9db7e" stroke-width=".06142"/>
 <path d="m11.292 11.416h0.73704v-1.5969h-0.73704z" color="#000000" fill="#aeeea4" stroke-width=".06142"/>
 <path d="m7.9136 9.512h0.85988v1.9654h-0.85988z" color="#000000" fill="#0369a3" stroke-width=".06142"/>
 <path d="m7.975 11.416h0.73704v-1.8426h-0.73704z" color="#000000" fill="#8ccef3" stroke-width=".06142"/>
</svg>
