<svg width="64" height="64" version="1.1" viewBox="0 0 16.933 16.933" xmlns="http://www.w3.org/2000/svg">
 <path d="m2.381 0.26458h12.171v15.61h-12.17v-15.61z" color="#000000" fill="#555555" overflow="visible" stroke-width=".26458"/>
 <path d="m2.249 0.13202 12.435 0.001058v15.874h-12.435v-15.875z" color="#000000" fill="none" overflow="visible" stroke="#373737" stroke-linecap="round" stroke-linejoin="round" stroke-width=".26511"/>
 <path d="m6.0853 5.1589h2.117v1.456h-2.116z" fill="#7acfff"/>
 <path d="m6.2176 5.2916h1.8519v1.1906h-1.8519z" fill="#ffffff" stroke-width=".13229"/>
 <path d="m8.0696 5.8328a0.55131 0.54119 0 0 1-0.55131-0.54119h0.55131z" fill="#d5e341" opacity=".74" stroke-width=".091601"/>
 <path d="m7.2981 6.1973-0.54014-0.64108-0.54027 0.78355v0.14248h1.8521v-0.14248l-0.38576-0.4273z" fill="#5fc84e" stroke-width=".13229"/>
 <path d="m4.2333 5.2919h1.588v0.264h-1.588zm0 0.529h1.588v0.264h-1.588zm0 0.529h1.588v0.265h-1.588zm0 0.529h3.97v0.265h-3.97zm0 0.529h3.97v0.265h-3.97zm0 0.53h3.175v0.264h-3.175z" fill="#7acfff"/>
 <path d="m11.112 5.1589h2.117v1.456h-2.116z" fill="#7acfff"/>
 <path d="m11.245 5.2916h1.8519v1.1906h-1.8519z" fill="#ffffff" stroke-width=".13229"/>
 <path d="m13.097 5.8328a0.55131 0.54119 0 0 1-0.55131-0.54119h0.55131z" fill="#d5e341" opacity=".74" stroke-width=".091601"/>
 <path d="m12.325 6.1973-0.54014-0.64108-0.54027 0.78355v0.14248h1.8521v-0.14248l-0.38576-0.4273z" fill="#5fc84e" stroke-width=".13229"/>
 <path d="m9.2602 5.2919h1.588v0.264h-1.588zm0 0.529h1.588v0.264h-1.588zm0 0.529h1.588v0.265h-1.588zm0 0.529h3.97v0.265h-3.97zm0 0.529h3.97v0.265h-3.97zm0 0.53h3.175v0.264h-3.175z" fill="#7acfff"/>
 <path d="m6.0853 9.1276h2.117v1.456h-2.116z" fill="#7acfff"/>
 <path d="m6.2176 9.2603h1.8519v1.1906h-1.8519z" fill="#ffffff" stroke-width=".13229"/>
 <path d="m8.0696 9.8015a0.55131 0.54119 0 0 1-0.55131-0.54119h0.55131z" fill="#d5e341" opacity=".74" stroke-width=".091601"/>
 <path d="m7.2981 10.166-0.54014-0.64108-0.54027 0.78355v0.14248h1.8521v-0.14248l-0.38576-0.4273z" fill="#5fc84e" stroke-width=".13229"/>
 <path d="m4.2333 9.2606h1.588v0.264h-1.588zm0 0.529h1.588v0.264h-1.588zm0 0.529h1.588v0.265h-1.588zm0 0.529h3.97v0.265h-3.97zm0 0.529h3.97v0.265h-3.97zm0 0.53h3.175v0.264h-3.175z" fill="#7acfff"/>
 <path d="m11.112 9.1276h2.117v1.456h-2.116z" fill="#7acfff"/>
 <path d="m11.245 9.2603h1.8519v1.1906h-1.8519z" fill="#ffffff" stroke-width=".13229"/>
 <path d="m13.097 9.8015a0.55131 0.54119 0 0 1-0.55131-0.54119h0.55131z" fill="#d5e341" opacity=".74" stroke-width=".091601"/>
 <path d="m12.325 10.166-0.54014-0.64108-0.54027 0.78355v0.14248h1.8521v-0.14248l-0.38576-0.4273z" fill="#5fc84e" stroke-width=".13229"/>
 <path d="m9.2602 9.2606h1.588v0.264h-1.588zm0 0.529h1.588v0.264h-1.588zm0 0.529h1.588v0.265h-1.588zm0 0.529h3.97v0.265h-3.97zm0 0.529h3.97v0.265h-3.97zm0 0.53h3.175v0.264h-3.175z" fill="#7acfff"/>
</svg>
