<svg width="64" height="64" version="1.1" viewBox="0 0 16.933 16.933" xmlns="http://www.w3.org/2000/svg" xmlns:xlink="http://www.w3.org/1999/xlink">
 <defs>
  <clipPath id="b">
   <circle transform="translate(-40.845 -23.293) scale(1.0345)" cx="1184.5" cy="675.5" r="16.5" fill="#1c99e0" opacity=".228"/>
  </clipPath>
 </defs>
 <rect y="-.0031749" width="16.933" height="16.933" rx="0" ry="0" fill="none" opacity=".75" stroke-width=".26458"/>
 <path d="m2.3812 0.26511h12.171v15.61h-12.17v-15.61z" color="#000000" fill="#555555" overflow="visible" stroke-width=".26458"/>
 <path d="m2.2489 0.13202 12.435 0.001058v15.874h-12.435v-15.875z" color="#000000" fill="none" overflow="visible" stroke="#373737" stroke-linecap="round" stroke-linejoin="round" stroke-width=".26511"/>
 <path d="m4.234 5.292v0.529h8.466v-0.53zm0 1.058v0.53h8.466v-0.53zm0 1.058v0.53h4.936a2.628 2.628 0 0 1 2.299 0h1.232v-0.53zm0 1.059v0.529h3.795a2.66 2.66 0 0 1 0.401-0.53zm7.974 0c0.155 0.157 0.29 0.336 0.402 0.529h0.09v-0.53zm-7.974 1.058v0.529h3.452c0.018-0.183 0.058-0.36 0.112-0.53zm0 1.058v0.53h3.563a2.636 2.636 0 0 1-0.111-0.53zm0 1.058v0.53h4.196a2.66 2.66 0 0 1-0.4-0.53z" fill="#ffffff"/>
 <circle transform="matrix(.13951 0 0 .13951 -154.93 -83.916)" cx="1184.5" cy="675.5" r="16.5" clip-path="url(#b)" fill="#188ed2" stroke="#035d8f" stroke-width=".948"/>
 <path transform="matrix(.15089 0 0 .15078 -452.01 173.84)" d="m3064-1099.7a15.256 15.267 0 0 0-1.2843 0.0926c0.7733 0.334 1.506 0.6879 2.1987 1.0624-2.9356 1.4624-5.2288 3.3034-6.9761 5.3533-1.3791-0.3866-2.7465-0.6099-4.0549-0.6752-0.6297-0.0312-1.2454-0.0281-1.8425 0.0103a15.256 15.267 0 0 0-0.7123 0.9528c1.5364-0.1847 3.2626-0.1114 5.048 0.2502-2.5667 0.8318-4.8644 2.0118-6.8083 3.3689a15.256 15.267 0 0 0-0.387 1.388c2.1106-1.6334 4.7466-3.0808 7.7501-4.0166-1.3274 1.8479-2.2568 3.8263-2.8528 5.8228-0.2799 0.9377-0.4846 1.8803-0.6267 2.8137-0.4518-0.0742-0.9006-0.1333-1.3425-0.1679-1.1565-0.0907-2.2661-0.048-3.2877 0.1062a15.256 15.267 0 0 0 0.0651 0.8877c1.3366-0.204 2.8664-0.2089 4.4521 0.0514-0.4173 3.8137 0.2365 7.4324 1.4897 10.117a15.256 15.267 0 0 0 1.2329 0.8602 0.43856 0.43888 0 0 0-0.0171-0.3941c-1.4242-2.5251-2.256-6.3607-1.8356-10.415 1.182 0.2638 2.3761 0.6752 3.5274 1.2578 0.1228 0.0621 0.2447 0.1294 0.3665 0.1953-1.5351 3.2798-2.1015 6.6839-1.8528 9.4591a15.256 15.267 0 0 0 0.9281 0.5107 0.43856 0.43888 0 0 0 0-0.0103c-0.0559-0.4023-0.0877-0.8298-0.1028-1.2681a0.43856 0.43888 0 0 0 0.0822-0.1096c0.8069-1.9432 2.3454-4.0684 4.4487-5.9154 1.1163 1.1689 2.0929 2.5964 2.846 4.3217-1.5171 1.2705-2.7944 2.7115-3.8254 4.2086a15.256 15.267 0 0 0 0.9383 0.2022c0.8972-1.2558 1.9758-2.4672 3.233-3.554 0.4104 1.1011 0.7352 2.3122 0.9555 3.6431a15.256 15.267 0 0 0 0.863-0.1268c-0.2478-1.5028-0.6267-2.8683-1.113-4.1023 0.2699-0.2122 0.5478-0.4206 0.8322-0.6204 1.5444-1.085 3.2984-1.9809 5.2535-2.5841 0.3233 1.5943 0.5155 3.3227 0.5548 5.1888a15.256 15.267 0 0 0 0.8527-0.6169c-0.0681-1.712-0.2605-3.3159-0.5685-4.8083 0.9211-0.2372 1.8859-0.4068 2.8905-0.5038-0.3352 1.7997-0.8991 3.4299-1.6028 4.7741a15.256 15.267 0 0 0 1.6541-1.5868c0.3656-1.0099 0.6617-2.1037 0.8631-3.2593 0.4415-0.0219 0.8926-0.0215 1.3493-0.0137a15.256 15.267 0 0 0 0.4144-0.8637c-0.5526-0.018-1.0969-0.0154-1.6302 0.0069 0.1868-1.4324 0.2319-2.9426 0.1028-4.4862 0.8628 0.0988 1.7449 0.269 2.6404 0.4969a15.256 15.267 0 0 0 0.0651-0.8842c-0.947-0.2329-1.8804-0.4011-2.7946-0.497-0.086-0.6796-0.205-1.3645-0.363-2.0494-0.4116-1.7843-1.0854-3.5688-2.0617-5.2848 1.5445 0.6255 3.1091 1.4158 4.685 2.3956a15.256 15.267 0 0 0-0.4418-1.2852c-1.0179-0.5872-2.0336-1.1002-3.0411-1.5456 0.7354-0.0671 1.4982-0.1014 2.2843-0.1063a15.256 15.267 0 0 0-0.5103-0.8671c-1.1975 0.027-2.3425 0.1238-3.4281 0.2948-0.1008-0.0374-0.2008-0.0702-0.3014-0.1063-1.5167-2.2611-3.6116-4.3614-6.3974-6.121 0.5015-0.2105 1.0176-0.4104 1.5549-0.5997a0.43856 0.43888 0 0 0 0.0102-0.0069 15.256 15.267 0 0 0-1.5-0.3633c-0.3337 0.1343-0.6638 0.2718-0.9829 0.4147-0.4074-0.2338-0.8328-0.459-1.2671-0.6786a15.256 15.267 0 0 0-0.6199-0.0137zm1.8391 1.6759c2.5408 1.5146 4.4967 3.3024 5.9727 5.2368-3.4051-1.0225-6.697-1.3004-9.7605-1.0316-0.9378 0.0823-1.851 0.2202-2.7431 0.3976 1.6811-1.7627 3.8286-3.3391 6.5309-4.6028zm-1.1439 4.9832c2.271 0.0374 4.6485 0.3972 7.0892 1.155-2.4237 0.5723-4.5412 1.4943-6.3666 2.6629-1.7812-1.5058-3.7338-2.6238-5.7124-3.3861 1.5914-0.302 3.2585-0.4603 4.9898-0.4318zm-6.4693 0.8602c2.2086 0.6884 4.4323 1.8277 6.4317 3.4718-1.5988 1.1331-2.9557 2.4557-4.0789 3.8864-0.8188 1.0431-1.5071 2.1422-2.089 3.2627-0.1201-0.0648-0.2387-0.1341-0.3596-0.1953-1.2487-0.6318-2.5368-1.076-3.8117-1.3572 0.1345-0.9056 0.3284-1.8171 0.5993-2.7246 0.6546-2.1931 1.7229-4.3596 3.3082-6.3438zm14.651 0.9494c1.1076 1.8057 1.8465 3.702 2.2843 5.6 0.1372 0.5947 0.2424 1.1902 0.322 1.7822-1.8813-0.112-3.6782 0.0536-5.37 0.4284-1.1137-2.0582-2.4871-3.7836-4.0172-5.2025 1.9161-1.194 4.1654-2.1082 6.7809-2.6081zm-7.5412 3.1084c1.4756 1.3354 2.8117 2.9585 3.9008 4.9112-0.7034 0.1902-1.3873 0.4165-2.048 0.6752-2.0861 0.8168-3.9511 1.9468-5.5446 3.2387-0.7522-0.7064-1.5575-1.3092-2.3904-1.8233 0.5591-1.0868 1.2264-2.1526 2.0171-3.1599 1.1156-1.4211 2.4631-2.7306 4.0651-3.8419zm9.0515 5.1032c0.3929 0.0012 0.7906 0.0176 1.1918 0.0445 0.1429 1.5963 0.0898 3.1559-0.1164 4.6267-1.1219 0.0962-2.1964 0.2834-3.2226 0.545-0.4247-1.7635-1.0069-3.367-1.7158-4.8187 1.2335-0.2599 2.5218-0.4019 3.863-0.3975zm-4.7295 0.6066c0.7248 1.4465 1.3166 3.0558 1.7432 4.8426-2.0733 0.6285-3.9376 1.5652-5.5686 2.7109-0.2332 0.1639-0.4576 0.3357-0.6815 0.5073-0.773-1.6985-1.7568-3.1294-2.8767-4.3149 1.5099-1.2159 3.2702-2.2851 5.2329-3.0536 0.692-0.271 1.4115-0.4995 2.1507-0.6923zm-10.788 2.0803c0.7329 0.4566 1.4401 0.9862 2.1062 1.6005-1.6182 1.4279-2.9155 3.0155-3.8288 4.5959 0.1963-1.9602 0.7576-4.1034 1.7226-6.1964z" color="#000000" fill="#8bcef3" stroke-linecap="round" style="-inkscape-stroke:none"/>
</svg>
