<svg xmlns="http://www.w3.org/2000/svg" xmlns:xlink="http://www.w3.org/1999/xlink" width="64" height="64" viewBox="0 0 16.933 16.933"><defs><linearGradient id="b"><stop offset="0" stop-color="#fff" stop-opacity="0"/><stop offset=".493" stop-color="#fff"/><stop offset="1" stop-color="#fff" stop-opacity="0"/></linearGradient><linearGradient id="a"><stop offset="0" stop-opacity="0"/><stop offset=".493"/><stop offset="1" stop-opacity="0"/></linearGradient><linearGradient id="d" x1="640" x2="640" y1="633" y2="688.52" gradientTransform="matrix(2 0 0 2 -711 -2873.6)" gradientUnits="userSpaceOnUse"><stop offset="0" stop-color="#18a303"/><stop offset="1" stop-color="#106802"/></linearGradient><linearGradient id="c"><stop offset="0" stop-color="green"/><stop offset="1" stop-color="#0f0" stop-opacity="0"/></linearGradient><linearGradient id="n" x1="152" x2="113.88" y1="-1192.6" y2="-1230.8" gradientTransform="translate(-637.22 -625.98) scale(.73171)" gradientUnits="userSpaceOnUse"><stop offset="0" stop-color="#125a00"/><stop offset="1" stop-color="#69ce00" stop-opacity="0"/></linearGradient><linearGradient xlink:href="#a" id="o" x1="-17" x2="144" y1="-1194.6" y2="-1194.6" gradientTransform="matrix(.73913 0 0 1 538.56 -303)" gradientUnits="userSpaceOnUse"/><linearGradient xlink:href="#a" id="q" x1="-17" x2="144" y1="-1194.6" y2="-1194.6" gradientTransform="matrix(.48447 0 0 1 583.24 -297)" gradientUnits="userSpaceOnUse"/><linearGradient id="r" x1="652.25" x2="652.25" y1="-1491.6" y2="-1548.1" gradientUnits="userSpaceOnUse"><stop offset="0" stop-color="gray"/><stop offset="1" stop-color="#b3b3b3"/></linearGradient><linearGradient id="s" x1="714" x2="714" y1="-1063.6" y2="-1083.6" gradientTransform="matrix(1.8974 0 0 2.6 -777.77 1271.8)" gradientUnits="userSpaceOnUse"><stop offset="0" stop-color="#f2f2f2"/><stop offset="1" stop-color="#fff"/></linearGradient><linearGradient id="v" x1="152" x2="113.88" y1="-1192.6" y2="-1230.8" gradientTransform="translate(557.32 -767.42) scale(.60976)" gradientUnits="userSpaceOnUse"><stop offset="0"/><stop offset=".455" stop-opacity=".361"/><stop offset="1" stop-opacity="0"/></linearGradient><linearGradient id="y" x1="525.64" x2="525.64" y1="-1078.6" y2="-1068.8" gradientTransform="matrix(1.7143 0 0 3.3333 -316.43 5092.4)" gradientUnits="userSpaceOnUse"><stop offset="0" stop-color="#63bbee"/><stop offset="1" stop-color="#aadcf7"/></linearGradient><linearGradient id="z" x1="525.64" x2="525.64" y1="-1078.6" y2="-1068.8" gradientTransform="matrix(1.7143 0 0 4.4444 -298.43 6290.4)" gradientUnits="userSpaceOnUse"><stop offset="0" stop-color="#f09e6f"/><stop offset="1" stop-color="#f9cfb5"/></linearGradient><linearGradient id="A" x1="525.64" x2="525.64" y1="-1078.6" y2="-1068.8" gradientTransform="matrix(1.7143 0 0 2 -280.43 3654.9)" gradientUnits="userSpaceOnUse"><stop offset="0" stop-color="#f5ce53"/><stop offset="1" stop-color="#fde9a9"/></linearGradient><linearGradient id="B" x1="525.64" x2="525.64" y1="-1078.6" y2="-1068.8" gradientTransform="matrix(1.7143 0 0 2.8889 -262.43 4613.3)" gradientUnits="userSpaceOnUse"><stop offset="0" stop-color="#8ee780"/><stop offset="1" stop-color="#ccf4c6"/></linearGradient><linearGradient id="C" x1="529.25" x2="535" y1="-1568.6" y2="-1574.6" gradientTransform="matrix(.83333 0 0 2.3333 141.17 2160.5)" gradientUnits="userSpaceOnUse"><stop offset="0" stop-color="#4a00ff"/><stop offset="1" stop-color="#00a0c1" stop-opacity="0"/></linearGradient><linearGradient id="D" x1="529.25" x2="535" y1="-1568.6" y2="-1574.6" gradientTransform="matrix(.83333 0 0 3.1667 159.17 3467.7)" gradientUnits="userSpaceOnUse"><stop offset="0" stop-color="maroon"/><stop offset="1" stop-color="#ffc600" stop-opacity="0"/></linearGradient><linearGradient xlink:href="#a" id="F" x1="-17" x2="144" y1="-1194.6" y2="-1194.6" gradientTransform="matrix(.45963 0 0 1 584.81 -303)" gradientUnits="userSpaceOnUse"/><linearGradient xlink:href="#b" id="G" x1="-17" x2="144" y1="-1194.6" y2="-1194.6" gradientTransform="matrix(.45963 0 0 1 584.81 -300)" gradientUnits="userSpaceOnUse"/><linearGradient id="H" x1="529.25" x2="535" y1="-1568.6" y2="-1574.6" gradientTransform="matrix(.83333 0 0 2 195.17 1637.6)" gradientUnits="userSpaceOnUse"><stop offset="0" stop-color="#003362"/><stop offset="1" stop-color="#00ff8c" stop-opacity="0"/></linearGradient><linearGradient id="I" x1="529.25" x2="535" y1="-1568.6" y2="-1574.6" gradientTransform="matrix(.83333 0 0 1.3333 177.17 591.88)" gradientUnits="userSpaceOnUse"><stop offset="0" stop-color="red"/><stop offset="1" stop-color="#d3d300" stop-opacity="0"/></linearGradient><linearGradient xlink:href="#a" id="f" x1="-17" x2="144" y1="-1194.6" y2="-1194.6" gradientTransform="matrix(.16149 0 0 1 530.74 -391)" gradientUnits="userSpaceOnUse"/><linearGradient xlink:href="#c" id="i" x1="529.25" x2="535.44" y1="-1568.6" y2="-1574.8" gradientTransform="translate(0 -18)" gradientUnits="userSpaceOnUse"/><linearGradient xlink:href="#c" id="j" x1="529.25" x2="535.44" y1="-1568.6" y2="-1574.8" gradientTransform="translate(0 -1)" gradientUnits="userSpaceOnUse"/><linearGradient xlink:href="#a" id="w" x1="-17" x2="144" y1="-1194.6" y2="-1194.6" gradientTransform="matrix(.37888 0 0 1 589.44 -344)" gradientUnits="userSpaceOnUse"/><linearGradient xlink:href="#b" id="E" x1="-17" x2="144" y1="-1194.6" y2="-1194.6" gradientTransform="matrix(.07453 0 0 1 582.27 -334)" gradientUnits="userSpaceOnUse"/><linearGradient xlink:href="#a" id="J" x1="-17" x2="144" y1="-1194.6" y2="-1194.6" gradientTransform="matrix(.45963 0 0 1 -643.19 2740.3)" gradientUnits="userSpaceOnUse"/><radialGradient id="p" cx="-1535.3" cy="-853" r="10" gradientTransform="matrix(-3.3157 0 0 -4.65 -3490.7 -4551)" gradientUnits="userSpaceOnUse"><stop offset="0" stop-color="#fff"/><stop offset="1" stop-color="#f5ffaa" stop-opacity="0"/></radialGradient><radialGradient id="x" cx="152.33" cy="-754.64" r="15" gradientTransform="matrix(0 .37784 -.665 -.0001 85.141 -1556.3)" gradientUnits="userSpaceOnUse"><stop offset="0" stop-opacity=".502"/><stop offset="1" stop-opacity="0"/></radialGradient></defs><path fill="#f9f9f9" fill-rule="evenodd" d="M3.44 1.323H2.38V15.61h12.171V4.498l-2.91-3.175z" style="paint-order:stroke fill markers"/><path fill="#278d14" d="M3.44 1.058H2.116v14.816H14.816V4.234l-3.174-3.176zm0 .53h7.982l2.865 2.864v10.893H2.646V1.587h.793z" color="#000" style="font-feature-settings:normal;font-variant-alternates:normal;font-variant-caps:normal;font-variant-ligatures:normal;font-variant-numeric:normal;font-variant-position:normal;isolation:auto;mix-blend-mode:normal;paint-order:fill markers stroke;shape-padding:0;text-decoration-color:#000;text-decoration-line:none;text-decoration-style:solid;text-indent:0;text-orientation:mixed;text-transform:none;white-space:normal"/><path fill="#278d14" fill-rule="evenodd" d="m12.171 1.058 2.646 2.646V1.058z" style="paint-order:stroke fill markers"/><g transform="translate(-27.71 103.46) scale(.06142)"><path fill="url(#d)" d="M525-1602.6v105h119v-105z" color="#000"/><use xlink:href="#e" width="5033" height="1085" transform="translate(29 51)"/><use xlink:href="#e" width="5033" height="1085" transform="translate(0 34)"/><path id="g" fill="url(#f)" d="M528-1585.6h26v1h-26z" color="#000" opacity=".5"/><use xlink:href="#g" width="5033" height="1085" transform="matrix(0 .61538 -1 0 -999.64 -1925.6)"/><path id="h" fill="#92e285" d="M528-1599.6h26v14h-26z" color="#000"/><use xlink:href="#h" width="5033" height="1085" transform="translate(29)"/><use xlink:href="#h" width="5033" height="1085" transform="translate(58)"/><use xlink:href="#h" width="5033" height="1085" transform="translate(87)"/><path id="k" fill="url(#i)" d="M529-1598.6h12v12h-12z" color="#000" opacity=".5"/><use xlink:href="#g" width="5033" height="1085" transform="matrix(0 .61538 -1 0 -1057.6 -1925.6)"/><g id="e"><use xlink:href="#g" width="5033" height="1085" transform="translate(0 17)"/><path fill="#e0f4dd" d="M528-1582.6h26v14h-26z" color="#000"/><path fill="url(#j)" d="M529-1581.6h12v12h-12z" color="#000" opacity=".25"/><use xlink:href="#g" width="5033" height="1085" transform="matrix(0 .61538 -1 0 -1057.6 -1908.6)"/></g><use xlink:href="#g" width="5033" height="1085" transform="matrix(0 .61538 -1 0 -1028.6 -1925.6)"/><use xlink:href="#k" id="l" width="5033" height="1085" transform="translate(29)"/><use xlink:href="#l" id="m" width="5033" height="1085" transform="translate(29)"/><use xlink:href="#g" width="5033" height="1085" transform="matrix(0 .61538 -1 0 -970.64 -1925.6)"/><use xlink:href="#m" width="5033" height="1085" transform="translate(29)"/><use xlink:href="#e" width="5033" height="1085" transform="translate(29 34)"/><use xlink:href="#e" width="5033" height="1085" transform="translate(29)"/><use xlink:href="#e" width="5033" height="1085" transform="translate(58)"/><use xlink:href="#e" width="5033" height="1085" transform="translate(87)"/><use xlink:href="#e" width="5033" height="1085" transform="translate(0 17)"/><use xlink:href="#e" width="5033" height="1085" transform="translate(29 17)"/><use xlink:href="#e" width="5033" height="1085" transform="translate(58 17)"/><use xlink:href="#e" width="5033" height="1085" transform="translate(87 17)"/><use xlink:href="#e" width="5033" height="1085" transform="translate(0 51)"/><use xlink:href="#e" width="5033" height="1085" transform="translate(0 68)"/><use xlink:href="#e" width="5033" height="1085" transform="translate(29 68)"/><path fill="url(#n)" d="M-586-1558.6h60v60h-60z" color="#000" opacity=".5" transform="scale(-1 1)"/><use xlink:href="#e" width="5033" height="1085" transform="translate(87 34)"/><use xlink:href="#e" width="5033" height="1085" transform="translate(58 34)"/><path fill="url(#o)" d="M526-1497.6h119v1H526z" color="#000" opacity=".5"/><rect width="32" height="93" x="1567.6" y="-631" fill="url(#p)" color="#000" opacity=".6" rx="4" ry="4" transform="matrix(0 -1 -1 0 0 0)"/><path fill="url(#q)" d="M575-1491.6h78v1h-78z" color="#000" opacity=".25"/><path fill="url(#r)" d="M575-1547.6h78v56h-78z" color="#000"/><path fill="url(#s)" d="M577-1545.6h74v52h-74z" color="#000"/><use xlink:href="#t" width="5033" height="1085" transform="translate(18)"/><use xlink:href="#t" width="5033" height="1085" transform="translate(36)"/><use xlink:href="#t" width="5033" height="1085" transform="translate(54)"/><use xlink:href="#u" width="5033" height="1085" transform="translate(0 30)"/><use xlink:href="#u" width="5033" height="1085" transform="translate(0 10)"/><path fill="url(#v)" d="M600-1544.6h50v50h-50z" color="#000" opacity=".15"/><use xlink:href="#u" width="5033" height="1085" transform="translate(0 20)"/><path fill="#0369a3" d="M580-1529.6h14v32h-14z" color="#000"/><path id="u" fill="url(#w)" d="M583-1538.6h61v1h-61z" color="#000" opacity=".25"/><path fill="#a33e03" d="M598-1539.6h14v42h-14z" color="#000"/><path fill="#c99c00" d="M616-1517.6h14v20h-14z" color="#000"/><path fill="#43c330" d="M634-1525.6h14v28h-14z" color="#000"/><path id="t" fill="url(#x)" d="M577.57-1503.6h18.857c.317 0 .571 1.508.571 3.382v3.236c0 1.874-.254 3.382-.571 3.382H577.57c-.317 0-.571-1.508-.571-3.382v-3.236c0-1.874.254-3.382.571-3.382z" color="#000" opacity=".5"/><path fill="url(#y)" d="M581 1498.6h12v30h-12z" color="#000" transform="scale(1 -1)"/><path fill="url(#z)" d="M599 1498.6h12v40h-12z" color="#000" transform="scale(1 -1)"/><path fill="url(#A)" d="M617 1498.6h12v18h-12z" color="#000" transform="scale(1 -1)"/><path fill="url(#B)" d="M635 1498.6h12v26h-12z" color="#000" transform="scale(1 -1)"/><path fill="url(#C)" d="M582-1527.6h10v28h-10z" color="#000" opacity=".35"/><path fill="url(#D)" d="M600-1537.6h10v38h-10z" color="#000" opacity=".35"/><path id="L" fill="url(#E)" d="M581-1528.6h12v1h-12z" color="#000" opacity=".75"/><path fill="url(#F)" d="M577-1497.6h74v1h-74z" color="#000" opacity=".5"/><path fill="url(#G)" d="M577-1494.6h74v1h-74z" color="#000" opacity=".75"/><path fill="url(#H)" d="M636-1523.6h10v24h-10z" color="#000" opacity=".35"/><path fill="url(#I)" d="M618-1515.6h10v16h-10z" color="#000" opacity=".35"/><path id="K" fill="url(#J)" d="M-651 1545.6h74v1h-74z" color="#000" opacity=".25" transform="scale(-1)"/><use xlink:href="#K" width="5033" height="1085" transform="translate(0 53)"/><use xlink:href="#L" width="5033" height="1085" transform="translate(18 -10)"/><use xlink:href="#L" width="5033" height="1085" transform="translate(36 12)"/><use xlink:href="#L" width="5033" height="1085" transform="translate(54 4)"/></g></svg>