<svg xmlns="http://www.w3.org/2000/svg" xmlns:xlink="http://www.w3.org/1999/xlink" width="64" height="64" viewBox="0 0 16.933 16.933"><defs><linearGradient id="a"><stop offset="0" stop-color="#63bbee"/><stop offset="1" stop-color="#aadcf7"/></linearGradient><linearGradient id="c" x1="298" x2="298" y1="-1571.2" y2="-1497.6" gradientTransform="matrix(.06614 0 0 .06614 -1.883 98.011)" gradientUnits="userSpaceOnUse"><stop offset="0" stop-color="#219bd6"/><stop offset="1" stop-color="#065d8d"/></linearGradient><linearGradient xlink:href="#a" id="f" x1="3065.4" x2="3051.4" y1="-1071.3" y2="-1083" gradientUnits="userSpaceOnUse"/><linearGradient xlink:href="#a" id="h" x1="3054.2" x2="3059.7" y1="-1072.6" y2="-1099.4" gradientUnits="userSpaceOnUse"/><linearGradient xlink:href="#a" id="j" x1="3075.3" x2="3049.7" y1="-1093" y2="-1085.7" gradientTransform="matrix(1.1429 .0903 -.12391 .99656 -574.64 -278.42)" gradientUnits="userSpaceOnUse"/><linearGradient xlink:href="#a" id="l" x1="3075.1" x2="3066.4" y1="-1075" y2="-1098.3" gradientUnits="userSpaceOnUse"/><linearGradient xlink:href="#a" id="n" x1="3067.8" x2="3057.2" y1="-1071.5" y2="-1096.2" gradientUnits="userSpaceOnUse"/><linearGradient xlink:href="#a" id="p" x1="3069.7" x2="3059.9" y1="-1071.4" y2="-1092.9" gradientUnits="userSpaceOnUse"/><linearGradient xlink:href="#a" id="r" x1="3070.9" x2="3058.1" y1="-1072.2" y2="-1096" gradientTransform="rotate(14.05 3063.1 -1065.4)" gradientUnits="userSpaceOnUse"/><linearGradient xlink:href="#a" id="t" x1="3070.9" x2="3058.1" y1="-1072.2" y2="-1096" gradientTransform="rotate(-16.426 3055.5 -1076.5)" gradientUnits="userSpaceOnUse"/><linearGradient id="w" x1="292.56" x2="453.42" y1="571.22" y2="571.22" gradientTransform="matrix(.05259 0 0 .13229 -1.054 -83.201)" gradientUnits="userSpaceOnUse"><stop offset="0" stop-opacity="0"/><stop offset=".493"/><stop offset="1" stop-opacity="0"/></linearGradient><linearGradient id="x" x1="1184.7" x2="1184.7" y1="685.55" y2="662.02" gradientUnits="userSpaceOnUse"><stop offset="0" stop-color="#aadcf7"/><stop offset="1" stop-color="#aadcf7" stop-opacity="0"/></linearGradient><clipPath id="b"><circle cx="1184.5" cy="675.5" r="16.5" fill="#1c99e0" color="#000" opacity=".228" transform="translate(-40.845 -23.293) scale(1.0345)"/></clipPath><clipPath id="e"><circle cx="1184.5" cy="675.5" r="16.5" fill="#1c99e0" color="#000" opacity=".228" transform="translate(1987.2 -1698.7) scale(.90909)"/></clipPath><clipPath id="g"><circle cx="1184.5" cy="675.5" r="16.5" fill="#1c99e0" color="#000" opacity=".228" transform="translate(1987.2 -1698.7) scale(.90909)"/></clipPath><clipPath id="i"><circle cx="1184.5" cy="675.5" r="16.5" fill="#1c99e0" color="#000" opacity=".228" transform="translate(1987.2 -1698.7) scale(.90909)"/></clipPath><clipPath id="k"><circle cx="1184.5" cy="675.5" r="16.5" fill="#1c99e0" color="#000" opacity=".228" transform="translate(1987.2 -1698.7) scale(.90909)"/></clipPath><clipPath id="m"><circle cx="1184.5" cy="675.5" r="16.5" fill="#1c99e0" color="#000" opacity=".228" transform="translate(1987.2 -1698.7) scale(.90909)"/></clipPath><clipPath id="o"><circle cx="1184.5" cy="675.5" r="16.5" fill="#1c99e0" color="#000" opacity=".228" transform="translate(1987.2 -1698.7) scale(.90909)"/></clipPath><clipPath id="q"><circle cx="1184.5" cy="675.5" r="16.5" fill="#1c99e0" color="#000" opacity=".228" transform="translate(1987.2 -1698.7) scale(.90909)"/></clipPath><clipPath id="s"><circle cx="1184.5" cy="675.5" r="16.5" fill="#1c99e0" color="#000" opacity=".228" transform="translate(1987.2 -1698.7) scale(.90909)"/></clipPath><clipPath id="u"><circle cx="1184.5" cy="675.5" r="16.5" fill="#1c99e0" color="#000" opacity=".228" transform="translate(2815.7 454.15) scale(.30799)"/></clipPath><radialGradient id="d" cx="1181" cy="672.73" r="16.5" gradientTransform="matrix(.97864 .69764 -.77137 1.082 542.96 -883.64)" gradientUnits="userSpaceOnUse"><stop offset="0" stop-color="#1c99e0"/><stop offset="1" stop-color="#035482"/></radialGradient><radialGradient id="v" cx="3180.9" cy="660.77" r="1.5" gradientTransform="matrix(0 .96258 -1.0242 0 3857.7 -2401.2)" gradientUnits="userSpaceOnUse"><stop offset="0" stop-color="#fff"/><stop offset="1" stop-color="#00a0fc" stop-opacity="0"/></radialGradient></defs><path fill="#f9f9f9" fill-rule="evenodd" d="M3.44 1.323H2.38V15.61h12.171V4.498l-2.91-3.175z" style="paint-order:stroke fill markers"/><path fill="#535353" d="M3.44 1.058H2.116v14.816H14.816V4.234l-3.174-3.176zm0 .53h7.982l2.865 2.864v10.893H2.646V1.587h.793z" color="#000" style="font-feature-settings:normal;font-variant-alternates:normal;font-variant-caps:normal;font-variant-ligatures:normal;font-variant-numeric:normal;font-variant-position:normal;isolation:auto;mix-blend-mode:normal;paint-order:fill markers stroke;shape-padding:0;text-decoration-color:#000;text-decoration-line:none;text-decoration-style:solid;text-indent:0;text-orientation:mixed;text-transform:none;white-space:normal"/><path fill="#535353" fill-rule="evenodd" d="m12.171 1.058 2.646 2.646V1.058z" style="paint-order:stroke fill markers"/><g transform="translate(-10.089 13.22)"><circle cx="1184.5" cy="675.5" r="16.5" fill="#0369a3" clip-path="url(#b)" opacity=".15" transform="matrix(.12798 0 0 .03207 -131.18 -22.73)"/><circle cx="1184.5" cy="675.5" r="16.5" fill="#0369a3" clip-path="url(#b)" opacity=".25" transform="matrix(.10649 0 0 .02946 -105.73 -20.927)"/><path fill="url(#c)" d="M14.323-7.928v.529h8.466v-.53zm0 1.058v.53h8.466v-.53zm0 1.058v.53h4.936a2.628 2.628 0 0 1 2.299 0h1.232v-.53zm0 1.059v.529h3.795a2.66 2.66 0 0 1 .401-.53zm7.974 0c.155.157.29.336.402.529h.09v-.53zm-7.974 1.058v.529h3.452c.018-.183.058-.36.112-.53zm0 1.058v.53h3.563a2.636 2.636 0 0 1-.111-.53zm0 1.058v.53h4.196a2.66 2.66 0 0 1-.4-.53z"/><circle cx="1184.5" cy="675.5" r="16.5" fill="#0369a3" clip-path="url(#b)" opacity=".75" transform="matrix(.08495 0 0 .0205 -80.211 -14.722)"/><circle cx="1184.5" cy="675.5" r="16.5" fill="url(#d)" stroke="#035d8f" stroke-width=".948" clip-path="url(#b)" transform="translate(-144.84 -97.136) scale(.13951)"/><g fill="none" stroke-linecap="round"><path stroke="url(#f)" stroke-width=".877" d="M3066.2-1069.3c-2.05-12.755-13.592-15.132-19.22-13.189" clip-path="url(#e)" transform="matrix(.15089 0 0 .15078 -441.917 160.62)"/><g stroke-width=".867"><path stroke="url(#h)" d="M3068.2-1099.5c-15.829 5.575-16.196 20.815-12.408 27.526" clip-path="url(#g)" transform="matrix(.15265 0 0 .15265 -447.315 162.675)"/><path stroke="url(#j)" d="M3078.5-1088.4c-15.558-9.69-30.26-1.165-34.174 5.811" clip-path="url(#i)" transform="matrix(.15265 0 0 .15265 -447.275 162.548)"/><path stroke="url(#l)" d="M3062.8-1100.1c15.444 6.567 14.844 21.799 10.639 28.257" clip-path="url(#k)" transform="matrix(.15265 0 0 .15265 -447.315 162.675)"/><path stroke="url(#n)" d="M3072.4-1068.2c1.647-20.24-13.394-26.745-21.817-25.116" clip-path="url(#m)" transform="matrix(.15265 0 0 .15265 -447.315 162.675)"/><path stroke="url(#p)" d="M3085-1076.9c-15.878-5.435-25.61 6.297-26.798 13.911" clip-path="url(#o)" transform="matrix(.15265 0 0 .15265 -447.315 162.675)"/><path stroke="url(#r)" d="M3086.2-1079.9c-14.139-9.04-26.373.053-29.33 7.17" clip-path="url(#q)" transform="matrix(.15265 0 0 .15265 -447.315 162.675)"/><path stroke="url(#t)" d="M3078.5-1092.2c-16.771-.62-22.702 13.422-21.641 21.055" clip-path="url(#s)" transform="matrix(.15265 0 0 .15265 -447.315 162.675)"/></g></g><circle cx="3181" cy="660.75" r="1.5" fill="url(#v)" clip-path="url(#u)" opacity=".75" transform="translate(-1517.8 -323.52) scale(.48327)"/><path fill="url(#w)" d="M14.323-7.928v.132h8.466v-.132zm0 1.058v.132h8.466v-.132zm0 1.058v.132h8.466v-.132zm0 1.059v.132h4.076c.039-.045.079-.09.12-.132zm7.974 0c.042.042.082.087.12.132h.372v-.132zm-7.974 1.058v.132h3.526c.012-.044.024-.089.038-.132zm0 1.058v.132h3.452c.013.136.04.268.074.397h.038a2.635 2.635 0 0 1-.112-.529zm0 1.058v.133h3.795c.082.14.176.273.281.397h.12a2.659 2.659 0 0 1-.401-.53z" opacity=".35"/><path fill="#fff" d="M14.323-7.4v.133h8.466V-7.4zm0 1.059v.132h8.466v-.132zm6.085.794c-.412 0-.8.096-1.149.264h-4.936v.132h4.936a2.628 2.628 0 0 1 2.299 0h1.232v-.132h-1.232a2.628 2.628 0 0 0-1.15-.264zm1.968.926c.155.158.24.336.24.529h.174v-.133h-.091a2.68 2.68 0 0 0-.282-.396zm-4.072.124c-.066.087-.13.177-.186.272h-3.795v.133h3.878c0-.145.056-.28.103-.405zm-.525 1.302-.004.029h-3.452v.132h3.452a1.3 1.3 0 0 0 .004-.161zm-3.456 1.087v.132h3.563l-.037-.132zm0 1.058v.133h4.196a.419.419 0 0 1-.103-.133z" opacity=".75"/><path fill="url(#x)" d="M1184.5 658.53c-9.369 0-16.969 7.6-16.969 16.969s7.6 16.969 16.969 16.969 16.969-7.6 16.969-16.969-7.6-16.969-16.969-16.969zm0 .938c8.857 0 16.031 7.174 16.031 16.03s-7.175 16.031-16.031 16.031-16.031-7.174-16.031-16.03 7.175-16.032 16.031-16.032z" clip-path="url(#b)" opacity=".75" style="text-decoration-line:none;text-indent:0;text-transform:none" transform="translate(-136.58 -92.427) scale(.13253)"/><g fill="url(#v)"><circle cx="3181" cy="660.75" r="1.5" clip-path="url(#u)" transform="translate(-1101.5 -238.11) scale(.35277)"/><circle cx="3181" cy="660.75" r="1.5" clip-path="url(#u)" transform="translate(-1100.4 -237.16) scale(.35277)"/><circle cx="3181" cy="660.75" r="1.5" clip-path="url(#u)" transform="translate(-1101.5 -236.66) scale(.35277)"/><circle cx="3181" cy="660.75" r="1.5" clip-path="url(#u)" transform="translate(-1100 -235.84) scale(.35277)"/><circle cx="3181" cy="660.75" r="1.5" clip-path="url(#u)" transform="translate(-1103.3 -235.73) scale(.35277)"/><circle cx="3181" cy="660.75" r="1.5" clip-path="url(#u)" transform="translate(-1102.2 -235.13) scale(.35277)"/><circle cx="3181" cy="660.75" r="1.5" clip-path="url(#u)" transform="translate(-1100.5 -234.92) scale(.35277)"/></g></g></svg>