<svg xmlns="http://www.w3.org/2000/svg" width="64" height="64"><rect width="64" height="64" y="-.012" fill="none" opacity=".75" rx="0" ry="0"/><path fill="#667380" d="M9 1.002H55v59H9.003v-59z" color="#000" overflow="visible"/><path fill="none" stroke="#4f5a63" stroke-linecap="round" stroke-linejoin="round" stroke-width="1.002" d="m8.5.499 47 .004V60.5H8.502V.499z" color="#000" overflow="visible"/><path fill="#fbfbfb" d="M23 19.501v6h-4v13.5c0 1.385 1.115 2.5 2.5 2.5h21c1.385 0 2.5-1.115 2.5-2.5v-19.5zm1 1h20v18.5c0 .831-.669 1.5-1.5 1.5H24v-15zm1 1v4h18v-4zm1 1h16v2H26zm-6 4h3v14h-1.5c-.831 0-1.5-.669-1.5-1.5v-10.5zm5 1v9h10v-9zm11 0v1h7v-1zm-10 1h8v7h-8zm10 3v1h7v-1zm0 4v1h7v-1zm-11 3v1h18v-1z"/></svg>