<svg xmlns="http://www.w3.org/2000/svg" width="64" height="64"><rect width="64" height="64" y="-.012" fill="none" opacity=".75" rx="0" ry="0"/><path fill="#f6265b" d="M9 1.002H55v59H9.003v-59z" color="#000" overflow="visible"/><path fill="none" stroke="#b81c44" stroke-linecap="round" stroke-linejoin="round" stroke-width="1.002" d="m8.5.499 47 .004V60.5H8.502V.499z" color="#000" overflow="visible"/><path fill="#fffcf9" d="M18 19.503v22h5.5l.5-1h-5v-.586l9.707-9.707.293.293.471-.943-9.06-9.06h13.586l.5-1zm22.5 0-.5 1h3.586l-7.17 7.17-1.414 2.828.291-.291L45 39.917v.586H30l-.5 1H46v-22zm-21.5 1 9 9-9 9zm26 0v18l-9-9z" color="#000"/></svg>