<svg xmlns="http://www.w3.org/2000/svg" xmlns:xlink="http://www.w3.org/1999/xlink" height="48" width="48"><defs><linearGradient id="h"><stop offset="0"/><stop offset=".438" stop-opacity=".275"/><stop offset="1" stop-opacity="0"/></linearGradient><linearGradient id="f"><stop offset="0" stop-color="#c84f4e"/><stop offset=".5" stop-color="#933b3b"/><stop offset="1" stop-color="#c84f4e"/></linearGradient><linearGradient id="g"><stop offset="0" stop-color="#c84f4e"/><stop offset=".5" stop-color="#ff8886"/><stop offset="1" stop-color="#c84f4e"/></linearGradient><linearGradient id="e"><stop offset="0" stop-color="#ffc5c4"/><stop offset=".339" stop-color="#e97574"/><stop offset="1" stop-color="#c84f4e"/></linearGradient><linearGradient id="d"><stop offset="0" stop-color="#ad2f2e"/><stop offset="1" stop-color="#c14240"/></linearGradient><linearGradient id="b"><stop offset="0" stop-color="#df7575"/><stop offset="1" stop-color="#e4a0a0"/></linearGradient><linearGradient id="a"><stop offset="0" stop-color="#fbd6d6"/><stop offset="1" stop-color="#f2c6c7"/></linearGradient><linearGradient id="c"><stop offset="0" stop-color="#f8d2d9"/><stop offset="1" stop-color="#f3b1b3"/></linearGradient><radialGradient gradientUnits="userSpaceOnUse" gradientTransform="matrix(1.2 0 0 .6 -7 6.569)" r="20" fy="6" fx="27.552" cy="6" cx="27.552" id="j" xlink:href="#a"/><linearGradient y2="20" x2="16" y1="42.586" x1="5.393" gradientTransform="matrix(-1 0 0 1 48 .669)" gradientUnits="userSpaceOnUse" id="l" xlink:href="#b"/><linearGradient gradientTransform="translate(0 -.331)" gradientUnits="userSpaceOnUse" y2="45.75" x2="10.499" y1="20.25" x1="16.5" id="k" xlink:href="#c"/><linearGradient gradientTransform="translate(0 -.331)" y2="4" x2="9" y1="37" x1="40" gradientUnits="userSpaceOnUse" id="n" xlink:href="#d"/><radialGradient r="19.438" fy="13.919" fx="23.277" cy="13.919" cx="23.277" gradientTransform="matrix(1 0 0 1.15756 0 1.104)" gradientUnits="userSpaceOnUse" id="o" xlink:href="#e"/><linearGradient y2="20" x2="16" y1="42.586" x1="5.393" gradientTransform="matrix(-1 0 0 1 48 -.331)" gradientUnits="userSpaceOnUse" id="m" xlink:href="#b"/><linearGradient y2="11" x2="24" y1="11" x1="8" gradientTransform="translate(.5)" gradientUnits="userSpaceOnUse" id="p" xlink:href="#f"/><linearGradient y2="9" x2="23" y1="9" x1="8" gradientTransform="translate(.5)" gradientUnits="userSpaceOnUse" id="q" xlink:href="#g"/><linearGradient y2="9" x2="23" y1="9" x1="8" gradientTransform="matrix(-.89782 0 0 .89782 46.048 1.142)" gradientUnits="userSpaceOnUse" id="r" xlink:href="#g"/><linearGradient y2="11" x2="24" y1="11" x1="8" gradientTransform="matrix(-.89782 0 0 .89782 46.048 1.59)" gradientUnits="userSpaceOnUse" id="s" xlink:href="#f"/><radialGradient gradientUnits="userSpaceOnUse" gradientTransform="matrix(1 0 0 .41667 0 22.167)" r="24" fy="38" fx="24" cy="38" cx="24" id="i" xlink:href="#h"/></defs><path transform="matrix(-1.16667 0 0 1.2 52 -9.6)" d="M48 38a24 10 0 1 1-48 0 24 10 0 1 1 48 0z" opacity=".3" fill="url(#i)"/><path d="M24.5 26.669l-21-8v-4l21-8.5 20 8.5v4z" fill="url(#j)"/><path d="M3.5 14.669v5.956l1 .625v15.419l20 8.5v-22.5z" fill="url(#k)"/><path d="M44.5 14.669v4.047l-1 1.293v16.66l-19 8.5v-22.5z" fill="url(#l)"/><path d="M24.5 6.656L4 15l1.238.453L24.5 7.656l18.138 7.709 1.243-.472z" opacity=".3" fill="#fff"/><path d="M43.011 15.418l1-.446v21.313l-1 .445z" opacity=".1" fill="#fff"/><path d="M3.5 14.656v5.688l21 8v-5.688l-21-8z" fill="#f8d2d9"/><path d="M44.5 13.656l-20 8v5.688l20-8v-5.688z" fill="url(#m)" transform="translate(0 1)"/><path d="M24.5 5.637l-.188.063-21 8.5-.312.125v6.344L4 22v15.013l.313.125 20 8.5.187.062.188-.063 19-8.5.312-.124V20.999l1-1.33v-5.344l-.313-.125-20-8.5zm0 1.063L44 15.106v4.562L43 21v15.325l-18.438 8.094L5 36.325V22l-1-1.331.094-5.64z" style="text-indent:0;text-align:start;line-height:normal;text-transform:none;block-progression:tb;marker:none;-inkscape-font-specification:Sans" font-weight="400" opacity=".91" color="#000" fill="url(#n)" overflow="visible" font-family="Sans"/><path d="M24.09 23L3.965 14.999l20.514 7.222 19.376-7.211-18.761 8.127-.063 21.07-.503.275-.488-.242z" fill="url(#o)"/><path style="text-indent:0;text-align:start;line-height:normal;text-transform:none;block-progression:tb;marker:none;-inkscape-font-specification:Sans" d="M30.875 9.544l-19.8 7.956L15 19l19.8-7.956z" font-weight="400" color="#000" fill="#c84f4e" overflow="visible" font-family="Sans"/><path d="M16.619 9.44L37 18l-3.925 1.5-20.381-8.56z" style="text-indent:0;text-align:start;line-height:normal;text-transform:none;block-progression:tb;marker:none;-inkscape-font-specification:Sans" font-weight="400" color="#000" fill="#df5c5b" overflow="visible" font-family="Sans"/><path d="M43.011 35.284v1l-18 7.895v-1z" opacity=".1" fill="#fff"/><path d="M35.974 39.46l-3.848 1.75-.088-15.147.993-1.237L33 19.57l3.98-1.532-.001 5.772-1 .973z" opacity=".8" fill="#b62b2b"/><path d="M24 23.084l-1-.446v21.313l1 .445zM5 15.41l-1-.445v21.312l1 .446zm0 20.246v1l18 7.188v-1L5 35.656z" opacity=".1" fill="#fff"/><path d="M12.006 39.388l3.848 1.398.088-15.148-.993-1.236.031-5.258L11 17.613l.002 5.772 1 .972z" opacity=".8" fill="#b62b2b"/><path d="M7.5 8v4s1.5 3 9 3 8-3 8-3v-2s-.5 1-8 1-9-3-9-3z" fill="url(#p)" transform="translate(0 .442)"/><path d="M7.5 12V8s.5-5 8-5 9 7 9 7v2s-1-4-8.5-4-8.5 4-8.5 4z" fill="url(#q)" transform="translate(0 .442)"/><path d="M39.5 11.916V8.324s-.186-4.489-6.92-4.489c-6.733 0-8.08 6.285-8.08 6.285v1.796s.898-4.226 7.631-4.226c6.734 0 7.369 4.226 7.369 4.226z" fill="url(#r)" transform="translate(0 .442)"/><path d="M39.5 8.773v2.694s-1.084 3.591-7.817 3.591c-6.734 0-7.183-2.693-7.183-2.693v-1.796s.449 1.612 7.183 1.612c6.733 0 7.817-3.408 7.817-3.408z" fill="url(#s)" transform="translate(0 .442)"/><path d="M7.5 8.442v4s1.5 3 9 3 8-3 8-3v-2s-.5 1-8 1-9-3-9-3z" opacity=".81" fill="none" stroke="#b72f2c" stroke-linejoin="round"/><path d="M7.5 12.442v-4s.5-5 8-5 9 7 9 7v2s-1-4-8.5-4-8.5 4-8.5 4zm32-.084V8.766s-.186-4.489-6.92-4.489c-6.733 0-8.08 6.285-8.08 6.285v1.796s.898-4.227 7.631-4.227c6.734 0 7.369 4.227 7.369 4.227z" opacity=".81" fill="none" stroke="#b72f2c" stroke-linejoin="round"/><path d="M39.5 9.215v2.694S38.416 15.5 31.683 15.5c-6.734 0-7.183-2.693-7.183-2.693V11.01s.449 1.612 7.183 1.612c6.733 0 7.817-3.408 7.817-3.408z" opacity=".81" fill="none" stroke="#b72f2c" stroke-linejoin="round"/><path d="M25 11.942c0 .276-.448.5-1 .5s-1-.224-1-.5.448-.5 1-.5 1 .224 1 .5z" opacity=".81" fill="#f8d2d9" stroke="#b72f2c" stroke-width="2" stroke-linejoin="round"/><path d="M25 11.442a1 1 0 1 1-2 0 1 1 0 0 1 2 0z" opacity=".2" fill="#f8d2d9"/><path d="M3.5 20.781l.813 1.125L24.5 29.781l19-7.593v-1l-19 7.593z" opacity=".5" fill="#a00"/></svg>