<?xml version="1.0" encoding="UTF-8" standalone="no"?>
<!-- Created with Inkscape (http://www.inkscape.org/) -->

<svg
   xmlns:dc="http://purl.org/dc/elements/1.1/"
   xmlns:cc="http://creativecommons.org/ns#"
   xmlns:rdf="http://www.w3.org/1999/02/22-rdf-syntax-ns#"
   xmlns:svg="http://www.w3.org/2000/svg"
   xmlns="http://www.w3.org/2000/svg"
   xmlns:sodipodi="http://sodipodi.sourceforge.net/DTD/sodipodi-0.dtd"
   xmlns:inkscape="http://www.inkscape.org/namespaces/inkscape"
   width="64"
   height="64"
   viewBox="0 0 16.933333 16.933334"
   version="1.1"
   id="svg3222"
   inkscape:version="0.92.4 (5da689c313, 2019-01-14)"
   sodipodi:docname="stock_addressbook.svg">
  <defs
     id="defs3216">
    <linearGradient
       id="linearGradient2490-6-6">
      <stop
         id="stop2492-1-04"
         style="stop-color:#791235;stop-opacity:1"
         offset="0" />
      <stop
         id="stop2494-0-8"
         style="stop-color:#dd3b27;stop-opacity:1"
         offset="1" />
    </linearGradient>
    <linearGradient
       id="linearGradient3316-1">
      <stop
         id="stop3318-0"
         style="stop-color:#ffffff;stop-opacity:1;"
         offset="0" />
      <stop
         offset="0.09090909"
         style="stop-color:#ffffff;stop-opacity:0.23529412;"
         id="stop3320-8" />
      <stop
         id="stop3322-1"
         style="stop-color:#ffffff;stop-opacity:0.15686275;"
         offset="0.9545455" />
      <stop
         id="stop3324-6"
         style="stop-color:#ffffff;stop-opacity:0.39215687;"
         offset="1" />
    </linearGradient>
  </defs>
  <sodipodi:namedview
     id="base"
     pagecolor="#ffffff"
     bordercolor="#666666"
     borderopacity="1.0"
     inkscape:pageopacity="0.0"
     inkscape:pageshadow="2"
     inkscape:zoom="7.9195959"
     inkscape:cx="14.599157"
     inkscape:cy="34.536934"
     inkscape:document-units="mm"
     inkscape:current-layer="layer1"
     showgrid="true"
     units="px"
     inkscape:window-width="1366"
     inkscape:window-height="710"
     inkscape:window-x="0"
     inkscape:window-y="0"
     inkscape:window-maximized="1">
    <inkscape:grid
       type="xygrid"
       id="grid885" />
  </sodipodi:namedview>
  <metadata
     id="metadata3219">
    <rdf:RDF>
      <cc:Work
         rdf:about="">
        <dc:format>image/svg+xml</dc:format>
        <dc:type
           rdf:resource="http://purl.org/dc/dcmitype/StillImage" />
        <dc:title />
      </cc:Work>
    </rdf:RDF>
  </metadata>
  <g
     inkscape:label="Layer 1"
     inkscape:groupmode="layer"
     id="layer1"
     transform="translate(0,-280.06665)">
    <g
       id="g4314"
       style="fill:#c3cadb;fill-opacity:1"
       transform="matrix(0.26458333,0,0,0.26458333,-9.5007628e-4,18.56343)" />
    <g
       transform="matrix(0.26458333,0,0,0.26458333,-198.4375,42.999987)"
       id="g7619">
      <path
         inkscape:connector-curvature="0"
         id="rect8836-4-7-2"
         d="M 760.5332,896 C 759.18466,896 758,897.0587 758,898.42578 v 4.27734 c 0,1.36709 1.18466,2.42579 2.5332,2.42579 h 42.9336 c 1.34854,0 2.5332,-1.0587 2.5332,-2.42579 L 806,896 Z m 0,1 H 805 v 5.70312 c 0,0.78991 -0.68373,1.42579 -1.5332,1.42579 h -42.9336 c -0.84947,0 -1.5332,-0.63587 -1.5332,-1.42579 v -4.27734 C 759,897.63587 759.68373,897 760.5332,897 Z"
         style="color:#000000;font-style:normal;font-variant:normal;font-weight:normal;font-stretch:normal;font-size:medium;line-height:normal;font-family:sans-serif;text-indent:0;text-align:start;text-decoration:none;text-decoration-line:none;text-decoration-style:solid;text-decoration-color:#000000;letter-spacing:normal;word-spacing:normal;text-transform:none;writing-mode:lr-tb;direction:ltr;baseline-shift:baseline;text-anchor:start;white-space:normal;clip-rule:nonzero;display:inline;overflow:visible;visibility:visible;opacity:1;isolation:auto;mix-blend-mode:normal;color-interpolation:sRGB;color-interpolation-filters:linearRGB;solid-color:#000000;solid-opacity:1;fill:#003f71;fill-opacity:0.56078401;fill-rule:nonzero;stroke:none;stroke-width:2;stroke-linecap:butt;stroke-linejoin:miter;stroke-miterlimit:4;stroke-dasharray:none;stroke-dashoffset:0;stroke-opacity:1;color-rendering:auto;image-rendering:auto;shape-rendering:auto;text-rendering:auto;enable-background:accumulate" />
      <g
         inkscape:label="#g8237"
         id="application-rss_xml_64-6"
         transform="translate(0,128)">
        <g
           transform="translate(-1032,512)"
           id="application-x-bittorrent_64-5-4"
           inkscape:label="#g12943">
          <g
             inkscape:label="#g4141"
             id="text-x-preview_64-8-6-3"
             transform="translate(1782,-732.36218)">
            <g
               inkscape:label="Layer 1"
               id="layer1-1-7-5-4-1"
               transform="matrix(1.3428376,0,0,1.340755,-0.22814694,988.19153)" />
            <rect
               style="opacity:0.75;fill:none;fill-opacity:0.56122448;stroke:none;stroke-width:1;stroke-linecap:butt;stroke-linejoin:miter;stroke-miterlimit:4;stroke-dasharray:none;stroke-dashoffset:0;stroke-opacity:1"
               id="rect4139-0-9-3"
               width="64"
               height="63.999996"
               x="0"
               y="988.36218"
               rx="2.17285e-05"
               ry="2.17285e-05" />
          </g>
          <g
             transform="translate(1782,256)"
             id="layer1-95-5-8"
             inkscape:label="Layer 1">
            <path
               style="display:inline;opacity:0.3;fill:none;stroke:none;stroke-width:0.9999218;stroke-linecap:butt;stroke-linejoin:round;stroke-miterlimit:4;stroke-dasharray:none;stroke-dashoffset:0;stroke-opacity:1"
               id="path4160-6-1-9-7-8"
               inkscape:connector-curvature="0"
               d="m 8.4999684,0.4998999 c 10.7700936,0 47.0000286,0.004 47.0000286,0.004 l 4.9e-5,58.9962201 c 0,0 -31.333384,0 -47.0000776,0 0,-19.6668 0,-39.3334 0,-58.9999701 z" />
          </g>
        </g>
      </g>
      <path
         sodipodi:nodetypes="sccsssss"
         inkscape:connector-curvature="0"
         id="rect8836-4-7"
         d="M 760.53334,897 H 805 v 5.70332 c 0,0.78991 -0.68386,1.42583 -1.53333,1.42583 h -42.93333 c -0.84947,0 -1.53334,-0.63592 -1.53334,-1.42583 v -4.27749 C 759,897.63592 759.68387,897 760.53334,897 Z"
         style="opacity:1;fill:#fafafa;fill-opacity:1;stroke:none;stroke-width:1;stroke-linecap:butt;stroke-linejoin:miter;stroke-miterlimit:4;stroke-dasharray:none;stroke-dashoffset:0;stroke-opacity:1" />
      <path
         d="m 759,902.00038 c 10.99924,0 47.99994,0.003 47.99994,0.003 l 6e-5,52.99664 c 0,0 -32,0 -48,0 0,-17.66668 0,-35.33334 0,-53.00002 z"
         inkscape:connector-curvature="0"
         id="path4160-4-7-0-0-9"
         style="color:#000000;display:inline;overflow:visible;visibility:visible;fill:#569dd3;fill-opacity:1;fill-rule:nonzero;stroke:none;stroke-width:1;marker:none;enable-background:accumulate" />
      <path
         d="m 758.37339,896.26438 c 11.20109,0 48.88084,0.004 48.88084,0.004 l 5e-5,59.36344 c 0,0 -32.58726,0 -48.88089,0 0,-19.78921 0,-39.57823 0,-59.36722 z"
         inkscape:connector-curvature="0"
         id="path4160-6-1-8-9-4-9-3"
         style="display:inline;opacity:0.3;fill:none;stroke:none;stroke-width:0.9999218;stroke-linecap:butt;stroke-linejoin:round;stroke-miterlimit:4;stroke-dasharray:none;stroke-dashoffset:0;stroke-opacity:1" />
      <path
         sodipodi:nodetypes="ccccc"
         d="m 758.49996,901.49992 c 11.22841,0 49.00002,0.003 49.00002,0.003 l 6e-5,53.99713 c 0,0 -32.66672,0 -49.00008,0 0,-18.00019 0,-36.00039 0,-54.00057 z"
         id="path4160-3-8-9-06-8-4-7"
         style="display:inline;fill:none;fill-opacity:1;stroke:#003f71;stroke-width:0.9999218;stroke-linecap:butt;stroke-linejoin:round;stroke-miterlimit:4;stroke-dasharray:none;stroke-dashoffset:0;stroke-opacity:0.56078384"
         inkscape:connector-curvature="0" />
      <g
         aria-label="@"
         transform="scale(1.0177533,0.98255637)"
         style="font-style:normal;font-weight:bold;line-height:0%;font-family:sans-serif;-inkscape-font-specification:'Sans Bold';letter-spacing:0px;word-spacing:0px;fill:#ffffff;fill-opacity:1;stroke:none;stroke-width:1px;stroke-linecap:butt;stroke-linejoin:miter;stroke-opacity:1"
         id="text8988-0-8">
        <path
           d="m 781.13372,941.2743 q 0,2.63904 -0.82293,4.78148 -0.80874,2.12825 -2.27014,3.2917 -1.44721,1.16344 -3.24913,1.16344 -1.40465,0 -2.17082,-0.62429 -0.76617,-0.62428 -0.76617,-1.87286 l 0.0426,-0.99318 h -0.0851 q -0.93644,1.74516 -2.3269,2.62484 -1.37627,0.86549 -2.97955,0.86549 -2.22757,0 -3.46196,-1.44721 -1.2202,-1.44721 -1.2202,-4.01531 0,-2.32689 0.90806,-4.32744 0.92224,-2.00056 2.56809,-3.1782 1.64585,-1.17763 3.64641,-1.17763 3.10725,0 4.27069,2.58228 h 0.0851 l 0.55335,-2.27014 h 2.21338 l -1.64585,7.17931 q -0.52497,2.32689 -0.52497,3.58966 0,1.3337 1.14926,1.3337 1.13507,0 2.08569,-0.97899 0.96481,-0.979 1.51815,-2.69579 0.55335,-1.71679 0.55335,-3.80248 0,-2.53972 -1.0925,-4.49771 -1.09251,-1.97218 -3.14982,-3.02212 -2.05731,-1.06413 -4.80985,-1.06413 -3.43359,0 -6.07262,1.51816 -2.63903,1.51815 -4.143,4.3842 -1.50397,2.85186 -1.50397,6.39895 0,2.73835 1.1067,4.83823 1.12088,2.08569 3.22075,3.20657 2.11407,1.12088 4.92336,1.12088 2.05731,0 4.17138,-0.53916 2.11407,-0.52497 4.3842,-1.75936 l 0.78036,1.5891 q -2.05731,1.23439 -4.46933,1.87286 -2.39783,0.65267 -4.86661,0.65267 -3.41939,0 -5.98748,-1.36209 -2.55391,-1.34789 -3.91599,-3.84504 -1.34789,-2.51134 -1.34789,-5.77466 0,-3.97274 1.75935,-7.22188 1.77355,-3.24913 4.90917,-5.05105 3.13563,-1.81611 7.02324,-1.81611 3.41939,0 5.90236,1.29114 2.48296,1.27695 3.78829,3.61803 1.31952,2.34108 1.31952,5.43414 z m -8.59815,0.11351 q 0,-1.44721 -0.93643,-2.32689 -0.93643,-0.89387 -2.49715,-0.89387 -1.43303,0 -2.55391,0.90806 -1.10669,0.89386 -1.74516,2.49715 -0.63848,1.58909 -0.63848,3.44777 0,1.7026 0.66685,2.66741 0.68104,0.96481 2.08569,0.96481 1.77355,0 3.24914,-1.48978 1.47558,-1.48978 2.04312,-3.71735 0.32633,-1.30533 0.32633,-2.05731 z"
           style="font-style:normal;font-variant:normal;font-weight:normal;font-stretch:normal;font-size:29.05775452px;line-height:1.25;font-family:Arial;-inkscape-font-specification:Arial;fill:#ffffff;fill-opacity:1"
           id="path840" />
      </g>
    </g>
  </g>
</svg>
