<svg width="64" height="64" version="1.1" viewBox="0 0 16.933 16.933" xmlns="http://www.w3.org/2000/svg">
 <g transform="translate(0 -261.5) scale(.26458)">
  <path d="M8.991 989.371l46.01.004v57.985H8.992v-57.989z" fill="#fafafa"/>
  <path transform="matrix(1.3428 0 0 1.3408 -.228 988.19)" d="M6.5.5l35 .003v44.003h-35V.5z" fill="none" stroke="#4f6698" stroke-linejoin="round" stroke-opacity=".267" stroke-width=".745"/>
  <rect y="988.36" width="64" height="64" rx="0" ry="0" fill="none" opacity=".75"/>
 </g>
 <path d="M4.233 2.381v.265h.844V2.38zm.955 0v.265h.8V2.38zm.91 0v.265h.7V2.38zm.811 0v.265h.311V2.38zm.422 0v.265h.688V2.38zm.81 0v.265h1.777V2.38zm-3.908.794v.265h1.344v-.265zm1.477 0v.265h.644v-.265zm.766 0v.265h.3v-.265zm.433 0v.265h.578v-.265zm.71 0v.265h.578v-.265zm.7 0v.265h.944v-.265zm1.077 0v.265h1.233v-.265zm-5.163.794v.264h1.488V3.97zm1.6 0v.264H7.43V3.97zm-1.6.793v.265h.822v-.265zm.933 0v.265h.766v-.265zm.877 0v.265h.677v-.265zm1.388 3.97v.264h.833V8.73zm.944 0v.264h.777V8.73zm.888 0v.264h.655V8.73zm-1.832.793v.265h.666v-.265zm.777 0v.265h1.71v-.265zm1.821 0v.265h1.31v-.265zm-2.598.794v.264h.866v-.264zm.988 0v.264H9.94v-.264zm1.632 0v.264h1.044v-.264zm-2.62.793v.265h.666v-.265zm.777 0v.265h.678v-.265zm.789 0v.265h.966v-.265zm1.077 0v.265h.2v-.265zm.31 0v.265h1.255v-.265zM7.41 13.494v.264h.866v-.264zm.977 0v.264h.8v-.264zm.921 0v.264h.689v-.264zm.8 0v.264h1.099v-.264zm1.221 0v.264h1.788v-.264zM4.233 5.556v.265h1.088v-.265zm0 .794v.265h1.1V6.35zm1.211-.794v.265H7.43v-.265zm.01.794v.265h1.81V6.35zm.423 5.556v.265h1.632v-.265zm1.754 0v.265h.644v-.265zm.766 0v.265h1.532v-.265zm1.654 0v.265h1.055v-.265zm1.166 0v.265h.411v-.265zm.533 0v.265h.244v-.265zm.355 0v.265h.655v-.265zM6.41 12.7v.265h.288V12.7zm.366 0v.265h.577V12.7zm.666 0v.265h.577V12.7zm.755 0v.265h.922V12.7zm1.033 0v.265h1.199V12.7zm1.365 0v.265h.81V12.7zm.91 0v.265h.19V12.7zm-7.272.794h1.08v.264h-1.08zm.977-6.35v.264h.8v-.264zm-.977.793v.265h.356v-.265zm1.122.794v.265h.655V8.73zm.044.794v.265h.966v-.265zm-.122.794v.264h.733v-.264zm-.133.793v.265h.755v-.265zm-.91.794v.265h1.52v-.265zm0 .794v.265h1.31V12.7zm1.41 0v.265h.632V12.7zm-.223.794v.264H6.61v-.264zm-1.188-6.35v.264h.833v-.264zm0 1.587v.265h.977V8.73zm0 .794v.265h1.044v-.265zm0 .794v.264h.9v-.264zm0 .793v.265h.789v-.265z" fill="#b4bfd8"/>
 <path d="M3.704 3.704h3.97v.529h-3.97z" fill="#fafafa"/>
 <path d="M3.968 4.498h3.704v.529H3.968zm5.292 7.408h3.704v.529H9.26z" fill="#fafafa"/>
 <path d="m8.185 4.4961a0.26742 0.26742 0 1 1 0.53483 0 0.26742 0.26742 0 0 1-0.53483 0m-3.1904 2.4211a0.26742 0.26742 0 1 1 0.53483 0 0.26742 0.26742 0 0 1-0.53483 0m6.3808 0.012372a0.26742 0.26742 0 0 1 0.53483 0 0.26742 0.26742 0 0 1-0.53483 0m-5.607 0.36724a0.24464 0.24464 0 0 0 0.12401-0.32225l-0.11866-0.26826h0.46678v2.1033h-0.94172a3.2928 3.2928 0 0 1-0.10657-1.2569zm1.952 0.051737v-0.62003h1.1113c0.05736 0 0.40492 0.066362 0.40492 0.32618 0 0.21596-0.26713 0.29357-0.48646 0.29357zm-1.5173 3.338a0.26742 0.26742 0 1 1 0.53483 0 0.26742 0.26742 0 0 1-0.53483 0m3.9628 0.01237a0.26742 0.26742 0 0 1 0.53483 0 0.26742 0.26742 0 0 1-0.53483 0m0.08267-0.60653c-0.13216-0.02812-0.26151 0.05568-0.28963 0.18756l-0.13413 0.6265a3.2928 3.2928 0 0 1-2.7458-0.01322l-0.13413-0.62649c-0.028121-0.13216-0.15747-0.21596-0.28963-0.18756l-0.55311 0.11866a3.2928 3.2928 0 0 1-0.28597-0.33715h2.691c0.03037 0 0.05062-0.00562 0.05062-0.033181v-0.95184c0-0.028122-0.02025-0.033181-0.05062-0.033181h-0.78734v-0.60344h0.85117c0.07761 0 0.41532 0.022494 0.52358 0.45384l0.15887 0.70298c0.05062 0.15466 0.25673 0.46481 0.47606 0.46481h1.3891a3.2928 3.2928 0 0 1-0.30509 0.3529zm1.4943-2.5133a3.2928 3.2928 0 0 1 7e-3 0.57166h-0.33743c-0.03374 0-0.04781 0.022494-0.04781 0.055395v0.15522c0 0.36555-0.20583 0.44428-0.38636 0.46481-0.17153 0.019683-0.36274-0.071985-0.3858-0.17715-0.10123-0.57026-0.26994-0.69173-0.53427-0.90263 0.33096-0.21033 0.67542-0.52021 0.67542-0.93553 0-0.44822-0.30734-0.73054-0.51683-0.86889-0.29381-0.19402-0.61915-0.23254-0.70688-0.23254h-3.4966a3.2928 3.2928 0 0 1 1.8421-1.0396l0.41195 0.43219c0.09279 0.097574 0.24745 0.10123 0.34474 0.00787l0.46116-0.44063a3.2928 3.2928 0 0 1 2.2543 1.6053l-0.3155 0.71254a0.24464 0.24464 0 0 0 0.12401 0.32225zm0.78678 0.01125-0.01069-0.11023 0.32506-0.30313c0.06608-0.061862 0.04134-0.18559-0.04302-0.21708l-0.41532-0.15522-0.03262-0.10685 0.2587-0.35993c0.05286-0.07311 0.0042-0.18981-0.08436-0.20443l-0.4381-0.071142-0.05258-0.098418 0.18418-0.40407c0.03768-0.08239-0.03234-0.18756-0.12288-0.18418l-0.44428 0.015466-0.0703-0.085201 0.10207-0.43304c0.02053-0.088013-0.06861-0.17715-0.15662-0.15662l-0.43304 0.10207-0.08548-0.070298 0.01546-0.44428c0.0034-0.089982-0.10179-0.16028-0.1839-0.12288l-0.40379 0.18418-0.09842-0.052864-0.07142-0.4381c-0.01406-0.088857-0.13132-0.13722-0.20443-0.084358l-0.35993 0.2587-0.10685-0.032337-0.15522-0.41532c-0.031493-0.084358-0.1555-0.1091-0.21708-0.043304l-0.30313 0.32506-0.11023-0.010685-0.23395-0.3782c-0.04724-0.076484-0.17434-0.076484-0.2213 0l-0.23395 0.3782-0.11023 0.010685-0.30369-0.32562c-0.06186-0.065799-0.18559-0.041335-0.21708 0.043304l-0.15522 0.41532-0.10685 0.032337-0.35993-0.2587c-0.07311-0.052864-0.19009-0.00422-0.20443 0.084358l-0.07142 0.4381-0.09842 0.052864-0.40379-0.18418c-0.08211-0.037399-0.18756 0.032899-0.1839 0.12288l0.01546 0.44428-0.08548 0.070298-0.43304-0.10207c-0.08801-0.020527-0.17715 0.068611-0.15662 0.15662l0.10207 0.43304-0.0703 0.085201-0.44428-0.015466c-0.08998-0.00281-0.16028 0.10179-0.12288 0.18418l0.18418 0.40407-0.05286 0.098417-0.4381 0.071142c-0.08886 0.01406-0.13722 0.13132-0.08436 0.20443l0.2587 0.35993-0.03262 0.10685-0.41532 0.15522c-0.08436 0.031494-0.1091 0.1555-0.04302 0.21708l0.32506 0.30313-0.01069 0.11023-0.3782 0.23395c-0.07649 0.047241-0.07649 0.17434 0 0.2213l0.3782 0.23395 0.01069 0.11023-0.3259 0.30425c-0.0658 0.061863-0.04134 0.18559 0.04302 0.21708l0.41532 0.15522 0.03262 0.10685-0.2587 0.35993c-0.05258 0.07311-0.0042 0.19009 0.08436 0.20443l0.43782 0.071142 0.05286 0.098417-0.18418 0.40379c-0.0374 0.08211 0.03318 0.18756 0.12288 0.18418l0.44428-0.01546 0.0703 0.08548-0.10207 0.43304c-0.02053 0.08773 0.06861 0.17715 0.15662 0.15634l0.43304-0.10207 0.08548 0.0703-0.01546 0.44428c-0.0034 0.08998 0.10179 0.16028 0.1839 0.12288l0.40379-0.18418 0.09842 0.05286 0.07142 0.43782c0.01406 0.08914 0.13132 0.13722 0.20443 0.08492l0.35993-0.25926 0.10685 0.03262 0.15522 0.41532c0.03149 0.08436 0.1555 0.1091 0.21708 0.04302l0.30313-0.32506 0.11023 0.01125 0.23395 0.3782c0.04724 0.07592 0.17378 0.07648 0.2213 0l0.23395-0.3782 0.11023-0.01125 0.30313 0.32506c0.06186 0.06608 0.18559 0.04134 0.21708-0.04302l0.15522-0.41532 0.10685-0.03262 0.35993 0.25926c0.07311 0.05258 0.19009 0.0042 0.20443-0.08492l0.07142-0.43782 0.09842-0.05286 0.40379 0.18418c0.08211 0.0374 0.18727-0.03262 0.1839-0.12288l-0.01546-0.44428 0.0852-0.0703 0.43304 0.10207c0.08801 0.02053 0.17715-0.06861 0.15662-0.15634l-0.10207-0.43304 0.0703-0.08548 0.44428 0.01546c0.08998 0.0037 0.16028-0.10207 0.12288-0.18418l-0.18418-0.40379 0.05258-0.098417 0.4381-0.071142c0.08914-0.014061 0.13778-0.13104 0.08436-0.20443l-0.2587-0.35993 0.03262-0.10685 0.41532-0.15522c0.08436-0.031772 0.1091-0.1555 0.04302-0.21708l-0.32506-0.30312 0.01069-0.11023 0.3782-0.23395c0.07648-0.047241 0.07677-0.17378 0-0.2213z" fill="#525252"/>
</svg>
