<?xml version="1.0" encoding="UTF-8" standalone="no"?>
<svg
   width="64"
   height="64"
   viewBox="0 0 16.933 16.933"
   version="1.1"
   id="svg30"
   sodipodi:docname="text-x-rust.svg"
   inkscape:version="1.1 (c68e22c387, 2021-05-23)"
   xmlns:inkscape="http://www.inkscape.org/namespaces/inkscape"
   xmlns:sodipodi="http://sodipodi.sourceforge.net/DTD/sodipodi-0.dtd"
   xmlns="http://www.w3.org/2000/svg"
   xmlns:svg="http://www.w3.org/2000/svg">
  <sodipodi:namedview
     id="namedview32"
     pagecolor="#ffffff"
     bordercolor="#666666"
     borderopacity="1.0"
     inkscape:pageshadow="2"
     inkscape:pageopacity="0.0"
     inkscape:pagecheckerboard="0"
     showgrid="false"
     inkscape:zoom="8.4742328"
     inkscape:cx="49.503006"
     inkscape:cy="35.991459"
     inkscape:window-width="2560"
     inkscape:window-height="1378"
     inkscape:window-x="0"
     inkscape:window-y="0"
     inkscape:window-maximized="1"
     inkscape:current-layer="svg30" />
  <defs
     id="defs16">
    <linearGradient
       id="a">
      <stop
         offset="0"
         stop-color="#791235"
         id="stop2" />
      <stop
         offset="1"
         stop-color="#dd3b27"
         id="stop4" />
    </linearGradient>
    <linearGradient
       id="b">
      <stop
         offset="0"
         stop-color="#fff"
         id="stop7" />
      <stop
         offset=".091"
         stop-color="#fff"
         stop-opacity=".235"
         id="stop9" />
      <stop
         offset=".955"
         stop-color="#fff"
         stop-opacity=".157"
         id="stop11" />
      <stop
         offset="1"
         stop-color="#fff"
         stop-opacity=".392"
         id="stop13" />
    </linearGradient>
  </defs>
  <path
     d="M 2.3788388,0.26377918 14.552165,0.2648375 V 15.606509 H 2.3791034 V 0.26377918 Z"
     fill="#fafafa"
     id="path18"
     style="stroke-width:0.26458" />
  <path
     d="m 2.2490517,0.12920717 12.4351013,0.001064 V 15.739703 H 2.2490517 Z"
     fill="none"
     stroke="#4f6698"
     stroke-width="0.264484"
     stroke-linejoin="round"
     stroke-opacity="0.267"
     id="path20" />
  <rect
     ry="0"
     rx="0"
     y="-0.0031821693"
     height="16.933121"
     width="16.933121"
     opacity="0.75"
     fill="none"
     id="rect22"
     x="0"
     style="stroke-width:0.26458" />
  <path
     d="M4.233 2.381v.265h.844V2.38zm.955 0v.265h.8V2.38zm.91 0v.265h.7V2.38zm.811 0v.265h.311V2.38zm.422 0v.265h.688V2.38zm.81 0v.265h1.777V2.38zm-3.908.794v.265h1.344v-.265zm1.477 0v.265h.644v-.265zm.766 0v.265h.3v-.265zm.433 0v.265h.578v-.265zm.71 0v.265h.578v-.265zm.7 0v.265h.944v-.265zm1.077 0v.265h1.233v-.265zm-5.163.794v.264h1.488V3.97zm1.6 0v.264H7.43V3.97zm-1.6.793v.265h.822v-.265zm.933 0v.265h.766v-.265zm.877 0v.265h.677v-.265zm1.388 3.97v.264h.833V8.73zm.944 0v.264h.777V8.73zm.888 0v.264h.655V8.73zm-1.832.793v.265h.666v-.265zm.777 0v.265h1.71v-.265zm1.821 0v.265h1.31v-.265zm-2.598.794v.264h.866v-.264zm.988 0v.264H9.94v-.264zm1.632 0v.264h1.044v-.264zm-2.62.793v.265h.666v-.265zm.777 0v.265h.678v-.265zm.789 0v.265h.966v-.265zm1.077 0v.265h.2v-.265zm.31 0v.265h1.255v-.265zM7.41 13.494v.264h.866v-.264zm.977 0v.264h.8v-.264zm.921 0v.264h.689v-.264zm.8 0v.264h1.099v-.264zm1.221 0v.264h1.788v-.264zM4.233 5.556v.265h1.088v-.265zm0 .794v.265h1.1V6.35zm1.211-.794v.265H7.43v-.265zm.01.794v.265h1.81V6.35zm.423 5.556v.265h1.632v-.265zm1.754 0v.265h.644v-.265zm.766 0v.265h1.532v-.265zm1.654 0v.265h1.055v-.265zm1.166 0v.265h.411v-.265zm.533 0v.265h.244v-.265zm.355 0v.265h.655v-.265zM6.41 12.7v.265h.288V12.7zm.366 0v.265h.577V12.7zm.666 0v.265h.577V12.7zm.755 0v.265h.922V12.7zm1.033 0v.265h1.199V12.7zm1.365 0v.265h.81V12.7zm.91 0v.265h.19V12.7zm-7.272.794h1.08v.264h-1.08zm.977-6.35v.264h.8v-.264zm-.977.793v.265h.356v-.265zm1.122.794v.265h.655V8.73zm.044.794v.265h.966v-.265zm-.122.794v.264h.733v-.264zm-.133.793v.265h.755v-.265zm-.91.794v.265h1.52v-.265zm0 .794v.265h1.31V12.7zm1.41 0v.265h.632V12.7zm-.223.794v.264H6.61v-.264zm-1.188-6.35v.264h.833v-.264zm0 1.587v.265h.977V8.73zm0 .794v.265h1.044v-.265zm0 .794v.264h.9v-.264zm0 .793v.265h.789v-.265z"
     fill="#b4bfd8"
     fill-opacity=".549"
     id="path26" />
  <path
     d="m 8.1849617,4.496124 a 0.26741422,0.26741422 0 1 1 0.534828,0 0.26741422,0.26741422 0 0 1 -0.534828,0 m -3.190412,2.4210688 a 0.26741422,0.26741422 0 1 1 0.534828,0 0.26741422,0.26741422 0 0 1 -0.534828,0 m 6.3808243,0.012372 a 0.26741422,0.26741422 0 0 1 0.534828,0 0.26741422,0.26741422 0 0 1 -0.534828,0 M 5.7683917,7.2968027 A 0.24463762,0.24463762 0 0 0 5.8923977,6.974556 L 5.7737347,6.7062983 h 0.46678 V 8.8096194 H 5.2987997 A 3.2927661,3.2927661 0 0 1 5.1922287,7.5526885 Z m 1.95204,0.051737 V 6.7285125 h 1.111273 c 0.05736,0 0.404917,0.066362 0.404917,0.3261835 0,0.215956 -0.267132,0.2935652 -0.486463,0.2935652 z m -1.517316,3.3380383 a 0.2674145,0.2674145 0 1 1 0.534829,0 0.2674145,0.2674145 0 0 1 -0.534829,0 m 3.9628493,0.01237 a 0.26741422,0.26741422 0 0 1 0.534828,0 0.26741422,0.26741422 0 0 1 -0.534828,0 m 0.08267,-0.606533 c -0.132161,-0.02812 -0.2615093,0.05568 -0.2896283,0.187556 l -0.134129,0.626498 a 3.2927661,3.2927661 0 0 1 -2.745847,-0.01322 L 6.9449017,10.266756 C 6.9167807,10.134595 6.7874337,10.0508 6.6552737,10.0792 l -0.553106,0.118663 A 3.2927661,3.2927661 0 0 1 5.8161947,9.8607176 h 2.691014 c 0.03037,0 0.05062,-0.00562 0.05062,-0.033181 V 8.8756998 c 0,-0.028122 -0.02025,-0.033181 -0.05062,-0.033181 h -0.78734 V 8.2390801 h 0.85117 c 0.07761,0 0.415322,0.022494 0.523581,0.4538448 l 0.158874,0.7029819 c 0.05062,0.154656 0.256729,0.4648113 0.476059,0.4648113 h 1.3890923 a 3.2927661,3.2927661 0 0 1 -0.305094,0.3528969 z m 1.494258,-2.5133 a 3.2927661,3.2927661 0 0 1 0.007,0.5716649 h -0.337431 c -0.03374,0 -0.04781,0.022494 -0.04781,0.055395 v 0.1552182 c 0,0.3655504 -0.205833,0.4442845 -0.386359,0.4648113 -0.171527,0.019683 -0.362738,-0.071985 -0.385796,-0.1771511 -0.10123,-0.5702588 -0.269945,-0.6917343 -0.534266,-0.9026287 0.330964,-0.2103322 0.675425,-0.5202063 0.675425,-0.9355279 0,-0.4482211 -0.307344,-0.7305385 -0.516832,-0.8688853 C 9.9230137,5.7479937 9.5976737,5.7094703 9.5099417,5.7094703 H 6.0133107 A 3.2927661,3.2927661 0 0 1 7.8554037,4.669901 l 0.411948,0.4321931 c 0.09279,0.097574 0.247449,0.1012294 0.344742,0.00787 l 0.461155,-0.4406289 a 3.2927661,3.2927661 0 0 1 2.2543223,1.6053289 l -0.315498,0.7125422 a 0.24463762,0.24463762 0 0 0 0.124006,0.3222468 z m 0.786777,0.01125 -0.01069,-0.1102273 0.325059,-0.3031256 c 0.06608,-0.061862 0.04134,-0.1855872 -0.04302,-0.2170808 l -0.41532,-0.1552156 -0.03262,-0.1068532 0.258697,-0.3599266 c 0.05286,-0.07311 0.0042,-0.1898051 -0.08436,-0.2044271 L 12.08932,6.0623668 12.03674,5.9639488 12.220921,5.559875 c 0.03768,-0.08239 -0.03234,-0.1875555 -0.122881,-0.1841812 l -0.444284,0.015466 -0.0703,-0.085201 0.102073,-0.4330367 c 0.02053,-0.088013 -0.06861,-0.1771514 -0.156624,-0.1566243 l -0.433037,0.1020729 -0.08548,-0.070298 0.01546,-0.4442844 c 0.0034,-0.089982 -0.101792,-0.1602799 -0.1839,-0.1228812 l -0.403789,0.184181 -0.09842,-0.052864 -0.07142,-0.4380983 C 10.254259,3.7852689 10.137001,3.7369038 10.063891,3.789768 L 9.7039647,4.0484652 9.5971107,4.016128 9.4418927,3.6008065 C 9.4103997,3.5164487 9.2863937,3.4917037 9.2248127,3.5575028 L 8.9216867,3.8825615 8.8114587,3.8718762 8.5775067,3.4936721 c -0.04724,-0.076484 -0.17434,-0.076484 -0.221299,0 l -0.233952,0.3782041 -0.110227,0.010685 -0.303689,-0.325621 c -0.06186,-0.065799 -0.185587,-0.041335 -0.21708,0.043304 l -0.155219,0.4153215 -0.106853,0.032337 -0.359926,-0.2586972 c -0.07311,-0.052864 -0.190087,-0.00422 -0.204428,0.084358 l -0.07142,0.4380982 -0.09842,0.052864 -0.403793,-0.1841812 c -0.08211,-0.037399 -0.187555,0.032899 -0.1839,0.1228812 l 0.01546,0.4442844 -0.08548,0.070298 -0.433036,-0.1020729 c -0.08801,-0.020527 -0.177152,0.068611 -0.156624,0.1566242 l 0.102072,0.4330367 -0.0703,0.085201 -0.444285,-0.015466 c -0.08998,-0.00281 -0.160279,0.1017918 -0.122881,0.1841812 l 0.184181,0.4040739 -0.05286,0.098417 -0.438098,0.071142 c -0.08886,0.01406 -0.137222,0.131317 -0.08436,0.204427 l 0.258697,0.3599266 -0.03262,0.1068533 -0.415321,0.1552183 c -0.08436,0.031494 -0.109103,0.1554995 -0.04302,0.2170807 l 0.325058,0.3031256 -0.01069,0.1102274 -0.378204,0.2339523 c -0.07649,0.047241 -0.07649,0.1743395 0,0.2212987 l 0.378204,0.2339523 0.01069,0.1102273 -0.325902,0.3042505 c -0.0658,0.061863 -0.04134,0.1855876 0.04302,0.2170809 l 0.415321,0.1552182 0.03262,0.1068536 -0.258698,0.3599266 c -0.05258,0.07311 -0.0042,0.1900859 0.08436,0.2044267 l 0.437817,0.071142 0.05286,0.098417 -0.184181,0.4037927 c -0.0374,0.08211 0.03318,0.187556 0.122881,0.184182 l 0.444285,-0.01546 0.0703,0.08548 -0.102073,0.433035 c -0.02053,0.08773 0.06861,0.177151 0.156624,0.156343 l 0.433037,-0.102073 0.08548,0.0703 -0.01546,0.444285 c -0.0034,0.08998 0.101791,0.16028 0.1839,0.122881 l 0.403792,-0.184181 0.09842,0.05286 0.07142,0.437817 c 0.01406,0.08914 0.131317,0.137222 0.204428,0.08492 l 0.359926,-0.25926 0.106853,0.03262 0.155219,0.415321 c 0.03149,0.08436 0.155499,0.109103 0.21708,0.04302 l 0.303126,-0.325058 0.110228,0.01125 0.233952,0.378204 c 0.04724,0.07592 0.173777,0.07648 0.221299,0 l 0.233952,-0.378204 0.110227,-0.01125 0.303126,0.325058 c 0.06186,0.06608 0.185588,0.04134 0.217081,-0.04302 l 0.155218,-0.415321 0.106854,-0.03262 0.3599263,0.25926 c 0.07311,0.05258 0.190086,0.0042 0.204427,-0.08492 l 0.07142,-0.437817 0.09842,-0.05286 0.403792,0.184181 c 0.08211,0.0374 0.187274,-0.03262 0.1839,-0.122881 l -0.01546,-0.444285 0.0852,-0.0703 0.433036,0.102073 c 0.08801,0.02053 0.177152,-0.06861 0.156625,-0.156343 l -0.102073,-0.433037 0.0703,-0.08548 0.444284,0.01546 c 0.08998,0.0037 0.16028,-0.102074 0.122881,-0.184182 l -0.184181,-0.4037927 0.05258,-0.098417 0.438099,-0.071142 c 0.08914,-0.014061 0.137784,-0.1310359 0.08436,-0.2044267 L 12.351115,9.172636 12.383735,9.0657824 12.799057,8.9105642 c 0.08436,-0.031772 0.109102,-0.1554993 0.04302,-0.2170809 l -0.325059,-0.3031235 0.01069,-0.1102274 0.378205,-0.2339523 c 0.07648,-0.047241 0.07677,-0.1737773 0,-0.2212986 z"
     id="path2"
     style="fill:#525252;fill-opacity:1;stroke-width:0.529156" />
</svg>
