<svg xmlns="http://www.w3.org/2000/svg" width="64" height="64" viewBox="0 0 16.933 16.933"><g transform="translate(0 -261.5) scale(.26458)"><path fill="#fafafa" d="m8.991 989.37 46.01.004v57.985H8.992V989.37z"/><path fill="none" stroke="#4f6698" stroke-linejoin="round" stroke-opacity=".267" stroke-width=".745" d="m6.5.5 35 .003v44.003h-35z" transform="matrix(1.3428 0 0 1.3408 -.228 988.19)"/><rect width="64" height="64" y="988.36" fill="none" opacity=".75" rx="0" ry="0"/></g><path fill="#f44336" fill-rule="evenodd" d="m10.231 5.434.064.085-.31 1.19-.117.02-.75-1.19.055-.105zm-2.47 0 .052.107-.882 1.257-.117-.03-.177-1.257.066-.077zm3.138.024 1.323 1.72-.051.108h-1.852l-.063-.087.53-1.72zm-2.381 0 1.322 1.72-.05.108H7.144l-.051-.108 1.323-1.72zm-2.483 0 .113.022.53 1.72-.063.086H4.763l-.051-.108zm6.136 2.093.048.111L8.78 11.5l-.108-.071 1.587-3.837.06-.04zm-2.381 0 .06.092-1.322 3.307h-.122L7.083 7.643l.06-.092zm-3.175 0 .06.04 1.588 3.837-.11.07-3.439-3.836.049-.11z" color="#000" style="isolation:auto;mix-blend-mode:normal;text-decoration-color:#000;text-decoration-line:none;text-decoration-style:solid;text-indent:0;text-transform:none;white-space:normal"/></svg>