<?xml version="1.0" encoding="UTF-8" standalone="no"?>
<!-- Created with Inkscape (http://www.inkscape.org/) -->

<svg
   xmlns:dc="http://purl.org/dc/elements/1.1/"
   xmlns:cc="http://creativecommons.org/ns#"
   xmlns:rdf="http://www.w3.org/1999/02/22-rdf-syntax-ns#"
   xmlns:svg="http://www.w3.org/2000/svg"
   xmlns="http://www.w3.org/2000/svg"
   xmlns:sodipodi="http://sodipodi.sourceforge.net/DTD/sodipodi-0.dtd"
   xmlns:inkscape="http://www.inkscape.org/namespaces/inkscape"
   width="64"
   height="64"
   viewBox="0 0 16.933333 16.933334"
   version="1.1"
   id="svg3222"
   inkscape:version="0.92.4 (5da689c313, 2019-01-14)"
   sodipodi:docname="text-x-authors.svg">
  <defs
     id="defs3216">
    <linearGradient
       id="linearGradient2490-6-6">
      <stop
         id="stop2492-1-04"
         style="stop-color:#791235;stop-opacity:1"
         offset="0" />
      <stop
         id="stop2494-0-8"
         style="stop-color:#dd3b27;stop-opacity:1"
         offset="1" />
    </linearGradient>
    <linearGradient
       id="linearGradient3316-1">
      <stop
         id="stop3318-0"
         style="stop-color:#ffffff;stop-opacity:1;"
         offset="0" />
      <stop
         offset="0.09090909"
         style="stop-color:#ffffff;stop-opacity:0.23529412;"
         id="stop3320-8" />
      <stop
         id="stop3322-1"
         style="stop-color:#ffffff;stop-opacity:0.15686275;"
         offset="0.9545455" />
      <stop
         id="stop3324-6"
         style="stop-color:#ffffff;stop-opacity:0.39215687;"
         offset="1" />
    </linearGradient>
  </defs>
  <sodipodi:namedview
     id="base"
     pagecolor="#ffffff"
     bordercolor="#666666"
     borderopacity="1.0"
     inkscape:pageopacity="0.0"
     inkscape:pageshadow="2"
     inkscape:zoom="5.6"
     inkscape:cx="5.876616"
     inkscape:cy="40.52685"
     inkscape:document-units="mm"
     inkscape:current-layer="layer1"
     showgrid="true"
     units="px"
     inkscape:window-width="1024"
     inkscape:window-height="576"
     inkscape:window-x="565"
     inkscape:window-y="232"
     inkscape:window-maximized="0"
     inkscape:snap-bbox="true"
     inkscape:bbox-nodes="true"
     inkscape:snap-bbox-edge-midpoints="true">
    <inkscape:grid
       type="xygrid"
       id="grid885" />
  </sodipodi:namedview>
  <metadata
     id="metadata3219">
    <rdf:RDF>
      <cc:Work
         rdf:about="">
        <dc:format>image/svg+xml</dc:format>
        <dc:type
           rdf:resource="http://purl.org/dc/dcmitype/StillImage" />
        <dc:title></dc:title>
      </cc:Work>
    </rdf:RDF>
  </metadata>
  <g
     inkscape:label="Layer 1"
     inkscape:groupmode="layer"
     id="layer1"
     transform="translate(0,-280.06665)">
    <g
       transform="matrix(0.26458333,0,0,0.26458333,1.0666667e-7,18.562493)"
       id="text-x-preview_64"
       inkscape:label="#g4141">
      <g
         transform="matrix(1.3428376,0,0,1.340755,-0.22814694,988.19153)"
         id="layer1-1-7"
         inkscape:label="Layer 1">
        <path
           inkscape:connector-curvature="0"
           style="display:inline;fill:#fafafa;fill-opacity:1;stroke:none;stroke-width:0.99992186;stroke-linecap:butt;stroke-linejoin:round;stroke-miterlimit:4;stroke-dasharray:none;stroke-dashoffset:0;stroke-opacity:0.42452829"
           id="path4160-2"
           d="m 6.8655256,0.87983895 c 7.8515454,0 34.2636264,0.002756 34.2636264,0.002756 l 4e-5,43.24831005 c 0,0 -22.842445,0 -34.2636664,0 0,-14.417024 0,-28.834046 0,-43.25106605 z"
           sodipodi:nodetypes="ccccc" />
        <path
           inkscape:connector-curvature="0"
           style="display:inline;fill:none;fill-opacity:1;stroke:#4f6698;stroke-width:0.74521309;stroke-linecap:butt;stroke-linejoin:round;stroke-miterlimit:4;stroke-dasharray:none;stroke-dashoffset:0;stroke-opacity:0.26666667"
           id="path4160-3-1"
           d="m 6.4999609,0.49996093 c 8.0202951,0 35.0000391,0.0028 35.0000391,0.0028 l 4.2e-5,44.00280307 c 0,0 -23.333387,0 -35.0000811,0 0,-14.668535 0,-29.33707 0,-44.00560307 z"
           sodipodi:nodetypes="ccccc" />
      </g>
      <rect
         ry="2.17285e-05"
         rx="2.17285e-05"
         y="988.36218"
         x="0"
         height="63.999996"
         width="64"
         id="rect4139"
         style="opacity:0.75;fill:none;fill-opacity:0.56122448;stroke:none;stroke-width:1;stroke-linecap:butt;stroke-linejoin:miter;stroke-miterlimit:4;stroke-dasharray:none;stroke-dashoffset:0;stroke-opacity:1" />
    </g>
    <rect
       width="0"
       x="-22.796944"
       y="276.23096"
       height="5.8213863"
       style="fill:#6c7a89;stroke-width:0.26458332"
       id="rect4035" />
    <rect
       width="0"
       x="-20.034466"
       y="285.18866"
       height="5.8213863"
       style="fill:#6c7a89;stroke-width:0.26458332"
       id="rect4035-8" />
    <rect
       width="0"
       x="-19.314816"
       y="284.7677"
       height="5.8213863"
       style="fill:#6c7a89;stroke-width:0.26458332"
       id="rect4035-0" />
    <rect
       width="0"
       x="-22.796944"
       y="276.23096"
       height="5.8213863"
       style="fill:#6c7a89;stroke-width:0.26458332"
       id="rect4035-3" />
    <rect
       width="0"
       x="-20.034466"
       y="285.18866"
       height="5.8213863"
       style="fill:#6c7a89;stroke-width:0.26458332"
       id="rect4035-8-9" />
    <rect
       width="0"
       x="-19.314816"
       y="284.7677"
       height="5.8213863"
       style="fill:#6c7a89;stroke-width:0.26458332"
       id="rect4035-0-4" />
    <rect
       width="0"
       x="-22.796944"
       y="276.23096"
       height="5.8213863"
       style="fill:#6c7a89;stroke-width:0.26458332"
       id="rect4035-2" />
    <rect
       width="0"
       x="-20.034466"
       y="285.18866"
       height="5.8213863"
       style="fill:#6c7a89;stroke-width:0.26458332"
       id="rect4035-8-99" />
    <rect
       width="0"
       x="-19.314816"
       y="284.7677"
       height="5.8213863"
       style="fill:#6c7a89;stroke-width:0.26458332"
       id="rect4035-0-43" />
    <rect
       width="0"
       x="-22.796944"
       y="276.23096"
       height="5.8213863"
       style="fill:#6c7a89;stroke-width:0.26458332"
       id="rect4035-3-9" />
    <rect
       width="0"
       x="-20.034466"
       y="285.18866"
       height="5.8213863"
       style="fill:#6c7a89;stroke-width:0.26458332"
       id="rect4035-8-9-9" />
    <rect
       width="0"
       x="-19.314816"
       y="284.7677"
       height="5.8213863"
       style="fill:#6c7a89;stroke-width:0.26458332"
       id="rect4035-0-4-4" />
    <path
       style="opacity:1;fill:#bec4ca;fill-opacity:1;stroke:none;stroke-width:0.99999994;stroke-linecap:round;stroke-linejoin:miter;stroke-miterlimit:4;stroke-dasharray:none;stroke-opacity:1;paint-order:fill markers stroke"
       d="M 32 18 A 12 12 0 0 0 20 30 A 12 12 0 0 0 32 42 A 12 12 0 0 0 44 30 A 12 12 0 0 0 32 18 z M 32 19 A 11.000002 11.000002 0 0 1 43 30 A 11.000002 11.000002 0 0 1 32 41 A 11.000002 11.000002 0 0 1 21 30 A 11.000002 11.000002 0 0 1 32 19 z "
       transform="matrix(0.26458333,0,0,0.26458333,0,280.06665)"
       id="path901" />
    <path
       style="opacity:1;fill:#bec4ca;fill-opacity:1;stroke:none;stroke-width:0.99999994;stroke-linecap:round;stroke-linejoin:miter;stroke-miterlimit:4;stroke-dasharray:none;stroke-opacity:1;paint-order:fill markers stroke"
       d="M 32 22 A 8.0000013 8.0000013 0 0 0 24 30 A 8.0000013 8.0000013 0 0 0 32 38 A 8.0000013 8.0000013 0 0 0 37.654297 35.654297 L 36.947266 34.947266 A 7.0000017 7.0000017 0 0 1 32 37 A 7.0000017 7.0000017 0 0 1 25 30 A 7.0000017 7.0000017 0 0 1 32 23 A 7.0000017 7.0000017 0 0 1 36.947266 25.052734 L 37.654297 24.345703 A 8.0000013 8.0000013 0 0 0 32 22 z "
       transform="matrix(0.26458333,0,0,0.26458333,0,280.06665)"
       id="path906" />
  </g>
</svg>
