<svg xmlns="http://www.w3.org/2000/svg" width="64" height="64"><g transform="translate(0 -988.362)"><path fill="#fafafa" d="m8.991 989.371 46.01.004v57.985H8.992v-57.989z"/><path fill="none" stroke="#4f6698" stroke-linejoin="round" stroke-opacity=".267" stroke-width=".745" d="m6.5.5 35 .003v44.003h-35V.5z" transform="matrix(1.34284 0 0 1.34075 -.228 988.192)"/><rect width="64" height="64" y="988.362" fill="none" opacity=".75" rx="0" ry="0"/></g><path fill="#4f6596" fill-opacity=".267" d="M25.495 30.035c.274.745.583 1.349 1.24.523.815-.485 3.544-2.61 3.271-.528-.874 3.851-1.938 7.662-2.751 11.525-.85 2.115 1.08 4.029 3.098 2.653 2.143-.884 3.988-2.323 5.873-3.644-.258-.63-.429-1.536-1.14-.711-.932.423-2.97 2.42-3.348.773.783-4.17 2.235-8.186 3.163-12.323.854-1.902-.54-4.306-2.629-2.732-2.501 1.09-4.593 2.869-6.777 4.464zm9.284-14.026c-2.552-.136-3.887 3.979-1.461 5.104 1.967.807 4.11-1.21 3.629-3.227-.15-1.05-1.092-1.913-2.168-1.877z" color="#000" font-family="URW Palladio L" font-size="40" font-weight="700" overflow="visible" style="line-height:100%;-inkscape-font-specification:&quot;URW Palladio L Bold&quot;;text-align:start;marker:none"/></svg>