<svg xmlns="http://www.w3.org/2000/svg" width="64" height="64"><g transform="translate(0 -988.38)"><path fill="#e43763" d="m8.991 989.37 46.01.004v57.985H8.992V989.37z"/><path fill="none" stroke="#ab294a" stroke-linejoin="round" stroke-width=".745" d="m6.5.5 35 .003v44.003h-35z" transform="matrix(1.3428 0 0 1.3408 -.228 988.19)"/><rect width="64" height="64" y="988.36" fill="none" opacity=".75" rx="0" ry="0"/></g><path d="M28 22.492v15h1v-7.695a4.47 4.47 0 0 0 3.5 1.695c2.493 0 4.5-2.01 4.5-4.5 0-2.493-2.01-4.5-4.5-4.5a4.47 4.47 0 0 0-3.5 1.695v-1.695zm4.5 1c1.939 0 3.5 1.561 3.5 3.5s-1.561 3.5-3.5 3.5-3.5-1.561-3.5-3.5 1.561-3.5 3.5-3.5m-8.5 5c-.554 0-1 .446-1 1s.446 1 1 1 1-.446 1-1-.446-1-1-1" color="#000" opacity=".6" style="isolation:auto;mix-blend-mode:normal"/></svg>