<svg xmlns="http://www.w3.org/2000/svg" width="64" height="64" viewBox="0 0 16.933 16.933"><g transform="translate(0 -261.504) scale(.26458)"><path fill="#fafafa" d="m8.991 989.371 46.01.004v57.985H8.992v-57.989z"/><path fill="none" stroke="#4f6698" stroke-linejoin="round" stroke-opacity=".267" stroke-width=".745" d="m6.5.5 35 .003v44.003h-35V.5z" transform="matrix(1.34284 0 0 1.34075 -.228 988.192)"/><rect width="64" height="64" y="988.362" fill="none" opacity=".75" rx="0" ry="0"/></g><path fill="#bec4ca" d="M8.467 4.762a3.175 3.175 0 0 0-3.175 3.175 3.175 3.175 0 0 0 3.175 3.175 3.175 3.175 0 0 0 3.175-3.175 3.175 3.175 0 0 0-3.175-3.175zm0 .265a2.91 2.91 0 0 1 2.91 2.91 2.91 2.91 0 0 1-2.91 2.91 2.91 2.91 0 0 1-2.91-2.91 2.91 2.91 0 0 1 2.91-2.91z" paint-order="fill markers stroke"/><path fill="#bec4ca" d="M8.467 5.82A2.117 2.117 0 0 0 6.35 7.938a2.117 2.117 0 0 0 2.117 2.117 2.117 2.117 0 0 0 1.496-.62l-.187-.188a1.852 1.852 0 0 1-1.31.544 1.852 1.852 0 0 1-1.851-1.853 1.852 1.852 0 0 1 1.852-1.852 1.852 1.852 0 0 1 1.309.544l.187-.188a2.117 2.117 0 0 0-1.496-.62z" paint-order="fill markers stroke"/></svg>