<svg xmlns="http://www.w3.org/2000/svg" width="64" height="64"><g transform="translate(0 -988.38)"><path fill="#fafafa" d="m8.991 989.37 46.01.004v57.985H8.992V989.37z"/><path fill="none" stroke="#4f6698" stroke-linejoin="round" stroke-opacity=".267" stroke-width=".745" d="m6.5.5 35 .003v44.003h-35z" transform="matrix(1.3428 0 0 1.3408 -.228 988.19)"/><rect width="64" height="64" y="988.36" fill="none" opacity=".75" rx="0" ry="0"/></g><g stroke-width=".963" opacity=".75"><path fill="#46a926" d="M13.323 3.603c-.048.049 2.02 4.86 2.02 4.86l-2.02 4.858s-4.86-2.568-4.86-4.859c0-2.29 4.86-4.859 4.86-4.859z" style="isolation:isolate" transform="matrix(2.0346 0 0 2.035 14.777 14.777)"/><path fill="#f22c42" d="M3.604 13.321c.049-.049-2.02-4.859-2.02-4.859l2.02-4.859s4.86 2.569 4.86 4.86c0 2.29-4.86 4.858-4.86 4.858z" style="isolation:isolate" transform="matrix(2.0346 0 0 2.035 14.777 14.777)"/><path fill="#ffda64" d="M13.323 3.603c-.048.049-4.86-2.019-4.86-2.019l-4.86 2.019 4.86 4.86z" style="isolation:isolate" transform="matrix(2.0346 0 0 2.035 14.777 14.777)"/><path fill="#2f5fdd" d="m3.604 13.321 4.86 2.013s4.81-2.062 4.86-2.013l-4.86-4.859z" style="isolation:isolate" transform="matrix(2.0346 0 0 2.035 14.777 14.777)"/><path fill="#a6d74f" d="M8.464 1.587a6.846 6.846 0 0 0 2.019 4.862l2.845-2.844a6.88 6.88 0 0 0-4.861-2.018z" style="isolation:isolate" transform="matrix(2.0346 0 0 2.035 14.777 14.777)"/><path fill="#76c22b" d="m13.328 3.605-2.845 2.844a6.84 6.84 0 0 0 4.863 2.012 6.88 6.88 0 0 0-2.018-4.856z" style="isolation:isolate" transform="matrix(2.0346 0 0 2.035 14.777 14.777)"/><path fill="#1463a5" d="M10.476 10.481a6.85 6.85 0 0 0-2.019 4.862h.069a6.88 6.88 0 0 0 4.8-2.013z" style="isolation:isolate" transform="matrix(2.0346 0 0 2.035 14.777 14.777)"/><path fill="#2b898f" d="M15.346 8.469a6.84 6.84 0 0 0-4.87 2.012l2.85 2.85a6.88 6.88 0 0 0 2.02-4.862z" style="isolation:isolate" transform="matrix(2.0346 0 0 2.035 14.777 14.777)"/><path fill="#9b33ae" d="M1.587 8.463a6.88 6.88 0 0 0 0 .003 6.88 6.88 0 0 0 2.014 4.857l2.85-2.848a6.839 6.839 0 0 0-4.864-2.011z" style="isolation:isolate" transform="matrix(2.0346 0 0 2.035 14.777 14.777)"/><path fill="#7839b7" d="M6.45 10.475 3.6 13.323a6.88 6.88 0 0 0 4.826 2.02h.043a6.85 6.85 0 0 0-2.019-4.868z" style="isolation:isolate" transform="matrix(2.0346 0 0 2.035 14.777 14.777)"/><path fill="#fdc92b" d="M8.467 1.587a6.88 6.88 0 0 0-4.858 2.015l2.848 2.847a6.85 6.85 0 0 0 2.019-4.861 6.88 6.88 0 0 0-.01 0z" style="isolation:isolate" transform="matrix(2.0346 0 0 2.035 14.777 14.777)"/><path fill="#f34f17" d="M3.609 3.602a6.88 6.88 0 0 0-2.021 4.859 6.84 6.84 0 0 0 4.869-2.012z" style="isolation:isolate" transform="matrix(2.0346 0 0 2.035 14.777 14.777)"/></g><circle cx="32" cy="32" r="10" fill="#fff" opacity=".35" style="paint-order:fill markers stroke"/></svg>