<svg xmlns="http://www.w3.org/2000/svg" width="64" height="64"><rect width="64" height="64" y="-.012" fill="none" opacity=".75" rx="0" ry="0"/><path fill="#47cffb" d="M9 1.002H55v59H9.003v-59z" color="#000" overflow="visible"/><path fill="none" stroke="#359bbc" stroke-linecap="round" stroke-linejoin="round" stroke-width="1.002" d="m8.5.499 47 .004V60.5H8.502V.499z" color="#000" overflow="visible"/><g stroke-width=".132" opacity=".4"><path d="M6.01 3.988v1.559h1.558V3.988zm2 0v1.559h1.558V3.988zm4.26 1.284a1.5 1.5 0 0 0-.602 1.622A1.5 1.5 0 0 0 13 8a1.5 1.5 0 0 0 1.412 1 1.5 1.5 0 0 0 1.412-1 1.5 1.5 0 0 0-1.412-1 1.5 1.5 0 0 0-.848.266A1.5 1.5 0 0 0 12.27 5.27zM13 8H1c0 3.314 2.686 5 6 5s6-1.686 6-5zM3.441 5.996v1.559h1.56V5.996zm2 0v1.559h1.56V5.996zm2 0v1.559h1.56V5.996zm2 0v1.559h1.56V5.996zM3.501 9a.5.5 0 0 1 .5.5.5.5 0 0 1-.5.5.5.5 0 0 1-.5-.5.5.5 0 0 1 .5-.5z" color="#000" opacity="1" style="isolation:auto;mix-blend-mode:normal" transform="matrix(2 0 0 2 15.176 13.513)"/></g></svg>