<svg xmlns="http://www.w3.org/2000/svg" width="64" height="64" viewBox="0 0 16.933 16.933"><g transform="translate(0 -261.5) scale(.26458)"><path fill="#fafafa" d="m8.991 989.37 46.01.004v57.985H8.992V989.37z"/><path fill="none" stroke="#4f6698" stroke-linejoin="round" stroke-opacity=".267" stroke-width=".745" d="m6.5.5 35 .003v44.003h-35z" transform="matrix(1.3428 0 0 1.3408 -.228 988.19)"/><rect width="64" height="64" y="988.36" fill="none" opacity=".75" rx="0" ry="0"/></g><path fill="gray" d="M5.16 4.763v.529h.396c.184 0 .334-.012.48.034s.263.175.323.366c.12.381.123 1.068.123 2.513 0 .55-.004.964-.012 1.32h.006l-.002.134c-.009.562-.025 1.132-.057 1.328a.727.727 0 0 1-.428.574 1.228 1.228 0 0 1-.426.08c-.186.009-.309.003-.403 0v.53h3.703v-.53c-.096.002-.225.007-.402 0-.33-.014-.52-.115-.666-.261-.098-.098-.167-.232-.2-.443-.034-.212-.046-.778-.054-1.278v-.928h.396c.542 0 .987.12 1.24.45l.01.011.005.013c.174.372.192.767.195 1.113h.535V6.88h-.53v.153c0 .408-.147.72-.41.91-.264.19-.644.394-1.045.26h-.396v-2.91h1.19c1.05 0 1.5-.008 1.787.16l.011.007.01.009c.338.301.52.625.611.97.08.304.09.626.091.97h.532V4.763z"/></svg>