<?xml version="1.0" encoding="UTF-8" standalone="no"?>
<!-- Created with Inkscape (http://www.inkscape.org/) -->

<svg
   xmlns:dc="http://purl.org/dc/elements/1.1/"
   xmlns:cc="http://creativecommons.org/ns#"
   xmlns:rdf="http://www.w3.org/1999/02/22-rdf-syntax-ns#"
   xmlns:svg="http://www.w3.org/2000/svg"
   xmlns="http://www.w3.org/2000/svg"
   xmlns:xlink="http://www.w3.org/1999/xlink"
   xmlns:sodipodi="http://sodipodi.sourceforge.net/DTD/sodipodi-0.dtd"
   xmlns:inkscape="http://www.inkscape.org/namespaces/inkscape"
   width="64"
   height="64"
   viewBox="0 0 16.933333 16.933334"
   version="1.1"
   id="svg3222"
   inkscape:version="0.92.4 (5da689c313, 2019-01-14)"
   sodipodi:docname="text-x-cpp.svg">
  <defs
     id="defs3216">
    <linearGradient
       id="linearGradient2490-6-6">
      <stop
         id="stop2492-1-04"
         style="stop-color:#791235;stop-opacity:1"
         offset="0" />
      <stop
         id="stop2494-0-8"
         style="stop-color:#dd3b27;stop-opacity:1"
         offset="1" />
    </linearGradient>
    <linearGradient
       id="linearGradient3316-1">
      <stop
         id="stop3318-0"
         style="stop-color:#ffffff;stop-opacity:1;"
         offset="0" />
      <stop
         offset="0.09090909"
         style="stop-color:#ffffff;stop-opacity:0.23529412;"
         id="stop3320-8" />
      <stop
         id="stop3322-1"
         style="stop-color:#ffffff;stop-opacity:0.15686275;"
         offset="0.9545455" />
      <stop
         id="stop3324-6"
         style="stop-color:#ffffff;stop-opacity:0.39215687;"
         offset="1" />
    </linearGradient>
    <linearGradient
       inkscape:collect="always"
       xlink:href="#linearGradient2490-6-6"
       id="linearGradient7535"
       gradientUnits="userSpaceOnUse"
       x1="30"
       y1="34.716728"
       x2="30"
       y2="15.569297" />
    <linearGradient
       inkscape:collect="always"
       xlink:href="#linearGradient3316-1"
       id="linearGradient7537"
       gradientUnits="userSpaceOnUse"
       x1="27.823339"
       y1="14.36416"
       x2="27.823339"
       y2="34.008301" />
  </defs>
  <sodipodi:namedview
     id="base"
     pagecolor="#ffffff"
     bordercolor="#666666"
     borderopacity="1.0"
     inkscape:pageopacity="0.0"
     inkscape:pageshadow="2"
     inkscape:zoom="7.9195959"
     inkscape:cx="25.552881"
     inkscape:cy="44.042066"
     inkscape:document-units="mm"
     inkscape:current-layer="layer1"
     showgrid="true"
     units="px"
     inkscape:window-width="1366"
     inkscape:window-height="710"
     inkscape:window-x="0"
     inkscape:window-y="0"
     inkscape:window-maximized="1">
    <inkscape:grid
       type="xygrid"
       id="grid885" />
  </sodipodi:namedview>
  <metadata
     id="metadata3219">
    <rdf:RDF>
      <cc:Work
         rdf:about="">
        <dc:format>image/svg+xml</dc:format>
        <dc:type
           rdf:resource="http://purl.org/dc/dcmitype/StillImage" />
        <dc:title></dc:title>
      </cc:Work>
    </rdf:RDF>
  </metadata>
  <g
     inkscape:label="Layer 1"
     inkscape:groupmode="layer"
     id="layer1"
     transform="translate(0,-280.06665)">
    <g
       transform="matrix(0.26458333,0,0,0.26458333,1.0666667e-7,18.562493)"
       id="text-x-preview_64"
       inkscape:label="#g4141">
      <g
         transform="matrix(1.3428376,0,0,1.340755,-0.22814694,988.19153)"
         id="layer1-1-7"
         inkscape:label="Layer 1">
        <path
           inkscape:connector-curvature="0"
           style="display:inline;fill:#fafafa;fill-opacity:1;stroke:none;stroke-width:0.99992186;stroke-linecap:butt;stroke-linejoin:round;stroke-miterlimit:4;stroke-dasharray:none;stroke-dashoffset:0;stroke-opacity:0.42452829"
           id="path4160-2"
           d="m 6.8655256,0.87983895 c 7.8515454,0 34.2636264,0.002756 34.2636264,0.002756 l 4e-5,43.24831005 c 0,0 -22.842445,0 -34.2636664,0 0,-14.417024 0,-28.834046 0,-43.25106605 z"
           sodipodi:nodetypes="ccccc" />
        <path
           inkscape:connector-curvature="0"
           style="display:inline;fill:none;fill-opacity:1;stroke:#4f6698;stroke-width:0.74521309;stroke-linecap:butt;stroke-linejoin:round;stroke-miterlimit:4;stroke-dasharray:none;stroke-dashoffset:0;stroke-opacity:0.26666667"
           id="path4160-3-1"
           d="m 6.4999609,0.49996093 c 8.0202951,0 35.0000391,0.0028 35.0000391,0.0028 l 4.2e-5,44.00280307 c 0,0 -23.333387,0 -35.0000811,0 0,-14.668535 0,-29.33707 0,-44.00560307 z"
           sodipodi:nodetypes="ccccc" />
      </g>
      <rect
         ry="2.17285e-05"
         rx="2.17285e-05"
         y="988.36218"
         x="0"
         height="63.999996"
         width="64"
         id="rect4139"
         style="opacity:0.75;fill:none;fill-opacity:0.56122448;stroke:none;stroke-width:1;stroke-linecap:butt;stroke-linejoin:miter;stroke-miterlimit:4;stroke-dasharray:none;stroke-dashoffset:0;stroke-opacity:1" />
    </g>
    <g
       id="g1153"
       transform="translate(3.9781471,4.3665658)">
      <g
         transform="matrix(0.26458333,0,0,0.26458333,-3.9701853,275.56873)"
         id="g7531"
         inkscape:label="Layer 1"
         style="fill:#b4bfd8;fill-opacity:0.54901961">
        <g
           inkscape:label="Layer 1"
           id="g7529"
           transform="translate(0.00542589,-3.9798056e-6)"
           style="fill:#b4bfd8;fill-opacity:0.54901961">
          <g
             inkscape:label="Layer 1"
             id="g7509"
             transform="translate(-0.0089737,-988.35308)"
             style="fill:#b4bfd8;fill-opacity:0.54901961">
            <g
               inkscape:label="Layer 1"
               id="g7507"
               transform="matrix(1.34253,0,0,1.3410074,-0.21717414,988.18231)"
               style="fill:#b4bfd8;fill-opacity:0.54901961" />
          </g>
          <g
             style="fill:#b4bfd8;fill-opacity:0.54901961"
             id="g7523">
            <path
               inkscape:connector-curvature="0"
               style="display:inline;fill:#b4bfd8;fill-opacity:0.54901961;stroke:none"
               d="m 15,9 v 1 h 3.189283 V 9 Z m 3.608926,0 v 1 h 3.021426 V 9 Z m 3.441069,0 v 1 h 2.643748 V 9 Z m 3.063391,0 v 1 h 1.174999 V 9 Z m 1.594642,0 v 1 h 2.601784 V 9 Z m 3.063391,0 v 1 H 36.4857 V 9 Z M 15,12 v 1 h 5.077675 v -1 z m 5.581246,0 v 1 h 2.433927 v -1 z m 2.895534,0 v 1 h 1.133035 v -1 z m 1.636606,0 v 1 h 2.182141 v -1 z m 2.685712,0 v 1 h 2.182142 v -1 z m 2.643749,0 v 1 h 3.566962 v -1 z m 4.070533,0 v 1 h 4.658032 V 12 Z M 15,15 v 1 h 5.62321 v -1 z m 6.042853,0 v 1 h 6.042853 V 15 Z M 15,18 v 1 h 3.105355 v -1 z m 3.524997,0 v 1 h 2.895534 v -1 z m 3.315177,0 v 1 h 2.559819 v -1 z m 5.245532,15 v 1 h 3.147319 v -1 z m 3.566962,0 v 1 h 2.937498 v -1 z m 3.357141,0 v 1 H 36.4857 v -1 z m -6.924103,3 v 1 h 2.517856 v -1 z m 2.937498,0 v 1 H 36.4857 v -1 z m 6.882139,0 v 1 h 4.951782 v -1 z m -9.819637,3 v 1 h 3.273212 v -1 z m 3.734819,0 v 1 h 5.749103 v -1 z m 6.168746,0 v 1 h 3.94464 v -1 z m -9.903565,3 v 1 h 2.517856 v -1 z m 2.937498,0 v 1 h 2.55982 v -1 z m 2.979462,0 v 1 h 3.650891 v -1 z m 4.070534,0 v 1 h 0.755356 v -1 z m 1.174999,0 v 1 h 4.741961 v -1 z m -11.246421,9 v 1 h 3.273212 v -1 z m 3.692854,0 v 1 h 3.021427 v -1 z m 3.483034,0 v 1 h 2.601784 v -1 z m 3.021426,0 v 1 h 4.154462 v -1 z m 4.616069,0 v 1 h 6.756245 v -1 z"
               id="path7511"
               sodipodi:nodetypes="ccccccccccccccccccccccccccccccccccccccccccccccccccccccccccccccccccccccccccccccccccccccccccccccccccccccccccccccccccccccccccccccccccccccccccccccccccccccccccccccccccccccccccccccccccccccccc" />
            <path
               inkscape:connector-curvature="0"
               style="display:inline;fill:#b4bfd8;fill-opacity:0.54901961;stroke:none"
               d="m 15,21 v 1 h 4.112497 v -1 z m 0,3 v 1 h 4.154461 v -1 z"
               id="path7513"
               sodipodi:nodetypes="cccccccccc" />
            <path
               inkscape:connector-curvature="0"
               style="display:inline;fill:#b4bfd8;fill-opacity:0.54901961;stroke:none"
               d="m 19.574104,21 v 1 h 7.511602 v -1 z m 0.04196,3 v 1 h 6.840174 v -1 z m 1.594642,21 v 1 h 6.168746 v -1 z m 6.630353,0 v 1 h 2.433927 v -1 z m 2.895534,0 v 1 h 5.791067 v -1 z m 6.252674,0 v 1 h 3.986605 v -1 z m 4.406247,0 v 1 h 1.552678 v -1 z m 2.014285,0 v 1 h 0.923213 v -1 z m 1.342856,0 v 1 h 2.475891 V 45 Z M 23.22499,48 v 1 h 1.091071 v -1 z m 1.384821,0 v 1 h 2.182141 v -1 z m 2.517855,0 v 1 h 2.182142 v -1 z m 2.85357,0 v 1 h 3.483033 v -1 z m 3.902676,0 v 1 h 4.53214 v -1 z m 5.161604,0 v 1 h 3.063391 v -1 z m 3.441069,0 v 1 h 0.713392 v -1 z"
               id="path7515"
               sodipodi:nodetypes="cccccccccccccccccccccccccccccccccccccccccccccccccccccccccccccccccccccccccccccccc" />
            <path
               inkscape:connector-curvature="0"
               style="display:inline;fill:#b4bfd8;fill-opacity:0.54901961;stroke:none"
               id="path7517"
               d="m 15,51 h 4.077913 v 1 H 15 Z"
               sodipodi:nodetypes="ccccc" />
            <path
               inkscape:connector-curvature="0"
               style="display:inline;fill:#b4bfd8;fill-opacity:0.54901961;stroke:none"
               d="m 18.692854,27 v 1 h 3.021427 V 27 Z M 15,30 v 1 h 1.342856 v -1 z m 4.23839,3 v 1 h 2.475891 v -1 z m 0.167857,3 v 1 h 3.65089 v -1 z m -0.461607,3 v 1 h 2.769641 v -1 z m -0.503571,3 v 1 h 2.853569 V 42 Z M 15,45 v 1 h 5.749103 v -1 z m 0,3 v 1 h 4.951782 v -1 z m 5.32946,0 v 1 h 2.391963 v -1 z m -0.839285,3 v 1 h 4.490176 v -1 z"
               id="path7519"
               sodipodi:nodetypes="cccccccccccccccccccccccccccccccccccccccccccccccccc" />
            <path
               inkscape:connector-curvature="0"
               style="display:inline;fill:#b4bfd8;fill-opacity:0.54901961;stroke:none"
               d="m 15,27 v 1 h 3.147319 v -1 z m 0,6 v 1 h 3.692854 v -1 z m 0,3 v 1 h 3.94464 v -1 z m 0,3 v 1 h 3.399105 v -1 z m 0,3 v 1 h 2.979462 v -1 z"
               id="path7521"
               sodipodi:nodetypes="ccccccccccccccccccccccccc" />
          </g>
          <g
             id="g7525"
             style="font-style:normal;font-variant:normal;font-weight:bold;font-stretch:normal;font-size:20px;line-height:125%;font-family:'Droid Sans';-inkscape-font-specification:'Droid Sans Bold';letter-spacing:0px;word-spacing:0px;fill:#b4bfd8;fill-opacity:0.54901961;stroke:url(#linearGradient7535)"
             transform="translate(7.5,8.5)" />
          <g
             transform="matrix(0.87671233,0,0,0.87757116,11.10861,11.662581)"
             style="font-style:normal;font-variant:normal;font-weight:bold;font-stretch:normal;font-size:20px;line-height:125%;font-family:'Droid Sans';-inkscape-font-specification:'Droid Sans Bold';letter-spacing:0px;word-spacing:0px;fill:#b4bfd8;fill-opacity:0.54901961;stroke:url(#linearGradient7537);stroke-width:1.14006674;stroke-opacity:1"
             id="g7527" />
        </g>
      </g>
      <g
         transform="matrix(0.26458333,0,0,0.26458333,-3.9687619,275.56873)"
         id="text4322-9"
         style="font-style:normal;font-weight:bold;font-size:15px;line-height:125%;font-family:Sans;-inkscape-font-specification:'Sans Bold';letter-spacing:0px;word-spacing:0px;fill:#8fca35;fill-opacity:1;stroke:none;stroke-width:1px;stroke-linecap:butt;stroke-linejoin:miter;stroke-opacity:1">
        <g
           style="fill:#8fca35;fill-opacity:1"
           id="g4174">
          <path
             d="m 24.301875,33 c -1.22,1.26 -2.24,2.009999 -3.66,2.009999 -2.74,0 -4.96,-2.28 -4.96,-5.04 0,-1.2 0.46,-2.48 1.22,-3.36 0.9,-1.06 2.18,-1.62 3.68,-1.62 1.72,0 2.88,0.710001 3.88,2.010001 h 3.06 c -0.58,-1.28 -1.1,-1.98 -2.1,-2.8 -1.36,-1.1 -3.1,-1.850001 -4.9,-1.850001 -4.18,0 -7.6,3.42 -7.6,7.6 0,4.28 3.46,7.7 7.78,7.7 3.04,0 5.66,-1.949999 6.82,-4.649999 z"
             style="font-style:normal;font-variant:normal;font-weight:600;font-stretch:normal;font-size:20px;font-family:'URW Gothic';-inkscape-font-specification:'URW Gothic Semi-Bold';fill:#8fca35;fill-opacity:1"
             id="path4331-1"
             inkscape:connector-curvature="0"
             sodipodi:nodetypes="csscscccssscc" />
          <path
             d="m 33,29 h -4 v 2 h 4 v 4 h 2 v -4 h 4 v -2 h -4 v -4 h -2 z"
             style="font-style:normal;font-variant:normal;font-weight:600;font-stretch:normal;font-size:20px;font-family:'URW Gothic';-inkscape-font-specification:'URW Gothic Semi-Bold';fill:#8fca35;fill-opacity:1"
             id="path4333-7"
             inkscape:connector-curvature="0"
             sodipodi:nodetypes="ccccccccccccc" />
          <path
             d="m 45,29 h -4 v 2 h 4 v 4 h 2 v -4 h 4 v -2 h -4 v -4 h -2 z"
             style="font-style:normal;font-variant:normal;font-weight:600;font-stretch:normal;font-size:20px;font-family:'URW Gothic';-inkscape-font-specification:'URW Gothic Semi-Bold';fill:#8fca35;fill-opacity:1"
             id="path4335-7"
             inkscape:connector-curvature="0"
             sodipodi:nodetypes="ccccccccccccc" />
        </g>
      </g>
    </g>
  </g>
</svg>
