<svg xmlns="http://www.w3.org/2000/svg" width="64" height="64" viewBox="0 0 16.933 16.933"><g transform="translate(0 -261.5) scale(.26458)"><path fill="#fafafa" d="m8.991 989.371 46.01.004v57.985H8.992v-57.989z"/><path fill="none" stroke="#4f6698" stroke-linejoin="round" stroke-opacity=".267" stroke-width=".745" d="m6.5.5 35 .003v44.003h-35V.5z" transform="matrix(1.3428 0 0 1.3408 -.228 988.19)"/><rect width="64" height="64" y="988.36" fill="none" opacity=".75" rx="0" ry="0"/></g><rect width="6.879" height="1.058" x="5.026" y="2.911" fill="#b4bfd8" fill-opacity=".493" rx=".313" ry=".241"/><path fill="#7f92bc" d="M5.82 3.44h.62v.265h-.62zm1.058 0h.516v.265h-.516zm1.058 0h.507v.265h-.507z"/><rect width="2.646" height="2.117" x="9.127" y="5.954" fill="none" stroke="#b4bfd8" stroke-width=".265" rx="0" ry="0"/><path fill="none" stroke="#b4bfd8" stroke-width=".265" d="M12.831 2.118v12.7M3.438 2.249h9.26m-9.26 11.378h10.055M4.1 1.058v13.76"/><path fill="#7f92bc" d="M8.995 3.44h.506v.265h-.506z"/><path fill="#b4bfd8" d="M5.026 4.763h.561v.265h-.561zm.784 0h.56v.265h-.56zm.776 0h.33v.265h-.33zm.568 0h.56v.265h-.56zm.776 0h1.101v.265h-1.1zm1.345 0h1.076v.265H9.275zM5.026 7.938h.844v.265h-.844zm1.049 0h.576v.265h-.576zm.793 0h.319v.265h-.32zm.55 0h.77v.265h-.77zM5.026 6.88h1.092v.264H5.026zm1.332 0h.823v.264h-.823zm1.037 0h.788v.264h-.788zm-2.369.528h1.345v.265H5.026zm1.54 0h.871v.265h-.87zm1.106 0h.286v.265h-.286zM5.026 9.525h1.109v.265h-1.11zm1.314 0h.285v.265H6.34zm.501 0h.61v.265h-.61zm.82 0h1.106v.265H7.661zm1.32 0h.844v.265h-.844zm1.049 0h.339v.265h-.339zm-5.004-.529h.837v.265h-.837zm1.055 0h1.107v.265H6.081zm1.325 0h.57v.265h-.57zm2.379 0h.305v.265h-.305zm.523 0h.59v.265h-.59zm-2.113 0h1.372v.265H8.195zm-3.169 1.058h1.077v.265H5.026zm1.277 0h.868v.265h-.868zm1.085 0h.581v.265h-.581zm.798 0h.264v.265h-.264zm.534 0h.568v.265H8.72zm.785 0h.575v.265h-.575zm.791 0h.847v.265h-.847zm-5.27-1.587h1.107v.264H5.026zm1.328 0h1.084v.264H6.354zm1.331 0h.516v.264h-.516zM5.026 5.821h.82v.265h-.82zm1.049 0h.576v.265h-.576zm.819 0h.557v.265h-.557zm.789 0h.266v.265h-.266zm-2.657-.529h1.1v.265h-1.1zm1.328 0h1.084v.265H6.354zm1.331 0h.516v.265h-.516zM5.026 6.35h1.107v.265H5.026zm1.328 0h1.057v.265H6.354zm1.304 0h.538v.265h-.538zm3.471 2.646h.816v.265h-.816zm-.564-4.233h1.35v.265h-1.35zm.021 4.762h1.082v.265h-1.082zm.775.529h.556v.265h-.556zm-6.335 1.059h1.109v.265h-1.11zm1.314 0h.285v.265H6.34zm.501 0h.61v.265h-.61zm.82 0h1.106v.265H7.661zm1.32 0h.844v.265h-.844zm-3.955-.529h.837v.264h-.837zm1.055 0h1.107v.264H6.081zm1.325 0h.57v.264h-.57zm.789 0h1.372v.264H8.195zm-3.169 1.058h1.077v.264H5.026zm1.277 0h.868v.264h-.868zm1.085 0h.581v.264h-.581zm.798 0h.264v.264h-.264zm.534 0h.568v.264H8.72zm.785 0h.575v.264h-.575zm.791 0h.847v.264h-.847zm1.065 0h.556v.264h-.556zM5.02 12.7h1.11v.265H5.02zm1.314 0h.285v.265h-.285zm.501 0h.61v.265h-.61zm.82 0h1.106v.265H7.655zm1.32 0h.844v.265h-.844zm-3.955-.529h.837v.265H5.02zm1.055 0h1.107v.265H6.075zm1.325 0h.57v.265H7.4zm.788 0h1.373v.265H8.188z"/></svg>