<svg xmlns="http://www.w3.org/2000/svg" width="64" height="64"><g transform="translate(0 -988.36)"><path fill="#fafafa" d="m8.991 989.371 46.01.004v57.985H8.992v-57.989z"/><path fill="none" stroke="#4f6698" stroke-linejoin="round" stroke-opacity=".267" stroke-width=".745" d="m6.5.5 35 .003v44.003h-35V.5z" transform="matrix(1.3428 0 0 1.3408 -.228 988.19)"/><rect width="64" height="64" y="988.36" fill="none" opacity=".75" rx="0" ry="0"/></g><path fill="#b4bfd8" fill-opacity=".549" d="M16 9v1h3.19V9zm3.609 0v1h3.021V9zm3.441 0v1h2.644V9zm3.063 0v1h1.175V9zm1.595 0v1h2.602V9zm3.063 0v1h6.715V9zM16 12v1h5.078v-1zm5.581 0v1h2.434v-1zm2.896 0v1h1.133v-1zm1.636 0v1h2.183v-1zm2.686 0v1h2.182v-1zm2.644 0v1h3.567v-1zm4.07 0v1h4.658v-1zM16 15v1h5.623v-1zm6.043 0v1h6.043v-1zM16 18v1h3.105v-1zm3.525 0v1h2.896v-1zm3.315 0v1h2.56v-1zm5.246 15v1h3.147v-1zm3.567 0v1h2.937v-1zm3.357 0v1h2.476v-1zm-6.924 3v1h2.518v-1zm2.937 0v1h6.463v-1zm6.882 0v1h4.952v-1zm-9.82 3v1h3.274v-1zm3.736 0v1h5.749v-1zm6.168 0v1h3.945v-1zm-9.903 3v1h2.518v-1zm2.937 0v1h2.56v-1zm2.98 0v1h3.65v-1zm4.07 0v1h.756v-1zm1.175 0v1h4.742v-1zm-11.246 9v1h3.273v-1zm3.693 0v1h3.021v-1zm3.483 0v1h2.601v-1zm3.021 0v1h4.155v-1zm4.616 0v1h6.756v-1zM16 21v1h4.112v-1zm0 3v1h4.154v-1zm4.574-3v1h7.512v-1zm.042 3v1h6.84v-1zm1.595 21v1h6.168v-1zm6.63 0v1h2.434v-1zm2.896 0v1h5.79v-1zm6.252 0v1h3.987v-1zm4.407 0v1h1.552v-1zm2.014 0v1h.923v-1zm1.343 0v1h2.476v-1zm-21.528 3v1h1.091v-1zm1.385 0v1h2.182v-1zm2.518 0v1h2.182v-1zm2.853 0v1h3.483v-1zm3.903 0v1h4.532v-1zm5.162 0v1h3.063v-1zm3.44 0v1h.714v-1zM16 51h4.078v1H16zm3.693-24v1h3.021v-1zM16 30v1h1.343v-1zm4.238 3v1h2.476v-1zm.168 3v1h3.651v-1zm-.461 3v1h2.77v-1zm-.504 3v1h2.854v-1zM16 45v1h5.75v-1zm0 3v1h4.952v-1zm5.33 0v1h2.391v-1zm-.84 3v1h4.49v-1zM16 27v1h3.147v-1zm0 6v1h3.693v-1zm0 3v1h3.945v-1zm0 3v1h3.4v-1zm0 3v1h2.98v-1z"/><g fill="#f55" aria-label="SPEC"><path d="M17.115 34.519c2.606 0 4.146-1.57 4.146-3.414 0-1.63-.9-2.5-2.271-3.064l-1.479-.624c-.96-.381-1.768-.671-1.768-1.479 0-.747.64-1.189 1.631-1.189.93 0 1.677.336 2.393.93l1.143-1.417c-.914-.93-2.225-1.448-3.536-1.448-2.286 0-3.902 1.417-3.902 3.261 0 1.646 1.144 2.56 2.287 3.033l1.509.64c1.005.427 1.691.686 1.691 1.525 0 .792-.624 1.295-1.798 1.295-.99 0-2.058-.503-2.865-1.25L13 32.873a6.01 6.01 0 0 0 4.115 1.646zM23.243 34.306h2.256v-4.008h1.509c2.423 0 4.359-1.159 4.359-3.735 0-2.667-1.92-3.535-4.42-3.535h-3.704zm2.256-5.792v-3.703h1.28c1.555 0 2.378.442 2.378 1.753 0 1.295-.747 1.95-2.302 1.95zM33.423 34.306h7.087v-1.89H35.68v-3.018h3.962v-1.89H35.68v-2.606h4.663v-1.874h-6.919zM47.403 34.519c1.463 0 2.667-.58 3.597-1.661l-1.189-1.402c-.61.655-1.372 1.112-2.332 1.112-1.783 0-2.941-1.478-2.941-3.932 0-2.423 1.28-3.887 2.987-3.887.854 0 1.509.397 2.073.945l1.189-1.432c-.732-.762-1.875-1.448-3.308-1.448-2.85 0-5.243 2.18-5.243 5.898 0 3.765 2.317 5.807 5.167 5.807z"/></g></svg>