<svg xmlns="http://www.w3.org/2000/svg" width="64" height="64" viewBox="0 0 16.933 16.933"><g transform="translate(0 -261.5) scale(.26458)"><path fill="#fafafa" d="m8.991 989.371 46.01.004v57.985H8.992v-57.989z"/><path fill="none" stroke="#4f6698" stroke-linejoin="round" stroke-opacity=".267" stroke-width=".745" d="m6.5.5 35 .003v44.003h-35V.5z" transform="matrix(1.3428 0 0 1.3408 -.228 988.19)"/><rect width="64" height="64" y="988.36" fill="none" opacity=".75" rx="0" ry="0"/></g><path fill="#b4bfd8" d="M4.233 2.381v.265h.844V2.38zm.955 0v.265h.8V2.38zm.91 0v.265h.7V2.38zm.811 0v.265h.311V2.38zm.422 0v.265h.688V2.38zm.81 0v.265h1.777V2.38zm-3.908.794v.265h1.344v-.265zm1.477 0v.265h.644v-.265zm.766 0v.265h.3v-.265zm.433 0v.265h.578v-.265zm.71 0v.265h.578v-.265zm.7 0v.265h.944v-.265zm1.077 0v.265h1.233v-.265zm-5.163.794v.264h1.488V3.97zm1.6 0v.264H7.43V3.97zm-1.6.793v.265h.822v-.265zm.933 0v.265h.766v-.265zm.877 0v.265h.677v-.265zm1.388 3.97v.264h.833V8.73zm.944 0v.264h.777V8.73zm.888 0v.264h.655V8.73zm-1.832.793v.265h.666v-.265zm.777 0v.265h1.71v-.265zm1.821 0v.265h1.31v-.265zm-2.598.794v.264h.866v-.264zm.988 0v.264H9.94v-.264zm1.632 0v.264h1.044v-.264zm-2.62.793v.265h.666v-.265zm.777 0v.265h.678v-.265zm.789 0v.265h.966v-.265zm1.077 0v.265h.2v-.265zm.31 0v.265h1.255v-.265zM7.41 13.494v.264h.866v-.264zm.977 0v.264h.8v-.264zm.921 0v.264h.689v-.264zm.8 0v.264h1.099v-.264zm1.221 0v.264h1.788v-.264zM4.233 5.556v.265h1.088v-.265zm0 .794v.265h1.1V6.35zm1.211-.794v.265H7.43v-.265zm.01.794v.265h1.81V6.35zm.423 5.556v.265h1.632v-.265zm1.754 0v.265h.644v-.265zm.766 0v.265h1.532v-.265zm1.654 0v.265h1.055v-.265zm1.166 0v.265h.411v-.265zm.533 0v.265h.244v-.265zm.355 0v.265h.655v-.265zM6.41 12.7v.265h.288V12.7zm.366 0v.265h.577V12.7zm.666 0v.265h.577V12.7zm.755 0v.265h.922V12.7zm1.033 0v.265h1.199V12.7zm1.365 0v.265h.81V12.7zm.91 0v.265h.19V12.7zm-7.272.794h1.08v.264h-1.08zm.977-6.35v.264h.8v-.264zm-.977.793v.265h.356v-.265zm1.122.794v.265h.655V8.73zm.044.794v.265h.966v-.265zm-.122.794v.264h.733v-.264zm-.133.793v.265h.755v-.265zm-.91.794v.265h1.52v-.265zm0 .794v.265h1.31V12.7zm1.41 0v.265h.632V12.7zm-.223.794v.264H6.61v-.264zm-1.188-6.35v.264h.833v-.264zm0 1.587v.265h.977V8.73zm0 .794v.265h1.044v-.265zm0 .794v.264h.9v-.264zm0 .793v.265h.789v-.265z"/><path fill="#fafafa" d="M3.704 3.704h3.97v.529h-3.97zM3.968 4.498h3.704v.529H3.968zm5.292 7.408h3.704v.529H9.26z"/><path fill="#525252" d="M8.185 4.496a.267.267 0 1 1 .535 0 .267.267 0 0 1-.535 0m-3.19 2.421a.267.267 0 1 1 .534 0 .267.267 0 0 1-.534 0m6.38.013a.267.267 0 0 1 .535 0 .267.267 0 0 1-.535 0m-5.607.367a.245.245 0 0 0 .124-.322l-.118-.269h.467V8.81h-.942a3.293 3.293 0 0 1-.107-1.257zm1.952.052v-.62h1.112c.057 0 .405.066.405.326 0 .216-.268.293-.487.293zm-1.517 3.338a.267.267 0 1 1 .535 0 .267.267 0 0 1-.535 0m3.963.012a.267.267 0 0 1 .535 0 .267.267 0 0 1-.535 0m.083-.607a.244.244 0 0 0-.29.188l-.134.626a3.293 3.293 0 0 1-2.746-.013l-.134-.626a.243.243 0 0 0-.29-.188l-.553.119a3.293 3.293 0 0 1-.286-.337h2.691c.03 0 .05-.006.05-.033v-.952c0-.028-.02-.034-.05-.034H7.72V8.24h.851c.078 0 .415.023.524.454l.158.703c.051.155.257.465.477.465h1.389a3.293 3.293 0 0 1-.305.353zm1.494-2.513a3.293 3.293 0 0 1 .007.572h-.338c-.033 0-.047.022-.047.055v.155c0 .366-.206.445-.387.465-.171.02-.362-.072-.386-.177-.1-.57-.27-.692-.534-.903.331-.21.676-.52.676-.935 0-.448-.308-.73-.517-.869a1.462 1.462 0 0 0-.707-.233H6.013a3.293 3.293 0 0 1 1.842-1.04l.412.433a.243.243 0 0 0 .345.008l.461-.44a3.293 3.293 0 0 1 2.255 1.605l-.316.712a.245.245 0 0 0 .124.322zm.787.011-.011-.11.325-.303c.066-.062.041-.186-.043-.217l-.415-.155-.033-.107.259-.36c.053-.073.004-.19-.085-.205l-.438-.07-.052-.1.184-.403c.038-.083-.032-.188-.123-.184l-.444.015-.07-.085.102-.433c.02-.088-.07-.177-.157-.157l-.433.102-.086-.07.016-.444c.003-.09-.102-.16-.184-.123l-.404.184-.098-.053-.072-.438c-.014-.089-.131-.137-.204-.084l-.36.258-.107-.032-.155-.415c-.032-.085-.156-.11-.217-.044l-.303.326-.11-.011-.235-.378c-.047-.077-.174-.077-.22 0l-.235.378-.11.01-.304-.325c-.062-.066-.185-.041-.217.043l-.155.416-.107.032-.36-.259c-.073-.053-.19-.004-.204.085l-.072.438-.098.052-.404-.184c-.082-.037-.187.033-.184.123l.016.444-.086.07-.433-.101c-.088-.02-.177.068-.156.156l.102.433-.07.086-.445-.016c-.09-.003-.16.102-.123.184l.184.404-.052.099-.439.07c-.088.015-.137.132-.084.205l.259.36-.033.107-.415.155c-.085.032-.11.156-.043.217l.325.304-.01.11-.379.234c-.077.047-.077.174 0 .221l.378.234.01.11-.325.304c-.066.062-.041.186.043.218l.415.155.033.107-.259.36c-.052.073-.004.19.085.204l.437.071.053.099-.184.403c-.037.082.033.188.123.184l.444-.015.07.086-.102.433c-.02.087.07.177.157.156l.433-.102.086.07-.016.444c-.003.09.102.16.184.123l.404-.184.098.053.072.438c.014.089.131.137.204.085l.36-.26.107.033.155.415c.032.085.156.11.217.043l.303-.325.11.012.235.378c.047.076.173.076.22 0l.235-.378.11-.012.303.325c.062.066.186.042.217-.043l.155-.415.107-.033.36.26c.073.052.19.004.205-.085l.071-.438.098-.053.404.184c.082.038.188-.032.184-.123l-.015-.444.085-.07.433.102c.088.02.177-.069.157-.156l-.103-.433.07-.086.445.015c.09.004.16-.102.123-.184l-.184-.403.052-.099.438-.071c.09-.014.138-.131.085-.204l-.259-.36.033-.107.415-.155c.084-.032.11-.156.043-.218l-.325-.303.01-.11.379-.234c.076-.047.077-.174 0-.221z"/></svg>