<svg xmlns="http://www.w3.org/2000/svg" width="64" height="64" viewBox="0 0 16.933 16.933"><g transform="translate(0 -261.5) scale(.26458)"><path fill="#fafafa" d="m8.991 989.37 46.01.004v57.985H8.992V989.37z"/><path fill="none" stroke="#4f6698" stroke-linejoin="round" stroke-opacity=".267" stroke-width=".745" d="m6.5.5 35 .003v44.003h-35z" transform="matrix(1.3428 0 0 1.3408 -.228 988.19)"/><rect width="64" height="64" y="988.36" fill="none" opacity=".75" rx="0" ry="0"/></g><g fill="none" stroke="#999" stroke-width=".529" transform="translate(-19.843 2.315)"><ellipse cx="28.31" cy="3.77" stroke-dashoffset="1" stroke-linejoin="round" rx="3.439" ry="1.323"/><path d="M24.87 3.704v4.829"/><g stroke-dashoffset="1" stroke-linejoin="round"><path d="M31.749 5.357a3.44 1.323 0 0 1-1.72 1.146 3.44 1.323 0 0 1-3.44 0 3.44 1.323 0 0 1-1.72-1.146M31.749 6.945a3.44 1.323 0 0 1-1.72 1.145 3.44 1.323 0 0 1-3.44 0 3.44 1.323 0 0 1-1.72-1.145M31.749 8.532a3.44 1.323 0 0 1-1.72 1.146 3.44 1.323 0 0 1-3.44 0 3.44 1.323 0 0 1-1.72-1.146"/></g><path d="M31.749 3.704v4.829"/></g></svg>