<svg xmlns="http://www.w3.org/2000/svg" width="64" height="64"><rect width="64" height="64" y="-.012" fill="none" opacity=".75" rx="0" ry="0"/><path fill="#f9b62a" d="M9 1.002H55v59H9.003v-59z" color="#000" overflow="visible"/><path fill="none" stroke="#bd8d28" stroke-linecap="round" stroke-linejoin="round" stroke-width="1.002" d="m8.5.499 47 .004V60.5H8.502V.499z" color="#000" overflow="visible"/><g fill="#fde8b9" color="#000"><path d="M23 22.052c1.662 0 3 1.338 3 3s-1.338 3-3 3-3-1.338-3-3 1.338-3 3-3m0 1c-1.108 0-2 .892-2 2s.892 2 2 2 2-.892 2-2-.892-2-2-2m0 6.9c1.186 0 2.236.52 2.967 1.336a8.926 8.926 0 0 0-.703.713A2.977 2.977 0 0 0 23 30.95c-1.662 0-3 1.339-3 3v3h3l.016 1h-4.02v-4c0-2.215 1.784-4 4-4M32 24.052c1.662 0 3 1.338 3 3s-1.338 3-3 3-3-1.338-3-3 1.338-3 3-3m0 1c-1.108 0-2 .892-2 2s.892 2 2 2 2-.892 2-2-.892-2-2-2M41 22.052c-1.662 0-3 1.338-3 3s1.338 3 3 3 3-1.338 3-3-1.338-3-3-3m0 1c1.108 0 2 .892 2 2s-.892 2-2 2-2-.892-2-2 .892-2 2-2m0 6.9a3.968 3.968 0 0 0-2.967 1.336c.247.224.482.462.703.713A2.977 2.977 0 0 1 41 30.95c1.662 0 3 1.339 3 3v3h-3l-.016 1h4.02v-4c0-2.215-1.784-4-4-4M32.03 30.982c4.155 0 5.969 2.969 5.969 6.469v1.5h-12v-1.5c0-3.5 1.876-6.47 6.03-6.47m-.016.993c-3.601 0-5.02 2.254-5.02 5.578v.398h10v-.398c0-3.601-1.383-5.578-4.984-5.578"/></g></svg>