<?xml version="1.0" encoding="UTF-8" standalone="no"?>
<!-- Created with Inkscape (http://www.inkscape.org/) -->

<svg
   xmlns:dc="http://purl.org/dc/elements/1.1/"
   xmlns:cc="http://creativecommons.org/ns#"
   xmlns:rdf="http://www.w3.org/1999/02/22-rdf-syntax-ns#"
   xmlns:svg="http://www.w3.org/2000/svg"
   xmlns="http://www.w3.org/2000/svg"
   xmlns:sodipodi="http://sodipodi.sourceforge.net/DTD/sodipodi-0.dtd"
   xmlns:inkscape="http://www.inkscape.org/namespaces/inkscape"
   width="64"
   height="64"
   viewBox="0 0 16.933333 16.933334"
   version="1.1"
   id="svg3222"
   inkscape:version="0.92.4 (5da689c313, 2019-01-14)"
   sodipodi:docname="text-x-authors.svg">
  <defs
     id="defs3216">
    <linearGradient
       id="linearGradient2490-6-6">
      <stop
         id="stop2492-1-04"
         style="stop-color:#791235;stop-opacity:1"
         offset="0" />
      <stop
         id="stop2494-0-8"
         style="stop-color:#dd3b27;stop-opacity:1"
         offset="1" />
    </linearGradient>
    <linearGradient
       id="linearGradient3316-1">
      <stop
         id="stop3318-0"
         style="stop-color:#ffffff;stop-opacity:1;"
         offset="0" />
      <stop
         offset="0.09090909"
         style="stop-color:#ffffff;stop-opacity:0.23529412;"
         id="stop3320-8" />
      <stop
         id="stop3322-1"
         style="stop-color:#ffffff;stop-opacity:0.15686275;"
         offset="0.9545455" />
      <stop
         id="stop3324-6"
         style="stop-color:#ffffff;stop-opacity:0.39215687;"
         offset="1" />
    </linearGradient>
  </defs>
  <sodipodi:namedview
     id="base"
     pagecolor="#ffffff"
     bordercolor="#666666"
     borderopacity="1.0"
     inkscape:pageopacity="0.0"
     inkscape:pageshadow="2"
     inkscape:zoom="11.2"
     inkscape:cx="29.840063"
     inkscape:cy="29.14347"
     inkscape:document-units="mm"
     inkscape:current-layer="layer1"
     showgrid="true"
     units="px"
     inkscape:window-width="1366"
     inkscape:window-height="713"
     inkscape:window-x="0"
     inkscape:window-y="25"
     inkscape:window-maximized="1"
     inkscape:snap-bbox="true"
     inkscape:bbox-nodes="true"
     inkscape:snap-bbox-edge-midpoints="true"
     inkscape:snap-global="false">
    <inkscape:grid
       type="xygrid"
       id="grid885" />
  </sodipodi:namedview>
  <metadata
     id="metadata3219">
    <rdf:RDF>
      <cc:Work
         rdf:about="">
        <dc:format>image/svg+xml</dc:format>
        <dc:type
           rdf:resource="http://purl.org/dc/dcmitype/StillImage" />
        <dc:title />
      </cc:Work>
    </rdf:RDF>
  </metadata>
  <g
     inkscape:label="Layer 1"
     inkscape:groupmode="layer"
     id="layer1"
     transform="translate(0,-280.06665)">
    <g
       transform="matrix(0.26458333,0,0,0.26458333,1.0666667e-7,18.562493)"
       id="text-x-preview_64"
       inkscape:label="#g4141">
      <g
         transform="matrix(1.3428376,0,0,1.340755,-0.22814694,988.19153)"
         id="layer1-1-7"
         inkscape:label="Layer 1">
        <path
           inkscape:connector-curvature="0"
           style="display:inline;fill:#fafafa;fill-opacity:1;stroke:none;stroke-width:0.99992186;stroke-linecap:butt;stroke-linejoin:round;stroke-miterlimit:4;stroke-dasharray:none;stroke-dashoffset:0;stroke-opacity:0.42452829"
           id="path4160-2"
           d="m 6.8655256,0.87983895 c 7.8515454,0 34.2636264,0.002756 34.2636264,0.002756 l 4e-5,43.24831005 c 0,0 -22.842445,0 -34.2636664,0 0,-14.417024 0,-28.834046 0,-43.25106605 z"
           sodipodi:nodetypes="ccccc" />
        <path
           inkscape:connector-curvature="0"
           style="display:inline;fill:none;fill-opacity:1;stroke:#4f6698;stroke-width:0.74521309;stroke-linecap:butt;stroke-linejoin:round;stroke-miterlimit:4;stroke-dasharray:none;stroke-dashoffset:0;stroke-opacity:0.26666667"
           id="path4160-3-1"
           d="m 6.4999609,0.49996093 c 8.0202951,0 35.0000391,0.0028 35.0000391,0.0028 l 4.2e-5,44.00280307 c 0,0 -23.333387,0 -35.0000811,0 0,-14.668535 0,-29.33707 0,-44.00560307 z"
           sodipodi:nodetypes="ccccc" />
      </g>
      <rect
         ry="2.17285e-05"
         rx="2.17285e-05"
         y="988.36218"
         x="0"
         height="63.999996"
         width="64"
         id="rect4139"
         style="opacity:0.75;fill:none;fill-opacity:0.56122448;stroke:none;stroke-width:1;stroke-linecap:butt;stroke-linejoin:miter;stroke-miterlimit:4;stroke-dasharray:none;stroke-dashoffset:0;stroke-opacity:1" />
    </g>
    <rect
       width="0"
       x="-22.796944"
       y="276.23096"
       height="5.8213863"
       style="fill:#6c7a89;stroke-width:0.26458332"
       id="rect4035" />
    <rect
       width="0"
       x="-20.034466"
       y="285.18866"
       height="5.8213863"
       style="fill:#6c7a89;stroke-width:0.26458332"
       id="rect4035-8" />
    <rect
       width="0"
       x="-19.314816"
       y="284.7677"
       height="5.8213863"
       style="fill:#6c7a89;stroke-width:0.26458332"
       id="rect4035-0" />
    <rect
       width="0"
       x="-22.796944"
       y="276.23096"
       height="5.8213863"
       style="fill:#6c7a89;stroke-width:0.26458332"
       id="rect4035-3" />
    <rect
       width="0"
       x="-20.034466"
       y="285.18866"
       height="5.8213863"
       style="fill:#6c7a89;stroke-width:0.26458332"
       id="rect4035-8-9" />
    <rect
       width="0"
       x="-19.314816"
       y="284.7677"
       height="5.8213863"
       style="fill:#6c7a89;stroke-width:0.26458332"
       id="rect4035-0-4" />
    <rect
       width="0"
       x="-22.796944"
       y="276.23096"
       height="5.8213863"
       style="fill:#6c7a89;stroke-width:0.26458332"
       id="rect4035-2" />
    <rect
       width="0"
       x="-20.034466"
       y="285.18866"
       height="5.8213863"
       style="fill:#6c7a89;stroke-width:0.26458332"
       id="rect4035-8-99" />
    <rect
       width="0"
       x="-19.314816"
       y="284.7677"
       height="5.8213863"
       style="fill:#6c7a89;stroke-width:0.26458332"
       id="rect4035-0-43" />
    <rect
       width="0"
       x="-22.796944"
       y="276.23096"
       height="5.8213863"
       style="fill:#6c7a89;stroke-width:0.26458332"
       id="rect4035-3-9" />
    <rect
       width="0"
       x="-20.034466"
       y="285.18866"
       height="5.8213863"
       style="fill:#6c7a89;stroke-width:0.26458332"
       id="rect4035-8-9-9" />
    <rect
       width="0"
       x="-19.314816"
       y="284.7677"
       height="5.8213863"
       style="fill:#6c7a89;stroke-width:0.26458332"
       id="rect4035-0-4-4" />
    <g
       style="color:#000000;stroke-width:0.61721718;fill:#f2f2f2;fill-opacity:1"
       transform="matrix(0.42994552,0,0,0.42740091,-361.28831,48.291402)"
       id="g4" />
    <g
       id="g871"
       transform="matrix(0.42994552,0,0,0.42740091,-361.28831,48.291402)"
       style="color:#000000;stroke-width:1.23443448;fill:#f2f2f2;fill-opacity:1;stroke:#475272;stroke-opacity:0.25490198;stroke-miterlimit:4;stroke-dasharray:none;paint-order:stroke markers fill">
      <path
         id="path869"
         style="overflow:visible;fill:#f2f2f2;fill-opacity:1;stroke:#475272;stroke-width:1.2344346;stroke-miterlimit:4;stroke-dasharray:none;stroke-opacity:0.25490196;marker:none;paint-order:stroke markers fill"
         overflow="visible"
         d="m 860.00205,552.81424 c -1.69888,0 -3.07611,1.38611 -3.07611,3.09597 v 1.23839 c -0.34083,0 -0.61522,0.27616 -0.61522,0.61919 v 0.61919 c 0,0.68359 0.27562,1.23839 0.61522,1.23839 0.0455,0 0.0726,-0.0594 0.11567,-0.078 0.1821,0.93994 0.5783,1.75603 1.11478,2.32197 -0.0246,0.86811 -0.13043,0.91641 -0.19195,1.2 -1.40886,1.24953 -2.96783,1.94055 -4.49973,2.90278 -0.14233,0.11195 -0.22687,0.2826 -0.2301,0.46439 v 1.85758 c 0,0.34303 0.27439,0.6192 0.61522,0.6192 h 12.30444 c 0.34083,0 0.61522,-0.27617 0.61522,-0.6192 v -1.85758 c -0.004,-0.1623 -0.0733,-0.31602 -0.19195,-0.426 -1.55528,-0.96594 -3.15485,-1.63963 -4.53787,-2.94117 -0.0615,-0.28359 -0.16734,-0.33189 -0.19195,-1.2 0.53647,-0.56594 0.93144,-1.38203 1.11478,-2.32197 0.0431,0.0186 0.0701,0.078 0.11566,0.078 0.3396,0 0.61522,-0.5548 0.61522,-1.23839 v -0.61919 c 0,-0.34303 -0.27439,-0.61919 -0.61522,-0.61919 v -1.23839 c 0,-1.70986 -1.37722,-3.09597 -3.07611,-3.09597 z"
         inkscape:connector-curvature="0"
         sodipodi:nodetypes="sscssscccccsssscccccssscss" />
    </g>
    <g
       style="color:#000000;stroke-width:1.23443448;fill:#f2f2f2;fill-opacity:1;stroke:none;stroke-opacity:0.25490198;stroke-miterlimit:4;stroke-dasharray:none"
       transform="matrix(0.42994552,0,0,0.42740091,-361.28831,48.291402)"
       id="g846" />
    <g
       style="color:#000000;stroke-width:1.23443448;fill:#f2f2f2;fill-opacity:1;stroke:none;stroke-opacity:0.25490198;stroke-miterlimit:4;stroke-dasharray:none;paint-order:stroke markers fill"
       transform="matrix(0.42994552,0,0,0.42740091,-361.28831,48.291402)"
       id="g850">
      <path
         sodipodi:nodetypes="sscssscccccsssscccccssscss"
         inkscape:connector-curvature="0"
         d="m 860.00205,552.81424 c -1.69888,0 -3.07611,1.38611 -3.07611,3.09597 v 1.23839 c -0.34083,0 -0.61522,0.27616 -0.61522,0.61919 v 0.61919 c 0,0.68359 0.27562,1.23839 0.61522,1.23839 0.0455,0 0.0726,-0.0594 0.11567,-0.078 0.1821,0.93994 0.5783,1.75603 1.11478,2.32197 -0.0246,0.86811 -0.13043,0.91641 -0.19195,1.2 -1.40886,1.24953 -2.96783,1.94055 -4.49973,2.90278 -0.14233,0.11195 -0.22687,0.2826 -0.2301,0.46439 v 1.85758 c 0,0.34303 0.27439,0.6192 0.61522,0.6192 h 12.30444 c 0.34083,0 0.61522,-0.27617 0.61522,-0.6192 v -1.85758 c -0.004,-0.1623 -0.0733,-0.31602 -0.19195,-0.426 -1.55528,-0.96594 -3.15485,-1.63963 -4.53787,-2.94117 -0.0615,-0.28359 -0.16734,-0.33189 -0.19195,-1.2 0.53647,-0.56594 0.93144,-1.38203 1.11478,-2.32197 0.0431,0.0186 0.0701,0.078 0.11566,0.078 0.3396,0 0.61522,-0.5548 0.61522,-1.23839 v -0.61919 c 0,-0.34303 -0.27439,-0.61919 -0.61522,-0.61919 v -1.23839 c 0,-1.70986 -1.37722,-3.09597 -3.07611,-3.09597 z"
         overflow="visible"
         style="overflow:visible;fill:#f2f2f2;fill-opacity:1;stroke:none;stroke-width:1.2344346;stroke-miterlimit:4;stroke-dasharray:none;stroke-opacity:0.25490196;marker:none;paint-order:stroke markers fill"
         id="path848" />
    </g>
  </g>
</svg>
