<?xml version="1.0" encoding="UTF-8" standalone="no"?>
<!-- Created with Inkscape (http://www.inkscape.org/) -->

<svg
   xmlns:dc="http://purl.org/dc/elements/1.1/"
   xmlns:cc="http://creativecommons.org/ns#"
   xmlns:rdf="http://www.w3.org/1999/02/22-rdf-syntax-ns#"
   xmlns:svg="http://www.w3.org/2000/svg"
   xmlns="http://www.w3.org/2000/svg"
   xmlns:xlink="http://www.w3.org/1999/xlink"
   xmlns:sodipodi="http://sodipodi.sourceforge.net/DTD/sodipodi-0.dtd"
   xmlns:inkscape="http://www.inkscape.org/namespaces/inkscape"
   width="64"
   height="64"
   viewBox="0 0 16.933333 16.933334"
   version="1.1"
   id="svg3222"
   inkscape:version="0.92.4 (5da689c313, 2019-01-14)"
   sodipodi:docname="text-x-go.svg">
  <defs
     id="defs3216">
    <radialGradient
       inkscape:collect="always"
       xlink:href="#linearGradient3242-6-6"
       id="radialGradient3435"
       gradientUnits="userSpaceOnUse"
       gradientTransform="matrix(0.73806726,3.7146825,-1.1045595,0.21946403,23.862172,-53.039586)"
       cx="17.680819"
       cy="17.410549"
       fx="17.680819"
       fy="17.410549"
       r="8.484375" />
    <linearGradient
       id="linearGradient3242-6-6">
      <stop
         id="stop3244-3-4"
         style="stop-color:#f8b17e;stop-opacity:1"
         offset="0" />
      <stop
         id="stop3246-2-3"
         style="stop-color:#e35d4f;stop-opacity:1"
         offset="0.26238" />
      <stop
         id="stop3248-0-3"
         style="stop-color:#c6262e;stop-opacity:1"
         offset="0.66093999" />
      <stop
         id="stop3250-6-3"
         style="stop-color:#690b54;stop-opacity:1"
         offset="1" />
    </linearGradient>
    <linearGradient
       inkscape:collect="always"
       xlink:href="#linearGradient2490-6-6"
       id="linearGradient3437"
       gradientUnits="userSpaceOnUse"
       x1="30"
       y1="34.716728"
       x2="30"
       y2="15.569297" />
    <linearGradient
       id="linearGradient2490-6-6">
      <stop
         id="stop2492-1-04"
         style="stop-color:#791235;stop-opacity:1"
         offset="0" />
      <stop
         id="stop2494-0-8"
         style="stop-color:#dd3b27;stop-opacity:1"
         offset="1" />
    </linearGradient>
    <linearGradient
       inkscape:collect="always"
       xlink:href="#linearGradient3316-1"
       id="linearGradient3439"
       gradientUnits="userSpaceOnUse"
       x1="27.823339"
       y1="14.36416"
       x2="27.823339"
       y2="34.008301" />
    <linearGradient
       id="linearGradient3316-1">
      <stop
         id="stop3318-0"
         style="stop-color:#ffffff;stop-opacity:1;"
         offset="0" />
      <stop
         offset="0.09090909"
         style="stop-color:#ffffff;stop-opacity:0.23529412;"
         id="stop3320-8" />
      <stop
         id="stop3322-1"
         style="stop-color:#ffffff;stop-opacity:0.15686275;"
         offset="0.9545455" />
      <stop
         id="stop3324-6"
         style="stop-color:#ffffff;stop-opacity:0.39215687;"
         offset="1" />
    </linearGradient>
  </defs>
  <sodipodi:namedview
     id="base"
     pagecolor="#ffffff"
     bordercolor="#666666"
     borderopacity="1.0"
     inkscape:pageopacity="0.0"
     inkscape:pageshadow="2"
     inkscape:zoom="1.979899"
     inkscape:cx="31.995664"
     inkscape:cy="42.279163"
     inkscape:document-units="mm"
     inkscape:current-layer="layer1"
     showgrid="true"
     units="px"
     inkscape:window-width="1024"
     inkscape:window-height="576"
     inkscape:window-x="-25"
     inkscape:window-y="107"
     inkscape:window-maximized="0">
    <inkscape:grid
       type="xygrid"
       id="grid903" />
  </sodipodi:namedview>
  <metadata
     id="metadata3219">
    <rdf:RDF>
      <cc:Work
         rdf:about="">
        <dc:format>image/svg+xml</dc:format>
        <dc:type
           rdf:resource="http://purl.org/dc/dcmitype/StillImage" />
        <dc:title></dc:title>
      </cc:Work>
    </rdf:RDF>
  </metadata>
  <g
     inkscape:label="Layer 1"
     inkscape:groupmode="layer"
     id="layer1"
     transform="translate(0,-280.06665)">
    <g
       transform="matrix(0.26458333,0,0,0.26458333,1.0666667e-7,18.562493)"
       id="text-x-preview_64"
       inkscape:label="#g4141">
      <g
         transform="matrix(1.3428376,0,0,1.340755,-0.22814694,988.19153)"
         id="layer1-1-7"
         inkscape:label="Layer 1">
        <path
           inkscape:connector-curvature="0"
           style="display:inline;fill:#fafafa;fill-opacity:1;stroke:none;stroke-width:0.99992186;stroke-linecap:butt;stroke-linejoin:round;stroke-miterlimit:4;stroke-dasharray:none;stroke-dashoffset:0;stroke-opacity:0.42452829"
           id="path4160-2"
           d="m 6.8655256,0.87983895 c 7.8515454,0 34.2636264,0.002756 34.2636264,0.002756 l 4e-5,43.24831005 c 0,0 -22.842445,0 -34.2636664,0 0,-14.417024 0,-28.834046 0,-43.25106605 z"
           sodipodi:nodetypes="ccccc" />
        <path
           inkscape:connector-curvature="0"
           style="display:inline;fill:none;fill-opacity:1;stroke:#4f6698;stroke-width:0.74521309;stroke-linecap:butt;stroke-linejoin:round;stroke-miterlimit:4;stroke-dasharray:none;stroke-dashoffset:0;stroke-opacity:0.26666667"
           id="path4160-3-1"
           d="m 6.4999609,0.49996093 c 8.0202951,0 35.0000391,0.0028 35.0000391,0.0028 l 4.2e-5,44.00280307 c 0,0 -23.333387,0 -35.0000811,0 0,-14.668535 0,-29.33707 0,-44.00560307 z"
           sodipodi:nodetypes="ccccc" />
      </g>
      <rect
         ry="2.17285e-05"
         rx="2.17285e-05"
         y="988.36218"
         x="0"
         height="63.999996"
         width="64"
         id="rect4139"
         style="opacity:0.75;fill:none;fill-opacity:0.56122448;stroke:none;stroke-width:1;stroke-linecap:butt;stroke-linejoin:miter;stroke-miterlimit:4;stroke-dasharray:none;stroke-dashoffset:0;stroke-opacity:1" />
    </g>
    <g
       id="g901"
       transform="translate(-0.3222292,11.358181)">
      <g
         transform="matrix(0.26458333,0,0,0.26458333,0.31984255,268.70847)"
         id="g3431"
         inkscape:label="Layer 1">
        <g
           inkscape:label="Layer 1"
           id="g3429"
           transform="translate(0.00542589,-3.9798056e-6)">
          <g
             inkscape:label="Layer 1"
             id="g3409"
             transform="translate(-0.0089737,-988.35308)">
            <g
               inkscape:label="Layer 1"
               id="g3407"
               transform="matrix(1.34253,0,0,1.3410074,-0.21717414,988.18231)" />
          </g>
          <g
             style="fill:#000000;fill-opacity:0.39215686"
             id="g3423">
            <path
               inkscape:connector-curvature="0"
               style="display:inline;fill:#b4bfd8;fill-opacity:1;stroke:none"
               d="m 15,9 v 1 h 3.189283 V 9 Z m 3.608926,0 v 1 h 3.021426 V 9 Z m 3.441069,0 v 1 h 2.643748 V 9 Z m 3.063391,0 v 1 h 1.174999 V 9 Z m 1.594642,0 v 1 h 2.601784 V 9 Z m 3.063391,0 v 1 H 36.4857 V 9 Z M 15,12 v 1 h 5.077675 v -1 z m 5.581246,0 v 1 h 2.433927 v -1 z m 2.895534,0 v 1 h 1.133035 v -1 z m 1.636606,0 v 1 h 2.182141 v -1 z m 2.685712,0 v 1 h 2.182142 v -1 z m 2.643749,0 v 1 h 3.566962 v -1 z m 4.070533,0 v 1 h 4.658032 V 12 Z M 15,15 v 1 h 5.62321 v -1 z m 6.042853,0 v 1 h 6.042853 V 15 Z M 15,18 v 1 h 3.105355 v -1 z m 3.524997,0 v 1 h 2.895534 v -1 z m 3.315177,0 v 1 h 2.559819 v -1 z m 5.245532,15 v 1 h 3.147319 v -1 z m 3.566962,0 v 1 h 2.937498 v -1 z m 3.357141,0 v 1 H 36.4857 v -1 z m -6.924103,3 v 1 h 2.517856 v -1 z m 2.937498,0 v 1 H 36.4857 v -1 z m 6.882139,0 v 1 h 4.951782 v -1 z m -9.819637,3 v 1 h 3.273212 v -1 z m 3.734819,0 v 1 h 5.749103 v -1 z m 6.168746,0 v 1 h 3.94464 v -1 z m -9.903565,3 v 1 h 2.517856 v -1 z m 2.937498,0 v 1 h 2.55982 v -1 z m 2.979462,0 v 1 h 3.650891 v -1 z m 4.070534,0 v 1 h 0.755356 v -1 z m 1.174999,0 v 1 h 4.741961 v -1 z m -11.246421,9 v 1 h 3.273212 v -1 z m 3.692854,0 v 1 h 3.021427 v -1 z m 3.483034,0 v 1 h 2.601784 v -1 z m 3.021426,0 v 1 h 4.154462 v -1 z m 4.616069,0 v 1 h 6.756245 v -1 z"
               id="path3411"
               sodipodi:nodetypes="ccccccccccccccccccccccccccccccccccccccccccccccccccccccccccccccccccccccccccccccccccccccccccccccccccccccccccccccccccccccccccccccccccccccccccccccccccccccccccccccccccccccccccccccccccccccccc" />
            <path
               inkscape:connector-curvature="0"
               style="display:inline;fill:#b4bfd8;fill-opacity:1;stroke:none"
               d="m 15,21 v 1 h 4.112497 v -1 z m 0,3 v 1 h 4.154461 v -1 z"
               id="path3413"
               sodipodi:nodetypes="cccccccccc" />
            <path
               inkscape:connector-curvature="0"
               style="display:inline;fill:#b4bfd8;fill-opacity:1;stroke:none"
               d="m 19.574104,21 v 1 h 7.511602 v -1 z m 0.04196,3 v 1 h 6.840174 v -1 z m 1.594642,21 v 1 h 6.168746 v -1 z m 6.630353,0 v 1 h 2.433927 v -1 z m 2.895534,0 v 1 h 5.791067 v -1 z m 6.252674,0 v 1 h 3.986605 v -1 z m 4.406247,0 v 1 h 1.552678 v -1 z m 2.014285,0 v 1 h 0.923213 v -1 z m 1.342856,0 v 1 h 2.475891 V 45 Z M 23.22499,48 v 1 h 1.091071 v -1 z m 1.384821,0 v 1 h 2.182141 v -1 z m 2.517855,0 v 1 h 2.182142 v -1 z m 2.85357,0 v 1 h 3.483033 v -1 z m 3.902676,0 v 1 h 4.53214 v -1 z m 5.161604,0 v 1 h 3.063391 v -1 z m 3.441069,0 v 1 h 0.713392 v -1 z"
               id="path3415"
               sodipodi:nodetypes="cccccccccccccccccccccccccccccccccccccccccccccccccccccccccccccccccccccccccccccccc" />
            <path
               inkscape:connector-curvature="0"
               style="display:inline;fill:#b4bfd8;fill-opacity:1;stroke:none"
               id="path3417"
               d="m 15,51 h 4.077913 v 1 H 15 Z"
               sodipodi:nodetypes="ccccc" />
            <path
               inkscape:connector-curvature="0"
               style="display:inline;fill:#b4bfd8;fill-opacity:1;stroke:none"
               d="m 18.692854,27 v 1 h 3.021427 V 27 Z M 15,30 v 1 h 1.342856 v -1 z m 4.23839,3 v 1 h 2.475891 v -1 z m 0.167857,3 v 1 h 3.65089 v -1 z m -0.461607,3 v 1 h 2.769641 v -1 z m -0.503571,3 v 1 h 2.853569 V 42 Z M 15,45 v 1 h 5.749103 v -1 z m 0,3 v 1 h 4.951782 v -1 z m 5.32946,0 v 1 h 2.391963 v -1 z m -0.839285,3 v 1 h 4.490176 v -1 z"
               id="path3419"
               sodipodi:nodetypes="cccccccccccccccccccccccccccccccccccccccccccccccccc" />
            <path
               inkscape:connector-curvature="0"
               style="display:inline;fill:#b4bfd8;fill-opacity:1;stroke:none"
               d="m 15,27 v 1 h 3.147319 v -1 z m 0,6 v 1 h 3.692854 v -1 z m 0,3 v 1 h 3.94464 v -1 z m 0,3 v 1 h 3.399105 v -1 z m 0,3 v 1 h 2.979462 v -1 z"
               id="path3421"
               sodipodi:nodetypes="ccccccccccccccccccccccccc" />
          </g>
          <g
             id="g3425"
             style="font-style:normal;font-variant:normal;font-weight:bold;font-stretch:normal;font-size:20px;line-height:125%;font-family:'Droid Sans';-inkscape-font-specification:'Droid Sans Bold';letter-spacing:0px;word-spacing:0px;fill:url(#radialGradient3435);fill-opacity:1;stroke:url(#linearGradient3437)"
             transform="translate(7.5,8.5)" />
          <g
             transform="matrix(0.87671233,0,0,0.87757116,11.10861,11.662581)"
             style="font-style:normal;font-variant:normal;font-weight:bold;font-stretch:normal;font-size:20px;line-height:125%;font-family:'Droid Sans';-inkscape-font-specification:'Droid Sans Bold';letter-spacing:0px;word-spacing:0px;fill:none;stroke:url(#linearGradient3439);stroke-width:1.14006674;stroke-opacity:1"
             id="g3427" />
        </g>
      </g>
      <g
         id="text7300-9-3"
         style="font-style:normal;font-variant:normal;font-weight:bold;font-stretch:normal;font-size:17.43721771px;line-height:125%;font-family:'Futura Bk BT';-inkscape-font-specification:'Futura Bk BT Bold';letter-spacing:0px;word-spacing:0px;fill:#5da0eb;fill-opacity:1;stroke:#2d83e5;stroke-width:2.03209186px;stroke-linecap:butt;stroke-linejoin:miter;stroke-opacity:1"
         transform="matrix(0.13089963,0,0,0.12950902,-134.43756,160.92995)">
        <path
           sodipodi:nodetypes="sscscccssccsscssscccccccs"
           inkscape:connector-curvature="0"
           id="path7358-9-2"
           style="font-style:normal;font-variant:normal;font-weight:bold;font-stretch:normal;font-size:69.74887085px;font-family:Oxygen-Sans;-inkscape-font-specification:'Oxygen-Sans Bold';fill:#5da0eb;fill-opacity:1;stroke:#2d83e5;stroke-width:2.03209186px;stroke-opacity:1"
           d="m 1076.5383,919.04052 c -4.9269,0 -9.1954,-1.07847 -12.8055,-3.23542 -3.6101,-2.15695 -6.346,-5.15398 -8.2078,-8.99107 -1.8617,-3.83709 -2.7926,-8.27586 -2.7926,-13.31631 0,-3.81439 0.6244,-7.32227 1.8731,-10.52364 1.2487,-3.22407 2.9743,-5.92593 5.1767,-8.10558 2.2023,-2.17965 4.8361,-3.87115 7.9012,-5.0745 3.0651,-1.22605 6.3687,-1.83908 9.9106,-1.83908 2.9743,0 5.6649,0.30651 8.0716,0.91954 2.4067,0.61303 4.7906,1.58933 7.1519,2.92891 l -2.0774,6.40272 c -2.2024,-1.11253 -4.2572,-1.96395 -6.1644,-2.55428 -1.9072,-0.59032 -4.0528,-0.88548 -6.4368,-0.88548 -5.0858,0 -9.1499,1.70285 -12.1924,5.10856 -3.0424,3.383 -4.5636,7.90124 -4.5636,13.55471 0,5.90323 1.3055,10.51228 3.9165,13.82717 2.6111,3.31489 6.5844,4.97233 11.92,4.97233 1.9526,0 3.6441,-0.12487 5.0745,-0.37462 1.4531,-0.27246 2.2479,-0.62438 3.3831,-1.05577 v -12.12432 h -10.4329 l 0.3065,-6.61105 h 18.0911 v 23.53741 c -5.5172,2.29318 -11.0185,3.43977 -17.1034,3.43977 z" />
        <path
           sodipodi:nodetypes="scssscscsscscscscs"
           id="path7360-5-2"
           style="font-style:normal;font-variant:normal;font-weight:bold;font-stretch:normal;font-size:69.74887085px;font-family:Oxygen-Sans;-inkscape-font-specification:'Oxygen-Sans Bold';fill:#5da0eb;fill-opacity:1;stroke:#2d83e5;stroke-width:2.03209186px;stroke-opacity:1"
           d="m 1118.2241,918.9724 c -5.2221,0 -9.0305,-1.7142 -12.2319,-5.14261 -3.1787,-3.42841 -4.768,-7.9353 -4.768,-13.52066 0,-5.72159 1.5553,-10.25118 4.6659,-13.58877 3.1105,-3.33759 6.953,-5.00639 12.334,-5.00639 5.2902,0 9.5019,1.6915 12.6352,5.0745 3.1559,3.3603 4.7339,7.86719 4.7339,13.52066 0,5.65347 -1.578,10.18306 -4.7339,13.58877 -3.156,3.383 -7.3677,5.0745 -12.6352,5.0745 z m 0,-5.7897 c 3.1333,0 5.5286,-1.12388 7.186,-3.37165 1.6575,-2.27047 2.4862,-5.43778 2.4862,-9.50192 0,-4.06414 -0.8287,-7.19739 -2.4862,-9.39975 -1.6574,-2.22506 -4.0527,-3.33759 -7.186,-3.33759 -3.0879,0 -5.0799,1.11253 -6.7827,3.33759 -1.6802,2.22506 -2.5203,5.35831 -2.5203,9.39975 0,4.04144 0.8401,7.19739 2.5203,9.46786 1.6801,2.27047 3.6722,3.40571 6.7827,3.40571 z"
           inkscape:connector-curvature="0" />
      </g>
    </g>
  </g>
</svg>
