<svg xmlns="http://www.w3.org/2000/svg" width="64" height="64" viewBox="0 0 16.933 16.933"><g transform="translate(0 -261.5) scale(.26458)"><path fill="#fafafa" d="m8.991 989.37 46.01.004v57.985H8.992V989.37z"/><path fill="none" stroke="#4f6698" stroke-linejoin="round" stroke-opacity=".267" stroke-width=".745" d="m6.5.5 35 .003v44.003h-35z" transform="matrix(1.3428 0 0 1.3408 -.228 988.19)"/><rect width="64" height="64" y="988.36" fill="none" opacity=".75" rx="0" ry="0"/></g><path fill="#2f5fdd" d="M11.475 9.632q-.035.752-.406 1.331-.37.574-1.044.89-.668.318-1.53.318-1.42 0-2.236-.926-.816-.925-.816-2.613v-.356q0-1.059.366-1.85.37-.798 1.064-1.228.693-.436 1.603-.436 1.312 0 2.108.693.797.688.906 1.9H9.758q-.02-.658-.332-.945-.311-.287-.95-.287-.648 0-.95.485t-.317 1.55v.509q0 1.153.287 1.648.292.495 1 .495.599 0 .915-.282.317-.283.337-.896z"/></svg>