<svg width="64" height="64" version="1.1" viewBox="0 0 16.933 16.933" xmlns="http://www.w3.org/2000/svg">
 <g transform="matrix(.26458 0 0 .26458 0 -261.5)">
  <path d="m8.991 989.37 46.01 4e-3v57.985h-46.009v-57.989z" fill="#fafafa"/>
  <path transform="matrix(1.3428 0 0 1.3408 -.228 988.19)" d="m6.5 0.5 35 3e-3v44.003h-35z" fill="none" stroke="#4f6698" stroke-linejoin="round" stroke-opacity=".267" stroke-width=".745"/>
  <rect y="988.36" width="64" height="64" rx="0" ry="0" fill="none" opacity=".75"/>
 </g>
 <path d="m4.233 2.381v0.265h0.844v-0.266zm0.955 0v0.265h0.8v-0.266zm0.91 0v0.265h0.7v-0.266zm0.811 0v0.265h0.311v-0.266zm0.422 0v0.265h0.688v-0.266zm0.81 0v0.265h1.777v-0.266zm-3.908 0.794v0.265h1.344v-0.265zm1.477 0v0.265h0.644v-0.265zm0.766 0v0.265h0.3v-0.265zm0.433 0v0.265h0.578v-0.265zm0.71 0v0.265h0.578v-0.265zm0.7 0v0.265h0.944v-0.265zm1.077 0v0.265h1.233v-0.265zm-5.163 0.794v0.264h1.488v-0.263zm1.6 0v0.264h1.597v-0.263zm-1.6 0.794v0.264h0.822v-0.264zm0.933 0v0.264h0.766v-0.264zm0.877 0v0.264h0.677v-0.264zm1.355 1.587v0.265h0.677v-0.265zm0.788 0v0.265h0.677v-0.265zm0.788 0v0.265h0.977v-0.265zm1.1 0v0.265h0.2v-0.265zm-2.644 2.381v0.265h0.833v-0.266zm0.944 0v0.265h0.777v-0.266zm0.888 0v0.265h0.655v-0.266zm-1.832 0.794v0.265h0.666v-0.265zm0.777 0v0.265h1.71v-0.265zm1.821 0v0.265h1.31v-0.265zm-2.598 0.794v0.264h0.866v-0.264zm0.988 0v0.264h1.522v-0.264zm1.632 0v0.264h1.044v-0.264zm-2.62 0.794v0.264h0.666v-0.264zm0.777 0v0.264h0.678v-0.264zm0.789 0v0.264h0.966v-0.264zm1.077 0v0.264h0.2v-0.264zm0.31 0v0.264h1.255v-0.264zm-2.975 2.38v0.265h0.866v-0.264zm0.977 0v0.265h0.8v-0.264zm0.921 0v0.265h0.689v-0.264zm0.8 0v0.265h1.099v-0.264zm1.221 0v0.265h1.788v-0.264z" fill="#9dacbe" opacity=".65"/>
 <path d="m4.233 5.556v0.265h1.088v-0.265zm0 0.794v0.265h1.1v-0.265z" fill="#b78ed4" opacity=".65"/>
 <path d="m5.444 5.556v0.265h1.986v-0.265zm0.01 0.794v0.265h1.81v-0.265zm0.423 5.556v0.265h1.632v-0.265zm1.754 0v0.265h0.644v-0.265zm0.766 0v0.265h1.532v-0.265zm1.654 0v0.265h1.055v-0.265zm1.166 0v0.265h0.411v-0.265zm0.533 0v0.265h0.244v-0.265zm0.355 0v0.265h0.655v-0.265zm-5.695 0.794v0.265h0.288v-0.265zm0.366 0v0.265h0.577v-0.265zm0.666 0v0.265h0.577v-0.265zm0.755 0v0.265h0.922v-0.265zm1.033 0v0.265h1.199v-0.265zm1.365 0v0.265h0.81v-0.265zm0.91 0v0.265h0.19v-0.265z" fill="#259325" opacity=".65"/>
 <path d="m4.233 13.494h1.08v0.264h-1.08z" fill="#b78ed4" opacity=".65"/>
 <path d="m5.21 7.144v0.264h0.8v-0.264zm-0.977 0.794v0.264h0.356v-0.264zm1.122 0.793v0.265h0.655v-0.266zm0.044 0.794v0.265h0.966v-0.265zm-0.122 0.794v0.264h0.733v-0.264zm-0.133 0.794v0.264h0.755v-0.264zm-0.91 0.793v0.265h1.52v-0.265zm0 0.794v0.265h1.31v-0.265zm1.41 0v0.265h0.632v-0.265zm-0.223 0.794v0.264h1.189v-0.264z" fill="#27471f" fill-opacity=".392" opacity=".65"/>
 <path d="m4.233 7.144v0.264h0.833v-0.264zm0 1.587v0.265h0.977v-0.266zm0 0.794v0.265h1.044v-0.265zm0 0.794v0.264h0.9v-0.264zm0 0.794v0.264h0.789v-0.264z" fill="#5edf52" opacity=".65"/>
</svg>
