<svg xmlns="http://www.w3.org/2000/svg" width="64" height="64" viewBox="0 0 16.933 16.933"><g transform="translate(0 -261.5) scale(.26458)"><path fill="#fafafa" d="m8.991 989.37 46.01.004v57.985H8.992V989.37z"/><path fill="none" stroke="#4f6698" stroke-linejoin="round" stroke-opacity=".267" stroke-width=".745" d="m6.5.5 35 .003v44.003h-35z" transform="matrix(1.3428 0 0 1.3408 -.228 988.19)"/><rect width="64" height="64" y="988.36" fill="none" opacity=".75" rx="0" ry="0"/></g><path fill="#8f76e4" d="M8.372 5.793a2.096 2.096 0 0 0-.991.237l.154.428c.25-.135.505-.202.766-.202.205 0 .362.053.469.16.106.103.16.237.16.403a.585.585 0 0 1-.071.285c-.044.087-.101.17-.173.25-.07.079-.146.158-.225.237-.08.075-.154.158-.226.25-.07.086-.13.181-.178.284a.874.874 0 0 0-.065.344c0 .087.008.17.024.25h.463a.33.33 0 0 1-.006-.066v-.065c0-.13.026-.247.077-.35.051-.107.115-.204.19-.291.075-.091.158-.178.249-.261s.174-.17.25-.261a1.53 1.53 0 0 0 .19-.291.824.824 0 0 0 .076-.362c0-.107-.017-.218-.053-.332a.759.759 0 0 0-.178-.32.95.95 0 0 0-.35-.232 1.37 1.37 0 0 0-.552-.095zm-1.575 1.11L4.233 7.989v.474L6.797 9.55l.154-.457-2.107-.866 2.107-.866zm3.34 0-.155.456 2.106.867-2.106.866.154.457L12.7 8.463V7.99zm-1.86 2.38c-.123 0-.22.039-.29.118-.072.079-.108.172-.108.279s.036.2.107.279c.071.079.168.118.29.118s.22-.04.292-.118.107-.172.107-.28c0-.106-.036-.199-.107-.278a.372.372 0 0 0-.291-.119z"/></svg>