<svg xmlns="http://www.w3.org/2000/svg" width="64" height="64" viewBox="0 0 16.933 16.933"><g transform="translate(0 -261.504) scale(.26458)"><path fill="#fafafa" d="m8.991 989.371 46.01.004v57.985H8.992v-57.989z"/><path fill="none" stroke="#4f6698" stroke-linejoin="round" stroke-opacity=".267" stroke-width=".745" d="m6.5.5 35 .003v44.003h-35V.5z" transform="matrix(1.34284 0 0 1.34075 -.228 988.192)"/><rect width="64" height="64" y="988.362" fill="none" opacity=".75" rx="0" ry="0"/></g><g stroke-linecap="square" stroke-width=".265" color="#000"><path fill="#a2aab9" stroke="#8a92a2" d="M5.026 9.129h.53c.073 0 .132.059.132.132v.53a.132.132 0 0 1-.133.132h-.529a.132.132 0 0 1-.132-.132v-.53c0-.073.059-.132.132-.132zm1.302 0c-.06.004-.112.051-.111.102v.59c0 .054.058.102.122.102h4.518c.064 0 .123-.048.122-.102v-.59c0-.054-.058-.102-.122-.102H6.329z" overflow="visible" style="marker:none"/><path fill="#abd56b" stroke="#93bd52" d="M5.555 10.717h.53c.073 0 .132.059.132.132v.529a.132.132 0 0 1-.133.132h-.529a.132.132 0 0 1-.132-.132v-.53c0-.072.059-.131.132-.131zm1.302 0c-.06.004-.112.05-.111.101v.59c0 .054.058.103.123.102h4.517c.064 0 .123-.048.122-.101v-.59c0-.054-.058-.103-.122-.102H6.857z" overflow="visible" style="marker:none"/><path fill="#a2aab9" stroke="#8a92a2" d="M5.026 12.304h.53c.073 0 .132.06.132.132v.53a.132.132 0 0 1-.133.132h-.529a.132.132 0 0 1-.132-.132v-.53c0-.073.059-.132.132-.132zm1.302 0c-.06.004-.112.051-.111.102v.59c0 .054.058.102.122.102h4.518c.064 0 .123-.048.122-.102v-.59c0-.054-.058-.102-.122-.102H6.329zM5.026 2.779h.53c.073 0 .132.059.132.132v.53a.132.132 0 0 1-.133.132h-.529a.132.132 0 0 1-.132-.132v-.53c0-.073.059-.132.132-.132zm1.302 0c-.06.004-.112.051-.111.102v.59c0 .054.058.102.122.102h4.518c.064 0 .123-.048.122-.102v-.59c0-.054-.058-.102-.122-.102H6.329z" overflow="visible" style="marker:none"/><path fill="#abd56b" stroke="#93bd52" d="M5.555 4.367h.53c.073 0 .132.059.132.132v.529a.132.132 0 0 1-.133.132h-.529a.132.132 0 0 1-.132-.132v-.53c0-.072.059-.131.132-.131zm1.302 0c-.06.004-.112.05-.111.101v.59c0 .054.058.103.123.102h4.517c.064 0 .123-.048.122-.101v-.59c0-.054-.058-.103-.122-.102H6.857zM5.555 7.542h.53c.073 0 .132.059.132.132v.529a.132.132 0 0 1-.133.132h-.529a.132.132 0 0 1-.132-.132v-.53c0-.072.059-.131.132-.131zm1.302 0c-.06.004-.112.05-.111.101v.59c0 .054.058.103.123.102h4.517c.064 0 .123-.048.122-.101v-.59c0-.054-.058-.103-.122-.102H6.857z" overflow="visible" style="marker:none"/><path fill="#efb458" stroke="#d9a047" d="M6.084 5.954h.53c.073 0 .132.06.132.132v.53a.132.132 0 0 1-.132.132h-.53a.132.132 0 0 1-.132-.132v-.53c0-.073.06-.132.132-.132zm1.303 0c-.061.004-.113.051-.112.102v.59c0 .054.058.102.123.102h4.517c.064 0 .123-.048.123-.102v-.59c0-.054-.059-.102-.123-.102H7.387z" overflow="visible" style="marker:none"/></g></svg>