<svg xmlns="http://www.w3.org/2000/svg" xmlns:xlink="http://www.w3.org/1999/xlink" width="64" height="64"><g transform="translate(0 -988.38)"><path fill="#892a1f" d="m8.991 989.37 46.01.004v57.985H8.992V989.37z"/><path fill="none" stroke="#671f17" stroke-linejoin="round" stroke-width=".745" d="m6.5.5 35 .003v44.003h-35z" transform="matrix(1.3428 0 0 1.3408 -.228 988.19)"/><rect width="64" height="64" y="988.36" fill="none" opacity=".75" rx="0" ry="0"/></g><g color="#4d4d4d" transform="translate(-.004 -3.008)"><path id="a" d="M43 33c-11.921 4.372-16.851 4.113-22 4v7c7.357-.629 14.73-.779 22-4v-6zm-1 1.369v4.924c-6.515 2.732-13.189 3.061-20 3.609v-4.895c4.615.097 9.78-.051 20-3.639" color-rendering="auto" image-rendering="auto" shape-rendering="auto" style="isolation:auto;mix-blend-mode:normal"/><use xlink:href="#a" width="100%" height="100%" y="-11" style="isolation:auto;mix-blend-mode:normal"/></g></svg>