<svg xmlns="http://www.w3.org/2000/svg" width="64" height="64" viewBox="0 0 16.933 16.933"><g transform="translate(0 -261.5) scale(.26458)"><path fill="#fafafa" d="m8.991 989.37 46.01.004v57.985H8.992V989.37z"/><path fill="none" stroke="#4f6698" stroke-linejoin="round" stroke-opacity=".267" stroke-width=".745" d="m6.5.5 35 .003v44.003h-35z" transform="matrix(1.3428 0 0 1.3408 -.228 988.19)"/><rect width="64" height="64" y="988.36" fill="none" opacity=".75" rx="0" ry="0"/></g><g fill="#999"><path d="M8.996 5.292v.265h3.175v-.265zm0 .794v.264h3.175v-.264zm0 .793v.265h3.175v-.265zm0 .794v.265h3.175v-.265zm0 .794v.265h3.175v-.265zm-4.233.794v.264h7.408v-.264zm0 .793v.265h7.408v-.265zm0 .794v.265h7.408v-.265zm0 .794v.264h7.408v-.264zm0 .794v.264h4.233v-.264z"/><path d="m6.388 5.027-1.305 3.44h-.32v.264h.925v-.264h-.296l.31-.795h1.534l.309.795h-.4v.264h1.328v-.264h-.367l-1.305-3.44zm.08.595.676 1.787h-1.34z" color="#bebebe" font-size="13.717" font-weight="400" letter-spacing="0" overflow="visible" word-spacing="0"/></g></svg>