<svg xmlns="http://www.w3.org/2000/svg" width="64" height="64" viewBox="0 0 16.933 16.933"><g transform="translate(0 -261.5) scale(.26458)"><path fill="#fafafa" d="m8.991 989.37 46.01.004v57.985H8.992V989.37z"/><path fill="none" stroke="#4f6698" stroke-linejoin="round" stroke-opacity=".267" stroke-width=".745" d="m6.5.5 35 .003v44.003h-35z" transform="matrix(1.3428 0 0 1.3408 -.228 988.19)"/><rect width="64" height="64" y="988.36" fill="none" opacity=".75" rx="0" ry="0"/></g><path fill="#3f51b5" fill-rule="evenodd" d="M9.462 8.402s.305.092.482.181a.932.932 0 0 1 .244.175c.075.08.112.16.112.16l1.214 2.195H9.301l-.906-1.666s-.186-.319-.3-.411c-.096-.078-.136-.105-.23-.105h-.462v2.182H5.419v-6.35h3.075c1.092 0 2.532.328 2.532 1.822 0 1.493-1.564 1.817-1.564 1.817zm-2.06-2.448v1.588h.943s.73 0 .778-.777c.05-.81-.779-.81-.779-.81z"/></svg>