<svg xmlns="http://www.w3.org/2000/svg" width="64" height="64" viewBox="0 0 16.933 16.933"><g transform="translate(0 -261.504) scale(.26458)"><path d="M8.991 989.371l46.01.004v57.985H8.992v-57.989z" fill="#fafafa"/><path d="M6.5.5l35 .003v44.003h-35V.5z" fill="none" stroke="#4f6698" stroke-width=".745" stroke-linejoin="round" stroke-opacity=".267" transform="matrix(1.34284 0 0 1.34075 -.228 988.192)"/><rect ry="0" rx="0" y="988.362" height="64" width="64" opacity=".75" fill="none"/></g><g transform="translate(.528 -276.362)"><rect width="6.879" height="1.058" rx=".313" ry=".241" x="4.498" y="279.273" fill="#b4bfd8" fill-opacity=".493"/><path d="M5.292 279.802h.62v.265h-.62zm1.058 0h.516v.265H6.35zm1.058 0h.507v.265h-.507z" fill="#7f92bc"/><rect width="2.646" height="2.117" rx="0" ry="0" x="8.599" y="282.316" fill="none" stroke="#b4bfd8" stroke-width=".265"/><path d="M12.303 278.48v12.7M2.91 278.611h9.26m-9.26 11.378h10.055M3.572 277.42v13.76" fill="none" stroke="#b4bfd8" stroke-width=".265"/><path d="M8.467 279.802h.506v.265h-.506z" fill="#7f92bc"/><path d="M4.498 281.125h.561v.265h-.561zm.784 0h.56v.265h-.56zm.776 0h.33v.265h-.33zm.568 0h.56v.265h-.56zm.776 0h1.101v.265h-1.1zm1.345 0h1.076v.265H8.747zM4.498 284.3h.844v.265h-.844zm1.049 0h.576v.265h-.576zm.793 0h.319v.265h-.32zm.55 0h.77v.265h-.77zm-2.392-1.058H5.59v.264H4.498zm1.332 0h.823v.264H5.83zm1.037 0h.788v.264h-.788zm-2.369.528h1.345v.265H4.498zm1.54 0h.871v.265h-.87zm1.106 0h.286v.265h-.286zm-2.646 2.117h1.109v.265h-1.11zm1.314 0h.285v.265h-.285zm.501 0h.61v.265h-.61zm.82 0h1.106v.265H7.133zm1.32 0h.844v.265h-.844zm1.049 0h.339v.265h-.339zm-5.004-.529h.837v.265h-.837zm1.055 0H6.66v.265H5.553zm1.325 0h.57v.265h-.57zm2.379 0h.305v.265h-.305zm.523 0h.59v.265h-.59zm-2.113 0h1.372v.265H7.667zm-3.169 1.058h1.077v.265H4.498zm1.277 0h.868v.265h-.868zm1.085 0h.581v.265H6.86zm.798 0h.264v.265h-.264zm.534 0h.568v.265h-.568zm.785 0h.575v.265h-.575zm.791 0h.847v.265h-.847zm-5.27-1.587h1.107v.264H4.498zm1.328 0H6.91v.264H5.826zm1.331 0h.516v.264h-.516zm-2.659-2.646h.82v.265h-.82zm1.049 0h.576v.265h-.576zm.819 0h.557v.265h-.557zm.789 0h.266v.265h-.266zm-2.657-.529h1.1v.265h-1.1zm1.328 0H6.91v.265H5.826zm1.331 0h.516v.265h-.516zm-2.659 1.058h1.107v.265H4.498zm1.328 0h1.057v.265H5.826zm1.304 0h.538v.265H7.13zm3.471 2.646h.816v.265h-.816zm-.564-4.233h1.35v.265h-1.35zm.021 4.762h1.082v.265h-1.082zm.775.529h.556v.265h-.556zM4.498 287.475h1.109v.265h-1.11zm1.314 0h.285v.265h-.285zm.501 0h.61v.265h-.61zm.82 0h1.106v.265H7.133zm1.32 0h.844v.265h-.844zm-3.955-.529h.837v.264h-.837zm1.055 0H6.66v.264H5.553zm1.325 0h.57v.264h-.57zm.789 0h1.372v.264H7.667zm-3.169 1.058h1.077v.264H4.498zm1.277 0h.868v.264h-.868zm1.085 0h.581v.264H6.86zm.798 0h.264v.264h-.264zm.534 0h.568v.264h-.568zm.785 0h.575v.264h-.575zm.791 0h.847v.264h-.847zm1.065 0h.556v.264h-.556zM4.492 289.062h1.11v.265h-1.11zm1.314 0h.285v.265h-.285zm.501 0h.61v.265h-.61zm.82 0h1.106v.265H7.127zm1.32 0h.844v.265h-.844zm-3.955-.529h.837v.265h-.837zm1.055 0h1.107v.265H5.547zm1.325 0h.57v.265h-.57zm.788 0h1.373v.265H7.66z" fill="#b4bfd8"/></g></svg>