<svg xmlns="http://www.w3.org/2000/svg" width="64" height="64" viewBox="0 0 16.933 16.933"><g transform="translate(0 -261.5) scale(.26458)"><path fill="#fafafa" d="m8.991 989.37 46.01.004v57.985H8.992V989.37z"/><path fill="none" stroke="#4f6698" stroke-linejoin="round" stroke-opacity=".267" stroke-width=".745" d="m6.5.5 35 .003v44.003h-35z" transform="matrix(1.3428 0 0 1.3408 -.228 988.19)"/><rect width="64" height="64" y="988.36" fill="none" opacity=".75" rx="0" ry="0"/></g><path fill="#76c22b" d="M6.35 3.572v.264h3.175v-.264zm0 .794v.264h5.82v-.264zm0 .793v.265h2.117v-.265zM4.762 11.51v.264h7.408v-.265z"/><path fill="#8f76e4" d="M5.82 6.747v.264h4.365v-.264zm0 .794v.264h1.587v-.264zm0 .793V8.6h3.704v-.265z"/><path fill="#46a926" d="M4.762 5.953v.265h2.117v-.265z"/><path fill="#76c22b" d="M7.408 9.128v.265h1.587v-.265zm-1.588.794v.264h3.175v-.264z"/><path fill="#46a926" d="M4.762 9.128v.265h2.117v-.265zm0 1.587v.265h2.117v-.265zM4.762 3.572v.264H5.82v-.264zm0 .794v.264H5.82v-.264zm0 .793v.265H5.82v-.265z"/><path fill="#f22c42" d="M9.525 9.922v.264h1.588v-.264zM7.937 7.54v.265h1.587V7.54z"/><path fill="#76c22b" d="M4.762 12.303v.265h7.408v-.265zm0 .794v.265h3.704v-.265z"/></svg>