<svg xmlns="http://www.w3.org/2000/svg" width="64" height="64"><g transform="translate(0 -988.362)"><path fill="#fafafa" d="m8.991 989.371 46.01.004v57.985H8.992v-57.989z"/><path fill="none" stroke="#4f6698" stroke-linejoin="round" stroke-opacity=".267" stroke-width=".745" d="m6.5.5 35 .003v44.003h-35V.5z" transform="matrix(1.34284 0 0 1.34075 -.228 988.192)"/><rect width="64" height="64" y="988.362" fill="none" opacity=".75" rx="0" ry="0"/></g><path fill="#919caf" d="M26.375 40.614c2.845-2.962 5.445-6.041 5.777-6.843.332-.801 1.64-2.385 2.909-3.518 3.32-2.966 5.256-2.733 6.922.832.425.909 1.01 1.652 1.3 1.652.662 0 3.717-2.974 3.717-3.62 0-.835-1.568-2.275-2.477-2.275-.96 0-1.878-1.377-1.878-2.815 0-1.09-3-4.124-5.177-5.236-1.038-.53-2.825-.791-5.415-.791-3.917 0-5.554.649-3.047 1.208.753.168 2.17.975 3.15 1.795 2.52 2.11 2.419 3.695-.457 7.112-1.23 1.461-2.537 2.657-2.906 2.657C27.978 30.772 17 40.979 17 41.736 17 42.308 20.37 46 20.893 46c.17 0 2.637-2.423 5.482-5.386z" color="#000" overflow="visible" style="isolation:auto;mix-blend-mode:normal;solid-color:#000;solid-opacity:1;marker:none;filter-blend-mode:normal;filter-gaussianBlur-deviation:0"/></svg>