<svg xmlns="http://www.w3.org/2000/svg" width="64" height="64" viewBox="0 0 16.933 16.933"><g transform="translate(0 -261.5) scale(.26458)"><path fill="#fafafa" d="m8.991 989.37 46.01.004v57.985H8.992V989.37z"/><path fill="none" stroke="#4f6698" stroke-linejoin="round" stroke-opacity=".267" stroke-width=".745" d="m6.5.5 35 .003v44.003h-35z" transform="matrix(1.3428 0 0 1.3408 -.228 988.19)"/><rect width="64" height="64" y="988.36" fill="none" opacity=".75" rx="0" ry="0"/></g><path fill="#1a7fd4" d="M10.96 5.54c.268.066.473.185.66.38.098.104.242.293.254.338.003.014-.456.322-.735.495-.01.006-.05-.037-.095-.104-.136-.198-.278-.283-.496-.299-.32-.021-.527.146-.525.426 0 .082.012.131.045.198.07.146.201.233.612.41.756.326 1.08.54 1.28.846.225.34.276.883.123 1.287-.168.44-.583.738-1.168.837-.181.031-.61.026-.805-.009-.424-.075-.826-.285-1.074-.56-.098-.107-.287-.387-.275-.407a.786.786 0 0 1 .097-.062l.392-.226.304-.176.063.093c.09.136.284.322.4.384.338.178.8.153 1.029-.052a.389.389 0 0 0 .137-.317.387.387 0 0 0-.079-.268c-.082-.117-.25-.216-.726-.422-.544-.235-.78-.38-.994-.612a1.393 1.393 0 0 1-.29-.528c-.04-.15-.05-.523-.018-.674.112-.526.51-.893 1.083-1.002.186-.036.618-.022.801.023zm-2.48.44.004.432H7.11v3.906h-.972V6.412H4.763v-.424c0-.234.005-.43.011-.435.005-.007.842-.01 1.856-.009l1.846.005z" class="st1"/></svg>