<?xml version="1.0" encoding="UTF-8" standalone="no"?>
<!-- Created with Inkscape (http://www.inkscape.org/) -->

<svg
   xmlns:dc="http://purl.org/dc/elements/1.1/"
   xmlns:cc="http://creativecommons.org/ns#"
   xmlns:rdf="http://www.w3.org/1999/02/22-rdf-syntax-ns#"
   xmlns:svg="http://www.w3.org/2000/svg"
   xmlns="http://www.w3.org/2000/svg"
   xmlns:sodipodi="http://sodipodi.sourceforge.net/DTD/sodipodi-0.dtd"
   xmlns:inkscape="http://www.inkscape.org/namespaces/inkscape"
   width="64"
   height="64"
   viewBox="0 0 16.933333 16.933334"
   version="1.1"
   id="svg3222"
   inkscape:version="0.92.4 (5da689c313, 2019-01-14)"
   sodipodi:docname="text-x-changelog.svg">
  <defs
     id="defs3216" />
  <sodipodi:namedview
     id="base"
     pagecolor="#ffffff"
     bordercolor="#666666"
     borderopacity="1.0"
     inkscape:pageopacity="0.0"
     inkscape:pageshadow="2"
     inkscape:zoom="11.2"
     inkscape:cx="15.578121"
     inkscape:cy="45.219009"
     inkscape:document-units="mm"
     inkscape:current-layer="layer1"
     showgrid="true"
     units="px"
     inkscape:window-width="1024"
     inkscape:window-height="576"
     inkscape:window-x="-315"
     inkscape:window-y="263"
     inkscape:window-maximized="0">
    <inkscape:grid
       type="xygrid"
       id="grid969" />
  </sodipodi:namedview>
  <metadata
     id="metadata3219">
    <rdf:RDF>
      <cc:Work
         rdf:about="">
        <dc:format>image/svg+xml</dc:format>
        <dc:type
           rdf:resource="http://purl.org/dc/dcmitype/StillImage" />
        <dc:title></dc:title>
      </cc:Work>
    </rdf:RDF>
  </metadata>
  <g
     inkscape:label="Layer 1"
     inkscape:groupmode="layer"
     id="layer1"
     transform="translate(0,-280.06665)">
    <g
       transform="matrix(0.26458333,0,0,0.26458333,1.0666667e-7,18.562493)"
       id="text-x-preview_64"
       inkscape:label="#g4141">
      <g
         transform="matrix(1.3428376,0,0,1.340755,-0.22814694,988.19153)"
         id="layer1-1-7"
         inkscape:label="Layer 1">
        <path
           inkscape:connector-curvature="0"
           style="display:inline;fill:#fafafa;fill-opacity:1;stroke:none;stroke-width:0.99992186;stroke-linecap:butt;stroke-linejoin:round;stroke-miterlimit:4;stroke-dasharray:none;stroke-dashoffset:0;stroke-opacity:0.42452829"
           id="path4160-2"
           d="m 6.8655256,0.87983895 c 7.8515454,0 34.2636264,0.002756 34.2636264,0.002756 l 4e-5,43.24831005 c 0,0 -22.842445,0 -34.2636664,0 0,-14.417024 0,-28.834046 0,-43.25106605 z"
           sodipodi:nodetypes="ccccc" />
        <path
           inkscape:connector-curvature="0"
           style="display:inline;fill:none;fill-opacity:1;stroke:#4f6698;stroke-width:0.74521309;stroke-linecap:butt;stroke-linejoin:round;stroke-miterlimit:4;stroke-dasharray:none;stroke-dashoffset:0;stroke-opacity:0.26666667"
           id="path4160-3-1"
           d="m 6.4999609,0.49996093 c 8.0202951,0 35.0000391,0.0028 35.0000391,0.0028 l 4.2e-5,44.00280307 c 0,0 -23.333387,0 -35.0000811,0 0,-14.668535 0,-29.33707 0,-44.00560307 z"
           sodipodi:nodetypes="ccccc" />
      </g>
      <rect
         ry="2.17285e-05"
         rx="2.17285e-05"
         y="988.36218"
         x="0"
         height="63.999996"
         width="64"
         id="rect4139"
         style="opacity:0.75;fill:none;fill-opacity:0.56122448;stroke:none;stroke-width:1;stroke-linecap:butt;stroke-linejoin:miter;stroke-miterlimit:4;stroke-dasharray:none;stroke-dashoffset:0;stroke-opacity:1" />
    </g>
    <g
       id="g967"
       transform="translate(-1.7396405,1.2104585)">
      <path
         inkscape:connector-curvature="0"
         d="m 6.7657709,287.98524 h 0.5291666 c 0.07329,0 0.1322917,0.059 0.1322917,0.13229 v 0.52917 c 0,0.0733 -0.059002,0.13229 -0.1322917,0.13229 H 6.7657709 c -0.07329,0 -0.1322917,-0.059 -0.1322917,-0.13229 v -0.52917 c 0,-0.0733 0.059002,-0.13229 0.1322917,-0.13229 z m 1.3020939,1.1e-4 c -0.06059,0.004 -0.1122627,0.0512 -0.111469,0.10152 v 0.59063 c 0,0.0533 0.058235,0.10202 0.1226079,0.10149 h 4.5172843 c 0.06437,0 0.123243,-0.0482 0.122608,-0.10149 v -0.59063 c 0,-0.0533 -0.05824,-0.10205 -0.122608,-0.10152 H 8.0790037 c -0.0037,-1.3e-4 -0.00741,-1.3e-4 -0.011113,0 z"
         id="rect4432"
         style="color:#000000;display:inline;overflow:visible;visibility:visible;fill:#a2aab9;fill-opacity:1;fill-rule:nonzero;stroke:#8a92a2;stroke-width:0.26458332;stroke-linecap:square;stroke-linejoin:miter;stroke-miterlimit:4;stroke-dashoffset:0;stroke-opacity:1;marker:none;enable-background:accumulate" />
      <path
         inkscape:connector-curvature="0"
         d="m 7.2949375,289.57274 h 0.5291667 c 0.07329,0 0.1322916,0.059 0.1322916,0.13229 v 0.52917 c 0,0.0733 -0.059002,0.13229 -0.1322916,0.13229 H 7.2949375 c -0.07329,0 -0.1322916,-0.059 -0.1322916,-0.13229 v -0.52917 c 0,-0.0733 0.059002,-0.13229 0.1322916,-0.13229 z m 1.302094,1.1e-4 c -0.06059,0.004 -0.1122628,0.0512 -0.111469,0.10152 v 0.59063 c 0,0.0533 0.058235,0.10202 0.1226079,0.10149 h 4.5172846 c 0.06437,0 0.123243,-0.0482 0.122608,-0.10149 v -0.59063 c 0,-0.0533 -0.05823,-0.10205 -0.122608,-0.10152 H 8.6081704 c -0.0037,-1.3e-4 -0.00741,-1.3e-4 -0.011113,0 z"
         id="rect4432-4"
         style="color:#000000;display:inline;overflow:visible;visibility:visible;fill:#abd56b;fill-opacity:1;fill-rule:nonzero;stroke:#93bd52;stroke-width:0.26458332;stroke-linecap:square;stroke-linejoin:miter;stroke-miterlimit:4;stroke-dashoffset:0;stroke-opacity:1;marker:none;enable-background:accumulate" />
      <path
         inkscape:connector-curvature="0"
         d="m 6.7657709,291.16027 h 0.5291666 c 0.07329,0 0.1322917,0.059 0.1322917,0.13229 v 0.52917 c 0,0.0733 -0.059002,0.13229 -0.1322917,0.13229 H 6.7657709 c -0.07329,0 -0.1322917,-0.059 -0.1322917,-0.13229 v -0.52917 c 0,-0.0733 0.059002,-0.13229 0.1322917,-0.13229 z m 1.3020939,10e-5 c -0.06059,0.004 -0.1122627,0.0512 -0.111469,0.1015 v 0.59063 c 0,0.0533 0.058235,0.10205 0.1226079,0.10152 h 4.5172843 c 0.06437,0 0.123243,-0.0482 0.122608,-0.10152 v -0.59063 c 0,-0.0533 -0.05824,-0.10202 -0.122608,-0.1015 H 8.0790037 c -0.0037,-1.5e-4 -0.00741,-1.5e-4 -0.011113,0 z"
         id="rect4432-8"
         style="color:#000000;display:inline;overflow:visible;visibility:visible;fill:#a2aab9;fill-opacity:1;fill-rule:nonzero;stroke:#8a92a2;stroke-width:0.26458332;stroke-linecap:square;stroke-linejoin:miter;stroke-miterlimit:4;stroke-dashoffset:0;stroke-opacity:1;marker:none;enable-background:accumulate" />
      <path
         style="color:#000000;display:inline;overflow:visible;visibility:visible;fill:#a2aab9;fill-opacity:1;fill-rule:nonzero;stroke:#8a92a2;stroke-width:0.26458332;stroke-linecap:square;stroke-linejoin:miter;stroke-miterlimit:4;stroke-dashoffset:0;stroke-opacity:1;marker:none;enable-background:accumulate"
         id="path3198-58"
         d="m 6.7657709,281.63523 h 0.5291666 c 0.07329,0 0.1322917,0.059 0.1322917,0.1323 v 0.52917 c 0,0.0733 -0.059002,0.13229 -0.1322917,0.13229 H 6.7657709 c -0.07329,0 -0.1322917,-0.059 -0.1322917,-0.13229 v -0.52917 c 0,-0.0733 0.059002,-0.1323 0.1322917,-0.1323 z m 1.3020939,1.1e-4 c -0.06059,0.004 -0.1122627,0.0512 -0.111469,0.10153 v 0.59063 c 0,0.0533 0.058235,0.10202 0.1226079,0.10149 h 4.5172843 c 0.06437,0 0.123243,-0.0482 0.122608,-0.10149 v -0.59063 c 0,-0.0533 -0.05824,-0.10206 -0.122608,-0.10153 H 8.0790037 c -0.0037,-1.3e-4 -0.00741,-1.3e-4 -0.011113,0 z"
         inkscape:connector-curvature="0" />
      <path
         style="color:#000000;display:inline;overflow:visible;visibility:visible;fill:#abd56b;fill-opacity:1;fill-rule:nonzero;stroke:#93bd52;stroke-width:0.26458332;stroke-linecap:square;stroke-linejoin:miter;stroke-miterlimit:4;stroke-dashoffset:0;stroke-opacity:1;marker:none;enable-background:accumulate"
         id="path3216"
         d="m 7.2949375,283.22274 h 0.5291667 c 0.07329,0 0.1322916,0.059 0.1322916,0.13229 v 0.52917 c 0,0.0733 -0.059002,0.13229 -0.1322916,0.13229 H 7.2949375 c -0.07329,0 -0.1322916,-0.059 -0.1322916,-0.13229 v -0.52917 c 0,-0.0733 0.059002,-0.13229 0.1322916,-0.13229 z m 1.302094,1.1e-4 c -0.06059,0.004 -0.1122628,0.0512 -0.111469,0.10152 v 0.59063 c 0,0.0533 0.058235,0.10202 0.1226079,0.10149 h 4.5172846 c 0.06437,0 0.123243,-0.0482 0.122608,-0.10149 v -0.59063 c 0,-0.0533 -0.05823,-0.10205 -0.122608,-0.10152 H 8.6081704 c -0.0037,-1.3e-4 -0.00741,-1.3e-4 -0.011113,0 z"
         inkscape:connector-curvature="0" />
      <path
         style="color:#000000;display:inline;overflow:visible;visibility:visible;fill:#abd56b;fill-opacity:1;fill-rule:nonzero;stroke:#93bd52;stroke-width:0.26458332;stroke-linecap:square;stroke-linejoin:miter;stroke-miterlimit:4;stroke-dashoffset:0;stroke-opacity:1;marker:none;enable-background:accumulate"
         id="path3252"
         d="m 7.2949375,286.39774 h 0.5291667 c 0.07329,0 0.1322916,0.059 0.1322916,0.13229 v 0.52917 c 0,0.0733 -0.059002,0.13229 -0.1322916,0.13229 H 7.2949375 c -0.07329,0 -0.1322916,-0.059 -0.1322916,-0.13229 v -0.52917 c 0,-0.0733 0.059002,-0.13229 0.1322916,-0.13229 z m 1.302094,1.1e-4 c -0.06059,0.004 -0.1122628,0.0512 -0.111469,0.10152 V 287.09 c 0,0.0533 0.058235,0.10202 0.1226079,0.10149 h 4.5172846 c 0.06437,0 0.123243,-0.0482 0.122608,-0.10149 v -0.59063 c 0,-0.0533 -0.05823,-0.10205 -0.122608,-0.10152 H 8.6081704 c -0.0037,-1.3e-4 -0.00741,-1.3e-4 -0.011113,0 z"
         inkscape:connector-curvature="0" />
      <path
         style="color:#000000;display:inline;overflow:visible;visibility:visible;fill:#efb458;fill-opacity:1;fill-rule:nonzero;stroke:#d9a047;stroke-width:0.26458332;stroke-linecap:square;stroke-linejoin:miter;stroke-miterlimit:4;stroke-dashoffset:0;stroke-opacity:1;marker:none;enable-background:accumulate"
         id="path3270"
         d="m 7.8241042,284.81027 h 0.5291666 c 0.07329,0 0.1322917,0.059 0.1322917,0.13229 v 0.52917 c 0,0.0733 -0.059002,0.13229 -0.1322917,0.13229 H 7.8241042 c -0.07329,0 -0.1322917,-0.059 -0.1322917,-0.13229 v -0.52917 c 0,-0.0733 0.059002,-0.13229 0.1322917,-0.13229 z m 1.3020939,10e-5 c -0.06059,0.004 -0.1122627,0.0512 -0.1114689,0.1015 v 0.59063 c 0,0.0533 0.058235,0.10205 0.1226079,0.10152 h 4.5172839 c 0.06437,0 0.123243,-0.0482 0.122608,-0.10152 v -0.59063 c 0,-0.0533 -0.05823,-0.10202 -0.122608,-0.1015 H 9.1373371 c -0.0037,-1.5e-4 -0.00741,-1.5e-4 -0.011112,0 z"
         inkscape:connector-curvature="0" />
    </g>
  </g>
</svg>
