<?xml version="1.0" encoding="UTF-8" standalone="no"?>
<svg
   xmlns:dc="http://purl.org/dc/elements/1.1/"
   xmlns:cc="http://creativecommons.org/ns#"
   xmlns:rdf="http://www.w3.org/1999/02/22-rdf-syntax-ns#"
   xmlns:svg="http://www.w3.org/2000/svg"
   xmlns="http://www.w3.org/2000/svg"
   xmlns:xlink="http://www.w3.org/1999/xlink"
   xmlns:sodipodi="http://sodipodi.sourceforge.net/DTD/sodipodi-0.dtd"
   xmlns:inkscape="http://www.inkscape.org/namespaces/inkscape"
   id="svg3130"
   height="64"
   width="64"
   version="1.1"
   inkscape:version="0.92.4 (5da689c313, 2019-01-14)"
   sodipodi:docname="text-x-tex.svg">
  <sodipodi:namedview
     pagecolor="#ffffff"
     bordercolor="#666666"
     borderopacity="1"
     objecttolerance="10"
     gridtolerance="10"
     guidetolerance="10"
     inkscape:pageopacity="0"
     inkscape:pageshadow="2"
     inkscape:window-width="1366"
     inkscape:window-height="713"
     id="namedview40"
     showgrid="false"
     inkscape:zoom="7.375"
     inkscape:cx="16.155091"
     inkscape:cy="29.70415"
     inkscape:window-x="0"
     inkscape:window-y="25"
     inkscape:window-maximized="1"
     inkscape:current-layer="svg3130" />
  <defs
     id="defs3132">
    <linearGradient
       gradientTransform="matrix(1.3428566,0,0,1.3407401,-2.433093,-4.2520302)"
       gradientUnits="userSpaceOnUse"
       xlink:href="#linearGradient3104-5"
       id="linearGradient3072"
       y2="3.3638515"
       x2="22.004084"
       y1="47.813133"
       x1="22.004084" />
    <linearGradient
       id="linearGradient3104-5">
      <stop
         offset="0"
         style="stop-color:#aaaaaa;stop-opacity:1"
         id="stop3106-2" />
      <stop
         offset="1"
         style="stop-color:#c8c8c8;stop-opacity:1"
         id="stop3108-5" />
    </linearGradient>
    <linearGradient
       gradientTransform="matrix(1.0843523,0,0,1.1997367,79.550862,-4.1628601)"
       gradientUnits="userSpaceOnUse"
       xlink:href="#linearGradient3104-6"
       id="linearGradient3048"
       y2="2.9062471"
       x2="-51.786404"
       y1="50.786446"
       x1="-51.786404" />
    <linearGradient
       id="linearGradient3104-6">
      <stop
         offset="0"
         style="stop-color:#000000;stop-opacity:0.31782946"
         id="stop3106-3" />
      <stop
         offset="1"
         style="stop-color:#000000;stop-opacity:0.24031007"
         id="stop3108-9" />
    </linearGradient>
    <linearGradient
       gradientTransform="matrix(1.2162162,0,0,1.5405376,2.8108184,-6.9729501)"
       gradientUnits="userSpaceOnUse"
       xlink:href="#linearGradient3977-4"
       id="linearGradient3051"
       y2="42.100208"
       x2="23.99999"
       y1="5.8641062"
       x1="23.99999" />
    <linearGradient
       id="linearGradient3977-4">
      <stop
         offset="0"
         style="stop-color:#ffffff;stop-opacity:1"
         id="stop3979-7" />
      <stop
         offset="0.01214366"
         style="stop-color:#ffffff;stop-opacity:0.23529412"
         id="stop3981-6" />
      <stop
         offset="0.98781353"
         style="stop-color:#ffffff;stop-opacity:0.15686275"
         id="stop3983-5" />
      <stop
         offset="1"
         style="stop-color:#ffffff;stop-opacity:0.39215687"
         id="stop3985-6" />
    </linearGradient>
    <linearGradient
       gradientTransform="matrix(1.3142827,0,0,1.2602393,0.4572141,-2.1793201)"
       gradientUnits="userSpaceOnUse"
       xlink:href="#linearGradient3600-9"
       id="linearGradient3054"
       y2="47.013336"
       x2="25.132275"
       y1="0.98520643"
       x1="25.132275" />
    <linearGradient
       id="linearGradient3600-9">
      <stop
         offset="0"
         style="stop-color:#f4f4f4;stop-opacity:1"
         id="stop3602-3" />
      <stop
         offset="1"
         style="stop-color:#dbdbdb;stop-opacity:1"
         id="stop3604-7" />
    </linearGradient>
    <radialGradient
       gradientTransform="matrix(0.03132633,0,0,0.02058823,35.220859,49.45142)"
       gradientUnits="userSpaceOnUse"
       xlink:href="#linearGradient5060"
       id="radialGradient3057"
       fy="486.64789"
       fx="605.71429"
       r="117.14286"
       cy="486.64789"
       cx="605.71429" />
    <linearGradient
       id="linearGradient5060">
      <stop
         offset="0"
         style="stop-color:#000000;stop-opacity:1"
         id="stop5062" />
      <stop
         offset="1"
         style="stop-color:#000000;stop-opacity:0"
         id="stop5064" />
    </linearGradient>
    <radialGradient
       gradientTransform="matrix(-0.03132632,0,0,0.02058823,28.779136,49.45142)"
       gradientUnits="userSpaceOnUse"
       xlink:href="#linearGradient5060"
       id="radialGradient3060"
       fy="486.64789"
       fx="605.71429"
       r="117.14286"
       cy="486.64789"
       cx="605.71429" />
    <linearGradient
       id="linearGradient5048">
      <stop
         offset="0"
         style="stop-color:#000000;stop-opacity:0"
         id="stop5050" />
      <stop
         offset="0.5"
         style="stop-color:#000000;stop-opacity:1"
         id="stop5056" />
      <stop
         offset="1"
         style="stop-color:#000000;stop-opacity:0"
         id="stop5052" />
    </linearGradient>
    <linearGradient
       gradientTransform="matrix(0.09153846,0,0,0.02058823,-1.084616,49.45142)"
       gradientUnits="userSpaceOnUse"
       xlink:href="#linearGradient5048"
       id="linearGradient3128"
       y2="609.50507"
       x2="302.85715"
       y1="366.64789"
       x1="302.85715" />
  </defs>
  <metadata
     id="metadata3135">
    <rdf:RDF>
      <cc:Work
         rdf:about="">
        <dc:format>image/svg+xml</dc:format>
        <dc:type
           rdf:resource="http://purl.org/dc/dcmitype/StillImage" />
        <dc:title />
      </cc:Work>
    </rdf:RDF>
  </metadata>
  <g
     transform="translate(4.0314962e-7,-988.36218)"
     id="text-x-preview_64"
     inkscape:label="#g4141">
    <g
       transform="matrix(1.3428376,0,0,1.340755,-0.22814694,988.19153)"
       id="layer1-1-7"
       inkscape:label="Layer 1">
      <path
         inkscape:connector-curvature="0"
         style="display:inline;fill:#fafafa;fill-opacity:1;stroke:none;stroke-width:0.99992186;stroke-linecap:butt;stroke-linejoin:round;stroke-miterlimit:4;stroke-dasharray:none;stroke-dashoffset:0;stroke-opacity:0.42452829"
         id="path4160-2"
         d="m 6.8655256,0.87983895 c 7.8515454,0 34.2636264,0.002756 34.2636264,0.002756 l 4e-5,43.24831005 c 0,0 -22.842445,0 -34.2636664,0 0,-14.417024 0,-28.834046 0,-43.25106605 z"
         sodipodi:nodetypes="ccccc" />
      <path
         inkscape:connector-curvature="0"
         style="display:inline;fill:none;fill-opacity:1;stroke:#4f6698;stroke-width:0.74521309;stroke-linecap:butt;stroke-linejoin:round;stroke-miterlimit:4;stroke-dasharray:none;stroke-dashoffset:0;stroke-opacity:0.26666667"
         id="path4160-3-1"
         d="m 6.4999609,0.49996093 c 8.0202951,0 35.0000391,0.0028 35.0000391,0.0028 l 4.2e-5,44.00280307 c 0,0 -23.333387,0 -35.0000811,0 0,-14.668535 0,-29.33707 0,-44.00560307 z"
         sodipodi:nodetypes="ccccc" />
    </g>
    <rect
       ry="2.17285e-05"
       rx="2.17285e-05"
       y="988.36218"
       x="0"
       height="63.999996"
       width="64"
       id="rect4139"
       style="opacity:0.75;fill:none;fill-opacity:0.56122448;stroke:none;stroke-width:1;stroke-linecap:butt;stroke-linejoin:miter;stroke-miterlimit:4;stroke-dasharray:none;stroke-dashoffset:0;stroke-opacity:1" />
  </g>
  <path
     inkscape:connector-curvature="0"
     style="font-style:normal;font-variant:normal;font-weight:normal;font-stretch:normal;font-size:15.12844849px;line-height:125%;font-family:'Latin Modern Roman';-inkscape-font-specification:'Latin Modern Roman';text-align:start;letter-spacing:0px;word-spacing:0px;writing-mode:lr-tb;text-anchor:start;opacity:1;fill:#b3b3b3;fill-opacity:1;stroke:none"
     d="m 36.310186,22.0625 0,0.659721 0.439814,0 c 1.171052,0 1.574621,0.151515 1.979167,0.747686 l 3.914352,5.9375 L 39.125,34.55324 c -0.298086,0.425839 -0.928225,1.407408 -3.078705,1.407408 l 0,0.659723 2.375,-0.08796 c 0.7878,0 1.960344,0.02408 2.726853,0.08796 l 0,-0.659723 c -0.979426,-0.02129 -1.363427,-0.62832 -1.363427,-1.011574 0,-0.191626 0.07089,-0.249585 0.219908,-0.483795 l 3.034723,-4.486112 3.342591,5.101852 c 0.04258,0.08515 0.131945,0.156031 0.131945,0.219907 0,0.255502 -0.491855,0.638429 -1.407407,0.659722 l 0,0.659723 c 0.745217,-0.06387 2.313593,-0.08796 3.122686,-0.08796 L 51,36.620371 l 0,-0.659723 -0.395833,0 c -1.107179,0 -1.57602,-0.131621 -2.023148,-0.791667 l -4.486112,-6.773148 2.902779,-4.266204 c 0.468422,-0.68134 1.227708,-1.386115 3.122685,-1.407408 l 0,-0.659721 -2.375,0.08796 c -0.851676,0 -1.875178,-0.02408 -2.726852,-0.08796 l 0,0.659721 c 0.851674,0.02129 1.319445,0.477882 1.319445,0.967593 0,0.212918 -0.02689,0.293569 -0.175928,0.527779 l -2.462962,3.5625 -2.726853,-4.090279 c -0.04258,-0.06387 -0.131942,-0.222704 -0.131942,-0.307871 0,-0.255503 0.447873,-0.638429 1.363426,-0.659722 l 0,-0.659721 c -0.745216,0.06387 -2.313597,0.08796 -3.122686,0.08796 L 36.310186,22.0625 Z M 13.395833,22.194443 13,26.988426 l 0.527779,0 c 0.298084,-3.427991 0.611314,-4.134259 3.826388,-4.134259 0.383254,0 0.930601,0.0014 1.143519,0.04398 0.447127,0.08515 0.483795,0.301955 0.483795,0.791666 l 0,11.215279 c 0,0.723921 -0.0075,1.055555 -2.243055,1.055555 l -0.879631,0 0,0.659723 c 0.872969,-0.06387 3.066872,-0.08796 4.046298,-0.08796 0.979426,0 3.17333,0.02408 4.046295,0.08796 l 0,-0.659723 -0.879628,0 c -2.235645,0 -2.199074,-0.331634 -2.199074,-1.055555 l 0,-11.215279 c 0,-0.425836 -0.0314,-0.706498 0.35185,-0.791666 0.234212,-0.04258 0.826937,-0.04398 1.231483,-0.04398 3.215071,0 3.528302,0.706268 3.826388,4.134259 l 0.527779,0 -0.395834,-4.793983 -13.018519,0 z m 11.523148,5.58565 0,0.659721 0.527779,0 c 1.639473,0 1.671297,0.201087 1.671297,0.967593 l 0,11.171298 c 0,0.766505 -0.03182,1.011574 -1.671297,1.011574 l -0.527779,0 0,0.659721 12.270833,0 0.923612,-5.497686 -0.571759,0 c -0.532296,3.278948 -0.999836,4.837965 -4.662038,4.837965 l -2.814815,0 c -1.000717,0 -1.055554,-0.177 -1.055554,-0.879631 l 0,-5.673612 1.891204,0 c 2.065309,0 2.331017,0.697137 2.331017,2.506945 l 0.527779,0 0,-5.67361 -0.527779,0 c 0,1.831099 -0.265708,2.506943 -2.331017,2.506943 l -1.891204,0 0,-5.10185 c 0,-0.702631 0.05485,-0.83565 1.055554,-0.83565 l 2.726853,0 c 3.257654,0 3.83757,1.130709 4.17824,4.090279 l 0.527779,0 -0.615743,-4.75 -11.962962,0 z"
     id="path4447" />
</svg>
