<svg xmlns="http://www.w3.org/2000/svg" width="64" height="64"><rect width="64" height="64" y="-.012" fill="none" opacity=".75" rx="0" ry="0"/><path fill="#12cdad" d="M9 1.002H55v59H9.003v-59z" color="#000" overflow="visible"/><path fill="none" stroke="#0f9c85" stroke-linecap="round" stroke-linejoin="round" stroke-width="1.002" d="m8.5.499 47 .004V60.5H8.502V.499z" color="#000" overflow="visible"/><path fill="#127666" d="M21 19.501v1h22v-1zm0 3v1h22v-1zm0 3v1h11v-1zm0 4v1h22v-1zm0 3v1h19v-1zm0 2v1h11v-1zm0 3v1h22v-1zm0 3v1h16v-1z"/></svg>