<svg xmlns="http://www.w3.org/2000/svg" width="64" height="64"><rect width="64" height="64" y="-.012" fill="none" opacity=".75" rx="0" ry="0"/><path fill="#913d88" d="M9 1.002H55v59H9.003v-59z" color="#000" overflow="visible"/><path fill="none" stroke="#6d2e66" stroke-linecap="round" stroke-linejoin="round" stroke-width="1.002" d="m8.5.499 47 .004V60.5H8.502V.499z" color="#000" overflow="visible"/><g fill="#fff"><path d="M38 20.501v3h-3v1h3v3h1v-3h3v-1h-3v-3z" opacity=".75"/><path fill-rule="evenodd" d="M22 20.501v20h1v-6a4 4 0 1 1 8 0v6h1v-6a5 5 0 0 0-5-5 5 5 0 0 0-4 2.01v-11.01z" opacity=".75"/><path d="M30 20.501v3h-3v1h3v3h1v-3h3v-1h-3v-3z" opacity=".75"/></g></svg>