<svg xmlns="http://www.w3.org/2000/svg" width="64" height="64" viewBox="0 0 16.933 16.933"><g transform="translate(0 -261.5) scale(.26458)"><path fill="#fafafa" d="m8.991 989.37 46.01.004v57.985H8.992V989.37z"/><path fill="none" stroke="#4f6698" stroke-linejoin="round" stroke-opacity=".267" stroke-width=".745" d="m6.5.5 35 .003v44.003h-35z" transform="matrix(1.3428 0 0 1.3408 -.228 988.19)"/><rect width="64" height="64" y="988.36" fill="none" opacity=".75" rx="0" ry="0"/></g><g transform="matrix(.00802 0 0 .00802 4.668 4.67)"><path fill="none" stroke="#888" stroke-dasharray="62.038" stroke-width="16.496" d="M877.79 267.49c49.976 98.079 62.591 210.98 35.499 317.67s-92.043 199.88-182.74 262.21a453.42 453.42 0 0 1-310.24 76.578c-109.28-12.964-210.14-65.22-283.79-147.02-152.35-169.2-155.81-425.03-7.983-598.14 141.02-165.14 378.02-206.18 565.33-101.96a458.041 458.041 0 0 1 26.77 16.117"/><circle cx="473.6" cy="473.46" r="362.92" fill="#1a7fd4"/><circle cx="622.07" cy="324.99" r="82.482" fill="#fff"/><circle cx="820.02" cy="127.04" r="82.482" fill="#1a7fd4"/></g></svg>