<?xml version="1.0" encoding="UTF-8" standalone="no"?>
<!-- Created with Inkscape (http://www.inkscape.org/) -->

<svg
   xmlns:dc="http://purl.org/dc/elements/1.1/"
   xmlns:cc="http://creativecommons.org/ns#"
   xmlns:rdf="http://www.w3.org/1999/02/22-rdf-syntax-ns#"
   xmlns:svg="http://www.w3.org/2000/svg"
   xmlns="http://www.w3.org/2000/svg"
   xmlns:xlink="http://www.w3.org/1999/xlink"
   xmlns:sodipodi="http://sodipodi.sourceforge.net/DTD/sodipodi-0.dtd"
   xmlns:inkscape="http://www.inkscape.org/namespaces/inkscape"
   width="64"
   height="64"
   viewBox="0 0 16.933333 16.933334"
   version="1.1"
   id="svg3222"
   inkscape:version="0.92.4 (5da689c313, 2019-01-14)"
   sodipodi:docname="text-vnd.trolltech.linguist.svg">
  <defs
     id="defs3216">
    <radialGradient
       inkscape:collect="always"
       xlink:href="#linearGradient3242-6-6"
       id="radialGradient3471"
       gradientUnits="userSpaceOnUse"
       gradientTransform="matrix(0.73806726,3.7146825,-1.1045595,0.21946403,23.862172,-53.039586)"
       cx="17.680819"
       cy="17.410549"
       fx="17.680819"
       fy="17.410549"
       r="8.484375" />
    <linearGradient
       id="linearGradient3242-6-6">
      <stop
         id="stop3244-3-4"
         style="stop-color:#f8b17e;stop-opacity:1"
         offset="0" />
      <stop
         id="stop3246-2-3"
         style="stop-color:#e35d4f;stop-opacity:1"
         offset="0.26238" />
      <stop
         id="stop3248-0-3"
         style="stop-color:#c6262e;stop-opacity:1"
         offset="0.66093999" />
      <stop
         id="stop3250-6-3"
         style="stop-color:#690b54;stop-opacity:1"
         offset="1" />
    </linearGradient>
    <linearGradient
       inkscape:collect="always"
       xlink:href="#linearGradient2490-6-6"
       id="linearGradient3473"
       gradientUnits="userSpaceOnUse"
       x1="30"
       y1="34.716728"
       x2="30"
       y2="15.569297" />
    <linearGradient
       id="linearGradient2490-6-6">
      <stop
         id="stop2492-1-04"
         style="stop-color:#791235;stop-opacity:1"
         offset="0" />
      <stop
         id="stop2494-0-8"
         style="stop-color:#dd3b27;stop-opacity:1"
         offset="1" />
    </linearGradient>
    <linearGradient
       inkscape:collect="always"
       xlink:href="#linearGradient3316-1"
       id="linearGradient3475"
       gradientUnits="userSpaceOnUse"
       x1="27.823339"
       y1="14.36416"
       x2="27.823339"
       y2="34.008301" />
    <linearGradient
       id="linearGradient3316-1">
      <stop
         id="stop3318-0"
         style="stop-color:#ffffff;stop-opacity:1;"
         offset="0" />
      <stop
         offset="0.09090909"
         style="stop-color:#ffffff;stop-opacity:0.23529412;"
         id="stop3320-8" />
      <stop
         id="stop3322-1"
         style="stop-color:#ffffff;stop-opacity:0.15686275;"
         offset="0.9545455" />
      <stop
         id="stop3324-6"
         style="stop-color:#ffffff;stop-opacity:0.39215687;"
         offset="1" />
    </linearGradient>
  </defs>
  <sodipodi:namedview
     id="base"
     pagecolor="#ffffff"
     bordercolor="#666666"
     borderopacity="1.0"
     inkscape:pageopacity="0.0"
     inkscape:pageshadow="2"
     inkscape:zoom="2.8"
     inkscape:cx="43.961125"
     inkscape:cy="22.305884"
     inkscape:document-units="mm"
     inkscape:current-layer="layer1"
     showgrid="true"
     units="px"
     inkscape:window-width="1024"
     inkscape:window-height="576"
     inkscape:window-x="-240"
     inkscape:window-y="261"
     inkscape:window-maximized="0">
    <inkscape:grid
       type="xygrid"
       id="grid4615" />
  </sodipodi:namedview>
  <metadata
     id="metadata3219">
    <rdf:RDF>
      <cc:Work
         rdf:about="">
        <dc:format>image/svg+xml</dc:format>
        <dc:type
           rdf:resource="http://purl.org/dc/dcmitype/StillImage" />
        <dc:title></dc:title>
      </cc:Work>
    </rdf:RDF>
  </metadata>
  <g
     inkscape:label="Layer 1"
     inkscape:groupmode="layer"
     id="layer1"
     transform="translate(0,-280.06665)">
    <g
       transform="matrix(0.26458333,0,0,0.26458333,1.0666667e-7,18.562493)"
       id="text-x-preview_64"
       inkscape:label="#g4141">
      <g
         transform="matrix(1.3428376,0,0,1.340755,-0.22814694,988.19153)"
         id="layer1-1-7"
         inkscape:label="Layer 1">
        <path
           inkscape:connector-curvature="0"
           style="display:inline;fill:#fafafa;fill-opacity:1;stroke:none;stroke-width:0.99992186;stroke-linecap:butt;stroke-linejoin:round;stroke-miterlimit:4;stroke-dasharray:none;stroke-dashoffset:0;stroke-opacity:0.42452829"
           id="path4160-2"
           d="m 6.8655256,0.87983895 c 7.8515454,0 34.2636264,0.002756 34.2636264,0.002756 l 4e-5,43.24831005 c 0,0 -22.842445,0 -34.2636664,0 0,-14.417024 0,-28.834046 0,-43.25106605 z"
           sodipodi:nodetypes="ccccc" />
        <path
           inkscape:connector-curvature="0"
           style="display:inline;fill:none;fill-opacity:1;stroke:#4f6698;stroke-width:0.74521309;stroke-linecap:butt;stroke-linejoin:round;stroke-miterlimit:4;stroke-dasharray:none;stroke-dashoffset:0;stroke-opacity:0.26666667"
           id="path4160-3-1"
           d="m 6.4999609,0.49996093 c 8.0202951,0 35.0000391,0.0028 35.0000391,0.0028 l 4.2e-5,44.00280307 c 0,0 -23.333387,0 -35.0000811,0 0,-14.668535 0,-29.33707 0,-44.00560307 z"
           sodipodi:nodetypes="ccccc" />
      </g>
      <rect
         ry="2.17285e-05"
         rx="2.17285e-05"
         y="988.36218"
         x="0"
         height="63.999996"
         width="64"
         id="rect4139"
         style="opacity:0.75;fill:none;fill-opacity:0.56122448;stroke:none;stroke-width:1;stroke-linecap:butt;stroke-linejoin:miter;stroke-miterlimit:4;stroke-dasharray:none;stroke-dashoffset:0;stroke-opacity:1" />
    </g>
    <g
       id="g910"
       transform="translate(12.071331,1.8206411)">
      <g
         inkscape:label="Layer 1"
         id="g3467"
         transform="matrix(0.26458333,0,0,0.26458333,-11.808183,278.24601)">
        <g
           transform="translate(0.00542589,-3.9798056e-6)"
           id="g3465"
           inkscape:label="Layer 1">
          <g
             transform="translate(-0.0089737,-988.35308)"
             id="g3445"
             inkscape:label="Layer 1">
            <g
               transform="matrix(1.34253,0,0,1.3410074,-0.21717414,988.18231)"
               id="g3443"
               inkscape:label="Layer 1" />
          </g>
          <g
             id="g3459"
             style="fill:#000000;fill-opacity:0.39215686">
            <path
               sodipodi:nodetypes="ccccccccccccccccccccccccccccccccccccccccccccccccccccccccccccccccccccccccccccccccccccccccccccccccccccccccccccccccccccccccccccccccccccccccccccccccccccccccccccccccccccccccccccccccccccccccc"
               id="path3447"
               d="m 15,9 v 1 h 3.189283 V 9 Z m 3.608926,0 v 1 h 3.021426 V 9 Z m 3.441069,0 v 1 h 2.643748 V 9 Z m 3.063391,0 v 1 h 1.174999 V 9 Z m 1.594642,0 v 1 h 2.601784 V 9 Z m 3.063391,0 v 1 H 36.4857 V 9 Z M 15,12 v 1 h 5.077675 v -1 z m 5.581246,0 v 1 h 2.433927 v -1 z m 2.895534,0 v 1 h 1.133035 v -1 z m 1.636606,0 v 1 h 2.182141 v -1 z m 2.685712,0 v 1 h 2.182142 v -1 z m 2.643749,0 v 1 h 3.566962 v -1 z m 4.070533,0 v 1 h 4.658032 V 12 Z M 15,15 v 1 h 5.62321 v -1 z m 6.042853,0 v 1 h 6.042853 V 15 Z M 15,18 v 1 h 3.105355 v -1 z m 3.524997,0 v 1 h 2.895534 v -1 z m 3.315177,0 v 1 h 2.559819 v -1 z m 5.245532,15 v 1 h 3.147319 v -1 z m 3.566962,0 v 1 h 2.937498 v -1 z m 3.357141,0 v 1 H 36.4857 v -1 z m -6.924103,3 v 1 h 2.517856 v -1 z m 2.937498,0 v 1 H 36.4857 v -1 z m 6.882139,0 v 1 h 4.951782 v -1 z m -9.819637,3 v 1 h 3.273212 v -1 z m 3.734819,0 v 1 h 5.749103 v -1 z m 6.168746,0 v 1 h 3.94464 v -1 z m -9.903565,3 v 1 h 2.517856 v -1 z m 2.937498,0 v 1 h 2.55982 v -1 z m 2.979462,0 v 1 h 3.650891 v -1 z m 4.070534,0 v 1 h 0.755356 v -1 z m 1.174999,0 v 1 h 4.741961 v -1 z m -11.246421,9 v 1 h 3.273212 v -1 z m 3.692854,0 v 1 h 3.021427 v -1 z m 3.483034,0 v 1 h 2.601784 v -1 z m 3.021426,0 v 1 h 4.154462 v -1 z m 4.616069,0 v 1 h 6.756245 v -1 z"
               style="display:inline;fill:#b4bfd8;fill-opacity:1;stroke:none"
               inkscape:connector-curvature="0" />
            <path
               sodipodi:nodetypes="cccccccccc"
               id="path3449"
               d="m 15,21 v 1 h 4.112497 v -1 z m 0,3 v 1 h 4.154461 v -1 z"
               style="display:inline;fill:#b4bfd8;fill-opacity:1;stroke:none"
               inkscape:connector-curvature="0" />
            <path
               sodipodi:nodetypes="cccccccccccccccccccccccccccccccccccccccccccccccccccccccccccccccccccccccccccccccc"
               id="path3451"
               d="m 19.574104,21 v 1 h 7.511602 v -1 z m 0.04196,3 v 1 h 6.840174 v -1 z m 1.594642,21 v 1 h 6.168746 v -1 z m 6.630353,0 v 1 h 2.433927 v -1 z m 2.895534,0 v 1 h 5.791067 v -1 z m 6.252674,0 v 1 h 3.986605 v -1 z m 4.406247,0 v 1 h 1.552678 v -1 z m 2.014285,0 v 1 h 0.923213 v -1 z m 1.342856,0 v 1 h 2.475891 V 45 Z M 23.22499,48 v 1 h 1.091071 v -1 z m 1.384821,0 v 1 h 2.182141 v -1 z m 2.517855,0 v 1 h 2.182142 v -1 z m 2.85357,0 v 1 h 3.483033 v -1 z m 3.902676,0 v 1 h 4.53214 v -1 z m 5.161604,0 v 1 h 3.063391 v -1 z m 3.441069,0 v 1 h 0.713392 v -1 z"
               style="display:inline;fill:#b4bfd8;fill-opacity:1;stroke:none"
               inkscape:connector-curvature="0" />
            <path
               sodipodi:nodetypes="ccccc"
               d="m 15,51 h 4.077913 v 1 H 15 Z"
               id="path3453"
               style="display:inline;fill:#b4bfd8;fill-opacity:1;stroke:none"
               inkscape:connector-curvature="0" />
            <path
               sodipodi:nodetypes="cccccccccccccccccccccccccccccccccccccccccccccccccc"
               id="path3455"
               d="m 18.692854,27 v 1 h 3.021427 V 27 Z M 15,30 v 1 h 1.342856 v -1 z m 4.23839,3 v 1 h 2.475891 v -1 z m 0.167857,3 v 1 h 3.65089 v -1 z m -0.461607,3 v 1 h 2.769641 v -1 z m -0.503571,3 v 1 h 2.853569 V 42 Z M 15,45 v 1 h 5.749103 v -1 z m 0,3 v 1 h 4.951782 v -1 z m 5.32946,0 v 1 h 2.391963 v -1 z m -0.839285,3 v 1 h 4.490176 v -1 z"
               style="display:inline;fill:#b4bfd8;fill-opacity:1;stroke:none"
               inkscape:connector-curvature="0" />
            <path
               sodipodi:nodetypes="ccccccccccccccccccccccccc"
               id="path3457"
               d="m 15,27 v 1 h 3.147319 v -1 z m 0,6 v 1 h 3.692854 v -1 z m 0,3 v 1 h 3.94464 v -1 z m 0,3 v 1 h 3.399105 v -1 z m 0,3 v 1 h 2.979462 v -1 z"
               style="display:inline;fill:#b4bfd8;fill-opacity:1;stroke:none"
               inkscape:connector-curvature="0" />
          </g>
          <g
             transform="translate(7.5,8.5)"
             style="font-style:normal;font-variant:normal;font-weight:bold;font-stretch:normal;font-size:20px;line-height:125%;font-family:'Droid Sans';-inkscape-font-specification:'Droid Sans Bold';letter-spacing:0px;word-spacing:0px;fill:url(#radialGradient3471);fill-opacity:1;stroke:url(#linearGradient3473)"
             id="g3461" />
          <g
             id="g3463"
             style="font-style:normal;font-variant:normal;font-weight:bold;font-stretch:normal;font-size:20px;line-height:125%;font-family:'Droid Sans';-inkscape-font-specification:'Droid Sans Bold';letter-spacing:0px;word-spacing:0px;fill:none;stroke:url(#linearGradient3475);stroke-width:1.14006674;stroke-opacity:1"
             transform="matrix(0.87671233,0,0,0.87757116,11.10861,11.662581)" />
        </g>
      </g>
      <rect
         style="opacity:1;fill:#fafafa;fill-opacity:1;stroke:none;stroke-width:0.52916664;stroke-linecap:butt;stroke-linejoin:miter;stroke-miterlimit:4;stroke-dasharray:none;stroke-dashoffset:0;stroke-opacity:1"
         id="rect7434"
         width="3.96875"
         height="0.52916664"
         x="-8.3671703"
         y="281.95016" />
      <g
         id="text7706-3-50"
         style="font-style:normal;font-weight:bold;font-size:50px;line-height:125%;font-family:Sans;-inkscape-font-specification:'Sans Bold';letter-spacing:0px;word-spacing:0px;fill:#000000;fill-opacity:1;stroke:none;stroke-width:1px;stroke-linecap:butt;stroke-linejoin:miter;stroke-opacity:1"
         transform="matrix(0.26458333,0,0,0.26458333,-483.29425,75.046011)">
        <path
           sodipodi:nodetypes="ccccccccc"
           inkscape:connector-curvature="0"
           id="path7829"
           style="font-style:normal;font-variant:normal;font-weight:bold;font-stretch:normal;font-size:35px;font-family:'Futura Bk BT';-inkscape-font-specification:'Futura Bk BT Bold';fill:#007acc;fill-opacity:1"
           d="m 1807.1301,791 v 21 h -4.2249 V 791 H 1796 v -4 h 18 v 4 z" />
        <path
           sodipodi:nodetypes="cccscscccscsccccscscccscscc"
           inkscape:connector-curvature="0"
           id="path7831"
           style="font-style:normal;font-variant:normal;font-weight:bold;font-stretch:normal;font-size:35px;font-family:'Futura Bk BT';-inkscape-font-specification:'Futura Bk BT Bold';fill:#007acc;fill-opacity:1"
           d="m 1815,807.38021 3.4071,-1.48958 c 0.3229,1.10589 0.9147,1.95224 1.7754,2.53905 0.8608,0.57552 1.9607,0.86328 3.2996,0.86328 1.2672,0 2.2714,-0.3329 3.0126,-0.9987 0.7532,-0.66579 1.1298,-1.55728 1.1298,-2.67447 0,-1.45573 -1.2792,-2.75347 -3.8376,-3.89323 -0.3586,-0.16927 -0.6336,-0.2934 -0.8249,-0.37239 -2.8931,-1.3316 -4.6239,-2.53343 -5.5923,-3.60548 -0.9564,-1.08332 -1.4346,-2.40363 -1.4346,-3.96092 0,-2.01997 0.7233,-3.65626 2.1698,-4.90886 1.4586,-1.25261 3.3654,-1.87891 5.7205,-1.87891 1.9367,0 3.5567,0.35547 4.8598,1.0664 1.3031,0.69966 2.2056,1.70965 2.7077,3.02996 l -3.3354,1.62499 c -0.526,-0.77864 -1.1058,-1.34852 -1.7394,-1.70964 -0.6217,-0.3611 -1.3391,-0.54165 -2.152,-0.54165 -1.1477,0 -2.0622,0.28212 -2.7437,0.84635 -0.6694,0.56423 -1.0041,1.32031 -1.0041,2.26822 0,1.48959 1.4824,2.87761 4.4472,4.16406 0.2271,0.10157 0.4065,0.18056 0.538,0.23698 2.5943,1.12848 4.1757,2.23438 5.144,3.31771 0.9683,1.07205 1.4525,2.41493 1.4525,4.02866 0,2.34722 -0.783,4.21484 -2.3491,5.60286 -1.5661,1.37673 -3.6822,2.0651 -6.3481,2.0651 -2.2357,0 -4.0708,-0.48524 -5.5053,-1.45573 -1.4227,-0.97048 -2.3552,-2.3585 -2.7975,-4.16406 z" />
      </g>
      <rect
         y="282.74393"
         x="-8.1025877"
         height="0.52916664"
         width="3.7041667"
         id="rect7833"
         style="opacity:1;fill:#fafafa;fill-opacity:1;stroke:none;stroke-width:0.26458332;stroke-linecap:butt;stroke-linejoin:miter;stroke-miterlimit:4;stroke-dasharray:none;stroke-dashoffset:0;stroke-opacity:1" />
      <rect
         y="290.15225"
         x="-2.8109205"
         height="0.52916664"
         width="3.7041667"
         id="rect7833-6"
         style="opacity:1;fill:#fafafa;fill-opacity:1;stroke:none;stroke-width:0.26458332;stroke-linecap:butt;stroke-linejoin:miter;stroke-miterlimit:4;stroke-dasharray:none;stroke-dashoffset:0;stroke-opacity:1" />
    </g>
  </g>
</svg>
