<svg width="64" height="64" version="1.1" viewBox="0 0 16.933 16.933" xmlns="http://www.w3.org/2000/svg">
 <g transform="matrix(.26458 0 0 .26458 0 -261.5)">
  <path d="m8.991 989.37 46.01 4e-3v57.985h-46.009v-57.989z" fill="#fafafa"/>
  <path transform="matrix(1.3428 0 0 1.3408 -.228 988.19)" d="m6.5 0.5 35 3e-3v44.003h-35z" fill="none" stroke="#4f6698" stroke-linejoin="round" stroke-opacity=".267" stroke-width=".745"/>
  <rect y="988.36" width="64" height="64" rx="0" ry="0" fill="none" opacity=".75"/>
 </g>
 <g transform="translate(-20.849 -2.0766)">
  <rect x="25.876" y="8.691" width="6.879" height="3.7041" rx=".26458" ry=".26458" enable-background="new" fill="none" stroke="#455a64" stroke-width=".52916"/>
  <path d="m26.934 11.601v-2.1166h0.52916l0.66144 0.82681 0.66145-0.82681h0.52916v2.1166h-0.52916v-1.2898l-0.66145 0.82681-0.66144-0.82681v1.2898z" enable-background="new" fill="#455a64"/>
  <path d="m30.903 11.601-0.79373-1.0583h0.52916v-1.0583h0.52916v1.0583h0.52916z" enable-background="new" fill="#455a64"/>
 </g>
</svg>
