<?xml version="1.0" encoding="UTF-8" standalone="no"?>
<svg
   xmlns:dc="http://purl.org/dc/elements/1.1/"
   xmlns:cc="http://creativecommons.org/ns#"
   xmlns:rdf="http://www.w3.org/1999/02/22-rdf-syntax-ns#"
   xmlns:svg="http://www.w3.org/2000/svg"
   xmlns="http://www.w3.org/2000/svg"
   xmlns:xlink="http://www.w3.org/1999/xlink"
   xmlns:sodipodi="http://sodipodi.sourceforge.net/DTD/sodipodi-0.dtd"
   xmlns:inkscape="http://www.inkscape.org/namespaces/inkscape"
   id="svg3130"
   height="64"
   width="64"
   version="1.1"
   sodipodi:docname="text-x-bibtex.svg"
   inkscape:version="0.92.4 (5da689c313, 2019-01-14)">
  <sodipodi:namedview
     pagecolor="#ffffff"
     bordercolor="#666666"
     borderopacity="1"
     objecttolerance="10"
     gridtolerance="10"
     guidetolerance="10"
     inkscape:pageopacity="0"
     inkscape:pageshadow="2"
     inkscape:window-width="1366"
     inkscape:window-height="713"
     id="namedview39"
     showgrid="false"
     inkscape:zoom="2.6074563"
     inkscape:cx="-32.490383"
     inkscape:cy="46.797235"
     inkscape:window-x="0"
     inkscape:window-y="25"
     inkscape:window-maximized="1"
     inkscape:current-layer="svg3130" />
  <defs
     id="defs3132">
    <linearGradient
       gradientTransform="matrix(1.0843523,0,0,1.1997367,79.550862,-4.1628601)"
       gradientUnits="userSpaceOnUse"
       xlink:href="#linearGradient3104-6"
       id="linearGradient3048"
       y2="2.9062471"
       x2="-51.786404"
       y1="50.786446"
       x1="-51.786404" />
    <linearGradient
       id="linearGradient3104-6">
      <stop
         offset="0"
         style="stop-color:#000000;stop-opacity:0.31782946"
         id="stop3106-3" />
      <stop
         offset="1"
         style="stop-color:#000000;stop-opacity:0.24031007"
         id="stop3108-9" />
    </linearGradient>
    <linearGradient
       gradientTransform="matrix(1.2162162,0,0,1.5405376,2.8108184,-6.9729501)"
       gradientUnits="userSpaceOnUse"
       xlink:href="#linearGradient3977-4"
       id="linearGradient3051"
       y2="42.100208"
       x2="23.99999"
       y1="5.8641062"
       x1="23.99999" />
    <linearGradient
       id="linearGradient3977-4">
      <stop
         offset="0"
         style="stop-color:#ffffff;stop-opacity:1"
         id="stop3979-7" />
      <stop
         offset="0.01214366"
         style="stop-color:#ffffff;stop-opacity:0.23529412"
         id="stop3981-6" />
      <stop
         offset="0.98781353"
         style="stop-color:#ffffff;stop-opacity:0.15686275"
         id="stop3983-5" />
      <stop
         offset="1"
         style="stop-color:#ffffff;stop-opacity:0.39215687"
         id="stop3985-6" />
    </linearGradient>
    <linearGradient
       gradientTransform="matrix(1.3142827,0,0,1.2602393,0.4572141,-2.1793201)"
       gradientUnits="userSpaceOnUse"
       xlink:href="#linearGradient3600-9"
       id="linearGradient3054"
       y2="47.013336"
       x2="25.132275"
       y1="0.98520643"
       x1="25.132275" />
    <linearGradient
       id="linearGradient3600-9">
      <stop
         offset="0"
         style="stop-color:#f4f4f4;stop-opacity:1"
         id="stop3602-3" />
      <stop
         offset="1"
         style="stop-color:#dbdbdb;stop-opacity:1"
         id="stop3604-7" />
    </linearGradient>
    <radialGradient
       gradientTransform="matrix(0.03132633,0,0,0.02058823,35.220859,49.45142)"
       gradientUnits="userSpaceOnUse"
       xlink:href="#linearGradient5060"
       id="radialGradient3057"
       fy="486.64789"
       fx="605.71429"
       r="117.14286"
       cy="486.64789"
       cx="605.71429" />
    <linearGradient
       id="linearGradient5060">
      <stop
         offset="0"
         style="stop-color:#000000;stop-opacity:1"
         id="stop5062" />
      <stop
         offset="1"
         style="stop-color:#000000;stop-opacity:0"
         id="stop5064" />
    </linearGradient>
    <radialGradient
       gradientTransform="matrix(-0.03132632,0,0,0.02058823,28.779136,49.45142)"
       gradientUnits="userSpaceOnUse"
       xlink:href="#linearGradient5060"
       id="radialGradient3060"
       fy="486.64789"
       fx="605.71429"
       r="117.14286"
       cy="486.64789"
       cx="605.71429" />
    <linearGradient
       id="linearGradient5048">
      <stop
         offset="0"
         style="stop-color:#000000;stop-opacity:0"
         id="stop5050" />
      <stop
         offset="0.5"
         style="stop-color:#000000;stop-opacity:1"
         id="stop5056" />
      <stop
         offset="1"
         style="stop-color:#000000;stop-opacity:0"
         id="stop5052" />
    </linearGradient>
    <linearGradient
       gradientTransform="matrix(0.09153846,0,0,0.02058823,-1.084616,49.45142)"
       gradientUnits="userSpaceOnUse"
       xlink:href="#linearGradient5048"
       id="linearGradient3128"
       y2="609.50507"
       x2="302.85715"
       y1="366.64789"
       x1="302.85715" />
  </defs>
  <metadata
     id="metadata3135">
    <rdf:RDF>
      <cc:Work
         rdf:about="">
        <dc:format>image/svg+xml</dc:format>
        <dc:type
           rdf:resource="http://purl.org/dc/dcmitype/StillImage" />
        <dc:title />
      </cc:Work>
    </rdf:RDF>
  </metadata>
  <g
     transform="translate(4.0314962e-7,-988.36218)"
     id="text-x-preview_64"
     inkscape:label="#g4141">
    <g
       transform="matrix(1.3428376,0,0,1.340755,-0.22814694,988.19153)"
       id="layer1-1-7"
       inkscape:label="Layer 1">
      <path
         inkscape:connector-curvature="0"
         style="display:inline;fill:#fafafa;fill-opacity:1;stroke:none;stroke-width:0.99992186;stroke-linecap:butt;stroke-linejoin:round;stroke-miterlimit:4;stroke-dasharray:none;stroke-dashoffset:0;stroke-opacity:0.42452829"
         id="path4160-2"
         d="m 6.8655256,0.87983895 c 7.8515454,0 34.2636264,0.002756 34.2636264,0.002756 l 4e-5,43.24831005 c 0,0 -22.842445,0 -34.2636664,0 0,-14.417024 0,-28.834046 0,-43.25106605 z"
         sodipodi:nodetypes="ccccc" />
      <path
         inkscape:connector-curvature="0"
         style="display:inline;fill:none;fill-opacity:1;stroke:#4f6698;stroke-width:0.74521309;stroke-linecap:butt;stroke-linejoin:round;stroke-miterlimit:4;stroke-dasharray:none;stroke-dashoffset:0;stroke-opacity:0.26666667"
         id="path4160-3-1"
         d="m 6.4999609,0.49996093 c 8.0202951,0 35.0000391,0.0028 35.0000391,0.0028 l 4.2e-5,44.00280307 c 0,0 -23.333387,0 -35.0000811,0 0,-14.668535 0,-29.33707 0,-44.00560307 z"
         sodipodi:nodetypes="ccccc" />
    </g>
    <rect
       ry="2.17285e-05"
       rx="2.17285e-05"
       y="988.36218"
       x="0"
       height="63.999996"
       width="64"
       id="rect4139"
       style="opacity:0.75;fill:none;fill-opacity:0.56122448;stroke:none;stroke-width:1;stroke-linecap:butt;stroke-linejoin:miter;stroke-miterlimit:4;stroke-dasharray:none;stroke-dashoffset:0;stroke-opacity:1" />
  </g>
  <path
     inkscape:connector-curvature="0"
     style="fill:none;stroke:#4f6596;stroke-width:0.99999994px;stroke-linecap:butt;stroke-linejoin:miter;stroke-opacity:0.26666668"
     d="m 31.00131,11.499931 h 3.082031 z m 3.595703,0 h 2.560547 z m 3.029297,0 h 1.154297 z m 1.580078,0 h 2.648438 z m 3.117188,0 h 2.988281 z m 3.457031,0 h 3.203125 z m -14.779297,3 h 2.654297 z m 3.082031,0 h 2.21875 z m 2.691407,0 h 2.173828 z m 2.646484,0 h 1.193359 z m 1.621094,0 h 2.390625 z m 2.945312,0 h 4.996094 z m -12.986328,3 h 2.203125 z m 2.630859,0 h 3.373047 z m 3.798829,0 h 6.916015 z m 7.34375,0 h 4.226562 z m -13.773438,3 h 1.970703 z m 2.398438,0 h 2.519531 z m 2.947265,0 h 6.318359 z m 6.787109,0 h 5.84961 z m -28.132812,5 h 5.849609 z m 6.318359,0 h 6.31836 z m 6.746094,0 h 2.435547 z m 2.935547,0 h 3.996094 z m 4.550781,0 h 1.949219 z m 2.501953,0 h 3.947266 z m 4.447266,0 h 6.482422 z m -27.5,3 h 3.201172 z m 3.671875,0 h 2.945313 z m 3.457031,0 h 2.646485 z m 3.074219,0 h 1.152344 z m 1.623047,0 h 2.560547 z m 3.074219,0 h 6.701171 z m 7.169921,0 h 5.123047 z m 5.548829,0 h 1.625 z m 2.050781,0 h 4.330078 z m -29.669922,3 h 5.378906 z m 5.806641,0 h 5.763671 z m 6.1875,0 h 2.222656 z m 2.648437,0 h 5.421875 z m 5.847656,0 h 6.832032 z m 7.300782,0 h 6.208984 z m -27.791016,3 h 5.849609 z m 6.318359,0 h 6.31836 z m 6.746094,0 h 2.517578 z m 2.943359,0 h 5.935547 z m 6.31836,0 h 4.05664 z m 4.527344,0 h 1.621093 z m 2.048828,0 h 0.894531 z m 1.363281,0 h 3.734375 z m -30.265625,3 h 4.994141 z m 5.548828,0 h 2.390625 z m 2.81836,0 h 1.195312 z m 1.664062,0 h 2.177734 z m 2.646484,0 h 2.222657 z m 2.646485,0 h 3.544922 z m 4.013672,0 h 4.609375 z m 5.037109,0 h 3.074219 z m 3.501953,0 H 49.00131 Z M 15.00131,42.478447 h 4.226562 z m 4.654297,0 h 6.916015 z m 7.339844,0 h 3.375 z m 3.802734,0 H 33.00131 Z M 15.00131,45.499931 h 4.994141 z m 5.548828,0 h 2.390625 z m 2.81836,0 h 1.195312 z m 1.664062,0 h 2.177734 z m 2.646484,0 h 2.222657 z m 2.646485,0 h 2.675781 z m -15.324219,3 h 5.292969 z m 5.763672,0 h 1.666016 z m 2.089844,0 h 3.800781 z m 4.226562,0 h 5.919922 z m -12.080078,3 h 5.292969 z m 5.763672,0 h 2.390625 z m 2.818359,0 h 3.753907 z m 4.181641,0 h 5.236328 z"
     id="path3475" />
  <path
     inkscape:connector-curvature="0"
     id="path3253"
     d="m 35.278541,50.744665 c 1.861958,-0.865754 3.809894,-1.77539 3.809894,-3.723321 0,-0.606026 -0.259726,-0.606026 -1.385198,-0.692602 -1.255334,-0.08657 -1.775382,-0.909034 -1.775382,-2.034506 0,-1.558347 0.995609,-2.294236 2.207656,-2.294236 1.818073,0 3.160585,1.601635 3.160585,3.809297 0,1.688807 -0.822464,3.419703 -2.294236,4.675644 C 38.00625,51.307399 37.183787,51.610412 35.797992,52 Z m 7.705761,0 c 1.86136,-0.865754 3.809296,-1.77539 3.809296,-3.723321 0,-0.606026 -0.259725,-0.606026 -1.385197,-0.692602 -1.25534,-0.08657 -1.774786,-0.909034 -1.774786,-2.034506 0,-1.558347 0.995609,-2.294236 2.207657,-2.294236 1.818073,0 3.159983,1.601635 3.159983,3.809297 0,1.688807 -0.822459,3.419703 -2.294232,4.675644 C 45.711409,51.307399 44.88895,51.610412 43.503752,52 Z"
     style="fill:#4f6596;fill-opacity:0.26666668" />
  <path
     inkscape:connector-curvature="0"
     id="path3255"
     d="m 21.017913,12.256648 c -1.86207,0.865798 -3.810124,1.774893 -3.810124,3.722941 0,0.606063 0.259741,0.606063 1.385281,0.692644 1.255411,0.08658 1.775495,0.909089 1.775495,2.034634 0,1.558437 -0.995669,2.29437 -2.207794,2.29437 C 16.342592,21.001237 15,19.398903 15,17.191113 c 0,-1.688313 0.822508,-3.419916 2.294369,-4.675327 0.995675,-0.821906 1.818786,-1.124937 3.204067,-1.514549 z m 7.706232,0 c -1.861473,0.865798 -3.809527,1.774893 -3.809527,3.722941 0,0.606063 0.259741,0.606063 1.385281,0.692644 1.255416,0.08658 1.774893,0.909089 1.774893,2.034634 0,1.558437 -0.995669,2.29437 -2.20779,2.29437 -1.818183,0 -3.160174,-1.602334 -3.160174,-3.810124 0,-1.688313 0.822509,-3.419916 2.294371,-4.675327 0.995674,-0.821906 1.818183,-1.124937 3.203464,-1.514549 z"
     style="fill:#4f6596;fill-opacity:0.26666668" />
</svg>
