<svg xmlns="http://www.w3.org/2000/svg" width="64" height="64"><rect width="64" height="64" y="988.36" fill="none" opacity=".75" rx="0" ry="0" transform="translate(0 -988.36)"/><path fill="#90d344" d="m8.991 1.009 46.01.004v57.985H8.992V1.008z"/><path fill="none" stroke="#4e7b31" stroke-linejoin="round" d="m8.5.5 47 .003V59.5h-47V.5z" opacity=".85"/><path fill="#fff" fill-rule="evenodd" d="M18 19c-.554 0-1 .446-1 1v20c0 .554.446 1 1 1h28c.554 0 1-.446 1-1V20c0-.554-.446-1-1-1H18zm20 1a1 1 0 0 1 1 1 1 1 0 0 1-1 1 1 1 0 0 1-1-1 1 1 0 0 1 1-1zm3 0a1 1 0 0 1 1 1 1 1 0 0 1-1 1 1 1 0 0 1-1-1 1 1 0 0 1 1-1zm3 0a1 1 0 0 1 1 1 1 1 0 0 1-1 1 1 1 0 0 1-1-1 1 1 0 0 1 1-1zm-26 3h6v17h-6V23zm7 0h21v17H25V23z" style="paint-order:fill markers stroke"/></svg>