<svg xmlns="http://www.w3.org/2000/svg" width="64" height="64" viewBox="0 0 16.933 16.933"><g transform="translate(0 -261.5) scale(.26458)"><path fill="#fafafa" d="m8.991 989.37 46.01.004v57.985H8.992V989.37z"/><path fill="none" stroke="#4f6698" stroke-linejoin="round" stroke-opacity=".267" stroke-width=".745" d="m6.5.5 35 .003v44.003h-35z" transform="matrix(1.3428 0 0 1.3408 -.228 988.19)"/><rect width="64" height="64" y="988.36" fill="none" opacity=".75" rx="0" ry="0"/></g><path fill="#8c59d9" d="M5.82 6.35s-1.058 0-1.058 1.058v2.117c0 1.058 1.059 1.058 1.059 1.058h1.587v-.53H5.821s-.53 0-.53-.528V7.408c0-.529.53-.529.53-.529h1.587v-.53zm3.176 0v1.058H7.937v.53h1.059v1.058H7.937v.529h1.059v1.058h.529V9.525h1.058v1.058h.53V9.525h1.058v-.53h-1.059V7.938h1.059v-.529h-1.059V6.35h-.529v1.058H9.525V6.35zm.529 1.587h1.058v1.059H9.525z" color="#000" style="text-decoration-line:none;text-indent:0;text-transform:none"/></svg>