<svg xmlns="http://www.w3.org/2000/svg" width="64" height="64" viewBox="0 0 16.933 16.933"><g transform="translate(0 -261.504) scale(.26458)"><path fill="#fafafa" d="m8.991 989.371 46.01.004v57.985H8.992v-57.989z"/><path fill="none" stroke="#4f6698" stroke-linejoin="round" stroke-opacity=".267" stroke-width=".745" d="m6.5.5 35 .003v44.003h-35V.5z" transform="matrix(1.34284 0 0 1.34075 -.228 988.192)"/><rect width="64" height="64" y="988.362" fill="none" opacity=".75" rx="0" ry="0"/></g><g fill="#8a92a2"><path d="M6.349 5.16v5.557h4.233V5.16zm.265.265h.264v.264h-.264zm.529 0h2.646v2.381H7.143zm2.91 0h.265v.264h-.265zm-3.44.53h.265v.264h-.264zm3.44 0h.265v.264h-.265zm-3.44.528h.265v.265h-.264zm3.44 0h.265v.265h-.265zm-3.44.53h.265v.264h-.264zm3.44 0h.265v.264h-.265zm-3.44.529h.265v.264h-.264zm3.44 0h.265v.264h-.265zm-3.44.529h.265v.264h-.264zm.53 0h2.646v2.381H7.143zm2.91 0h.265v.264h-.265zm-3.44.529h.265v.264h-.264zm3.44 0h.265v.264h-.265zm-3.44.53h.265v.264h-.264zm3.44 0h.265v.264h-.265zm-3.44.528h.265v.265h-.264zm3.44 0h.265v.265h-.265zm-3.44.53h.265v.264h-.264zm3.44 0h.265v.264h-.265z"/><path d="M7.143 5.425v2.381h2.646V5.425zm0 2.646v2.381h2.646V8.071z" opacity=".15"/></g></svg>