<svg xmlns="http://www.w3.org/2000/svg" width="64" height="64"><rect width="64" height="64" y="988.36" fill="none" opacity=".75" rx="0" ry="0" transform="translate(0 -988.36)"/><path fill="none" d="m8.5.5 47 .004V59.5h-47V.5z" opacity=".3"/><path fill="#2095f2" d="M8.991 1.05c10.544 0 46.01.005 46.01.005V59.04H8.992V1.05z"/><path fill="none" stroke="#1378c5" stroke-linejoin="round" stroke-width=".745" d="m6.5.5 35 .003v44.003h-35V.5z" transform="matrix(1.3428 0 0 1.3408 -.228 -.129)"/><path fill="#fff" d="M20.996 19.045v22h22v-22zm1 1h20v2h-20zm0 3h1v4h-1zm2 0h1v4h-1zm2 0h1v4h-1zm2 0h1v4h-1zm2 0h1v4h-1zm2 0h1v4h-1zm2 0h1v4h-1zm2 0h1v4h-1zm2 1h4v1h-4zm-16 4h20v4h-20zm0 5h1v4h-1zm2 0h1v4h-1zm2 0h1v4h-1zm2 0h1v4h-1zm2 0h1v4h-1zm2 0h1v4h-1zm2 0h1v4h-1zm2 0h1v4h-1zm2 1h4v1h-4zm-16 4h20v2h-20z" color="#4d4d4d"/></svg>