<svg xmlns="http://www.w3.org/2000/svg" width="64" height="64" viewBox="0 0 16.933 16.933"><g stroke-width=".265"><path fill="none" d="M0 0h16.933v16.933H0z"/><rect width="12.171" height="14.287" x="2.381" y="-15.61" fill="#f2793c" color="#bebebe" overflow="visible" ry="0" transform="rotate(90)"/><rect width="12.435" height="14.552" x="2.249" y="-15.743" fill="none" stroke="#c74c0d" color="#bebebe" opacity=".9" overflow="visible" ry="0" transform="rotate(90)"/></g><path fill="#fff" d="M8.467 2.38h.264v12.172h-.264z" opacity=".15"/><path fill="#fff" d="M5.556 5.556v5.82h5.82v-5.82zm.265.265h5.291v.529H5.821zm0 .793h.264v1.059h-.264zm.529 0h.264v1.059H6.35zm.529 0h.265v1.059h-.265zm.53 0h.264v1.059h-.265zm.528 0h.265v1.059h-.265zm.53 0h.264v1.059h-.265zm.529 0h.264v1.059h-.264zm.529 0h.264v1.059h-.264zm.529.265h1.058v.265h-1.058zM5.821 7.937h5.291v1.059H5.821zm0 1.323h.264v1.058h-.264zm.529 0h.264v1.058H6.35zm.529 0h.265v1.058h-.265zm.53 0h.264v1.058h-.265zm.528 0h.265v1.058h-.265zm.53 0h.264v1.058h-.265zm.529 0h.264v1.058h-.264zm.529 0h.264v1.058h-.264zm.529.265h1.058v.264h-1.058zM5.82 10.583h5.291v.53H5.821z" color="#4d4d4d" opacity=".5"/></svg>