<svg xmlns="http://www.w3.org/2000/svg" width="64" height="64" viewBox="0 0 16.933 16.933"><rect width="64" height="64" y="988.362" fill="none" opacity=".75" rx="0" ry="0" transform="translate(0 -261.504) scale(.26458)"/><path fill="#4bae4f" d="M2.379.267h12.174V15.61H2.379V.267z"/><path fill="none" stroke="#317b35" stroke-linejoin="round" stroke-width=".745" d="m6.5.5 35 .003v44.003h-35V.5z" transform="matrix(.3553 0 0 .35474 -.06 -.045)"/><path fill="none" stroke="#fff" stroke-opacity=".324" stroke-width=".265" d="M9.922 2.048v11.854M7.276 2.048v11.853"/><path fill="none" stroke="#fff" stroke-width=".265" d="M12.753 2.778H3.704m.926-.743v11.903"/><path fill="none" stroke="#fff" stroke-opacity=".324" stroke-width=".265" d="M12.817 3.836H3.785m9.032 9.525H3.785m9.032-1.058H3.785m9.032-1.058H3.785m9.032-1.059H3.785m9.032-1.058H3.785m9.032-1.058H3.785m9.032-1.059H3.785m9.032-1.058H3.785m9.032-1.058H3.785"/><path fill="none" stroke="#fff" stroke-linecap="square" stroke-width=".265" d="M3.836 1.984h8.996v11.907H3.836z"/><path fill="#fff" fill-opacity=".49" d="M3.969 2.117H12.7v.529H3.969zm.529.793v10.848h-.53V2.91z"/></svg>