<svg xmlns="http://www.w3.org/2000/svg" width="64" height="64" viewBox="0 0 16.933 16.933"><rect width="64" height="64" y="988.362" fill="none" opacity=".75" rx="0" ry="0" transform="translate(0 -261.504) scale(.26458)"/><path fill="#ff9b31" d="M2.379.267h12.174V15.61H2.379V.267z"/><path fill="none" stroke="#e17507" stroke-linejoin="round" stroke-width=".745" d="m6.5.5 35 .003v44.003h-35V.5z" transform="matrix(.3553 0 0 .35474 -.06 -.045)"/><path fill="#fff" d="M4.233 3.969v.264h.844V3.97zm.955 0v.264h.8V3.97zm.91 0v.264h.7V3.97zm.811 0v.264h.311V3.97zm.422 0v.264h.688V3.97zm.81 0v.264h1.777V3.97zm-3.908.794v.264h1.344v-.264zm1.477 0v.264h.644v-.264zm.766 0v.264h.3v-.264zm.433 0v.264h.578v-.264zm.71 0v.264h.578v-.264zm.7 0v.264h.944v-.264zm1.077 0v.264h1.233v-.264zm-5.163.793v.265h1.488v-.265zm1.6 0v.265H7.43v-.265zm-1.6.794v.265h.822V6.35zm.933 0v.265h.766V6.35zm.877 0v.265h.677V6.35zm-1.81.794v.264h1.088v-.264zm0 .794v.264h1.1v-.264zm8.467.529a2.117 2.117 0 0 1-1.598 2.052 2.117 2.117 0 0 1-2.38-1.046 2.117 2.117 0 0 1 .43-2.565 2.117 2.117 0 0 1 2.592-.212l-1.16 1.77zm-8.467.264v.265h.844V8.73zm.955 0v.265h.8V8.73zm.91 0v.265h.7V8.73zm-1.865.794v.265h1.344v-.265zm1.477 0v.265h.644v-.265zm.766 0v.265h.3v-.265zm-2.243.794v.264h1.488v-.264zm0 .794v.264h.822v-.264zm.933 0v.264h.766v-.264zm.877 0v.264h.677v-.264z"/></svg>