<svg xmlns="http://www.w3.org/2000/svg" width="64" height="64" viewBox="0 0 16.933 16.933"><g transform="translate(-347.663 -223.573) scale(.26458)"><g transform="translate(1314 845)"><path fill="#fafafa" d="M7.5 7h49C57.885 7 59 8.115 59 9.5v47c0 1.385-1.115 2.5-2.5 2.5h-49A2.495 2.495 0 0 1 5 56.5v-47C5 8.115 6.115 7 7.5 7z" color="#000" overflow="visible" style="marker:none"/><path fill="none" stroke="#4f6698" stroke-opacity=".267" d="M4.5 18v38.5c0 1.662 1.338 3 3 3h49c1.662 0 3-1.338 3-3V18"/><path fill="none" stroke="#9d0b0d" stroke-opacity=".549" stroke-width="2" d="M8 5C6.338 5 5 6.338 5 8v9h54V8c0-1.662-1.338-3-3-3z" color="#000" overflow="visible" style="marker:none"/><path fill="#f46062" d="M8 5C6.338 5 5 6.338 5 8v9h54V8c0-1.662-1.338-3-3-3z" color="#000" overflow="visible" style="marker:none"/><path fill="none" stroke="#b4bfd8" stroke-opacity=".718" d="M52.5 44.5h-41zm-.03-18.97L11.5 25.5v26h41zm.03 12.97h-41m41-6h-41m8.028-6.942L19.472 51.5m8.039-25.829-.011 25.83m7.994-25.92.012 25.92m7.953-26.01L43.5 51.5"/><ellipse cx="10.362" cy="11.472" color="#000" opacity=".2" overflow="visible" rx="1.102" ry="1.047" style="marker:none" transform="matrix(1.36071 0 0 1.43233 -1.6 -5.432)"/><ellipse cx="10.362" cy="11.472" color="#000" opacity=".2" overflow="visible" rx="1.102" ry="1.047" style="marker:none" transform="matrix(1.36071 0 0 1.43233 36.9 -5.432)"/></g><rect width="64" height="64" x="1314" y="845" fill="none" opacity=".75" rx="0" ry="0"/></g></svg>