<?xml version="1.0" encoding="UTF-8" standalone="no"?>
<svg
   xmlns:osb="http://www.openswatchbook.org/uri/2009/osb"
   xmlns:dc="http://purl.org/dc/elements/1.1/"
   xmlns:cc="http://creativecommons.org/ns#"
   xmlns:rdf="http://www.w3.org/1999/02/22-rdf-syntax-ns#"
   xmlns:svg="http://www.w3.org/2000/svg"
   xmlns="http://www.w3.org/2000/svg"
   width="16.006001"
   version="1.1"
   style="enable-background:new"
   id="svg7384"
   height="16">
  <metadata
     id="metadata90">
    <rdf:RDF>
      <cc:Work
         rdf:about="">
        <dc:format>image/svg+xml</dc:format>
        <dc:type
           rdf:resource="http://purl.org/dc/dcmitype/StillImage" />
        <dc:title>Moka Symbolic Icon Theme</dc:title>
      </cc:Work>
    </rdf:RDF>
  </metadata>
  <title
     id="title8473">Moka Symbolic Icon Theme</title>
  <defs
     id="defs7386">
    <linearGradient
       osb:paint="solid"
       id="linearGradient5606">
      <stop
         style="stop-color:#000000;stop-opacity:1;"
         offset="0"
         id="stop5608" />
    </linearGradient>
    <filter
       style="color-interpolation-filters:sRGB"
       id="filter7554">
      <feBlend
         mode="darken"
         in2="BackgroundImage"
         id="feBlend7556" />
    </filter>
  </defs>
  <g
     transform="translate(-702.99723,408.00336)"
     style="display:inline"
     id="layer9" />
  <g
     transform="translate(-702.99723,408.00336)"
     style="display:inline;filter:url(#filter7554)"
     id="layer10" />
  <g
     transform="translate(-461.99703,-208.99664)"
     style="display:inline"
     id="layer1">
    <path
       style="color:#000000;font-style:normal;font-variant:normal;font-weight:normal;font-stretch:normal;font-size:medium;line-height:normal;font-family:Sans;-inkscape-font-specification:Sans;text-indent:0;text-align:start;text-decoration:none;text-decoration-line:none;letter-spacing:normal;word-spacing:normal;text-transform:none;direction:ltr;block-progression:tb;writing-mode:lr-tb;baseline-shift:baseline;text-anchor:start;display:inline;overflow:visible;visibility:visible;fill:#bebebe;fill-opacity:1;stroke:none;stroke-width:2;marker:none;enable-background:accumulate"
       id="path5906"
       d="m 463.00003,210.99664 c -0.554,0 -1,0.446 -1,1 l 0,10 c 0,0.554 0.446,1 1,1 l 10,0 c 0.554,0 1,-0.446 1,-1 l 0,-3.5625 2.28125,2.28125 c 0.23073,0.2353 0.58284,0.34458 0.90625,0.28125 l 0.8125,0 0,-0.8125 c 0.004,-0.052 0.004,-0.10427 0,-0.15625 1.6e-4,-0.0104 1.6e-4,-0.0208 0,-0.0312 l 0,-6 c 0.001,-0.0312 0.001,-0.0625 0,-0.0937 l 0,-0.90625 -0.8125,0 -0.1875,0 c -0.0416,-0.003 -0.0834,-0.003 -0.125,0 -0.22185,0.024 -0.43465,0.12479 -0.59375,0.28125 l -2.28125,2.28125 0,-3.5625 c 0,-0.554 -0.446,-1 -1,-1 l -10,0 z m 0,1 10,0 0,10 -10,0 0,-10 z m 14,2 0,6 -3,-3 3,-3 z" />
  </g>
  <g
     transform="translate(-702.99723,408.00336)"
     style="display:inline"
     id="layer14" />
  <g
     transform="translate(-702.99723,408.00336)"
     style="display:inline"
     id="layer15" />
  <g
     transform="translate(-702.99723,408.00336)"
     style="display:inline"
     id="g71291" />
  <g
     transform="translate(-461.99703,-58.996641)"
     style="display:inline"
     id="layer2" />
  <g
     transform="translate(-461.99703,-58.996641)"
     style="display:inline"
     id="g6058" />
  <g
     transform="translate(-702.99723,408.00336)"
     style="display:inline"
     id="layer12" />
</svg>
