<svg height="16" width="16" xmlns="http://www.w3.org/2000/svg"><g color="#000" fill="#5d656b" fill-rule="evenodd" font-family="sans-serif" font-weight="400"><path d="M3 2a1.04 1.04 0 0 0-.885.527C1.993 2.772 2 3 2 3s-.23-.007-.475.115A1.04 1.04 0 0 0 1 4v4h14V4a1.04 1.04 0 0 0-.527-.885C14.228 2.993 14 3 14 3H8a1.04 1.04 0 0 0-.527-.885C7.228 1.993 7 2 7 2zm0 1h4v1h7v3H2V4h1z" overflow="visible" style="line-height:normal;font-variant-ligatures:normal;font-variant-position:normal;font-variant-caps:normal;font-variant-numeric:normal;font-variant-alternates:normal;font-feature-settings:normal;text-indent:0;text-align:start;text-decoration-line:none;text-decoration-style:solid;text-decoration-color:#000;text-transform:none;text-orientation:mixed;shape-padding:0;isolation:auto;mix-blend-mode:normal"/><path d="M1 7v5.5s-.01.353.177.723c.185.369.656.777 1.323.777h11c.666 0 1.137-.408 1.322-.777.185-.37.178-.723.178-.723V7z" overflow="visible" style="line-height:normal;font-variant-ligatures:normal;font-variant-position:normal;font-variant-caps:normal;font-variant-numeric:normal;font-variant-alternates:normal;font-feature-settings:normal;text-indent:0;text-align:start;text-decoration-line:none;text-decoration-style:solid;text-decoration-color:#000;text-transform:none;text-orientation:mixed;shape-padding:0;isolation:auto;mix-blend-mode:normal"/></g></svg>