<svg width="16" height="16" enable-background="new" version="1.1" xmlns="http://www.w3.org/2000/svg">
 <path d="m11.5 1a2.5 2.5 0 0 0-2.5 2.5c0 0.218 0.04075 0.423 0.09375 0.625l-3.9688 2.4688a2.511 2.511 0 0 0-1.625-0.59375 2.5 2.5 0 0 0 0 5c0.617 0 1.189-0.22375 1.625-0.59375l3.9688 2.4688a2.453 2.453 0 0 0-0.09375 0.625 2.5 2.5 0 1 0 2.5-2.5c-0.617 0-1.189 0.22375-1.625 0.59375l-3.9688-2.4688c0.054-0.202 0.09375-0.407 0.09375-0.625s-0.04075-0.423-0.09375-0.625l3.9688-2.4688c0.436 0.37 1.008 0.59375 1.625 0.59375a2.5 2.5 0 0 0 0-5zm0 1a1.5 1.5 0 0 1 1.5 1.5 1.5 1.5 0 0 1-1.5 1.5 1.5 1.5 0 0 1-1.5-1.5 1.5 1.5 0 0 1 1.5-1.5zm-8 5a1.5 1.5 0 0 1 1.5 1.5 1.5 1.5 0 0 1-1.5 1.5 1.5 1.5 0 0 1-1.5-1.5 1.5 1.5 0 0 1 1.5-1.5zm8 5a1.5 1.5 0 0 1 1.5 1.5 1.5 1.5 0 0 1-1.5 1.5 1.5 1.5 0 0 1-1.5-1.5 1.5 1.5 0 0 1 1.5-1.5z" fill="#5d656b"/>
</svg>
