<?xml version="1.0" encoding="UTF-8" standalone="no"?>
<svg
   xmlns:osb="http://www.openswatchbook.org/uri/2009/osb"
   xmlns:dc="http://purl.org/dc/elements/1.1/"
   xmlns:cc="http://creativecommons.org/ns#"
   xmlns:rdf="http://www.w3.org/1999/02/22-rdf-syntax-ns#"
   xmlns:svg="http://www.w3.org/2000/svg"
   xmlns="http://www.w3.org/2000/svg"
   width="16"
   version="1.1"
   style="enable-background:new"
   id="svg7384"
   height="16">
  <metadata
     id="metadata90">
    <rdf:RDF>
      <cc:Work
         rdf:about="">
        <dc:format>image/svg+xml</dc:format>
        <dc:type
           rdf:resource="http://purl.org/dc/dcmitype/StillImage" />
        <dc:title>Moka Symbolic Icon Theme</dc:title>
      </cc:Work>
    </rdf:RDF>
  </metadata>
  <title
     id="title8473">Moka Symbolic Icon Theme</title>
  <defs
     id="defs7386">
    <linearGradient
       osb:paint="solid"
       id="linearGradient5606">
      <stop
         style="stop-color:#000000;stop-opacity:1;"
         offset="0"
         id="stop5608" />
    </linearGradient>
    <filter
       style="color-interpolation-filters:sRGB"
       id="filter7554">
      <feBlend
         mode="darken"
         in2="BackgroundImage"
         id="feBlend7556" />
    </filter>
  </defs>
  <g
     transform="translate(-683.00023,409.00336)"
     style="display:inline"
     id="layer9" />
  <g
     transform="translate(-683.00023,409.00336)"
     style="display:inline;filter:url(#filter7554)"
     id="layer10" />
  <g
     transform="translate(-442.00003,-207.99664)"
     style="display:inline"
     id="layer1">
    <path
       style="color:#000000;font-style:normal;font-variant:normal;font-weight:normal;font-stretch:normal;font-size:medium;line-height:normal;font-family:Sans;-inkscape-font-specification:Sans;text-indent:0;text-align:start;text-decoration:none;text-decoration-line:none;letter-spacing:normal;word-spacing:normal;text-transform:none;direction:ltr;block-progression:tb;writing-mode:lr-tb;baseline-shift:baseline;text-anchor:start;display:inline;overflow:visible;visibility:visible;fill:#bebebe;fill-opacity:1;stroke:none;stroke-width:1.99999976;marker:none;enable-background:accumulate"
       id="path1299"
       d="m 448.00003,207.99664 0,1 0,5 -1,0 -1.00003,0 c 1.46675,2.08173 3.50003,5.219 3.50003,5.219 l 3.49997,-5.219 -0.99997,0 -1,0 0,-5 0,-1 -1,0 -1,0 z" />
    <path
       style="color:#000000;display:inline;overflow:visible;visibility:visible;fill:#bebebe;fill-opacity:1;fill-rule:nonzero;stroke:none;stroke-width:1;marker:none;enable-background:accumulate"
       id="path6557"
       d="m 447,210.34039 c -2.34254,0.99465 -4,3.3241 -4,6.0625 0,3.64238 2.91015,6.59375 6.5,6.59375 3.58985,0 6.5,-2.95137 6.5,-6.59375 0,-2.7384 -1.65746,-5.06759 -4,-6.0625 l 0,1.09375 c 1.77752,0.92757 3,2.80472 3,4.96875 0,3.08202 -2.46243,5.59375 -5.5,5.59375 -3.03757,0 -5.5,-2.51173 -5.5,-5.59375 0,-2.16403 1.22248,-4.01352 3,-4.9375 l 0,-1.125 z" />
  </g>
  <g
     transform="translate(-683.00023,409.00336)"
     style="display:inline"
     id="layer14" />
  <g
     transform="translate(-683.00023,409.00336)"
     style="display:inline"
     id="layer15" />
  <g
     transform="translate(-683.00023,409.00336)"
     style="display:inline"
     id="g71291" />
  <g
     transform="translate(-442.00003,-57.996641)"
     style="display:inline"
     id="layer2" />
  <g
     transform="translate(-442.00003,-57.996641)"
     style="display:inline"
     id="g6058" />
  <g
     transform="translate(-683.00023,409.00336)"
     style="display:inline"
     id="layer12" />
</svg>
