<?xml version="1.0" encoding="UTF-8" standalone="no"?>
<svg
   xmlns:osb="http://www.openswatchbook.org/uri/2009/osb"
   xmlns:dc="http://purl.org/dc/elements/1.1/"
   xmlns:cc="http://creativecommons.org/ns#"
   xmlns:rdf="http://www.w3.org/1999/02/22-rdf-syntax-ns#"
   xmlns:svg="http://www.w3.org/2000/svg"
   xmlns="http://www.w3.org/2000/svg"
   width="16"
   version="1.1"
   style="enable-background:new"
   id="svg7384"
   height="16.00671">
  <metadata
     id="metadata90">
    <rdf:RDF>
      <cc:Work
         rdf:about="">
        <dc:format>image/svg+xml</dc:format>
        <dc:type
           rdf:resource="http://purl.org/dc/dcmitype/StillImage" />
        <dc:title>Moka Symbolic Icon Theme</dc:title>
      </cc:Work>
    </rdf:RDF>
  </metadata>
  <title
     id="title8473">Moka Symbolic Icon Theme</title>
  <defs
     id="defs7386">
    <linearGradient
       osb:paint="solid"
       id="linearGradient5606">
      <stop
         style="stop-color:#000000;stop-opacity:1;"
         offset="0"
         id="stop5608" />
    </linearGradient>
    <filter
       style="color-interpolation-filters:sRGB"
       id="filter7554">
      <feBlend
         mode="darken"
         in2="BackgroundImage"
         id="feBlend7556" />
    </filter>
  </defs>
  <g
     transform="translate(-764.00027,408.01007)"
     style="display:inline"
     id="layer9" />
  <g
     transform="translate(-764.00027,408.01007)"
     style="display:inline;filter:url(#filter7554)"
     id="layer10" />
  <g
     transform="translate(-523.00007,-208.98993)"
     style="display:inline"
     id="layer1">
    <path
       style="display:inline;fill:#bebebe;fill-opacity:1;stroke:none;enable-background:new"
       id="path16783-2-5-9-9-81-6-7-8-5"
       d="m 525.00003,210.99664 0,13 c 0,1 1,1 1,1 l 10,0 c 1,0 1,-1 1,-1 0.0235,-0.0576 0,-10 0,-10 l -4,-4 -7,0 c 0,0 -1,0 -1,1 z m 8,0 0,3 3,0 0,10 -10,0 0,-13 z" />
  </g>
  <g
     transform="translate(-764.00027,408.01007)"
     style="display:inline"
     id="layer14" />
  <g
     transform="translate(-764.00027,408.01007)"
     style="display:inline"
     id="layer15" />
  <g
     transform="translate(-764.00027,408.01007)"
     style="display:inline"
     id="g71291" />
  <g
     transform="translate(-523.00007,-58.98993)"
     style="display:inline"
     id="layer2" />
  <g
     transform="translate(-523.00007,-58.98993)"
     style="display:inline"
     id="g6058" />
  <g
     transform="translate(-764.00027,408.01007)"
     style="display:inline"
     id="layer12" />
</svg>
