<?xml version="1.0" encoding="UTF-8" standalone="no"?>
<svg
   xmlns:osb="http://www.openswatchbook.org/uri/2009/osb"
   xmlns:dc="http://purl.org/dc/elements/1.1/"
   xmlns:cc="http://creativecommons.org/ns#"
   xmlns:rdf="http://www.w3.org/1999/02/22-rdf-syntax-ns#"
   xmlns:svg="http://www.w3.org/2000/svg"
   xmlns="http://www.w3.org/2000/svg"
   width="16"
   version="1.1"
   style="enable-background:new"
   id="svg7384"
   height="16.00671">
  <metadata
     id="metadata90">
    <rdf:RDF>
      <cc:Work
         rdf:about="">
        <dc:format>image/svg+xml</dc:format>
        <dc:type
           rdf:resource="http://purl.org/dc/dcmitype/StillImage" />
        <dc:title>Moka Symbolic Icon Theme</dc:title>
      </cc:Work>
    </rdf:RDF>
  </metadata>
  <title
     id="title8473">Moka Symbolic Icon Theme</title>
  <defs
     id="defs7386">
    <linearGradient
       osb:paint="solid"
       id="linearGradient5606">
      <stop
         style="stop-color:#000000;stop-opacity:1;"
         offset="0"
         id="stop5608" />
    </linearGradient>
    <filter
       style="color-interpolation-filters:sRGB"
       id="filter7554">
      <feBlend
         mode="darken"
         in2="BackgroundImage"
         id="feBlend7556" />
    </filter>
  </defs>
  <g
     transform="translate(-764.00027,389.01007)"
     style="display:inline"
     id="layer9" />
  <g
     transform="translate(-764.00027,389.01007)"
     style="display:inline;filter:url(#filter7554)"
     id="layer10" />
  <g
     transform="translate(-523.00007,-227.98993)"
     style="display:inline"
     id="layer1">
    <path
       style="display:inline;fill:#bebebe;fill-opacity:1;stroke:none;enable-background:new"
       id="path7170"
       d="m 525.84378,228.99664 c -0.28125,0.0469 -0.84375,0.25 -0.84375,1 l 0,7 1,0 0,-7 6,0 1,0 0,3 3,0 0,1 0,3 0,1 1,0 c -1.7e-4,-0.47295 3.7e-4,-0.50388 0,-1 l 0,-1 c -0.003,-2.9747 0,-3 0,-3 l -4,-4 -7,0 c 0,0 -0.0625,-0.0156 -0.15625,0 z m -0.84375,9 0,1 1,0 0,-1 z m 11,1 0,1 1,0 c 4.3e-4,-0.35608 -1e-4,-0.57373 0,-1 z m -11,1 0,1 1,0 0,-1 z m 11,1 0,1 1,0 c 10e-4,-0.14516 -8.2e-4,-0.73763 0,-1 z m -11,1 0,1 1,0 0,-1 z m 1,1 0,1 1,0 0,-1 z m 2,0 0,1 1,0 0,-1 z m 2,0 0,1 1,0 0,-1 z m 2,0 0,1 1,0 0,-1 z m 2,0 0,1 1,0 0,-1 z m 2,0 0,1 1,0 0,-1 z" />
  </g>
  <g
     transform="translate(-764.00027,389.01007)"
     style="display:inline"
     id="layer14" />
  <g
     transform="translate(-764.00027,389.01007)"
     style="display:inline"
     id="layer15" />
  <g
     transform="translate(-764.00027,389.01007)"
     style="display:inline"
     id="g71291" />
  <g
     transform="translate(-523.00007,-77.98993)"
     style="display:inline"
     id="layer2" />
  <g
     transform="translate(-523.00007,-77.98993)"
     style="display:inline"
     id="g6058" />
  <g
     transform="translate(-764.00027,389.01007)"
     style="display:inline"
     id="layer12" />
</svg>
