<?xml version="1.0" encoding="UTF-8" standalone="no"?>
<svg
   xmlns:osb="http://www.openswatchbook.org/uri/2009/osb"
   xmlns:dc="http://purl.org/dc/elements/1.1/"
   xmlns:cc="http://creativecommons.org/ns#"
   xmlns:rdf="http://www.w3.org/1999/02/22-rdf-syntax-ns#"
   xmlns:svg="http://www.w3.org/2000/svg"
   xmlns="http://www.w3.org/2000/svg"
   width="16"
   version="1.1"
   style="enable-background:new"
   id="svg7384"
   height="16">
  <metadata
     id="metadata90">
    <rdf:RDF>
      <cc:Work
         rdf:about="">
        <dc:format>image/svg+xml</dc:format>
        <dc:type
           rdf:resource="http://purl.org/dc/dcmitype/StillImage" />
        <dc:title>Moka Symbolic Icon Theme</dc:title>
      </cc:Work>
    </rdf:RDF>
  </metadata>
  <title
     id="title8473">Moka Symbolic Icon Theme</title>
  <defs
     id="defs7386">
    <linearGradient
       osb:paint="solid"
       id="linearGradient5606">
      <stop
         style="stop-color:#000000;stop-opacity:1;"
         offset="0"
         id="stop5608" />
    </linearGradient>
    <filter
       style="color-interpolation-filters:sRGB"
       id="filter7554">
      <feBlend
         mode="darken"
         in2="BackgroundImage"
         id="feBlend7556" />
    </filter>
  </defs>
  <g
     transform="translate(-745.00021,388.00336)"
     style="display:inline"
     id="layer9" />
  <g
     transform="translate(-745.00021,388.00336)"
     style="display:inline;filter:url(#filter7554)"
     id="layer10" />
  <g
     transform="translate(-504.00001,-228.99664)"
     style="display:inline"
     id="layer1">
    <rect
       y="-242.99664"
       x="507"
       width="9.9999886"
       transform="scale(1,-1)"
       style="fill:#bebebe;fill-opacity:1;stroke:none"
       id="rect5102-8"
       height="1" />
    <rect
       y="-230.99664"
       x="507"
       width="9.9999981"
       transform="scale(1,-1)"
       style="fill:#bebebe;fill-opacity:1;stroke:none"
       id="rect5104-3"
       height="1" />
    <path
       style="color:#000000;font-style:normal;font-variant:normal;font-weight:normal;font-stretch:normal;font-size:medium;line-height:normal;font-family:sans-serif;text-indent:0;text-align:start;text-decoration:none;text-decoration-line:none;text-decoration-style:solid;text-decoration-color:#000000;letter-spacing:normal;word-spacing:normal;text-transform:none;direction:ltr;block-progression:tb;writing-mode:lr-tb;baseline-shift:baseline;text-anchor:start;white-space:normal;clip-rule:nonzero;display:inline;overflow:visible;visibility:visible;opacity:1;isolation:auto;mix-blend-mode:normal;color-interpolation:sRGB;color-interpolation-filters:linearRGB;solid-color:#000000;solid-opacity:1;fill:#bebebe;fill-opacity:1;fill-rule:nonzero;stroke:none;stroke-width:1px;stroke-linecap:butt;stroke-linejoin:round;stroke-miterlimit:4;stroke-dasharray:none;stroke-dashoffset:0;stroke-opacity:1;color-rendering:auto;image-rendering:auto;shape-rendering:auto;text-rendering:auto;enable-background:accumulate"
       id="path5888-6"
       d="m 507,230.49609 c 10e-6,2.55 0.37861,3.92279 1.03711,4.80079 0.48898,0.65196 1.0711,0.88906 1.62305,1.19921 -0.55202,0.3102 -1.134,0.54911 -1.62305,1.20118 -0.6585,0.878 -1.0371,2.24882 -1.03711,4.79882 l 1,0 c 0,-2.45 0.37139,-3.57721 0.83789,-4.19921 0.4665,-0.62201 1.12545,-0.8421 1.93945,-1.38477 a 0.50005,0.50005 0 0 0 0,-0.83203 c -0.814,-0.54267 -1.47295,-0.76081 -1.93945,-1.38281 C 508.37139,234.07527 508,232.94609 508,230.49609 l -1,0 z" />
    <path
       style="color:#000000;font-style:normal;font-variant:normal;font-weight:normal;font-stretch:normal;font-size:medium;line-height:normal;font-family:sans-serif;text-indent:0;text-align:start;text-decoration:none;text-decoration-line:none;text-decoration-style:solid;text-decoration-color:#000000;letter-spacing:normal;word-spacing:normal;text-transform:none;direction:ltr;block-progression:tb;writing-mode:lr-tb;baseline-shift:baseline;text-anchor:start;white-space:normal;clip-rule:nonzero;display:inline;overflow:visible;visibility:visible;opacity:1;isolation:auto;mix-blend-mode:normal;color-interpolation:sRGB;color-interpolation-filters:linearRGB;solid-color:#000000;solid-opacity:1;fill:#bebebe;fill-opacity:1;fill-rule:nonzero;stroke:none;stroke-width:1px;stroke-linecap:butt;stroke-linejoin:round;stroke-miterlimit:4;stroke-dasharray:none;stroke-dashoffset:0;stroke-opacity:1;color-rendering:auto;image-rendering:auto;shape-rendering:auto;text-rendering:auto;enable-background:accumulate"
       id="path5936-4"
       d="m 516,230.49609 c 0,2.45 -0.37139,3.57918 -0.83789,4.20118 -0.4665,0.622 -1.12545,0.84014 -1.93945,1.38281 a 0.50005,0.50005 0 0 0 0,0.83203 c 0.814,0.54267 1.47295,0.76276 1.93945,1.38477 0.4665,0.622 0.83789,1.74921 0.83789,4.19921 l 1,0 c -10e-6,-2.55 -0.37861,-3.92082 -1.03711,-4.79882 -0.48905,-0.65207 -1.07103,-0.89098 -1.62305,-1.20118 0.55195,-0.31015 1.13407,-0.54725 1.62305,-1.19921 0.6585,-0.878 1.0371,-2.25079 1.03711,-4.80079 l -1,0 z" />
    <path
       style="fill:#bebebe;fill-opacity:1;stroke:none"
       id="rect5938-8"
       d="m 509.62501,233.99664 c 0.0123,0.0278 0.0186,0.0769 0.0312,0.0937 0.27067,0.36089 0.78083,0.5518 1.6875,1.15625 l 0,0.0312 0.0312,0 c 0.41523,0.29802 0.6041,0.72701 0.625,1.15625 0.0209,-0.42924 0.20977,-0.85823 0.625,-1.15625 l 0.0312,0 0,-0.0312 c 0.90667,-0.60445 1.41683,-0.79536 1.6875,-1.15625 0.0127,-0.0169 0.019,-0.066 0.0312,-0.0937 z m -0.375,7 5.5,0 c -0.12017,-0.78981 -0.23986,-1.69426 -2.75,-1.69426 -0.25,0.44426 -2.62983,0.90445 -2.75,1.69426 z" />
  </g>
  <g
     transform="translate(-745.00021,388.00336)"
     style="display:inline"
     id="layer14" />
  <g
     transform="translate(-745.00021,388.00336)"
     style="display:inline"
     id="layer15" />
  <g
     transform="translate(-745.00021,388.00336)"
     style="display:inline"
     id="g71291" />
  <g
     transform="translate(-504.00001,-78.99664)"
     style="display:inline"
     id="layer2" />
  <g
     transform="translate(-504.00001,-78.99664)"
     style="display:inline"
     id="g6058" />
  <g
     transform="translate(-745.00021,388.00336)"
     style="display:inline"
     id="layer12" />
</svg>
