<?xml version="1.0" encoding="UTF-8" standalone="no"?>
<svg
   xmlns:dc="http://purl.org/dc/elements/1.1/"
   xmlns:cc="http://creativecommons.org/ns#"
   xmlns:rdf="http://www.w3.org/1999/02/22-rdf-syntax-ns#"
   xmlns:svg="http://www.w3.org/2000/svg"
   xmlns="http://www.w3.org/2000/svg"
   xmlns:sodipodi="http://sodipodi.sourceforge.net/DTD/sodipodi-0.dtd"
   xmlns:inkscape="http://www.inkscape.org/namespaces/inkscape"
   width="16"
   height="16"
   version="1.1"
   id="svg6"
   sodipodi:docname="nemo-bookmark-not-found-symbolic.svg"
   inkscape:version="0.92.4 (5da689c313, 2019-01-14)">
  <metadata
     id="metadata12">
    <rdf:RDF>
      <cc:Work
         rdf:about="">
        <dc:format>image/svg+xml</dc:format>
        <dc:type
           rdf:resource="http://purl.org/dc/dcmitype/StillImage" />
      </cc:Work>
    </rdf:RDF>
  </metadata>
  <defs
     id="defs10" />
  <sodipodi:namedview
     pagecolor="#ffffff"
     bordercolor="#666666"
     borderopacity="1"
     objecttolerance="10"
     gridtolerance="10"
     guidetolerance="10"
     inkscape:pageopacity="0"
     inkscape:pageshadow="2"
     inkscape:window-width="1366"
     inkscape:window-height="711"
     id="namedview8"
     showgrid="false"
     inkscape:zoom="20.85965"
     inkscape:cx="8.8114096"
     inkscape:cy="5.5647957"
     inkscape:window-x="0"
     inkscape:window-y="27"
     inkscape:window-maximized="1"
     inkscape:current-layer="svg6" />
  <g
     transform="translate(-503.00003,-206.99664)"
     style="display:inline;enable-background:new;opacity:0.5"
     id="layer1">
    <path
       inkscape:connector-curvature="0"
       style="color:#000000;font-style:normal;font-variant:normal;font-weight:normal;font-stretch:normal;font-size:medium;line-height:normal;font-family:sans-serif;-inkscape-font-specification:sans-serif;text-indent:0;text-align:start;text-decoration:none;text-decoration-line:none;text-decoration-style:solid;text-decoration-color:#000000;letter-spacing:normal;word-spacing:normal;text-transform:none;writing-mode:lr-tb;direction:ltr;baseline-shift:baseline;text-anchor:start;white-space:normal;clip-rule:nonzero;display:inline;overflow:visible;visibility:visible;opacity:1;isolation:auto;mix-blend-mode:normal;color-interpolation:sRGB;color-interpolation-filters:linearRGB;solid-color:#000000;solid-opacity:1;fill:#bebebe;fill-opacity:1;fill-rule:nonzero;stroke:none;stroke-width:1;stroke-linecap:butt;stroke-linejoin:round;stroke-miterlimit:4;stroke-dasharray:none;stroke-dashoffset:0;stroke-opacity:1;marker:none;color-rendering:auto;image-rendering:auto;shape-rendering:auto;text-rendering:auto;enable-background:accumulate"
       id="polygon5122-0-0"
       d="m 510.95898,207.62109 a 0.50005,0.50005 0 0 0 -0.42773,0.32618 l -1.86523,5.05468 H 503.5 a 0.50005,0.50005 0 0 0 -0.31445,0.88867 l 4.03515,3.27735 -1.33789,5.02539 a 0.50005,0.50005 0 0 0 0.75391,0.54687 L 511,219.91602 l 4.36328,2.82421 a 0.50005,0.50005 0 0 0 0.75586,-0.54687 l -1.33789,-5.02539 4.03516,-3.27735 A 0.50005,0.50005 0 0 0 518.5,213.00195 h -5.16406 l -1.86719,-5.05468 a 0.50005,0.50005 0 0 0 -0.50977,-0.32618 z m 0.041,1.94141 1.51758,4.11328 a 0.50005,0.50005 0 0 0 0.46875,0.32617 h 4.10547 l -3.19141,2.59375 a 0.50005,0.50005 0 0 0 -0.16797,0.51758 l 1.08789,4.08594 -3.54883,-2.29883 a 0.50005,0.50005 0 0 0 -0.54296,0 l -3.54688,2.29688 1.08789,-4.08399 a 0.50005,0.50005 0 0 0 -0.16797,-0.51758 l -3.1914,-2.59375 h 4.10351 a 0.50005,0.50005 0 0 0 0.46875,-0.32617 L 511,209.5625 Z" />
  </g>
  <path
     style="fill:#5294e2"
     class="warning"
     d="m 13,8 v 5 h 2 V 8 Z m 0,6 v 2 h 2 v -2 z"
     id="path4" />
</svg>
