<?xml version="1.0" encoding="UTF-8" standalone="no"?>
<svg
   xmlns:osb="http://www.openswatchbook.org/uri/2009/osb"
   xmlns:dc="http://purl.org/dc/elements/1.1/"
   xmlns:cc="http://creativecommons.org/ns#"
   xmlns:rdf="http://www.w3.org/1999/02/22-rdf-syntax-ns#"
   xmlns:svg="http://www.w3.org/2000/svg"
   xmlns="http://www.w3.org/2000/svg"
   width="16.00721"
   version="1.1"
   style="enable-background:new"
   id="svg7384"
   height="16">
  <metadata
     id="metadata90">
    <rdf:RDF>
      <cc:Work
         rdf:about="">
        <dc:format>image/svg+xml</dc:format>
        <dc:type
           rdf:resource="http://purl.org/dc/dcmitype/StillImage" />
        <dc:title>Moka Symbolic Icon Theme</dc:title>
      </cc:Work>
    </rdf:RDF>
  </metadata>
  <title
     id="title8473">Moka Symbolic Icon Theme</title>
  <defs
     id="defs7386">
    <linearGradient
       osb:paint="solid"
       id="linearGradient5606">
      <stop
         style="stop-color:#000000;stop-opacity:1;"
         offset="0"
         id="stop5608" />
    </linearGradient>
    <filter
       style="color-interpolation-filters:sRGB"
       id="filter7554">
      <feBlend
         mode="darken"
         in2="BackgroundImage"
         id="feBlend7556" />
    </filter>
  </defs>
  <g
     transform="translate(-743.0002,427.00336)"
     style="display:inline"
     id="layer9" />
  <g
     transform="translate(-743.0002,427.00336)"
     style="display:inline;filter:url(#filter7554)"
     id="layer10" />
  <g
     transform="translate(-502,-189.99664)"
     style="display:inline"
     id="layer1">
    <path
       style="display:inline;fill:#bebebe;fill-opacity:1;stroke:none;enable-background:new"
       id="path5998-5"
       d="m 509.31971,191.99664 c -0.20188,0.0205 -0.39825,0.0539 -0.59375,0.0937 -0.39253,0.0803 -0.76429,0.1912 -1.125,0.34375 -1.72392,0.72916 -3.0366,2.24796 -3.5,4.09375 0.012,0.0131 0.0174,0.0165 0.0312,0.0312 0.32346,0.34543 1.21542,0.83514 1.84375,1.0625 0.34366,0.12436 0.98318,0.31312 1.4375,0.40625 0.45434,0.093 0.76351,0.18389 0.71875,0.1875 -0.0448,0.004 -0.23549,0.13088 -0.4375,0.3125 -0.38532,0.34642 -0.58347,0.67047 -0.75,1.21875 -0.0913,0.3002 -0.0879,0.36875 0.0312,0.53125 0.0718,0.0979 0.39955,0.33367 0.71875,0.53125 0.31918,0.19759 0.67938,0.49597 0.8125,0.625 0.49594,0.48069 0.8125,1.32126 0.8125,2.15625 0,0.21366 0.0156,0.35764 0.0312,0.40625 0.0406,0.004 0.0843,-0.004 0.125,0 0.0918,-0.0354 0.2187,-0.078 0.4375,-0.1875 1.83329,-0.91773 2.70756,-2.14667 2.625,-3.71875 -0.0658,-1.25364 -0.6783,-1.68218 -3.0625,-2.1875 -1.75562,-0.37209 -2.6875,-0.98567 -2.6875,-1.78125 0,-0.2098 0.052,-0.33333 0.28125,-0.5625 0.24634,-0.24636 0.30958,-0.2568 0.5,-0.21875 0.12126,0.0242 0.41548,0.18436 0.65625,0.375 0.542,0.42919 0.81345,0.59375 1.09375,0.59375 0.1194,0 0.21875,-0.0134 0.21875,-0.0312 0,-0.0179 -0.0895,-0.16793 -0.1875,-0.3125 -0.54114,-0.79732 -0.48929,-2.32004 0.0937,-3.59375 0.0916,-0.19997 0.1346,-0.33661 0.125,-0.375 -0.081,0.005 -0.16973,-0.008 -0.25,0 z m 5.625,2.84375 c -0.10909,-0.0673 -0.98364,0.87144 -1.1875,1.28125 -0.40423,0.81266 -0.24628,1.32545 0.71875,2.34375 0.33433,0.35276 0.7178,0.83934 0.84375,1.0625 0.12594,0.22317 0.25172,0.37568 0.28125,0.34375 0.0295,-0.0319 0.087,-0.28834 0.15625,-0.5625 0.18194,-0.72034 0.19614,-1.96243 0,-2.6875 -0.15192,-0.56158 -0.67155,-1.69413 -0.8125,-1.78125 z" />
    <path
       style="display:inline;fill:#bebebe;fill-opacity:1;stroke:none;enable-background:new"
       id="path6119-4"
       d="m 510.00721,189.99664 c -4.41828,0 -8,3.58172 -8,8 0,4.41828 3.58172,8 8,8 4.41828,0 8,-3.58172 8,-8 0,-4.41828 -3.58172,-8 -8,-8 z m 0,1 c 3.86599,0 7,3.13401 7,7 0,3.86599 -3.13401,7 -7,7 -3.86599,0 -7,-3.13401 -7,-7 0,-3.86599 3.13401,-7 7,-7 z" />
  </g>
  <g
     transform="translate(-743.0002,427.00336)"
     style="display:inline"
     id="layer14" />
  <g
     transform="translate(-743.0002,427.00336)"
     style="display:inline"
     id="layer15" />
  <g
     transform="translate(-743.0002,427.00336)"
     style="display:inline"
     id="g71291" />
  <g
     transform="translate(-502,-39.996641)"
     style="display:inline"
     id="layer2" />
  <g
     transform="translate(-502,-39.996641)"
     style="display:inline"
     id="g6058" />
  <g
     transform="translate(-743.0002,427.00336)"
     style="display:inline"
     id="layer12" />
</svg>
