<?xml version="1.0" encoding="UTF-8" standalone="no"?>
<svg
   xmlns:osb="http://www.openswatchbook.org/uri/2009/osb"
   xmlns:dc="http://purl.org/dc/elements/1.1/"
   xmlns:cc="http://creativecommons.org/ns#"
   xmlns:rdf="http://www.w3.org/1999/02/22-rdf-syntax-ns#"
   xmlns:svg="http://www.w3.org/2000/svg"
   xmlns="http://www.w3.org/2000/svg"
   width="16"
   version="1.1"
   style="enable-background:new"
   id="svg7384"
   height="16">
  <metadata
     id="metadata90">
    <rdf:RDF>
      <cc:Work
         rdf:about="">
        <dc:format>image/svg+xml</dc:format>
        <dc:type
           rdf:resource="http://purl.org/dc/dcmitype/StillImage" />
        <dc:title>Moka Symbolic Icon Theme</dc:title>
      </cc:Work>
    </rdf:RDF>
  </metadata>
  <title
     id="title8473">Moka Symbolic Icon Theme</title>
  <defs
     id="defs7386">
    <linearGradient
       osb:paint="solid"
       id="linearGradient5606">
      <stop
         style="stop-color:#000000;stop-opacity:1;"
         offset="0"
         id="stop5608" />
    </linearGradient>
    <filter
       style="color-interpolation-filters:sRGB"
       id="filter7554">
      <feBlend
         mode="darken"
         in2="BackgroundImage"
         id="feBlend7556" />
    </filter>
  </defs>
  <g
     transform="translate(-664.00023,388.99636)"
     style="display:inline"
     id="layer9" />
  <g
     transform="translate(-664.00023,388.99636)"
     style="display:inline;filter:url(#filter7554)"
     id="layer10" />
  <g
     transform="translate(-423.00003,-228.00364)"
     style="display:inline"
     id="layer1">
    <path
       style="color:#000000;font-style:normal;font-variant:normal;font-weight:normal;font-stretch:normal;font-size:medium;line-height:normal;font-family:Sans;-inkscape-font-specification:Sans;text-indent:0;text-align:start;text-decoration:none;text-decoration-line:none;letter-spacing:normal;word-spacing:normal;text-transform:none;direction:ltr;block-progression:tb;writing-mode:lr-tb;baseline-shift:baseline;text-anchor:start;display:inline;overflow:visible;visibility:visible;fill:#bebebe;fill-opacity:1;stroke:none;stroke-width:2;marker:none;enable-background:accumulate"
       id="path8476"
       d="m 425.00003,231.99664 0,10 c 5e-5,0.52358 0.47642,0.99995 1,1 l 8,0 1,0 c 0.52358,-5e-5 0.99995,-0.47642 1,-1 l 0,-10 -1,0 0,8 0,2 c -2.33333,0 -6.66667,0 -9,0 l 0,-2 0,-8 z" />
    <path
       style="color:#000000;font-style:normal;font-variant:normal;font-weight:normal;font-stretch:normal;font-size:medium;line-height:normal;font-family:Sans;-inkscape-font-specification:Sans;text-indent:0;text-align:start;text-decoration:none;text-decoration-line:none;letter-spacing:normal;word-spacing:normal;text-transform:none;direction:ltr;block-progression:tb;writing-mode:lr-tb;baseline-shift:baseline;text-anchor:start;display:inline;overflow:visible;visibility:visible;fill:#bebebe;fill-opacity:1;stroke:none;stroke-width:2;marker:none;enable-background:accumulate"
       id="path8478"
       d="m 424.0625,230.99664 0,0 0.93753,0 1.02923,0 10.97074,0 0,0 c 0,-1 -1,-1 -1,-1 l -3,0 c 0,0 0,-1 -1,-1 l -3,0 c -1,0 -1,1 -1,1 l -3,0 c 0,0 -0.9375,0 -0.9375,1 z" />
  </g>
  <g
     transform="translate(-664.00023,388.99636)"
     style="display:inline"
     id="layer14" />
  <g
     transform="translate(-664.00023,388.99636)"
     style="display:inline"
     id="layer15" />
  <g
     transform="translate(-664.00023,388.99636)"
     style="display:inline"
     id="g71291" />
  <g
     transform="translate(-423.00003,-78.003645)"
     style="display:inline"
     id="layer2" />
  <g
     transform="translate(-423.00003,-78.003645)"
     style="display:inline"
     id="g6058" />
  <g
     transform="translate(-664.00023,388.99636)"
     style="display:inline"
     id="layer12" />
</svg>
