<svg width="16" height="16" version="1.1" xmlns="http://www.w3.org/2000/svg">
 <defs>
  <style id="current-color-scheme" type="text/css"/>
 </defs>
 <path d="m8.7734 0.875c-3.3467 0-6.1659 2.1383-6.9258 5.25h-0.84766a1.0001 1.0001 0 0 0-0.7832 1.623l2.3223 2.916a1.0001 1.0001 0 0 0 1.5645 0.001954l2.3242-2.918a1.0001 1.0001 0 0 0-0.67969-1.6172c0.39339-0.64874 0.95572-1.0834 1.7402-1.3379l-0.47852 3.3574a1.0001 1.0001 0 0 0 0.36523 0.92188l2.8164 2.252c-0.43549 0.17719-0.91134 0.2793-1.416 0.2793-1.1106 0-2.0955-0.4811-2.7695-1.2363a1.0001 1.0001 0 0 0-1.4199-0.072266l-1.1387 1.0371a1.0001 1.0001 0 0 0-0.066406 1.4102c1.3797 1.5229 3.3416 2.3892 5.3965 2.3828 3.9674-0.00107 7.2227-3.1948 7.2227-7.125 0-3.9308-3.2563-7.125-7.2246-7.125h-0.0019531zm0 1h0.0019531c3.4359 0 6.2246 2.7442 6.2246 6.125s-2.7887 6.125-6.2246 6.125a6.2524 6.2524 0 0 1-4.6543-2.0547l1.1387-1.0371c0.85744 0.96069 2.1148 1.5703 3.5156 1.5703 2.582 0 4.6758-2.0627 4.6758-4.6035s-2.0947-4.6035-4.6758-4.6035c-2.3851 0-4.3595 1.4572-4.6465 3.7285h1.5176l-2.3242 2.918-2.3223-2.918h1.5723c0.29136-3.1148 2.9595-5.25 6.2012-5.25zm-0.19141 2.332h0.58398v3.5l1.75 2.3359v0.58203l-2.916-2.332 0.58203-4.0859zm1.584 0.46289c1.3454 0.53671 2.2852 1.8205 2.2852 3.3301 0 0.67443-0.23793 1.269-0.56445 1.8086a1.0001 1.0001 0 0 0-0.16992-0.36719l-1.5508-2.0664v-2.7051z" color="#000000" color-rendering="auto" dominant-baseline="auto" fill="#252f2d" image-rendering="auto" opacity=".65" shape-rendering="auto" solid-color="#000000" style="font-feature-settings:normal;font-variant-alternates:normal;font-variant-caps:normal;font-variant-ligatures:normal;font-variant-numeric:normal;font-variant-position:normal;isolation:auto;mix-blend-mode:normal;shape-padding:0;text-decoration-color:#000000;text-decoration-line:none;text-decoration-style:solid;text-indent:0;text-orientation:mixed;text-transform:none;white-space:normal"/>
 <path d="m0 0h16v16h-16z" fill="none" opacity=".75"/>
 <path d="m8.7739 1.8754c-3.2417 0-5.9102 2.1349-6.2016 5.2497h-1.5723l2.3221 2.9171 2.3238-2.9171h-1.5163c0.28698-2.2714 2.26-3.729 4.6451-3.729 2.5811 0 4.6766 2.0631 4.6766 4.604s-2.0946 4.604-4.6766 4.604c-1.4008 0-2.6581-0.60984-3.5155-1.5705l-1.1374 1.0368a6.2524 6.2524 0 0 0 4.653 2.0544c3.4359 0 6.2252-2.7438 6.2252-6.1246s-2.7893-6.1246-6.2252-6.1246zm-0.19161 2.3326-0.58271 4.0842 2.9171 2.3326v-0.58271l-1.7499-2.3344v-3.4998z" color="#000000" fill="#5c7a74" opacity=".65" overflow="visible"/>
</svg>
