<svg xmlns="http://www.w3.org/2000/svg" width="64" height="64"><path fill="#b89961" stroke="#805b20" stroke-linecap="round" stroke-width="1.704" d="M24 4.407c12.703 0 23 10.297 23 23s-10.297 23-23 23-23-10.297-23-23 10.297-23 23-23z" style="paint-order:stroke markers fill" transform="translate(3.826 -.174)scale(1.1739)"/><path fill="#805b20" d="M32 14c-9.942 0-18 8.058-18 18s8.058 18 18 18 18-8.058 18-18-8.058-18-18-18"/><path fill="#fff" d="M30.832 18.044a14.01 14.01 0 0 0-12.784 12.789h12.784zm2.335.005v12.784h12.79a14.01 14.01 0 0 0-12.79-12.784M18.043 33.168a14.01 14.01 0 0 0 12.79 12.784V33.168zm15.124 0v12.789a14.01 14.01 0 0 0 12.784-12.79z"/></svg>