<?xml version="1.0" encoding="UTF-8" standalone="no"?>
<!-- Created with Inkscape (http://www.inkscape.org/) -->

<svg
   xmlns:dc="http://purl.org/dc/elements/1.1/"
   xmlns:cc="http://creativecommons.org/ns#"
   xmlns:rdf="http://www.w3.org/1999/02/22-rdf-syntax-ns#"
   xmlns:svg="http://www.w3.org/2000/svg"
   xmlns="http://www.w3.org/2000/svg"
   xmlns:sodipodi="http://sodipodi.sourceforge.net/DTD/sodipodi-0.dtd"
   xmlns:inkscape="http://www.inkscape.org/namespaces/inkscape"
   width="64"
   height="64"
   viewBox="0 0 16.933333 16.933333"
   version="1.1"
   id="svg4572"
   inkscape:version="0.92.4 (5da689c313, 2019-01-14)"
   sodipodi:docname="7zip.svg">
  <title
     id="title4611">Canvas icon theme</title>
  <defs
     id="defs4566" />
  <sodipodi:namedview
     id="base"
     pagecolor="#ffffff"
     bordercolor="#666666"
     borderopacity="1.0"
     inkscape:pageopacity="0.0"
     inkscape:pageshadow="2"
     inkscape:zoom="11.2"
     inkscape:cx="41.63145"
     inkscape:cy="19.164565"
     inkscape:document-units="px"
     inkscape:current-layer="layer1"
     showgrid="true"
     units="px"
     width="64px"
     showguides="false"
     inkscape:guide-bbox="true"
     inkscape:window-width="1366"
     inkscape:window-height="695"
     inkscape:window-x="0"
     inkscape:window-y="0"
     inkscape:window-maximized="1"
     inkscape:snap-bbox="true"
     inkscape:bbox-nodes="true"
     inkscape:snap-bbox-edge-midpoints="true">
    <inkscape:grid
       type="xygrid"
       id="grid4582" />
  </sodipodi:namedview>
  <metadata
     id="metadata4569">
    <rdf:RDF>
      <cc:Work
         rdf:about="">
        <dc:format>image/svg+xml</dc:format>
        <dc:type
           rdf:resource="http://purl.org/dc/dcmitype/StillImage" />
        <dc:title>Canvas icon theme</dc:title>
        <cc:license
           rdf:resource="http://creativecommons.org/licenses/by-nc-sa/4.0/" />
        <dc:creator>
          <cc:Agent>
            <dc:title>Vince Liuice</dc:title>
          </cc:Agent>
        </dc:creator>
      </cc:Work>
      <cc:License
         rdf:about="http://creativecommons.org/licenses/by-nc-sa/4.0/">
        <cc:permits
           rdf:resource="http://creativecommons.org/ns#Reproduction" />
        <cc:permits
           rdf:resource="http://creativecommons.org/ns#Distribution" />
        <cc:requires
           rdf:resource="http://creativecommons.org/ns#Notice" />
        <cc:requires
           rdf:resource="http://creativecommons.org/ns#Attribution" />
        <cc:prohibits
           rdf:resource="http://creativecommons.org/ns#CommercialUse" />
        <cc:permits
           rdf:resource="http://creativecommons.org/ns#DerivativeWorks" />
        <cc:requires
           rdf:resource="http://creativecommons.org/ns#ShareAlike" />
      </cc:License>
    </rdf:RDF>
  </metadata>
  <g
     inkscape:label="Layer 1"
     inkscape:groupmode="layer"
     id="layer1"
     transform="translate(0,-280.06667)">
    <rect
       ry="0.79374516"
       rx="0.79374975"
       y="281.65417"
       x="1.5875003"
       height="13.758332"
       width="13.758332"
       id="rect835"
       style="opacity:1;fill:#e6e6e6;fill-opacity:1;stroke:#636d85;stroke-width:0.52916664;stroke-linecap:round;stroke-linejoin:round;stroke-miterlimit:4;stroke-dasharray:none;stroke-opacity:0.33716476;paint-order:markers stroke fill" />
    <rect
       style="opacity:1;fill:#e6e6e6;fill-opacity:1;stroke:none;stroke-width:0.2362351;stroke-linecap:round;stroke-linejoin:round;stroke-miterlimit:4;stroke-dasharray:none;stroke-opacity:0.09803922;paint-order:markers stroke fill"
       id="rect841"
       width="13.758332"
       height="13.758332"
       x="1.5875003"
       y="281.65417"
       rx="0.79374975"
       ry="0.79374516" />
    <path
       style="opacity:0.3;fill:#000000;fill-opacity:1;stroke-width:0.99999994"
       d="M 30 5.9960938 L 30 13.859375 L 30 14.349609 L 30 22.205078 L 30 22.212891 L 30 32.035156 C 30 33.116366 30.895 34 32 34 C 33.105 34 34 33.116366 34 32.035156 L 34 22.212891 L 34 22.205078 L 34 14.349609 L 34 13.859375 L 34 5.9960938 L 32.982422 5.9960938 C 32.98499 6.0280192 33 6.0552158 33 6.0878906 L 33 31.912109 C 33 32.514781 32.553999 33 32 33 C 31.446001 33 31 32.514781 31 31.912109 L 31 6.0878906 C 31 6.0552158 31.01501 6.0280192 31.017578 5.9960938 L 30 5.9960938 z "
       transform="matrix(0.26458333,0,0,0.26458333,0,280.06667)"
       id="path14" />
    <path
       style="fill:#000000;stroke-width:0.99999994;opacity:0.3"
       d="M 32 6 L 32 7 L 33 7 L 33 6 L 32 6 z M 32 7 L 31 7 L 31 8 L 32 8 L 32 7 z M 32 8 L 32 9 L 33 9 L 33 8 L 32 8 z M 32 9 L 31 9 L 31 10 L 32 10 L 32 9 z M 32 10 L 32 11 L 33 11 L 33 10 L 32 10 z M 32 11 L 31 11 L 31 12 L 32 12 L 32 11 z M 32 12 L 32 13 L 33 13 L 33 12 L 32 12 z M 32 13 L 31 13 L 31 14 L 32 14 L 32 13 z M 32 14 L 32 15 L 33 15 L 33 14 L 32 14 z M 32 15 L 31 15 L 31 16 L 32 16 L 32 15 z M 32 16 L 32 17 L 33 17 L 33 16 L 32 16 z M 32 17 L 31 17 L 31 18 L 32 18 L 32 17 z M 32 18 L 32 19 L 33 19 L 33 18 L 32 18 z M 32 19 L 31 19 L 31 20 L 32 20 L 32 19 z M 32 20 L 32 21 L 33 21 L 33 20 L 32 20 z M 32 21 L 31 21 L 31 22 L 32 22 L 32 21 z M 32 22 L 32 23 L 33 23 L 33 22 L 32 22 z M 32 23 L 31 23 L 31 24 L 32 24 L 32 23 z M 32 24 L 32 25 L 33 25 L 33 24 L 32 24 z M 32 25 L 31 25 L 31 26 L 32 26 L 32 25 z M 32 26 L 32 27 L 33 27 L 33 26 L 32 26 z M 32 27 L 31 27 L 31 28 L 32 28 L 32 27 z M 32 28 L 32 29 L 33 29 L 33 28 L 32 28 z M 32 29 L 31 29 L 31 30 L 32 30 L 32 29 z M 32 30 L 32 31 L 33 31 L 33 30 L 32 30 z M 32 31 L 31 31 L 31 32 L 32 32 L 32 31 z M 32 32 L 32 33 C 32.552 33 33 32.500032 33 32 L 32 32 z "
       id="path16"
       transform="matrix(0.26458333,0,0,0.26458333,0,280.06667)" />
    <path
       inkscape:connector-curvature="0"
       style="fill:#ffffff;stroke-width:0.26458333;stroke:#000000;stroke-opacity:0.25490198;stroke-miterlimit:4;stroke-dasharray:none;paint-order:fill markers stroke"
       d="m 8.4666673,286.41668 c -0.5849053,0 -1.0583337,0.47624 -1.0583337,1.05833 v 2.11667 c 0,0.58208 0.4736039,1.05833 1.0583337,1.05833 0.5847289,0 1.0583328,-0.47625 1.0583328,-1.05833 v -2.11667 c 0,-0.58209 -0.4734284,-1.05833 -1.0583328,-1.05833 z m 0,0.52915 c 0.2920998,0 0.5291669,0.21167 0.5291669,0.52918 0,0.26457 -0.2370671,0.52916 -0.5291669,0.52916 -0.2921007,0 -0.5291678,-0.26459 -0.5291678,-0.52916 0,-0.31751 0.2370671,-0.52918 0.5291678,-0.52918 z m 0,1.58751 c 0.2922512,0 0.5291669,0.23691 0.5291669,0.52916 v 0.52918 c 0,0.29224 -0.2369157,0.52915 -0.5291669,0.52915 -0.2922511,0 -0.5291678,-0.23691 -0.5291678,-0.52915 v -0.52918 c 0,-0.29225 0.2369167,-0.52916 0.5291678,-0.52916 z"
       id="path20" />
    <path
       style="opacity:0.35;fill:#ffffff;stroke-width:0.99999994"
       d="M 31 7 L 31 8 L 32 8 L 32 7 L 31 7 z M 31 9 L 31 10 L 32 10 L 32 9 L 31 9 z M 31 11 L 31 12 L 32 12 L 32 11 L 31 11 z M 31 13 L 31 14 L 32 14 L 32 13 L 31 13 z M 31 15 L 31 16 L 32 16 L 32 15 L 31 15 z M 31 17 L 31 18 L 32 18 L 32 17 L 31 17 z M 31 19 L 31 20 L 32 20 L 32 19 L 31 19 z M 31 21 L 31 22 L 32 22 L 32 21 L 31 21 z M 31 23 L 31 24 L 32 24 L 32 23 L 31 23 z M 31 25 L 31 26 L 32 26 L 32 25 L 31 25 z M 31 27 L 31 28 L 32 28 L 32 27 L 31 27 z M 31 29 L 31 30 L 32 30 L 32 29 L 31 29 z "
       transform="matrix(0.26458333,0,0,0.26458333,0,280.06667)"
       id="path18" />
  </g>
</svg>
