<svg xmlns="http://www.w3.org/2000/svg" width="64" height="64" viewBox="0 0 16.933 16.933"><g fill="#4e99f3" paint-order="fill markers stroke" transform="translate(0 -280.07)"><circle cx="8.467" cy="288.53" r="7.144" stroke="#074c99" stroke-linecap="round" stroke-width=".529" opacity=".75"/><circle cx="8.467" cy="288.53" r="7.144"/></g><path fill="#fff" fill-opacity=".993" d="M10.64 4.475a2.9 2.9 0 0 0-1.222.252C8.685 5.05 8.156 5.764 7.844 6.3a.313.313 0 0 0-.279.54l-.052.123-1.518 3.333a.312.312 0 0 0-.269.564l.01.004-.341.751h-.849a.313.313 0 0 0 0 .626h1.566a.314.314 0 1 0 0-.626h-.03l.219-.477a.3.3 0 0 0 .086.013.312.312 0 0 0 .17-.575l1.571-3.453a.31.31 0 0 0 .414-.15.31.31 0 0 0-.129-.406c.268-.451.697-1.02 1.259-1.269.603-.266 1.299-.263 1.772.01.348.201.549.521.595.951.088.805.014 1.344-.22 1.604a1 1 0 0 1-.069.064v.7a1.2 1.2 0 0 0 .536-.346c.362-.403.485-1.087.376-2.09-.068-.621-.389-1.128-.905-1.425a2.3 2.3 0 0 0-1.116-.292zm.027 3.07c-.173 0-1.919.144-2.38 2.423l-.295 1.883c0 .173.14.392.313.392h1.487a1.35 1.35 0 0 1-.287-.832 1.36 1.36 0 0 1 1.932-1.233V7.701c0-.173.017-.156-.156-.156zm.199 2.818a1.045 1.045 0 1 0-.343 2.036 1.043 1.043 0 0 0 1.39-.988 1.04 1.04 0 0 0-.476-.876 1.04 1.04 0 0 0-.571-.172"/></svg>