<svg xmlns="http://www.w3.org/2000/svg" width="64" height="64" viewBox="0 0 16.933 16.933"><path d="M3.44 1.588c-.44 0-.794.328-.794.737v12.284c0 .408.354.737.794.737h10.054c.44 0 .793-.329.793-.737V2.325c0-.409-.354-.737-.793-.737z" fill="#a42d2d" stroke-width=".529" stroke="#972d2d" paint-order="markers stroke fill"/><path d="M3.44 1.588c-.44 0-.794.328-.794.737v12.284c0 .408.354.737.794.737h10.054c.44 0 .793-.329.793-.737V2.325c0-.409-.354-.737-.793-.737z" fill="#c83737" paint-order="markers stroke fill"/><path d="M10.054 1.588v6.35l1.059-1.059 1.058 1.058v-6.35z" fill="#fff"/><path d="M3.44 1.588c-.44 0-.794.328-.794.736V14.61c0 .408.354.737.794.737h1.852V1.588z" opacity=".18"/><text y="293.773" x="8.171" style="line-height:1.25" font-weight="400" font-size="3.976" font-family="sans-serif" letter-spacing="0" word-spacing="0" fill="#e49b9b" stroke-width=".265" stroke-opacity=".255" transform="translate(0 -280.067)"><tspan y="293.773" x="8.171">Aa</tspan></text></svg>