<?xml version="1.0" encoding="UTF-8" standalone="no"?>
<!-- Created with Inkscape (http://www.inkscape.org/) -->

<svg
   xmlns:dc="http://purl.org/dc/elements/1.1/"
   xmlns:cc="http://creativecommons.org/ns#"
   xmlns:rdf="http://www.w3.org/1999/02/22-rdf-syntax-ns#"
   xmlns:svg="http://www.w3.org/2000/svg"
   xmlns="http://www.w3.org/2000/svg"
   xmlns:xlink="http://www.w3.org/1999/xlink"
   xmlns:sodipodi="http://sodipodi.sourceforge.net/DTD/sodipodi-0.dtd"
   xmlns:inkscape="http://www.inkscape.org/namespaces/inkscape"
   width="64"
   height="64"
   viewBox="0 0 16.933333 16.933333"
   version="1.1"
   id="svg4572"
   inkscape:version="0.92.4 (5da689c313, 2019-01-14)"
   sodipodi:docname="accessories-screenshot.svg">
  <title
     id="title4611">Canvas icon theme</title>
  <defs
     id="defs4566">
    <linearGradient
       gradientTransform="matrix(0.32179056,0,0,0.22167793,-0.06347124,281.119)"
       gradientUnits="userSpaceOnUse"
       xlink:href="#linearGradient4054-5"
       id="linearGradient3152-7"
       y2="40.265266"
       x2="25.004524"
       y1="51.07592"
       x1="25.004524" />
    <linearGradient
       id="linearGradient4054-5">
      <stop
         offset="0"
         style="stop-color:#ffffff;stop-opacity:1"
         id="stop4056-0" />
      <stop
         offset="0.06316455"
         style="stop-color:#ffffff;stop-opacity:0.23529412"
         id="stop4058-4" />
      <stop
         offset="0.96892834"
         style="stop-color:#ffffff;stop-opacity:0.15686275"
         id="stop4060-4" />
      <stop
         offset="1"
         style="stop-color:#ffffff;stop-opacity:0.39215687"
         id="stop4062-0" />
    </linearGradient>
  </defs>
  <sodipodi:namedview
     id="base"
     pagecolor="#ffffff"
     bordercolor="#666666"
     borderopacity="1.0"
     inkscape:pageopacity="0.0"
     inkscape:pageshadow="2"
     inkscape:zoom="7.919596"
     inkscape:cx="48.220788"
     inkscape:cy="22.902627"
     inkscape:document-units="px"
     inkscape:current-layer="layer1"
     showgrid="true"
     units="px"
     width="64px"
     showguides="true"
     inkscape:guide-bbox="true"
     inkscape:window-width="1366"
     inkscape:window-height="715"
     inkscape:window-x="0"
     inkscape:window-y="27"
     inkscape:window-maximized="1"
     inkscape:snap-bbox="true"
     inkscape:bbox-nodes="true"
     inkscape:snap-bbox-edge-midpoints="true"
     inkscape:snap-nodes="false">
    <inkscape:grid
       type="xygrid"
       id="grid4582" />
    <sodipodi:guide
       position="1.0583333,15.875"
       orientation="0,1"
       id="guide4584"
       inkscape:locked="false" />
    <sodipodi:guide
       position="1.0583333,1.0583333"
       orientation="1,0"
       id="guide4586"
       inkscape:locked="false" />
    <sodipodi:guide
       position="15.875,15.875"
       orientation="1,0"
       id="guide4588"
       inkscape:locked="false" />
    <sodipodi:guide
       position="1.0583333,1.0583333"
       orientation="0,1"
       id="guide4590"
       inkscape:locked="false" />
    <sodipodi:guide
       position="8.4666665,8.4666665"
       orientation="0,1"
       id="guide822"
       inkscape:locked="false" />
    <sodipodi:guide
       position="8.4666665,8.4666665"
       orientation="1,0"
       id="guide824"
       inkscape:locked="false" />
  </sodipodi:namedview>
  <metadata
     id="metadata4569">
    <rdf:RDF>
      <cc:Work
         rdf:about="">
        <dc:format>image/svg+xml</dc:format>
        <dc:type
           rdf:resource="http://purl.org/dc/dcmitype/StillImage" />
        <dc:title>Canvas icon theme</dc:title>
        <cc:license
           rdf:resource="http://creativecommons.org/licenses/by-nc-sa/4.0/" />
        <dc:creator>
          <cc:Agent>
            <dc:title>Vince Liuice</dc:title>
          </cc:Agent>
        </dc:creator>
      </cc:Work>
      <cc:License
         rdf:about="http://creativecommons.org/licenses/by-nc-sa/4.0/">
        <cc:permits
           rdf:resource="http://creativecommons.org/ns#Reproduction" />
        <cc:permits
           rdf:resource="http://creativecommons.org/ns#Distribution" />
        <cc:requires
           rdf:resource="http://creativecommons.org/ns#Notice" />
        <cc:requires
           rdf:resource="http://creativecommons.org/ns#Attribution" />
        <cc:prohibits
           rdf:resource="http://creativecommons.org/ns#CommercialUse" />
        <cc:permits
           rdf:resource="http://creativecommons.org/ns#DerivativeWorks" />
        <cc:requires
           rdf:resource="http://creativecommons.org/ns#ShareAlike" />
      </cc:License>
    </rdf:RDF>
  </metadata>
  <g
     inkscape:label="Layer 1"
     inkscape:groupmode="layer"
     id="layer1"
     transform="translate(0,-280.06667)">
    <path
       inkscape:connector-curvature="0"
       style="display:inline;overflow:visible;visibility:visible;fill:#f2f2f2;fill-opacity:1;fill-rule:nonzero;stroke:none;stroke-width:0.26412681;marker:none;enable-background:new"
       id="rect1789"
       d="m 6.3287766,292.5021 c 0,0 0.049359,1.6343 -0.1968302,1.98445 -0.2461895,0.35015 -0.7360618,0.35423 -0.7360618,0.35423 -0.3143493,0.0368 -0.3169496,0.70424 0,0.70424 h 6.1415384 c 0.31695,0 0.314415,-0.66792 0,-0.70424 0,0 -0.489851,-0.004 -0.736037,-0.35423 -0.246186,-0.35015 -0.196854,-1.98445 -0.196854,-1.98445 z"
       sodipodi:nodetypes="cscsscccc" />
    <rect
       style="fill:#1a1a1a;fill-opacity:1;stroke:#000000;stroke-width:0.26464665;stroke-linecap:round;stroke-linejoin:round;stroke-miterlimit:4;stroke-dasharray:none;stroke-dashoffset:0.5;stroke-opacity:1"
       id="rect2722"
       y="282.05109"
       x="0.66148996"
       ry="0.32070765"
       rx="0.34689859"
       height="10.583275"
       width="15.610352" />
    <path
       inkscape:connector-curvature="0"
       style="display:inline;fill:#505050;fill-opacity:1;stroke:none;stroke-width:0.26458332"
       id="rect2722-0"
       d="M 1.3229166,282.7125 H 15.610416 v 9.26042 H 1.3229166 Z" />
    <path
       inkscape:connector-curvature="0"
       style="color:#000000;display:inline;overflow:visible;visibility:visible;opacity:0.15;fill:none;stroke:#000000;stroke-width:0.26412684;stroke-linecap:round;stroke-linejoin:round;stroke-miterlimit:4;stroke-dasharray:none;stroke-dashoffset:0.5;stroke-opacity:1;marker:none;enable-background:new"
       id="rect1789-9"
       d="m 6.3287766,292.23752 c 0,0 0.049359,1.89888 -0.1968302,2.24903 -0.2461895,0.35015 -0.7360618,0.35423 -0.7360618,0.35423 -0.3143493,0.0368 -0.3169496,0.70424 0,0.70424 h 6.1415384 c 0.31695,0 0.314415,-0.66792 0,-0.70424 0,0 -0.489851,-0.004 -0.736037,-0.35423 -0.246186,-0.35015 -0.196854,-2.24903 -0.196854,-2.24903 z"
       sodipodi:nodetypes="cscsscccc" />
    <g
       id="g904"
       transform="translate(0,0.79374307)">
      <rect
         y="283.24167"
         x="2.6458333"
         height="0.52916664"
         width="1.3229166"
         id="rect892"
         style="opacity:1;fill:#a8a8a8;fill-opacity:1;fill-rule:evenodd;stroke:none;stroke-width:0.52916664;stroke-linecap:square;stroke-linejoin:miter;stroke-miterlimit:4;stroke-dasharray:none;stroke-opacity:1;paint-order:fill markers stroke" />
      <rect
         style="opacity:1;fill:#a8a8a8;fill-opacity:1;fill-rule:evenodd;stroke:none;stroke-width:0.52916664;stroke-linecap:square;stroke-linejoin:miter;stroke-miterlimit:4;stroke-dasharray:none;stroke-opacity:1;paint-order:fill markers stroke"
         id="rect894"
         width="0.5291667"
         height="0.79374307"
         x="2.6458333"
         y="283.77084" />
    </g>
    <rect
       y="284.03543"
       x="5.5562501"
       height="0.52916664"
       width="2.1166668"
       id="rect896"
       style="opacity:1;fill:#a8a8a8;fill-opacity:1;fill-rule:evenodd;stroke:none;stroke-width:0.52916664;stroke-linecap:square;stroke-linejoin:miter;stroke-miterlimit:4;stroke-dasharray:none;stroke-opacity:1;paint-order:fill markers stroke" />
    <rect
       style="opacity:1;fill:#a8a8a8;fill-opacity:1;fill-rule:evenodd;stroke:none;stroke-width:0.52916664;stroke-linecap:square;stroke-linejoin:miter;stroke-miterlimit:4;stroke-dasharray:none;stroke-opacity:1;paint-order:fill markers stroke"
       id="rect898"
       width="2.116667"
       height="0.52916664"
       x="9.260416"
       y="284.03543" />
    <rect
       style="opacity:1;fill:#a8a8a8;fill-opacity:1;fill-rule:evenodd;stroke:none;stroke-width:0.52916664;stroke-linecap:square;stroke-linejoin:miter;stroke-miterlimit:4;stroke-dasharray:none;stroke-opacity:1;paint-order:fill markers stroke"
       id="rect900"
       width="1.8520967"
       height="0.52916664"
       x="286.41666"
       y="-3.175"
       transform="rotate(90)" />
    <g
       transform="matrix(-1,0,0,1,16.933333,0.79375122)"
       id="g910">
      <rect
         style="opacity:1;fill:#a8a8a8;fill-opacity:1;fill-rule:evenodd;stroke:none;stroke-width:0.52916664;stroke-linecap:square;stroke-linejoin:miter;stroke-miterlimit:4;stroke-dasharray:none;stroke-opacity:1;paint-order:fill markers stroke"
         id="rect906"
         width="1.3229166"
         height="0.52916664"
         x="2.6458333"
         y="283.24167" />
      <rect
         y="283.77084"
         x="2.6458333"
         height="0.79374307"
         width="0.5291667"
         id="rect908"
         style="opacity:1;fill:#a8a8a8;fill-opacity:1;fill-rule:evenodd;stroke:none;stroke-width:0.52916664;stroke-linecap:square;stroke-linejoin:miter;stroke-miterlimit:4;stroke-dasharray:none;stroke-opacity:1;paint-order:fill markers stroke" />
    </g>
    <rect
       transform="rotate(90)"
       y="-14.287499"
       x="286.41666"
       height="0.52916664"
       width="1.8520967"
       id="rect912"
       style="opacity:1;fill:#a8a8a8;fill-opacity:1;fill-rule:evenodd;stroke:none;stroke-width:0.52916664;stroke-linecap:square;stroke-linejoin:miter;stroke-miterlimit:4;stroke-dasharray:none;stroke-opacity:1;paint-order:fill markers stroke" />
    <g
       transform="matrix(1,0,0,-1,0,573.89167)"
       id="g918">
      <rect
         style="opacity:1;fill:#a8a8a8;fill-opacity:1;fill-rule:evenodd;stroke:none;stroke-width:0.52916664;stroke-linecap:square;stroke-linejoin:miter;stroke-miterlimit:4;stroke-dasharray:none;stroke-opacity:1;paint-order:fill markers stroke"
         id="rect914"
         width="1.3229166"
         height="0.52916664"
         x="2.6458333"
         y="283.24167" />
      <rect
         y="283.77084"
         x="2.6458333"
         height="0.79374307"
         width="0.5291667"
         id="rect916"
         style="opacity:1;fill:#a8a8a8;fill-opacity:1;fill-rule:evenodd;stroke:none;stroke-width:0.52916664;stroke-linecap:square;stroke-linejoin:miter;stroke-miterlimit:4;stroke-dasharray:none;stroke-opacity:1;paint-order:fill markers stroke" />
    </g>
    <rect
       style="opacity:1;fill:#a8a8a8;fill-opacity:1;fill-rule:evenodd;stroke:none;stroke-width:0.52916664;stroke-linecap:square;stroke-linejoin:miter;stroke-miterlimit:4;stroke-dasharray:none;stroke-opacity:1;paint-order:fill markers stroke"
       id="rect920"
       width="2.1166668"
       height="0.52916664"
       x="5.5562501"
       y="-290.64996"
       transform="scale(1,-1)" />
    <rect
       y="-290.64996"
       x="9.260416"
       height="0.52916664"
       width="2.116667"
       id="rect922"
       style="opacity:1;fill:#a8a8a8;fill-opacity:1;fill-rule:evenodd;stroke:none;stroke-width:0.52916664;stroke-linecap:square;stroke-linejoin:miter;stroke-miterlimit:4;stroke-dasharray:none;stroke-opacity:1;paint-order:fill markers stroke"
       transform="scale(1,-1)" />
    <g
       id="g928"
       transform="rotate(-180,8.4666665,286.94583)">
      <rect
         y="283.24167"
         x="2.6458333"
         height="0.52916664"
         width="1.3229166"
         id="rect924"
         style="opacity:1;fill:#a8a8a8;fill-opacity:1;fill-rule:evenodd;stroke:none;stroke-width:0.52916664;stroke-linecap:square;stroke-linejoin:miter;stroke-miterlimit:4;stroke-dasharray:none;stroke-opacity:1;paint-order:fill markers stroke" />
      <rect
         style="opacity:1;fill:#a8a8a8;fill-opacity:1;fill-rule:evenodd;stroke:none;stroke-width:0.52916664;stroke-linecap:square;stroke-linejoin:miter;stroke-miterlimit:4;stroke-dasharray:none;stroke-opacity:1;paint-order:fill markers stroke"
         id="rect926"
         width="0.5291667"
         height="0.79374307"
         x="2.6458333"
         y="283.77084" />
    </g>
    <g
       transform="matrix(0.26458333,0,0,0.26458333,0.02505127,279.80235)"
       id="g3106">
      <path
         inkscape:connector-curvature="0"
         d="M 50.034046,46.62477 42.948929,33.519299 c 0,0 -4.946212,10.430886 7.085117,17.11735 z"
         id="path3782"
         style="fill:#e6e6e6;fill-opacity:1;stroke:none" />
      <path
         inkscape:connector-curvature="0"
         d="M 50.034047,46.62477 42.94893,33.519299 c 0,0 -4.946213,10.430885 7.085117,17.11735 z"
         id="path3782-0"
         style="opacity:0.5;fill:none;stroke:#000000;stroke-width:0.99999994px;stroke-linecap:butt;stroke-linejoin:miter;stroke-opacity:1" />
    </g>
    <g
       id="g3101"
       transform="matrix(0.26458333,0,0,0.26458333,-0.0471797,279.80235)">
      <path
         inkscape:connector-curvature="0"
         d="m 51.299587,46.62477 7.085118,-13.105471 c 0,0 4.946213,10.430886 -7.085118,17.11735 z"
         id="path2990"
         style="fill:#e6e6e6;fill-opacity:1;stroke:none" />
      <path
         inkscape:connector-curvature="0"
         d="m 51.299588,46.62477 7.085117,-13.105471 c 0,0 4.946213,10.430885 -7.085117,17.11735 z"
         id="path2990-3"
         style="opacity:0.5;fill:none;stroke:#000000;stroke-width:0.99999994px;stroke-linecap:butt;stroke-linejoin:miter;stroke-opacity:1" />
    </g>
    <g
       transform="matrix(0.2641715,0,0,0.2631204,-0.01654814,279.84974)"
       id="g3133">
      <path
         inkscape:connector-curvature="0"
         style="color:#000000;display:inline;overflow:visible;visibility:visible;fill:#e1594d;fill-opacity:1;fill-rule:nonzero;stroke:none;stroke-width:0.99999994;marker:none;enable-background:accumulate"
         d="m 47.375,50.625 c -1.845322,0.09848 -6.78125,1.225549 -6.78125,4.6875 0,3.956381 2.932889,5.34375 4.6875,5.34375 1.754612,0 4.61943,-1.332405 4.6875,-5.34375 0.05426,-3.197735 -1.084645,-4.490651 -2,-4.6875 -0.114419,-0.02461 -0.330133,-0.01407 -0.59375,0 z m 5.9375,0 c -0.915354,0.196849 -2.054262,1.489765 -2,4.6875 0.06807,4.011345 2.901639,5.34375 4.65625,5.34375 1.754612,0 4.6875,-1.387369 4.6875,-5.34375 0,-3.956515 -6.428395,-4.88435 -7.34375,-4.6875 z m -5.9375,2.53125 c 0,0 0.593739,6.842471 -3,4.15625 -3.99622,-2.986978 3,-4.15625 3,-4.15625 z m 6.5,0 c 0,0 7.02747,1.169272 3.03125,4.15625 C 53.312511,59.998721 53.875,53.15625 53.875,53.15625 Z"
         id="path3788" />
      <path
         inkscape:connector-curvature="0"
         style="color:#000000;display:inline;overflow:visible;visibility:visible;opacity:0.6;fill:none;stroke:#640000;stroke-width:1.00355744;stroke-linecap:round;stroke-linejoin:round;stroke-miterlimit:4;stroke-dasharray:none;stroke-dashoffset:0;stroke-opacity:1;marker:none;enable-background:accumulate"
         d="m 47.40625,50.625 c -1.845322,0.09848 -6.78125,1.225549 -6.78125,4.6875 0,3.956381 2.932889,5.34375 4.6875,5.34375 1.754612,0 4.61943,-1.332405 4.6875,-5.34375 0.05426,-3.197735 -1.084645,-4.490651 -2,-4.6875 -0.114419,-0.02461 -0.330133,-0.01407 -0.59375,0 z m 5.90625,0 c -0.915354,0.196849 -2.054262,1.489765 -2,4.6875 0.06807,4.011345 2.901639,5.34375 4.65625,5.34375 1.754612,0 4.6875,-1.387369 4.6875,-5.34375 0,-3.956515 -6.428395,-4.88435 -7.34375,-4.6875 z m -5.90625,2.53125 c 0,0 0.593739,6.842471 -3,4.15625 -3.99622,-2.986978 3,-4.15625 3,-4.15625 z m 6.46875,0 c 0,0 7.02747,1.169272 3.03125,4.15625 C 53.312511,59.998721 53.875,53.15625 53.875,53.15625 Z"
         id="path3788-4" />
    </g>
  </g>
</svg>
