<?xml version="1.0" encoding="UTF-8" standalone="no"?>
<!-- Created with Inkscape (http://www.inkscape.org/) -->

<svg
   xmlns:dc="http://purl.org/dc/elements/1.1/"
   xmlns:cc="http://creativecommons.org/ns#"
   xmlns:rdf="http://www.w3.org/1999/02/22-rdf-syntax-ns#"
   xmlns:svg="http://www.w3.org/2000/svg"
   xmlns="http://www.w3.org/2000/svg"
   xmlns:sodipodi="http://sodipodi.sourceforge.net/DTD/sodipodi-0.dtd"
   xmlns:inkscape="http://www.inkscape.org/namespaces/inkscape"
   width="64"
   height="64"
   viewBox="0 0 16.933333 16.933333"
   version="1.1"
   id="svg4572"
   inkscape:version="0.92.4 (5da689c313, 2019-01-14)"
   sodipodi:docname="accessories-system-cleaner.svg">
  <title
     id="title4611">Canvas icon theme</title>
  <defs
     id="defs4566" />
  <sodipodi:namedview
     id="base"
     pagecolor="#ffffff"
     bordercolor="#666666"
     borderopacity="1.0"
     inkscape:pageopacity="0.0"
     inkscape:pageshadow="2"
     inkscape:zoom="5.6"
     inkscape:cx="47.042775"
     inkscape:cy="46.517126"
     inkscape:document-units="px"
     inkscape:current-layer="layer1"
     showgrid="true"
     units="px"
     width="64px"
     showguides="true"
     inkscape:guide-bbox="true"
     inkscape:window-width="1366"
     inkscape:window-height="706"
     inkscape:window-x="0"
     inkscape:window-y="32"
     inkscape:window-maximized="1"
     inkscape:snap-bbox="true"
     inkscape:bbox-nodes="true"
     inkscape:snap-bbox-edge-midpoints="true">
    <inkscape:grid
       type="xygrid"
       id="grid4582" />
    <sodipodi:guide
       position="1.0583333,15.875"
       orientation="0,1"
       id="guide4584"
       inkscape:locked="false" />
    <sodipodi:guide
       position="1.0583333,1.0583333"
       orientation="1,0"
       id="guide4586"
       inkscape:locked="false" />
    <sodipodi:guide
       position="15.875,15.875"
       orientation="1,0"
       id="guide4588"
       inkscape:locked="false" />
    <sodipodi:guide
       position="1.0583333,1.0583333"
       orientation="0,1"
       id="guide4590"
       inkscape:locked="false" />
    <sodipodi:guide
       position="8.4666665,8.4666665"
       orientation="0,1"
       id="guide822"
       inkscape:locked="false" />
    <sodipodi:guide
       position="8.4666665,8.4666665"
       orientation="1,0"
       id="guide824"
       inkscape:locked="false" />
  </sodipodi:namedview>
  <metadata
     id="metadata4569">
    <rdf:RDF>
      <cc:Work
         rdf:about="">
        <dc:format>image/svg+xml</dc:format>
        <dc:type
           rdf:resource="http://purl.org/dc/dcmitype/StillImage" />
        <dc:title>Canvas icon theme</dc:title>
        <cc:license
           rdf:resource="http://creativecommons.org/licenses/by-nc-sa/4.0/" />
        <dc:creator>
          <cc:Agent>
            <dc:title>Vince Liuice</dc:title>
          </cc:Agent>
        </dc:creator>
      </cc:Work>
      <cc:License
         rdf:about="http://creativecommons.org/licenses/by-nc-sa/4.0/">
        <cc:permits
           rdf:resource="http://creativecommons.org/ns#Reproduction" />
        <cc:permits
           rdf:resource="http://creativecommons.org/ns#Distribution" />
        <cc:requires
           rdf:resource="http://creativecommons.org/ns#Notice" />
        <cc:requires
           rdf:resource="http://creativecommons.org/ns#Attribution" />
        <cc:prohibits
           rdf:resource="http://creativecommons.org/ns#CommercialUse" />
        <cc:permits
           rdf:resource="http://creativecommons.org/ns#DerivativeWorks" />
        <cc:requires
           rdf:resource="http://creativecommons.org/ns#ShareAlike" />
      </cc:License>
    </rdf:RDF>
  </metadata>
  <g
     inkscape:label="Layer 1"
     inkscape:groupmode="layer"
     id="layer1"
     transform="translate(0,-280.06667)">
    <g
       id="g854">
      <circle
         r="7.1437497"
         cy="288.53333"
         cx="8.4666662"
         id="path852"
         style="opacity:0.75;fill:#4e99f3;fill-opacity:1;stroke:#0965cb;stroke-width:0.52916658;stroke-linecap:round;stroke-linejoin:miter;stroke-miterlimit:4;stroke-dasharray:none;stroke-opacity:1;paint-order:fill markers stroke" />
      <circle
         style="opacity:1;fill:#4e99f3;fill-opacity:1;stroke:none;stroke-width:0.52916658;stroke-linecap:round;stroke-linejoin:miter;stroke-miterlimit:4;stroke-dasharray:none;stroke-opacity:0.7254902;paint-order:fill markers stroke"
         id="circle850"
         cx="8.4666662"
         cy="288.53333"
         r="7.1437497" />
    </g>
    <path
       id="path842"
       d="m 10.640708,284.54211 c -0.404481,-0.007 -0.8266213,0.0763 -1.2228223,0.25128 -0.7332164,0.32402 -1.2618388,1.03773 -1.5742565,1.57426 -0.1406265,-0.0342 -0.2909379,0.0331 -0.3562316,0.16912 -0.062477,0.13013 -0.026014,0.28102 0.077963,0.37123 -0.028495,0.0635 -0.045608,0.1058 -0.052175,0.12234 l -1.5178827,3.33322 c -0.1530074,-0.0704 -0.3353258,-0.008 -0.4108061,0.14453 -0.076888,0.15489 -0.013341,0.34277 0.1415333,0.41981 l 0.010194,0.004 -0.3412387,0.75085 H 4.5463862 c -0.1728885,0 -0.313052,0.14017 -0.313052,0.31305 0,0.1729 0.1401635,0.31305 0.313052,0.31305 h 1.5658601 c 0.1728885,0 0.313652,-0.14015 0.313652,-0.31305 0,-0.17288 -0.1407635,-0.31305 -0.313652,-0.31305 h -0.029385 l 0.217697,-0.47738 c 0.028661,0.008 0.057389,0.0138 0.086359,0.0138 0.115095,0 0.2258549,-0.0638 0.2806676,-0.17392 0.07173,-0.14438 0.020941,-0.31602 -0.1115472,-0.40121 l 1.5724571,-3.45377 c 0.042432,0.0196 0.086733,0.0294 0.1307382,0.0294 0.1166674,0 0.2285873,-0.0658 0.2824666,-0.17812 0.071713,-0.14924 0.013547,-0.32613 -0.1283395,-0.40661 0.2679386,-0.45149 0.696797,-1.02094 1.2582056,-1.269 0.6035453,-0.26669 1.2993623,-0.26286 1.7727633,0.0102 0.348134,0.20093 0.548261,0.52084 0.594918,0.95055 0.08739,0.80478 0.01335,1.34444 -0.219496,1.60424 -0.02147,0.0239 -0.04544,0.0442 -0.06957,0.0636 v 0.70107 c 0.192933,-0.0651 0.378314,-0.17141 0.535547,-0.34664 0.362055,-0.40326 0.484845,-1.08697 0.376022,-2.09001 -0.06732,-0.62154 -0.388525,-1.12798 -0.904372,-1.42553 v 0.001 c -0.325184,-0.18769 -0.712192,-0.28553 -1.116673,-0.29266 z m 0.02639,3.06935 c -0.173035,0 -1.9186398,0.14385 -2.3796757,2.42286 l -0.2956604,1.88371 c 0,0.17303 0.1400164,0.39161 0.313052,0.39161 h 1.4866978 c -0.17885,-0.23035 -0.286665,-0.51844 -0.286665,-0.8318 0,-0.75029 0.6106403,-1.36076 1.3607573,-1.36076 0.204365,0 0.397545,0.0466 0.57153,0.12774 v -1.4753 -0.6357 -0.36583 c 0,-0.17303 0.01651,-0.15653 -0.156526,-0.15653 z m 0.198506,2.81867 c -0.577556,0 -1.0477043,0.47016 -1.0477043,1.04771 0,0.33919 0.162913,0.64042 0.4138043,0.8318 0.08738,0.0667 0.18515,0.11973 0.290862,0.15653 0.10758,0.0374 0.222931,0.0588 0.343038,0.0588 0.120122,0 0.23486,-0.0214 0.342438,-0.0588 0.110888,-0.0385 0.213542,-0.0949 0.304056,-0.16612 0.08519,-0.0671 0.160374,-0.1464 0.221296,-0.23629 0.113371,-0.16742 0.179315,-0.36903 0.179315,-0.58592 0,-0.20514 -0.05967,-0.39613 -0.161924,-0.55774 -0.04502,-0.0704 -0.09746,-0.1359 -0.157125,-0.19371 -0.04808,-0.0465 -0.100317,-0.0879 -0.156526,-0.12474 -0.164585,-0.1077 -0.360747,-0.17152 -0.57153,-0.17152 z"
       style="fill:#ffffff;fill-opacity:0.99328859;stroke:none;stroke-width:0.26458335;stroke-miterlimit:4;stroke-dasharray:none;stroke-opacity:0.25490196"
       inkscape:connector-curvature="0" />
  </g>
</svg>
