<svg xmlns="http://www.w3.org/2000/svg" width="64" height="64" viewBox="0 0 16.933 16.933"><g transform="translate(0 -280.067)"><rect width="4.233" height="4.498" x="10.848" y="282.713" fill="#5ad85d" stroke="#000" stroke-linecap="round" stroke-opacity=".255" stroke-width=".265" ry=".312"/><rect width="4.233" height="4.498" x="10.848" y="282.713" fill="#5ad85d" ry=".312"/><rect width="4.233" height="4.498" x="10.848" y="286.218" fill="#ff584c" stroke="#000" stroke-linecap="round" stroke-opacity=".255" stroke-width=".265" ry=".351"/><rect width="4.233" height="4.498" x="10.848" y="286.218" fill="#ff584c" ry=".351"/><rect width="4.233" height="4.233" x="10.848" y="289.856" fill="#ffce3d" stroke="#000" stroke-linecap="round" stroke-opacity=".255" stroke-width=".265" ry=".331"/><rect width="4.233" height="4.233" x="10.848" y="289.856" fill="#ffce3d" ry=".331"/><rect width="12.171" height="13.758" x="2.117" y="-295.413" fill="#387fe7" stroke="#184b98" stroke-width=".529" opacity=".75" ry=".529" transform="scale(1 -1)"/><rect width="12.171" height="13.758" x="2.117" y="-295.413" fill="#387fe7" ry=".529" transform="scale(1 -1)"/><path fill="#fff" d="M8.202 284.83a1.587 1.587 0 0 0-1.587 1.587 1.588 2.646 0 0 0 1.587 2.646 1.588 2.646 0 0 0 1.588-2.646 1.587 1.587 0 0 0-1.588-1.588zm1.276 4.91a1.59 1.59 0 0 1-1.276.645 1.59 1.59 0 0 1-1.275-.645 3.704 2.381 0 0 0-2.43 2.233h7.41a3.704 2.381 0 0 0-2.429-2.234z" paint-order="stroke markers fill"/></g></svg>