<svg xmlns="http://www.w3.org/2000/svg" width="64" height="64" viewBox="0 0 16.933 16.933"><g transform="translate(0 -280.067)"><path fill="#5771bf" stroke="#21428b" stroke-width=".529" d="M8.467 281.39a7.13 7.13 0 0 0-7.144 7.143 7.13 7.13 0 0 0 7.144 7.144 7.13 7.13 0 0 0 7.143-7.144 7.13 7.13 0 0 0-7.143-7.143zm0 1.099a6.03 6.03 0 0 1 6.044 6.044 6.03 6.03 0 0 1-4.647 5.882c.015-.247.025-.569.055-.846.032-.28.145-2.619.548-3.238.403-.62 1.55-1.363 1.953-1.44s.335-.238.335-.38c0-.14-.071-.445-.179-.49-.11-.047-.53.225-.67.255-.14.032-.809.088-.904-.067-.092-.155.75-1.735.861-1.92a.59.59 0 0 0-.046-.703c-.2-.262-.336-.524-.412-.524-.255 0-.753.587-.938.68-.186.094-1.657 1.143-1.797 1.327a.57.57 0 0 1-.524.246c-.202-.015-.846-.022-1.06.1-.218.124-1.215 1.137-1.464 1.262a2.5 2.5 0 0 1-.728.214c-.156.014-.664.582-.803.691-.137.11-1.238.588-1.393.683-.156.092 1.132 1.397 1.315 1.428.143.023-.015.442-.258.634a6.03 6.03 0 0 1-1.333-3.794 6.03 6.03 0 0 1 6.045-6.044zm-.256 5.484c.064.005.104.012.104.012.07.165-.262.677-.569.748s-1.014 1.118-1.037.882c-.024-.237.281-1.02.636-1.373a1 1 0 0 1 .614-.266l-.002-.001a1.4 1.4 0 0 1 .254-.002zm-4.454 4.356zm.963.953zm.274.203zm.266.176zm.276.164zm.276.144zm.672.277zm.344.107zm.32.08zm2.367.053zm-2.051.01zm1.694.042zm-1.356.003zm1.005.027z" opacity=".9"/><rect width="12.171" height="12.171" x="-294.619" y="-14.552" fill="#fff" rx="6.085" ry="6.085" transform="scale(1 -1)rotate(90)"/><path fill="#5771bf" d="M8.467 281.39a7.13 7.13 0 0 0-7.144 7.143 7.13 7.13 0 0 0 7.144 7.144 7.13 7.13 0 0 0 7.143-7.144 7.13 7.13 0 0 0-7.143-7.143m0 1.099a6.03 6.03 0 0 1 6.044 6.044 6.03 6.03 0 0 1-4.647 5.882c.015-.247.025-.569.055-.846.032-.28.145-2.619.548-3.238.403-.62 1.55-1.363 1.953-1.44s.335-.238.335-.38c0-.14-.071-.445-.179-.49-.11-.047-.53.225-.67.255-.14.032-.809.088-.904-.067-.092-.155.75-1.735.861-1.92a.59.59 0 0 0-.046-.703c-.2-.262-.336-.524-.412-.524-.255 0-.753.587-.938.68-.186.094-1.657 1.143-1.797 1.327a.57.57 0 0 1-.524.246c-.202-.015-.846-.022-1.06.1-.218.124-1.215 1.137-1.464 1.262a2.5 2.5 0 0 1-.728.214c-.156.014-.664.582-.803.691-.137.11-1.238.588-1.393.683-.156.092 1.132 1.397 1.315 1.428.143.023-.015.442-.258.634a6.03 6.03 0 0 1-1.333-3.794 6.03 6.03 0 0 1 6.045-6.044m-.256 5.484c.064.005.104.012.104.012.07.165-.262.677-.569.748s-1.014 1.118-1.037.882c-.024-.237.281-1.02.636-1.373a1 1 0 0 1 .614-.266l-.002-.001a1.4 1.4 0 0 1 .254-.002m.596 6.595"/></g></svg>