<?xml version="1.0" encoding="UTF-8" standalone="no"?>
<!-- Created with Inkscape (http://www.inkscape.org/) -->

<svg
   xmlns:dc="http://purl.org/dc/elements/1.1/"
   xmlns:cc="http://creativecommons.org/ns#"
   xmlns:rdf="http://www.w3.org/1999/02/22-rdf-syntax-ns#"
   xmlns:svg="http://www.w3.org/2000/svg"
   xmlns="http://www.w3.org/2000/svg"
   xmlns:sodipodi="http://sodipodi.sourceforge.net/DTD/sodipodi-0.dtd"
   xmlns:inkscape="http://www.inkscape.org/namespaces/inkscape"
   width="64"
   height="64"
   viewBox="0 0 16.933333 16.933333"
   version="1.1"
   id="svg4572"
   inkscape:version="0.92.4 (5da689c313, 2019-01-14)"
   sodipodi:docname="amarok.svg">
  <title
     id="title4611">Canvas icon theme</title>
  <defs
     id="defs4566" />
  <sodipodi:namedview
     id="base"
     pagecolor="#ffffff"
     bordercolor="#666666"
     borderopacity="1.0"
     inkscape:pageopacity="0.0"
     inkscape:pageshadow="2"
     inkscape:zoom="11.313709"
     inkscape:cx="46.801324"
     inkscape:cy="35.912064"
     inkscape:document-units="px"
     inkscape:current-layer="layer1"
     showgrid="true"
     units="px"
     width="64px"
     showguides="true"
     inkscape:guide-bbox="true"
     inkscape:window-width="1366"
     inkscape:window-height="706"
     inkscape:window-x="0"
     inkscape:window-y="32"
     inkscape:window-maximized="1"
     inkscape:snap-bbox="true"
     inkscape:bbox-nodes="true"
     inkscape:snap-bbox-edge-midpoints="true"
     inkscape:snap-nodes="true">
    <inkscape:grid
       type="xygrid"
       id="grid4582" />
    <sodipodi:guide
       position="1.0583333,15.875"
       orientation="0,1"
       id="guide4584"
       inkscape:locked="false" />
    <sodipodi:guide
       position="1.0583333,1.0583333"
       orientation="1,0"
       id="guide4586"
       inkscape:locked="false" />
    <sodipodi:guide
       position="15.875,15.875"
       orientation="1,0"
       id="guide4588"
       inkscape:locked="false" />
    <sodipodi:guide
       position="1.0583333,1.0583333"
       orientation="0,1"
       id="guide4590"
       inkscape:locked="false" />
    <sodipodi:guide
       position="8.4666665,8.4666665"
       orientation="0,1"
       id="guide822"
       inkscape:locked="false" />
    <sodipodi:guide
       position="8.4666665,8.4666665"
       orientation="1,0"
       id="guide824"
       inkscape:locked="false" />
  </sodipodi:namedview>
  <metadata
     id="metadata4569">
    <rdf:RDF>
      <cc:Work
         rdf:about="">
        <dc:format>image/svg+xml</dc:format>
        <dc:type
           rdf:resource="http://purl.org/dc/dcmitype/StillImage" />
        <dc:title>Canvas icon theme</dc:title>
        <cc:license
           rdf:resource="http://creativecommons.org/licenses/by-nc-sa/4.0/" />
        <dc:creator>
          <cc:Agent>
            <dc:title>Vince Liuice</dc:title>
          </cc:Agent>
        </dc:creator>
      </cc:Work>
      <cc:License
         rdf:about="http://creativecommons.org/licenses/by-nc-sa/4.0/">
        <cc:permits
           rdf:resource="http://creativecommons.org/ns#Reproduction" />
        <cc:permits
           rdf:resource="http://creativecommons.org/ns#Distribution" />
        <cc:requires
           rdf:resource="http://creativecommons.org/ns#Notice" />
        <cc:requires
           rdf:resource="http://creativecommons.org/ns#Attribution" />
        <cc:prohibits
           rdf:resource="http://creativecommons.org/ns#CommercialUse" />
        <cc:permits
           rdf:resource="http://creativecommons.org/ns#DerivativeWorks" />
        <cc:requires
           rdf:resource="http://creativecommons.org/ns#ShareAlike" />
      </cc:License>
    </rdf:RDF>
  </metadata>
  <g
     inkscape:label="Layer 1"
     inkscape:groupmode="layer"
     id="layer1"
     transform="translate(0,-280.06667)">
    <path
       id="path827"
       d="m 8.4666663,281.38959 c -3.9576374,0 -7.1437498,3.18611 -7.1437498,7.14375 0,3.95763 3.1861124,7.14375 7.1437498,7.14375 3.9576367,0 7.1437497,-3.18612 7.1437497,-7.14375 0,-3.95764 -3.186113,-7.14375 -7.1437497,-7.14375 z m 0,1.09904 c 3.3487747,0 6.0447107,2.69593 6.0447107,6.04471 0,2.86739 -1.977309,5.25459 -4.6478375,5.88211 -0.108785,0.0256 -0.2184946,0.048 -0.3294964,0.0676 0.1108672,-0.0197 0.2208024,-0.0421 0.3294964,-0.0676 0.01582,-0.24748 0.02539,-0.56902 0.05581,-0.84682 0.03168,-0.27891 0.1445275,-2.61814 0.5473725,-3.23809 0.402846,-0.61995 1.550524,-1.36285 1.953369,-1.43926 0.402845,-0.0776 0.334863,-0.23872 0.334863,-0.37941 0,-0.14071 -0.07092,-0.44559 -0.178701,-0.49156 -0.109327,-0.046 -0.530099,0.22585 -0.6708,0.25598 -0.139458,0.0317 -0.808037,0.0882 -0.903702,-0.0671 -0.09225,-0.1553 0.749803,-1.73508 0.861308,-1.91956 0.109327,-0.18574 0.156363,-0.44015 -0.04615,-0.70354 -0.200335,-0.26214 -0.335731,-0.5243 -0.412139,-0.5243 -0.25469,0 -0.752308,0.58729 -0.938046,0.68046 -0.185736,0.0935 -1.6572122,1.14292 -1.7966703,1.32711 -0.1394591,0.18697 -0.323961,0.26232 -0.5242971,0.24525 -0.2012672,-0.0145 -0.8457774,-0.022 -1.0604003,0.10035 -0.2171079,0.12361 -1.2146285,1.137 -1.463417,1.26218 -0.2500323,0.12362 -0.5729202,0.19774 -0.7282201,0.21358 -0.1552977,0.0145 -0.6633551,0.5824 -0.8028132,0.69173 -0.1369732,0.1093 -1.2378174,0.58765 -1.3931173,0.68207 -0.1552977,0.0923 1.1323619,1.39756 1.3153045,1.428 0.1432506,0.0238 -0.014719,0.44293 -0.258124,0.6343 -0.8339677,-1.03594 -1.3330133,-2.35405 -1.3330133,-3.7935 0,-3.34878 2.6959364,-6.04471 6.0447114,-6.04471 z m -0.2559773,5.48392 c 0.064721,0.005 0.104645,0.0123 0.104645,0.0123 0.070501,0.16494 -0.2619677,0.67718 -0.5688384,0.74861 -0.3068716,0.0705 -1.0143394,1.11783 -1.0373247,0.88117 -0.024228,-0.23669 0.2809909,-1.01904 0.6353816,-1.37219 0.1770419,-0.17705 0.4166007,-0.24746 0.6144526,-0.26671 l -0.00162,-10e-4 c 0.098926,-0.01 0.1885733,-0.007 0.253294,-0.002 z m -4.4535741,4.35644 c 0.2069058,0.25675 0.4342636,0.49636 0.6799226,0.71588 0.077219,0.069 0.1564668,0.1357 0.237195,0.2007 -0.080821,-0.065 -0.1598928,-0.13165 -0.237195,-0.2007 -0.2457307,-0.2195 -0.4730031,-0.45911 -0.6799226,-0.71588 z m 0.9627318,0.95254 c 0.066708,0.0527 0.1344322,0.10415 0.2033867,0.15401 -0.068992,-0.0498 -0.1366434,-0.10135 -0.2033867,-0.15401 z m 0.2736864,0.20338 c 0.062592,0.0439 0.1261908,0.0867 0.1905071,0.12826 -0.064343,-0.0416 -0.1278899,-0.0844 -0.1905071,-0.12826 z m 0.2661734,0.17656 c 0.067425,0.0422 0.1358068,0.0828 0.2049965,0.12235 -0.06926,-0.0396 -0.137504,-0.0802 -0.2049965,-0.12235 z m 0.2763694,0.16367 c 0.085958,0.0476 0.1733973,0.0929 0.2618803,0.13631 -0.088476,-0.0434 -0.1759283,-0.0888 -0.2618803,-0.13631 z m 0.2758331,0.14382 c 0.1958382,0.0955 0.3976508,0.18062 0.6047929,0.25491 -0.2071822,-0.0742 -0.4089085,-0.15946 -0.6047929,-0.25491 z m 0.671873,0.27745 c 0.075754,0.0262 0.1520393,0.0508 0.2291454,0.074 -0.077085,-0.0232 -0.1534101,-0.0479 -0.2291454,-0.074 z m 0.3439861,0.10679 c 0.065952,0.0184 0.1322366,0.0364 0.1990936,0.0526 -0.06687,-0.0162 -0.1331279,-0.0342 -0.1990936,-0.0526 z m 0.3203741,0.08 c 0.068299,0.0151 0.1369075,0.0291 0.2060697,0.0418 -0.069172,-0.0128 -0.1377592,-0.0268 -0.2060697,-0.0418 z m 2.3665818,0.0531 c -0.1002472,0.0174 -0.2012931,0.0327 -0.3032014,0.0451 0.1019059,-0.0126 0.2029468,-0.0275 0.3032014,-0.0451 z m -2.0510377,0.009 c 0.071364,0.0118 0.1435257,0.0218 0.2157295,0.0311 -0.072273,-0.009 -0.1442953,-0.0193 -0.2157295,-0.0311 z m 1.6947088,0.0429 c -0.090021,0.0102 -0.1808767,0.018 -0.2720763,0.0242 0.09119,-0.006 0.1820727,-0.0138 0.2720763,-0.0242 z m -1.3566256,0.003 c 0.069138,0.008 0.1389179,0.0131 0.208753,0.0183 -0.069812,-0.005 -0.1396353,-0.0108 -0.208753,-0.0183 z m 1.0051264,0.0268 c -0.1127096,0.006 -0.2259172,0.0102 -0.3402296,0.0102 -0.1112166,0 -0.2214051,-0.004 -0.3311067,-0.01 0.1097016,0.006 0.219884,0.01 0.3311067,0.01 0.1141954,0 0.2276716,-0.004 0.3402296,-0.0102 z"
       style="opacity:0.9;fill:#5771bf;fill-opacity:1;stroke:#21428b;stroke-width:0.52916664;stroke-miterlimit:4;stroke-dasharray:none;stroke-opacity:1"
       inkscape:connector-curvature="0" />
    <rect
       id="rect832"
       transform="matrix(0,-1,-1,0,0,0)"
       ry="6.0854168"
       rx="6.0854168"
       y="-14.552083"
       x="-294.61874"
       height="12.170834"
       width="12.170834"
       style="fill:#ffffff;fill-opacity:1;stroke-width:0.2173363" />
    <path
       style="fill:#5771bf;fill-opacity:1;stroke-width:0.24568452"
       d="m 8.4666663,281.38959 c -3.9576374,0 -7.1437498,3.18611 -7.1437498,7.14375 0,3.95763 3.1861124,7.14375 7.1437498,7.14375 3.9576367,0 7.1437497,-3.18612 7.1437497,-7.14375 0,-3.95764 -3.186113,-7.14375 -7.1437497,-7.14375 z m 0,1.09904 c 3.3487747,0 6.0447107,2.69593 6.0447107,6.04471 0,2.86739 -1.977309,5.25459 -4.6478375,5.88211 -0.108785,0.0256 -0.2184946,0.048 -0.3294964,0.0676 0.1108672,-0.0197 0.2208024,-0.0421 0.3294964,-0.0676 0.01582,-0.24748 0.02539,-0.56902 0.05581,-0.84682 0.03168,-0.27891 0.1445275,-2.61814 0.5473725,-3.23809 0.402846,-0.61995 1.550524,-1.36285 1.953369,-1.43926 0.402845,-0.0776 0.334863,-0.23872 0.334863,-0.37941 0,-0.14071 -0.07092,-0.44559 -0.178701,-0.49156 -0.109327,-0.046 -0.530099,0.22585 -0.6708,0.25598 -0.139458,0.0317 -0.808037,0.0882 -0.903702,-0.0671 -0.09225,-0.1553 0.749803,-1.73508 0.861308,-1.91956 0.109327,-0.18574 0.156363,-0.44015 -0.04615,-0.70354 -0.200335,-0.26214 -0.335731,-0.5243 -0.412139,-0.5243 -0.25469,0 -0.752308,0.58729 -0.938046,0.68046 -0.185736,0.0935 -1.6572122,1.14292 -1.7966703,1.32711 -0.1394591,0.18697 -0.323961,0.26232 -0.5242971,0.24525 -0.2012672,-0.0145 -0.8457774,-0.022 -1.0604003,0.10035 -0.2171079,0.12361 -1.2146285,1.137 -1.463417,1.26218 -0.2500323,0.12362 -0.5729202,0.19774 -0.7282201,0.21358 -0.1552977,0.0145 -0.6633551,0.5824 -0.8028132,0.69173 -0.1369732,0.1093 -1.2378174,0.58765 -1.3931173,0.68207 -0.1552977,0.0923 1.1323619,1.39756 1.3153045,1.428 0.1432506,0.0238 -0.014719,0.44293 -0.258124,0.6343 -0.8339677,-1.03594 -1.3330133,-2.35405 -1.3330133,-3.7935 0,-3.34878 2.6959364,-6.04471 6.0447114,-6.04471 z m -0.2559773,5.48392 c 0.064721,0.005 0.104645,0.0123 0.104645,0.0123 0.070501,0.16494 -0.2619677,0.67718 -0.5688384,0.74861 -0.3068716,0.0705 -1.0143394,1.11783 -1.0373247,0.88117 -0.024228,-0.23669 0.2809909,-1.01904 0.6353816,-1.37219 0.1770419,-0.17705 0.4166007,-0.24746 0.6144526,-0.26671 l -0.00162,-10e-4 c 0.098926,-0.01 0.1885733,-0.007 0.253294,-0.002 z m -4.4535741,4.35644 c 0.2069058,0.25675 0.4342636,0.49636 0.6799226,0.71588 0.077219,0.069 0.1564668,0.1357 0.237195,0.2007 -0.080821,-0.065 -0.1598928,-0.13165 -0.237195,-0.2007 -0.2457307,-0.2195 -0.4730031,-0.45911 -0.6799226,-0.71588 z m 0.9627318,0.95254 c 0.066708,0.0527 0.1344322,0.10415 0.2033867,0.15401 -0.068992,-0.0498 -0.1366434,-0.10135 -0.2033867,-0.15401 z m 0.2736864,0.20338 c 0.062592,0.0439 0.1261908,0.0867 0.1905071,0.12826 -0.064343,-0.0416 -0.1278899,-0.0844 -0.1905071,-0.12826 z m 0.2661734,0.17656 c 0.067425,0.0422 0.1358068,0.0828 0.2049965,0.12235 -0.06926,-0.0396 -0.137504,-0.0802 -0.2049965,-0.12235 z m 0.2763694,0.16367 c 0.085958,0.0476 0.1733973,0.0929 0.2618803,0.13631 -0.088476,-0.0434 -0.1759283,-0.0888 -0.2618803,-0.13631 z m 0.2758331,0.14382 c 0.1958382,0.0955 0.3976508,0.18062 0.6047929,0.25491 -0.2071822,-0.0742 -0.4089085,-0.15946 -0.6047929,-0.25491 z m 0.671873,0.27745 c 0.075754,0.0262 0.1520393,0.0508 0.2291454,0.074 -0.077085,-0.0232 -0.1534101,-0.0479 -0.2291454,-0.074 z m 0.3439861,0.10679 c 0.065952,0.0184 0.1322366,0.0364 0.1990936,0.0526 -0.06687,-0.0162 -0.1331279,-0.0342 -0.1990936,-0.0526 z m 0.3203741,0.08 c 0.068299,0.0151 0.1369075,0.0291 0.2060697,0.0418 -0.069172,-0.0128 -0.1377592,-0.0268 -0.2060697,-0.0418 z m 2.3665818,0.0531 c -0.1002472,0.0174 -0.2012931,0.0327 -0.3032014,0.0451 0.1019059,-0.0126 0.2029468,-0.0275 0.3032014,-0.0451 z m -2.0510377,0.009 c 0.071364,0.0118 0.1435257,0.0218 0.2157295,0.0311 -0.072273,-0.009 -0.1442953,-0.0193 -0.2157295,-0.0311 z m 1.6947088,0.0429 c -0.090021,0.0102 -0.1808767,0.018 -0.2720763,0.0242 0.09119,-0.006 0.1820727,-0.0138 0.2720763,-0.0242 z m -1.3566256,0.003 c 0.069138,0.008 0.1389179,0.0131 0.208753,0.0183 -0.069812,-0.005 -0.1396353,-0.0108 -0.208753,-0.0183 z m 1.0051264,0.0268 c -0.1127096,0.006 -0.2259172,0.0102 -0.3402296,0.0102 -0.1112166,0 -0.2214051,-0.004 -0.3311067,-0.01 0.1097016,0.006 0.219884,0.01 0.3311067,0.01 0.1141954,0 0.2276716,-0.004 0.3402296,-0.0102 z"
       id="rect2"
       inkscape:connector-curvature="0" />
  </g>
</svg>
