<svg xmlns="http://www.w3.org/2000/svg" width="64" height="64"><g transform="translate(0 -1058.52)"><rect width="54" height="54" x="5" y="1063.52" fill="#009688" rx="3" ry="3"/><rect width="52" height="52" x="6" y="1064.52" fill="#4db6ac" rx="2" ry="2"/><path fill="#b2dfdb" d="M25.996 1073.52a.996.996 0 0 0-.695 1.709l1.77 1.77a9 9 0 0 0-3.837 5.52h17.53a9 9 0 0 0-4.461-5.896l1.396-1.394a.996.996 0 0 0-.695-1.71 1 1 0 0 0-.713.301l-1.998 1.998a8.96 8.96 0 0 0-5.348.238l-2.236-2.236a1 1 0 0 0-.713-.3m3.004 5a1 1 0 0 1 1 1 1 1 0 0 1-1 1 1 1 0 0 1-1-1 1 1 0 0 1 1-1m6 0a1 1 0 0 1 1 1 1 1 0 0 1-1 1 1 1 0 0 1-1-1 1 1 0 0 1 1-1m-16 6c-1.108 0-2 .892-2 2v7c0 1.108.892 2 2 2s2-.892 2-2v-7c0-1.108-.892-2-2-2m4 0v14c0 1.662 1.338 3 3 3h1v4c0 1.108.892 2 2 2s2-.892 2-2v-4h2v4c0 1.108.892 2 2 2s2-.892 2-2v-4h1c1.662 0 3-1.338 3-3v-14zm22 0c-1.108 0-2 .892-2 2v7c0 1.108.892 2 2 2s2-.892 2-2v-7c0-1.108-.892-2-2-2"/></g></svg>