<?xml version="1.0" encoding="UTF-8" standalone="no"?>
<!-- Created with Inkscape (http://www.inkscape.org/) -->

<svg
   xmlns:dc="http://purl.org/dc/elements/1.1/"
   xmlns:cc="http://creativecommons.org/ns#"
   xmlns:rdf="http://www.w3.org/1999/02/22-rdf-syntax-ns#"
   xmlns:svg="http://www.w3.org/2000/svg"
   xmlns="http://www.w3.org/2000/svg"
   xmlns:sodipodi="http://sodipodi.sourceforge.net/DTD/sodipodi-0.dtd"
   xmlns:inkscape="http://www.inkscape.org/namespaces/inkscape"
   width="64"
   height="64"
   viewBox="0 0 64 64.000003"
   id="svg2"
   version="1.1"
   inkscape:version="0.92.4 (5da689c313, 2019-01-14)"
   sodipodi:docname="anbox.svg">
  <defs
     id="defs4" />
  <sodipodi:namedview
     id="base"
     pagecolor="#ffffff"
     bordercolor="#666666"
     borderopacity="1.0"
     inkscape:pageopacity="0.0"
     inkscape:pageshadow="2"
     inkscape:zoom="5.6568543"
     inkscape:cx="-3.4909564"
     inkscape:cy="32.940314"
     inkscape:document-units="px"
     inkscape:current-layer="layer1"
     showgrid="true"
     units="px"
     inkscape:showpageshadow="false"
     borderlayer="true"
     inkscape:window-width="1366"
     inkscape:window-height="711"
     inkscape:window-x="0"
     inkscape:window-y="27"
     inkscape:window-maximized="1"
     showguides="true"
     guidetolerance="10000"
     inkscape:guide-bbox="true">
    <inkscape:grid
       type="xygrid"
       id="grid4136" />
    <sodipodi:guide
       position="5,59.000069"
       orientation="54,0"
       id="guide4142"
       inkscape:locked="false" />
    <sodipodi:guide
       position="5,5.0000688"
       orientation="0,54"
       id="guide4144"
       inkscape:locked="false" />
    <sodipodi:guide
       position="59,5.0000688"
       orientation="-54,0"
       id="guide4146"
       inkscape:locked="false" />
    <sodipodi:guide
       position="59,59.000069"
       orientation="0,-54"
       id="guide4148"
       inkscape:locked="false" />
    <sodipodi:guide
       position="0,64.000069"
       orientation="64,0"
       id="guide4150"
       inkscape:locked="false" />
    <sodipodi:guide
       position="0,6.875e-05"
       orientation="0,64"
       id="guide4152"
       inkscape:locked="false" />
    <sodipodi:guide
       position="59.000001,30.000001"
       orientation="0,1"
       id="guide4351"
       inkscape:locked="false" />
    <sodipodi:guide
       position="32,32.000002"
       orientation="1,0"
       id="guide4353"
       inkscape:locked="false" />
  </sodipodi:namedview>
  <metadata
     id="metadata7">
    <rdf:RDF>
      <cc:Work
         rdf:about="">
        <dc:format>image/svg+xml</dc:format>
        <dc:type
           rdf:resource="http://purl.org/dc/dcmitype/StillImage" />
        <dc:title />
      </cc:Work>
    </rdf:RDF>
  </metadata>
  <g
     inkscape:label="Capa 1"
     inkscape:groupmode="layer"
     id="layer1"
     transform="translate(0,-1058.5196)">
    <rect
       style="fill:#009688;fill-opacity:1;stroke-width:1"
       id="rect3362"
       width="54"
       height="54"
       x="5"
       y="1063.5197"
       ry="2.9999466"
       rx="3" />
    <rect
       ry="1.9999467"
       y="1064.5197"
       x="6"
       height="52"
       width="52"
       id="rect4154"
       style="fill:#4db6ac;fill-opacity:1;stroke-width:1"
       rx="2" />
    <path
       style="opacity:1;fill:#b2dfdb;fill-opacity:1;stroke:none;stroke-width:1.99999762;stroke-linecap:round;stroke-linejoin:round;stroke-miterlimit:4;stroke-dasharray:none;stroke-opacity:1"
       d="m 25.996094,1073.5196 a 0.99559646,0.99556553 0 0 0 -0.695313,1.709 l 1.769531,1.7695 c -1.89222,1.2439 -3.304255,3.1887 -3.835937,5.5215 h 17.529297 c -0.588738,-2.5831 -2.256208,-4.6908 -4.460938,-5.8965 l 1.396485,-1.3945 a 0.99559646,0.99556553 0 0 0 -0.695313,-1.709 0.99559646,0.99556553 0 0 0 -0.71289,0.3008 l -1.998047,1.998 c -0.735004,-0.1945 -1.504114,-0.2978 -2.292969,-0.2988 -1.066253,0 -2.095902,0.1899 -3.054688,0.5371 l -2.236328,-2.2363 a 0.99559646,0.99556553 0 0 0 -0.71289,-0.3008 z m 3.003906,5 a 1,0.99999733 0 0 1 1,1 1,0.99999733 0 0 1 -1,1 1,0.99999733 0 0 1 -1,-1 1,0.99999733 0 0 1 1,-1 z m 6,0 a 1,0.99999733 0 0 1 1,1 1,0.99999733 0 0 1 -1,1 1,0.99999733 0 0 1 -1,-1 1,0.99999733 0 0 1 1,-1 z m -16,6 c -1.107968,0 -2,0.892 -2,2 v 7 c 0,1.108 0.892032,2 2,2 1.107968,0 2,-0.892 2,-2 v -7 c 0,-1.108 -0.892032,-2 -2,-2 z m 4,0 v 2 12 c 0,1.662 1.33803,3 3,3 h 1 v 4 c 0,1.108 0.892032,2 2,2 1.107968,0 2,-0.892 2,-2 v -4 h 2 v 4 c 0,1.108 0.892032,2 2,2 1.107968,0 2,-0.892 2,-2 v -4 h 1 c 1.66197,0 3,-1.338 3,-3 v -12 -2 z m 22,0 c -1.107968,0 -2,0.892 -2,2 v 7 c 0,1.108 0.892032,2 2,2 1.107968,0 2,-0.892 2,-2 v -7 c 0,-1.108 -0.892032,-2 -2,-2 z"
       id="rect4505"
       inkscape:connector-curvature="0" />
  </g>
</svg>
