<svg xmlns="http://www.w3.org/2000/svg" width="64" height="64"><g stroke-width=".714"><g stroke-opacity=".55" stroke-width="2"><path fill="#dce1e4" stroke="#b2bcc2" stroke-opacity="1" stroke-width="2.001" d="M13.8 4h36.4v44.8H13.8z"/><path fill="#dce1e4" d="M13.8 4h36.4v44.8H13.8z"/><path fill="#202224" d="M19.4 13.8h9.8v9.8h-9.8zm15.4 0h9.8v9.8h-9.8z"/><path fill="#fdbc4a" d="M22.2 13.8h4.2v9.8h-4.2zm15.4 0h4.2v9.8h-4.2z"/><path fill="#84b938" stroke="#74a331" stroke-opacity="1" stroke-width="2.001" d="M19.228 26.425c-.18.023-.36.081-.528.178-.672.388-.9 1.24-.511 1.911l4.602 7.97C9.609 41.932 9.6 58.828 9.6 60.002h44.8c0-1.173-.008-18.069-13.188-23.516l4.602-7.97c.388-.672.158-1.524-.514-1.912s-1.523-.16-1.911.511l-4.895 8.477c-1.926-.498-4.072-.79-6.494-.79s-4.568.292-6.494.79l-4.892-8.477a1.4 1.4 0 0 0-1.386-.689z"/><path fill="#84b938" d="M19.228 26.425c-.18.023-.36.081-.528.178-.672.388-.9 1.24-.511 1.911l4.602 7.97C9.609 41.932 9.6 58.828 9.6 60.002h44.8c0-1.173-.008-18.069-13.188-23.516l4.602-7.97c.388-.672.158-1.524-.514-1.912s-1.523-.16-1.911.511l-4.895 8.477c-1.926-.498-4.072-.79-6.494-.79s-4.568.292-6.494.79l-4.892-8.477a1.4 1.4 0 0 0-1.386-.689z"/></g><g fill="#fff" transform="matrix(1.4 0 0 1.4 -1.6 -24)"><rect width="20" height="2" x="14" y="57" rx="1" ry="1"/><circle cx="18" cy="52" r="2"/><circle cx="30" cy="52" r="2"/></g></g></svg>