<svg xmlns="http://www.w3.org/2000/svg" width="64" height="64" viewBox="0 0 16.933 16.933"><path fill="#8e8e8e" stroke="#6b6b6b" stroke-width=".529" d="M6.614 2.117c-.332 0-.665.124-.914.372L.637 7.553a1.305 1.305 0 0 0 0 1.827l5.064 5.063c.497.498 1.33.498 1.827 0l5.063-5.063a1.306 1.306 0 0 0 0-1.827L7.528 2.489a1.3 1.3 0 0 0-.914-.372z"/><path fill="#8e8e8e" d="M6.614 2.117c-.332 0-.665.124-.914.372L.637 7.553a1.305 1.305 0 0 0 0 1.827l5.064 5.063c.497.498 1.33.498 1.827 0l5.063-5.063a1.306 1.306 0 0 0 0-1.827L7.528 2.489a1.3 1.3 0 0 0-.914-.372"/><rect width="6.184" height="6.184" x="7.387" y="-1.598" fill="#fff" rx=".337" ry=".337" transform="rotate(45)"/><path fill="#e52e38" stroke="#ad151d" stroke-width=".529" d="M10.317 2.117a1.3 1.3 0 0 0-.914.372L4.34 7.553a1.305 1.305 0 0 0 0 1.827l5.064 5.063c.497.498 1.33.498 1.827 0l5.063-5.063a1.306 1.306 0 0 0 0-1.827l-5.063-5.064a1.3 1.3 0 0 0-.914-.372z"/><path fill="#e52e38" d="M10.317 2.117a1.3 1.3 0 0 0-.914.372L4.34 7.553a1.305 1.305 0 0 0 0 1.827l5.064 5.063c.497.498 1.33.498 1.827 0l5.063-5.063a1.306 1.306 0 0 0 0-1.827l-5.063-5.064a1.3 1.3 0 0 0-.914-.372"/></svg>