<svg width="64" height="64" version="1.1" viewBox="0 0 64 64" xmlns="http://www.w3.org/2000/svg">
 <clipPath id="b">
  <path d="m124 64c0 33.137-26.863 60-60 60s-60-26.863-60-60 26.863-60 60-60 60 26.863 60 60z"/>
 </clipPath>
 <path d="m29.547 5.1758a27 27 0 0 0-24.376 24.434c0.00675 3.5077 0.67344 7.0787 2.1278 10.586 4.7396 11.43 18.103 19.044 30.328 13.708 8.3184-3.631 13.873-13.554 9.7005-22.573v-8.99e-4c-1.3842-2.9904-3.801-5.39-6.7667-6.75-2.9657-1.36-6.6299-1.6071-9.9369 0.03076-2.1376 1.0581-3.8202 2.8178-4.7733 5.0019-0.9532 2.1843-1.0893 4.9561 0.21445 7.3881 0.82308 1.5352 2.1066 2.7057 3.7362 3.3724 1.6296 0.66669 3.7873 0.72462 5.6048-0.34805 1.1234-0.6631 1.9377-1.6118 2.4082-2.8644 0.47055-1.2526 0.46872-3.0153-0.46143-4.42l-8.98e-4 -9.01e-4v-9e-4c-0.56494-0.85198-1.2853-1.4234-2.2983-1.7613-0.81708-0.27256-1.9743-0.26139-2.9918 0.20303 0.3698-0.44538 0.79925-0.84899 1.277-1.0854h9e-4c1.5375-0.76152 3.094-0.67509 4.6696 0.04746 1.5756 0.72255 3.0208 2.1546 3.7635 3.7591 2.538 5.4869-1.1002 11.995-6.5944 14.393-8.7024 3.7979-18.676-1.8801-22.227-10.443v-8.78e-4c-5.3408-12.878 2.9976-27.309 15.572-32.294l9e-4 -8.775e-4h9.01e-4c0.33738-0.13397 0.6789-0.25807 1.0213-0.37969zm1.8176 26.391c-0.0017 0.0014-0.0025 0.0029-0.0044 0.0044-0.0019 0.0014-0.0042 0.0019-0.0062 0.0035zm0.74619 3.1333h3.8188c-0.0093 0.15729 0.03061 0.3626-0.0027 0.48076-0.16563 0.58896-0.38151 0.89188-0.84551 1.2472-0.61207 0.46798-1.5297 0.4989-1.9635 0.3542-0.43469-0.14501-0.62686-0.30026-0.8666-0.66182l-9.01e-4 -0.0017c-0.24108-0.36408-0.23149-0.93457-0.16524-1.1109 0.05979-0.15916 0.0741-0.17008 0.1837-0.23467-0.01215-0.0042-0.04386-0.02185-0.14941-0.06505-0.0029-0.0012-6e-3 -0.0066-0.0087-0.0079zm0.1582 0.07296c0.01254 0.0044 4e-3 -0.0052 0.02636-0.01851-0.01466 0.0087-0.01446 0.01138-0.02636 0.01851z" fill="#b100c2" stroke="#000000" stroke-linecap="round" stroke-linejoin="round" stroke-opacity=".2"/>
 <path d="m32 5a27 27 0 0 0-6.8906 0.93779c-10.099 4.6046-16.92 15.779-14.894 27.773 1.9382 11.474 12.361 20.555 23.919 18.283 9.3123-1.8284 16.305-11.114 14.48-21.179-1.4554-8.0239-8.8598-14.432-17.104-12.685h-9e-4c-6.5367 1.3884-11.385 7.9319-9.9931 15.013v9.01e-4c1.0923 5.5468 6.327 10.045 12.198 8.6853 4.5822-1.0616 7.9231-5.6677 6.8449-10.652v-0.001799c-0.83252-3.8385-4.5729-7.023-8.8119-5.9326-1.6248 0.41745-3.0166 1.4467-3.8971 2.8169 0.91884-2.0526 2.7967-3.6457 4.8973-4.0922 4.5488-0.96376 9.0658 2.7953 9.994 7.9128 1.2228 6.7428-3.6882 13.067-9.7567 14.258h-9.01e-4c-7.876 1.5487-15.439-4.8739-16.883-13.421-1.8338-10.858 6.0093-20.923 15.852-22.732 12.363-2.273 24.014 7.7596 26.106 20.949 0.36274 2.2881 0.4344 4.5489 0.26455 6.7553a27 27 0 0 0 0.67676-5.69 27 27 0 0 0-27-27zm1.4335 26.006c0.4884 0.03323 1.1046 0.56732 1.2929 1.4353 0.04299 0.1994-0.0071 0.39224-0.01138 0.58975-0.25646 0.40379-0.63791 0.72352-1.1188 0.88594h-0.0017c-0.29251 0.09857-0.60826 0.09772-0.90176 0.05801v-2.5418c0.0089 5e-3 0.04355 0.0014 0.0501 0.0062 0.1015 0.07309 0.07788 0.06397 0.08877 0.10898-0.042-0.17673 0.25991-0.4888 0.3999-0.52471l0.0017-9.01e-4h8.99e-4c0.06295-0.0162 0.12974-0.02145 0.19951-0.01678z" fill="#4a32e5" stroke="#000000" stroke-linecap="round" stroke-linejoin="round" stroke-opacity=".2"/>
 <path d="m40.042 7.4003c-4.2349-0.10961-8.5053 0.74297-12.49 2.7598h-9e-4c-4.6221 2.3408-8.4531 6.3434-10.551 11.12-2.0982 4.7765-2.3729 10.492 0.47813 15.59v9.01e-4c1.5607 2.7895 4.081 5.0584 7.1086 6.2842 3.0276 1.2258 6.7512 1.2968 9.9272-0.7084v-9e-4c1.6473-1.0402 2.9332-2.5846 3.6246-4.4947 0.69125-1.9096 0.6456-4.407-0.80859-6.3853-0.72236-0.98473-1.6586-1.6847-2.9039-2.0681-1.2461-0.38363-3.0767-0.26053-4.362 0.88857l-0.0035 0.0027-0.0027 0.0017c-0.62199 0.55913-0.98533 1.127-1.1971 2.0136-0.21174 0.8866 3.2e-4 2.4594 1.0644 3.3618 0.52493 0.4455 0.85647 0.59915 1.5583 0.70224 0.35117 0.05159 0.8179 0.07332 1.4001-0.13184 0.02276-0.0079 0.04561-0.03144 0.06856-0.04044-0.27495 0.60176-0.80741 1.2604-1.321 1.5847v-9.01e-4c-1.5877 1.0024-3.239 0.99084-5.0177 0.2707-1.7785-0.72005-3.496-2.2597-4.4227-3.9155v-9.01e-4c-1.9614-3.5079-1.8027-7.2408-0.24694-10.782 1.5558-3.5417 4.5987-6.7273 8.0464-8.4735 8.2179-4.1592 18.468-2.007 25.582 3.8707a27 27 0 0 0-11.687-11.085c-1.272-0.20557-2.5558-0.33054-3.8435-0.36387zm-8.4085 23.73c0.1567-0.0083 0.29323 0.0052 0.42276 0.01678v5.197l-0.61348-0.07118c-0.77084-0.18142-1.5694-0.92705-1.8316-1.5144-0.26221-0.58731-0.24225-0.96564-0.22764-1.2287 0.02687-0.48364-0.0048-0.56101 0.3375-1.1294 0.29139-0.51154 0.86392-0.98005 1.3676-1.1575 0.21135-0.07446 0.38822-0.10426 0.54492-0.11249zm2.809 3.8751-0.08438 0.14414c0.03525-0.05641 0.02696-0.06212 0.05626-0.11074 0.0069-0.01234 0.02146-0.0211 0.02812-0.0334z" fill="#3724b2" stroke="#000000" stroke-linecap="round" stroke-linejoin="round" stroke-opacity=".2"/>
 <path d="m34.762 13.667c-1.3431-0.03187-2.7149 0.08313-4.101 0.36035-8.7224 1.7428-15.47 10.175-13.548 19.375 1.4963 7.1672 8.4792 12.71 16.102 11.045 5.8804-1.2834 10.435-7.0557 8.9851-13.366-1.1068-4.8225-5.89-8.5559-11.128-7.2896-3.9647 0.95883-7.0433 4.9354-5.9229 9.3067l9e-4 9.01e-4v8.99e-4c0.84258 3.2777 4.1789 5.8294 7.8627 4.8217l8.99e-4 -9.01e-4c0.56615-0.15467 1.0807-0.44717 1.5741-0.76465-0.7552 0.67542-1.6253 1.2372-2.6455 1.4599-4.0944 0.89425-8.126-2.3025-8.9886-6.4345-1.1859-5.6775 3.2033-11.17 8.877-12.304h9e-4c7.5793-1.5159 14.811 4.2961 16.254 11.798v8.98e-4c1.8881 9.8091-5.6128 19.079-15.296 20.874-12.434 2.3022-24.098-7.175-26.287-19.395v-9.01e-4c-0.63553-3.542-0.50468-7.2256 0.33047-10.746-1.1888 3.0586-1.8101 6.3083-1.8334 9.5897 0.03566 14.066 10.865 25.749 24.888 26.849 1.1419 0.075085 1.1391 0.081737 2.112 0.15117l2.4798-0.66259c12.757-2.3644 22.029-14.475 19.466-27.788-1.7792-9.247-9.7831-16.66-19.185-16.883zm-3.6642 14.248c-0.0017 5.4e-4 -0.0027 0.0021-0.0044 0.0027-0.0019 6.75e-4 -4e-3 1.99e-4 -0.0062 8.99e-4zm4.0236 3.0059 0.0052 0.01234c-0.0012-0.0027-0.0033-0.0042-0.0044-0.0069-7.66e-4 -0.0017-1.06e-4 -0.0035-9.01e-4 -0.0052zm1.8466 0.26455 0.0017 0.0044c-2.95e-4 -9.65e-4 -0.0014-0.0016-0.0017-0.0027-1.47e-4 -4.94e-4 1.48e-4 -0.0013 0-0.0017zm-5.5784 0.95537h2.6763c-0.04077 0.29452-0.13417 0.56207-0.25049 0.74883-0.23415 0.37598-0.50299 0.58262-0.91758 0.71455-0.8786 0.27787-1.4884-0.17481-1.6532-0.73213-0.13313-0.45496 0.01986-0.65744 0.19687-0.70576h-0.0017l-0.0017 9e-4c-0.0093 0.0025-0.03562-0.02426-0.04835-0.02636zm-3.0375 1.0292c3.64e-4 0.0011 0.0014 0.0016 0.0017 0.0027 1.92e-4 5.4e-4 -1.93e-4 0.0013 0 0.0017zm4.8208 2.3106-0.01138 0.0044c0.0023-8.99e-4 0.0039-0.0025 0.0062-0.0035 0.0017-6.75e-4 0.0035-1.85e-4 0.0052-8.99e-4z" fill="#d10083" stroke="#000000" stroke-linecap="round" stroke-linejoin="round" stroke-opacity=".2"/>
 <path d="m35.454 9.507c-1.6415-0.039838-3.3168 0.099784-5.0098 0.43857-10.615 2.1225-18.825 12.388-16.496 23.549v9.01e-4c1.8072 8.6567 10.238 15.352 19.4 13.351 7.0309-1.5351 12.473-8.4396 10.75-15.945v-9.01e-4c-1.3071-5.6964-6.9554-10.111-13.104-8.6221-4.6172 1.1174-8.1994 5.749-6.9029 10.802 0.96346 3.7555 4.7832 6.6756 8.9648 5.5301h0.001799c3.0714-0.84374 5.4783-4.0237 4.4481-7.527v-9e-4c-0.154-0.52465-0.43759-1.0007-0.7418-1.4581 0.70133 0.73016 1.2845 1.5937 1.5179 2.6112v8.99e-4c0.90974 3.9621-2.1911 7.9028-6.206 8.7794-5.6313 1.2298-11.112-3.117-12.286-8.7407-1.5944-7.6403 4.2609-14.966 11.826-16.479 10.032-2.0076 19.551 5.6472 21.452 15.532 2.4722 12.856-7.3135 24.957-19.945 27.3-0.69757 0.12925-1.3962 0.22954-2.0953 0.30146a27 27 0 0 0 0.97295 0.069436 27 27 0 0 0 27-27 27 27 0 0 0-0.06328-1.7455c-0.0031-0.01736-0.0054-0.0345-0.0089-0.05186-2.1788-11.33-11.984-20.417-23.474-20.696z" fill="#7832f9" stroke="#000000" stroke-linecap="round" stroke-linejoin="round" stroke-opacity=".2"/>
</svg>
