<?xml version="1.0" encoding="UTF-8" standalone="no"?>
<svg
   height="128px"
   viewBox="0 0 128 128"
   width="128px"
   version="1.1"
   id="svg144"
   sodipodi:docname="app.drey.Warp.svg"
   inkscape:version="1.2 (dc2aedaf03, 2022-05-15)"
   xmlns:inkscape="http://www.inkscape.org/namespaces/inkscape"
   xmlns:sodipodi="http://sodipodi.sourceforge.net/DTD/sodipodi-0.dtd"
   xmlns="http://www.w3.org/2000/svg"
   xmlns:svg="http://www.w3.org/2000/svg">
  <defs
     id="defs148">
    <linearGradient
       id="linearGradient4672"
       inkscape:swatch="solid">
      <stop
         style="stop-color:#000000;stop-opacity:1;"
         offset="0"
         id="stop4670" />
    </linearGradient>
    <filter
       inkscape:label="Color Blindness"
       inkscape:menu="Color"
       inkscape:menu-tooltip="Adds a colorizable edges glow inside objects and pictures"
       style="color-interpolation-filters:sRGB;"
       id="filter1072"
       x="-0.080459839"
       y="-0.074446545"
       width="1.1606627"
       height="1.1488335">
      <feColorMatrix
         type="saturate"
         values="1"
         result="result91"
         id="feColorMatrix1052" />
      <feComposite
         in2="result91"
         result="result15"
         operator="arithmetic"
         k2="0.4"
         k1="0.3"
         k3="0.3"
         id="feComposite1054" />
      <feGaussianBlur
         in="result15"
         result="result8"
         stdDeviation="5"
         id="feGaussianBlur1056" />
      <feColorMatrix
         values="1 0 0 0 0 0 1 0 0 0 0 0 1 0 0 0 0 0 50 0 "
         id="feColorMatrix1058" />
      <feComposite
         in2="SourceGraphic"
         operator="in"
         result="result13"
         id="feComposite1060" />
      <feComposite
         in2="result13"
         k3="0.3"
         k1="0.3"
         k2="0.4"
         operator="arithmetic"
         in="result15"
         result="result6"
         id="feComposite1062" />
      <feFlood
         flood-color="rgb(128,172,0)"
         flood-opacity="1"
         result="result10"
         id="feFlood1064" />
      <feBlend
         in2="result10"
         result="result12"
         in="result6"
         mode="darken"
         id="feBlend1066" />
      <feBlend
         in2="result6"
         result="result14"
         mode="screen"
         id="feBlend1068" />
      <feComposite
         in2="SourceGraphic"
         in="result14"
         operator="in"
         id="feComposite1070"
         result="fbSourceGraphic" />
      <feColorMatrix
         result="fbSourceGraphicAlpha"
         in="fbSourceGraphic"
         values="0 0 0 -1 0 0 0 0 -1 0 0 0 0 -1 0 0 0 0 1 0"
         id="feColorMatrix944" />
      <feColorMatrix
         id="feColorMatrix946"
         values="0.8166 0.1833 0 0 0 0.333 0.666 0 0 0 0 0.125 0.875 0 0 0 0 0 1 0 "
         type="matrix"
         result="colormatrix1"
         in="fbSourceGraphic" />
    </filter>
    <filter
       style="color-interpolation-filters:sRGB;"
       inkscape:label="Brilliance"
       id="filter502"
       x="0.12626382"
       y="0.094911241"
       width="0.7955863"
       height="0.73721197">
      <feColorMatrix
         values="1.4 -0.2 -0.2 0 0.16 -0.2 1.4 -0.2 0 0.16 -0.2 -0.2 1.4 0 0.16 0 0 0 1 0 "
         id="feColorMatrix500" />
    </filter>
  </defs>
  <sodipodi:namedview
     id="namedview146"
     pagecolor="#ffffff"
     bordercolor="#666666"
     borderopacity="1.0"
     inkscape:showpageshadow="2"
     inkscape:pageopacity="0.0"
     inkscape:pagecheckerboard="0"
     inkscape:deskcolor="#d1d1d1"
     showgrid="false"
     inkscape:zoom="6.15625"
     inkscape:cx="69.19797"
     inkscape:cy="61.238579"
     inkscape:window-width="1920"
     inkscape:window-height="1011"
     inkscape:window-x="0"
     inkscape:window-y="0"
     inkscape:window-maximized="1"
     inkscape:current-layer="svg144" />
  <clipPath
     id="a">
    <path
       d="m 4 4 h 120 v 120 h -120 z m 0 0"
       id="path84" />
  </clipPath>
  <clipPath
     id="b">
    <path
       d="m 124 64 c 0 33.136719 -26.863281 60 -60 60 s -60 -26.863281 -60 -60 s 26.863281 -60 60 -60 s 60 26.863281 60 60 z m 0 0"
       id="path87" />
  </clipPath>
  <radialGradient
     id="c"
     cx="67.395325"
     cy="78.078407"
     gradientTransform="matrix(0.993465 0.114141 -0.0696102 0.605876 5.875507 23.079985)"
     gradientUnits="userSpaceOnUse"
     r="66.149475">
    <stop
       offset="0"
       stop-color="#0092dc"
       id="stop90" />
    <stop
       offset="1"
       stop-color="#7300ee"
       id="stop92" />
  </radialGradient>
  <linearGradient
     id="d"
     gradientUnits="userSpaceOnUse"
     x1="96.999573"
     x2="10.99957"
     y1="102"
     y2="48">
    <stop
       offset="0"
       stop-color="#0000dc"
       id="stop95" />
    <stop
       offset="1"
       stop-color="#b700d8"
       id="stop97" />
  </linearGradient>
  <linearGradient
     id="e"
     gradientUnits="userSpaceOnUse"
     x1="383.593933"
     x2="-30.721367"
     y1="564.136047"
     y2="226.685226">
    <stop
       offset="0"
       stop-color="#2a00d7"
       id="stop100" />
    <stop
       offset="1"
       stop-color="#a500a6"
       id="stop102" />
  </linearGradient>
  <linearGradient
     id="f"
     gradientUnits="userSpaceOnUse"
     x1="68"
     x2="116"
     y1="26"
     y2="42">
    <stop
       offset="0"
       stop-color="#0011d5"
       id="stop105" />
    <stop
       offset="1"
       stop-color="#5a00c4"
       id="stop107" />
  </linearGradient>
  <linearGradient
     id="g"
     gradientUnits="userSpaceOnUse"
     x1="-32.208172"
     x2="290.452393"
     y1="409.031586"
     y2="376.746399">
    <stop
       offset="0"
       stop-color="#003ba2"
       id="stop110" />
    <stop
       offset="0.303471"
       stop-color="#0d00ad"
       id="stop112" />
    <stop
       offset="1"
       stop-color="#b1006f"
       id="stop114" />
  </linearGradient>
  <linearGradient
     id="h"
     gradientUnits="userSpaceOnUse"
     x1="83.499115"
     x2="298.114777"
     y1="259.5914"
     y2="469.097168">
    <stop
       offset="0"
       stop-color="#002fe8"
       id="stop117" />
    <stop
       offset="0.589744"
       stop-color="#982ae9"
       id="stop119" />
    <stop
       offset="1"
       stop-color="#c500ee"
       id="stop121" />
  </linearGradient>
  <g
     inkscape:groupmode="layer"
     id="layer1"
     inkscape:label="Layer 1"
     style="display:inline">
    <ellipse
       style="fill:#ffffff;stroke:#000000;stroke-width:0.319;stroke-dasharray:none"
       id="path294"
       cx="63.951145"
       cy="64.018723"
       rx="60.057522"
       ry="60.111763" />
  </g>
  <g
     clip-path="url(#a)"
     id="g142"
     style="display:inline;filter:url(#filter502)">
    <g
       clip-path="url(#b)"
       id="g140"
       style="display:inline;stroke:#000000;stroke-width:0.2;stroke-dasharray:none;stroke-opacity:1;paint-order:normal;filter:url(#filter1072)">
      <g
         fill="none"
         id="g138"
         style="display:inline;stroke:#000000;stroke-width:0.2;stroke-dasharray:none;stroke-opacity:1;paint-order:normal">
        <path
           style="color:#000000;display:inline;fill:url(#c);stroke:#000000;stroke-width:0.2;stroke-dasharray:none;stroke-opacity:1;paint-order:normal"
           d="m 89.763672,20.175781 c -9.416649,-0.721637 -18.896048,1.995031 -26.439453,7.50586 -7.543405,5.510828 -13.170413,14.167052 -13.69336,24.601562 -0.332375,6.632039 1.688223,13.206041 5.695313,18.480469 4.00709,5.274428 10.392442,9.257197 17.943359,9.390625 4.656808,0.083 9.155458,-1.415699 12.833985,-4.34375 3.678527,-2.928051 6.529697,-7.731222 6.40039,-13.25586 -0.07774,-3.313115 -1.201473,-6.379668 -3.394531,-8.976562 -2.192004,-2.595646 -5.971102,-4.695892 -10.138672,-4.380859 h -0.002 c -2.446495,0.184922 -4.552575,1.05077 -6.447266,2.77539 -1.895201,1.725085 -3.525143,4.93287 -3.037109,8.265625 v 0.002 0.002 c 0.28221,1.920847 0.9786,3.381529 2.433594,4.832032 0.715585,0.713376 1.816296,1.392167 3.082031,1.824218 -0.510801,0.110996 -1.03415,0.266116 -1.5,0.257813 -3.281103,-0.05798 -5.780534,-1.570334 -7.822266,-4.257813 -2.041732,-2.687478 -3.234031,-6.542205 -3.0625,-9.964843 0.31299,-6.245162 3.458457,-11.161229 8.378907,-14.75586 4.92045,-3.594631 11.596352,-5.51469 17.777343,-5.041015 20.495953,1.570858 33.542113,22.808884 31.578123,42.720703 -3.06019,31.033624 -35.019818,50.336754 -64.953123,46.826164 h -0.002 C 31.748406,119.91426 10.760047,104.50407 -0.828125,83.583984 l -11.371094,6.298828 C 1.2904021,114.23557 25.629418,132.28632 53.880859,135.5957 90.360943,139.8741 129.42432,116.2952 133.28711,77.134766 v -0.002 C 135.89238,50.709295 118.50134,22.378304 89.763672,20.175781 Z m -11.761719,33.326172 0.125,0.04297 c -0.04169,4.42e-4 -0.08293,0.0046 -0.125,0.0059 z m 0,1.152344 c 1.313059,0.196278 2.533022,0.653893 3.09375,1.21289 0.822182,0.819645 1.090837,1.387747 1.251953,2.484375 v 0.0039 c 0.191159,1.305413 -0.573547,2.77296 -1.076172,3.230468 -0.502,0.456941 -0.689324,0.526337 -1.322265,0.574219 -0.322893,0.02105 -0.868976,-0.308803 -0.771485,-0.193359 0.09796,0.115993 0.325785,0.709603 0.330078,0.892578 0.02694,1.151136 -0.363102,1.876297 -1.5,2.78125 -0.0017,0.0013 -0.0042,0.0026 -0.0059,0.0039 z m -5.263672,8.80664 c 0.212951,0.342648 0.438788,0.649276 0.69336,0.933594 -0.252019,-0.25934 -0.513792,-0.615379 -0.69336,-0.933594 z"
           id="path126"
           transform="translate(-2.845425,-6.999695)" />
        <path
           style="color:#000000;display:inline;fill:url(#d);stroke:#000000;stroke-width:0.2;stroke-dasharray:none;stroke-opacity:1;paint-order:normal"
           d="M 67.830078,-5.4492187 C 63.206887,-4.4998903 58.66232,-3.1544484 54.259766,-1.40625 19.868226,12.229495 -2.9980546,51.783349 12.109375,88.210937 22.64182,113.61068 52.335416,130.53066 79.503906,118.67383 h 0.002 C 97.991218,110.60501 110.33506,88.55288 101.0625,68.511719 h -0.002 v -0.002 c -3.076105,-6.645398 -8.444742,-11.977745 -15.035159,-15 -6.590418,-3.022256 -14.733189,-3.571398 -22.082032,0.06836 -4.750207,2.351231 -8.489432,6.261687 -10.607422,11.115234 -2.118214,4.854062 -2.422651,11.013639 0.47461,16.417969 1.829079,3.411539 4.683241,6.012601 8.304687,7.494141 3.621446,1.48154 8.414186,1.610261 12.453125,-0.773438 h 0.002 c 2.496469,-1.473546 4.303942,-3.581711 5.34961,-6.365234 1.045668,-2.783524 1.04355,-6.700692 -1.023438,-9.822266 l -0.002,-0.002 -0.002,-0.002 c -1.255412,-1.893298 -2.854335,-3.163114 -5.105469,-3.914063 -1.81573,-0.605703 -4.387312,-0.580871 -6.648437,0.451172 0.821777,-0.989729 1.776107,-1.886651 2.83789,-2.412109 h 0.002 c 3.416771,-1.692269 6.875584,-1.500201 10.376953,0.105469 3.501369,1.605669 6.712825,4.787985 8.363281,8.353515 5.639914,12.192817 -2.444955,26.655021 -14.654297,31.984371 -19.338705,8.43978 -41.502584,-4.17802 -49.392578,-23.207027 V 83 C 12.803365,54.382212 31.333318,22.313002 59.275391,11.236328 l 0.002,-0.002 h 0.002 C 62.92361,9.7872646 66.70523,8.6639496 70.566406,7.8710937 Z M 65.587891,69.037109 c -0.004,0.003 -0.0058,0.0067 -0.0098,0.0098 -0.0043,0.0033 -0.0094,0.0045 -0.01367,0.0078 z M 67.244141,76 h 8.488281 c -0.02056,0.349524 0.06603,0.805766 -0.0078,1.068359 -0.368339,1.309884 -0.847977,1.983061 -1.880859,2.773438 -1.360157,1.037379 -3.396261,1.106438 -4.359375,0.785156 -0.965979,-0.322238 -1.393025,-0.667248 -1.925781,-1.470703 l -0.002,-0.0039 c -0.53574,-0.809076 -0.51442,-2.076826 -0.367188,-2.46875 0.147232,-0.391925 0.134389,-0.366296 0.466797,-0.5625 -0.09778,0.0577 0.0846,0.0917 -0.392578,-0.103516 -0.0063,-0.0026 -0.01311,-0.01483 -0.01953,-0.01758 z"
           id="path128"
           transform="translate(-2.99957,-6)" />
        <path
           style="color:#000000;display:inline;fill:url(#e);stroke:#000000;stroke-width:0.914434;stroke-dasharray:none;stroke-opacity:1;paint-order:normal"
           d="M 183.13672,70.802734 C 167.90275,70.910418 152.44884,72.266703 136.86523,74.96875 1.0469177,98.511678 -104.06908,227.18657 -78.791016,368.33789 v 0.002 C -58.289146,482.80169 50.606656,571.3566 170.02148,549.2168 l 0.008,-0.002 C 266.12376,531.417 340.42826,439.56199 321.0625,338.84961 l -0.002,-0.002 C 305.59809,258.45122 228.34866,196.28685 143.58984,213.22266 l -0.008,0.002 -0.006,0.002 C 76.486868,226.66536 24.590338,291.53181 39.443359,362.79687 l 0.002,0.006 v 0.006 c 11.678134,55.929 66.154231,99.2168 126.099611,86.12305 l 0.002,-0.002 c 46.67501,-10.19778 82.82301,-56.02737 71.22657,-106.58789 l -0.002,-0.01 -0.002,-0.008 c -8.97766,-39.03753 -47.70596,-69.34048 -90.59766,-58.93555 -20.15866,4.88231 -37.51942,19.2 -45.79296,37.98828 7.38141,-23.8341 29.07738,-43.47493 55.09179,-48.6914 49.09168,-9.8091 96.56904,28.34576 106.04492,77.61523 12.52253,65.13025 -37.71191,127.28984 -102.53515,139.29297 h -0.004 l -0.004,0.002 C 75.059135,505.15687 -4.2204864,440.73656 -19.103516,357.65039 v -0.002 C -38.036239,251.92251 42.891421,152.79897 147.22266,134.71484 h 0.002 c 130.86486,-22.6907 252.86208,77.32487 274.53711,206.19922 26.84322,159.6988 -95.07342,307.84509 -252.125,333.49414 l -0.006,0.002 h -0.008 c -11.59365,1.89876 -23.32186,3.15455 -35.11524,3.79101 l 3.26758,60.54883 c 13.91281,-0.75084 27.81639,-2.23544 41.63477,-4.49805 188.73678,-30.82375 334.92659,-208.4021 302.14843,-403.39258 v -0.002 C 457.10086,185.43774 330.39845,69.761796 183.13672,70.802734 Z M 163.05664,342.07812 c 6.15798,0.28885 12.87598,6.28451 14.61523,13.82618 0.0486,0.21242 0.0225,0.42773 0.0645,0.64062 -0.58171,2.07462 -1.30162,4.00947 -2.23242,5.5 -2.86601,4.58949 -6.34294,7.25774 -11.40235,8.86914 l -0.0176,0.004 c -3.11151,0.98894 -6.00476,1.2145 -8.65039,0.91211 v -26.82031 c 0.18123,0.30433 0.38698,0.60207 0.47266,0.93554 -0.0995,-0.38743 1.85396,-2.97556 4.53906,-3.625 l 0.0117,-0.002 0.01,-0.002 c 0.84094,-0.204 1.70973,-0.27957 2.58984,-0.23829 z m -42.72461,20.125 c 10e-4,0.004 0.004,0.007 0.006,0.0117 0.003,0.008 0.003,0.0158 0.006,0.0234 z"
           id="path130"
           transform="matrix(0.212399,0,0,0.225218,32.525177,-15.053589)" />
        <path
           style="color:#000000;display:inline;fill:url(#g);stroke:#000000;stroke-width:0.645513;stroke-dasharray:none;stroke-opacity:1;paint-order:normal"
           d="m 174.73633,219.39453 c -9.62949,-0.22863 -19.46448,0.59568 -29.40235,2.58399 -62.553895,12.50291 -110.934295,73.00274 -97.156246,139.00195 10.728917,51.40966 60.802456,91.18492 115.470706,79.23828 42.17302,-9.20962 74.81833,-50.62102 64.42578,-95.88086 -7.93588,-34.58837 -42.23141,-61.38165 -79.79688,-52.29492 h -0.002 c -28.43617,6.8812 -50.499258,35.40532 -42.46875,66.75781 v 0.008 l 0.002,0.008 c 6.03953,23.50862 29.9665,41.82377 56.39063,34.58984 l 0.006,-0.002 c 4.65597,-1.2725 9.03792,-3.43918 12.97656,-6.22461 -5.61528,5.43827 -12.77777,9.49809 -20.66602,11.2207 h -0.002 l -0.002,0.002 c -29.34726,6.41351 -58.246374,-16.5146 -64.433635,-46.16834 v -0.002 c -8.505672,-40.74357 22.972365,-80.15188 63.644535,-88.2812 h 0.002 0.002 c 54.33491,-10.87343 106.18878,30.81807 116.54102,84.65235 v 0.002 C 283.80822,418.99177 230.01845,485.50357 160.59971,498.377 l 0.002,-0.002 C 71.456643,514.89434 -12.179014,446.91119 -27.878906,359.22852 v -0.004 l -0.002,-0.002 c -4.99459,-27.85318 -3.4573,-56.9455 4.177734,-84.35938 L -64.9375,263.37891 c -9.329837,33.49914 -11.246698,68.97655 -5.074219,103.39843 19.66945,109.83403 124.207562,194.84866 238.412109,173.68555 h 0.002 0.002 C 259.88653,523.49788 330.67204,436.02475 312.30078,340.52148 v -0.002 C 299.54405,274.18592 242.15517,220.99524 174.73633,219.39453 Z m -26.2793,102.22266 c -0.0137,0.004 -0.0254,0.0113 -0.0391,0.0156 -0.0126,0.004 -0.0245,0.004 -0.0371,0.008 z m 28.86524,21.56445 0.0391,0.0898 c -0.009,-0.0203 -0.0205,-0.0364 -0.0293,-0.0566 -0.005,-0.0108 -0.005,-0.0224 -0.01,-0.0332 z m -26.7754,8.74609 h 19.20899 c -0.29181,2.11153 -0.96505,4.02754 -1.79883,5.36719 -1.67716,2.69474 -3.60556,4.17526 -6.58008,5.12305 -6.3141,1.9985 -10.69878,-1.26093 -11.875,-5.25586 -0.95092,-3.2534 0.14293,-4.69808 1.41992,-5.04688 l -0.0117,0.004 -0.0117,0.002 c -0.0658,0.0181 -0.25884,-0.17713 -0.35157,-0.19336 z m -21.77734,7.37696 c 0.003,0.008 0.007,0.0138 0.01,0.0215 0.001,0.003 8.3e-4,0.007 0.002,0.01 z m 34.57617,16.57422 -0.082,0.0312 c 0.0175,-0.007 0.0314,-0.0168 0.0488,-0.0234 0.0109,-0.004 0.0223,-0.004 0.0332,-0.008 z"
           id="path134"
           transform="matrix(0.309923,0,0,0.309739,15.98206,-44.69323)" />
        <path
           style="color:#000000;display:inline;fill:url(#h);stroke:#000000;stroke-width:0.51099;stroke-linecap:round;stroke-dasharray:none;stroke-opacity:1;paint-order:normal"
           d="m 174.65039,223.85937 c -9.31962,-0.22619 -18.8353,0.56865 -28.44727,2.49219 -60.263939,12.05248 -106.883587,70.34077 -93.660151,133.70899 v 0.002 c 10.260651,49.14949 58.129761,87.16447 110.150391,75.80469 39.9197,-8.71576 70.81569,-47.91675 61.0332,-90.53125 v -0.004 c -7.42097,-32.34295 -39.48734,-57.40413 -74.40039,-48.95312 -26.21504,6.34401 -46.55241,32.64027 -39.1914,61.32812 5.47125,21.32122 27.15545,37.90383 50.89648,31.40039 l 0.006,-0.002 0.006,-0.002 c 17.44257,-4.7915 31.10653,-22.84909 25.24805,-42.74415 -0.9815,-3.34039 -2.60711,-6.47847 -4.64844,-9.32031 4.34682,4.24794 7.65377,9.74875 9.05859,15.87305 v 0.002 l 0.002,0.002 c 5.16522,22.49522 -12.44128,44.87076 -35.23632,49.84765 h -0.002 C 123.49266,409.7462 92.376965,385.06618 85.711227,353.13667 l 0.002,0.002 c -9.052226,-43.3793 24.186663,-84.97415 67.136723,-93.5625 h 0.002 0.002 c 56.95948,-11.39869 111.00431,32.06444 121.79687,88.1875 14.03522,72.99294 -41.52352,141.69545 -113.24023,154.9961 C 97.563944,514.58825 31.553526,483.50837 -4.4628906,429.48828 a 16.94175,16.94175 0 0 0 -23.4941404,-4.69726 16.94175,16.94175 0 0 0 -4.697266,23.49414 c 43.246423,64.86419 121.988146,102.28947 200.240237,87.79101 h 0.002 C 256.77224,519.53596 325.78612,434.24149 307.92578,341.36328 295.55493,277.03286 239.88776,225.44274 174.65039,223.85937 Z m -24.88867,102.02149 c -0.003,9e-4 -0.005,0.003 -0.008,0.004 -0.005,10e-4 -0.009,4.9e-4 -0.0137,0.002 z"
           id="path136"
           transform="matrix(0.391397,0,0,0.391397,3.318668,-73.603386)" />
      </g>
    </g>
  </g>
</svg>
