<svg xmlns="http://www.w3.org/2000/svg" width="64" height="64"><path fill="#b100c2" stroke="#000" stroke-linecap="round" stroke-linejoin="round" stroke-opacity=".2" d="M29.547 5.176A27 27 0 0 0 5.171 29.61a27.6 27.6 0 0 0 2.128 10.586c4.74 11.43 18.103 19.044 30.328 13.708 8.318-3.631 13.873-13.554 9.7-22.573v-.001a13.83 13.83 0 0 0-6.766-6.75c-2.966-1.36-6.63-1.607-9.937.03a10.06 10.06 0 0 0-4.774 5.003c-.953 2.184-1.089 4.956.215 7.388a7.35 7.35 0 0 0 3.736 3.372c1.63.667 3.787.725 5.605-.348a5.48 5.48 0 0 0 2.408-2.864c.47-1.253.469-3.016-.461-4.42l-.001-.001v-.001c-.565-.852-1.286-1.424-2.299-1.761-.817-.273-1.974-.262-2.991.203.37-.446.799-.85 1.277-1.086h0c1.538-.761 3.095-.675 4.67.048 1.576.722 3.02 2.154 3.764 3.759 2.538 5.487-1.1 11.995-6.595 14.393-8.702 3.798-18.676-1.88-22.227-10.443v-.001C7.611 24.973 15.95 10.54 28.523 5.557l.001-.001h.001q.507-.199 1.021-.38zm1.818 26.39-.005.005-.006.004zm.746 3.134h3.819c-.01.157.03.363-.003.48-.166.59-.382.893-.846 1.248-.612.468-1.53.499-1.963.354-.435-.145-.627-.3-.867-.662v-.001c-.242-.364-.232-.935-.166-1.111.06-.16.074-.17.184-.235-.012-.004-.044-.022-.15-.065zm.158.073c.013.004.004-.005.026-.018-.014.008-.014.01-.026.018"/><path fill="#4a32e5" stroke="#000" stroke-linecap="round" stroke-linejoin="round" stroke-opacity=".2" d="M32 5a27 27 0 0 0-6.89.938C15.01 10.542 8.19 21.717 10.214 33.71c1.939 11.474 12.361 20.555 23.92 18.283 9.312-1.829 16.304-11.114 14.48-21.18-1.456-8.023-8.86-14.431-17.105-12.684h0c-6.537 1.388-11.385 7.932-9.994 15.013v0c1.093 5.547 6.327 10.046 12.198 8.686 4.583-1.062 7.924-5.668 6.845-10.652v-.002c-.832-3.838-4.573-7.023-8.812-5.932a6.6 6.6 0 0 0-3.897 2.816c.92-2.052 2.797-3.645 4.898-4.092 4.548-.963 9.065 2.796 9.994 7.913 1.222 6.743-3.689 13.067-9.757 14.258h-.001c-7.876 1.549-15.439-4.874-16.883-13.42-1.834-10.859 6.01-20.924 15.852-22.733 12.363-2.273 24.014 7.76 26.106 20.95.363 2.287.434 4.548.265 6.754A27 27 0 0 0 59 32 27 27 0 0 0 32 5m1.433 26.006c.489.033 1.105.567 1.293 1.435.043.2-.007.393-.011.59a2.13 2.13 0 0 1-1.119.886h-.001c-.293.099-.609.098-.902.058v-2.542c.009.005.043.002.05.006.101.073.078.064.089.11-.042-.177.26-.49.4-.525l.001-.001h.001a.6.6 0 0 1 .2-.017z"/><path fill="#3724b2" stroke="#000" stroke-linecap="round" stroke-linejoin="round" stroke-opacity=".2" d="M40.042 7.4c-4.235-.11-8.505.743-12.49 2.76h0C22.928 12.5 19.097 16.503 17 21.28c-2.098 4.777-2.373 10.492.478 15.59v.001a14.4 14.4 0 0 0 7.109 6.284c3.027 1.226 6.751 1.297 9.927-.708v-.001a8.86 8.86 0 0 0 3.625-4.495c.69-1.91.645-4.407-.809-6.385a5.5 5.5 0 0 0-2.904-2.068c-1.246-.384-3.077-.26-4.362.888l-.003.003-.003.002c-.622.559-.985 1.127-1.197 2.013-.212.887 0 2.46 1.064 3.362.525.446.857.6 1.559.702.35.052.817.074 1.4-.131.022-.008.045-.032.068-.04-.275.6-.807 1.26-1.32 1.584v-.001c-1.589 1.002-3.24.99-5.019.27s-3.496-2.26-4.422-3.915v0c-1.962-3.509-1.803-7.242-.247-10.783s4.599-6.727 8.046-8.473c8.218-4.16 18.468-2.007 25.582 3.87A27 27 0 0 0 43.885 7.764a29 29 0 0 0-3.843-.363zm-8.409 23.73c.157-.008.294.005.423.017v5.197l-.613-.071c-.771-.182-1.57-.927-1.832-1.515s-.242-.965-.227-1.228c.026-.484-.005-.561.337-1.13.291-.511.864-.98 1.368-1.157a2 2 0 0 1 .545-.113zm2.81 3.875-.085.145c.035-.057.027-.063.056-.111.007-.013.022-.021.028-.034z"/><path fill="#d10083" stroke="#000" stroke-linecap="round" stroke-linejoin="round" stroke-opacity=".2" d="M34.762 13.667a18.6 18.6 0 0 0-4.101.36c-8.722 1.743-15.47 10.175-13.548 19.375 1.496 7.168 8.48 12.71 16.102 11.045 5.88-1.283 10.435-7.055 8.985-13.366-1.107-4.822-5.89-8.556-11.128-7.29-3.965.96-7.043 4.936-5.923 9.307l.001.001v.001c.843 3.278 4.179 5.83 7.863 4.822v-.001c.567-.155 1.081-.447 1.575-.765-.755.676-1.626 1.238-2.646 1.46-4.094.895-8.126-2.302-8.988-6.434-1.186-5.678 3.203-11.17 8.877-12.304h0c7.58-1.516 14.812 4.296 16.255 11.798v0c1.888 9.81-5.613 19.08-15.296 20.875-12.434 2.302-24.098-7.175-26.287-19.395v-.001c-.636-3.542-.505-7.226.33-10.746A27 27 0 0 0 5 31.999c.035 14.065 10.865 25.748 24.888 26.848 1.142.076 1.139.082 2.112.152l2.48-.663c12.756-2.364 22.028-14.475 19.465-27.788-1.779-9.247-9.783-16.66-19.185-16.883zm-3.664 14.248q-.003 0-.005.003h-.006zm4.023 3.006.006.012-.005-.007zm1.847.264.002.005-.002-.003zm-5.578.956h2.676a2 2 0 0 1-.25.749 1.54 1.54 0 0 1-.918.714c-.879.278-1.489-.175-1.653-.732-.134-.455.02-.657.196-.706h-.001l-.002.001c-.01.003-.036-.024-.048-.026m-3.038 1.029.002.003v.001zm4.82 2.31-.01.005.006-.003.005-.001z"/><path fill="#7832f9" stroke="#000" stroke-linecap="round" stroke-linejoin="round" stroke-opacity=".2" d="M35.454 9.507c-1.641-.04-3.317.1-5.01.439C19.83 12.068 11.62 22.334 13.948 33.495v0c1.807 8.657 10.238 15.352 19.4 13.351 7.031-1.535 12.473-8.44 10.75-15.945v0c-1.307-5.697-6.955-10.111-13.104-8.623-4.617 1.118-8.2 5.75-6.903 10.802.964 3.756 4.784 6.676 8.965 5.53h.002c3.071-.843 5.478-4.023 4.448-7.526v-.001c-.154-.525-.438-1.001-.742-1.458.702.73 1.285 1.593 1.518 2.61v.002c.91 3.962-2.191 7.902-6.206 8.78-5.631 1.229-11.112-3.118-12.286-8.742-1.594-7.64 4.261-14.966 11.826-16.479 10.032-2.007 19.551 5.648 21.452 15.532 2.472 12.856-7.313 24.957-19.945 27.3q-1.046.194-2.095.302A27 27 0 0 0 32 59a27 27 0 0 0 27-27 27 27 0 0 0-.064-1.746l-.008-.052c-2.18-11.33-11.984-20.417-23.474-20.696z"/></svg>