<svg xmlns="http://www.w3.org/2000/svg" width="64" height="64" viewBox="0 0 16.933 16.933"><g transform="translate(-.265 -279.8)"><circle cx="8.731" cy="288.27" r="7.144" fill="none" stroke="#9e930e" stroke-linecap="round" stroke-width=".529" opacity=".9" paint-order="fill markers stroke"/><path fill="#eddf36" d="M7.636 281.215a7.14 7.14 0 0 0-5.948 5.91c.587-.627 5.232-5.244 5.948-5.91m3.199.227.02.007zm-2.717.143c-.007-.007-.056.019-.11.058-.162.12-1.626 1.419-2.1 1.863-.246.23-.577.532-.737.67-.16.139-.517.453-.794.7a53 53 0 0 1-.635.558c-.15.125-.662.579-.879.779a6 6 0 0 1-.256.222c-.062.05-.214.18-.337.292-.23.209-.451.387-.598.506a7 7 0 0 0-.085 1.036 7.1 7.1 0 0 0 .526 2.679c.091-.15.222-.351.376-.59l1.313-2.034 1.309-2.028 2.605-4.038c.326-.503.418-.657.402-.673m3.752.277c-.042.075-.103.157-.174.305-1.968 4.114-3.209 8.545-3.413 12.19a79 79 0 0 1-.056.91l-.004.12a7 7 0 0 0 .508.026 7.144 7.144 0 0 0 7.144-7.144 7.14 7.14 0 0 0-4.005-6.407m-9.525 9.604.076.142q-.039-.071-.076-.142m.321.569.098.155zm.456.656.074.088zm.42.48.135.14zm.536.514.063.057zm.548.426.165.111zm.61.383.093.055q-.046-.027-.093-.055m.661.33.14.056q-.07-.028-.14-.057zm.645.24.117.04zm.738.198.116.021zm.66.103.135.014z" paint-order="markers stroke fill"/><path fill="#c63166" stroke="#ab2d58" stroke-width=".529" d="M8.732 281.118a7 7 0 0 0-1.088.088c-.704.655-5.398 5.32-5.966 5.93l-.017.106c.147-.12.374-.302.61-.515.122-.111.274-.243.336-.292.063-.05.178-.15.256-.222.217-.2.729-.654.879-.779.073-.061.36-.313.635-.559.276-.246.634-.56.794-.698.16-.139.491-.44.737-.671.474-.444 1.938-1.742 2.1-1.863.053-.039.103-.065.11-.058.016.016-.076.17-.402.672l-1.185 1.836-2.729 4.23-1.313 2.035c-.155.24-.288.444-.378.594a7.15 7.15 0 0 0 6.111 4.443l.005-.128c.012-.167.037-.577.056-.91.204-3.645 1.445-8.077 3.413-12.19.073-.152.136-.235.178-.313a7.15 7.15 0 0 0-3.142-.736z"/><path fill="#d8d342" d="M8.289 281.151a7.144 7.143 0 0 0-.458.039 7.144 7.143 0 0 1 .458-.039m-6.6 5.982-.002.003a7.144 7.143 0 0 0-.017.104 7.144 7.143 0 0 1 .019-.107"/><path fill="#c63166" d="M8.732 281.118a7 7 0 0 0-1.088.088c-.704.655-5.398 5.32-5.966 5.93l-.017.106c.147-.12.374-.302.61-.515.122-.111.274-.243.336-.292.063-.05.178-.15.256-.222.217-.2.729-.654.879-.779.073-.061.36-.313.635-.559.276-.246.634-.56.794-.698.16-.139.491-.44.737-.671.474-.444 1.938-1.742 2.1-1.863.053-.039.103-.065.11-.058.016.016-.076.17-.402.672l-1.185 1.836-2.729 4.23-1.313 2.035c-.155.24-.288.444-.378.594a7.15 7.15 0 0 0 6.111 4.443l.005-.128c.012-.167.037-.577.056-.91.204-3.645 1.445-8.077 3.413-12.19.073-.152.136-.235.178-.313a7.15 7.15 0 0 0-3.142-.736"/></g></svg>