<svg xmlns="http://www.w3.org/2000/svg" width="64" height="64" viewBox="0 0 16.933 16.933"><g transform="translate(0 -280.07)"><rect width="13.758" height="13.758" x="1.587" y="-295.41" fill="#e6e6e6" overflow="visible" rx=".637" ry=".637" transform="scale(1 -1)"/><rect width="14.023" height="14.023" x="1.455" y="281.52" fill="none" stroke="#555761" stroke-linecap="round" stroke-linejoin="round" stroke-width=".265" opacity=".5" overflow="visible" rx=".765" ry=".765"/><path fill="#bcbcbc" d="M7.824 284.035c-.116 0-.212.447-.268 1.085a3.5 3.5 0 0 0-.854.36c-.494-.414-.88-.664-.961-.582l-.91.91c-.081.081.168.467.582.96a3.5 3.5 0 0 0-.356.854c-.64.057-1.088.153-1.088.269v1.285c0 .116.446.212 1.085.268a3.5 3.5 0 0 0 .357.856c-.412.493-.661.877-.58.96l.91.908c.082.082.466-.166.957-.578a3.5 3.5 0 0 0 .858.353c.056.64.152 1.088.268 1.088H9.11c.116 0 .212-.446.269-1.085a3.5 3.5 0 0 0 .854-.359c.493.414.879.663.96.581l.91-.909c.082-.082-.168-.467-.581-.96a3.5 3.5 0 0 0 .355-.855c.64-.056 1.089-.152 1.089-.268v-1.285c0-.116-.447-.212-1.085-.269a3.5 3.5 0 0 0-.358-.856c.412-.492.662-.877.58-.959l-.91-.909c-.081-.082-.465.167-.957.579a3.5 3.5 0 0 0-.857-.354c-.057-.64-.153-1.088-.269-1.088zm.643 2.892a1.606 1.606 0 0 1 1.606 1.606 1.606 1.606 0 0 1-1.606 1.607 1.606 1.606 0 0 1-1.607-1.607 1.606 1.606 0 0 1 1.607-1.606" overflow="visible" style="isolation:auto;mix-blend-mode:normal"/><path fill="none" stroke="#000" stroke-width=".265" d="M8.468 290.252c.98.03 1.835-.917 1.705-1.891-.071-.979-1.097-1.733-2.05-1.506-.965.17-1.612 1.264-1.293 2.191.21.704.903 1.217 1.638 1.206z" opacity=".1" overflow="visible"/><path fill="none" stroke="#000" stroke-width=".265" d="M7.877 284.168a1 1 0 0 0-.06.182c-.042.18-.08.447-.108.764a.16.16 0 0 1-.117.14 3.4 3.4 0 0 0-.82.344.16.16 0 0 1-.183-.015 6 6 0 0 0-.62-.466 1 1 0 0 0-.172-.088l-.835.835a1 1 0 0 0 .088.172c.098.158.261.375.466.62.044.05.05.124.016.181a3.4 3.4 0 0 0-.342.822.16.16 0 0 1-.14.116 6 6 0 0 0-.765.109 1 1 0 0 0-.184.06v1.18a1 1 0 0 0 .183.059c.179.042.447.08.763.108a.16.16 0 0 1 .14.117 3.4 3.4 0 0 0 .343.822.16.16 0 0 1-.015.183 6 6 0 0 0-.465.618 1 1 0 0 0-.088.172l.835.835a1 1 0 0 0 .171-.088 6 6 0 0 0 .618-.464.16.16 0 0 1 .182-.016 3.4 3.4 0 0 0 .823.34.16.16 0 0 1 .118.14c.028.317.066.585.108.765.02.087.043.15.06.184h1.18a1 1 0 0 0 .059-.183c.043-.179.08-.447.109-.763a.16.16 0 0 1 .116-.14 3.4 3.4 0 0 0 .82-.345.16.16 0 0 1 .183.016c.245.205.462.368.62.466a1 1 0 0 0 .172.088l.835-.835a1 1 0 0 0-.088-.172 6 6 0 0 0-.466-.62.16.16 0 0 1-.016-.182c.15-.257.265-.534.342-.82a.16.16 0 0 1 .14-.118 6 6 0 0 0 .766-.108 1 1 0 0 0 .183-.06v-1.18a1 1 0 0 0-.182-.059 6 6 0 0 0-.764-.109.16.16 0 0 1-.14-.116 3.4 3.4 0 0 0-.343-.823.16.16 0 0 1 .015-.182c.205-.245.368-.461.465-.619a1 1 0 0 0 .088-.171l-.835-.835a1 1 0 0 0-.17.087c-.158.097-.375.26-.618.465a.16.16 0 0 1-.182.015 3.4 3.4 0 0 0-.824-.34.16.16 0 0 1-.117-.139 6 6 0 0 0-.109-.766 1 1 0 0 0-.06-.183z" opacity=".1" overflow="visible" style="isolation:auto;mix-blend-mode:normal"/></g></svg>