<?xml version="1.0" encoding="UTF-8" standalone="no"?>
<!-- Created with Inkscape (http://www.inkscape.org/) -->

<svg
   xmlns:dc="http://purl.org/dc/elements/1.1/"
   xmlns:cc="http://creativecommons.org/ns#"
   xmlns:rdf="http://www.w3.org/1999/02/22-rdf-syntax-ns#"
   xmlns:svg="http://www.w3.org/2000/svg"
   xmlns="http://www.w3.org/2000/svg"
   xmlns:sodipodi="http://sodipodi.sourceforge.net/DTD/sodipodi-0.dtd"
   xmlns:inkscape="http://www.inkscape.org/namespaces/inkscape"
   width="64"
   height="64"
   viewBox="0 0 16.933333 16.933333"
   version="1.1"
   id="svg4572"
   inkscape:version="0.92.4 (5da689c313, 2019-01-14)"
   sodipodi:docname="applications-science.svg">
  <title
     id="title4611">Canvas icon theme</title>
  <defs
     id="defs4566">
    <linearGradient
       id="c"
       gradientUnits="userSpaceOnUse"
       x1="18.245573"
       x2="16.811239"
       y1="29.791063"
       y2="1.104376"
       gradientTransform="matrix(0.16591513,0,0,0.16591513,6.8409668,285.90912)">
      <stop
         offset="0"
         stop-color="#d3d3d3"
         id="stop12" />
      <stop
         offset="1"
         stop-color="#fcf9f9"
         id="stop14" />
    </linearGradient>
  </defs>
  <sodipodi:namedview
     id="base"
     pagecolor="#ffffff"
     bordercolor="#666666"
     borderopacity="1.0"
     inkscape:pageopacity="0.0"
     inkscape:pageshadow="2"
     inkscape:zoom="11.2"
     inkscape:cx="14.277338"
     inkscape:cy="27.58729"
     inkscape:document-units="px"
     inkscape:current-layer="layer1"
     showgrid="true"
     units="px"
     width="64px"
     showguides="true"
     inkscape:guide-bbox="true"
     inkscape:window-width="1366"
     inkscape:window-height="695"
     inkscape:window-x="0"
     inkscape:window-y="32"
     inkscape:window-maximized="0"
     inkscape:snap-bbox="true"
     inkscape:bbox-nodes="true"
     inkscape:snap-bbox-edge-midpoints="true">
    <inkscape:grid
       type="xygrid"
       id="grid4582" />
    <sodipodi:guide
       position="1.0583333,15.875"
       orientation="0,1"
       id="guide4584"
       inkscape:locked="false" />
    <sodipodi:guide
       position="1.0583333,1.0583333"
       orientation="1,0"
       id="guide4586"
       inkscape:locked="false" />
    <sodipodi:guide
       position="15.875,15.875"
       orientation="1,0"
       id="guide4588"
       inkscape:locked="false" />
    <sodipodi:guide
       position="1.0583333,1.0583333"
       orientation="0,1"
       id="guide4590"
       inkscape:locked="false" />
    <sodipodi:guide
       position="8.4666665,8.4666665"
       orientation="0,1"
       id="guide822"
       inkscape:locked="false" />
    <sodipodi:guide
       position="8.4666665,8.4666665"
       orientation="1,0"
       id="guide824"
       inkscape:locked="false" />
  </sodipodi:namedview>
  <metadata
     id="metadata4569">
    <rdf:RDF>
      <cc:Work
         rdf:about="">
        <dc:format>image/svg+xml</dc:format>
        <dc:type
           rdf:resource="http://purl.org/dc/dcmitype/StillImage" />
        <dc:title>Canvas icon theme</dc:title>
        <cc:license
           rdf:resource="http://creativecommons.org/licenses/by-nc-sa/4.0/" />
        <dc:creator>
          <cc:Agent>
            <dc:title>Vince Liuice</dc:title>
          </cc:Agent>
        </dc:creator>
      </cc:Work>
      <cc:License
         rdf:about="http://creativecommons.org/licenses/by-nc-sa/4.0/">
        <cc:permits
           rdf:resource="http://creativecommons.org/ns#Reproduction" />
        <cc:permits
           rdf:resource="http://creativecommons.org/ns#Distribution" />
        <cc:requires
           rdf:resource="http://creativecommons.org/ns#Notice" />
        <cc:requires
           rdf:resource="http://creativecommons.org/ns#Attribution" />
        <cc:prohibits
           rdf:resource="http://creativecommons.org/ns#CommercialUse" />
        <cc:permits
           rdf:resource="http://creativecommons.org/ns#DerivativeWorks" />
        <cc:requires
           rdf:resource="http://creativecommons.org/ns#ShareAlike" />
      </cc:License>
    </rdf:RDF>
  </metadata>
  <g
     inkscape:label="Layer 1"
     inkscape:groupmode="layer"
     id="layer1"
     transform="translate(0,-280.06667)">
    <g
       id="g834">
      <rect
         transform="scale(1,-1)"
         width="13.758333"
         height="13.758333"
         rx="0.63695985"
         ry="0.63695985"
         x="1.5875"
         y="-295.41251"
         id="rect5505-6"
         style="color:#000000;display:inline;overflow:visible;visibility:visible;fill:#48cd7c;fill-opacity:1;fill-rule:nonzero;stroke:none;stroke-width:0.26458332;marker:none;enable-background:accumulate" />
      <rect
         style="color:#000000;display:inline;overflow:visible;visibility:visible;opacity:1;vector-effect:none;fill:none;fill-opacity:1;stroke:#239654;stroke-width:0.26458332;stroke-linecap:round;stroke-linejoin:round;stroke-miterlimit:4;stroke-dasharray:none;stroke-dashoffset:0;stroke-opacity:0.74901962;marker:none;enable-background:accumulate"
         id="rect5505-21-9"
         y="281.52188"
         x="1.4552083"
         ry="0.76488638"
         rx="0.76488638"
         height="14.022917"
         width="14.022917" />
    </g>
    <path
       inkscape:connector-curvature="0"
       style="opacity:0.1;fill:#ffffff;fill-opacity:1;fill-rule:evenodd;stroke:none;stroke-width:0.52916664;stroke-linecap:square;stroke-linejoin:miter;stroke-miterlimit:4;stroke-dasharray:none;stroke-opacity:0.74901961;paint-order:fill markers stroke"
       d="m 2.3812499,281.65416 v 0.79375 h -0.79375 v 0.26458 h 0.79375 v 1.05833 h -0.79375 v 0.26459 h 0.79375 v 1.05833 h -0.79375 v 0.26458 h 0.79375 v 1.05834 h -0.79375 v 0.26458 h 0.79375 v 1.05833 h -0.79375 v 0.26459 h 0.79375 v 1.05833 h -0.79375 v 0.26458 h 0.79375 v 1.05834 h -0.79375 v 0.26458 h 0.79375 v 1.05833 h -0.79375 v 0.26459 h 0.79375 v 1.05833 h -0.79375 v 0.26458 h 0.79375 v 1.05834 h -0.79375 v 0.26458 h 0.79375 v 0.79375 h 0.2645833 v -0.79375 h 1.0583334 v 0.79375 h 0.2645833 v -0.79375 h 1.0583333 v 0.79375 h 0.2645833 v -0.79375 h 1.0583333 v 0.79375 h 0.2645834 v -0.79375 h 1.0583333 v 0.79375 h 0.2645833 v -0.79375 h 1.0583333 v 0.79375 h 0.2645833 v -0.79375 H 10.31875 v 0.79375 h 0.264583 v -0.79375 h 1.058334 v 0.79375 h 0.264583 v -0.79375 h 1.058333 v 0.79375 h 0.264584 v -0.79375 H 14.2875 v 0.79375 h 0.264583 v -0.79375 h 0.79375 v -0.26458 h -0.79375 v -1.05834 h 0.79375 v -0.26458 h -0.79375 v -1.05833 h 0.79375 v -0.26459 h -0.79375 v -1.05833 h 0.79375 v -0.26458 h -0.79375 v -1.05834 h 0.79375 v -0.26458 h -0.79375 v -1.05833 h 0.79375 v -0.26459 h -0.79375 v -1.05833 h 0.79375 v -0.26458 h -0.79375 v -1.05834 h 0.79375 v -0.26458 h -0.79375 v -1.05833 h 0.79375 v -0.26459 h -0.79375 v -1.05833 h 0.79375 v -0.26458 h -0.79375 v -0.79375 H 14.2875 v 0.79375 h -1.058333 v -0.79375 h -0.264584 v 0.79375 H 11.90625 v -0.79375 h -0.264583 v 0.79375 h -1.058334 v -0.79375 H 10.31875 v 0.79375 H 9.2604164 v -0.79375 H 8.9958331 v 0.79375 H 7.9374998 v -0.79375 H 7.6729165 v 0.79375 H 6.6145832 v -0.79375 H 6.3499998 v 0.79375 H 5.2916665 v -0.79375 H 5.0270832 v 0.79375 H 3.9687499 v -0.79375 H 3.7041666 v 0.79375 H 2.6458332 v -0.79375 z m 0.2645833,1.05833 h 1.0583334 v 1.05833 H 2.6458332 Z m 1.3229167,0 h 1.0583333 v 1.05833 H 3.9687499 Z m 1.3229166,0 h 1.0583333 v 1.05833 H 5.2916665 Z m 1.3229167,0 h 1.0583333 v 1.05833 H 6.6145832 Z m 1.3229166,0 h 1.0583333 v 1.05833 H 7.9374998 Z m 1.3229166,0 H 10.31875 v 1.05833 H 9.2604164 Z m 1.3229166,0 h 1.058334 v 1.05833 h -1.058334 z m 1.322917,0 h 1.058333 v 1.05833 H 11.90625 Z m 1.322917,0 H 14.2875 v 1.05833 h -1.058333 z m -10.5833338,1.32292 h 1.0583334 v 1.05833 H 2.6458332 Z m 1.3229167,0 h 1.0583333 v 1.05833 H 3.9687499 Z m 1.3229166,0 h 1.0583333 v 1.05833 H 5.2916665 Z m 1.3229167,0 h 1.0583333 v 1.05833 H 6.6145832 Z m 1.3229166,0 h 1.0583333 v 1.05833 H 7.9374998 Z m 1.3229166,0 H 10.31875 v 1.05833 H 9.2604164 Z m 1.3229166,0 h 1.058334 v 1.05833 h -1.058334 z m 1.322917,0 h 1.058333 v 1.05833 H 11.90625 Z m 1.322917,0 H 14.2875 v 1.05833 h -1.058333 z m -10.5833338,1.32291 h 1.0583334 v 1.05834 H 2.6458332 Z m 1.3229167,0 h 1.0583333 v 1.05834 H 3.9687499 Z m 1.3229166,0 h 1.0583333 v 1.05834 H 5.2916665 Z m 1.3229167,0 h 1.0583333 v 1.05834 H 6.6145832 Z m 1.3229166,0 h 1.0583333 v 1.05834 H 7.9374998 Z m 1.3229166,0 H 10.31875 v 1.05834 H 9.2604164 Z m 1.3229166,0 h 1.058334 v 1.05834 h -1.058334 z m 1.322917,0 h 1.058333 v 1.05834 H 11.90625 Z m 1.322917,0 H 14.2875 v 1.05834 h -1.058333 z m -10.5833338,1.32292 h 1.0583334 v 1.05833 H 2.6458332 Z m 1.3229167,0 h 1.0583333 v 1.05833 H 3.9687499 Z m 1.3229166,0 h 1.0583333 v 1.05833 H 5.2916665 Z m 1.3229167,0 h 1.0583333 v 1.05833 H 6.6145832 Z m 1.3229166,0 h 1.0583333 v 1.05833 H 7.9374998 Z m 1.3229166,0 H 10.31875 v 1.05833 H 9.2604164 Z m 1.3229166,0 h 1.058334 v 1.05833 h -1.058334 z m 1.322917,0 h 1.058333 v 1.05833 H 11.90625 Z m 1.322917,0 H 14.2875 v 1.05833 h -1.058333 z m -10.5833338,1.32292 h 1.0583334 v 1.05833 H 2.6458332 Z m 1.3229167,0 h 1.0583333 v 1.05833 H 3.9687499 Z m 1.3229166,0 h 1.0583333 v 1.05833 H 5.2916665 Z m 1.3229167,0 h 1.0583333 v 1.05833 H 6.6145832 Z m 1.3229166,0 h 1.0583333 v 1.05833 H 7.9374998 Z m 1.3229166,0 H 10.31875 v 1.05833 H 9.2604164 Z m 1.3229166,0 h 1.058334 v 1.05833 h -1.058334 z m 1.322917,0 h 1.058333 v 1.05833 H 11.90625 Z m 1.322917,0 H 14.2875 v 1.05833 h -1.058333 z m -10.5833338,1.32291 h 1.0583334 v 1.05834 H 2.6458332 Z m 1.3229167,0 h 1.0583333 v 1.05834 H 3.9687499 Z m 1.3229166,0 h 1.0583333 v 1.05834 H 5.2916665 Z m 1.3229167,0 h 1.0583333 v 1.05834 H 6.6145832 Z m 1.3229166,0 h 1.0583333 v 1.05834 H 7.9374998 Z m 1.3229166,0 H 10.31875 v 1.05834 H 9.2604164 Z m 1.3229166,0 h 1.058334 v 1.05834 h -1.058334 z m 1.322917,0 h 1.058333 v 1.05834 H 11.90625 Z m 1.322917,0 H 14.2875 v 1.05834 h -1.058333 z m -10.5833338,1.32292 h 1.0583334 v 1.05833 H 2.6458332 Z m 1.3229167,0 h 1.0583333 v 1.05833 H 3.9687499 Z m 1.3229166,0 h 1.0583333 v 1.05833 H 5.2916665 Z m 1.3229167,0 h 1.0583333 v 1.05833 H 6.6145832 Z m 1.3229166,0 h 1.0583333 v 1.05833 H 7.9374998 Z m 1.3229166,0 H 10.31875 v 1.05833 H 9.2604164 Z m 1.3229166,0 h 1.058334 v 1.05833 h -1.058334 z m 1.322917,0 h 1.058333 v 1.05833 H 11.90625 Z m 1.322917,0 H 14.2875 v 1.05833 h -1.058333 z m -10.5833338,1.32292 h 1.0583334 v 1.05833 H 2.6458332 Z m 1.3229167,0 h 1.0583333 v 1.05833 H 3.9687499 Z m 1.3229166,0 h 1.0583333 v 1.05833 H 5.2916665 Z m 1.3229167,0 h 1.0583333 v 1.05833 H 6.6145832 Z m 1.3229166,0 h 1.0583333 v 1.05833 H 7.9374998 Z m 1.3229166,0 H 10.31875 v 1.05833 H 9.2604164 Z m 1.3229166,0 h 1.058334 v 1.05833 h -1.058334 z m 1.322917,0 h 1.058333 v 1.05833 H 11.90625 Z m 1.322917,0 H 14.2875 v 1.05833 h -1.058333 z m -10.5833338,1.32291 h 1.0583334 v 1.05834 H 2.6458332 Z m 1.3229167,0 h 1.0583333 v 1.05834 H 3.9687499 Z m 1.3229166,0 h 1.0583333 v 1.05834 H 5.2916665 Z m 1.3229167,0 h 1.0583333 v 1.05834 H 6.6145832 Z m 1.3229166,0 h 1.0583333 v 1.05834 H 7.9374998 Z m 1.3229166,0 H 10.31875 v 1.05834 H 9.2604164 Z m 1.3229166,0 h 1.058334 v 1.05834 h -1.058334 z m 1.322917,0 h 1.058333 v 1.05834 H 11.90625 Z m 1.322917,0 H 14.2875 v 1.05834 h -1.058333 z"
       id="rect839" />
    <path
       d="m 12.680552,285.3817 c -0.08229,-0.31166 -0.401116,-0.49774 -0.712771,-0.41572 -0.312186,0.082 -0.498277,0.40112 -0.416248,0.71304 0.03875,0.14624 0.129552,0.2644 0.247678,0.34086 -0.0284,0.42846 -0.156096,0.95035 -0.533318,1.40669 -1.063186,-1.2129 -1.5120849,-1.708 -1.7199449,-1.90842 0.11096,-0.0704 0.204675,-0.11406 0.266527,-0.13888 0.140432,0.1168 0.3328929,0.16699 0.5229669,0.1168 0.311388,-0.0821 0.497745,-0.40139 0.41545,-0.71277 -0.08256,-0.31193 -0.401912,-0.49828 -0.713302,-0.41652 -0.2338749,0.0616 -0.3968699,0.25644 -0.4295229,0.48129 -0.4396077,0.18663 -1.9402776,1.01727 -1.7164919,3.60554 -1.6434886,0.0479 -2.5078409,0.48288 -2.900993,0.76693 -0.101136,-0.0319 -0.2118417,-0.0369 -0.3220082,-0.008 -0.3116561,0.0829 -0.4977457,0.40138 -0.4159825,0.71356 0.082288,0.31192 0.4013809,0.49828 0.7130371,0.41546 0.2569696,-0.0673 0.4284593,-0.29652 0.4345649,-0.54924 l 1.7180854,1.80356 c -0.040352,0.0249 -0.079904,0.048 -0.1184,0.0681 -0.1369761,-0.0999 -0.3159025,-0.13936 -0.4927026,-0.0937 -0.3116545,0.0823 -0.4980114,0.40165 -0.4159825,0.71357 0.082288,0.31192 0.4013825,0.49827 0.7133026,0.41571 0.2431649,-0.0636 0.4090802,-0.27236 0.4319106,-0.50915 0.8038259,-0.39927 1.4693445,-1.37989 1.2957301,-3.16832 0.5157989,-10e-4 0.991246,-0.0605 1.418377,-0.17281 0.6387079,-0.16806 1.1696359,-0.45554 1.5718149,-0.85719 0.507301,-0.50731 0.796924,-1.17176 0.8463,-1.93551 0.247412,-0.11888 0.384658,-0.39979 0.31192,-0.67507 z m -5.3334442,6.03904 -1.7926806,-1.88161 c 0.114944,-0.0624 0.2575009,-0.12928 0.4332385,-0.19352 l 1.679327,1.67323 c -0.096096,0.16538 -0.2062656,0.29704 -0.3198849,0.4019 z m 0.4515554,-0.67401 -1.5043862,-1.49907 c 0.2312193,-0.0648 0.5049138,-0.1224 0.8255939,-0.16246 l 0.8606356,0.82134 c -0.025216,0.33475 -0.090784,0.61163 -0.1818433,0.84019 z m -0.3047537,-1.70056 c 0.146528,-0.0114 0.3013025,-0.0192 0.464829,-0.0229 0.019376,0.1768 0.029472,0.3422 0.032128,0.49695 z m 0.9716003,-0.59437 c -0.037424,-0.3929 -0.031584,-0.73826 0.00496,-1.04062 l 0.8401942,0.9854 c -0.2644023,0.0383 -0.5468565,0.0568 -0.845239,0.0552 z m 1.1709623,-0.11348 -1.1027382,-1.29282 c 0.058928,-0.25564 0.14096,-0.47438 0.2367937,-0.66126 0.3581124,0.38678 1.0233665,1.13724 1.5497824,1.73612 -0.209187,0.0913 -0.4377509,0.16407 -0.6838379,0.21796 z m 0.9482389,-0.34935 c -0.9333719,-1.06479 -1.409615,-1.59599 -1.663665,-1.86011 0.1271517,-0.18662 0.2646671,-0.33182 0.3958065,-0.44253 0.2248506,0.22219 1.0974315,1.20441 1.7525975,1.94984 -0.142032,0.13328 -0.304752,0.25112 -0.484739,0.3528 z"
       id="path830"
       style="opacity:1;fill:#ffffff;stroke:none;stroke-width:0.26458332;stroke-miterlimit:4;stroke-dasharray:none;stroke-opacity:0.25490196"
       inkscape:connector-curvature="0" />
  </g>
</svg>
