<svg xmlns="http://www.w3.org/2000/svg" width="64" height="64" viewBox="0 0 16.933 16.933"><g color="#000" transform="translate(0 -280.067)"><rect width="13.758" height="13.758" x="1.587" y="-295.413" fill="#48cd7c" overflow="visible" rx=".637" ry=".637" style="marker:none" transform="scale(1 -1)"/><rect width="14.023" height="14.023" x="1.455" y="281.522" fill="none" stroke="#239654" stroke-linecap="round" stroke-linejoin="round" stroke-opacity=".749" stroke-width=".265" overflow="visible" rx=".765" ry=".765" style="marker:none"/></g><path fill="#fff" fill-rule="evenodd" d="M2.381 1.587v.794h-.794v.265h.794v1.058h-.794v.265h.794v1.058h-.794v.265h.794V6.35h-.794v.265h.794v1.058h-.794v.264h.794v1.059h-.794v.264h.794v1.059h-.794v.264h.794v1.059h-.794v.264h.794v1.059h-.794v.264h.794v1.058h-.794v.265h.794v.794h.265v-.794h1.058v.794h.265v-.794h1.058v.794h.265v-.794H6.35v.794h.265v-.794h1.058v.794h.264v-.794h1.059v.794h.264v-.794h1.059v.794h.264v-.794h1.059v.794h.264v-.794h1.059v.794h.264v-.794h1.059v.794h.264v-.794h.794v-.265h-.794V13.23h.794v-.264h-.794v-1.059h.794v-.264h-.794v-1.059h.794v-.264h-.794V9.26h.794v-.264h-.794V7.937h.794v-.264h-.794V6.615h.794V6.35h-.794V5.292h.794v-.265h-.794V3.97h.794v-.265h-.794V2.646h.794V2.38h-.794v-.794h-.264v.794h-1.059v-.794h-.264v.794h-1.059v-.794h-.264v.794h-1.059v-.794h-.264v.794H9.26v-.794h-.264v.794H7.937v-.794h-.264v.794H6.615v-.794H6.35v.794H5.292v-.794h-.265v.794H3.97v-.794h-.265v.794H2.646v-.794zm.265 1.059h1.058v1.058H2.646zm1.323 0h1.058v1.058H3.97zm1.323 0H6.35v1.058H5.292zm1.323 0h1.058v1.058H6.615zm1.322 0h1.059v1.058H7.937zm1.323 0h1.059v1.058H9.26zm1.323 0h1.059v1.058h-1.059zm1.323 0h1.059v1.058h-1.059zm1.323 0h1.059v1.058h-1.059zM2.646 3.969h1.058v1.058H2.646zm1.323 0h1.058v1.058H3.97zm1.323 0H6.35v1.058H5.292zm1.323 0h1.058v1.058H6.615zm1.322 0h1.059v1.058H7.937zm1.323 0h1.059v1.058H9.26zm1.323 0h1.059v1.058h-1.059zm1.323 0h1.059v1.058h-1.059zm1.323 0h1.059v1.058h-1.059zM2.646 5.292h1.058V6.35H2.646zm1.323 0h1.058V6.35H3.97zm1.323 0H6.35V6.35H5.292zm1.323 0h1.058V6.35H6.615zm1.322 0h1.059V6.35H7.937zm1.323 0h1.059V6.35H9.26zm1.323 0h1.059V6.35h-1.059zm1.323 0h1.059V6.35h-1.059zm1.323 0h1.059V6.35h-1.059zM2.646 6.615h1.058v1.058H2.646zm1.323 0h1.058v1.058H3.97zm1.323 0H6.35v1.058H5.292zm1.323 0h1.058v1.058H6.615zm1.322 0h1.059v1.058H7.937zm1.323 0h1.059v1.058H9.26zm1.323 0h1.059v1.058h-1.059zm1.323 0h1.059v1.058h-1.059zm1.323 0h1.059v1.058h-1.059zM2.646 7.937h1.058v1.059H2.646zm1.323 0h1.058v1.059H3.97zm1.323 0H6.35v1.059H5.292zm1.323 0h1.058v1.059H6.615zm1.322 0h1.059v1.059H7.937zm1.323 0h1.059v1.059H9.26zm1.323 0h1.059v1.059h-1.059zm1.323 0h1.059v1.059h-1.059zm1.323 0h1.059v1.059h-1.059zM2.646 9.26h1.058v1.059H2.646zm1.323 0h1.058v1.059H3.97zm1.323 0H6.35v1.059H5.292zm1.323 0h1.058v1.059H6.615zm1.322 0h1.059v1.059H7.937zm1.323 0h1.059v1.059H9.26zm1.323 0h1.059v1.059h-1.059zm1.323 0h1.059v1.059h-1.059zm1.323 0h1.059v1.059h-1.059zM2.646 10.583h1.058v1.059H2.646zm1.323 0h1.058v1.059H3.97zm1.323 0H6.35v1.059H5.292zm1.323 0h1.058v1.059H6.615zm1.322 0h1.059v1.059H7.937zm1.323 0h1.059v1.059H9.26zm1.323 0h1.059v1.059h-1.059zm1.323 0h1.059v1.059h-1.059zm1.323 0h1.059v1.059h-1.059zM2.646 11.906h1.058v1.059H2.646zm1.323 0h1.058v1.059H3.97zm1.323 0H6.35v1.059H5.292zm1.323 0h1.058v1.059H6.615zm1.322 0h1.059v1.059H7.937zm1.323 0h1.059v1.059H9.26zm1.323 0h1.059v1.059h-1.059zm1.323 0h1.059v1.059h-1.059zm1.323 0h1.059v1.059h-1.059zM2.646 13.23h1.058v1.058H2.646zm1.323 0h1.058v1.058H3.97zm1.323 0H6.35v1.058H5.292zm1.323 0h1.058v1.058H6.615zm1.322 0h1.059v1.058H7.937zm1.323 0h1.059v1.058H9.26zm1.323 0h1.059v1.058h-1.059zm1.323 0h1.059v1.058h-1.059zm1.323 0h1.059v1.058h-1.059z" opacity=".1" paint-order="fill markers stroke"/><path fill="#fff" d="M12.68 5.315a.584.584 0 1 0-.88.638c-.03.429-.157.95-.534 1.407-1.063-1.213-1.512-1.708-1.72-1.909a1.6 1.6 0 0 1 .266-.138c.14.116.333.167.523.116a.583.583 0 1 0-.727-.648c-.44.187-1.94 1.018-1.716 3.606-1.644.048-2.508.483-2.901.767a.585.585 0 1 0-.025 1.121.58.58 0 0 0 .434-.55l1.718 1.804q-.06.038-.118.068a.584.584 0 1 0 .237.526c.803-.399 1.469-1.38 1.295-3.168q.776-.002 1.419-.172c.638-.168 1.17-.456 1.571-.858.508-.507.797-1.171.847-1.935a.584.584 0 0 0 .312-.675zm-5.333 6.04L5.554 9.471q.171-.095.434-.193l1.679 1.673a1.7 1.7 0 0 1-.32.402zm.452-.675L6.294 9.181a5.6 5.6 0 0 1 .826-.162l.86.82c-.025.336-.09.613-.181.841m-.305-1.7a7 7 0 0 1 .465-.023q.03.264.032.497zm.972-.595a5 5 0 0 1 .004-1.04l.84.985a6 6 0 0 1-.845.055zm1.17-.113L8.534 6.979a2.8 2.8 0 0 1 .237-.661 113 113 0 0 1 1.55 1.736q-.315.137-.685.218m.949-.35c-.934-1.064-1.41-1.596-1.664-1.86.127-.186.265-.332.396-.442.225.222 1.097 1.204 1.752 1.95a2.5 2.5 0 0 1-.484.352"/></svg>