<?xml version="1.0" encoding="UTF-8" standalone="no"?>
<!-- Created with Inkscape (http://www.inkscape.org/) -->

<svg
   xmlns:dc="http://purl.org/dc/elements/1.1/"
   xmlns:cc="http://creativecommons.org/ns#"
   xmlns:rdf="http://www.w3.org/1999/02/22-rdf-syntax-ns#"
   xmlns:svg="http://www.w3.org/2000/svg"
   xmlns="http://www.w3.org/2000/svg"
   xmlns:sodipodi="http://sodipodi.sourceforge.net/DTD/sodipodi-0.dtd"
   xmlns:inkscape="http://www.inkscape.org/namespaces/inkscape"
   width="64"
   height="64"
   viewBox="0 0 16.933333 16.933333"
   version="1.1"
   id="svg4572"
   inkscape:version="0.92.4 (5da689c313, 2019-01-14)"
   sodipodi:docname="applications-education.svg">
  <title
     id="title4611">Canvas icon theme</title>
  <defs
     id="defs4566" />
  <sodipodi:namedview
     id="base"
     pagecolor="#ffffff"
     bordercolor="#666666"
     borderopacity="1.0"
     inkscape:pageopacity="0.0"
     inkscape:pageshadow="2"
     inkscape:zoom="7.919596"
     inkscape:cx="39.11798"
     inkscape:cy="31.229202"
     inkscape:document-units="px"
     inkscape:current-layer="layer1"
     showgrid="true"
     units="px"
     width="64px"
     showguides="true"
     inkscape:guide-bbox="true"
     inkscape:window-width="1366"
     inkscape:window-height="706"
     inkscape:window-x="0"
     inkscape:window-y="32"
     inkscape:window-maximized="1"
     inkscape:snap-bbox="true"
     inkscape:bbox-nodes="true"
     inkscape:snap-bbox-edge-midpoints="false"
     inkscape:snap-nodes="false">
    <inkscape:grid
       type="xygrid"
       id="grid4582" />
    <sodipodi:guide
       position="1.0583333,15.875"
       orientation="0,1"
       id="guide4584"
       inkscape:locked="false" />
    <sodipodi:guide
       position="1.0583333,1.0583333"
       orientation="1,0"
       id="guide4586"
       inkscape:locked="false" />
    <sodipodi:guide
       position="15.875,15.875"
       orientation="1,0"
       id="guide4588"
       inkscape:locked="false" />
    <sodipodi:guide
       position="1.0583333,1.0583333"
       orientation="0,1"
       id="guide4590"
       inkscape:locked="false" />
    <sodipodi:guide
       position="8.4666665,8.4666665"
       orientation="0,1"
       id="guide822"
       inkscape:locked="false" />
    <sodipodi:guide
       position="8.4666665,8.4666665"
       orientation="1,0"
       id="guide824"
       inkscape:locked="false" />
  </sodipodi:namedview>
  <metadata
     id="metadata4569">
    <rdf:RDF>
      <cc:Work
         rdf:about="">
        <dc:format>image/svg+xml</dc:format>
        <dc:type
           rdf:resource="http://purl.org/dc/dcmitype/StillImage" />
        <dc:title>Canvas icon theme</dc:title>
        <cc:license
           rdf:resource="http://creativecommons.org/licenses/by-nc-sa/4.0/" />
        <dc:creator>
          <cc:Agent>
            <dc:title>Vince Liuice</dc:title>
          </cc:Agent>
        </dc:creator>
      </cc:Work>
      <cc:License
         rdf:about="http://creativecommons.org/licenses/by-nc-sa/4.0/">
        <cc:permits
           rdf:resource="http://creativecommons.org/ns#Reproduction" />
        <cc:permits
           rdf:resource="http://creativecommons.org/ns#Distribution" />
        <cc:requires
           rdf:resource="http://creativecommons.org/ns#Notice" />
        <cc:requires
           rdf:resource="http://creativecommons.org/ns#Attribution" />
        <cc:prohibits
           rdf:resource="http://creativecommons.org/ns#CommercialUse" />
        <cc:permits
           rdf:resource="http://creativecommons.org/ns#DerivativeWorks" />
        <cc:requires
           rdf:resource="http://creativecommons.org/ns#ShareAlike" />
      </cc:License>
    </rdf:RDF>
  </metadata>
  <g
     inkscape:label="Layer 1"
     inkscape:groupmode="layer"
     id="layer1"
     transform="translate(0,-280.06667)">
    <g
       id="g834">
      <rect
         transform="scale(1,-1)"
         width="13.758333"
         height="13.758333"
         rx="0.63695985"
         ry="0.63695985"
         x="1.5875"
         y="-295.41251"
         id="rect5505-6"
         style="color:#000000;display:inline;overflow:visible;visibility:visible;fill:#34b05c;fill-opacity:1;fill-rule:nonzero;stroke:none;stroke-width:0.26458332;marker:none;enable-background:accumulate" />
      <rect
         style="color:#000000;display:inline;overflow:visible;visibility:visible;opacity:1;vector-effect:none;fill:none;fill-opacity:1;stroke:#1d793d;stroke-width:0.26458332;stroke-linecap:round;stroke-linejoin:round;stroke-miterlimit:4;stroke-dasharray:none;stroke-dashoffset:0;stroke-opacity:0.74901962;marker:none;enable-background:accumulate"
         id="rect5505-21-9"
         y="281.52188"
         x="1.4552083"
         ry="0.76488638"
         rx="0.76488638"
         height="14.022917"
         width="14.022917" />
    </g>
    <path
       style="opacity:0.1;fill:#ffffff;fill-opacity:1;fill-rule:evenodd;stroke:none;stroke-width:1.99999988;stroke-linecap:square;stroke-linejoin:miter;stroke-miterlimit:4;stroke-dasharray:none;stroke-opacity:0.74901961;paint-order:fill markers stroke"
       d="M 9 6 L 9 9 L 6 9 L 6 10 L 9 10 L 9 14 L 6 14 L 6 15 L 9 15 L 9 19 L 6 19 L 6 20 L 9 20 L 9 24 L 6 24 L 6 25 L 9 25 L 9 29 L 6 29 L 6 30 L 9 30 L 9 34 L 6 34 L 6 35 L 9 35 L 9 39 L 6 39 L 6 40 L 9 40 L 9 44 L 6 44 L 6 45 L 9 45 L 9 49 L 6 49 L 6 50 L 9 50 L 9 54 L 6 54 L 6 55 L 9 55 L 9 58 L 10 58 L 10 55 L 14 55 L 14 58 L 15 58 L 15 55 L 19 55 L 19 58 L 20 58 L 20 55 L 24 55 L 24 58 L 25 58 L 25 55 L 29 55 L 29 58 L 30 58 L 30 55 L 34 55 L 34 58 L 35 58 L 35 55 L 39 55 L 39 58 L 40 58 L 40 55 L 44 55 L 44 58 L 45 58 L 45 55 L 49 55 L 49 58 L 50 58 L 50 55 L 54 55 L 54 58 L 55 58 L 55 55 L 58 55 L 58 54 L 55 54 L 55 50 L 58 50 L 58 49 L 55 49 L 55 45 L 58 45 L 58 44 L 55 44 L 55 40 L 58 40 L 58 39 L 55 39 L 55 35 L 58 35 L 58 34 L 55 34 L 55 30 L 58 30 L 58 29 L 55 29 L 55 25 L 58 25 L 58 24 L 55 24 L 55 20 L 58 20 L 58 19 L 55 19 L 55 15 L 58 15 L 58 14 L 55 14 L 55 10 L 58 10 L 58 9 L 55 9 L 55 6 L 54 6 L 54 9 L 50 9 L 50 6 L 49 6 L 49 9 L 45 9 L 45 6 L 44 6 L 44 9 L 40 9 L 40 6 L 39 6 L 39 9 L 35 9 L 35 6 L 34 6 L 34 9 L 30 9 L 30 6 L 29 6 L 29 9 L 25 9 L 25 6 L 24 6 L 24 9 L 20 9 L 20 6 L 19 6 L 19 9 L 15 9 L 15 6 L 14 6 L 14 9 L 10 9 L 10 6 L 9 6 z M 10 10 L 14 10 L 14 14 L 10 14 L 10 10 z M 15 10 L 19 10 L 19 14 L 15 14 L 15 10 z M 20 10 L 24 10 L 24 14 L 20 14 L 20 10 z M 25 10 L 29 10 L 29 14 L 25 14 L 25 10 z M 30 10 L 34 10 L 34 14 L 30 14 L 30 10 z M 35 10 L 39 10 L 39 14 L 35 14 L 35 10 z M 40 10 L 44 10 L 44 14 L 40 14 L 40 10 z M 45 10 L 49 10 L 49 14 L 45 14 L 45 10 z M 50 10 L 54 10 L 54 14 L 50 14 L 50 10 z M 10 15 L 14 15 L 14 19 L 10 19 L 10 15 z M 15 15 L 19 15 L 19 19 L 15 19 L 15 15 z M 20 15 L 24 15 L 24 19 L 20 19 L 20 15 z M 25 15 L 29 15 L 29 19 L 25 19 L 25 15 z M 30 15 L 34 15 L 34 19 L 30 19 L 30 15 z M 35 15 L 39 15 L 39 19 L 35 19 L 35 15 z M 40 15 L 44 15 L 44 19 L 40 19 L 40 15 z M 45 15 L 49 15 L 49 19 L 45 19 L 45 15 z M 50 15 L 54 15 L 54 19 L 50 19 L 50 15 z M 10 20 L 14 20 L 14 24 L 10 24 L 10 20 z M 15 20 L 19 20 L 19 24 L 15 24 L 15 20 z M 20 20 L 24 20 L 24 24 L 20 24 L 20 20 z M 25 20 L 29 20 L 29 24 L 25 24 L 25 20 z M 30 20 L 34 20 L 34 24 L 30 24 L 30 20 z M 35 20 L 39 20 L 39 24 L 35 24 L 35 20 z M 40 20 L 44 20 L 44 24 L 40 24 L 40 20 z M 45 20 L 49 20 L 49 24 L 45 24 L 45 20 z M 50 20 L 54 20 L 54 24 L 50 24 L 50 20 z M 10 25 L 14 25 L 14 29 L 10 29 L 10 25 z M 15 25 L 19 25 L 19 29 L 15 29 L 15 25 z M 20 25 L 24 25 L 24 29 L 20 29 L 20 25 z M 25 25 L 29 25 L 29 29 L 25 29 L 25 25 z M 30 25 L 34 25 L 34 29 L 30 29 L 30 25 z M 35 25 L 39 25 L 39 29 L 35 29 L 35 25 z M 40 25 L 44 25 L 44 29 L 40 29 L 40 25 z M 45 25 L 49 25 L 49 29 L 45 29 L 45 25 z M 50 25 L 54 25 L 54 29 L 50 29 L 50 25 z M 10 30 L 14 30 L 14 34 L 10 34 L 10 30 z M 15 30 L 19 30 L 19 34 L 15 34 L 15 30 z M 20 30 L 24 30 L 24 34 L 20 34 L 20 30 z M 25 30 L 29 30 L 29 34 L 25 34 L 25 30 z M 30 30 L 34 30 L 34 34 L 30 34 L 30 30 z M 35 30 L 39 30 L 39 34 L 35 34 L 35 30 z M 40 30 L 44 30 L 44 34 L 40 34 L 40 30 z M 45 30 L 49 30 L 49 34 L 45 34 L 45 30 z M 50 30 L 54 30 L 54 34 L 50 34 L 50 30 z M 10 35 L 14 35 L 14 39 L 10 39 L 10 35 z M 15 35 L 19 35 L 19 39 L 15 39 L 15 35 z M 20 35 L 24 35 L 24 39 L 20 39 L 20 35 z M 25 35 L 29 35 L 29 39 L 25 39 L 25 35 z M 30 35 L 34 35 L 34 39 L 30 39 L 30 35 z M 35 35 L 39 35 L 39 39 L 35 39 L 35 35 z M 40 35 L 44 35 L 44 39 L 40 39 L 40 35 z M 45 35 L 49 35 L 49 39 L 45 39 L 45 35 z M 50 35 L 54 35 L 54 39 L 50 39 L 50 35 z M 10 40 L 14 40 L 14 44 L 10 44 L 10 40 z M 15 40 L 19 40 L 19 44 L 15 44 L 15 40 z M 20 40 L 24 40 L 24 44 L 20 44 L 20 40 z M 25 40 L 29 40 L 29 44 L 25 44 L 25 40 z M 30 40 L 34 40 L 34 44 L 30 44 L 30 40 z M 35 40 L 39 40 L 39 44 L 35 44 L 35 40 z M 40 40 L 44 40 L 44 44 L 40 44 L 40 40 z M 45 40 L 49 40 L 49 44 L 45 44 L 45 40 z M 50 40 L 54 40 L 54 44 L 50 44 L 50 40 z M 10 45 L 14 45 L 14 49 L 10 49 L 10 45 z M 15 45 L 19 45 L 19 49 L 15 49 L 15 45 z M 20 45 L 24 45 L 24 49 L 20 49 L 20 45 z M 25 45 L 29 45 L 29 49 L 25 49 L 25 45 z M 30 45 L 34 45 L 34 49 L 30 49 L 30 45 z M 35 45 L 39 45 L 39 49 L 35 49 L 35 45 z M 40 45 L 44 45 L 44 49 L 40 49 L 40 45 z M 45 45 L 49 45 L 49 49 L 45 49 L 45 45 z M 50 45 L 54 45 L 54 49 L 50 49 L 50 45 z M 10 50 L 14 50 L 14 54 L 10 54 L 10 50 z M 15 50 L 19 50 L 19 54 L 15 54 L 15 50 z M 20 50 L 24 50 L 24 54 L 20 54 L 20 50 z M 25 50 L 29 50 L 29 54 L 25 54 L 25 50 z M 30 50 L 34 50 L 34 54 L 30 54 L 30 50 z M 35 50 L 39 50 L 39 54 L 35 54 L 35 50 z M 40 50 L 44 50 L 44 54 L 40 54 L 40 50 z M 45 50 L 49 50 L 49 54 L 45 54 L 45 50 z M 50 50 L 54 50 L 54 54 L 50 54 L 50 50 z "
       transform="matrix(0.26458333,0,0,0.26458333,0,280.06667)"
       id="rect839" />
    <path
       id="path840"
       transform="matrix(0.26458333,0,0,0.26458333,0,280.06667)"
       d="M 32 20 L 16 26.400391 L 32 32.800781 L 44 28 L 44 30.810547 A 2.5000126 2.5000126 0 0 0 42.5 33.099609 A 2.5000126 2.5000126 0 0 0 44.078125 35.419922 L 42.75 40 L 47.550781 40 L 46.185547 35.298828 A 2.5000126 2.5000126 0 0 0 47.5 33.099609 A 2.5000126 2.5000126 0 0 0 46 30.810547 L 46 27.201172 L 48 26.400391 L 32 20 z M 24 32 L 24 40.400391 A 8.0000403 3.6000183 0 0 0 32 44 A 8.0000403 3.6000183 0 0 0 40 40.400391 L 40 32 L 32 35.384766 L 24 32 z "
       style="opacity:1;fill:#ffffff;fill-opacity:1;fill-rule:nonzero;stroke:none;stroke-width:0.99999999;stroke-opacity:0.25490198;stroke-miterlimit:4;stroke-dasharray:none" />
  </g>
</svg>
