<svg xmlns="http://www.w3.org/2000/svg" width="64" height="64"><rect width="53" height="53" x="5.5" y="5.5" fill="#67748d" color="#000" overflow="visible" rx="2.891" ry="2.891" style="marker:none"/><rect width="53" height="53" x="5.5" y="5.5" fill="none" stroke="#1c2c38" stroke-linecap="round" stroke-linejoin="round" color="#000" opacity=".5" overflow="visible" rx="2.891" ry="2.891" style="marker:none"/><path fill="#f9f9f9" d="M35.574 16c-3.978 0-7.423 2.274-9.131 5.574a7.1 7.1 0 0 0-3.826-1.115c-3.948 0-7.149 3.195-7.149 7.136 0 .626.1 1.232.251 1.811A10.69 10.69 0 0 0 11 38.297C11 44.227 15.783 49 21.723 49h20.554C48.217 49 53 44.227 53 38.297c0-4.735-3.063-8.726-7.316-10.145.115-.615.167-1.246.167-1.895 0-5.665-4.6-10.257-10.277-10.257" color="#000" overflow="visible" style="marker:none"/></svg>