<svg xmlns="http://www.w3.org/2000/svg" width="64" height="64" viewBox="0 0 16.933 16.933"><g transform="translate(0 -280.067)"><rect width="14.023" height="14.023" x="1.455" y="281.522" fill="none" stroke="#101d50" stroke-linecap="round" stroke-linejoin="round" stroke-opacity=".749" stroke-width=".265" color="#000" overflow="visible" rx=".661" ry=".661" style="marker:none"/><rect width="13.758" height="13.758" x="1.588" y="-295.413" fill="#3f51b5" color="#000" overflow="visible" rx=".529" ry=".529" style="marker:none" transform="scale(1 -1)"/><path fill="#fff" fill-rule="evenodd" d="M3.44 282.977a.53.53 0 0 0-.53.53v10.053c0 .294.236.53.53.53h10.054a.53.53 0 0 0 .529-.53v-6.35l-4.233-4.233zm7.473 0 3.11 3.11v-2.58a.53.53 0 0 0-.53-.53z" paint-order="fill markers stroke"/><path fill="#ccc" d="M5.292 292.238v-.53H9.79v.53zm0-1.323v-.53h6.35v.53zm0-1.323v-.53h6.35v.53zm0-1.323v-.53h6.35v.53z"/></g></svg>