<?xml version="1.0" encoding="UTF-8" standalone="no"?>
<!-- Created with Inkscape (http://www.inkscape.org/) -->

<svg
   xmlns:dc="http://purl.org/dc/elements/1.1/"
   xmlns:cc="http://creativecommons.org/ns#"
   xmlns:rdf="http://www.w3.org/1999/02/22-rdf-syntax-ns#"
   xmlns:svg="http://www.w3.org/2000/svg"
   xmlns="http://www.w3.org/2000/svg"
   xmlns:sodipodi="http://sodipodi.sourceforge.net/DTD/sodipodi-0.dtd"
   xmlns:inkscape="http://www.inkscape.org/namespaces/inkscape"
   width="64"
   height="64"
   viewBox="0 0 16.933333 16.933333"
   version="1.1"
   id="svg4572"
   inkscape:version="0.92.4 (5da689c313, 2019-01-14)"
   sodipodi:docname="applications-games.svg">
  <title
     id="title4611">Canvas icon theme</title>
  <defs
     id="defs4566" />
  <sodipodi:namedview
     id="base"
     pagecolor="#ffffff"
     bordercolor="#666666"
     borderopacity="1.0"
     inkscape:pageopacity="0.0"
     inkscape:pageshadow="2"
     inkscape:zoom="11.2"
     inkscape:cx="29.829411"
     inkscape:cy="17.363671"
     inkscape:document-units="px"
     inkscape:current-layer="layer1"
     showgrid="true"
     units="px"
     width="64px"
     showguides="true"
     inkscape:guide-bbox="true"
     inkscape:window-width="1366"
     inkscape:window-height="706"
     inkscape:window-x="0"
     inkscape:window-y="32"
     inkscape:window-maximized="1"
     inkscape:snap-bbox="true"
     inkscape:bbox-nodes="false"
     inkscape:snap-bbox-edge-midpoints="true"
     inkscape:snap-nodes="true">
    <inkscape:grid
       type="xygrid"
       id="grid4582" />
    <sodipodi:guide
       position="1.0583333,15.875"
       orientation="0,1"
       id="guide4584"
       inkscape:locked="false" />
    <sodipodi:guide
       position="1.0583333,1.0583333"
       orientation="1,0"
       id="guide4586"
       inkscape:locked="false" />
    <sodipodi:guide
       position="1.0583333,1.0583333"
       orientation="0,1"
       id="guide4590"
       inkscape:locked="false" />
    <sodipodi:guide
       position="8.4666665,8.4666665"
       orientation="0,1"
       id="guide822"
       inkscape:locked="false" />
    <sodipodi:guide
       position="8.4666665,8.4666665"
       orientation="1,0"
       id="guide824"
       inkscape:locked="false" />
  </sodipodi:namedview>
  <metadata
     id="metadata4569">
    <rdf:RDF>
      <cc:Work
         rdf:about="">
        <dc:format>image/svg+xml</dc:format>
        <dc:type
           rdf:resource="http://purl.org/dc/dcmitype/StillImage" />
        <dc:title>Canvas icon theme</dc:title>
        <cc:license
           rdf:resource="http://creativecommons.org/licenses/by-nc-sa/4.0/" />
        <dc:creator>
          <cc:Agent>
            <dc:title>Vince Liuice</dc:title>
          </cc:Agent>
        </dc:creator>
      </cc:Work>
      <cc:License
         rdf:about="http://creativecommons.org/licenses/by-nc-sa/4.0/">
        <cc:permits
           rdf:resource="http://creativecommons.org/ns#Reproduction" />
        <cc:permits
           rdf:resource="http://creativecommons.org/ns#Distribution" />
        <cc:requires
           rdf:resource="http://creativecommons.org/ns#Notice" />
        <cc:requires
           rdf:resource="http://creativecommons.org/ns#Attribution" />
        <cc:prohibits
           rdf:resource="http://creativecommons.org/ns#CommercialUse" />
        <cc:permits
           rdf:resource="http://creativecommons.org/ns#DerivativeWorks" />
        <cc:requires
           rdf:resource="http://creativecommons.org/ns#ShareAlike" />
      </cc:License>
    </rdf:RDF>
  </metadata>
  <g
     inkscape:label="Layer 1"
     inkscape:groupmode="layer"
     id="layer1"
     transform="translate(0,-280.06667)">
    <g
       id="g834">
      <rect
         transform="scale(1,-1)"
         width="13.758333"
         height="13.758333"
         rx="0.63695985"
         ry="0.63695985"
         x="1.5875"
         y="-295.41251"
         id="rect5505-6"
         style="color:#000000;display:inline;overflow:visible;visibility:visible;fill:#f88e45;fill-opacity:1;fill-rule:nonzero;stroke:none;stroke-width:0.26458332;marker:none;enable-background:accumulate" />
      <rect
         style="color:#000000;display:inline;overflow:visible;visibility:visible;opacity:1;vector-effect:none;fill:none;fill-opacity:1;stroke:#ce5b05;stroke-width:0.26458332;stroke-linecap:round;stroke-linejoin:round;stroke-miterlimit:4;stroke-dasharray:none;stroke-dashoffset:0;stroke-opacity:0.74901962;marker:none;enable-background:accumulate"
         id="rect5505-21-9"
         y="281.52188"
         x="1.4552083"
         ry="0.76488638"
         rx="0.76488638"
         height="14.022917"
         width="14.022917" />
    </g>
    <circle
       r="0"
       cx="6.2062569"
       cy="288.19937"
       style="fill:#e3dbdb;stroke-width:0.03256411;stroke-linecap:square"
       id="ellipse4246" />
    <g
       id="g856">
      <path
         style="fill:#ffffff;stroke-width:0.99999999;stroke-linecap:square;stroke:none;stroke-opacity:0.25490198;stroke-miterlimit:4;stroke-dasharray:none"
         d="M 23.5 19 C 18.80558 19 15 22.8056 15 27.5 C 15 28.319078 15.123629 29.107953 15.339844 29.857422 L 14.082031 39.658203 C 14.028808 39.867967 14.000631 40.082488 14 40.298828 C 14 41.78989 15.240126 42.998047 16.769531 42.998047 C 17.592394 42.997329 18.372899 42.640672 18.898438 42.023438 L 18.900391 42.027344 L 24.330078 35.939453 C 25.704242 35.802707 27.031688 35.352147 28.189453 34.583984 L 35.810547 34.583984 C 36.968311 35.351958 38.295763 35.80266 39.669922 35.939453 L 45.099609 42.029297 L 45.101562 42.025391 C 45.627038 42.642739 46.407609 42.999282 47.230469 43 C 48.759877 43 50 41.791843 50 40.300781 C 49.999331 40.08497 49.971525 39.869769 49.917969 39.660156 L 48.660156 29.857422 C 48.876371 29.107953 49 28.319078 49 27.5 C 49 22.8056 45.194423 19 40.5 19 L 33.416016 19 L 30.583984 19 L 23.5 19 z "
         transform="matrix(0.26458333,0,0,0.26458333,0,280.06667)"
         id="path837" />
      <path
         d="m 10.847918,285.8875 a 0.39687026,0.39687026 0 0 0 -0.396871,0.39687 0.39687026,0.39687026 0 0 0 0.396871,0.39688 0.39687026,0.39687026 0 0 0 0.396868,-0.39688 0.39687026,0.39687026 0 0 0 -0.396868,-0.39687 z"
         id="path4717"
         style="fill:#27ae60;fill-opacity:1;stroke-width:0.03968703;stroke-linecap:square"
         inkscape:connector-curvature="0" />
      <path
         d="m 10.054166,286.68125 a 0.39688245,0.39688245 0 0 0 -0.3968802,0.39687 0.39688245,0.39688245 0 0 0 0.3968802,0.39688 0.39688245,0.39688245 0 0 0 0.396883,-0.39688 0.39688245,0.39688245 0 0 0 -0.396883,-0.39687 z"
         id="path4715"
         style="fill:#f36137;fill-opacity:1;stroke-width:0.03968824;stroke-linecap:square"
         inkscape:connector-curvature="0" />
      <path
         d="m 11.641667,286.68125 a 0.39688245,0.39688245 0 0 0 -0.396884,0.39687 0.39688245,0.39688245 0 0 0 0.396884,0.39688 0.39688245,0.39688245 0 0 0 0.396882,-0.39688 0.39688245,0.39688245 0 0 0 -0.396882,-0.39687 z"
         id="path4713"
         style="fill:#f05242;fill-opacity:1;stroke-width:0.03968824;stroke-linecap:square"
         inkscape:connector-curvature="0" />
      <path
         d="m 10.847918,287.475 a 0.39687575,0.39687575 0 0 0 -0.396877,0.39689 0.39687575,0.39687575 0 0 0 0.396877,0.39687 0.39687575,0.39687575 0 0 0 0.396873,-0.39687 0.39687575,0.39687575 0 0 0 -0.396873,-0.39689 z"
         id="path4268"
         style="fill:#2980b9;fill-opacity:1;stroke-width:0.03968757;stroke-linecap:square"
         inkscape:connector-curvature="0" />
      <circle
         r="0.79374999"
         cy="286.94583"
         cx="6.0854163"
         id="path939"
         style="opacity:1;fill:#f88e45;fill-opacity:1;stroke:none;stroke-width:0.56504977;stroke-miterlimit:4;stroke-dasharray:none;stroke-opacity:0.03921569;paint-order:stroke markers fill" />
      <path
         inkscape:connector-curvature="0"
         style="fill:#666666;fill-opacity:1;stroke:#e1e1e1;stroke-width:0.52916664;stroke-linecap:square;stroke-miterlimit:4;stroke-dasharray:none;stroke-opacity:1;paint-order:markers stroke fill"
         id="path960"
         d="m 7.1437483,288.53334 a 0.52917525,0.52917525 0 0 0 -0.5291728,0.52916 0.52917525,0.52917525 0 0 0 0.5291728,0.52917 0.52917525,0.52917525 0 0 0 0.529176,-0.52917 0.52917525,0.52917525 0 0 0 -0.529176,-0.52916 z" />
      <path
         d="m 9.7895893,288.53334 a 0.52917525,0.52917525 0 0 0 -0.5291728,0.52916 0.52917525,0.52917525 0 0 0 0.5291728,0.52917 0.52917525,0.52917525 0 0 0 0.5291757,-0.52917 0.52917525,0.52917525 0 0 0 -0.5291757,-0.52916 z"
         id="path962"
         style="fill:#666666;fill-opacity:1;stroke:#e1e1e1;stroke-width:0.52916664;stroke-linecap:square;stroke-miterlimit:4;stroke-dasharray:none;stroke-opacity:1;paint-order:markers stroke fill"
         inkscape:connector-curvature="0" />
    </g>
  </g>
</svg>
