<svg xmlns="http://www.w3.org/2000/svg" width="64" height="64"><g stroke-linecap="round" stroke-linejoin="round" transform="translate(-1 -1)"><circle cx="33" cy="33" r="28" fill="#528fff" stroke="#1b64ee" stroke-width="2"/><circle cx="33" cy="33" r="28" fill="#528fff"/><g fill="#fff" stroke-width="2.8"><rect width="14" height="14" x="17" y="17" rx="2" ry="2"/><path d="M37 17c-1.108 0-2 .892-2 2v10c0 1.108.892 2 2 2h10c1.108 0 2-.892 2-2V19c0-1.108-.892-2-2-2zm0 2h10v10H37zm0 16c-1.108 0-2 .892-2 2v10c0 1.108.892 2 2 2h10c1.108 0 2-.892 2-2V37c0-1.108-.892-2-2-2zm0 2h10v10H37zm-18-2c-1.108 0-2 .892-2 2v10c0 1.108.892 2 2 2h10c1.108 0 2-.892 2-2V37c0-1.108-.892-2-2-2zm0 2h10v10H19z"/></g></g></svg>