<svg xmlns="http://www.w3.org/2000/svg" width="64" height="64"><g transform="translate(0 -1058.52)"><rect width="64" height="64" x="80" y="1058.52" ry="0" opacity=".2" fill="none"/><rect ry="2" y="1070.52" x="18" height="32" width="28" fill="#ffca28"/><rect ry="1" y="1071.52" x="19" height="30" width="26" fill="#ffd54f"/><rect width="28" height="32" x="11" y="1074.52" ry="2" fill="#66bb6a"/><rect width="26" height="30" x="12" y="1075.52" ry="1" fill="#81c784"/><rect width="28" height="32" x="25" y="1078.52" ry="2" fill="#5c6bc0"/><rect width="26" height="30" x="26" y="1079.52" ry="1" fill="#7986cb"/><path d="M9 1082.52c-1.108 0-2 .892-2 2v30c0 1.662 1.338 3 3 3h44c1.662 0 3-1.338 3-3v-30c0-1.108-.892-2-2-2H9z" fill="#a97b50"/><path d="M9 1083.52c-.554 0-1 .446-1 1v30c0 1.108.892 2 2 2h44c1.108 0 2-.892 2-2v-30c0-.554-.446-1-1-1H9z" fill="#c49a6c"/><path d="M29 1083.52v12c0 1.662 1.338 3 3 3s3-1.338 3-3v-12h-6z" fill="#95683f"/><path d="M30 1083.52v12c0 1.108.892 2 2 2s2-.892 2-2v-12h-4z" fill="#c49a6c"/><path d="M32 1095.52a2 2 0 0 0-2 2v6a2 2 0 0 0 2 2 2 2 0 0 0 2-2v-6a2 2 0 0 0-2-2zm0 7a1 1 0 0 1 1 1 1 1 0 0 1-1 1 1 1 0 0 1-1-1 1 1 0 0 1 1-1z" fill="#fff"/><path fill="#f2f2f2" d="M32 1083.52h2v2h-2z"/><path fill="#e0e0e0" d="M30 1085.52h2v2h-2z"/><path fill="#f2f2f2" d="M32 1087.52h2v2h-2z"/><path fill="#e0e0e0" d="M30 1089.52h2v2h-2z"/><path fill="#f2f2f2" d="M32 1091.52h2v2h-2z"/><path fill="#e0e0e0" d="M30 1093.52h2v2h-2z"/><rect width="13" height="6" x="41" y="1108.52" ry="1" fill="#eceff1"/><rect width="2" height="4" x="42" y="1109.519" ry="0" fill="#37474f"/><path fill="#37474f" d="M45 1109.52h1v4h-1zm2 0h1v4h-1zm2 0h2v4h-2zm3 0h1v4h-1z"/><path d="M15 1105.52l-2 3h1v4h2v-4h1l-2-3zm2 3h1v4h2v-4h1l-2-3-2 3zm-5 5v1h10v-1H12z" fill="#a97b50"/></g></svg>