<svg xmlns="http://www.w3.org/2000/svg" width="64" height="64"><g transform="translate(0 -3)"><rect width="28" height="32" x="28" y="11" fill="#ffca28" ry="2"/><rect width="26" height="30" x="29" y="12" fill="#ffd54f" ry="1"/><rect width="28" height="32" x="8" y="9" fill="#66bb6a" ry="2"/><rect width="26" height="30" x="9" y="10" fill="#81c784" ry="1"/><rect width="28" height="32" x="19" y="15" fill="#5c6bc0" ry="2"/><rect width="26" height="30" x="20" y="16" fill="#7986cb" ry="1"/><path fill="#a97b50" d="M7.16 23C5.963 23 5 23.917 5 25.057v30.857C5 57.624 6.445 59 8.24 59h47.52c1.795 0 3.24-1.376 3.24-3.086V25.057c0-1.14-.963-2.057-2.16-2.057z"/><path fill="#c49a6c" d="M7.083 24C6.483 24 6 24.46 6 25.03v30.91C6 57.08 6.966 58 8.167 58h47.667c1.2 0 2.166-.92 2.166-2.06V25.03c0-.57-.483-1.03-1.083-1.03z"/><path fill="#95683f" d="M29 24v12c0 1.662 1.338 3 3 3s3-1.338 3-3V24z"/><path fill="#c49a6c" d="M30 24v12c0 1.108.892 2 2 2s2-.892 2-2V24z"/><path fill="#fff" d="M32 36a2 2 0 0 0-2 2v6a2 2 0 0 0 2 2 2 2 0 0 0 2-2v-6a2 2 0 0 0-2-2m0 7a1 1 0 0 1 1 1 1 1 0 0 1-1 1 1 1 0 0 1-1-1 1 1 0 0 1 1-1"/><path fill="#f2f2f2" d="M32 24h2v2h-2z"/><path fill="#e0e0e0" d="M30 26h2v2h-2z"/><path fill="#f2f2f2" d="M32 28h2v2h-2z"/><path fill="#e0e0e0" d="M30 30h2v2h-2z"/><path fill="#f2f2f2" d="M32 32h2v2h-2z"/><path fill="#e0e0e0" d="M30 34h2v2h-2z"/><rect width="13" height="6" x="41" y="50" fill="#eceff1" ry="1"/><rect width="2" height="4" x="42" y="50.999" fill="#37474f" ry="0"/><path fill="#37474f" d="M45 51h1v4h-1zm2 0h1v4h-1zm2 0h2v4h-2zm3 0h1v4h-1z"/><path fill="#a97b50" d="m15 47-2 3h1v4h2v-4h1zm2 3h1v4h2v-4h1l-2-3zm-5 5v1h10v-1z"/></g></svg>