<?xml version="1.0" encoding="UTF-8" standalone="no"?>
<!-- Created with Inkscape (http://www.inkscape.org/) -->

<svg
   xmlns:dc="http://purl.org/dc/elements/1.1/"
   xmlns:cc="http://creativecommons.org/ns#"
   xmlns:rdf="http://www.w3.org/1999/02/22-rdf-syntax-ns#"
   xmlns:svg="http://www.w3.org/2000/svg"
   xmlns="http://www.w3.org/2000/svg"
   xmlns:sodipodi="http://sodipodi.sourceforge.net/DTD/sodipodi-0.dtd"
   xmlns:inkscape="http://www.inkscape.org/namespaces/inkscape"
   width="64"
   height="64"
   viewBox="0 0 64 64.000003"
   id="svg2"
   version="1.1"
   inkscape:version="0.92.4 (5da689c313, 2019-01-14)"
   sodipodi:docname="asc-de.svg">
  <defs
     id="defs4" />
  <sodipodi:namedview
     id="base"
     pagecolor="#ffffff"
     bordercolor="#666666"
     borderopacity="1.0"
     inkscape:pageopacity="0.0"
     inkscape:pageshadow="2"
     inkscape:zoom="11.313708"
     inkscape:cx="37.26389"
     inkscape:cy="21.132129"
     inkscape:document-units="px"
     inkscape:current-layer="layer1"
     showgrid="true"
     units="px"
     inkscape:showpageshadow="false"
     borderlayer="true"
     inkscape:window-width="1366"
     inkscape:window-height="711"
     inkscape:window-x="0"
     inkscape:window-y="27"
     inkscape:window-maximized="1"
     showguides="true"
     guidetolerance="10000"
     inkscape:guide-bbox="true">
    <inkscape:grid
       type="xygrid"
       id="grid4136" />
    <sodipodi:guide
       position="5,59.000069"
       orientation="54,0"
       id="guide4142"
       inkscape:locked="false" />
    <sodipodi:guide
       position="5,5.0000688"
       orientation="0,54"
       id="guide4144"
       inkscape:locked="false" />
    <sodipodi:guide
       position="59,5.0000688"
       orientation="-54,0"
       id="guide4146"
       inkscape:locked="false" />
    <sodipodi:guide
       position="59,59.000069"
       orientation="0,-54"
       id="guide4148"
       inkscape:locked="false" />
    <sodipodi:guide
       position="0,64.000069"
       orientation="64,0"
       id="guide4150"
       inkscape:locked="false" />
    <sodipodi:guide
       position="0,6.875e-05"
       orientation="0,64"
       id="guide4152"
       inkscape:locked="false" />
    <sodipodi:guide
       position="59.000001,30.000001"
       orientation="0,1"
       id="guide4351"
       inkscape:locked="false" />
    <sodipodi:guide
       position="32,32.000002"
       orientation="1,0"
       id="guide4353"
       inkscape:locked="false" />
  </sodipodi:namedview>
  <metadata
     id="metadata7">
    <rdf:RDF>
      <cc:Work
         rdf:about="">
        <dc:format>image/svg+xml</dc:format>
        <dc:type
           rdf:resource="http://purl.org/dc/dcmitype/StillImage" />
        <dc:title />
      </cc:Work>
    </rdf:RDF>
  </metadata>
  <g
     inkscape:label="Capa 1"
     inkscape:groupmode="layer"
     id="layer1"
     transform="translate(0,-1058.5196)">
    <path
       style="color:#000000;font-style:normal;font-variant:normal;font-weight:normal;font-stretch:normal;font-size:medium;line-height:normal;font-family:sans-serif;font-variant-ligatures:normal;font-variant-position:normal;font-variant-caps:normal;font-variant-numeric:normal;font-variant-alternates:normal;font-feature-settings:normal;text-indent:0;text-align:start;text-decoration:none;text-decoration-line:none;text-decoration-style:solid;text-decoration-color:#000000;letter-spacing:normal;word-spacing:normal;text-transform:none;writing-mode:lr-tb;direction:ltr;text-orientation:mixed;dominant-baseline:auto;baseline-shift:baseline;text-anchor:start;white-space:normal;shape-padding:0;clip-rule:nonzero;display:inline;overflow:visible;visibility:visible;opacity:1;isolation:auto;mix-blend-mode:normal;color-interpolation:sRGB;color-interpolation-filters:linearRGB;solid-color:#000000;solid-opacity:1;vector-effect:none;fill:#98310a;fill-opacity:0.96470588;fill-rule:nonzero;stroke:none;stroke-width:1px;stroke-linecap:butt;stroke-linejoin:miter;stroke-miterlimit:4;stroke-dasharray:none;stroke-dashoffset:0;stroke-opacity:1;color-rendering:auto;image-rendering:auto;shape-rendering:auto;text-rendering:auto;enable-background:accumulate"
       d="m 32,1093.0698 c -0.861111,0 -1.658204,0.2754 -3.158203,0.7754 l -0.01563,0.01 -0.01563,0.01 -22.0175782,9.0078 -0.015625,0.01 C 5.6580868,1103.4322 5,1104.3476 5,1105.3198 c 0,0.9722 0.6580868,1.8876 1.7773438,2.4473 l 0.015625,0.01 22.0175782,9.0078 -0.0332,-0.016 c 2.119257,1.0596 4.326055,1.0596 6.445312,0 l -0.0332,0.016 22.017578,-9.0078 0.01563,-0.01 C 58.341913,1107.2074 59,1106.292 59,1105.3198 c 0,-0.9722 -0.658087,-1.8876 -1.777344,-2.4473 l -0.01563,-0.01 -22.033203,-9.0136 -0.01563,-0.01 c -1.5,-0.5 -2.297092,-0.7754 -3.158203,-0.7754 z"
       id="path854"
       inkscape:connector-curvature="0" />
    <path
       style="color:#000000;font-style:normal;font-variant:normal;font-weight:normal;font-stretch:normal;font-size:medium;line-height:normal;font-family:sans-serif;font-variant-ligatures:normal;font-variant-position:normal;font-variant-caps:normal;font-variant-numeric:normal;font-variant-alternates:normal;font-feature-settings:normal;text-indent:0;text-align:start;text-decoration:none;text-decoration-line:none;text-decoration-style:solid;text-decoration-color:#000000;letter-spacing:normal;word-spacing:normal;text-transform:none;writing-mode:lr-tb;direction:ltr;text-orientation:mixed;dominant-baseline:auto;baseline-shift:baseline;text-anchor:start;white-space:normal;shape-padding:0;clip-rule:nonzero;display:inline;overflow:visible;visibility:visible;opacity:1;isolation:auto;mix-blend-mode:normal;color-interpolation:sRGB;color-interpolation-filters:linearRGB;solid-color:#000000;solid-opacity:1;vector-effect:none;fill:#f35a23;fill-opacity:1;fill-rule:nonzero;stroke:none;stroke-width:1px;stroke-linecap:butt;stroke-linejoin:miter;stroke-miterlimit:4;stroke-dasharray:none;stroke-dashoffset:0;stroke-opacity:1;color-rendering:auto;image-rendering:auto;shape-rendering:auto;text-rendering:auto;enable-background:accumulate"
       d="m 32,1094.0698 c 0.637135,0 1.342463,0.2255 2.833984,0.7227 l 21.949219,8.9785 c 0.875031,0.4399 1.216797,1.0226 1.216797,1.5488 0,0.5262 -0.341766,1.1089 -1.216797,1.5488 l -21.990234,8.9961 -0.01563,0.01 c -1.880743,0.9404 -3.673945,0.9404 -5.554688,0 l -0.01563,-0.01 -21.9902341,-8.9961 C 6.341765,1106.4287 6,1105.846 6,1105.3198 c 0,-0.5262 0.341765,-1.1089 1.2167969,-1.5488 l 21.9414061,-8.9766 c 0.0041,0 0.0037,-6e-4 0.0078,0 1.491521,-0.4972 2.196849,-0.7227 2.833984,-0.7227 z"
       id="path841"
       inkscape:connector-curvature="0" />
    <path
       style="color:#000000;font-style:normal;font-variant:normal;font-weight:normal;font-stretch:normal;font-size:medium;line-height:normal;font-family:sans-serif;font-variant-ligatures:normal;font-variant-position:normal;font-variant-caps:normal;font-variant-numeric:normal;font-variant-alternates:normal;font-feature-settings:normal;text-indent:0;text-align:start;text-decoration:none;text-decoration-line:none;text-decoration-style:solid;text-decoration-color:#000000;letter-spacing:normal;word-spacing:normal;text-transform:none;writing-mode:lr-tb;direction:ltr;text-orientation:mixed;dominant-baseline:auto;baseline-shift:baseline;text-anchor:start;white-space:normal;shape-padding:0;clip-rule:nonzero;display:inline;overflow:visible;visibility:visible;opacity:1;isolation:auto;mix-blend-mode:normal;color-interpolation:sRGB;color-interpolation-filters:linearRGB;solid-color:#000000;solid-opacity:1;vector-effect:none;fill:#000000;fill-opacity:0.07843138;fill-rule:nonzero;stroke:none;stroke-width:1px;stroke-linecap:butt;stroke-linejoin:miter;stroke-miterlimit:4;stroke-dasharray:none;stroke-dashoffset:0;stroke-opacity:1;color-rendering:auto;image-rendering:auto;shape-rendering:auto;text-rendering:auto;enable-background:accumulate"
       d="M 32 35.550781 L 32 35.552734 C 31.362865 35.552734 30.657537 35.778191 29.166016 36.275391 C 29.161916 36.274791 29.162303 36.275391 29.158203 36.275391 L 13.109375 42.841797 L 28.810547 49.265625 C 30.908404 50.303036 33.091596 50.303036 35.189453 49.265625 L 50.890625 42.841797 L 34.833984 36.273438 C 33.342463 35.776237 32.637135 35.550781 32 35.550781 z "
       transform="translate(0,1058.5196)"
       id="path884" />
    <path
       id="path856"
       d="m 32,1080.07 c -0.861111,0 -1.658204,0.2754 -3.158203,0.7754 l -0.01563,0.01 -0.01563,0.01 -22.0175782,9.0078 -0.015625,0.01 C 5.6580868,1090.4324 5,1091.3478 5,1092.32 c 0,0.9722 0.6580868,1.8876 1.7773438,2.4473 l 0.015625,0.01 22.0175782,9.0078 -0.0332,-0.016 c 2.119257,1.0596 4.326055,1.0596 6.445312,0 l -0.0332,0.016 22.017578,-9.0078 0.01563,-0.01 C 58.341913,1094.2076 59,1093.2922 59,1092.32 c 0,-0.9722 -0.658087,-1.8876 -1.777344,-2.4473 l -0.01563,-0.01 -22.033203,-9.0136 -0.01563,-0.01 c -1.5,-0.5 -2.297092,-0.7754 -3.158203,-0.7754 z"
       style="color:#000000;font-style:normal;font-variant:normal;font-weight:normal;font-stretch:normal;font-size:medium;line-height:normal;font-family:sans-serif;font-variant-ligatures:normal;font-variant-position:normal;font-variant-caps:normal;font-variant-numeric:normal;font-variant-alternates:normal;font-feature-settings:normal;text-indent:0;text-align:start;text-decoration:none;text-decoration-line:none;text-decoration-style:solid;text-decoration-color:#000000;letter-spacing:normal;word-spacing:normal;text-transform:none;writing-mode:lr-tb;direction:ltr;text-orientation:mixed;dominant-baseline:auto;baseline-shift:baseline;text-anchor:start;white-space:normal;shape-padding:0;clip-rule:nonzero;display:inline;overflow:visible;visibility:visible;opacity:1;isolation:auto;mix-blend-mode:normal;color-interpolation:sRGB;color-interpolation-filters:linearRGB;solid-color:#000000;solid-opacity:1;vector-effect:none;fill:#68770f;fill-opacity:1;fill-rule:nonzero;stroke:none;stroke-width:1px;stroke-linecap:butt;stroke-linejoin:miter;stroke-miterlimit:4;stroke-dasharray:none;stroke-dashoffset:0;stroke-opacity:1;color-rendering:auto;image-rendering:auto;shape-rendering:auto;text-rendering:auto;enable-background:accumulate"
       inkscape:connector-curvature="0" />
    <path
       id="path858"
       d="m 32,1081.07 c 0.637135,0 1.342463,0.2255 2.833984,0.7227 l 21.949219,8.9785 C 57.658234,1091.2111 58,1091.7938 58,1092.32 c 0,0.5262 -0.341766,1.1089 -1.216797,1.5488 l -21.990234,8.9961 -0.01563,0.01 c -1.880743,0.9404 -3.673945,0.9404 -5.554688,0 l -0.01563,-0.01 -21.9902341,-8.9961 C 6.341765,1093.4289 6,1092.8462 6,1092.32 c 0,-0.5262 0.341765,-1.1089 1.2167969,-1.5488 l 21.9414061,-8.9766 c 0.0041,0 0.0037,-6e-4 0.0078,0 1.491521,-0.4972 2.196849,-0.7227 2.833984,-0.7227 z"
       style="color:#000000;font-style:normal;font-variant:normal;font-weight:normal;font-stretch:normal;font-size:medium;line-height:normal;font-family:sans-serif;font-variant-ligatures:normal;font-variant-position:normal;font-variant-caps:normal;font-variant-numeric:normal;font-variant-alternates:normal;font-feature-settings:normal;text-indent:0;text-align:start;text-decoration:none;text-decoration-line:none;text-decoration-style:solid;text-decoration-color:#000000;letter-spacing:normal;word-spacing:normal;text-transform:none;writing-mode:lr-tb;direction:ltr;text-orientation:mixed;dominant-baseline:auto;baseline-shift:baseline;text-anchor:start;white-space:normal;shape-padding:0;clip-rule:nonzero;display:inline;overflow:visible;visibility:visible;opacity:1;isolation:auto;mix-blend-mode:normal;color-interpolation:sRGB;color-interpolation-filters:linearRGB;solid-color:#000000;solid-opacity:1;vector-effect:none;fill:#8bc34a;fill-opacity:1;fill-rule:nonzero;stroke:none;stroke-width:1px;stroke-linecap:butt;stroke-linejoin:miter;stroke-miterlimit:4;stroke-dasharray:none;stroke-dashoffset:0;stroke-opacity:1;color-rendering:auto;image-rendering:auto;shape-rendering:auto;text-rendering:auto;enable-background:accumulate"
       inkscape:connector-curvature="0" />
    <path
       style="color:#000000;font-style:normal;font-variant:normal;font-weight:normal;font-stretch:normal;font-size:medium;line-height:normal;font-family:sans-serif;font-variant-ligatures:normal;font-variant-position:normal;font-variant-caps:normal;font-variant-numeric:normal;font-variant-alternates:normal;font-feature-settings:normal;text-indent:0;text-align:start;text-decoration:none;text-decoration-line:none;text-decoration-style:solid;text-decoration-color:#000000;letter-spacing:normal;word-spacing:normal;text-transform:none;writing-mode:lr-tb;direction:ltr;text-orientation:mixed;dominant-baseline:auto;baseline-shift:baseline;text-anchor:start;white-space:normal;shape-padding:0;clip-rule:nonzero;display:inline;overflow:visible;visibility:visible;opacity:1;isolation:auto;mix-blend-mode:normal;color-interpolation:sRGB;color-interpolation-filters:linearRGB;solid-color:#000000;solid-opacity:1;vector-effect:none;fill:#7eb73d;fill-opacity:1;fill-rule:nonzero;stroke:none;stroke-width:1px;stroke-linecap:butt;stroke-linejoin:miter;stroke-miterlimit:4;stroke-dasharray:none;stroke-dashoffset:0;stroke-opacity:1;color-rendering:auto;image-rendering:auto;shape-rendering:auto;text-rendering:auto;enable-background:accumulate"
       d="m 32,1093.0626 v 0.01 c -0.861111,0 -1.658204,0.2754 -3.158203,0.7754 l -0.01563,0.01 -0.01563,0.01 -10.800781,4.4199 11.197265,4.5801 0.01563,0.01 c 1.880743,0.9404 3.673945,0.9404 5.554688,0 l 0.01563,-0.01 11.208984,-4.5859 -10.828125,-4.4297 -0.01563,-0.012 c -1.5,-0.5 -2.297092,-0.7754 -3.158203,-0.7754 z"
       id="path874"
       inkscape:connector-curvature="0" />
    <path
       style="color:#000000;font-style:normal;font-variant:normal;font-weight:normal;font-stretch:normal;font-size:medium;line-height:normal;font-family:sans-serif;font-variant-ligatures:normal;font-variant-position:normal;font-variant-caps:normal;font-variant-numeric:normal;font-variant-alternates:normal;font-feature-settings:normal;text-indent:0;text-align:start;text-decoration:none;text-decoration-line:none;text-decoration-style:solid;text-decoration-color:#000000;letter-spacing:normal;word-spacing:normal;text-transform:none;writing-mode:lr-tb;direction:ltr;text-orientation:mixed;dominant-baseline:auto;baseline-shift:baseline;text-anchor:start;white-space:normal;shape-padding:0;clip-rule:nonzero;display:inline;overflow:visible;visibility:visible;opacity:1;isolation:auto;mix-blend-mode:normal;color-interpolation:sRGB;color-interpolation-filters:linearRGB;solid-color:#000000;solid-opacity:1;vector-effect:none;fill:#83be3f;fill-opacity:1;fill-rule:nonzero;stroke:none;stroke-width:1px;stroke-linecap:butt;stroke-linejoin:miter;stroke-miterlimit:4;stroke-dasharray:none;stroke-dashoffset:0;stroke-opacity:1;color-rendering:auto;image-rendering:auto;shape-rendering:auto;text-rendering:auto;enable-background:accumulate"
       d="M 32 35.550781 L 32 35.552734 C 31.362865 35.552734 30.657537 35.778191 29.166016 36.275391 C 29.161916 36.274791 29.162303 36.275391 29.158203 36.275391 L 19.318359 40.300781 L 29.207031 44.345703 L 29.222656 44.355469 C 31.103399 45.295869 32.896601 45.295869 34.777344 44.355469 L 34.792969 44.345703 L 44.679688 40.300781 L 34.833984 36.273438 C 33.342463 35.776237 32.637135 35.550781 32 35.550781 z "
       transform="translate(0,1058.5196)"
       id="path869" />
    <path
       style="color:#000000;font-style:normal;font-variant:normal;font-weight:normal;font-stretch:normal;font-size:medium;line-height:normal;font-family:sans-serif;font-variant-ligatures:normal;font-variant-position:normal;font-variant-caps:normal;font-variant-numeric:normal;font-variant-alternates:normal;font-feature-settings:normal;text-indent:0;text-align:start;text-decoration:none;text-decoration-line:none;text-decoration-style:solid;text-decoration-color:#000000;letter-spacing:normal;word-spacing:normal;text-transform:none;writing-mode:lr-tb;direction:ltr;text-orientation:mixed;dominant-baseline:auto;baseline-shift:baseline;text-anchor:start;white-space:normal;shape-padding:0;clip-rule:nonzero;display:inline;overflow:visible;visibility:visible;opacity:1;isolation:auto;mix-blend-mode:normal;color-interpolation:sRGB;color-interpolation-filters:linearRGB;solid-color:#000000;solid-opacity:1;vector-effect:none;fill:#000000;fill-opacity:0.07843138;fill-rule:nonzero;stroke:none;stroke-width:1px;stroke-linecap:butt;stroke-linejoin:miter;stroke-miterlimit:4;stroke-dasharray:none;stroke-dashoffset:0;stroke-opacity:1;color-rendering:auto;image-rendering:auto;shape-rendering:auto;text-rendering:auto;enable-background:accumulate"
       d="M 32 22.550781 L 32 22.552734 C 31.362865 22.552734 30.657537 22.778191 29.166016 23.275391 C 29.161916 23.274791 29.162303 23.275391 29.158203 23.275391 L 13.109375 29.841797 L 28.810547 36.265625 C 30.908404 37.303036 33.091596 37.303036 35.189453 36.265625 L 50.890625 29.841797 L 34.833984 23.273438 C 33.342463 22.776237 32.637135 22.550781 32 22.550781 z "
       transform="translate(0,1058.5196)"
       id="path891" />
    <path
       inkscape:connector-curvature="0"
       style="color:#000000;font-style:normal;font-variant:normal;font-weight:normal;font-stretch:normal;font-size:medium;line-height:normal;font-family:sans-serif;font-variant-ligatures:normal;font-variant-position:normal;font-variant-caps:normal;font-variant-numeric:normal;font-variant-alternates:normal;font-feature-settings:normal;text-indent:0;text-align:start;text-decoration:none;text-decoration-line:none;text-decoration-style:solid;text-decoration-color:#000000;letter-spacing:normal;word-spacing:normal;text-transform:none;writing-mode:lr-tb;direction:ltr;text-orientation:mixed;dominant-baseline:auto;baseline-shift:baseline;text-anchor:start;white-space:normal;shape-padding:0;clip-rule:nonzero;display:inline;overflow:visible;visibility:visible;opacity:1;isolation:auto;mix-blend-mode:normal;color-interpolation:sRGB;color-interpolation-filters:linearRGB;solid-color:#000000;solid-opacity:1;vector-effect:none;fill:#2c7db8;fill-opacity:1;fill-rule:nonzero;stroke:none;stroke-width:1px;stroke-linecap:butt;stroke-linejoin:miter;stroke-miterlimit:4;stroke-dasharray:none;stroke-dashoffset:0;stroke-opacity:1;color-rendering:auto;image-rendering:auto;shape-rendering:auto;text-rendering:auto;enable-background:accumulate"
       d="m 32,1067.07 c -0.861111,0 -1.658204,0.2754 -3.158203,0.7754 l -0.01563,0.01 -0.01563,0.01 -22.0175782,9.0078 -0.015625,0.01 C 5.6580868,1077.4324 5,1078.3478 5,1079.32 c 0,0.9722 0.6580868,1.8876 1.7773438,2.4473 l 0.015625,0.01 22.0175782,9.0078 -0.0332,-0.016 c 2.119257,1.0596 4.326055,1.0596 6.445312,0 l -0.0332,0.016 22.017578,-9.0078 0.01563,-0.01 C 58.341913,1081.2076 59,1080.2922 59,1079.32 c 0,-0.9722 -0.658087,-1.8876 -1.777344,-2.4473 l -0.01563,-0.01 -22.033203,-9.0136 -0.01563,-0.01 c -1.5,-0.5 -2.297092,-0.7754 -3.158203,-0.7754 z"
       id="path860" />
    <path
       inkscape:connector-curvature="0"
       style="color:#000000;font-style:normal;font-variant:normal;font-weight:normal;font-stretch:normal;font-size:medium;line-height:normal;font-family:sans-serif;font-variant-ligatures:normal;font-variant-position:normal;font-variant-caps:normal;font-variant-numeric:normal;font-variant-alternates:normal;font-feature-settings:normal;text-indent:0;text-align:start;text-decoration:none;text-decoration-line:none;text-decoration-style:solid;text-decoration-color:#000000;letter-spacing:normal;word-spacing:normal;text-transform:none;writing-mode:lr-tb;direction:ltr;text-orientation:mixed;dominant-baseline:auto;baseline-shift:baseline;text-anchor:start;white-space:normal;shape-padding:0;clip-rule:nonzero;display:inline;overflow:visible;visibility:visible;opacity:1;isolation:auto;mix-blend-mode:normal;color-interpolation:sRGB;color-interpolation-filters:linearRGB;solid-color:#000000;solid-opacity:1;vector-effect:none;fill:#29b6f6;fill-opacity:1;fill-rule:nonzero;stroke:none;stroke-width:1px;stroke-linecap:butt;stroke-linejoin:miter;stroke-miterlimit:4;stroke-dasharray:none;stroke-dashoffset:0;stroke-opacity:1;color-rendering:auto;image-rendering:auto;shape-rendering:auto;text-rendering:auto;enable-background:accumulate"
       d="m 32,1068.07 c 0.637135,0 1.342463,0.2255 2.833984,0.7227 l 21.949219,8.9785 C 57.658234,1078.2111 58,1078.7938 58,1079.32 c 0,0.5262 -0.341766,1.1089 -1.216797,1.5488 l -21.990234,8.9961 -0.01563,0.01 c -1.880743,0.9404 -3.673945,0.9404 -5.554688,0 l -0.01563,-0.01 -21.9902341,-8.9961 C 6.341765,1080.4289 6,1079.8462 6,1079.32 c 0,-0.5262 0.341765,-1.1089 1.2167969,-1.5488 l 21.9414061,-8.9766 c 0.0041,0 0.0037,-6e-4 0.0078,0 1.491521,-0.4972 2.196849,-0.7227 2.833984,-0.7227 z"
       id="path862" />
    <path
       style="color:#000000;font-style:normal;font-variant:normal;font-weight:normal;font-stretch:normal;font-size:medium;line-height:normal;font-family:sans-serif;font-variant-ligatures:normal;font-variant-position:normal;font-variant-caps:normal;font-variant-numeric:normal;font-variant-alternates:normal;font-feature-settings:normal;text-indent:0;text-align:start;text-decoration:none;text-decoration-line:none;text-decoration-style:solid;text-decoration-color:#000000;letter-spacing:normal;word-spacing:normal;text-transform:none;writing-mode:lr-tb;direction:ltr;text-orientation:mixed;dominant-baseline:auto;baseline-shift:baseline;text-anchor:start;white-space:normal;shape-padding:0;clip-rule:nonzero;display:inline;overflow:visible;visibility:visible;opacity:1;isolation:auto;mix-blend-mode:normal;color-interpolation:sRGB;color-interpolation-filters:linearRGB;solid-color:#000000;solid-opacity:1;vector-effect:none;fill:#0aa8f0;fill-opacity:1;fill-rule:nonzero;stroke:none;stroke-width:1px;stroke-linecap:butt;stroke-linejoin:miter;stroke-miterlimit:4;stroke-dasharray:none;stroke-dashoffset:0;stroke-opacity:1;color-rendering:auto;image-rendering:auto;shape-rendering:auto;text-rendering:auto;enable-background:accumulate"
       d="M 32 21.544922 L 32 21.550781 C 31.138889 21.550781 30.341796 21.826172 28.841797 22.326172 L 28.826172 22.335938 L 28.810547 22.345703 L 18.009766 26.765625 L 29.207031 31.345703 L 29.222656 31.355469 C 31.103399 32.295869 32.896601 32.295869 34.777344 31.355469 L 34.792969 31.345703 L 46.001953 26.759766 L 35.173828 22.330078 L 35.158203 22.320312 C 33.658203 21.820312 32.861111 21.544922 32 21.544922 z "
       id="path879"
       transform="translate(0,1058.5196)" />
    <path
       style="color:#000000;font-style:normal;font-variant:normal;font-weight:normal;font-stretch:normal;font-size:medium;line-height:normal;font-family:sans-serif;font-variant-ligatures:normal;font-variant-position:normal;font-variant-caps:normal;font-variant-numeric:normal;font-variant-alternates:normal;font-feature-settings:normal;text-indent:0;text-align:start;text-decoration:none;text-decoration-line:none;text-decoration-style:solid;text-decoration-color:#000000;letter-spacing:normal;word-spacing:normal;text-transform:none;writing-mode:lr-tb;direction:ltr;text-orientation:mixed;dominant-baseline:auto;baseline-shift:baseline;text-anchor:start;white-space:normal;shape-padding:0;clip-rule:nonzero;display:inline;overflow:visible;visibility:visible;opacity:1;isolation:auto;mix-blend-mode:normal;color-interpolation:sRGB;color-interpolation-filters:linearRGB;solid-color:#000000;solid-opacity:1;vector-effect:none;fill:#10adf5;fill-opacity:1;fill-rule:nonzero;stroke:none;stroke-width:1px;stroke-linecap:butt;stroke-linejoin:miter;stroke-miterlimit:4;stroke-dasharray:none;stroke-dashoffset:0;stroke-opacity:1;color-rendering:auto;image-rendering:auto;shape-rendering:auto;text-rendering:auto;enable-background:accumulate"
       d="M 32 22.550781 L 32 22.552734 C 31.362865 22.552734 30.657537 22.778191 29.166016 23.275391 C 29.161916 23.274791 29.162303 23.275391 29.158203 23.275391 L 19.318359 27.300781 L 29.207031 31.345703 L 29.222656 31.355469 C 31.103399 32.295869 32.896601 32.295869 34.777344 31.355469 L 34.792969 31.345703 L 44.679688 27.300781 L 34.833984 23.273438 C 33.342463 22.776237 32.637135 22.550781 32 22.550781 z "
       transform="translate(0,1058.5196)"
       id="path864" />
  </g>
</svg>
