<svg xmlns="http://www.w3.org/2000/svg" width="64" height="64" viewBox="0 0 16.933 16.933"><defs><clipPath id="a"><circle cx="8.467" cy="288.53" r="6.879" fill="#d86eb0" stroke-opacity=".039" stroke-width=".491" style="paint-order:stroke markers fill"/></clipPath></defs><circle cx="8.467" cy="8.466" r="7.144" fill="#4d4d4d" stroke="#000" stroke-width=".529" opacity=".75" style="paint-order:stroke markers fill"/><circle cx="8.467" cy="8.466" r="7.144" fill="#4d4d4d" style="paint-order:stroke markers fill"/><circle cx="8.467" cy="8.466" r="4.233" fill="none" stroke="#000" stroke-opacity=".255" stroke-width=".265" style="paint-order:stroke markers fill"/><circle cx="8.467" cy="8.466" r="4.233" opacity=".15" style="paint-order:stroke markers fill"/><path fill="#fff" d="M11.67 5.43h-.82v1.075c-.61-.842-1.342-1.219-2.394-1.219-1.818 0-3.192 1.375-3.192 3.192s1.385 3.158 3.258 3.158c1.03 0 1.673-.332 2.327-1.208v1.064h.82zm-3.192.61c1.34 0 2.371 1.042 2.371 2.394 0 1.385-1.02 2.449-2.327 2.449-1.374 0-2.427-1.075-2.427-2.46A2.38 2.38 0 0 1 8.478 6.04" aria-label="a" font-size="11.082" font-weight="400" letter-spacing="0" word-spacing="0"/><g fill="none" stroke="#fff" stroke-opacity=".937" stroke-width=".127" clip-path="url(#a)" transform="translate(-.326 -291.31)scale(1.0385)"><path d="M1.485 287.74c.72.155 1.391.625 1.983 1.98.674 1.545 1.623 2.23 2.772 2.284 1.48.07 2.673-1.226 3.459-2.385 1.602-2.362 4.519-2.136 5.816-1.251" opacity=".35"/><path d="M1.493 288.13c.894-.35 2.083-.424 2.872.827.722 1.143 1.576 2.867 4.049 2.709 1.478-.095 2.956-.71 3.718-2.15.53-.933 1.26-1.872 2.293-2.104.382-.081.655-.07.976.057" opacity=".35"/><path d="M1.775 290.25c.947-.444 2.745-.953 4.197-.53 1.297.38 2.937 1.847 6.056 1.504.824-.09 1.522-.563 2.183-1.464.478-.652.75-1.02 1.306-1.167" opacity=".35"/></g></svg>