<?xml version="1.0" encoding="UTF-8" standalone="no"?>
<!-- Created with Inkscape (http://www.inkscape.org/) -->

<svg
   xmlns:dc="http://purl.org/dc/elements/1.1/"
   xmlns:cc="http://creativecommons.org/ns#"
   xmlns:rdf="http://www.w3.org/1999/02/22-rdf-syntax-ns#"
   xmlns:svg="http://www.w3.org/2000/svg"
   xmlns="http://www.w3.org/2000/svg"
   xmlns:sodipodi="http://sodipodi.sourceforge.net/DTD/sodipodi-0.dtd"
   xmlns:inkscape="http://www.inkscape.org/namespaces/inkscape"
   width="64"
   height="64"
   viewBox="0 0 64 64.000003"
   id="svg2"
   version="1.1"
   inkscape:version="0.92.4 (5da689c313, 2019-01-14)"
   sodipodi:docname="babe.svg">
  <defs
     id="defs4" />
  <sodipodi:namedview
     id="base"
     pagecolor="#ffffff"
     bordercolor="#666666"
     borderopacity="1.0"
     inkscape:pageopacity="0.0"
     inkscape:pageshadow="2"
     inkscape:zoom="11.313708"
     inkscape:cx="33.308333"
     inkscape:cy="37.508442"
     inkscape:document-units="px"
     inkscape:current-layer="layer1"
     showgrid="true"
     units="px"
     inkscape:showpageshadow="false"
     borderlayer="true"
     inkscape:window-width="1366"
     inkscape:window-height="706"
     inkscape:window-x="0"
     inkscape:window-y="32"
     inkscape:window-maximized="1"
     showguides="true"
     guidetolerance="10000"
     inkscape:guide-bbox="true">
    <inkscape:grid
       type="xygrid"
       id="grid4136" />
    <sodipodi:guide
       position="5,59.000069"
       orientation="54,0"
       id="guide4142"
       inkscape:locked="false" />
    <sodipodi:guide
       position="5,5.0000688"
       orientation="0,54"
       id="guide4144"
       inkscape:locked="false" />
    <sodipodi:guide
       position="59,5.0000688"
       orientation="-54,0"
       id="guide4146"
       inkscape:locked="false" />
    <sodipodi:guide
       position="59,59.000069"
       orientation="0,-54"
       id="guide4148"
       inkscape:locked="false" />
    <sodipodi:guide
       position="0,64.000069"
       orientation="64,0"
       id="guide4150"
       inkscape:locked="false" />
    <sodipodi:guide
       position="0,6.875e-05"
       orientation="0,64"
       id="guide4152"
       inkscape:locked="false" />
    <sodipodi:guide
       position="32,32.000002"
       orientation="0,1"
       id="guide4351"
       inkscape:locked="false" />
    <sodipodi:guide
       position="32,32.000002"
       orientation="1,0"
       id="guide4353"
       inkscape:locked="false" />
  </sodipodi:namedview>
  <metadata
     id="metadata7">
    <rdf:RDF>
      <cc:Work
         rdf:about="">
        <dc:format>image/svg+xml</dc:format>
        <dc:type
           rdf:resource="http://purl.org/dc/dcmitype/StillImage" />
        <dc:title />
      </cc:Work>
    </rdf:RDF>
  </metadata>
  <g
     inkscape:label="Capa 1"
     inkscape:groupmode="layer"
     id="layer1"
     transform="translate(0,-1058.5196)">
    <rect
       style="fill:#e91e63;fill-opacity:1;stroke-width:1"
       id="rect3362"
       width="54"
       height="54"
       x="5"
       y="1063.5197"
       ry="3.4468913" />
    <rect
       ry="2.1600742"
       y="1064.5996"
       x="6.0799999"
       height="51.84"
       width="51.84"
       id="rect4154"
       style="fill:#f06292;fill-opacity:1;stroke-width:1" />
    <path
       style="opacity:1;fill:#fce4ec;fill-opacity:1;stroke:none;stroke-width:2;stroke-linecap:round;stroke-linejoin:round;stroke-miterlimit:4;stroke-dasharray:none;stroke-opacity:1"
       d="M 24 18 L 24 22 L 28 22 L 28 18 L 24 18 z M 36 18 L 36 22 L 40 22 L 40 18 L 36 18 z M 18 20 L 18 24 L 22 24 L 22 20 L 18 20 z M 42 20 L 42 24 L 46 24 L 46 20 L 42 20 z M 12 22 L 12 26 L 16 26 L 16 22 L 12 22 z M 30 22 L 30 26 L 34 26 L 34 22 L 30 22 z M 48 22 L 48 26 L 52 26 L 52 22 L 48 22 z M 24 24 L 24 28 L 28 28 L 28 24 L 24 24 z M 36 24 L 36 28 L 40 28 L 40 24 L 36 24 z M 18 26 L 18 30 L 22 30 L 22 26 L 18 26 z M 42 26 L 42 30 L 46 30 L 46 26 L 42 26 z M 12 28 L 12 32 L 16 32 L 16 28 L 12 28 z M 30 28 L 30 32 L 34 32 L 34 28 L 30 28 z M 48 28 L 48 32 L 52 32 L 52 28 L 48 28 z M 24 30 L 24 34 L 28 34 L 28 30 L 24 30 z M 36 30 L 36 34 L 40 34 L 40 30 L 36 30 z M 18 32 L 18 36 L 22 36 L 22 32 L 18 32 z M 42 32 L 42 36 L 46 36 L 46 32 L 42 32 z M 12 34 L 12 38 L 16 38 L 16 34 L 12 34 z M 30 34 L 30 38 L 34 38 L 34 34 L 30 34 z M 48 34 L 48 38 L 52 38 L 52 34 L 48 34 z M 24 36 L 24 40 L 28 40 L 28 36 L 24 36 z M 36 36 L 36 40 L 40 40 L 40 36 L 36 36 z M 18 38 L 18 42 L 22 42 L 22 38 L 18 38 z M 42 38 L 42 42 L 46 42 L 46 38 L 42 38 z M 30 40 L 30 44 L 34 44 L 34 40 L 30 40 z M 24 42 L 24 46 L 28 46 L 28 42 L 24 42 z M 36 42 L 36 46 L 40 46 L 40 42 L 36 42 z M 30 46 L 30 50 L 34 50 L 34 46 L 30 46 z "
       transform="translate(0,1058.5196)"
       id="rect4212" />
  </g>
</svg>
