<?xml version="1.0" encoding="UTF-8" standalone="no"?>
<svg
   xmlns:dc="http://purl.org/dc/elements/1.1/"
   xmlns:cc="http://creativecommons.org/ns#"
   xmlns:rdf="http://www.w3.org/1999/02/22-rdf-syntax-ns#"
   xmlns:svg="http://www.w3.org/2000/svg"
   xmlns="http://www.w3.org/2000/svg"
   xmlns:xlink="http://www.w3.org/1999/xlink"
   xmlns:sodipodi="http://sodipodi.sourceforge.net/DTD/sodipodi-0.dtd"
   xmlns:inkscape="http://www.inkscape.org/namespaces/inkscape"
   width="64px"
   height="64px"
   viewBox="0 0 64 64"
   version="1.1"
   id="svg104"
   sodipodi:docname="baobab.svg"
   inkscape:version="0.92.4 (5da689c313, 2019-01-14)">
  <metadata
     id="metadata108">
    <rdf:RDF>
      <cc:Work
         rdf:about="">
        <dc:format>image/svg+xml</dc:format>
        <dc:type
           rdf:resource="http://purl.org/dc/dcmitype/StillImage" />
        <dc:title>gparted</dc:title>
      </cc:Work>
    </rdf:RDF>
  </metadata>
  <sodipodi:namedview
     pagecolor="#ffffff"
     bordercolor="#666666"
     borderopacity="1"
     objecttolerance="10"
     gridtolerance="10"
     guidetolerance="10"
     inkscape:pageopacity="0"
     inkscape:pageshadow="2"
     inkscape:window-width="1366"
     inkscape:window-height="710"
     id="namedview106"
     showgrid="true"
     inkscape:zoom="7.375"
     inkscape:cx="26.970455"
     inkscape:cy="30.028224"
     inkscape:window-x="0"
     inkscape:window-y="0"
     inkscape:window-maximized="1"
     inkscape:current-layer="svg104"
     inkscape:object-paths="true"
     inkscape:snap-bbox="true"
     inkscape:bbox-nodes="true"
     inkscape:snap-intersection-paths="true"
     inkscape:snap-smooth-nodes="true"
     inkscape:snap-bbox-midpoints="true"
     inkscape:snap-bbox-edge-midpoints="true"
     inkscape:snap-midpoints="true"
     showguides="true"
     inkscape:guide-bbox="true">
    <inkscape:grid
       type="xygrid"
       id="grid873" />
  </sodipodi:namedview>
  <!-- Generator: Sketch 46.2 (44496) - http://www.bohemiancoding.com/sketch -->
  <title
     id="title2">gparted</title>
  <desc
     id="desc4">Created with Sketch.</desc>
  <g
     id="g869"
     transform="translate(161,38.640034)">
    <path
       inkscape:connector-curvature="0"
       id="rect4517-7"
       d="m -150,-33.640032 v 54 h 42 v -54 z"
       style="opacity:1;fill:#e1e3e7;fill-opacity:1;stroke:none;stroke-width:0.99999994;stroke-linecap:butt;stroke-linejoin:miter;stroke-miterlimit:4;stroke-dasharray:none;stroke-dashoffset:0;stroke-opacity:0.23979594" />
    <rect
       ry="0.5"
       rx="0.5"
       y="-34.140034"
       x="-150.5"
       height="55"
       width="43"
       id="rect4517"
       style="opacity:1;fill:none;fill-opacity:1;stroke:#000000;stroke-width:0.99999994;stroke-linecap:butt;stroke-linejoin:miter;stroke-miterlimit:4;stroke-dasharray:none;stroke-dashoffset:0;stroke-opacity:0.23979594" />
    <rect
       ry="1"
       rx="1"
       y="-32.640034"
       x="-149"
       height="2"
       width="2"
       id="rect4617"
       style="opacity:1;fill:#8c8c8c;fill-opacity:1;stroke:none;stroke-width:1;stroke-linecap:butt;stroke-linejoin:miter;stroke-miterlimit:4;stroke-dasharray:none;stroke-dashoffset:0;stroke-opacity:0.64313725" />
    <rect
       ry="1"
       rx="1"
       y="-32.640034"
       x="-111"
       height="2"
       width="2"
       id="rect4617-6"
       style="opacity:1;fill:#8c8c8c;fill-opacity:1;stroke:none;stroke-width:1;stroke-linecap:butt;stroke-linejoin:miter;stroke-miterlimit:4;stroke-dasharray:none;stroke-dashoffset:0;stroke-opacity:0.64313725" />
    <rect
       ry="1"
       rx="1"
       y="17.359968"
       x="-111"
       height="2"
       width="2"
       id="rect4617-5"
       style="opacity:1;fill:#8c8c8c;fill-opacity:1;stroke:none;stroke-width:1;stroke-linecap:butt;stroke-linejoin:miter;stroke-miterlimit:4;stroke-dasharray:none;stroke-dashoffset:0;stroke-opacity:0.64313725" />
    <rect
       ry="1"
       rx="1"
       y="17.359968"
       x="-149"
       height="2"
       width="2"
       id="rect4617-2"
       style="opacity:1;fill:#8c8c8c;fill-opacity:1;stroke:none;stroke-width:1;stroke-linecap:butt;stroke-linejoin:miter;stroke-miterlimit:4;stroke-dasharray:none;stroke-dashoffset:0;stroke-opacity:0.64313725" />
    <rect
       ry="1"
       rx="1"
       y="-7.6400323"
       x="-149"
       height="2"
       width="2"
       id="rect4617-8"
       style="opacity:1;fill:#8c8c8c;fill-opacity:1;stroke:none;stroke-width:1;stroke-linecap:butt;stroke-linejoin:miter;stroke-miterlimit:4;stroke-dasharray:none;stroke-dashoffset:0;stroke-opacity:0.64313725" />
    <rect
       ry="1"
       rx="1"
       y="-7.6400323"
       x="-111"
       height="2"
       width="2"
       id="rect4617-87"
       style="opacity:1;fill:#8c8c8c;fill-opacity:1;stroke:none;stroke-width:1;stroke-linecap:butt;stroke-linejoin:miter;stroke-miterlimit:4;stroke-dasharray:none;stroke-dashoffset:0;stroke-opacity:0.64313725" />
    <path
       inkscape:connector-curvature="0"
       id="rect4668"
       d="m -122,-30.140032 -17.93359,18.16992 A 16.5,16.5 0 0 0 -145.5,0.35996778 16.5,16.5 0 0 0 -129,16.859968 a 16.5,16.5 0 0 0 16.5,-16.50000022 16.5,16.5 0 0 0 -0.0293,-0.85156 c 0.0149,-0.04755 0.0293,-0.09584 0.0293,-0.14844 V -29.640032 c 0,-0.277 -0.223,-0.5 -0.5,-0.5 z"
       style="opacity:1;fill:#edeff3;fill-opacity:1;stroke:#cbcdd1;stroke-width:0.99999988;stroke-linecap:butt;stroke-linejoin:miter;stroke-miterlimit:4;stroke-dasharray:none;stroke-dashoffset:0;stroke-opacity:1" />
    <ellipse
       ry="6.5"
       rx="6.4999995"
       cy="0.35996777"
       cx="-129"
       id="path4662"
       style="opacity:1;fill:#e1e3e7;fill-opacity:1;stroke:#cfd1d5;stroke-width:1;stroke-linecap:butt;stroke-linejoin:miter;stroke-miterlimit:4;stroke-dasharray:none;stroke-dashoffset:0;stroke-opacity:1" />
    <rect
       ry="1.5"
       rx="1.5"
       y="-27.140032"
       x="-143.5"
       height="12"
       width="20"
       id="rect4676"
       style="opacity:1;fill:#4c5263;fill-opacity:1;stroke:#313643;stroke-width:0.99999994;stroke-linecap:butt;stroke-linejoin:miter;stroke-miterlimit:4;stroke-dasharray:none;stroke-dashoffset:0;stroke-opacity:1" />
    <path
       inkscape:connector-curvature="0"
       style="display:inline;fill:#e9eaee;fill-opacity:1;stroke:none"
       d="m -142,-24.640032 v 1 h 3.18928 v -1 z m 3.60893,0 v 1 h 3.02142 v -1 z m 3.44107,0 v 1 h 2.64374 v -1 z m 3.06339,0 v 1 h 1.175 v -1 z m -10.11339,3 v 1 h 5.07768 v -1 z m 5.58125,0 v 1 h 2.43392 v -1 z m 2.89553,0 v 1 h 1.13304 v -1 z m -8.47678,3 v 1 h 5.62321 v -1 z m 6.04285,0 v 1 h 2.94315 v -1 z"
       id="path4149-8-7-9"
       sodipodi:nodetypes="ccccccccccccccccccccccccccccccccccccccccccccc" />
    <path
       inkscape:connector-curvature="0"
       style="display:inline;fill:#e9eaee;fill-opacity:1;stroke:none"
       d="m -130,-18.640032 v 1 h 5.07767 v -1 z"
       id="path4149-8-7-9-4"
       sodipodi:nodetypes="ccccc" />
  </g>
  <defs
     id="defs18">
    <linearGradient
       x1="5"
       y1="0"
       x2="5"
       y2="10"
       id="linearGradient-1"
       gradientUnits="userSpaceOnUse">
      <stop
         stop-color="#020300"
         offset="0%"
         id="stop6" />
      <stop
         stop-color="#000200"
         offset="100%"
         id="stop8" />
    </linearGradient>
    <path
       d="M5,10 C2.2385,10 0,7.76119403 0,4.999875 C0,2.23880597 2.2385,0 5,0 C7.7615,0 10,2.23880597 10,4.999875 C10,7.76119403 7.7615,10 5,10 Z"
       id="path-2" />
    <path
       d="M2.42889983,9.2891349 C1.60347183,8.79325041 0.93297511,8.06583581 0.507219493,7.19674243 L9.48604873,2.78947866 C9.15322599,2.11536029 8.67291835,1.52705476 8.08726075,1.06672259 L2.42889983,9.2891349 Z"
       id="path-4" />
    <linearGradient
       x1="5"
       y1="6"
       x2="5"
       y2="4"
       id="linearGradient-6"
       gradientUnits="userSpaceOnUse"
       gradientTransform="translate(-8.322034,28.644068)">
      <stop
         stop-color="#E2E096"
         offset="0%"
         id="stop13" />
      <stop
         stop-color="#F9F8D2"
         offset="100%"
         id="stop15" />
    </linearGradient>
    <mask
       fill="white"
       id="mask-3">
      <use
         height="100%"
         width="100%"
         y="0"
         x="0"
         id="use53"
         xlink:href="#path-2" />
    </mask>
    <mask
       fill="white"
       id="mask-5">
      <use
         height="100%"
         width="100%"
         y="0"
         x="0"
         id="use57"
         xlink:href="#path-4" />
    </mask>
  </defs>
  <g
     style="fill:none;fill-rule:evenodd;stroke:none;stroke-width:1"
     id="阴影"
     transform="translate(6.5,3.5)" />
  <g
     id="record"
     transform="translate(16,11)"
     style="fill:#49494c;fill-rule:evenodd;stroke:none;stroke-width:1" />
  <g
     id="g910"
     transform="translate(0,12)">
    <path
       inkscape:connector-curvature="0"
       id="Fill-2"
       d="M 32,16.122137 C 32,24.836533 24.8368,32 16,32 7.1632,32 0,24.836533 0,16.122137 0,7.1637333 7.1632,0 16,0 24.8368,0 32,7.1637333 32,16.122137"
       style="fill:#49494c;fill-rule:evenodd;stroke:#000000;stroke-width:1;stroke-opacity:0.39215687"
       transform="translate(16,11)" />
    <g
       id="g900">
      <circle
         style="opacity:1;fill:#ff964a;fill-opacity:1;stroke:none;stroke-width:2.0869565;stroke-miterlimit:4;stroke-dasharray:none;stroke-opacity:0.05882353;paint-order:markers stroke fill"
         id="path1163"
         cx="32"
         cy="27"
         r="12" />
      <path
         id="path1174"
         d="m 23.514718,18.514719 a 12,12 0 0 0 1e-6,16.970563 12,12 0 0 0 16.970562,0 z"
         style="opacity:1;fill:#6fbb55;fill-opacity:1;stroke:none;stroke-width:2.0869565;stroke-miterlimit:4;stroke-dasharray:none;stroke-opacity:0.05882353;paint-order:markers stroke fill"
         inkscape:connector-curvature="0" />
      <path
         style="opacity:1;fill:#4babbe;fill-opacity:1;stroke:none;stroke-width:2.0869565;stroke-miterlimit:4;stroke-dasharray:none;stroke-opacity:0.05882353;paint-order:markers stroke fill"
         d="M 32,15 A 12,12 0 0 0 20,27 12,12 0 0 0 32,39 Z"
         id="circle1169"
         inkscape:connector-curvature="0" />
      <circle
         r="2"
         cy="27"
         cx="32"
         id="circle1180"
         style="opacity:1;fill:#ffffff;fill-opacity:1;stroke:none;stroke-width:0.34782609;stroke-miterlimit:4;stroke-dasharray:none;stroke-opacity:0.05882353;paint-order:markers stroke fill" />
    </g>
  </g>
</svg>
