<svg xmlns="http://www.w3.org/2000/svg" width="64" height="64" viewBox="0 0 16.933 16.933"><path fill="#464646" stroke="#202020" stroke-width=".529" d="M15.61 8.467a7.13 7.13 0 0 0-7.144-7.144c-.708 0-1.047.821-1.692 1.011-2.416.713-4.635 1.943-5.242 4.402a7.2 7.2 0 0 0-.21 1.73 7.13 7.13 0 0 0 7.144 7.144c.364 0 .784-.652 1.132-.704 2.624-.39 4.71-1.572 5.587-3.998a7.2 7.2 0 0 0 .425-2.441z"/><path fill="#464646" d="M15.61 8.467a7.13 7.13 0 0 0-7.144-7.144c-.708 0-1.047.821-1.692 1.011-2.416.713-4.635 1.943-5.242 4.402a7.2 7.2 0 0 0-.21 1.73 7.13 7.13 0 0 0 7.144 7.144c.364 0 .784-.652 1.132-.704 2.624-.39 4.71-1.572 5.587-3.998a7.2 7.2 0 0 0 .425-2.441"/><circle cx="8.466" cy="8.466" r="4.082" fill="#ccc" stroke="#1f1f1f" stroke-width=".265" opacity=".5"/><circle cx="8.466" cy="8.466" r="4.082" fill="#ccc"/><path fill="#fb4848" stroke="#ea1e1e" stroke-width=".529" d="M8.466 1.323a7.13 7.13 0 0 0-5.488 2.576l-.92-.92a.43.43 0 0 0-.31-.126.43.43 0 0 0-.425.43v3.732a.43.43 0 0 0 .43.43h3.732a.43.43 0 0 0 .304-.734l-.631-.631a4.07 4.07 0 0 1 3.309-1.695z"/><path fill="#fb4848" d="M8.466 1.323a7.13 7.13 0 0 0-5.488 2.576l-.92-.92a.43.43 0 0 0-.31-.126.43.43 0 0 0-.425.43v3.732a.43.43 0 0 0 .43.43h3.732a.43.43 0 0 0 .304-.734l-.631-.631a4.07 4.07 0 0 1 3.309-1.695z"/><path fill="#486afb" stroke="#1f46e5" stroke-width=".529" d="M11.448 9.487a.43.43 0 0 0-.304.734l.633.633a4.08 4.08 0 0 1-3.31 1.694v3.062a7.12 7.12 0 0 0 5.488-2.578l.92.92a.43.43 0 0 0 .311.127.43.43 0 0 0 .424-.43V9.916a.43.43 0 0 0-.43-.43z"/><path fill="#486afb" d="M11.448 9.487a.43.43 0 0 0-.304.734l.633.633a4.08 4.08 0 0 1-3.31 1.694v3.062a7.12 7.12 0 0 0 5.488-2.578l.92.92a.43.43 0 0 0 .311.127.43.43 0 0 0 .424-.43V9.916a.43.43 0 0 0-.43-.43z"/><circle cx="8.466" cy="8.466" r="1.531" fill="#f2f2f2"/></svg>