<?xml version="1.0" encoding="UTF-8"?>
<svg width="64" height="64" version="1.1" xmlns="http://www.w3.org/2000/svg">
 <g>
  <circle cx="32" cy="32" r="27" fill="#deb247" stroke="#091c19" stroke-width="2"/>
  <circle cx="32" cy="32" r="27" fill="#deb247"/>
  <path d="m31.588 50.039c-0.58006-0.07685-0.685-0.10102-1.1332-0.26094-1.3602-0.4853-2.7904-1.6129-3.8902-3.0672-0.72375-0.95704-1.2265-2.012-1.5756-3.3064-0.16764-0.62151-0.29646-1.2226-0.29652-1.3837-2.8e-5 -0.08221 0.03738-0.34746 0.08316-0.58944 0.13865-0.73314 0.61298-3.3414 0.61298-3.3707 0-0.01509-0.07498 0.04521-0.16664 0.13396-0.52966 0.51291-1.5634 1.378-2.1665 1.8132-0.85452 0.61652-1.6849 1.0259-2.4035 1.185-0.37474 0.08297-0.42386 0.08761-0.90292 0.08554-0.64899-0.0028-1.0027-0.06715-1.537-0.27953-0.86259-0.34291-1.66-0.90261-2.6317-1.8472-0.66713-0.64851-1.0166-1.0807-1.2509-1.5467-0.20966-0.41717-0.27722-0.73835-0.27563-1.3104v-0.37735l-0.28599-0.20706c-1.2377-0.8961-1.8972-1.6503-2.7261-3.1179-0.72626-1.2857-1.0676-2.2107-1.0653-2.8867 0.0027-0.45355 0.0312-0.59158 0.20348-0.94643 0.13976-0.28785 0.17611-0.33951 0.36192-0.51431 0.35933-0.33802 0.52259-0.44305 1.0058-0.64708 0.32402-0.13679 0.58807-0.22517 0.96364-0.3225 1.37-0.35506 3.5003-0.62449 5.5169-0.69778 2.3595-0.08574 4.4482 0.17457 8.1694 1.0182 0.56073 0.12712 0.72127 0.15503 0.73779 0.12827 0.03638-0.05885 0.05951-0.52274 0.04021-0.80636-0.02699-0.39662-0.08988-0.85619-0.14842-1.0848-0.07887-0.30794-0.15951-0.52403-0.43293-1.1599-0.50113-1.1656-0.6397-1.7376-0.63952-2.6398 1.89e-4 -0.79545 0.11128-1.3319 0.41482-2.0029 0.23503-0.51956 0.48669-0.87243 0.93147-1.306 0.20918-0.20393 0.48057-0.44277 0.60313-0.53076 0.12256-0.088 0.25196-0.18398 0.28758-0.21331l0.06478-0.05334-0.08615-0.15998c-0.28019-0.52032-0.72281-0.96121-1.7197-1.7129-0.69406-0.52339-0.79385-0.66306-0.79549-1.1135 0-0.2342 0.0075-0.28506 0.06996-0.41797 0.24424-0.52097 0.86383-0.73712 1.3741-0.47936 0.15773 0.07967 0.7562 0.52228 1.2614 0.93289 0.3874 0.31485 0.96679 0.90103 1.1904 1.2043 0.17861 0.24228 0.46388 0.72814 0.55187 0.93992 0.03789 0.09121 0.05063 0.09999 0.14492 0.09999 0.05685 0 0.22845-0.01725 0.38132-0.03833 0.43034-0.05934 1.0584-0.09886 1.5712-0.09886 0.51281 0 1.1408 0.03952 1.5712 0.09886 0.15288 0.02109 0.32447 0.03833 0.38133 0.03833 0.0943 0 0.10702-0.0088 0.14492-0.09999 0.08798-0.21178 0.37326-0.69764 0.55187-0.93992 0.22359-0.3033 0.80299-0.88948 1.1904-1.2043 0.50354-0.40924 1.1035-0.85312 1.2599-0.93211 0.51184-0.25856 1.1311-0.04313 1.3756 0.47858 0.0623 0.13291 0.07081 0.18377 0.06996 0.41797-0.0016 0.45045-0.10142 0.59011-0.79548 1.1135-0.99684 0.75172-1.4395 1.1926-1.7197 1.7129l-0.08615 0.15998 0.06477 0.05334c0.03562 0.02932 0.16504 0.12532 0.28759 0.21331 0.12255 0.08799 0.39397 0.32683 0.60314 0.53076 0.44476 0.4336 0.69644 0.78647 0.93147 1.306 0.30352 0.67094 0.41463 1.2074 0.41481 2.0029 2.61e-4 0.90221-0.13838 1.4742-0.63952 2.6398-0.2734 0.63587-0.35406 0.85196-0.43293 1.1599-0.05855 0.22857-0.12142 0.68815-0.14841 1.0848-0.0193 0.28362 0.0039 0.7475 0.0402 0.80636 0.01654 0.02675 0.17708-0.0011 0.73781-0.12827 3.7235-0.84413 5.8084-1.104 8.1694-1.0182 2.0166 0.07328 4.1468 0.34273 5.5169 0.69778 0.37556 0.09733 0.63962 0.1857 0.96364 0.3225 0.48326 0.20403 0.64652 0.30906 1.0058 0.64708 0.1858 0.17479 0.22216 0.22645 0.36192 0.51431 0.17229 0.35485 0.20196 0.49288 0.20348 0.94643 0.0022 0.67598-0.3391 1.601-1.0653 2.8867-0.82896 1.4675-1.4884 2.2218-2.7261 3.1179l-0.286 0.20706 0.0011 0.37735c0.0016 0.57205-0.06595 0.89322-0.27563 1.3104-0.23423 0.46604-0.58375 0.89824-1.2509 1.5467-0.97171 0.94459-1.7691 1.5043-2.6317 1.8472-0.53426 0.21238-0.88801 0.27672-1.537 0.27953-0.47907 0.0022-0.52818-0.0027-0.90291-0.08554-0.71859-0.15908-1.5489-0.56848-2.4035-1.185-0.60312-0.43513-1.6368-1.3003-2.1665-1.8132-0.09166-0.08876-0.16665-0.14904-0.16665-0.13396 0 0.02934 0.47433 2.6376 0.61299 3.3707 0.04577 0.24198 0.08318 0.50723 0.08316 0.58944 0 0.16108-0.12888 0.76222-0.29652 1.3837-0.34912 1.2943-0.85187 2.3493-1.5756 3.3064-1.0964 1.4498-2.5374 2.5875-3.8769 3.061-0.57008 0.20149-0.48681 0.18086-0.98658 0.24441-0.45252 0.05753-0.68403 0.06289-0.98658 0.0228zm0.7866-2.0346c1.448-0.22466 3.4231-2.012 4.2436-3.84 0.149-0.332 0.18191-0.43996 0.13411-0.43996-0.01206 0-0.31505 0.10297-0.67328 0.22882-0.48129 0.16909-0.86014 0.27972-1.4512 0.42377-0.43996 0.10722-0.84193 0.20208-0.89326 0.21081-0.22145 0.03764-1.5264 0.15237-1.7332 0.15237-0.20674 0-1.5117-0.11473-1.7332-0.15237-0.05133-0.0088-0.4533-0.10358-0.89326-0.21081-0.59111-0.14405-0.96995-0.25468-1.4512-0.42377-0.35822-0.12585-0.66122-0.22882-0.67328-0.22882-0.04781 0-0.01484 0.10797 0.13412 0.43996 0.8145 1.8148 2.7991 3.6168 4.2302 3.841 0.29067 0.04553 0.46187 0.04531 0.75993-8.09e-4zm0.38664-5.3491c0.5656-0.05222 0.67133-0.07074 1.3599-0.23823 0.56651-0.1378 0.92991-0.24573 1.5065-0.44744 1.0964-0.38352 1.5199-0.55715 1.5199-0.62315 0-0.10567-0.37483-2.0872-0.39948-2.1119-0.01611-0.01611-0.11112 2.69e-4 -0.2596 0.04496-1.3796 0.41462-2.5493 0.65951-3.5406 0.74127-0.35197 0.02903-0.77793 0.05278-0.94658 0.05278-0.16865 0-0.59462-0.02375-0.94659-0.05278-0.99128-0.08176-2.161-0.32664-3.5406-0.74127-0.14848-0.04463-0.24346-0.06107-0.2596-0.04496-0.02456 0.02465-0.39946 2.0062-0.39946 2.1119 0 0.06599 0.42329 0.23956 1.5199 0.62317 1.0875 0.38045 1.9559 0.59296 2.7598 0.67538 0.75544 0.07746 0.88963 0.0783 1.6265 0.01024zm-12.54-3.4356c0.81871-0.19144 1.902-0.93139 3.5137-2.4 0.98848-0.90075 2.8081-2.6601 2.7869-2.6945-0.0073-0.01193-0.06934-0.04077-0.13768-0.06405l-0.12426-0.04234-1.2289 0.33545c-2.6184 0.71472-3.0824 0.81518-6.5751 1.4235-1.2686 0.22093-2.3215 0.40706-2.3398 0.41363-0.04734 0.01695-0.04338 0.36459 0.0053 0.4815 0.07204 0.1724 0.3457 0.50321 0.76114 0.9201 0.95155 0.95487 1.7432 1.4883 2.4294 1.6372 0.25404 0.05511 0.64812 0.05057 0.90923-0.01047zm24.458 0.01147c0.69462-0.14714 1.4812-0.67502 2.441-1.6382 0.41544-0.41689 0.68909-0.7477 0.76113-0.9201 0.04884-0.11691 0.0528-0.46455 0.0055-0.4815-0.01833-0.0066-1.0712-0.19271-2.3398-0.41364-3.4927-0.60829-3.9568-0.70875-6.5751-1.4235l-1.2289-0.33545-0.12425 0.04234c-0.06834 0.02329-0.1303 0.05211-0.13768 0.06405-0.02127 0.03441 1.7984 1.7938 2.7869 2.6945 1.5923 1.451 2.6837 2.2001 3.4926 2.3974 0.24904 0.06073 0.66803 0.06715 0.91868 0.01407zm-11.86-1.227c0.65982-0.05339 1.4901-0.21665 2.4241-0.47666 0.99842-0.27793 1.0891-0.30938 1.0993-0.38114 0.0084-0.05922-0.14205-0.80404-0.1676-0.8296-0.0076-0.0076-0.37087 0.0655-0.80721 0.16249-1.3507 0.30022-2.3372 0.42466-3.3665 0.42466-1.0293 0-2.0157-0.12443-3.3665-0.42466-0.43633-0.09698-0.79957-0.1701-0.80721-0.16249-0.02564 0.02556-0.17603 0.77038-0.16758 0.8296 0.01024 0.07176 0.10092 0.10321 1.0993 0.38114 1.6294 0.45358 2.7374 0.58367 4.0598 0.47666zm-0.16456-3.1441c0.61399-0.04113 1.366-0.15146 2.0258-0.29718 0.23424-0.05174 0.43057-0.09875 0.43629-0.10446 0.0057-0.0057-0.0031-0.08751-0.01946-0.18175-0.03507-0.20135-0.04246-0.54713-0.01493-0.69825 0.02367-0.12993 0.12563-0.33915 0.22965-0.47126l0.07723-0.09807-0.36065-0.17342c-0.45447-0.21855-0.75852-0.40237-0.95202-0.57559-0.30804-0.27575-0.54788-0.67359-0.67731-1.1235-0.06153-0.21383-0.0717-0.29875-0.07152-0.59687 2.69e-4 -0.51468 0.10306-0.82344 0.39634-1.191 0.23591-0.29567 0.55703-0.55771 1.0359-0.8453l0.28119-0.16888v-0.20696c0-0.16332-0.0099-0.21582-0.04667-0.24899-0.07674-0.06912-0.95873-0.5083-1.2599-0.62735-0.64007-0.25303-1.2819-0.33403-2.1931-0.2768-0.52238 0.03282-0.81934 0.09737-1.2732 0.2768-0.30116 0.11905-1.1832 0.55823-1.2599 0.62735-0.03682 0.03317-0.04667 0.08567-0.04667 0.24899v0.20696l0.28119 0.16888c0.47885 0.28759 0.79997 0.54962 1.0359 0.8453 0.29328 0.36758 0.39603 0.67633 0.39634 1.191 2e-4 0.29812-0.01001 0.38304-0.07151 0.59687-0.12943 0.44989-0.36928 0.84773-0.67732 1.1235-0.1935 0.17322-0.49754 0.35704-0.95202 0.57559l-0.36065 0.17342 0.07723 0.09807c0.10403 0.1321 0.20599 0.34132 0.22965 0.47126 0.02753 0.15112 0.02013 0.4969-0.01493 0.69825-0.01641 0.09425-0.02516 0.17604-0.01946 0.18175 0.02589 0.02589 0.91223 0.20654 1.3821 0.28172 0.46828 0.07491 1.242 0.14664 1.6665 0.15448 0.088 0.0016 0.41197-0.01393 0.71994-0.03455zm-15.857-0.84279c4.8113-0.83778 4.7655-0.82846 6.9431-1.411 2.1128-0.56523 2.1553-0.57862 2.9012-0.91483 1.4526-0.65479 1.7694-0.80914 1.9052-0.92842 0.16044-0.14087 0.12238-0.22046-0.21204-0.44333-0.29285-0.19517-0.45107-0.2682-0.70661-0.32619-0.13932-0.03161-0.78127-0.17772-1.4265-0.32468-3.5317-0.80433-4.9724-1.0258-7.0127-1.078-2.5415-0.06502-6.3922 0.47524-7.1027 0.99652-0.08645 0.06344-0.08942 0.0714-0.07574 0.20393 0.03854 0.37343 0.42872 1.2182 0.99784 2.1605 0.57204 0.9471 1.0084 1.4279 1.8743 2.0653 0.19798 0.14572 0.36362 0.26566 0.3681 0.26653 0.0046 8.09e-4 0.70043-0.11897 1.5465-0.2663zm32.326-0.0055c0.84633-0.61573 1.3142-1.1321 1.8806-2.0757 0.56704-0.94469 0.94937-1.7751 0.98753-2.1448 0.01369-0.13253 0.0107-0.1405-0.07575-0.20393-0.35584-0.26107-1.6678-0.5741-3.2097-0.76584-1.428-0.17757-2.779-0.25754-3.893-0.23045-2.0229 0.04919-3.4791 0.27299-7.0127 1.0778-0.64528 0.14696-1.2872 0.29307-1.4265 0.32468-0.25554 0.05799-0.41375 0.13102-0.7066 0.32619-0.49404 0.32925-0.4545 0.38486 0.63175 0.88841 0.20982 0.09727 0.68747 0.31477 1.0614 0.48334 0.73731 0.33235 0.75494 0.33797 2.7464 0.87416 2.0623 0.55526 2.5261 0.65419 5.4929 1.1716 1.1366 0.1982 2.2945 0.40134 2.5731 0.45142 0.27865 0.05008 0.52201 0.0923 0.54082 0.09382 0.01881 0.0016 0.20324-0.12021 0.40986-0.27053zm-19.928-8.4961c0.34356-0.15639 0.72059-0.298 0.99251-0.37278 0.98791-0.27167 2.6384-0.27167 3.6264 0 0.27192 0.07477 0.64896 0.21639 0.99251 0.37278 0.15725 0.07159 0.29703 0.13015 0.31063 0.13015 0.01361 0 0.0447-0.09299 0.06911-0.20665 0.07216-0.33597 0.19238-0.67552 0.47381-1.3381 0.29542-0.69555 0.39124-0.95413 0.47-1.2683 0.21564-0.86018 0.09544-1.6877-0.33783-2.3257-0.21135-0.31122-0.79242-0.79233-1.34-1.1095-0.23526-0.13626-1.5127-0.28453-2.4514-0.28453s-2.2161 0.14827-2.4514 0.28453c-0.5476 0.31715-1.1287 0.79826-1.34 1.1095-0.43325 0.638-0.55344 1.4655-0.33781 2.3257 0.07876 0.31419 0.17458 0.57277 0.47002 1.2683 0.2814 0.6626 0.40164 1.0022 0.47379 1.3381 0.0244 0.11366 0.05551 0.20665 0.06911 0.20665s0.15338-0.05857 0.31063-0.13015z" fill="#091c19" stroke-width=".026664"/>
 </g>
</svg>
