<svg xmlns="http://www.w3.org/2000/svg" width="64" height="64"><circle cx="32" cy="32" r="27" fill="#deb247" stroke="#091c19" stroke-width="2"/><circle cx="32" cy="32" r="27" fill="#deb247"/><path fill="#091c19" d="M31.588 50.039c-.58-.077-.685-.101-1.133-.26-1.36-.486-2.79-1.614-3.89-3.068-.724-.957-1.227-2.012-1.576-3.307-.168-.621-.296-1.222-.297-1.383 0-.082.038-.348.084-.59.138-.733.613-3.341.613-3.37 0-.015-.075.045-.167.134a25 25 0 0 1-2.167 1.813c-.854.616-1.684 1.026-2.403 1.185-.375.083-.424.087-.903.085-.649-.002-1.003-.067-1.537-.28-.863-.342-1.66-.902-2.632-1.846-.667-.649-1.016-1.081-1.25-1.547-.21-.417-.278-.738-.276-1.31v-.378l-.286-.207c-1.238-.896-1.897-1.65-2.726-3.118-.727-1.286-1.068-2.21-1.066-2.887.003-.453.032-.591.204-.946.14-.288.176-.34.362-.514.36-.338.522-.443 1.006-.647.324-.137.588-.226.963-.323 1.37-.355 3.5-.624 5.517-.698 2.36-.085 4.448.175 8.17 1.019.56.127.72.155.737.128.037-.059.06-.523.04-.807a7 7 0 0 0-.148-1.084c-.079-.308-.16-.524-.433-1.16-.5-1.166-.64-1.738-.64-2.64 0-.795.112-1.332.416-2.003.235-.52.486-.872.931-1.306.21-.204.48-.443.603-.53.123-.089.252-.185.288-.214l.064-.053-.086-.16c-.28-.52-.722-.962-1.72-1.713-.693-.524-.793-.663-.795-1.114 0-.234.008-.285.07-.418a1.01 1.01 0 0 1 1.374-.479c.158.08.756.522 1.262.933.387.315.966.9 1.19 1.204.179.242.464.728.552.94.038.091.05.1.145.1.057 0 .228-.017.381-.038.43-.06 1.059-.1 1.571-.1.513 0 1.141.04 1.572.1.152.02.324.038.38.038.095 0 .108-.009.146-.1a6.3 6.3 0 0 1 .552-.94c.223-.303.803-.89 1.19-1.204.504-.41 1.104-.853 1.26-.932a1.01 1.01 0 0 1 1.376.478c.062.133.07.184.07.418-.002.45-.102.59-.796 1.114-.997.752-1.44 1.192-1.72 1.713l-.086.16.065.053c.036.03.165.125.288.213s.393.327.603.531c.444.434.696.787.931 1.306.304.671.415 1.207.415 2.003 0 .902-.138 1.474-.64 2.64-.273.636-.354.852-.433 1.16a7 7 0 0 0-.148 1.084c-.02.284.004.748.04.807.017.027.177-.001.738-.128 3.724-.845 5.808-1.104 8.17-1.019 2.016.074 4.146.343 5.516.698.376.097.64.186.964.323.483.204.647.309 1.006.647.186.175.222.226.362.514.172.355.202.493.203.946.002.676-.339 1.601-1.065 2.887-.829 1.468-1.488 2.222-2.726 3.118l-.286.207v.377c.003.573-.065.894-.275 1.31-.234.467-.583.9-1.25 1.548-.972.944-1.77 1.504-2.632 1.847-.535.212-.888.277-1.537.28-.48.002-.528-.003-.903-.086-.719-.16-1.55-.569-2.404-1.185a25 25 0 0 1-2.166-1.813c-.092-.09-.167-.15-.167-.134 0 .029.474 2.637.613 3.37.046.242.083.508.083.59 0 .16-.129.762-.296 1.383-.35 1.295-.852 2.35-1.576 3.307-1.096 1.45-2.537 2.587-3.877 3.06-.57.202-.487.182-.986.245-.453.058-.684.063-.987.023zm.787-2.035c1.448-.224 3.423-2.012 4.243-3.84.15-.332.182-.44.134-.44-.012 0-.315.103-.673.23-.481.168-.86.279-1.451.423-.44.107-.842.202-.893.21A28 28 0 0 1 32 44.74c-.206 0-1.511-.115-1.733-.152a38 38 0 0 1-.893-.211c-.591-.144-.97-.255-1.451-.424a18 18 0 0 0-.674-.229c-.047 0-.014.108.135.44.814 1.815 2.799 3.617 4.23 3.841.29.046.462.046.76 0zm.386-5.349c.566-.052.672-.07 1.36-.238.567-.138.93-.246 1.507-.447 1.096-.384 1.52-.558 1.52-.624 0-.105-.375-2.087-.4-2.111-.016-.017-.111 0-.26.045-1.38.414-2.549.66-3.54.74-.352.03-.778.054-.947.054s-.594-.024-.946-.053c-.992-.082-2.161-.327-3.54-.741-.15-.045-.244-.062-.26-.045-.025.024-.4 2.006-.4 2.111 0 .066.423.24 1.52.624 1.087.38 1.956.593 2.76.675.755.077.89.078 1.626.01m-12.54-3.435c.819-.192 1.902-.932 3.514-2.4.988-.901 2.808-2.66 2.787-2.695a.5.5 0 0 0-.138-.064l-.124-.042-1.229.335c-2.618.715-3.082.815-6.575 1.424-1.269.22-2.322.407-2.34.413-.047.017-.043.365.005.482.072.172.346.503.762.92.951.955 1.743 1.488 2.429 1.637.254.055.648.05.91-.01zm24.458.011c.695-.147 1.481-.675 2.441-1.638.416-.417.69-.748.761-.92.05-.117.053-.465.006-.482-.018-.006-1.071-.192-2.34-.413-3.493-.609-3.957-.709-6.575-1.424l-1.229-.335-.124.042a.5.5 0 0 0-.138.064c-.021.035 1.799 1.794 2.787 2.695 1.592 1.45 2.684 2.2 3.493 2.397.249.06.668.067.918.014m-11.86-1.227c.66-.053 1.49-.216 2.424-.476.999-.278 1.09-.31 1.1-.382.008-.059-.142-.804-.168-.83-.008-.007-.37.066-.807.163-1.35.3-2.337.425-3.367.425s-2.015-.125-3.366-.425c-.436-.097-.8-.17-.807-.162-.026.025-.176.77-.168.83.01.071.101.103 1.1.38 1.629.454 2.737.584 4.06.477zm-.164-3.144a14.4 14.4 0 0 0 2.462-.402.8.8 0 0 0-.02-.181 2.7 2.7 0 0 1-.015-.699c.024-.13.126-.339.23-.47l.077-.099-.36-.173c-.455-.219-.759-.403-.952-.576a2.4 2.4 0 0 1-.678-1.123c-.061-.214-.071-.3-.071-.597 0-.515.103-.824.396-1.191.236-.296.557-.558 1.036-.846l.281-.168v-.207c0-.164-.01-.216-.046-.25-.077-.069-.96-.508-1.26-.627-.64-.253-1.282-.334-2.193-.277-.523.033-.82.098-1.274.277-.3.12-1.183.558-1.26.628-.036.033-.046.085-.046.249v.207l.28.168c.48.288.8.55 1.037.846.293.367.396.676.396 1.19 0 .299-.01.384-.071.598-.13.45-.37.847-.678 1.123-.193.173-.497.357-.952.576l-.36.173.077.098a1.3 1.3 0 0 1 .23.471c.027.152.02.497-.015.699a.8.8 0 0 0-.02.181c.026.026.912.207 1.382.282a15 15 0 0 0 1.667.155c.088.001.412-.014.72-.035m-15.857-.843c4.811-.837 4.765-.828 6.943-1.41 2.113-.566 2.155-.58 2.901-.916 1.453-.654 1.77-.809 1.905-.928.16-.14.123-.22-.212-.443-.293-.195-.45-.268-.706-.326l-1.427-.325c-3.532-.804-4.972-1.026-7.013-1.078-2.541-.065-6.392.475-7.102.996-.087.064-.09.072-.076.204.038.374.429 1.218.998 2.16.572.948 1.008 1.429 1.874 2.066.198.146.364.266.368.267zm32.326-.005c.846-.616 1.314-1.132 1.88-2.076.567-.945.95-1.775.988-2.145.014-.132.01-.14-.076-.204-.356-.26-1.668-.574-3.21-.765-1.428-.178-2.779-.258-3.893-.23-2.023.048-3.479.272-7.012 1.077l-1.427.325c-.255.058-.414.13-.706.326-.494.329-.455.385.631.888.21.097.688.315 1.062.483.737.333.755.338 2.746.875 2.062.555 2.526.654 5.493 1.171a900 900 0 0 1 3.114.545c.019.002.203-.12.41-.27m-19.928-8.496a7 7 0 0 1 .992-.373c.988-.272 2.639-.272 3.627 0 .272.075.649.216.992.373.157.071.297.13.31.13s.045-.093.07-.207c.072-.336.192-.675.474-1.338.295-.695.39-.954.47-1.268.215-.86.095-1.688-.338-2.326-.212-.311-.793-.792-1.34-1.11-.235-.136-1.513-.284-2.452-.284s-2.216.148-2.451.285c-.548.317-1.129.798-1.34 1.11-.433.637-.553 1.465-.338 2.325.079.314.175.573.47 1.268.282.663.402 1.002.474 1.338.024.114.056.207.07.207s.153-.059.31-.13"/></svg>