<svg xmlns="http://www.w3.org/2000/svg" width="64" height="64"><rect width="54" height="54" x="5" y="5" fill="#fdcf71" stroke="#e8aa2c" stroke-width="2" rx="27" ry="27"/><rect width="54" height="54" x="5" y="5" fill="#fdcf71" rx="27" ry="27"/><path fill="#814b13" d="m23.795 32-3.366 3.39-3.39-3.39 3.39-3.39zM32 23.795l5.797 5.797 3.39-3.39-5.798-5.773-3.39-3.39-9.162 9.164 3.39 3.39zm11.57 4.815L40.206 32l3.39 3.39L46.96 32zM32 40.204l-5.797-5.797-3.366 3.39L32 46.96l9.187-9.187-3.39-3.366zm0-4.815L35.39 32 32 28.61 28.61 32z"/></svg>