<svg width="64" height="64" version="1.1" viewBox="0 0 64 64" xmlns="http://www.w3.org/2000/svg">
 <circle cx="32" cy="32" r="27" fill="#f2f2f2" stroke="#ccc" stroke-width="2"/>
 <circle cx="32" cy="32" r="27" fill="#f2f2f2" stroke-width="1.1739"/>
 <path d="m33.2 14c-9.9412 0-18 8.0588-18 18s8.0588 18 18 18c4.9705 0 9.5552-1.9321 12.728-5.2711 1.7582-1.8498 2.8711-3.7289 2.8711-4.9289 0-1.3255-0.47452-1.8-1.8-1.8-3 0-8.4 7.2-13.8 7.2-3.6 0-12-6-12-12 0-3.6 1.8-13.2 4.2-13.2 1.8122 0 5.4 4.8 7.8 4.8 3.6 0 5.9734-2.4001 6-4.8 0.035-3.1556-2.4-6-6-6zm10.2 7.2c-1.8 0-5.4 4.8-5.4 6 0 1.8 4.5167 3.6 7.2 3.6 1.8 0 2.4-0.6 2.4-1.8 0-1.8-2.76-7.8-4.2-7.8zm-16.2 10.8c-1.3255 0-2.4 0.36-2.4 1.2 0 1.3255 1.5 2.4 3.3 2.4 0.84 0 1.5 0.18274 1.5-1.2s-0.84-2.4-2.4-2.4zm12 0c-1.56 0-2.4 1.0173-2.4 2.4s0.66 1.2 1.5 1.2c1.8 0 3.3-1.0745 3.3-2.4 0-0.84-1.0745-1.2-2.4-1.2zm-7.8 7.2c-0.3324 0-0.6 0.2676-0.6 0.6 0 0.1662 0.09545 0.31577 0.2039 0.42422l1.8211 1.8211c0.20725 0.20725 0.54275 0.20725 0.75 0l1.8211-1.8211c0.10846-0.10846 0.2039-0.25802 0.2039-0.42422 0-0.3324-0.2676-0.6-0.6-0.6z" fill="#2bac39" stroke-width="1.2"/>
</svg>
