<svg width="64" height="64" version="1" xmlns="http://www.w3.org/2000/svg">
 <rect transform="matrix(0,-1,-1,0,0,0)" x="-58" y="-58" width="52" height="52" rx="8" ry="8" fill="#175ddc" stroke="#284d8f" stroke-width="2"/>
 <rect transform="matrix(0,-1,-1,0,0,0)" x="-58" y="-58" width="52" height="52" rx="8" ry="8" fill="#175ddc" stroke-width=".89655"/>
 <path d="m32 13s-15.79 9e-3 -16.191 0.25c-0.852 0.511-0.809-0.122-0.809 11.785 0 12.083-0.015 11.841 0.914 14.184 1.069 2.695 2.791 4.973 5.617 7.449 2.372 2.077 5.184 3.958 8.321 5.555 1.061 0.54 1.609 0.786 2.148 0.777 0.539 9e-3 1.087-0.237 2.148-0.777 3.137-1.597 5.949-3.478 8.321-5.555 2.826-2.476 4.548-4.754 5.617-7.449 0.929-2.343 0.914-2.101 0.914-14.184 0-11.907 0.043-11.274-0.809-11.785-0.401-0.241-16.191-0.25-16.191-0.25zm0 6h11v16s-6e-3 0.781-0.492 2.008c-0.683 1.721-1.63 3.08-3.992 5.148-1.793 1.57-4.053 3.024-6.516 4.336z" fill="#fff"/>
</svg>
