<svg xmlns="http://www.w3.org/2000/svg" width="64" height="64"><circle cx="32" cy="32" r="27" fill="#28416e" stroke="#1c2c4a" stroke-width="2" style="paint-order:stroke fill markers"/><circle cx="32" cy="32" r="27" fill="#28416e"/><path fill="#a5c8f3" d="m28.478 17.913-5.87 5.87 2.348 21.13v1.173h2.348v-3.521h2.348v3.521H32v-3.521l3.521-1.174 3.522 1.174v3.521h2.348v-3.521h2.348v3.521h2.348v-7.043l-2.348-3.522L46.087 32v-7.044l-4.696-3.522c0-1.95-3.919-3.521-5.87-3.521z"/><path fill="#428ce6" d="M21.435 17.913v7.043H32v-3.521a3.514 3.514 0 0 0-3.522-3.522zM32 24.956V32h7.043v-7.044zm7.043 0h7.044v-3.521a3.514 3.514 0 0 0-3.522-3.522h-7.043a3.514 3.514 0 0 1 3.521 3.522zm0 7.044v7.043h7.044V32zm0 7.043H32v3.522h2.348v3.522h2.348v-3.522h2.347zm-7.043 0V32H21.435v7.043z"/><path fill="#1d5aa5" d="M21.435 17.913a3.514 3.514 0 0 0-3.522 3.522v22.304h2.348v-3.522h2.348v3.522h2.348V21.435a3.514 3.514 0 0 0-3.522-3.522"/></svg>