<svg width="64" height="64" version="1.1" viewBox="0 0 64 64" xmlns="http://www.w3.org/2000/svg">
 <g transform="matrix(1.1739 0 0 1.1739 3.8261 3.8261)">
  <circle cx="24" cy="24" r="23" fill="#28416e" stroke="#1c2c4a" stroke-width="1.7037" style="paint-order:stroke fill markers"/>
  <path d="m21 12-5 5 2 18v1h2v-3h2v3h2v-3l3-1 3 1v3h2v-3h2v3h2v-6l-2-3 2-3v-6l-4-3c0-1.662-3.338-3-5-3z" fill="#a5c8f3" stroke-linejoin="round" stroke-width="10"/>
  <path d="m15 12v6h9v-3c0-1.662-1.338-3-3-3zm9 6v6h6v-6zm6 0h6v-3c0-1.662-1.338-3-3-3h-6c1.662 0 3 1.338 3 3zm0 6v6h6v-6zm0 6h-6v3h2v3h2v-3h2zm-6 0v-6h-9v6z" fill="#428ce6" stroke-linejoin="round" stroke-width="10"/>
  <path d="m15 12c-1.662 0-3 1.338-3 3v19h2v-3h2v3h2v-19c0-1.662-1.338-3-3-3z" fill="#1d5aa5" stroke-linejoin="round" stroke-width="10"/>
 </g>
</svg>
