<svg xmlns="http://www.w3.org/2000/svg" width="64" height="64" viewBox="0 0 16.933 16.933"><g transform="translate(0 -280.067)"><path fill="#ff892c" stroke="#c85800" stroke-width=".529" d="M7.902 281.665a.95.95 0 0 0-.671.278.946.946 0 0 0 0 1.341l2.635 2.635h-6.87a.946.946 0 0 0-.947.948.946.946 0 0 0 .948.949c.987-.003 2.388-.003 3.729-.003l-4.86 4.859a.946.946 0 0 0 0 1.341.946.946 0 0 0 1.341 0c.713-.717 1.735-1.74 2.704-2.708a4.74 4.74 0 0 0 4.693 4.097 4.74 4.74 0 0 0 4.742-4.742 4.74 4.74 0 0 0-1.625-3.569 2368 2368 0 0 1-5.149-5.148.95.95 0 0 0-.67-.279zm2.758 7.868a1.107 1.107 0 1 1 0 2.213 1.107 1.107 0 0 1 0-2.213z" opacity=".75"/><path fill="#ff9f51" d="M7.902 281.665a.95.95 0 0 0-.671.278.946.946 0 0 0 0 1.341l2.635 2.635h-6.87a.946.946 0 0 0-.947.948.946.946 0 0 0 .948.949c.987-.003 2.388-.003 3.729-.003l-4.86 4.859a.946.946 0 0 0 0 1.341.946.946 0 0 0 1.341 0c.713-.717 1.735-1.74 2.704-2.708a4.74 4.74 0 0 0 4.693 4.097 4.74 4.74 0 0 0 4.742-4.742 4.74 4.74 0 0 0-1.625-3.569 2368 2368 0 0 1-5.149-5.148.95.95 0 0 0-.67-.279zm2.758 7.868a1.107 1.107 0 1 1 0 2.213 1.107 1.107 0 0 1 0-2.213"/><path fill="#fff" fill-opacity=".099" d="M10.656 287a3.643 3.643 0 0 0-3.643 3.643 3.643 3.643 0 0 0 3.643 3.643 3.643 3.643 0 0 0 3.643-3.643A3.643 3.643 0 0 0 10.656 287m0 2.218a1.425 1.425 0 0 1 1.425 1.425 1.425 1.425 0 0 1-1.425 1.425 1.425 1.425 0 0 1-1.425-1.425 1.425 1.425 0 0 1 1.425-1.425"/><path fill="#fff" stroke="#000" stroke-opacity=".255" stroke-width=".265" d="M10.656 287.794a2.845 2.845 0 0 0-2.846 2.845 2.845 2.845 0 0 0 2.846 2.846 2.845 2.845 0 0 0 2.845-2.846 2.845 2.845 0 0 0-2.845-2.845zm0 1.733a1.113 1.113 0 0 1 1.112 1.112 1.113 1.113 0 0 1-1.112 1.113 1.113 1.113 0 0 1-1.113-1.113 1.113 1.113 0 0 1 1.113-1.112z"/><circle cx="10.656" cy="290.643" r="1.456" fill="#2e57b1" color="#000" display="block" overflow="visible" paint-order="fill markers stroke" style="isolation:auto;mix-blend-mode:normal;marker:none"/><path fill="#fff" d="M10.656 287.794a2.845 2.845 0 0 0-2.846 2.845 2.845 2.845 0 0 0 2.846 2.846 2.845 2.845 0 0 0 2.845-2.846 2.845 2.845 0 0 0-2.845-2.845m0 1.733a1.113 1.113 0 0 1 1.112 1.112 1.113 1.113 0 0 1-1.112 1.113 1.113 1.113 0 0 1-1.113-1.113 1.113 1.113 0 0 1 1.113-1.112"/></g></svg>