<?xml version="1.0" encoding="UTF-8" standalone="no"?>
<svg
   xmlns:dc="http://purl.org/dc/elements/1.1/"
   xmlns:cc="http://creativecommons.org/ns#"
   xmlns:rdf="http://www.w3.org/1999/02/22-rdf-syntax-ns#"
   xmlns:svg="http://www.w3.org/2000/svg"
   xmlns="http://www.w3.org/2000/svg"
   xmlns:sodipodi="http://sodipodi.sourceforge.net/DTD/sodipodi-0.dtd"
   xmlns:inkscape="http://www.inkscape.org/namespaces/inkscape"
   width="64"
   height="64"
   version="1"
   id="svg10"
   sodipodi:docname="bluetooth.svg"
   inkscape:version="0.92.4 (5da689c313, 2019-01-14)">
  <metadata
     id="metadata16">
    <rdf:RDF>
      <cc:Work
         rdf:about="">
        <dc:format>image/svg+xml</dc:format>
        <dc:type
           rdf:resource="http://purl.org/dc/dcmitype/StillImage" />
      </cc:Work>
    </rdf:RDF>
  </metadata>
  <defs
     id="defs14" />
  <sodipodi:namedview
     pagecolor="#ffffff"
     bordercolor="#666666"
     borderopacity="1"
     objecttolerance="10"
     gridtolerance="10"
     guidetolerance="10"
     inkscape:pageopacity="0"
     inkscape:pageshadow="2"
     inkscape:window-width="1366"
     inkscape:window-height="708"
     id="namedview12"
     showgrid="false"
     inkscape:zoom="5.2149125"
     inkscape:cx="-11.098702"
     inkscape:cy="36.273818"
     inkscape:window-x="0"
     inkscape:window-y="30"
     inkscape:window-maximized="1"
     inkscape:current-layer="svg10" />
  <path
     inkscape:connector-curvature="0"
     id="path855-0"
     d="M 25.710807,57.484481 C 19.61196,55.776261 15.911775,51.524418 14.059223,44.09577 13.052752,40.059867 12.660402,29.244985 13.338052,24.217169 14.866575,12.876286 19.529446,7.394758 28.628498,6.2421756 c 2.542541,-0.3220661 4.235412,-0.3227848 6.76098,-0.00285 9.169596,1.1615187 13.789026,6.7072804 15.343991,18.4209074 0.537785,4.051166 0.213595,15.059028 -0.542068,18.405972 -1.688185,7.477222 -4.879718,11.81185 -10.234585,13.900257 C 37.137669,58.065935 28.86121,58.3669 25.710807,57.4845 Z"
     style="opacity:0.75;fill:#5cb2fb;fill-opacity:1;stroke:#0675d2;stroke-width:2;stroke-miterlimit:4;stroke-dasharray:none;stroke-opacity:1" />
  <g
     style="color:#000000;clip-rule:nonzero;display:inline;overflow:visible;visibility:visible;opacity:0.15;isolation:auto;mix-blend-mode:normal;color-interpolation:sRGB;color-interpolation-filters:linearRGB;solid-color:#000000;solid-opacity:1;fill:#000000;fill-opacity:1;fill-rule:nonzero;stroke:none;stroke-width:0.77777779;stroke-linecap:butt;stroke-linejoin:miter;stroke-miterlimit:4;stroke-dasharray:none;stroke-dashoffset:0;stroke-opacity:1;marker:none;color-rendering:auto;image-rendering:auto;shape-rendering:auto;text-rendering:auto;enable-background:accumulate"
     id="layer1-4-1-2"
     transform="matrix(1.2857143,0,0,1.2857143,20.917143,13.714285)" />
  <g
     style="color:#000000;clip-rule:nonzero;display:inline;overflow:visible;visibility:visible;opacity:0.05;isolation:auto;mix-blend-mode:normal;color-interpolation:sRGB;color-interpolation-filters:linearRGB;solid-color:#000000;solid-opacity:1;vector-effect:none;fill:#002e99;fill-opacity:1;fill-rule:nonzero;stroke:none;stroke-width:0.77777779;stroke-linecap:butt;stroke-linejoin:miter;stroke-miterlimit:4;stroke-dasharray:none;stroke-dashoffset:0;stroke-opacity:1;marker:none;color-rendering:auto;image-rendering:auto;shape-rendering:auto;text-rendering:auto;enable-background:accumulate"
     id="layer1-4-1-2-5"
     transform="matrix(1.2857143,0,0,1.2857143,20.917143,13.714285)" />
  <path
     style="opacity:1;fill:#5cb2fb;fill-opacity:1;stroke:none;stroke-width:2;stroke-miterlimit:4;stroke-dasharray:none;stroke-opacity:1"
     d="M 25.710807,57.484481 C 19.61196,55.776261 15.911775,51.524418 14.059223,44.09577 13.052752,40.059867 12.660402,29.244985 13.338052,24.217169 14.866575,12.876286 19.529446,7.394758 28.628498,6.2421756 c 2.542541,-0.3220661 4.235412,-0.3227848 6.76098,-0.00285 9.169596,1.1615187 13.789026,6.7072804 15.343991,18.4209074 0.537785,4.051166 0.213595,15.059028 -0.542068,18.405972 -1.688185,7.477222 -4.879718,11.81185 -10.234585,13.900257 C 37.137669,58.065935 28.86121,58.3669 25.710807,57.4845 Z"
     id="path830"
     inkscape:connector-curvature="0" />
  <path
     style="fill:none;stroke:#ffffff;stroke-width:2;stroke-linecap:square"
     d="m 22.967076,23 18,18 -9,8.5 v -35 l 9,8.5 -18,16"
     id="path6"
     inkscape:connector-curvature="0" />
</svg>
