<svg xmlns="http://www.w3.org/2000/svg" width="64" height="64" version="1"><path fill="#4b81c4" stroke="#2d5b93" stroke-width="2" d="M25.608 11.428C14.19 11.74 6.285 20.993 6.285 32.971s9.013 22.015 19.481 22.171c9.473.13 19.666-9.863 23.053-17.618 1.575 3.765 4.668 8.619 10.18 8.618 0 0-2.571-6.796-2.571-13.04 0-6.246 2.571-12.675 2.571-12.675-5.613 0-8.725 4.964-10.273 8.701-3.425-6.742-13.304-17.576-23.117-17.702z"/><path fill="#4b81c4" d="M25.608 11.428C14.19 11.74 6.285 20.993 6.285 32.971s9.013 22.015 19.481 22.171c9.473.13 19.666-9.863 23.053-17.618 1.575 3.765 4.668 8.619 10.18 8.618 0 0-2.571-6.796-2.571-13.04 0-6.246 2.571-12.675 2.571-12.675-5.613 0-8.725 4.964-10.273 8.701-3.425-6.742-13.304-17.576-23.117-17.702z"/><path fill="#fff" d="M26.857 22.998a7.714 10.282 0 1 1-15.428 0 7.714 10.282 0 1 1 15.428 0" opacity=".9"/><path fill="#fff" stroke="#000" stroke-opacity=".243" d="M26.857 22.998a7.714 10.282 0 1 1-15.428 0 7.714 10.282 0 1 1 15.428 0z" opacity=".9"/><path fill="#75bfd4" stroke="#378faf" stroke-width="2" d="M26.857 22.999c-1.278-1.142-5.472-7.977-15.428-3.632 0-4.337 1.728-10.511 7.386-10.511 7.241.225 8.042 9.806 8.042 14.143z"/><path fill="#75bfd4" d="M26.857 22.999c-1.278-1.142-5.472-7.977-15.428-3.632 0-4.337 1.728-10.511 7.386-10.511 7.241.225 8.042 9.806 8.042 14.143"/><path fill="#272b2d" d="M21.714 24.286a2.571 2.571 0 0 1-5.143 0 2.571 2.571 0 1 1 5.143 0"/><path fill="#fff" d="M19.786 23.128a1.286 1.286 0 0 1-2.571 0 1.286 1.286 0 1 1 2.571 0" opacity=".35"/><path fill="#75bfd4" stroke="#3591ab" stroke-width="2" d="M19.143 41.642c0 2.485-7.157 4.5-9.643 4.5a4.5 4.5 0 1 1 0-9c2.486 0 9.643 2.015 9.643 4.5z"/><path fill="#75bfd4" d="M19.143 41.642c0 2.485-7.157 4.5-9.643 4.5a4.5 4.5 0 1 1 0-9c2.486 0 9.643 2.015 9.643 4.5"/></svg>