<svg xmlns="http://www.w3.org/2000/svg" width="64" height="64" image-rendering="optimizeSpeed"><circle cx="32" cy="32" r="27" fill="#ef4360" stroke="#ce2744" stroke-width="2" style="paint-order:stroke markers fill"/><path fill="#fff" d="M36.971 19.05c0 2.237-4.971 9.057-4.971 9.057s-4.971-6.82-4.971-9.057S29.255 15 32 15s4.971 1.813 4.971 4.05" style="paint-order:markers fill stroke"/><path fill="#fff" d="m32.14 29.302 3.516 6.09h-7.032l1.758-3.045z" style="paint-order:markers fill stroke" transform="matrix(1.4003 0 0 1.4091 -13.007 -13.182)"/><path fill="#fff" d="M42.233 45.549c-1.925-1.118-5.31-8.86-5.31-8.86s8.356-.922 10.28.196c1.926 1.118 2.373 3.964 1 6.357-1.372 2.392-4.045 3.425-5.97 2.307m-25.437-8.664c1.925-1.118 10.28-.197 10.28-.197s-3.384 7.743-5.31 8.86c-1.924 1.12-4.597.086-5.97-2.306s-.925-5.239 1-6.357" style="paint-order:markers fill stroke"/></svg>