<svg xmlns="http://www.w3.org/2000/svg" width="64" height="64" viewBox="0 0 16.933 16.933"><g transform="translate(0 -280.067)"><rect width="13.758" height="13.758" x="1.588" y="281.654" fill="#e6e6e6" stroke="#47b123" stroke-linecap="round" stroke-linejoin="round" stroke-width=".529" opacity=".75" paint-order="markers stroke fill" rx=".794" ry=".794"/><rect width="13.758" height="13.758" x="1.588" y="281.654" fill="#a0e689" paint-order="markers stroke fill" rx=".794" ry=".794"/><path d="M2.381 281.654a.79.79 0 0 0-.794.794v.265h13.759v-.265a.79.79 0 0 0-.794-.794z" opacity=".25" paint-order="markers stroke fill"/><rect width="2.646" height=".529" x="7.12" y="281.919" opacity=".35" paint-order="stroke markers fill" ry=".265"/><rect width="9.525" height="1.323" x="3.704" y="293.56" fill="#fff" opacity=".35" paint-order="markers stroke fill" rx=".265" ry=".265"/><rect width="1.323" height="1.323" x="4.498" y="292.767" fill="#dbffd4" paint-order="stroke markers fill" ry=".132"/><rect width="1.323" height="1.323" x="6.615" y="292.767" fill="#dbffd4" paint-order="stroke markers fill" ry=".132"/><rect width="1.323" height="1.323" x="8.731" y="292.767" fill="#dbffd4" paint-order="stroke markers fill" ry=".132"/><rect width="1.323" height="1.323" x="11.112" y="292.767" fill="#dbffd4" paint-order="stroke markers fill" ry=".132"/></g></svg>