<svg xmlns="http://www.w3.org/2000/svg" width="64" height="64"><g transform="translate(0 -1058.5)"><circle cx="32" cy="1090.5" r="27" fill="#bababa"/><circle cx="-251.34" cy="1061.6" r="26" fill="#e0e0e0" transform="rotate(-15)"/><circle cx="32" cy="1090.5" r="10" fill="#9e9e9e"/><circle cx="32" cy="1090.5" r="9" fill="#bdbdbd"/><circle cx="32" cy="1090.5" r="3" fill="#424242"/><rect width="9" height="10" x="44" y="1089.5" fill="#455a64" ry="1"/><rect width="7" height="8" x="45" y="1090.5" fill="#546e7a" ry="0"/><path fill="#f4511e" d="M43 1097.5c-.554 0-1 .446-1 1v16c0 1.662 1.338 3 3 3h7c1.662 0 3-1.338 3-3v-16c0-.554-.446-1-1-1z"/><path fill="#ff7043" d="M43 1098.5v16c0 1.108.892 2 2 2h7c1.108 0 2-.892 2-2v-16z"/><g fill="#ff5722"><rect width="7" height="1" x="45" y="1100.5" ry=".5"/><rect width="5" height="1" x="46" y="1102.5" ry=".453"/><rect width="3" height="1" x="47" y="1104.5" ry=".453"/></g><path fill="#ffd54f" d="M46 1091.5h1v5h-1zm4 0h1v5h-1zm-2 2h1v3h-1z"/></g></svg>