<svg xmlns="http://www.w3.org/2000/svg" width="64" height="64" viewBox="0 0 16.933 16.933"><g transform="translate(0 -280.067)"><g stroke="#000" stroke-opacity=".137" stroke-width=".265" paint-order="fill markers stroke"><path fill="#eee" d="M1.455 288.533v6.472c0 .3.24.54.54.54h6.472v-7.012z"/><path fill="#fff" d="M1.995 281.522c-.3 0-.54.24-.54.54v6.471h7.012v-7.011z"/><path fill="#d96b5f" d="M8.467 281.522v14.023h6.472c.299 0 .54-.24.54-.54v-12.944a.54.54 0 0 0-.54-.54z"/></g><g paint-order="stroke markers fill"><path fill="#eee" d="M1.587 288.533v6.35c0 .293.237.53.53.53h6.35v-6.88z"/><path fill="#fff" d="M2.117 281.654a.53.53 0 0 0-.53.53v6.35h6.88v-6.88z"/><path fill="#d96b5f" d="M8.467 281.654v13.759h6.35a.53.53 0 0 0 .529-.53v-12.7a.53.53 0 0 0-.53-.529z"/></g><rect width="3.175" height=".529" x="3.704" y="285.094" fill="#787878" paint-order="stroke markers fill" ry="0"/><rect width="3.175" height=".529" x="283.771" y="-5.556" fill="#787878" paint-order="stroke markers fill" ry="0" transform="rotate(90)"/><rect width="3.175" height=".529" x="10.319" y="287.475" fill="#fff" paint-order="stroke markers fill" ry="0"/><rect width="3.175" height=".529" x="10.319" y="289.063" fill="#fff" paint-order="stroke markers fill" ry="0"/><rect width="3.175" height=".529" x="3.704" y="291.708" fill="#787878" paint-order="stroke markers fill" ry="0"/></g></svg>