<svg xmlns="http://www.w3.org/2000/svg" width="64" height="64"><g stroke-width=".852"><g fill="#ce5050"><path stroke="#b83737" stroke-width="2" d="M32 4.999c14.912 0 27 12.087 27 27 0 14.911-12.088 27-27 27s-27-12.089-27-27c0-14.913 12.088-27 27-27z"/><path d="M32 4.999c14.912 0 27 12.087 27 27 0 14.911-12.088 27-27 27s-27-12.089-27-27c0-14.913 12.088-27 27-27"/></g><path fill="#f9f9f9" d="M17.908 19.086v19.956l10.565 7.044V25.543zm2.348 0 9.391 5.87h4.696l9.391-5.87c-4.696 0-7.043.61-11.739 4.696-4.696-3.986-7.043-4.696-11.739-4.696m25.826 0-10.565 6.457v20.543l10.565-7.044zM29.647 26.13v21.13h4.696V26.13z"/></g></svg>