<svg xmlns="http://www.w3.org/2000/svg" width="64" height="64" viewBox="0 0 16.933 16.933"><g transform="translate(0 -280.067)"><rect transform="matrix(0 -1 -1 0 0 0)" width="12.7" height="10.054" x="-294.883" y="-13.494" rx=".68" ry=".686" fill="#e91e63" stroke="#7e0a35" stroke-width=".529" opacity=".75"/><rect ry=".686" rx=".68" y="-13.494" x="-294.883" height="10.054" width="12.7" transform="matrix(0 -1 -1 0 0 0)" fill="#e91e63"/><rect transform="matrix(0 -1 -1 0 0 0)" width="10.583" height="7.938" x="-293.825" y="-12.435" rx="0" ry=".265" opacity=".5" fill="#fff"/><path d="M8.467 285.812a2.721 2.721 0 1 0 0 5.443 2.721 2.721 0 0 0 0-5.443zM7.3 287.369a.389.389 0 1 1 0 .777.389.389 0 0 1 0-.777zm2.333 0a.389.389 0 1 1 0 .777.389.389 0 0 1 0-.777zm-2.265 1.876a1.555 1.555 0 0 0 2.197 0l.275.275a1.943 1.943 0 0 1-2.747 0z" style="marker:none" color="#bebebe" overflow="visible" opacity=".5" fill="#e91e63"/><ellipse cy="-292.649" cx="13.406" transform="scale(1 -1)" rx=".412" ry=".412" opacity=".2"/><rect ry="3.704" rx="3.704" y="-15.875" x="-295.942" height="7.408" width="7.408" transform="matrix(0 -1 -1 0 0 0)" fill="#fff" stroke="#000" stroke-width=".529" stroke-linecap="round" stroke-opacity=".137" paint-order="markers stroke fill"/><rect transform="matrix(0 -1 -1 0 0 0)" width="7.408" height="7.408" x="-295.942" y="-15.875" rx="3.704" ry="3.704" fill="#fff" paint-order="markers stroke fill"/><ellipse cy="292.237" cx="12.171" rx="2.161" ry="2.161" fill="#333" stroke="#000" stroke-width=".265" stroke-linecap="round" stroke-linejoin="round" stroke-opacity=".707"/><ellipse transform="scale(1 -1)" cx="12.171" cy="-292.237" rx="1.543" ry="1.543" fill="#e91e63" stroke="#000" stroke-width=".265" stroke-linecap="round" stroke-linejoin="round" stroke-opacity=".471"/><path d="M12.826 291.583a.926.926 0 0 0-1.31 0l.655.655z" opacity=".2" fill="#fff"/><path d="M12.826 291.583a.926.926 0 0 1 0 1.31l-.655-.655zm-1.31 1.309a.926.926 0 0 1 0-1.31l.655.656z" opacity=".4" fill="#fff"/><path d="M11.516 292.892a.926.926 0 0 0 1.31 0l-.655-.654z" opacity=".6" fill="#fff"/></g></svg>