<svg xmlns="http://www.w3.org/2000/svg" width="64" height="64" viewBox="0 0 16.933 16.933"><rect width="14.287" height="14.287" x="-15.61" y="-15.61" fill="#fff" stroke="#000" stroke-linecap="round" stroke-opacity=".137" stroke-width=".529" rx="7.144" ry="7.144" style="paint-order:markers stroke fill" transform="scale(1 -1)rotate(90)"/><rect width="14.287" height="14.287" x="-15.61" y="-15.61" fill="#fff" rx="7.144" ry="7.144" style="paint-order:markers stroke fill" transform="scale(1 -1)rotate(90)"/><circle cx="8.466" cy="8.466" r="4.101" fill="#333" stroke="#000" stroke-linecap="round" stroke-linejoin="round" stroke-opacity=".707" stroke-width=".265"/><circle cx="8.466" cy="-8.466" r="3.042" fill="#e91e63" stroke="#000" stroke-linecap="round" stroke-linejoin="round" stroke-opacity=".471" stroke-width=".265" transform="scale(1 -1)"/><g fill="#fff" stroke-width=".844"><path d="M9.963 6.97a2.116 2.116 0 0 0-2.993 0l1.497 1.498z" opacity=".2"/><path d="M9.963 6.97a2.116 2.116 0 0 1 0 2.995L8.466 8.468zM6.97 9.964a2.116 2.116 0 0 1 0-2.994l1.497 1.5z" opacity=".4"/><path d="M6.97 9.963a2.116 2.116 0 0 0 2.993 0L8.466 8.468z" opacity=".6"/></g></svg>