<svg xmlns="http://www.w3.org/2000/svg" width="64" height="64" viewBox="0 0 16.933 16.933"><circle cx="8.466" cy="8.46" r="7.144" fill="#7091e3" stroke="#3860c4" stroke-width=".529"/><circle cx="8.466" cy="8.46" r="7.144" fill="#7091e3"/><g fill="#fff"><path d="M11.406 11.902a1.4 1.4 0 0 0 .235-.234c1.764-1.765 1.764-4.61 0-6.376s-4.61-1.765-6.376 0c-.072.09-.144.162-.216.252zM10.866 12.298 4.653 6.085a4 4 0 0 0-.324.612l5.925 5.925c.216-.09.414-.198.612-.324M9.57 12.856 4.094 7.381a4.2 4.2 0 0 0-.126.81l4.79 4.791c.27-.018.54-.054.81-.126M7.769 12.946 4.005 9.182a4.56 4.56 0 0 0 1.26 2.504 4.75 4.75 0 0 0 2.504 1.26" class="st0"/></g></svg>