<?xml version="1.0" encoding="UTF-8" standalone="no"?>
<!-- Created with Inkscape (http://www.inkscape.org/) -->

<svg
   xmlns:dc="http://purl.org/dc/elements/1.1/"
   xmlns:cc="http://creativecommons.org/ns#"
   xmlns:rdf="http://www.w3.org/1999/02/22-rdf-syntax-ns#"
   xmlns:svg="http://www.w3.org/2000/svg"
   xmlns="http://www.w3.org/2000/svg"
   xmlns:sodipodi="http://sodipodi.sourceforge.net/DTD/sodipodi-0.dtd"
   xmlns:inkscape="http://www.inkscape.org/namespaces/inkscape"
   width="64"
   height="64"
   viewBox="0 0 16.933333 16.933333"
   version="1.1"
   id="svg4572"
   inkscape:version="0.92.4 (5da689c313, 2019-01-14)"
   sodipodi:docname="chromium.svg">
  <title
     id="title4611">Canvas icon theme</title>
  <defs
     id="defs4566" />
  <sodipodi:namedview
     id="base"
     pagecolor="#ffffff"
     bordercolor="#666666"
     borderopacity="1.0"
     inkscape:pageopacity="0.0"
     inkscape:pageshadow="2"
     inkscape:zoom="1.979899"
     inkscape:cx="26.234045"
     inkscape:cy="50.504626"
     inkscape:document-units="px"
     inkscape:current-layer="layer1"
     showgrid="true"
     units="px"
     width="64px"
     showguides="true"
     inkscape:guide-bbox="true"
     inkscape:window-width="1366"
     inkscape:window-height="697"
     inkscape:window-x="0"
     inkscape:window-y="0"
     inkscape:window-maximized="1"
     inkscape:snap-bbox="true"
     inkscape:bbox-nodes="true">
    <inkscape:grid
       type="xygrid"
       id="grid4582" />
    <sodipodi:guide
       position="1.0583333,15.875"
       orientation="0,1"
       id="guide4584"
       inkscape:locked="false" />
    <sodipodi:guide
       position="1.0583333,1.0583333"
       orientation="1,0"
       id="guide4586"
       inkscape:locked="false" />
    <sodipodi:guide
       position="15.875,15.875"
       orientation="1,0"
       id="guide4588"
       inkscape:locked="false" />
    <sodipodi:guide
       position="1.0583333,1.0583333"
       orientation="0,1"
       id="guide4590"
       inkscape:locked="false" />
  </sodipodi:namedview>
  <metadata
     id="metadata4569">
    <rdf:RDF>
      <cc:Work
         rdf:about="">
        <dc:format>image/svg+xml</dc:format>
        <dc:type
           rdf:resource="http://purl.org/dc/dcmitype/StillImage" />
        <dc:title>Canvas icon theme</dc:title>
        <cc:license
           rdf:resource="http://creativecommons.org/licenses/by-nc-sa/4.0/" />
        <dc:creator>
          <cc:Agent>
            <dc:title>Vince Liuice</dc:title>
          </cc:Agent>
        </dc:creator>
      </cc:Work>
      <cc:License
         rdf:about="http://creativecommons.org/licenses/by-nc-sa/4.0/">
        <cc:permits
           rdf:resource="http://creativecommons.org/ns#Reproduction" />
        <cc:permits
           rdf:resource="http://creativecommons.org/ns#Distribution" />
        <cc:requires
           rdf:resource="http://creativecommons.org/ns#Notice" />
        <cc:requires
           rdf:resource="http://creativecommons.org/ns#Attribution" />
        <cc:prohibits
           rdf:resource="http://creativecommons.org/ns#CommercialUse" />
        <cc:permits
           rdf:resource="http://creativecommons.org/ns#DerivativeWorks" />
        <cc:requires
           rdf:resource="http://creativecommons.org/ns#ShareAlike" />
      </cc:License>
    </rdf:RDF>
  </metadata>
  <g
     inkscape:label="Layer 1"
     inkscape:groupmode="layer"
     id="layer1"
     transform="translate(0,-280.06667)">
    <circle
       style="opacity:0.75;fill:#ffffff;fill-opacity:1;stroke:#21408b;stroke-width:0.52916658;stroke-linecap:round;stroke-linejoin:miter;stroke-miterlimit:4;stroke-dasharray:none;stroke-opacity:1;paint-order:fill markers stroke"
       id="path828"
       cx="8.4666662"
       cy="288.53333"
       r="7.1437497" />
    <g
       id="g39"
       style="fill-rule:evenodd;stroke-width:0.96296299"
       transform="matrix(0.30075686,0,0,0.30075685,-92.603733,133.97463)">
      <path
         id="path31"
         d="m 317.0561,499.64765 c -2.97437,3.96679 -4.75516,8.96416 -4.75516,14.32577 0,13.15893 10.59366,23.67835 23.75258,23.67835 l 8.3134,-17.02762 -15.43918,-3.16207 z"
         inkscape:connector-curvature="0"
         style="fill:#649af5;fill-opacity:1;stroke-width:0.96296299" />
      <path
         id="path33"
         d="m 337.24115,503.21054 7.12577,17.33938 -8.3134,17.10185 c 13.15892,0 23.75257,-10.59365 23.75257,-23.75257 0,-3.85418 -0.9287,-7.47634 -2.54458,-10.68866 z"
         inkscape:connector-curvature="0"
         style="fill:#a2c2f8;fill-opacity:1;stroke-width:0.96296299" />
      <path
         id="path37"
         d="m 336.04888,490.14662 c -7.79731,0 -14.67185,3.73682 -18.99742,9.50567 l 11.87164,17.80979 15.43918,3.08784 -7.12578,-17.33938 h 20.02037 c -3.90104,-7.75516 -11.90326,-13.06392 -21.20799,-13.06392 z"
         inkscape:connector-curvature="0"
         style="fill:#3b6bd4;fill-opacity:1;stroke-width:0.96296299" />
    </g>
    <path
       id="path43"
       d="m 8.4666665,285.09376 c 1.9055265,0 3.4395835,1.53403 3.4395835,3.43957 0,1.90552 -1.534057,3.43958 -3.4395835,3.43958 -1.9055284,0 -3.4395834,-1.53406 -3.4395834,-3.43958 0,-1.90554 1.534055,-3.43957 3.4395834,-3.43957 z"
       inkscape:connector-curvature="0"
       style="fill:#ffffff;fill-opacity:1;stroke-width:0.28961772" />
    <path
       id="path45"
       d="m 8.480401,286.14324 h 3.6e-6 c 1.3638067,0 2.4617474,1.09794 2.4617474,2.46176 0,1.3638 -1.0979407,2.46174 -2.4617474,2.46174 h -3.6e-6 c -1.3638122,0 -2.4617505,-1.09794 -2.4617505,-2.46174 0,-1.36382 1.0979383,-2.46176 2.4617505,-2.46176 z"
       inkscape:connector-curvature="0"
       style="fill:#5599ff;fill-opacity:1;stroke-width:0.28961772" />
    <path
       style="opacity:0.75;fill:#5599ff;fill-opacity:1;stroke:#0045ac;stroke-width:0.26458332;stroke-miterlimit:4;stroke-dasharray:none;stroke-opacity:1"
       inkscape:connector-curvature="0"
       d="m 8.4666662,285.75521 h 4e-6 c 1.5390768,0 2.7781208,1.23904 2.7781208,2.77814 0,1.53907 -1.239044,2.77811 -2.7781208,2.77811 h -4e-6 c -1.5390838,0 -2.7781246,-1.23904 -2.7781246,-2.77811 0,-1.5391 1.2390408,-2.77814 2.7781246,-2.77814 z"
       id="path836" />
    <path
       id="path838"
       d="m 8.4666664,285.8875 h 3.9e-6 c 1.4657884,0 2.6458297,1.18004 2.6458297,2.64584 0,1.46578 -1.1800413,2.64583 -2.6458297,2.64583 h -3.9e-6 c -1.4657941,0 -2.6458331,-1.18005 -2.6458331,-2.64583 0,-1.4658 1.180039,-2.64584 2.6458331,-2.64584 z"
       inkscape:connector-curvature="0"
       style="opacity:1;fill:#75a9ff;fill-opacity:1;stroke:none;stroke-width:0.26458332;stroke-miterlimit:4;stroke-dasharray:none;stroke-opacity:1" />
  </g>
</svg>
