<svg xmlns="http://www.w3.org/2000/svg" width="64" height="64" viewBox="0 0 16.933 16.933"><g transform="translate(0 -280.067)"><circle cx="8.467" cy="288.533" r="7.144" fill="#fff" stroke="#21408b" stroke-linecap="round" stroke-width=".529" opacity=".75" paint-order="fill markers stroke"/><g fill-rule="evenodd" stroke-width=".963"><path fill="#649af5" d="M2.753 284.247a7.2 7.2 0 0 0-1.43 4.309 7.11 7.11 0 0 0 7.144 7.121l2.5-5.121-4.643-.951z"/><path fill="#a2c2f8" d="m8.824 285.319 2.143 5.215-2.5 5.143a7.13 7.13 0 0 0 7.143-7.144 7.1 7.1 0 0 0-.765-3.214z"/><path fill="#3b6bd4" d="M8.465 281.39a7.12 7.12 0 0 0-5.713 2.858l3.57 5.357 4.644.929-2.144-5.215h6.022a7.12 7.12 0 0 0-6.379-3.93z"/></g><path fill="#fff" d="M8.467 285.094a3.43 3.43 0 0 1 3.44 3.44 3.43 3.43 0 0 1-3.44 3.439 3.43 3.43 0 0 1-3.44-3.44 3.43 3.43 0 0 1 3.44-3.44z"/><path fill="#59f" d="M8.48 286.143a2.456 2.456 0 0 1 2.462 2.462 2.456 2.456 0 0 1-2.462 2.462 2.456 2.456 0 0 1-2.461-2.462 2.456 2.456 0 0 1 2.461-2.462"/><path fill="#59f" stroke="#0045ac" stroke-width=".265" d="M8.467 285.755a2.77 2.77 0 0 1 2.778 2.778 2.77 2.77 0 0 1-2.778 2.778 2.77 2.77 0 0 1-2.778-2.778 2.77 2.77 0 0 1 2.778-2.778z" opacity=".75"/><path fill="#75a9ff" d="M8.467 285.887a2.64 2.64 0 0 1 2.645 2.646 2.64 2.64 0 0 1-2.645 2.646 2.64 2.64 0 0 1-2.646-2.646 2.64 2.64 0 0 1 2.646-2.646"/></g></svg>