<svg width="64" height="64" version="1.1" viewBox="0 0 16.933 16.933" xmlns="http://www.w3.org/2000/svg">
 <circle cx="8.4665" cy="8.46" r="7.1436" fill="#7091e3" stroke="#3860c4" stroke-width=".52916" style=""/>
 <circle cx="8.4665" cy="8.46" r="7.1436" fill="#7091e3" style=""/>
 <g transform="matrix(.18009 0 0 .18009 3.9687 3.9777)" fill="#ffffff" style="">
  <path class="st0" d="m41.3 44c0.5-0.4 0.9-0.8 1.3-1.3 9.8-9.8 9.8-25.6 0-35.4s-25.6-9.8-35.4 0c-0.4 0.5-0.8 0.9-1.2 1.4z"/>
  <path class="st0" d="m38.3 46.2-34.5-34.5c-0.7 1.1-1.3 2.2-1.8 3.4l32.9 32.9c1.2-0.5 2.3-1.1 3.4-1.8z"/>
  <path class="st0" d="m31.1 49.3-30.4-30.4c-0.4 1.5-0.6 3-0.7 4.5l26.6 26.6c1.5-0.1 3-0.3 4.5-0.7z"/>
  <path class="st0" d="m21.1 49.8-20.9-20.9c0.8 5.1 3.1 9.9 7 13.9 4 3.8 8.9 6.2 13.9 7z"/>
 </g>
</svg>
