<?xml version="1.0" encoding="UTF-8" standalone="no"?>
<!-- Created with Inkscape (http://www.inkscape.org/) -->

<svg
   xmlns:dc="http://purl.org/dc/elements/1.1/"
   xmlns:cc="http://creativecommons.org/ns#"
   xmlns:rdf="http://www.w3.org/1999/02/22-rdf-syntax-ns#"
   xmlns:svg="http://www.w3.org/2000/svg"
   xmlns="http://www.w3.org/2000/svg"
   xmlns:xlink="http://www.w3.org/1999/xlink"
   xmlns:sodipodi="http://sodipodi.sourceforge.net/DTD/sodipodi-0.dtd"
   xmlns:inkscape="http://www.inkscape.org/namespaces/inkscape"
   width="64"
   height="64"
   viewBox="0 0 16.933333 16.933333"
   version="1.1"
   id="svg4572"
   inkscape:version="0.92.4 (5da689c313, 2019-01-14)"
   sodipodi:docname="cinnamon-panel-launcher.svg">
  <title
     id="title4611">Canvas icon theme</title>
  <defs
     id="defs4566">
    <linearGradient
       inkscape:collect="always"
       id="linearGradient827">
      <stop
         style="stop-color:#66bcff;stop-opacity:1"
         offset="0"
         id="stop823" />
      <stop
         style="stop-color:#b29aff;stop-opacity:1"
         offset="1"
         id="stop825" />
    </linearGradient>
    <clipPath
       clipPathUnits="userSpaceOnUse"
       id="clipPath862">
      <rect
         ry="0.26459679"
         y="282.44791"
         x="1.0583332"
         height="12.170833"
         width="14.816667"
         id="rect864"
         style="opacity:1;fill:url(#linearGradient866);fill-opacity:1;stroke:none;stroke-width:0.53501397;stroke-miterlimit:4;stroke-dasharray:none;stroke-opacity:0.03921569;paint-order:stroke markers fill" />
    </clipPath>
    <linearGradient
       inkscape:collect="always"
       xlink:href="#linearGradient827"
       id="linearGradient866"
       gradientUnits="userSpaceOnUse"
       gradientTransform="translate(0,4.8881234e-6)"
       x1="13.229166"
       y1="297"
       x2="2.1166666"
       y2="280.06668" />
  </defs>
  <sodipodi:namedview
     id="base"
     pagecolor="#ffffff"
     bordercolor="#666666"
     borderopacity="1.0"
     inkscape:pageopacity="0.0"
     inkscape:pageshadow="2"
     inkscape:zoom="1.979899"
     inkscape:cx="88.010849"
     inkscape:cy="61.72473"
     inkscape:document-units="px"
     inkscape:current-layer="layer1"
     showgrid="true"
     units="px"
     width="64px"
     showguides="true"
     inkscape:guide-bbox="true"
     inkscape:window-width="1366"
     inkscape:window-height="697"
     inkscape:window-x="0"
     inkscape:window-y="0"
     inkscape:window-maximized="1"
     inkscape:snap-bbox="true"
     inkscape:bbox-nodes="true"
     inkscape:snap-bbox-edge-midpoints="false"
     inkscape:snap-nodes="false">
    <inkscape:grid
       type="xygrid"
       id="grid4582" />
    <sodipodi:guide
       position="1.0583333,15.875"
       orientation="0,1"
       id="guide4584"
       inkscape:locked="false" />
    <sodipodi:guide
       position="1.0583333,1.0583333"
       orientation="1,0"
       id="guide4586"
       inkscape:locked="false" />
    <sodipodi:guide
       position="15.875,15.875"
       orientation="1,0"
       id="guide4588"
       inkscape:locked="false" />
    <sodipodi:guide
       position="1.0583333,1.0583333"
       orientation="0,1"
       id="guide4590"
       inkscape:locked="false" />
    <sodipodi:guide
       position="8.4666665,8.4666665"
       orientation="0,1"
       id="guide822"
       inkscape:locked="false" />
    <sodipodi:guide
       position="8.4666665,8.4666665"
       orientation="1,0"
       id="guide824"
       inkscape:locked="false" />
  </sodipodi:namedview>
  <metadata
     id="metadata4569">
    <rdf:RDF>
      <cc:Work
         rdf:about="">
        <dc:format>image/svg+xml</dc:format>
        <dc:type
           rdf:resource="http://purl.org/dc/dcmitype/StillImage" />
        <dc:title>Canvas icon theme</dc:title>
        <cc:license
           rdf:resource="http://creativecommons.org/licenses/by-nc-sa/4.0/" />
        <dc:creator>
          <cc:Agent>
            <dc:title>Vince Liuice</dc:title>
          </cc:Agent>
        </dc:creator>
      </cc:Work>
      <cc:License
         rdf:about="http://creativecommons.org/licenses/by-nc-sa/4.0/">
        <cc:permits
           rdf:resource="http://creativecommons.org/ns#Reproduction" />
        <cc:permits
           rdf:resource="http://creativecommons.org/ns#Distribution" />
        <cc:requires
           rdf:resource="http://creativecommons.org/ns#Notice" />
        <cc:requires
           rdf:resource="http://creativecommons.org/ns#Attribution" />
        <cc:prohibits
           rdf:resource="http://creativecommons.org/ns#CommercialUse" />
        <cc:permits
           rdf:resource="http://creativecommons.org/ns#DerivativeWorks" />
        <cc:requires
           rdf:resource="http://creativecommons.org/ns#ShareAlike" />
      </cc:License>
    </rdf:RDF>
  </metadata>
  <g
     inkscape:label="Layer 1"
     inkscape:groupmode="layer"
     id="layer1"
     transform="translate(0,-280.06667)">
    <rect
       ry="0.79374504"
       rx="0.79374975"
       y="281.65417"
       x="1.5875003"
       height="13.758332"
       width="13.758332"
       id="rect835"
       style="opacity:0.75;fill:none;fill-opacity:0.74901962;stroke:#2454d8;stroke-width:0.52916664;stroke-linecap:round;stroke-linejoin:round;stroke-miterlimit:4;stroke-dasharray:none;stroke-opacity:1;paint-order:markers stroke fill" />
    <rect
       style="opacity:1;fill:#90a9ff;fill-opacity:1;stroke:none;stroke-width:0.2362351;stroke-linecap:round;stroke-linejoin:round;stroke-miterlimit:4;stroke-dasharray:none;stroke-opacity:0.09803922;paint-order:markers stroke fill"
       id="rect841"
       width="13.758332"
       height="13.758332"
       x="1.5875003"
       y="281.65417"
       rx="0.79374975"
       ry="0.79374504" />
    <path
       style="opacity:0.35;fill:#000000;fill-opacity:1;stroke:none;stroke-width:0.2362351;stroke-linecap:round;stroke-linejoin:round;stroke-miterlimit:4;stroke-dasharray:none;stroke-opacity:0.09803922;paint-order:markers stroke fill"
       d="m 2.3812499,281.65416 c -0.4397373,0 -0.7937499,0.35401 -0.7937499,0.79375 v 0.26458 h 13.758333 v -0.26458 c 0,-0.43974 -0.354012,-0.79375 -0.79375,-0.79375 z"
       id="rect843"
       inkscape:connector-curvature="0"
       sodipodi:nodetypes="ssccsss" />
    <rect
       ry="0.26458803"
       y="281.91876"
       x="7.1201262"
       height="0.52917606"
       width="2.6458333"
       id="rect840-3"
       style="opacity:0.35;fill:#000000;fill-opacity:1;stroke:none;stroke-width:1.18326306;stroke-miterlimit:4;stroke-dasharray:none;stroke-opacity:0.03921569;paint-order:stroke markers fill" />
    <g
       transform="matrix(0.13229166,0,0,0.13229166,19.848866,284.19653)"
       id="g954"
       style="stroke-width:2">
      <path
         d="m -79.038682,44.78217 c 0,0 8.892818,7.88843 9,20 0,2.209139 -1.790861,4 -4,4 -2.209139,0 -4,-1.790861 -4,-4 1.500549,-14.04085 -3,-14 -3,-14 z"
         inkscape:connector-curvature="0"
         id="path3845"
         style="color:#000000;display:inline;overflow:visible;visibility:visible;fill:#525292;fill-opacity:1;fill-rule:nonzero;stroke:none;stroke-width:2;marker:none;enable-background:accumulate" />
      <path
         style="color:#000000;display:inline;overflow:visible;visibility:visible;fill:#6969a6;fill-opacity:1;fill-rule:nonzero;stroke:none;stroke-width:2;marker:none;enable-background:accumulate"
         id="path3653"
         inkscape:connector-curvature="0"
         d="m -93.038682,44.78217 c 0,0 -8.892818,7.88843 -8.999998,20 0,2.209139 1.79086,4 3.999998,4 2.209139,0 4,-1.790861 4,-4 -1.500549,-14.04085 3,-14 3,-14 z" />
      <path
         d="m -86.038682,4.7821704 c 0,0 -4.329605,5.9579126 -6.78125,15.9999996 h 2.78125 v 6 h 8 v -6 h 2.78125 c -2.451645,-10.042087 -6.78125,-15.9999996 -6.78125,-15.9999996 z m 6.78125,15.9999996 c 0.189912,0.77789 0.387466,1.589238 0.5625,2.40625 -0.166251,-0.840654 -0.369517,-1.615779 -0.5625,-2.40625 z m -2.78125,6 v 6 h 4.40625 c -0.05544,-2.088004 -0.188001,-4.108162 -0.4375,-6 z m 4.40625,6 c 0.02557,0.962941 0.02553,1.9382 0,2.9375 0.02462,-1.005871 0.02566,-1.971147 0,-2.9375 z m 0,2.9375 c -0.02553,0.9993 -0.07654,2.022642 -0.15625,3.0625 0.07942,-1.036173 0.131806,-2.063734 0.15625,-3.0625 z m -0.15625,3.0625 h -4.25 v 6 h -8 v -6 h -4.25 c 0.148613,1.938835 0.381783,3.937983 0.75,6 l 2.5,14 h 10 l 2.5,-14 c 0.368217,-2.062017 0.601387,-4.061165 0.75,-6 z m -16.5,0 c -0.07971,-1.039858 -0.130722,-2.0632 -0.15625,-3.0625 0.02444,0.998766 0.07683,2.026327 0.15625,3.0625 z m -0.15625,-3.0625 c -0.02553,-0.9993 -0.02557,-1.974559 0,-2.9375 -0.02566,0.966353 -0.02462,1.931629 0,2.9375 z m 0,-2.9375 h 4.40625 v -6 h -3.96875 c -0.249499,1.891838 -0.382063,3.911996 -0.4375,6 z m 4.40625,0 v 6 h 8 v -6 z m -2.78125,-12 c -0.192983,0.790471 -0.396249,1.565596 -0.5625,2.40625 0.175034,-0.817012 0.372588,-1.62836 0.5625,-2.40625 z"
         inkscape:connector-curvature="0"
         id="path3647"
         style="fill:#6969a6;fill-opacity:1;stroke:none;stroke-width:2" />
      <path
         d="m -92.819932,20.78217 c -0.457965,1.875851 -0.903734,3.848336 -1.1875,6 h 3.96875 v -6 z m 2.78125,6 v 6 h 8 v -6 z m 8,0 h 3.96875 c -0.283766,-2.151664 -0.729535,-4.124149 -1.1875,-6 h -2.78125 z m 0,6 v 6 h 4.25 c 0.159412,-2.079716 0.207382,-4.074119 0.15625,-6 z m 0,6 h -8 v 6 h 8 z m -8,0 v -6 h -4.40625 c -0.05113,1.925881 -0.0032,3.920284 0.15625,6 z"
         inkscape:connector-curvature="0"
         id="rect3677"
         style="color:#000000;display:inline;overflow:visible;visibility:visible;opacity:0.5;fill:#ffffff;fill-opacity:1;fill-rule:nonzero;stroke:none;stroke-width:2;marker:none;enable-background:accumulate" />
    </g>
  </g>
</svg>
