<svg xmlns="http://www.w3.org/2000/svg" width="64" height="64" viewBox="0 0 16.933 16.933"><g transform="translate(0 -280.067)"><rect width="13.758" height="13.758" x="1.588" y="281.654" fill="none" stroke="#2454d8" stroke-linecap="round" stroke-linejoin="round" stroke-width=".529" opacity=".75" paint-order="markers stroke fill" rx=".794" ry=".794"/><rect width="13.758" height="13.758" x="1.588" y="281.654" fill="#90a9ff" paint-order="markers stroke fill" rx=".794" ry=".794"/><path d="M2.381 281.654a.79.79 0 0 0-.793.794v.264h13.758v-.264a.79.79 0 0 0-.794-.794z" opacity=".35" paint-order="markers stroke fill"/><rect width="2.646" height=".529" x="7.12" y="281.919" opacity=".35" paint-order="stroke markers fill" ry=".265"/><g stroke-width="2"><path fill="#525292" d="M9.393 290.12s1.176 1.044 1.19 2.647a.53.53 0 1 1-1.058 0c.199-1.858-.397-1.852-.397-1.852z" color="#000" overflow="visible" style="marker:none"/><path fill="#6969a6" d="M7.54 290.12s-1.176 1.044-1.19 2.647a.53.53 0 1 0 1.058 0c-.198-1.858.397-1.852.397-1.852z" color="#000" overflow="visible" style="marker:none"/><path fill="#6969a6" d="M8.467 284.83s-.573.787-.897 2.116h.367v.794h1.059v-.794h.368c-.325-1.329-.897-2.117-.897-2.117zm.897 2.116q.038.155.074.318c-.022-.111-.049-.214-.074-.318m-.368.794v.793h.583a8 8 0 0 0-.058-.793zm.563 1.587h-.563v.794H7.937v-.794h-.562c.02.257.05.521.1.794l.33 1.852h1.323l.33-1.852a8 8 0 0 0 .1-.794zm-2.204-.794h.582v-.793h-.525a8 8 0 0 0-.057.793m.582 0v.794h1.059v-.794zm-.367-1.587c-.026.104-.053.207-.075.318q.036-.163.075-.318"/><path fill="#fff" d="M7.57 286.946c-.061.248-.12.509-.158.794h.525v-.794zm.367.794v.793h1.059v-.793zm1.059 0h.525a7 7 0 0 0-.157-.794h-.368zm0 .793v.794h.562q.032-.412.02-.794zm0 .794H7.937v.794h1.059zm-1.059 0v-.794h-.582q-.01.382.02.794z" color="#000" opacity=".5" overflow="visible" style="marker:none"/></g></g></svg>