<svg xmlns="http://www.w3.org/2000/svg" width="64" height="64"><rect width="53.999" height="36.001" x="-58.999" y="-50" fill="#8f57c7" stroke="#639" stroke-width="2" rx="3.001" ry="3.001" style="paint-order:stroke fill markers" transform="scale(-1)"/><rect width="53.999" height="36.001" x="-58.999" y="-50" fill="#8f57c7" rx="3.001" ry="3.001" style="paint-order:stroke fill markers" transform="scale(-1)"/><rect width="53.999" height="36.001" x="5" y="-50" fill="#bf61ca" stroke="#a53ab0" stroke-width="2" rx="3.001" ry="3.001" style="paint-order:stroke fill markers" transform="rotate(90)"/><rect width="53.999" height="36.001" x="5" y="-50" fill="#bf61ca" rx="3.001" ry="3.001" style="paint-order:stroke fill markers" transform="rotate(90)"/><circle cx="31.999" cy="29.968" r="12" fill="#d7d7f4" stroke="#6b2673" opacity=".3"/><circle cx="31.999" cy="30.001" r="9" fill="#6746c3"/><path fill="#fff" fill-rule="evenodd" d="M28.967 24.947c-.554.01-.999.457-.999 1.01v8.085c0 .807.9 1.288 1.571.84l7.076-4.042c.6-.4.6-1.281 0-1.681l-7.076-4.042a1 1 0 0 0-.572-.17" color="#000" style="isolation:auto;mix-blend-mode:normal;text-decoration-color:#000;text-decoration-line:none;text-decoration-style:solid;text-indent:0;text-transform:none;white-space:normal"/><rect width="28" height="3" x="18" y="48" fill="#fff" stroke="#6b2673" stroke-linecap="round" stroke-linejoin="round" opacity=".2" rx="1.5" ry="1.5"/><rect width="19" height="3" x="18" y="48" fill="#6746c3" stroke="#5236a1" stroke-linecap="round" stroke-linejoin="round" rx="1.5" ry="1.5"/></svg>