<svg xmlns="http://www.w3.org/2000/svg" width="64" height="64" viewBox="0 0 16.933 16.933"><g stroke-width=".963"><path fill="#fff" d="m8.82 5.735-4.763 8.25h9.525z"/><path fill="#4caf50" stroke="#000" stroke-linecap="round" stroke-opacity=".255" d="M25.408 39.723C16.23 41.773 11.158 47.929 6 54h52c-6.958-3.519-9.104-10.594-22.072-9.67L32 42.61z" transform="matrix(.27476 0 0 .27483 -.34 -.168)"/><path fill="#2196f3" stroke="#000" stroke-linecap="round" stroke-opacity=".255" stroke-width="2.353" d="m16.933 225.298-63.548 110.067 70.051-51.534c8.916-22.534-.291-40.125-6.503-58.533z" transform="matrix(.11241 0 0 .11244 6.548 -23.036)"/><path fill="#f44336" stroke="#000" stroke-linecap="round" stroke-opacity=".255" stroke-width="2.353" d="m16.933 225.298 9.602 86.431 53.947 23.636z" transform="matrix(.11241 0 0 .11244 6.548 -23.036)"/><path d="m15.59 14.673-6.06-2.658-.174-1.568zM8.452 2.297l.728 6.577-1.271.936zM1.308 14.673l5.33-3.92 1.446.634z" opacity=".1"/></g></svg>