<svg xmlns="http://www.w3.org/2000/svg" width="64" height="64" viewBox="0 0 16.933 16.933"><g color="#000" paint-order="fill markers stroke"><path fill="#2268ab" stroke="#1b5895" stroke-linecap="round" stroke-linejoin="round" stroke-width=".529" d="M1.323 1.323v12.701l11.112-.001 1.588-1.588.001-11.112H5.556z" display="block" opacity=".75" overflow="visible" style="isolation:auto;mix-blend-mode:normal;marker:none"/><path fill="#2268ab" d="M1.323 1.323h12.701l-.001 11.112-1.588 1.588H1.323z" display="block" overflow="visible" style="isolation:auto;mix-blend-mode:normal;marker:none"/><path fill="#3d8dd8" d="M5.556 5.556H9.79V9.79H5.556z" display="block" overflow="visible" style="isolation:auto;mix-blend-mode:normal;marker:none"/><path fill="#2777c4" d="M5.556 1.323H9.79v4.233H5.556z" display="block" overflow="visible" style="isolation:auto;mix-blend-mode:normal;marker:none"/><path fill="#1f609e" d="M1.323 1.323h4.233v4.233H1.323z" display="block" overflow="visible" style="isolation:auto;mix-blend-mode:normal;marker:none"/><path fill="#3b83c8" d="M1.323 5.556h4.233V9.79H1.323z" display="block" overflow="visible" style="isolation:auto;mix-blend-mode:normal;marker:none"/><path fill="#63a3e0" d="M9.79 5.556h4.233V9.79H9.79z" display="block" overflow="visible" style="isolation:auto;mix-blend-mode:normal;marker:none"/><path fill="#3b8bd8" d="M9.79 1.323h4.233v4.233H9.79z" display="block" overflow="visible" style="isolation:auto;mix-blend-mode:normal;marker:none"/><path fill="#61a2e0" d="M5.556 9.788H9.79v4.234H5.556z" display="block" overflow="visible" style="isolation:auto;mix-blend-mode:normal;marker:none"/><path fill="#4893db" d="M1.323 9.79h4.233v4.232H1.323z" display="block" overflow="visible" style="isolation:auto;mix-blend-mode:normal;marker:none"/><path fill="#fff" stroke="#000" stroke-width=".529" d="m11.2 6.791-.143.005c-.008 0-.015-.005-.024-.005H6.972a.176.176 0 0 0-.176.176v4.13l-.005.104a4.41 4.41 0 0 0 4.41 4.41 4.41 4.41 0 0 0 4.41-4.41 4.41 4.41 0 0 0-4.41-4.41z" opacity=".15" overflow="visible" style="isolation:auto;mix-blend-mode:normal;marker:none"/><path fill="#fff" d="m11.2 6.791-.143.005c-.008 0-.015-.005-.024-.005H6.972a.176.176 0 0 0-.176.176v4.13l-.005.104a4.41 4.41 0 0 0 4.41 4.41 4.41 4.41 0 0 0 4.41-4.41 4.41 4.41 0 0 0-4.41-4.41z" overflow="visible" style="isolation:auto;mix-blend-mode:normal;marker:none"/><path fill="#5299dc" stroke="#1a456e" stroke-width=".265" d="M13.468 11.201a2.267 2.267 0 0 1-2.267 2.267 2.267 2.267 0 0 1-2.268-2.267 2.267 2.267 0 0 1 2.268-2.267 2.267 2.267 0 0 1 2.267 2.267z" opacity=".5" overflow="visible" style="isolation:auto;mix-blend-mode:normal;marker:none"/><path fill="#73aee5" d="M13.468 11.201a2.267 2.267 0 0 1-2.267 2.267 2.267 2.267 0 0 1-2.268-2.267 2.267 2.267 0 0 1 2.268-2.267 2.267 2.267 0 0 1 2.267 2.267" overflow="visible" style="isolation:auto;mix-blend-mode:normal;marker:none"/><path fill="#fff" d="M11.112 10.319v.794h-.793v.264h.793l.017.794h.248v-.794h.794l.017-.264h-.81v-.794z" overflow="visible" style="isolation:auto;mix-blend-mode:normal;marker:none"/></g></svg>