<svg xmlns="http://www.w3.org/2000/svg" width="64" height="64"><g transform="translate(270.4 69.763)"><path fill="none" stroke="#42557f" stroke-opacity=".291" d="M-244.498-26.43c-.776 0-1.4.596-1.4 1.334v10.5l-3.6.333c-.776 0-1.4.596-1.4 1.334v1.666h25v-1.666c0-.738-.625-1.334-1.4-1.334l-3.6-.334v-10.499c0-.738-.625-1.334-1.4-1.334z"/><path fill="#fafafa" d="M-244.498-25.929c-.52 0-.9.378-.9.834v10.955l-4.078.377h-.022c-.52 0-.9.378-.9.834v1.166h24v-1.166c0-.456-.381-.834-.9-.834h-.024l-4.076-.377v-10.955c0-.456-.38-.834-.9-.834z"/><rect width="61" height="40" x="-268.9" y="-64.263" fill="#414757" stroke="#252831" stroke-dashoffset=".5" stroke-linecap="round" stroke-linejoin="round" stroke-opacity=".784" rx="1.4" ry="1.333"/><path fill="#5294e2" fill-rule="evenodd" d="M-266.4-61.763h56v35h-56z"/><path fill-rule="evenodd" d="M-266.4-61.763h28v35h-28z" opacity=".15"/></g><path fill="#fff" d="M45.75 18a.25.25 0 0 0-.25.25v1.5c0 .139.112.25.25.25h.5a.25.25 0 0 0 .25-.25v-1.5a.25.25 0 0 0-.25-.25zm-4.699 1.947a.25.25 0 0 0-.178.073l-.353.353a.25.25 0 0 0 0 .354l1.06 1.06a.25.25 0 0 0 .354 0l.353-.353a.25.25 0 0 0 0-.354l-1.06-1.06a.25.25 0 0 0-.176-.073m9.898 0a.25.25 0 0 0-.175.073l-1.06 1.06a.25.25 0 0 0 0 .354l.353.353a.25.25 0 0 0 .353 0l1.06-1.06a.25.25 0 0 0 0-.354l-.353-.353a.25.25 0 0 0-.178-.073M46 22a3.5 3.5 0 1 0 0 7 3.5 3.5 0 0 0 0-7m-7.25 3a.25.25 0 0 0-.25.25v.5c0 .139.112.25.25.25h1.5a.25.25 0 0 0 .25-.25v-.5a.25.25 0 0 0-.25-.25zm13 0a.25.25 0 0 0-.25.25v.5c0 .139.112.25.25.25h1.5a.25.25 0 0 0 .25-.25v-.5a.25.25 0 0 0-.25-.25zm-9.992 4.139a.25.25 0 0 0-.178.074l-1.06 1.06a.25.25 0 0 0 0 .354l.353.353a.25.25 0 0 0 .354 0l1.06-1.06a.25.25 0 0 0 0-.354l-.353-.353a.25.25 0 0 0-.176-.074m8.484 0a.25.25 0 0 0-.175.074l-.354.353a.25.25 0 0 0 0 .354l1.06 1.06a.25.25 0 0 0 .354 0l.354-.353a.25.25 0 0 0 0-.354l-1.06-1.06a.25.25 0 0 0-.179-.074M45.75 31a.25.25 0 0 0-.25.25v1.5c0 .139.112.25.25.25h.5a.25.25 0 0 0 .25-.25v-1.5a.25.25 0 0 0-.25-.25z" color="#000" overflow="visible" style="isolation:auto;mix-blend-mode:normal"/><path fill="#fff" d="M18.463 18A7.5 7.5 0 0 0 11 25.5a7.5 7.5 0 0 0 7.5 7.5 7.5 7.5 0 0 0 3.834-1.055A7 7 0 0 1 21.5 32a6.5 6.5 0 0 1-6.5-6.5 6.5 6.5 0 0 1 6.5-6.5 7 7 0 0 1 .832.055A7.5 7.5 0 0 0 18.5 18z"/></svg>