<?xml version="1.0" encoding="UTF-8"?>
<svg width="64" height="64" version="1.1" xmlns="http://www.w3.org/2000/svg" xmlns:cc="http://creativecommons.org/ns#" xmlns:dc="http://purl.org/dc/elements/1.1/" xmlns:rdf="http://www.w3.org/1999/02/22-rdf-syntax-ns#" xmlns:xlink="http://www.w3.org/1999/xlink">
 <metadata>
  <rdf:RDF>
   <cc:Work rdf:about="">
    <dc:format>image/svg+xml</dc:format>
    <dc:type rdf:resource="http://purl.org/dc/dcmitype/StillImage"/>
   </cc:Work>
  </rdf:RDF>
 </metadata>
 <rect transform="matrix(0,-1,-1,0,0,0)" x="-58" y="-58" width="52" height="52" rx="2.5" ry="2.5" fill="#4c5263" stroke="#3c404e" stroke-width="2"/>
 <rect transform="matrix(0,-1,-1,0,0,0)" x="-58" y="-58" width="52" height="52" rx="2.5" ry="2.5" fill="#4c5263"/>
 <g transform="scale(2)" opacity=".35">
  <rect x="4" y="22" width="11" height="6" rx="1.25" ry="1.25"/>
  <rect x="17" y="22" width="11" height="6" rx="1.25" ry="1.25"/>
  <path d="m24 7h4v1h-4zm0 2h4v1h-4zm0 2h4v1h-4zm0 2h4v1h-4zm0 2h4v1h-4zm0 2h4v1h-4z"/>
 </g>
 <circle cx="48" cy="46" r="16" fill="#6941b1"/>
 <circle cx="48" cy="46" r="15" fill="#8561c5"/>
 <path d="m46 38-0.176 2.107a6.286 6.286 0 0 0-1.837 1.063l-1.916-0.902-2 3.464 1.74 1.208a6.286 6.286 0 0 0-0.097 1.06 6.286 6.286 0 0 0 0.092 1.065l-1.734 1.204 2 3.464 1.91-0.9a6.286 6.286 0 0 0 1.842 1.056l0.176 2.112h4l0.177-2.107a6.286 6.286 0 0 0 1.837-1.063l1.915 0.902 2-3.464-1.739-1.208a6.286 6.286 0 0 0 0.096-1.06 6.286 6.286 0 0 0-0.091-1.065l1.734-1.203-2-3.464-1.91 0.9a6.286 6.286 0 0 0-1.842-1.056l-0.177-2.113zm2 5.714a2.286 2.286 0 0 1 2.286 2.286 2.286 2.286 0 0 1-2.286 2.286 2.286 2.286 0 0 1-2.286-2.286 2.286 2.286 0 0 1 2.286-2.286z" fill="#fff"/>
</svg>
