<svg xmlns="http://www.w3.org/2000/svg" width="64" height="64"><rect width="54" height="54" x="5" y="5" fill="#c45d04" ry="3" style="paint-order:stroke fill markers"/><rect width="52" height="52" x="6" y="6" fill="#f08705" ry="2" style="paint-order:stroke fill markers"/><path fill="#c45d04" d="m26.357 26-5.863 10h3.375l5.826-9.951h4.644L40.2 36h3.361l-5.883-10z"/><path fill="#c45d04" d="M26 12c-1.108 0-2 .892-2 2v10c0 1.108.892 2 2 2h12c1.108 0 2-.892 2-2V14c0-1.108-.892-2-2-2zm0 2h12v10H26z" style="paint-order:stroke fill markers"/><rect width="12" height="10" x="26" y="14" fill="#fff" ry="0" style="paint-order:stroke fill markers"/><path fill="#c45d04" d="M14 36c-1.108 0-2 .892-2 2v10c0 1.108.892 2 2 2h12c1.108 0 2-.892 2-2V38c0-1.108-.892-2-2-2zm0 2h12v10H14zm24-2c-1.108 0-2 .892-2 2v10c0 1.108.892 2 2 2h12c1.108 0 2-.892 2-2V38c0-1.108-.892-2-2-2zm0 2h12v10H38z" style="paint-order:stroke fill markers"/><rect width="12" height="10" x="14" y="38" fill="#fff" ry="0" style="paint-order:stroke fill markers"/><rect width="12" height="10" x="38" y="38" fill="#fff" ry="0" style="paint-order:stroke fill markers"/></svg>