<svg xmlns="http://www.w3.org/2000/svg" width="64" height="64" version="1.0"><g transform="matrix(.99468 0 0 .99222 2.01 -1.811)"><rect width="55.215" height="42.97" x="-57.634" y="-55.828" fill="#5e5c64" stroke="#000" stroke-opacity=".706" stroke-width=".839" rx="3.512" ry="3.512" style="paint-order:normal" transform="scale(-1)"/><rect width="55.555" height="19.929" x="-57.804" y="-55.002" fill="#deddda" rx="3.986" ry="3.986" style="paint-order:normal" transform="scale(-1)"/><g stroke="#000" stroke-width=".498"><rect width="55.802" height="40.855" x="-58.051" y="-53.009" fill="#f6f5f4" stroke-opacity=".196" rx="3.986" ry="3.986" style="paint-order:normal" transform="scale(-1)"/><path fill="#fff" stroke-opacity=".137" d="M50.843 41.133a4.74 4.74 0 0 0-4.75 4.75v5.768c0 .416.059.816.158 1.2l11.56-11.56a4.8 4.8 0 0 0-1.2-.158z" style="paint-order:normal"/><path fill="#5e5c64" stroke-opacity=".596" d="M6.235 12.154a3.977 3.977 0 0 0-3.986 3.986v3.986h55.802V16.14a3.977 3.977 0 0 0-3.986-3.986z" style="paint-order:normal"/></g></g><path fill="none" stroke="#e01b24" stroke-linecap="round" stroke-width="1.993" d="M10.172 24.547c6.669 2.263-2.784 8.816 6.936 9.438 5.712.366 5.667 8.247 5.667 8.247"/><path fill="#ec413c" stroke="#e01b24" stroke-linecap="round" stroke-linejoin="round" stroke-width=".498" d="m32.158 40.342-7.047-7.047L54.705 3.702l7.046 7.046z"/><path fill="#3d3846" d="m56.115 16.385-7.047-7.047 1.41-1.409 7.046 7.047zM36.386 36.114l-7.047-7.047 1.41-1.409 7.046 7.047z"/><path fill="#ec423d" stroke="#e01b24" stroke-width=".498" d="M31.453 39.636 25.816 34l-3.523 7.75 1.41 1.41z"/><path fill-opacity=".259" d="m32.862 39.637-7.046-7.046-.704.704 7.046 7.047z"/><path fill="#3d3846" d="M36.385 22.023a2.491 4.982 45 0 0 5.285-1.762 2.491 4.982 45 0 0 1.761-5.285z"/></svg>