<svg xmlns="http://www.w3.org/2000/svg" width="64" height="64"><rect width="52" height="52" x="-58" y="-58" fill="#4c5263" stroke="#3c404e" stroke-width="2" rx="2.5" ry="2.5" transform="scale(1 -1)rotate(90)"/><rect width="52" height="52" x="-58" y="-58" fill="#4c5263" rx="2.5" ry="2.5" transform="scale(1 -1)rotate(90)"/><g opacity=".35" transform="scale(2)"><rect width="11" height="6" x="4" y="22" rx="1.25" ry="1.25"/><rect width="11" height="6" x="17" y="22" rx="1.25" ry="1.25"/><path d="M24 7h4v1h-4zm0 2h4v1h-4zm0 2h4v1h-4zm0 2h4v1h-4zm0 2h4v1h-4zm0 2h4v1h-4z"/></g><circle cx="48" cy="46" r="16" fill="#6941b1"/><circle cx="48" cy="46" r="15" fill="#8561c5"/><path fill="#fff" d="m46 38-.176 2.107a6.3 6.3 0 0 0-1.837 1.063l-1.916-.902-2 3.464 1.74 1.208a6.3 6.3 0 0 0-.097 1.06 6.3 6.3 0 0 0 .092 1.065l-1.734 1.204 2 3.464 1.91-.9a6.3 6.3 0 0 0 1.842 1.056L46 54.001h4l.177-2.107a6.3 6.3 0 0 0 1.837-1.063l1.915.902 2-3.464-1.739-1.208a6.3 6.3 0 0 0 .096-1.06 6.3 6.3 0 0 0-.091-1.065l1.734-1.203-2-3.464-1.91.9a6.3 6.3 0 0 0-1.842-1.056L50 38zm2 5.714A2.286 2.286 0 0 1 50.286 46 2.286 2.286 0 0 1 48 48.286 2.286 2.286 0 0 1 45.714 46 2.286 2.286 0 0 1 48 43.714"/></svg>