<svg xmlns="http://www.w3.org/2000/svg" width="64" height="64"><rect width="21" height="17" x="35" y="10" fill="#5ad85d" stroke="#30b633" stroke-linecap="round" stroke-linejoin="round" stroke-width="2" rx="2" ry="2"/><rect width="21" height="17" x="35" y="10" fill="#5ad85d" rx="2" ry="2"/><rect width="21" height="17" x="35" y="23" fill="#ff584c" stroke="#d83227" stroke-linecap="round" stroke-linejoin="round" stroke-width="2" rx="2" ry="2"/><rect width="21" height="17" x="35" y="23" fill="#ff584c" rx="2" ry="2"/><rect width="21" height="17" x="35" y="37" fill="#ffce3d" stroke="#d6a100" stroke-linecap="round" stroke-linejoin="round" stroke-width="2" rx="2" ry="2"/><rect width="21" height="17" x="35" y="37" fill="#ffce3d" rx="2" ry="2"/><rect width="43.999" height="52.016" x="8.001" y="-58.016" fill="#4b8df1" stroke="#2267d3" stroke-width="2" rx="5.016" ry="5.016" transform="scale(1 -1)"/><rect width="43.999" height="52.016" x="8.001" y="-58.016" fill="#4b8df1" rx="5.016" ry="5.016" transform="scale(1 -1)"/><circle cx="30" cy="32.016" r="16" fill="#fff" opacity=".2"/><path fill="#fff" d="M30 22.016a5 5 0 1 0 0 10 5 5 0 0 0 0-10m0 2a3 3 0 1 1 0 6 3 3 0 0 1 0-6m-5.182 10A2.813 2.813 0 0 0 22 36.834v5.182h2v-6h12v6h2v-5.182a2.813 2.813 0 0 0-2.818-2.818z"/></svg>