<svg xmlns="http://www.w3.org/2000/svg" width="64" height="64"><path fill="#df3643" stroke="#b5212d" stroke-width="1.704" d="M24 1c12.703 0 23 10.297 23 23S36.703 47 24 47 1 36.703 1 24 11.297 1 24 1z" style="paint-order:stroke markers fill" transform="translate(3.826 3.826)scale(1.1739)"/><path fill="#fff" d="M32 16.152c-8.429 0-15.261 8.41-15.261 18.782v2.348a7.043 7.043 0 0 0 7.043 7.044V30.239a7.04 7.04 0 0 0-2.88.626c1.606-6.673 6.07-11.191 11.098-11.191s9.492 4.518 11.097 11.191a7 7 0 0 0-2.88-.626v14.087a7.043 7.043 0 0 0 7.043-7.043v-2.348c0-10.374-6.832-18.782-15.26-18.782zm-5.87 10.565v2.348h11.74v-2.348zm0 4.696v2.348h11.74v-2.348zm0 4.695v2.348h11.74v-2.348zm0 4.696v2.348h11.74v-2.348zm0 4.696v2.347h11.74V45.5z"/></svg>