<svg xmlns="http://www.w3.org/2000/svg" width="64" height="64"><rect width="52" height="52" x="6.001" y="6.001" fill="#4590cc" fill-rule="evenodd" stroke="#2e6a99" stroke-width="1.999" rx="8" ry="8"/><rect width="52" height="52" x="6.001" y="6.001" fill="#4590cc" fill-rule="evenodd" rx="8" ry="8"/><path fill="#fff" d="M22 15c-2.77 0-5 2.23-5 5v24c0 2.77 2.23 5 5 5h20c2.77 0 5-2.23 5-5V20c0-2.77-2.23-5-5-5zm0 2h20c1.662 0 3 1.338 3 3v24c0 1.662-1.338 3-3 3H22c-1.662 0-3-1.338-3-3V20c0-1.662 1.338-3 3-3"/><rect width="18" height="2" x="23" y="23" fill="#fff" rx="1" ry="1"/><rect width="18" height="2" x="23" y="31" fill="#fff" rx="1" ry="1"/><rect width="18" height="2" x="23" y="39" fill="#fff" rx="1" ry="1"/></svg>