<svg xmlns="http://www.w3.org/2000/svg" width="64" height="64" viewBox="0 0 16.933 16.933"><g stroke-width=".265"><g opacity=".75"><path fill="#e6e6e6" stroke="#b4b4b4" d="M3.914 7.68c.067.395.088.75.013 1.184-.77.638-2.74.926-2.736 1.587l-.265 1.984c0 .658 1.836 1.19 4.101 1.19s4.101-.532 4.101-1.189l-.264-1.985c-.004-.566-1.985-.926-2.746-1.587a4.4 4.4 0 0 1 .02-1.116c-.295.356-.582.688-.582.754a1.16 1.16 0 0 1-.926 0c-.005-.07-.368-.44-.716-.823z"/><path fill="#f2f2f2" stroke="#c8c8c8" d="M5.027 3.307c-1.096 0-1.984.803-1.984 1.793.008.366.04.801.264 1.792.133.384 1.313 1.483 1.323 1.61.257.129.662.129.926 0 0-.127 1.059-1.226 1.19-1.61.253-1.03.252-1.408.265-1.792 0-.99-.888-1.793-1.984-1.793z"/></g><path fill="#e6e6e6" stroke="#b4b4b4" d="M9.009 7.276c.16.768.25 1.349.12 2.117-1.019.852-3.624 1.234-3.62 2.116l-.35 2.646c0 .877 2.429 1.588 5.424 1.588s5.424-.711 5.424-1.588l-.35-2.646c-.004-.754-2.624-1.234-3.63-2.116-.086-.713-.018-1.404.131-2.117z"/><path fill="#f2f2f2" stroke="#c8c8c8" d="M10.583 1.984c-1.534 0-2.778 1.1-2.778 2.455.012.501.057 1.097.37 2.454.186.526 1.838 1.928 1.853 2.104.359.175.926.175 1.296 0 0-.176 1.482-1.578 1.667-2.104.352-1.41.352-1.928.37-2.454 0-1.356-1.243-2.455-2.778-2.455z"/></g></svg>