<svg xmlns="http://www.w3.org/2000/svg" width="64" height="64" viewBox="0 0 16.933 16.933"><g transform="translate(0 -280.067)"><rect width="14.023" height="14.023" x="1.455" y="281.522" fill="#2c2e38" color="#000" overflow="visible" rx=".765" ry=".765" style="marker:none"/><rect width="14.023" height="14.023" x="1.455" y="281.522" fill="none" stroke="#000" stroke-linecap="round" stroke-linejoin="round" stroke-width=".265" color="#000" opacity=".9" overflow="visible" rx=".765" ry=".765" style="marker:none"/><g stroke-width="1.612"><path fill="#fff" d="M4.33 289.96h2.627v2.626H4.331z" opacity=".1"/><path fill="#fff" d="m5.316 284.38-.985 2.124q.24-.134.512-.196l.477 4.637.478-4.639c.177.042.348.108.503.198zm5.262 6.237c.09.158.154.332.196.51l-4.801.479 4.803.478a1.8 1.8 0 0 1-.198.503l2.125-.985z"/><path fill="none" stroke="#fff" stroke-dasharray=".85295759,.85295759" stroke-dashoffset="1" stroke-width=".529" d="M4.495 287.827h4.596v4.596H4.495z" opacity=".2"/></g></g></svg>