<svg xmlns="http://www.w3.org/2000/svg" width="64" height="64"><g transform="translate(0 -1058.52)"><rect width="46" height="56" x="9" y="1062.52" ry="3.231" fill="#9e9e9e"/><rect width="44" height="9" x="10" y="1070.52" ry="0" fill="#e0e0e0"/><path d="M54 1079.52H10v35.764c0 1.239.981 2.236 2.2 2.236h39.6c1.219 0 2.2-.997 2.2-2.236z" fill="#eee"/><path d="M12.2 1063.52c-1.219 0-2.2 1.07-2.2 2.4v3.6h44v-3.6c0-1.33-.981-2.4-2.2-2.4z" fill="#bdbdbd"/><path fill="#f5f5f5" d="M11 1079.52h42v37H11z"/><rect width="20" height="2" x="20" y="1084.519" ry="0" fill="#bdbdbd"/><path fill="#bdbdbd" d="M20 1088.52h23v2H20z"/><rect ry="0" y="1093.52" x="20" height="1.999" width="7" fill="#bdbdbd"/><path fill="#bdbdbd" d="M20 1097.52h9v2h-9zm0 4h5v2h-5z"/><ellipse cx="17" cy="1094.52" rx="1" ry="1" fill="#757575"/><ellipse cx="17" cy="1098.52" rx="1" ry="1" fill="#757575"/><ellipse cx="17" cy="1102.52" rx="1" ry="1" fill="#757575"/><path d="M33 1102.52c-1.108 0-2 .892-2 2v7c0 1.108.892 2 2 2h15c1.108 0 2-.892 2-2v-7c0-1.108-.892-2-2-2zm0 1h15c.554 0 1 .446 1 1v7c0 .554-.446 1-1 1H33c-.554 0-1-.446-1-1v-7c0-.554.446-1 1-1zm0 1v7h2v-4.172l2 2 2-2v4.172h2v-7h-2l-2 2-2-2zm11 0v4h-2l3 3 3-3h-2v-4z" fill="#616161"/><circle r="1.5" cy="1067.02" cx="49.5" fill="#ef5350"/><circle cx="49.5" cy="1067.02" r=".5" fill="#ef9a9a"/><path fill="#757575" d="M16 1085.52h3v1h-3zm28 4h3v1h-3z"/><path fill="#bdbdbd" d="M10 1078.52h44v1H10z"/><path opacity=".9" fill="#616161" fill-rule="evenodd" paint-order="stroke fill markers" d="M14 1072.52h4v4h-4z"/><path opacity=".5" fill="#616161" fill-rule="evenodd" paint-order="stroke fill markers" d="M20 1072.52h4v4h-4z"/><path opacity=".9" fill="#616161" fill-rule="evenodd" paint-order="stroke fill markers" d="M26 1074.52h4v2h-4zm6 0h4v2h-4zm6 0h4v2h-4zm6 0h4v2h-4z"/></g></svg>