<svg xmlns="http://www.w3.org/2000/svg" width="64" height="64"><path fill="#38aeff" stroke="#1588d7" stroke-linecap="round" stroke-linejoin="round" stroke-width="2" d="M47.522 51.591h1.414a7.047 7.047 0 0 0 7.057-7.05v-32.49c0-3.885-3.16-7.05-7.057-7.05H15.048a7.047 7.047 0 0 0-7.057 7.05V44.54c0 3.885 3.16 7.051 7.057 7.051h18.52l13.953 11.295z"/><path fill="#38aeff" d="M47.522 51.591h1.414a7.047 7.047 0 0 0 7.057-7.05v-32.49c0-3.885-3.16-7.05-7.057-7.05H15.048a7.047 7.047 0 0 0-7.057 7.05V44.54c0 3.885 3.16 7.051 7.057 7.051h18.52l13.953 11.295z"/><path fill="#fffeff" d="m35.001 25.108 9.215-5.32 2.935 5.082-9.864 5.695 7.349 7.35-4.15 4.15-8.493-8.494-8.494 8.494-4.15-4.15 7.35-7.35-9.865-5.695 2.935-5.083 9.362 5.405v-11.35h5.87z"/></svg>