<svg width="64" height="64" version="1.1" xmlns="http://www.w3.org/2000/svg">
 <g transform="matrix(.96429 0 0 .96429 1.1429 1.1428)">
  <path d="m26.815 59.552c-12.701-2.2889-21.966-12.664-22.761-25.488-1.0437-16.833 13.175-31.059 29.995-30.01 6.5894 0.41086 12.639 2.9921 17.303 7.3831 5.6539 5.3228 8.6326 12.1 8.6483 19.676 0.0076 3.6327-0.47598 5.8856-2.1575 10.053-0.69096 1.7122-1.441 3.7876-1.6668 4.612-0.8677 3.1685-0.33525 6.4358 1.705 10.463 0.66003 1.3027 1.1335 2.4348 1.0522 2.5157-0.08128 0.0809-1.4049-0.32959-2.9414-0.91224-5.7408-2.1769-7.9581-2.1923-13.113-0.09114-5.3082 2.1639-10.692 2.7668-16.064 1.7988z" fill="#465c66" stroke="#2e3538" stroke-width="2.0741"/>
  <path d="m26.815 59.552c-12.701-2.2889-21.966-12.664-22.761-25.488-1.0437-16.833 13.175-31.059 29.995-30.01 6.5894 0.41086 12.639 2.9921 17.303 7.3831 5.6539 5.3228 8.6326 12.1 8.6483 19.676 0.0076 3.6327-0.47598 5.8856-2.1575 10.053-0.69096 1.7122-1.441 3.7876-1.6668 4.612-0.8677 3.1685-0.33525 6.4358 1.705 10.463 0.66003 1.3027 1.1335 2.4348 1.0522 2.5157-0.08128 0.0809-1.4049-0.32959-2.9414-0.91224-5.7408-2.1769-7.9581-2.1923-13.113-0.09114-5.3082 2.1639-10.692 2.7668-16.064 1.7988z" fill="#465c66"/>
  <path d="m31.979 12.002c-1.6996 0.01432-3.591 0.14594-4.6309 0.4082-3.4807 0.87788-5.2647 2.5294-5.2129 4.8203 0.04502 1.9904 1.0167 3.2834 5.5488 6.627 2.2451 1.6564 4.0318 3.5551 3.9746 3.7246-0.05722 0.16948-1.0823 0.5534-2.2793 0.85352-4.7298 1.1858-8.6591 3.9753-10.332 7.3301-1.4089 3.3224-1.3765 6.8386-0.0098 9.5977 2.2307 4.4734 7.1457 6.9805 12.934 6.5996 1.2051-0.07932 3.0422-0.40226 4.0801-0.71875 2.3097-0.70429 4.6541-2.1925 6.4785-4 3.4175-3.3257 4.369-9.2242 2.5996-13.049-1.4375-2.9221-4.3324-5.4617-9.9473-8.7227-7.9204-4.6-8.9226-5.7335-9.8926-6.8242-0.51085-0.5744-0.92773-1.3561-0.92773-1.7363 0-2.6158 5.6504-4.0827 9.1836-2.4395 0.82634 0.38433 2.3808 1.4006 3.4551 2.2598 3.156 2.5243 4.6609 2.8617 6.2383 1.4082 1.7953-1.6544 0.16806-4.1358-3.4707-5.2988-1.7561-0.5613-4.9563-0.8637-7.7891-0.83984zm1.4727 17.998c0.64322 0.0016 0.98637 0.31688 2.3125 1.5586 3.0618 2.8669 4.5329 6.3315 4.1855 9.8594-0.47484 4.004-3.1893 7.4783-7.7852 7.582-4.779 0.04098-8.1367-4.8246-8.1641-8.9434-0.01733-3.5274 0.54975-5.1644 2.4395-7.0371 1.4485-1.4354 3.9463-2.6151 6.2227-2.9395 0.32827-0.04676 0.57465-0.08066 0.78906-0.08008z" fill="#ffffff"/>
 </g>
</svg>
