<svg xmlns="http://www.w3.org/2000/svg" width="64" height="64" viewBox="0 0 16.933 16.933"><g transform="translate(0 -280.067)"><circle cx="8.467" cy="288.533" r="7.144" fill="#569c3b" stroke="#234517" stroke-linecap="round" stroke-linejoin="round" stroke-width=".529" opacity=".75" paint-order="markers stroke fill"/><circle cx="8.467" cy="288.533" r="7.144" fill="#569c3b" paint-order="markers stroke fill"/><path fill="#fff" d="M11.164 284.3c-1.672 0-1.985 2.54-1.045 2.54s2.717-2.54 1.045-2.54m-2.654.288c-.956.135-.62 1.936-.11 1.97.508.033 1.067-2.104.11-1.97m-1.73.56a.6.6 0 0 0-.157.04c-.895.34-.136 1.742.366 1.648.47-.089.524-1.759-.208-1.687zm-1.176 1.128a.48.48 0 0 0-.259.074c-.736.434.248 1.482.68 1.32.38-.143.138-1.378-.421-1.395zm3.432.847c-1.317-.024-3.055.668-3.351 2.056-.321 1.503 1.321 3.588 3.035 3.588.843 0 1.815-.797 1.997-1.806.139-.769-1.748-.46-1.684.048.052.416-.166.632-.466.64-.41-.05-.61-.287-.665-.645-.073-.938 2.884-1.608 2.65-3.063-.086-.533-.725-.804-1.516-.818"/><path fill="#fff" d="M11.164 284.3c-1.672 0-1.985 2.54-1.045 2.54s2.717-2.54 1.045-2.54m-2.654.288c-.956.135-.62 1.936-.11 1.97.508.033 1.067-2.104.11-1.97m-1.73.56a.6.6 0 0 0-.157.04c-.895.34-.136 1.742.366 1.648.47-.089.524-1.759-.208-1.687zm-1.176 1.128a.48.48 0 0 0-.259.074c-.736.434.248 1.482.68 1.32.38-.143.138-1.378-.421-1.395zm3.432.847c-1.317-.024-3.055.668-3.351 2.056-.321 1.503 1.321 3.588 3.035 3.588.843 0 1.815-.797 1.997-1.806.139-.769-1.748-.46-1.684.048.052.416-.166.632-.466.64-.41-.05-.61-.287-.665-.645-.073-.938 2.884-1.608 2.65-3.063-.086-.533-.725-.804-1.516-.818"/></g></svg>