<svg xmlns="http://www.w3.org/2000/svg" width="64" height="64"><path fill="none" stroke="#21598b" stroke-width="1.999" d="M3.001 9h58.002c.552 0 .998.445.998.997v44.002a1 1 0 0 1-.998 1.002H3.001a1 1 0 0 1-1.002-1.002V9.997a1 1 0 0 1 1.002-.998z" opacity=".75" style="paint-order:stroke markers fill"/><path fill="#53a8f6" d="M3.001 9h58.002c.552 0 .998.445.998.997v44.002a1 1 0 0 1-.998 1.002H3.001a1 1 0 0 1-1.002-1.002V9.997a1 1 0 0 1 1.002-.998z" style="paint-order:stroke markers fill"/><rect width="3.999" height="1.999" x="5.998" y="9.997" opacity=".35" ry="1.002" style="paint-order:stroke markers fill"/><rect width="10.001" height="1.999" x="27.001" y="9.997" opacity=".35" ry="1.002" style="paint-order:stroke markers fill"/><rect width="1.999" height="1.999" x="57" y="9.997" opacity=".35" ry="1.002" style="paint-order:stroke markers fill"/><rect width="3.001" height="1.999" x="53.001" y="9.997" opacity=".35" ry="1.002" style="paint-order:stroke markers fill"/><rect width="1.999" height="1.999" x="50" y="9.997" opacity=".35" ry="1.002" style="paint-order:stroke markers fill"/><g fill="#fff" transform="scale(3.7796)"><path d="M15.002 50.998c-1.108 0-2 .892-2 2V55h38v-2.002c0-1.108-.892-2-2-2z" opacity=".35" style="paint-order:stroke markers fill" transform="scale(.26458)"/><rect width="1.323" height="1.323" x="4.498" y="12.7" ry=".132" style="paint-order:stroke markers fill"/><rect width="1.323" height="1.323" x="6.703" y="12.7" ry=".132" style="paint-order:stroke markers fill"/><rect width="1.323" height="1.323" x="8.908" y="12.7" ry=".132" style="paint-order:stroke markers fill"/><rect width="1.323" height="1.323" x="11.113" y="12.7" ry=".132" style="paint-order:stroke markers fill"/></g><path d="M3.001 9a1 1 0 0 0-1.002 1v2.998H62v-2.997a1 1 0 0 0-.997-1.002z" opacity=".35" style="paint-order:stroke markers fill"/><circle cx="52" cy="50" r="12" fill="#666"/><path fill="#fff" d="m50.201 42.8-.159 1.897a5.7 5.7 0 0 0-1.655.957l-1.724-.813-1.799 3.118 1.565 1.085a5.7 5.7 0 0 0-.087.956 5.7 5.7 0 0 0 .083.96l-1.56 1.081 1.798 3.118 1.72-.808a5.7 5.7 0 0 0 1.66.948L50.2 57.2h3.598l.159-1.897a5.7 5.7 0 0 0 1.655-.956l1.724.812 1.799-3.118-1.565-1.088a5.7 5.7 0 0 0 .087-.953 5.7 5.7 0 0 0-.083-.96l1.56-1.08-1.798-3.12-1.72.81a5.7 5.7 0 0 0-1.66-.949L53.8 42.8zm1.8 4.8a2.4 2.4 0 0 1 2.4 2.4 2.4 2.4 0 0 1-2.4 2.4 2.4 2.4 0 0 1-2.4-2.4 2.4 2.4 0 0 1 2.4-2.4"/></svg>