<svg xmlns="http://www.w3.org/2000/svg" width="64" height="64" viewBox="0 0 16.933 16.933"><path fill="none" stroke="#21598b" stroke-width=".529" d="M.794 2.381H16.14c.146 0 .264.118.264.264v11.642a.264.264 0 0 1-.264.265H.794a.264.264 0 0 1-.265-.265V2.645c0-.146.118-.264.265-.264z" opacity=".75" style="paint-order:stroke markers fill"/><path fill="#53a8f6" d="M.794 2.381H16.14c.146 0 .264.118.264.264v11.642a.264.264 0 0 1-.264.265H.794a.264.264 0 0 1-.265-.265V2.645c0-.146.118-.264.265-.264" style="paint-order:stroke markers fill"/><rect width="1.058" height=".529" x="1.587" y="2.645" opacity=".35" ry=".265" style="paint-order:stroke markers fill"/><rect width="2.646" height=".529" x="7.144" y="2.645" opacity=".35" ry=".265" style="paint-order:stroke markers fill"/><rect width=".529" height=".529" x="15.081" y="2.645" opacity=".35" ry=".265" style="paint-order:stroke markers fill"/><rect width=".794" height=".529" x="14.023" y="2.645" opacity=".35" ry=".265" style="paint-order:stroke markers fill"/><rect width=".529" height=".529" x="13.229" y="2.645" opacity=".35" ry=".265" style="paint-order:stroke markers fill"/><g fill="#fff"><path d="M15.002 50.998c-1.108 0-2 .892-2 2V55h38v-2.002c0-1.108-.892-2-2-2z" opacity=".35" style="paint-order:stroke markers fill" transform="scale(.26458)"/><rect width="1.323" height="1.323" x="4.498" y="12.7" ry=".132" style="paint-order:stroke markers fill"/><rect width="1.323" height="1.323" x="6.703" y="12.7" ry=".132" style="paint-order:stroke markers fill"/><rect width="1.323" height="1.323" x="8.908" y="12.7" ry=".132" style="paint-order:stroke markers fill"/><rect width="1.323" height="1.323" x="11.113" y="12.7" ry=".132" style="paint-order:stroke markers fill"/></g><path d="M.794 2.381a.264.264 0 0 0-.265.265v.793h15.875v-.793a.264.264 0 0 0-.264-.265z" opacity=".35" style="paint-order:stroke markers fill"/></svg>