<svg xmlns="http://www.w3.org/2000/svg" width="64" height="64" viewBox="0 0 16.933 16.933"><path fill="#f63f33" stroke="#991007" stroke-width=".529" d="M8.467 1.323a7.144 7.144 0 1 1 0 14.287 7.144 7.144 0 0 1 0-14.287z" opacity=".75"/><path fill="#f63f33" d="M8.467 1.323a7.144 7.144 0 1 1 0 14.287 7.144 7.144 0 0 1 0-14.287"/><path fill="#fff" d="M8.467 4.233a4.233 4.233 0 1 0 0 8.467 4.233 4.233 0 0 0 0-8.467m1.509 1.18a.564.564 0 0 1 .42.843.565.565 0 1 1-.42-.843m-1.51.598q.343.001.657.089a.793.793 0 0 0 1.063.616c.418.411.69.97.73 1.593l-.805.011a1.65 1.65 0 0 0-2.34-1.35l-.393-.705a2.45 2.45 0 0 1 1.089-.254zm-1.362.412.414.693a1.65 1.65 0 0 0 0 2.701l-.414.692A2.46 2.46 0 0 1 6.09 9.082a.79.79 0 0 0 0-1.231 2.46 2.46 0 0 1 1.014-1.428M5.588 7.901a.565.565 0 1 1 0 1.131.565.565 0 0 1 0-1.13zm4.523.711.805.013a2.45 2.45 0 0 1-.73 1.592.79.79 0 0 0-1.063.615 2.45 2.45 0 0 1-1.745-.164l.393-.704a1.65 1.65 0 0 0 2.34-1.352m-.275 1.786a.566.566 0 1 1 .138 1.124.566.566 0 0 1-.138-1.124"/></svg>