<svg xmlns="http://www.w3.org/2000/svg" xmlns:xlink="http://www.w3.org/1999/xlink" width="64" height="64" viewBox="0 0 16.933 16.933"><defs><linearGradient id="a" x1="1" x2="47" gradientTransform="rotate(-90 24 24.13)scale(1.13043)" gradientUnits="userSpaceOnUse"><stop stop-color="#31af54"/><stop offset="1" stop-color="#35bf5c"/></linearGradient><linearGradient xlink:href="#a" id="c" x1="1" x2="47" gradientTransform="rotate(-90 24 25.174)scale(1.17391)" gradientUnits="userSpaceOnUse"/><linearGradient xlink:href="#a" id="b" x1="1" x2="47" gradientTransform="rotate(-90 24 25.174)scale(1.17391)" gradientUnits="userSpaceOnUse"/></defs><path fill="url(#b)" stroke="#1c6631" stroke-width="2" d="M27-6C41.912-6 54 6.088 54 21S41.912 48 27 48 0 35.912 0 21 12.088-6 27-6z" opacity=".75" transform="translate(1.323 2.91)scale(.26458)"/><path fill="url(#c)" d="M27-6C41.912-6 54 6.088 54 21S41.912 48 27 48 0 35.912 0 21 12.088-6 27-6" transform="translate(1.323 2.91)scale(.26458)"/><path fill="#fff" fill-rule="evenodd" d="M5.292 4.233v2.513h.001l-.001 1.022h1.764V6.709h2.469V4.24H5.292m4.586-.005V12.7h1.764V4.235M7.408 7.057V12.7h2.117V7.057M5.293 8.115V12.7h1.764V8.115m-1.764 0"/></svg>