<svg xmlns="http://www.w3.org/2000/svg" width="64" height="64"><path fill="#557edb" fill-rule="evenodd" stroke="#375db5" stroke-width="2" d="M59 32c0 14.912-12.089 27-27 27C17.088 59 5 46.911 5 32 5 17.088 17.089 5 32 5c14.912 0 27 12.089 27 27"/><path fill="#557edb" fill-rule="evenodd" d="M59 32c0 14.912-12.089 27-27 27C17.088 59 5 46.911 5 32 5 17.088 17.089 5 32 5c14.912 0 27 12.089 27 27"/><path fill="#fff" d="M13.962 45.455c0-.12 17.289-33.006 17.868-33.99l.4-.68.438.768c.24.422 2.003 3.777 3.917 7.456a11688 11688 0 0 0 8.576 16.437c3.933 7.523 5.042 9.782 4.858 9.898-.13.083-1.705.152-3.5.154l-3.262.002-.962-.975c-2.414-2.448-6.633-4.549-11.347-5.85l-2.112-.584 2.64-.132c2.48-.125 5.337-.04 6.867.204.511.081.672.048.672-.14 0-.464-6.53-12.413-6.784-12.413-.186 0-1.492 2.278-6.564 11.441a2538 2538 0 0 1-4.561 8.222c-.075.091-7.144.27-7.144.182"/></svg>