<svg xmlns="http://www.w3.org/2000/svg" width="64" height="64" viewBox="0 0 16.933 16.933"><g transform="translate(0 -280.07)"><circle cx="8.466" cy="288.54" r="7.144" fill="#4d4d4d" stroke="#2e2e2e" stroke-width=".529" style="paint-order:stroke markers fill"/><circle cx="8.466" cy="288.54" r="7.144" fill="#4d4d4d" style="paint-order:stroke markers fill"/><path fill="#fff" fill-rule="evenodd" d="M8.466 283.84c-.377.924-.604 1.529-1.024 2.425.257.273.573.59 1.086.95-.552-.228-.928-.455-1.209-.692-.537 1.12-1.378 2.717-3.086 5.785 1.342-.775 2.383-1.252 3.352-1.435a2.5 2.5 0 0 1-.063-.574l.001-.043c.021-.86.469-1.521.999-1.476s.941.778.92 1.638a2.4 2.4 0 0 1-.054.462c.959.188 1.988.664 3.312 1.428-.261-.48-.494-.913-.717-1.326-.35-.272-.716-.625-1.461-1.008.512.133.88.287 1.165.459-2.262-4.212-2.445-4.772-3.221-6.593"/></g></svg>