<svg xmlns="http://www.w3.org/2000/svg" width="64" height="64" viewBox="0 0 16.933 16.933"><defs><clipPath id="a"/></defs><path fill="#f2f2f2" stroke="#000" stroke-width=".529" d="M8.467 1.323a7.144 7.144 0 1 1 0 14.287 7.144 7.144 0 0 1 0-14.287z" opacity=".25"/><path fill="#f2f2f2" d="M8.467 1.323a7.144 7.144 0 1 1 0 14.287 7.144 7.144 0 0 1 0-14.287"/><g stroke-width="1.291" clip-path="url(#a)" transform="translate(-.679 -.215)scale(.3707)"><path d="M33.04 27.34c-.316 1.219-1.91 3.762-2.762 4.883-.848 1.125-.746 2.137-2.313 1.742-1.563-.391-2-.32-3.621-.234-1.602.09-1.258-.043-2.262.383-1 .422-4.363-5.16-4.637-6.203-.266-1.039-.395-.914.305-2.035.691-1.125.797-2.238 1.715-3.598.918-1.367 1.984-2.063 1.906-3.105-.305-3.871-.539-5.809 1.293-6.703 1.742-.852 3.203-.344 3.777-.055.25.125.758.371 1.133.797.375.418.715 1.047.906 1.844.391 1.598-.164 1.07.281 2.902.438 1.828 1.328 2.727 2.414 4.172 1.09 1.445 2.223 3.832 1.863 5.211m0 0"/><path fill="#f9f9f9" d="M22.695 17.859c.285-.105.238-.121.43-.512.152-.301.285-.43.281-.887 0-.445-.148-.598-.371-.891-.215-.277-.555-.293-.773-.258-.125.02-.285.168-.395.387a1.3 1.3 0 0 0-.137.531c-.012.531.031.73.164 1.09.152.422.523.641.801.539m0 0"/><path d="M22.43 16.03c.141 0 .32.086.41.207a.8.8 0 0 1 .156.488c0 .285-.031.602-.215.699a1 1 0 0 1-.254.059c-.16 0-.176-.102-.328-.25-.055-.051-.211-.313-.211-.527 0-.133-.031-.324.094-.496a.39.39 0 0 1 .348-.184m0 .004"/><path fill="#f9f9f9" d="M25.652 17.895c.719-.07.969-.332 1.098-.785.113-.402.117-.848-.199-1.375-.301-.5-.473-.578-.906-.613-.668-.051-.984.387-1.133.699-.156.34-.125.293-.113.723.012.453.281.578.445.863.168.273.727.496.805.492m.004-.004"/><path d="M25.594 16.01c.359 0 .566.301.637.684a.68.68 0 0 1-.125.516.73.73 0 0 1-.543.258c-.18 0-.375.027-.484-.105-.105-.141-.125-.445-.125-.668 0-.246.078-.422.207-.559.102-.102.281-.125.434-.125m0 0"/><path fill="#676767" d="M25.672 16.223c.039-.035.121 0 .207.09.098.102.102.18.023.234-.07.059-.105-.086-.152-.137-.086-.082-.156-.121-.082-.188m-3.203.118c.043-.063.207-.035.27.09.059.125.051.398.008.41-.109.035-.074-.117-.172-.25-.094-.129-.148-.188-.105-.25m1.409.105c.086-.023.168-.02.313.055.129.07.07.152-.07.121-.133-.027-.105-.023-.207-.043-.172-.027-.199-.094-.035-.133m0 0"/><path fill="#f9f9f9" d="M23.461 19.977c-.621.023-1.602-1.609-1.629-.93-.016.574.016.563.016 1.117 0 .371-.18.402-.57.961a4.2 4.2 0 0 0-.48.938 6 6 0 0 0-.207.59c-.023.098-.066.203-.094.301-.191.676-.891 1.512-1.051 2.188-.164.672-.355 1.102-.328 2 .023.902.031.641.32.867.289.223.582.434 1.035.809.48.398 1.469 1.07 1.602 1.285.141.215.141.695.055.852-.086.152-.832.238-.832.238s.652.855.785.973c.125.117.66.684 2.832.301 1.227-.223 2.172-.863 2.859-1.48.887-.816.438-1.047.551-1.453.168-.59.711-.809.832-1.473.016-.094.047-.164.141-.313.137-.188.105-.586.105-.938 0-.938-.113-1.879-.344-2.578-.211-.656-.543-1.113-.828-1.703-.57-1.176-.543-1.707-1.055-2.457-.578-.867-.293-1.445-1.066-1.41-.961.051-1.738 1.289-2.648 1.324m0 0"/><path fill="#ffcf33" d="M23.789 16.906c.348-.039.828.039 1.047.191.203.141.348.219.535.273.621.191 1.445.285 1.406.813-.043.633-.238.914-.797 1.082-.449.129-1.25.859-1.867.859-.277 0-.664.016-.887-.063-.215-.07-.516-.41-.867-.684-.355-.273-.68-.566-.691-.941-.016-.395.262-.527.652-.848.203-.168.578-.453.832-.574.238-.113.391-.09.637-.117m0 0"/><path fill="#995900" d="M22.988 17.371c-.02.047.129.145.207.078.082-.066.176-.125.207-.145.145-.09.094-.156-.152-.117-.238.039-.238.133-.266.184m.004 0"/><path fill="#ffcf33" d="M32.969 28.332c.297.402-.008.93.207 1.25.355.527 1.063 1.063 1.336 1.211.195.113.473.219.461.543-.016.375-.211.473-.32.574-.219.207-1.324.723-2.059 1.191-.922.594-1.242.859-1.543 1.141-.469.441-.91.59-1.621.59-.707 0-1.031-.141-1.246-.324-.219-.18-.465-.637-.441-1.316.02-.68.25-1.293.359-2.348.047-.453.043-1.012.043-1.508 0-.629.012-1.16.152-1.242.258-.152.316-.16.621-.16s.441.016.543.113c.094.086.055.293.023.586-.027.293.121.387.266.508.148.117.281.266.746.301.469.031.641-.039.859-.172.219-.129.527-.359.645-.496.109-.129.383-.574.434-.574.043 0 .359-.105.535.137m-16.629.683c-.426.289-1.516.266-1.793.605-.27.34.012.832.004 1.746 0 .391-.07.684-.117.922-.07.301-.113.512.023.727.246.379.633.477 2.871.914 1.195.234 2.328.836 3.082.898.758.051.922-.188 1.383-.57.457-.387.605-.27.59-1.113-.016-.844-.59-1.094-1.242-2.066-.652-.973-.758-1.152-1.191-1.797-.434-.637-1.293-1.793-1.781-1.805-.391-.008-.609.188-.855.422s-.543.828-.973 1.117m0 0"/><path fill="#676767" d="M29.03 22.656c-.082-.004-.117.023-.094.094 0 0 .656.359 1.25 1.031.016.035.664.906.531 2.063-.023.02-.066.512-.125.719-.156.492-.355.777-.191.813.148.035.543-.953.531-1.344.141-.367.137-1.301-.219-1.906-.121-.219-.238-.484-.316-.5-.508-.652-1.133-.965-1.375-.969m.004 0"/><path fill="#676767" d="M29.465 27.973c.102.094.188-.141.289-.219.098-.074.262-.238.582-.238.324 0 .305-.012.289-.125-.012-.113-.105-.105-.391-.066a.94.94 0 0 0-.59.305c-.109.117-.234.289-.18.344m1.294-.591c0 .141.305.191.605.234.289.039.523.094.539.379.012.281-.063.484.07.461.285-.051.387-.34.387-.477 0-.133-.211-.375-.586-.508a2.1 2.1 0 0 0-.719-.152c-.328-.016-.297.063-.297.063m0 0"/><path fill="#995900" d="M21.988 18.797c.133.086.137.098.328.219.309.234.852.289 1.117.297.613.09 1.707-.449 2.137-.691.219-.152.621-.473.773-.477.094.094-.043.109-.238.234a8 8 0 0 1-.871.531c-.418.207-1.063.547-1.887.5-.434-.059-.438-.063-.703-.191-.16-.105-.523-.285-.656-.422m2.703-1.402c.02.051-.129.145-.207.082a1.4 1.4 0 0 0-.211-.145c-.145-.094-.09-.156.152-.117s.242.129.266.18m0 0"/></g><g stroke-width=".478"><path d="M11.569 9.92c-.117.452-.708 1.395-1.024 1.81-.314.417-.276.792-.857.646-.58-.145-.742-.119-1.343-.087-.593.033-.466-.016-.838.142-.37.157-1.617-1.913-1.719-2.3-.099-.384-.146-.338.113-.754.256-.417.296-.83.636-1.333.34-.507.735-.765.706-1.151-.113-1.435-.2-2.154.48-2.485a1.57 1.57 0 0 1 1.4-.02c.092.046.28.137.42.295.139.155.265.388.336.684.145.592-.061.396.104 1.075.162.678.492 1.011.895 1.547.404.535.824 1.42.69 1.931"/><path fill="#f9f9f9" d="M7.734 6.405c.106-.038.088-.044.16-.19.056-.11.105-.159.104-.328 0-.165-.055-.222-.138-.33-.08-.103-.206-.109-.286-.096-.047.007-.106.062-.147.143a.5.5 0 0 0-.05.197.9.9 0 0 0 .06.404c.057.157.194.238.297.2"/><path d="M7.636 5.728c.052 0 .119.031.152.076a.3.3 0 0 1 .058.181c0 .106-.012.223-.08.26a.3.3 0 0 1-.094.021c-.06 0-.065-.038-.122-.093a.35.35 0 0 1-.078-.195c0-.05-.011-.12.035-.184a.14.14 0 0 1 .129-.068"/><path fill="#f9f9f9" d="M8.83 6.419c.267-.026.36-.123.407-.291a.61.61 0 0 0-.074-.51c-.111-.185-.175-.214-.335-.227-.248-.019-.365.143-.42.259-.058.126-.047.109-.042.268.004.168.104.214.165.32.062.101.27.184.298.182"/><path d="M8.809 5.72c.133 0 .21.112.236.254a.25.25 0 0 1-.047.19.27.27 0 0 1-.2.096c-.068 0-.14.01-.18-.038-.04-.053-.047-.165-.047-.248 0-.091.03-.157.077-.207.038-.038.104-.047.161-.047"/></g><path fill="#676767" stroke-width=".478" d="M8.838 5.799c.014-.013.044 0 .076.033q.054.057.009.087c-.026.022-.04-.032-.056-.05-.032-.031-.058-.046-.03-.07m-1.188.043c.016-.023.077-.013.1.034.022.046.019.147.003.152-.04.013-.028-.044-.064-.093-.035-.048-.055-.07-.039-.093m.522.039c.032-.008.063-.007.117.02.047.027.025.057-.026.046l-.077-.016c-.064-.01-.074-.035-.013-.05"/><g stroke-width=".478"><path fill="#f9f9f9" d="M8.018 7.19c-.23.01-.594-.596-.604-.344-.006.213.006.209.006.414 0 .137-.067.149-.211.356a1.6 1.6 0 0 0-.178.348q-.044.106-.077.219c-.008.036-.024.075-.035.111-.07.25-.33.56-.39.811-.06.25-.13.409-.12.742.008.334.01.237.118.321.107.083.215.16.383.3.178.147.545.397.594.476a.42.42 0 0 1 .02.316c-.031.056-.308.088-.308.088s.242.317.291.36c.047.044.245.254 1.05.113.455-.083.805-.32 1.06-.55.329-.302.162-.387.204-.538.062-.218.264-.3.308-.546a.3.3 0 0 1 .053-.116c.05-.07.039-.217.039-.347 0-.348-.042-.697-.128-.956-.078-.243-.201-.413-.307-.631-.211-.436-.201-.633-.39-.911-.215-.322-.11-.536-.396-.523-.356.02-.644.478-.982.49"/><path fill="#ffcf33" d="M8.14 6.052c.129-.014.307.015.388.071a.6.6 0 0 0 .198.101c.23.071.536.106.521.302-.016.234-.088.338-.295.4-.167.048-.464.32-.692.32-.103 0-.246.005-.33-.024-.079-.026-.19-.152-.32-.254-.132-.101-.253-.21-.257-.349-.006-.146.097-.195.242-.314a2 2 0 0 1 .308-.213c.089-.042.145-.033.237-.043"/><path fill="#995900" d="M7.843 6.225c-.008.017.048.053.076.029.03-.025.066-.047.077-.054.054-.034.035-.058-.056-.044-.088.015-.088.05-.099.069"/><path fill="#ffcf33" d="M11.543 10.288c.11.149-.003.345.077.463.131.196.394.394.495.45.072.041.175.08.17.2-.005.14-.077.176-.118.213-.08.077-.49.268-.763.442-.342.22-.46.318-.572.423-.174.163-.337.218-.6.218s-.383-.052-.463-.12c-.08-.066-.172-.236-.163-.487.007-.253.092-.48.133-.87.017-.169.016-.376.016-.56 0-.233.004-.43.056-.46.096-.057.117-.06.23-.06s.164.006.202.042c.034.032.02.109.008.218-.01.108.045.143.099.188.055.043.104.098.276.111.174.012.238-.014.319-.063.08-.048.195-.133.239-.184.04-.048.142-.213.16-.213.017 0 .134-.039.199.05m-6.165.254c-.158.107-.562.099-.664.224-.1.126.004.309.001.647 0 .145-.026.254-.043.342-.026.112-.042.19.008.27.092.14.235.177 1.065.339.443.086.863.31 1.142.332.281.02.342-.07.513-.21.17-.144.224-.1.219-.413s-.22-.406-.46-.766c-.243-.361-.282-.427-.442-.666-.161-.237-.48-.665-.66-.67-.145-.002-.226.07-.317.157-.092.087-.202.307-.361.414"/></g><g fill="#676767" stroke-width=".478"><path d="M10.082 8.184q-.046-.004-.035.035s.243.133.464.382c.005.013.246.336.196.764-.008.008-.024.19-.046.267-.058.182-.132.288-.07.301.054.013.2-.353.196-.498.052-.136.05-.482-.081-.706-.045-.082-.088-.18-.117-.186-.189-.241-.42-.357-.51-.359"/><path d="M10.244 10.155c.038.035.07-.052.107-.081.036-.028.097-.088.216-.088.12 0 .113-.005.107-.047-.004-.042-.039-.039-.145-.024a.35.35 0 0 0-.219.113c-.04.043-.086.107-.066.127m.479-.219c0 .052.113.07.224.087.107.014.194.034.2.14.004.104-.023.18.026.171.106-.019.143-.126.143-.177s-.078-.139-.217-.188a.8.8 0 0 0-.266-.056c-.122-.006-.11.023-.11.023"/></g><path fill="#995900" d="M7.472 6.753c.05.032.05.037.122.081.114.087.315.108.414.11.227.034.632-.166.792-.256.081-.056.23-.175.286-.176.035.034-.016.04-.088.086-.096.065-.177.12-.323.197-.155.077-.394.203-.7.185-.16-.021-.162-.023-.26-.07-.06-.04-.194-.106-.243-.157m1.002-.519c.007.018-.048.053-.077.03a1 1 0 0 0-.078-.054c-.054-.035-.033-.058.056-.043s.09.048.099.067"/></svg>