<svg xmlns="http://www.w3.org/2000/svg" width="64" height="64" viewBox="0 0 16.933 16.933"><defs><clipPath id="a"/></defs><path fill="#364b7b" stroke="#1b2949" stroke-width=".529" d="M8.467 1.323a7.144 7.144 0 1 1 0 14.287 7.144 7.144 0 0 1 0-14.287z" opacity=".9"/><path fill="#364b7b" d="M8.467 1.323a7.144 7.144 0 1 1 0 14.287 7.144 7.144 0 0 1 0-14.287"/><g fill="#fff" stroke-width=".857" clip-path="url(#a)" transform="translate(.904 1.058)scale(.30868)"><path fill-rule="evenodd" d="M31.598 21.715a2.99 2.99 0 0 0-.047 4.332c1.227 1.211 3.238 1.234 4.492.055a2.984 2.984 0 0 0 .051-4.332 3.17 3.17 0 0 0-1.453-.82 3.25 3.25 0 0 0-3.043.766m-9.618 9.901a2.495 2.495 0 0 0-.043 3.614c1.023 1.012 2.703 1.027 3.75.043a2.49 2.49 0 0 0 .043-3.613c-.348-.34-.77-.57-1.215-.684a2.71 2.71 0 0 0-2.535.641m5.008-14.888a2.685 2.685 0 0 0-.043 3.886 2.927 2.927 0 0 0 4.03.047 2.68 2.68 0 0 0 .043-3.887 2.87 2.87 0 0 0-1.305-.734 2.92 2.92 0 0 0-2.73.688M16.832 27.16a2.267 2.267 0 0 0-.039 3.293 2.48 2.48 0 0 0 3.418.039 2.273 2.273 0 0 0 .039-3.293 2.4 2.4 0 0 0-1.105-.621 2.46 2.46 0 0 0-2.313.582m5.02-14.433a2.49 2.49 0 0 0-.043 3.614 2.72 2.72 0 0 0 3.75.043 2.487 2.487 0 0 0 .039-3.613 2.72 2.72 0 0 0-3.746-.043m-9.153 9.512a2.19 2.19 0 0 0-.035 3.172c.898.898 2.375.906 3.293.043a2.19 2.19 0 0 0 .035-3.176 2.35 2.35 0 0 0-1.063-.602 2.39 2.39 0 0 0-2.23.563m14.176 4.94a2.65 2.65 0 0 0-.047 3.844 2.9 2.9 0 0 0 3.992.051 2.654 2.654 0 0 0 .043-3.848 2.84 2.84 0 0 0-1.289-.727 2.88 2.88 0 0 0-2.699.68m-4.98-5.14a2.59 2.59 0 0 0-.754 2.531c.113.453.348.879.711 1.238a2.84 2.84 0 0 0 3.91.047 2.6 2.6 0 0 0 .043-3.77 2.836 2.836 0 0 0-3.911-.047m-5.003-4.832a2.3 2.3 0 0 0-.668 2.246c.102.398.313.777.633 1.094a2.516 2.516 0 0 0 3.465.043 2.306 2.306 0 0 0 .039-3.344 2.513 2.513 0 0 0-3.469-.039m0 0"/></g><g fill="#fbfdfc" fill-rule="evenodd"><circle cx="8.466" cy="5.556" r=".794" style="paint-order:fill markers stroke"/><circle cx="8.466" cy="8.466" r=".794" style="paint-order:fill markers stroke"/><circle cx="8.466" cy="11.377" r=".794" style="paint-order:fill markers stroke"/><circle cx="5.292" cy="8.466" r=".794" style="paint-order:fill markers stroke"/><circle cx="11.641" cy="8.466" r=".794" style="paint-order:fill markers stroke"/><circle cx="6.879" cy="7.006" r=".794" style="paint-order:fill markers stroke"/><circle cx="6.879" cy="9.912" r=".794" style="paint-order:fill markers stroke"/><circle cx="10.054" cy="7.006" r=".794" style="paint-order:fill markers stroke"/><circle cx="10.054" cy="9.912" r=".794" style="paint-order:fill markers stroke"/></g></svg>