<?xml version="1.0" encoding="UTF-8" standalone="no"?>
<!-- Created with Inkscape (http://www.inkscape.org/) -->

<svg
   xmlns:dc="http://purl.org/dc/elements/1.1/"
   xmlns:cc="http://creativecommons.org/ns#"
   xmlns:rdf="http://www.w3.org/1999/02/22-rdf-syntax-ns#"
   xmlns:svg="http://www.w3.org/2000/svg"
   xmlns="http://www.w3.org/2000/svg"
   xmlns:sodipodi="http://sodipodi.sourceforge.net/DTD/sodipodi-0.dtd"
   xmlns:inkscape="http://www.inkscape.org/namespaces/inkscape"
   width="64"
   height="64"
   viewBox="0 0 16.933333 16.933333"
   version="1.1"
   id="svg4572"
   inkscape:version="0.92.4 (5da689c313, 2019-01-14)"
   sodipodi:docname="distributor-logo-ubuntu-mate.svg">
  <title
     id="title4611">Canvas icon theme</title>
  <defs
     id="defs4566" />
  <sodipodi:namedview
     id="base"
     pagecolor="#ffffff"
     bordercolor="#666666"
     borderopacity="1.0"
     inkscape:pageopacity="0.0"
     inkscape:pageshadow="2"
     inkscape:zoom="7.9195959"
     inkscape:cx="10.304844"
     inkscape:cy="23.487183"
     inkscape:document-units="px"
     inkscape:current-layer="layer1"
     showgrid="true"
     units="px"
     width="64px"
     showguides="true"
     inkscape:guide-bbox="true"
     inkscape:window-width="1366"
     inkscape:window-height="706"
     inkscape:window-x="0"
     inkscape:window-y="32"
     inkscape:window-maximized="1"
     inkscape:snap-bbox="true"
     inkscape:bbox-nodes="true"
     inkscape:snap-bbox-edge-midpoints="true">
    <inkscape:grid
       type="xygrid"
       id="grid4582" />
    <sodipodi:guide
       position="1.0583333,15.875"
       orientation="0,1"
       id="guide4584"
       inkscape:locked="false" />
    <sodipodi:guide
       position="1.0583333,1.0583333"
       orientation="1,0"
       id="guide4586"
       inkscape:locked="false" />
    <sodipodi:guide
       position="15.875,15.875"
       orientation="1,0"
       id="guide4588"
       inkscape:locked="false" />
    <sodipodi:guide
       position="1.0583333,1.0583333"
       orientation="0,1"
       id="guide4590"
       inkscape:locked="false" />
    <sodipodi:guide
       position="8.4666665,15.345833"
       orientation="1,0"
       id="guide826"
       inkscape:locked="false" />
    <sodipodi:guide
       position="1.5875,8.4666665"
       orientation="0,1"
       id="guide828"
       inkscape:locked="false" />
  </sodipodi:namedview>
  <metadata
     id="metadata4569">
    <rdf:RDF>
      <cc:Work
         rdf:about="">
        <dc:format>image/svg+xml</dc:format>
        <dc:type
           rdf:resource="http://purl.org/dc/dcmitype/StillImage" />
        <dc:title>Canvas icon theme</dc:title>
        <cc:license
           rdf:resource="http://creativecommons.org/licenses/by-nc-sa/4.0/" />
        <dc:creator>
          <cc:Agent>
            <dc:title>Vince Liuice</dc:title>
          </cc:Agent>
        </dc:creator>
      </cc:Work>
      <cc:License
         rdf:about="http://creativecommons.org/licenses/by-nc-sa/4.0/">
        <cc:permits
           rdf:resource="http://creativecommons.org/ns#Reproduction" />
        <cc:permits
           rdf:resource="http://creativecommons.org/ns#Distribution" />
        <cc:requires
           rdf:resource="http://creativecommons.org/ns#Notice" />
        <cc:requires
           rdf:resource="http://creativecommons.org/ns#Attribution" />
        <cc:prohibits
           rdf:resource="http://creativecommons.org/ns#CommercialUse" />
        <cc:permits
           rdf:resource="http://creativecommons.org/ns#DerivativeWorks" />
        <cc:requires
           rdf:resource="http://creativecommons.org/ns#ShareAlike" />
      </cc:License>
    </rdf:RDF>
  </metadata>
  <g
     inkscape:label="Layer 1"
     inkscape:groupmode="layer"
     id="layer1"
     transform="translate(0,-280.06667)">
    <g
       style="fill:#78b75b;fill-opacity:1;stroke:#4a5e2a;stroke-opacity:1;stroke-width:1.99999999;stroke-miterlimit:4;stroke-dasharray:none;opacity:0.75"
       id="g838"
       transform="matrix(0.26458333,0,0,0.26458333,1.3229166,282.97709)">
      <path
         id="path836"
         style="fill:#87a556;fill-opacity:1;stroke:#4a5e2a;stroke-width:2;stroke-miterlimit:4;stroke-dasharray:none;stroke-opacity:1"
         d="m 27,-6.000012 c 14.912217,0 26.999999,12.087782 26.999999,26.999999 C 53.999999,35.912203 41.912217,47.999986 27,47.999986 12.087783,47.999986 9.4720473e-7,35.912203 9.4720473e-7,20.999987 9.4720473e-7,6.08777 12.087783,-6.000012 27,-6.000012 Z"
         inkscape:connector-curvature="0" />
    </g>
    <g
       transform="matrix(0.26458333,0,0,0.26458333,0,284.3)"
       id="g15" />
    <g
       transform="matrix(0.26458333,0,0,0.26458333,1.3229166,282.97709)"
       id="g19"
       style="fill:#78b75b;fill-opacity:1">
      <path
         inkscape:connector-curvature="0"
         d="m 27,-6.000012 c 14.912217,0 26.999999,12.087782 26.999999,26.999999 C 53.999999,35.912203 41.912217,47.999986 27,47.999986 12.087783,47.999986 9.4720473e-7,35.912203 9.4720473e-7,20.999987 9.4720473e-7,6.08777 12.087783,-6.000012 27,-6.000012 Z"
         style="fill:#87a556;fill-opacity:1;stroke-width:1.13043463"
         id="path17" />
    </g>
    <g
       transform="matrix(0.26458333,0,0,0.26458333,0,284.3)"
       id="g31">
      <g
         id="g29">
        <g
           transform="translate(1,1)"
           id="g27">
          <g
             style="opacity:0.1"
             id="g25">
            <!-- color: #35bf5c -->
            <g
               id="g23" />
          </g>
        </g>
      </g>
    </g>
    <g
       transform="matrix(0.26458333,0,0,0.26458333,0,284.3)"
       id="g43" />
    <g
       transform="matrix(0.20497516,0,0,0.20497516,2.2016536,284.74474)"
       id="g33"
       style="stroke-width:1.29080677" />
    <path
       style="fill:#ffffff;stroke-width:0.26458332"
       d="m 9.5249992,284.3 v 2.54 l 2.1166658,-1.27 z m -0.846666,0.42334 A 3.8099974,3.8099974 0 0 0 5.11969,287.17487 l 0.3720693,0.22324 a 3.3866644,3.3866644 0 0 1 3.1865739,-2.25144 3.3866644,3.3866644 0 0 1 0.4233326,0.0298 v -0.42498 a 3.8099974,3.8099974 0 0 0 -0.4233326,-0.0281 z m 0,1.27 a 2.5399983,2.5399983 0 0 0 -2.4440872,1.85043 l 0.3803382,0.22737 a 2.1166653,2.1166653 0 0 1 2.063749,-1.65447 2.1166653,2.1166653 0 0 1 0.4233326,0.043 v -0.42994 a 2.5399983,2.5399983 0 0 0 -0.4233326,-0.0364 z m 2.9211648,0.0951 -0.371243,0.22324 a 3.3866644,3.3866644 0 0 1 0.836743,2.22167 3.3866644,3.3866644 0 0 1 -0.834263,2.22332 l 0.366282,0.21994 a 3.8099974,3.8099974 0 0 0 0.891314,-2.44326 3.8099974,3.8099974 0 0 0 -0.888833,-2.44491 z m -1.110423,0.66641 -0.376205,0.22572 a 2.1166653,2.1166653 0 0 1 0.682129,1.55278 2.1166653,2.1166653 0 0 1 -0.681302,1.55277 l 0.376204,0.22655 a 2.5399983,2.5399983 0 0 0 0.728431,-1.77932 2.5399983,2.5399983 0 0 0 -0.729257,-1.7785 z m -6.0440726,0.5085 v 2.54 l 2.1166658,-1.27 z m 2.170409,1.73136 -0.3795118,0.22738 a 2.5399983,2.5399983 0 0 0 2.4424336,1.85126 2.5399983,2.5399983 0 0 0 0.4233326,-0.038 v -0.42996 a 2.1166653,2.1166653 0 0 1 -0.4233326,0.0446 2.1166653,2.1166653 0 0 1 -2.0629218,-1.65529 z m -1.1244785,0.67469 -0.3679357,0.22076 a 3.8099974,3.8099974 0 0 0 3.555336,2.45318 3.8099974,3.8099974 0 0 0 0.4233326,-0.0256 v -0.42829 a 3.3866644,3.3866644 0 0 1 -0.4233326,0.0306 3.3866644,3.3866644 0 0 1 -3.1874003,-2.25061 z m 4.0340663,0.55728 v 2.54 l 2.1166658,-1.27 z"
       id="path8"
       inkscape:connector-curvature="0" />
  </g>
</svg>
