<?xml version="1.0" encoding="UTF-8" standalone="no"?>
<!-- Created with Inkscape (http://www.inkscape.org/) -->

<svg
   xmlns:dc="http://purl.org/dc/elements/1.1/"
   xmlns:cc="http://creativecommons.org/ns#"
   xmlns:rdf="http://www.w3.org/1999/02/22-rdf-syntax-ns#"
   xmlns:svg="http://www.w3.org/2000/svg"
   xmlns="http://www.w3.org/2000/svg"
   xmlns:sodipodi="http://sodipodi.sourceforge.net/DTD/sodipodi-0.dtd"
   xmlns:inkscape="http://www.inkscape.org/namespaces/inkscape"
   width="64"
   height="64"
   viewBox="0 0 16.933333 16.933333"
   version="1.1"
   id="svg4572"
   inkscape:version="0.92.4 (5da689c313, 2019-01-14)"
   sodipodi:docname="distributor-logo-korora.svg">
  <title
     id="title4611">Canvas icon theme</title>
  <defs
     id="defs4566" />
  <sodipodi:namedview
     id="base"
     pagecolor="#ffffff"
     bordercolor="#666666"
     borderopacity="1.0"
     inkscape:pageopacity="0.0"
     inkscape:pageshadow="2"
     inkscape:zoom="22.4"
     inkscape:cx="21.331573"
     inkscape:cy="9.9237132"
     inkscape:document-units="px"
     inkscape:current-layer="layer1"
     showgrid="true"
     units="px"
     width="64px"
     showguides="true"
     inkscape:guide-bbox="true"
     inkscape:window-width="1366"
     inkscape:window-height="706"
     inkscape:window-x="0"
     inkscape:window-y="32"
     inkscape:window-maximized="1"
     inkscape:snap-bbox="true"
     inkscape:bbox-nodes="true"
     inkscape:snap-bbox-edge-midpoints="true">
    <inkscape:grid
       type="xygrid"
       id="grid4582" />
    <sodipodi:guide
       position="1.0583333,15.875"
       orientation="0,1"
       id="guide4584"
       inkscape:locked="false" />
    <sodipodi:guide
       position="1.0583333,1.0583333"
       orientation="1,0"
       id="guide4586"
       inkscape:locked="false" />
    <sodipodi:guide
       position="15.875,15.875"
       orientation="1,0"
       id="guide4588"
       inkscape:locked="false" />
    <sodipodi:guide
       position="1.0583333,1.0583333"
       orientation="0,1"
       id="guide4590"
       inkscape:locked="false" />
    <sodipodi:guide
       position="8.4666665,15.345833"
       orientation="1,0"
       id="guide826"
       inkscape:locked="false" />
    <sodipodi:guide
       position="1.5875,8.4666665"
       orientation="0,1"
       id="guide828"
       inkscape:locked="false" />
  </sodipodi:namedview>
  <metadata
     id="metadata4569">
    <rdf:RDF>
      <cc:Work
         rdf:about="">
        <dc:format>image/svg+xml</dc:format>
        <dc:type
           rdf:resource="http://purl.org/dc/dcmitype/StillImage" />
        <dc:title>Canvas icon theme</dc:title>
        <cc:license
           rdf:resource="http://creativecommons.org/licenses/by-nc-sa/4.0/" />
        <dc:creator>
          <cc:Agent>
            <dc:title>Vince Liuice</dc:title>
          </cc:Agent>
        </dc:creator>
      </cc:Work>
      <cc:License
         rdf:about="http://creativecommons.org/licenses/by-nc-sa/4.0/">
        <cc:permits
           rdf:resource="http://creativecommons.org/ns#Reproduction" />
        <cc:permits
           rdf:resource="http://creativecommons.org/ns#Distribution" />
        <cc:requires
           rdf:resource="http://creativecommons.org/ns#Notice" />
        <cc:requires
           rdf:resource="http://creativecommons.org/ns#Attribution" />
        <cc:prohibits
           rdf:resource="http://creativecommons.org/ns#CommercialUse" />
        <cc:permits
           rdf:resource="http://creativecommons.org/ns#DerivativeWorks" />
        <cc:requires
           rdf:resource="http://creativecommons.org/ns#ShareAlike" />
      </cc:License>
    </rdf:RDF>
  </metadata>
  <g
     inkscape:label="Layer 1"
     inkscape:groupmode="layer"
     id="layer1"
     transform="translate(0,-280.06667)">
    <g
       style="fill:#4380b4;fill-opacity:1;stroke:#224666;stroke-opacity:1;stroke-width:1.99999999;stroke-miterlimit:4;stroke-dasharray:none;opacity:0.75"
       id="g837"
       transform="matrix(0.26458333,0,0,0.26458333,1.3229166,282.97709)">
      <path
         id="path835"
         style="fill:#4380b4;fill-opacity:1;stroke:#224666;stroke-width:2;stroke-miterlimit:4;stroke-dasharray:none;stroke-opacity:1"
         d="m 27,-6.000012 c 14.912217,0 26.999999,12.087782 26.999999,26.999999 C 53.999999,35.912203 41.912217,47.999986 27,47.999986 12.087783,47.999986 9.4720473e-7,35.912203 9.4720473e-7,20.999987 9.4720473e-7,6.08777 12.087783,-6.000012 27,-6.000012 Z"
         inkscape:connector-curvature="0" />
    </g>
    <g
       transform="matrix(0.26458333,0,0,0.26458333,0,284.3)"
       id="g15" />
    <g
       transform="matrix(0.26458333,0,0,0.26458333,1.3229166,282.97709)"
       id="g19"
       style="fill:#4380b4;fill-opacity:1">
      <path
         inkscape:connector-curvature="0"
         d="m 27,-6.000012 c 14.912217,0 26.999999,12.087782 26.999999,26.999999 C 53.999999,35.912203 41.912217,47.999986 27,47.999986 12.087783,47.999986 9.4720473e-7,35.912203 9.4720473e-7,20.999987 9.4720473e-7,6.08777 12.087783,-6.000012 27,-6.000012 Z"
         style="fill:#4380b4;fill-opacity:1;stroke-width:1.13043463"
         id="path17" />
    </g>
    <g
       transform="matrix(0.26458333,0,0,0.26458333,0,284.3)"
       id="g31">
      <g
         id="g29">
        <g
           transform="translate(1,1)"
           id="g27">
          <g
             style="opacity:0.1"
             id="g25">
            <!-- color: #35bf5c -->
            <g
               id="g23" />
          </g>
        </g>
      </g>
    </g>
    <g
       transform="matrix(0.26458333,0,0,0.26458333,0,284.3)"
       id="g43" />
    <path
       style="fill:#ffffff;fill-opacity:1;stroke:none;stroke-width:0.26458332"
       d="m 9.5955548,284.3 a 3.1044449,3.1044449 0 0 0 -3.0096343,2.35424 3.1044449,3.1044449 0 0 0 -2.3525874,3.00799 v 3.10444 H 7.337778 A 3.1044449,3.1044449 0 0 0 10.347412,290.41242 3.1044449,3.1044449 0 0 0 12.7,287.40445 V 284.3 Z m 0,0.44373 h 2.6607162 v 2.66072 a 2.6609543,2.6609543 0 0 1 -1.827278,2.52346 3.1044449,3.1044449 0 0 0 0.01323,-0.26568 3.1044449,3.1044449 0 0 0 -3.1044451,-3.10445 3.1044449,3.1044449 0 0 0 -0.2673397,0.0133 2.6609543,2.6609543 0 0 1 2.5251166,-1.82728 z m -2.2577768,2.25778 a 2.6609543,2.6609543 0 0 1 2.6607162,2.66072 2.6609543,2.6609543 0 0 1 -0.029766,0.37372 2.6609543,2.6609543 0 0 1 -0.3731735,0.0292 2.6609543,2.6609543 0 0 1 -2.6607162,-2.66072 2.6609543,2.6609543 0 0 1 0.029766,-0.37372 2.6609543,2.6609543 0 0 1 0.3731735,-0.0292 z m -0.8334379,0.13725 a 3.1044449,3.1044449 0 0 0 -0.013228,0.26569 3.1044449,3.1044449 0 0 0 3.1044448,3.10444 3.1044449,3.1044449 0 0 0 0.2673398,-0.0133 2.6609543,2.6609543 0 0 1 -2.5251167,1.82729 H 4.6770639 v -2.66072 a 2.6609543,2.6609543 0 0 1 1.8272782,-2.52347 z"
       id="rect4108"
       inkscape:connector-curvature="0" />
  </g>
</svg>
