<svg width="64" height="64" version="1.1" viewBox="0 0 16.933 16.933" xmlns="http://www.w3.org/2000/svg">
 <defs>
  <clipPath id="a"/>
  <clipPath id="b">
   <g transform="translate(0 -1004.4)">
    <path transform="matrix(15.333 0 0 11.5 415 878.86)" d="m-24 13c0 1.105-0.672 2-1.5 2s-1.5-0.895-1.5-2 0.672-2 1.5-2 1.5 0.895 1.5 2z" fill="#1890d0"/>
   </g>
  </clipPath>
 </defs>
 <path d="m8.467 1.323a7.144 7.144 0 1 1 0 14.287 7.144 7.144 0 0 1 0-14.287z" fill="#f2f2f2" opacity=".25" stroke="#000" stroke-width=".529"/>
 <path d="m8.467 1.323a7.144 7.144 0 1 1 0 14.287 7.144 7.144 0 0 1 0-14.287z" fill="#f2f2f2"/>
 <g transform="translate(-.679 -.215) scale(.3707)" clip-path="url(#a)" stroke-width="1.291">
  <path d="M33.04 27.34c-.316 1.219-1.91 3.762-2.762 4.883-.848 1.125-.746 2.137-2.313 1.742-1.563-.391-2-.32-3.621-.234-1.602.09-1.258-.043-2.262.383-1 .422-4.363-5.16-4.637-6.203-.266-1.039-.395-.914.305-2.035.691-1.125.797-2.238 1.715-3.598.918-1.367 1.984-2.063 1.906-3.105-.305-3.871-.539-5.809 1.293-6.703 1.742-.852 3.203-.344 3.777-.055.25.125.758.371 1.133.797.375.418.715 1.047.906 1.844.391 1.598-.164 1.07.281 2.902.438 1.828 1.328 2.727 2.414 4.172 1.09 1.445 2.223 3.832 1.863 5.211m0 0"/>
  <path d="M22.695 17.859c.285-.105.238-.121.43-.512.152-.301.285-.43.281-.887 0-.445-.148-.598-.371-.891-.215-.277-.555-.293-.773-.258-.125.02-.285.168-.395.387a1.337 1.337 0 0 0-.137.531c-.012.531.031.73.164 1.09.152.422.523.641.801.539m0 0" fill="#f9f9f9"/>
  <path d="M22.43 16.03c.141 0 .32.086.41.207a.799.799 0 0 1 .156.488c0 .285-.031.602-.215.699a.915.915 0 0 1-.254.059c-.16 0-.176-.102-.328-.25-.055-.051-.211-.313-.211-.527 0-.133-.031-.324.094-.496a.39.39 0 0 1 .348-.184m0 .004"/>
  <path d="M25.652 17.895c.719-.07.969-.332 1.098-.785.113-.402.117-.848-.199-1.375-.301-.5-.473-.578-.906-.613-.668-.051-.984.387-1.133.699-.156.34-.125.293-.113.723.012.453.281.578.445.863.168.273.727.496.805.492m.004-.004" fill="#f9f9f9"/>
  <path d="M25.594 16.01c.359 0 .566.301.637.684a.678.678 0 0 1-.125.516.733.733 0 0 1-.543.258c-.18 0-.375.027-.484-.105-.105-.141-.125-.445-.125-.668 0-.246.078-.422.207-.559.102-.102.281-.125.434-.125m0 0"/>
  <path d="M25.672 16.223c.039-.035.121 0 .207.09.098.102.102.18.023.234-.07.059-.105-.086-.152-.137-.086-.082-.156-.121-.082-.188m-3.203.118c.043-.063.207-.035.27.09.059.125.051.398.008.41-.109.035-.074-.117-.172-.25-.094-.129-.148-.188-.105-.25m1.409.105c.086-.023.168-.02.313.055.129.07.07.152-.07.121-.133-.027-.105-.023-.207-.043-.172-.027-.199-.094-.035-.133m0 0" fill="#676767"/>
  <path d="M23.461 19.977c-.621.023-1.602-1.609-1.629-.93-.016.574.016.563.016 1.117 0 .371-.18.402-.57.961a4.242 4.242 0 0 0-.48.938 6.337 6.337 0 0 0-.207.59c-.023.098-.066.203-.094.301-.191.676-.891 1.512-1.051 2.188-.164.672-.355 1.102-.328 2 .023.902.031.641.32.867.289.223.582.434 1.035.809.48.398 1.469 1.07 1.602 1.285.141.215.141.695.055.852-.086.152-.832.238-.832.238s.652.855.785.973c.125.117.66.684 2.832.301 1.227-.223 2.172-.863 2.859-1.48.887-.816.438-1.047.551-1.453.168-.59.711-.809.832-1.473.016-.094.047-.164.141-.313.137-.188.105-.586.105-.938 0-.938-.113-1.879-.344-2.578-.211-.656-.543-1.113-.828-1.703-.57-1.176-.543-1.707-1.055-2.457-.578-.867-.293-1.445-1.066-1.41-.961.051-1.738 1.289-2.648 1.324m0 0" fill="#f9f9f9"/>
  <path d="M23.789 16.906c.348-.039.828.039 1.047.191.203.141.348.219.535.273.621.191 1.445.285 1.406.813-.043.633-.238.914-.797 1.082-.449.129-1.25.859-1.867.859-.277 0-.664.016-.887-.063-.215-.07-.516-.41-.867-.684-.355-.273-.68-.566-.691-.941-.016-.395.262-.527.652-.848.203-.168.578-.453.832-.574.238-.113.391-.09.637-.117m0 0" fill="#ffcf33"/>
  <path d="M22.988 17.371c-.02.047.129.145.207.078.082-.066.176-.125.207-.145.145-.09.094-.156-.152-.117-.238.039-.238.133-.266.184m.004 0" fill="#995900"/>
  <path d="M32.969 28.332c.297.402-.008.93.207 1.25.355.527 1.063 1.063 1.336 1.211.195.113.473.219.461.543-.016.375-.211.473-.32.574-.219.207-1.324.723-2.059 1.191-.922.594-1.242.859-1.543 1.141-.469.441-.91.59-1.621.59-.707 0-1.031-.141-1.246-.324-.219-.18-.465-.637-.441-1.316.02-.68.25-1.293.359-2.348.047-.453.043-1.012.043-1.508 0-.629.012-1.16.152-1.242.258-.152.316-.16.621-.16s.441.016.543.113c.094.086.055.293.023.586-.027.293.121.387.266.508.148.117.281.266.746.301.469.031.641-.039.859-.172.219-.129.527-.359.645-.496.109-.129.383-.574.434-.574.043 0 .359-.105.535.137m-16.629.683c-.426.289-1.516.266-1.793.605-.27.34.012.832.004 1.746 0 .391-.07.684-.117.922-.07.301-.113.512.023.727.246.379.633.477 2.871.914 1.195.234 2.328.836 3.082.898.758.051.922-.188 1.383-.57.457-.387.605-.27.59-1.113-.016-.844-.59-1.094-1.242-2.066-.652-.973-.758-1.152-1.191-1.797-.434-.637-1.293-1.793-1.781-1.805-.391-.008-.609.188-.855.422-.246.234-.543.828-.973 1.117m0 0" fill="#ffcf33"/>
  <path d="M29.03 22.656c-.082-.004-.117.023-.094.094 0 0 .656.359 1.25 1.031.016.035.664.906.531 2.063-.023.02-.066.512-.125.719-.156.492-.355.777-.191.813.148.035.543-.953.531-1.344.141-.367.137-1.301-.219-1.906-.121-.219-.238-.484-.316-.5-.508-.652-1.133-.965-1.375-.969m.004 0" fill="#676767"/>
  <path d="M29.465 27.973c.102.094.188-.141.289-.219.098-.074.262-.238.582-.238.324 0 .305-.012.289-.125-.012-.113-.105-.105-.391-.066a.941.941 0 0 0-.59.305c-.109.117-.234.289-.18.344m1.294-.591c0 .141.305.191.605.234.289.039.523.094.539.379.012.281-.063.484.07.461.285-.051.387-.34.387-.477 0-.133-.211-.375-.586-.508a2.125 2.125 0 0 0-.719-.152c-.328-.016-.297.063-.297.063m0 0" fill="#676767"/>
  <path d="M21.988 18.797c.133.086.137.098.328.219.309.234.852.289 1.117.297.613.09 1.707-.449 2.137-.691.219-.152.621-.473.773-.477.094.094-.043.109-.238.234a7.76 7.76 0 0 1-.871.531c-.418.207-1.063.547-1.887.5-.434-.059-.438-.063-.703-.191-.16-.105-.523-.285-.656-.422m2.703-1.402c.02.051-.129.145-.207.082a1.443 1.443 0 0 0-.211-.145c-.145-.094-.09-.156.152-.117.242.039.242.129.266.18m0 0" fill="#995900"/>
 </g>
 <g transform="matrix(.37069 0 0 .37069 -.67872 -.2147)" stroke-width="1.2908">
  <g clip-path="url(#b)" stroke-width="1.2908">
   <g stroke-width="1.2908">
    <path d="m33.04 27.34c-0.316 1.219-1.91 3.762-2.762 4.883-0.848 1.125-0.746 2.137-2.313 1.742-1.563-0.391-2-0.32-3.621-0.234-1.602 0.09-1.258-0.043-2.262 0.383-1 0.422-4.363-5.16-4.637-6.203-0.266-1.039-0.395-0.914 0.305-2.035 0.691-1.125 0.797-2.238 1.715-3.598 0.918-1.367 1.984-2.063 1.906-3.105-0.305-3.871-0.539-5.809 1.293-6.703 1.742-0.852 3.203-0.344 3.777-0.055 0.25 0.125 0.758 0.371 1.133 0.797 0.375 0.418 0.715 1.047 0.906 1.844 0.391 1.598-0.164 1.07 0.281 2.902 0.438 1.828 1.328 2.727 2.414 4.172 1.09 1.445 2.223 3.832 1.863 5.211"/>
    <path d="m22.695 17.859c0.285-0.105 0.238-0.121 0.43-0.512 0.152-0.301 0.285-0.43 0.281-0.887 0-0.445-0.148-0.598-0.371-0.891-0.215-0.277-0.555-0.293-0.773-0.258-0.125 0.02-0.285 0.168-0.395 0.387-0.074 0.148-0.129 0.336-0.137 0.531-0.012 0.531 0.031 0.73 0.164 1.09 0.152 0.422 0.523 0.641 0.801 0.539" fill="#f9f9f9"/>
    <path d="m22.43 16.03c0.141 0 0.32 0.086 0.41 0.207 0.094 0.121 0.156 0.293 0.156 0.488 0 0.285-0.031 0.602-0.215 0.699-0.059 0.023-0.184 0.059-0.254 0.059-0.16 0-0.176-0.102-0.328-0.25-0.055-0.051-0.211-0.313-0.211-0.527 0-0.133-0.031-0.324 0.094-0.496 0.086-0.125 0.195-0.184 0.348-0.184"/>
    <path d="m25.652 17.895c0.719-0.07 0.969-0.332 1.098-0.785 0.113-0.402 0.117-0.848-0.199-1.375-0.301-0.5-0.473-0.578-0.906-0.613-0.668-0.051-0.984 0.387-1.133 0.699-0.156 0.34-0.125 0.293-0.113 0.723 0.012 0.453 0.281 0.578 0.445 0.863 0.168 0.273 0.727 0.496 0.805 0.492" fill="#f9f9f9"/>
    <path d="m25.594 16.01c0.359 0 0.566 0.301 0.637 0.684 0.027 0.176-0.012 0.375-0.125 0.516-0.129 0.164-0.359 0.258-0.543 0.258-0.18 0-0.375 0.027-0.484-0.105-0.105-0.141-0.125-0.445-0.125-0.668 0-0.246 0.078-0.422 0.207-0.559 0.102-0.102 0.281-0.125 0.434-0.125"/>
    <g fill="#676767">
     <path d="m25.672 16.223c0.039-0.035 0.121 0 0.207 0.09 0.098 0.102 0.102 0.18 0.023 0.234-0.07 0.059-0.105-0.086-0.152-0.137-0.086-0.082-0.156-0.121-0.082-0.188"/>
     <path d="m22.465 16.34c0.043-0.063 0.207-0.035 0.27 0.09 0.059 0.125 0.051 0.398 8e-3 0.41-0.109 0.035-0.074-0.117-0.172-0.25-0.094-0.129-0.148-0.188-0.105-0.25"/>
     <path d="m23.875 16.445c0.086-0.023 0.168-0.02 0.313 0.055 0.129 0.07 0.07 0.152-0.07 0.121-0.133-0.027-0.105-0.023-0.207-0.043-0.172-0.027-0.199-0.094-0.035-0.133"/>
    </g>
    <path d="m23.461 19.977c-0.621 0.023-1.602-1.609-1.629-0.93-0.016 0.574 0.016 0.563 0.016 1.117 0 0.371-0.18 0.402-0.57 0.961-0.203 0.293-0.359 0.613-0.48 0.938-0.078 0.191-0.148 0.391-0.207 0.59-0.023 0.098-0.066 0.203-0.094 0.301-0.191 0.676-0.891 1.512-1.051 2.188-0.164 0.672-0.355 1.102-0.328 2 0.023 0.902 0.031 0.641 0.32 0.867 0.289 0.223 0.582 0.434 1.035 0.809 0.48 0.398 1.469 1.07 1.602 1.285 0.141 0.215 0.141 0.695 0.055 0.852-0.086 0.152-0.832 0.238-0.832 0.238s0.652 0.855 0.785 0.973c0.125 0.117 0.66 0.684 2.832 0.301 1.227-0.223 2.172-0.863 2.859-1.48 0.887-0.816 0.438-1.047 0.551-1.453 0.168-0.59 0.711-0.809 0.832-1.473 0.016-0.094 0.047-0.164 0.141-0.313 0.137-0.188 0.105-0.586 0.105-0.938 0-0.938-0.113-1.879-0.344-2.578-0.211-0.656-0.543-1.113-0.828-1.703-0.57-1.176-0.543-1.707-1.055-2.457-0.578-0.867-0.293-1.445-1.066-1.41-0.961 0.051-1.738 1.289-2.648 1.324" fill="#f9f9f9"/>
    <path d="m23.789 16.906c0.348-0.039 0.828 0.039 1.047 0.191 0.203 0.141 0.348 0.219 0.535 0.273 0.621 0.191 1.445 0.285 1.406 0.813-0.043 0.633-0.238 0.914-0.797 1.082-0.449 0.129-1.25 0.859-1.867 0.859-0.277 0-0.664 0.016-0.887-0.063-0.215-0.07-0.516-0.41-0.867-0.684-0.355-0.273-0.68-0.566-0.691-0.941-0.016-0.395 0.262-0.527 0.652-0.848 0.203-0.168 0.578-0.453 0.832-0.574 0.238-0.113 0.391-0.09 0.637-0.117" fill="#ffcf33"/>
    <path d="m22.988 17.371c-0.02 0.047 0.129 0.145 0.207 0.078 0.082-0.066 0.176-0.125 0.207-0.145 0.145-0.09 0.094-0.156-0.152-0.117-0.238 0.039-0.238 0.133-0.266 0.184" fill="#995900"/>
    <path d="m32.969 28.332c0.297 0.402-8e-3 0.93 0.207 1.25 0.355 0.527 1.063 1.063 1.336 1.211 0.195 0.113 0.473 0.219 0.461 0.543-0.016 0.375-0.211 0.473-0.32 0.574-0.219 0.207-1.324 0.723-2.059 1.191-0.922 0.594-1.242 0.859-1.543 1.141-0.469 0.441-0.91 0.59-1.621 0.59-0.707 0-1.031-0.141-1.246-0.324-0.219-0.18-0.465-0.637-0.441-1.316 0.02-0.68 0.25-1.293 0.359-2.348 0.047-0.453 0.043-1.012 0.043-1.508 0-0.629 0.012-1.16 0.152-1.242 0.258-0.152 0.316-0.16 0.621-0.16s0.441 0.016 0.543 0.113c0.094 0.086 0.055 0.293 0.023 0.586-0.027 0.293 0.121 0.387 0.266 0.508 0.148 0.117 0.281 0.266 0.746 0.301 0.469 0.031 0.641-0.039 0.859-0.172 0.219-0.129 0.527-0.359 0.645-0.496 0.109-0.129 0.383-0.574 0.434-0.574 0.043 0 0.359-0.105 0.535 0.137" fill="#ffcf33"/>
    <path d="m16.34 29.02c-0.426 0.289-1.516 0.266-1.793 0.605-0.27 0.34 0.012 0.832 4e-3 1.746 0 0.391-0.07 0.684-0.117 0.922-0.07 0.301-0.113 0.512 0.023 0.727 0.246 0.379 0.633 0.477 2.871 0.914 1.195 0.234 2.328 0.836 3.082 0.898 0.758 0.051 0.922-0.188 1.383-0.57 0.457-0.387 0.605-0.27 0.59-1.113-0.016-0.844-0.59-1.094-1.242-2.066-0.652-0.973-0.758-1.152-1.191-1.797-0.434-0.637-1.293-1.793-1.781-1.805-0.391-8e-3 -0.609 0.188-0.855 0.422s-0.543 0.828-0.973 1.117" fill="#ffcf33"/>
    <g fill="#676767">
     <path d="m29.03 22.656c-0.082-4e-3 -0.117 0.023-0.094 0.094 0 0 0.656 0.359 1.25 1.031 0.016 0.035 0.664 0.906 0.531 2.063-0.023 0.02-0.066 0.512-0.125 0.719-0.156 0.492-0.355 0.777-0.191 0.813 0.148 0.035 0.543-0.953 0.531-1.344 0.141-0.367 0.137-1.301-0.219-1.906-0.121-0.219-0.238-0.484-0.316-0.5-0.508-0.652-1.133-0.965-1.375-0.969"/>
     <path d="m29.465 27.973c0.102 0.094 0.188-0.141 0.289-0.219 0.098-0.074 0.262-0.238 0.582-0.238 0.324 0 0.305-0.012 0.289-0.125-0.012-0.113-0.105-0.105-0.391-0.066-0.285 0.039-0.477 0.176-0.59 0.305-0.109 0.117-0.234 0.289-0.18 0.344"/>
     <path d="m30.758 27.383c0 0.141 0.305 0.191 0.605 0.234 0.289 0.039 0.523 0.094 0.539 0.379 0.012 0.281-0.063 0.484 0.07 0.461 0.285-0.051 0.387-0.34 0.387-0.477 0-0.133-0.211-0.375-0.586-0.508-0.277-0.102-0.48-0.145-0.719-0.152-0.328-0.016-0.297 0.063-0.297 0.063"/>
    </g>
    <path d="m21.988 18.797c0.133 0.086 0.137 0.098 0.328 0.219 0.309 0.234 0.852 0.289 1.117 0.297 0.613 0.09 1.707-0.449 2.137-0.691 0.219-0.152 0.621-0.473 0.773-0.477 0.094 0.094-0.043 0.109-0.238 0.234-0.258 0.176-0.477 0.324-0.871 0.531-0.418 0.207-1.063 0.547-1.887 0.5-0.434-0.059-0.438-0.063-0.703-0.191-0.16-0.105-0.523-0.285-0.656-0.422" fill="#995900"/>
    <path d="m24.691 17.395c0.02 0.051-0.129 0.145-0.207 0.082-0.082-0.066-0.176-0.129-0.211-0.145-0.145-0.094-0.09-0.156 0.152-0.117s0.242 0.129 0.266 0.18" fill="#995900"/>
   </g>
  </g>
 </g>
</svg>
