<?xml version="1.0" encoding="UTF-8" standalone="no"?>
<!-- Created with Inkscape (http://www.inkscape.org/) -->

<svg
   xmlns:dc="http://purl.org/dc/elements/1.1/"
   xmlns:cc="http://creativecommons.org/ns#"
   xmlns:rdf="http://www.w3.org/1999/02/22-rdf-syntax-ns#"
   xmlns:svg="http://www.w3.org/2000/svg"
   xmlns="http://www.w3.org/2000/svg"
   xmlns:sodipodi="http://sodipodi.sourceforge.net/DTD/sodipodi-0.dtd"
   xmlns:inkscape="http://www.inkscape.org/namespaces/inkscape"
   width="64"
   height="64"
   viewBox="0 0 16.933333 16.933333"
   version="1.1"
   id="svg4572"
   inkscape:version="0.92.4 (5da689c313, 2019-01-14)"
   sodipodi:docname="distributor-logo-linux-mint.svg">
  <title
     id="title4611">Canvas icon theme</title>
  <defs
     id="defs4566" />
  <sodipodi:namedview
     id="base"
     pagecolor="#ffffff"
     bordercolor="#666666"
     borderopacity="1.0"
     inkscape:pageopacity="0.0"
     inkscape:pageshadow="2"
     inkscape:zoom="31.678384"
     inkscape:cx="28.476689"
     inkscape:cy="6.4893811"
     inkscape:document-units="px"
     inkscape:current-layer="layer1"
     showgrid="true"
     units="px"
     width="64px"
     showguides="true"
     inkscape:guide-bbox="true"
     inkscape:window-width="1366"
     inkscape:window-height="706"
     inkscape:window-x="0"
     inkscape:window-y="32"
     inkscape:window-maximized="1"
     inkscape:snap-bbox="true"
     inkscape:bbox-nodes="true"
     inkscape:snap-bbox-edge-midpoints="true">
    <inkscape:grid
       type="xygrid"
       id="grid4582" />
    <sodipodi:guide
       position="1.0583333,15.875"
       orientation="0,1"
       id="guide4584"
       inkscape:locked="false" />
    <sodipodi:guide
       position="1.0583333,1.0583333"
       orientation="1,0"
       id="guide4586"
       inkscape:locked="false" />
    <sodipodi:guide
       position="15.875,15.875"
       orientation="1,0"
       id="guide4588"
       inkscape:locked="false" />
    <sodipodi:guide
       position="1.0583333,1.0583333"
       orientation="0,1"
       id="guide4590"
       inkscape:locked="false" />
    <sodipodi:guide
       position="8.4666665,15.345833"
       orientation="1,0"
       id="guide826"
       inkscape:locked="false" />
    <sodipodi:guide
       position="1.5875,8.4666665"
       orientation="0,1"
       id="guide828"
       inkscape:locked="false" />
  </sodipodi:namedview>
  <metadata
     id="metadata4569">
    <rdf:RDF>
      <cc:Work
         rdf:about="">
        <dc:format>image/svg+xml</dc:format>
        <dc:type
           rdf:resource="http://purl.org/dc/dcmitype/StillImage" />
        <dc:title>Canvas icon theme</dc:title>
        <cc:license
           rdf:resource="http://creativecommons.org/licenses/by-nc-sa/4.0/" />
        <dc:creator>
          <cc:Agent>
            <dc:title>Vince Liuice</dc:title>
          </cc:Agent>
        </dc:creator>
      </cc:Work>
      <cc:License
         rdf:about="http://creativecommons.org/licenses/by-nc-sa/4.0/">
        <cc:permits
           rdf:resource="http://creativecommons.org/ns#Reproduction" />
        <cc:permits
           rdf:resource="http://creativecommons.org/ns#Distribution" />
        <cc:requires
           rdf:resource="http://creativecommons.org/ns#Notice" />
        <cc:requires
           rdf:resource="http://creativecommons.org/ns#Attribution" />
        <cc:prohibits
           rdf:resource="http://creativecommons.org/ns#CommercialUse" />
        <cc:permits
           rdf:resource="http://creativecommons.org/ns#DerivativeWorks" />
        <cc:requires
           rdf:resource="http://creativecommons.org/ns#ShareAlike" />
      </cc:License>
    </rdf:RDF>
  </metadata>
  <g
     inkscape:label="Layer 1"
     inkscape:groupmode="layer"
     id="layer1"
     transform="translate(0,-280.06667)">
    <g
       style="fill:#78b75b;fill-opacity:1;stroke:#406c2c;stroke-opacity:1;stroke-width:1.99999999;stroke-miterlimit:4;stroke-dasharray:none;opacity:0.75"
       id="g838"
       transform="matrix(0.26458333,0,0,0.26458333,1.3229166,282.97709)">
      <path
         id="path836"
         style="fill:#78b75b;fill-opacity:1;stroke:#406c2c;stroke-width:2;stroke-miterlimit:4;stroke-dasharray:none;stroke-opacity:1"
         d="m 27,-6.000012 c 14.912217,0 26.999999,12.087782 26.999999,26.999999 C 53.999999,35.912203 41.912217,47.999986 27,47.999986 12.087783,47.999986 9.4720473e-7,35.912203 9.4720473e-7,20.999987 9.4720473e-7,6.08777 12.087783,-6.000012 27,-6.000012 Z"
         inkscape:connector-curvature="0" />
    </g>
    <g
       transform="matrix(0.26458333,0,0,0.26458333,0,284.3)"
       id="g15" />
    <g
       transform="matrix(0.26458333,0,0,0.26458333,1.3229166,282.97709)"
       id="g19"
       style="fill:#78b75b;fill-opacity:1">
      <path
         inkscape:connector-curvature="0"
         d="m 27,-6.000012 c 14.912217,0 26.999999,12.087782 26.999999,26.999999 C 53.999999,35.912203 41.912217,47.999986 27,47.999986 12.087783,47.999986 9.4720473e-7,35.912203 9.4720473e-7,20.999987 9.4720473e-7,6.08777 12.087783,-6.000012 27,-6.000012 Z"
         style="fill:#78b75b;fill-opacity:1;stroke-width:1.13043463"
         id="path17" />
    </g>
    <g
       transform="matrix(0.26458333,0,0,0.26458333,0,284.3)"
       id="g31">
      <g
         id="g29">
        <g
           transform="translate(1,1)"
           id="g27">
          <g
             style="opacity:0.1"
             id="g25">
            <!-- color: #35bf5c -->
            <g
               id="g23" />
          </g>
        </g>
      </g>
    </g>
    <g
       transform="matrix(0.26458333,0,0,0.26458333,0,284.3)"
       id="g43" />
    <g
       transform="matrix(0.20497516,0,0,0.20497516,2.2016536,284.74474)"
       id="g33"
       style="stroke-width:1.29080677" />
    <path
       style="color:#000000;display:inline;overflow:visible;visibility:visible;fill:#ffffff;fill-opacity:1;fill-rule:evenodd;stroke:none;stroke-width:0.26458332;marker:none;enable-background:accumulate"
       d="m 4.2333334,284.73817 v 2.42677 h 0.9983424 v 0.48708 l 0.00148,1.91004 c 0,1.57299 1.3662127,2.76645 2.9406206,2.76645 H 12.7 v -4.80114 c 0,-1.57441 -1.364798,-2.76646 -2.9406208,-2.76646 l -1.316729,-0.003 z m 0.6428188,0.6457 3.5653016,0.0156 v 0.003 h 1.317883 c 1.2700022,0 2.2995292,0.95135 2.2995292,2.12507 v 3.5132 c 0,0.3908 -0.351532,0.64512 -0.753076,0.64512 H 8.1737358 c -1.2685856,0 -2.2978018,-0.95136 -2.2978018,-2.12508 l -0.00288,-2.40834 c 0,-0.3739 -0.3262079,-0.62871 -0.597338,-0.62871 H 4.8761501 Z m 1.6143896,0.71421 v 3.4893 c 0,0.37022 0.1354476,0.69495 0.3989916,0.95747 0.2252598,0.22234 0.4961952,0.36644 0.8005738,0.39899 h 0.8613159 v -0.6837 l -0.7395462,-0.003 c -0.359357,0 -0.6664238,-0.34962 -0.6664238,-0.79913 v -3.36005 z m 2.468221,0.57316 c -0.2974847,0 -0.561996,0.11046 -0.774376,0.325 -0.212274,0.21443 -0.3235704,0.48206 -0.3235704,0.78417 v 1.52717 h 0.6926238 v -1.52717 c 0,-0.11579 0.037655,-0.20638 0.1203283,-0.28989 0.082948,-0.0838 0.1709462,-0.12148 0.2849943,-0.12148 0.1164398,0 0.2030181,0.0375 0.2861461,0.12148 0.082677,0.0835 0.1203296,0.1741 0.1203296,0.28989 v 1.52717 h 0.6926245 v -1.52717 c 0,-0.11579 0.03766,-0.20638 0.120328,-0.28989 0.08313,-0.084 0.169704,-0.12148 0.286146,-0.12148 0.114053,0 0.202049,0.0377 0.284994,0.12148 0.08268,0.0835 0.120333,0.1741 0.120333,0.28989 -0.0015,0.14527 0.0043,1.51795 0.0043,1.51795 h 0.690323 l -0.0019,-1.51795 c 0,-0.30211 -0.111292,-0.56974 -0.323569,-0.78417 -0.21238,-0.21454 -0.476892,-0.325 -0.774377,-0.325 -0.292007,0 -0.5473347,0.10861 -0.7539378,0.30744 -0.2061088,-0.1985 -0.4597935,-0.30744 -0.7516793,-0.30744 z"
       id="path4130"
       inkscape:connector-curvature="0"
       sodipodi:nodetypes="cccccscsccccccssscsccscccscccccsccsssccscsssccsssccccccscs" />
  </g>
</svg>
