<svg xmlns="http://www.w3.org/2000/svg" width="64" height="64" viewBox="0 0 16.933 16.933"><g transform="translate(0 -280.067)"><rect width="13.758" height="13.758" x="1.588" y="281.654" fill="none" stroke="#2454d8" stroke-linecap="round" stroke-linejoin="round" stroke-width=".529" opacity=".75" paint-order="markers stroke fill" rx=".794" ry=".794"/><rect width="13.758" height="13.758" x="1.588" y="281.654" fill="#90a9ff" paint-order="markers stroke fill" rx=".794" ry=".794"/><rect width="10.054" height="1.323" x="3.44" y="293.56" fill="#fff" opacity=".35" paint-order="markers stroke fill" ry=".265"/><rect width="1.323" height="1.323" x="4.498" y="292.767" fill="#ccdfff" paint-order="stroke markers fill" ry=".132"/><rect width="1.323" height="1.323" x="6.703" y="292.767" fill="#ccdfff" paint-order="stroke markers fill" ry=".132"/><rect width="1.323" height="1.323" x="8.908" y="292.767" fill="#ccdfff" paint-order="stroke markers fill" ry=".132"/><rect width="1.323" height="1.323" x="11.113" y="292.767" fill="#ccdfff" paint-order="stroke markers fill" ry=".132"/><path d="M2.381 281.654a.79.79 0 0 0-.793.794v.264h13.758v-.264a.79.79 0 0 0-.794-.794z" opacity=".35" paint-order="markers stroke fill"/><rect width="2.646" height=".529" x="7.12" y="281.919" opacity=".35" paint-order="stroke markers fill" ry=".265"/><path d="M8.467 284.83a.794.794 0 0 0-.265 1.54v.84h-1.19a.13.13 0 0 0-.133.133v.264c0 .074.06.133.132.133h1.191v2.645a.265.265 0 0 1-.264.265h-.133c-.198 0-.787-.228-1.148-.408-.446-.223-.446-.334-.417-.386.09-.158.242-.026.242-.026s.054-.238-.264-.503c-.107-.088-.328-.2-.397-.265-.139-.128-.136-.264-.212-.264-.098 0-.317.483-.317.794 0 .31 0 .653.264.793 0-.12.106-.264.265-.185.073.037.427.273.815.517.574.36 1.444.47 1.83.991.388-.52 1.257-.63 1.831-.991.388-.244.745-.473.815-.517.13-.08.265-.08.265.185.265-.14.265-.484.265-.793s-.246-.794-.344-.794c-.072 0-.047.136-.186.264-.07.065-.29.177-.396.265-.319.265-.265.503-.265.503s.152-.132.242.026c.03.052.029.164-.417.386-.36.18-.95.408-1.148.408h-.132a.265.265 0 0 1-.265-.265v-2.645h1.19a.13.13 0 0 0 .133-.133v-.264c0-.074-.06-.117-.132-.133h-1.19v-.84a.794.794 0 0 0-.265-1.54m0 .528a.265.265 0 1 1 0 .53.265.265 0 0 1 0-.53" opacity=".35"/></g></svg>