<svg xmlns="http://www.w3.org/2000/svg" width="64" height="64" viewBox="0 0 16.933 16.933"><g transform="translate(0 -280.067)"><path d="M3.175 282.448c-.293 0-.265.264-.265.53H1.852c-.265 0-.265 0-.265.264v5.556c0 .293.237.53.53.53h12.7a.529.529 0 0 0 .529-.53v-5.556c0-.265 0-.265-.265-.265H7.673c0-.265.028-.53-.265-.53z" fill="#fff" fill-opacity=".976" stroke="#000" stroke-width=".529" stroke-opacity=".268" paint-order="markers stroke fill"/><path d="M3.175 282.448c-.293 0-.265.264-.265.53H1.852c-.265 0-.265 0-.265.264v5.556c0 .293.237.53.53.53h12.7a.529.529 0 0 0 .529-.53v-5.556c0-.265 0-.265-.265-.265H7.673c0-.265.028-.53-.265-.53z" fill="#fff" fill-opacity=".976" paint-order="markers stroke fill"/><path d="M8.467 284.3c-.293 0-.382.276-.53.53l-.308.528h-6.57c-.265 0-.265.265-.265.265l.529 8.996c.015.264.264.264.264.264h13.759c.264 0 .264-.264.264-.264l.53-10.054c0-.265-.265-.265-.265-.265z" fill="#6ba4e7" stroke="#003779" stroke-width=".529" stroke-opacity=".561" paint-order="markers stroke fill"/><path d="M8.467 284.3c-.293 0-.382.276-.53.53l-.308.528h-6.57c-.265 0-.265.265-.265.265l.529 8.996c.015.264.264.264.264.264h13.759c.264 0 .264-.264.264-.264l.53-10.054c0-.265-.265-.265-.265-.265z" fill="#6ba4e7" paint-order="markers stroke fill"/><rect width="3.704" height=".529" x="3.44" y="282.977" rx=".265" ry=".265" fill-opacity=".267" paint-order="markers stroke fill"/><path d="M8.467 287.475a2.646 2.646 0 0 0-2.646 2.646 2.646 2.646 0 0 0 2.646 2.646 2.646 2.646 0 0 0 2.645-2.646 2.646 2.646 0 0 0-2.645-2.646zm0 .265a2.381 2.381 0 0 1 2.38 2.38 2.381 2.381 0 0 1-2.38 2.382 2.381 2.381 0 0 1-2.382-2.381 2.381 2.381 0 0 1 2.382-2.381z" fill="#fff" paint-order="stroke markers fill"/><rect width=".529" height="1.587" x="8.202" y="288.533" ry=".265" fill="#fff" paint-order="stroke markers fill"/><rect ry=".132" y="-213.04" x="199.027" height="1.852" width=".265" transform="rotate(135)" fill="#fff" paint-order="stroke markers fill"/><circle cx="8.467" cy="290.121" r=".529" fill="#fff" paint-order="stroke markers fill"/></g></svg>