<svg xmlns="http://www.w3.org/2000/svg" width="64" height="64" viewBox="0 0 16.933 16.933"><g transform="translate(0 -280.07)"><path fill="#fff" fill-opacity=".976" stroke="#000" stroke-opacity=".268" stroke-width=".529" d="M3.175 282.45c-.293 0-.265.264-.265.53H1.852c-.265 0-.265 0-.265.264v5.556c0 .293.237.53.53.53h12.7a.53.53 0 0 0 .529-.53v-5.556c0-.265 0-.265-.265-.265H7.673c0-.265.028-.53-.265-.53z" style="paint-order:markers stroke fill"/><path fill="#fff" fill-opacity=".976" d="M3.175 282.45c-.293 0-.265.264-.265.53H1.852c-.265 0-.265 0-.265.264v5.556c0 .293.237.53.53.53h12.7a.53.53 0 0 0 .529-.53v-5.556c0-.265 0-.265-.265-.265H7.673c0-.265.028-.53-.265-.53z" style="paint-order:markers stroke fill"/><path fill="none" stroke="#003779" stroke-opacity=".561" stroke-width=".529" d="M8.467 284.3c-.293 0-.382.276-.53.53l-.308.528H.794c-.265 0-.265.265-.265.265v8.996c0 .264.265.264.265.264H16.14c.264 0 .264-.264.264-.264v-10.054c0-.265-.264-.265-.264-.265z" style="paint-order:markers stroke fill"/><path fill="#6ba4e7" d="M8.467 284.3c-.293 0-.382.276-.53.53l-.308.528H.794c-.265 0-.265.265-.265.265v8.996c0 .264.265.264.265.264H16.14c.264 0 .264-.264.264-.264v-10.054c0-.265-.264-.265-.264-.265z" style="paint-order:markers stroke fill"/><rect width="3.704" height=".529" x="3.44" y="282.98" fill-opacity=".267" rx=".265" ry=".265" style="paint-order:markers stroke fill"/></g><g fill="#fff"><path d="M8.467 7.408a2.646 2.646 0 0 0-2.646 2.646A2.646 2.646 0 0 0 8.467 12.7a2.646 2.646 0 0 0 2.645-2.646 2.646 2.646 0 0 0-2.645-2.646m0 .265a2.38 2.38 0 0 1 2.38 2.38 2.38 2.38 0 0 1-2.38 2.382 2.38 2.38 0 0 1-2.382-2.381 2.38 2.38 0 0 1 2.382-2.381" style="paint-order:stroke markers fill"/><rect width=".529" height="1.587" x="8.202" y="8.466" ry=".265" style="paint-order:stroke markers fill"/><rect width=".265" height="1.852" x=".99" y="-15.003" ry=".132" style="paint-order:stroke markers fill" transform="rotate(135)"/><circle cx="8.467" cy="10.054" r=".529" style="paint-order:stroke markers fill"/></g></svg>