<?xml version="1.0" encoding="UTF-8" standalone="no"?>
<!-- Created with Inkscape (http://www.inkscape.org/) -->

<svg
   xmlns:dc="http://purl.org/dc/elements/1.1/"
   xmlns:cc="http://creativecommons.org/ns#"
   xmlns:rdf="http://www.w3.org/1999/02/22-rdf-syntax-ns#"
   xmlns:svg="http://www.w3.org/2000/svg"
   xmlns="http://www.w3.org/2000/svg"
   xmlns:sodipodi="http://sodipodi.sourceforge.net/DTD/sodipodi-0.dtd"
   xmlns:inkscape="http://www.inkscape.org/namespaces/inkscape"
   width="64"
   height="64"
   viewBox="0 0 16.933333 16.933334"
   version="1.1"
   id="svg8"
   inkscape:version="0.92.4 (5da689c313, 2019-01-14)"
   sodipodi:docname="document-open-recent.svg">
  <defs
     id="defs2" />
  <sodipodi:namedview
     id="base"
     pagecolor="#ffffff"
     bordercolor="#666666"
     borderopacity="1.0"
     inkscape:pageopacity="0.0"
     inkscape:pageshadow="2"
     inkscape:zoom="7.9195959"
     inkscape:cx="32.974425"
     inkscape:cy="24.392688"
     inkscape:document-units="mm"
     inkscape:current-layer="layer1"
     showgrid="true"
     units="px"
     inkscape:window-width="1366"
     inkscape:window-height="711"
     inkscape:window-x="0"
     inkscape:window-y="27"
     inkscape:window-maximized="1"
     inkscape:snap-bbox="true"
     inkscape:snap-bbox-edge-midpoints="true"
     inkscape:snap-bbox-midpoints="true"
     inkscape:bbox-nodes="true"
     inkscape:object-paths="true"
     inkscape:snap-intersection-paths="true"
     inkscape:snap-smooth-nodes="true"
     inkscape:snap-midpoints="true">
    <inkscape:grid
       type="xygrid"
       id="grid3713" />
  </sodipodi:namedview>
  <metadata
     id="metadata5">
    <rdf:RDF>
      <cc:Work
         rdf:about="">
        <dc:format>image/svg+xml</dc:format>
        <dc:type
           rdf:resource="http://purl.org/dc/dcmitype/StillImage" />
        <dc:title />
      </cc:Work>
    </rdf:RDF>
  </metadata>
  <g
     inkscape:label="Layer 1"
     inkscape:groupmode="layer"
     id="layer1"
     transform="translate(0,-280.06663)">
    <path
       sodipodi:nodetypes="scsssssssscss"
       inkscape:connector-curvature="0"
       id="rect4538-5"
       d="m 3.175,282.44788 c -0.2931528,0 -0.2645834,0.26458 -0.2645834,0.52917 H 1.8520833 c -0.2645833,0 -0.2645833,0 -0.2645833,0.26458 v 5.55625 c 0,0.29316 0.2360061,0.52917 0.5291666,0.52917 H 14.816666 c 0.293161,0 0.529167,-0.23601 0.529167,-0.52917 v -5.55625 c 0,-0.26458 0,-0.26458 -0.264583,-0.26458 H 7.6729166 c 0,-0.26459 0.028569,-0.52917 -0.2645833,-0.52917 z"
       style="opacity:1;fill:#ffffff;fill-opacity:0.97647059;stroke:#000000;stroke-width:0.52916676;stroke-miterlimit:4;stroke-dasharray:none;stroke-opacity:0.2679739;paint-order:markers stroke fill" />
    <path
       style="opacity:1;fill:#ffffff;fill-opacity:0.97647059;stroke:none;stroke-width:0.52916676;stroke-miterlimit:4;stroke-dasharray:none;stroke-opacity:0.2679739;paint-order:markers stroke fill"
       d="m 3.175,282.44788 c -0.2931528,0 -0.2645834,0.26458 -0.2645834,0.52917 H 1.8520833 c -0.2645833,0 -0.2645833,0 -0.2645833,0.26458 v 5.55625 c 0,0.29316 0.2360061,0.52917 0.5291666,0.52917 H 14.816666 c 0.293161,0 0.529167,-0.23601 0.529167,-0.52917 v -5.55625 c 0,-0.26458 0,-0.26458 -0.264583,-0.26458 H 7.6729166 c 0,-0.26459 0.028569,-0.52917 -0.2645833,-0.52917 z"
       id="path830"
       inkscape:connector-curvature="0"
       sodipodi:nodetypes="scsssssssscss" />
    <path
       sodipodi:nodetypes="sccscscscccs"
       inkscape:connector-curvature="0"
       style="opacity:1;fill:#6ba4e7;fill-opacity:1;stroke:#003779;stroke-width:0.5291667;stroke-miterlimit:4;stroke-dasharray:none;stroke-opacity:0.56078384;paint-order:markers stroke fill"
       d="m 8.4666666,284.29995 c -0.2931617,0 -0.3814516,0.27594 -0.5291666,0.52917 l -0.3085084,0.52916 -6.5706583,2e-5 c -0.26458327,0 -0.26458327,0.26458 -0.26458327,0.26458 l 0.52916667,8.99583 C 1.338454,294.88284 1.5875,294.8833 1.5875,294.8833 h 13.758333 c 0.264584,0 0.264584,-0.26459 0.264584,-0.26459 l 0.529167,-10.05416 c 0,-0.26459 -0.264584,-0.26459 -0.264584,-0.26459 z"
       id="path869" />
    <path
       id="path832"
       d="m 8.4666666,284.29995 c -0.2931617,0 -0.3814516,0.27594 -0.5291666,0.52917 l -0.3085084,0.52916 -6.5706583,2e-5 c -0.26458327,0 -0.26458327,0.26458 -0.26458327,0.26458 l 0.52916667,8.99583 C 1.338454,294.88284 1.5875,294.8833 1.5875,294.8833 h 13.758333 c 0.264584,0 0.264584,-0.26459 0.264584,-0.26459 l 0.529167,-10.05416 c 0,-0.26459 -0.264584,-0.26459 -0.264584,-0.26459 z"
       style="opacity:1;fill:#6ba4e7;fill-opacity:1;stroke:none;stroke-width:0.52916664;stroke-miterlimit:4;stroke-dasharray:none;stroke-opacity:0.56078384;paint-order:markers stroke fill"
       inkscape:connector-curvature="0"
       sodipodi:nodetypes="sccscscscccs" />
    <rect
       style="opacity:1;fill:#000000;fill-opacity:0.26666667;stroke:none;stroke-width:0.52916676;stroke-linecap:round;stroke-linejoin:miter;stroke-miterlimit:4;stroke-dasharray:none;stroke-opacity:1;paint-order:markers stroke fill"
       id="rect830"
       width="3.7041669"
       height="0.52915972"
       x="3.4395833"
       y="282.97705"
       rx="0.26458353"
       ry="0.26457515" />
    <path
       inkscape:connector-curvature="0"
       style="opacity:1;fill:#ffffff;fill-opacity:1;stroke:none;stroke-width:0.29450002;stroke-miterlimit:4;stroke-dasharray:none;stroke-opacity:0.03921569;paint-order:stroke markers fill"
       d="m 8.4666666,287.47496 a 2.6458333,2.6458333 0 0 0 -2.6458333,2.64583 2.6458333,2.6458333 0 0 0 2.6458333,2.64584 2.6458333,2.6458333 0 0 0 2.6458334,-2.64584 2.6458333,2.6458333 0 0 0 -2.6458334,-2.64583 z m 0,0.26458 a 2.3812418,2.3812418 0 0 1 2.3812504,2.38125 2.3812418,2.3812418 0 0 1 -2.3812504,2.38125 2.3812418,2.3812418 0 0 1 -2.3812499,-2.38125 2.3812418,2.3812418 0 0 1 2.3812499,-2.38125 z"
       id="path826" />
    <rect
       style="opacity:1;fill:#ffffff;fill-opacity:1;stroke:none;stroke-width:0.2583034;stroke-miterlimit:4;stroke-dasharray:none;stroke-opacity:0.03921569;paint-order:stroke markers fill"
       id="rect831"
       width="0.5291664"
       height="1.5874959"
       x="8.2020836"
       y="288.53329"
       ry="0.2645832" />
    <rect
       ry="0.13229163"
       y="-213.04028"
       x="199.02725"
       height="1.8520833"
       width="0.26458326"
       id="rect833"
       style="opacity:1;fill:#ffffff;fill-opacity:1;stroke:none;stroke-width:0.19728276;stroke-miterlimit:4;stroke-dasharray:none;stroke-opacity:0.03921569;paint-order:stroke markers fill"
       transform="rotate(135)" />
    <circle
       style="opacity:1;fill:#ffffff;fill-opacity:1;stroke:none;stroke-width:0.5579915;stroke-miterlimit:4;stroke-dasharray:none;stroke-opacity:0.03921569;paint-order:stroke markers fill"
       id="path835"
       cx="8.4666662"
       cy="290.12079"
       r="0.52915859" />
  </g>
</svg>
