<svg xmlns="http://www.w3.org/2000/svg" width="64" height="64"><path fill="#01ade7" stroke="#0b85ad" stroke-width="2" d="M32 5c14.912 0 27 12.088 27 27S46.912 59 32 59 5 46.912 5 32 17.088 5 32 5z" style="paint-order:stroke markers fill"/><path fill="#01ade7" d="M32 5c14.912 0 27 12.088 27 27S46.912 59 32 59 5 46.912 5 32 17.088 5 32 5"/><path fill="#fff" d="M27.754 20.261a.21.21 0 0 1 .207.106c.252.445-.253 1.893.128 2.646.38.757.38.945 3.411.568 3.031-.38 7.58.94 9.226 2.577 1.64 1.637 4.484 5.796 5.053 8.185.568 2.394.32 2.518-.44 2.141-.757-.375-1.39-3.71-5.881-5.916-4.49-2.206-6.576-.445-6.576-.445s3.856-.505 6.7 1.825c2.847 2.33 4.612 4.155 4.553 4.847-.065.693-.32.568-.761 0-.445-.563-3.096-4.03-6.255-5.159-3.155-1.133-4.484-1.068-5.681-.44-1.201.628-1.458 1.256.247 1.7 1.706.441 2.403.253 2.403.253s-1.453 1.316-3.533 1.316c-2.086 0-3.348-.123-3.348-.123s-5.182 5.352-6.512 6.425c-1.325 1.068-2.778.568-2.778-.065 0-.628.633-2.389.633-2.389s-1.321-2.962.192-6.3c1.518-3.334 5.687-6.796 5.687-6.796s.44-1.889 1.385-3.146c.77-1.022 1.545-1.792 1.939-1.811"/></svg>