<svg xmlns="http://www.w3.org/2000/svg" width="64" height="64" version="1"><g transform="translate(4.19 6.677)scale(.83871)"><path fill="#4c3a91" stroke="#3c2e72" stroke-width="2.385" d="M36.8.402a29.73 29.73 0 0 0-28.23 20.22h56.46A29.73 29.73 0 0 0 36.8.403zM8.564 20.64zM7.48 24.88a30 30 0 0 0-.397 3.194h59.433a30 30 0 0 0-.397-3.193zm58.639 0zM7.083 28.096zM7 30.201zm59.516-2.106zm.083 2.106zM7.083 32.33q.115 1.623.397 3.192h58.64q.282-1.569.397-3.192zm59.036 3.192zm-58.639 0zm1.09 4.257A29.73 29.73 0 0 0 36.8 60a29.73 29.73 0 0 0 28.23-20.22z" opacity=".75"/><rect width="59.615" height="59.615" x="-60" y="-60.615" fill="#f7941e" stroke="#ae6106" stroke-width="2.385" opacity=".75" rx="29.808" ry="29.808" transform="scale(1 -1)rotate(90)"/><rect width="59.615" height="59.615" x="-60" y="-60.615" fill="#f7941e" rx="29.808" ry="29.808" transform="scale(1 -1)rotate(90)"/><path fill="#4c3a91" d="M36.8.402a29.73 29.73 0 0 0-28.23 20.22h56.46A29.73 29.73 0 0 0 36.8.403zM7.48 24.88a30 30 0 0 0-.397 3.194h59.433a30 30 0 0 0-.397-3.193zm-.397 7.45q.115 1.623.397 3.192h58.64q.282-1.569.397-3.192zm1.487 7.449A29.73 29.73 0 0 0 36.8 60a29.73 29.73 0 0 0 28.23-20.22z"/><path fill="#6e5dae" d="M16.957 40A19.6 19.6 0 0 0 35 52a19.6 19.6 0 0 0 18.035-12z"/><path fill="#fff" d="M8.57 20.623a30 30 0 0 0-1.09 4.257h58.64a30 30 0 0 0-1.09-4.257zm-1.487 7.45C7.033 28.776 7 29.484 7 30.2c0 .717.034 1.425.083 2.129h59.433c.049-.704.083-1.412.083-2.129s-.034-1.425-.083-2.128zm.397 7.45q.392 2.19 1.09 4.256h56.46a30 30 0 0 0 1.089-4.257z"/></g></svg>