<svg width="64" height="64" version="1.1" xmlns="http://www.w3.org/2000/svg">
 <defs>
  <style>.cls-1{fill:#0056C0;}.cls-2{fill:#fff;}</style>
 </defs>
 <rect x="6" y="6" width="52" height="52" rx="8" ry="8" fill="#4d4d4d" stroke="#1f1f1f" stroke-width="2" style="paint-order:stroke fill markers"/>
 <rect x="6" y="6" width="52" height="52" rx="8" ry="8" fill="#4d4d4d" style="paint-order:stroke fill markers"/>
 <title>4-bitcoin-cash-logo-flag</title>
 <path d="m50.073 17.868c2.7665 4.0234 4.386 8.8979 4.386 14.149 0 5.2387-1.6119 10.1-4.3664 14.115h7.907v-28.265z" fill="#0056c0" stroke-width=".068884"/>
 <path d="m6 17.868v28.265h7.9326c-2.7576-4.0172-4.3716-8.8806-4.3716-14.122 0-5.2503 1.6192-10.121 4.385-14.142z" fill="#0056c0" stroke-width=".068884"/>
 <circle class="cls-1" cx="32" cy="32" r="19.787" fill="#0056c0" stroke-width=".066643"/>
 <path class="cls-2" d="m42.991 32.977-0.01301-0.0242-0.0022-4e-3c-0.0079-0.02435-0.01379-0.04981-0.02278-0.07613l-9.14e-4 -0.0021-9.15e-4 -0.0021-0.003656-0.0084-0.0022-4e-3a4.7801 4.7801 0 0 0-1.5629-2.3383l-9.14e-4 -0.0021c-0.02199-0.01679-0.04508-0.03554-0.06715-0.05226l-0.03042-0.02262-0.02198-0.01671-0.0095-0.0079-0.02096-0.01474-0.0095-0.0079-0.02096-0.01473-0.0095-0.0079-0.02199-0.01671-0.01151-0.0069-0.02199-0.01671-0.01151-0.0069-0.02365-0.01576-0.01151-0.0069-0.01395-0.02112-0.01252-0.0088-0.02365-0.01576-0.01252-0.0088-0.02403-0.01577-0.01252-0.0088-0.02364-0.01577-0.01253-0.0088-0.02514-0.01766-0.01252-0.0088-0.02712-0.01663-0.01252-0.0088-0.02711-0.01663-0.01253-0.0088-0.02711-0.01663-0.01252-0.0088-0.02711-0.01663-0.01459-0.0079-0.02711-0.01663-0.01459-0.0079-0.02916-0.01576-0.01459-0.0079-0.03027-0.0175-0.01459-0.0079-0.03027-0.0175-0.01458-0.0079-0.03027-0.0175-0.01576-0.0098-0.03026-0.0175-0.01576-0.0098-0.03224-0.01647-0.01576-0.0098-0.03224-0.01647-0.02183-0.01165-9.14e-4 -0.0021c-0.01576-0.0097-0.03224-0.01647-0.04792-0.02625a6.6724 6.6724 0 0 0-2.1367-0.67512 5.9742 5.9742 0 0 0 0.57243-0.71895l0.02743-0.04075 0.0021-9.14e-4 0.01269-0.01987 0.01663-0.02711 0.0088-0.01253 0.01663-0.02711 0.0088-0.01253 0.01663-0.02711 0.0088-0.01253 0.01663-0.02711 0.0088-0.01253 0.01663-0.02711 0.0088-0.01253 0.01458-0.02608 0.0088-0.01252 0.01459-0.02609 0.0069-0.01151 0.01459-0.02609 0.0069-0.01151 0.01459-0.02609 0.0068-0.01151 0.01252-0.02498 0.0068-0.01151 0.01252-0.02498 0.0069-0.01151 0.01252-0.02498 0.0068-0.01151 0.01355-0.02294 0.0069-0.01151 0.01363-0.02294 0.0069-0.01151 0.01166-0.02184 0.0069-0.01151 0.01166-0.02183 0.0048-0.01041 0.01164-0.02183 0.0049-0.01042 0.01166-0.02183 0.0048-0.01042 0.01165-0.02183 0.0049-0.01042 0.0096-0.02081 0.0048-0.01043 0.0096-0.02081 0.0048-0.01041 0.0096-0.0208 0.0048-0.01041 0.01055-0.02365 0.01442-0.03153c0.01055-0.02364 0.01908-0.04666 0.02963-0.07053l0.0021-9.15e-4a4.2455 4.2455 0 0 0 0.21571-2.4926l-9.14e-4 -0.0021-0.0022-4e-3 -0.00457-0.0105-9.15e-4 -0.0021c-0.0048-0.02364-0.0096-0.04681-0.01639-0.0692v-0.0051l-0.002742-0.0063 9.14e-4 0.0021-0.0098-0.01812c-0.0071-0.03255-0.01426-0.0651-0.02451-0.0986-0.0071-0.03255-0.01734-0.06605-0.02648-0.09757l-0.01189-0.02215-0.0022-4e-3c-0.0069-0.0223-0.01363-0.04469-0.02049-0.06699l-0.006398-0.0147a4.2466 4.2466 0 0 0-1.3905-2.0803l-9.14e-4 -0.0021c-0.01892-0.01576-0.03988-0.03058-0.0588-0.04634l-0.02617-0.01971-0.02096-0.01473-0.0095-0.0079-0.01781-0.01378-0.0095-0.0079-0.01781-0.01379-0.0095-0.0079-0.01986-0.01269-0.0095-0.0079-0.02097-0.01473-0.0095-0.0079-0.02096-0.01473-0.0094-0.0079-0.02097-0.01473-0.01151-0.0069-0.02096-0.01473-0.01151-0.0069-0.02097-0.01474-0.01151-0.0069-0.02293-0.01364-0.01151-0.0069-0.02294-0.01364-0.01151-0.0069-0.02294-0.01364-0.01151-0.0069-0.02294-0.01364-0.01151-0.0069-0.02404-0.01576-0.01151-0.0069-0.02404-0.01576-0.01151-0.0069-0.02609-0.01459-0.01151-0.0069-0.02601-0.01459-0.01253-0.0088-0.02608-0.01458-0.01253-0.0088-0.02601-0.01459-0.01253-0.0088-0.02711-0.01663-0.01458-0.0079-0.02711-0.01663-0.01459-0.0079-0.02916-0.01576-0.01459-0.0079-0.02916-0.01576-0.02081-0.0096-9.14e-4 -0.0021-0.04374-0.02364c-1.2779-0.66417-2.9014-0.86413-4.5349-0.44507l-0.42489 0.10908-1.0747-4.1851-2.4905 0.6384 1.0712 4.1685-1.9929 0.51372-1.0719-4.1552-2.4906 0.6384 1.0712 4.1685-5.1361 1.3216 0.6834 2.6561 2.0695-0.53153a1.2807 1.2807 0 0 1 1.5605 0.923l2.8726 11.177a0.85569 0.85569 0 0 1-0.61476 1.0408l-1.8134 0.4665 0.10656 3.1589 5.1301-1.3183 1.085 4.161 2.4893-0.64053-1.0719-4.1706 1.9923-0.5108 1.0723 4.1705 2.4893-0.64053-1.0759-4.1868c0.42182-0.11034 0.78469-0.20398 1.0357-0.26892 1.8408-0.47344 3.3294-1.5527 4.2302-2.8984l0.03042-0.04493 0.0021-9.14e-4 0.01473-0.02096 0.01955-0.03153 0.0098-0.01576 0.01954-0.03152 0.0097-0.01576 0.0175-0.03026 0.0097-0.01577 0.0175-0.03027 0.0079-0.01458 0.0175-0.03026 0.0079-0.01459 0.0175-0.03027 0.0079-0.01458 0.01577-0.02916 0.0079-0.01458 0.01576-0.02916 0.0079-0.01459 0.01663-0.02711 0.0079-0.01458 0.01663-0.02712 0.0079-0.01458 0.01459-0.02609 0.0079-0.01459 0.01459-0.02601 0.0079-0.01459 0.01459-0.02601 0.0058-0.01348 0.01459-0.02601 0.0058-0.01348 0.01252-0.02498 0.0069-0.01151 0.01253-0.02498 0.0068-0.01151 0.01252-0.02499 0.0069-0.0115 0.01252-0.02498 0.0068-0.01151 0.01253-0.02498 0.0069-0.01151 0.01252-0.02499 0.0069-0.01151 0.01055-0.02365 0.0069-0.01151 0.01057-0.02365 0.0048-0.01041 0.01151-0.02695 0.01576-0.03428c0.01151-0.02696 0.02364-0.05194 0.0335-0.07787l8.12e-4 -0.0031a4.7853 4.7853 0 0 0 0.24338-2.8037l-0.007312-0.0168c-0.0059-0.02546-0.01176-0.05084-0.01766-0.07629v-0.0051l-0.010968-0.0252-9.15e-4 -0.0021-0.0044-0.0079c-0.0093-0.03657-0.01655-0.07424-0.0279-0.10979-0.0038-0.0212-0.0091-0.05998-0.01133-0.10254zm-14.633-7.4773c0.4249-0.10908 2.1817-0.55029 2.761-0.7009 0.92095-0.23574 1.8285-0.14424 2.5371 0.19703l0.02364 0.01056 0.01041 0.0048 0.01459 0.0079 0.0072 0.0039 0.01458 0.0079 0.0073 0.0038 0.01459 0.0079 0.0073 0.0038 0.01458 0.0079 0.0073 0.0038 0.01458 0.0079 0.0073 0.0038 0.01459 0.0079 0.0073 0.0038 0.01459 0.0079 0.0073 0.0038 0.01458 0.0079 0.0073 0.0038 0.01458 0.0079 0.0073 0.0039 0.01252 0.0088 0.0072 0.0039 0.01252 0.0088 0.0073 0.0039 0.01252 0.0088 0.0073 0.0039 0.01151 0.0069 0.0072 0.0038 0.01151 0.0069 0.0073 0.0038 0.01151 0.0069 0.0072 0.0039 0.01151 0.0069 0.0072 0.0039 0.01151 0.0069 0.0053 5e-3 0.01151 0.0069 0.0042 0.0029 0.01151 0.0069 0.0042 0.0029 0.01151 0.0068 0.0042 0.0029 0.01151 0.0069 0.0042 0.0029 0.0095 0.0079 0.0042 0.0029 0.01151 0.0068 0.01576 0.0098c0.01151 0.0069 0.02199 0.01679 0.0335 0.02365a2.1478 2.1478 0 0 1 0.76119 1.0905l0.0032 0.0061c0.0034 0.0112 0.0079 0.02435 0.01126 0.03554l9.14e-4 0.0021 0.0065 0.01206c0.0047 0.01829 0.01025 0.0335 0.0149 0.05178a0.31156 0.31156 0 0 1 0.0099 0.05707l0.0065 0.01205 9.14e-4 0.0021a0.17339 0.17339 0 0 0 0.0093 0.03657l0.0032 0.0061a2.1549 2.1549 0 0 1-0.14187 1.3216l-0.01632 0.03736-0.0087 0.01766-0.0068 0.01151-0.0019 0.0062-0.0048 0.01042-0.0019 0.0062-0.0069 0.01151-0.0019 0.0062-0.0069 0.01151-0.0019 0.0062-0.0069 0.01151-0.0019 0.0062-0.0069 0.01151-0.0019 0.0062-0.0068 0.01151-0.0019 0.0062-0.0069 0.01151-0.0038 0.0073-0.0069 0.01151-0.0038 0.0073-0.0069 0.01151-0.0038 0.0073-0.0069 0.01151-0.0038 0.0072-0.0088 0.01252-0.0039 0.0073-0.0088 0.01253-0.0039 0.0073-0.0088 0.01252-0.0038 0.0073-0.0088 0.01253-0.0039 0.0073-0.0088 0.01253-0.0038 0.0073-0.0088 0.01252-0.0039 0.0073-0.0088 0.01252-0.0038 0.0073-0.0088 0.01252-0.0038 0.0073-0.01088 0.01364-0.0039 0.0073-0.01086 0.01364-0.0039 0.0073-0.01086 0.01363-0.0038 0.0073-0.01088 0.01364-0.0079 0.0095-0.01473 0.02096c-0.45799 0.64172-1.2085 1.1602-2.1295 1.3959-0.5804 0.14864-2.3329 0.60813-2.7574 0.71722zm9.7346 8.569 0.0066 0.01206 9.14e-4 0.0021c0.0025 0.01426 0.0059 0.02546 0.0083 0.03941l0.003656 0.0084a2.2137 2.2137 0 0 1-0.20026 1.4442l-0.02231 0.04059-0.01072 0.01876-0.0079 0.01459-0.0039 0.0073-0.0069 0.01151-0.0038 0.0072-0.0069 0.01151-0.0038 0.0073-0.0088 0.01252-0.0039 0.0072-0.0088 0.01253-0.0039 0.0073-0.0088 0.01253-0.0039 0.0073-0.0088 0.01252-0.0038 0.0072-0.0088 0.01252-0.0038 0.0073-0.0088 0.01252-0.0038 0.0073-0.0088 0.01252-0.0038 0.0073-0.0088 0.01252-0.0039 0.0073-0.0088 0.01252-0.0039 0.0073-0.01087 0.01365-0.0038 0.0073-0.01088 0.01363-0.0039 0.0073-0.0098 0.01576-0.0039 0.0073-0.0098 0.01576-0.0038 0.0073-0.0098 0.01576-0.0059 0.0084-0.0098 0.01576-0.0059 0.0084-0.01182 0.01671-0.0059 0.0083-0.01182 0.01671-0.0059 0.0083-0.01182 0.01671-0.0059 0.0084-0.01189 0.01671-0.0059 0.0084-0.01181 0.0167-0.0099 0.01054-0.01876 0.02309c-0.5562 0.71028-1.4533 1.2945-2.543 1.5743-0.68718 0.17741-2.7635 0.72045-3.2687 0.84939l-1.4138-5.5003c0.50442-0.13099 2.5862-0.65369 3.2733-0.8311 1.0897-0.27971 2.1595-0.20035 2.9864 0.15274l0.02696 0.01151 0.01348 0.0058 0.0197 0.0079 0.0093 0.0028 0.01766 0.0087 0.0093 0.0027 0.01765 0.0087 0.0093 0.0028 0.01765 0.0087 0.0073 0.0039 0.01766 0.0087 0.0073 0.0038 0.01766 0.0087 0.0072 0.0038 0.01766 0.0087 0.0073 0.0039 0.01458 0.0079 0.0072 0.0038 0.01459 0.0079 0.0072 0.0038 0.01459 0.0079 0.0073 0.0039 0.01459 0.0079 0.0072 0.0039 0.01459 0.0079 0.0073 0.0038 0.01458 0.0079 0.0073 0.0038 0.01459 0.0079 0.0072 0.0039 0.01459 0.0079 0.0073 0.0039 0.01459 0.0079 0.0073 0.0039 0.01253 0.0088 0.0073 0.0038 0.01253 0.0088 0.0073 0.0039 0.01252 0.0088 0.0073 0.0038 0.01252 0.0088 0.0073 0.0039 0.01252 0.0088 0.0073 0.0038 0.01151 0.0069 0.0073 0.0039 0.01252 0.0088 0.01671 0.01182c0.01252 0.0088 0.02711 0.01663 0.0394 0.02546a2.2204 2.2204 0 0 1 0.87114 1.1691l0.0043 0.0079c0.0045 0.01317 0.0079 0.02435 0.01238 0.03752l9.14e-4 0.0021 0.0066 0.01206c0.0047 0.01829 0.0093 0.03657 0.01506 0.0569 0.01016 0.0045 0.01182 0.02696 0.0086 0.0547z" fill="#ffffff" stroke-width=".078815"/>
</svg>
