<svg width="64" height="64" version="1.1" viewBox="0 0 16.933 16.933" xmlns="http://www.w3.org/2000/svg">
 <circle cx="8.467" cy="8.4704" r="7.1438" fill="#666666" stroke="#424242" stroke-width=".52916" style="paint-order:stroke markers fill"/>
 <circle cx="8.467" cy="8.4704" r="7.1438" fill="#666666" stroke-width="1.0385" style="paint-order:stroke markers fill"/>
 <path d="m8.467 4.23a4.234 4.234 0 1 0 0 8.467 4.234 4.234 0 0 0 0-8.467zm0 0.353a3.882 3.882 0 0 1 3.735 2.826 6.733 6.733 0 0 1-1.645 2.145c-0.33 0.285-0.689 0.54-1.086 0.719-0.398 0.179-0.835 0.28-1.27 0.255a2.197 2.197 0 0 1-0.936-0.268 7.061 7.061 0 0 0 2.004-1.616c0.368-0.43 0.69-0.92 0.813-1.473a2 2 0 0 0 0.015-0.843 1.558 1.558 0 0 0-0.38-0.748 1.526 1.526 0 0 0-0.705-0.418 1.854 1.854 0 0 0-0.823-0.03c-0.545 0.1-1.03 0.416-1.42 0.809-0.688 0.692-1.113 1.67-1.035 2.642 0.04 0.486 0.202 0.964 0.482 1.364 0.062 0.089 0.13 0.174 0.204 0.255a6.348 6.348 0 0 1-1.255 0.3 3.88 3.88 0 0 1 3.302-5.92zm0.024 0.784c0.273 0 0.548 0.083 0.765 0.247 0.197 0.148 0.342 0.36 0.424 0.59 0.083 0.232 0.104 0.484 0.076 0.728-0.057 0.488-0.303 0.936-0.6 1.327a5.723 5.723 0 0 1-2.25 1.75 2.004 2.004 0 0 1-0.425-0.521c-0.231-0.41-0.307-0.897-0.262-1.365 0.044-0.468 0.205-0.92 0.421-1.338 0.25-0.485 0.592-0.944 1.07-1.207 0.238-0.132 0.509-0.212 0.781-0.211zm3.821 2.577a3.88 3.88 0 0 1-6.837 2.992c0.44-0.1 0.87-0.243 1.281-0.426 0.18 0.138 0.38 0.25 0.59 0.331 0.61 0.234 1.3 0.2 1.917-0.014 0.616-0.213 1.163-0.596 1.64-1.041a7.056 7.056 0 0 0 1.41-1.842z" fill="#ffffff"/>
 <circle cx="12.7" cy="12.7" r="3.175" fill="#ff5555" stroke="#df2424" stroke-width=".52916" style="paint-order:stroke markers fill"/>
 <circle cx="12.7" cy="12.7" r="3.175" fill="#ff5555" style="paint-order:stroke markers fill"/>
 <path d="m9.955 9.955h5.49v5.49h-5.49z" fill="none"/>
 <path transform="translate(9.955 9.955) scale(.22878)" d="m20.38 8.18-1.23 1.85a8 8 0 0 1-.22 7.58H5.07A8 8 0 0 1 15.58 6.46l1.85-1.23A10 10 0 0 0 3.35 18.61a2 2 0 0 0 1.72 1h13.85a2 2 0 0 0 1.74-1 10 10 0 0 0-.27-10.44zm-9.79 6.84a2 2 0 0 0 2.83 0l5.66-8.49-8.49 5.66a2 2 0 0 0 0 2.83z" fill="#fff"/>
</svg>
