<?xml version="1.0" encoding="UTF-8" standalone="no"?>
<!-- Created with Inkscape (http://www.inkscape.org/) -->

<svg
   xmlns:dc="http://purl.org/dc/elements/1.1/"
   xmlns:cc="http://creativecommons.org/ns#"
   xmlns:rdf="http://www.w3.org/1999/02/22-rdf-syntax-ns#"
   xmlns:svg="http://www.w3.org/2000/svg"
   xmlns="http://www.w3.org/2000/svg"
   xmlns:sodipodi="http://sodipodi.sourceforge.net/DTD/sodipodi-0.dtd"
   xmlns:inkscape="http://www.inkscape.org/namespaces/inkscape"
   width="64"
   height="64"
   viewBox="0 0 16.933333 16.933333"
   version="1.1"
   id="svg4572"
   inkscape:version="0.92.4 (5da689c313, 2019-01-14)"
   sodipodi:docname="empathy.svg">
  <title
     id="title4611">Canvas icon theme</title>
  <defs
     id="defs4566" />
  <sodipodi:namedview
     id="base"
     pagecolor="#ffffff"
     bordercolor="#666666"
     borderopacity="1.0"
     inkscape:pageopacity="0.0"
     inkscape:pageshadow="2"
     inkscape:zoom="8"
     inkscape:cx="9.0042349"
     inkscape:cy="16.021012"
     inkscape:document-units="px"
     inkscape:current-layer="layer1"
     showgrid="true"
     units="px"
     width="64px"
     showguides="true"
     inkscape:guide-bbox="true"
     inkscape:window-width="1366"
     inkscape:window-height="711"
     inkscape:window-x="0"
     inkscape:window-y="27"
     inkscape:window-maximized="1"
     inkscape:snap-bbox="true"
     inkscape:bbox-nodes="true"
     inkscape:snap-bbox-edge-midpoints="false"
     inkscape:snap-nodes="false"
     inkscape:snap-intersection-paths="true"
     inkscape:snap-smooth-nodes="false"
     inkscape:object-paths="false"
     inkscape:snap-object-midpoints="true"
     inkscape:snap-global="true"
     inkscape:bbox-paths="false"
     inkscape:object-nodes="false">
    <inkscape:grid
       type="xygrid"
       id="grid4582" />
    <sodipodi:guide
       position="1.0583333,15.875"
       orientation="0,1"
       id="guide4584"
       inkscape:locked="false" />
    <sodipodi:guide
       position="1.0583333,1.0583333"
       orientation="1,0"
       id="guide4586"
       inkscape:locked="false" />
    <sodipodi:guide
       position="15.875,15.875"
       orientation="1,0"
       id="guide4588"
       inkscape:locked="false" />
    <sodipodi:guide
       position="1.0583333,1.0583333"
       orientation="0,1"
       id="guide4590"
       inkscape:locked="false" />
    <sodipodi:guide
       position="8.4666665,8.4666665"
       orientation="0,1"
       id="guide822"
       inkscape:locked="false" />
    <sodipodi:guide
       position="8.4666665,8.4666665"
       orientation="1,0"
       id="guide824"
       inkscape:locked="false" />
  </sodipodi:namedview>
  <metadata
     id="metadata4569">
    <rdf:RDF>
      <cc:Work
         rdf:about="">
        <dc:format>image/svg+xml</dc:format>
        <dc:type
           rdf:resource="http://purl.org/dc/dcmitype/StillImage" />
        <dc:title>Canvas icon theme</dc:title>
        <cc:license
           rdf:resource="http://creativecommons.org/licenses/by-nc-sa/4.0/" />
        <dc:creator>
          <cc:Agent>
            <dc:title>Vince Liuice</dc:title>
          </cc:Agent>
        </dc:creator>
      </cc:Work>
      <cc:License
         rdf:about="http://creativecommons.org/licenses/by-nc-sa/4.0/">
        <cc:permits
           rdf:resource="http://creativecommons.org/ns#Reproduction" />
        <cc:permits
           rdf:resource="http://creativecommons.org/ns#Distribution" />
        <cc:requires
           rdf:resource="http://creativecommons.org/ns#Notice" />
        <cc:requires
           rdf:resource="http://creativecommons.org/ns#Attribution" />
        <cc:prohibits
           rdf:resource="http://creativecommons.org/ns#CommercialUse" />
        <cc:permits
           rdf:resource="http://creativecommons.org/ns#DerivativeWorks" />
        <cc:requires
           rdf:resource="http://creativecommons.org/ns#ShareAlike" />
      </cc:License>
    </rdf:RDF>
  </metadata>
  <g
     inkscape:label="Layer 1"
     inkscape:groupmode="layer"
     id="layer1"
     transform="translate(0,-280.06667)">
    <path
       id="path827"
       transform="matrix(0.26458333,0,0,0.26458333,0,280.06667)"
       d="M 7 22 C 6.4460103 22 6 22.44601 6 23 L 6 49 C 6 49.55399 6.4460103 50 7 50 L 15 50 L 15 55.970703 C 15 56.705065 15.28125 57.119239 16 56.970703 L 23.841797 50 L 49 50 C 49.55399 50 50 49.55399 50 49 L 50 23 C 50 22.44601 49.55399 22 49 22 L 7 22 z "
       style="opacity:0.75;fill:#5ca4ed;fill-opacity:1;stroke:#125aa2;stroke-width:1.99999999;stroke-miterlimit:4;stroke-dasharray:none;stroke-opacity:1;paint-order:stroke markers fill" />
    <path
       style="opacity:1;fill:#5ca4ed;fill-opacity:1;stroke:none;stroke-width:1.40511739;stroke-miterlimit:4;stroke-dasharray:none;stroke-opacity:0.05882353;paint-order:stroke markers fill"
       d="M 7 22 C 6.4460103 22 6 22.44601 6 23 L 6 49 C 6 49.55399 6.4460103 50 7 50 L 15 50 L 15 55.970703 C 15 56.705065 15.28125 57.119239 16 56.970703 L 23.841797 50 L 49 50 C 49.55399 50 50 49.55399 50 49 L 50 23 C 50 22.44601 49.55399 22 49 22 L 7 22 z "
       transform="matrix(0.26458333,0,0,0.26458333,0,280.06667)"
       id="rect821" />
    <g
       id="g833"
       style="opacity:0.9">
      <path
         style="opacity:0.75;fill:none;fill-opacity:1;stroke:#13a2c9;stroke-width:0.52916666;stroke-miterlimit:4;stroke-dasharray:none;stroke-opacity:1;paint-order:markers stroke fill"
         d="m 6.0854166,281.91876 c -0.1465935,0 -0.2645833,0.11799 -0.2645833,0.26458 v 5.29167 c 0,0.14659 0.1179898,0.26458 0.2645833,0.26458 H 10.16217 l 1.479497,1.31516 c 0.190169,0.0393 0.264583,-0.0703 0.264583,-0.26458 v -1.05058 h 3.175 c 0.146593,0 0.264583,-0.11799 0.264583,-0.26458 v -5.29167 c 0,-0.14659 -0.11799,-0.26458 -0.264583,-0.26458 z"
         id="path829"
         inkscape:connector-curvature="0" />
      <path
         inkscape:connector-curvature="0"
         id="rect822"
         d="m 6.0854166,281.91876 c -0.1465935,0 -0.2645833,0.11799 -0.2645833,0.26458 v 5.29167 c 0,0.14659 0.1179898,0.26458 0.2645833,0.26458 H 10.16217 l 1.479497,1.31516 c 0.190169,0.0393 0.264583,-0.0703 0.264583,-0.26458 v -1.05058 h 3.175 c 0.146593,0 0.264583,-0.11799 0.264583,-0.26458 v -5.29167 c 0,-0.14659 -0.11799,-0.26458 -0.264583,-0.26458 z"
         style="opacity:1;fill:#a0ecff;fill-opacity:1;stroke:none;stroke-width:0.52916664;stroke-miterlimit:4;stroke-dasharray:none;stroke-opacity:0.05882353;paint-order:markers stroke fill" />
    </g>
  </g>
</svg>
