<svg xmlns="http://www.w3.org/2000/svg" width="64" height="64" viewBox="0 0 16.933 16.933"><circle cx="8.466" cy="8.466" r="7.144" fill="#f9f9f9" stroke="#d8d8d8" stroke-width=".529" style="paint-order:stroke fill markers"/><circle cx="8.466" cy="8.466" r="7.144" fill="#f9f9f9" style="paint-order:stroke fill markers"/><path fill="#004b80" d="M4.452 4.735c-.1 0-.221.016-.288.084l-.83.85a.36.36 0 0 0-.112.239v5.85c0 .16.127.287.286.287h8.93c.1 0 .22-.015.287-.083l.831-.85a.36.36 0 0 0 .112-.239v-5.85a.286.286 0 0 0-.287-.288z"/><path d="m4.755 6.338-.927.927v3.339l.927.927h3.153l-1.113-1.113h-2.04v-.927h2.04V8.378h-2.04v-.927h2.04l1.113-1.113Zm4.08 0-.927.927v1.298l.927.928h2.226v.927H7.908l1.113 1.113h2.04l.927-.927V9.305l-.927-.927H8.835v-.927h2.04l1.113-1.113z" opacity=".2"/><path fill="#fff" d="m5.284 5.809-.927.927v3.339l.927.927h3.153L7.324 9.889h-2.04v-.927h2.04V7.849h-2.04V6.92h2.04l1.113-1.11Zm4.08 0-.927.927v1.298l.928.928h2.225v.927H8.437l1.113 1.113h2.04l.928-.927V8.776l-.928-.927H9.365V6.92h2.04l1.113-1.112Z"/></svg>