<svg xmlns="http://www.w3.org/2000/svg" width="64" height="64"><path fill="#c8f178" stroke="#aedb4d" stroke-width="2" d="M31.652 3.002a6.468 6.48 0 0 0-3.387.864L9.233 14.876a6.468 6.48 0 0 0-3.235 5.612v22.02a6.468 6.48 0 0 0 3.234 5.613l19.032 11.01a6.468 6.48 0 0 0 6.468 0l19.032-11.01a6.468 6.48 0 0 0 3.235-5.613v-22.02a6.468 6.48 0 0 0-3.235-5.613L34.732 3.865a6.468 6.48 0 0 0-3.08-.864z"/><path fill="#c8f178" d="M31.652 3.002a6.468 6.48 0 0 0-3.387.864L9.233 14.876a6.468 6.48 0 0 0-3.235 5.612v22.02a6.468 6.48 0 0 0 3.234 5.613l19.032 11.01a6.468 6.48 0 0 0 6.468 0l19.032-11.01a6.468 6.48 0 0 0 3.235-5.613v-22.02a6.468 6.48 0 0 0-3.235-5.613L34.732 3.865a6.468 6.48 0 0 0-3.08-.864z"/><path fill="#86bd1f" d="M31.561 9a2.57 2.57 0 0 0-1.37.355L13.328 19.27 31.5 29.852 49.67 19.27 32.808 9.355a1.887 1.93 0 0 0-.004 0 2.56 2.56 0 0 0-1.24-.353 1.887 1.93 0 0 0-.002 0V9zM11.999 21.791v19.65c0 .877.552 1.84 1.297 2.277l16.789 9.871V32.321zm39 .002-18.08 10.531v21.264l16.785-9.87c.745-.437 1.295-1.398 1.295-2.276V21.794z"/><rect width="32" height="32" x="30" y="30" fill="#f9f9f9" stroke="#d1d1d1" stroke-width="2" rx="16" ry="16"/><rect width="32" height="32" x="30" y="30" fill="#f9f9f9" rx="16" ry="16"/><path fill="#4d4d4d" d="M57.2 46a11.2 11.2 0 0 1-22.4 0 11.2 11.2 0 1 1 22.4 0"/><path fill="#fff" d="M46.112 42.267a3.73 3.73 0 0 0-3.842 3.732c0 4.978 7.466 4.978 7.466 0a3.733 3.733 0 0 0-3.624-3.732m-.109 2.985a.747.747 0 1 1 0 1.494.747.747 0 0 1 0-1.494"/></svg>