<svg xmlns="http://www.w3.org/2000/svg" width="64" height="64"><path fill="#1e3d4d" stroke="#12232b" stroke-width="2" d="M32 5c14.912 0 27 12.088 27 27S46.912 59 32 59 5 46.912 5 32 17.088 5 32 5z"/><path fill="#1e3d4d" d="M32 5c14.912 0 27 12.088 27 27S46.912 59 32 59 5 46.912 5 32 17.088 5 32 5"/><path fill="#f9f9f9" fill-rule="evenodd" d="M16.739 16.739c3.746 3.943 2.119 6.47 4.16 11.12 1.907 4.32 6.061 1.087 8.909 4.136-2.848 3.054-7.016-.193-8.924 4.122-2.054 4.65-.417 7.19-4.16 11.138 3.949-3.746 6.489-2.11 11.139-4.159 4.32-1.912 1.087-6.067 4.136-8.91 3.026 2.843-.188 7.017 4.122 8.924 4.65 2.06 7.172.4 11.12 4.15-3.746-3.948-2.09-6.475-4.15-11.125-1.907-4.306-6.066-1.105-8.91-4.132 2.844-3.031 7.003.174 8.91-4.136 2.06-4.65.4-7.176 4.15-11.125-3.948 3.75-6.47 2.096-11.12 4.155-4.31 1.903-1.096 6.076-4.123 8.919-3.054-2.843.179-6.998-4.135-8.91-4.65-2.054-7.19-.413-11.138-4.159"/></svg>