<svg xmlns="http://www.w3.org/2000/svg" width="64" height="64" viewBox="0 0 16.933 16.933"><rect width="12.965" height="13.494" x="1.984" y="1.719" fill="#005bae" stroke="#15436f" stroke-linecap="round" stroke-linejoin="round" stroke-width=".265" color="#000" overflow="visible" rx=".529" ry=".529"/><rect width="12.7" height="1.323" x="2.117" y="13.758" fill-opacity=".098" rx=".397" ry=".397"/><path fill="#fff" d="M8.21 12.17c1.762 0 2.874-.913 2.874-1.972 0-.934-.66-1.354-1.983-1.354H7.99c-.766 0-.997-.252-.997-.619 0-.315.158-.503.368-.682.251.126.566.2.85.2 1.153 0 2.077-.766 2.077-1.983 0-.493-.19-.913-.462-1.175h1.165V3.85H9.007a2.4 2.4 0 0 0-.798-.147c-1.154 0-2.14.787-2.14 2.036 0 .682.367 1.227.745 1.531v.042c-.294.21-.64.588-.64 1.06 0 .451.22.755.525.934v.042c-.535.346-.85.808-.85 1.29 0 .986.965 1.532 2.36 1.532zm0-5.078c-.661 0-1.218-.524-1.218-1.353 0-.84.546-1.333 1.217-1.333s1.207.504 1.207 1.333S8.86 7.092 8.21 7.092m.136 4.428c-1.039 0-1.658-.4-1.658-1.008 0-.335.179-.671.588-.965.252.063.524.095.734.095h.986c.756 0 1.165.178 1.165.702 0 .598-.724 1.175-1.815 1.175z" aria-label="g"/></svg>