<svg width="64" height="64" version="1.1" viewBox="0 0 16.933 16.933" xmlns="http://www.w3.org/2000/svg">
 <rect x="1.984" y="1.719" width="12.965" height="13.494" rx=".529" ry=".529" color="#000000" fill="#005bae" overflow="visible" stroke="#15436f" stroke-linecap="round" stroke-linejoin="round" stroke-width=".265"/>
 <rect x="2.117" y="13.758" width="12.7" height="1.323" rx=".397" ry=".397" fill-opacity=".098"/>
 <g fill="#ffffff" stop-color="#000000" stroke-linecap="round" stroke-linejoin="round" stroke-opacity=".26667" stroke-width="0" aria-label="g">
  <path d="m8.2095 12.17c1.7625 0 2.8746-0.91274 2.8746-1.9724 0-0.93373-0.66095-1.3534-1.9829-1.3534h-1.1121c-0.76586 0-0.99667-0.25179-0.99667-0.61899 0-0.31474 0.15737-0.50358 0.3672-0.68193 0.25179 0.1259 0.56653 0.19933 0.8498 0.19933 1.154 0 2.0773-0.76586 2.0773-1.9829 0-0.49309-0.18884-0.91274-0.46162-1.175h1.1645v-0.73439h-1.9829c-0.19933-0.073439-0.4826-0.14688-0.79734-0.14688-1.154 0-2.1402 0.78685-2.1402 2.0353 0 0.68193 0.3672 1.2275 0.74488 1.5317v0.041965c-0.29376 0.20983-0.63997 0.58751-0.63997 1.0596 0 0.45113 0.22032 0.75537 0.52456 0.93373v0.041965c-0.53506 0.34621-0.8498 0.80783-0.8498 1.2904 0 0.98618 0.9652 1.5317 2.3605 1.5317zm0-5.0778c-0.66095 0-1.217-0.52456-1.217-1.3534 0-0.8393 0.54555-1.3324 1.217-1.3324s1.2065 0.50358 1.2065 1.3324-0.55604 1.3534-1.2065 1.3534zm0.13639 4.4273c-1.0386 0-1.6576-0.39867-1.6576-1.0072 0-0.33572 0.17835-0.67144 0.58751-0.9652 0.25179 0.062948 0.52456 0.094422 0.73439 0.094422h0.98618c0.75537 0 1.1645 0.17835 1.1645 0.70292 0 0.598-0.7239 1.175-1.815 1.175z"/>
 </g>
</svg>
