<svg xmlns="http://www.w3.org/2000/svg" width="64" height="64" viewBox="0 0 16.933 16.933"><g transform="translate(-62.706 -208.1)"><g transform="translate(62.706 207.97)scale(.1323)"><rect width="96" height="100" x="16" y="15" fill="#f5f5f5" overflow="visible" rx="2.982" ry="2.982"/><rect width="98" height="102" x="15" y="14" fill="none" stroke="#4f6698" stroke-linecap="round" stroke-linejoin="round" stroke-opacity=".267" stroke-width="2" overflow="visible" rx="4" ry="4"/></g><rect width="12.7" height="1.323" x="64.823" y="221.86" fill-opacity=".051" rx=".397" ry=".397"/></g><path fill="#6c748c" d="m7.425 7.126.099.595-.96.53v2.579q0 .496-.165.694-.165.199-.562.199-.463 0-.86-.1l-.132-.694q.43.132.893.132.165 0 .165-.397V8.581q-.529.231-1.124.463l-.232-.695q.728-.264 1.356-.529V6.134H4.812v-.629h1.091V4.116h.662v1.39h.926v.628h-.926v1.422q.43-.232.86-.43m3.307-3.01.727.199q-.363.727-.727 1.29h1.389v.628h-.926v1.786h1.19v.628h-1.19v3.076h-.662V8.647H9.078q-.231 2.117-1.587 3.109l-.463-.496q1.157-.86 1.356-2.613H7.359V8.02h1.09q.034-.265.034-.563V6.233h-.86v-.629h2.414q.397-.694.695-1.488m-.199 3.903V6.233H9.144v1.323q0 .231-.033.463zM8.748 4.215q.396.463.595 1.026l-.695.231q-.198-.595-.562-1.058z" aria-label="拼"/></svg>