<svg width="64" height="64" version="1.1" viewBox="0 0 16.933 16.933" xmlns="http://www.w3.org/2000/svg">
 <g transform="translate(-62.706 -208.1)">
  <g transform="translate(62.706 207.97) scale(.1323)">
   <rect x="16" y="15" width="96" height="100" rx="2.982" ry="2.982" fill="#f5f5f5" overflow="visible"/>
   <rect x="15" y="14" width="98" height="102" rx="4" ry="4" fill="none" overflow="visible" stroke="#4f6698" stroke-linecap="round" stroke-linejoin="round" stroke-opacity=".267" stroke-width="2"/>
  </g>
  <rect x="64.823" y="221.86" width="12.7" height="1.323" rx=".397" ry=".397" fill-opacity=".051"/>
 </g>
 <g transform="translate(0 .26208)" fill="#6c748c" stop-color="#000000" stroke-linecap="round" stroke-linejoin="round" stroke-opacity=".26667" stroke-width="0" aria-label="拼">
  <path d="m7.4247 6.8637 0.099217 0.5953-0.9591 0.52916v2.5796q0 0.49608-0.16536 0.69452-0.16536 0.19843-0.56223 0.19843-0.46301 0-0.85988-0.09922l-0.13229-0.69451q0.42994 0.13229 0.89295 0.13229 0.16536 0 0.16536-0.39687v-2.0836q-0.52916 0.23151-1.1245 0.46301l-0.23151-0.69452q0.72759-0.26458 1.356-0.52916v-1.6867h-1.0914v-0.62837h1.0914v-1.389h0.66145v1.389h0.92602v0.62837h-0.92602v1.4221q0.42994-0.23151 0.85988-0.42994zm3.3072-3.0096 0.72759 0.19843q-0.3638 0.72759-0.72759 1.2898h1.389v0.62837h-0.92602v1.7859h1.1906v0.62837h-1.1906v3.0757h-0.66144v-3.0757h-1.4552q-0.23151 2.1166-1.5875 3.1088l-0.46301-0.49608q1.1575-0.85988 1.356-2.6127h-1.0252v-0.62837h1.0914q0.033072-0.26458 0.033072-0.56223v-1.2237h-0.85988v-0.62837h2.4143q0.39687-0.69452 0.69452-1.4883zm-0.19843 3.9025v-1.7859h-1.389v1.3229q0 0.23151-0.033072 0.46301zm-1.7859-3.8033q0.39687 0.46301 0.5953 1.0252l-0.69452 0.23151q-0.19843-0.5953-0.56223-1.0583z"/>
 </g>
</svg>
