<svg xmlns="http://www.w3.org/2000/svg" width="64" height="64" viewBox="0 0 16.933 16.933"><rect width="14.287" height="13.229" x="1.323" y="1.852" fill="#f5f5f5" stroke="#4f6698" stroke-opacity=".267" stroke-width=".529" color="#000" overflow="visible" rx=".529" ry=".529"/><rect width="14.287" height="13.229" x="1.323" y="1.852" fill="#f5f5f5" color="#000" overflow="visible" rx=".529" ry=".529"/><rect width="14.286" height="1.323" x="1.324" y="13.758" fill-opacity=".051" rx=".529" ry=".529"/><g fill="#6c748c"><rect width="1.587" height="1.587" x="2.381" y="4.498" rx=".265" ry=".265"/><rect width="1.587" height="1.587" x="5.027" y="4.498" rx=".265" ry=".265"/><rect width="1.587" height="1.587" x="7.673" y="4.498" rx=".265" ry=".265"/><rect width="1.587" height="1.587" x="10.319" y="4.498" rx=".265" ry=".265"/><rect width="1.587" height="4.233" x="12.964" y="4.498" rx=".265" ry=".265"/><rect width="1.587" height="1.587" x="2.381" y="7.144" rx=".265" ry=".265"/><rect width="1.587" height="1.587" x="5.027" y="7.144" rx=".265" ry=".265"/><rect width="1.587" height="1.587" x="7.673" y="7.144" rx=".265" ry=".265"/><rect width="1.587" height="1.587" x="10.319" y="7.144" rx=".265" ry=".265"/><rect width="6.879" height="1.587" x="2.381" y="9.789" rx=".265" ry=".265"/><rect width="4.233" height="1.587" x="10.319" y="9.789" rx=".265" ry=".265"/></g></svg>