<svg width="64" height="64" version="1.1" viewBox="0 0 16.933 16.933" xmlns="http://www.w3.org/2000/svg">
 <g transform="translate(-62.706 -208.1)">
  <g transform="translate(62.706 207.97) scale(.1323)">
   <rect x="16" y="15" width="96" height="100" rx="2.982" ry="2.982" fill="#f5f5f5" overflow="visible"/>
   <rect x="15" y="14" width="98" height="102" rx="4" ry="4" fill="none" overflow="visible" stroke="#4f6698" stroke-linecap="round" stroke-linejoin="round" stroke-opacity=".267" stroke-width="2"/>
  </g>
  <rect x="64.823" y="221.86" width="12.7" height="1.323" rx=".397" ry=".397" fill-opacity=".051"/>
 </g>
 <g fill="#6c748c" stop-color="#000000" stroke="#15436f" stroke-linecap="round" stroke-linejoin="round" stroke-width="0" aria-label="åŒ">
  <path d="m8.1786 10.336c-0.24539-0.51909-0.64178-1.1609-1.1042-1.8404 0.46246-1.1797 0.78335-2.5954 0.9438-4.2565l-0.44359-0.12269-0.11326 0.028314h-3.0579v0.6701h2.8786c-0.15101 1.1042-0.38696 2.0952-0.69841 2.9918-0.50965-0.69841-1.0571-1.3874-1.5761-2.0009l-0.51909 0.38696c0.60403 0.70785 1.2364 1.5667 1.7838 2.3878-0.5474 1.2836-1.293 2.2746-2.1424 2.8975 0.17932 0.11326 0.3964 0.38696 0.50965 0.5474 0.8211-0.65122 1.5384-1.5667 2.0952-2.7465 0.35864 0.56628 0.66066 1.0948 0.84942 1.529zm3.4637-5.5212c-0.24539 1.5195-0.68897 2.8031-1.2836 3.8507-0.50021-1.0948-0.83054-2.4067-1.0287-3.8507zm0.31145-0.69841-0.12269 0.028314h-3.4071v0.6701h0.22651c0.2737 1.746 0.66066 3.2844 1.2647 4.5397-0.65122 0.93436-1.4534 1.6328-2.3595 2.0764 0.16988 0.13213 0.37752 0.41527 0.4719 0.59459 0.86829-0.48134 1.6328-1.1231 2.2746-1.9631 0.51909 0.83054 1.1797 1.5006 2.0009 1.9914 0.11326-0.17932 0.33033-0.45302 0.50021-0.58516-0.85886-0.46246-1.5384-1.1703-2.0575-2.048 0.8211-1.3024 1.3968-3.0013 1.6611-5.172z"/>
 </g>
</svg>
