<svg xmlns="http://www.w3.org/2000/svg" width="64" height="64" viewBox="0 0 16.933 16.933"><g transform="translate(-62.706 -208.1)"><g transform="translate(62.706 207.97)scale(.1323)"><rect width="96" height="100" x="16" y="15" fill="#f5f5f5" overflow="visible" rx="2.982" ry="2.982"/><rect width="98" height="102" x="15" y="14" fill="none" stroke="#4f6698" stroke-linecap="round" stroke-linejoin="round" stroke-opacity=".267" stroke-width="2" overflow="visible" rx="4" ry="4"/></g><rect width="12.7" height="1.323" x="64.823" y="221.86" fill-opacity=".051" rx=".397" ry=".397"/></g><path fill="#6c748c" d="M8.179 10.336c-.246-.52-.642-1.16-1.105-1.84.463-1.18.784-2.596.944-4.257l-.443-.123-.114.029H4.403v.67h2.879a15.5 15.5 0 0 1-.698 2.992 36 36 0 0 0-1.576-2.001l-.52.387A26 26 0 0 1 6.272 8.58c-.547 1.284-1.293 2.275-2.142 2.898.18.113.396.387.51.547.82-.65 1.538-1.566 2.095-2.746.358.566.66 1.095.85 1.529zm3.463-5.521c-.245 1.52-.689 2.803-1.283 3.85-.5-1.094-.83-2.406-1.029-3.85zm.312-.699-.123.029H8.424v.67h.226c.274 1.746.661 3.284 1.265 4.54-.651.934-1.453 1.632-2.36 2.076.17.132.378.415.473.594a7.25 7.25 0 0 0 2.274-1.963c.52.83 1.18 1.501 2.001 1.992.113-.18.33-.453.5-.585-.859-.463-1.538-1.17-2.057-2.048.82-1.303 1.397-3.002 1.66-5.172z" aria-label="双"/></svg>