<?xml version="1.0" encoding="UTF-8" standalone="no"?>
<!-- Created with Inkscape (http://www.inkscape.org/) -->

<svg
   xmlns:dc="http://purl.org/dc/elements/1.1/"
   xmlns:cc="http://creativecommons.org/ns#"
   xmlns:rdf="http://www.w3.org/1999/02/22-rdf-syntax-ns#"
   xmlns:svg="http://www.w3.org/2000/svg"
   xmlns="http://www.w3.org/2000/svg"
   xmlns:sodipodi="http://sodipodi.sourceforge.net/DTD/sodipodi-0.dtd"
   xmlns:inkscape="http://www.inkscape.org/namespaces/inkscape"
   width="64"
   height="64"
   viewBox="0 0 16.933333 16.933333"
   version="1.1"
   id="svg4572"
   inkscape:version="0.92.4 (5da689c313, 2019-01-14)"
   sodipodi:docname="file-roller.svg">
  <title
     id="title4611">Canvas icon theme</title>
  <defs
     id="defs4566" />
  <sodipodi:namedview
     id="base"
     pagecolor="#ffffff"
     bordercolor="#666666"
     borderopacity="1.0"
     inkscape:pageopacity="0.0"
     inkscape:pageshadow="2"
     inkscape:zoom="2.8"
     inkscape:cx="-40.51992"
     inkscape:cy="65.132451"
     inkscape:document-units="px"
     inkscape:current-layer="layer1"
     showgrid="true"
     units="px"
     width="64px"
     showguides="true"
     inkscape:guide-bbox="true"
     inkscape:window-width="1366"
     inkscape:window-height="718"
     inkscape:window-x="0"
     inkscape:window-y="24"
     inkscape:window-maximized="1"
     inkscape:snap-bbox="true"
     inkscape:bbox-nodes="true"
     inkscape:snap-bbox-edge-midpoints="true">
    <inkscape:grid
       type="xygrid"
       id="grid4582" />
    <sodipodi:guide
       position="1.0583333,1.0583333"
       orientation="1,0"
       id="guide4586"
       inkscape:locked="false" />
    <sodipodi:guide
       position="15.875,15.875"
       orientation="1,0"
       id="guide4588"
       inkscape:locked="false" />
    <sodipodi:guide
       position="1.0583333,1.0583333"
       orientation="0,1"
       id="guide4590"
       inkscape:locked="false" />
    <sodipodi:guide
       position="8.4666665,8.4666665"
       orientation="0,1"
       id="guide822"
       inkscape:locked="false" />
    <sodipodi:guide
       position="8.4666665,8.4666665"
       orientation="1,0"
       id="guide824"
       inkscape:locked="false" />
  </sodipodi:namedview>
  <metadata
     id="metadata4569">
    <rdf:RDF>
      <cc:Work
         rdf:about="">
        <dc:format>image/svg+xml</dc:format>
        <dc:type
           rdf:resource="http://purl.org/dc/dcmitype/StillImage" />
        <dc:title>Canvas icon theme</dc:title>
        <cc:license
           rdf:resource="http://creativecommons.org/licenses/by-nc-sa/4.0/" />
        <dc:creator>
          <cc:Agent>
            <dc:title>Vince Liuice</dc:title>
          </cc:Agent>
        </dc:creator>
      </cc:Work>
      <cc:License
         rdf:about="http://creativecommons.org/licenses/by-nc-sa/4.0/">
        <cc:permits
           rdf:resource="http://creativecommons.org/ns#Reproduction" />
        <cc:permits
           rdf:resource="http://creativecommons.org/ns#Distribution" />
        <cc:requires
           rdf:resource="http://creativecommons.org/ns#Notice" />
        <cc:requires
           rdf:resource="http://creativecommons.org/ns#Attribution" />
        <cc:prohibits
           rdf:resource="http://creativecommons.org/ns#CommercialUse" />
        <cc:permits
           rdf:resource="http://creativecommons.org/ns#DerivativeWorks" />
        <cc:requires
           rdf:resource="http://creativecommons.org/ns#ShareAlike" />
      </cc:License>
    </rdf:RDF>
  </metadata>
  <g
     inkscape:label="Layer 1"
     inkscape:groupmode="layer"
     id="layer1"
     transform="translate(0,-280.06667)">
    <rect
       ry="0.7937451"
       rx="0.79374975"
       y="281.65417"
       x="1.5875003"
       height="13.758332"
       width="13.758332"
       id="rect835"
       style="opacity:0.75;fill:none;fill-opacity:1;stroke:#446d17;stroke-width:0.52916664;stroke-linecap:round;stroke-linejoin:round;stroke-miterlimit:4;stroke-dasharray:none;stroke-opacity:1;paint-order:markers stroke fill" />
    <rect
       style="opacity:1;fill:#8bc34a;fill-opacity:1;stroke:none;stroke-width:0.2362351;stroke-linecap:round;stroke-linejoin:round;stroke-miterlimit:4;stroke-dasharray:none;stroke-opacity:0.09803922;paint-order:markers stroke fill"
       id="rect841"
       width="13.758332"
       height="13.758332"
       x="1.5875003"
       y="281.65417"
       rx="0.79374975"
       ry="0.7937451" />
    <path
       inkscape:connector-curvature="0"
       style="opacity:0.3;fill:#000000;fill-opacity:1;stroke-width:0.26458332"
       d="m 7.9374999,281.65312 v 2.0805 0.1297 2.07843 0.002 2.59881 c 0,0.28607 0.2368021,0.51987 0.5291667,0.51987 0.2923646,0 0.5291667,-0.2338 0.5291667,-0.51987 v -2.5988 -0.002 -2.07842 -0.12971 -2.08049 H 8.7265991 c 6.879e-4,0.008 0.00465,0.0156 0.00465,0.0243 v 6.83266 c 0,0.15946 -0.1180045,0.28784 -0.2645834,0.28784 -0.1465789,0 -0.2645833,-0.12838 -0.2645833,-0.28784 v -6.83266 c 0,-0.009 0.00397,-0.0158 0.00465,-0.0243 z"
       id="path14" />
    <path
       inkscape:connector-curvature="0"
       style="opacity:0.3;fill:#000000;stroke-width:0.26458332"
       d="m 8.4666666,281.65416 v 0.26458 h 0.2645833 v -0.26458 z m 0,0.26458 H 8.2020833 v 0.26458 h 0.2645833 z m 0,0.26458 v 0.26459 h 0.2645833 v -0.26459 z m 0,0.26459 H 8.2020833 v 0.26458 h 0.2645833 z m 0,0.26458 v 0.26458 h 0.2645833 v -0.26458 z m 0,0.26458 H 8.2020833 v 0.26459 h 0.2645833 z m 0,0.26459 v 0.26458 h 0.2645833 v -0.26458 z m 0,0.26458 H 8.2020833 v 0.26458 h 0.2645833 z m 0,0.26458 v 0.26459 h 0.2645833 v -0.26459 z m 0,0.26459 H 8.2020833 v 0.26458 h 0.2645833 z m 0,0.26458 v 0.26458 h 0.2645833 v -0.26458 z m 0,0.26458 H 8.2020833 v 0.26459 h 0.2645833 z m 0,0.26459 v 0.26458 h 0.2645833 v -0.26458 z m 0,0.26458 H 8.2020833 v 0.26458 h 0.2645833 z m 0,0.26458 v 0.26459 h 0.2645833 v -0.26459 z m 0,0.26459 H 8.2020833 v 0.26458 h 0.2645833 z m 0,0.26458 v 0.26458 h 0.2645833 v -0.26458 z m 0,0.26458 H 8.2020833 v 0.26459 h 0.2645833 z m 0,0.26459 v 0.26458 h 0.2645833 v -0.26458 z m 0,0.26458 H 8.2020833 v 0.26458 h 0.2645833 z m 0,0.26458 v 0.26459 h 0.2645833 v -0.26459 z m 0,0.26459 H 8.2020833 v 0.26458 h 0.2645833 z m 0,0.26458 v 0.26458 h 0.2645833 v -0.26458 z m 0,0.26458 H 8.2020833 v 0.26459 h 0.2645833 z m 0,0.26459 v 0.26458 h 0.2645833 v -0.26458 z m 0,0.26458 H 8.2020833 v 0.26458 h 0.2645833 z m 0,0.26458 v 0.26459 c 0.14605,0 0.2645833,-0.13229 0.2645833,-0.26459 z"
       id="path16" />
    <path
       inkscape:connector-curvature="0"
       style="fill:#ffffff;stroke:#000000;stroke-width:0.26458332;stroke-miterlimit:4;stroke-dasharray:none;stroke-opacity:0.25490196;paint-order:fill markers stroke"
       d="m 8.4666671,286.41667 c -0.5849051,0 -1.0583336,0.47624 -1.0583336,1.05833 v 2.11667 c 0,0.58208 0.4736039,1.05833 1.0583336,1.05833 0.5847289,0 1.0583328,-0.47625 1.0583328,-1.05833 V 287.475 c 0,-0.58209 -0.4734282,-1.05833 -1.0583328,-1.05833 z m 0,0.52915 c 0.2921,0 0.5291669,0.21167 0.5291669,0.52918 0,0.26457 -0.2370669,0.52916 -0.5291669,0.52916 -0.2921005,0 -0.5291677,-0.26459 -0.5291677,-0.52916 0,-0.31751 0.2370672,-0.52918 0.5291677,-0.52918 z m 0,1.58751 c 0.2922514,0 0.5291669,0.23691 0.5291669,0.52916 v 0.52918 c 0,0.29224 -0.2369155,0.52915 -0.5291669,0.52915 -0.292251,0 -0.5291677,-0.23691 -0.5291677,-0.52915 v -0.52918 c 0,-0.29225 0.2369167,-0.52916 0.5291677,-0.52916 z"
       id="path20-3" />
    <path
       inkscape:connector-curvature="0"
       style="opacity:0.25;fill:#ffffff;stroke-width:0.26458332"
       d="m 8.2020833,281.91874 v 0.26458 h 0.2645833 v -0.26458 z m 0,0.52917 v 0.26458 h 0.2645833 v -0.26458 z m 0,0.52916 v 0.26459 h 0.2645833 v -0.26459 z m 0,0.52917 v 0.26458 h 0.2645833 v -0.26458 z m 0,0.52917 v 0.26458 h 0.2645833 v -0.26458 z m 0,0.52916 v 0.26459 h 0.2645833 v -0.26459 z m 0,0.52917 v 0.26458 h 0.2645833 v -0.26458 z m 0,0.52917 v 0.26458 h 0.2645833 v -0.26458 z m 0,0.52916 v 0.26459 h 0.2645833 v -0.26459 z m 0,0.52917 v 0.26458 h 0.2645833 v -0.26458 z m 0,0.52917 v 0.26458 h 0.2645833 v -0.26458 z m 0,0.52916 v 0.26459 h 0.2645833 v -0.26459 z"
       id="path18" />
  </g>
</svg>
