<svg xmlns="http://www.w3.org/2000/svg" width="64" height="64" viewBox="0 0 16.933 16.933"><g transform="translate(0 -280.067)"><rect width="13.758" height="13.758" x="1.588" y="281.654" fill="none" stroke="#446d17" stroke-linecap="round" stroke-linejoin="round" stroke-width=".529" opacity=".75" paint-order="markers stroke fill" rx=".794" ry=".794"/><rect width="13.758" height="13.758" x="1.588" y="281.654" fill="#8bc34a" paint-order="markers stroke fill" rx=".794" ry=".794"/><path d="M7.937 281.653v6.89c0 .286.237.52.53.52a.525.525 0 0 0 .529-.52v-6.89h-.27q.003.012.005.024v6.833c0 .16-.118.288-.264.288s-.265-.128-.265-.288v-6.833q.002-.012.005-.024z" opacity=".3"/><path d="M8.467 281.654v.265h.264v-.265zm0 .265h-.265v.264h.265zm0 .264v.265h.264v-.265zm0 .265h-.265v.264h.265zm0 .264v.265h.264v-.265zm0 .265h-.265v.265h.265zm0 .265v.264h.264v-.264zm0 .264h-.265v.265h.265zm0 .265v.264h.264v-.264zm0 .264h-.265v.265h.265zm0 .265v.265h.264v-.265zm0 .265h-.265v.264h.265zm0 .264v.265h.264v-.265zm0 .265h-.265v.264h.265zm0 .264v.265h.264v-.265zm0 .265h-.265v.264h.265zm0 .264v.265h.264v-.265zm0 .265h-.265v.265h.265zm0 .265v.264h.264v-.264zm0 .264h-.265v.265h.265zm0 .265v.264h.264v-.264zm0 .264h-.265v.265h.265zm0 .265v.265h.264v-.265zm0 .265h-.265v.264h.265zm0 .264v.265h.264v-.265zm0 .265h-.265v.264h.265zm0 .264v.265a.274.274 0 0 0 .264-.265z" opacity=".3"/><path fill="#fff" stroke="#000" stroke-opacity=".255" stroke-width=".265" d="M8.467 286.417a1.06 1.06 0 0 0-1.059 1.058v2.117a1.06 1.06 0 0 0 1.059 1.058 1.06 1.06 0 0 0 1.058-1.058v-2.117a1.06 1.06 0 0 0-1.058-1.058zm0 .529c.292 0 .529.211.529.529 0 .265-.237.53-.53.53a.55.55 0 0 1-.529-.53c0-.318.238-.53.53-.53zm0 1.587a.53.53 0 0 1 .529.53v.529a.53.53 0 0 1-1.059 0v-.53a.53.53 0 0 1 .53-.529z" paint-order="fill markers stroke"/><path fill="#fff" d="M8.202 281.919v.264h.265v-.264zm0 .529v.264h.265v-.264zm0 .53v.264h.265v-.265zm0 .528v.265h.265v-.265zm0 .53v.264h.265v-.265zm0 .529v.264h.265v-.264zm0 .529v.264h.265v-.264zm0 .529v.264h.265v-.264zm0 .53v.264h.265v-.265zm0 .528v.265h.265v-.265zm0 .53v.264h.265v-.265zm0 .529v.264h.265v-.264z" opacity=".25"/></g></svg>