<?xml version="1.0" encoding="UTF-8" standalone="no"?>
<svg
   xmlns:dc="http://purl.org/dc/elements/1.1/"
   xmlns:cc="http://creativecommons.org/ns#"
   xmlns:rdf="http://www.w3.org/1999/02/22-rdf-syntax-ns#"
   xmlns:svg="http://www.w3.org/2000/svg"
   xmlns="http://www.w3.org/2000/svg"
   xmlns:sodipodi="http://sodipodi.sourceforge.net/DTD/sodipodi-0.dtd"
   xmlns:inkscape="http://www.inkscape.org/namespaces/inkscape"
   width="64"
   height="64"
   version="1"
   id="svg12"
   sodipodi:docname="filezilla.svg"
   inkscape:version="0.92.4 (5da689c313, 2019-01-14)">
  <metadata
     id="metadata18">
    <rdf:RDF>
      <cc:Work
         rdf:about="">
        <dc:format>image/svg+xml</dc:format>
        <dc:type
           rdf:resource="http://purl.org/dc/dcmitype/StillImage" />
      </cc:Work>
    </rdf:RDF>
  </metadata>
  <defs
     id="defs16" />
  <sodipodi:namedview
     pagecolor="#ffffff"
     bordercolor="#666666"
     borderopacity="1"
     objecttolerance="10"
     gridtolerance="10"
     guidetolerance="10"
     inkscape:pageopacity="0"
     inkscape:pageshadow="2"
     inkscape:window-width="1366"
     inkscape:window-height="711"
     id="namedview14"
     showgrid="true"
     inkscape:zoom="5.2149125"
     inkscape:cx="58.183198"
     inkscape:cy="28.945369"
     inkscape:window-x="0"
     inkscape:window-y="27"
     inkscape:window-maximized="1"
     inkscape:current-layer="svg12">
    <inkscape:grid
       type="xygrid"
       id="grid828" />
  </sodipodi:namedview>
  <rect
     id="rect822"
     transform="matrix(0,-1,-1,0,0,0)"
     ry="3.1199999"
     rx="3.1199999"
     y="-58"
     x="-58"
     height="52"
     width="52"
     style="fill:#e4453b;fill-opacity:1;stroke-width:2;stroke:#971c15;stroke-opacity:1;stroke-miterlimit:4;stroke-dasharray:none;opacity:0.75" />
  <rect
     style="fill:#e4453b;fill-opacity:1;stroke-width:0.89285713"
     width="52"
     height="52"
     x="-58"
     y="-58"
     rx="3.1199999"
     ry="3.1199999"
     transform="matrix(0,-1,-1,0,0,0)"
     id="rect4" />
  <path
     style="fill:#ffffff;stroke-width:0.88885385"
     d="M 22.104481,15.730595 15.36,45.311465 h 5.48063 L 24.024291,32.369753 H 38.98491 l -14.010512,11.693595 3.65326,4.206056 1.871002,-0.963233 c 3.537709,-1.818976 5.021568,-0.755389 7.705679,-0.01072 2.611269,0.724662 5.065941,1.50024 10.159059,-1.435458 l -1.011413,-5.181492 c -5.55828,3.95203 -7.316689,0.426042 -11.275373,0.286068 L 47.410223,32.11445 48.64,27.747714 H 24.899354 l 1.528231,-7.395265 h 15.56056 l 1.067118,-4.620911 H 22.106329 Z"
     id="path10"
     inkscape:connector-curvature="0" />
</svg>
