<svg xmlns="http://www.w3.org/2000/svg" width="64" height="64" viewBox="0 0 16.933 16.933"><path fill="#fff" fill-opacity=".976" stroke="#000" stroke-opacity=".268" stroke-width=".529" d="M3.175 282.45c-.293 0-.265.264-.265.53H1.852c-.265 0-.265 0-.265.264v5.556c0 .293.237.53.53.53h12.7a.53.53 0 0 0 .529-.53v-5.556c0-.265 0-.265-.265-.265H7.673c0-.265.028-.53-.265-.53z" style="paint-order:markers stroke fill" transform="translate(0 -280.07)"/><path fill="#fff" fill-opacity=".976" d="M3.175 282.45c-.293 0-.265.264-.265.53H1.852c-.265 0-.265 0-.265.264v5.556c0 .293.237.53.53.53h12.7a.53.53 0 0 0 .529-.53v-5.556c0-.265 0-.265-.265-.265H7.673c0-.265.028-.53-.265-.53z" style="paint-order:markers stroke fill" transform="translate(0 -280.07)"/><path fill="none" stroke="#003779" stroke-opacity=".561" stroke-width=".529" d="M8.467 284.3c-.293 0-.382.276-.53.53l-.308.528H.794c-.265 0-.265.265-.265.265v8.996c0 .264.265.264.265.264H16.14c.264 0 .264-.264.264-.264v-10.054c0-.265-.264-.265-.264-.265z" style="paint-order:markers stroke fill" transform="translate(0 -280.07)"/><path fill="#6ba4e7" d="M8.467 284.3c-.293 0-.382.276-.53.53l-.308.528H.794c-.265 0-.265.265-.265.265v8.996c0 .264.265.264.265.264H16.14c.264 0 .264-.264.264-.264v-10.054c0-.265-.264-.265-.264-.265z" style="paint-order:markers stroke fill" transform="translate(0 -280.07)"/><path d="M8.16 7.673v.721a1.7 1.7 0 0 0-.65.27L7 8.153l-.434.435.51.509a1.7 1.7 0 0 0-.27.65h-.72v.614h.72a1.7 1.7 0 0 0 .269.65l-.509.508.434.436.51-.51a1.7 1.7 0 0 0 .65.27v.72h.614v-.72a1.7 1.7 0 0 0 .65-.269l.509.509.435-.436-.51-.508a1.7 1.7 0 0 0 .27-.65h.72v-.615h-.72a1.7 1.7 0 0 0-.27-.65l.51-.508-.435-.434-.508.509a1.7 1.7 0 0 0-.651-.27v-.721zm.307 1.46a.92.92 0 0 1 .921.922.92.92 0 0 1-.922.921.92.92 0 0 1-.922-.922.92.92 0 0 1 .923-.921" opacity=".15" style="paint-order:stroke markers fill"/></svg>