<svg xmlns="http://www.w3.org/2000/svg" width="64" height="64"><rect width="54" height="54" x="5" y="5" fill="#8f3380" stroke="#66225b" stroke-width="2" rx="27"/><rect width="54" height="54" x="5" y="5" fill="#8f3380" rx="27"/><path fill="#fff" d="M31.704 13.622c-3.631-.017-6.745.657-9.577 2.075-.942.472-1.089.638-1.028 1.147.125 1.04.662 1.14 2.252.427 2.956-1.326 4.395-1.61 8.124-1.613 4.28-.004 5.855.363 9.365 2.18.603.312 2.512 1.786 3.225.994.706-.706.333-1.29-1.484-2.323-3.585-2.038-6.716-2.867-10.877-2.887m-.11 4.203c-4.792-.004-9.58 1.89-13.092 5.682-1.358 1.467-2.942 3.872-2.942 4.467 0 .693.286 1.076.804 1.076.406 0 .82-.439 1.803-1.917 2.2-3.307 5.053-5.5 8.728-6.713 2.85-.93 6.187-.823 9.394 0 4.142 1.36 7.694 4.393 9.64 8.229.424.834.677 1.089 1.092 1.089.714 0 1.134-.532.939-1.192-.315-1.065-1.994-3.645-3.265-5.018-3.516-3.798-8.31-5.7-13.102-5.703zm.226 4.174a14 14 0 0 0-3.093.295c-4.92 1.029-9.032 5.013-10.349 10.027-.698 2.661-.377 7.007.775 10.484.345 1.04.511 1.256 1.005 1.313 1.135.132 1.246-.408.567-2.758-1.944-6.723-.27-12.443 4.55-15.56 4.768-3.084 11.324-2.172 15.053 2.093 2.338 2.672 3.62 7.192 2.6 9.165-.674 1.303-2.315 2.087-3.663 1.748-.985-.247-2.152-1.457-2.302-2.386-.527-3.277-1.271-4.56-3.156-5.437-1.607-.748-2.947-.728-4.524.071-1.47.745-2.596 2.247-2.824 3.768-.083.548-.046 1.734.081 2.634.796 5.607 4.807 10.042 10.315 11.406.693.172 1.826.293 2.518.27l1.26-.043c.713-.361.752-1.193 0-1.603l-1.782-.272c-2.243-.342-3.172-.637-4.714-1.505-3.354-1.888-5.756-5.98-5.756-9.804 0-1.684.638-2.669 2.125-3.285 1.075-.445 1.09-.445 2.165 0 1.36.564 2.014 1.507 2.183 3.14.31 2.998 2.39 4.97 5.242 4.97 2.289 0 4.215-1.485 4.899-3.775.668-2.242-.23-6.006-2.115-8.87a13.48 13.48 0 0 0-11.06-6.086m-.148 4.343c-1.425.018-2.89.28-4.092.748-1.852.908-3.617 2.719-4.53 4.646-.694 1.467-.736 1.695-.735 4.185 0 3.063.37 4.69 1.69 7.44 1.136 2.37 2.711 4.438 4.461 5.854 1.517 1.228 1.678 1.287 2.31.825.646-.472.286-1.284-1.02-2.286-1.417-1.086-2.947-3.05-3.98-5.11-1.695-3.383-2.123-7.565-1.017-9.959.802-1.737 2.026-3.033 3.586-3.8 1.874-.92 4.612-.92 6.486 0 2.237 1.1 3.667 3.1 4.174 5.844.302 1.638.76 2.182 1.458 1.732.324-.209.394-.556.364-1.804-.073-3.032-2.198-6.077-5.303-7.601-1.042-.507-2.427-.733-3.852-.715z"/><path fill="#fff" d="M38.007 44.771c-3.913-.854-6.93-4.301-7.268-8.308-.107-1.266-.07-1.433.369-1.668.835-.447 1.317.022 1.485 1.443.42 3.575 3.046 6.27 6.58 6.753 1.728.237 2.284.9 1.451 1.733-.417.417-.881.426-2.617.047"/></svg>