<svg xmlns="http://www.w3.org/2000/svg" width="64" height="64" viewBox="0 0 16.933 16.933"><defs><linearGradient id="a"><stop offset="0" stop-color="#3889e9"/><stop offset="1" stop-color="#5ea5fb"/></linearGradient><linearGradient id="b" gradientTransform="matrix(.39833 .40706 -.40644 .39773 -309.896 275.612)" gradientUnits="userSpaceOnUse" x1="506.529" x2="453.21" y1="405.259" y2="-182.13"><stop offset="0" stop-color="#3bbfff"/><stop offset="1" stop-color="#0576f4"/></linearGradient></defs><g transform="matrix(.02956 0 0 .02957 18.523 -4.907)" stroke-width=".946"><circle r="229.937" cy="467.428" cx="-340.243" opacity=".9" fill="#4370e2" stroke="#163072" stroke-width="17.899"/><text x="1805.556" y="-3485.39" stroke-width=".807"></text><text x="2373.907" y="-3601.292" stroke-width=".807"></text><text x="4904.97" y="-4233.029" stroke-width=".807"></text><circle cx="-340.243" cy="470.238" r="232.75" fill="#2a55c4"/><path d="M-96.785 457.295c5.706-64.502-63.312-161.888-92.074-209.452-7.262 5.31-11.337 18.374-11.337 18.374-42.783-33.865-38.603-41.925-56.582-65.784-133.28 195.742 135.708 179.852 20.175 339.979-1.896 1.191-1.838-9.383-11.701-24.628-12.539 59.796-93.523 98.227-156.044 40.47 18.51 4.023 53.651-.625 69.206-12.18.02-.01.04-.03.059-.04 16.891-11.531 26.894-19.952 35.877-17.96 8.988 2.003 14.972-7.004 7.99-14.994-6.989-8.006-23.96-19.01-46.92-13.014-16.191 4.234-36.259 22.123-66.887 4.01-23.509-13.909-25.723-25.463-25.931-33.465.58-2.837 1.311-5.486 2.179-7.906 2.706-7.546 10.911-9.823 15.475-11.62 7.742 1.327 14.412 3.738 21.416 7.325a121.5 121.5 0 0 0-.01-8.92c.672-1.333.257-5.351-.82-10.263-.62-4.902-1.628-9.974-3.216-14.594.006-.001.01-.005.01-.007.03-.01.05-.02.08-.03a.28.28 0 0 0 .098-.089c.006-.01.01-.02.02-.02a.855.855 0 0 0 .099-.222c.485-2.195 5.726-6.43 12.248-10.984 5.845-4.08 12.716-8.415 18.13-11.77 4.79-2.971 8.438-5.175 9.214-5.753.293-.223.646-.481 1.03-.778.07-.06.143-.11.216-.17.05-.039.09-.068.137-.106 2.576-2.049 6.422-5.919 7.228-14.065l.006-.059.06-.73c.01-.171.019-.345.039-.52.007-.136.02-.27.02-.407l.03-.982.001-.059c.01-.789-.003-1.61-.05-2.473-.029-.482-.059-.917-.14-1.313-.004-.02-.01-.04-.01-.07a2.767 2.767 0 0 0-.03-.115l-.06-.204c-.002-.01-.005-.02-.008-.02-.02-.079-.05-.15-.08-.221l-.002-.008c-.836-1.953-3.963-2.69-16.88-2.91h-.039c-5.27-.09-12.162-.09-21.194-.06-15.835.06-24.587-15.456-27.38-21.46 3.829-21.142 14.895-36.208 33.074-46.424.343-.194.276-.354-.13-.465 3.554-2.148-42.98-.06-64.383 27.122-18.996-4.714-35.553-4.397-49.822-1.053-2.74-.08-6.155-.418-10.208-1.261-9.49-8.586-23.076-24.443-23.804-43.372 0 0-.04.04-.12.1-.01-.183-.029-.362-.039-.544 0 0-28.915 22.19-24.588 82.685-.01.968-.03 1.895-.059 2.793-7.825 10.599-11.709 19.507-11.997 21.473-6.932 14.097-13.969 35.31-19.695 67.516 0 0 4.005-12.68 12.042-27.041-5.676 63.408-.627 105.018 31.488 161.987 74.01 115.05 190.802 136.302 286.27 101.508 95.469-34.793 169.612-125.63 158.322-234.757z" fill="#3bbfff" stroke="#067cd9" stroke-width="8.949" stroke-opacity=".784"/><path d="M-553.67 366.699c12.388-22.87 24.028-37.875 49.292-42.351-14.21-13.548-18.256-21.078-24.799-44.238-25.273 27.338-25.106 55.74-24.493 86.589zm157.511 57.181c14.73-19.37 60.78-29.855 47.258-56.557-31.717-8.083-51.594 6.958-64.2-22.81-10.884 41.95 3.772 62.16 16.942 79.367zm-26.476 27.394c-62.018 6.163-51.32 39.466-46.93 72.782l15.879-13.23c11.143 32.406 76.924 27.224 113.391 15.884 16.612-5.165 31.374-3.895 37.8-1.262 18.097 3.883 16.887-11.45 8.975-16.014-43.315-49.31-83.318 45.463-136.705-35.027-3.264-4.921-.05-12.986 7.59-23.133z" fill="#1d97f8" fill-rule="evenodd"/><path d="M-167.267 325.287c28.195 96.919-2.411 65.29.903 142.737-18.945-7.805-13.956-43.784-7.915-44.086-78.386 61.668-48.87 117.73-77.979 140.875-85.625 65.067-69.92 55.242-71.255 57.01 22.133 39.758 53.841 53.01 78.365 61.983 120.393-41.968 173.925-151.799 143.695-268.371-5.796-30.287-18.339-64.163-65.814-90.148z" fill="url(#b)"/></g></svg>