<svg xmlns="http://www.w3.org/2000/svg" width="64" height="64"><path fill="#aecc8f" stroke="#85a762" stroke-width="2" d="M32 5c14.912 0 27 12.088 27 27S46.912 59 32 59 5 46.912 5 32 17.088 5 32 5z"/><path fill="#aecc8f" d="M32 5c14.912 0 27 12.088 27 27S46.912 59 32 59 5 46.912 5 32 17.088 5 32 5"/><path fill="#464646" d="M17.913 16.739c-.65 0-1.174.524-1.174 1.174v28.174c0 .65.524 1.174 1.174 1.174h28.174c.65 0 1.174-.524 1.174-1.174V17.913c0-.65-.524-1.174-1.174-1.174zm1.174 2.348h4.696v4.696h-4.696zm7.043 0h4.696v4.696H26.13zm7.044 0h4.696v4.696h-4.696zm7.043 0h4.696v4.696h-4.696zm-21.13 21.13h4.696v4.696h-4.696zm7.044 0h4.696v4.696H26.13zm7.043 0h4.696v4.696h-4.696zm7.044 0h4.696v4.696h-4.696z"/><path fill="#fff" d="M20.261 35.522v-7.043c1.916 0 1.875 4.695 3.913 4.695s1.876-4.696 3.914-4.696 1.874 4.696 3.912 4.696 1.875-4.696 3.913-4.696 1.875 4.696 3.913 4.696 2.07-4.696 3.913-4.696v7.044z"/></svg>