<?xml version="1.0" encoding="UTF-8" standalone="no"?>
<!-- Created with Inkscape (http://www.inkscape.org/) -->

<svg
   xmlns:dc="http://purl.org/dc/elements/1.1/"
   xmlns:cc="http://creativecommons.org/ns#"
   xmlns:rdf="http://www.w3.org/1999/02/22-rdf-syntax-ns#"
   xmlns:svg="http://www.w3.org/2000/svg"
   xmlns="http://www.w3.org/2000/svg"
   xmlns:xlink="http://www.w3.org/1999/xlink"
   xmlns:sodipodi="http://sodipodi.sourceforge.net/DTD/sodipodi-0.dtd"
   xmlns:inkscape="http://www.inkscape.org/namespaces/inkscape"
   width="64"
   height="64"
   viewBox="0 0 16.933333 16.933333"
   version="1.1"
   id="svg4572"
   inkscape:version="0.92.4 (5da689c313, 2019-01-14)"
   sodipodi:docname="fonts.svg">
  <title
     id="title4611">Canvas icon theme</title>
  <defs
     id="defs4566">
    <linearGradient
       gradientTransform="matrix(0.23673246,0,0,0.23673246,-0.47369799,286.45846)"
       gradientUnits="userSpaceOnUse"
       xlink:href="#linearGradient4632-92-3-0-8-1-6"
       id="linearGradient3348"
       y2="29.999983"
       x2="49.5"
       y1="29.999983"
       x1="30.5" />
    <linearGradient
       id="linearGradient4632-92-3-0-8-1-6">
      <stop
         id="stop4634-68-8-0-2-9-1"
         style="stop-color:#fafafa;stop-opacity:1"
         offset="0" />
      <stop
         id="stop4636-8-21-7-1-4-9"
         style="stop-color:#e1e1e1;stop-opacity:1"
         offset="1" />
    </linearGradient>
  </defs>
  <sodipodi:namedview
     id="base"
     pagecolor="#ffffff"
     bordercolor="#666666"
     borderopacity="1.0"
     inkscape:pageopacity="0.0"
     inkscape:pageshadow="2"
     inkscape:zoom="2.8"
     inkscape:cx="-19.715363"
     inkscape:cy="21.921669"
     inkscape:document-units="px"
     inkscape:current-layer="layer1"
     showgrid="true"
     units="px"
     width="64px"
     showguides="true"
     inkscape:guide-bbox="true"
     inkscape:window-width="1366"
     inkscape:window-height="711"
     inkscape:window-x="0"
     inkscape:window-y="27"
     inkscape:window-maximized="1"
     inkscape:snap-bbox="true"
     inkscape:bbox-nodes="true"
     inkscape:snap-bbox-edge-midpoints="true"
     inkscape:snap-nodes="false">
    <inkscape:grid
       type="xygrid"
       id="grid4582" />
    <sodipodi:guide
       position="1.0583333,15.875"
       orientation="0,1"
       id="guide4584"
       inkscape:locked="false" />
    <sodipodi:guide
       position="1.0583333,1.0583333"
       orientation="1,0"
       id="guide4586"
       inkscape:locked="false" />
    <sodipodi:guide
       position="15.875,15.875"
       orientation="1,0"
       id="guide4588"
       inkscape:locked="false" />
    <sodipodi:guide
       position="1.0583333,1.0583333"
       orientation="0,1"
       id="guide4590"
       inkscape:locked="false" />
    <sodipodi:guide
       position="8.4666665,8.4666665"
       orientation="0,1"
       id="guide822"
       inkscape:locked="false" />
    <sodipodi:guide
       position="8.4666665,8.4666665"
       orientation="1,0"
       id="guide824"
       inkscape:locked="false" />
  </sodipodi:namedview>
  <metadata
     id="metadata4569">
    <rdf:RDF>
      <cc:Work
         rdf:about="">
        <dc:format>image/svg+xml</dc:format>
        <dc:type
           rdf:resource="http://purl.org/dc/dcmitype/StillImage" />
        <dc:title>Canvas icon theme</dc:title>
        <cc:license
           rdf:resource="http://creativecommons.org/licenses/by-nc-sa/4.0/" />
        <dc:creator>
          <cc:Agent>
            <dc:title>Vince Liuice</dc:title>
          </cc:Agent>
        </dc:creator>
      </cc:Work>
      <cc:License
         rdf:about="http://creativecommons.org/licenses/by-nc-sa/4.0/">
        <cc:permits
           rdf:resource="http://creativecommons.org/ns#Reproduction" />
        <cc:permits
           rdf:resource="http://creativecommons.org/ns#Distribution" />
        <cc:requires
           rdf:resource="http://creativecommons.org/ns#Notice" />
        <cc:requires
           rdf:resource="http://creativecommons.org/ns#Attribution" />
        <cc:prohibits
           rdf:resource="http://creativecommons.org/ns#CommercialUse" />
        <cc:permits
           rdf:resource="http://creativecommons.org/ns#DerivativeWorks" />
        <cc:requires
           rdf:resource="http://creativecommons.org/ns#ShareAlike" />
      </cc:License>
    </rdf:RDF>
  </metadata>
  <g
     inkscape:label="Layer 1"
     inkscape:groupmode="layer"
     id="layer1"
     transform="translate(0,-280.06667)">
    <g
       id="g876"
       transform="matrix(1.3589744,0,0,1.3589744,-0.16282049,-106.80041)"
       style="stroke-width:0.73584902">
      <rect
         style="color:#000000;display:inline;overflow:visible;visibility:visible;fill:#f2f2f2;fill-opacity:1;fill-rule:nonzero;stroke:none;stroke-width:0.19469337;marker:none;enable-background:accumulate"
         id="rect5505-6"
         y="-295.93301"
         x="1.3229166"
         ry="0.39687499"
         rx="0.39687499"
         height="10.054167"
         width="10.054167"
         transform="scale(1,-1)" />
      <rect
         style="color:#000000;display:inline;overflow:visible;visibility:visible;opacity:0.35;vector-effect:none;fill:none;fill-opacity:1;fill-rule:nonzero;stroke:#555761;stroke-width:0.19469337;stroke-linecap:round;stroke-linejoin:round;stroke-miterlimit:4;stroke-dasharray:none;stroke-dashoffset:0;stroke-opacity:1;marker:none;enable-background:accumulate"
         id="rect5505-21"
         y="285.74658"
         x="1.190625"
         ry="0.52916664"
         rx="0.52916664"
         height="10.318749"
         width="10.318749" />
      <g
         transform="matrix(0.26458333,0,0,0.26458333,-1.298875e-4,284.42609)"
         id="text7620"
         style="font-style:normal;font-variant:normal;font-weight:bold;font-stretch:normal;font-size:24px;line-height:125%;font-family:'Open Sans';-inkscape-font-specification:'Open Sans Bold';text-align:center;letter-spacing:0px;word-spacing:0px;text-anchor:middle;opacity:0.6;fill:#000000;fill-opacity:1;stroke:none;stroke-width:0.73584902">
        <path
           style="fill:#000000;fill-opacity:1;stroke-width:0.73584902"
           d="m 22.025391,32.484394 -1.242188,-4.078125 h -6.246094 l -1.242187,4.078125 H 9.3808594 L 15.427734,15.281269 h 4.441407 l 6.070312,17.203125 h -3.914062 m -2.109375,-7.125 c -1.148447,-3.695302 -1.796884,-5.785143 -1.945313,-6.269531 -0.140633,-0.484361 -0.242196,-0.867173 -0.304687,-1.148438 -0.257821,1.000014 -0.996101,3.472668 -2.214844,7.417969 h 4.464844"
           id="path3369"
           inkscape:connector-curvature="0" />
        <path
           style="fill:#000000;fill-opacity:1;stroke-width:0.73584902"
           d="m 36.123047,32.484394 -0.691406,-1.78125 h -0.09375 c -0.601572,0.757814 -1.222665,1.285157 -1.863282,1.582031 -0.632819,0.289063 -1.460943,0.433594 -2.484375,0.433594 -1.257816,0 -2.250002,-0.359375 -2.976562,-1.078125 -0.718751,-0.718748 -1.078126,-1.742185 -1.078125,-3.070312 -1e-6,-1.39062 0.484373,-2.414057 1.453125,-3.070313 0.976559,-0.664055 2.445307,-1.031242 4.40625,-1.101562 l 2.273437,-0.07031 v -0.574219 c -9e-6,-1.328115 -0.679696,-1.992176 -2.039062,-1.992187 -1.046881,1.1e-5 -2.277349,0.316416 -3.691406,0.949219 l -1.183594,-2.414063 c 1.507809,-0.789049 3.179682,-1.18358 5.015625,-1.183594 1.757803,1.4e-5 3.105458,0.382826 4.042969,1.148438 0.937487,0.765636 1.406237,1.929698 1.40625,3.492187 v 8.730469 h -2.496094 m -1.054688,-6.070312 -1.382812,0.04687 c -1.039069,0.03126 -1.812506,0.218755 -2.320313,0.5625 -0.507817,0.343755 -0.761723,0.867192 -0.761718,1.570312 -5e-6,1.007815 0.578119,1.511721 1.734375,1.511719 0.828117,2e-6 1.488273,-0.238279 1.980468,-0.714844 0.499991,-0.476559 0.749991,-1.109371 0.75,-1.898437 V 26.41408"
           id="path3371"
           inkscape:connector-curvature="0" />
      </g>
    </g>
    <g
       id="g869"
       transform="matrix(1.3478261,0,0,1.34776,-0.21811422,-103.40975)"
       style="stroke-width:0.74195367">
      <path
         d="m 12.038204,293.56079 a 3.0427085,3.0427085 0 0 1 -6.0854167,0 3.0427085,3.0427085 0 1 1 6.0854167,0 z"
         id="path4218"
         style="color:#000000;display:inline;overflow:visible;visibility:visible;fill:#747e93;fill-opacity:1;fill-rule:nonzero;stroke:none;stroke-width:0.15522075;marker:none;enable-background:accumulate"
         inkscape:connector-curvature="0" />
      <path
         d="m 12.038204,293.56099 a 3.0427083,3.0421065 0 0 1 -6.0854162,0 3.0427083,3.0421066 0 1 1 6.0854162,0 z"
         id="path7624"
         style="opacity:0.3;fill:none;stroke:#000000;stroke-width:0.19630855;stroke-miterlimit:4;stroke-dasharray:none;stroke-opacity:1"
         inkscape:connector-curvature="0" />
      <rect
         width="4.4979167"
         height="4.4979167"
         rx="6.614583"
         ry="6.614583"
         x="6.7466426"
         y="291.31146"
         id="rect8115"
         style="color:#000000;display:inline;overflow:visible;visibility:visible;fill:url(#linearGradient3348);fill-opacity:1;fill-rule:nonzero;stroke:none;stroke-width:0.19630857;marker:none;enable-background:accumulate" />
      <path
         id="path3366"
         d="m 8.9958331,291.31145 c -0.7191999,0 -1.3562075,0.33559 -1.767334,0.85783 -0.00222,0.0347 -0.00465,0.069 -0.00465,0.10542 -3e-7,0.39532 0.1069697,0.70021 0.3209107,0.91415 0.2162649,0.21394 0.5113372,0.32091 0.885734,0.32091 0.3046309,0 0.5511271,-0.0431 0.7394898,-0.12919 0.1906836,-0.0884 0.3754265,-0.2452 0.554488,-0.47077 h 0.027905 l 0.206189,0.5302 h 0.7425904 v -1.34566 c -0.41182,-0.47904 -1.0211469,-0.78289 -1.7053229,-0.78289 z m 0.6485393,0.32142 v 0.32091 c -2.7e-6,0.23488 -0.074417,0.42349 -0.2232422,0.56534 -0.1465051,0.14186 -0.3431339,0.21291 -0.5896282,0.21291 -0.3441665,0 -0.5162489,-0.15012 -0.5162476,-0.4501 -1.3e-6,-0.20929 0.075705,-0.36535 0.2268596,-0.46767 0.151152,-0.10232 0.3816284,-0.15813 0.6909139,-0.16743 l 0.4113445,-0.014 z m -2.8447875,1.44539 c -0.025461,0.11729 -0.040529,0.23828 -0.047026,0.36174 h 0.1746665 z"
         style="color:#000000;font-style:normal;font-variant:normal;font-weight:bold;font-stretch:normal;font-size:medium;line-height:125%;font-family:'Open Sans';-inkscape-font-specification:'Open Sans Bold';text-align:center;letter-spacing:0px;word-spacing:0px;text-anchor:middle;clip-rule:nonzero;display:inline;overflow:visible;visibility:visible;opacity:0.6;isolation:auto;mix-blend-mode:normal;color-interpolation:sRGB;color-interpolation-filters:linearRGB;solid-color:#000000;solid-opacity:1;fill:#000000;fill-opacity:1;fill-rule:nonzero;stroke:none;stroke-width:0.19630857;stroke-linecap:butt;stroke-linejoin:miter;stroke-miterlimit:4;stroke-dasharray:none;stroke-dashoffset:0;stroke-opacity:1;color-rendering:auto;image-rendering:auto;shape-rendering:auto;text-rendering:auto;enable-background:accumulate"
         inkscape:connector-curvature="0" />
      <rect
         width="4.4979167"
         height="4.4979167"
         rx="6.614583"
         ry="6.614583"
         x="6.7466426"
         y="291.31146"
         id="rect12723"
         style="color:#000000;display:inline;overflow:visible;visibility:visible;opacity:0.1;fill:#000000;fill-opacity:1;fill-rule:nonzero;stroke:none;stroke-width:0.19630857;marker:none;enable-background:accumulate" />
      <path
         d="m 11.244557,293.56141 a 2.2489581,2.2487529 0 0 1 -4.4979155,0 2.2489583,2.2487531 0 1 1 4.4979155,0 z"
         id="path8113"
         style="opacity:0.3;fill:none;stroke:#000000;stroke-width:0.1963086;stroke-miterlimit:4;stroke-dasharray:none;stroke-opacity:1"
         inkscape:connector-curvature="0" />
      <rect
         width="1.8520833"
         height="2.1166666"
         rx="6.614583"
         ry="6.614583"
         x="291.70828"
         y="-10.054037"
         transform="rotate(90)"
         id="rect12733"
         style="color:#000000;display:inline;overflow:visible;visibility:visible;opacity:0.25;fill:#ffffff;fill-opacity:1;fill-rule:nonzero;stroke:none;stroke-width:0.19630857;marker:none;enable-background:accumulate" />
    </g>
  </g>
</svg>
