<svg xmlns="http://www.w3.org/2000/svg" xmlns:xlink="http://www.w3.org/1999/xlink" width="64" height="64" viewBox="0 0 16.933 16.933"><defs><linearGradient xlink:href="#a" id="b" x1="30.5" x2="49.5" y1="30" y2="30" gradientTransform="translate(-.474 286.458) scale(.23673)" gradientUnits="userSpaceOnUse"/><linearGradient id="a"><stop offset="0" stop-color="#fafafa"/><stop offset="1" stop-color="#e1e1e1"/></linearGradient></defs><g stroke-width=".736" transform="translate(-.163 -386.867) scale(1.35897)"><rect width="10.054" height="10.054" x="1.323" y="-295.933" fill="#f2f2f2" color="#000" overflow="visible" rx=".397" ry=".397" style="marker:none" transform="scale(1 -1)"/><rect width="10.319" height="10.319" x="1.191" y="285.747" fill="none" stroke="#555761" stroke-linecap="round" stroke-linejoin="round" stroke-width=".195" color="#000" opacity=".35" overflow="visible" rx=".529" ry=".529" style="marker:none"/><path d="m5.827 293.02-.328-1.078H3.846l-.329 1.079H2.482l1.6-4.552h1.175l1.606 4.552H5.827m-.558-1.885c-.304-.978-.475-1.53-.514-1.66a5.212 5.212 0 0 1-.081-.303c-.068.265-.264.919-.586 1.963h1.181m4.288 1.884-.183-.47H9.35c-.16.2-.324.34-.493.418-.168.077-.387.115-.658.115-.332 0-.595-.095-.787-.285-.19-.19-.285-.461-.285-.813 0-.368.128-.638.384-.812.258-.176.647-.273 1.166-.291l.601-.02v-.151c0-.351-.18-.527-.54-.527-.276 0-.602.084-.976.251l-.313-.639a2.818 2.818 0 0 1 1.327-.313c.465 0 .822.101 1.07.304.248.203.372.51.372.924v2.31h-.66m-.28-1.606-.365.012c-.275.008-.48.058-.614.149-.135.091-.202.23-.202.416 0 .266.153.4.459.4.219 0 .394-.064.524-.19a.662.662 0 0 0 .198-.502v-.285" font-family="Open Sans" font-size="24" font-weight="700" letter-spacing="0" opacity=".6" text-anchor="middle" word-spacing="0"/></g><g stroke-width=".742" transform="matrix(1.34783 0 0 1.34776 -.218 -383.476)"><path fill="#747e93" d="M12.038 293.56a3.043 3.043 0 0 1-6.085 0 3.043 3.043 0 1 1 6.085 0z" color="#000" overflow="visible" style="marker:none"/><path fill="none" stroke="#000" stroke-width=".196" d="M12.038 293.561a3.043 3.042 0 0 1-6.085 0 3.043 3.042 0 1 1 6.085 0z" opacity=".3"/><rect width="4.498" height="4.498" x="6.747" y="291.311" fill="url(#b)" color="#000" overflow="visible" rx="6.615" ry="6.615" style="marker:none"/><path d="M8.996 291.311c-.72 0-1.356.336-1.768.858-.002.035-.004.07-.004.106 0 .395.107.7.32.914.217.214.512.32.886.32.305 0 .552-.042.74-.128.19-.089.375-.246.554-.471h.028l.207.53h.742v-1.346a2.24 2.24 0 0 0-1.705-.783zm.648.322v.32a.745.745 0 0 1-.223.566c-.146.142-.343.213-.59.213-.344 0-.516-.15-.516-.45 0-.21.076-.365.227-.468.151-.102.382-.158.691-.167l.411-.014zM6.8 293.078c-.026.118-.04.239-.047.362h.174z" color="#000" font-family="Open Sans" font-weight="700" letter-spacing="0" opacity=".6" overflow="visible" style="line-height:125%;-inkscape-font-specification:&quot;Open Sans Bold&quot;;text-align:center;isolation:auto;mix-blend-mode:normal;solid-color:#000;solid-opacity:1" text-anchor="middle" word-spacing="0"/><rect width="4.498" height="4.498" x="6.747" y="291.311" color="#000" opacity=".1" overflow="visible" rx="6.615" ry="6.615" style="marker:none"/><path fill="none" stroke="#000" stroke-width=".196" d="M11.245 293.561a2.249 2.249 0 0 1-4.498 0 2.249 2.249 0 1 1 4.498 0z" opacity=".3"/><rect width="1.852" height="2.117" x="291.708" y="-10.054" fill="#fff" color="#000" opacity=".25" overflow="visible" rx="6.615" ry="6.615" style="marker:none" transform="rotate(90)"/></g></svg>