<?xml version="1.0" encoding="UTF-8" standalone="no"?>
<!-- Created with Inkscape (http://www.inkscape.org/) -->

<svg
   xmlns:dc="http://purl.org/dc/elements/1.1/"
   xmlns:cc="http://creativecommons.org/ns#"
   xmlns:rdf="http://www.w3.org/1999/02/22-rdf-syntax-ns#"
   xmlns:svg="http://www.w3.org/2000/svg"
   xmlns="http://www.w3.org/2000/svg"
   xmlns:sodipodi="http://sodipodi.sourceforge.net/DTD/sodipodi-0.dtd"
   xmlns:inkscape="http://www.inkscape.org/namespaces/inkscape"
   width="64"
   height="64"
   viewBox="0 0 16.933333 16.933333"
   version="1.1"
   id="svg4572"
   inkscape:version="0.92.4 (5da689c313, 2019-01-14)"
   sodipodi:docname="four-in-a-row.svg">
  <title
     id="title4611">Canvas icon theme</title>
  <defs
     id="defs4566" />
  <sodipodi:namedview
     id="base"
     pagecolor="#ffffff"
     bordercolor="#666666"
     borderopacity="1.0"
     inkscape:pageopacity="0.0"
     inkscape:pageshadow="2"
     inkscape:zoom="3.959798"
     inkscape:cx="1.908377"
     inkscape:cy="50.031144"
     inkscape:document-units="px"
     inkscape:current-layer="layer1"
     showgrid="true"
     units="px"
     width="64px"
     showguides="true"
     inkscape:guide-bbox="true"
     inkscape:window-width="1159"
     inkscape:window-height="706"
     inkscape:window-x="207"
     inkscape:window-y="32"
     inkscape:window-maximized="0"
     inkscape:snap-bbox="true"
     inkscape:bbox-nodes="true"
     inkscape:snap-bbox-edge-midpoints="true"
     inkscape:snap-nodes="false">
    <inkscape:grid
       type="xygrid"
       id="grid4582" />
    <sodipodi:guide
       position="1.0583333,15.875"
       orientation="0,1"
       id="guide4584"
       inkscape:locked="false" />
    <sodipodi:guide
       position="1.0583333,1.0583333"
       orientation="1,0"
       id="guide4586"
       inkscape:locked="false" />
    <sodipodi:guide
       position="15.875,15.875"
       orientation="1,0"
       id="guide4588"
       inkscape:locked="false" />
    <sodipodi:guide
       position="1.0583333,1.0583333"
       orientation="0,1"
       id="guide4590"
       inkscape:locked="false" />
    <sodipodi:guide
       position="8.4666665,8.4666665"
       orientation="0,1"
       id="guide822"
       inkscape:locked="false" />
    <sodipodi:guide
       position="8.4666665,8.4666665"
       orientation="1,0"
       id="guide824"
       inkscape:locked="false" />
  </sodipodi:namedview>
  <metadata
     id="metadata4569">
    <rdf:RDF>
      <cc:Work
         rdf:about="">
        <dc:format>image/svg+xml</dc:format>
        <dc:type
           rdf:resource="http://purl.org/dc/dcmitype/StillImage" />
        <dc:title>Canvas icon theme</dc:title>
        <cc:license
           rdf:resource="http://creativecommons.org/licenses/by-nc-sa/4.0/" />
        <dc:creator>
          <cc:Agent>
            <dc:title>Vince Liuice</dc:title>
          </cc:Agent>
        </dc:creator>
      </cc:Work>
      <cc:License
         rdf:about="http://creativecommons.org/licenses/by-nc-sa/4.0/">
        <cc:permits
           rdf:resource="http://creativecommons.org/ns#Reproduction" />
        <cc:permits
           rdf:resource="http://creativecommons.org/ns#Distribution" />
        <cc:requires
           rdf:resource="http://creativecommons.org/ns#Notice" />
        <cc:requires
           rdf:resource="http://creativecommons.org/ns#Attribution" />
        <cc:prohibits
           rdf:resource="http://creativecommons.org/ns#CommercialUse" />
        <cc:permits
           rdf:resource="http://creativecommons.org/ns#DerivativeWorks" />
        <cc:requires
           rdf:resource="http://creativecommons.org/ns#ShareAlike" />
      </cc:License>
    </rdf:RDF>
  </metadata>
  <g
     inkscape:label="Layer 1"
     inkscape:groupmode="layer"
     id="layer1"
     transform="translate(0,-280.06667)">
    <circle
       r="7.1437497"
       cy="288.53333"
       cx="8.4666662"
       id="circle28"
       style="opacity:0.9;fill:#8144a3;fill-opacity:1;stroke:#4e2365;stroke-width:0.52916658;stroke-miterlimit:4;stroke-dasharray:none;stroke-opacity:1;paint-order:stroke markers fill" />
    <circle
       style="opacity:1;fill:#8144a3;fill-opacity:1;stroke:none;stroke-width:0.49136901;stroke-miterlimit:4;stroke-dasharray:none;stroke-opacity:0.03921569;paint-order:stroke markers fill"
       id="path13"
       cx="8.4666662"
       cy="288.53333"
       r="7.1437497" />
    <g
       id="g886"
       transform="translate(0.52916655,0.7937465)">
      <path
         inkscape:connector-curvature="0"
         id="path10610-8-4-5"
         d="m 11.90625,290.91459 a 0.79374997,0.79374997 0 0 1 -0.79375,0.79375 0.79374997,0.79374997 0 0 1 -0.79375,-0.79375 0.79374997,0.79374997 0 0 1 0.79375,-0.79375 0.79374997,0.79374997 0 0 1 0.79375,0.79375 z"
         style="fill:#ffffff;stroke-width:0.26458332" />
      <path
         style="fill:#ffffff;stroke-width:0.26458332"
         d="m 9.7895832,290.91459 a 0.79374997,0.79374997 0 0 1 -0.79375,0.79375 0.79374997,0.79374997 0 0 1 -0.79375,-0.79375 0.79374997,0.79374997 0 0 1 0.79375,-0.79375 0.79374997,0.79374997 0 0 1 0.79375,0.79375 z"
         id="path855"
         inkscape:connector-curvature="0" />
      <path
         inkscape:connector-curvature="0"
         id="path857"
         d="m 7.6729165,290.91459 a 0.79374997,0.79374997 0 0 1 -0.79375,0.79375 0.79374997,0.79374997 0 0 1 -0.79375,-0.79375 0.79374997,0.79374997 0 0 1 0.79375,-0.79375 0.79374997,0.79374997 0 0 1 0.79375,0.79375 z"
         style="fill:#ff5555;fill-opacity:1;stroke-width:0.26458332" />
      <path
         style="fill:#ffffff;stroke-width:0.26458332"
         d="m 5.5562499,290.91459 a 0.79374997,0.79374997 0 0 1 -0.79375,0.79375 0.79374997,0.79374997 0 0 1 -0.79375,-0.79375 0.79374997,0.79374997 0 0 1 0.79375,-0.79375 0.79374997,0.79374997 0 0 1 0.79375,0.79375 z"
         id="path859"
         inkscape:connector-curvature="0" />
      <path
         style="fill:#ff5555;fill-opacity:1;stroke-width:0.26458332"
         d="m 11.90625,288.79792 a 0.79374997,0.79374997 0 0 1 -0.79375,0.79375 0.79374997,0.79374997 0 0 1 -0.79375,-0.79375 0.79374997,0.79374997 0 0 1 0.79375,-0.79375 0.79374997,0.79374997 0 0 1 0.79375,0.79375 z"
         id="path861"
         inkscape:connector-curvature="0" />
      <path
         inkscape:connector-curvature="0"
         id="path863"
         d="m 9.7895832,288.79792 a 0.79374997,0.79374997 0 0 1 -0.79375,0.79375 0.79374997,0.79374997 0 0 1 -0.79375,-0.79375 0.79374997,0.79374997 0 0 1 0.79375,-0.79375 0.79374997,0.79374997 0 0 1 0.79375,0.79375 z"
         style="fill:#ff5555;fill-opacity:1;stroke-width:0.26458332" />
      <path
         style="fill:#ffffff;stroke-width:0.26458332"
         d="m 7.6729165,288.79792 a 0.79374997,0.79374997 0 0 1 -0.79375,0.79375 0.79374997,0.79374997 0 0 1 -0.79375,-0.79375 0.79374997,0.79374997 0 0 1 0.79375,-0.79375 0.79374997,0.79374997 0 0 1 0.79375,0.79375 z"
         id="path865"
         inkscape:connector-curvature="0" />
      <path
         inkscape:connector-curvature="0"
         id="path867"
         d="m 5.5562499,288.79792 a 0.79374997,0.79374997 0 0 1 -0.79375,0.79375 0.79374997,0.79374997 0 0 1 -0.79375,-0.79375 0.79374997,0.79374997 0 0 1 0.79375,-0.79375 0.79374997,0.79374997 0 0 1 0.79375,0.79375 z"
         style="fill:#ff5555;fill-opacity:1;stroke-width:0.26458332" />
      <path
         inkscape:connector-curvature="0"
         id="path869"
         d="m 11.90625,286.68125 a 0.79374997,0.79374997 0 0 1 -0.79375,0.79375 0.79374997,0.79374997 0 0 1 -0.79375,-0.79375 0.79374997,0.79374997 0 0 1 0.79375,-0.79375 0.79374997,0.79374997 0 0 1 0.79375,0.79375 z"
         style="fill:#ff5555;fill-opacity:1;stroke-width:0.26458332" />
      <path
         style="fill:#ffffff;stroke-width:0.26458332"
         d="m 9.7895832,286.68125 a 0.79374997,0.79374997 0 0 1 -0.79375,0.79375 0.79374997,0.79374997 0 0 1 -0.79375,-0.79375 0.79374997,0.79374997 0 0 1 0.79375,-0.79375 0.79374997,0.79374997 0 0 1 0.79375,0.79375 z"
         id="path871"
         inkscape:connector-curvature="0" />
      <path
         style="fill:#ffffff;stroke-width:0.26458332"
         d="m 11.90625,284.56459 a 0.79374997,0.79374997 0 0 1 -0.79375,0.79375 0.79374997,0.79374997 0 0 1 -0.79375,-0.79375 0.79374997,0.79374997 0 0 1 0.79375,-0.79375 0.79374997,0.79374997 0 0 1 0.79375,0.79375 z"
         id="path873"
         inkscape:connector-curvature="0" />
    </g>
  </g>
</svg>
