<svg xmlns="http://www.w3.org/2000/svg" width="64" height="64" viewBox="0 0 16.933 16.933"><g transform="translate(0 -280.067)"><circle cx="8.467" cy="288.533" r="7.144" fill="#8144a3" stroke="#4e2365" stroke-width=".529" opacity=".9" paint-order="stroke markers fill"/><circle cx="8.467" cy="288.533" r="7.144" fill="#8144a3" paint-order="stroke markers fill"/><path fill="#fff" d="M12.435 291.708a.794.794 0 0 1-.793.794.794.794 0 0 1-.794-.794.794.794 0 0 1 .794-.793.794.794 0 0 1 .793.793m-2.116 0a.794.794 0 0 1-.794.794.794.794 0 0 1-.794-.794.794.794 0 0 1 .794-.793.794.794 0 0 1 .794.793"/><path fill="#f55" d="M8.202 291.708a.794.794 0 0 1-.794.794.794.794 0 0 1-.793-.794.794.794 0 0 1 .793-.793.794.794 0 0 1 .794.793"/><path fill="#fff" d="M6.085 291.708a.794.794 0 0 1-.793.794.794.794 0 0 1-.794-.794.794.794 0 0 1 .794-.793.794.794 0 0 1 .793.793"/><path fill="#f55" d="M12.435 289.592a.794.794 0 0 1-.793.793.794.794 0 0 1-.794-.793.794.794 0 0 1 .794-.794.794.794 0 0 1 .793.794m-2.116 0a.794.794 0 0 1-.794.793.794.794 0 0 1-.794-.793.794.794 0 0 1 .794-.794.794.794 0 0 1 .794.794"/><path fill="#fff" d="M8.202 289.592a.794.794 0 0 1-.794.793.794.794 0 0 1-.793-.793.794.794 0 0 1 .793-.794.794.794 0 0 1 .794.794"/><path fill="#f55" d="M6.085 289.592a.794.794 0 0 1-.793.793.794.794 0 0 1-.794-.793.794.794 0 0 1 .794-.794.794.794 0 0 1 .793.794m6.35-2.117a.794.794 0 0 1-.793.794.794.794 0 0 1-.794-.794.794.794 0 0 1 .794-.794.794.794 0 0 1 .793.794"/><path fill="#fff" d="M10.319 287.475a.794.794 0 0 1-.794.794.794.794 0 0 1-.794-.794.794.794 0 0 1 .794-.794.794.794 0 0 1 .794.794m2.116-2.117a.794.794 0 0 1-.793.794.794.794 0 0 1-.794-.794.794.794 0 0 1 .794-.793.794.794 0 0 1 .793.793"/></g></svg>