<svg xmlns="http://www.w3.org/2000/svg" width="64" height="64" version="1"><rect width="56" height="56" x="4" y="4" fill="#b86b00" rx="28" ry="28"/><rect width="54" height="54" x="5" y="5" fill="#f18d00" rx="27" ry="27"/><path fill="#fff" fill-rule="evenodd" d="M51.997 25.937c-3.748-15.845-18.144-15.712-26.836-11.576-9.147 4.623-15.771 16.472-12.158 26.394 5.584 14.968 26.138 14.744 33.094.824 2.064-5.104 3.58-8.728-2.098-13.578v6l-2-4s-1.775 4.196-3.66 6.11c-2.625 2.662-6.34 1.89-6.34 1.89.7 2.651 6 4 6 4-13.756 6.51-14.158-4.37-14-7 .45-7.569 6.536-13.443 14.552-13.021 2.556.196 7.446 2.022 7.446 2.022-1.84-4.21-4.46-5.212-6-6 6.037-1.996 9.259 4.305 12 7.934z"/></svg>