<svg width="64" height="64" version="1.1" viewBox="0 0 16.933 16.933" xmlns="http://www.w3.org/2000/svg" xmlns:xlink="http://www.w3.org/1999/xlink">
 <circle cx="8.467" cy="8.466" r="7.144" fill="#ececec" stroke="#c7c7c7" stroke-width=".529" paint-order="stroke markers fill"/>
 <circle cx="8.467" cy="8.466" r="7.144" fill="#ececec" paint-order="stroke markers fill"/>
 <path id="Orange-Copy" d="m6.4454 4.9314c-0.13025 0.30699-0.18198 0.52836-0.21204 0.67472-0.072997 0.35546-0.20418 1.3243-0.17056 1.3202 0.012639-0.00832 0.11605-0.21379 0.22218-0.46446 0.43965-1.0018 1.1163-1.6568 1.8689-1.8083 0.4608-0.093389 0.7833-0.00133 1.3068 0.26866 0.29485 0.15205 0.29763 0.073674 0.6341-0.021103l0.38541-0.084366-0.10554-0.25714c-0.35852-0.79855-0.91793-1.3853-1.5537-1.6108-0.33888-0.11703-0.95539 0.042641-1.3197 0.34742-0.39882 0.32388-0.92567 1.3282-1.0559 1.6352z" fill="#ff9f00" fill-rule="evenodd" stroke="#000000" stroke-opacity=".1" stroke-width=".26458"/>
 <path d="m10.517 4.9486c-0.33098 0.040694-0.54856 0.10658-0.69035 0.15373-0.34434 0.11451-1.249 0.48531-1.2287 0.51241 0.013521 0.00679 0.24318-0.00639 0.51333-0.039815 1.0874-0.12014 1.993 0.1384 2.5005 0.71438 0.31128 0.35236 0.3928 0.67769 0.42076 1.2661 0.01574 0.33138 0.08501 0.2946 0.33533 0.53859l0.26577 0.29159 0.16992-0.21997c0.5123-0.70976 0.74079-1.4876 0.61818-2.151-0.068091-0.35199-0.51462-0.80607-0.96071-0.96916-0.4799-0.18345-1.6131-0.13756-1.9441-0.096866z" fill="#ff2828" fill-rule="evenodd" stroke="#000000" stroke-opacity=".1" stroke-width=".26458"/>
 <path d="m12.539 8.4837c-0.20073-0.26629-0.36658-0.42178-0.47831-0.52099-0.27134-0.24095-1.0448-0.83897-1.0581-0.80783 8.82e-4 0.015103 0.12712 0.2074 0.29115 0.42465 0.64774 0.88164 0.87663 1.7952 0.63158 2.5227-0.14952 0.44575-0.3905 0.67902-0.88609 0.99743-0.27911 0.17932-0.21262 0.22092-0.29877 0.5597l-0.11964 0.37596 0.27546 0.03717c0.87082 0.08879 1.6587-0.10227 2.1719-0.54013 0.27079-0.23496 0.44077-0.84871 0.35897-1.3166-0.08108-0.50732-0.68741-1.4657-0.88814-1.732z" fill="#d529ff" fill-rule="evenodd" stroke="#000000" stroke-opacity=".1" stroke-width=".26458"/>
 <path d="m10.488 12.002c0.13025-0.30699 0.18198-0.52836 0.21204-0.67472 0.073-0.35546 0.20418-1.3243 0.17056-1.3202-0.01264 0.0083-0.11605 0.21379-0.22218 0.46446-0.43965 1.0018-1.1163 1.6568-1.8689 1.8083-0.4608 0.09339-0.7833 0.0013-1.3068-0.26866-0.29485-0.15205-0.29763-0.07367-0.6341 0.0211l-0.38541 0.08437 0.10554 0.25714c0.35852 0.79854 0.91793 1.3853 1.5537 1.6108 0.33888 0.11703 0.95539-0.04264 1.3197-0.34742 0.39882-0.32388 0.92567-1.3282 1.0559-1.6352z" fill="#288bff" fill-rule="evenodd" stroke="#000000" stroke-opacity=".1" stroke-width=".26458"/>
 <path d="m6.4156 11.984c0.33098-0.04069 0.54856-0.10658 0.69035-0.15373 0.34434-0.11451 1.249-0.48531 1.2287-0.51241-0.013521-0.0068-0.24318 0.0064-0.51333 0.03981-1.0874 0.12014-1.993-0.13839-2.5005-0.71437-0.31128-0.35236-0.3928-0.67769-0.42076-1.2661-0.015743-0.33138-0.085013-0.2946-0.33533-0.53859l-0.26577-0.29159-0.16992 0.21997c-0.5123 0.70976-0.74079 1.4876-0.61818 2.151 0.06809 0.35199 0.51462 0.80607 0.96071 0.96916 0.4799 0.18345 1.6131 0.13756 1.9441 0.09687z" fill="#3f9e00" fill-rule="evenodd" stroke="#000000" stroke-opacity=".1" stroke-width=".26458"/>
 <path d="m4.3945 8.4493c0.20073 0.26629 0.36658 0.42178 0.47831 0.52099 0.27134 0.24095 1.0448 0.83897 1.0581 0.80783-8.82e-4 -0.015103-0.12713-0.2074-0.29115-0.42465-0.64774-0.88164-0.87663-1.7952-0.63158-2.5227 0.14952-0.44575 0.3905-0.67902 0.88609-0.99743 0.27911-0.17932 0.21262-0.22092 0.29878-0.5597l0.11964-0.37596-0.27546-0.037174c-0.87082-0.088788-1.6587 0.10227-2.1719 0.54013-0.27079 0.23496-0.44077 0.84871-0.35897 1.3166 0.081077 0.50732 0.68741 1.4657 0.88814 1.732z" fill="#deba00" fill-rule="evenodd" stroke="#000000" stroke-opacity=".1" stroke-width=".26458"/>
 <ellipse cx="8.4665" cy="8.4665" rx="2.21" ry="2.2099" fill="#568fa8" fill-rule="evenodd"/>
 <ellipse cx="8.4665" cy="8.4665" rx="1.3229" ry="1.3229" fill="#ffffff" fill-rule="evenodd" opacity=".35"/>
</svg>
