<svg xmlns="http://www.w3.org/2000/svg" width="64" height="64" viewBox="0 0 16.933 16.933"><circle cx="8.467" cy="8.466" r="7.144" fill="#ececec" stroke="#c7c7c7" stroke-width=".529" paint-order="stroke markers fill"/><circle cx="8.467" cy="8.466" r="7.144" fill="#ececec" paint-order="stroke markers fill"/><path fill="#ff9f00" fill-rule="evenodd" stroke="#000" stroke-opacity=".1" stroke-width=".265" d="M6.445 4.931c-.13.307-.182.529-.212.675-.073.356-.204 1.324-.17 1.32.012-.008.116-.213.222-.464.44-1.002 1.116-1.657 1.869-1.808.46-.094.783-.002 1.307.268.295.152.297.074.634-.02l.385-.085-.105-.257c-.359-.799-.918-1.386-1.554-1.611-.339-.117-.955.042-1.32.347-.399.324-.925 1.328-1.056 1.635z"/><path fill="#ff2828" fill-rule="evenodd" stroke="#000" stroke-opacity=".1" stroke-width=".265" d="M10.517 4.949c-.331.04-.549.106-.69.153-.345.115-1.25.486-1.23.513.014.007.244-.007.514-.04 1.088-.12 1.993.138 2.5.714.312.353.394.678.422 1.266.015.332.085.295.335.539l.266.292.17-.22c.512-.71.74-1.488.618-2.151-.068-.352-.515-.806-.961-.97-.48-.183-1.613-.137-1.944-.096z"/><path fill="#d529ff" fill-rule="evenodd" stroke="#000" stroke-opacity=".1" stroke-width=".265" d="M12.539 8.484a3.4 3.4 0 0 0-.478-.521c-.272-.241-1.045-.84-1.058-.808 0 .015.127.207.29.425.648.881.877 1.795.632 2.522-.15.446-.39.68-.886.998-.279.179-.212.22-.299.56l-.12.375.276.037c.871.09 1.659-.102 2.172-.54.271-.235.441-.848.36-1.316-.082-.508-.688-1.466-.889-1.732z"/><path fill="#288bff" fill-rule="evenodd" stroke="#000" stroke-opacity=".1" stroke-width=".265" d="M10.488 12.002c.13-.307.182-.528.212-.675.073-.355.204-1.324.17-1.32a4 4 0 0 0-.222.465c-.44 1.001-1.116 1.656-1.868 1.808-.461.093-.784.001-1.307-.269-.295-.152-.298-.073-.634.021l-.386.085.106.257c.358.798.918 1.385 1.553 1.61.34.118.956-.042 1.32-.347.399-.324.926-1.328 1.056-1.635z"/><path fill="#3f9e00" fill-rule="evenodd" stroke="#000" stroke-opacity=".1" stroke-width=".265" d="M6.416 11.984c.33-.04.548-.107.69-.154.344-.114 1.249-.485 1.229-.512a4 4 0 0 0-.514.04c-1.087.12-1.993-.139-2.5-.715-.311-.352-.393-.677-.42-1.266-.017-.331-.086-.294-.336-.538l-.266-.292-.17.22c-.512.71-.74 1.488-.618 2.151.068.352.514.806.96.97.48.183 1.614.137 1.945.096z"/><path fill="#deba00" fill-rule="evenodd" stroke="#000" stroke-opacity=".1" stroke-width=".265" d="M4.394 8.45c.201.266.367.421.479.52.271.241 1.045.84 1.058.808a4 4 0 0 0-.291-.425c-.648-.881-.877-1.795-.632-2.522.15-.446.39-.68.886-.998.28-.179.213-.22.299-.56l.12-.375-.276-.037c-.87-.09-1.658.102-2.172.54-.27.235-.44.848-.359 1.316.081.508.688 1.466.889 1.732z"/><circle cx="8.466" cy="8.466" r="2.21" fill="#568fa8" fill-rule="evenodd"/><circle cx="8.466" cy="8.466" r="1.323" fill="#fff" fill-rule="evenodd" opacity=".35"/></svg>