<svg xmlns="http://www.w3.org/2000/svg" width="64" height="64" viewBox="0 0 16.933 16.933"><g transform="translate(0 -280.067)"><circle cx="8.467" cy="288.533" r="7.144" fill="#f6476b" stroke="#a10b2a" stroke-width=".529" opacity=".75" paint-order="stroke markers fill"/><circle cx="8.467" cy="288.533" r="7.144" fill="#f6476b" paint-order="stroke markers fill"/><path fill="#fff" d="m5.902 288.533-1.14.977.214.279.926-.8v2.963h5.13v-2.963l.926.8.213-.28-1.14-.976zm.61-1.669-.246.794.776.252.246-.795zm1.758-1.75-1.205.36.352 1.234 1.205-.36-.351-1.234zm.458 1.716-.384.5.232.588.614.09.384-.5-.231-.589zm1.626-1.216-.326.257-.393-.129.136.397-.241.343.411-.012.244.34.116-.405.391-.131-.337-.238-.002-.422z"/></g></svg>