<svg xmlns="http://www.w3.org/2000/svg" width="64" height="64" version="1.0"><rect width="54" height="54" x="5" y="5" fill="#c19017" rx="5" ry="5"/><g stroke-width=".5"><rect width="52" height="52" x="6" y="6" fill="#f6ba29" fill-opacity=".969" rx="4.361" ry="4.361"/><rect width="52" height="38" x="6" y="6" fill="#f9f06b" rx="4" ry="4"/><rect width="46" height="32" x="9" y="9" fill="#f7bc2c" rx="1" ry="1"/></g><rect width="44" height="20" x="10" y="21" fill="#d89a08" rx=".957" ry="1"/><path d="M12.052 14.028a1.04 1.09 0 0 0-1.04 1.09L11 41h8.59v4h24.82v-4H53l-.025-25.881a1.04 1.09 0 0 0-1.04-1.09H23.351z" opacity=".15"/><path fill="#f6f5f4" d="M13.002 15a.99 1.056 0 0 0-.99 1.056L12 41.126h8.182V45h23.636v-3.874H52l-.025-25.07a.99 1.056 0 0 0-.991-1.055h-27.22z"/><path d="M31.814 26.42c-2 0-4 .714-5.531 2.143l-14.281 10.06L12 41.002h40l-.002-2.375-14.65-10.062c-1.533-1.429-3.532-2.143-5.531-2.143h-.002z" opacity=".08"/><path fill="#f0f0ee" d="M31.823 27.42c-1.91 0-3.818.715-5.28 2.143l-15.531 11.46L19 41v5h26v-5h8L37.104 29.563a7.54 7.54 0 0 0-5.28-2.143z"/><path d="M13.002 15a.99 1.056 0 0 0-.99 1.057v.025L27 31.773a6.978 7.215 0 0 0 9.978 0l14.996-15.699v-.018a.99 1.056 0 0 0-.99-1.056H23.763z" opacity=".12"/><path fill="#f6f5f4" d="M13.002 15a.99 1.056 0 0 0-.676.285l14.74 15.443a6.948 7.279 0 0 0 9.848 0l14.742-15.445a.99 1.056 0 0 0-.672-.283H23.763z"/><path fill="#f9f06b" d="M19 48v3.5c0 1.108.892 2 2 2h22c1.108 0 2-.892 2-2V48c0 1.108-.892 2-2 2H21c-1.108 0-2-.892-2-2"/><path fill="#c0bfbc" d="M45 46v2c0 1.108-.892 2-2 2H21c-1.108 0-2-.892-2-2v-2z"/><path d="M10 9c-.554 0-1 .446-1 1v30c0 .554.446 1 1 1h1.043l-.031.023L19 41v7c0 1.108.892 2 2 2h22c1.108 0 2-.892 2-2v-7h9c.554 0 1-.446 1-1V10c0-.554-.446-1-1-1zm1 1h42c.554 0 1 .446 1 1v28c0 .554-.446 1-1 1h-9v8c0 .554-.446 1-1 1H21c-.554 0-1-.446-1-1v-8h-9c-.554 0-1-.446-1-1V11c0-.554.446-1 1-1" opacity=".15"/></svg>