<svg xmlns="http://www.w3.org/2000/svg" width="64" height="64"><path fill="#e85656" stroke="#bb3131" stroke-width="2" d="M32 5c14.912 0 27 12.088 27 27S46.912 59 32 59 5 46.912 5 32 17.088 5 32 5z" style="paint-order:stroke fill markers"/><path fill="#e85656" d="M32 5c14.912 0 27 12.088 27 27S46.912 59 32 59 5 46.912 5 32 17.088 5 32 5"/><path fill="#fff" d="M32 16.739a15.26 15.26 0 0 0-12.062 5.975 3.5 3.5 0 0 0-.85-.106 3.52 3.52 0 0 0-3.522 3.522 3.52 3.52 0 0 0 1.508 2.88A15.3 15.3 0 0 0 16.74 32 15.26 15.26 0 0 0 32 47.26c7.044 0 13.38-1.173 15.262-2.347-3.36-1.085-2.172-4.696-1.17-7.044l-.046.03a15.3 15.3 0 0 0 1.216-5.9 15.3 15.3 0 0 0-.3-3.014 3.52 3.52 0 0 0 1.474-2.855 3.52 3.52 0 0 0-3.522-3.521 3.5 3.5 0 0 0-.81.103 15.26 15.26 0 0 0-12.103-5.973z"/><ellipse cx="29.9" cy="37.286" fill="#303030" rx="3.533" ry="4.686" transform="matrix(.95289 -.30331 .22003 .97549 0 0)"/><ellipse cx="-32.765" cy="17.802" fill="#303030" rx="3.533" ry="4.686" transform="matrix(-.95289 -.30331 -.22003 .97549 0 0)"/></svg>