<svg xmlns="http://www.w3.org/2000/svg" width="64" height="64" viewBox="0 0 16.933 16.933"><g transform="translate(0 -280.067)"><path fill="#c2352a" stroke="#74241c" stroke-width=".529" d="M8.466 281.39c-.374 0-.748.14-1.028.419l-5.695 5.696a1.47 1.47 0 0 0 0 2.055l5.696 5.696c.56.56 1.496.56 2.056.001l5.695-5.696c.56-.56.56-1.497 0-2.056l-5.695-5.696a1.45 1.45 0 0 0-1.029-.42z" opacity=".9"/><path fill="#c2352a" d="M8.466 281.39c-.374 0-.748.14-1.028.42l-5.695 5.695a1.47 1.47 0 0 0 0 2.055l5.696 5.697c.56.56 1.496.56 2.056 0l5.695-5.696c.56-.56.56-1.496 0-2.056l-5.695-5.696a1.45 1.45 0 0 0-1.029-.419"/><path fill-rule="evenodd" d="m5.508 283.71-.374.374 1.753 1.739-.008 4.298h.53l.007-3.77 2.536 2.492.374-.374z" opacity=".5"/><circle cx="7.408" cy="286.152" r="1.058" fill="#fff" paint-order="markers stroke fill"/><circle cx="10.319" cy="288.798" r="1.058" fill="#fff" paint-order="markers stroke fill"/><circle cx="7.144" cy="291.179" r="1.058" fill="#fff" paint-order="markers stroke fill"/></g></svg>