<svg xmlns="http://www.w3.org/2000/svg" width="64" height="64" viewBox="0 0 16.933 16.933"><rect width="14.023" height="14.023" x="1.455" y="1.455" fill="#e35c58" stroke="#bb342f" stroke-linecap="round" stroke-linejoin="round" stroke-width=".265" color="#000" overflow="visible" rx=".926" ry=".926"/><rect width="13.758" height="13.758" x="1.587" y="1.587" fill="#e35c58" color="#000" overflow="visible" rx=".794" ry=".794"/><g fill="#fff"><rect width="4.233" height=".529" x="5.292" y="8.996" ry=".265" style="paint-order:stroke markers fill"/><path d="M3.973 4.195a.26.26 0 0 0-.262.13.264.264 0 0 0 .097.362l2.842 1.64-2.842 1.641a.264.264 0 0 0-.097.361c.074.127.235.17.362.097l3.208-1.852a.26.26 0 0 0 .127-.224q.002-.011.002-.023 0-.011-.002-.022a.26.26 0 0 0-.127-.225L4.073 4.228a.3.3 0 0 0-.1-.033" style="paint-order:stroke markers fill"/></g></svg>