<svg xmlns="http://www.w3.org/2000/svg" width="64" height="64"><path fill="#f2f2f2" stroke="#000" stroke-opacity=".294" stroke-width="2" d="M15 6 5 16v39c0 1.662 1.338 3 3 3h48c1.662 0 3-1.338 3-3V9c0-1.662-1.338-3-3-3z"/><path fill="#f2f2f2" d="M15 6 5 16v39c0 1.662 1.338 3 3 3h48c1.662 0 3-1.338 3-3V9c0-1.662-1.338-3-3-3z"/><circle cx="21.5" cy="31.5" r="2" fill="none" stroke="#c9caca" stroke-miterlimit="10"/><circle cx="21.5" cy="41.5" r="2" fill="none" stroke="#c9caca" stroke-miterlimit="10"/><g fill="#b3b3b3"><path d="M4.339 16 15 5.339V16z"/><path d="M11 20h42v1H11zm0 4h42v1H11zm0 23h42v1H11zm0 4h42v1H11z" opacity=".5"/><path d="M15 18v36h-1V18zm35 0v36h-1V18z" opacity=".5"/></g><path fill="#64cf00" stroke="#000" stroke-linecap="round" stroke-linejoin="round" stroke-opacity=".294" d="M6 54h48V22zm41-7H29l18-12z" opacity=".7"/></svg>