<svg xmlns="http://www.w3.org/2000/svg" width="64" height="64" viewBox="0 0 16.933 16.933"><g transform="translate(0 -280.067)"><path d="M13.672 288.699L9.2 284.226" fill="#868585" stroke="#444345" stroke-width="1.587"/><path d="M8.7 283.23l-5.592 5.592 1.582 1.581 5.59-5.591z" font-weight="400" overflow="visible" style="font-variant-ligatures:normal;font-variant-position:normal;font-variant-caps:normal;font-variant-numeric:normal;font-variant-alternates:normal;font-feature-settings:normal;text-indent:0;text-decoration-line:none;text-decoration-style:solid;text-decoration-color:#000;text-transform:none;text-orientation:mixed;white-space:normal;shape-padding:0;isolation:auto;mix-blend-mode:normal" font-family="sans-serif" fill="none" stroke="#9f9826" stroke-width="1.587"/><g transform="translate(-22.541)"><path d="M9.26 284.088l3.174 3.175" opacity=".75" fill="none" stroke="#9c8f10" stroke-width="2.434"/><path d="M9.26 284.088l-4.446 4.445" opacity=".75" fill="none" stroke="#9c8e10" stroke-width="3.069"/><rect width="3.705" height="5.398" x="-6.615" y="288.533" ry="0" transform="scale(-1 1)" opacity=".75" fill="#e8d51d" stroke="#9d8f0f" stroke-width=".529" stroke-linejoin="round"/><path d="M9.26 284.088l-4.446 4.445" fill="none" stroke="#e8d51d" stroke-width="2.54"/><rect transform="scale(-1 1)" ry="0" y="288.533" x="-6.615" height="5.398" width="3.705" fill="#e8d51d"/><rect transform="scale(-1 1)" width="5.08" height="1.27" x="-7.354" y="292.978" ry=".635" fill="#efe958"/><path d="M7.354 293.613c.635 0 .635.635.635.635v.635H1.64v-.635c0-.635.635-.635.635-.635z" fill="#3f3f3f"/><rect ry="2.54" width="5.08" height="5.08" x="-7.354" y="285.993" transform="scale(-1 1)" opacity=".75" fill="#efe958" stroke="#9d8f0f" stroke-width=".529" stroke-linejoin="round"/><rect transform="scale(-1 1)" y="285.993" x="-7.354" height="5.08" width="5.08" ry="2.54" fill="#efe958"/><rect transform="scale(-1 1)" ry="1.905" width="3.81" height="3.81" x="-6.719" y="286.628" fill="#3f3f3f"/><path d="M9.26 284.088l3.174 3.175" fill="none" stroke="#e8d51d" stroke-width="1.905"/><rect y="282.183" x="-11.164" height="3.81" width="3.81" ry="1.905" transform="scale(-1 1)" opacity=".75" fill="#efe958" stroke="#9c8f10" stroke-width=".529" stroke-linejoin="round"/><rect transform="scale(-1 1)" ry="1.905" width="3.81" height="3.81" x="-11.164" y="282.183" fill="#efe958"/><path d="M13.07 289.803l-1.27-.635v-1.27l1.27-1.27h1.27l.634 1.27" fill="none" stroke="#3f3f3f" stroke-width=".635" stroke-linecap="round" stroke-linejoin="round"/><rect transform="scale(-1 1)" y="282.818" x="-10.529" height="2.54" width="2.54" ry="1.27" fill="#3f3f3f"/><rect transform="scale(-1 1)" y="287.263" x="-6.084" height="2.54" width="2.54" ry="1.27" opacity=".1" fill="#fff"/><rect transform="scale(-1 1)" ry=".635" width="1.27" height="1.27" x="-9.894" y="283.453" opacity=".1" fill="#fff"/><rect transform="scale(-1 1)" width="5.08" height="1.27" x="-7.354" y="292.978" ry=".635" opacity=".75" fill="#efe958" stroke="#9c8f10" stroke-width=".529" stroke-linejoin="round"/><rect ry=".635" y="292.978" x="-7.354" height="1.27" width="5.08" transform="scale(-1 1)" fill="#efe958"/><path d="M7.354 293.613c.635 0 .635.635.635.635v.635H1.64v-.635c0-.635.635-.635.635-.635z" opacity=".9" fill="#3f3f3f" stroke="#060606" stroke-width=".529" stroke-linejoin="round"/><path d="M7.354 293.613c.635 0 .635.635.635.635v.635H1.64v-.635c0-.635.635-.635.635-.635z" fill="#3f3f3f"/><path d="M13.07 289.803l-1.27-.635v-1.27l1.27-1.27h1.27l.634 1.27" opacity=".9" fill="none" stroke="#000" stroke-width="1.164" stroke-linecap="round" stroke-linejoin="round"/><path d="M13.07 289.803l-1.27-.635v-1.27l1.27-1.27h1.27l.634 1.27" fill="none" stroke="#3f3f3f" stroke-width=".635" stroke-linecap="round" stroke-linejoin="round"/></g><path style="font-variant-ligatures:normal;font-variant-position:normal;font-variant-caps:normal;font-variant-numeric:normal;font-variant-alternates:normal;font-feature-settings:normal;text-indent:0;text-decoration-line:none;text-decoration-style:solid;text-decoration-color:#000;text-transform:none;text-orientation:mixed;white-space:normal;shape-padding:0;isolation:auto;mix-blend-mode:normal" overflow="visible" font-weight="400" d="M8.654 283.435l-5.59 5.591 1.58 1.581 5.592-5.59z" font-family="sans-serif" fill="none" stroke="#f5ce17" stroke-width="1.058"/><path d="M1.058 294.354h6.615v1.059H1.058z" fill="#424048" stroke-width=".265" stroke="#2e2d2e" stroke-opacity=".618"/><path style="font-variant-ligatures:normal;font-variant-position:normal;font-variant-caps:normal;font-variant-numeric:normal;font-variant-alternates:normal;font-feature-settings:normal;text-indent:0;text-decoration-line:none;text-decoration-style:solid;text-decoration-color:#000;text-transform:none;text-orientation:mixed;white-space:normal;shape-padding:0;isolation:auto;mix-blend-mode:normal" overflow="visible" font-weight="400" d="M2.712 288.004v4.41c0 .609-.494 1.102-1.102 1.102h-.552v1.103h6.615v-1.103h-.551a1.102 1.102 0 0 1-1.103-1.102v-4.41z" font-family="sans-serif" fill="gray" stroke-width=".265" stroke="#2e2d2e" stroke-opacity=".618"/><path d="M1.058 293.56h6.615v1.059H1.058z" fill="#68676b" stroke-width=".265" stroke="#2e2d2e" stroke-opacity=".618"/><path d="M10.842 290.655l2.236-2.236 2.237 2.236" fill="none" stroke="#424048" stroke-width="1.587"/><path d="M15.035 289.538a.84.84 0 0 1 .839.839v1.677l-.839.84h-.838v-2.517c0-.463.375-.839.838-.839z" fill="#7a8599" stroke-width=".265" stroke="#323241" stroke-opacity=".706"/><path style="font-variant-ligatures:normal;font-variant-position:normal;font-variant-caps:normal;font-variant-numeric:normal;font-variant-alternates:normal;font-feature-settings:normal;text-indent:0;text-decoration-line:none;text-decoration-style:solid;text-decoration-color:#000;text-transform:none;text-orientation:mixed;white-space:normal;shape-padding:0;isolation:auto;mix-blend-mode:normal" overflow="visible" font-weight="400" d="M8.654 283.155l-5.59 5.592 1.58 1.58 5.592-5.59z" font-family="sans-serif" fill="none" stroke="#f9f06b" stroke-width="1.058"/><circle r="3.175" cy="288.798" cx="4.498" fill="#f9f06b" stroke-width=".265" stroke="#858127" stroke-opacity=".612"/><path d="M13.672 288.699L9.2 284.226" fill="#868585" stroke="#68676b" stroke-width="1.058"/><circle r="2.514" cy="284.168" cx="9.128" fill="#f9f06b" stroke-width=".265" stroke="#858127" stroke-opacity=".612"/><circle r="1.587" cy="288.269" cx="12.965" fill="#f9f06b" stroke-width=".265" stroke="#858127" stroke-opacity=".612"/><circle cy="284.168" cx="9.128" r="1.455" fill="#4a4850" stroke-width=".265" stroke="#252329" stroke-opacity=".588"/><circle r="1.852" cy="288.798" cx="4.498" fill="#4a4850" stroke-width=".265" stroke="#252329" stroke-opacity=".588"/><circle r="1.058" cy="288.798" cx="4.498" fill="#1a1723"/><circle r=".661" cy="284.168" cx="9.128" fill="#1a1723"/><circle cy="288.269" cx="12.965" r="1.058" fill="#4a4850" stroke-width=".265" stroke="#252329" stroke-opacity=".588"/><circle r=".529" cy="288.269" cx="12.965" fill="#1a1723"/><circle r=".28" cy="290.377" cx="15.035" fill="#2e3436"/><path d="M11.121 289.538a.839.839 0 0 0-.838.839v1.677l.838.84h.84v-2.517a.839.839 0 0 0-.84-.839z" fill="#7a8599" stroke-width=".265" stroke="#323241" stroke-opacity=".706"/><circle r=".28" cy="290.377" cx="-11.121" transform="scale(-1 1)" fill="#2e3436"/></g></svg>