<svg xmlns="http://www.w3.org/2000/svg" width="64" height="64" image-rendering="optimizeSpeed"><circle cx="32" cy="32" r="27" fill="#fff" fill-rule="evenodd" stroke="#000" stroke-linecap="round" stroke-linejoin="round" stroke-opacity=".294" stroke-width="2" style="paint-order:stroke fill markers"/><circle cx="32" cy="32" r="27" fill="#fff" fill-rule="evenodd" style="paint-order:stroke fill markers"/><path fill="#333" d="M30.757 16C22.52 16.497 16 23.483 16 32c0 8.84 7.237 15.998 16.01 15.998 8.512 0 15.583-6.98 15.989-15.283h-3.821c-.404 6.386-5.655 11.453-12.068 11.453-6.677 0-12.308-5.459-12.308-12.186 0-6.403 5.252-11.641 10.956-12.133zm1.903 0v3.848c3.169.203 5.036 1.219 6.911 2.801l2.793-2.716C39.79 17.665 36.463 16.216 32.66 16m11.262 5.241-2.7 2.705A12.34 12.34 0 0 1 44.16 30.8h3.815c-.256-3.831-1.743-6.98-4.053-9.56zm-4.86 3.577-8.054 4.977.008.007a2.53 2.53 0 0 0-1.29 2.2 2.525 2.525 0 0 0 2.513 2.532c.975 0 1.81-.565 2.228-1.38l.006.005z"/></svg>