<svg xmlns="http://www.w3.org/2000/svg" width="64" height="64" viewBox="0 0 16.933 16.933"><defs><linearGradient id="a" x1="301" x2="104" y1="33.559" y2="33.559" gradientTransform="translate(-.53 279.273) scale(.06615)" gradientUnits="userSpaceOnUse"><stop offset="0" stop-color="#f9f06b"/><stop offset="1" stop-color="#f9f06b" stop-opacity="0"/></linearGradient></defs><g transform="matrix(.5 0 0 .5 0 -132.625)" stroke-width="2"><rect x="2.117" y="269.483" width="29.633" height="25.4" rx="2.117" ry="2.363" opacity=".25" fill="#f6f5f4" stroke="#212121" stroke-width="1.058"/><rect ry="2.314" rx="2.117" height="24.871" width="29.633" y="269.483" x="2.117" fill="#f6f5f4"/><rect ry="1.142" rx="1.058" height="21.696" width="24.342" y="270.542" x="3.175" fill="#241f31"/><path opacity=".1" fill="#fff" d="M4.233 291.179h22.225V271.6H4.233z"/><path d="M5.82 271.6v1.587H4.234v.53h1.588v2.116H4.233v.53h1.588v2.116H4.233v.53h1.588v2.116H4.233v.53h1.588v2.116H4.233v.529h1.588v2.117H4.233v.529h1.588v2.116H4.233v.53h1.588v1.587h.529v-1.587h2.117v1.587h.529v-1.587h2.117v1.587h.529v-1.587h2.116v1.587h.53v-1.587h2.116v1.587h.53v-1.587h2.116v1.587h.53v-1.587h2.116v1.587h.529v-1.587h2.117v1.587h.529v-1.587h1.587v-.53h-1.587v-2.116h1.587v-.53h-1.587V284.3h1.587v-.53h-1.587v-2.116h1.587v-.529h-1.587v-2.117h1.587v-.529h-1.587v-2.117h1.587v-.529h-1.587v-2.116h1.587v-.53h-1.587V271.6h-.53v1.587h-2.116V271.6h-.53v1.587H19.58V271.6h-.529v1.587h-2.117V271.6h-.529v1.587h-2.116V271.6h-.53v1.587h-2.116V271.6h-.53v1.587H8.997V271.6h-.53v1.587H6.35V271.6h-.53zm.53 2.117h2.117v2.116H6.35v-2.116zm2.646 0h2.117v2.116H8.996v-2.116zm2.646 0h2.116v2.116h-2.116v-2.116zm2.646 0h2.116v2.116h-2.116v-2.116zm2.645 0h2.117v2.116h-2.117v-2.116zm2.646 0h2.117v2.116h-2.117v-2.116zm2.646 0h2.117v2.116h-2.117v-2.116zM6.35 276.362h2.117v2.117H6.35v-2.117zm2.646 0h2.117v2.117H8.996v-2.117zm2.646 0h2.116v2.117h-2.116v-2.117zm2.646 0h2.116v2.117h-2.116v-2.117zm2.645 0h2.117v2.117h-2.117v-2.117zm2.646 0h2.117v2.117h-2.117v-2.117zm2.646 0h2.117v2.117h-2.117v-2.117zM6.35 279.008h2.117v2.117H6.35v-2.117zm2.646 0h2.117v2.117H8.996v-2.117zm2.646 0h2.116v2.117h-2.116v-2.117zm2.646 0h2.116v2.117h-2.116v-2.117zm2.645 0h2.117v2.117h-2.117v-2.117zm2.646 0h2.117v2.117h-2.117v-2.117zm2.646 0h2.117v2.117h-2.117v-2.117zM6.35 281.654h2.117v2.117H6.35v-2.117zm2.646 0h2.117v2.117H8.996v-2.117zm2.646 0h2.116v2.117h-2.116v-2.117zm2.646 0h2.116v2.117h-2.116v-2.117zm2.645 0h2.117v2.117h-2.117v-2.117zm2.646 0h2.117v2.117h-2.117v-2.117zm2.646 0h2.117v2.117h-2.117v-2.117zM6.35 284.3h2.117v2.117H6.35V284.3zm2.646 0h2.117v2.117H8.996V284.3zm2.646 0h2.116v2.117h-2.116V284.3zm2.646 0h2.116v2.117h-2.116V284.3zm2.645 0h2.117v2.117h-2.117V284.3zm2.646 0h2.117v2.117h-2.117V284.3zm2.646 0h2.117v2.117h-2.117V284.3zM6.35 286.946h2.117v2.116H6.35v-2.116zm2.646 0h2.117v2.116H8.996v-2.116zm2.646 0h2.116v2.116h-2.116v-2.116zm2.646 0h2.116v2.116h-2.116v-2.116zm2.645 0h2.117v2.116h-2.117v-2.116zm2.646 0h2.117v2.116h-2.117v-2.116zm2.646 0h2.117v2.116h-2.117v-2.116z" opacity=".06" fill="#fff"/><path d="M2.117 291.708v1.059c0 1.172.944 2.116 2.116 2.116h25.4a2.112 2.112 0 0 0 2.117-2.116v-1.059a2.112 2.112 0 0 1-2.117 2.117h-25.4a2.112 2.112 0 0 1-2.116-2.117z" fill="#ccc"/><path d="M4.233 282.712h6.88l2.645-6.085 1.588 10.319 2.117-4.234h8.995" opacity=".236" fill="none" stroke="#e5a50a" stroke-width="1.058" stroke-miterlimit="10"/><path d="M4.233 282.712h6.88l2.645-6.085 1.588 10.319 2.117-4.234h1.587" fill="none" stroke="url(#a)" stroke-width="1.058" stroke-linecap="round" stroke-miterlimit="10"/><g transform="translate(0 218.154) scale(.26458)"><path d="M116 232v4a4 4 0 0 1-8 0v-2l4-2zm0 16v6h-4c-2.216 0-4-1.784-4-4v-2z" fill="#949390"/><path d="M116 252v-4a4 4 0 0 0-4-4 4 4 0 0 0-4 4 4 4 0 0 0 4 4z" fill="#d5d3cf"/><circle cy="250" cx="-114" transform="scale(-1 1)" r="1" fill="#68676b"/><path d="M116 230v4a4 4 0 0 1-4 4 4 4 0 0 1-4-4 4 4 0 0 1 4-4z" fill="#d5d3cf"/><circle cy="-232" cx="-114" transform="scale(-1)" r="1" fill="#68676b"/><path d="M108 218v4a4 4 0 0 0 8 0v-2l-4-2z" fill="#949390"/><path d="M108 216v4a4 4 0 0 0 4 4 4 4 0 0 0 4-4 4 4 0 0 0-4-4z" fill="#d5d3cf"/><circle cy="-218" cx="110" transform="scale(1 -1)" r="1" fill="#68676b"/><path d="M116 206v6h-4c-2.216 0-4-1.784-4-4v-2z" fill="#949390"/><path d="M116 210v-4a4 4 0 0 0-4-4 4 4 0 0 0-4 4 4 4 0 0 0 4 4z" fill="#d5d3cf"/><circle cy="208" cx="-114" transform="scale(-1 1)" r="1" fill="#68676b"/></g></g></svg>