<svg xmlns="http://www.w3.org/2000/svg" width="64" height="64" viewBox="0 0 16.933 16.933"><path d="M3.44 1.588c-.44 0-.794.328-.794.737v12.284c0 .408.354.737.794.737h10.054c.44 0 .793-.329.793-.737V2.325c0-.409-.354-.737-.793-.737z" fill="#009577" stroke-width=".529" stroke="#006853" opacity=".9"/><path d="M3.44 1.588c-.44 0-.794.328-.794.737v12.284c0 .408.354.737.794.737h10.054c.44 0 .793-.329.793-.737V2.325c0-.409-.354-.737-.793-.737z" fill="#009577"/><path d="M10.054 1.588v6.35l1.059-1.059 1.058 1.058v-6.35z" fill="#fff"/><path d="M3.44 1.588c-.44 0-.794.328-.794.736V14.61c0 .408.354.737.794.737h1.852V1.588z" opacity=".18" stroke-width=".265" stroke="#000"/></svg>