<svg xmlns="http://www.w3.org/2000/svg" width="64" height="64" viewBox="0 0 16.933 16.933"><g transform="translate(0 -280.067)"><rect width="14.287" height="14.287" x="1.323" y="281.39" fill="#4d4d4d" stroke="#000" stroke-linecap="round" stroke-linejoin="round" stroke-width=".529" opacity=".9" paint-order="markers stroke fill" rx=".857" ry=".857"/><rect width="14.287" height="14.287" x="1.323" y="281.39" fill="#4d4d4d" paint-order="markers stroke fill" rx=".857" ry=".857"/><rect width="3.175" height="3.175" x="2.91" y="282.977" fill="#fff" rx=".529" ry=".529"/><rect width="3.175" height="3.175" x="6.879" y="282.977" fill="#999" rx=".529" ry=".529"/><rect width="3.175" height="3.175" x="10.848" y="282.977" fill="#fff" rx=".529" ry=".529"/><rect width="3.175" height="3.175" x="2.91" y="286.946" fill="#999" rx=".529" ry=".529"/><rect width="3.175" height="3.175" x="6.879" y="286.946" fill="#fff" rx=".529" ry=".529"/><rect width="3.175" height="3.175" x="10.848" y="286.946" fill="#999" rx=".529" ry=".529"/><rect width="3.175" height="3.175" x="2.91" y="290.915" fill="#fff" rx=".529" ry=".529"/><rect width="3.175" height="3.175" x="6.879" y="290.915" fill="#999" rx=".529" ry=".529"/><rect width="3.175" height="3.175" x="10.848" y="290.915" fill="#fff" rx=".529" ry=".529"/></g></svg>