<svg xmlns="http://www.w3.org/2000/svg" width="64" height="64" viewBox="0 0 16.933 16.933"><g transform="translate(0 -280.067)"><rect width="13.758" height="13.758" x="1.588" y="281.654" fill="#e6e6e6" stroke="#000" stroke-linecap="round" stroke-linejoin="round" stroke-width=".529" opacity=".3" paint-order="markers stroke fill" rx=".794" ry=".794"/><rect width="13.758" height="13.758" x="1.588" y="281.654" fill="#fafafa" paint-order="markers stroke fill" rx=".794" ry=".794"/><path fill="#ee756b" stroke="#156eaf" stroke-width=".529" d="M6.482 283.77a1.98 1.98 0 0 0-1.984 1.985c0 1.1.885 1.985 1.984 1.985h3.969a1.98 1.98 0 0 0 1.984-1.985 1.98 1.98 0 0 0-1.984-1.984z" color="#000" opacity=".75" overflow="visible" style="marker:none"/><path fill-rule="evenodd" d="M3.175 282.978a.265.265 0 0 1-.53 0 .265.265 0 1 1 .53 0" color="#000" opacity=".3" overflow="visible" style="marker:none"/><path fill="#45a4e9" d="M6.482 283.77a1.98 1.98 0 0 0-1.984 1.985c0 1.1.885 1.985 1.984 1.985h3.969a1.98 1.98 0 0 0 1.984-1.985 1.98 1.98 0 0 0-1.984-1.984z" color="#000" overflow="visible" style="marker:none"/><path fill="#fff" stroke="#000" stroke-opacity=".255" stroke-width=".265" d="M10.451 284.035a1.721 1.721 0 0 1 0 3.44 1.72 1.72 0 0 1 0-3.44z" color="#000" overflow="visible" style="marker:none"/><path fill-rule="evenodd" d="M14.287 282.977a.265.265 0 0 1-.529 0 .265.265 0 1 1 .53 0zM3.175 294.09a.265.265 0 0 1-.53 0 .265.265 0 1 1 .53 0m11.112 0a.265.265 0 0 1-.529 0 .265.265 0 1 1 .53 0z" color="#000" opacity=".3" overflow="visible" style="marker:none"/><path fill="#fff" d="M10.451 284.035a1.721 1.721 0 0 1 0 3.44 1.72 1.72 0 0 1 0-3.44" color="#000" overflow="visible" style="marker:none"/><path fill="#4d4d4d" stroke="#696969" stroke-width=".529" d="M6.482 289.327a1.98 1.98 0 0 0-1.984 1.984c0 1.1.885 1.985 1.984 1.985h3.969a1.98 1.98 0 0 0 1.984-1.985 1.98 1.98 0 0 0-1.984-1.984z" color="#000" opacity=".75" overflow="visible" style="marker:none"/><path fill="#b3b3b3" d="M6.482 289.327a1.98 1.98 0 0 0-1.984 1.984c0 1.1.885 1.985 1.984 1.985h3.969a1.98 1.98 0 0 0 1.984-1.985 1.98 1.98 0 0 0-1.984-1.984z" color="#000" overflow="visible" style="marker:none"/><path fill="#fff" stroke="#000" stroke-opacity=".255" stroke-width=".265" d="M6.482 289.592a1.721 1.721 0 0 1 0 3.44 1.72 1.72 0 0 1 0-3.44z" color="#000" overflow="visible" style="marker:none"/><path fill="#fff" d="M6.482 289.592a1.721 1.721 0 0 1 0 3.44 1.72 1.72 0 0 1 0-3.44" color="#000" overflow="visible" style="marker:none"/></g></svg>