<svg xmlns="http://www.w3.org/2000/svg" width="64" height="64" viewBox="0 0 16.933 16.933"><g paint-order="markers stroke fill" transform="translate(0 -280.067)"><circle cx="8.467" cy="288.533" r="7.144" fill="#32a3d7" stroke="#1f7195" stroke-linecap="round" stroke-linejoin="round" stroke-width=".529" opacity=".9"/><circle cx="8.467" cy="288.533" r="7.144" fill="#32a3d7"/><path d="M12.583 284.417a5.82 5.82 0 0 0-8.232 0 5.82 5.82 0 0 0 0 8.232l.154.144h1.304a5.03 5.03 0 0 0 5.318 0h1.297l.159-.144a5.82 5.82 0 0 0 0-8.232" opacity=".15"/><g fill="#fff" transform="translate(2.685 87.888)scale(.69638)"><rect width="5.292" height="1.587" x="206.251" y="199.105" ry=".794" transform="rotate(45)"/><rect width="7.938" height="1.587" x="-200.587" y="210.061" ry=".794" transform="rotate(-45)"/></g></g></svg>