<svg xmlns="http://www.w3.org/2000/svg" width="64" height="64" viewBox="0 0 16.933 16.933"><g transform="translate(0 -280.067)"><circle cx="8.467" cy="288.533" r="7.144" fill="#f8982e" stroke="#cf6e05" stroke-width=".529" opacity=".75" paint-order="stroke markers fill"/><circle cx="8.467" cy="288.533" r="7.144" fill="#f88c16" paint-order="stroke markers fill"/><circle cx="8.467" cy="288.533" r="5.821" fill="#fff" opacity=".15" paint-order="stroke markers fill"/><path fill="#fff" fill-rule="evenodd" d="M6.841 284.513a2 2 0 0 0-.524.062c-.462.12-.904.401-1.219.78-.314.379-.502.86-.44 1.372.065.874.475 2.312.986 3.542.256.616.537 1.178.817 1.59.14.207.28.376.419.496.137.118.277.19.423.19a.86.86 0 0 0 .666-.193c.193-.151.358-.368.513-.607.3-.464.57-1.053.877-1.402.03.035.072.146.12.235.096.179.22.439.38.705s.357.518.605.728c.247.21.548.341.904.342.214.015.43.001.603-.086.175-.088.307-.229.316-.446v-.002a.43.43 0 0 0-.214-.371c-.121-.076-.269-.128-.425-.208-.312-.162-.664-.425-.876-1.19-.168-.607-.39-1.061-.624-1.367-.234-.305-.423-.577-.723-.543-.52.06-.764.806-1.013 1.202-.152.244-.295.487-.419.68-.1.157-.175.244-.234.304-.192-.206-.306-.428-.286-.69.024-.294.191-.63.347-.987.31-.714.705-1.515.624-2.308-.06-.58-.362-1.23-.789-1.564a1.4 1.4 0 0 0-.641-.25 2 2 0 0 0-.173-.014m-.041.983c.301.118.536.375.638.575a2.3 2.3 0 0 0-.64-.27 1.5 1.5 0 0 0-.531.307 1 1 0 0 1 .533-.612m-1.166.459c.244.003.48.07.633.149-.268.008-.516.05-.694.11-.11.135-.204.3-.254.505a.84.84 0 0 1 .07-.745q.122-.02.245-.02zm1.12.143c.26-.025.486.309.503.745.008.187-.025.33-.085.471a2.6 2.6 0 0 0-.706.113c-.014-.022-.03-.041-.042-.066l-.011.084a2 2 0 0 0-.593.334 1 1 0 0 1-.226-.548c-.045-.398.102-.805.33-.828.15-.015.295.176.392.374.029-.366.209-.656.437-.679zm.02.621a.167.23 0 0 0-.172.23.167.23 0 0 0 .334 0 .167.23 0 0 0-.163-.23zm-.72.174a.167.23 0 0 0-.172.23.167.23 0 0 0 .335 0 .167.23 0 0 0-.163-.23m1.384.591c-.007.627-.63 1.38-1.009 1.377-.533-.005-.714-.367-.83-.617.601-.143 1.366-.482 1.839-.76"/><path fill="#fff" d="M7.38 287.822c-.11.145-.343.255-.73.425.441-.093.433-.003.447.132a1.9 1.9 0 0 0 .283-.557m-.93.502c-.41.12-.59.148-.762.097a.8.8 0 0 0 .388.37c-.067-.135-.067-.258.373-.467z" opacity=".5"/></g></svg>