<svg xmlns="http://www.w3.org/2000/svg" width="64" height="64" viewBox="0 0 16.933 16.933"><rect width="14.287" height="14.287" x="1.323" y="-15.61" fill="#bb1e57" stroke="#871c44" stroke-linecap="round" stroke-linejoin="round" stroke-width=".529" color="#000" overflow="visible" rx="7.144" ry="7.144" transform="scale(1 -1)"/><rect width="14.287" height="14.287" x="1.323" y="-15.61" fill="#bb1e57" color="#000" overflow="visible" rx="7.144" ry="7.144" transform="scale(1 -1)"/><g transform="translate(0 -280.07)"><path fill="#fff" d="M6.218 285.094a2.25 2.25 0 0 0-2.16 2.872l-.332 2.594a.7.7 0 0 0-.022.17c0 .394.328.713.733.713a.74.74 0 0 0 .563-.258v.001l1.437-1.61a2.24 2.24 0 0 0 1.021-.359h2.017c.306.203.657.322 1.021.359l1.437 1.61a.74.74 0 0 0 .563.258c.405 0 .733-.32.733-.714a.7.7 0 0 0-.022-.17l-.332-2.594a2.25 2.25 0 0 0-2.159-2.873z"/><path fill="#27ae60" d="M10.848 285.887a.397.397 0 0 0-.397.397.397.397 0 0 0 .397.397.397.397 0 0 0 .397-.397.397.397 0 0 0-.397-.397"/><path fill="#f36137" d="M10.054 286.681a.397.397 0 0 0-.397.397.397.397 0 0 0 .397.397.397.397 0 0 0 .397-.397.397.397 0 0 0-.397-.397"/><path fill="#f05242" d="M11.642 286.681a.397.397 0 0 0-.397.397.397.397 0 0 0 .397.397.397.397 0 0 0 .397-.397.397.397 0 0 0-.397-.397"/><path fill="#2980b9" d="M10.848 287.475a.397.397 0 0 0-.397.397.397.397 0 0 0 .397.397.397.397 0 0 0 .397-.397.397.397 0 0 0-.397-.397"/><circle cx="6.085" cy="286.95" r=".794" fill="#f88e45" paint-order="stroke markers fill"/><path fill="#666" stroke="#e1e1e1" stroke-linecap="square" stroke-width=".529" d="M7.144 288.533a.53.53 0 0 0-.53.53.53.53 0 0 0 .53.529.53.53 0 0 0 .529-.53.53.53 0 0 0-.53-.529zm2.646 0a.53.53 0 0 0-.53.53.53.53 0 0 0 .53.529.53.53 0 0 0 .529-.53.53.53 0 0 0-.53-.529z" paint-order="markers stroke fill"/></g></svg>