<svg xmlns="http://www.w3.org/2000/svg" width="64" height="64" viewBox="0 0 16.933 16.933"><g paint-order="stroke markers fill" transform="translate(0 -280.067)"><rect width="13.229" height="14.287" x="1.852" y="281.39" fill="#549bff" stroke="#0b48a9" stroke-width=".529" opacity=".75" ry=".571"/><g stroke-width=".961" transform="matrix(1.04167 0 0 1.08 -.353 -23.082)"><rect width="12.7" height="13.229" x="2.117" y="281.919" fill="#549bff" ry=".529"/><path fill="#00f" d="M2.646 281.919a.53.53 0 0 0-.53.529v5.045a9.26 9.26 0 0 0 8.467 5.538 9.26 9.26 0 0 0 4.234-1.027v-9.556a.53.53 0 0 0-.53-.53z" opacity=".1"/><path fill="#00f" d="M2.646 281.919a.53.53 0 0 0-.53.529v12.17c0 .294.237.53.53.53h5.909a10.58 10.58 0 0 0 6.262-5.472v-7.228a.53.53 0 0 0-.53-.53z" opacity=".1"/></g><path fill="#fff" d="M5.292 284.035a3.175 3.175 0 0 0 3.175 3.175 3.175 3.175 0 0 0 3.175-3.175h-.794a2.38 2.38 0 0 1-2.381 2.382 2.38 2.38 0 0 1-2.382-2.382z"/></g></svg>