<svg xmlns="http://www.w3.org/2000/svg" width="64" height="64" viewBox="0 0 16.933 16.933"><defs><linearGradient id="a" x1="301" x2="104" y1="33.559" y2="33.559" gradientTransform="translate(-.53 279.27)scale(.06615)" gradientUnits="userSpaceOnUse"><stop offset="0" stop-color="#f9f06b"/><stop offset="1" stop-color="#f9f06b" stop-opacity="0"/></linearGradient></defs><g stroke-width="2" transform="matrix(.5 0 0 .5 0 -132.62)"><rect width="29.633" height="25.4" x="2.117" y="269.48" fill="#f6f5f4" stroke="#212121" stroke-width="1.058" opacity=".25" rx="2.117" ry="2.363"/><rect width="29.633" height="25.4" x="2.117" y="269.48" fill="#f6f5f4" rx="2.117" ry="2.363"/><rect width="24.342" height="23.282" x="3.175" y="270.54" fill="#241f31" rx="1.058" ry="1.226"/><path fill="#fff" d="M4.233 292.77h22.225v-21.166H4.233z" opacity=".1"/><path fill="#fff" d="M5.82 271.6v2.645H4.234v.53h1.588v2.116H4.233v.53h1.588v2.116H4.233v.53h1.588v2.116H4.233v.53h1.588v2.116H4.233v.529h1.588v2.117H4.233v.529h1.588v2.116H4.233v.53h1.588v2.116h.529v-2.116h2.117v2.116h.529v-2.116h2.117v2.116h.529v-2.116h2.116v2.116h.53v-2.116h2.116v2.116h.53v-2.116h2.116v2.116h.53v-2.116h2.116v2.116h.529v-2.116h2.117v2.116h.529v-2.116h1.587v-.53h-1.587v-2.116h1.587v-.53h-1.587v-2.116h1.587v-.53h-1.587v-2.116h1.587v-.53h-1.587v-2.116h1.587v-.53h-1.587v-2.116h1.587v-.53h-1.587v-2.115h1.587v-.53h-1.587V271.6h-.53v2.645h-2.116V271.6h-.53v2.645H19.58V271.6h-.529v2.645h-2.117V271.6h-.529v2.645h-2.116V271.6h-.53v2.645h-2.116V271.6h-.53v2.645H8.997V271.6h-.53v2.645H6.35V271.6zm.53 3.175h2.117v2.116H6.35zm2.646 0h2.117v2.116H8.996zm2.646 0h2.116v2.116h-2.116zm2.646 0h2.116v2.116h-2.116zm2.645 0h2.117v2.116h-2.117zm2.646 0h2.117v2.116h-2.117zm2.646 0h2.117v2.116h-2.117zM6.35 277.42h2.117v2.117H6.35zm2.646 0h2.117v2.117H8.996zm2.646 0h2.116v2.117h-2.116zm2.646 0h2.116v2.117h-2.116zm2.645 0h2.117v2.117h-2.117zm2.646 0h2.117v2.117h-2.117zm2.646 0h2.117v2.117h-2.117zM6.35 280.066h2.117v2.117H6.35zm2.646 0h2.117v2.117H8.996zm2.646 0h2.116v2.117h-2.116zm2.646 0h2.116v2.117h-2.116zm2.645 0h2.117v2.117h-2.117zm2.646 0h2.117v2.117h-2.117zm2.646 0h2.117v2.117h-2.117zM6.35 282.712h2.117v2.117H6.35zm2.646 0h2.117v2.117H8.996zm2.646 0h2.116v2.117h-2.116zm2.646 0h2.116v2.117h-2.116zm2.645 0h2.117v2.117h-2.117zm2.646 0h2.117v2.117h-2.117zm2.646 0h2.117v2.117h-2.117zM6.35 285.358h2.117v2.117H6.35zm2.646 0h2.117v2.117H8.996zm2.646 0h2.116v2.117h-2.116zm2.646 0h2.116v2.117h-2.116zm2.645 0h2.117v2.117h-2.117zm2.646 0h2.117v2.117h-2.117zm2.646 0h2.117v2.117h-2.117zM6.35 288.004h2.117v2.116H6.35zm2.646 0h2.117v2.116H8.996zm2.646 0h2.116v2.116h-2.116zm2.646 0h2.116v2.116h-2.116zm2.645 0h2.117v2.116h-2.117zm2.646 0h2.117v2.116h-2.117zm2.646 0h2.117v2.116h-2.117z" opacity=".06"/><path fill="none" stroke="#e5a50a" stroke-miterlimit="10" stroke-width="1.058" d="M4.233 282.71h6.88l2.645-6.085 1.588 10.319 2.117-4.234h8.995" opacity=".236"/><path fill="none" stroke="url(#a)" stroke-linecap="round" stroke-miterlimit="10" stroke-width="1.058" d="M4.233 282.71h6.88l2.645-6.085 1.588 10.319 2.117-4.234h1.587"/><g transform="translate(0 218.15)scale(.26458)"><path fill="#949390" d="M116 232v4a4 4 0 0 1-8 0v-2l4-2zm0 16v6h-4c-2.216 0-4-1.784-4-4v-2z"/><path fill="#d5d3cf" d="M116 252v-4a4 4 0 0 0-4-4 4 4 0 0 0-4 4 4 4 0 0 0 4 4z"/><circle cx="-114" cy="250" r="1" fill="#68676b" transform="scale(-1 1)"/><path fill="#d5d3cf" d="M116 230v4a4 4 0 0 1-4 4 4 4 0 0 1-4-4 4 4 0 0 1 4-4z"/><circle cx="-114" cy="-232" r="1" fill="#68676b" transform="scale(-1)"/><path fill="#949390" d="M108 218v4a4 4 0 0 0 8 0v-2l-4-2z"/><path fill="#d5d3cf" d="M108 216v4a4 4 0 0 0 4 4 4 4 0 0 0 4-4 4 4 0 0 0-4-4z"/><circle cx="110" cy="-218" r="1" fill="#68676b" transform="scale(1 -1)"/><path fill="#949390" d="M116 206v6h-4c-2.216 0-4-1.784-4-4v-2z"/><path fill="#d5d3cf" d="M116 210v-4a4 4 0 0 0-4-4 4 4 0 0 0-4 4 4 4 0 0 0 4 4z"/><circle cx="-114" cy="208" r="1" fill="#68676b" transform="scale(-1 1)"/></g></g></svg>