<svg xmlns="http://www.w3.org/2000/svg" width="64" height="64" viewBox="0 0 16.933 16.933"><g transform="translate(0 -280.067)"><rect ry=".857" rx=".857" y="281.39" x="1.323" height="14.287" width="14.287" opacity=".9" fill="#c2a6c2" stroke="#836583" stroke-width=".529" stroke-linecap="round" stroke-linejoin="round" paint-order="markers stroke fill"/><rect width="14.287" height="14.287" x="1.323" y="281.39" rx=".857" ry=".857" fill="#ac8fac" paint-order="markers stroke fill"/><rect ry=".265" rx=".265" y="282.712" x="2.646" height="11.642" width="11.642" fill="#fff" paint-order="markers stroke fill"/><path opacity=".05" paint-order="markers stroke fill" d="M10.451 282.712v3.681H6.482v-3.681zm4.101 3.981v3.681h-3.969v-3.681zm-4.101 3.957v3.681H6.482v-3.681zm-3.836-3.969v3.681H2.646v-3.681z"/><path fill="#e6dae6" paint-order="markers stroke fill" d="M6.085 282.712h.529v11.642h-.529zm4.234 0h.529v11.642h-.529z"/><path fill="#e6dae6" paint-order="markers stroke fill" d="M14.288 286.152v.529H2.646v-.529zm0 4.233v.529H2.646v-.529z"/><text style="line-height:1.25" x="3.389" y="285.581" font-weight="400" font-size="3.192" font-family="sans-serif" letter-spacing="0" word-spacing="0" fill="#666" stroke-width=".265"><tspan x="3.389" y="285.581">5</tspan></text><rect width="4.233" height="4.233" x="286.417" y="-10.583" transform="rotate(90)" ry=".47" rx=".47" fill="#de8787" paint-order="markers stroke fill"/><text y="289.592" x="7.598" style="line-height:1.25" font-weight="400" font-size="3.188" font-family="sans-serif" letter-spacing="0" word-spacing="0" fill="#fff" stroke-width=".265"><tspan y="289.592" x="7.598">2</tspan></text><text style="line-height:1.25" x="7.639" y="293.784" font-weight="400" font-size="3.133" font-family="sans-serif" letter-spacing="0" word-spacing="0" fill="#666" stroke-width=".265"><tspan x="7.639" y="293.784">3</tspan></text><text y="293.784" x="11.663" style="line-height:1.25" font-weight="400" font-size="3.133" font-family="sans-serif" letter-spacing="0" word-spacing="0" fill="#666" stroke-width=".265"><tspan y="293.784" x="11.663">9</tspan></text></g></svg>