<svg xmlns="http://www.w3.org/2000/svg" width="64" height="64" viewBox="0 0 16.933 16.933"><path fill="#fff" stroke="#000" stroke-opacity=".196" stroke-width=".529" d="M8.466 1.323a7.143 7.143 0 0 0-7.143 7.144 7.143 7.143 0 0 0 7.143 7.143c1.972 0 1.602-1.64 2.1-2.264.374-.47.89-.957 1.488-1.02.698-.075 1.056.24 1.607.225.846-.021 1.45-.683 1.776-1.568.206-.557.171-2.023.171-2.516a7.143 7.143 0 0 0-7.142-7.144zm4.665 7.701a1.099 1.099 0 1 1 0 2.198 1.099 1.099 0 0 1 0-2.198z" paint-order="stroke markers fill"/><path fill="#fff" d="M8.466 1.323a7.143 7.143 0 0 0-7.143 7.144 7.143 7.143 0 0 0 7.143 7.143c1.972 0 1.602-1.64 2.1-2.264.374-.47.89-.957 1.488-1.02.698-.075 1.056.24 1.607.225.846-.021 1.45-.683 1.776-1.568.206-.557.171-2.023.171-2.516a7.143 7.143 0 0 0-7.142-7.144m4.665 7.701a1.099 1.099 0 1 1 0 2.198 1.099 1.099 0 0 1 0-2.198" paint-order="stroke markers fill"/><g stroke-width=".944"><path fill="#ff8e3d" d="M4.763 11.812s1.426.388 2.126-.013c.701-.4.876-1.076.626-1.639s-.613-.638-1.126-.625c-.513.012-1.013.2-1.114.7-.1.5.1.901-.062 1.227-.163.325-.45.35-.45.35"/><path fill="#ffd13d" d="M6.012 10.862c.933.065 1.47-.655 1.298-.978s-.422-.366-.774-.359-.697.115-.766.402-.098.448.009.9a.7.7 0 0 1 .484-.32c-.031.124-.138.237-.25.355z"/><path fill="#333" d="m12 5.866-3.95 4.196c-.181.194-.456.232-.593.095l-.493-.495c-.136-.137-.1-.406.094-.588l4.2-3.95c.194-.182.45-.23.587-.092l.247.247c.137.137.09.393-.093.587z" paint-order="stroke markers fill"/></g></svg>