<?xml version="1.0" encoding="UTF-8" standalone="no"?>
<!-- Created with Inkscape (http://www.inkscape.org/) -->

<svg
   xmlns:dc="http://purl.org/dc/elements/1.1/"
   xmlns:cc="http://creativecommons.org/ns#"
   xmlns:rdf="http://www.w3.org/1999/02/22-rdf-syntax-ns#"
   xmlns:svg="http://www.w3.org/2000/svg"
   xmlns="http://www.w3.org/2000/svg"
   xmlns:sodipodi="http://sodipodi.sourceforge.net/DTD/sodipodi-0.dtd"
   xmlns:inkscape="http://www.inkscape.org/namespaces/inkscape"
   width="64"
   height="64"
   viewBox="0 0 16.933333 16.933333"
   version="1.1"
   id="svg4572"
   inkscape:version="0.92.4 (5da689c313, 2019-01-14)"
   sodipodi:docname="gnome-chess.svg">
  <title
     id="title4611">Canvas icon theme</title>
  <defs
     id="defs4566" />
  <sodipodi:namedview
     id="base"
     pagecolor="#ffffff"
     bordercolor="#666666"
     borderopacity="1.0"
     inkscape:pageopacity="0.0"
     inkscape:pageshadow="2"
     inkscape:zoom="1.979899"
     inkscape:cx="18.575443"
     inkscape:cy="67.025492"
     inkscape:document-units="px"
     inkscape:current-layer="layer1"
     showgrid="true"
     units="px"
     width="64px"
     showguides="true"
     inkscape:guide-bbox="true"
     inkscape:window-width="1366"
     inkscape:window-height="711"
     inkscape:window-x="0"
     inkscape:window-y="27"
     inkscape:window-maximized="1"
     inkscape:snap-bbox="true"
     inkscape:bbox-nodes="true"
     inkscape:snap-bbox-edge-midpoints="true"
     inkscape:snap-nodes="true">
    <inkscape:grid
       type="xygrid"
       id="grid4582" />
    <sodipodi:guide
       position="1.0583333,1.0583333"
       orientation="1,0"
       id="guide4586"
       inkscape:locked="false" />
    <sodipodi:guide
       position="15.875,15.875"
       orientation="1,0"
       id="guide4588"
       inkscape:locked="false" />
    <sodipodi:guide
       position="1.0583333,1.0583333"
       orientation="0,1"
       id="guide4590"
       inkscape:locked="false" />
    <sodipodi:guide
       position="8.4666665,8.4666665"
       orientation="0,1"
       id="guide822"
       inkscape:locked="false" />
    <sodipodi:guide
       position="8.4666665,8.4666665"
       orientation="1,0"
       id="guide824"
       inkscape:locked="false" />
  </sodipodi:namedview>
  <metadata
     id="metadata4569">
    <rdf:RDF>
      <cc:Work
         rdf:about="">
        <dc:format>image/svg+xml</dc:format>
        <dc:type
           rdf:resource="http://purl.org/dc/dcmitype/StillImage" />
        <dc:title>Canvas icon theme</dc:title>
        <cc:license
           rdf:resource="http://creativecommons.org/licenses/by-nc-sa/4.0/" />
        <dc:creator>
          <cc:Agent>
            <dc:title>Vince Liuice</dc:title>
          </cc:Agent>
        </dc:creator>
      </cc:Work>
      <cc:License
         rdf:about="http://creativecommons.org/licenses/by-nc-sa/4.0/">
        <cc:permits
           rdf:resource="http://creativecommons.org/ns#Reproduction" />
        <cc:permits
           rdf:resource="http://creativecommons.org/ns#Distribution" />
        <cc:requires
           rdf:resource="http://creativecommons.org/ns#Notice" />
        <cc:requires
           rdf:resource="http://creativecommons.org/ns#Attribution" />
        <cc:prohibits
           rdf:resource="http://creativecommons.org/ns#CommercialUse" />
        <cc:permits
           rdf:resource="http://creativecommons.org/ns#DerivativeWorks" />
        <cc:requires
           rdf:resource="http://creativecommons.org/ns#ShareAlike" />
      </cc:License>
    </rdf:RDF>
  </metadata>
  <g
     inkscape:label="Layer 1"
     inkscape:groupmode="layer"
     id="layer1"
     transform="translate(0,-280.06667)">
    <path
       inkscape:connector-curvature="0"
       style="opacity:1;fill:#808080;fill-opacity:1;stroke:#4d4d4d;stroke-width:0.52916666;stroke-linecap:round;stroke-linejoin:round;stroke-miterlimit:4;stroke-dasharray:none;stroke-opacity:1;paint-order:markers stroke fill"
       d="m 2.4129998,281.65416 c -0.4573267,0 -0.8255,0.36818 -0.8255,0.8255 v 6.05368 h 6.8791666 v -6.87918 z"
       id="rect849" />
    <path
       id="path857"
       d="m 14.520333,281.65416 c 0.457327,0 0.8255,0.36818 0.8255,0.8255 v 6.05368 H 8.4666667 v -6.87918 z"
       style="opacity:1;fill:#f9f9f9;fill-opacity:1;stroke:#4d4d4d;stroke-width:0.52916666;stroke-linecap:round;stroke-linejoin:round;stroke-miterlimit:4;stroke-dasharray:none;stroke-opacity:1;paint-order:markers stroke fill"
       inkscape:connector-curvature="0" />
    <path
       inkscape:connector-curvature="0"
       style="opacity:1;fill:#f9f9f9;fill-opacity:1;stroke:#4d4d4d;stroke-width:0.52916666;stroke-linecap:round;stroke-linejoin:round;stroke-miterlimit:4;stroke-dasharray:none;stroke-opacity:1;paint-order:markers stroke fill"
       d="m 2.4129998,295.41251 c -0.4573265,0 -0.8255,-0.36818 -0.8255,-0.8255 v -6.05367 h 6.8791665 v 6.87917 z"
       id="path859" />
    <path
       id="path845"
       d="m 2.4129998,281.65416 c -0.4573267,0 -0.8255,0.36818 -0.8255,0.8255 v 6.05368 h 6.8791666 v -6.87918 z"
       style="opacity:1;fill:#808080;fill-opacity:1;stroke:none;stroke-width:0.52916666;stroke-linecap:round;stroke-linejoin:round;stroke-miterlimit:4;stroke-dasharray:none;stroke-opacity:1;paint-order:markers stroke fill"
       inkscape:connector-curvature="0" />
    <path
       id="path872"
       d="m 14.520333,295.41251 c 0.457327,0 0.8255,-0.36818 0.8255,-0.8255 v -6.05367 H 8.4666663 v 6.87917 z"
       style="opacity:1;fill:#808080;fill-opacity:1;stroke:#4d4d4d;stroke-width:0.52916666;stroke-linecap:round;stroke-linejoin:round;stroke-miterlimit:4;stroke-dasharray:none;stroke-opacity:1;paint-order:markers stroke fill"
       inkscape:connector-curvature="0" />
    <path
       inkscape:connector-curvature="0"
       style="opacity:1;fill:#f9f9f9;fill-opacity:1;stroke:none;stroke-width:0.52916666;stroke-linecap:round;stroke-linejoin:round;stroke-miterlimit:4;stroke-dasharray:none;stroke-opacity:1;paint-order:markers stroke fill"
       d="m 14.520333,281.65416 c 0.457327,0 0.8255,0.36818 0.8255,0.8255 v 6.05368 H 8.4666667 v -6.87918 z"
       id="path847" />
    <path
       id="path849"
       d="m 2.4129998,295.41251 c -0.4573265,0 -0.8255,-0.36818 -0.8255,-0.8255 v -6.05367 h 6.8791665 v 6.87917 z"
       style="opacity:1;fill:#f9f9f9;fill-opacity:1;stroke:none;stroke-width:0.52916666;stroke-linecap:round;stroke-linejoin:round;stroke-miterlimit:4;stroke-dasharray:none;stroke-opacity:1;paint-order:markers stroke fill"
       inkscape:connector-curvature="0" />
    <path
       inkscape:connector-curvature="0"
       style="opacity:1;fill:#808080;fill-opacity:1;stroke:none;stroke-width:0.52916666;stroke-linecap:round;stroke-linejoin:round;stroke-miterlimit:4;stroke-dasharray:none;stroke-opacity:1;paint-order:markers stroke fill"
       d="m 14.520333,295.41251 c 0.457327,0 0.8255,-0.36818 0.8255,-0.8255 v -6.05367 H 8.4666663 v 6.87917 z"
       id="path851" />
    <path
       inkscape:connector-curvature="0"
       d="m 11.307243,292.30556 h -0.03075 v -0.11072 c 0,-0.14216 -0.115064,-0.25722 -0.256897,-0.25722 H 10.89958 c -0.01519,-0.1511 -0.02151,-0.30154 0.0097,-0.44238 0.138864,-0.62489 0.309137,-1.24448 0.502884,-1.85384 0.319057,-1.00244 0.51148,-2.00491 0.194079,-3.04539 -0.354434,-1.16315 -1.057344,-1.98839 -2.2525618,-2.34645 -0.082987,-0.0248 -0.1676281,-0.10182 -0.2149097,-0.17755 -0.1699399,-0.27343 -0.3590601,-0.52438 -0.6652179,-0.75218 -0.014209,0.13522 -0.030078,0.22152 -0.030753,0.30814 -7.936e-4,0.12828 0.00399,0.25723 0.015195,0.38518 0.015557,0.17754 -0.039,0.28467 -0.2360681,0.30054 -0.1101035,0.008 -0.217551,0.0498 -0.3207066,0.0751 0,0.39938 0,0.39938 -0.3620365,0.54653 -0.1190257,0.0483 -0.2449947,0.0845 -0.3547642,0.14877 -0.088606,0.0516 -0.165644,0.12927 -0.2340838,0.20764 -0.1587009,0.18184 -0.2909504,0.39013 -0.4661841,0.5528 -0.3504632,0.32534 -0.7168006,0.63415 -1.0880933,0.936 -0.1600221,0.13027 -0.2816942,0.24798 -0.2020104,0.4771 0.023131,0.0665 -0.00861,0.15407 -0.023131,0.23079 -0.044635,0.23606 0.1580423,0.64274 0.3759229,0.7482 0.5161074,0.24995 0.9224492,0.18118 1.3311041,-0.23277 0.1927543,-0.19506 0.4040249,-0.27209 0.6767922,-0.17787 0.3749309,0.1296 0.7581297,0.22583 1.2061274,0.12071 -0.088273,0.0929 -0.1401841,0.14945 -0.1940749,0.20401 -0.5121447,0.52074 -1.0067599,1.05602 -1.3816908,1.68785 -0.2978976,0.50222 -0.5412377,1.0299 -0.5313189,1.62767 0.00278,0.15639 0.020155,0.31277 0.041988,0.47082 h -0.051244 c -0.1421723,0 -0.2572304,0.11533 -0.2572304,0.25722 v 0.11072 h -0.03043 c -0.1606847,0 -0.2912836,0.13059 -0.2912836,0.29128 v 1.15059 l 5.5330424,-10e-4 v -1.14992 c 0,-0.16003 -0.130267,-0.29029 -0.291285,-0.29029 z"
       id="path5"
       style="fill:#4d4d4d;fill-opacity:1;stroke-width:0.33020005" />
  </g>
</svg>
