<svg xmlns="http://www.w3.org/2000/svg" width="64" height="64"><g transform="translate(3.826 3.826)scale(1.1739)"><path fill="#5a5a5a" stroke="#333" stroke-width="1.704" d="M24 1c12.703 0 23 10.297 23 23S36.703 47 24 47 1 36.703 1 24 11.297 1 24 1z"/><path fill="#5a5a5a" d="M24 1c12.703 0 23 10.297 23 23S36.703 47 24 47 1 36.703 1 24 11.297 1 24 1"/><path fill="#949698" d="M29.433 32.79 33 36c.245.22.671.151.949-.158l3.01-3.342c.277-.308.301-.739.055-.958l-3.566-3.214c-.249-.221-.671-.151-.949.158l-3.01 3.342c-.277.308-.305.738-.056.962"/><path fill="#949698" d="M37 24c0 7.181-5.819 13-13 13s-13-5.819-13-13 5.819-13 13-13 13 5.819 13 13"/><path fill="#ebebeb" d="M35 24c0 6.075-4.925 11-11 11s-11-4.925-11-11 4.925-11 11-11 11 4.925 11 11"/><rect width="4" height="2" x="14" y="23" fill="#b6b6b6" rx=".3"/><rect width="4" height="2" x="30" y="23" fill="#b6b6b6" rx=".3"/><rect width="4" height="2" x="14" y="-25" fill="#b6b6b6" rx=".3" transform="rotate(90)"/><rect width="4" height="2" x="30" y="-25" fill="#b6b6b6" rx=".3" transform="rotate(90)"/><path fill="#5fd35f" d="M35 11.278 24 22.65l-5.5-5.6-1.75 1.75L24 26l13-12.7z"/><path fill="#949698" d="M26.2 23.999a2.2 2.2 0 1 1-4.4 0 2.2 2.2 0 1 1 4.4 0"/></g></svg>