<?xml version="1.0" encoding="UTF-8" standalone="no"?>
<!-- Created with Inkscape (http://www.inkscape.org/) -->

<svg
   xmlns:dc="http://purl.org/dc/elements/1.1/"
   xmlns:cc="http://creativecommons.org/ns#"
   xmlns:rdf="http://www.w3.org/1999/02/22-rdf-syntax-ns#"
   xmlns:svg="http://www.w3.org/2000/svg"
   xmlns="http://www.w3.org/2000/svg"
   xmlns:sodipodi="http://sodipodi.sourceforge.net/DTD/sodipodi-0.dtd"
   xmlns:inkscape="http://www.inkscape.org/namespaces/inkscape"
   width="64"
   height="64"
   viewBox="0 0 16.933333 16.933333"
   version="1.1"
   id="svg4572"
   inkscape:version="0.92.4 (5da689c313, 2019-01-14)"
   sodipodi:docname="goa-account-pocket.svg">
  <title
     id="title4611">Canvas icon theme</title>
  <defs
     id="defs4566" />
  <sodipodi:namedview
     id="base"
     pagecolor="#ffffff"
     bordercolor="#666666"
     borderopacity="1.0"
     inkscape:pageopacity="0.0"
     inkscape:pageshadow="2"
     inkscape:zoom="5.6"
     inkscape:cx="40.528203"
     inkscape:cy="23.271615"
     inkscape:document-units="px"
     inkscape:current-layer="layer1"
     showgrid="true"
     units="px"
     width="64px"
     showguides="true"
     inkscape:guide-bbox="true"
     inkscape:window-width="1221"
     inkscape:window-height="696"
     inkscape:window-x="143"
     inkscape:window-y="0"
     inkscape:window-maximized="0"
     inkscape:snap-bbox="true"
     inkscape:bbox-nodes="true"
     inkscape:snap-bbox-edge-midpoints="false">
    <inkscape:grid
       type="xygrid"
       id="grid4582" />
    <sodipodi:guide
       position="1.0583333,15.875"
       orientation="0,1"
       id="guide4584"
       inkscape:locked="false" />
    <sodipodi:guide
       position="1.0583333,1.0583333"
       orientation="1,0"
       id="guide4586"
       inkscape:locked="false" />
    <sodipodi:guide
       position="15.875,15.875"
       orientation="1,0"
       id="guide4588"
       inkscape:locked="false" />
    <sodipodi:guide
       position="1.0583333,1.0583333"
       orientation="0,1"
       id="guide4590"
       inkscape:locked="false" />
    <sodipodi:guide
       position="8.4666665,8.4666665"
       orientation="0,1"
       id="guide822"
       inkscape:locked="false" />
    <sodipodi:guide
       position="8.4666665,8.4666665"
       orientation="1,0"
       id="guide824"
       inkscape:locked="false" />
  </sodipodi:namedview>
  <metadata
     id="metadata4569">
    <rdf:RDF>
      <cc:Work
         rdf:about="">
        <dc:format>image/svg+xml</dc:format>
        <dc:type
           rdf:resource="http://purl.org/dc/dcmitype/StillImage" />
        <dc:title>Canvas icon theme</dc:title>
        <cc:license
           rdf:resource="http://creativecommons.org/licenses/by-nc-sa/4.0/" />
        <dc:creator>
          <cc:Agent>
            <dc:title>Vince Liuice</dc:title>
          </cc:Agent>
        </dc:creator>
      </cc:Work>
      <cc:License
         rdf:about="http://creativecommons.org/licenses/by-nc-sa/4.0/">
        <cc:permits
           rdf:resource="http://creativecommons.org/ns#Reproduction" />
        <cc:permits
           rdf:resource="http://creativecommons.org/ns#Distribution" />
        <cc:requires
           rdf:resource="http://creativecommons.org/ns#Notice" />
        <cc:requires
           rdf:resource="http://creativecommons.org/ns#Attribution" />
        <cc:prohibits
           rdf:resource="http://creativecommons.org/ns#CommercialUse" />
        <cc:permits
           rdf:resource="http://creativecommons.org/ns#DerivativeWorks" />
        <cc:requires
           rdf:resource="http://creativecommons.org/ns#ShareAlike" />
      </cc:License>
    </rdf:RDF>
  </metadata>
  <g
     inkscape:label="Layer 1"
     inkscape:groupmode="layer"
     id="layer1"
     transform="translate(0,-280.06667)">
    <path
       d="m 5.1460738,285.63274 c -0.3777684,0 -0.7364132,0.0541 -0.951599,0.30991 -0.3299496,0.38862 -0.2008401,1.16585 -0.2008401,1.6381 0,0.72312 -0.047824,1.49052 0.095638,2.20381 0.1530213,0.76247 0.6933762,1.5889 1.3006785,2.10542 0.4399344,0.37386 0.9133439,0.6395 1.4584807,0.85594 0.5355736,0.19185 1.0472377,0.2804 1.5828107,0.28531 0.4925366,0 0.9850727,-0.0541 1.4536994,-0.2066 0.478188,-0.15742 0.961163,-0.3837 1.358061,-0.67394 0.416027,-0.32958 0.750759,-0.65425 1.018546,-1.06746 0.191275,-0.30499 0.353861,-0.63458 0.473411,-0.97401 0.296478,-0.83626 0.210405,-1.82011 0.210405,-2.69081 0,-0.39354 0.10042,-1.1019 -0.157804,-1.43641 -0.387337,-0.50175 -1.248079,-0.32466 -1.888855,-0.32466 H 5.9781257 c -0.2438767,0 -0.5403555,-0.0344 -0.8320519,-0.0344 z m 5.4513722,2.14478 c 0.105202,0 0.210405,0.0295 0.325172,0.0984 0.258224,0.15741 0.339514,0.54111 0.157804,0.77724 -0.167369,0.22136 -0.416028,0.39845 -0.626433,0.58046 l -1.0854924,0.96909 c -0.2390957,0.22136 -0.4877547,0.53127 -0.8416156,0.56571 -0.3538609,0.0344 -0.5881743,-0.23612 -0.8177057,-0.44765 l -1.1380935,-1.01828 c -0.2343133,-0.19676 -0.5642648,-0.41813 -0.7268494,-0.67393 -0.2295295,-0.3591 0.038269,-0.79199 0.4542815,-0.8461 0.2677885,-0.0344 0.4542815,0.11806 0.640775,0.27547 l 1.0615828,0.94449 c 0.1099848,0.0984 0.2916955,0.35418 0.4447168,0.37386 0.1721508,0.0246 0.435152,-0.32467 0.5451373,-0.42305 l 0.7890144,-0.69853 c 0.2295298,-0.21152 0.4973188,-0.48208 0.8129238,-0.48208"
       style="fill:#ee4055;stroke-width:0.93750006"
       id="path2"
       inkscape:connector-curvature="0" />
    <g
       style="stroke-width:0.18518531"
       transform="matrix(0.02867758,0,0,0.02863226,-14.559702,280.90599)"
       id="g16">
      <path
         d="m 672.97,87.89 36,-20.691 c 29.384,-13.49 60.752,-20.309 93,-20.309 v -30 c -34.06,2.688 -66.25,7.03 -98,20.719 -8.07,3.481 -25.338,8.627 -29.972,16.494 -4.416,7.497 -1.028,25.15 -1.028,33.787 z"
         style="fill:#51bbb7;stroke-width:0.18518531"
         id="path4"
         inkscape:connector-curvature="0" />
      <path
         d="m 801.97,16.89 v 30 c 30.987,0 61.751,6.339 90,19.309 l 39,21.691 c 0,-8.623 3.687,-28.21 -1.028,-35.471 -4.649,-7.164 -21.306,-12.09 -28.972,-15.379 -30.898,-13.269 -65.4,-20.13 -99,-20.15 z"
         style="fill:#ef4155;stroke-width:0.18518531"
         id="path6"
         inkscape:connector-curvature="0" />
      <path
         d="m 930.97,52.89 c 0,9.62 -3.161,25.846 0.603,34.7 2.463,5.795 11.53,10.361 16.12,14.511 11.311,10.236 22.14,21.435 31.09,33.828 24.544,33.978 43.12,77.35 43.19,119.96 0.076,47.39 -9.709,91.84 -36.1,132 -9.534,14.508 -21.14,27.875 -33.81,39.711 -5.53,5.164 -17.523,11.617 -20.487,18.589 -3.664,8.618 -0.603,24.341 -0.603,33.7 28.17,-10.662 54.32,-40.57 71.895,-64 65.57,-87.43 65.57,-211.57 0,-299 -17.574,-23.43 -43.724,-53.34 -71.895,-64 z"
         style="fill:#fbb74b;stroke-width:0.18518531"
         id="path8"
         inkscape:connector-curvature="0" />
      <path
         d="m 671.97,53.89 c -31.521,21.264 -58.59,45.815 -79.31,78 -56.01,87.01 -50.675,202.53 11.181,285 17.681,23.573 42.07,49.2 69.13,62 0,-9.06 2.98,-24.365 -0.603,-32.7 -2.907,-6.76 -14.1,-12.276 -19.397,-17.339 -13.02,-12.445 -25.01,-25.881 -34.921,-40.961 -26.485,-40.3 -39.29,-88.85 -35.989,-137 3.06,-44.679 21.03,-88.46 49.33,-123 l 24.576,-25.714 15.972,-13.75 c 3.572,-5.889 2.638,-28.316 0.028,-34.536 z"
         style="fill:#83edb9;stroke-width:0.18518531"
         id="path10"
         inkscape:connector-curvature="0" />
      <path
         d="m 672.97,445.89 c 0,8.414 -3.278,25.478 1.028,32.787 4.634,7.867 21.899,13.01 29.972,16.494 31.753,13.692 63.936,18.03 98,20.719 v -29 c -33.15,0 -66.11,-7.06 -96,-21.756 -9.838,-4.837 -23.2,-10.443 -30,-19.244 z"
         style="fill:#51bbb7;stroke-width:0.18518531"
         id="path12"
         inkscape:connector-curvature="0" />
      <path
         d="m 801.97,486.89 v 29 c 33.604,-0.022 68.1,-6.881 99,-20.15 7.666,-3.293 24.323,-8.215 28.972,-15.379 4.604,-7.095 1.028,-26.06 1.028,-34.471 l -39,21.691 c -28.25,12.97 -59.01,19.309 -90,19.309 m 173,-41 1,1 z"
         style="fill:#ef4155;stroke-width:0.18518531"
         id="path14"
         inkscape:connector-curvature="0" />
    </g>
  </g>
</svg>
