<svg xmlns="http://www.w3.org/2000/svg" width="64" height="64" viewBox="0 0 16.933 16.933"><g transform="translate(-.265 -279.802)"><circle cx="8.731" cy="288.269" r="7.144" fill="#c2352a" stroke="#90241c" stroke-width=".529" paint-order="stroke markers fill"/><circle cx="8.731" cy="288.269" r="7.144" fill="#c2352a" paint-order="stroke markers fill"/><path fill="#fff" fill-rule="evenodd" d="M9.655 284.336a.46.46 0 0 0-.251.067l-5.333 3.11-2.226-1.112a7 7 0 0 0-.19.94l2.227 1.112a.46.46 0 0 0 .439-.014l5.548-3.237a.462.462 0 0 0-.214-.865zm0 1.85a.46.46 0 0 0-.251.067l-5.333 3.11-2.477-1.237-.007.143a7 7 0 0 0 .069.921l2.226 1.113a.46.46 0 0 0 .439-.014l5.548-3.237a.462.462 0 0 0-.214-.865zm0 1.85a.46.46 0 0 0-.251.066l-5.333 3.112-2.243-1.121a7 7 0 0 0 .47 1.268l1.584.791a.46.46 0 0 0 .439-.014l5.548-3.237a.462.462 0 0 0-.214-.865"/></g></svg>