<svg xmlns="http://www.w3.org/2000/svg" width="64" height="64"><rect width="54" height="54" x="5" y="5" fill="#f0f0f0" stroke="#d1d1d1" stroke-width="2" ry="27"/><rect width="54" height="54" x="5" y="5" fill="#f0f0f0" ry="27"/><g stroke-width=".75"><path fill="#4d4d4d" d="m27.928 13.98-4.83 1.628.763 4.884-4.17 2.287-2.341-2.289-4.883 4.884 3.254 3.254v8.851l.816.053v2.644l3.255 1.27V38.65c2.417.525 3.506.752 4.883.863v2.544l3.254.968v-3.002h8.14v3.002l3.255-.968v-2.544c1.377-.11 2.466-.337 4.884-.863v2.797l3.254-1.271v-2.644l.816-.053v-8.85l3.254-3.255-4.883-4.884-2.341 2.29-4.17-2.29.762-4.883-4.834-1.627-1.83 3.255h-4.475l-1.832-3.255zm-4.88 14.65a4.07 4.07 0 1 1 0 8.139 4.07 4.07 0 0 1 0-8.14zm17.904 0a4.07 4.07 0 1 1 0 8.139 4.07 4.07 0 0 1 0-8.14zM32 31.882a1.624 1.624 0 0 1 1.626 1.628v3.255A1.624 1.624 0 0 1 32 38.393a1.625 1.625 0 0 1-1.629-1.628V33.51c0-.9.726-1.628 1.629-1.628m-19.024 5.7.052 3.254c3.934 6.008 9.864 9.54 18.973 9.156 9.113.385 15.04-3.148 18.971-9.156l.051-3.254-2.746.863v2.393c-.796.511-3.256 1.184-4.884 1.627v-2.647l-3.257.51v2.137c-.921.778-2.638 1.291-4.883 1.628V40.84h-6.51v3.254c-2.244-.337-3.96-.85-4.882-1.628v-2.137l-3.258-.51v2.647c-1.627-.443-4.087-1.116-4.883-1.629v-2.391z"/><path fill="#47a5bf" d="M25.49 32.698a2.442 2.442 0 1 1-4.884 0 2.442 2.442 0 1 1 4.883 0zm17.903 0a2.442 2.442 0 1 1-4.883 0 2.442 2.442 0 1 1 4.883 0"/></g></svg>