<svg xmlns="http://www.w3.org/2000/svg" width="64" height="64"><rect width="54" height="54" x="5" y="5" fill="#f0f0f0" stroke="#c2c2c2" stroke-width="2" ry="27"/><rect width="54" height="54" x="5" y="5" fill="#f0f0f0" ry="27"/><g fill="#47a5bf" stroke-width=".75"><path d="M40.952 31.55c15.365 24.512 7.683 12.256 0 0m-17.904 0c27.301 24.512 13.65 12.256 0 0m27.976-.813-.053-3.255c-3.933-6.007-9.864-9.54-18.972-9.156-9.114-.384-15.04 3.149-18.971 9.156l-.052 3.255 2.747-.863V27.48c.796-.511 3.256-1.184 4.883-1.627V28.5l3.257-.51v-2.136c.922-.778 2.639-1.292 4.884-1.629v3.255h6.509v-3.255c2.245.337 3.961.851 4.883 1.629v2.136l3.257.51v-2.646c1.628.443 4.087 1.116 4.883 1.628v2.392z"/><path fill="#55bf47" d="M40.953 31.548c15.365 24.513 7.682 12.257 0 0m-17.905 0c27.302 24.513 13.651 12.257 0 0m27.976-.813-.052-3.254c-3.934-6.008-9.864-9.54-18.973-9.156-9.113-.385-15.04 3.148-18.971 9.156l-.051 3.254 2.746-.863V27.48c.796-.511 3.256-1.184 4.884-1.627V28.5l3.257-.51v-2.137c.921-.778 2.638-1.291 4.883-1.628v3.254h6.51v-3.254c2.244.337 3.96.85 4.882 1.628v2.137l3.258.51v-2.647c1.627.443 4.087 1.116 4.883 1.629v6.974z"/></g><path fill="#55bf47" d="M23.047 32.45c-15.365-24.512-7.682-12.256 0 0m17.905 0c-27.302-24.512-13.651-12.256 0 0m-27.976-1.712.052 5.78c3.934 6.008 9.864 9.54 18.973 9.156 9.113.385 15.04-3.148 18.971-9.156l.051-5.78-2.746 3.389v2.392c-.796.512-3.256 1.184-4.884 1.628V35.5l-3.257.51v2.137c-.921.777-2.638 1.291-4.883 1.628V36.52h-6.51v3.255c-2.244-.337-3.96-.85-4.882-1.628V36.01l-3.258-.51v2.647c-1.627-.444-4.087-1.116-4.883-1.629l.003-9.036z"/><path fill="#55bf47" d="m27.929 9.607-4.831 1.628.763 4.884-4.17 2.287-2.34-2.289-4.884 4.884 3.255 3.254h32.556l3.255-3.254-4.883-4.884-2.342 2.29-4.17-2.29.763-4.883-4.835-1.627-1.83 3.255h-4.475L27.93 9.607Zm8.142 43.469 4.831-1.628-.763-4.883 4.17-2.288 2.34 2.289 4.884-4.883-3.255-3.255H15.722l-3.255 3.255 4.883 4.883 2.342-2.29 4.17 2.29-.763 4.883 4.835 1.627 1.83-3.254h4.475z"/></svg>