<?xml version="1.0" encoding="UTF-8" standalone="no"?>
<!-- Created with Inkscape (http://www.inkscape.org/) -->

<svg
   xmlns:dc="http://purl.org/dc/elements/1.1/"
   xmlns:cc="http://creativecommons.org/ns#"
   xmlns:rdf="http://www.w3.org/1999/02/22-rdf-syntax-ns#"
   xmlns:svg="http://www.w3.org/2000/svg"
   xmlns="http://www.w3.org/2000/svg"
   xmlns:sodipodi="http://sodipodi.sourceforge.net/DTD/sodipodi-0.dtd"
   xmlns:inkscape="http://www.inkscape.org/namespaces/inkscape"
   width="64"
   height="64"
   viewBox="0 0 16.933333 16.933334"
   version="1.1"
   id="svg8"
   inkscape:version="0.92.4 (5da689c313, 2019-01-14)"
   sodipodi:docname="google-chrome.svg">
  <defs
     id="defs2">
    <linearGradient
       id="e"
       gradientUnits="userSpaceOnUse"
       x1="409.65225"
       x2="409.65225"
       y1="546.11548"
       y2="499.85736"
       gradientTransform="matrix(0.30075687,0,0,0.30075687,-114.39973,131.07186)">
      <stop
         offset="0"
         stop-color="#79a8ca"
         id="stop22" />
      <stop
         offset="1"
         stop-color="#9ecbda"
         id="stop24" />
    </linearGradient>
  </defs>
  <sodipodi:namedview
     id="base"
     pagecolor="#ffffff"
     bordercolor="#666666"
     borderopacity="1.0"
     inkscape:pageopacity="0.0"
     inkscape:pageshadow="2"
     inkscape:zoom="22.4"
     inkscape:cx="30.05642"
     inkscape:cy="9.4431949"
     inkscape:document-units="mm"
     inkscape:current-layer="layer1"
     showgrid="true"
     units="px"
     inkscape:window-width="1366"
     inkscape:window-height="706"
     inkscape:window-x="0"
     inkscape:window-y="32"
     inkscape:window-maximized="1"
     inkscape:snap-bbox="true"
     inkscape:snap-bbox-edge-midpoints="true"
     inkscape:snap-bbox-midpoints="true"
     inkscape:bbox-nodes="true">
    <inkscape:grid
       type="xygrid"
       id="grid3713" />
  </sodipodi:namedview>
  <metadata
     id="metadata5">
    <rdf:RDF>
      <cc:Work
         rdf:about="">
        <dc:format>image/svg+xml</dc:format>
        <dc:type
           rdf:resource="http://purl.org/dc/dcmitype/StillImage" />
        <dc:title />
      </cc:Work>
    </rdf:RDF>
  </metadata>
  <g
     inkscape:label="Layer 1"
     inkscape:groupmode="layer"
     id="layer1"
     transform="translate(0,-280.06663)">
    <g
       id="g46"
       style="fill-rule:evenodd;stroke:#000000;stroke-width:0.86373001;stroke-miterlimit:4;stroke-dasharray:none;stroke-opacity:0.25490196"
       transform="matrix(0.30632644,0,0,0.30632644,-116.67504,128.15591)">
      <path
         id="path38"
         d="m 389.52659,509.29903 c -2.97437,3.96679 -4.75516,8.96416 -4.75516,14.32577 0,13.15893 10.59366,23.67835 23.75258,23.67835 l 8.3134,-17.02762 -15.43918,-3.16207 z"
         inkscape:connector-curvature="0"
         style="fill:#0f9d58;fill-opacity:1;stroke:#000000;stroke-width:0.86373001;stroke-miterlimit:4;stroke-dasharray:none;stroke-opacity:0.25490196" />
      <path
         id="path40"
         d="m 409.71164,512.86192 7.12577,17.33938 -8.3134,17.10185 c 13.15892,0 23.75257,-10.59365 23.75257,-23.75257 0,-3.85418 -0.9287,-7.47634 -2.54458,-10.68866 z"
         inkscape:connector-curvature="0"
         style="fill:#ffcd40;fill-opacity:1;stroke:#000000;stroke-width:0.86373001;stroke-miterlimit:4;stroke-dasharray:none;stroke-opacity:0.25490196" />
      <path
         id="path44"
         d="m 408.51937,499.798 c -7.79731,0 -14.67185,3.73682 -18.99742,9.50567 l 11.87164,17.80979 15.43918,3.08784 -7.12578,-17.33938 h 20.02037 C 425.82632,505.10676 417.8241,499.798 408.51937,499.798 Z"
         inkscape:connector-curvature="0"
         style="fill:#db4437;fill-opacity:1;stroke:#000000;stroke-width:0.86373001;stroke-miterlimit:4;stroke-dasharray:none;stroke-opacity:0.25490196" />
    </g>
    <g
       transform="matrix(0.30075687,0,0,0.30075687,-114.39973,131.07186)"
       style="fill-rule:evenodd;stroke:none;stroke-width:0.96296304;stroke-opacity:0.25490196"
       id="g842">
      <path
         style="fill:#0f9d58;fill-opacity:1;stroke:none;stroke-width:0.96296304;stroke-opacity:0.25490196"
         inkscape:connector-curvature="0"
         d="m 389.52659,509.29903 c -2.97437,3.96679 -4.75516,8.96416 -4.75516,14.32577 0,13.15893 10.59366,23.67835 23.75258,23.67835 l 8.3134,-17.02762 -15.43918,-3.16207 z"
         id="path836" />
      <path
         style="fill:#ffcd40;fill-opacity:1;stroke:none;stroke-width:0.96296304;stroke-opacity:0.25490196"
         inkscape:connector-curvature="0"
         d="m 409.71164,512.86192 7.12577,17.33938 -8.3134,17.10185 c 13.15892,0 23.75257,-10.59365 23.75257,-23.75257 0,-3.85418 -0.9287,-7.47634 -2.54458,-10.68866 z"
         id="path838" />
      <path
         style="fill:#db4437;fill-opacity:1;stroke:none;stroke-width:0.96296304;stroke-opacity:0.25490196"
         inkscape:connector-curvature="0"
         d="m 408.51937,499.798 c -7.79731,0 -14.67185,3.73682 -18.99742,9.50567 l 11.87164,17.80979 15.43918,3.08784 -7.12578,-17.33938 h 20.02037 C 425.82632,505.10676 417.8241,499.798 408.51937,499.798 Z"
         id="path840" />
    </g>
    <path
       id="path50"
       d="m 8.4666666,285.09371 c 1.9055264,0 3.4395844,1.53406 3.4395844,3.43959 0,1.90552 -1.534058,3.43958 -3.4395844,3.43958 -1.9055294,0 -3.4395819,-1.53406 -3.4395819,-3.43958 0,-1.90553 1.5340525,-3.43959 3.4395819,-3.43959 z"
       inkscape:connector-curvature="0"
       style="fill:#f2f6f7;fill-opacity:1;stroke-width:0.28961775" />
    <path
       id="path52"
       d="m 8.3343749,286.01975 h 2.9e-6 c 1.3925001,0 2.5135392,1.12104 2.5135392,2.51355 0,1.3925 -1.1210391,2.51354 -2.5135392,2.51354 h -2.9e-6 c -1.392506,0 -2.5135417,-1.12104 -2.5135417,-2.51354 0,-1.39251 1.1210357,-2.51355 2.5135417,-2.51355 z"
       inkscape:connector-curvature="0"
       style="fill:#2566d3;fill-opacity:1;stroke-width:0.26458333;stroke:#000000;stroke-opacity:0.25490198;stroke-miterlimit:4;stroke-dasharray:none" />
  </g>
</svg>
