<svg xmlns="http://www.w3.org/2000/svg" width="64" height="64"><path fill="#255fdb" stroke="#1a449e" stroke-opacity=".35" d="M23.621 37.624C14.416 25.446 4.966 34.7 7.433 43.211c4.237 9.312 13.693 15.79 24.558 15.79 9.634 0 17.964-5.023 22.696-12.335-7.118 6.661-20.038 5.548-31.066-9.042z"/><path fill="#4285f4" stroke="#1a449e" stroke-opacity=".35" d="M31.85 29.238C19.191 10.037 5 20.27 5 32.006c0 4.025.877 7.823 2.451 11.253-1.68-7.95 7.453-14.08 15.959-2.669 12.349 16.568 24.469 13.654 31.248 6.115 1.832-2.73 3.618-6.919 4.118-11.082l-.01.052c-2.902 9.027-15.751 10.496-26.916-6.437z"/><path fill="#91bfff" stroke="#1a449e" stroke-opacity=".35" d="M40.525 20.648c-9.401-15.51-21.321-14.114-29.381-5.802A26.92 26.92 0 0 0 4.998 32c.844-11.365 14.574-19.253 27 0 11.061 17.136 24.806 12.672 26.764 3.719l.013-.086c.196-1.23.218-2.406.218-3.67 0-.408.015-.813-.004-1.215-4.792 3.4-11.082 2.077-18.464-10.1z"/><path fill="#c4e1ff" stroke="#1a449e" stroke-opacity=".35" d="M40.589 23.409c8.61 13.841 16.031 10.3 18.4 7.34a26.7 26.7 0 0 0-.988-6.11c-4.013.083-4.95-.586-8.882-6.6-6.05-9.25-13.654-15.487-26.926-11.201a27.14 27.14 0 0 0-11.058 8.02c9.128-8.4 20.327-6.12 29.455 8.551z"/><path fill="#f5f5f5" stroke="#1a449e" stroke-opacity=".35" d="M48.517 19.227c3.934 6.014 6.33 6.333 9.487 5.412C54.79 13.29 44.378 5 31.992 5c-3.458 0-6.769.66-9.806 1.841 11.865-3.743 20.28 3.136 26.33 12.386z"/></svg>