<svg xmlns="http://www.w3.org/2000/svg" width="64" height="64" version="1"><path fill-rule="evenodd" stroke="#000" stroke-opacity=".353" stroke-width="2" d="M31.984 4.973c-8.864 0-16.678 4.247-21.596 10.805l.002.004a27.15 27.148 0 0 0-5.4 16.275c0 12.2 8.014 22.398 19.086 25.746l.064.02a27 27 0 0 0 1.09.306 27 27 0 0 0 6.77.87 27 27 0 0 0 25.786-19h-.006a26.942 26.94 0 0 0 1.21-8.03c0-4.382-1.057-8.5-2.893-12.152h-.008C51.655 11.007 42.56 4.974 31.985 4.973h-.002zm1.35 14.85h.005l8.098 19.707-.002.002-.037.074-16.414-3.361 16.451 3.287-8.102-19.71z"/><path fill="#0f9d58" fill-rule="evenodd" d="M10.398 15.771a27.15 27.148 0 0 0-5.407 16.284c0 14.958 12.043 26.915 27.002 26.915l9.45-19.355-17.55-3.595z"/><path fill="#ffcd40" fill-rule="evenodd" d="m33.338 19.818 8.1 19.71-9.45 19.439a26.942 26.94 0 0 0 27.001-26.999c0-4.382-1.057-8.5-2.893-12.151z"/><path fill="#db4437" fill-rule="evenodd" d="M31.986 4.973c-8.865 0-16.679 4.247-21.597 10.805l13.496 20.245 17.551 3.509-8.1-19.71h22.758c-4.433-8.814-13.53-14.85-24.109-14.85z"/><path fill="#fff" d="M31.986 18.965c7.203 0 13.002 5.798 13.002 12.999S39.19 44.963 31.986 44.963c-7.203 0-13.002-5.798-13.002-12.999s5.798-12.999 13.002-12.999"/><path fill="#2566d3" d="M31.986 21.966c5.542 0 10.001 4.46 10.001 10s-4.46 10-10.001 10a9.98 9.98 0 0 1-10.001-10c0-5.54 4.46-10 10.001-10"/><path fill="#4d4d4d" d="M6.242 40A27 27 0 0 0 32 59a27 27 0 0 0 25.787-19z"/><path fill="#fff" stroke-width=".24" d="M21.287 47.657v2.565h1.52q.763 0 1.129-.315.37-.318.37-.97 0-.656-.37-.966-.366-.314-1.13-.314zm0-2.879v2.11h1.402q.694 0 1.031-.258.343-.262.343-.797 0-.53-.343-.792-.337-.263-1.031-.263zM20.34 44h2.42q1.082 0 1.668.45t.586 1.28q0 .642-.3 1.022t-.881.474q.698.15 1.083.628.39.473.39 1.186 0 .938-.639 1.449-.637.51-1.814.51H20.34zm6.587 0h4.426v.797h-3.479v2.072h3.334v.797h-3.334v2.537h3.563V51h-4.51zm5.096 0h5.922v.797H35.46V51h-.952v-6.203h-2.485zm8.43.933-1.285 3.484h2.574zM39.919 44h1.073l2.668 7h-.985l-.637-1.796h-3.156L38.245 51h-.999z" aria-label="BETA"/></svg>