<svg xmlns="http://www.w3.org/2000/svg" width="64" height="64"><g transform="translate(-168 8.5)"><path fill="#e1e3e7" d="M179-3.5v54h42v-54z"/><rect width="43" height="55" x="178.5" y="-4" fill="none" stroke="#000" stroke-opacity=".24" rx=".5" ry=".5"/><rect width="2" height="2" x="180" y="-2.5" fill="#8c8c8c" rx="1" ry="1"/><rect width="2" height="2" x="218" y="-2.5" fill="#8c8c8c" rx="1" ry="1"/><rect width="2" height="2" x="218" y="47.5" fill="#8c8c8c" rx="1" ry="1"/><rect width="2" height="2" x="180" y="47.5" fill="#8c8c8c" rx="1" ry="1"/><rect width="2" height="2" x="180" y="22.5" fill="#8c8c8c" rx="1" ry="1"/><rect width="2" height="2" x="218" y="22.5" fill="#8c8c8c" rx="1" ry="1"/><path fill="#edeff3" stroke="#cbcdd1" d="m207 0-17.934 18.17A16.5 16.5 0 0 0 183.5 30.5 16.5 16.5 0 0 0 200 47a16.5 16.5 0 0 0 16.5-16.5 17 17 0 0 0-.03-.852.5.5 0 0 0 .03-.148V.5c0-.277-.223-.5-.5-.5z"/><circle cx="200" cy="30.5" r="6.5" fill="#e1e3e7" stroke="#cfd1d5"/><rect width="20" height="12" x="185.5" y="3" fill="#4c5263" stroke="#313643" rx="1.5" ry="1.5"/><path fill="#e9eaee" d="M187 5.5v1h3.19v-1zm3.609 0v1h3.021v-1zm3.441 0v1h2.644v-1zm3.063 0v1h1.175v-1zM187 8.5v1h5.078v-1zm5.581 0v1h2.434v-1zm2.896 0v1h1.133v-1zm-8.477 3v1h5.623v-1zm6.043 0v1h2.943v-1zm5.957 0v1h5.078v-1z"/></g><path fill="#fff" stroke="#cbcdd1" stroke-width="2" d="m21.448 53.578 12.326-15.323a1.15 1.15 0 0 0 .283-.755c0-.643-.534-1.165-1.192-1.165-.293 0-.561.102-.77.276L16.453 48.685A3.47 3.47 0 0 0 15 51.5c0 1.935 1.6 3.5 3.573 3.5a3.59 3.59 0 0 0 2.875-1.422z"/><path fill="#fff" d="m21.448 53.578 12.326-15.323a1.15 1.15 0 0 0 .283-.755c0-.643-.534-1.165-1.192-1.165-.293 0-.561.102-.77.276L16.453 48.685A3.47 3.47 0 0 0 15 51.5c0 1.935 1.6 3.5 3.573 3.5a3.59 3.59 0 0 0 2.875-1.422"/></svg>