<?xml version="1.0" encoding="UTF-8" standalone="no"?>
<svg
   xmlns:dc="http://purl.org/dc/elements/1.1/"
   xmlns:cc="http://creativecommons.org/ns#"
   xmlns:rdf="http://www.w3.org/1999/02/22-rdf-syntax-ns#"
   xmlns:svg="http://www.w3.org/2000/svg"
   xmlns="http://www.w3.org/2000/svg"
   xmlns:xlink="http://www.w3.org/1999/xlink"
   xmlns:sodipodi="http://sodipodi.sourceforge.net/DTD/sodipodi-0.dtd"
   xmlns:inkscape="http://www.inkscape.org/namespaces/inkscape"
   width="64px"
   height="64px"
   viewBox="0 0 64 64"
   version="1.1"
   id="svg104"
   sodipodi:docname="gparted.svg"
   inkscape:version="0.92.4 (5da689c313, 2019-01-14)">
  <metadata
     id="metadata108">
    <rdf:RDF>
      <cc:Work
         rdf:about="">
        <dc:format>image/svg+xml</dc:format>
        <dc:type
           rdf:resource="http://purl.org/dc/dcmitype/StillImage" />
      </cc:Work>
    </rdf:RDF>
  </metadata>
  <sodipodi:namedview
     pagecolor="#ffffff"
     bordercolor="#666666"
     borderopacity="1"
     objecttolerance="10"
     gridtolerance="10"
     guidetolerance="10"
     inkscape:pageopacity="0"
     inkscape:pageshadow="2"
     inkscape:window-width="1366"
     inkscape:window-height="706"
     id="namedview106"
     showgrid="true"
     inkscape:zoom="3.6875"
     inkscape:cx="27.05032"
     inkscape:cy="33.555518"
     inkscape:window-x="0"
     inkscape:window-y="32"
     inkscape:window-maximized="1"
     inkscape:current-layer="svg104"
     inkscape:object-paths="true"
     inkscape:snap-bbox="true"
     inkscape:bbox-nodes="true"
     inkscape:snap-intersection-paths="true"
     inkscape:snap-smooth-nodes="true"
     inkscape:snap-bbox-midpoints="true"
     inkscape:snap-bbox-edge-midpoints="true"
     inkscape:snap-midpoints="true">
    <inkscape:grid
       type="xygrid"
       id="grid873" />
  </sodipodi:namedview>
  <!-- Generator: Sketch 46.2 (44496) - http://www.bohemiancoding.com/sketch -->
  <title
     id="title2">gparted</title>
  <desc
     id="desc4">Created with Sketch.</desc>
  <g
     id="g944"
     transform="translate(-168,8.5)">
    <path
       inkscape:connector-curvature="0"
       id="rect4517-7"
       d="m 179,-3.5 v 54 h 42 v -54 z"
       style="opacity:1;fill:#e1e3e7;fill-opacity:1;stroke:none;stroke-width:0.99999994;stroke-linecap:butt;stroke-linejoin:miter;stroke-miterlimit:4;stroke-dasharray:none;stroke-dashoffset:0;stroke-opacity:0.23979594" />
    <rect
       ry="0.5"
       rx="0.5"
       y="-4"
       x="178.5"
       height="55"
       width="43"
       id="rect4517"
       style="opacity:1;fill:none;fill-opacity:1;stroke:#000000;stroke-width:0.99999994;stroke-linecap:butt;stroke-linejoin:miter;stroke-miterlimit:4;stroke-dasharray:none;stroke-dashoffset:0;stroke-opacity:0.23979594" />
    <rect
       ry="1"
       rx="1"
       y="-2.5"
       x="180"
       height="2"
       width="2"
       id="rect4617"
       style="opacity:1;fill:#8c8c8c;fill-opacity:1;stroke:none;stroke-width:1;stroke-linecap:butt;stroke-linejoin:miter;stroke-miterlimit:4;stroke-dasharray:none;stroke-dashoffset:0;stroke-opacity:0.64313725" />
    <rect
       ry="1"
       rx="1"
       y="-2.5"
       x="218"
       height="2"
       width="2"
       id="rect4617-6"
       style="opacity:1;fill:#8c8c8c;fill-opacity:1;stroke:none;stroke-width:1;stroke-linecap:butt;stroke-linejoin:miter;stroke-miterlimit:4;stroke-dasharray:none;stroke-dashoffset:0;stroke-opacity:0.64313725" />
    <rect
       ry="1"
       rx="1"
       y="47.5"
       x="218"
       height="2"
       width="2"
       id="rect4617-5"
       style="opacity:1;fill:#8c8c8c;fill-opacity:1;stroke:none;stroke-width:1;stroke-linecap:butt;stroke-linejoin:miter;stroke-miterlimit:4;stroke-dasharray:none;stroke-dashoffset:0;stroke-opacity:0.64313725" />
    <rect
       ry="1"
       rx="1"
       y="47.5"
       x="180"
       height="2"
       width="2"
       id="rect4617-2"
       style="opacity:1;fill:#8c8c8c;fill-opacity:1;stroke:none;stroke-width:1;stroke-linecap:butt;stroke-linejoin:miter;stroke-miterlimit:4;stroke-dasharray:none;stroke-dashoffset:0;stroke-opacity:0.64313725" />
    <rect
       ry="1"
       rx="1"
       y="22.5"
       x="180"
       height="2"
       width="2"
       id="rect4617-8"
       style="opacity:1;fill:#8c8c8c;fill-opacity:1;stroke:none;stroke-width:1;stroke-linecap:butt;stroke-linejoin:miter;stroke-miterlimit:4;stroke-dasharray:none;stroke-dashoffset:0;stroke-opacity:0.64313725" />
    <rect
       ry="1"
       rx="1"
       y="22.5"
       x="218"
       height="2"
       width="2"
       id="rect4617-87"
       style="opacity:1;fill:#8c8c8c;fill-opacity:1;stroke:none;stroke-width:1;stroke-linecap:butt;stroke-linejoin:miter;stroke-miterlimit:4;stroke-dasharray:none;stroke-dashoffset:0;stroke-opacity:0.64313725" />
    <path
       inkscape:connector-curvature="0"
       id="rect4668"
       d="M 207,0 189.06641,18.16992 A 16.5,16.5 0 0 0 183.5,30.5 16.5,16.5 0 0 0 200,47 16.5,16.5 0 0 0 216.5,30.5 16.5,16.5 0 0 0 216.4707,29.64844 C 216.48563,29.60089 216.5,29.5526 216.5,29.5 V 0.5 C 216.5,0.223 216.277,0 216,0 Z"
       style="opacity:1;fill:#edeff3;fill-opacity:1;stroke:#cbcdd1;stroke-width:0.99999988;stroke-linecap:butt;stroke-linejoin:miter;stroke-miterlimit:4;stroke-dasharray:none;stroke-dashoffset:0;stroke-opacity:1" />
    <ellipse
       ry="6.5"
       rx="6.4999995"
       cy="30.5"
       cx="200"
       id="path4662"
       style="opacity:1;fill:#e1e3e7;fill-opacity:1;stroke:#cfd1d5;stroke-width:1;stroke-linecap:butt;stroke-linejoin:miter;stroke-miterlimit:4;stroke-dasharray:none;stroke-dashoffset:0;stroke-opacity:1" />
    <rect
       ry="1.5"
       rx="1.5"
       y="3"
       x="185.5"
       height="12"
       width="20"
       id="rect4676"
       style="opacity:1;fill:#4c5263;fill-opacity:1;stroke:#313643;stroke-width:0.99999994;stroke-linecap:butt;stroke-linejoin:miter;stroke-miterlimit:4;stroke-dasharray:none;stroke-dashoffset:0;stroke-opacity:1" />
    <path
       inkscape:connector-curvature="0"
       style="display:inline;fill:#e9eaee;fill-opacity:1;stroke:none"
       d="m 187,5.5 v 1 h 3.18928 v -1 z m 3.60893,0 v 1 h 3.02142 v -1 z m 3.44106,0 v 1 h 2.64375 v -1 z m 3.0634,0 v 1 h 1.17499 v -1 z M 187,8.5 v 1 h 5.07767 v -1 z m 5.58125,0 v 1 h 2.43392 v -1 z m 2.89553,0 v 1 h 1.13303 v -1 z M 187,11.5 v 1 h 5.62321 v -1 z m 6.04285,0 v 1 h 2.94315 v -1 z"
       id="path4149-8-7-9"
       sodipodi:nodetypes="ccccccccccccccccccccccccccccccccccccccccccccc" />
    <path
       inkscape:connector-curvature="0"
       style="display:inline;fill:#e9eaee;fill-opacity:1;stroke:none"
       d="m 199,11.5 v 1 h 5.07767 v -1 z"
       id="path4149-8-7-9-4"
       sodipodi:nodetypes="ccccc" />
  </g>
  <defs
     id="defs18">
    <linearGradient
       x1="5"
       y1="0"
       x2="5"
       y2="10"
       id="linearGradient-1"
       gradientUnits="userSpaceOnUse">
      <stop
         stop-color="#020300"
         offset="0%"
         id="stop6" />
      <stop
         stop-color="#000200"
         offset="100%"
         id="stop8" />
    </linearGradient>
    <path
       d="M5,10 C2.2385,10 0,7.76119403 0,4.999875 C0,2.23880597 2.2385,0 5,0 C7.7615,0 10,2.23880597 10,4.999875 C10,7.76119403 7.7615,10 5,10 Z"
       id="path-2" />
    <path
       d="M2.42889983,9.2891349 C1.60347183,8.79325041 0.93297511,8.06583581 0.507219493,7.19674243 L9.48604873,2.78947866 C9.15322599,2.11536029 8.67291835,1.52705476 8.08726075,1.06672259 L2.42889983,9.2891349 Z"
       id="path-4" />
    <linearGradient
       x1="5"
       y1="6"
       x2="5"
       y2="4"
       id="linearGradient-6"
       gradientUnits="userSpaceOnUse"
       gradientTransform="translate(27,22)">
      <stop
         stop-color="#E2E096"
         offset="0%"
         id="stop13" />
      <stop
         stop-color="#F9F8D2"
         offset="100%"
         id="stop15" />
    </linearGradient>
    <mask
       fill="white"
       id="mask-3">
      <use
         height="100%"
         width="100%"
         y="0"
         x="0"
         id="use53"
         xlink:href="#path-2" />
    </mask>
    <mask
       fill="white"
       id="mask-5">
      <use
         height="100%"
         width="100%"
         y="0"
         x="0"
         id="use57"
         xlink:href="#path-4" />
    </mask>
  </defs>
  <g
     id="g950"
     transform="translate(14.650568,36.25)"
     style="fill:#ecf1f6;fill-rule:nonzero;stroke:#cbcdd1;stroke-width:2;stroke-opacity:1;stroke-miterlimit:4;stroke-dasharray:none">
    <g
       id="g948"
       transform="translate(0.333333)"
       style="stroke:#cbcdd1;stroke-opacity:1;stroke-width:2;stroke-miterlimit:4;stroke-dasharray:none">
      <path
         style="fill:#ffffff;stroke:#cbcdd1;stroke-opacity:1;stroke-width:2;stroke-miterlimit:4;stroke-dasharray:none"
         d="M 6.4643744,17.328125 18.790463,2.0053438 C 18.96666,1.8002656 19.073071,1.5371094 19.073071,1.25 c 0,-0.64257813 -0.53384,-1.1655 -1.191619,-1.1655 -0.293104,0 -0.561754,0.10259375 -0.769439,0.27682813 L 1.4676585,12.435344 C 0.58656158,13.072781 0.01609852,14.096531 0.01609852,15.25 c 0,1.934625 1.59984238,3.5 3.57307058,3.5 1.1794483,0 2.2244598,-0.558797 2.8752053,-1.421875 z"
         id="path946"
         inkscape:connector-curvature="0" />
    </g>
  </g>
  <g
     style="fill:#ecf1f6;fill-rule:nonzero;stroke:none;stroke-width:1"
     transform="translate(14.650568,36.25)"
     id="Group-9">
    <g
       transform="translate(0.333333)"
       id="Group-3">
      <path
         inkscape:connector-curvature="0"
         id="path70"
         d="M 6.4643744,17.328125 18.790463,2.0053438 C 18.96666,1.8002656 19.073071,1.5371094 19.073071,1.25 c 0,-0.64257813 -0.53384,-1.1655 -1.191619,-1.1655 -0.293104,0 -0.561754,0.10259375 -0.769439,0.27682813 L 1.4676585,12.435344 C 0.58656158,13.072781 0.01609852,14.096531 0.01609852,15.25 c 0,1.934625 1.59984238,3.5 3.57307058,3.5 1.1794483,0 2.2244598,-0.558797 2.8752053,-1.421875 z"
         style="fill:#ffffff" />
    </g>
  </g>
</svg>
