<svg xmlns="http://www.w3.org/2000/svg" width="64" height="64"><path fill="#f55872" stroke="#d73250" stroke-width="2" d="M5 32C5 17.088 17.088 5 32 5s27 12.088 27 27-12.088 27-27 27S5 46.912 5 32z" style="paint-order:stroke markers fill"/><path fill="#fff" d="M40.217 15.565v1.174h1.174a4.674 4.674 0 0 1 4.696 4.696v1.173h1.173v-1.174a5.857 5.857 0 0 0-5.87-5.869zm-1.174 3.522v1.174h1.174c1.3 0 2.348 1.047 2.348 2.347v1.174h1.174v-1.174a3.514 3.514 0 0 0-3.522-3.521zm-2.348 3.521c-.696 0-1.174.545-1.174 1.17v2.347H19.086c-1.174 0-2.347 1.174-2.347 2.348v12.913c0 1.174 1.173 2.348 2.347 2.348h25.826c1.174 0 2.348-1.174 2.348-2.348V28.473c0-1.174-1.174-2.348-2.348-2.348h-4.695v-2.347c0-.65-.524-1.17-1.174-1.17zm.587 1.174h1.174c.325 0 .587.262.587.587v1.761h-2.348v-1.76c0-.326.262-.588.587-.588m-16.21 4.691 8.942.005c.993 0 1.985.832 1.985 1.671v9.562c0 .838-.992 1.68-1.985 1.68h-8.942q-.187 0-.37-.038c-.856-.171-1.615-.905-1.615-1.639v-9.561c0-.838.992-1.674 1.985-1.674v-.005zm13.276.005h8.58c.993 0 1.983.835 1.983 1.674v9.561c0 .838-.99 1.679-1.983 1.679h-8.58zm2.935 1.171a.588.588 0 0 0 0 1.176h1.174a.588.588 0 0 0 0-1.176zm3.522 0a.588.588 0 0 0 0 1.176h1.174a.588.588 0 0 0 0-1.176zm-15.261 1.174a4.109 4.109 0 1 0 0 8.218 4.109 4.109 0 0 0 0-8.218m11.739 1.172a.588.588 0 0 0 0 1.176h1.174a.588.588 0 0 0 0-1.176zm3.521 0a.588.588 0 0 0 0 1.176h1.174a.588.588 0 0 0 0-1.176zm-15.26 1.174a1.761 1.761 0 1 1-.002 3.523 1.761 1.761 0 0 1 .001-3.523zm15.26 1.171a.588.588 0 0 0 0 1.176h1.174a.588.588 0 0 0 0-1.176zm-3.521.003a.588.588 0 0 0 0 1.174h1.174a.588.588 0 0 0 0-1.174zm5.282 3.521a1.174 1.174 0 1 0 .001 2.35 1.174 1.174 0 0 0 0-2.35z"/></svg>