<svg xmlns="http://www.w3.org/2000/svg" width="64" height="64" viewBox="0 0 16.933 16.933"><path fill="#6cce86" stroke="#369e51" stroke-width=".529" d="M1.323 2.381H15.61v12.171H1.323z" paint-order="stroke markers fill"/><g stroke-width="1.04" paint-order="stroke markers fill"><path fill="#6cce86" d="M1.323 2.381H15.61v12.171H1.323z"/><path d="M1.323 2.381 15.61 11.35V2.381z" opacity=".08"/><path fill="#fff" d="M15.61 5.584 1.323 14.552H15.61z" opacity=".15"/></g><path fill="#f9f9f9" d="m12.17 6.88-1.587 1.058c-.05.342-.118.681 0 1.058l1.588 1.058z"/><path fill="#f9f9f9" d="M5.556 6.35a.264.264 0 0 0-.264.265v3.704c0 .146.118.264.264.264h4.763a.264.264 0 0 0 .264-.264V6.615a.264.264 0 0 0-.264-.265zm2.381.794A1.323 1.323 0 0 1 9.26 8.467 1.323 1.323 0 0 1 7.937 9.79a1.323 1.323 0 0 1-1.322-1.323 1.323 1.323 0 0 1 1.322-1.323"/></svg>