<svg xmlns="http://www.w3.org/2000/svg" width="64" height="64"><path fill="#c7c7c1" stroke="#a3a399" stroke-width="2" d="m28 26-2 2-6 8 2 2 2-2 6-8zm8 0-2 2 6 8 2 2 2-2-6-8z"/><path fill="#c7c7c1" d="m28 26-2 2-6 8 2 2 2-2 6-8zm8 0-2 2 6 8 2 2 2-2-6-8z"/><g stroke-width="2"><rect width="20" height="20" x="36" y="36" fill="#f7b069" stroke="#dc862d" ry="4"/><rect width="20" height="20" x="8" y="36" fill="#e098e1" stroke="#bf66c2" ry="4"/><rect width="20" height="20" x="22" y="8" fill="#57e389" stroke="#2dbe60" ry="4"/></g><g stroke-width="2"><rect width="20" height="20" x="22" y="8" fill="#57e389" ry="4"/><rect width="20" height="20" x="8" y="36" fill="#e098e1" ry="4"/><rect width="20" height="20" x="36" y="36" fill="#f7b069" ry="4"/></g></svg>