<svg xmlns="http://www.w3.org/2000/svg" width="64" height="64" viewBox="0 0 16.933 16.933"><circle cx="8.466" cy="8.46" r="7.144" fill="#f55" stroke="#e92b2b" stroke-width=".529" style="paint-order:stroke markers fill"/><path fill="#f55" d="M32 4.975A27 27 0 0 0 5.928 25.008L32 31.994l26.072-6.986A27 27 0 0 0 32 4.975" style="paint-order:stroke markers fill" transform="scale(.26458)"/><g fill-rule="evenodd"><path fill="#7cce44" stroke="#5fa331" stroke-linecap="round" stroke-linejoin="round" stroke-width=".529" d="M15.365 6.617 8.467 8.465v7.138A7.144 7.144 0 0 0 15.61 8.46a7.1 7.1 0 0 0-.246-1.844z" style="paint-order:stroke fill markers"/><path fill="#7cce44" d="M15.365 6.617 8.467 8.465v7.138A7.144 7.144 0 0 0 15.61 8.46a7.1 7.1 0 0 0-.246-1.844z" style="paint-order:stroke fill markers"/><path fill="#5f8bea" stroke="#396cdb" stroke-linecap="round" stroke-linejoin="round" stroke-width=".529" d="m1.568 6.617 6.899 1.848v7.138A7.144 7.144 0 0 1 1.322 8.46a7.1 7.1 0 0 1 .245-1.844z" style="paint-order:stroke fill markers"/><path fill="#5f8bea" d="m1.568 6.617 6.899 1.848v7.138A7.144 7.144 0 0 1 1.322 8.46a7.1 7.1 0 0 1 .245-1.844z" style="paint-order:stroke fill markers"/></g><path fill="#fff" d="m10.147 7.616-.332 1.701h1.453v.706H9.69l-.456 2.24h-.747l.456-2.24H7.408l-.415 2.24h-.747l.415-2.24H5.29v-.706h1.494l.332-1.701h-1.41V6.91h1.535l.456-2.24h.747L8.03 6.91h1.494l.457-2.24h.747l-.456 2.24h1.37v.706zM7.532 9.317h1.536L9.4 7.616H7.864z"/></svg>