<svg xmlns="http://www.w3.org/2000/svg" width="64" height="64" viewBox="0 0 16.933 16.933"><g transform="translate(0 -280.067)"><rect width="13.758" height="13.758" x="1.588" y="281.654" fill="#4d4d4d" stroke="#2a2a2a" stroke-linecap="round" stroke-linejoin="round" stroke-width=".529" paint-order="markers stroke fill" rx=".825" ry=".825"/><rect width="13.758" height="13.758" x="1.588" y="281.654" fill="#4d4d4d" paint-order="markers stroke fill" rx=".825" ry=".825"/><rect width="2.646" height="2.646" x="2.381" y="282.448" fill="#999" rx=".265" ry=".265"/><rect width="2.646" height="2.646" x="5.556" y="282.448" fill="#fff" rx=".265" ry=".265"/><rect width="2.646" height="2.646" x="8.731" y="282.448" fill="#ff5757" rx=".265" ry=".265"/><rect width="2.646" height="2.646" x="11.906" y="282.448" fill="#fff" rx=".265" ry=".265"/><rect width="2.646" height="2.646" x="2.381" y="285.623" fill="#fff" rx=".265" ry=".265"/><rect width="2.646" height="2.646" x="5.556" y="285.623" fill="#fff" rx=".265" ry=".265"/><rect width="2.646" height="2.646" x="8.731" y="285.623" fill="#ff5757" rx=".265" ry=".265"/><rect width="2.646" height="2.646" x="11.906" y="285.623" fill="#fff" rx=".265" ry=".265"/><rect width="2.646" height="2.646" x="2.381" y="288.798" fill="#fff" rx=".265" ry=".265"/><rect width="2.646" height="2.646" x="5.556" y="288.798" fill="#999" rx=".265" ry=".265"/><rect width="2.646" height="2.646" x="8.731" y="288.798" fill="#fff" rx=".265" ry=".265"/><rect width="2.646" height="2.646" x="11.906" y="288.798" fill="#4ac73e" rx=".265" ry=".265"/><rect width="2.646" height="2.646" x="2.381" y="291.973" fill="#fff" rx=".265" ry=".265"/><rect width="2.646" height="2.646" x="5.556" y="291.973" fill="#fff" rx=".265" ry=".265"/><rect width="2.646" height="2.646" x="8.731" y="291.973" fill="#fff" rx=".265" ry=".265"/><rect width="2.646" height="2.646" x="11.906" y="291.973" fill="#fff" rx=".265" ry=".265"/></g></svg>