<?xml version="1.0" encoding="UTF-8"?>
<svg width="64" height="64" version="1.1" xmlns="http://www.w3.org/2000/svg" xmlns:xlink="http://www.w3.org/1999/xlink">
 <defs>
  <linearGradient id="linearGradient1187" x1="25.464" x2="22.988" y1="1.469" y2="35.775" gradientTransform="matrix(1.4,0,0,1.4,-1.6,-2.0193)" gradientUnits="userSpaceOnUse">
   <stop stop-color="#fff" offset="0"/>
   <stop stop-color="#fff" stop-opacity="0" offset="1"/>
  </linearGradient>
 </defs>
 <rect x="6" y="6" width="52" height="52" rx="7.9835" ry="7.9835" fill="#10b981" stroke="#068a64" stroke-width="2"/>
 <rect x="6" y="6" width="52" height="52" rx="7.9835" ry="7.9835" fill="#10b981"/>
 <g fill="#fff" fill-opacity=".75">
  <circle cx="25.848" cy="20.563" r="1.093"/>
  <circle cx="32.63" cy="21.002" r="1.313"/>
  <circle cx="39.193" cy="22.612" r="1.093"/>
 </g>
 <path d="m42.146 28.548c1.4073 0-4.2515-3.2598-9.9495-4.1665-5.6973-0.90733-10.544-0.51026-10.771 0.87859-0.02812 0.11318 0 0.19824 0.02878 0.31203-0.14196-0.05692-8.587 23.911-8.587 23.911h31.18s-1.7308-20.652-2.0141-20.652c0.0563-0.08444-6.62e-4 -0.28328 0.11318-0.28328z" fill="url(#linearGradient1187)"/>
 <path d="m38.661 28.451c-0.14196 0.87859-3.373 1.0768-7.2562 0.48151-3.8551-0.62344-6.8886-1.8422-6.7466-2.6926 0.05692-0.28328 0.42521-0.5103 1.0205-0.62344-1.9842 0.085-3.2879 0.45334-3.4011 1.0768-0.17006 1.1625 3.7982 2.7496 8.9002 3.5719 5.102 0.82167 9.3824 0.51026 9.5806-0.62348 0.11384-0.68097-1.0205-1.4176-2.8909-2.1261 0.53839 0.31141 0.82167 0.65157 0.79354 0.93546z" fill="#a7f3d0" fill-opacity=".5"/>
 <path d="m40.702 21.138c-0.33954-3.515-3.0328-6.4915-6.6609-7.0581-3.6281-0.56718-7.0581 1.417-8.5038 4.6199 2.3243 0.14193 4.8187 0.39708 7.427 0.82228 2.7777 0.42525 5.3853 0.99242 7.7378 1.6159z" fill="#045f45"/>
 <path d="m12.016 20.513c-0.28468 1.6974 3.333 3.7847 9.0027 5.4821-0.02826-0.1117-0.02826-0.1952-0.02826-0.30632 0.22751-1.3634 5.0708-1.7533 10.826-0.86252 5.7546 0.89014 10.228 2.7269 9.9994 4.0903-0.02826 0.11174-0.05654 0.1952-0.11376 0.2781 5.8972 0.0835 10-0.80665 10.285-2.5041 0.39838-2.5882-8.2053-6.0665-19.23-7.7639-11.054-1.6974-20.342-1.0019-20.741 1.5863zm12.706-0.13932c0.08542-0.44509 0.51285-0.77903 0.96849-0.69553 0.45568 0.0835 0.79757 0.50093 0.71209 0.94597-0.05718 0.44509-0.51285 0.75141-0.96849 0.69553-0.45569-0.08346-0.79757-0.50093-0.71209-0.94598zm6.581 0.44505c0.08546-0.61204 0.68381-1.0295 1.3104-0.91776 0.6266 0.0835 1.054 0.66732 0.94026 1.28-0.11444 0.58447-0.71213 1.0019-1.3105 0.9184-0.62722-0.0835-1.0546-0.66792-0.94022-1.2806zm6.923 1.6422c0.08542-0.44509 0.51285-0.77903 0.96849-0.69553 0.45568 0.08346 0.79757 0.50093 0.71209 0.94597-0.05654 0.44509-0.51285 0.77903-0.96849 0.69553-0.45568-0.0835-0.79757-0.50093-0.71209-0.94598z" fill="#045f45"/>
</svg>
