<svg xmlns="http://www.w3.org/2000/svg" width="64" height="64"><defs><linearGradient id="a" x1="25.464" x2="22.988" y1="1.469" y2="35.775" gradientTransform="matrix(1.4 0 0 1.4 -1.6 -2.02)" gradientUnits="userSpaceOnUse"><stop offset="0" stop-color="#fff"/><stop offset="1" stop-color="#fff" stop-opacity="0"/></linearGradient></defs><rect width="52" height="52" x="6" y="6" fill="#10b981" stroke="#068a64" stroke-width="2" rx="7.984" ry="7.984"/><rect width="52" height="52" x="6" y="6" fill="#10b981" rx="7.984" ry="7.984"/><g fill="#fff" fill-opacity=".75"><circle cx="25.848" cy="20.563" r="1.093"/><circle cx="32.63" cy="21.002" r="1.313"/><circle cx="39.193" cy="22.612" r="1.093"/></g><path fill="url(#a)" d="M42.146 28.548c1.407 0-4.251-3.26-9.95-4.166-5.697-.908-10.543-.51-10.77.878-.029.113 0 .198.028.312-.142-.057-8.587 23.911-8.587 23.911h31.18s-1.73-20.652-2.014-20.652c.056-.084 0-.283.113-.283z"/><path fill="#a7f3d0" fill-opacity=".5" d="M38.661 28.451c-.142.879-3.373 1.077-7.256.482-3.855-.624-6.889-1.843-6.747-2.693.057-.283.425-.51 1.02-.624-1.984.085-3.287.454-3.4 1.077-.17 1.163 3.798 2.75 8.9 3.572s9.382.51 9.58-.623c.114-.681-1.02-1.418-2.89-2.126.538.311.821.651.793.935"/><path fill="#045f45" d="M40.702 21.138c-.34-3.515-3.033-6.491-6.66-7.058-3.629-.567-7.059 1.417-8.505 4.62 2.325.142 4.819.397 7.427.822a74 74 0 0 1 7.738 1.616z"/><path fill="#045f45" d="M12.016 20.513c-.285 1.697 3.333 3.785 9.003 5.482-.029-.112-.029-.195-.029-.306.228-1.364 5.071-1.754 10.826-.863 5.755.89 10.228 2.727 10 4.09a.8.8 0 0 1-.114.279c5.897.083 10-.807 10.285-2.504.398-2.589-8.205-6.067-19.23-7.764-11.054-1.698-20.342-1.002-20.74 1.586m12.706-.14c.085-.444.513-.778.968-.695.456.084.798.501.713.946-.058.445-.513.752-.969.696-.456-.084-.797-.501-.712-.946m6.581.446c.085-.612.684-1.03 1.31-.918.627.083 1.054.667.94 1.28-.114.584-.711 1.002-1.31.918a1.094 1.094 0 0 1-.94-1.28m6.923 1.642c.085-.445.513-.78.968-.696.456.084.798.501.713.946-.057.445-.513.78-.969.696s-.797-.501-.712-.946"/></svg>