<svg xmlns="http://www.w3.org/2000/svg" width="64" height="64" viewBox="0 0 16.933 16.933"><defs><linearGradient id="a" x1="1" x2="47" gradientTransform="rotate(-90 159.745 126.707)scale(.2991)" gradientUnits="userSpaceOnUse"><stop stop-color="#015093"/><stop offset="1" stop-color="#015ca7"/></linearGradient></defs><g stroke-width=".963"><path fill="url(#a)" stroke="#013e70" stroke-width=".51" d="M40.217 272.394a6.879 6.879 0 1 1 0 13.758 6.879 6.879 0 0 1 0-13.758z" transform="translate(-33.297 -281.548)scale(1.03846)"/><path fill="url(#a)" d="M40.217 272.394a6.879 6.879 0 1 1 0 13.758 6.879 6.879 0 0 1 0-13.758" transform="translate(-33.297 -281.548)scale(1.03846)"/><path fill="#fff" d="M8.254 1.329q-.722.021-1.401.179l-3.356 9.754h1.327l1.695-4.97h.92l-1.672 4.97h1.334l1.58-4.627c.23-.666-.133-1.274-.804-1.274H6.843zm1.855 4.032L6.667 15.38q.619.159 1.275.207l1.494-4.327H11.2c.313 0 .656-.253.763-.563l1.405-4.065c.23-.666-.132-1.274-.805-1.274m-1.45.931h1l-1.389 4.038h-1z"/></g></svg>