<svg xmlns="http://www.w3.org/2000/svg" xmlns:xlink="http://www.w3.org/1999/xlink" width="64" height="64"><defs><radialGradient xlink:href="#a" id="b" cx="44" cy="42.5" r="1.5" fx="44" fy="42.5" gradientTransform="matrix(0 2.66667 -2 0 128 980.186)" gradientUnits="userSpaceOnUse"/><radialGradient xlink:href="#a" id="d" cx="4" cy="42.5" r="1.5" fx="4" fy="42.5" gradientTransform="matrix(-2 0 0 -2.66667 29 1210.853)" gradientUnits="userSpaceOnUse"/><linearGradient id="a"><stop offset="0"/><stop offset="1" stop-opacity="0"/></linearGradient><linearGradient xlink:href="#a" id="c" x1="24" x2="24" y1="42" y2="46" gradientTransform="translate(9 1055.52)" gradientUnits="userSpaceOnUse"/></defs><g transform="translate(0 -1061.52)"><path fill="#fbc02d" d="M27 1113.52v3c0 .554.446 1 1 1h24c.554 0 1-.446 1-1v-3H28zm-16 0v3c0 .554.446 1 1 1h11c.554 0 1-.446 1-1v-3H12z"/><rect width="58" height="44" x="3" y="1070.52" fill="#2e7d32" ry="2.046"/><rect width="56" height="42" x="4" y="1071.52" fill="#388e3c" ry="1.024"/><rect width="26" height="2" x="27" y="1114.52" fill="#fdd835" ry="0"/><rect width="13" height="2" x="11" y="1114.52" fill="#fdd835" ry="0"/><path fill="#43a047" fill-rule="evenodd" d="m18 1098.52-10 8v3l6-4v2l-6 4h4l1 2h5v-5l6-5h3l-6 5v5h38c.554 0 1-.446 1-1v-3.092l-7-8.908h-2l-2-2z"/><circle cx="58.5" cy="1112.02" r="1.5" fill="#fbc02d"/><circle cx="58.5" cy="1112.02" r=".5" fill="#263238"/><circle cx="58.5" cy="1073.02" r="1.5" fill="#fbc02d"/><circle cx="58.5" cy="1073.02" r=".5" fill="#263238"/><circle cx="5.5" cy="1112.02" r="1.5" fill="#fbc02d"/><circle cx="5.5" cy="1112.02" r=".5" fill="#263238"/><circle cx="5.5" cy="1073.02" r="1.5" fill="#fbc02d"/><circle cx="5.5" cy="1073.02" r=".5" fill="#263238"/><path fill="#43a047" fill-rule="evenodd" d="M10 1071.52v8l-2 2v2l3 3h38l7-8h4v-1h-4v-4l-8 9h-3l8-9-2-2z"/><path fill="#ffeb3b" d="M11 1114.52h13v1H11zm16 0h26v1H27z"/><path fill="url(#b)" d="M43 1097.52v4h1c1.108 0 2-.892 2-2v-2z" opacity=".7"/><path fill="url(#c)" d="M21 1097.52v4h22v-4z" opacity=".7"/><path fill="url(#d)" d="M18 1097.52v2c0 1.108.892 2 2 2h1v-4z" opacity=".7"/><rect width="28" height="16" x="18" y="1084.52" fill="#263238" ry="1"/><rect width="26" height="14" x="19" y="1085.52" fill="#37474f" ry="0"/><rect width="14" height="6" x="10" y="1074.52" fill="#263238" ry="1"/><rect width="9" height="1" x="11" y="1075.52" fill="#90a4ae" ry="0"/><path fill="#90a4ae" d="M11 1077.52h5v1h-5zm6 0h2v1h-2z"/><rect width="17" height="6" x="37" y="1104.519" fill="#eceff1" ry="1"/><rect width="9" height="1" x="38" y="1105.519" fill="#37474f" ry="0"/><path fill="#37474f" d="M38 1107.519h5v1h-5z"/><path fill="#37474f" fill-rule="evenodd" d="m49 1109.52 2-3 2 3z"/><rect width="2" height="2" x="21" y="1077.52" fill="#90a4ae" ry="0"/><path fill="#dfdfdf" fill-rule="evenodd" d="M21 1087.52h2v10h-2zm4 0h2v10h-2zm4 0h2v10h-2zm4 0h2v10h-2zm4 0h2v10h-2zm4 0h2v10h-2z" opacity=".15" paint-order="fill markers stroke"/></g></svg>