<svg xmlns="http://www.w3.org/2000/svg" width="64" height="64"><rect width="52" height="52" x="6" y="6" fill="#388e3c" stroke="#27652b" stroke-width="2" rx="3" ry="3"/><rect width="52" height="52" x="6" y="6" fill="#388e3c" rx="3" ry="3"/><path fill="#43a047" fill-rule="evenodd" d="M16 37 6 45v3l6-4v2l-6 4h4v8h6V47l6-5h3l-6 5v11h36c1.662 0 3-1.338 3-3v-7.092L51 39h-2l-2-2z"/><g transform="translate(-5 3)"><circle cx="58.5" cy="50.5" r="1.5" fill="#fbc02d"/><circle cx="58.5" cy="50.5" r=".5" fill="#263238"/></g><g transform="translate(-5 -1)"><circle cx="58.5" cy="11.5" r="1.5" fill="#fbc02d"/><circle cx="58.5" cy="11.5" r=".5" fill="#263238"/></g><g transform="translate(5 3)"><circle cx="5.5" cy="50.5" r="1.5" fill="#fbc02d"/><circle cx="5.5" cy="50.5" r=".5" fill="#263238"/></g><path fill="#43a047" fill-rule="evenodd" d="M9 6c-.353 0-.686.07-1 .182V18l-2 2v2l3 3h38l7-8h4v-1h-4v-4l-8 9h-3l8-9V6z"/><path fill="#fbc02d" fill-rule="evenodd" d="M21 22h2v20h-2zm4 0h2v20h-2zm4 0h2v20h-2zm4 0h2v20h-2zm4 0h2v20h-2zm4 0h2v20h-2z" style="paint-order:fill markers stroke"/><rect width="28" height="16" x="18" y="24" fill="#263238" ry="1"/><rect width="17" height="6" x="10" y="13" fill="#263238" ry="1"/><rect width="17" height="6" x="37" y="44" fill="#eceff1" ry="1"/><g fill="#37474f"><rect width="9" height="1" x="38" y="45" ry="0"/><path d="M38 47h5v1h-5z"/><path fill-rule="evenodd" d="m49 49 2-3 2 3z"/></g><g transform="translate(.318 .049)"><circle cx="10.182" cy="10.451" r="1.5" fill="#fbc02d"/><circle cx="10.182" cy="10.451" r=".5" fill="#263238"/></g><g fill="#fff"><path d="M11 14h4v1h-4zm0 2h8v1h-8zm11 0h3v2h-3z" opacity=".5" style="paint-order:stroke fill markers"/><path d="M30.377 27.481q0-.625.432-1.049Q31.24 26 31.865 26q.61 0 1.034.432.432.424.432 1.049 0 .61-.432 1.041-.424.424-1.034.424-.624 0-1.056-.424t-.432-1.041m2.985 9.586h1.172V38h-5.067v-.933h1.164v-6.331h-1.164v-.934h3.895z" aria-label="i"/></g></svg>