<svg xmlns="http://www.w3.org/2000/svg" width="64" height="64" viewBox="0 0 16.934 16.934"><circle cx="8.467" cy="8.467" r="7.144" fill="#333" stroke="#1a1a1a" stroke-width=".529" style="paint-order:markers stroke fill"/><circle cx="8.467" cy="8.467" r="7.144" fill="#333" style="paint-order:markers stroke fill"/><g stroke-width=".009"><path fill="#df8f8f" d="m7.465 12.086.035-.024.018-.009-.018.015-.035.023-.018.01zm.058-.035c0-.002.037-.028.083-.056l.103-.064q.018-.011.02-.008a1 1 0 0 1-.083.056l-.103.064q-.018.011-.02.008m.215-.135q.002-.005.018-.014.016-.008.018-.005c.002.003-.008.009-.018.014q-.016.008-.018.005m.045-.026a.3.3 0 0 1 .056-.04c.076-.047.078-.048.078-.044 0 .003-.02.018-.047.034l-.067.042q-.018.01-.02.008m.157-.1a.2.2 0 0 1 .036-.024l.018-.009-.018.015-.036.023-.018.01zm.072-.045a.2.2 0 0 1 .036-.024l.017-.008-.017.014a.2.2 0 0 1-.036.024l-.018.008zm.071-.045a.2.2 0 0 1 .036-.024l.018-.008-.018.014a.2.2 0 0 1-.036.024l-.018.009zm.072-.045.036-.023.018-.01-.018.015a.2.2 0 0 1-.036.024l-.018.009zm.072-.045c.02-.016.077-.047.063-.033-.005.004-.025.017-.045.028s-.028.014-.018.005m.912-.8q.003-.346.01.08c0 .083-.001.15-.005.15s-.006-.103-.005-.23m.025.219c0-.003.021-.018.047-.033l.067-.043q.019-.01.02-.008a.3.3 0 0 1-.055.04c-.076.047-.079.049-.079.044m-.878-.092q0-.016.005-.005t0 .017q-.005.003-.005-.012m1.022.003c0-.003.03-.024.07-.048l.089-.056c.01-.007.02-.01.02-.008a1 1 0 0 1-.07.048l-.09.055c-.01.008-.02.011-.02.009zm-1.022-.048q0-.015.005-.005t0 .017q-.005.004-.005-.012m-.003-.89-.002-.86-.283.165-.44.258c-.086.051-.16.09-.163.089a2 2 0 0 1-.007-.251c0-.23 0-.247-.015-.242a7 7 0 0 0-.225.128 2 2 0 0 1-.216.115 3 3 0 0 1-.01-.254c-.004-.183-.003-.25.005-.257.006-.005.11-.066.232-.135l.222-.125-.005-.319-.008-.528-.002-.21.224-.124a5 5 0 0 1 .23-.124c.005 0 .008.117.008.26s.002.26.004.26.101-.054.219-.12l.227-.127c.013-.005.014.169.016 1.628 0 .898-.001 1.632-.004 1.632s-.006-.387-.007-.86zm1.226.81.036-.023.018-.01-.018.015a.2.2 0 0 1-.036.024l-.018.009zm.072-.045.036-.023.018-.01-.018.016-.036.023-.018.009zm.072-.045.036-.023.018-.009-.018.015-.036.023-.018.009zm.072-.045.036-.023.017-.009-.017.015-.036.023-.018.01zm.058-.033c0-.003.031-.024.07-.048l.09-.056c.01-.007.02-.01.02-.008a1 1 0 0 1-.07.048l-.09.056q-.018.01-.02.008m-.633-.742c0-.25.001-.351.003-.227s.001.329 0 .453c-.002.125-.003.023-.003-.226m.011-1.62c.002-.522.006-1.003.009-1.068l.005-.119.19-.107.218-.121.03-.015v-.177c0-.097.002-.216.005-.264l.006-.087.194-.107.215-.118.022-.01-.006.213-.01.465c-.003.138-.007.273-.009.298-.002.028 0 .047.005.047.008 0 .127-.066.414-.23.005-.003.003.22-.006.467v.035l-.422.244-.005.248c-.002.137-.006.25-.009.253l-.764.45-.079.045-.003.305c-.002.167-.002-.123 0-.646zm.024-2.313c0-.04.002-.055.004-.033s.001.053 0 .071c-.002.019-.004.001-.004-.038m-.909-.256v-.275q0-.006.006-.01c.006-.004.008.123.008.276s-.003.278-.007.278-.007-.12-.007-.269m.296.113q.002-.005.018-.014.017-.008.018-.005-.002.005-.018.014-.017.008-.018.005m.117-.063q.002-.005.018-.014.017-.008.018-.005-.002.006-.018.014-.017.009-.018.005m.116-.063q.002-.004.018-.014.017-.008.018-.005-.002.006-.018.014-.017.01-.018.005m-.992-.09c0-.044.001-.064.003-.043a1 1 0 0 1 0 .081c-.001.024-.003.007-.003-.038m.015.063c0-.002.016-.012.036-.022s.035-.017.035-.014a.1.1 0 0 1-.035.022c-.02.01-.036.017-.036.014M8.94 5.63q.002-.006.018-.014.017-.01.018-.005-.001.004-.018.014-.016.008-.018.005m-.96-.036c0-.003.016-.013.036-.023s.036-.016.036-.014a.1.1 0 0 1-.036.023c-.02.01-.036.016-.036.014m1.076-.027c0-.003.009-.009.018-.014q.017-.009.018-.005-.001.005-.018.014-.016.008-.018.005m-.923-.054c0-.003.016-.013.036-.023s.035-.016.035-.014a.1.1 0 0 1-.035.023c-.02.01-.036.016-.036.014m1.049-.174.004-.167.003.16a1 1 0 0 1-.005.168 1 1 0 0 1-.002-.16zm-.825.057c0-.002.02-.015.045-.027a.1.1 0 0 1 .045-.018c0 .002-.02.014-.045.027a.2.2 0 0 1-.045.018m.17-.09c0-.002.016-.012.036-.022s.036-.016.036-.014a.1.1 0 0 1-.036.023c-.02.01-.036.016-.036.014zm.135-.071c0-.003.02-.015.045-.027a.2.2 0 0 1 .044-.019c0 .003-.02.015-.044.028a.2.2 0 0 1-.045.018m-.862-.1q0-.012.008-.018.007-.002.003.013-.01.033-.011.005m1.031.01c0-.003.016-.014.036-.024s.036-.016.036-.013a.1.1 0 0 1-.036.022c-.02.01-.036.017-.036.014zm.153-.082c0-.002.016-.012.036-.022s.035-.017.035-.014a.1.1 0 0 1-.035.023c-.02.01-.036.016-.036.013m.134-.07c0-.004.016-.014.036-.024l.036-.018.004-.552.005.543.038-.019c.021-.01.034-.015.03-.01a1 1 0 0 1-.149.08m.233-.127c0-.002.017-.013.036-.023.02-.01.036-.016.036-.013a.1.1 0 0 1-.036.022c-.02.01-.036.017-.036.014m.135-.072c0-.002.016-.012.036-.022s.036-.017.036-.014a.1.1 0 0 1-.036.023c-.02.01-.036.016-.036.013m.15-.44c0-.106 0-.192.005-.192.003 0 .006.086.006.193 0 .106-.002.192-.004.192s-.005-.086-.007-.192z"/><path fill="#a3a6b4" d="M7.433 12.343v-.232l.418-.26c.23-.142.423-.263.43-.268.012-.008.014-.163.016-1.232l.002-1.224.852-.5.003.084c.001.045-.002.587-.007 1.203a75 75 0 0 0-.006 1.125c.006.005.033-.011.431-.26l.358-.223.035-.021-.006.232-.008.234-1.415.89-.881.555a4 4 0 0 1-.213.128c-.006 0-.009-.088-.009-.231m.841-6.083-.002-.269-.238.129-.455.246c-.12.065-.22.118-.225.118a5 5 0 0 1-.014-.41l-.008-.558-.002-.148.232-.12a2 2 0 0 1 .237-.114c.004.004.008.129.01.278l.005.272.22-.116c.12-.065.225-.12.231-.122.009-.003.011.054.011.266 0 .149.003.27.006.27s.117-.06.253-.133c.286-.154.296-.16.284-.147-.005.005-.124.07-.265.145l-.262.143a3 3 0 0 0-.005.268l.003.26.439-.24c.357-.194.44-.243.445-.26l.006-.023.001.023c.001.02-.035.042-.446.267-.246.134-.45.244-.453.244a3 3 0 0 1-.008-.269m.91-.55c-.002-.172-.004-.196-.016-.191l-.172.09c-.087.048-.16.085-.161.083a2 2 0 0 1 .176-.1l.18-.095v-.541l.444-.237.006-.097c.003-.054.006-.179.006-.278l.001-.181.065-.036c.148-.08.373-.194.378-.19.005.006-.016 1.084-.022 1.089s-.322.176-.465.25c-.072.037-.193.102-.27.143l-.138.075-.01.412zm-.908-.56v-.276l.065-.033.805-.42.05-.024-.01.556-.443.236c-.245.13-.45.236-.456.236-.008 0-.01-.06-.01-.275zm-.475-.763c0-.093-.003-.223-.006-.29l-.005-.12.237-.118c.131-.066.24-.12.244-.12.003 0 .004.13.003.29l-.002.288-.233.12-.236.119c-.001 0-.002-.076-.002-.169m1.4-.797c0-.137.004-.267.007-.288l.005-.039.216-.111a3 3 0 0 1 .227-.111c.01 0 .012.044.006.28-.005.246-.008.281-.021.292a13 13 0 0 1-.435.224 2 2 0 0 1-.005-.247"/><path fill="#ec7676" d="M6.985 12.315c0-.063-.046-2.306-.057-2.786a1 1 0 0 1 0-.146q.004.023.009.025c.005.002.098-.054.212-.12.115-.067.216-.124.224-.127.014-.006.015.012.015.241 0 .136.003.249.007.251s.077-.037.164-.088c.36-.212.722-.424.723-.423l.006 1.213.005 1.212L8 11.75c-.528.328-.562.35-.571.36-.01.012-.409.264-.432.273-.01.004-.012-.01-.012-.068m2.164-1.918.012-1.205.005-.57.078-.045c.342-.2.76-.445.763-.449.003-.002.007-.116.01-.252l.004-.248.21-.123a7 7 0 0 1 .212-.12 573 573 0 0 1-.06 2.42c-.01.409-.013.475-.026.485-.025.022-.38.241-.395.244a12 12 0 0 0-.412.25 19 19 0 0 1-.402.247c-.002 0-.002-.285.001-.634M6.916 9.063c0-.07.002-.096.003-.06s.002.092 0 .125c-.001.033-.003.004-.003-.065m.001-.173a.4.4 0 0 1 .09-.05.4.4 0 0 1-.09.05m.103-.06c0-.003.017-.013.036-.023.02-.01.036-.016.036-.014a.1.1 0 0 1-.036.023c-.02.01-.036.016-.036.014m.086-.048a.5.5 0 0 1 .107-.058.5.5 0 0 1-.107.058m.12-.069c0-.002.013-.01.028-.018.014-.008.027-.012.027-.01 0 .003-.013.011-.027.019s-.027.012-.027.01zm.063-.036c0-.002.013-.01.027-.018s.027-.012.027-.01c0 .003-.012.011-.027.019s-.027.012-.027.01zm.063-.035q.001-.004.014-.014.012-.01.013-.002-.001.008-.013.014-.013.005-.014.002m.022-.176c0-.081.001-.114.003-.074a2 2 0 0 1 0 .148c-.002.04-.003.008-.003-.074m-.009-.596c0-.089.001-.124.003-.078s.002.118 0 .161-.003.006-.003-.083m.465-.164.002-.141.002.137.003.137.02-.01q.03-.015.003.004-.017.013-.025.014c-.008.001-.006-.063-.005-.14zm.07.101q.002-.004.026-.018c.015-.008.027-.012.027-.01 0 .003-.012.011-.027.02-.015.007-.027.011-.027.008zm.062-.035c0-.003.012-.011.027-.019.015-.007.027-.012.027-.01 0 .003-.012.012-.027.02-.015.007-.027.011-.027.009m.08-.045c0-.003.009-.009.019-.014q.017-.008.018-.005-.002.005-.018.014-.017.008-.018.005zm.082-.045q.001-.005.018-.014t.017-.005q-.002.005-.017.014-.017.009-.018.005m.062-.036q.002-.005.018-.014.017-.008.018-.005c.001.003-.008.009-.018.014q-.017.008-.018.005m.088-.05q.01-.011.016-.007.003.005-.011.011-.019.008-.005-.005zm.029-.013q.002-.004.018-.014.017-.008.018-.005-.001.006-.018.014-.016.01-.018.005m-.942-.009q.002-.004.018-.014.016-.008.018-.005-.002.006-.018.014-.016.01-.018.005m.467-.028q0-.015.006-.005.003.01-.001.017-.005.004-.005-.012m.538.002q.001-.006.018-.015t.018-.005q-.002.006-.018.014-.017.009-.018.006m-.924-.018q.002-.006.018-.014t.018-.006q-.002.006-.018.015t-.018.005m.387-.023q0-.02.005-.012a.04.04 0 0 1 0 .023q-.005.007-.005-.011m.617-.004c0-.003.009-.01.018-.014q.017-.01.018-.005-.002.004-.018.014-.017.008-.018.005m-.923-.018c0-.003.012-.011.027-.019.014-.007.026-.012.026-.01 0 .003-.012.012-.026.02-.015.007-.027.011-.027.009m.986-.018c0-.003.012-.011.027-.019.015-.007.027-.012.027-.01 0 .003-.012.012-.027.02-.015.007-.027.011-.027.009m-.906-.027q.002-.006.018-.014t.018-.005q-.002.005-.018.014-.016.008-.018.005m.969-.01c0-.002.012-.01.027-.018s.027-.011.027-.009-.012.01-.027.018-.027.012-.027.01zm-.906-.026c0-.003.016-.013.036-.023s.036-.016.036-.014a.1.1 0 0 1-.036.023c-.02.01-.036.016-.036.014m.987-.018q.002-.005.018-.014.017-.008.018-.005-.002.005-.018.014-.017.008-.018.005m-.888-.036q.002-.005.018-.014.016-.008.018-.005-.002.005-.018.014t-.018.005m.968-.009c0-.002.009-.009.018-.014q.017-.008.018-.005-.001.005-.018.014t-.018.005m.063-.036c0-.002.012-.01.027-.018s.027-.012.027-.01c0 .003-.012.011-.027.019-.015.007-.027.012-.027.01zm.081-.044q.002-.006.018-.015.017-.008.018-.005-.002.006-.018.014-.017.009-.018.006m.063-.036c0-.003.012-.011.027-.019s.027-.012.027-.01c0 .003-.013.011-.027.02-.015.007-.027.011-.027.009m.08-.045c0-.003.009-.009.018-.014q.017-.01.018-.005-.002.004-.018.014-.017.008-.018.005m.063-.036q.002-.006.018-.014.017-.008.018-.005-.001.005-.018.014-.016.008-.018.005m.942-.048q0-.018.008-.003c.007.01.018.007.058-.016a.2.2 0 0 1 .05-.025.4.4 0 0 1-.106.06q-.01-.001-.01-.016m-.834-.015c0-.002.012-.01.027-.018s.027-.012.027-.01c0 .003-.012.01-.027.019-.015.007-.027.011-.027.009m.063-.036c0-.002.012-.01.027-.018s.026-.012.026-.01c0 .003-.012.011-.026.019-.015.007-.027.012-.027.01zm.901-.002a.5.5 0 0 1 .108-.06.5.5 0 0 1-.108.06M9.335 7q.001-.004.017-.014.017-.008.018-.005-.002.006-.018.014-.017.01-.018.005zm.703-.175c0-.091.001-.129.003-.083v.166c-.002.046-.003.008-.003-.083m.238.15c0-.003.034-.024.076-.048s.077-.046.077-.05q0-.008.01-.002c.01.006-.002.014-.102.07a.3.3 0 0 1-.06.03zm-.879-.01c0-.003.012-.011.027-.019s.027-.012.027-.01c0 .003-.012.011-.027.019s-.027.012-.027.01m.08-.045c0-.003.009-.01.019-.014q.016-.01.018-.005-.002.004-.018.014-.017.008-.018.005zm.095-.054a.1.1 0 0 1 .024-.014.4.4 0 0 0 .01-.101l.003-.101.003.201-.029.015q-.036.018-.011 0m.042-.482c-.001-.033.001-.062.005-.064s.006.016.004.042q-.006.115-.01.022zm.043-.083c0-.003.012-.011.027-.019.015-.007.027-.012.027-.01 0 .003-.012.012-.027.02-.015.007-.027.011-.027.009m.081-.045c0-.003.012-.01.027-.019.015-.007.027-.011.027-.009 0 .003-.012.01-.027.018s-.027.012-.027.01m.099-.054q.002-.005.018-.014.017-.008.018-.005c0 .003-.009.009-.018.014q-.017.009-.018.005m.08-.045c0-.002.012-.01.027-.018s.027-.012.027-.01c0 .003-.012.011-.027.019-.015.007-.027.012-.027.01zm.081-.045c0-.002.012-.01.027-.018s.027-.012.027-.01c0 .003-.012.011-.027.019s-.027.012-.027.01zm-1.713-.407v-.268l.45-.238c.248-.131.452-.237.454-.236.001.002 0 .123-.004.268l-.006.266-.442.238-.447.238a5 5 0 0 1-.005-.268m1.77.147c0-.06.002-.082.004-.051v.107c-.002.028-.004.003-.004-.056m-2.238-.255-.006-.276-.002-.198.039-.022c.02-.012.126-.068.233-.123l.195-.1v.555l-.456.241zM9.629 5.3c-.002-.02 0-.036.003-.036.004 0 .007.017.007.036s-.001.036-.003.036-.005-.016-.007-.036m-.427-.632.002-.275.207-.108c.113-.06.211-.11.217-.112.01-.004.011.05.01.267l-.003.273-.08.043-.218.115-.137.072z"/><path fill="#67759c" d="M7.887 14.07c-.003-.031-.007-.44-.01-.909l-.006-.852.227-.142c.125-.078.222-.136.215-.128-.009.01-.01.2-.01.916.002.496.001.903 0 .905-.009.007-.404.266-.408.266a.2.2 0 0 1-.008-.056m1.236-1.279c.006-.62.015-1.28.017-1.28l.367-.232c.028-.018.05-.028.048-.021-.004.012-.012.476-.019 1.163-.002.25-.007.495-.01.545l-.005.092-.197.13c-.108.072-.199.13-.201.13s-.003-.237 0-.527m-2.138-.4q.001-.004.014-.009.012-.004.008.004c-.005.008-.022.012-.022.005m.442-.19c0-.049.002-.068.004-.042s.002.067 0 .09-.004.002-.004-.047zm.93-.196q.002-.005.018-.014.017-.008.018-.005c.001.003-.008.009-.018.014q-.017.008-.018.005m.072-.045q.002-.005.018-.014.017-.008.018-.005c.001.003-.008.009-.018.014q-.017.008-.018.005m.098-.063q.001-.004.018-.014.016-.008.018-.005c.002.003-.008.01-.018.014q-.017.01-.018.005m.144-.09q.002-.004.018-.013.017-.01.018-.005c.001.005-.008.008-.018.014q-.017.008-.018.005zm.897-.564q.002-.006.018-.014.017-.01.018-.005c.001.005-.008.008-.018.014q-.016.008-.018.005m.098-.063q.002-.006.018-.014.017-.009.018-.005c.001.004-.008.009-.018.014q-.017.008-.018.005m.29-.26c0-.05.002-.07.004-.043s.002.066 0 .09-.003.002-.003-.048zm.007-.343c0-.021.003-.04.006-.042.004-.003.006.01.004.028q-.009.076-.01.014m.385-.276q.001-.003.016-.015.02-.017.003.003-.018.023-.019.012m.03-.31c0-.037.002-.052.003-.034s.002.05 0 .068c-.001.018-.003.003-.003-.034m.009-.359c0-.037.002-.052.003-.033s.002.048 0 .067-.003.003-.003-.034m.007-.283q0-.016.005-.005.004.01 0 .017-.006.003-.005-.012m.002-.08q0-.046.003-.025a.2.2 0 0 1 0 .054c-.002.014-.003 0-.003-.029m-2.102-.773c0-.35-.003-.692-.005-.76-.002-.07 0-.13.003-.136.007-.011.872-.5.876-.495l-.012 1.42v.1l-.42.246-.43.253c-.01.006-.012-.103-.012-.628m2.111.428c0-.042.001-.06.003-.038.002.02.002.055 0 .076s-.003.004-.003-.038m.009-.36c0-.041.001-.058.003-.037.002.02.002.055 0 .076s-.003.004-.003-.038zm-3.932.06c0-.003.017-.013.036-.023.02-.01.036-.016.036-.014a.1.1 0 0 1-.036.023c-.02.01-.036.016-.036.014m.081-.045q.002-.005.018-.014.016-.008.018-.005-.002.005-.018.014-.016.008-.018.005m.063-.036c0-.003.012-.01.027-.018s.027-.012.027-.01c0 .003-.012.01-.027.019-.015.007-.027.011-.027.009m.08-.045c0-.002.009-.009.019-.014q.017-.008.018-.005c0 .003-.009.009-.018.014q-.017.008-.018.005zm.081-.045q.002-.004.018-.014.016-.008.018-.005-.002.005-.018.014t-.018.005m.045-.027c0-.002.012-.01.027-.018s.027-.012.027-.01c0 .003-.012.011-.027.019s-.027.012-.027.01zm.063-.035q.002-.006.018-.014t.018-.006q-.002.006-.018.015t-.018.005m3.526-.113q0-.019.005-.011a.03.03 0 0 1 0 .022q-.005.008-.005-.011m.002-.09c0-.032.001-.045.003-.029a.3.3 0 0 1 0 .058c-.002.016-.003.003-.003-.029m.007-.25q0-.02.005-.012a.03.03 0 0 1 0 .022q-.005.008-.005-.01m.002-.1c0-.037.001-.052.003-.033s.002.049 0 .067-.003.003-.003-.034m.009-.354c0-.04.001-.054.003-.033s.002.053 0 .072-.003 0-.003-.039m.006-.306q0-.015.006-.005.003.011-.001.017-.005.004-.005-.012m.003-.084c0-.037.001-.052.003-.034s.002.05 0 .068-.003.003-.003-.034m-.042-.234a.1.1 0 0 1-.033-.022c0-.004.07.03.08.037.01.01-.017 0-.047-.015m-.06-.035q-.013-.008-.003-.009a.02.02 0 0 1 .016.009q.011.016-.013 0m-.056-.028a.1.1 0 0 1-.034-.022c0-.002.016.004.036.014s.036.02.036.023c0 .006 0 .006-.038-.015m-.117-.062a.3.3 0 0 1-.051-.031c0-.003.024.007.054.022s.053.03.053.032c0 .006.002.006-.056-.023m-.107-.059c-.034-.018-.032-.025.002-.008a.1.1 0 0 1 .027.018c0 .006-.001.006-.03-.01zm-.022-.178c0-.045.002-.064.004-.043s.002.057 0 .08c-.002.024-.004.007-.004-.037m-1.759-.243.003-.265.228-.124.658-.35c.008 0 .006.473-.002.501-.006.022-.014.026-.815.464l-.074.04zm-.949-.004c0-.096.001-.136.003-.087.002.048.002.126 0 .174s-.003.01-.003-.087m2.715-.09q0-.02.005-.01a.03.03 0 0 1 0 .021q-.005.01-.005-.01zm.002-.116c0-.052.002-.073.004-.047a1 1 0 0 1 0 .094c-.002.026-.004.004-.004-.047M7.33 5.64c0-.091.001-.129.003-.083s.002.12 0 .166-.003.008-.003-.083m2.735-.013c0-.04.002-.055.003-.034s.002.054 0 .072-.003.001-.003-.038m-2.97-.381-.227-.124.12-.063.236-.122.118-.06.227.121c.125.067.23.119.232.116s.004-.129.002-.28L7.8 4.559l.232-.119a3 3 0 0 0 .243-.133q.01-.013.011-.008a1 1 0 0 0 .15-.07c.083-.044.375-.192.648-.33s.515-.26.536-.273l.038-.021.003-.132v.054l-.002.186.434.217-.148.076-.645.333a83 83 0 0 1-1.332.695c-.205.109-.644.338-.645.337zm2.563.004c0-.002.012-.01.027-.018s.027-.012.027-.01c0 .003-.012.011-.027.019s-.027.012-.027.01zm.117-.062q.002-.006.018-.014.017-.01.018-.005-.001.004-.018.014-.016.008-.018.005m.117-.063c0-.003.016-.013.035-.023s.036-.016.036-.014a.1.1 0 0 1-.036.023c-.02.01-.035.016-.035.014m.126-.071.026-.014q.03-.016.005.003c-.014.012-.043.022-.031.01zm.055-.064q0-.04.004-.02a.2.2 0 0 1 0 .045q-.004.014-.003-.025zm.01-.372c0-.067.002-.094.003-.06a1 1 0 0 1 0 .12c-.001.033-.003.006-.003-.06M7.796 4.34c0-.116.001-.164.003-.106s.001.153 0 .211-.003.01-.003-.105m2.295-.17c0-.072.002-.102.003-.066a1 1 0 0 1 0 .13c-.001.036-.003.007-.003-.065zm-2.526-.31a4 4 0 0 1-.223-.12c-.007-.006.057-.042.227-.127l.236-.117.47.238-.235.118c-.13.066-.24.119-.248.119s-.11-.05-.227-.11zm.713-.05q0-.02.004-.01a.04.04 0 0 1 0 .022q-.003.008-.004-.012m.923-.514L9.2 3.263l-.229-.11a4 4 0 0 1-.228-.117c0-.003.102-.055.228-.116l.228-.112.463.225-.449.23-.01.069z"/><path fill="#e5292a" d="M6.979 12.113c0-.04.001-.055.003-.034a1 1 0 0 1 0 .072c-.002.018-.003.001-.003-.038m-.01-.426c0-.037.002-.053.004-.034s.002.049 0 .067-.003.004-.003-.033zm-.008-.426c0-.04.001-.055.003-.034s.002.054 0 .072-.003.001-.003-.038m-.01-.426c0-.037.002-.053.004-.034s.002.049 0 .067-.003.004-.003-.033zm-.008-.427c0-.039.001-.054.003-.033s.002.053 0 .072-.003 0-.003-.039m-.01-.421c0-.04.002-.055.004-.033s.002.053 0 .071c-.002.019-.003.001-.003-.038zm-.008-.413c0-.034.001-.047.003-.029s.002.047 0 .063-.003 0-.003-.034m.354-.979q.01-.003.017 0 .004.006-.012.006c-.016 0-.012-.003-.005-.006m.557-.888c0-.151-.008-.382-.013-.387a4 4 0 0 0-.23.123c-.124.07-.227.125-.228.124L7.358 7.3l-.006-.265.462-.252.01-.541.222-.121.226-.12c.002 0 .004.12.004.265 0 .147.002.268.003.27.002.001.102-.051.222-.117l.455-.248.235-.128.001-.234.001-.268c0-.028.005-.036.028-.05.046-.028.398-.217.404-.217.003 0 .005.115.005.256 0 .235.002.256.015.251l.212-.113c.108-.06.198-.107.2-.105s.001.12-.003.262l-.007.258-.43.238-.005.187c-.003.103-.007.222-.007.264l-.002.076-.208.117-1.114.627-.424.237-.02.01zm2.2-.702q0-.02.004-.011a.03.03 0 0 1 0 .022q-.005.008-.005-.011z"/><path fill="#444e63" d="m7.678 13.992-.198-.135-.005-.1a30 30 0 0 1-.01-.645l-.006-.542.41-.255.005.54c.01.873.012 1.27.007 1.27a5 5 0 0 1-.203-.133m1.232-.806-.204-.132.003-.534c.001-.293.003-.58.005-.637l.003-.103.18-.114.212-.134.031-.02-.006.255c-.003.14-.007.447-.008.682s-.004.525-.007.647l-.004.221zm-1.514-.628-.171-.113c-.083-.054-.15-.1-.15-.103 0-.007.341-.218.345-.214a5 5 0 0 1 .007.446.1.1 0 0 1-.03-.016zm-.472-.21c-.03-.019-.04-.032-.013-.017.02.011.052.036.047.036a.2.2 0 0 1-.034-.018zm-.358-.276q0-.035.003-.02.005.023 0 .04c-.005.017-.003.002-.003-.02m-.009-.278c0-.052.002-.073.004-.047s.002.068 0 .094-.004.005-.004-.047m-.009-.337c0-.044.002-.063.004-.042s.002.057 0 .08c-.002.024-.004.007-.004-.038m-.009-.336c0-.047.002-.066.004-.042s.002.061 0 .085-.004.004-.004-.043m-.009-.323c0-.047.002-.066.004-.042s.002.061 0 .085-.004.004-.004-.043m-.008-.34c0-.052.001-.074.003-.048s.002.069 0 .095-.003.004-.003-.048zm-.01-.337c0-.05.002-.068.004-.042s.002.066 0 .09-.003.001-.003-.048zm-.008-.327c0-.047.001-.066.003-.043s.002.062 0 .085-.003.005-.003-.042m-.01-.337c0-.049.002-.068.004-.042s.002.067 0 .09-.003.002-.003-.048zm-.01-.242q0-.016.004-.006t0 .017q-.005.003-.005-.011zm.002-.125c0-.06.001-.083.003-.052s.002.08 0 .108-.003.003-.003-.056m-.01-.337c0-.061.002-.087.004-.056s.002.082 0 .112c-.002.031-.003.006-.003-.056zm.458-.497c0-.07.002-.097.003-.06s.002.092 0 .125c-.001.033-.003.004-.003-.065m-.009-.422c0-.084.002-.12.003-.079.002.04.002.11 0 .153-.001.043-.002.01-.002-.074zm-.009-.404c0-.069.002-.096.004-.06s.001.093 0 .126c-.002.033-.004.004-.004-.066m-.009-.417c0-.066.002-.093.004-.06s.001.088 0 .121c-.002.033-.004.006-.004-.06zm.057-.27c.006-.006.014-.009.016-.006q.003.005-.01.011-.02.008-.006-.005m.339-.275-.217-.123-.19-.105-.005-.046a12 12 0 0 1-.01-.396l-.01-.509a1 1 0 0 1 .003-.159c.004 0 .106.054.227.12l.22.118.006.3c.01.456.012.816.007.816zm.274-1.464a6 6 0 0 1-.226-.123 39 39 0 0 1-.022-1.139c.001-.001.218.109.402.204l.06.031.001.234c0 .128.004.382.008.565s.005.334.002.338a2 2 0 0 1-.225-.11m.705-.705a3 3 0 0 1-.006-.235v-.23l.458-.229.001-.24.003-.325c.001 0 .106.05.232.112l.23.112-.005.575-.22.113-.453.232a3 3 0 0 1-.24.115"/><path fill="#931b1a" d="m6.778 12.246-.205-.134c-.003-.003-.022-.67-.063-2.242-.032-1.196-.033-1.234-.023-1.242l.406-.23.048-.026-.005-.242-.025-1.186-.003-.164.23-.124c.201-.11.228-.127.232-.15.004-.02.03-.038.225-.143l.22-.12.002.267c.002.216 0 .268-.01.275l-.234.13-.222.12.005.225c.003.123.007.482.008.797l.002.572-.045.025-.224.13-.18.103.003.263c.001.144.016.928.033 1.742.018.813.03 1.48.029 1.482a4 4 0 0 1-.204-.129zm.518-3.65q-.006-.005-.017-.001-.01.005.005.005c.015 0 .015-.001.012-.004m2.745-1.701.005-.22a3 3 0 0 1 .38.2c.002.007-.346.212-.382.226a2 2 0 0 1-.003-.206m-.41-1.335v-.225l.212.11.215.11c.003.002-.416.23-.422.23-.003 0-.006-.101-.006-.225z"/></g></svg>