<svg xmlns="http://www.w3.org/2000/svg" width="64" height="64" viewBox="0 0 16.933 16.933"><g transform="translate(-62.706 -208.1)"><g color="#000" transform="translate(62.706 207.968)scale(.1323)"><rect width="96" height="100" x="16" y="15" fill="#f5f5f5" overflow="visible" rx="2.982" ry="2.982" style="marker:none"/><rect width="98" height="102" x="15" y="14" fill="none" stroke="#4f6698" stroke-linecap="round" stroke-linejoin="round" stroke-opacity=".267" stroke-width="2" overflow="visible" rx="4" ry="4" style="marker:none"/></g><rect width="12.7" height="1.323" x="64.823" y="221.858" fill-opacity=".051" rx=".397" ry=".397"/></g><path fill="#6c748c" fill-rule="evenodd" d="m7.053 4.498-1.415 1.91.4.793h4.24c-.04 1.017-.047 1.263-.264 1.788-.128.31-.29.505-.614.656-.325.152-.845.244-1.635.193l-.064.993c.89.057 1.576-.03 2.12-.284a2.22 2.22 0 0 0 1.113-1.178c.402-.975.294-1.46.361-2.637l-.021-.527H7.025l.827-1.115z"/></svg>