<svg xmlns="http://www.w3.org/2000/svg" width="64" height="64"><rect width="52" height="52" x="6" y="6" fill="#b3b3b3" stroke="#5c5c5c" stroke-linecap="round" stroke-linejoin="round" stroke-width="1.999" opacity=".9" paint-order="markers stroke fill" rx="3.118" ry="3.118"/><rect width="52" height="52" x="6" y="6" fill="#b3b3b3" paint-order="markers stroke fill" rx="3.118" ry="3.118"/><g paint-order="stroke markers fill" transform="translate(8.521 -346.86)scale(1.2701)"><circle cx="8.467" cy="288.53" r="7.408" opacity=".2"/><circle cx="8.467" cy="288.53" r="7.134" fill="#f9f9f9"/><circle cx="8.467" cy="288.53" r="4.498" fill="#4f535d"/><circle cx="8.467" cy="288.53" r="3.175" fill="#fff" opacity=".25"/><circle cx="8.467" cy="288.53" r="2.117" fill="#3a3f4a"/><circle cx="9.26" cy="287.74" r=".529" fill="#fff" opacity=".5"/></g><g transform="translate(33.131 -346.69)scale(1.2701)"><rect width="9.525" height="9.525" x="1.852" y="285.09" fill="#fff" stroke="#000" stroke-width=".529" opacity=".1" paint-order="stroke markers fill" rx=".529" ry=".529"/><rect width="9.525" height="9.525" x="1.852" y="285.09" fill="#fff" paint-order="stroke markers fill" rx=".529" ry=".529"/><g aria-label="У»Г"><path fill="#ccc" d="m4.658 286.66.551.165-.193.468h1.681v.524h-.964q.22.303.44.661l-.578.331q-.22-.524-.524-.992h-.33l-.304.523q-.165.22-.44.524l-.497-.386q.8-.799 1.158-1.819zm2.866 0 .524.165q-.083.248-.193.468h1.957v.524H8.654q.193.275.358.551l-.496.303q-.22-.44-.496-.854h-.413q-.386.661-.717.992l-.496-.358q.772-.772 1.13-1.792zm-2.48 2.011.496.248q-.248.496-.552.992v3.142h-.55v-2.397q-.331.413-.69.744l-.33-.496q.909-.8 1.626-2.233m.634.855h2.59v-.69h.551v.69h.965v.523H8.82v2.26q0 .414-.165.551-.138.166-.551.166-.496 0-.937-.083l-.11-.551q.468.11.964.11.248 0 .248-.33v-2.123h-2.59zm.992.771q.496.579.827 1.268l-.552.33q-.275-.66-.799-1.267z" aria-label="угд" font-family="sans-serif" font-size="7.056" font-weight="400" letter-spacing="0" word-spacing="0"/></g><rect width="9.525" height="9.525" x="6.085" y="281.92" fill="#498cd8" paint-order="stroke markers fill" rx=".529" ry=".529"/><path fill="#fff" d="M11.774 287.67q-.397.728-1.19.728-.596 0-.96-.397-.364-.43-.364-1.19 0-.86.463-1.356.497-.53 1.29-.53.695 0 1.29.199l-.1 1.72v.297q0 .364.1.563.132.165.397.165.298 0 .53-.397.23-.397.23-1.19 0-1.125-.66-1.787-.63-.661-1.688-.661-1.322 0-2.116.827-.76.827-.76 2.249 0 1.257.66 1.951.662.662 1.853.662.893 0 1.786-.364v.562q-.761.364-1.786.364-1.456 0-2.282-.827t-.827-2.315q0-1.62.959-2.646.992-1.025 2.513-1.025 1.323 0 2.117.827.827.826.827 2.215 0 .96-.43 1.522-.397.562-.992.562-.695 0-.86-.728m-.165-2.116q-.298-.1-.596-.1-.496 0-.793.364t-.298 1.026q0 .496.165.76.199.265.596.265.793 0 .893-1.29z" aria-label="@" font-family="sans-serif" font-size="8.467" font-weight="400" letter-spacing="0" word-spacing="0"/></g><g transform="translate(33.3 -322.23)scale(1.2701)"><path fill="#f2f2f2" d="M6.329 292.5s.05 1.634-.197 1.985c-.246.35-.736.354-.736.354-.314.037-.317.704 0 .704h6.141c.317 0 .315-.668 0-.704 0 0-.49-.004-.736-.354s-.196-1.985-.196-1.985z" overflow="visible"/><rect width="15.61" height="10.583" x=".661" y="282.05" fill="#1a1a1a" stroke="#000" stroke-dashoffset=".5" stroke-linecap="round" stroke-linejoin="round" stroke-width=".265" rx=".347" ry=".321"/><path fill="#505050" d="M1.323 282.71H15.61v9.26H1.323z"/><path fill="none" stroke="#000" stroke-dashoffset=".5" stroke-linecap="round" stroke-linejoin="round" stroke-width=".264" d="M6.329 292.24s.05 1.898-.197 2.249c-.246.35-.736.354-.736.354-.314.037-.317.704 0 .704h6.141c.317 0 .315-.668 0-.704 0 0-.49-.004-.736-.354s-.196-2.25-.196-2.25z" color="#000" opacity=".15" overflow="visible"/><path fill="#a8a8a8" fill-rule="evenodd" d="M2.646 284.04h1.323v.529H2.646zm0 .529h.529v.794h-.529zm2.91-.53h2.117v.529H5.556zm3.704 0h2.117v.529H9.26zm-6.085 2.382v1.852h-.529v-1.852zm11.112-2.381h-1.323v.529h1.323zm0 .529h-.529v.794h.53zm0 1.852v1.852h-.529v-1.852zm-11.641 4.233h1.323v-.53H2.646zm0-.53h.529v-.793h-.529zm2.91.53h2.117v-.529H5.556zm3.704 0h2.117v-.529H9.26zm5.027 0h-1.323v-.53h1.323zm0-.53h-.529v-.793h.53z" paint-order="fill markers stroke"/><path fill="#e6e6e6" d="m13.263 292.14-1.874-3.467s-1.31 2.76 1.874 4.529z"/><path fill="none" stroke="#000" stroke-width=".265" d="m13.263 292.14-1.874-3.467s-1.31 2.76 1.874 4.529z" opacity=".5"/><path fill="#e6e6e6" d="m13.526 292.14 1.874-3.467s1.31 2.76-1.874 4.529z"/><path fill="none" stroke="#000" stroke-width=".265" d="m13.526 292.14 1.874-3.467s1.31 2.76-1.874 4.529z" opacity=".5"/><g color="#000"><path fill="#e1594d" d="M12.499 293.17c-.488.026-1.792.323-1.792 1.234 0 1.04.775 1.406 1.238 1.406.464 0 1.22-.35 1.239-1.406.014-.842-.287-1.182-.529-1.234a1 1 0 0 0-.156 0m1.568 0c-.242.052-.543.392-.528 1.234.018 1.055.766 1.406 1.23 1.406s1.238-.365 1.238-1.406-1.698-1.286-1.94-1.234m-1.568.666s.156 1.8-.793 1.094c-1.056-.786.793-1.094.793-1.094m1.717 0s1.856.308.8 1.094c-.949.707-.8-1.094-.8-1.094" overflow="visible"/><path fill="none" stroke="#640000" stroke-linecap="round" stroke-linejoin="round" stroke-width="1.004" d="M47.406 50.625c-1.845.098-6.781 1.226-6.781 4.688 0 3.956 2.933 5.343 4.688 5.343s4.619-1.332 4.687-5.343c.054-3.198-1.085-4.491-2-4.688-.114-.025-.33-.014-.594 0m5.907 0c-.916.197-2.055 1.49-2 4.688.068 4.01 2.901 5.343 4.656 5.343s4.687-1.387 4.687-5.343-6.428-4.885-7.343-4.688m-5.907 2.531s.594 6.843-3 4.157c-3.996-2.987 3-4.157 3-4.157m6.469 0s7.027 1.17 3.031 4.157c-3.593 2.686-3.031-4.157-3.031-4.157" opacity=".6" overflow="visible" transform="matrix(.26417 0 0 .26312 -.017 279.85)"/></g></g><g transform="translate(8.522 -321.72)scale(1.2701)"><rect width="13.758" height="13.758" x="1.587" y="-295.41" fill="#e6e6e6" overflow="visible" rx=".637" ry=".637" transform="scale(1 -1)"/><rect width="14.023" height="14.023" x="1.455" y="281.52" fill="none" stroke="#555761" stroke-linecap="round" stroke-linejoin="round" stroke-width=".265" opacity=".5" overflow="visible" rx=".765" ry=".765"/><path fill="#bcbcbc" d="M7.824 284.04c-.116 0-.212.447-.268 1.085a3.5 3.5 0 0 0-.854.36c-.494-.414-.88-.664-.961-.582l-.91.91c-.081.081.168.467.582.96a3.5 3.5 0 0 0-.356.854c-.64.057-1.088.153-1.088.269v1.285c0 .116.446.212 1.085.268a3.5 3.5 0 0 0 .357.856c-.412.493-.661.877-.58.96l.91.908c.082.082.466-.166.957-.578a3.5 3.5 0 0 0 .858.353c.056.64.152 1.088.268 1.088H9.11c.116 0 .212-.446.269-1.085a3.5 3.5 0 0 0 .854-.359c.493.414.879.663.96.581l.91-.909c.082-.082-.168-.467-.581-.96a3.5 3.5 0 0 0 .355-.855c.64-.056 1.089-.152 1.089-.268v-1.285c0-.116-.447-.212-1.085-.269a3.5 3.5 0 0 0-.358-.856c.412-.492.662-.877.58-.959l-.91-.909c-.081-.082-.465.167-.957.579a3.5 3.5 0 0 0-.857-.354c-.057-.64-.153-1.088-.269-1.088zm.643 2.892a1.606 1.606 0 0 1 1.606 1.606 1.606 1.606 0 0 1-1.606 1.607 1.606 1.606 0 0 1-1.607-1.607 1.606 1.606 0 0 1 1.607-1.606" overflow="visible" style="isolation:auto;mix-blend-mode:normal"/><path fill="none" stroke="#000" stroke-width=".265" d="M8.468 290.25c.98.03 1.835-.917 1.705-1.891-.071-.979-1.097-1.733-2.05-1.506-.965.17-1.612 1.264-1.293 2.191.21.704.903 1.217 1.638 1.206z" opacity=".1" overflow="visible"/><path fill="none" stroke="#000" stroke-width=".265" d="M7.877 284.17a1 1 0 0 0-.06.182c-.042.18-.08.447-.108.764a.16.16 0 0 1-.117.14 3.4 3.4 0 0 0-.82.344.16.16 0 0 1-.183-.015 6 6 0 0 0-.62-.466 1 1 0 0 0-.172-.088l-.835.835a1 1 0 0 0 .088.172c.098.158.261.375.466.62.044.05.05.124.016.181a3.4 3.4 0 0 0-.342.822.16.16 0 0 1-.14.116 6 6 0 0 0-.765.109 1 1 0 0 0-.184.06v1.18a1 1 0 0 0 .183.059c.179.042.447.08.763.108a.16.16 0 0 1 .14.117 3.4 3.4 0 0 0 .343.822.16.16 0 0 1-.015.183 6 6 0 0 0-.465.618 1 1 0 0 0-.088.172l.835.835a1 1 0 0 0 .171-.088 6 6 0 0 0 .618-.464.16.16 0 0 1 .182-.016 3.4 3.4 0 0 0 .823.34.16.16 0 0 1 .118.14c.028.317.066.585.108.765.02.087.043.15.06.184h1.18a1 1 0 0 0 .059-.183c.043-.179.08-.447.109-.763a.16.16 0 0 1 .116-.14 3.4 3.4 0 0 0 .82-.345.16.16 0 0 1 .183.016c.245.205.462.368.62.466a1 1 0 0 0 .172.088l.835-.835a1 1 0 0 0-.088-.172 6 6 0 0 0-.466-.62.16.16 0 0 1-.016-.182c.15-.257.265-.534.342-.82a.16.16 0 0 1 .14-.118 6 6 0 0 0 .766-.108 1 1 0 0 0 .183-.06v-1.18a1 1 0 0 0-.182-.059 6 6 0 0 0-.764-.109.16.16 0 0 1-.14-.116 3.4 3.4 0 0 0-.343-.823.16.16 0 0 1 .015-.182c.205-.245.368-.461.465-.619a1 1 0 0 0 .088-.171l-.835-.835a1 1 0 0 0-.17.087c-.158.097-.375.26-.618.465a.16.16 0 0 1-.182.015 3.4 3.4 0 0 0-.824-.34.16.16 0 0 1-.117-.139 6 6 0 0 0-.109-.766 1 1 0 0 0-.06-.183z" opacity=".1" overflow="visible" style="isolation:auto;mix-blend-mode:normal"/></g></svg>