<svg xmlns="http://www.w3.org/2000/svg" width="64" height="64" viewBox="0 0 16.933 16.933"><path fill="#998be7" stroke="#6e63ad" stroke-width=".529" d="M15.61 8.466a7.144 7.144 0 0 1-7.144 7.144 7.144 7.144 0 0 1-7.143-7.144 7.144 7.144 0 0 1 7.143-7.143 7.144 7.144 0 0 1 7.144 7.143z"/><path fill="#998be7" d="M15.61 8.466a7.144 7.144 0 0 1-7.144 7.144 7.144 7.144 0 0 1-7.143-7.144 7.144 7.144 0 0 1 7.143-7.143 7.144 7.144 0 0 1 7.144 7.143"/><path d="M14.023 8.466a5.556 5.556 0 0 1-5.556 5.557A5.556 5.556 0 0 1 2.91 8.467 5.556 5.556 0 0 1 8.467 2.91a5.556 5.556 0 0 1 5.556 5.556" opacity=".35"/><path fill="#f9f9f9" d="M7.535 5.982V5.36H5.67v.62h.621v2.175h-.62v.621h1.863v-.621h-.621V5.982m2.047 2.79c-.375-.043-.64-.288-.875-.504l.377-.426c.124.129.31.283.504.309.194.025.443.004.592-.123.15-.127.15-.3.15-.505V5.361h.621l-.002 2.2c.002.437-.164.732-.317.897-.246.251-.564.277-.86.318m-4.1 2.176h3.106v.621H5.05z"/></svg>