<svg xmlns="http://www.w3.org/2000/svg" width="64" height="64" viewBox="0 0 16.933 16.933"><g transform="translate(0 -280.07)"><path fill="none" stroke="#24262b" stroke-linecap="round" stroke-opacity=".275" stroke-width=".265" d="m16.271 295.25-15.598.027-.012-12.408 15.598-.027z"/><path fill="none" d="M0 280.07h16.933v16.933H0z"/><path fill="#fff" d="m16.271 295.25-15.598.027-.012-12.408 15.598-.027z"/><path fill="#949dac" d="M15.61 294.62H1.323v-11.113H15.61z"/><path d="M2.485 287.03a11 11 0 0 0-1.162.073v7.513h11.906a11.42 11.42 0 0 0-10.744-7.586" opacity=".15" style="paint-order:stroke markers fill"/><path d="M15.61 289.13a11.82 11.82 0 0 0-8.202 5.49h8.202z" opacity=".05" style="paint-order:stroke markers fill"/><circle cx="12.7" cy="286.15" r="1.323" fill="#fff" opacity=".5" style="paint-order:stroke markers fill"/></g></svg>