<?xml version="1.0" encoding="UTF-8" standalone="no"?>
<!-- Created with Inkscape (http://www.inkscape.org/) -->

<svg
   xmlns:dc="http://purl.org/dc/elements/1.1/"
   xmlns:cc="http://creativecommons.org/ns#"
   xmlns:rdf="http://www.w3.org/1999/02/22-rdf-syntax-ns#"
   xmlns:svg="http://www.w3.org/2000/svg"
   xmlns="http://www.w3.org/2000/svg"
   xmlns:sodipodi="http://sodipodi.sourceforge.net/DTD/sodipodi-0.dtd"
   xmlns:inkscape="http://www.inkscape.org/namespaces/inkscape"
   width="64"
   height="64"
   viewBox="0 0 64 64.000003"
   id="svg2"
   version="1.1"
   inkscape:version="0.92.4 (5da689c313, 2019-01-14)"
   sodipodi:docname="inkscape.svg"
   inkscape:export-filename="/home/uri/inkscape-icon.png"
   inkscape:export-xdpi="360"
   inkscape:export-ydpi="360">
  <defs
     id="defs4" />
  <sodipodi:namedview
     id="base"
     pagecolor="#ffffff"
     bordercolor="#666666"
     borderopacity="1.0"
     inkscape:pageopacity="0.0"
     inkscape:pageshadow="2"
     inkscape:zoom="3.2265625"
     inkscape:cx="57.800129"
     inkscape:cy="65.840474"
     inkscape:document-units="px"
     inkscape:current-layer="layer1"
     showgrid="true"
     units="px"
     inkscape:showpageshadow="false"
     borderlayer="true"
     inkscape:window-width="1366"
     inkscape:window-height="706"
     inkscape:window-x="0"
     inkscape:window-y="32"
     inkscape:window-maximized="1"
     showguides="true">
    <inkscape:grid
       type="xygrid"
       id="grid4136" />
  </sodipodi:namedview>
  <metadata
     id="metadata7">
    <rdf:RDF>
      <cc:Work
         rdf:about="">
        <dc:format>image/svg+xml</dc:format>
        <dc:type
           rdf:resource="http://purl.org/dc/dcmitype/StillImage" />
        <dc:title />
      </cc:Work>
    </rdf:RDF>
  </metadata>
  <g
     inkscape:label="Capa 1"
     inkscape:groupmode="layer"
     id="layer1"
     transform="translate(0,-1058.5196)">
    <path
       style="color:#000000;font-style:normal;font-variant:normal;font-weight:normal;font-stretch:normal;font-size:medium;line-height:normal;font-family:sans-serif;text-indent:0;text-align:start;text-decoration:none;text-decoration-line:none;text-decoration-style:solid;text-decoration-color:#000000;letter-spacing:normal;word-spacing:normal;text-transform:none;direction:ltr;block-progression:tb;writing-mode:lr-tb;baseline-shift:baseline;text-anchor:start;white-space:normal;clip-rule:nonzero;display:inline;overflow:visible;visibility:visible;opacity:1;isolation:auto;mix-blend-mode:normal;color-interpolation:sRGB;color-interpolation-filters:linearRGB;solid-color:#000000;solid-opacity:1;fill:#3d485b;fill-opacity:1;fill-rule:evenodd;stroke:none;stroke-width:2;stroke-linecap:round;stroke-linejoin:round;stroke-miterlimit:4;stroke-dasharray:none;stroke-dashoffset:0;stroke-opacity:1;color-rendering:auto;image-rendering:auto;shape-rendering:auto;text-rendering:auto;enable-background:accumulate"
       d="m 32.021484,1063.5196 a 1.0001,1.0001 0 0 0 -0.199218,0.016 1.0001,1.0001 0 0 0 -0.09375,0.022 1.0001,1.0001 0 0 0 -0.0039,0 1.0001,1.0001 0 0 0 -0.02734,0.01 1.0001,1.0001 0 0 0 -0.0625,0.021 1.0001,1.0001 0 0 0 -0.08594,0.039 1.0001,1.0001 0 0 0 -0.0059,0 1.0001,1.0001 0 0 0 -0.01563,0.01 1.0001,1.0001 0 0 0 -0.07422,0.043 1.0001,1.0001 0 0 0 -0.154297,0.125 1.0001,1.0001 0 0 0 -0.0293,0.029 1.0001,1.0001 0 0 0 -0.002,0 l -0.02539,0.027 -13.972657,14.9707 a 1.0001,1.0001 0 0 0 -0.179687,0.2714 l -11.8222659,12.7305 a 1.0001,1.0001 0 0 0 0.3515625,1.6035 l 15.2636714,6.2852 -4.4375,2.959 a 1.0001,1.0001 0 0 0 -0.103515,1.584 l 8,7 A 1.0001,1.0001 0 0 0 25,1111.5196 l 4,0 0,4 a 1.0001,1.0001 0 0 0 0.552734,0.8945 l 2,1 a 1.0001,1.0001 0 0 0 1.097657,-0.1347 l 6.935547,-5.9453 9.927734,-5.9571 a 1.0001,1.0001 0 0 0 0.380859,-0.4101 l 2,-4 a 1.0001,1.0001 0 0 0 -0.783203,-1.4414 l -5.287109,-0.5879 12.576172,-5.502 a 1.0001,1.0001 0 0 0 0.332031,-1.5957 l -25.97461,-27.9726 -0.02344,-0.025 a 1.0001,1.0001 0 0 0 -0.07422,-0.072 1.0001,1.0001 0 0 0 -0.07422,-0.061 1.0001,1.0001 0 0 0 -0.0039,-0 1.0001,1.0001 0 0 0 -0.08008,-0.053 1.0001,1.0001 0 0 0 -0.0039,-0 1.0001,1.0001 0 0 0 -0.08594,-0.043 1.0001,1.0001 0 0 0 -0.002,-0 1.0001,1.0001 0 0 0 -0.08984,-0.035 1.0001,1.0001 0 0 0 -0.0039,-0 1.0001,1.0001 0 0 0 -0.09375,-0.025 1.0001,1.0001 0 0 0 -0.002,0 1.0001,1.0001 0 0 0 -0.0957,-0.018 1.0001,1.0001 0 0 0 -0.002,0 1.0001,1.0001 0 0 0 -0.101563,-0.01 z"
       id="path4254" />
    <path
       id="path4500"
       d="m 32.020986,1064.0198 a 1.0007622,1.0001022 0 0 0 -0.19935,0.016 1.0007622,1.0001022 0 0 0 -0.09381,0.022 1.0007622,1.0001022 0 0 0 -0.0039,0 1.0007622,1.0001022 0 0 0 -0.02736,0.01 1.0007622,1.0001022 0 0 0 -0.06254,0.021 1.0007622,1.0001022 0 0 0 -0.086,0.039 1.0007622,1.0001022 0 0 0 -0.0059,0 1.0007622,1.0001022 0 0 0 -0.01564,0.01 1.0007622,1.0001022 0 0 0 -0.07427,0.043 1.0007622,1.0001022 0 0 0 -0.154399,0.125 1.0007622,1.0001022 0 0 0 -0.02932,0.029 1.0007622,1.0001022 0 0 0 -0.002,0 l -0.02541,0.027 -13.981908,14.9707 a 1.0007622,1.0001022 0 0 0 -0.179806,0.2714 l -11.8300949,12.7307 a 1.0007622,1.0001022 0 0 0 0.3517953,1.6034 l 15.2737786,6.2853 -4.440438,2.9589 a 1.0007622,1.0001022 0 0 0 -0.103584,1.5839 l 8.005299,7.0002 a 1.0007622,1.0001022 0 0 0 0.658726,0.2537 l 4.00265,0 0,4 a 1.0007622,1.0001022 0 0 0 0.553101,0.8945 l 2.001322,1 a 1.0007622,1.0001022 0 0 0 1.098384,-0.1347 l 6.940139,-5.9453 9.934308,-5.9572 a 1.0007622,1.0001022 0 0 0 0.381111,-0.4102 l 2.001325,-3.9998 a 1.0007622,1.0001022 0 0 0 -0.783721,-1.4414 l -5.290611,-0.5879 12.584497,-5.5021 a 1.0007622,1.0001022 0 0 0 0.332252,-1.5956 l -25.991808,-27.9728 -0.02345,-0.025 a 1.0007622,1.0001022 0 0 0 -0.07427,-0.072 1.0007622,1.0001022 0 0 0 -0.07427,-0.061 1.0007622,1.0001022 0 0 0 -0.0039,0 1.0007622,1.0001022 0 0 0 -0.08013,-0.053 1.0007622,1.0001022 0 0 0 -0.0039,0 1.0007622,1.0001022 0 0 0 -0.086,-0.043 1.0007622,1.0001022 0 0 0 -0.002,0 1.0007622,1.0001022 0 0 0 -0.0899,-0.035 1.0007622,1.0001022 0 0 0 -0.0039,0 1.0007622,1.0001022 0 0 0 -0.09381,-0.025 1.0007622,1.0001022 0 0 0 -0.002,0 1.0007622,1.0001022 0 0 0 -0.09576,-0.018 1.0007622,1.0001022 0 0 0 -0.002,0 1.0007622,1.0001022 0 0 0 -0.10163,-0.01 z"
       style="color:#000000;font-style:normal;font-variant:normal;font-weight:normal;font-stretch:normal;font-size:medium;line-height:normal;font-family:sans-serif;text-indent:0;text-align:start;text-decoration:none;text-decoration-line:none;text-decoration-style:solid;text-decoration-color:#000000;letter-spacing:normal;word-spacing:normal;text-transform:none;direction:ltr;block-progression:tb;writing-mode:lr-tb;baseline-shift:baseline;text-anchor:start;white-space:normal;clip-rule:nonzero;display:inline;overflow:visible;visibility:visible;opacity:1;isolation:auto;mix-blend-mode:normal;color-interpolation:sRGB;color-interpolation-filters:linearRGB;solid-color:#000000;solid-opacity:1;fill:none;fill-opacity:1;fill-rule:evenodd;stroke:#29363b;stroke-width:1;stroke-linecap:round;stroke-linejoin:round;stroke-miterlimit:4;stroke-dasharray:none;stroke-dashoffset:0;stroke-opacity:1;color-rendering:auto;image-rendering:auto;shape-rendering:auto;text-rendering:auto;enable-background:accumulate"
       inkscape:connector-curvature="0" />
    <path
       style="color:#000000;font-style:normal;font-variant:normal;font-weight:normal;font-stretch:normal;font-size:medium;line-height:normal;font-family:sans-serif;text-indent:0;text-align:start;text-decoration:none;text-decoration-line:none;text-decoration-style:solid;text-decoration-color:#000000;letter-spacing:normal;word-spacing:normal;text-transform:none;direction:ltr;block-progression:tb;writing-mode:lr-tb;baseline-shift:baseline;text-anchor:start;white-space:normal;clip-rule:nonzero;display:inline;overflow:visible;visibility:visible;opacity:1;isolation:auto;mix-blend-mode:normal;color-interpolation:sRGB;color-interpolation-filters:linearRGB;solid-color:#000000;solid-opacity:1;fill:#eceff1;fill-opacity:1;fill-rule:evenodd;stroke:none;stroke-width:2;stroke-linecap:round;stroke-linejoin:round;stroke-miterlimit:4;stroke-dasharray:none;stroke-dashoffset:0;stroke-opacity:1;color-rendering:auto;image-rendering:auto;shape-rendering:auto;text-rendering:auto;enable-background:accumulate"
       d="M 31.998047,1065.9903 43,1077.9102 l 0,1.6094 -2,0 a 1.0001,1.0001 0 0 0 -0.707031,0.293 l -1.419922,1.4199 -2.318359,-1.5449 a 1.0001,1.0001 0 0 0 -1.261719,0.125 l -2.554688,2.5547 -0.746093,-5.9707 a 1.0001,1.0001 0 0 0 -1.886719,-0.3243 l -2.771485,5.545 -5.253906,0.875 -2.289062,-0.7637 -0.634766,-1.9063 12.841797,-13.832 z"
       id="path4252" />
  </g>
</svg>
