<?xml version="1.0" encoding="UTF-8" standalone="no"?>
<svg
   xmlns:dc="http://purl.org/dc/elements/1.1/"
   xmlns:cc="http://creativecommons.org/ns#"
   xmlns:rdf="http://www.w3.org/1999/02/22-rdf-syntax-ns#"
   xmlns:svg="http://www.w3.org/2000/svg"
   xmlns="http://www.w3.org/2000/svg"
   xmlns:sodipodi="http://sodipodi.sourceforge.net/DTD/sodipodi-0.dtd"
   xmlns:inkscape="http://www.inkscape.org/namespaces/inkscape"
   width="64"
   height="64"
   version="1"
   id="svg16"
   sodipodi:docname="input-mouse.svg"
   inkscape:version="0.92.4 (5da689c313, 2019-01-14)">
  <metadata
     id="metadata22">
    <rdf:RDF>
      <cc:Work
         rdf:about="">
        <dc:format>image/svg+xml</dc:format>
        <dc:type
           rdf:resource="http://purl.org/dc/dcmitype/StillImage" />
      </cc:Work>
    </rdf:RDF>
  </metadata>
  <defs
     id="defs20" />
  <sodipodi:namedview
     pagecolor="#ffffff"
     bordercolor="#666666"
     borderopacity="1"
     objecttolerance="10"
     gridtolerance="10"
     guidetolerance="10"
     inkscape:pageopacity="0"
     inkscape:pageshadow="2"
     inkscape:window-width="1366"
     inkscape:window-height="706"
     id="namedview18"
     showgrid="true"
     inkscape:zoom="3.6875"
     inkscape:cx="45.520239"
     inkscape:cy="-1.7399011"
     inkscape:window-x="0"
     inkscape:window-y="32"
     inkscape:window-maximized="1"
     inkscape:current-layer="svg16">
    <inkscape:grid
       type="xygrid"
       id="grid829" />
  </sodipodi:namedview>
  <g
     id="g845"
     transform="translate(71.464551,41.5)">
    <path
       sodipodi:nodetypes="sssssssssss"
       inkscape:connector-curvature="0"
       id="path4161-8"
       d="m -39.46456,-35 c -4.30119,0 -7.37751,0.948316 -9.59961,2.474609 -2.2221,1.526293 -3.612,3.642198 -4.49219,6.070313 -1.76038,4.856229 -1.4082,10.9273 -1.4082,15.455078 0,8.446079 0.37633,15.245257 2.998,19.878906 C -49.34489,13.512555 -44.5479,16 -39.46456,16 c 5.08333,0 9.88033,-2.487445 12.502,-7.121094 2.62167,-4.633649 2.998,-11.432828 2.998,-19.878906 0,-4.527778 0.35218,-10.598849 -1.4082,-15.455078 -0.8802,-2.428115 -2.27009,-4.54402 -4.49219,-6.070313 C -32.08705,-34.051684 -35.16337,-35 -39.46456,-35 Z"
       style="opacity:1;fill:#fafafa;fill-opacity:1;stroke:none;stroke-width:1;stroke-linecap:butt;stroke-linejoin:miter;stroke-miterlimit:4;stroke-dasharray:none;stroke-dashoffset:0;stroke-opacity:0.30196078" />
    <path
       sodipodi:nodetypes="sssss"
       inkscape:connector-curvature="0"
       id="path4161"
       d="m -23.46455,-11 c 0,17 -5.50001,27.5 -16,27.5 -10.50001,0 -16,-10.5 -16,-27.5 0,-9 -1.50001,-24.5 16,-24.5 17.49999,0 16,15.5 16,24.5 z"
       style="opacity:1;fill:none;fill-opacity:1;stroke:#2c3854;stroke-width:1;stroke-linecap:butt;stroke-linejoin:miter;stroke-miterlimit:4;stroke-dasharray:none;stroke-dashoffset:0;stroke-opacity:0.21568627" />
    <rect
       ry="0"
       rx="0"
       y="-35"
       x="-39.964561"
       height="16"
       width="1"
       id="rect4226"
       style="opacity:1;fill:#2c3854;fill-opacity:0.12156863;stroke:none;stroke-width:1;stroke-linecap:butt;stroke-linejoin:miter;stroke-miterlimit:4;stroke-dasharray:none;stroke-dashoffset:0;stroke-opacity:1" />
    <rect
       rx="2"
       ry="2"
       y="-24"
       x="-41.964561"
       height="10"
       width="5"
       id="rect4310-2"
       style="opacity:1;fill:#8e949f;fill-opacity:1;stroke:none;stroke-width:1;stroke-linecap:butt;stroke-linejoin:miter;stroke-miterlimit:4;stroke-dasharray:none;stroke-dashoffset:0;stroke-opacity:0.30196078" />
  </g>
</svg>
