<svg xmlns="http://www.w3.org/2000/svg" width="64" height="64"><rect width="53" height="53" x="5.5" y="5.5" fill="#f9c542" color="#000" overflow="visible" rx="2.891" ry="2.891" style="isolation:auto;mix-blend-mode:normal;solid-color:#000;solid-opacity:1;marker:none"/><path fill="#e4ba39" d="M55.5 39c.277 0 .5-.223.5-.5v-30c0-.277-.223-.5-.5-.5h-47c-.277 0-.5.223-.5.5v30c0 .277.223.5.5.5z" color="#000" overflow="visible" style="isolation:auto;mix-blend-mode:normal;solid-color:#000;solid-opacity:1;marker:none"/><path fill="#b3b3b3" d="M16 39.063V42h3v4.094h26V42h3v-2.938H19z" color="#000" overflow="visible" style="marker:none"/><path fill="none" stroke="#000" d="M19.012 43.5h25.976" opacity=".2"/><path fill="none" stroke="#000" d="M19.308 45.397h25.384" opacity=".17"/><rect width="44" height="28" x="10" y="12" fill="#8f8f8f" fill-rule="evenodd" overflow="visible" rx="2.698" ry="2.723" style="marker:none"/><rect width="44" height="27" x="10" y="12" fill="#f2f2f2" fill-rule="evenodd" overflow="visible" rx="1.576" ry="1.547" style="marker:none"/><path fill="none" stroke="#bebebe" d="M25 25.516 12.498 36.178zm14 .09 12.632 10.348z" overflow="visible" style="marker:none"/><rect width="45" height="29" x="9.5" y="9.5" fill="none" stroke="#000" opacity=".1" overflow="visible" rx="1.5" ry="1.5" style="marker:none"/><path fill="none" stroke="#bebebe" d="M10.484 13.706 32 30.37l21.842-16.775" overflow="visible" style="marker:none"/><path fill="none" stroke="#000" d="M19.012 41.5h25.976" opacity=".2"/><path fill="none" stroke="#b67926" d="M9.935 9.521c-.444 0-.418.041-.418.37v28.06c0 .61-.077.818.713.818h6.457c1.666 0 2.816 1.318 2.816 3.18v3.645H44.48V41.49c0-1.373 1.3-2.72 2.644-2.72h6.898c.488 0 .477-.016.477-.511V9.875c0-.477-.02-.354-.436-.354z" color="#000" opacity=".3" overflow="visible" style="marker:none"/><path fill="#ffe37d" d="M8 6C7 6 6 7 6 8v31.5C6 40.885 7.115 42 8.5 42H19v-.5c0-1.385-1.115-2.5-2.5-2.5H11c-1 0-2-1-2-2V11c0-1 1-2 2-2h42c1 0 2 1 2 2v26c0 1-1 2-2 2h-5.5a2.495 2.495 0 0 0-2.5 2.5v.5h10.544a2.493 2.493 0 0 0 2.5-2.5L58 8c-.001-1-1-2-2-2zm11 37.5v3c0 1.385 1.115 2.5 2.5 2.5h21c1.385 0 2.5-1.115 2.5-2.5v-3c0 1.385-1.115 2.5-2.5 2.5h-21a2.495 2.495 0 0 1-2.5-2.5" color="#000" overflow="visible" style="marker:none"/><rect width="53" height="53" x="5.5" y="5.5" fill="none" stroke="#956500" color="#000" opacity=".5" overflow="visible" rx="2.703" ry="2.771" style="isolation:auto;mix-blend-mode:normal;solid-color:#000;solid-opacity:1;marker:none"/><rect width="45" height="27" x="9.5" y="11.5" fill="none" stroke="#000" opacity=".1" overflow="visible" rx="2.025" ry="1.969" style="marker:none"/></svg>