<svg xmlns="http://www.w3.org/2000/svg" width="64" height="64" viewBox="0 0 16.933 16.933"><g color="#000" transform="translate(0 -280.067)"><rect width="14.023" height="14.023" x="1.455" y="281.522" fill="#fb9246" overflow="visible" rx=".765" ry=".765" style="marker:none"/><rect width="14.023" height="14.023" x="1.455" y="281.522" fill="none" stroke="#a62100" stroke-linecap="round" stroke-linejoin="round" stroke-width=".265" opacity=".5" overflow="visible" rx=".765" ry=".765" style="marker:none"/><path fill="#fef7e2" d="M2.696 293.483q0-.366.253-.614a.84.84 0 0 1 .617-.253q.356 0 .604.253.252.248.253.614a.83.83 0 0 1-.253.609.82.82 0 0 1-.604.248.85.85 0 0 1-.617-.248.82.82 0 0 1-.253-.61m-.05-3.912v1.441a3.34 3.34 0 0 1 3.337 3.343H7.43a4.786 4.786 0 0 0-4.784-4.784m.002-3.153v1.593a6.34 6.34 0 0 1 6.336 6.342h1.6a7.94 7.94 0 0 0-7.936-7.935" font-family="Bitstream Vera Serif" font-size="13.59" font-weight="700" overflow="visible" style="line-height:125%;text-align:start;marker:none"/></g></svg>