<?xml version="1.0" encoding="UTF-8" standalone="no"?>
<svg
   height="128px"
   viewBox="0 0 128 128"
   width="128px"
   version="1.1"
   id="svg100"
   sodipodi:docname="io.bassi.Amberol.svg"
   inkscape:version="1.2 (dc2aedaf03, 2022-05-15)"
   xmlns:inkscape="http://www.inkscape.org/namespaces/inkscape"
   xmlns:sodipodi="http://sodipodi.sourceforge.net/DTD/sodipodi-0.dtd"
   xmlns="http://www.w3.org/2000/svg"
   xmlns:svg="http://www.w3.org/2000/svg">
  <defs
     id="defs104" />
  <sodipodi:namedview
     id="namedview102"
     pagecolor="#ffffff"
     bordercolor="#666666"
     borderopacity="1.0"
     inkscape:showpageshadow="2"
     inkscape:pageopacity="0.0"
     inkscape:pagecheckerboard="0"
     inkscape:deskcolor="#d1d1d1"
     showgrid="false"
     inkscape:zoom="6.15625"
     inkscape:cx="83.167513"
     inkscape:cy="64"
     inkscape:window-width="1920"
     inkscape:window-height="1011"
     inkscape:window-x="0"
     inkscape:window-y="0"
     inkscape:window-maximized="1"
     inkscape:current-layer="svg100" />
  <linearGradient
     id="a"
     gradientTransform="matrix(1.008894 0 0 1.00892 -0.568699 -2.626877)"
     gradientUnits="userSpaceOnUse"
     x1="8"
     x2="120"
     y1="236"
     y2="236">
    <stop
       offset="0"
       stop-color="#498fe5"
       id="stop70" />
    <stop
       offset="0.186734"
       stop-color="#1a5fb4"
       stop-opacity="0.984314"
       id="stop72" />
    <stop
       offset="0.392857"
       stop-color="#2579e0"
       stop-opacity="0.968627"
       id="stop74" />
    <stop
       offset="0.617036"
       stop-color="#5596e6"
       stop-opacity="0.956863"
       id="stop76" />
    <stop
       offset="0.855136"
       stop-color="#134583"
       id="stop78" />
    <stop
       offset="1"
       stop-color="#2677df"
       id="stop80" />
  </linearGradient>
  <linearGradient
     id="b"
     gradientTransform="matrix(0.659952,0.65995022,-0.659952,0.65995022,176.93265,-133.24412)"
     gradientUnits="userSpaceOnUse"
     x1="139.477295"
     x2="25.039328"
     y1="259.588104"
     y2="189.370285">
    <stop
       offset="0"
       stop-color="#59cde7"
       id="stop83"
       style="stop-color:#1c71d8;stop-opacity:1;" />
    <stop
       offset="1"
       stop-color="#1c71d8"
       id="stop85" />
  </linearGradient>
  <path
     d="m 103.6744,103.67413 c -21.867194,21.87494 -57.320318,21.87494 -79.191412,0 -21.8710948,-21.867124 -21.8710948,-57.320151 0,-79.191187 21.871094,-21.8710346 57.324218,-21.8710346 79.191412,0 21.875,21.871035 21.875,57.324063 0,79.191187 z m 0,0"
     fill="url(#b)"
     id="path338"
     style="display:inline;fill:url(#b);stroke:#000000;stroke-width:0.2;stroke-dasharray:none;stroke-opacity:1" />
  <path
     d="m 64.080644,23.822789 c -10.238281,0 -20.476562,3.90624 -28.285156,11.714811 -15.621094,15.621052 -15.621094,40.953014 0,56.574066 15.621094,15.617144 40.949218,15.617144 56.570312,0 15.6211,-15.621052 15.6211,-40.953014 0,-56.574066 C 84.557206,27.729029 74.318925,23.822789 64.080644,23.822789 Z M 53.9283,44.072734 c 1.027344,-0.02734 2.085938,0.214842 3.085938,0.773435 l 25,13.999962 c 4.085937,2.292963 4.085937,8.175759 0,10.468722 l -25,13.999962 c -4,2.238275 -8.933594,-0.652342 -8.933594,-5.234361 V 50.08053 c 0,-3.437491 2.777344,-5.921859 5.847656,-6.007796 z m 0,0"
     id="path341"
     style="display:inline;fill:#ffffff;stroke-width:0.999999" />
</svg>
