<svg width="64" height="64" version="1.1" viewBox="0 0 64 64" xmlns="http://www.w3.org/2000/svg">
 <path d="m51.09 51.09c-10.543 10.547-27.636 10.547-38.181 0-10.545-10.543-10.545-27.636 0-38.181 10.545-10.545 27.638-10.545 38.181 0 10.547 10.545 10.547 27.638 0 38.181zm0 0" fill="#1c71d8" stroke="#165099" stroke-linecap="round" stroke-linejoin="round" stroke-width="2"/>
 <path d="m51.09 51.09c-10.543 10.547-27.636 10.547-38.181 0-10.545-10.543-10.545-27.636 0-38.181 10.545-10.545 27.638-10.545 38.181 0 10.547 10.545 10.547 27.638 0 38.181z" fill="#1c71d8"/>
 <path d="m32 13c-4.8631 0-9.7261 1.8554-13.435 5.5644-7.4198 7.4198-7.4198 19.452 0 26.872 7.4198 7.418 19.45 7.418 26.87 0 7.4198-7.4198 7.4198-19.452 0-26.872-3.709-3.709-8.5721-5.5644-13.435-5.5644zm-4.8222 9.6185c0.48798-0.01299 0.9908 0.10205 1.4658 0.36737l11.875 6.6498c1.9408 1.0891 1.9408 3.8834 0 4.9725l-11.875 6.6498c-1.9 1.0632-4.2434-0.30985-4.2434-2.4863v-13.3c0-1.6328 1.3192-2.8128 2.7776-2.8536z" fill="#ffffff" stroke-width=".47499"/>
</svg>
