<svg xmlns="http://www.w3.org/2000/svg" width="64" height="64"><path fill="#1c71d8" stroke="#165099" stroke-linecap="round" stroke-linejoin="round" stroke-width="2" d="M51.09 51.09c-10.543 10.547-27.636 10.547-38.181 0-10.545-10.543-10.545-27.636 0-38.181s27.638-10.545 38.181 0c10.547 10.545 10.547 27.638 0 38.181m0 0"/><path fill="#1c71d8" d="M51.09 51.09c-10.543 10.547-27.636 10.547-38.181 0-10.545-10.543-10.545-27.636 0-38.181s27.638-10.545 38.181 0c10.547 10.545 10.547 27.638 0 38.181"/><path fill="#fff" d="M32 13a18.94 18.94 0 0 0-13.435 5.564c-7.42 7.42-7.42 19.452 0 26.872 7.42 7.418 19.45 7.418 26.87 0 7.42-7.42 7.42-19.452 0-26.872A18.94 18.94 0 0 0 32 13m-4.822 9.618c.488-.012.99.103 1.466.368l11.875 6.65c1.94 1.089 1.94 3.883 0 4.972l-11.875 6.65c-1.9 1.063-4.244-.31-4.244-2.486v-13.3c0-1.633 1.32-2.813 2.778-2.854"/></svg>