<svg xmlns="http://www.w3.org/2000/svg" width="64" height="64" version="1.0"><rect width="56" height="44" x="4" y="10" fill="#f13758" stroke="#b5213e" stroke-linecap="round" stroke-linejoin="round" stroke-width="2" rx="7" ry="7" style="paint-order:stroke markers fill"/><rect width="56" height="44" x="4" y="10" fill="#f13758" rx="7" ry="7"/><rect width="48" height="36" x="8" y="14" fill="#f9f9f9" opacity=".25" rx="3" ry="3"/><path fill="#fff" d="M11 17v5.5a.5.5 0 0 0 .5.5.5.5 0 0 0 .5-.5V18h4.5a.5.5 0 0 0 .5-.5.5.5 0 0 0-.5-.5zm36.5 0a.5.5 0 0 0-.5.5.5.5 0 0 0 .5.5H52v4.5a.5.5 0 0 0 .5.5.5.5 0 0 0 .5-.5V17zm5 24a.5.5 0 0 0-.5.5V46h-4.5a.5.5 0 0 0-.5.5.5.5 0 0 0 .5.5H53v-5.5a.5.5 0 0 0-.5-.5m-41 0a.5.5 0 0 0-.5.5V47h5.5a.5.5 0 0 0 .5-.5.5.5 0 0 0-.5-.5H12v-4.5a.5.5 0 0 0-.5-.5" color="#000" style="-inkscape-stroke:none"/><path fill="#fff" d="M30 27c-1.108 0-2 .892-2 2v6c0 1.108.892 2 2 2h8c1.108 0 2-.892 2-2v-6c0-1.108-.892-2-2-2zm-2 5-3-4h-1v8h1zm5.94-4H34a4 4 0 0 1 4 4 4 4 0 0 1-4 4 4 4 0 0 1-4-4 4 4 0 0 1 3.94-4m.011 2A2 2 0 0 0 32 32a2 2 0 0 0 2 2 2 2 0 0 0 2-2 2 2 0 0 0-2-2z"/></svg>