<svg xmlns="http://www.w3.org/2000/svg" width="64" height="64"><path fill="#fbf5da" d="M10 11v44.198C10 57.849 12.043 60 14.563 60H38l16-15.955V11Z" style="stroke:#e8da99;stroke-opacity:1;stroke-width:2;stroke-dasharray:none"/><path fill="#fbf5da" d="M10 11v44.198C10 57.849 12.043 60 14.563 60H38l16-15.955V11Z"/><path fill="#4cd2bb" d="M14.562 4c-2.527 0-4.563 2.148-4.563 4.815V11h44V8.815C54 6.148 51.965 4 49.438 4Z" style="stroke:#41b5a1;stroke-opacity:1;stroke-width:2;stroke-dasharray:none"/><path fill="#4cd2bb" d="M14.562 4c-2.527 0-4.563 2.148-4.563 4.815V11h44V8.815C54 6.148 51.965 4 49.438 4Z"/><path fill="#dcedc8" d="M54 44H42.424C39.981 44 38 46.054 38 48.586V60Z"/><path fill-opacity=".996" d="M18 20v4h1v-1h2v-3zm4 0v4h1v-1h1v1h1v-4zm4 0v4h1v-1h2v-3zm4 0v4h3v-1h-2v-.5h1.5v-1H31V21h2v-1zm4 0v4h1v-1h1v-1h-1v-1h1v1h1v-2zm2 3v1h1v-1Zm-17-2h1v1h-1zm4 0h1v1h-1zm4 0h1v1h-1z"/><circle cx="19" cy="43" r="1" fill="#a5d6a7"/><circle cx="19" cy="48" r="1" fill="#a5d6a7"/><rect width="13.182" height="2" x="23" y="42" fill="#00796b" rx="1"/><rect width="7.909" height="2" x="23" y="47" fill="#00796b" rx="1"/><rect width="10" height="2" x="18" y="37" fill="#00796b" rx="1"/><rect width="29" height="2" x="18" y="27" fill="#00796b" rx="1"/><rect width="29" height="2" x="18" y="32" fill="#00796b" rx="1"/></svg>