<svg width="64" height="64" version="1.1" viewBox="0 0 64 64" xmlns="http://www.w3.org/2000/svg">
 <g transform="matrix(1.1739 0 0 1.1739 3.8261 3.8261)">
  <circle cx="24" cy="24" r="23" fill="#60e2dd" stroke="#30a6a2" stroke-width="1.7037"/>
  <circle cx="24" cy="24" r="23" fill="#60e2dd"/>
  <path d="m24 10-12 7v14l12 7 12-7v-14z" fill="#449292" stroke-linecap="round" stroke-opacity=".73902" stroke-width=".21645"/>
  <path d="m23.01 11.736-9.0098 5.2539c8e-6 3e-3 8e-6 0.0068 0 0.0098 8e-6 3e-3 8e-6 0.0068 0 0.0098l9.0098 5.2539c0.30157-0.17237 0.64286-0.26367 0.99023-0.26367s0.68865 0.08898 0.99023 0.26367l9.0098-5.2539c-8e-6 -3e-3 -8e-6 -0.0068 0-0.0098-8e-6 -3e-3 -8e-6 -0.0068 0-0.0098l-9.0098-5.2539c-0.30157 0.17237-0.64286 0.26367-0.99023 0.26367s-0.68865-0.09128-0.99023-0.26367zm-10.01 7.0039v10.529c0.61831 0.357 0.99944 1.0165 1 1.7305l9 5.2578v-10.527c-0.61831-0.357-0.99944-1.0165-1-1.7305zm22 0-9 5.2598c-5.6e-4 0.714-0.38169 1.3735-1 1.7305v10.527l9-5.2578c5.6e-4 -0.714 0.38169-1.3735 1-1.7305z" fill="#07eeee" stroke-linecap="round" stroke-opacity=".73902" stroke-width=".21645"/>
 </g>
</svg>
