<svg xmlns="http://www.w3.org/2000/svg" width="64" height="64"><defs><linearGradient id="a" x1="399.57" x2="399.57" y1="545.8" y2="517.8" gradientTransform="translate(-740.52 -993.56) scale(1.9285)" gradientUnits="userSpaceOnUse"><stop offset="0" stop-color="#3889e9"/><stop offset="1" stop-color="#5ea5fb"/></linearGradient></defs><circle cx="32" cy="32" r="27" fill="#56606e" stroke="#3c434c" stroke-width="2"/><g stroke-width="1.414"><circle cx="32" cy="32" r="27" fill="#56606e"/><circle cx="32" cy="32" r="27" fill="none"/></g><path fill="#05a5f9" d="M19.59 41.651V22.268h3.877v-2.907h-6.784v25.198h6.784V41.65zM40.911 41.651V22.268h-3.877v-2.907h6.784v25.198h-6.784V41.65z" style="isolation:isolate"/><path fill="#fff" d="m26.127 23.274-2.607 1.278 6.65 13.586c-.222.42-.448.837-.69 1.244a9.238 9.238 0 0 1-1.405 1.88 2.11 2.11 0 0 1-.475.358.16.16 0 0 1-.088.03H26.37v2.907h1.2a3.062 3.062 0 0 0 1.456-.397 4.883 4.883 0 0 0 1.123-.863 12.394 12.394 0 0 0 1.85-2.46 33.3 33.3 0 0 0 1.658-3.2 69.001 69.001 0 0 0 1.512-3.605c.853-2.2 1.629-4.43 2.336-6.678.33-1.008.64-2.016.93-3.034l-2.8-.803a79.62 79.62 0 0 1-.902 2.955 101.48 101.48 0 0 1-2.278 6.512 57.778 57.778 0 0 1-.71 1.767z" style="isolation:isolate"/><path fill="#05a5f9" d="M47.695 24.691a1.454 1.454 0 1 1-2.908 0 1.454 1.454 0 0 1 2.908 0zM47.695 39.228a1.454 1.454 0 1 1-2.907 0 1.454 1.454 0 0 1 2.907 0z" style="isolation:isolate"/></svg>