<svg xmlns="http://www.w3.org/2000/svg" width="64" height="64"><circle cx="32" cy="32" r="27" fill="#56606e" stroke="#3c434c" stroke-width="2"/><g stroke-width="1.414"><circle cx="32" cy="32" r="27" fill="#56606e"/><circle cx="32" cy="32" r="27" fill="none"/></g><path fill="#05a5f9" d="M19.59 41.651V22.268h3.877v-2.907h-6.784v25.198h6.784V41.65zm21.321 0V22.268h-3.877v-2.907h6.784v25.198h-6.784V41.65z" style="isolation:isolate"/><path fill="#fff" d="m26.127 23.274-2.607 1.278 6.65 13.586c-.222.42-.448.837-.69 1.244a9.2 9.2 0 0 1-1.405 1.88 2.1 2.1 0 0 1-.475.358.16.16 0 0 1-.088.03H26.37v2.907h1.2a3.06 3.06 0 0 0 1.456-.397 4.9 4.9 0 0 0 1.123-.863 12.4 12.4 0 0 0 1.85-2.46 33 33 0 0 0 1.658-3.2 69 69 0 0 0 1.512-3.605c.853-2.2 1.629-4.43 2.336-6.678.33-1.008.64-2.016.93-3.034l-2.8-.803a80 80 0 0 1-.902 2.955 102 102 0 0 1-2.278 6.512 58 58 0 0 1-.71 1.767z" style="isolation:isolate"/><path fill="#05a5f9" d="M47.695 24.691a1.454 1.454 0 1 1-2.908 0 1.454 1.454 0 0 1 2.908 0m0 14.537a1.454 1.454 0 1 1-2.907 0 1.454 1.454 0 0 1 2.907 0" style="isolation:isolate"/></svg>