<svg xmlns="http://www.w3.org/2000/svg" width="64" height="64" viewBox="0 0 16.933 16.933"><defs><linearGradient id="a" x1="69.033" x2="64.443" y1="454.92" y2="449.57" gradientTransform="translate(-8.085 -395.13)" gradientUnits="userSpaceOnUse"><stop offset="0" stop-color="#2B3B6A"/><stop offset="1" stop-color="#2B3B6A"/></linearGradient></defs><g stroke="#000" stroke-opacity=".294"><g stroke-width="2.186"><path fill="url(#a)" d="m58.4 62.2-3.5-6.4 7.1-.2z" class="st0" transform="matrix(.12037 0 0 .12165 1.467 1.394)"/><g fill="#222856"><path d="M85.5 57.5c26.1 4.2 29.8 10.7 29.8 10.7v1.2c0 .2-.1.4-.2.7s-2.7 5.7-19.6 9.3z" class="st1" transform="matrix(.12037 0 0 .12165 1.467 1.394)"/><path d="M19.8 78.5c-5.9 15.7-2.9 20.6-2.7 21 .1.2.2.4.4.5.4 0 .8-.1 1.2-.2 0 0 10.7-.5 23.2-18.3z" class="st2" transform="matrix(.12037 0 0 .12165 1.467 1.394)"/><path d="M58.8 18.6C44.5 2.9 37.5 3.8 37.1 3.9c-.2 0-.5.1-.7.2-.5.2-1 1.8-1 1.8s-3 8.7 9.1 31.9z" class="st3" transform="matrix(.12037 0 0 .12165 1.467 1.394)"/></g><g fill="#24426c"><path d="M71.2 78.8c19.4 22.2 26.2 21 26.2 21 .4.1.9.2 1.3.2.2-.1.3-.3.4-.5.3-.4 5.404-9.534-13.196-41.934z" class="st4" transform="matrix(.12037 0 0 .12165 1.467 1.394)"/><path d="M46.1 82.2c-40-1.7-44.8-11.6-45-12.1 0-.2-.1-.4-.1-.6.1-.7 1.5-2 1.5-2s10.6-6.5 28.3-10z" class="st5" transform="matrix(.12037 0 0 .12165 1.467 1.394)"/><path d="M73.8 35.4C84.2 10.7 80.2 5 80.2 5c-.1-.3-.2-.7-.3-1-.2-.1-.4-.1-.7-.2-.5-.1-11.432-1-34.432 31.199z" class="st7" transform="matrix(.12037 0 0 .12165 1.467 1.394)"/></g></g><g stroke-width=".265"><path fill="#2072ae" d="M8.487 13.23c-1.709 1.873-2.566 1.776-2.614 1.776a1 1 0 0 1-.205-.097l-2.094-1.35c.878-.195 2.011-1.257 3.143-2.608z" class="st8"/><path fill="#26b1ed" d="M3.959 6.017c-.759-1.971-.385-2.591-.361-2.628a.6.6 0 0 1 .168-.146L5.85 1.905c-.181.864.297 2.202 1.007 3.747z" class="st10"/><path fill="#26b1ed" d="M8.352 8.352c-1.047 0-2.094.085-3.13.231.037.061.518.876.867 1.424 3.347 5.206 4.911 5 4.984 4.987a1 1 0 0 0 .204-.097l2.083-1.338c-1.42-.304-3.395-2.652-5.008-5.207z" class="st11"/><path fill="#0e88c8" d="M11.683 8.614c1.625.231 3.049.602 3.663 1.222V7.343c0-.073-.013-.159-.025-.232-.012-.036-.385-.7-2.347-1.126z" class="st13"/><path fill="#0e88c8" d="M10.278 5.664c-.361-.012-1.143-.049-1.818-.049-6.139 0-6.825 1.436-6.849 1.496-.024.073-.024.159-.024.232v2.506c.602-.609 1.914-.937 3.515-1.18a24 24 0 0 1 3.118-.244h.577c-.012 0 1.854-2.749 1.481-2.761z" class="st15"/><path fill="#2072ae" d="M8.473 8.547c1.673-2.543 2.913-5.207 2.6-6.654l2.082 1.338c.06.036.12.085.169.146.036.06.854 1.423-2.492 6.63-.24.389-.527.937-.612.973-.493-.486-1.459-1.995-1.711-2.348a1 1 0 0 1-.036-.085z" class="st18"/></g></g></svg>