<svg xmlns="http://www.w3.org/2000/svg" width="64" height="64" viewBox="0 0 16.933 16.933"><g paint-order="markers stroke fill" transform="translate(0 -280.07)"><rect width="13.758" height="13.758" x="1.587" y="281.65" fill="#e6e6e6" stroke="#000" stroke-linecap="round" stroke-linejoin="round" stroke-width=".529" opacity=".15" rx=".825" ry=".825"/><rect width="13.758" height="13.758" x="1.587" y="281.65" fill="#f9f9f9" rx=".825" ry=".825"/></g><g fill-rule="evenodd" stroke-width=".875"><path fill="#ff7f28" d="M9 8.052c.554.61-.149 1.161-.149 1.161s1.407-.698.764-1.568c-.607-.813-1.068-1.215 1.437-2.612 0 0-3.93.94-2.054 3.014"/><path fill="#3434c8" d="M11.971 12.19s.326.255-.357.454c-1.298.375-5.4.49-6.538.013-.409-.17.359-.405.6-.456.253-.053.395-.043.395-.043-.453-.31-2.943.605-1.263.864 4.582.713 8.352-.32 7.164-.833M7.17 8.844s-2.087.475-.739.648c.57.073 1.702.057 2.76-.028.865-.069 1.732-.218 1.732-.218s-.306.126-.526.27c-2.117.534-6.21.284-5.034-.262.997-.461 1.808-.408 1.808-.408m3.743 2.005c2.153-1.073 1.157-2.104.463-1.965-.17.035-.246.063-.246.063s.061-.094.182-.135c1.377-.464 2.432 1.367-.443 2.091 0 0 .033-.028.043-.054"/><path fill="#ff7f28" d="M9.614 2.787S10.806 3.93 8.481 5.69c-1.861 1.411-.423 2.216 0 3.134-1.086-.94-1.885-1.768-1.35-2.54.786-1.131 2.964-1.679 2.483-3.496"/><path fill="#3434c8" d="M7.382 13.759c2.067.127 5.242-.072 5.318-1.008 0 0-.145.354-1.71.637-1.764.318-3.94.281-5.232.078 0 0 .265.208 1.624.293m.095-3.009s-1.691.384-.6.524c.463.06 1.38.046 2.237-.022.7-.056 1.403-.177 1.403-.177s-.248.102-.426.218c-1.715.433-5.031.23-4.079-.211.808-.374 1.465-.331 1.465-.331"/></g></svg>