<?xml version="1.0" encoding="UTF-8"?>
<svg width="64" height="64" version="1.1" viewBox="0 0 64 64" xmlns="http://www.w3.org/2000/svg">
 <path d="m32 5c14.912 0 27 12.088 27 27s-12.088 27-27 27-27-12.088-27-27 12.088-27 27-27z" fill="#f2f2f2" stroke="#ccc" stroke-width="2"/>
 <g stroke-width="1.1739">
  <path d="m32 5c14.912 0 27 12.088 27 27s-12.088 27-27 27-27-12.088-27-27 12.088-27 27-27z" fill="#f2f2f2"/>
  <path d="m28.466 28.478c-2.2011 2.9054-4.1814 6.1266-5.7803 9.3912 2.4323 0.77947 5.9775 0.44608 9.6342 0 1.384-0.8593 2.6941-1.9827 3.9807-3.5194-4.3047 0-7.0047-0.72078-7.0047-1.1739h7.7501c1.0765-1.1234 2.1776-2.4124 3.0122-3.5217-3.76 0-6.8896-0.4766-6.8896-1.1739-1.1692-1.1739-1.7679-0.80647-4.7073-0.0023" fill="#dd435f"/>
  <path d="m32.495 23.782c-1.3911 1.4251-2.7458 3.0028-4.0288 4.6956h12.452c0.77712-1.1528 1.4275-2.3924 1.9651-3.5194-3.3562 0-5.6054-0.75834-5.6054-1.1739-0.58225-1.1739-2.9301-1.1739-4.7825-0.0023" fill="#e57a55"/>
  <path d="m44.913 16.739c-3.8504 0-8.2995 2.8197-12.418 7.0434h10.95c1.0154-2.5039 1.4721-4.8963 1.4627-7.0411z" fill="#f5ad45"/>
  <path d="m22.691 37.869c-0.10917 0.22304-0.22891 0.44608-0.33456 0.66912-1.5073 3.1907-2.781 6.6408-3.2646 8.7221l0.58695-0.02465c2.1881-6.3109 4.7073-6.8215 5.9047-7.0199 2.5403-0.4226 4.7191-1.0917 6.7429-2.3455h-9.6342z" fill="#c056ba"/>
 </g>
</svg>
