<svg xmlns="http://www.w3.org/2000/svg" width="64" height="64"><path fill="#f2f2f2" stroke="#ccc" stroke-width="2" d="M32 5c14.912 0 27 12.088 27 27S46.912 59 32 59 5 46.912 5 32 17.088 5 32 5z"/><g stroke-width="1.174"><path fill="#f2f2f2" d="M32 5c14.912 0 27 12.088 27 27S46.912 59 32 59 5 46.912 5 32 17.088 5 32 5"/><path fill="#dd435f" d="M28.466 28.478a58 58 0 0 0-5.78 9.391c2.432.78 5.977.446 9.634 0 1.384-.86 2.694-1.983 3.98-3.52-4.304 0-7.004-.72-7.004-1.173h7.75a41 41 0 0 0 3.012-3.522c-3.76 0-6.89-.476-6.89-1.174-1.169-1.174-1.767-.806-4.707-.002"/><path fill="#e57a55" d="M32.495 23.782a50 50 0 0 0-4.029 4.696h12.452c.777-1.153 1.428-2.393 1.965-3.52-3.356 0-5.605-.758-5.605-1.174-.582-1.174-2.93-1.174-4.783-.002"/><path fill="#f5ad45" d="M44.913 16.739c-3.85 0-8.3 2.82-12.418 7.043h10.95c1.015-2.503 1.472-4.896 1.463-7.04z"/><path fill="#c056ba" d="M22.691 37.869c-.11.223-.229.446-.335.67-1.507 3.19-2.78 6.64-3.264 8.721l.587-.024c2.188-6.311 4.707-6.822 5.904-7.02 2.54-.423 4.72-1.092 6.743-2.346h-9.634z"/></g></svg>