<svg xmlns="http://www.w3.org/2000/svg" width="64" height="64"><linearGradient id="a" x1="77.167" x2="64.372" y1="115.71" y2="112" gradientUnits="userSpaceOnUse"><stop offset="0" stop-color="#0cf"/><stop offset="1" stop-color="#2a7fff"/></linearGradient><linearGradient id="b" x1="68.707" x2="75.819" y1="113.06" y2="117.91" gradientUnits="userSpaceOnUse"><stop offset="0" stop-color="#2a7fff"/><stop offset="1" stop-color="#0cf"/></linearGradient><g transform="translate(-20.095 -71.663)scale(.48377)"><circle cx="107.69" cy="214.28" r="55.812" fill="#0cb6ff" stroke="#009adc" stroke-width="4.134"/><circle cx="107.69" cy="214.28" r="55.812" fill="#0cb6ff"/><g stroke-width=".265"><path fill="#fff" d="M93.605 197.228c-3.614-11.999-24.038-9.087-27.453-9.347 3.832-1.902 7.295-3.47 15.194-9.193 15.218-11.023 31.33-8.62 39.398-4.242-22.057.839-17.855 12.856-14.606 19.187-4.132 1.2-10.654 3.012-12.533 3.595"/><path fill="url(#a)" d="M77.401 106.37c-1.747 2.257-4.65 5.306-7.829 5.707-3.178.402-6.208-.043-6.91 2.272-.646 2.133 1.627 4.123 3.985 3.644 2.519-.513 1.975-3.306.597-5.207 1.047-.059.852-.044 2.627-.131 2.645 2.205 3.521 2.834 8.143 6.052-3.562-.365-4.858-.7-7.412-2.194.662 1.624 2.076 5.311 2.382 8.172-1.473-2.07-2.031-2.831-4.314-4.325-2.925-1.914-5.293-1.978-6.664-4.797-1.368-2.814.443-4.84 3.682-5.717 4.63-1.255 8.62-2.444 11.712-3.476z" transform="matrix(4.5476 0 0 4.649 -203.94 -313.79)"/><path fill="url(#b)" d="M67.245 112.78c1.046-.059.852-.043 2.626-.131 2.646 2.205 3.522 2.834 8.143 6.052-4.644-.325-8.159-1.665-10.769-5.921" transform="matrix(4.5476 0 0 4.649 -203.94 -313.79)"/><path fill="#fff" d="M148.049 180.724c-7.943 10.492-21.149 24.666-35.602 26.534s-28.232-.201-31.423 10.562c-2.94 9.913 7.398 19.168 18.12 16.937 11.454-2.383 8.98-15.365 2.715-24.206 4.76-.273 3.874-.203 11.944-.61 12.03 10.254 16.016 13.177 37.031 28.137-16.195-1.696-22.089-3.254-33.704-10.201 3.01 7.552 9.44 24.695 10.834 37.995-6.7-9.626-9.24-13.164-19.622-20.109-13.299-8.896-24.07-9.197-30.304-22.303-6.22-13.078 2.013-22.498 16.747-26.578 21.055-5.83 39.197-11.358 53.261-16.158z"/><path d="M101.863 210.524c4.76-.273 3.874-.202 11.944-.609 12.029 10.254 16.016 13.177 37.031 28.136-21.123-1.51-37.105-7.74-48.973-27.527z" opacity=".05"/><path d="M66.151 187.884c3.832-1.903 7.295-3.47 15.194-9.193 15.218-11.024 31.33-8.62 39.398-4.242-22.058.839-19.216 5.234-19.297 8.679-14.655-3.089-18.934 1.114-35.295 4.755z" opacity=".03"/><path fill="#f2f2f2" d="M120.745 174.448c-22.057.838-17.855 12.855-14.606 19.187-2.574.748-5.364 1.6-8.805 2.51-13.883-24.738 12.08-27.956 23.411-21.697"/><path d="M82.013 229.632c-10.794-13.899-8.8-26.637 12.335-33.256 20.857-6.531 39.637-10.843 53.703-15.643-37.96 14.463-85.495 24.128-66.04 48.898z" opacity=".05"/></g></g></svg>