<svg xmlns="http://www.w3.org/2000/svg" width="64" height="64"><g transform="translate(-384.571 -483.798)"><rect width="60" height="50" x="386.571" y="492.798" fill="#2c3c44" ry="3"/><path fill="#455a64" d="M445.571 530.798h-58v9c0 1.108.892 2 2 2h54c1.108 0 2-.892 2-2zm-56-37c-1.108 0-2 .892-2 2v33h58v-33c0-1.108-.892-2-2-2z"/><path fill="#b0bec5" d="M391.571 538.798v2h1v-2zm4 0v2h1v-2zm4 0v2h1v-2zm4 0v2h1v-2zm4 0v2h1v-2zm4 0v2h1v-2zm4 0v2h1v-2zm4 0v2h1v-2zm4 0v2h1v-2zm4 0v2h1v-2zm4 0v2h1v-2zm9 0v2h1v-2zm-51 1v1h1v-1zm4 0v1h1v-1zm4 0v1h1v-1zm4 0v1h1v-1zm4 0v1h1v-1zm4 0v1h1v-1zm4 0v1h1v-1zm4 0v1h1v-1zm4 0v1h1v-1zm4 0v1h1v-1zm4 0v1h1v-1zm9 0v1h1v-1zm4 0v1h1v-1zm-7-5h1v6h-1z"/><path fill="#eee" d="M438.571 522.798v2h1v-1h1v-1zm3 0v1h1v1h1v-2zm-3 3v2h2v-1h-1v-1zm4 0v1h-1v1h2v-2z"/><path fill="#ffd54f" d="M436.071 530.798a1.5 1.5 0 0 0-1.5 1.5c0 .828 1 3.5 1.5 3.5s1.5-2.672 1.5-3.5a1.5 1.5 0 0 0-1.5-1.5m0 1a.5.5 0 1 1 0 1 .5.5 0 0 1 0-1"/><path fill="#eceff1" fill-rule="evenodd" d="M390.558 521.798a1 1 0 0 0-.987 1v3.998a1 1 0 0 0 1.555.832l3-2a1 1 0 0 0 0-1.663l-3-2a1 1 0 0 0-.568-.167" color="#000" font-family="sans-serif" font-weight="400" overflow="visible" style="line-height:normal;text-indent:0;text-align:start;text-decoration-line:none;text-decoration-style:solid;text-decoration-color:#000;text-transform:none;block-progression:tb;white-space:normal;isolation:auto;mix-blend-mode:normal;solid-color:#000;solid-opacity:1"/><rect width="30" height="2" x="406.571" y="523.798" fill="#eee" ry=".926"/><rect width="10" height="2" x="396.571" y="523.798" fill="#42a5f5" ry="1"/><circle cx="406.571" cy="524.798" r="3" fill="#78909c"/><circle cx="406.571" cy="524.798" r="2" fill="#607d8b"/><path fill="#b0bec5" fill-rule="evenodd" d="m434.571 540.798 1-2h1l1 2z"/><path fill="#263238" d="M388.571 495.798v2h3v-2zm5 0v2h4v-2zm6 0v2h4v-2zm6 0v2h4v-2zm6 0v2h4v-2zm6 0v2h4v-2zm6 0v2h4v-2zm6 0v2h4v-2zm6 0v2h4v-2zm6 0v2h3v-2z"/><rect width="32" height="20" x="400.571" y="499.798" fill="#37474f" ry="1.04"/><rect width="8" height="20" x="390.571" y="499.798" fill="#37474f" ry="1.04"/><rect width="8" height="20" x="434.571" y="499.798" fill="#37474f" ry="1.04"/><rect width="30" height="17.96" x="401.571" y="500.838" fill="#81d4fa" ry="0"/><path fill="#81d4fa" d="M391.571 500.838h6v17.96h-6zm44 0h6v17.96h-6z"/></g></svg>