<svg xmlns="http://www.w3.org/2000/svg" width="64" height="64"><g stroke-linejoin="round" stroke-width="2"><path fill="#333639" d="M5.26 10.35h53.452v43.272H5.26z"/><path fill="#c7ced2" d="M3.988 8.988v46h55.998v-46zm2.545 2.555h50.908v40.888H6.533z"/></g><g stroke-linejoin="bevel"><path fill="#f73e59" d="M16.982 19.984H46.98v24h-30z"/><path fill="#fff" d="M19.273 21.804v1.273h25.454v-1.273zm-.005 3.818V38.35h1.272c3.818 0 5.091-2.543 5.091-6.343 0-3.83-1.273-6.389-5.09-6.389zm8.909 0v.003h-.003l.003.007V38.35h1.272v-9.532l3.81 9.535h1.273v-.003h.003V25.622h-1.273v9.55l-3.76-9.411-.053-.139zm16.542 0c-3.818 0-7.631 1.273-7.631 6.324 0 5.13 2.54 6.402 6.358 6.402h1.273v-6.364h-2.54v1.273h1.267v3.818c-3.818 0-5.085-1.273-5.085-5.051 0-3.856 2.54-5.13 6.358-5.13zM20.54 26.895c3.818 0 3.818 3.818 3.818 5.09s0 5.091-3.818 5.091zm-1.267 14v1.272h25.454v-1.272z"/></g></svg>