<svg xmlns="http://www.w3.org/2000/svg" xmlns:xlink="http://www.w3.org/1999/xlink" width="64" height="64"><defs><path id="a" fill="#feb70d" stroke-linejoin="bevel" d="m410.57 528.8-1.996-10h12z"/></defs><g stroke-linejoin="round" stroke-width="2"><path fill="#35383b" d="M5.26 10.35h53.452v43.272H5.26z"/><path fill="#d3d9dc" d="M3.988 8.988v46h55.998v-46zm2.545 2.555h50.908v40.888H6.533z"/></g><g transform="translate(-488 -641.018)scale(1.2727)"><g transform="translate(-14 9.999)"><path fill="#6af804" fill-rule="evenodd" d="m410.57 528.8 4.14-5.64 5.86-4.36 2 10z"/><use xlink:href="#a" width="100%" height="100%"/></g><path fill="#fff" fill-opacity=".353" d="m396.58 538.8-2-10h12l1.994 10z"/><g transform="translate(-7 4.999)"><path fill="#6af804" fill-rule="evenodd" d="m410.57 528.8 3.751-6.06 6.249-3.936 2 10z"/><use xlink:href="#a" width="100%" height="100%"/></g><path fill="#6af804" fill-rule="evenodd" d="m410.57 528.8 4.627-5.577 5.373-4.423 2 10z"/><use xlink:href="#a" width="100%" height="100%"/><path fill-opacity=".353" d="m410.57 528.8-1.996-10h12l1.994 10z"/></g></svg>