<svg xmlns="http://www.w3.org/2000/svg" xmlns:xlink="http://www.w3.org/1999/xlink" width="64" height="64"><defs><radialGradient xlink:href="#a" id="b" cx="-12" cy="12" r="4" gradientUnits="userSpaceOnUse"/><radialGradient xlink:href="#a" id="c" cx="-12" cy="12" r="4" gradientTransform="translate(-12 12)" gradientUnits="userSpaceOnUse"/><radialGradient xlink:href="#a" id="d" cx="-12" cy="12" r="4" gradientTransform="translate(-24 24)" gradientUnits="userSpaceOnUse"/><linearGradient id="a"><stop offset="0" stop-color="#eff1f1"/><stop offset="1" stop-color="#ececec"/></linearGradient></defs><g transform="matrix(1.3 0 0 1.3 .8 .8)"><rect width="40" height="40" x="4" y="4" fill="#e1443b" stroke="#ba2f26" stroke-width="1.538" rx="2" ry="2"/><rect width="40" height="40" x="4" y="4" fill="#e1443b" rx="2" ry="2"/><rect width="8" height="8" x="-16" y="8" fill="none" stroke="#000" stroke-width="2" opacity=".1" rx="4" ry="4" transform="rotate(-90)"/><rect width="8" height="8" x="-16" y="8" fill="url(#b)" rx="4" ry="4" transform="rotate(-90)"/><rect width="8" height="8" x="8" y="8" fill="none" opacity=".1" rx="4" ry="4" transform="matrix(0 1 1 0 0 0)"/><rect width="8" height="8" x="-28" y="20" fill="none" stroke="#000" stroke-width="2" opacity=".1" rx="4" ry="4" transform="rotate(-90)"/><rect width="8" height="8" x="-28" y="20" fill="url(#c)" rx="4" ry="4" transform="rotate(-90)"/><rect width="8" height="8" x="20" y="20" fill="none" opacity=".1" rx="4" ry="4" transform="matrix(0 1 1 0 0 0)"/><rect width="8" height="8" x="-40" y="32" fill="none" stroke="#000" stroke-width="2" opacity=".1" rx="4" ry="4" transform="rotate(-90)"/><rect width="8" height="8" x="-40" y="32" fill="url(#d)" rx="4" ry="4" transform="rotate(-90)"/><rect width="8" height="8" x="32" y="32" fill="none" opacity=".1" rx="4" ry="4" transform="matrix(0 1 1 0 0 0)"/></g></svg>