<svg xmlns="http://www.w3.org/2000/svg" width="64" height="64" viewBox="0 0 16.933 16.933"><g fill-rule="evenodd" stroke-linecap="round" stroke-linejoin="round" stroke-width=".265"><rect width="7.098" height="11.416" x="5.133" y="2.656" fill="#fff" stroke="#000" ry="0"/><path fill="#c0c81f" stroke="#969c18" d="M6.777 6.048c.133 0 .239-.252.239-.577s-.106-.577-.24-.577c-.132 0-.239.252-.239.577s.107.577.24.577" clip-rule="evenodd"/><path fill="#9b592d" stroke="#543117" d="M13.634 1.72c-.325-.343-1.804.072-2.706.631a5.4 5.4 0 0 0-2.454-.577c-.92 0-1.768.216-2.471.577-.902-.56-2.4-.992-2.706-.631-.325.36.234 1.858.902 2.688a2.7 2.7 0 0 0-.09.667c0 .722.306 1.39.83 1.93h2.976c-.09-.18.036-.288.577-.288.542.018.65.108.578.289h2.976c.524-.542.83-1.227.83-1.93 0-.235-.036-.452-.09-.668.631-.83 1.173-2.346.848-2.688M6.778 6.483a1.163 1.163 0 0 1-1.154-1.155c0-.632.523-1.155 1.155-1.155.63 0 1.154.523 1.154 1.155 0 .631-.523 1.154-1.154 1.154zm3.392 0a1.163 1.163 0 0 1-1.154-1.155c0-.632.523-1.155 1.154-1.155.632 0 1.155.523 1.155 1.155a1.15 1.15 0 0 1-1.155 1.154z" clip-rule="evenodd"/></g><path fill="#333" stroke="#000" stroke-linecap="round" stroke-linejoin="round" stroke-width=".265" d="M4.739 15.346h7.455c.28 0 .506-.226.506-.505V7.385a.505.505 0 0 0-.506-.506H4.74a.505.505 0 0 0-.506.506v7.456c0 .279.227.505.506.505z"/><g fill-rule="evenodd" stroke-linecap="round" stroke-linejoin="round" stroke-width=".265" clip-rule="evenodd"><path fill="#793000" stroke="#461900" d="M2.064 4.071q-.437-.002-.85.139c1.533.198 2.778.793 3.897 1.876-.499-1.173-1.795-2.012-3.047-2.015m12.805 0c-1.252.003-2.548.842-3.047 2.015 1.119-1.083 2.364-1.678 3.897-1.876a2.6 2.6 0 0 0-.85-.139m-13.065.834c-.55.01-1.084.148-1.546.44 1.732-.27 3.301.181 4.78 1.065-.743-.93-2.025-1.528-3.234-1.505m13.324 0c-1.209-.023-2.49.575-3.234 1.505 1.48-.884 3.049-1.335 4.78-1.064a2.97 2.97 0 0 0-1.546-.441m-12.625.894c-.73-.012-1.39.194-1.722.684 1.534-.487 2.868-.271 4.348.306-.63-.598-1.686-.974-2.626-.99m11.927 0c-.94.016-1.997.392-2.626.99 1.48-.577 2.814-.793 4.348-.306-.332-.49-.992-.696-1.722-.684"/><path fill="#695050" stroke="#3c2c2c" d="M3.704 5.725c-.451 0-.83.234-1.01.595h-.055c-.487 0-.902.361-.902.812 0 .631.65.974 1.245.758.36.523 1.137.559 1.425 0 .433-.018 1.137-.09 1.245-.758.072-.451-.397-.812-.902-.812h-.054c-.144-.36-.541-.595-.992-.595m9.525 0c.451 0 .83.234 1.01.595h.055c.252 0 .902.361.902.812 0 .631-.65.974-1.245.758-.36.523-1.137.559-1.425 0-.433-.018-1.137-.09-1.245-.758-.072-.451.65-.812.902-.812h.054c.144-.36.541-.595.992-.595"/><path fill="#c0c81f" stroke="#969c18" d="M10.13 6.048c.133 0 .24-.252.24-.577s-.107-.577-.24-.577-.24.252-.24.577.107.577.24.577"/></g><path fill="#fff" d="M8.732 12.602h2.679c.404 0 .404.606 0 .607H8.73c-.403-.001-.403-.606 0-.607zM5.51 9.332c-.266-.286.143-.695.429-.429l1.894 1.894a.303.303 0 0 1 0 .428L5.94 13.12c-.286.266-.695-.143-.429-.429l1.68-1.68z"/></svg>