<svg xmlns="http://www.w3.org/2000/svg" xmlns:xlink="http://www.w3.org/1999/xlink" width="64" height="64" viewBox="0 0 16.933 16.933"><defs><linearGradient xlink:href="#a" id="e" x1="4.49" x2="47.5" y1="23" y2="23" gradientTransform="matrix(.30088 0 0 -.30089 .8 15.387)" gradientUnits="userSpaceOnUse"/><linearGradient id="a"><stop offset="0" stop-color="#fff"/><stop offset="1" stop-color="#fff" stop-opacity="0"/></linearGradient><linearGradient xlink:href="#a" id="d" x1="48.127" x2="2.873" y1="25.828" y2="24.414" gradientTransform="scale(.30087 -.30089)rotate(45 88.577 .37)" gradientUnits="userSpaceOnUse"/><linearGradient xlink:href="#a" id="c" x1="46.006" x2="4.287" y1="23.707" y2="27.243" gradientTransform="matrix(.21275 .21276 -.21275 .21276 7.94 -1.852)" gradientUnits="userSpaceOnUse"/><linearGradient xlink:href="#a" id="b" x1="3.5" x2="47.5" y1="23" y2="23" gradientTransform="matrix(0 .30089 .30088 0 1.552 .794)" gradientUnits="userSpaceOnUse"/></defs><path fill="#338bcc" d="M8.467 1.323a7.15 7.15 0 0 0-7.144 7.144 7.15 7.15 0 0 0 7.144 7.143 7.15 7.15 0 0 0 7.143-7.144 7.15 7.15 0 0 0-7.144-7.143z" color="#000" overflow="visible"/><path fill="#4da4e7" d="M8.467 1.587a6.884 6.884 0 0 0-6.88 6.88 6.884 6.884 0 0 0 6.88 6.879 6.884 6.884 0 0 0 6.879-6.88 6.884 6.884 0 0 0-6.88-6.879z" overflow="visible"/><path fill="none" stroke="url(#b)" stroke-linecap="round" stroke-linejoin="round" stroke-width=".265" d="M9.683 14.327A2.858 6.47 0 0 0 8.465 1.998" opacity=".8"/><path fill="#fff" d="M9.15 14.137a.602.602 0 0 0 1.203 0 .602.602 0 1 0-1.204 0z" overflow="visible"/><path fill="none" stroke="url(#c)" stroke-linecap="round" stroke-linejoin="round" stroke-width=".265" d="M13.046 13.041a6.47 2.858 45.001 0 1-9.569-8.125" opacity=".8"/><circle cx="12.7" cy="12.701" r="3.175" fill="gray" stroke="#9e9e9e" stroke-width=".529" style="paint-order:stroke markers fill"/><path fill="#fff" d="M4.11 5.129a.602.602 0 0 1-1.204 0 .602.602 0 1 1 1.203 0z" overflow="visible"/><path fill="none" stroke="url(#d)" stroke-linecap="round" stroke-linejoin="round" stroke-width=".265" d="M13.104 4.05a2.858 6.47 44.999 0 0-9.564 6.907" opacity=".8"/><path fill="#fff" d="M3.452 11.964a.602.602 0 0 0 0-1.204.602.602 0 1 0 0 1.204"/><path fill="none" stroke="url(#e)" stroke-linecap="round" stroke-linejoin="round" stroke-width=".265" d="M13.982 6.97A6.469 2.858 0 0 0 2.01 8.6"/><path fill="#fff" d="M14.696 7.085a.602.602 0 0 0-1.203 0 .602.602 0 1 0 1.203 0" overflow="visible"/><circle cx="12.7" cy="12.701" r="3.175" fill="#ccc" style="paint-order:stroke markers fill"/><circle cx="12.7" cy="12.701" r="1.588" opacity=".15" style="paint-order:stroke markers fill"/><path fill="#fff" d="M12.7 11.353a1.343 1.343 0 0 0-1.343 1.344A1.343 1.343 0 0 0 12.7 14.04a1.343 1.343 0 0 0 1.343-1.343 1.343 1.343 0 0 0-1.343-1.344m0 .61a.733.733 0 0 1 .733.734.733.733 0 0 1-.733.732.733.733 0 0 1-.733-.732.733.733 0 0 1 .733-.733z" style="paint-order:stroke markers fill"/><path fill="#fff" d="M12.456 10.804h.488v.854h-.488zm0 2.93h.488v.855h-.488zm2.137-1.282v.489h-.855v-.489zm-2.931 0v.489h-.855v-.489zm2.55 1.41-.346.346-.604-.605.345-.345zm-2.073-2.072-.345.345-.605-.604.345-.345zm-.605 2.418-.345-.346.605-.604.345.345zm2.073-2.073-.345-.345.604-.604.345.345z" style="paint-order:stroke markers fill"/></svg>