<svg xmlns="http://www.w3.org/2000/svg" width="64" height="64" viewBox="0 0 16.933 16.933"><defs><linearGradient id="a" x2="0" y1="542.8" y2="504.8" gradientTransform="matrix(.35796 0 0 .38099 -138.05 -190.74)" gradientUnits="userSpaceOnUse"><stop offset="0" stop-color="#95a5a6"/><stop offset="1" stop-color="#8b9e9a"/></linearGradient></defs><path fill="url(#a)" d="M2.117 1.587v9.525h12.17V1.588z" opacity=".5"/><path fill="#edeeef" d="M2.381 1.852v8.996h11.641V1.852z"/><path fill="#aeaeae" stroke-width=".265" d="M3.201 5.159h.714v.357h-.714zm1.072 0h1.071v.357H4.273zm1.429 0h1.786v.357H5.702zm-2.501.715H4.63v.357H3.201zm1.786 0h.714v.357h-.714zM3.201 7.302h.714v.357h-.714zm1.072 0h1.071v.357H4.273zm-1.072.715h.714v.357h-.714zm1.072 0h1.786v.357H4.273zm2.143 0h1.071v.357H6.416zM3.201 9.445h2.143v.357H3.201zm2.501 0h1.071v.357H5.702zm-2.501.715h1.786v.357H3.201zm2.144 0h1.786v.357H5.345zm3.214-5.001h.714v.357h-.714zm1.072 0h1.071v.357H9.631zm1.428 0h1.786v.357h-1.786zm-2.5.715h1.429v.357H8.559zm1.786 0h.714v.357h-.714zM8.559 7.302h.714v.357h-.714zm0 .715h.714v.357h-.714zm1.072 0h1.786v.357H9.631zm2.143 0h1.071v.357h-1.071zM8.559 9.445h2.143v.357H8.559zm0 .715h1.786v.357H8.559zm2.143 0h1.786v.357h-1.786z"/><path fill="#b7bdc1" d="M1.058 10.583v5.292h14.287v-5.292z"/><path fill="#d9dddf" d="M1.323 10.848v4.762H15.08v-4.762z"/><path fill="#286da8" stroke="#000" stroke-linecap="square" stroke-linejoin="round" stroke-opacity=".196" stroke-width=".265" d="M3.175 3.704v.53h4.498v-.53zm7.5 7.858-2.5 1.429 2.5 1.443v-.73h3.572v-1.428h-3.571z"/><path fill="#12b78c" stroke="#000" stroke-linecap="square" stroke-linejoin="round" stroke-opacity=".196" stroke-width=".265" d="M8.586 3.704v.53h4.643v-.53zm-2.858 8.572v.715H2.156v1.428h3.572v.73l2.5-1.444z"/></svg>