<svg xmlns="http://www.w3.org/2000/svg" width="64" height="64" viewBox="0 0 16.933 16.933"><circle cx="8.466" cy="8.466" r="7.144" fill="#f9f9f9" stroke="#e5e5e5" stroke-linecap="square" stroke-width=".529" style="paint-order:markers stroke fill"/><circle cx="8.466" cy="8.466" r="7.144" fill="#f9f9f9" style="paint-order:markers stroke fill"/><path fill="#a3d8f1" fill-opacity=".438" d="M13.213 11.455c0-.939-.77-1.7-1.718-1.7a1.72 1.72 0 0 0-1.393.711l-.002-.003s-.482.773-1.253.79c-.804.017-2.203-.246-2.767-1.9 0 0-.538 2.22 1.711 3.552 2.49 1.475 4.395.106 4.402.103l-.001-.002c.541-.376 1.02-.858 1.02-1.551z"/><path fill="#5a372f" d="M7.1 5.12c2.741 2.676 4.047 4.12 3.942 4.227s-1.58-1.163-4.321-3.84C3.979 2.832 2.01.99 2.24.757 2.483.507 4.357 2.443 7.1 5.12"/><path fill="#544545" d="M12.653 10.05c.84.82.649 1.709.45 1.913-.364-.972-.65-.7-1.244-1.1-.776-.518-.759-1.062-.56-1.265.199-.204.683-.203 1.354.452"/><path fill="#9fa0a0" d="M9.217 7.894c1.521 1.42 2.155 2.045 2.29 1.907.14-.144-.506-.756-1.962-2.244z"/></svg>