<svg xmlns="http://www.w3.org/2000/svg" width="64" height="64"><g transform="translate(0 -1058.5)"><rect width="48" height="56" x="8" y="1062.5" fill="#26a69a" ry="3.17"/><rect width="46" height="54" x="9" y="1063.5" fill="#4db6ac" ry="2.118"/><path fill="#e0f2f1" d="M15.989 1109.5h26.943v2H15.989z"/><rect width="45" height="10" x="15" y="1097.5" fill="#ffa726" rx="2" ry="2"/><rect width="43.011" height="8" x="15.989" y="1098.5" fill="#ffb74d" rx="1" ry="1"/><g fill="#e0f2f1"><rect width="8.981" height="2" x="15.989" y="1070.5" ry="0"/><path d="M15.989 1077.5h30.934v2H15.989zM15.989 1081.5h26.943v2H15.989zM15.989 1085.5h29.936v2H15.989zM15.989 1089.5H38.94v2H15.989zM15.989 1093.5h27.94v2h-27.94z"/></g><path fill="#f57c00" d="M17.985 1103.4v3h.998v-3h-.998zm5.987 0v3h.998v-3h-.998zm5.987 0v3h.998v-3h-.998zm5.988 0v3h.997v-3h-.997zm5.987 0v3h.998v-3h-.998zm5.987 0v3h.998v-3h-.998zm5.987 0v3h.998v-3h-.998zm-32.93 1v2h.998v-2h-.998zm5.987 0v2h.998v-2h-.998zm5.988 0v2h.997v-2h-.997zm5.987 0v2h.998v-2h-.998zm5.987 0v2h.998v-2h-.998zm5.987 0v2h.998v-2h-.998z"/><path fill="#37474f" fill-rule="evenodd" d="M46.923 1112.5v-8h-1.996l2.994-4 2.994 4h-1.996v8z"/><path fill="#37474f" d="M47.921 1115.5a1.996 2 0 0 1-1.996-2 1.996 2 0 0 1 1.996-2 1.996 2 0 0 1 1.996 2 1.996 2 0 0 1-1.996 2zm0-1a.998 1 0 0 0 .998-1 .998 1 0 0 0-.998-1 .998 1 0 0 0-.998 1 .998 1 0 0 0 .998 1z"/></g></svg>