<svg xmlns="http://www.w3.org/2000/svg" width="64" height="64" viewBox="0 0 16.933 16.933"><path fill="#1b8df3" stroke="#5daef7" stroke-width=".529" d="M5.826 1.588v8.995h5.291V1.588z"/><path fill="#8dc4f9" d="M5.826 1.588v8.995h5.291V1.588z"/><g fill-rule="evenodd" stroke-width=".769"><path fill="#1b8df3" d="M9.103 5.216a.516.516 0 1 0 0 1.032.516.516 0 0 0 0-1.032m6.018 3.095a.344.344 0 1 0 0 .688.344.344 0 0 0 0-.688M2.913 6.248a.516.516 0 1 0 0 1.032.516.516 0 0 0 0-1.032m4.05.378a.2.2 0 0 0-.068.019c-.174.076-.233.324-.004.846.23.522.556.883.73.807s.129-.561-.1-1.083c-.2-.456-.396-.609-.559-.589m-2.059.219c-.136-.012-.322.123-.153.315.225.257.344.713.143.805-.202.091-.187-.34-.205-.57s-.577-.368-.783-.083.001.591.206.653c.204.062.236.296.357.54.122.242.714.181.858 0s.235-.522-.047-.834-.196-.603-.272-.763c-.019-.04-.059-.06-.104-.064m6.704.027c-.183-.043-.258.3-.3.624s-.205.655-.066.72c.194.086.293-.443.511-.641.22-.198.037-.66-.145-.703m-5.771.065a.344.344 0 1 0 0 .688.344.344 0 0 0 0-.688m4.179.081c-.224.017-.446.398-.556.663-.125.301.026.89-.268 1.111s-.51.227-.658.139.126-.077-.038-.414c-.165-.336-.558-.231-.662.031s.111.25.037.405c-.073.155-.7.322-.84-.142s-.637-.97-.792-.844.019.586.424.955-.104.566-.456.29c-.352-.278-.766.21-1.087.537-.32.326-.607.348-.836.153-.228-.196-.027-.727-.29-1.262-.264-.534-.787-.268-.86.093s.66.604.518.805-.712.155-.88-.223c-.167-.378-.533-.255-.54.054-.007.31.283.093.51.32l5.846 5.846 5.846-5.846c.688-.688-.1-.394-.262-.239s-.663.28-.722.111c-.06-.17.56-.454.738-.646s.35-.735.064-.935-.692.161-.867.426c-.177.265-.024.941-.26 1.147s-.365.081-.41-.096c-.044-.176.51-.425.278-.865-.233-.44-.662-.24-.86-.034-.2.206.119.524.193.848.073.325-.68.316-.976.198s-.39-.859-.515-.903-.445.245-.85.12-.069-.375.056-.67.323-1.004.07-1.116a.2.2 0 0 0-.095-.016m3.558-.426a.516.516 0 1 0 0 1.033.516.516 0 0 0 0-1.033M1.71 7.968a.344.344 0 1 0 0 .688.344.344 0 0 0 0-.688"/><path fill="#0c69cf" d="m2.74 9.687 5.847 5.846 5.847-5.846s-.344 0-.688.343l-5.159 5.16-5.157-5.16c-.344-.343-.688-.343-.688-.343"/></g></svg>