<svg xmlns="http://www.w3.org/2000/svg" width="64" height="64" viewBox="0 0 16.933 16.933"><defs><radialGradient id="a" cx="4.062" cy="291.63" r="7.276" gradientTransform="translate(-6.927 -1394.3)scale(4.9649)" gradientUnits="userSpaceOnUse"><stop offset="0" stop-color="#ca564d" stop-opacity=".019"/><stop offset="1" stop-color="#fd5c4f"/></radialGradient><radialGradient id="b" cx="4.062" cy="291.63" r="7.276" gradientTransform="translate(41.073 -1387.6)scale(4.9649)" gradientUnits="userSpaceOnUse"><stop offset="0" stop-color="#ca564d" stop-opacity=".019"/><stop offset="1" stop-color="#f35e4d"/></radialGradient></defs><g paint-order="stroke markers fill" transform="translate(0 -280.07)"><path fill="#fff" stroke="#000" stroke-width=".529" d="M1.323 282.72H15.61v11.642H1.323z" opacity=".15"/><path fill="#fff" d="M1.323 282.72H15.61v11.636H1.323z"/><path fill="#ef746d" d="M2.381 283.771h12.171v9.525H2.381z"/><path fill="url(#a)" d="M12.678 26.002A36 36 0 0 0 9 26.23V50h37.668a36.125 36.125 0 0 0-33.99-23.998" transform="translate(0 280.07)scale(.26458)"/><path fill="url(#b)" d="M55 33.22A36.13 36.13 0 0 0 29.932 50H55z" transform="translate(0 280.07)scale(.26458)"/><circle cx="12.171" cy="286.15" r="1.323" fill="#ffdb8a"/></g></svg>