<svg width="64" height="64" version="1.1" xmlns="http://www.w3.org/2000/svg">
 <rect x="7" y="4" width="48" height="56" rx="6" ry="6" fill="#00d1e0" stroke="#08929b" stroke-width="2"/>
 <rect x="7" y="4" width="48" height="56" rx="6" ry="6" fill="#00d1e0"/>
 <path transform="matrix(2.186 0 0 2.186 -17.465 -20.874)" d="m14.851 11.379v12.809 12.809c2.2473-1.3115 5.07-2.8945 7.3191-4.2028-0.012936-0.89787 0.076906-2.195 0-3.0815-1.4669 0.83562-3.0925 1.7038-4.5611 2.5365-0.029277-6.7269-0.018844-12.795-0.026804-19.522-0.76955-0.44879-1.9618-0.89834-2.7313-1.3473zm4.5825 2.5928c-0.011198 4.9823-0.011134 10.148 0 15.131 0.76511-0.44456 1.96-1.0723 2.725-1.5171 0.006853-3.1823 0.001566-5.981 0.02323-9.1632 0 0 9.1372 5.7653 9.0578 5.7645-2.7334 1.6115-7.2432 4.6701-7.2432 4.6701l0.007147 3.2182 12.081-7.8883c-5.8179-3.4334-10.819-6.8046-16.651-10.215zm4.5664 7.9285v2.1496 2.1505l1.862-1.0748 1.862-1.0757-3.7239-2.1496z" fill="#005293" stroke="#063356" stroke-linecap="round" stroke-linejoin="round" stroke-width=".45745"/>
</svg>
