<svg xmlns="http://www.w3.org/2000/svg" width="64" height="64"><rect width="48" height="56" x="7" y="4" fill="#00d1e0" stroke="#08929b" stroke-width="2" rx="6" ry="6"/><rect width="48" height="56" x="7" y="4" fill="#00d1e0" rx="6" ry="6"/><path fill="#005293" stroke="#063356" stroke-linecap="round" stroke-linejoin="round" stroke-width=".999" d="M15 4v56.001c4.912-2.866 11.082-6.327 15.999-9.187-.028-1.963.168-4.798 0-6.736-3.207 1.827-6.76 3.724-9.97 5.545-.065-14.705-.042-27.97-.06-42.675-1.682-.981-4.288-1.964-5.97-2.946zm10.017 5.668a7470 7470 0 0 0 0 33.077c1.672-.972 4.284-2.344 5.956-3.317.015-6.956.004-13.074.051-20.03 0 0 19.974 12.603 19.8 12.6-5.975 3.524-15.833 10.21-15.833 10.21l.016 7.035 26.409-17.244c-12.718-7.506-23.65-14.875-36.4-22.33zM34.999 27v9.4l4.07-2.35 4.07-2.35z"/></svg>