<svg xmlns="http://www.w3.org/2000/svg" width="64" height="64" viewBox="0 0 16.933 16.933"><g paint-order="markers stroke fill" transform="translate(0 -280.067)"><rect width="12.7" height="13.758" x="2.117" y="281.654" fill="#ff5722" stroke="#ac2b00" stroke-linecap="round" stroke-linejoin="round" stroke-width=".529" opacity=".9" rx=".529" ry=".529"/><rect width="12.7" height="13.758" x="2.117" y="281.654" fill="#ff5722" rx=".529" ry=".529"/><path fill="#fff" d="M3.44 282.713a.264.264 0 0 0-.265.264v11.113c0 .146.118.264.265.264h10.054a.264.264 0 0 0 .264-.264v-7.144l-4.233-4.233zm7.672 0 2.646 2.645v-2.38a.264.264 0 0 0-.264-.265z"/><path fill="#ccc" d="M6.88 287.74a1.323 1.323 0 0 0-1.324 1.323 1.323 1.323 0 0 0 1.323 1.322 1.323 1.323 0 0 0 1.323-1.322H6.88z"/><rect width="2.646" height=".529" x="8.731" y="287.74" fill="#ccc" rx="0" ry="0"/><rect width="2.646" height=".529" x="8.731" y="289.327" fill="#ccc" rx="0" ry="0"/><rect width="4.762" height=".529" x="5.556" y="290.915" fill="#ccc" rx="0" ry="0"/></g></svg>