<svg xmlns="http://www.w3.org/2000/svg" width="64" height="64" viewBox="0 0 16.933 16.933"><g paint-order="markers stroke fill" transform="translate(0 -280.067)"><rect width="12.7" height="13.758" x="2.117" y="281.654" fill="#4caf50" stroke="#2c742f" stroke-linecap="round" stroke-linejoin="round" stroke-width=".529" opacity=".9" rx=".529" ry=".529"/><rect width="12.7" height="13.758" x="2.117" y="281.654" fill="#4caf50" rx=".529" ry=".529"/><path fill="#fff" d="M3.44 282.713a.264.264 0 0 0-.265.264v11.113c0 .146.118.264.265.264h10.054a.264.264 0 0 0 .264-.264v-7.144l-4.233-4.233zm7.672 0 2.646 2.645v-2.38a.264.264 0 0 0-.264-.265z"/><rect width="6.879" height="4.498" x="5.027" y="287.74" fill="#ccc" rx="0" ry="0"/><rect width="1.587" height=".794" x="5.556" y="289.592" fill="#fff" rx="0" ry="0"/><rect width="1.587" height=".794" x="7.673" y="289.592" fill="#fff" rx="0" ry="0"/><rect width="1.587" height=".794" x="9.79" y="289.592" fill="#fff" rx="0" ry="0"/><rect width="1.587" height=".794" x="5.556" y="290.915" fill="#fff" rx="0" ry="0"/><rect width="1.587" height=".794" x="7.673" y="290.915" fill="#fff" rx="0" ry="0"/><rect width="1.587" height=".794" x="9.79" y="290.915" fill="#fff" rx="0" ry="0"/><rect width="1.587" height=".794" x="5.556" y="288.269" fill="#fff" rx="0" ry="0"/><rect width="1.587" height=".794" x="7.673" y="288.269" fill="#fff" rx="0" ry="0"/><rect width="1.587" height=".794" x="9.79" y="288.269" fill="#fff" rx="0" ry="0"/></g></svg>