<svg xmlns="http://www.w3.org/2000/svg" width="64" height="64"><circle cx="32" cy="32" r="27" fill="#7091e3" stroke="#3860c4" stroke-width="2"/><circle cx="32" cy="32" r="27" fill="#7091e3"/><path fill="#fff" d="M31.951 15.025a17 17 0 0 0-12.049 5.004c-.272.34-.544.613-.816.953l24.027 24.027a5.4 5.4 0 0 0 .884-.885 17.01 17.01 0 0 0 0-24.096 16.98 16.98 0 0 0-12.047-5.004zm-14.365 7.998a15 15 0 0 0-1.225 2.314l22.395 22.395c.817-.34 1.565-.748 2.313-1.224zm-2.11 4.9c-.272 1.021-.408 2.042-.476 3.063L33.105 49.09c1.021-.068 2.043-.204 3.065-.477zm-.34 6.807c.545 3.472 2.11 6.738 4.765 9.461 2.722 2.586 6.057 4.22 9.46 4.766z"/></svg>