<svg width="64" height="64" version="1.1" viewBox="0 0 64 64" xmlns="http://www.w3.org/2000/svg">
 <circle cx="32" cy="32" r="27" fill="#7091e3" stroke="#3860c4" stroke-width="2"/>
 <circle cx="32" cy="32" r="27" fill="#7091e3"/>
 <path d="m31.951 15.025c-4.3564 0-8.7135 1.6686-12.049 5.0038-0.27227 0.34034-0.54411 0.61279-0.81639 0.95314l24.027 24.027c0.34035-0.27228 0.61248-0.54441 0.88477-0.88477 6.6706-6.6706 6.6706-17.425 0-24.096-3.3353-3.3353-7.6904-5.0038-12.047-5.0038zm-14.365 7.998c-0.47649 0.74874-0.88428 1.4976-1.2246 2.3144l22.395 22.395c0.81628-0.34013 1.5642-0.74851 2.3125-1.2246zm-2.1094 4.9003c-0.27227 1.021-0.4085 2.0415-0.47657 3.0625l18.105 18.105c1.021-0.06807 2.0434-0.20429 3.0645-0.47657zm-0.33984 6.8067c0.54453 3.4715 2.1088 6.7383 4.7638 9.4611 2.7222 2.5861 6.0579 4.2207 9.4611 4.7657z" fill="#ffffff"/>
</svg>
