<svg xmlns="http://www.w3.org/2000/svg" viewBox="0 0 48 48"><path fill="#20BD4D" d="m37.366 42.09-.002-7.634v7.635z"/><path fill="#00913A" d="M24.019 3.922 3.955 15.364v22.909l6.681 3.848v-.007l6.682-3.845V30.67l-6.682-3.829v-7.566L24 11.617l.004-.002 13.36 7.655v7.552L30.686 30.6l.021 7.653 6.657 3.837v.001l6.681-3.818V15.398z"/><path fill="#00913A" d="M10.636 43.061 3 38.825V14.809L24.021 2.823 45 14.845v23.982l-7.638 4.365-7.609-4.386-.024-8.761 6.68-3.78v-6.442l-12.407-7.109-12.411 7.113v6.461l6.682 3.829v8.704z"/><path fill="#6FFF9F" d="M43.986 15.364 24.019 3.922l-.007-.013-.008.005-.007-.005-.008.013L4.022 15.364h-.067v22.909l6.681 3.848v-.007l6.682-3.845V30.67l-6.682-3.829v-7.566l13.368-7.66 13.36 7.655v22.821l6.681-3.818V15.364z"/><path fill="#2FD36D" d="M37.361 26.822 30.684 30.6l.021 7.653 6.656 3.837z"/><path fill="#2FD36D" d="M44.045 30.622V15.364h-.059L24.019 3.922l-.007-.013-.008.005L24 3.911v7.706l.004-.002 13.36 7.655v15.186zm-33.409 3.826-6.679-3.826.02 7.653 6.659 3.839z"/><path fill="none" stroke="#00913A" stroke-miterlimit="10" stroke-width=".096" d="M3.955 15.364v22.909"/><path fill="none" stroke="#00913A" stroke-linejoin="round" stroke-miterlimit="10" stroke-width=".096" d="m10.639 11.572 13.365-7.658m0 7.701-13.368 7.66"/><path fill="none" stroke="#00913A" stroke-miterlimit="10" stroke-width=".096" d="m10.636 26.841 6.682 3.829M3.955 38.273l6.681 3.848m33.387-26.757v22.909"/><path fill="none" stroke="#00913A" stroke-linejoin="round" stroke-miterlimit="10" stroke-width=".096" d="M37.338 11.572 23.973 3.914m0 7.701 13.368 7.66"/><path fill="none" stroke="#00913A" stroke-miterlimit="10" stroke-width=".096" d="m37.341 26.841-6.682 3.829"/><g fill="none" stroke="#00913A" stroke-miterlimit="10" stroke-width=".096"><path d="m3.977 38.275 13.341-7.605"/><path stroke-linejoin="round" d="M17.318 38.269 3.928 30.63l6.694-3.785-6.667-3.842 6.678-3.727-6.68-3.911 6.686-3.793 6.682 3.872-.014-7.693 6.697 3.864-.007-7.706"/><path d="M17.318 30.637v7.636l-6.682 3.841.003-30.542M44 38.275 30.659 30.67"/><path stroke-linejoin="round" d="m30.659 38.269 13.39-7.639-6.693-3.785 6.667-3.842-6.678-3.727 6.68-3.911-6.687-3.793-6.682 3.872.014-7.693-6.697 3.864.008-7.706"/><path d="M30.659 30.637v7.636l6.682 3.841-.003-30.542"/></g><path fill="none" stroke="#00913A" stroke-miterlimit="10" stroke-width=".096" d="m44.023 38.273-6.682 3.848"/></svg>