<svg xmlns="http://www.w3.org/2000/svg" xmlns:xlink="http://www.w3.org/1999/xlink" width="64" height="64" viewBox="0 0 16.933 16.933"><defs><linearGradient id="a" x2="0" y1="47" y2="1" gradientTransform="translate(0 284.3)scale(.26458)" gradientUnits="userSpaceOnUse"><stop offset="0" stop-color="#ed4964"/><stop offset="1" stop-color="#ef5b74"/></linearGradient><linearGradient xlink:href="#a" id="b" x2="0" y1="47" y2="1" gradientTransform="translate(0 284.3)scale(.26458)" gradientUnits="userSpaceOnUse"/></defs><g stroke="#000" stroke-opacity=".235" stroke-width=".221"><path fill="#f2f2f2" stroke-width=".836" d="m28.412 1.428.002.004-10.934.512a23 23 0 0 0-10.627 6.73l-5.395 10.74A23 23 0 0 0 .999 24c0 2.525.412 4.953 1.164 7.227l6.326 9.756a22.93 22.93 0 0 0 11.09 5.588l-.004-.004 11.271-.604-.002.002a23 23 0 0 0 10.355-6.701l-.004-.002 5.297-10.479.006.006C46.825 27.244 47 25.643 47 24c0-2.536-.416-4.973-1.174-7.254l-.01.01-6.697-10.07h.002l.008-.002a22.9 22.9 0 0 0-10.717-5.256z" transform="matrix(.31634 0 0 .31636 .875 .875)"/><path fill="url(#a)" d="M6.35 284.565c-.6 0-1.178.088-1.725.25-.393.835-.378 2.274-.186 2.949.188.659.453 1.292.725 1.917a5.1 5.1 0 0 1-1.328-.501c-.721-.417-1.745-1.615-2.02-2.589a6.07 6.07 0 0 0-1.432 2.85c.49.668 1.62 1.312 2.452 1.52.671.168 1.35.24 2.025.298-.312.322-.65.609-1.038.838-.723.418-2.276.706-3.257.455a6.1 6.1 0 0 0 1.686 2.6c.929-.074 2.138-.793 2.611-1.3.475-.507.884-1.074 1.284-1.643.12.447.198.895.202 1.35 0 .84-.5 2.344-1.17 3.062a6.1 6.1 0 0 0 2.982-.16c.329-.753.326-2.086.1-2.924-.182-.682-.45-1.321-.726-1.95.47.11.92.267 1.342.505.724.417 1.751 1.62 2.023 2.596a6.07 6.07 0 0 0 1.401-2.773c-.532-.763-1.751-1.445-2.425-1.603-.671-.156-1.36-.228-2.048-.289a5 5 0 0 1 1.036-.836c.723-.417 2.278-.705 3.258-.454a6.1 6.1 0 0 0-1.771-2.664c-.823.098-1.935.75-2.528 1.362-.485.502-.89 1.058-1.282 1.62a5.3 5.3 0 0 1-.192-1.31c0-.84.5-2.344 1.169-3.062a6 6 0 0 0-1.17-.114z" transform="matrix(1.19563 0 0 1.19568 .875 -339.058)"/><g stroke-width=".836"><path fill="#fff" d="M36 24a12 12 0 0 1-24 0 12 12 0 1 1 24 0z" transform="matrix(.31634 0 0 .31636 .875 .875)"/><path fill="#ee526c" d="m30.674 24.466-9.963 6.432c-.39.25-.711.035-.711-.591V17.706c0-.716.312-.837.711-.591l9.963 6.432c.444.287.425.643 0 .919z" transform="matrix(.31634 0 0 .31636 .875 .875)"/></g></g><g stroke-opacity=".314" stroke-width=".225"><path fill="#f2f2f2" d="M9.837 1.456v.002l-3.395.159a7.14 7.14 0 0 0-3.3 2.09L1.464 7.043a7.2 7.2 0 0 0 .22 3.67l1.964 3.03a7.1 7.1 0 0 0 3.445 1.735l-.002-.001 3.501-.188a7.15 7.15 0 0 0 3.216-2.08l-.002-.001 1.646-3.255.001.002a7.2 7.2 0 0 0-.208-3.74l-.003.002-2.08-3.127.003-.001a7.1 7.1 0 0 0-3.329-1.633z"/><path fill="url(#b)" d="M6.35 284.565c-.6 0-1.178.088-1.725.25-.393.835-.378 2.274-.186 2.949.188.659.453 1.292.725 1.917a5.1 5.1 0 0 1-1.328-.501c-.721-.417-1.745-1.615-2.02-2.589a6.07 6.07 0 0 0-1.432 2.85c.49.668 1.62 1.312 2.452 1.52.671.168 1.35.24 2.025.298-.312.322-.65.609-1.038.838-.723.418-2.276.706-3.257.455a6.1 6.1 0 0 0 1.686 2.6c.929-.074 2.138-.793 2.611-1.3.475-.507.884-1.074 1.284-1.643.12.447.198.895.202 1.35 0 .84-.5 2.344-1.17 3.062a6.1 6.1 0 0 0 2.982-.16c.329-.753.326-2.086.1-2.924-.182-.682-.45-1.321-.726-1.95.47.11.92.267 1.342.505.724.417 1.751 1.62 2.023 2.596a6.07 6.07 0 0 0 1.401-2.773c-.532-.763-1.751-1.445-2.425-1.603-.671-.156-1.36-.228-2.048-.289a5 5 0 0 1 1.036-.836c.723-.417 2.278-.705 3.258-.454a6.1 6.1 0 0 0-1.771-2.664c-.823.098-1.935.75-2.528 1.362-.485.502-.89 1.058-1.282 1.62a5.3 5.3 0 0 1-.192-1.31c0-.84.5-2.344 1.169-3.062a6 6 0 0 0-1.17-.114z" transform="matrix(1.17389 0 0 1.17394 1.013 -332.74)"/><g stroke-width=".852"><path fill="#fff" d="M12.194 8.467a3.727 3.727 0 0 1-7.454 0 3.727 3.727 0 1 1 7.454 0"/><path fill="#ee526c" d="M10.54 8.612 7.445 10.61c-.121.078-.22.01-.22-.184V6.512c0-.222.096-.26.22-.183l3.095 1.998c.137.089.132.2 0 .285"/></g></g></svg>