<svg width="64" height="64" version="1" xmlns="http://www.w3.org/2000/svg">
 <path d="m32 5c-14.958 0-27 12.042-27 27s12.042 27 27 27 27-12.042 27-27-12.042-27-27-27zm0 15a12 12 0 0 1 12 12 12 12 0 0 1-12 12 12 12 0 0 1-12-12 12 12 0 0 1 12-12z" fill="#00a6e0" stroke="#009fd6" stroke-width="2"/>
 <path d="m32 17.001a15 15 0 0 0-15 15 15 15 0 0 0 15 15 15 15 0 0 0 15-15 15 15 0 0 0-15-15zm0 8.9999c3.3138 0 5.9999 2.6862 5.9999 5.9999s-2.6862 5.9999-5.9999 5.9999-5.9999-2.6862-5.9999-5.9999 2.6862-5.9999 5.9999-5.9999z" fill="#0089b9"/>
 <path d="m32 5c-14.958 0-27 12.042-27 27s12.042 27 27 27 27-12.042 27-27-12.042-27-27-27zm0 15a12 12 0 0 1 12 12 12 12 0 0 1-12 12 12 12 0 0 1-12-12 12 12 0 0 1 12-12z" fill="#00aeeb" stroke-width=".9643"/>
 <text x="9.3357601" y="38.999996" fill="#ffffff" font-family="Cantarell" font-size="20.173px" font-weight="bold" stroke="#000000" stroke-linecap="round" stroke-linejoin="round" stroke-opacity=".45" stroke-width=".6" style="paint-order:stroke fill markers" xml:space="preserve"><tspan x="9.3357601" y="38.999996" fill="#ffffff" stroke="#000000" stroke-opacity=".45" stroke-width=".6">MKV</tspan></text>
 <path d="m32 5a27 27 0 0 0-27 27 27 27 0 0 0 27 27 27 27 0 0 0 27-27 27 27 0 0 0-27-27zm0 3a24 24 0 0 1 24 24 24 24 0 0 1-24 24 24 24 0 0 1-24-24 24 24 0 0 1 24-24z" fill="#ffffff" opacity=".35" stroke-width="0" style="paint-order:stroke fill markers"/>
</svg>
