<svg xmlns="http://www.w3.org/2000/svg" width="64" height="64" version="1"><path fill="#00a6e0" stroke="#009fd6" stroke-width="2" d="M32 5C17.042 5 5 17.042 5 32s12.042 27 27 27 27-12.042 27-27S46.958 5 32 5zm0 15a12 12 0 0 1 12 12 12 12 0 0 1-12 12 12 12 0 0 1-12-12 12 12 0 0 1 12-12z"/><path fill="#0089b9" d="M32 17.001a15 15 0 0 0-15 15 15 15 0 0 0 15 15 15 15 0 0 0 15-15 15 15 0 0 0-15-15m0 9a6 6 0 1 1 0 12 6 6 0 0 1 0-12"/><path fill="#00aeeb" d="M32 5C17.042 5 5 17.042 5 32s12.042 27 27 27 27-12.042 27-27S46.958 5 32 5m0 15a12 12 0 0 1 12 12 12 12 0 0 1-12 12 12 12 0 0 1-12-12 12 12 0 0 1 12-12"/><text xml:space="preserve" x="9.336" y="39" fill="#fff" stroke="#000" stroke-linecap="round" stroke-linejoin="round" stroke-opacity=".45" stroke-width=".6" font-family="Cantarell" font-size="20.173" font-weight="bold" style="paint-order:stroke fill markers"><tspan x="9.336" y="39">MKV</tspan></text><path fill="#fff" d="M32 5A27 27 0 0 0 5 32a27 27 0 0 0 27 27 27 27 0 0 0 27-27A27 27 0 0 0 32 5m0 3a24 24 0 0 1 24 24 24 24 0 0 1-24 24A24 24 0 0 1 8 32 24 24 0 0 1 32 8" opacity=".35" style="paint-order:stroke fill markers"/></svg>