<svg xmlns="http://www.w3.org/2000/svg" width="64" height="64" version="1"><g transform="translate(-1.23 -1.23)scale(1.0385)"><circle cx="32" cy="32" r="26" fill="#f24f37" stroke="#b23825" stroke-width="1.926"/><circle cx="32" cy="32" r="26" fill="#f24f37"/><path d="M29.562 6.1a26.021 26.025 0 0 0-9.417 2.732c.13.417-.022.886-.501 1.301-.324.281-.59.718-.59.974 0 .78.706 1.978 1.268 2.152.75.232.497 1.03-.465 1.472-.444.204-.991.792-1.216 1.306-.225.515-.556 1.023-.734 1.129-.179.105-.326.508-.326.894 0 .54.247.802 1.058 1.126.58.232 1.275.402 1.545.376 1.548-.145 1.657.757.302 2.522-.72.936-1.065 1.172-1.555 1.054-.458-.11-.707.02-.915.473-.22.48-.578.642-1.543.709-.947.066-1.372.258-1.728.778-.259.378-.634.686-.833.686-.2 0-.668.254-1.042.564-.76.632-1.057.695-1.324.282-.352-.546-1.112-.27-2.244.813-1 .959-1.121 1.215-.97 2.046.268 1.48 1.07 2.792 1.987 3.25.8.4.815.443.33.956-.279.295-.757.611-1.062.704-.881.268-.385.603 1.186.803 1.61.204 2.109.788 1.357 1.583-.419.444-.395.526.277.948 1.315.827 2.36.32 1.126-.542-.792-.555-.238-.78.925-.379.927.321 1.11.303 1.66-.172 1.124-.975 2.347.467 1.318 1.555-.654.693-.456 1.529.392 1.644.374.051 1.152.4 1.73.776.578.375 1.208.683 1.398.683s.726.381 1.192.846c.944.945 1.469 1.065 1.735.4.32-.8.192-1.212-.67-2.153-.687-.75-1.802-2.74-1.802-3.218 0-.294 1.134-.044 1.768.39.397.27 1.04.62 1.428.78.415.169.844.695 1.04 1.27.307.902.428.981 1.51.981h1.176l.177 2.115c.215 2.543.418 3.058 1.291 3.268.643.155 1.33 1.15 1.33 1.929 0 .207-.463.714-1.027 1.126-.7.511-1.002.946-.956 1.372.058.532-.062.615-.815.56-.486-.037-1.328.134-1.87.378a3.4 3.4 0 0 1-1.988.264c-.75-.134-1.004-.082-1.004.211 0 .216-.261.62-.581.897-.792.687-.465 1.05.75.832.754-.136 1.048-.076 1.178.249.277.691-.425 1.68-1.077 1.517-.413-.103-.611.037-.74.526-.045.173-.126.32-.223.445a26.021 26.025 0 0 0 4.116 1.217c-.13-.25-.277-.475-.421-.577-.671-.474-.222-1.704.7-1.926.94-.226.793-.836-.23-.953-.896-.102-1.85-1.01-1.55-1.474.2-.312 1.058-.266 2.792.145.783.185 1.319-.187 3.133-2.173 1.05-1.15 1.858-1.63 2.745-1.63.337 0 1.543-.31 2.68-.69 2.148-.72 2.987-.693 2.907.09-.164 1.632.887 1.578 2.598-.131.713-.713 1.363-1.228 1.448-1.147.327.314-.261 1.84-.948 2.458-.87.783-.913 1.277-.147 1.67.42.215.597.652.663 1.631l.089 1.337h1.088q.57.002.952.15A26.021 26.025 0 0 0 58 32.802c-.398-.85-.369-1.365 0-1.944a26.021 26.025 0 0 0-.116-1.459 8 8 0 0 0-.758-.01c-1.31.054-2.434-.463-2.434-1.121 0-.139-.465-.712-1.034-1.273-.645-.636-.976-1.197-.88-1.49.088-.265-.101-.693-.437-.983-.326-.283-.594-.739-.594-1.012 0-.436-.278-.49-2.282-.442l-2.282.056.038 2.25c.068 3.94.655 4.962 2.465 4.302.829-.302 2.865-.074 3.443.386.21.167.513.77.674 1.342.16.572.757 1.562 1.326 2.198 1.154 1.29 1.243 1.794.582 3.31-.577 1.321-1.198 1.169-1.075-.265l.092-1.067-.976.182c-.54.102-1.217.502-1.52.895-.432.561-.634.644-.958.386-.225-.179-.409-.557-.409-.838s-.279-.594-.617-.697c-.34-.103-.803-.614-1.032-1.138-.366-.838-.357-1.094.069-2.112.431-1.033.435-1.203.038-1.584-.365-.349-.553-.36-1.032-.073-.482.288-.708.267-1.28-.117-.383-.257-1.05-.468-1.482-.468-.878 0-1.144-.427-1.144-1.84 0-1.305-.778-1.779-2.63-1.608-1.286.118-1.57.033-2.607-.765-.64-.493-1.653-1.68-2.251-2.641a75 75 0 0 0-1.431-2.229c-.271-.383-.205-.751.325-1.797l.669-1.314-1.413.19c-2.515.34-3.023.667-1.942 1.246.421.226.44.342.115.717-.213.246-.314.634-.221.864.092.23-.025.77-.26 1.202s-.431 1.037-.44 1.347c-.024.97-1.685 1.741-3.534 1.64-2.803-.155-3.03-.111-4.025.813-1.244 1.154-1.405 1.693-.826 2.765.562 1.04 1.558 1.455 3.283 1.37 1.544-.077 1.718.06 1.365 1.08-.3.866-1.308 1.2-1.99.658-.526-.418-2.338-.095-2.894.516-.233.256-.58.927-.768 1.489-.325.971-.42 1.03-1.877 1.172-1.455.14-1.595.094-2.64-.87-1.168-1.075-1.366-1.897-.804-3.314.25-.627.435-.729 1.1-.607 1.32.241 1.84-.217 1.84-1.627 0-.683-.132-1.322-.294-1.418s-.295-.458-.295-.805-.166-.795-.368-.992c-.296-.286-.253-.44.218-.772.323-.228.854-.382 1.18-.343.324.039 1.22-.101 1.991-.31 1.116-.302 1.443-.53 1.594-1.116.286-1.114.984-2.008 1.57-2.008.925 0 .944-2.176.046-5.34-.134-.467-.499-.765-1.145-.925-.523-.13-1.091-.486-1.263-.793-.17-.307-.484-.556-.697-.556s-.626-.254-.92-.565c-.295-.312-.905-.564-1.37-.564-1.099 0-1.117-.757-.027-1.156 1.152-.422 2.944.131 3.377 1.042.588 1.235 1.239.72 1.448-1.146.26-2.308 1.055-2.971 3.566-2.971h1.804l-.79-.79a3.2 3.2 0 0 1-.593-.845zm9.354.818c-.05.046-.1.084-.15.135-.604.616-.886.704-1.82.562-1.629-.249-1.419.407.384 1.2.975.428 1.601.916 1.814 1.41 1.029 2.383 1.736 3.666 2.092 3.797.718.264 1.146-.266 1.306-1.622.183-1.554.71-1.884 1.654-1.034.367.33.879.6 1.138.6.808 0 1.406.324 1.406.762 0 .231.272.787.607 1.238.493.662.827.82 1.748.82 1.13 0 1.824.212 3.24.995.022.012.044.016.066.028a26.021 26.025 0 0 0-13.483-8.89zM6.005 31.872a26.021 26.025 0 0 0-.005.113 26.021 26.025 0 0 0 .508 4.998c.943.384 1.203.232 1.3-.645.051-.454.289-.969.53-1.146.372-.275.305-.415-.458-.935-.494-.337-.98-.925-1.08-1.308-.097-.368-.424-.772-.795-1.077m8.19 8.603c-.243-.025-.536.106-.862.417-.688.66-.584 1.983.196 2.506.893.6 1.239.425 1.352-.681.14-1.364-.152-2.185-.686-2.241zm4.416 3.934c-.266.01-.558.2-.851.6-.31.425-.396.973-.277 1.805.146 1.022.082 1.24-.452 1.514-.688.352-.835 1.399-.272 1.937.56.536 1.093.396 1.285-.338.275-1.046 1.805-1.17 2.852-.229.445.4.81.604.81.45s-.465-.711-1.032-1.238c-.868-.806-1.029-1.15-1.029-2.188 0-1.466-.45-2.331-1.034-2.313m-7.252 3.36a26.021 26.025 0 0 0 .602.76 4.7 4.7 0 0 0-.602-.759zm8.77 3.995c-.133.046-.189.211-.189.501 0 .294-.187.602-.416.686-.304.112-.375.465-.257 1.307.022.157.028.284.036.414a26.021 26.025 0 0 0 1.082.556c-.018-.45.064-.98.3-1.644.4-1.126.413-1.409.089-1.606-.306-.185-.513-.259-.646-.214z" opacity=".2"/></g></svg>