<svg xmlns="http://www.w3.org/2000/svg" width="64" height="64" viewBox="0 0 16.933 16.933"><path fill="#2f8ddd" stroke="#1d6baf" stroke-opacity=".743" stroke-width=".265" d="M2.051 1.196a.87.87 0 0 0-.86.823v10.85a2.904 2.904 0 0 0 2.91 2.878h10.768a.87.87 0 0 0 .873-.874V4.105a2.904 2.904 0 0 0-2.864-2.908z"/><path fill="#ffba24" fill-rule="evenodd" stroke="#c48600" stroke-opacity=".684" stroke-width=".264" d="M1.918 1.193a.727.727 0 0 0-.728.728v10.92q.233.18.482.347c1.4.932 3.071 1.546 4.746 1.523 1.674-.026 3.352-.72 4.68-2.38.708-.883.813-1.94.586-2.86-.228-.921-.769-1.721-1.418-2.094h-.013a1.6 1.6 0 0 0-1.444.04c-.383.207-.643.528-.726.844l-.079.26a1.4 1.4 0 0 1-.182-.026c-.297-.052-.516-.176-.585-.403-.088-.7.094-1.273.455-1.704.366-.437.922-.732 1.587-.805 1.128-.124 2.126.375 2.885 1.183.76.808 1.261 1.93 1.353 3.004.196 2.284-1.105 4.591-2.949 5.975h4.446a.725.725 0 0 0 .727-.728V4.11a9 9 0 0 0-.481-.348c-1.4-.93-3.072-1.546-4.747-1.521s-3.352.719-4.68 2.38c-.707.881-.813 1.94-.585 2.86s.768 1.707 1.417 2.08l.013.012a1.6 1.6 0 0 0 1.444-.038c.383-.208.644-.53.727-.845l.078-.273c.063 0 .121.005.183.013.148.02.289.055.39.117a.43.43 0 0 1 .194.221q.002.007 0 .013c.187 1.416-.72 2.43-2.04 2.574-1.13.124-2.128-.363-2.888-1.17-.758-.807-1.259-1.93-1.351-3.003C3.218 4.89 4.52 2.576 6.37 1.193z"/></svg>