<svg xmlns="http://www.w3.org/2000/svg" width="64" height="64" version="1"><rect width="54" height="54" x="5" y="5" fill="#4f4f4f" stroke="#292929" stroke-width="2" rx="27" ry="27"/><rect width="54" height="54" x="5" y="5" fill="#4f4f4f" rx="27" ry="27"/><path fill="#ffe485" d="M32 10c-12.188 0-22 9.812-22 22a21.9 21.9 0 0 0 2.95 11H26a6 6 0 0 1 .91-3.176l-5.535-9.623a2.8 2.8 0 1 1 4.85-2.8l5.523 9.605A6 6 0 0 1 32 37a6 6 0 0 1 6 6h13.051a21.93 21.93 0 0 0 2.95-11c0-12.188-9.813-22-22-22z"/><path fill="none" stroke="#000" stroke-linecap="round" stroke-width="3" d="M14.125 26.4s5.5-6.875 17.875-6.875S49.875 26.4 49.875 26.4" opacity=".3"/><path fill="none" stroke="#e93232" stroke-linecap="round" stroke-width="3" d="M39.405 20.433c7.191 1.868 10.47 5.967 10.47 5.967"/></svg>