<svg xmlns="http://www.w3.org/2000/svg" width="64" height="64"><path fill="none" stroke="#21598b" stroke-width="1.999" d="M3.001 9h58.002c.552 0 .998.445.998.997v44.002a1 1 0 0 1-.998 1.002H3.001a1 1 0 0 1-1.002-1.002V9.997a1 1 0 0 1 1.002-.998z" opacity=".75" style="paint-order:stroke markers fill"/><path fill="#53a8f6" d="M3.001 9h58.002c.552 0 .998.445.998.997v44.002a1 1 0 0 1-.998 1.002H3.001a1 1 0 0 1-1.002-1.002V9.997a1 1 0 0 1 1.002-.998z" style="paint-order:stroke markers fill"/><rect width="3.999" height="1.999" x="5.998" y="9.997" opacity=".35" ry="1.002" style="paint-order:stroke markers fill"/><rect width="10.001" height="1.999" x="27.001" y="9.997" opacity=".35" ry="1.002" style="paint-order:stroke markers fill"/><rect width="1.999" height="1.999" x="57" y="9.997" opacity=".35" ry="1.002" style="paint-order:stroke markers fill"/><rect width="3.001" height="1.999" x="53.001" y="9.997" opacity=".35" ry="1.002" style="paint-order:stroke markers fill"/><rect width="1.999" height="1.999" x="50" y="9.997" opacity=".35" ry="1.002" style="paint-order:stroke markers fill"/><g fill="#fff" transform="scale(3.7796)"><path d="M15.002 50.998c-1.108 0-2 .892-2 2V55h38v-2.002c0-1.108-.892-2-2-2z" opacity=".35" style="paint-order:stroke markers fill" transform="scale(.26458)"/><rect width="1.323" height="1.323" x="4.498" y="12.7" ry=".132" style="paint-order:stroke markers fill"/><rect width="1.323" height="1.323" x="6.703" y="12.7" ry=".132" style="paint-order:stroke markers fill"/><rect width="1.323" height="1.323" x="8.908" y="12.7" ry=".132" style="paint-order:stroke markers fill"/><rect width="1.323" height="1.323" x="11.113" y="12.7" ry=".132" style="paint-order:stroke markers fill"/></g><path d="M3.001 9a1 1 0 0 0-1.002 1v2.998H62v-2.997a1 1 0 0 0-.997-1.002z" opacity=".35" style="paint-order:stroke markers fill"/><g transform="translate(3.977 1.982)"><ellipse cx="51.929" cy="43.781" fill="#666" rx="12" ry="12.001" transform="rotate(4.856)skewX(-.017)"/><rect width="5" height="4" x="40.023" y="46.019" fill="#fff" fill-rule="evenodd" ry="1"/><path fill="#fff" d="m46.023 43.019-3 3v4l3 3z"/><path fill="#fff" fill-rule="evenodd" d="M53.162 41.447c-.545-.428-1.139.224-.684.732a8 8 0 0 1 2.545 5.84 8 8 0 0 1-2.554 5.852c-.446.471.18 1.148.677.728a9 9 0 0 0 2.877-6.58 9 9 0 0 0-2.861-6.572"/><path fill="#fff" fill-rule="evenodd" d="M50.798 42.908c-.587-.535-1.199.225-.684.732a6 6 0 0 1 1.909 4.379 6 6 0 0 1-1.916 4.389c-.469.446.173 1.146.68.728a7 7 0 0 0 2.236-5.117 7 7 0 0 0-2.225-5.111"/><path fill="#fff" fill-rule="evenodd" d="M48.433 44.369c-.52-.494-1.155.22-.683.73a4 4 0 0 1 1.273 2.92 4 4 0 0 1-1.277 2.926c-.473.43.14 1.152.68.73a5 5 0 0 0 1.597-3.656 5 5 0 0 0-1.59-3.65"/></g></svg>