<svg xmlns="http://www.w3.org/2000/svg" width="64" height="64" version="1.0"><g transform="translate(0 -3)"><path fill="#30393c" fill-opacity=".902" d="M3.5 51v5.5c0 1.108.862 2 1.932 2h53.136c1.07 0 1.932-.892 1.932-2V51z" opacity=".9" overflow="visible"/><path fill="#4790e2" d="M5.432 11.5c-1.07 0-1.932.892-1.932 2V51h57V13.5c0-1.108-.862-2-1.932-2z" overflow="visible"/><path fill="#0d007a" d="M5.417 11C4.087 11 3 12.124 3 13.5V51h.967V13.5c0-.84.638-1.5 1.45-1.5h53.166c.812 0 1.45.66 1.45 1.5V51H61V13.5c0-1.376-1.086-2.5-2.417-2.5z" font-family="sans-serif" font-weight="400" opacity=".5" overflow="visible" style="isolation:auto;mix-blend-mode:normal;text-decoration-color:#000;text-decoration-line:none;text-decoration-style:solid;text-indent:0;text-transform:none;white-space:normal"/><path fill="#fff" fill-rule="evenodd" d="M25.214 22.004A1.333 1.345 0 0 0 24 23.344v17.321a1.333 1.345 0 0 0 1.976 1.168l15.353-8.66a1.333 1.345 0 0 0 0-2.337l-15.353-8.66a1.333 1.345 0 0 0-.762-.172"/><path fill="none" stroke="#000" d="M3 51.5h58" opacity=".2"/><rect width="52" height="1" x="6" y="54" opacity=".4" ry=".463"/><path fill="#637279" d="M18.5 52.5a2 2 0 1 1-.001 4.001A2 2 0 0 1 18.5 52.5" overflow="visible"/><path fill="none" stroke="#292e2f" stroke-linecap="round" stroke-linejoin="round" d="M18.5 52.5a2 2 0 1 1-.001 4.001A2 2 0 0 1 18.5 52.5" overflow="visible"/><path d="M3 51v5.5C3 57.876 4.086 59 5.417 59h53.166C59.913 59 61 57.876 61 56.5V51h-.967v5.5c0 .84-.638 1.5-1.45 1.5H5.417c-.812 0-1.45-.66-1.45-1.5V51z" font-family="sans-serif" font-weight="400" opacity=".5" overflow="visible" style="isolation:auto;mix-blend-mode:normal;text-decoration-color:#000;text-decoration-line:none;text-decoration-style:solid;text-indent:0;text-transform:none;white-space:normal"/></g></svg>