<svg xmlns="http://www.w3.org/2000/svg" width="64" height="64" viewBox="0 0 16.933 16.933"><g paint-order="markers stroke fill" transform="rotate(4.372 3717.287 -1233.242)"><rect width="6.879" height="12.171" x="113.506" y="280.596" fill="#0d68ab" stroke="#0a548c" stroke-linecap="round" stroke-linejoin="round" stroke-width=".529" rx=".529" ry=".529"/><rect width="6.879" height="12.171" x="113.506" y="280.596" fill="#0d68ab" rx=".529" ry=".529"/><rect width="5.821" height="11.112" x="114.035" y="281.125" fill="#fff" rx="0" ry="0"/><path fill="#0d68ab" d="m119.062 281.125-1.852 5.556 1.852 5.556h.53l-1.852-5.556 1.852-5.556z"/></g><g fill="#1e84d0" paint-order="markers stroke fill" transform="rotate(-8.462 -1975.773 69.138)"><rect width="8.996" height="13.758" x="-10.166" y="294.021" stroke="#17649d" stroke-linecap="round" stroke-linejoin="round" stroke-width=".529" rx="0" ry="0"/><rect width="8.996" height="13.758" x="-10.166" y="294.021" rx="0" ry="0"/></g><g style="line-height:1.25;-inkscape-font-specification:&quot;sans-serif Bold&quot;"><path fill="#fff" d="M6.727 6.88c-.35.058-.655.25-.801.56s-.259.73-.176 1.233c.083.502.29.868.528 1.114.238.245.624.324.973.266.351-.058.704-.259.85-.568.147-.31.23-.723.147-1.225a2.06 2.06 0 0 0-.54-1.114c-.238-.246-.63-.324-.981-.266m-.148-.893q1.072-.177 1.786.382.716.56.908 1.722.192 1.158-.306 1.919-.497.76-1.568.937-1.067.176-1.787-.383-.716-.558-.907-1.718-.192-1.163.306-1.922.5-.761 1.568-.937" aria-label="O" font-family="sans-serif" font-size="6.406" font-weight="700" letter-spacing="0" style="-inkscape-font-specification:&quot;sans-serif Bold&quot;" word-spacing="0"/></g></svg>