<svg xmlns="http://www.w3.org/2000/svg" width="64" height="64" viewBox="0 0 16.933 16.933"><g paint-order="markers stroke fill" transform="translate(-31.694 -289.992)"><g transform="rotate(4.363 -101.83 -5.11)"><rect width="6.879" height="12.171" x="62.442" y="279.802" fill="#bc492d" stroke="#953a23" stroke-linecap="round" stroke-linejoin="round" stroke-width=".529" rx=".529" ry=".529"/><rect width="6.879" height="12.171" x="62.442" y="279.802" fill="#bc492d" rx=".529" ry=".529"/><rect width="5.821" height="11.112" x="62.971" y="280.331" fill="#fff" rx="0" ry="0"/><rect width="4.233" height=".794" x="63.765" y="289.327" fill="#bc492d" rx="0" ry="0"/><path fill="#bc492d" d="M66.146 281.654v2.117h2.117a2.117 2.117 0 0 0-2.117-2.117"/><path fill="#bc492d" d="M65.881 281.919a2.117 2.117 0 0 0-2.116 2.116 2.117 2.117 0 0 0 2.116 2.117 2.117 2.117 0 0 0 2.117-2.117H65.88z"/><rect width="4.233" height=".794" x="63.765" y="287.475" fill="#bc492d" rx="0" ry="0"/></g><rect width="8.996" height="13.758" x="-10.166" y="294.021" fill="#d5583a" stroke="#b14027" stroke-linecap="round" stroke-linejoin="round" stroke-width=".529" rx="0" ry="0" transform="rotate(-8.462)"/><rect width="8.996" height="13.758" x="-10.166" y="294.021" fill="#d5583a" rx="0" ry="0" transform="rotate(-8.462)"/></g><g style="line-height:1.25;-inkscape-font-specification:&quot;sans-serif Bold&quot;"><path fill="#fff" d="m4.98 6.284 1.943-.299c.577-.089 1.041-.045 1.39.175.351.217.564.592.64 1.084.076.494-.026.866-.295 1.18-.267.313-.694.48-1.272.57L6.5 9.13l.262 1.699-1.055.162zm1.179.642.214 1.39.763-.118c.227-.034.546-.135.662-.276.125-.158.189-.287.15-.523-.034-.21-.089-.381-.262-.504-.192-.133-.484-.13-.764-.086z" aria-label="P" font-family="sans-serif" font-size="6.533" font-weight="700" letter-spacing="0" style="-inkscape-font-specification:&quot;sans-serif Bold&quot;" word-spacing="0"/></g></svg>