<svg xmlns="http://www.w3.org/2000/svg" width="64" height="64" viewBox="0 0 16.933 16.933"><g paint-order="markers stroke fill" transform="translate(0 -280.067)"><g transform="rotate(4.405 19.271 318.07)"><rect width="6.879" height="12.171" x="5.821" y="282.448" fill="#355687" stroke="#2f4a71" stroke-linecap="round" stroke-linejoin="round" stroke-width=".529" rx=".504" ry=".575"/><rect width="6.879" height="12.171" x="5.821" y="282.448" fill="#355687" rx=".504" ry=".575"/><rect width="5.821" height="11.113" x="6.35" y="282.977" fill="#fff" rx="0" ry="0"/><rect width="4.762" height=".529" x="6.615" y="284.3" fill="#355687" rx="0" ry="0"/><rect width="4.762" height=".529" x="6.615" y="285.887" fill="#355687" rx="0" ry="0"/><rect width="4.762" height=".529" x="6.615" y="287.475" fill="#355687" rx="0" ry="0"/><rect width="4.762" height=".529" x="6.615" y="289.062" fill="#355687" rx="0" ry="0"/><rect width="4.762" height=".529" x="6.615" y="290.65" fill="#355687" rx="0" ry="0"/><rect width="4.762" height=".529" x="6.615" y="292.237" fill="#355687" rx="0" ry="0"/></g><rect width="8.996" height="13.758" x="-40.062" y="279.539" fill="#4169a5" stroke="#335281" stroke-linecap="round" stroke-linejoin="round" stroke-width=".529" rx="0" ry="0" transform="rotate(-8.462)"/><rect width="8.996" height="13.758" x="-40.062" y="279.539" fill="#4169a5" rx="0" ry="0" transform="rotate(-8.462)"/><g fill="#fff"><path d="m3.48 286.645 1.047-.156 2.01 4.516-1.047.156z"/><path d="m7.144 286.1-1.046.156-.608 4.905 1.047-.156z"/><path d="m6.098 286.256 1.046-.156 2.01 4.516-1.047.156z"/><path d="m9.761 285.71-1.046.157-.608 4.905 1.047-.156z"/></g></g></svg>