<svg xmlns="http://www.w3.org/2000/svg" width="64" height="64" viewBox="0 0 16.933 16.933"><defs><clipPath id="a"><rect width="13.758" height="13.758" x="1.587" y="1.587" fill="#71c947" ry=".794"/></clipPath></defs><rect width="13.758" height="13.758" x="1.587" y="1.587" fill="#7f583c" stroke="#533927" stroke-width=".529" rx="2.117" ry="2.117" style="paint-order:stroke markers fill"/><rect width="13.758" height="13.758" x="1.587" y="1.587" fill="#7f583c" rx="2.117" ry="2.117"/><rect width="11.112" height="11.112" x="2.91" y="2.91" fill="#fff" opacity=".1" rx=".794" ry=".794"/><path d="M3.704 2.38a2.11 2.11 0 0 0-2.117 2.116V5.82h.002v.796l1.72-.002V4.1h3.438v.795h3.438v1.72l1.722-.001V4.099h1.72l-.001.795h1.72v-.398a2.11 2.11 0 0 0-2.117-2.116z" opacity=".05"/><path fill="#7fb551" stroke="#598137" stroke-width="2" d="M14 6c-4.432 0-8 3.568-8 8v5h.006v3.008l6.498-.006V12.5h12.998l-.004 3.004 12.996-.004.004 6.506L45.004 22l.002-9.5h6.496l-.002 3.004H58V14c0-4.432-3.568-8-8-8z" style="paint-order:stroke markers fill" transform="scale(.26458)"/><path fill="none" d="M1.587 1.587h13.758v13.758H1.587z" clip-path="url(#a)"/><path fill="none" d="M1.587 1.587h13.758v13.758H1.587z"/><path fill="#b3ea15" d="M5.688 6.879c-.683 0-1.357.222-1.88.63-.524.407-.898 1.024-.898 1.751 0 .728.374 1.345.898 1.752.523.407 1.197.63 1.88.63.96 0 1.732-.576 2.265-1.109.321-.32.37-.437.513-.643.144.206.193.322.514.643.533.533 1.305 1.108 2.264 1.108.684 0 1.357-.222 1.881-.629s.898-1.024.898-1.752c0-.727-.374-1.344-.898-1.752a3.08 3.08 0 0 0-1.88-.629c-.96 0-1.732.575-2.265 1.108-.321.321-.37.438-.514.643-.143-.205-.192-.322-.513-.643C7.42 7.454 6.647 6.88 5.688 6.88zm0 .794c.629 0 1.246.417 1.704.876.357.356.479.57.57.711-.091.14-.213.355-.57.712-.458.458-1.075.876-1.704.876a2.33 2.33 0 0 1-1.393-.462c-.37-.288-.591-.663-.591-1.126s.221-.838.59-1.125a2.33 2.33 0 0 1 1.394-.462m5.556 0c.508 0 1.025.174 1.394.462.37.287.59.662.59 1.125s-.22.838-.59 1.126-.886.462-1.394.462c-.628 0-1.245-.418-1.703-.876-.357-.357-.479-.571-.57-.712.091-.14.213-.355.57-.711.458-.459 1.075-.876 1.703-.876"/><path fill="#7fb551" d="M3.704 1.587a2.11 2.11 0 0 0-2.117 2.117v1.323h.002v.796l1.72-.002V3.307h3.438v.795l3.438-.001v1.721l1.722-.001V3.307h1.72l-.001.795h1.72v-.398a2.11 2.11 0 0 0-2.117-2.117z"/></svg>