<svg height="64" width="64" xmlns="http://www.w3.org/2000/svg">
  <circle cx="31.998" cy="31.998" fill="#2a1180" r="26.999" stroke="#7c61db" stroke-width="2" />
  <circle cx="31.998" cy="31.998" fill="#2a1180" r="26.999" />
  <circle cx="42.526" cy="22.975" fill="#fff" r="1.253" />
  <path d="m48.541 27.988v9.525m-12.031-5.013v5.013m-10.026-5.013v10.32m-10.026-10.32v10.32m10.009-10.32a4.996 4.996 0 0 0 -2.498-4.327 4.996 4.996 0 0 0 -4.996 0 4.996 4.996 0 0 0 -2.498 4.327m20.018 0a4.996 4.996 0 0 0 -2.498-4.327 4.996 4.996 0 0 0 -4.996 0 4.996 4.996 0 0 0 -2.498 4.327m22.023 4.806a5.999 5.999 0 0 1 -3 5.195 5.999 5.999 0 0 1 -5.998 0 5.999 5.999 0 0 1 -3-5.195m11.998-14.331a5.999 5.999 0 0 0 -3-5.195 5.999 5.999 0 0 0 -5.998 0 5.999 5.999 0 0 0 -3 5.195" fill="none" stroke="#fff" stroke-linecap="round" stroke-width="2.506" />
</svg>
