<svg xmlns="http://www.w3.org/2000/svg" width="64" height="64"><circle cx="31.998" cy="31.998" r="26.999" fill="#2a1180" stroke="#7c61db" stroke-width="2"/><circle cx="31.998" cy="31.998" r="26.999" fill="#2a1180"/><circle cx="42.526" cy="22.975" r="1.253" fill="#fff"/><path fill="none" stroke="#fff" stroke-linecap="round" stroke-width="2.506" d="M48.541 27.988v9.525M36.51 32.5v5.013M26.484 32.5v10.32M16.458 32.5v10.32M26.467 32.5a5 5 0 0 0-2.498-4.327 5 5 0 0 0-4.996 0 5 5 0 0 0-2.498 4.327m20.018 0a5 5 0 0 0-2.498-4.327 5 5 0 0 0-4.996 0 5 5 0 0 0-2.498 4.327m22.023 4.806a6 6 0 0 1-3 5.195 6 6 0 0 1-5.998 0 6 6 0 0 1-3-5.195m11.998-14.331a6 6 0 0 0-3-5.195 6 6 0 0 0-5.998 0 6 6 0 0 0-3 5.195"/></svg>