<?xml version="1.0" encoding="UTF-8" standalone="no"?>
<svg
   width="128px"
   height="128px"
   viewBox="0 0 128 128"
   version="1.1"
   id="svg284"
   sodipodi:docname="net.poedit.Poedit.svg"
   inkscape:version="1.2 (dc2aedaf03, 2022-05-15)"
   xmlns:inkscape="http://www.inkscape.org/namespaces/inkscape"
   xmlns:sodipodi="http://sodipodi.sourceforge.net/DTD/sodipodi-0.dtd"
   xmlns:xlink="http://www.w3.org/1999/xlink"
   xmlns="http://www.w3.org/2000/svg"
   xmlns:svg="http://www.w3.org/2000/svg">
  <sodipodi:namedview
     id="namedview286"
     pagecolor="#ffffff"
     bordercolor="#666666"
     borderopacity="1.0"
     inkscape:showpageshadow="2"
     inkscape:pageopacity="0.0"
     inkscape:pagecheckerboard="0"
     inkscape:deskcolor="#d1d1d1"
     showgrid="false"
     inkscape:zoom="6.15625"
     inkscape:cx="64"
     inkscape:cy="64"
     inkscape:window-width="1920"
     inkscape:window-height="1011"
     inkscape:window-x="0"
     inkscape:window-y="0"
     inkscape:window-maximized="1"
     inkscape:current-layer="svg284" />
  <title
     id="title208">Linux/128x128</title>
  <defs
     id="defs261">
    <linearGradient
       x1="0%"
       y1="0%"
       x2="100%"
       y2="100%"
       id="linearGradient-1">
      <stop
         stop-color="#FFB822"
         offset="0"
         id="stop210"
         style="stop-color:#f1ac00;stop-opacity:1;" />
      <stop
         stop-color="#E26C00"
         offset="1"
         id="stop212"
         style="stop-color:#f1ac00;stop-opacity:1;" />
    </linearGradient>
    <path
       d="M25.1013686,11 L102.898631,11 C107.801984,11 109.580059,11.5105409 111.372651,12.4692299 C113.165244,13.4279189 114.572081,14.834756 115.53077,16.6273486 C116.489459,18.4199412 117,20.1980155 117,25.1013686 L117,102.898631 C117,107.801984 116.489459,109.580059 115.53077,111.372651 C114.572081,113.165244 113.165244,114.572081 111.372651,115.53077 C109.580059,116.489459 107.801984,117 102.898631,117 L25.1013686,117 C20.1980155,117 18.4199412,116.489459 16.6273486,115.53077 C14.834756,114.572081 13.4279189,113.165244 12.4692299,111.372651 C11.5105409,109.580059 11,107.801984 11,102.898631 L11,25.1013686 C11,20.1980155 11.5105409,18.4199412 12.4692299,16.6273486 C13.4279189,14.834756 14.834756,13.4279189 16.6273486,12.4692299 C18.4199412,11.5105409 20.1980155,11 25.1013686,11 Z"
       id="path-2" />
    <filter
       x="-0.033962264"
       y="-0.033962264"
       width="1.0679245"
       height="1.0867925"
       filterUnits="objectBoundingBox"
       id="filter-3">
      <feOffset
         dx="0"
         dy="2"
         in="SourceAlpha"
         result="shadowOffsetOuter1"
         id="feOffset216" />
      <feGaussianBlur
         stdDeviation="1.5"
         in="shadowOffsetOuter1"
         result="shadowBlurOuter1"
         id="feGaussianBlur218" />
      <feComposite
         in="shadowBlurOuter1"
         in2="SourceAlpha"
         operator="out"
         result="shadowBlurOuter1"
         id="feComposite220" />
      <feColorMatrix
         values="0 0 0 0 0   0 0 0 0 0   0 0 0 0 0  0 0 0 0.3 0"
         type="matrix"
         in="shadowBlurOuter1"
         id="feColorMatrix222" />
    </filter>
    <filter
       x="-0.022641509"
       y="-0.041509434"
       width="1.045283"
       height="1.0830189"
       filterUnits="objectBoundingBox"
       id="filter-4">
      <feGaussianBlur
         stdDeviation="0.5"
         in="SourceAlpha"
         result="shadowBlurInner1"
         id="feGaussianBlur225" />
      <feOffset
         dx="0"
         dy="2"
         in="shadowBlurInner1"
         result="shadowOffsetInner1"
         id="feOffset227" />
      <feComposite
         in="shadowOffsetInner1"
         in2="SourceAlpha"
         operator="arithmetic"
         k2="-1"
         k3="1"
         result="shadowInnerInner1"
         id="feComposite229" />
      <feColorMatrix
         values="0 0 0 0 1   0 0 0 0 0.804757108   0 0 0 0 0.249324743  0 0 0 1 0"
         type="matrix"
         in="shadowInnerInner1"
         result="shadowMatrixInner1"
         id="feColorMatrix231" />
      <feGaussianBlur
         stdDeviation="0.5"
         in="SourceAlpha"
         result="shadowBlurInner2"
         id="feGaussianBlur233" />
      <feOffset
         dx="0"
         dy="-2"
         in="shadowBlurInner2"
         result="shadowOffsetInner2"
         id="feOffset235" />
      <feComposite
         in="shadowOffsetInner2"
         in2="SourceAlpha"
         operator="arithmetic"
         k2="-1"
         k3="1"
         result="shadowInnerInner2"
         id="feComposite237" />
      <feColorMatrix
         values="0 0 0 0 0   0 0 0 0 0   0 0 0 0 0  0 0 0 0.4 0"
         type="matrix"
         in="shadowInnerInner2"
         result="shadowMatrixInner2"
         id="feColorMatrix239" />
      <feMerge
         id="feMerge245">
        <feMergeNode
           in="shadowMatrixInner1"
           id="feMergeNode241" />
        <feMergeNode
           in="shadowMatrixInner2"
           id="feMergeNode243" />
      </feMerge>
    </filter>
    <linearGradient
       x1="0%"
       y1="0%"
       x2="100%"
       y2="100%"
       id="linearGradient-5">
      <stop
         stop-color="#FFFFFF"
         offset="0%"
         id="stop248" />
      <stop
         stop-color="#ECECEC"
         offset="100%"
         id="stop250" />
    </linearGradient>
    <path
       d="M23.1277704,18 L104.87223,18 C106.655267,18 107.30184,18.1856512 107.953691,18.5342654 C108.605543,18.8828796 109.11712,19.3944567 109.465735,20.0463086 C109.814349,20.6981604 110,21.3447329 110,23.1277704 L110,104.87223 C110,106.655267 109.814349,107.30184 109.465735,107.953691 C109.11712,108.605543 108.605543,109.11712 107.953691,109.465735 C107.30184,109.814349 106.655267,110 104.87223,110 L23.1277704,110 C21.3447329,110 20.6981604,109.814349 20.0463086,109.465735 C19.3944567,109.11712 18.8828796,108.605543 18.5342654,107.953691 C18.1856512,107.30184 18,106.655267 18,104.87223 L18,23.1277704 C18,21.3447329 18.1856512,20.6981604 18.5342654,20.0463086 C18.8828796,19.3944567 19.3944567,18.8828796 20.0463086,18.5342654 C20.6981604,18.1856512 21.3447329,18 23.1277704,18 Z"
       id="path-6" />
    <filter
       x="-0.026086957"
       y="-0.026086957"
       width="1.0521739"
       height="1.0630435"
       filterUnits="objectBoundingBox"
       id="filter-7">
      <feOffset
         dx="0"
         dy="1"
         in="SourceAlpha"
         result="shadowOffsetOuter1"
         id="feOffset254" />
      <feGaussianBlur
         stdDeviation="1"
         in="shadowOffsetOuter1"
         result="shadowBlurOuter1"
         id="feGaussianBlur256" />
      <feColorMatrix
         values="0 0 0 0 0   0 0 0 0 0   0 0 0 0 0  0 0 0 0.4 0"
         type="matrix"
         in="shadowBlurOuter1"
         id="feColorMatrix258" />
    </filter>
  </defs>
  <g
     id="Linux/128x128"
     stroke="none"
     stroke-width="1"
     fill="none"
     fill-rule="evenodd"
     style="stroke:#000000;stroke-opacity:1;stroke-width:0.025;stroke-dasharray:none">
    <g
       id="Base"
       style="display:inline;stroke:#000000;stroke-opacity:1;stroke-width:0.025;stroke-dasharray:none">
      <use
         fill="url(#linearGradient-1)"
         fill-rule="evenodd"
         xlink:href="#path-2"
         id="use265"
         style="display:inline;stroke:#000000;stroke-opacity:1;stroke-width:0.2;stroke-dasharray:none" />
    </g>
    <g
       id="Paper"
       style="display:inline;stroke:#000000;stroke-opacity:1;stroke-width:0.025;stroke-dasharray:none">
      <use
         fill="url(#linearGradient-5)"
         fill-rule="evenodd"
         xlink:href="#path-6"
         id="use274"
         style="display:inline;stroke:#000000;stroke-opacity:1;stroke-width:0.025;stroke-dasharray:none" />
    </g>
    <rect
       id="Separator"
       fill-opacity="0.1"
       fill="#000000"
       x="18"
       y="48"
       width="92"
       height="1"
       style="stroke:#000000;stroke-opacity:1;stroke-width:0.025;stroke-dasharray:none" />
    <rect
       id="rect278"
       fill-opacity="0.1"
       fill="#000000"
       x="18"
       y="79"
       width="92"
       height="1"
       style="stroke:#000000;stroke-opacity:1;stroke-width:0.025;stroke-dasharray:none" />
    <path
       d="M37.3366486,89.6405885 C37.3081081,89.6405885 37.2787027,89.6353765 37.2492973,89.6249525 L32.4198919,87.8980401 C32.2771892,87.8467886 32.1716757,87.7668712 32.0998919,87.6556816 C32.0324324,87.5514414 31.9987027,87.4220099 31.9987027,87.2717303 C31.9987027,87.2091862 32.003027,87.1553287 32.0142703,87.1066833 C32.0211892,87.0754113 32.0618378,86.9772518 32.0782703,86.9511917 L32.3731892,86.4204354 C32.4518919,86.2901352 32.540973,86.1902383 32.643027,86.1198762 C32.7545946,86.0399587 32.8834595,86 33.0157838,86 C33.0382703,86 33.1282162,86.010424 33.1515676,86.0165047 C33.1939459,86.0269287 33.2389189,86.0434334 33.2821622,86.0660188 L37.7085405,88.6633368 C37.8252973,88.7319616 37.8702703,88.8813725 37.8097297,89.0038547 L37.5692973,89.4955209 C37.5260541,89.5841251 37.4352432,89.6405885 37.3366486,89.6405885 L37.3366486,89.6405885 Z M35.8646486,93.0961507 C35.7937297,93.0970194 35.7305946,93.1421901 35.7055135,93.2099463 L34.5085405,96.4917748 C34.4895135,96.5438949 34.4972973,96.603833 34.5292973,96.6498724 C34.5621622,96.6967805 34.6149189,96.7245779 34.6711351,96.7245779 L37.1939459,96.7245779 C37.251027,96.7245779 37.3055135,96.6959118 37.3375135,96.6472664 C37.3695135,96.6003583 37.3755676,96.5386829 37.3548108,96.4856941 L36.0281081,93.2047342 C36.0021622,93.1387155 35.9381622,93.0961507 35.8681081,93.0961507 L35.8646486,93.0961507 Z M38.3917838,102 C37.8469189,102 37.5217297,101.940062 37.3375135,101.808024 C37.1342703,101.660351 37.0313514,101.41278 37.0313514,101.070525 C37.0313514,100.662251 37.212973,100.457245 37.3651892,100.35648 C37.5554595,100.230523 37.8694054,100.169716 38.3269189,100.169716 L38.544,100.169716 C38.6010811,100.169716 38.6547027,100.14105 38.6875676,100.092405 C38.7195676,100.045496 38.7256216,99.9838211 38.704,99.9308323 L38.1591351,98.5896086 C38.1323243,98.5244584 38.0691892,98.481025 37.9991351,98.481025 L33.8936216,98.481025 C33.820973,98.481025 33.7552432,98.5261958 33.731027,98.5956892 L33.2475676,99.936913 C33.2285405,99.9899017 33.2363243,100.048971 33.2683243,100.095879 C33.3003243,100.141919 33.3539459,100.169716 33.4101622,100.169716 L33.6921081,100.169716 C34.1539459,100.169716 34.4713514,100.229654 34.6650811,100.355611 C34.8908108,100.501547 35.0058378,100.742168 35.0058378,101.070525 C35.0058378,101.495304 34.8389189,101.70639 34.6988108,101.808024 C34.5171892,101.938325 34.1911351,102 33.6730811,102 L31.2402162,102 C30.7714595,102 30.4817297,101.940062 30.3001081,101.805418 C30.1003243,101.658613 30,101.411043 30,101.070525 C30,100.661382 30.1643243,100.457245 30.3027027,100.358217 C30.4627027,100.242684 30.7187027,100.181877 31.0845405,100.171453 C31.1545946,100.168847 31.2168649,100.124545 31.2410811,100.058527 L34.0605405,92.5584451 C34.0804324,92.5054563 34.0735135,92.4455182 34.0406486,92.3994788 C34.0086486,92.351702 33.9558919,92.3239047 33.8988108,92.3239047 L33.1740541,92.3239047 C32.7347027,92.3239047 32.4371892,92.2613606 32.2374054,92.126717 C32.0116757,91.9738314 31.8966486,91.7262609 31.8966486,91.3952983 C31.8966486,91.0591237 32.003027,90.8046039 32.2036757,90.6586677 C32.3351351,90.5631142 32.5859459,90.4658233 33.4421622,90.4658233 L36.0782703,90.4658233 C36.4838919,90.4658233 36.752,90.5257614 36.9223784,90.6517183 C37.0832432,90.7724632 37.2181622,90.9705196 37.3366486,91.2580488 L40.8471351,100.06287 C40.8722162,100.126283 40.9327568,100.169716 41.0010811,100.172322 C41.3254054,100.184483 41.5571892,100.246159 41.7111351,100.360823 C41.9022703,100.505891 42,100.743906 42,101.070525 C42,101.405831 41.9083243,101.649927 41.7284324,101.7976 C41.5597838,101.935719 41.2994595,102 40.9076757,102 L38.3917838,102 Z"
       id="3"
       fill="#E3450D"
       style="stroke:#000000;stroke-opacity:1;stroke-width:0.025;stroke-dasharray:none" />
    <path
       d="M38.7498412,58.3770969 C38.0382372,58.3770969 37.4421533,58.7002634 36.9782245,59.3359213 C36.3978513,60.20061 36.1289205,61.6863996 36.1289205,64.0174685 C36.1289205,66.0273118 36.4311211,67.6635242 36.9782245,68.623319 C37.411656,69.2628587 38.0594929,69.6229031 38.7664761,69.6229031 C40.5436377,69.6229031 41.3707619,67.8362678 41.3707619,64 C41.3707619,61.6611673 41.1092243,60.1753778 40.5482585,59.3252461 C40.0787847,58.7012339 39.4595968,58.3770969 38.7498412,58.3770969 M38.7332063,71 C35.5494715,71 33.7011494,68.7388049 33.5283313,64.6327464 C33.5246347,64.5289061 33.4423843,64.4464162 33.3434991,64.4464162 L32.0154797,64.4464162 C31.913822,64.4464162 31.8306475,64.5337585 31.8306475,64.6414807 L31.8306475,68.3409122 C31.8306475,69.1211701 31.890718,69.2541245 31.9572576,69.3327326 C32.0385837,69.4084292 32.1522555,69.4666574 32.7557327,69.4666574 C32.9091434,69.4666574 33.032981,69.5976709 33.032981,69.7577984 L33.032981,70.4497435 C33.032981,70.6098711 32.9091434,70.7408845 32.7557327,70.7408845 L28.2772483,70.7408845 C28.1238376,70.7408845 28,70.6098711 28,70.4497435 L28,69.7577984 C28,69.5976709 28.1238376,69.4666574 28.2772483,69.4666574 C29.199561,69.4666574 29.2845838,69.3725218 29.2845838,68.3409122 L29.2845838,59.6600582 C29.2845838,58.876889 29.2263617,58.7487869 29.1561255,58.6711493 C29.0775718,58.5935117 28.958355,58.5323721 28.2772483,58.5323721 C28.1238376,58.5323721 28,58.4023291 28,58.2412311 L28,57.5502565 C28,57.3891585 28.1238376,57.2591155 28.2772483,57.2591155 L32.7557327,57.2591155 C32.9091434,57.2591155 33.032981,57.3891585 33.032981,57.5502565 L33.032981,58.2412311 C33.032981,58.4023291 32.9091434,58.5323721 32.7557327,58.5323721 C32.1587247,58.5323721 32.0432045,58.5867184 31.9766649,58.6420352 C31.8870213,58.7497574 31.8306475,58.8846527 31.8306475,59.6600582 L31.8306475,62.8237904 C31.8306475,62.9305421 31.913822,63.0178844 32.0154797,63.0178844 L33.3786172,63.0178844 C33.47473,63.0178844 33.5542078,62.9402468 33.5625253,62.8402884 C33.8702709,59.1282407 35.7611044,57 38.7498412,57 C42.0860625,57 44,59.5503951 44,64 C44,66.3650354 43.506498,68.1739914 42.5342806,69.3754332 C41.6054988,70.4371274 40.2904176,71 38.7332063,71"
       id="2"
       fill="#1595E0"
       style="stroke:#000000;stroke-opacity:1;stroke-width:0.025;stroke-dasharray:none" />
    <path
       d="m 35.181478,27.206897 c -0.02035,0 -0.03978,0.0037 -0.05921,0.01016 -0.406114,0.1377 -0.893635,0.283718 -1.535646,0.458384 -0.08048,0.02218 -0.136913,0.09519 -0.136913,0.178363 v 2.431468 c 0,0.0804 0.05365,0.151562 0.130438,0.175591 0.0185,0.0065 0.037,0.0092 0.0555,0.0092 0.05921,0 0.116561,-0.02865 0.151714,-0.0804 l 0.641086,-0.923237 c 0.04348,-0.06284 0.111936,-0.10443 0.186868,-0.116444 h 0.01943 c 0.09251,0 0.147089,0.02033 0.194268,0.0573 l 0.980593,0.778144 c 0.0333,0.02588 0.07401,0.04066 0.114711,0.04066 0.02775,0 0.05458,-0.0065 0.08048,-0.01848 0.06383,-0.03142 0.104535,-0.09611 0.104535,-0.167273 V 27.74749 c 0,-0.07024 0.0259,-0.136776 0.07401,-0.187605 0.05458,-0.06007 0.06476,-0.147866 0.02313,-0.218102 -0.0333,-0.05822 -0.09436,-0.09242 -0.159115,-0.09242 -0.01388,0 -0.02775,0.0018 -0.04163,0.0046 -0.08603,0.01941 -0.179467,0.02957 -0.278452,0.02957 -0.153564,0 -0.317305,-0.0231 -0.498622,-0.07024 -0.01573,-0.0046 -0.03145,-0.0065 -0.04718,-0.0065 z m -1.545822,4.259458 c -0.102685,0 -0.185943,0.08317 -0.185943,0.184832 v 1.015653 c 0,0.08225 0.05458,0.153411 0.132288,0.177439 1.009271,0.304973 1.751191,0.718997 2.203559,1.230058 0.03608,0.04066 0.08696,0.06284 0.138763,0.06284 0.0222,0 0.0444,-0.0037 0.06568,-0.01201 0.07216,-0.0268 0.119337,-0.09611 0.119337,-0.172818 v -2.335355 c 0,-0.05453 -0.02405,-0.106279 -0.06661,-0.141397 -0.0333,-0.02772 -0.07493,-0.04343 -0.118411,-0.04343 -0.01018,0 -0.0222,0.0018 -0.03238,0.0037 -0.135988,0.02495 -0.275676,0.0305 -0.411664,0.0305 z m 4.961246,-2.322417 c -0.10176,0 -0.185018,0.08318 -0.185018,0.184832 v 8.380293 c 0,0.101657 0.08326,0.184832 0.185018,0.184832 h 2.190608 c 0.101759,0 0.185017,-0.08317 0.185017,-0.184832 V 29.32877 c 0,-0.101657 -0.08326,-0.184832 -0.185017,-0.184832 z M 31.458924,41 c -0.153564,0 -0.277526,-0.123838 -0.277526,-0.277248 v -4.590308 c 0,-0.07948 -0.05181,-0.150638 -0.127662,-0.175591 -0.01943,-0.0065 -0.03885,-0.0092 -0.05736,-0.0092 -0.05828,0 -0.113785,0.02772 -0.149864,0.07671 -0.631835,0.865015 -1.36913,1.657945 -2.191533,2.357535 -0.04996,0.04251 -0.113786,0.06654 -0.180392,0.06654 -0.07771,0 -0.150789,-0.03234 -0.203519,-0.08964 l -0.197969,-0.213481 c -0.08788,-0.09611 -0.09806,-0.242131 -0.0222,-0.348409 1.075877,-1.523018 1.975987,-3.691099 2.53474,-6.104084 0.01295,-0.05453 0,-0.112747 -0.03515,-0.156183 -0.03515,-0.04436 -0.08881,-0.07024 -0.145239,-0.07024 h -1.94731 c -0.127662,0 -0.237747,-0.08595 -0.2692,-0.209785 l -0.08233,-0.329925 c -0.02035,-0.08318 -0.0019,-0.170046 0.05088,-0.23751 0.05273,-0.06746 0.132287,-0.106278 0.219246,-0.106278 h 2.619848 c 0.10176,0 0.185018,-0.08318 0.185018,-0.184832 V 28.45456 c 0,-0.05453 -0.02498,-0.107203 -0.06661,-0.142321 -0.03423,-0.02773 -0.07586,-0.04251 -0.118412,-0.04251 -0.01203,0 -0.0222,9.24e-4 -0.03423,0.0028 -0.818703,0.150638 -1.68551,0.280945 -2.505138,0.376134 h -0.0046 c -0.151714,0 -0.256249,-0.07855 -0.292328,-0.194074 l -0.06661,-0.214405 c -0.04348,-0.14417 0.0333,-0.294808 0.175767,-0.342864 1.95841,-0.668169 4.496851,-1.917634 5.779023,-2.844568 C 34.09635,25.018483 34.15278,25 34.211061,25 c 0.06383,0 0.123961,0.02126 0.173916,0.06099 l 1.977838,1.580315 c 0.06106,0.04898 0.09898,0.122913 0.10361,0.201467 0.0046,0.07855 -0.02498,0.155259 -0.08141,0.210709 -0.02868,0.02957 -0.06013,0.05637 -0.09436,0.07855 -0.06661,0.04621 -0.09621,0.129383 -0.07308,0.207013 0.02313,0.07671 0.09343,0.130306 0.174841,0.13123 0.03608,9.25e-4 0.07123,0.0083 0.104535,0.0231 l 1.741941,0.752268 2.613373,0.01479 c 0.05828,0 0.113786,-0.02773 0.148939,-0.07393 l 0.586506,-0.786461 c 0.05273,-0.07024 0.134137,-0.110899 0.222946,-0.110899 0.0592,0 0.115636,0.01848 0.162815,0.05268 l 1.913082,1.400104 c 0.120261,0.08779 0.148939,0.254144 0.06661,0.377058 -0.09991,0.149714 -0.282152,0.277248 -0.543027,0.377982 -0.07216,0.0268 -0.119336,0.09611 -0.119336,0.171893 v 9.934732 c 0,0.355802 -0.872358,0.754115 -2.040744,0.754115 -0.153564,0 -0.277526,-0.123837 -0.277526,-0.276324 v -1.119159 c 0,-0.101658 -0.08326,-0.184832 -0.185017,-0.184832 h -2.190608 c -0.10176,0 -0.185018,0.08317 -0.185018,0.184832 v 0.740253 c 0,0.204239 -0.343207,0.968521 -2.025017,0.968521 -0.152639,0 -0.277526,-0.123838 -0.277526,-0.277249 v -4.057991 c 0,-0.07024 -0.03978,-0.134003 -0.102685,-0.165425 -0.0259,-0.01294 -0.05458,-0.01941 -0.08233,-0.01941 -0.03978,0 -0.07956,0.01294 -0.111936,0.03881 -0.185942,0.141397 -0.408888,0.216254 -0.644786,0.216254 -0.302503,0 -0.598532,-0.135852 -0.855706,-0.393693 -0.04255,-0.04251 -0.07031,-0.09796 -0.07863,-0.158032 -0.04996,-0.354878 -0.199819,-0.776295 -0.434792,-1.218044 -0.03238,-0.06192 -0.09621,-0.09888 -0.162815,-0.09888 -0.0148,0 -0.03053,0.0018 -0.04533,0.0055 -0.08233,0.02033 -0.140614,0.09519 -0.140614,0.179287 V 40.22925 C 33.396058,40.628487 32.610659,41 31.771604,41 Z"
       id="1"
       fill="#c057ea"
       style="display:inline;stroke:#000000;stroke-opacity:1;stroke-width:0.025;stroke-dasharray:none" />
  </g>
</svg>
