<svg xmlns="http://www.w3.org/2000/svg" width="64" height="64"><rect width="52" height="52" x="6" y="6" fill="#f1ac00" fill-rule="evenodd" stroke="#b88200" stroke-linecap="round" stroke-linejoin="round" stroke-width="2" rx="8" ry="8" style="paint-order:stroke fill markers"/><rect width="52" height="52" x="6" y="6" fill="#f1ac00" fill-rule="evenodd" rx="8" ry="8" style="paint-order:stroke fill markers"/><rect width="44" height="44" x="10" y="10" fill="#fff" fill-rule="evenodd" stroke="#b88200" stroke-linecap="round" stroke-linejoin="round" stroke-width="2" rx="4" ry="4" style="paint-order:stroke fill markers"/><path fill-opacity=".1" d="M10 24h44v1H10zm0 15h44v1H10z"/><path fill="#e3450d" d="M18.92 44.578a.1.1 0 0 1-.043-.008l-2.369-.847a.3.3 0 0 1-.157-.119.34.34 0 0 1-.05-.188.4.4 0 0 1 .008-.081.4.4 0 0 1 .031-.076l.145-.26a.5.5 0 0 1 .132-.148.31.31 0 0 1 .25-.05q.031.006.064.023l2.171 1.275c.058.033.08.107.05.167l-.118.24a.13.13 0 0 1-.114.072m-.722 1.695a.09.09 0 0 0-.078.056l-.587 1.61a.086.086 0 0 0 .08.114h1.237a.09.09 0 0 0 .07-.038.09.09 0 0 0 .009-.079l-.65-1.61a.08.08 0 0 0-.08-.053zm1.24 4.368c-.268 0-.427-.03-.518-.094q-.15-.11-.15-.362c0-.2.09-.3.164-.35.093-.062.247-.092.472-.092h.106a.085.085 0 0 0 .079-.117l-.267-.658a.09.09 0 0 0-.079-.053h-2.014a.08.08 0 0 0-.08.056l-.237.658a.085.085 0 0 0 .08.114h.138c.227 0 .382.03.477.091q.167.109.168.351c0 .208-.082.312-.151.362-.09.064-.25.094-.503.094h-1.194c-.23 0-.372-.03-.46-.095q-.148-.11-.148-.36c0-.202.08-.302.148-.35.079-.057.204-.087.384-.092a.09.09 0 0 0 .077-.055l1.383-3.68a.08.08 0 0 0-.01-.078.08.08 0 0 0-.07-.037h-.355c-.216 0-.362-.03-.46-.096q-.166-.114-.167-.36c0-.164.052-.289.15-.36.065-.047.188-.095.608-.095h1.294c.199 0 .33.03.414.091.079.06.145.156.203.297l1.722 4.32a.09.09 0 0 0 .076.053c.159.006.272.037.348.093q.142.107.142.348 0 .248-.134.357c-.082.068-.21.099-.402.099z"/><path fill="#1595e0" d="M19.613 29.242q-.526.002-.87.47c-.284.425-.416 1.153-.416 2.297 0 .986.149 1.789.417 2.26.213.313.53.49.877.49.872 0 1.278-.877 1.278-2.759 0-1.147-.129-1.876-.404-2.293-.23-.306-.534-.465-.882-.465m-.008 6.192c-1.562 0-2.469-1.109-2.553-3.123a.093.093 0 0 0-.091-.092h-.652c-.05 0-.09.043-.09.096v1.815c0 .383.03.448.062.486.04.038.095.066.392.066a.14.14 0 0 1 .136.143v.34a.14.14 0 0 1-.136.142h-2.197a.14.14 0 0 1-.136-.143v-.34a.14.14 0 0 1 .136-.142c.452 0 .494-.046.494-.552v-4.26c0-.384-.029-.447-.063-.485-.039-.038-.097-.068-.431-.068a.14.14 0 0 1-.136-.143v-.339a.14.14 0 0 1 .136-.142h2.197a.14.14 0 0 1 .136.142v.34a.14.14 0 0 1-.136.142c-.293 0-.35.027-.383.054-.044.053-.071.119-.071.5v1.551c0 .053.04.096.09.096h.67a.093.093 0 0 0 .09-.088c.15-1.82 1.078-2.865 2.544-2.865 1.637 0 2.576 1.252 2.576 3.434 0 1.16-.242 2.048-.72 2.637-.455.521-1.1.797-1.864.797"/><path fill="#c057ea" d="M17.863 13.951a.1.1 0 0 0-.03.005c-.198.068-.437.14-.752.225a.09.09 0 0 0-.068.087v1.193a.09.09 0 0 0 .092.09.09.09 0 0 0 .074-.039l.315-.453a.14.14 0 0 1 .091-.057h.01c.045 0 .072.01.095.028l.481.382a.1.1 0 0 0 .056.02.09.09 0 0 0 .09-.091v-1.125a.14.14 0 0 1 .037-.092.09.09 0 0 0 .012-.107.09.09 0 0 0-.099-.043.6.6 0 0 1-.136.015 1 1 0 0 1-.245-.035zm-.758 2.09c-.05 0-.092.04-.092.09v.498c0 .04.027.076.065.087.495.15.86.353 1.081.604a.09.09 0 0 0 .1.025.09.09 0 0 0 .06-.085v-1.146a.09.09 0 0 0-.09-.09q-.01 0-.017.002a1 1 0 0 1-.202.015zm2.433-1.14a.09.09 0 0 0-.09.09v4.112c0 .05.04.09.09.09h1.075c.05 0 .09-.04.09-.09v-4.111a.09.09 0 0 0-.09-.09zm-3.501 5.816a.136.136 0 0 1-.136-.136V18.33a.09.09 0 0 0-.091-.091.09.09 0 0 0-.074.038 6.7 6.7 0 0 1-1.075 1.156.137.137 0 0 1-.188-.011l-.097-.105a.14.14 0 0 1-.011-.17c.528-.748.97-1.812 1.243-2.995a.09.09 0 0 0-.088-.111h-.955a.136.136 0 0 1-.132-.103l-.04-.162a.136.136 0 0 1 .132-.169h1.285c.05 0 .09-.04.09-.09v-.954a.1.1 0 0 0-.032-.07.1.1 0 0 0-.075-.02c-.401.075-.827.139-1.229.185h-.002c-.074 0-.126-.038-.143-.095l-.033-.105a.135.135 0 0 1 .086-.168c.96-.328 2.206-.941 2.835-1.396a.14.14 0 0 1 .165.004l.97.776a.134.134 0 0 1 .01.202.3.3 0 0 1-.045.038.09.09 0 0 0 .05.166q.027 0 .051.012l.855.369 1.282.007a.1.1 0 0 0 .073-.036l.288-.386a.136.136 0 0 1 .189-.029l.938.687a.136.136 0 0 1 .033.185.55.55 0 0 1-.266.185.09.09 0 0 0-.059.085v4.873c0 .175-.428.37-1 .37a.136.136 0 0 1-.137-.135v-.55a.09.09 0 0 0-.09-.09h-1.075a.09.09 0 0 0-.091.09v.364c0 .1-.169.475-.994.475a.136.136 0 0 1-.136-.136v-1.99a.09.09 0 0 0-.145-.072.52.52 0 0 1-.317.106.6.6 0 0 1-.42-.193.14.14 0 0 1-.038-.078 1.9 1.9 0 0 0-.213-.597.09.09 0 0 0-.102-.046.09.09 0 0 0-.07.088v2.701c-.026.196-.411.378-.823.378z"/></svg>