<svg width="64" height="64" version="1.1" viewBox="0 0 64 64" xmlns="http://www.w3.org/2000/svg">
 <title>Linux/128x128</title>
 <rect x="6" y="6" width="52" height="52" rx="8" ry="8" fill="#f1ac00" fill-rule="evenodd" stop-color="#000000" stroke="#b88200" stroke-linecap="round" stroke-linejoin="round" stroke-width="2" style="paint-order:stroke fill markers"/>
 <rect x="6" y="6" width="52" height="52" rx="8" ry="8" fill="#f1ac00" fill-rule="evenodd" stop-color="#000000" style="paint-order:stroke fill markers"/>
 <rect x="10" y="10" width="44" height="44" rx="4" ry="4" fill="#ffffff" fill-rule="evenodd" stop-color="#000000" stroke="#b88200" stroke-linecap="round" stroke-linejoin="round" stroke-width="2" style="paint-order:stroke fill markers"/>
 <rect id="Separator" x="10" y="24" width="44" height="1" fill="#000000" fill-opacity=".1"/>
 <rect x="10" y="39" width="44" height="1" fill="#000000" fill-opacity=".1"/>
 <path d="m18.92 44.578c-0.014 0-0.02843-0.0026-0.04285-0.0077l-2.3691-0.84716c-0.07001-0.02514-0.12177-0.06435-0.15698-0.11889-0.03309-0.05114-0.04964-0.11463-0.04964-0.18835 0-0.03068 0.0021-0.0571 0.0076-0.08097 0.0034-0.01534 0.02334-0.06349 0.0314-0.07628l0.14468-0.26037c0.03861-0.06392 0.08231-0.11293 0.13237-0.14744 0.05473-0.03921 0.11795-0.05881 0.18286-0.05881 0.01103 0 0.05515 0.0051 0.06661 0.0081 0.02079 0.0051 0.04285 0.01321 0.06406 0.02429l2.1714 1.2742c0.05728 0.03366 0.07934 0.10696 0.04964 0.16705l-0.11795 0.24119c-0.02121 0.04346-0.06576 0.07117-0.11413 0.07117zm-0.72211 1.6952c-0.03479 4.25e-4 -0.06576 0.02258-0.07807 0.05582l-0.58719 1.61c-0.0093 0.02557-0.0055 0.05497 0.01018 0.07756 0.01612 0.02301 0.042 0.03665 0.06958 0.03665h1.2376c0.028 0 0.05473-0.01407 0.07043-0.03793 0.0157-0.02301 0.01867-0.05327 0.0085-0.07926l-0.65084-1.6095c-0.01273-0.03239-0.04413-0.05327-0.07849-0.05327zm1.2397 4.3679c-0.26729 0-0.42682-0.02938-0.51719-0.09418-0.0997-0.07244-0.15019-0.19389-0.15019-0.36179 0-0.20029 0.0891-0.30085 0.16377-0.35029 0.09334-0.06179 0.24735-0.09162 0.47179-0.09162h0.10649c0.028 0 0.05431-0.01408 0.07043-0.03792 0.0157-0.02301 0.01867-0.05327 0.0081-0.07926l-0.26729-0.65796c-0.01315-0.03196-0.04413-0.05327-0.07849-0.05327h-2.014c-0.03564 0-0.06788 0.02216-0.07976 0.05625l-0.23721 0.65796c-0.0093 0.02599-0.0055 0.05497 0.01018 0.07798 0.0157 0.02257 0.042 0.0362 0.06958 0.0362h0.13831c0.22656 0 0.38227 0.02938 0.47731 0.09119 0.11074 0.07159 0.16716 0.18963 0.16716 0.35072 0 0.20838-0.08188 0.31193-0.15062 0.36179-0.0891 0.06394-0.24905 0.09419-0.50319 0.09419h-1.1935c-0.22996 0-0.37209-0.02938-0.46118-0.09545-0.09801-0.07202-0.14722-0.19347-0.14722-0.36051 0-0.20072 0.08061-0.30085 0.1485-0.34944 0.07849-0.05668 0.20408-0.08651 0.38354-0.09162 0.03436-0.0015 0.06491-0.02301 0.07679-0.05539l1.3831-3.6793c0.0098-0.02599 0.0064-0.0554-0.0098-0.07798-0.0157-0.02344-0.04158-0.03707-0.06958-0.03707h-0.35554c-0.21553 0-0.36148-0.03068-0.45949-0.09673-0.11074-0.075-0.16716-0.19645-0.16716-0.35881 0-0.16492 0.05219-0.28978 0.15062-0.36137 0.06449-0.04687 0.18753-0.0946 0.60756-0.0946h1.2932c0.19898 0 0.33051 0.0294 0.41409 0.09119 0.07891 0.05923 0.1451 0.15639 0.20323 0.29744l1.7221 4.3193c0.0123 0.0311 0.042 0.05242 0.07552 0.05369 0.1591 6e-3 0.27281 0.0362 0.34833 0.09247 0.09376 0.07117 0.14171 0.18793 0.14171 0.34816 0 0.16449-0.04498 0.28423-0.13322 0.35668-0.08273 0.06776-0.21044 0.09929-0.40264 0.09929z" fill="#e3450d"/>
 <path d="m19.613 29.242c-0.34909 0-0.64151 0.15853-0.86909 0.47037-0.28471 0.42419-0.41664 1.1531-0.41664 2.2966 0 0.98596 0.14825 1.7886 0.41664 2.2595 0.21263 0.31374 0.53043 0.49036 0.87726 0.49036 0.87182 0 1.2776-0.87646 1.2776-2.7584 0-1.1474-0.1283-1.8762-0.40349-2.2933-0.23031-0.30612-0.53406-0.46513-0.88224-0.46513m-0.0082 6.1924c-1.5618 0-2.4686-1.1093-2.5533-3.1236-0.0018-0.05094-0.04216-0.09141-0.09067-0.09141h-0.65148c-0.04987 0-0.09067 0.04285-0.09067 0.09569v1.8148c0 0.38277 0.02947 0.44799 0.06211 0.48655 0.0399 0.03714 0.09566 0.0657 0.3917 0.0657 0.07526 0 0.13601 0.06427 0.13601 0.14282v0.33944c0 0.07855-0.06075 0.14282-0.13601 0.14282h-2.197c-0.07526 0-0.13601-0.06427-0.13601-0.14282v-0.33944c0-0.07855 0.06075-0.14282 0.13601-0.14282 0.45246 0 0.49416-0.04618 0.49416-0.55225v-4.2585c0-0.3842-0.02856-0.44704-0.06302-0.48512-0.03853-0.03809-0.09702-0.06808-0.43115-0.06808-0.07526 0-0.13601-0.06379-0.13601-0.14282v-0.33897c0-0.07903 0.06075-0.14282 0.13601-0.14282h2.197c0.07526 0 0.13601 0.06379 0.13601 0.14282v0.33897c0 0.07903-0.06075 0.14282-0.13601 0.14282-0.29287 0-0.34954 0.02666-0.38218 0.0538-0.04397 0.05285-0.07163 0.11902-0.07163 0.49941v1.552c0 0.05237 0.0408 0.09522 0.09067 0.09522h0.66871c0.04715 0 0.08614-0.03809 0.09022-0.08712 0.15097-1.821 1.0785-2.865 2.5447-2.865 1.6366 0 2.5756 1.2511 2.5756 3.434 0 1.1602-0.2421 2.0476-0.71903 2.637-0.45563 0.52083-1.1008 0.79696-1.8647 0.79696" fill="#1595e0"/>
 <path d="m17.863 13.951c-0.01 0-0.01951 0.0018-0.02905 5e-3 -0.19922 0.06755-0.43839 0.13918-0.75334 0.22487-0.03948 0.01088-0.06716 0.0467-0.06716 0.0875v1.1928c0 0.03944 0.02632 0.07435 0.06399 0.08614 0.0091 0.0032 0.01815 0.0045 0.02723 0.0045 0.02905 0 0.05718-0.01405 0.07443-0.03944l0.31448-0.45292c0.02133-0.03083 0.05491-0.05123 0.09167-0.05712h0.0095c0.04538 0 0.07216 0.01 0.0953 0.02811l0.48105 0.38173c0.01634 0.0127 0.03631 0.01995 0.05627 0.01995 0.01361 0 0.02678-0.0032 0.03948-0.0091 0.03131-0.01541 0.05128-0.04715 0.05128-0.08206v-1.1248c0-0.03446 0.01271-0.0671 0.03631-0.09203 0.02677-0.02947 0.03177-0.07254 0.01135-0.10699-0.01634-0.02856-0.04629-0.04534-0.07806-0.04534-0.0068 0-0.01361 8.83e-4 -0.02042 0.0023-0.0422 0.0095-0.08804 0.01451-0.1366 0.01451-0.07533 0-0.15566-0.01133-0.24461-0.03446-0.0077-0.0023-0.01543-0.0032-0.02314-0.0032zm-0.75833 2.0895c-0.05037 0-0.09122 0.0408-0.09122 0.09067v0.49824c0 0.04035 0.02678 0.07526 0.0649 0.08704 0.49511 0.14961 0.85908 0.35272 1.081 0.60342 0.0177 0.01995 0.04266 0.03083 0.06807 0.03083 0.01089 0 0.02178-0.0018 0.03222-0.0059 0.0354-0.01315 0.05854-0.04715 0.05854-0.08478v-1.1456c0-0.02675-0.0118-0.05214-0.03268-0.06937-0.01634-0.0136-0.03676-0.02131-0.05809-0.02131-5e-3 0-0.01089 8.83e-4 -0.01588 0.0018-0.06671 0.01224-0.13524 0.01496-0.20195 0.01496zm2.4338-1.1393c-0.04992 0-0.09076 0.0408-0.09076 0.09067v4.1111c0 0.04987 0.04085 0.09067 0.09076 0.09067h1.0746c0.04992 0 0.09076-0.0408 0.09076-0.09067v-4.1111c0-0.04987-0.04084-0.09067-0.09076-0.09067zm-3.5016 5.8162c-0.07533 0-0.13614-0.06075-0.13614-0.13601v-2.2518c0-0.03899-0.02542-0.0739-0.06263-0.08614-0.0095-0.0032-0.01906-0.0045-0.02814-0.0045-0.02859 0-0.05582 0.0136-0.07352 0.03763-0.30996 0.42435-0.67165 0.81333-1.0751 1.1565-0.02451 0.02085-0.05582 0.03264-0.08849 0.03264-0.03812 0-0.07397-0.01586-0.09984-0.04397l-0.09712-0.10473c-0.04311-0.04715-0.0481-0.11878-0.01089-0.17092 0.52779-0.74714 0.96935-1.8107 1.2435-2.9945 0.0064-0.02675 0-0.05531-0.01724-0.07662-0.01724-0.02176-0.04357-0.03446-0.07125-0.03446h-0.95528c-0.06263 0-0.11663-0.04216-0.13206-0.10291l-0.04039-0.16185c-0.01-0.04081-9.32e-4 -0.08342 0.02496-0.11652 0.02587-0.03309 0.06489-0.05214 0.10755-0.05214h1.2852c0.04992 0 0.09076-0.04081 0.09076-0.09067v-0.95342c0-0.02675-0.01225-0.05259-0.03268-0.06982-0.01679-0.0136-0.03722-0.02085-0.05809-0.02085-0.0059 0-0.01089 4.54e-4 -0.01679 0.0014-0.40163 0.0739-0.82685 0.13782-1.2289 0.18452h-0.0023c-0.07443 0-0.12571-0.03853-0.14341-0.09521l-0.03268-0.10518c-0.02133-0.07073 0.01634-0.14462 0.08622-0.1682 0.96073-0.32778 2.206-0.94073 2.835-1.3954 0.02359-0.01681 0.05127-0.02588 0.07986-0.02588 0.03131 0 0.06081 0.01043 0.08532 0.02992l0.97026 0.77525c0.02995 0.02403 0.04856 0.0603 0.05083 0.09883 0.0023 0.03853-0.01225 0.07616-0.03994 0.10337-0.01407 0.01451-0.0295 0.02765-0.04629 0.03853-0.03268 0.02267-0.0472 0.06347-0.03585 0.10155 0.01135 0.03763 0.04583 0.06392 0.08577 0.06438 0.0177 4.54e-4 0.03494 0.0041 0.05128 0.01133l0.85454 0.36904 1.282 0.0073c0.02859 0 0.05582-0.0136 0.07306-0.03627l0.28772-0.38581c0.02587-0.03446 0.0658-0.0544 0.10937-0.0544 0.02904 0 0.05673 0.0091 0.07987 0.02584l0.93849 0.68684c0.059 0.04307 0.07306 0.12468 0.03268 0.18497-0.04901 0.07344-0.13842 0.13601-0.26639 0.18542-0.0354 0.01315-0.05854 0.04715-0.05854 0.08432v4.8736c0 0.17454-0.42795 0.36994-1.0011 0.36994-0.07533 0-0.13614-0.06075-0.13614-0.13556v-0.54902c0-0.04987-0.04084-0.09067-0.09076-0.09067h-1.0746c-0.04992 0-0.09076 0.0408-0.09076 0.09067v0.36314c0 0.10019-0.16837 0.47512-0.9934 0.47512-0.07488 0-0.13614-0.06075-0.13614-0.13601v-1.9907c0-0.03446-0.01951-0.06574-0.05037-0.08115-0.01271-0.0063-0.02678-0.0095-0.04039-0.0095-0.01951 0-0.03903 0.0063-0.05491 0.01904-0.09122 0.06936-0.20059 0.10609-0.31631 0.10609-0.1484 0-0.29362-0.06665-0.41978-0.19313-0.02087-0.02085-0.03449-0.04806-0.03857-0.07753-0.02451-0.17409-0.09802-0.38082-0.2133-0.59753-0.01588-0.03038-0.0472-0.04851-0.07987-0.04851-0.0073 0-0.01498 8.83e-4 -0.02224 0.0027-0.04039 0.01-0.06898 0.0467-0.06898 0.08795v2.7016c-0.02632 0.19585-0.41162 0.3781-0.82323 0.3781z" fill="#c057ea"/>
</svg>
