<svg width="64" height="64" version="1.1" xmlns="http://www.w3.org/2000/svg">
 <path d="m5.9988 6.9993c-1.1046 0-1.9988 0.90182-1.9988 2.0152v45.969c4e-7 1.1134 0.89426 2.0152 1.9988 2.0152h5.8625c1.1046 0 2.1445-0.90183 2.1387-2.0152v-37.984h2.0012c1.1046 0 2.4896-0.04184 3.5656 0.1996 2.0802 0.46679 3.7507 1.7504 4.2138 3.8472 0.23955 1.0846 0.21875 2.9033 0.21875 4.0167v29.92c0 1.1134 0.47574 2.0152 1.5803 2.0152h6.46c1.1046 0 1.9605-0.90182 1.9605-2.0152v-5.9843h8.0004v5.9843c0 1.1134 0.95441 2.0152 2.059 2.0152h5.92c1.1046 0 2.0245-0.90182 2.0207-2.0152v-5.9843h6.0118c1.1134 0 1.9879-0.91611 1.9879-2.0207v-5.92c0-1.1045-0.87504-2.0242-1.9879-2.0589h-6.0118v-6.0127c0-1.1134-0.91613-1.9878-2.0207-1.9878h-5.92c-1.1046 0-2.059 0.87447-2.059 1.9878v6.0127h-8.0004v-13.856c0-1.1134 0.05208-2.9232-0.08204-4.0276-0.80859-6.6612-6.1409-12.858-12.489-13.948-1.0876-0.18672-2.3243-0.16953-3.4289-0.16953z" fill="#ffa834" stroke="#d1831a" stroke-width="2"/>
 <path d="m5.9988 6.9993c-1.1046 0-1.9988 0.90182-1.9988 2.0152v45.969c4e-7 1.1134 0.89426 2.0152 1.9988 2.0152h5.8625c1.1046 0 2.1445-0.90183 2.1387-2.0152v-37.984h2.0012c1.1046 0 2.4896-0.04184 3.5656 0.1996 2.0802 0.46679 3.7507 1.7504 4.2138 3.8472 0.23955 1.0846 0.21875 2.9033 0.21875 4.0167v29.92c0 1.1134 0.47574 2.0152 1.5803 2.0152h6.46c1.1046 0 1.9605-0.90182 1.9605-2.0152v-5.9843h8.0004v5.9843c0 1.1134 0.95441 2.0152 2.059 2.0152h5.92c1.1046 0 2.0245-0.90182 2.0207-2.0152v-5.9843h6.0118c1.1134 0 1.9879-0.91611 1.9879-2.0207v-5.92c0-1.1045-0.87504-2.0242-1.9879-2.0589h-6.0118v-6.0127c0-1.1134-0.91613-1.9878-2.0207-1.9878h-5.92c-1.1046 0-2.059 0.87447-2.059 1.9878v6.0127h-8.0004v-13.856c0-1.1134 0.05208-2.9232-0.08204-4.0276-0.80859-6.6612-6.1409-12.858-12.489-13.948-1.0876-0.18672-2.3243-0.16953-3.4289-0.16953z" fill="#ffa834" stroke-width=".99999"/>
</svg>
