<svg xmlns="http://www.w3.org/2000/svg" width="64" height="64"><path fill="#ffa834" stroke="#d1831a" stroke-width="2" d="M5.999 7A2.006 2.006 0 0 0 4 9.014v45.969c0 1.113.894 2.015 1.999 2.015h5.862c1.105 0 2.145-.902 2.139-2.016V17h2.001c1.105 0 2.49-.042 3.566.2 2.08.466 3.75 1.75 4.214 3.846.24 1.085.218 2.904.218 4.017v29.92c0 1.113.476 2.015 1.58 2.015h6.46c1.105 0 1.961-.902 1.961-2.015v-5.984h8v5.984c0 1.113.955 2.015 2.06 2.015h5.92A2.023 2.023 0 0 0 52 54.983v-5.984h6.012c1.113 0 1.988-.916 1.988-2.021v-5.92a2.06 2.06 0 0 0-1.988-2.059H52v-6.013C52 31.873 51.084 31 49.98 31h-5.92c-1.105 0-2.06.874-2.06 1.987V39h-8V25.143c0-1.113.052-2.923-.082-4.027-.808-6.662-6.14-12.858-12.489-13.948-1.087-.187-2.324-.17-3.429-.17z"/><path fill="#ffa834" d="M5.999 7A2.006 2.006 0 0 0 4 9.014v45.969c0 1.113.894 2.015 1.999 2.015h5.862c1.105 0 2.145-.902 2.139-2.016V17h2.001c1.105 0 2.49-.042 3.566.2 2.08.466 3.75 1.75 4.214 3.846.24 1.085.218 2.904.218 4.017v29.92c0 1.113.476 2.015 1.58 2.015h6.46c1.105 0 1.961-.902 1.961-2.015v-5.984h8v5.984c0 1.113.955 2.015 2.06 2.015h5.92A2.023 2.023 0 0 0 52 54.983v-5.984h6.012c1.113 0 1.988-.916 1.988-2.021v-5.92a2.06 2.06 0 0 0-1.988-2.059H52v-6.013C52 31.873 51.084 31 49.98 31h-5.92c-1.105 0-2.06.874-2.06 1.987V39h-8V25.143c0-1.113.052-2.923-.082-4.027-.808-6.662-6.14-12.858-12.489-13.948-1.087-.187-2.324-.17-3.429-.17z"/></svg>