<svg xmlns="http://www.w3.org/2000/svg" width="64" height="64" image-rendering="optimizeSpeed"><rect width="54" height="54" x="5" y="5" fill="#157dff" stroke="#1862bf" stroke-width="2" rx="27" ry="27"/><rect width="54" height="54" x="5" y="5" fill="#157dff" rx="27" ry="27"/><g transform="translate(3.2 3.2)scale(.89999)"><path fill="#fff" d="M31.957 2.002c-.105 0-.21.007-.314.008v3.607h-4.91v-3.15q-.18.03-.358.062v3.088h-4.912V3.893c-.105.039-.207.083-.31.123v1.601h-3.485c-.185.1-.363.209-.545.313h4.03v4.914H16.24V6.447q-.157.099-.312.2v4.197h-4.955v-.272q-.315.31-.62.63h.309v4.911H6.529c-.066.106-.136.208-.201.315h4.334v4.914H5.75v-3.906q-.16.289-.313.582v3.324H3.941c-.04.105-.084.207-.123.312h1.62v4.913H2.495q-.034.178-.064.357h3.005v4.914H2.004c0 .054-.004.108-.004.162 0 .05.004.1.004.15h3.433v4.915H2.43q.031.178.064.355h2.943v4.914H3.814q.06.157.122.313h1.502v3.336q.152.293.312.582v-3.918h4.912v4.914h-4.34c.064.105.133.206.198.31h4.142v4.96h-.277q.29.302.588.597v-.283h4.955v4.209q.155.1.312.199v-4.408h4.912v4.91h-4.056c.183.105.363.214.549.314h3.508v1.616c.103.04.206.084.31.123v-1.739h4.912v3.102q.178.032.358.063v-3.165h4.91v3.622c.104 0 .208.007.312.007V58.37h4.91v3.237c.106-.017.21-.039.315-.057v-3.18h4.955v1.885q.157-.055.313-.111V58.37h3.908c.185-.1.365-.21.549-.314h-4.457v-4.91h4.91v4.65q.157-.092.312-.185v-4.465h4.912v.707q.18-.167.356-.338v-.37h.379c.102-.102.198-.21.299-.314h-.678v-4.959h4.543c.065-.104.134-.205.197-.31h-4.74v-4.914h4.91v4.619q.159-.27.313-.545v-4.074h1.904c.04-.105.083-.208.121-.313h-2.025V37.42h3.345q.034-.177.065-.355h-3.41V32.15h3.835q.002-.075.004-.15-.001-.082-.004-.163h-3.835v-4.914h3.408q-.031-.18-.065-.357h-3.343v-4.913h2.021c-.038-.105-.083-.207-.123-.312h-1.898v-4.063a30 30 0 0 0-.313-.544v4.607h-4.91v-4.914h4.734c-.064-.107-.135-.209-.2-.315h-4.534V11.2h.709q-.17-.18-.342-.357h-.367v-.358q-.176-.17-.356-.337v.695H47.67V6.39q-.155-.094-.312-.186v4.639h-4.91V5.93h4.43c-.183-.104-.361-.213-.546-.313h-3.884v-1.76q-.157-.056-.313-.11v1.87H37.18V2.451c-.105-.018-.21-.04-.314-.056v3.222h-4.909zM21.463 5.93h4.912v4.914h-4.912zm5.27 0h4.91v4.914h-4.91zm5.224 0h4.908v4.914h-4.908zm5.223 0h4.955v4.914H37.18zM10.973 11.2h4.955v4.912h-4.955zm5.267 0h4.913v4.912H16.24zm5.223 0h4.912v4.912h-4.912zm5.27 0h4.91v4.912h-4.91zm5.224 0h4.908v4.912h-4.908zm5.223 0h4.955v4.912H37.18zm5.268 0h4.91v4.912h-4.91zm5.222 0h4.912v4.912H47.67zm-36.697 5.227h4.955v4.914h-4.955zm5.268 0h4.912v4.914H16.24zm5.223 0h4.912v4.914h-4.912zm5.269 0h4.91v4.914h-4.91zm5.225 0h4.908v4.914h-4.908zm5.222 0h4.955v4.914H37.18zm5.268 0h4.91v4.914h-4.91zm5.223 0h4.912v4.914H47.67zM5.75 21.654h4.912v4.913H5.75zm5.222 0h4.955v4.913h-4.955zm5.268 0h4.912v4.913H16.24zm5.223 0h4.912v4.913h-4.912zm5.27 0h4.91v4.913h-4.91zm5.224 0h4.908v4.913h-4.908zm5.222 0h4.956v4.913H37.18zm5.268 0h4.91v4.913h-4.91zm5.223 0h4.912v4.913H47.67zm5.267 0h4.91v4.913h-4.91zM5.75 26.924h4.912v4.914H5.75zm5.223 0h4.955v4.914h-4.955zm5.268 0h4.912v4.914H16.24zm5.222 0h4.912v4.914h-4.912zm5.27 0h4.91v4.914h-4.91zm5.224 0h4.909v4.914h-4.909zm5.223 0h4.955v4.914H37.18zm5.268 0h4.91v4.914h-4.91zm5.222 0h4.913v4.914H47.67zm5.268 0h4.91v4.914h-4.91zM5.75 32.15h4.912v4.914H5.75zm5.223 0h4.955v4.914h-4.955zm5.267 0h4.912v4.914H16.24zm5.223 0h4.912v4.914h-4.912zm5.27 0h4.91v4.914h-4.91zm5.224 0h4.908v4.914h-4.908zm5.223 0h4.955v4.914H37.18zm5.267 0h4.91v4.914h-4.91zm5.223 0h4.912v4.914H47.67zm5.268 0h4.91v4.914h-4.91zM5.75 37.42h4.912v4.914H5.75zm5.222 0h4.956v4.914h-4.956zm5.268 0h4.912v4.914H16.24zm5.223 0h4.912v4.914h-4.912zm5.27 0h4.91v4.914h-4.91zm5.224 0h4.908v4.914h-4.908zm5.223 0h4.955v4.914H37.18zm5.267 0h4.91v4.914h-4.91zm5.223 0h4.912v4.914H47.67zm5.267 0h4.91v4.914h-4.91zm-41.965 5.227h4.956v4.914h-4.956zm5.268 0h4.912v4.914H16.24zm5.223 0h4.912v4.914h-4.912zm5.27 0h4.91v4.914h-4.91zm5.224 0h4.908v4.914h-4.908zm5.223 0h4.955v4.914H37.18zm5.267 0h4.91v4.914h-4.91zm5.223 0h4.912v4.914H47.67zM10.973 47.87h4.955v4.96h-4.955zm5.267 0h4.913v4.96H16.24zm5.223 0h4.912v4.96h-4.912zm5.27 0h4.91v4.96h-4.91zm5.224 0h4.908v4.96h-4.908zm5.223 0h4.955v4.96H37.18zm5.268 0h4.91v4.96h-4.91zm5.222 0h4.912v4.96H47.67zm-26.207 5.274h4.912v4.91h-4.912zm5.27 0h4.91v4.91h-4.91zm5.224 0h4.909v4.91h-4.909zm5.223 0h4.955v4.91H37.18z" opacity=".1"/><path fill="#fff" d="M21.443 4.676c-.368.078-.752.654-1.19.861-.271.126-.66.272-.933.22-.177-.03-.533-.291-.56-.634-.003-.03.006-.045.007-.07A30 30 0 0 0 6.382 16.342c.032.008.063.003.096.015-.06.051-.124.093-.188.137a29.8 29.8 0 0 0-3.134 7.229c.277-.242.593-.442.894-.62.308-.181.555-.5.822-.634.378-.19.656-.234.97-.41.565-.318 1.051-.574 1.493-.934.205-.482.013-1.133.037-1.61.205-.121.383.062.6.032.341-.077.365-.552.559-.744.11-.107.42-.191.56-.301.34-.266.451-.665.748-.78.107-.035.354-.03.522-.083.222-.065.536-.324.896-.448.234-.085.77-.097.86-.187.11-.108 0-.429.037-.598.18-.843 1.45-1.023 2.2-1.306.527-.201 1.067-.562 1.645-.45-.113.401-.654.261-.562.748.127.675 1.03-.199 1.27-.298.455-.192 1.234-.31 1.831-.526.524-.19 1.463-.482.969-1.082-.412-.018-.61.483-.969.637-.248.031-.203-.207-.414-.227-.2-.015-.315.187-.521.153-.206-.032-.492-.358-.524-.598-.082-.623.527-.88.785-1.344-.17-.564-.948-.112-1.42-.338.046-.335.393-.57.786-.634.321-.059 1.04-.016 1.232.15.112.094.014.33.188.486.19.173.423.156.67.11.09-.426-.555-.318-.485-.6.505-.33 1.324-.063 1.942-.15.355-.056.731-.307 1.046-.485.3-.17.689-.466 1.006-.187.087.305-.277.408-.447.56-.571.509-1.161 1.092-1.605 1.682.272.266.771.13 1.232.187.18.017.405.082.596.106.222.034.46.025.634.078.314.083.4.414.71.414.51 0 .515-.555.226-.9.091-.353.236-.535.111-.782-.23-.46-1.075 0-1.119-.597-.027-.373.31-.356.446-.635-.062-.72.595-.774.525-1.42-.03-.27-.26-.27-.45-.523-.097-.128-.141-.387-.26-.487-.39-.33-1.185-.264-1.233-.894-.018-.372.09-.682.039-1.086-.048-.376-.306-1.42-.635-1.492a.4.4 0 0 0-.156 0m25.363 1.213c-.235.176-.48.423-.527.535-.113.265.027.56 0 .969.213.093.343.511.707.71.137.082.326.04.449.11.213.114.381.385.338.598-.063.306-.466.22-.674.447.036.435-.302.496-.41.787.065.183.342.15.37.37-.04.237-.463.273-.37.524.4.312.813-.068 1.191-.107.835-.102 1.694.1 2.207-.3-.07-.4.415-.539.371-.895-.033-.269-.477-.3-.674-.487-.104-.099-.133-.33-.261-.523-.147-.221-.434-.38-.598-.596-.22-.291-.67-.713-.67-.935.001-.105.058-.178.125-.252a30 30 0 0 0-1.574-.955m-1.297 1.89v.01c-.192 0-.383.043-.539.135-.284.173-.376.441-.596.525-.302.11-.517.014-.562.297-.037.23.194.343.187.559-.11.275-.431.342-.486.674.378.617 1.286.071 1.756-.08.211-.068.52-.06.635-.223.13-.197.015-.538.113-.824.108-.314.408-.355.371-.635-.033-.255-.456-.443-.879-.438m6.607 1.932c-.032.045-.055.089-.091.133-.214.257-.616.535-.934.672-.155.072-.342.061-.484.152-.21.135-.283.476-.522.637-.171.11-.827.443-1.008.447-.212 0-.41-.198-.562-.152-.224.076-.195.51-.447.6-.495.175-1.322-.441-1.494.296.212.428.75.325 1.12.56.234.146.723.797.784 1.048.052.211-.025 1.045-.111 1.269-.231.596-.77.39-1.456.375-.187 0-.387.052-.56.03-1.156-.085-2.316-.488-2.838.335.042.634.175 1.058.035 1.61-.103.404-.463.768-.445 1.119.009.18.218.353.262.597.022.128-.06.406 0 .524.19.368.705.06 1.043.105.33.054.716.531.712.9-.002.258-.25.684-.414.932-.326.495-.763.521-1.23.786-.39.22-.555.588-.783.972-.247.415-.403.667-.301 1.268-.334.662-.838 1.07-1.53 1.385-.204.093-.486.12-.673.261-.15.105-.233.395-.446.633-.26.293-.536.41-.673.633-.107.174-.145.517-.262.748-.16.313-.5.467-.71.785-.095.149-.152.442-.259.635-.236.43-.64.745-.597 1.123.043.366.456.427.484.746.017.18-.12.29-.111.486.011.287.202.487.224.707.057.555-.196.78-.3 1.159-.05.181-.028.381-.075.523-.091.277-.477.533-.484.861-.004.235.242.419.262.746.013.226-.116.465-.077.672.08.407.804.882 1.12 1.198.422.422.976.75 1.158 1.195.153.378.155.873.449 1.158.218.21.58.341.86.56.26.203.542.38.82.596.454.356 1.143 1.063 1.867 1.008.378-.02.764-.334 1.193-.41a6 6 0 0 1 1.457-.078c.342.031.689.24 1.043.222.374-.015.81-.3 1.235-.486.736-.32 1.836-.751 2.912-.594.819.114.778 1.059 1.345 1.418.66.06 1.196-.24 1.717-.107.394.098.857.698.895 1.01.038.324-.176.806-.223 1.006-.103.436-.11.956-.187 1.232-.06.215-.227.349-.223.563.003.196.248.674.45.931.244.315.633.557.93.899.244.277.42.584.579.908A29.9 29.9 0 0 0 61.999 32c0-2.515-.31-4.954-.888-7.285-.322-.098-.666-.393-1.098-.487-.222-.05-.534-.014-.707-.082-.407-.14-.358-.536-.709-.783a3.1 3.1 0 0 0-1.047-.375c-.2-.016-.386.068-.598.033-.25-.022-.608-.206-.82-.336-.203-.118-.618-.307-.67-.484-.08-.275.502-.592.522-.826.013-.177-.219-.287-.262-.559-.025-.165.068-.335.037-.445-.055-.192-.371-.408-.672-.412-.266 0-.519.215-.746.222-.328.015-.865-.18-1.271-.15-.25.015-.477.166-.71.184-.65.054-1.176-.024-1.68 0-.366.016-1 .145-1.34.302-.174.084-.303.261-.526.373-.101.047-.24.046-.373.108-.212.096-.433.322-.635.373-.292.076-.742-.063-1.27-.031-.379.015-1 .017-1.006-.448-.009-.69 1.174-.44 1.827-.562.246-.044.38-.273.674-.447.14-.087.315-.096.447-.186.226-.158.566-.53.6-.709.029-.167-.096-.4-.077-.523.026-.16.208-.324.41-.524.315-.31.66-.73 1.047-.933.264-.134.623-.124.744-.338.028-.24-.042-.378-.037-.596.162-.149.275-.268.41-.297.403-.09.803.278 1.272.258.203 0 .38-.157.598-.299.183-.115.38-.205.558-.297.197-.1.396-.32.635-.336.587-.031.817.617 1.084.971.223.295.864.803 1.23 1.01.207.11.484.113.711.222.22.1.532.309.813.545a30 30 0 0 0-6.36-8.14M8.51 15.377v.002c.19 0 .356.026.434.101-.122.494-1.18.364-1.568.186.025-.185.314-.236.558-.262.173-.015.387-.03.576-.027m46.297.898c-.281 0-.454.6-.054.67.171-.1.304-.245.262-.56-.072-.083-.142-.106-.208-.106zm-.074 1.051c-.142.015-.306.096-.467.264.01.417.047.683-.035 1.045.24.46.774.047.897-.262.132-.712-.082-1.068-.395-1.047m4.32 1.647c-.061.13-.142.251-.119.388a.5.5 0 0 0 .28-.033c-.055-.118-.104-.238-.16-.355zm-1.462.42v.002c-.238.015-.452.06-.598.173.273.448.843.597 1.455.707.22-.166.235-.534.336-.82-.335 0-.797-.079-1.193-.062M2.633 25.83q-.162.769-.284 1.553c.095.03.195.053.284.09.327-.27.044-.766 0-1.157-.02-.172.018-.328 0-.486m4.242 11.406c-.158 0-.298.21-.434.305-.206.144-.405.288-.634.373-.513.19-.832.092-1.233.299-.371.192-.385.513-.596.896-.172.313-.565.764-.824.783-.039.002-.076-.02-.115-.03 3.055 11.353 12.57 20.006 24.4 21.796.608-.288.7-.99 1.027-1.596.164-.302.382-.61.414-.824.03-.193-.074-.366-.04-.596.032-.224.24-.426.302-.673.081-.324.111-.796.111-1.157 0-.296-.139-.556-.152-.822-.048-.969.353-1.08.711-1.607.178-.262.248-.56.373-.748.602-.898 1.644-1.33 1.568-2.688-.024-.45-.303-1.462-.634-1.605-.189-.086-.623-.017-.897-.11-.882-.329-1.4-1.424-2.314-1.494-.196-.015-.378.083-.598.08-.362-.015-.906-.253-1.307-.299-.254-.022-.593.08-.746 0-.234-.108-.257-.542-.447-.671-.152-.101-.444-.132-.672-.225-.368-.137-.66-.307-1.084-.336-.13-.015-.297.066-.449.033-.235-.033-.414-.319-.63-.45-.272-.166-.526-.25-.638-.485.245-.805-.432-1.03-.597-1.494-.078-.218-.044-.476-.112-.67-.097-.279-.37-.442-.671-.674-.54-.415-1.02-.803-1.791-.899-.34-.034-.674.101-1.084.08-.435-.019-.984-.411-1.31-.783-.315-.364-.47-.69-.745-.863-.261-.166-.605-.163-.783-.332-.08-.081-.064-.2-.149-.375-.13-.272-.353-.423-.19-.748-.297-.156-.307.281-.632.225-.29-.412-.536-.608-1.195-.487-.301.063-.469.44-.82.45-.29 0-.518-.32-.9-.374-.287-.034-.615.083-.82.032-.318-.068-.417-.33-.708-.522-.213-.14-.627-.379-.747-.375-.375.015-.64.797-1.158.524-.252-.32.412-.487.114-.786-.057-.057-.112-.077-.164-.076zm.021 1.54c.253.014.288.545.03.587-.28.04-.42-.435-.149-.56a.23.23 0 0 1 .12-.018v-.01z" opacity=".5"/><rect width="24" height="1" x="-24.361" y="44.645" fill="#f55" rx=".5" ry=".5" transform="rotate(-45)"/><path d="M32 2c-.335 0-.667.015-1 .025V31H2.025c-.01.333-.025.665-.025 1s.014.668.025 1H31v28.975c.333.011.665.026 1 .026s.667-.015 1-.026V33h28.975c.01-.332.025-.664.025-1s-.014-.667-.025-1H33V2.025c-.333-.01-.665-.025-1-.025" opacity=".15"/></g></svg>