<svg width="64" height="64" image-rendering="optimizeSpeed" version="1.1" xmlns="http://www.w3.org/2000/svg" xmlns:xlink="http://www.w3.org/1999/xlink">
 <rect x="5" y="5" width="54" height="54" rx="27" ry="27" fill="#157dff" stroke="#1862bf" stroke-width="2"/>
 <rect x="5" y="5" width="54" height="54" rx="27" ry="27" fill="#157dff" stroke-width=".96429"/>
 <g transform="matrix(.89999 0 0 .89999 3.2004 3.2)">
  <path d="m31.957 2.002c-0.105 0-0.21 7e-3 -0.314 8e-3v3.607h-4.91v-3.15c-0.12 0.02-0.24 0.04-0.358 0.062v3.088h-4.912v-1.724c-0.105 0.039-0.207 0.083-0.31 0.123v1.601h-3.485c-0.185 0.1-0.363 0.209-0.545 0.313h4.03v4.914h-4.913v-4.397c-0.105 0.065-0.208 0.133-0.312 0.2v4.197h-4.955v-0.272c-0.21 0.206-0.416 0.417-0.62 0.63h0.309v4.911h-4.133c-0.066 0.106-0.136 0.208-0.201 0.315h4.334v4.914h-4.912v-3.906c-0.107 0.192-0.21 0.387-0.313 0.582v3.324h-1.496c-0.04 0.105-0.084 0.207-0.123 0.312h1.62v4.913h-2.943c-0.022 0.119-0.044 0.238-0.064 0.357h3.005v4.914h-3.432c0 0.054-4e-3 0.108-4e-3 0.162 0 0.05 4e-3 0.1 4e-3 0.15h3.433v4.915h-3.007c0.02 0.119 0.043 0.237 0.064 0.355h2.943v4.914h-1.623c0.039 0.106 0.082 0.208 0.122 0.313h1.502v3.336c0.102 0.195 0.205 0.39 0.312 0.582v-3.918h4.912v4.914h-4.34c0.064 0.105 0.133 0.206 0.198 0.31h4.142v4.96h-0.277c0.194 0.2 0.388 0.401 0.588 0.597v-0.283h4.955v4.209c0.104 0.066 0.207 0.134 0.312 0.199v-4.408h4.912v4.91h-4.056c0.183 0.105 0.363 0.214 0.549 0.314h3.508v1.616c0.103 0.04 0.206 0.084 0.31 0.123v-1.739h4.912v3.102c0.119 0.022 0.238 0.042 0.358 0.063v-3.165h4.91v3.622c0.104 0 0.208 7e-3 0.312 7e-3v-3.628h4.91v3.237c0.106-0.017 0.21-0.039 0.315-0.057v-3.18h4.955v1.885c0.104-0.037 0.209-0.073 0.313-0.111v-1.774h3.908c0.185-0.1 0.365-0.21 0.549-0.314h-4.457v-4.91h4.91v4.65c0.104-0.062 0.209-0.122 0.312-0.185v-4.465h4.912v0.707c0.12-0.112 0.239-0.224 0.356-0.338v-0.37h0.379c0.102-0.102 0.198-0.21 0.299-0.314h-0.678v-4.959h4.543c0.065-0.104 0.134-0.205 0.197-0.31h-4.74v-4.914h4.91v4.619c0.106-0.18 0.21-0.362 0.313-0.545v-4.074h1.904c0.04-0.105 0.083-0.208 0.121-0.313h-2.025v-4.915h3.345c0.022-0.118 0.045-0.236 0.065-0.355h-3.41v-4.915h3.835c0-0.05 4e-3 -0.1 4e-3 -0.15 0-0.055-3e-3 -0.109-4e-3 -0.163h-3.835v-4.914h3.408c-0.02-0.12-0.043-0.238-0.065-0.357h-3.343v-4.913h2.021c-0.038-0.105-0.083-0.207-0.123-0.312h-1.898v-4.063a29.861 29.861 0 0 0-0.313-0.544v4.607h-4.91v-4.914h4.734c-0.064-0.107-0.135-0.209-0.2-0.315h-4.534v-4.912h0.709c-0.114-0.119-0.226-0.24-0.342-0.357h-0.367v-0.358c-0.117-0.114-0.237-0.225-0.356-0.337v0.695h-4.912v-4.453c-0.103-0.063-0.208-0.124-0.312-0.186v4.639h-4.91v-4.913h4.43c-0.183-0.104-0.361-0.213-0.546-0.313h-3.884v-1.76c-0.104-0.038-0.209-0.074-0.313-0.11v1.87h-4.955v-3.166c-0.105-0.018-0.21-0.04-0.314-0.056v3.222h-4.909zm-10.494 3.928h4.912v4.914h-4.912zm5.27 0h4.91v4.914h-4.91zm5.224 0h4.908v4.914h-4.908zm5.223 0h4.955v4.914h-4.955zm-26.207 5.27h4.955v4.912h-4.955zm5.267 0h4.913v4.912h-4.913zm5.223 0h4.912v4.912h-4.912zm5.27 0h4.91v4.912h-4.91zm5.224 0h4.908v4.912h-4.908zm5.223 0h4.955v4.912h-4.955zm5.268 0h4.91v4.912h-4.91zm5.222 0h4.912v4.912h-4.912zm-36.697 5.227h4.955v4.914h-4.955zm5.268 0h4.912v4.914h-4.913zm5.223 0h4.912v4.914h-4.912zm5.269 0h4.91v4.914h-4.91zm5.225 0h4.908v4.914h-4.908zm5.222 0h4.955v4.914h-4.955zm5.268 0h4.91v4.914h-4.91zm5.223 0h4.912v4.914h-4.913zm-41.921 5.227h4.912v4.913h-4.912zm5.222 0h4.955v4.913h-4.955zm5.268 0h4.912v4.913h-4.912zm5.223 0h4.912v4.913h-4.912zm5.27 0h4.91v4.913h-4.91zm5.224 0h4.908v4.913h-4.908zm5.222 0h4.956v4.913h-4.955zm5.268 0h4.91v4.913h-4.91zm5.223 0h4.912v4.913h-4.912zm5.267 0h4.91v4.913h-4.91zm-47.187 5.27h4.912v4.914h-4.912zm5.223 0h4.955v4.914h-4.955zm5.268 0h4.912v4.914h-4.913zm5.222 0h4.912v4.914h-4.912zm5.27 0h4.91v4.914h-4.91zm5.224 0h4.909v4.914h-4.909zm5.223 0h4.955v4.914h-4.955zm5.268 0h4.91v4.914h-4.91zm5.222 0h4.913v4.914h-4.913zm5.268 0h4.91v4.914h-4.91zm-47.188 5.226h4.912v4.914h-4.912zm5.223 0h4.955v4.914h-4.955zm5.267 0h4.912v4.914h-4.912zm5.223 0h4.912v4.914h-4.912zm5.27 0h4.91v4.914h-4.91zm5.224 0h4.908v4.914h-4.908zm5.223 0h4.955v4.914h-4.955zm5.267 0h4.91v4.914h-4.91zm5.223 0h4.912v4.914h-4.912zm5.268 0h4.91v4.914h-4.91zm-47.188 5.27h4.912v4.914h-4.912zm5.222 0h4.956v4.914h-4.956zm5.268 0h4.912v4.914h-4.912zm5.223 0h4.912v4.914h-4.912zm5.27 0h4.91v4.914h-4.91zm5.224 0h4.908v4.914h-4.908zm5.223 0h4.955v4.914h-4.955zm5.267 0h4.91v4.914h-4.91zm5.223 0h4.912v4.914h-4.912zm5.267 0h4.91v4.914h-4.91zm-41.965 5.227h4.956v4.914h-4.956zm5.268 0h4.912v4.914h-4.912zm5.223 0h4.912v4.914h-4.912zm5.27 0h4.91v4.914h-4.91zm5.224 0h4.908v4.914h-4.908zm5.223 0h4.955v4.914h-4.955zm5.267 0h4.91v4.914h-4.91zm5.223 0h4.912v4.914h-4.912zm-36.697 5.223h4.955v4.96h-4.955zm5.267 0h4.913v4.96h-4.913zm5.223 0h4.912v4.96h-4.912zm5.27 0h4.91v4.96h-4.91zm5.224 0h4.908v4.96h-4.908zm5.223 0h4.955v4.96h-4.955zm5.268 0h4.91v4.96h-4.91zm5.222 0h4.912v4.96h-4.912zm-26.207 5.274h4.912v4.91h-4.912zm5.27 0h4.91v4.91h-4.91zm5.224 0h4.909v4.91h-4.909zm5.223 0h4.955v4.91h-4.955z" fill="#ffffff" opacity=".1"/>
  <path d="m21.443 4.676c-0.368 0.078-0.752 0.654-1.19 0.861-0.271 0.126-0.66 0.272-0.933 0.22-0.177-0.03-0.533-0.291-0.56-0.634-3e-3 -0.03 6e-3 -0.045 7e-3 -0.07a29.982 29.982 0 0 0-12.385 11.289c0.032 8e-3 0.063 3e-3 0.096 0.015-0.06 0.051-0.124 0.093-0.188 0.137a29.811 29.811 0 0 0-3.134 7.229c0.277-0.242 0.593-0.442 0.894-0.62 0.308-0.181 0.555-0.5 0.822-0.634 0.378-0.19 0.656-0.234 0.97-0.41 0.565-0.318 1.051-0.574 1.493-0.934 0.205-0.482 0.013-1.133 0.037-1.61 0.205-0.121 0.383 0.062 0.6 0.032 0.341-0.077 0.365-0.552 0.559-0.744 0.11-0.107 0.42-0.191 0.56-0.301 0.34-0.266 0.451-0.665 0.748-0.78 0.107-0.035 0.354-0.03 0.522-0.083 0.222-0.065 0.536-0.324 0.896-0.448 0.234-0.085 0.77-0.097 0.86-0.187 0.11-0.108 0-0.429 0.037-0.598 0.18-0.843 1.45-1.023 2.2-1.306 0.527-0.201 1.067-0.562 1.645-0.45-0.113 0.401-0.654 0.261-0.562 0.748 0.127 0.675 1.03-0.199 1.27-0.298 0.455-0.192 1.234-0.31 1.831-0.526 0.524-0.19 1.463-0.482 0.969-1.082-0.412-0.018-0.61 0.483-0.969 0.637-0.248 0.031-0.203-0.207-0.414-0.227-0.2-0.015-0.315 0.187-0.521 0.153-0.206-0.032-0.492-0.358-0.524-0.598-0.082-0.623 0.527-0.88 0.785-1.344-0.17-0.564-0.948-0.112-1.42-0.338 0.046-0.335 0.393-0.57 0.786-0.634 0.321-0.059 1.04-0.016 1.232 0.15 0.112 0.094 0.014 0.33 0.188 0.486 0.19 0.173 0.423 0.156 0.67 0.11 0.09-0.426-0.555-0.318-0.485-0.6 0.505-0.33 1.324-0.063 1.942-0.15 0.355-0.056 0.731-0.307 1.046-0.485 0.3-0.17 0.689-0.466 1.006-0.187 0.087 0.305-0.277 0.408-0.447 0.56-0.571 0.509-1.161 1.092-1.605 1.682 0.272 0.266 0.771 0.13 1.232 0.187 0.18 0.017 0.405 0.082 0.596 0.106 0.222 0.034 0.46 0.025 0.634 0.078 0.314 0.083 0.4 0.414 0.71 0.414 0.51 0 0.515-0.555 0.226-0.9 0.091-0.353 0.236-0.535 0.111-0.782-0.23-0.46-1.075 0-1.119-0.597-0.027-0.373 0.31-0.356 0.446-0.635-0.062-0.72 0.595-0.774 0.525-1.42-0.03-0.27-0.26-0.27-0.45-0.523-0.097-0.128-0.141-0.387-0.26-0.487-0.39-0.33-1.185-0.264-1.233-0.894-0.018-0.372 0.09-0.682 0.039-1.086-0.048-0.376-0.306-1.42-0.635-1.492a0.361 0.361 0 0 0-0.156 0zm25.363 1.213c-0.235 0.176-0.48 0.423-0.527 0.535-0.113 0.265 0.027 0.56 0 0.969 0.213 0.093 0.343 0.511 0.707 0.71 0.137 0.082 0.326 0.04 0.449 0.11 0.213 0.114 0.381 0.385 0.338 0.598-0.063 0.306-0.466 0.22-0.674 0.447 0.036 0.435-0.302 0.496-0.41 0.787 0.065 0.183 0.342 0.15 0.37 0.37-0.04 0.237-0.463 0.273-0.37 0.524 0.4 0.312 0.813-0.068 1.191-0.107 0.835-0.102 1.694 0.1 2.207-0.3-0.07-0.4 0.415-0.539 0.371-0.895-0.033-0.269-0.477-0.3-0.674-0.487-0.104-0.099-0.133-0.33-0.261-0.523-0.147-0.221-0.434-0.38-0.598-0.596-0.22-0.291-0.67-0.713-0.67-0.935 1e-3 -0.105 0.058-0.178 0.125-0.252a29.916 29.916 0 0 0-1.574-0.955zm-1.297 1.89v0.01c-0.192 0-0.383 0.043-0.539 0.135-0.284 0.173-0.376 0.441-0.596 0.525-0.302 0.11-0.517 0.014-0.562 0.297-0.037 0.23 0.194 0.343 0.187 0.559-0.11 0.275-0.431 0.342-0.486 0.674 0.378 0.617 1.286 0.071 1.756-0.08 0.211-0.068 0.52-0.06 0.635-0.223 0.13-0.197 0.015-0.538 0.113-0.824 0.108-0.314 0.408-0.355 0.371-0.635-0.033-0.255-0.456-0.443-0.879-0.438zm6.607 1.932c-0.032 0.045-0.055 0.089-0.091 0.133-0.214 0.257-0.616 0.535-0.934 0.672-0.155 0.072-0.342 0.061-0.484 0.152-0.21 0.135-0.283 0.476-0.522 0.637-0.171 0.11-0.827 0.443-1.008 0.447-0.212 0-0.41-0.198-0.562-0.152-0.224 0.076-0.195 0.51-0.447 0.6-0.495 0.175-1.322-0.441-1.494 0.296 0.212 0.428 0.75 0.325 1.12 0.56 0.234 0.146 0.723 0.797 0.784 1.048 0.052 0.211-0.025 1.045-0.111 1.269-0.231 0.596-0.77 0.39-1.456 0.375-0.187 0-0.387 0.052-0.56 0.03-1.156-0.085-2.316-0.488-2.838 0.335 0.042 0.634 0.175 1.058 0.035 1.61-0.103 0.404-0.463 0.768-0.445 1.119 9e-3 0.18 0.218 0.353 0.262 0.597 0.022 0.128-0.06 0.406 0 0.524 0.19 0.368 0.705 0.06 1.043 0.105 0.33 0.054 0.716 0.531 0.712 0.9-2e-3 0.258-0.25 0.684-0.414 0.932-0.326 0.495-0.763 0.521-1.23 0.786-0.39 0.22-0.555 0.588-0.783 0.972-0.247 0.415-0.403 0.667-0.301 1.268-0.334 0.662-0.838 1.07-1.53 1.385-0.204 0.093-0.486 0.12-0.673 0.261-0.15 0.105-0.233 0.395-0.446 0.633-0.26 0.293-0.536 0.41-0.673 0.633-0.107 0.174-0.145 0.517-0.262 0.748-0.16 0.313-0.5 0.467-0.71 0.785-0.095 0.149-0.152 0.442-0.259 0.635-0.236 0.43-0.64 0.745-0.597 1.123 0.043 0.366 0.456 0.427 0.484 0.746 0.017 0.18-0.12 0.29-0.111 0.486 0.011 0.287 0.202 0.487 0.224 0.707 0.057 0.555-0.196 0.78-0.3 1.159-0.05 0.181-0.028 0.381-0.075 0.523-0.091 0.277-0.477 0.533-0.484 0.861-4e-3 0.235 0.242 0.419 0.262 0.746 0.013 0.226-0.116 0.465-0.077 0.672 0.08 0.407 0.804 0.882 1.12 1.198 0.422 0.422 0.976 0.75 1.158 1.195 0.153 0.378 0.155 0.873 0.449 1.158 0.218 0.21 0.58 0.341 0.86 0.56 0.26 0.203 0.542 0.38 0.82 0.596 0.454 0.356 1.143 1.063 1.867 1.008 0.378-0.02 0.764-0.334 1.193-0.41a6.083 6.083 0 0 1 1.457-0.078c0.342 0.031 0.689 0.24 1.043 0.222 0.374-0.015 0.81-0.3 1.235-0.486 0.736-0.32 1.836-0.751 2.912-0.594 0.819 0.114 0.778 1.059 1.345 1.418 0.66 0.06 1.196-0.24 1.717-0.107 0.394 0.098 0.857 0.698 0.895 1.01 0.038 0.324-0.176 0.806-0.223 1.006-0.103 0.436-0.11 0.956-0.187 1.232-0.06 0.215-0.227 0.349-0.223 0.563 3e-3 0.196 0.248 0.674 0.45 0.931 0.244 0.315 0.633 0.557 0.93 0.899 0.244 0.277 0.42 0.584 0.579 0.908a29.906 29.906 0 0 0 5.437-17.258c0-2.515-0.31-4.954-0.888-7.285-0.322-0.098-0.666-0.393-1.098-0.487-0.222-0.05-0.534-0.014-0.707-0.082-0.407-0.14-0.358-0.536-0.709-0.783a3.068 3.068 0 0 0-1.047-0.375c-0.2-0.016-0.386 0.068-0.598 0.033-0.25-0.022-0.608-0.206-0.82-0.336-0.203-0.118-0.618-0.307-0.67-0.484-0.08-0.275 0.502-0.592 0.522-0.826 0.013-0.177-0.219-0.287-0.262-0.559-0.025-0.165 0.068-0.335 0.037-0.445-0.055-0.192-0.371-0.408-0.672-0.412-0.266 0-0.519 0.215-0.746 0.222-0.328 0.015-0.865-0.18-1.271-0.15-0.25 0.015-0.477 0.166-0.71 0.184-0.65 0.054-1.176-0.024-1.68 0-0.366 0.016-1 0.145-1.34 0.302-0.174 0.084-0.303 0.261-0.526 0.373-0.101 0.047-0.24 0.046-0.373 0.108-0.212 0.096-0.433 0.322-0.635 0.373-0.292 0.076-0.742-0.063-1.27-0.031-0.379 0.015-1 0.017-1.006-0.448-9e-3 -0.69 1.174-0.44 1.827-0.562 0.246-0.044 0.38-0.273 0.674-0.447 0.14-0.087 0.315-0.096 0.447-0.186 0.226-0.158 0.566-0.53 0.6-0.709 0.029-0.167-0.096-0.4-0.077-0.523 0.026-0.16 0.208-0.324 0.41-0.524 0.315-0.31 0.66-0.73 1.047-0.933 0.264-0.134 0.623-0.124 0.744-0.338 0.028-0.24-0.042-0.378-0.037-0.596 0.162-0.149 0.275-0.268 0.41-0.297 0.403-0.09 0.803 0.278 1.272 0.258 0.203 0 0.38-0.157 0.598-0.299 0.183-0.115 0.38-0.205 0.558-0.297 0.197-0.1 0.396-0.32 0.635-0.336 0.587-0.031 0.817 0.617 1.084 0.971 0.223 0.295 0.864 0.803 1.23 1.01 0.207 0.11 0.484 0.113 0.711 0.222 0.22 0.1 0.532 0.309 0.813 0.545a29.97 29.97 0 0 0-6.36-8.14zm-43.606 5.666v2e-3c0.19 0 0.356 0.026 0.434 0.101-0.122 0.494-1.18 0.364-1.568 0.186 0.025-0.185 0.314-0.236 0.558-0.262 0.173-0.015 0.387-0.03 0.576-0.027zm46.297 0.898c-0.281 0-0.454 0.6-0.054 0.67 0.171-0.1 0.304-0.245 0.262-0.56-0.072-0.083-0.142-0.106-0.208-0.106zm-0.074 1.051c-0.142 0.015-0.306 0.096-0.467 0.264 0.01 0.417 0.047 0.683-0.035 1.045 0.24 0.46 0.774 0.047 0.897-0.262 0.132-0.712-0.082-1.068-0.395-1.047zm4.32 1.647c-0.061 0.13-0.142 0.251-0.119 0.388a0.515 0.515 0 0 0 0.28-0.033c-0.055-0.118-0.104-0.238-0.16-0.355zm-1.462 0.42v2e-3c-0.238 0.015-0.452 0.06-0.598 0.173 0.273 0.448 0.843 0.597 1.455 0.707 0.22-0.166 0.235-0.534 0.336-0.82-0.335 0-0.797-0.079-1.193-0.062zm-54.958 6.437c-0.107 0.513-0.203 1.03-0.284 1.553 0.095 0.03 0.195 0.053 0.284 0.09 0.327-0.27 0.044-0.766 0-1.157-0.02-0.172 0.018-0.328 0-0.486zm4.242 11.406c-0.158 0-0.298 0.21-0.434 0.305-0.206 0.144-0.405 0.288-0.634 0.373-0.513 0.19-0.832 0.092-1.233 0.299-0.371 0.192-0.385 0.513-0.596 0.896-0.172 0.313-0.565 0.764-0.824 0.783-0.039 2e-3 -0.076-0.02-0.115-0.03 3.055 11.353 12.57 20.006 24.4 21.796 0.608-0.288 0.7-0.99 1.027-1.596 0.164-0.302 0.382-0.61 0.414-0.824 0.03-0.193-0.074-0.366-0.04-0.596 0.032-0.224 0.24-0.426 0.302-0.673 0.081-0.324 0.111-0.796 0.111-1.157 0-0.296-0.139-0.556-0.152-0.822-0.048-0.969 0.353-1.08 0.711-1.607 0.178-0.262 0.248-0.56 0.373-0.748 0.602-0.898 1.644-1.33 1.568-2.688-0.024-0.45-0.303-1.462-0.634-1.605-0.189-0.086-0.623-0.017-0.897-0.11-0.882-0.329-1.4-1.424-2.314-1.494-0.196-0.015-0.378 0.083-0.598 0.08-0.362-0.015-0.906-0.253-1.307-0.299-0.254-0.022-0.593 0.08-0.746 0-0.234-0.108-0.257-0.542-0.447-0.671-0.152-0.101-0.444-0.132-0.672-0.225-0.368-0.137-0.66-0.307-1.084-0.336-0.13-0.015-0.297 0.066-0.449 0.033-0.235-0.033-0.414-0.319-0.63-0.45-0.272-0.166-0.526-0.25-0.638-0.485 0.245-0.805-0.432-1.03-0.597-1.494-0.078-0.218-0.044-0.476-0.112-0.67-0.097-0.279-0.37-0.442-0.671-0.674-0.54-0.415-1.02-0.803-1.791-0.899-0.34-0.034-0.674 0.101-1.084 0.08-0.435-0.019-0.984-0.411-1.31-0.783-0.315-0.364-0.47-0.69-0.745-0.863-0.261-0.166-0.605-0.163-0.783-0.332-0.08-0.081-0.064-0.2-0.149-0.375-0.13-0.272-0.353-0.423-0.19-0.748-0.297-0.156-0.307 0.281-0.632 0.225-0.29-0.412-0.536-0.608-1.195-0.487-0.301 0.063-0.469 0.44-0.82 0.45-0.29 0-0.518-0.32-0.9-0.374-0.287-0.034-0.615 0.083-0.82 0.032-0.318-0.068-0.417-0.33-0.708-0.522-0.213-0.14-0.627-0.379-0.747-0.375-0.375 0.015-0.64 0.797-1.158 0.524-0.252-0.32 0.412-0.487 0.114-0.786-0.057-0.057-0.112-0.077-0.164-0.076zm0.021 1.54c0.253 0.014 0.288 0.545 0.03 0.587-0.28 0.04-0.42-0.435-0.149-0.56a0.233 0.233 0 0 1 0.12-0.018v-0.01z" fill="#ffffff" opacity=".5"/>
  <rect transform="rotate(-45)" x="-24.361" y="44.645" width="24" height="1" rx=".5" ry=".5" fill="#ff5555"/>
  <path d="m32 2c-0.335 0-0.667 0.015-1 0.025v28.975h-28.975c-0.01 0.333-0.025 0.665-0.025 1s0.014 0.668 0.025 1h28.975v28.975c0.333 0.011 0.665 0.026 1 0.026s0.667-0.015 1-0.026v-28.975h28.975c0.01-0.332 0.025-0.664 0.025-1s-0.014-0.667-0.025-1h-28.975v-28.975c-0.333-0.01-0.665-0.025-1-0.025z" opacity=".15"/>
 </g>
</svg>
