<svg xmlns="http://www.w3.org/2000/svg" width="64" height="64" viewBox="0 0 16.933 16.933"><g paint-order="stroke markers fill"><path fill="#fff" stroke="#000" stroke-opacity=".294" stroke-width=".529" d="M1.587 2.907h13.758V14.02H1.587z"/><path fill="#fff" d="M1.587 2.907h13.758V14.02H1.587z"/><path fill="#4985cc" d="M2.381 3.701h12.171v9.525H2.381z"/><path d="M3.354 6.88a10 10 0 0 0-.973.06v6.289h9.966a9.56 9.56 0 0 0-8.993-6.35z" opacity=".15"/><path d="M14.552 8.79a9.56 9.56 0 0 0-6.633 4.439h6.633v-4.44z" opacity=".15"/></g><g fill="#fff" stroke-width=".265" opacity=".5"><path d="M5.027 5.027v1.852h.53V5.556h1.322v-.53zm5.027 0v.53h1.323v1.322h.529V5.027zm-5.027 5.027v1.852h1.852v-.53H5.556v-1.322zm6.35 0v1.323h-1.323v.53h1.852v-1.853zM9.525 6.085l.374.374-1.497 1.497-.374-.374z"/><path d="m6.614 6.88 1.588 1.85v1.588H7.144v.529h2.645v-.53H8.731V8.732L10.32 6.88z"/></g></svg>