<svg width="64" height="64" version="1.1" viewBox="0 0 16.933 16.933" xmlns="http://www.w3.org/2000/svg">
 <circle cx="8.4665" cy="8.4665" r="7.1436" fill="#f2f2f2" stroke="#000000" stroke-opacity=".15" stroke-width=".52916"/>
 <circle cx="8.4665" cy="8.4665" r="7.1436" fill="#f2f2f2" stroke-width=".99994"/>
 <path d="m8.4665 1.3229a7.1436 7.1436 0 0 0-7.1436 7.1436 7.1436 7.1436 0 0 0 1.3875 4.2219l1.6774-2.7543c0.94-1.546 1.7111-2.8101 1.7141-2.8101a87.454 87.454 0 0 1 0.61907 1.0619c0.338 0.585 0.61597 1.0603 0.61597 1.0573 1e-3 -3e-3 -0.072878-0.36022-0.16588-0.79322l-0.16795-0.78598 0.73017-1.2449c0.4-0.686 0.73082-1.2459 0.73482-1.2459a268.35 268.35 0 0 1 1.1818 2.0376c0.647 1.12 1.1783 2.0365 1.1803 2.0345 1e-3 -1e-3 -0.072294-0.35123-0.16329-0.77823-0.092-0.427-0.16478-0.78105-0.16278-0.78805a8.03 8.03 0 0 1 0.16278-0.28783c0.121-0.206 0.16301-0.27209 0.17001-0.26509a1135.4 1135.4 0 0 1 1.7223 2.8272c0.89408 1.4696 1.5897 2.6099 1.666 2.7321a7.1436 7.1436 0 0 0 1.3849-4.2188 7.1436 7.1436 0 0 0-7.1436-7.1436z" fill="#397fe7" fill-opacity=".86667"/>
</svg>
