<svg xmlns="http://www.w3.org/2000/svg" width="64" height="64" viewBox="0 0 16.933 16.933"><circle cx="8.466" cy="8.466" r="7.144" fill="#f2f2f2" stroke="#000" stroke-opacity=".15" stroke-width=".529"/><circle cx="8.466" cy="8.466" r="7.144" fill="#f2f2f2"/><path fill="#397fe7" fill-opacity=".867" d="M8.466 1.323a7.144 7.144 0 0 0-7.143 7.144 7.14 7.14 0 0 0 1.387 4.221l1.678-2.754c.94-1.546 1.71-2.81 1.714-2.81a88 88 0 0 1 .619 1.062c.338.585.616 1.06.616 1.057s-.073-.36-.166-.793l-.168-.786.73-1.245c.4-.686.731-1.246.735-1.246A268 268 0 0 1 9.65 7.211c.647 1.12 1.178 2.036 1.18 2.034.001 0-.072-.35-.163-.778a26 26 0 0 1-.163-.788 8 8 0 0 1 .163-.288c.12-.206.163-.272.17-.265a1135 1135 0 0 1 1.722 2.827c.894 1.47 1.59 2.61 1.666 2.732a7.14 7.14 0 0 0 1.385-4.218 7.144 7.144 0 0 0-7.143-7.144z"/></svg>