<svg xmlns="http://www.w3.org/2000/svg" width="64" height="64" viewBox="0 0 16.933 16.933"><path fill="#4e7bc0" stroke="#3c5885" stroke-width=".529" d="M3.211 1.323c-.46 0-.83.34-.83.765v12.757c0 .424.37.766.83.766h10.512c.46 0 .83-.342.83-.766V2.088c0-.425-.37-.765-.83-.765z" style="paint-order:markers stroke fill"/><path fill="#4e7bc0" d="M3.211 1.323c-.46 0-.83.34-.83.765v12.757c0 .424.37.766.83.766h10.511c.46 0 .83-.342.83-.766V2.088c0-.424-.37-.765-.83-.765z" style="paint-order:markers stroke fill"/><path fill="#e9b064" d="M10.054 1.324v6.35l1.059-1.06 1.058 1.059v-6.35z"/><path d="M3.255 1.323c-.484 0-.874.34-.874.764v12.758c0 .424.39.765.874.765h2.037V1.323z" opacity=".25"/></svg>