<svg xmlns="http://www.w3.org/2000/svg" width="64" height="64" viewBox="0 0 16.933 16.933"><g transform="translate(0 -280.07)"><path fill="#19191a" stroke="#161718" stroke-width=".529" d="M3.211 281.39c-.46 0-.83.342-.83.765v12.756c0 .425.37.767.83.767h10.512c.46 0 .83-.343.83-.767v-12.756c0-.423-.37-.765-.83-.765z" style="paint-order:markers stroke fill"/><path fill="#2f3234" d="M3.211 281.39c-.46 0-.83.342-.83.765v12.756c0 .425.37.767.83.767h10.511c.46 0 .83-.343.83-.767v-12.756c0-.423-.37-.765-.83-.765z" style="paint-order:markers stroke fill"/><path fill="#c83737" d="M4.498 281.39v6.35l1.059-1.058 1.058 1.058v-6.35z"/><path d="M3.334 281.39c-.528 0-.953.342-.953.765v12.757c0 .424.425.766.953.766h.634V281.39z" opacity=".18"/><rect width=".265" height="14.287" x="3.704" y="281.39" opacity=".25" rx="0" ry="0" style="paint-order:markers stroke fill"/></g><path fill="#1c95f5" d="M14.552 4.88c-.29.12-.58.278-.87.484a7.3 7.3 0 0 0-1.388 1.31 10.4 10.4 0 0 0-1.156 1.754 8.8 8.8 0 0 0-.751 2.003q-.27 1.041-.231 1.907.057.848.366 1.426.308.578.847.829.54.249 1.272.096.713-.154 1.445-.674.239-.174.466-.37v-1.21a5 5 0 0 1-.293.212q-.578.366-1.117.424-.559.057-.944-.193-.386-.25-.597-.751-.193-.5-.193-1.195 0-.713.231-1.541a7 7 0 0 1 .655-1.58q.424-.77.925-1.349a5.3 5.3 0 0 1 1.079-.963q.128-.083.254-.152z"/></svg>