<svg xmlns="http://www.w3.org/2000/svg" width="64" height="64" viewBox="0 0 16.933 16.933"><g transform="translate(0 -280.07)"><path fill="#19191a" stroke="#161718" stroke-width=".529" d="M3.211 281.39c-.46 0-.83.342-.83.765v12.756c0 .425.37.767.83.767h10.512c.46 0 .83-.343.83-.767v-12.756c0-.423-.37-.765-.83-.765z" style="paint-order:markers stroke fill"/><path fill="#2f3234" d="M3.211 281.39c-.46 0-.83.342-.83.765v12.756c0 .425.37.767.83.767h10.511c.46 0 .83-.343.83-.767v-12.756c0-.423-.37-.765-.83-.765z" style="paint-order:markers stroke fill"/><path fill="#c83737" d="M4.498 281.39v6.35l1.059-1.058 1.058 1.058v-6.35z"/><path d="M3.334 281.39c-.528 0-.953.342-.953.765v12.757c0 .424.425.766.953.766h.634V281.39z" opacity=".18"/><rect width=".265" height="14.287" x="3.704" y="281.39" opacity=".25" rx="0" ry="0" style="paint-order:markers stroke fill"/></g><path fill="#1c95f5" d="M14.552 4.88c-.29.12-.58.278-.87.484-.489.347-.951.784-1.388 1.31-.424.514-.809 1.099-1.156 1.754a8.784 8.784 0 0 0-.751 2.003c-.18.694-.257 1.33-.231 1.907.038.566.16 1.04.366 1.426.205.385.488.662.847.829.36.166.784.198 1.272.096.475-.103.957-.327 1.445-.674.16-.115.314-.24.466-.37v-1.21a4.887 4.887 0 0 1-.293.212c-.385.244-.758.385-1.117.424-.373.038-.687-.026-.944-.193-.257-.167-.456-.417-.597-.751-.129-.334-.193-.732-.193-1.195 0-.475.077-.989.231-1.541a7.075 7.075 0 0 1 .655-1.58c.283-.514.59-.963.925-1.349.346-.398.706-.719 1.079-.963.085-.056.17-.106.254-.152z"/></svg>