<svg xmlns="http://www.w3.org/2000/svg" width="64" height="64" version="1.0"><rect width="57" height="45" x="3.5" y="9.5" fill="#5d6c82" overflow="visible" rx="1.932" ry="1.915"/><rect width="57" height="45" x="3.5" y="9.5" fill="none" stroke="#0a161e" stroke-linecap="round" stroke-linejoin="round" opacity=".5" overflow="visible" rx="1.932" ry="1.915" style="isolation:auto;mix-blend-mode:normal"/><path fill="#fff" d="M13.016 21v4h6v-4zm8 0v4h6v-4zm8 0v4h6v-4zm8 0v4h6v-4zm8 0v4h5.968v-4zm-32 6v4h6v-4zm8 0v4h6v-4zm8 0v4h6v-4zm8 0v4h6v-4zm8 0v4h5.968v-4zm-32 6v4h6v-4zm8 0v4h6v-4zm8 0v4h6v-4zm8 0v4h6v-4zm8 0v4h5.968v-4zm-24 6v4h22v-4z" overflow="visible"/></svg>