<svg xmlns="http://www.w3.org/2000/svg" version="1.0" width="64" height="64"><rect width="57" height="45" rx="1.932" ry="1.915" x="3.5" y="9.5" style="marker:none" color="#000" overflow="visible" fill="#5d6c82"/><rect width="57" height="45" rx="1.932" ry="1.915" x="3.5" y="9.5" style="isolation:auto;mix-blend-mode:normal;solid-color:#000;solid-opacity:1;marker:none" color="#000" overflow="visible" opacity=".5" fill="none" stroke="#1c2c38" stroke-linecap="round" stroke-linejoin="round"/><path d="M13.016 21v4h6v-4zm8 0v4h6v-4zm8 0v4h6v-4zm8 0v4h6v-4zm8 0v4h5.968v-4zm-32 6v4h6v-4zm8 0v4h6v-4zm8 0v4h6v-4zm8 0v4h6v-4zm8 0v4h5.968v-4zm-32 6v4h6v-4zm8 0v4h6v-4zm8 0v4h6v-4zm8 0v4h6v-4zm8 0v4h5.968v-4zm-24 6v4h22v-4z" style="marker:none" color="#000" overflow="visible" fill="#fff"/></svg>