<svg xmlns="http://www.w3.org/2000/svg" width="64" height="64"><rect width="54" height="54" x="5" y="5" fill="#40b3e9" stroke="#1897d3" stroke-width="2" color="#000" rx="27" ry="27"/><rect width="54" height="54" x="5" y="5" fill="#40b3e9" color="#000" rx="27" ry="27"/><path fill="#fff" d="M34.932 19.077c-3.264 0-6.091 1.88-7.493 4.608a5.8 5.8 0 0 0-3.139-.921c-3.24 0-5.866 2.64-5.866 5.899 0 .517.082 1.019.207 1.497a8.86 8.86 0 0 0-3.873 7.35c0 4.903 3.924 8.849 8.799 8.849H40.43c4.874 0 8.798-3.947 8.798-8.848a8.83 8.83 0 0 0-6.003-8.388c.095-.509.138-1.03.138-1.567 0-4.683-3.776-8.48-8.432-8.48z" color="#000"/></svg>