<svg xmlns="http://www.w3.org/2000/svg" width="64" height="64"><path fill="#e3954f" stroke="#000" stroke-opacity=".25" d="M51.292 8.007a4 4 0 0 0-.964.199h-.003l-.014-.028-.206.102q-.26.104-.499.245L24.44 22.063l9.738 22.087c8.555-3.745 17.25-10.339 25.894-13.789a4 4 0 0 0 .532-.212c.068-.033.132-.073.198-.11a4 4 0 0 0 .317-.193q.238-.166.454-.372a5 5 0 0 0 .625-.782q.092-.135.177-.281c.08-.141.151-.292.22-.444a6 6 0 0 0 .108-.236c.07-.171.127-.35.184-.532a6 6 0 0 0 .08-.26c.047-.171.085-.35.122-.53q.037-.17.068-.342c.03-.18.05-.367.07-.554q.02-.175.035-.355.018-.286.022-.582.006-.207.006-.418c-.003-.169-.014-.34-.022-.513a14 14 0 0 0-.028-.504q-.008-.09-.02-.179c-.061-.64-.166-1.3-.313-1.97l-.02-.085a20 20 0 0 0-.594-2.088l-.009-.028-.014-.033a22 22 0 0 0-.854-2.071c-.019-.04-.033-.081-.052-.121a20.5 20.5 0 0 0-2.105-3.49l-.09-.127q-.483-.639-.998-1.213-.071-.076-.143-.151-.45-.49-.917-.923-.082-.076-.163-.151a13 13 0 0 0-1.077-.876q-.042-.03-.085-.058a11 11 0 0 0-1.223-.755 8 8 0 0 0-1.02-.46c-.032-.012-.064-.017-.096-.028a6.3 6.3 0 0 0-1.182-.28 5 5 0 0 0-.972-.047z"/><circle cx="30.943" cy="32.022" r="23.978" fill="#edd448" stroke="#000" stroke-opacity=".25"/><path fill="#e3954f" stroke="#000" stroke-opacity=".25" d="m43.396 11.836-16.941 8.36a13.552 6.255 0 0 0 4.488.359A13.552 6.255 0 0 0 44.495 14.3a13.552 6.255 0 0 0-1.1-2.464zm5.445 17.067a7.68 12.366 28.506 0 0-9.977 6.94 7.68 12.366 28.506 0 0-2.452 6.311l17.336-8.861a7.68 12.366 28.506 0 0-2.203-3.47 7.68 12.366 28.506 0 0-2.704-.92z"/><path stroke="#000" stroke-opacity=".25" d="M48.841 28.902a7.68 12.366 28.506 0 0-9.976 6.941 7.68 12.366 28.506 0 0-.165 15.061 7.68 12.366 28.506 0 0 7.88-.809 24.655 24.372 0 0 0 6.788-9.638 7.68 12.366 28.506 0 0-1.825-10.635 7.68 12.366 28.506 0 0-2.702-.92zM30.943 8.044a24 24 0 0 0-11.532 2.985 13.552 6.255 0 0 0-2.02 3.27 13.552 6.255 0 0 0 13.552 6.255A13.552 6.255 0 0 0 44.495 14.3a13.552 6.255 0 0 0-2.095-3.337 24 24 0 0 0-11.457-2.918z" opacity=".3"/><path fill="#e3954f" stroke="#000" stroke-opacity=".25" d="M12.89 27.601a12.08 6.568 64.81 0 0-1.48.21l-7.715 3.798a12.08 6.568 64.81 0 0-.642.317l-.064.03.003.003a12.08 6.568 64.81 0 0-.606.485 12.08 6.568 64.81 0 0 1.333 15.03 12.08 6.568 64.81 0 0 10.074 6.047l7.736-3.807-.006-.011a12.08 6.568 64.81 0 0 .863-.631 12.08 6.568 64.81 0 0-1.334-15.03 12.08 6.568 64.81 0 0-8.162-6.44z"/><ellipse cx="-15.219" cy="37.302" stroke="#000" stroke-opacity=".25" stroke-width="1.014" opacity=".2" rx="6.848" ry="11.924" transform="matrix(.70813 -.70609 .51863 .855 0 0)"/></svg>