<svg width="64" height="64" version="1.1" xmlns="http://www.w3.org/2000/svg">
 <path d="m51.292 8.0074c-0.33626 0.027749-0.65847 0.094035-0.96416 0.19835h-0.0029l-0.01376-0.027547-0.2066 0.10193c-0.17216 0.069283-0.3385 0.15108-0.4985 0.24518l-25.167 13.538 9.738 22.087c8.5554-3.7449 17.25-10.339 25.894-13.789 0.05671-0.01772 0.11248-0.03763 0.16805-0.05786 0.12416-0.0451 0.24542-0.09656 0.36362-0.15427 0.06795-0.03326 0.13246-0.07283 0.19835-0.11019 0.10844-0.05884 0.21409-0.12314 0.3168-0.19282 0.15844-0.11182 0.31077-0.23412 0.45453-0.37189 0.1402-0.14032 0.27254-0.29288 0.39668-0.45728 0.08071-0.1034 0.15546-0.21334 0.22864-0.32506 0.06109-0.09057 0.11987-0.18427 0.17631-0.28098 0.07994-0.14109 0.15106-0.29162 0.22038-0.44351 0.03715-0.07739 0.07296-0.15638 0.10744-0.23691 0.06937-0.17074 0.12758-0.34942 0.18456-0.53166 0.02796-0.08494 0.05459-0.17128 0.0799-0.25895 0.04689-0.17191 0.08463-0.35108 0.12122-0.53166 0.02496-0.11205 0.04791-0.22593 0.06887-0.34158 0.02919-0.17994 0.04929-0.36663 0.06887-0.5537 0.01376-0.11699 0.02577-0.23546 0.03582-0.35537 0.01334-0.18992 0.01793-0.38524 0.02204-0.58126 0.0042-0.13805 6e-3 -0.27765 0.0054-0.41872-0.0021-0.16824-0.01334-0.3405-0.02204-0.51238-6e-3 -0.16634-0.01522-0.33442-0.02754-0.50412-5e-3 -0.05896-0.01334-0.11974-0.01918-0.17906-0.06178-0.6404-0.16688-1.2996-0.31404-1.9696-0.0063-0.02817-0.01293-0.05719-0.01918-0.0854-0.15533-0.691-0.35453-1.3901-0.59503-2.0881l-0.0083-0.02754c-0.0038-0.01101-0.0098-0.02202-0.01376-0.03306-0.24601-0.69829-0.53189-1.3918-0.85413-2.0716-0.01897-0.04023-0.03307-0.08103-0.05233-0.12121-0.35018-0.7306-0.74054-1.4412-1.1653-2.1212-0.2981-0.47405-0.61199-0.93153-0.93936-1.3691-0.03088-0.04158-0.05984-0.08556-0.09091-0.12672-0.32125-0.4252-0.65443-0.83017-0.99722-1.2121-0.0471-0.05252-0.09585-0.09994-0.14324-0.15152-0.29984-0.32653-0.60616-0.63468-0.91723-0.92282-0.05429-0.05024-0.10801-0.10255-0.16253-0.15151-0.35494-0.31961-0.71479-0.61228-1.0771-0.87601-0.02852-0.020704-0.05686-0.037509-0.0854-0.057848-0.31086-0.22052-0.62267-0.41919-0.9339-0.59503-0.096619-0.054877-0.19274-0.1093-0.28925-0.15977-0.34238-0.18206-0.68283-0.33573-1.0193-0.46004-0.03232-0.011655-0.06414-0.01643-0.09641-0.027547-0.3155-0.10737-0.62643-0.18832-0.93111-0.24242-0.08409-0.015262-0.16732-0.027384-0.25068-0.038566-0.33367-0.04858-0.65853-0.064225-0.97242-0.046831z" fill="#e3954f" stroke="#000000" stroke-opacity=".25"/>
 <circle cx="30.943" cy="32.022" r="23.978" fill="#edd448" stroke="#000000" stroke-opacity=".25"/>
 <path d="m43.396 11.836-16.941 8.3603a13.552 6.255 0 0 0 4.4876 0.35836 13.552 6.255 0 0 0 13.552-6.255 13.552 6.255 0 0 0-1.0995-2.4637zm5.4446 17.067a7.6793 12.366 28.506 0 0-9.9769 6.9391 7.6793 12.366 28.506 0 0-2.4514 6.3119l17.336-8.8611a7.6793 12.366 28.506 0 0-2.2031-3.4695 7.6793 12.366 28.506 0 0-2.7039-0.92032z" fill="#e3954f" stroke="#000000" stroke-opacity=".25"/>
 <path d="m48.841 28.902a7.6793 12.366 28.506 0 0-9.9763 6.9412 7.6793 12.366 28.506 0 0-0.1643 15.061 7.6793 12.366 28.506 0 0 7.8803-0.8092 24.655 24.372 0 0 0 6.7869-9.6376 7.6793 12.366 28.506 0 0-1.8242-10.635 7.6793 12.366 28.506 0 0-2.7023-0.92119z" opacity=".3" stroke="#000000" stroke-opacity=".25"/>
 <path d="m30.943 8.0443a23.978 23.978 0 0 0-11.532 2.985 13.552 6.255 0 0 0-2.0198 3.27 13.552 6.255 0 0 0 13.552 6.255 13.552 6.255 0 0 0 13.552-6.255 13.552 6.255 0 0 0-2.0952-3.3373 23.978 23.978 0 0 0-11.457-2.9177z" opacity=".3" stroke="#000000" stroke-opacity=".25"/>
 <path d="m12.89 27.601a12.08 6.568 64.81 0 0-1.4793 0.20936l-7.7161 3.7988a12.08 6.568 64.81 0 0-0.64186 0.3168l-0.063359 0.03029 0.00275 0.0029a12.08 6.568 64.81 0 0-0.60605 0.48484 12.08 6.568 64.81 0 0 1.3333 15.03 12.08 6.568 64.81 0 0 10.074 6.0467l7.7354-3.8071-0.0054-0.01105a12.08 6.568 64.81 0 0 0.86221-0.63081 12.08 6.568 64.81 0 0-1.3333-15.03 12.08 6.568 64.81 0 0-8.1624-6.4406z" fill="#e3954f" stroke="#000000" stroke-opacity=".25"/>
 <ellipse transform="matrix(.70813 -.70609 .51863 .855 0 0)" cx="-15.219" cy="37.302" rx="6.8482" ry="11.924" opacity=".2" stroke="#000000" stroke-opacity=".25" stroke-width="1.0145"/>
</svg>
