<svg xmlns="http://www.w3.org/2000/svg" width="64" height="64"><rect width="52" height="52" x="6.001" y="6" fill="#316ca7" stroke="#285280" stroke-width="2" rx="3.9"/><rect width="52" height="52" x="6.001" y="6" fill="#316ca7" rx="3.9"/><path fill="#fff" d="M17 11c-3.324 0-6 2.676-6 6v11h4V17c0-1.108.892-2 2-2h11v-4zm19 0v4h11c1.108 0 2 .892 2 2v11h4V17c0-3.324-2.676-6-6-6zM11 36v11c0 3.324 2.676 6 6 6h11v-4H17c-1.108 0-2-.892-2-2V36zm38 0v11c0 1.108-.892 2-2 2H36v4h11c3.324 0 6-2.676 6-6V36z"/></svg>