<svg width="64" height="64" version="1.1" xmlns="http://www.w3.org/2000/svg">
 <circle cx="32" cy="32" r="27" fill="#ef4246" stroke="#ce2c2f" stroke-width="2"/>
 <circle cx="32" cy="32" r="27" fill="#ef4246" stroke-width=".96429"/>
 <path d="m27.623 4.952c-1.894 0.40104-7.0638 0.74922-9.4372 6.5935 3.1701-2.5922 7.5451-2.9604 10.225-3.8992-1.2341 6.2417 2.8984 7.9497 4.4589 9.2112-1.0938-4.4862-1.0555-7.2315 1.6279-8.8576 4.5427 4.6229 8.3471 2.882 10.741 2.2094-2.1565-0.89687-4.993-0.62708-8.1503-4.3987-0.18047-0.2151 5.3503 1.4693 6.6372 2.0635-0.78932-1.2013-4.4534-2.3552-6.4641-3.0169-2.0107-0.66172-6.8469-0.49401-9.6378 0.094794z" fill="#2dba72"/>
 <path d="m44 22-14.546 7.3287-0.47055 0.23528-0.0136 0.019c-0.48124 0.25334-0.94219 0.55784-1.3467 0.96273-2.1634 2.1616-2.1634 5.67 0 7.8317 2.1616 2.1635 5.67 2.1635 7.8317 0 0.55942-0.55895 0.96846-1.2087 1.2386-1.9011z" fill="#fff"/>
 <path d="m33.268 32.732c0.9764 0.9764 0.9764 2.559 0 3.5354-0.9764 0.97641-2.559 0.97641-3.5354 0-0.97641-0.9764-0.97641-2.559 0-3.5354 0.9764-0.9764 2.559-0.9764 3.5354 0z" fill="#4a4a4a"/>
 <path d="m27.623 4.952c-1.894 0.40104-7.0638 0.74922-9.4372 6.5935 3.1701-2.5922 7.5451-2.9604 10.225-3.8992-1.2341 6.2417 2.8984 7.9497 4.4589 9.2112-1.0938-4.4862-1.0555-7.2315 1.6279-8.8576 4.5427 4.6229 8.3471 2.882 10.741 2.2094-2.1565-0.89687-4.993-0.62708-8.1503-4.3987-0.18047-0.2151 5.3503 1.4693 6.6372 2.0635-0.78932-1.2013-4.4534-2.3552-6.4641-3.0169-2.0107-0.66172-6.8469-0.49401-9.6378 0.094794z" fill="#2dba72" stroke="#2c965f"/>
 <path d="m33.334 3.3234-1.1812-0.3901s-1.5148 1.4602-1.7336 1.6443c-0.37734 0.32266 3.1445 0.84766 3.5802 0.61432l-0.3737-1.513z" fill="#259a5e"/>
</svg>
