<svg width="64" height="64" version="1.1" viewBox="0 0 16.933 16.933" xmlns="http://www.w3.org/2000/svg">
 <path transform="translate(0 -280.07)" d="M3.175 282.45c-.293 0-.265.264-.265.53H1.852c-.265 0-.265 0-.265.264v5.556c0 .293.237.53.53.53h12.7a.53.53 0 0 0 .529-.53v-5.556c0-.265 0-.265-.265-.265H7.673c0-.265.028-.53-.265-.53z" fill="#fff" fill-opacity=".976" stroke="#000" stroke-opacity=".268" stroke-width=".529" style="paint-order:markers stroke fill"/>
 <path transform="translate(0 -280.07)" d="M3.175 282.45c-.293 0-.265.264-.265.53H1.852c-.265 0-.265 0-.265.264v5.556c0 .293.237.53.53.53h12.7a.53.53 0 0 0 .529-.53v-5.556c0-.265 0-.265-.265-.265H7.673c0-.265.028-.53-.265-.53z" fill="#fff" fill-opacity=".976" style="paint-order:markers stroke fill"/>
 <path transform="translate(0 -280.07)" d="M8.467 284.3c-.293 0-.382.276-.53.53l-.308.528H.794c-.265 0-.265.265-.265.265v8.996c0 .264.265.264.265.264H16.14c.264 0 .264-.264.264-.264v-10.054c0-.265-.264-.265-.264-.265z" fill="none" stroke="#003779" stroke-opacity=".561" stroke-width=".529" style="paint-order:markers stroke fill"/>
 <path transform="translate(0 -280.07)" d="M8.467 284.3c-.293 0-.382.276-.53.53l-.308.528H.794c-.265 0-.265.265-.265.265v8.996c0 .264.265.264.265.264H16.14c.264 0 .264-.264.264-.264v-10.054c0-.265-.264-.265-.264-.265z" fill="#6ba4e7" style="paint-order:markers stroke fill"/>
 <path d="m10.271 8.1045c-0.74597 0.0049476-1.6697 0.21667-2.7931 0.82629-2.5676 1.3934-3.2649 3.8675-5.1391 5.8796l8.7776 0.0052c0.10782-2.0602 1.1126-2.6725 2.6768-4.472 0 0 0.99052-0.87519 0.76945-1.6991-0.23406-0.87231-2.0466 0.18657-2.2489 0.056802-0.41838-0.26836-1.0836-0.6032-2.0427-0.59685zm4.0849 0.79373c-0.46902 0.61477-1.0512 1.2097-1.8427 1.9389-0.77192 0.71117-2.0984 1.723-2.16 1.6164-0.0168-0.02901 1.3607-1.082 2.0262-1.6965 0.71748-0.66256 1.3438-1.2484 1.9766-1.8588zm-5.6833 3.085c0.20092 0 0.36379 0.19989 0.36379 0.44648 0 0.24658-0.16288 0.44648-0.36379 0.44648s-0.36379-0.19989-0.36379-0.44648c0-0.24658 0.16288-0.44648 0.36379-0.44648z" fill="#ffffff" fill-opacity=".4" stop-color="#000000" stroke-width=".26458" style="-inkscape-stroke:none;font-variation-settings:normal"/>
</svg>
