<svg xmlns="http://www.w3.org/2000/svg" width="64" height="64"><defs><linearGradient id="a" x1="22.004" x2="22.004" y1="44.854" y2="3.072" gradientTransform="translate(-.166 1.168)scale(1.3333)" gradientUnits="userSpaceOnUse"><stop offset="0" stop-color="#a0a0a0"/><stop offset="1" stop-color="#c8c8c8"/></linearGradient></defs><rect width="45" height="53.001" x="9.502" y="5.499" fill="#f3f3f3" stroke="#5e5750" stroke-linecap="round" stroke-linejoin="round" stroke-opacity=".255" stroke-width="1.002" paint-order="fill markers stroke" rx="0" ry="0"/><rect width=".34" height="43.636" x="27.054" y="-53.636" fill="#bad5ff" fill-opacity=".592" paint-order="markers stroke fill" rx="0" ry="0" transform="rotate(90)"/><rect width=".34" height="43.636" x="29.776" y="-53.636" fill="#bad5ff" fill-opacity=".592" paint-order="markers stroke fill" rx="0" ry="0" transform="rotate(90)"/><rect width=".34" height="43.636" x="43.001" y="-53.636" fill="#bad5ff" fill-opacity=".592" paint-order="markers stroke fill" rx="0" ry="0" transform="rotate(90)"/><rect width=".34" height="43.636" x="46.659" y="-53.636" fill="#bad5ff" fill-opacity=".592" paint-order="markers stroke fill" rx="0" ry="0" transform="rotate(90)"/><rect width=".68" height="52" x="49.32" y="5.998" fill="#bad5ff" fill-opacity=".592" paint-order="markers stroke fill" rx="0" ry="0"/><rect width=".68" height="52" x="15.999" y="5.998" fill="#f6b6b6" fill-opacity=".694" paint-order="markers stroke fill" rx="0" ry="0"/><rect width=".34" height="43.636" x="14.661" y="-53.636" fill="#bad5ff" fill-opacity=".592" paint-order="markers stroke fill" rx="0" ry="0" transform="rotate(90)"/><path fill="none" stroke="url(#a)" stroke-width="1.002" d="M17.167 16.498h3.13m.445 0h2.91m.466 0h2.592m.428 0h1.118m.446 0h2.506m.492 0h6.576m.446 0h5.008m.446 0H45.7m-28.536 3.001h4.857m.567 0h2.317m.427 0h1.145m.465 0h2.14m.445 0h2.193m.415 0h3.44m.446 0h4.535m-23.388 2.986h4.109m.43 0h6.766m.416 0h3.28m.42 0h3.069m.442 0h2.616m.42 0 4.111.026m-26.079 2.986h5.708m.453 0H29.5m.427 0h2.427m.446 0h5.775m.39 0h3.957m.446 0h1.568m.446 0h.87m-29.085 3.001H19.3m.654 0h7.896M17.168 41.5h4.853m.567 0h2.316m.428 0h1.145m.465 0h2.139m.446 0h2.192m.416 0h3.44m-18.408 3.957h4.109m.43 0h6.766m.416 0h3.28m11.596.084h6.702m-33.298-7.042h5.707m.453 0h6.173m.427 0h2.426m.446 0h5.775m-21.408-5.998h3.13m.446 0h2.91m.465 0h2.593m.427 0h1.119m.446 0h2.506m.491 0h6.576m.446 0h5.008m-26.563 2.997h5.27m.415 0h5.598m.427 0h2.192m.412 0h5.265m.423 0h5.753M17.168 48.5h4.925m.529 0h2.173m.507 0h1.084m.344 0h2.14m.283 0h11.324m.53 0h3.023m.408 0h.763m-22.42 3.001h1.606m-7.22 0h5.141m2.49 0h3.739m.397 0h5.488m.427 0h3.723m.378 0h.763m.42 0h4.728m.484 0h2.475m-25.04 2.997h2.268m-7.88 0h5.14m3.232 0h3.19"/><rect width=".34" height="43.636" x="17.658" y="-53.636" fill="#bad5ff" fill-opacity=".592" paint-order="markers stroke fill" rx="0" ry="0" transform="rotate(90)"/><rect width=".34" height="43.636" x="20.659" y="-53.636" fill="#bad5ff" fill-opacity=".592" paint-order="markers stroke fill" rx="0" ry="0" transform="rotate(90)"/><rect width=".34" height="43.636" x="23.66" y="-53.636" fill="#bad5ff" fill-opacity=".592" paint-order="markers stroke fill" rx="0" ry="0" transform="rotate(90)"/><rect width=".34" height="43.636" x="29.776" y="-53.636" fill="#bad5ff" fill-opacity=".592" paint-order="markers stroke fill" rx="0" ry="0" transform="rotate(90)"/><rect width=".34" height="43.636" x="33.661" y="-53.636" fill="#bad5ff" fill-opacity=".592" paint-order="markers stroke fill" rx="0" ry="0" transform="rotate(90)"/><rect width=".34" height="43.636" x="36.658" y="-53.636" fill="#bad5ff" fill-opacity=".592" paint-order="markers stroke fill" rx="0" ry="0" transform="rotate(90)"/><rect width=".34" height="43.636" x="39.659" y="-53.636" fill="#bad5ff" fill-opacity=".592" paint-order="markers stroke fill" rx="0" ry="0" transform="rotate(90)"/><rect width=".34" height="43.636" x="49.66" y="-53.636" fill="#bad5ff" fill-opacity=".592" paint-order="markers stroke fill" rx="0" ry="0" transform="rotate(90)"/><rect width=".34" height="43.636" x="52.661" y="-53.636" fill="#bad5ff" fill-opacity=".592" paint-order="markers stroke fill" rx="0" ry="0" transform="rotate(90)"/><circle cx="17" cy="16" r="15" fill="#314db9"/><circle cx="17" cy="16" r="14" fill="#4565e3"/><path fill="#fff" d="M11.955 9.112a13.413 15.333 16.976 0 0-2.446.481 13.413 15.333 16.976 0 0-4.214 2.13L9.01 13.8a13.413 15.333 16.976 0 1 .443-.152 13.413 15.333 16.976 0 1 9.619 1.133l-3.454 2.084 5.188 2.29 5.19 2.291.002-5.424.002-5.421-4.038 2.436a13.413 15.333 16.976 0 0-7.555-3.908 13.413 15.333 16.976 0 0-2.452-.017"/></svg>