<svg width="64" height="64" version="1.1" viewBox="0 0 64 64" xmlns="http://www.w3.org/2000/svg">
 <rect x="6.001" y="6" width="52" height="52" rx="3.9" fill="#316ca7" stroke="#285280" stroke-width="2"/>
 <rect x="6.001" y="6" width="52" height="52" rx="3.9" fill="#316ca7"/>
 <path d="m17 11c-3.324 0-6 2.676-6 6v11h4v-11c0-1.108 0.892-2 2-2h11v-4zm19 0v4h11c1.108 0 2 0.892 2 2v11h4v-11c0-3.324-2.676-6-6-6zm-25 25v11c0 3.324 2.676 6 6 6h11v-4h-11c-1.108 0-2-0.892-2-2v-11zm38 0v11c0 1.108-0.892 2-2 2h-11v4h11c3.324 0 6-2.676 6-6v-11z" fill="#ffffff" stroke-linecap="round" stroke-linejoin="round" stroke-width=".93333"/>
</svg>
