<svg xmlns="http://www.w3.org/2000/svg" width="64" height="64"><path fill="#fff" fill-opacity=".976" stroke="#000" stroke-opacity=".268" stroke-width=".529" d="M3.175 282.45c-.293 0-.265.264-.265.53H1.852c-.265 0-.265 0-.265.264v5.556c0 .293.237.53.53.53h12.7a.53.53 0 0 0 .529-.53v-5.556c0-.265 0-.265-.265-.265H7.673c0-.265.028-.53-.265-.53z" style="paint-order:markers stroke fill" transform="translate(0 -1058.6)scale(3.7796)"/><path fill="#fff" fill-opacity=".976" d="M3.175 282.45c-.293 0-.265.264-.265.53H1.852c-.265 0-.265 0-.265.264v5.556c0 .293.237.53.53.53h12.7a.53.53 0 0 0 .529-.53v-5.556c0-.265 0-.265-.265-.265H7.673c0-.265.028-.53-.265-.53z" style="paint-order:markers stroke fill" transform="translate(0 -1058.6)scale(3.7796)"/><path fill="none" stroke="#003779" stroke-opacity=".561" stroke-width=".529" d="M8.467 284.3c-.293 0-.382.276-.53.53l-.308.528H.794c-.265 0-.265.265-.265.265v8.996c0 .264.265.264.265.264H16.14c.264 0 .264-.264.264-.264v-10.054c0-.265-.264-.265-.264-.265z" style="paint-order:markers stroke fill" transform="translate(0 -1058.6)scale(3.7796)"/><path fill="#6ba4e7" d="M8.467 284.3c-.293 0-.382.276-.53.53l-.308.528H.794c-.265 0-.265.265-.265.265v8.996c0 .264.265.264.265.264H16.14c.264 0 .264-.264.264-.264v-10.054c0-.265-.264-.265-.264-.265z" style="paint-order:markers stroke fill" transform="translate(0 -1058.6)scale(3.7796)"/><path fill="#fff" d="M34.711 24a5.5 5.429 0 0 0-5.406 4.461 6.188 6.107 0 0 0-2.156-.39 6.188 6.107 0 0 0-6.188 6.108 6.188 6.107 0 0 0 .08.946 4.125 4.071 0 0 0-1.455-.268 4.125 4.071 0 0 0-4.125 4.072 4.125 4.071 0 0 0 4.125 4.07h26.125v-.073a3.438 3.393 0 0 0 2.75-3.319 3.438 3.393 0 0 0-3.438-3.393 3.438 3.393 0 0 0-.69.074 5.5 5.429 0 0 0 .003-.074 5.5 5.429 0 0 0-4.337-5.304 5.5 5.429 0 0 0 .212-1.481 5.5 5.429 0 0 0-5.5-5.43z"/><circle cx="25" cy="50.5" r="2.5" fill="#fff" opacity=".35"/><circle cx="32" cy="50.5" r="2.5" fill="#fff" opacity=".35"/><circle cx="39" cy="50.5" r="2.5" fill="#fff" opacity=".75"/></svg>