<svg xmlns="http://www.w3.org/2000/svg" width="64" height="64"><rect width="53.001" height="53.001" x="5.5" y="5.5" fill="#313a3e" color="#000" opacity=".9" overflow="visible" rx="2.891" ry="2.891"/><rect width="53.001" height="53.001" x="5.5" y="5.5" fill="none" stroke="#0d1113" stroke-linecap="round" stroke-linejoin="round" color="#000" opacity=".8" overflow="visible" rx="2.891" ry="2.891"/><rect width="15.999" height="1.999" x="20.002" y="34.001" fill="#62c9ea" ry="1.002" style="paint-order:stroke markers fill"/><path fill="#62c9ea" d="M15.016 15.855a1 1 0 0 0-.99.491 1 1 0 0 0 .366 1.369l10.742 6.198-10.742 6.202a1 1 0 0 0-.366 1.365c.28.48.888.642 1.368.366l12.125-7a.98.98 0 0 0 .48-.846c.008-.03.004-.057.008-.087 0-.03 0-.053-.008-.083a.98.98 0 0 0-.48-.85l-12.125-7a1 1 0 0 0-.378-.125" style="paint-order:stroke markers fill"/></svg>