<svg width="64" height="64" version="1.1" xmlns="http://www.w3.org/2000/svg">
 <rect x="5" y="5" width="54" height="54" ry="3.447" fill="#c24033"/>
 <rect x="6.08" y="6.08" width="51.84" height="51.84" ry="2.16" fill="#e87267"/>
 <path d="m35 21c-1.662 0-3 1.338-3 3h-12c-2.77 0-5 2.23-5 5v10c0 2.77 2.23 5 5 5h24c2.77 0 5-2.23 5-5v-10c0-2.77-2.23-5-5-5 0-1.662-1.338-3-3-3h-6zm-3 6a7 7 0 0 1 7 7 7 7 0 0 1-7 7 7 7 0 0 1-7-7 7 7 0 0 1 7-7zm13 0a1 1 0 0 1 1 1 1 1 0 0 1-1 1 1 1 0 0 1-1-1 1 1 0 0 1 1-1z" fill="#ffffff" stop-color="#000000"/>
 <circle cx="32" cy="34" r="5" fill="#ffffff" stop-color="#000000"/>
</svg>
