<?xml version="1.0" encoding="UTF-8"?>
<svg width="64" height="64" version="1.1" xmlns="http://www.w3.org/2000/svg" xmlns:cc="http://creativecommons.org/ns#" xmlns:dc="http://purl.org/dc/elements/1.1/" xmlns:rdf="http://www.w3.org/1999/02/22-rdf-syntax-ns#">
 <metadata>
  <rdf:RDF>
   <cc:Work rdf:about="">
    <dc:format>image/svg+xml</dc:format>
    <dc:type rdf:resource="http://purl.org/dc/dcmitype/StillImage"/>
    <dc:title/>
   </cc:Work>
  </rdf:RDF>
 </metadata>
 <g transform="translate(247.75 92.06)">
  <g transform="translate(-195.75 -83.56)">
   <rect x="-39.5" width="39" height="18.5" rx=".3" ry=".292" fill="none" stroke="#4f6698" stroke-opacity=".267"/>
   <path d="M-39 .5h38V18h-38z" fill="#fafafa"/>
  </g>
  <rect x="-246.25" y="-71.059" width="61" height="29" rx="1.5" ry="1.5" fill="#4c5263" stroke="#252831" stroke-opacity=".784"/>
  <rect x="-235.25" y="-50.059" width="39" height="13.5" rx=".3" ry=".289" fill="none" stroke="#4f6698" stroke-opacity=".267"/>
  <circle cx="-195.25" cy="-63.059" r="1.5" fill="#82b2ea"/>
  <rect x="-235.75" y="-50.559" width="40" height="3" rx=".3" ry=".3" fill-opacity=".404"/>
  <path d="m-234.75-49.559h38v12.5h-38z" fill="#fafafa"/>
  <path d="m-199.75-39.56v-1h-3.19v1zm-3.61 0v-1h-3.02v1zm-3.44 0v-1h-2.644v1zm-3.064 0v-1h-1.175v1zm-1.594 0v-1h-2.602v1zm-3.064 0v-1h-6.714v1zm14.772-3v-1h-5.078v1zm-5.581 0v-1h-2.434v1zm-2.896 0v-1h-1.133v1zm-1.637 0v-1h-2.182v1zm-2.685 0v-1h-2.182v1zm-2.644 0v-1h-3.567v1zm-4.07 0v-1h-4.659v1zm19.513-3v-1h-5.623v1zm-6.043 0v-1h-6.043v1z" fill="#b4bfd8" fill-opacity=".643"/>
 </g>
 <g transform="scale(3.7796)">
  <path d="m8.355 11.123c0.157-0.119 0.599 0.103 1.004 0.506s0.618 0.834 0.503 0.993c0 0 0.01 8e-3 0.01 0.01l5.647-5.676c0.143-0.144-0.08-0.6-0.498-1.016-0.418-0.417-0.875-0.637-1.018-0.493z" fill="#333" stroke="#0c0c0c" stroke-linejoin="round" stroke-width=".132"/>
  <path d="m13.313 6.14c0.158-0.118 0.6 0.103 1.005 0.507 0.404 0.402 0.618 0.833 0.502 0.992l0.01 0.01 0.689-0.693 0.014-0.014-0.01-0.01c0.116-0.159-0.097-0.59-0.502-0.992-0.406-0.404-0.847-0.625-1.004-0.507l-0.014 0.014z" fill="#ffb6ed" opacity=".8" stroke="#e28ccd" stroke-linejoin="round" stroke-width=".132"/>
  <g fill="#b3b3b3">
   <path d="m12.476 6.981c0.158-0.118 0.6 0.103 1.005 0.507 0.404 0.402 0.618 0.833 0.502 0.992l0.01 0.01 0.07-0.071-0.01-0.01c0.116-0.159-0.097-0.59-0.502-0.992-0.406-0.404-0.847-0.625-1.004-0.507l-0.07 0.07z"/>
   <path d="m12.7 6.756c0.158-0.118 0.6 0.103 1.005 0.507 0.404 0.402 0.617 0.833 0.502 0.992l0.01 0.01 0.07-0.071-0.01-0.01c0.116-0.159-0.097-0.59-0.502-0.992-0.406-0.404-0.847-0.625-1.004-0.507l-0.07 0.07z"/>
   <path d="m12.925 6.529c0.158-0.118 0.6 0.104 1.005 0.507 0.404 0.403 0.618 0.834 0.502 0.993l0.01 0.01 0.07-0.072-0.01-9e-3c0.116-0.159-0.097-0.59-0.502-0.992-0.406-0.404-0.847-0.625-1.004-0.507l-0.07 0.07z"/>
  </g>
  <path d="m7.273 13.691 2.57-1.048 0.021-0.022c0.115-0.159-0.1-0.59-0.505-0.992-0.406-0.404-0.847-0.624-1.004-0.506z" fill="#f5f1d0" fill-rule="evenodd" stroke="#dbce48" stroke-width=".132"/>
  <path d="m7.566 12.996-0.294 0.692 0.701-0.287c-0.056-0.067-0.108-0.135-0.175-0.203a2.843 2.843 0 0 0-0.232-0.202z" fill="#0c0c0c" fill-rule="evenodd" stroke="#0c0c0c" stroke-width=".132"/>
 </g>
</svg>
