<svg width="64" height="64" version="1.1" viewBox="0 0 16.933 16.933" xmlns="http://www.w3.org/2000/svg">
 <rect x="1.4552" y="1.4552" width="14.023" height="14.023" rx=".7649" ry=".7649" color="#000000" fill="#313a3e" opacity=".9" overflow="visible" stroke-width=".26458"/>
 <rect x="1.4552" y="1.4552" width="14.023" height="14.023" rx=".7649" ry=".7649" color="#000000" fill="none" opacity=".8" overflow="visible" stroke="#0d1113" stroke-linecap="round" stroke-linejoin="round" stroke-width=".26458"/>
 <g fill="#fff">
  <rect x="5.292" y="8.996" width="4.233" height=".529" ry=".265" style="paint-order:stroke markers fill"/>
  <path d="m3.973 4.195a0.264 0.264 0 0 0-0.262 0.13 0.264 0.264 0 0 0 0.097 0.362l2.842 1.64-2.842 1.641a0.264 0.264 0 0 0-0.097 0.361c0.074 0.127 0.235 0.17 0.362 0.097l3.208-1.852a0.26 0.26 0 0 0 0.127-0.224c2e-3 -8e-3 1e-3 -0.015 2e-3 -0.023 0-8e-3 0-0.014-2e-3 -0.022a0.26 0.26 0 0 0-0.127-0.225l-3.208-1.852a0.266 0.266 0 0 0-0.1-0.033z" style="paint-order:stroke markers fill"/>
 </g>
 <circle cx="12.964" cy="12.964" r="3.175" fill="#6ba4e7" stroke="#457ec4" stroke-width=".529" paint-order="stroke markers fill"/>
 <circle cx="12.964" cy="12.964" r="3.175" fill="#6ba4e7" paint-order="stroke markers fill"/>
 <g transform="translate(.26433 -279.8)" paint-order="stroke markers fill">
  <circle cx="12.7" cy="292.77" r="1.588" opacity=".15"/>
  <g fill="#ffffff">
   <path d="m12.7 291.42a1.343 1.343 0 0 0-1.343 1.344 1.343 1.343 0 0 0 1.343 1.343 1.343 1.343 0 0 0 1.343-1.343 1.343 1.343 0 0 0-1.343-1.344zm0 0.611a0.733 0.733 0 0 1 0.733 0.733 0.733 0.733 0 0 1-0.733 0.732 0.733 0.733 0 0 1-0.733-0.732 0.733 0.733 0 0 1 0.733-0.733z"/>
   <path d="m12.456 290.87h0.488v0.855h-0.488zm0 2.931h0.488v0.854h-0.488zm2.137-1.283v0.489h-0.855v-0.489zm-2.931 0v0.489h-0.855v-0.489zm2.549 1.41-0.345 0.346-0.605-0.605 0.346-0.345zm-2.072-2.072-0.346 0.345-0.604-0.604 0.345-0.345zm-0.605 2.418-0.345-0.346 0.604-0.604 0.346 0.345zm2.073-2.073-0.346-0.345 0.605-0.604 0.345 0.345z"/>
  </g>
 </g>
</svg>
