<svg width="64" height="64" version="1.1" viewBox="0 0 64 64" xmlns="http://www.w3.org/2000/svg">
 <rect x="6.001" y="6" width="52" height="52" rx="3.9" fill="#dd5563" stroke="#d73142" stroke-width="2"/>
 <rect x="6.001" y="6" width="52" height="52" rx="3.9" fill="#dd5563"/>
 <g transform="matrix(1.3,0,0,1.3,-499.14,-648.94)" font-size="12.666px" stroke-width=".76923">
  <text x="730.88" y="132.19" font-family="'Droid Sans'" stroke-width=".76923"/>
 </g>
 <g fill="#ffffff">
  <rect x="16" y="24" width="9" height="7" rx="1" ry="1"/>
  <rect x="27" y="24" width="9" height="7" rx="1" ry="1"/>
  <rect x="16" y="33" width="9" height="7" rx="1" ry="1"/>
  <rect x="27" y="33" width="9" height="7" rx="1" ry="1"/>
 </g>
 <path d="m32 16a16 16 0 0 0-12.449 6h4.2012a13 13 0 0 1 8.248-3 13 13 0 0 1 13 13 13 13 0 0 1-13 13 13 13 0 0 1-8.248-3h-4.2012a16 16 0 0 0 12.449 6 16 16 0 0 0 16-16 16 16 0 0 0-16-16z" fill="#ffffff" stop-color="#000000" stroke-linecap="round" stroke-linejoin="round" stroke-width="2"/>
</svg>
