<svg xmlns="http://www.w3.org/2000/svg" width="64" height="64"><g transform="translate(247.75 92.06)"><g transform="translate(-195.75 -83.56)"><rect width="39" height="18.5" x="-39.5" fill="none" stroke="#4f6698" stroke-opacity=".267" rx=".3" ry=".292"/><path fill="#fafafa" d="M-39 .5h38V18h-38z"/></g><rect width="61" height="29" x="-246.25" y="-71.059" fill="#4c5263" stroke="#252831" stroke-opacity=".784" rx="1.5" ry="1.5"/><rect width="39" height="13.5" x="-235.25" y="-50.059" fill="none" stroke="#4f6698" stroke-opacity=".267" rx=".3" ry=".289"/><circle cx="-195.25" cy="-63.059" r="1.5" fill="#82b2ea"/><rect width="40" height="3" x="-235.75" y="-50.559" fill-opacity=".404" rx=".3" ry=".3"/><path fill="#fafafa" d="M-234.75-49.559h38v12.5h-38z"/><path fill="#b4bfd8" fill-opacity=".643" d="M-199.75-39.56v-1h-3.19v1zm-3.61 0v-1h-3.02v1zm-3.44 0v-1h-2.644v1zm-3.064 0v-1h-1.175v1zm-1.594 0v-1h-2.602v1zm-3.064 0v-1h-6.714v1zm14.772-3v-1h-5.078v1zm-5.581 0v-1h-2.434v1zm-2.896 0v-1h-1.133v1zm-1.637 0v-1h-2.182v1zm-2.685 0v-1h-2.182v1zm-2.644 0v-1h-3.567v1zm-4.07 0v-1h-4.659v1zm19.513-3v-1h-5.623v1zm-6.043 0v-1h-6.043v1z"/></g><path fill="#8d92a5" d="M41.815 24.078c.81.645.995 1.753.414 2.485L27.524 45.044c-.581.73-3.076 1.863-3.564 1.475-.487-.388.055-3.074.636-3.804l14.705-18.481c.583-.732 1.704-.802 2.514-.156"/></svg>