<svg xmlns="http://www.w3.org/2000/svg" width="64" height="64" viewBox="0 0 16.933 16.933"><rect width="14.023" height="14.023" x="1.455" y="1.455" fill="#313a3e" color="#000" opacity=".9" overflow="visible" rx=".765" ry=".765"/><rect width="14.023" height="14.023" x="1.455" y="1.455" fill="none" stroke="#0d1113" stroke-linecap="round" stroke-linejoin="round" stroke-width=".265" color="#000" opacity=".8" overflow="visible" rx=".765" ry=".765"/><g fill="#fff"><rect width="4.233" height=".529" x="5.292" y="8.996" ry=".265" style="paint-order:stroke markers fill"/><path d="M3.973 4.195a.26.26 0 0 0-.262.13.264.264 0 0 0 .097.362l2.842 1.64-2.842 1.641a.264.264 0 0 0-.097.361c.074.127.235.17.362.097l3.208-1.852a.26.26 0 0 0 .127-.224q.002-.011.002-.023 0-.011-.002-.022a.26.26 0 0 0-.127-.225L4.073 4.228a.3.3 0 0 0-.1-.033" style="paint-order:stroke markers fill"/></g><circle cx="12.964" cy="12.964" r="3.175" fill="#6ba4e7" stroke="#457ec4" stroke-width=".529" paint-order="stroke markers fill"/><circle cx="12.964" cy="12.964" r="3.175" fill="#6ba4e7" paint-order="stroke markers fill"/><g paint-order="stroke markers fill" transform="translate(.264 -279.8)"><circle cx="12.7" cy="292.77" r="1.588" opacity=".15"/><g fill="#fff"><path d="M12.7 291.42a1.343 1.343 0 0 0-1.343 1.344 1.343 1.343 0 0 0 1.343 1.343 1.343 1.343 0 0 0 1.343-1.343 1.343 1.343 0 0 0-1.343-1.344m0 .611a.733.733 0 0 1 .733.733.733.733 0 0 1-.733.732.733.733 0 0 1-.733-.732.733.733 0 0 1 .733-.733"/><path d="M12.456 290.87h.488v.855h-.488zm0 2.931h.488v.854h-.488zm2.137-1.283v.489h-.855v-.489zm-2.931 0v.489h-.855v-.489zm2.549 1.41-.345.346-.605-.605.346-.345zm-2.072-2.072-.346.345-.604-.604.345-.345zm-.605 2.418-.345-.346.604-.604.346.345zm2.073-2.073-.346-.345.605-.604.345.345z"/></g></g></svg>