<svg xmlns="http://www.w3.org/2000/svg" width="64" height="64"><rect width="54" height="54" x="5" y="5" fill="#c24033" ry="3.447"/><rect width="51.84" height="51.84" x="6.08" y="6.08" fill="#e87267" ry="2.16"/><path fill="#fff" d="M35 21c-1.662 0-3 1.338-3 3H20c-2.77 0-5 2.23-5 5v10c0 2.77 2.23 5 5 5h24c2.77 0 5-2.23 5-5V29c0-2.77-2.23-5-5-5 0-1.662-1.338-3-3-3zm-3 6a7 7 0 0 1 7 7 7 7 0 0 1-7 7 7 7 0 0 1-7-7 7 7 0 0 1 7-7m13 0a1 1 0 0 1 1 1 1 1 0 0 1-1 1 1 1 0 0 1-1-1 1 1 0 0 1 1-1"/><circle cx="32" cy="34" r="5" fill="#fff"/></svg>