<svg width="64" height="64" version="1.1" viewBox="0 0 64 64" xmlns="http://www.w3.org/2000/svg">
 <path d="m35.026 60.746 25.721-25.721c1.6717-1.6717 1.6717-4.3797 0-6.0514l-25.721-25.721c-1.6717-1.6717-4.3797-1.6717-6.0514 0l-25.721 25.721c-1.6717 1.6717-1.6717 4.3797 0 6.0514l25.721 25.721c1.6717 1.6717 4.3797 1.6717 6.0514 0zm0 0" fill="#69c2bf" stroke="#428f8d" stroke-linecap="round" stroke-linejoin="round" stroke-width="2"/>
 <path d="m35.026 60.746 25.721-25.721c1.6717-1.6717 1.6717-4.3797 0-6.0514l-25.721-25.721c-1.6717-1.6717-4.3797-1.6717-6.0514 0l-25.721 25.721c-1.6717 1.6717-1.6717 4.3797 0 6.0514l25.721 25.721c1.6717 1.6717 4.3797 1.6717 6.0514 0z" fill="#69c2bf" stroke-width=".53493"/>
 <path d="m12.742 30.93h19.258v19.258z" fill="#ffffff" stroke-width=".53493"/>
 <path d="m44.838 18.092h-12.838v12.838z" fill="#ffffff" opacity=".75" stroke-width=".53493"/>
 <path d="m32 30.93h9.6288v9.6288z" fill="#ffffff" opacity=".5" stroke-width=".53493"/>
</svg>
