<svg xmlns="http://www.w3.org/2000/svg" width="64" height="64"><rect width="52" height="52" x="6.001" y="6" fill="#dd5563" stroke="#d73142" stroke-width="2" rx="3.9"/><rect width="52" height="52" x="6.001" y="6" fill="#dd5563" rx="3.9"/><g fill="#fff"><rect width="9" height="7" x="16" y="24" rx="1" ry="1"/><rect width="9" height="7" x="27" y="24" rx="1" ry="1"/><rect width="9" height="7" x="16" y="33" rx="1" ry="1"/><rect width="9" height="7" x="27" y="33" rx="1" ry="1"/></g><path fill="#fff" d="M32 16a16 16 0 0 0-12.449 6h4.201A13 13 0 0 1 32 19a13 13 0 0 1 13 13 13 13 0 0 1-13 13 13 13 0 0 1-8.248-3h-4.201A16 16 0 0 0 32 48a16 16 0 0 0 16-16 16 16 0 0 0-16-16"/></svg>