<svg xmlns="http://www.w3.org/2000/svg" width="64" height="64"><path fill="#69c2bf" stroke="#428f8d" stroke-linecap="round" stroke-linejoin="round" stroke-width="2" d="m35.026 60.746 25.721-25.721a4.28 4.28 0 0 0 0-6.051L35.026 3.253a4.28 4.28 0 0 0-6.051 0L3.254 28.973a4.28 4.28 0 0 0 0 6.052l25.72 25.721a4.28 4.28 0 0 0 6.052 0m0 0"/><path fill="#69c2bf" d="m35.026 60.746 25.721-25.721a4.28 4.28 0 0 0 0-6.051L35.026 3.253a4.28 4.28 0 0 0-6.051 0L3.254 28.973a4.28 4.28 0 0 0 0 6.052l25.72 25.721a4.28 4.28 0 0 0 6.052 0"/><path fill="#fff" d="M12.742 30.93H32v19.258z"/><path fill="#fff" d="M44.838 18.092H32V30.93z" opacity=".75"/><path fill="#fff" d="M32 30.93h9.629v9.629z" opacity=".5"/></svg>