<svg xmlns="http://www.w3.org/2000/svg" width="64" height="64"><path fill="#999994" stroke="#757575" stroke-width="2" d="M22.416 19.84c.147 6.288-1.89 11.756-7.608 15.851l8.527 4.092c-.53-6.978 2.463-12.01 7.608-15.849zm18.915 0c-.147 6.288 1.887 11.756 7.608 15.851l-8.527 4.092c.53-6.978-2.463-12.01-7.608-15.849zm-1.586 22.541c-5.39 2.85-10.974 3.378-16.898-.01l-.006 9.459c5.829-3.494 11.433-2.972 16.898.011z" style="paint-order:stroke fill markers"/><path fill="#999994" d="M41.331 19.84c-.147 6.288 1.887 11.756 7.608 15.851l-8.527 4.092c.53-6.978-2.463-12.01-7.608-15.849zm-18.915 0c.147 6.288-1.89 11.756-7.608 15.851l8.527 4.092c-.53-6.978 2.463-12.01 7.608-15.849z"/><path fill="#f9f9f9" stroke="#c2c2c2" stroke-width="2" d="M44 15c0 6.627-5.373 12-12 12s-12-5.373-12-12S25.373 3 32 3s12 5.373 12 12z" style="paint-order:stroke fill markers"/><path fill="#999994" d="M39.745 42.381c-5.39 2.85-10.974 3.378-16.898-.01l-.006 9.459c5.829-3.494 11.433-2.972 16.898.011z"/><path fill="#f9f9f9" stroke="#c2c2c2" stroke-width="2" d="M26 47c0 6.627-5.371 12-12 12-6.627 0-12-5.373-12-12s5.373-12 12-12c6.629 0 12 5.373 12 12zm36 0c0 6.627-5.371 12-12 12-6.627 0-12-5.373-12-12s5.373-12 12-12c6.629 0 12 5.373 12 12z" style="paint-order:stroke fill markers"/><path fill="#f9f9f9" d="M44 15c0 6.627-5.373 12-12 12s-12-5.373-12-12S25.373 3 32 3s12 5.373 12 12M26 47c0 6.627-5.371 12-12 12-6.627 0-12-5.373-12-12s5.373-12 12-12c6.629 0 12 5.373 12 12m36 0c0 6.627-5.371 12-12 12-6.627 0-12-5.373-12-12s5.373-12 12-12c6.629 0 12 5.373 12 12"/></svg>