<?xml version="1.0" encoding="UTF-8"?>
<svg width="64" height="64" version="1.1" viewBox="0 0 64 64" xmlns="http://www.w3.org/2000/svg">
 <path d="m8.1512 11h47.656c2.3047 0 4.1719 1.8672 4.1719 4.1719v33.656c0 2.3047-1.8672 4.1719-4.1719 4.1719h-47.656c-2.3047 0-4.1719-1.8672-4.1719-4.1719v-33.656c0-2.3047 1.8672-4.1719 4.1719-4.1719z" fill="#5e5c64" stroke="#3d3846" stroke-width="2"/>
 <g stroke-width=".5">
  <path d="m8.1512 11h47.656c2.3047 0 4.1719 1.8672 4.1719 4.1719v33.656c0 2.3047-1.8672 4.1719-4.1719 4.1719h-47.656c-2.3047 0-4.1719-1.8672-4.1719-4.1719v-33.656c0-2.3047 1.8672-4.1719 4.1719-4.1719z" fill="#5e5c64"/>
  <path d="m53.479 45h3c0.83008 0 1.5 0.66992 1.5 1.5v2.5c0 0.83008-0.66992 1.5-1.5 1.5h-3c-0.83008 0-1.5-0.66992-1.5-1.5v-2.5c0-0.83008 0.66992-1.5 1.5-1.5zm-21 0h17c0.83008 0 1.5 0.66992 1.5 1.5v2.5c0 0.83008-0.66992 1.5-1.5 1.5h-17c-0.83203 0-1.5-0.66992-1.5-1.5v-2.5c0-0.83008 0.66797-1.5 1.5-1.5zm-7 0h3c0.83008 0 1.5 0.66992 1.5 1.5v2.5c0 0.83008-0.66992 1.5-1.5 1.5h-3c-0.83008 0-1.5-0.66992-1.5-1.5v-2.5c0-0.83008 0.66992-1.5 1.5-1.5zm-7 0h3c0.83008 0 1.5 0.66992 1.5 1.5v2.5c0 0.83008-0.66992 1.5-1.5 1.5h-3c-0.83008 0-1.5-0.66992-1.5-1.5v-2.5c0-0.83008 0.66992-1.5 1.5-1.5zm-11 0h7c0.83008 0 1.5 0.66992 1.5 1.5v2.5c0 0.83008-0.66992 1.5-1.5 1.5h-7c-0.83203 0-1.5-0.66992-1.5-1.5v-2.5c0-0.83008 0.66797-1.5 1.5-1.5zm48.98-11.922h0.01953c0.83008 0 1.5 0.66992 1.5 1.5v7.9219c0 0.83008-0.66992 1.5-1.5 1.5h-0.01955c-0.83203 0-1.5-0.66992-1.5-1.5v-7.9219c0-0.83008 0.66797-1.5 1.5-1.5zm-2.9805-2.0781h3c0.83008 0 1.5 0.66992 1.5 1.5v2.5c0 0.83008-0.66992 1.5-1.5 1.5h-3c-0.83008 0-1.5-0.66992-1.5-1.5v-2.5c0-0.83008 0.66992-1.5 1.5-1.5zm-4 7h3c0.83008 0 1.5 0.66992 1.5 1.5v2.5c0 0.83008-0.66992 1.5-1.5 1.5h-3c-0.83008 0-1.5-0.66992-1.5-1.5v-2.5c0-0.83008 0.66992-1.5 1.5-1.5zm-7 0h3c0.83008 0 1.5 0.66992 1.5 1.5v2.5c0 0.83008-0.66992 1.5-1.5 1.5h-3c-0.83008 0-1.5-0.66992-1.5-1.5v-2.5c0-0.83008 0.66992-1.5 1.5-1.5zm-35 0h3c0.83008 0 1.5 0.66992 1.5 1.5v2.5c0 0.83008-0.66992 1.5-1.5 1.5h-3c-0.83008 0-1.5-0.66992-1.5-1.5v-2.5c0-0.83008 0.66992-1.5 1.5-1.5zm28 0h3c0.83008 0 1.5 0.66992 1.5 1.5v2.5c0 0.83008-0.66992 1.5-1.5 1.5h-3c-0.83008 0-1.5-0.66992-1.5-1.5v-2.5c0-0.83008 0.66992-1.5 1.5-1.5zm-7 0h3c0.83008 0 1.5 0.66992 1.5 1.5v2.5c0 0.83008-0.66992 1.5-1.5 1.5h-3c-0.83008 0-1.5-0.66992-1.5-1.5v-2.5c0-0.83008 0.66992-1.5 1.5-1.5zm-7 0h3c0.83008 0 1.5 0.66992 1.5 1.5v2.5c0 0.83008-0.66992 1.5-1.5 1.5h-3c-0.83008 0-1.5-0.66992-1.5-1.5v-2.5c0-0.83008 0.66992-1.5 1.5-1.5zm-7 0h3c0.83008 0 1.5 0.66992 1.5 1.5v2.5c0 0.83008-0.66992 1.5-1.5 1.5h-3c-0.83008 0-1.5-0.66992-1.5-1.5v-2.5c0-0.83008 0.66992-1.5 1.5-1.5zm32-7h3c0.83008 0 1.5 0.66992 1.5 1.5v2.5c0 0.83008-0.66992 1.5-1.5 1.5h-3c-0.83008 0-1.5-0.66992-1.5-1.5v-2.5c0-0.83008 0.66992-1.5 1.5-1.5zm-7 0h3c0.83008 0 1.5 0.66992 1.5 1.5v2.5c0 0.83008-0.66992 1.5-1.5 1.5h-3c-0.83008 0-1.5-0.66992-1.5-1.5v-2.5c0-0.83008 0.66992-1.5 1.5-1.5zm-7 0h3c0.83008 0 1.5 0.66992 1.5 1.5v2.5c0 0.83008-0.66992 1.5-1.5 1.5h-3c-0.83008 0-1.5-0.66992-1.5-1.5v-2.5c0-0.83008 0.66992-1.5 1.5-1.5zm-7 0h3c0.83008 0 1.5 0.66992 1.5 1.5v2.5c0 0.83008-0.66992 1.5-1.5 1.5h-3c-0.83008 0-1.5-0.66992-1.5-1.5v-2.5c0-0.83008 0.66992-1.5 1.5-1.5zm-7 0h3c0.83008 0 1.5 0.66992 1.5 1.5v2.5c0 0.83008-0.66992 1.5-1.5 1.5h-3c-0.83008 0-1.5-0.66992-1.5-1.5v-2.5c0-0.83008 0.66992-1.5 1.5-1.5zm-11 0h7c0.83008 0 1.5 0.66992 1.5 1.5v2.5c0 0.83008-0.66992 1.5-1.5 1.5h-7c-0.83203 0-1.5-0.66992-1.5-1.5v-2.5c0-0.83008 0.66797-1.5 1.5-1.5zm42-7.0293h7c0.83008 0 1.5 0.66992 1.5 1.5v2.5c0 0.83008-0.66992 1.5-1.5 1.5h-7c-0.83008 0-1.5-0.66992-1.5-1.5v-2.5c0-0.83008 0.66992-1.5 1.5-1.5zm-7 0h3c0.83008 0 1.5 0.66992 1.5 1.5v2.5c0 0.83008-0.66992 1.5-1.5 1.5h-3c-0.83008 0-1.5-0.66992-1.5-1.5v-2.5c0-0.83008 0.66992-1.5 1.5-1.5zm-35 0h3c0.83008 0 1.5 0.66992 1.5 1.5v2.5c0 0.83008-0.66992 1.5-1.5 1.5h-3c-0.83008 0-1.5-0.66992-1.5-1.5v-2.5c0-0.83008 0.66992-1.5 1.5-1.5zm28 0h3c0.83008 0 1.5 0.66992 1.5 1.5v2.5c0 0.83008-0.66992 1.5-1.5 1.5h-3c-0.83008 0-1.5-0.66992-1.5-1.5v-2.5c0-0.83008 0.66992-1.5 1.5-1.5zm-7 0h3c0.83008 0 1.5 0.66992 1.5 1.5v2.5c0 0.83008-0.66992 1.5-1.5 1.5h-3c-0.83008 0-1.5-0.66992-1.5-1.5v-2.5c0-0.83008 0.66992-1.5 1.5-1.5zm-7 0h3c0.83008 0 1.5 0.66992 1.5 1.5v2.5c0 0.83008-0.66992 1.5-1.5 1.5h-3c-0.83008 0-1.5-0.66992-1.5-1.5v-2.5c0-0.83008 0.66992-1.5 1.5-1.5zm-7 0h3c0.83008 0 1.5 0.66992 1.5 1.5v2.5c0 0.83008-0.66992 1.5-1.5 1.5h-3c-0.83008 0-1.5-0.66992-1.5-1.5v-2.5c0-0.83008 0.66992-1.5 1.5-1.5zm39-4.9707h3c0.83008 0 1.5 0.55664 1.5 1.25 0 0.69336-0.66992 1.25-1.5 1.25h-3c-0.83008 0-1.5-0.55664-1.5-1.25 0-0.69336 0.66992-1.25 1.5-1.25zm-7 0h3c0.83008 0 1.5 0.55664 1.5 1.25 0 0.69336-0.66992 1.25-1.5 1.25h-3c-0.83008 0-1.5-0.55664-1.5-1.25 0-0.69336 0.66992-1.25 1.5-1.25zm-11 0h3c0.83008 0 1.5 0.55664 1.5 1.25 0 0.69336-0.66992 1.25-1.5 1.25h-3c-0.83008 0-1.5-0.55664-1.5-1.25 0-0.69336 0.66992-1.25 1.5-1.25zm-7 0h3c0.83008 0 1.5 0.55664 1.5 1.25 0 0.69336-0.66992 1.25-1.5 1.25h-3c-0.83008 0-1.5-0.55664-1.5-1.25 0-0.69336 0.66992-1.25 1.5-1.25zm-7 0h3c0.83008 0 1.5 0.55664 1.5 1.25 0 0.69336-0.66992 1.25-1.5 1.25h-3c-0.83008 0-1.5-0.55664-1.5-1.25 0-0.69336 0.66992-1.25 1.5-1.25zm-7 0h3c0.83008 0 1.5 0.55664 1.5 1.25 0 0.69336-0.66992 1.25-1.5 1.25h-3c-0.83008 0-1.5-0.55664-1.5-1.25 0-0.69336 0.66992-1.25 1.5-1.25zm-7 0h3c0.83008 0 1.5 0.55664 1.5 1.25 0 0.69336-0.66992 1.25-1.5 1.25h-3c-0.83008 0-1.5-0.55664-1.5-1.25 0-0.69336 0.66992-1.25 1.5-1.25z" fill="#3d3846"/>
  <path d="m50.96 12.959c0.5625 0 1.0195 0.45703 1.0195 1.0215 0 0.5625-0.45703 1.0195-1.0195 1.0195-0.56446 0-1.0215-0.45703-1.0215-1.0195 0-0.56445 0.45703-1.0215 1.0215-1.0215z" fill="#f9f06b"/>
  <path d="m54.979 13c0.55274 0 1 0.44727 1 1 0 0.55274-0.44726 1-1 1s-1-0.44726-1-1c0-0.55273 0.44726-1 1-1z" fill="#f9f06b"/>
 </g>
 <g stroke="#deddda">
  <path d="m48.462 35.512v-15.002c0-2.209-1.7891-4.002-4-4.0039l-9.9883-0.005859c-1.0605 0-2.0762 0.41992-2.8262 1.1699s-1.1699 1.7676-1.168 2.8262l0.0059 6" fill="none" stroke-dasharray="2, 2"/>
  <path d="m39.075 29.631h16.898c1.9551 0 3.5391 1.3926 3.5391 3.1094v14.643c0 1.7168-1.584 3.1094-3.5391 3.1094h-16.898c-1.9551 0-3.541-1.3926-3.541-3.1094v-14.643c0-1.7168 1.5859-3.1094 3.541-3.1094zm0 0" fill="#3d3846" fill-rule="evenodd" stroke-linecap="round" stroke-linejoin="round"/>
  <path d="m28.378 23.674h3.2031c0.66016 0 1.1934 0.5332 1.1934 1.1934v2.6895c0 0.66016-0.5332 1.1934-1.1934 1.1934h-3.2031c-0.66016 0-1.1934-0.5332-1.1934-1.1934v-2.6895c0-0.66016 0.5332-1.1934 1.1934-1.1934zm0 0" fill="#3d3846" fill-rule="evenodd" stroke-linecap="round" stroke-linejoin="round" stroke-width=".5"/>
 </g>
 <path d="m47.481 46c2.5039 0 4.0586-1.459 4.1348-3.666h-2.6504c-0.10547 0.94727-0.67383 1.4648-1.4512 1.4648-0.99609 0-1.6465-0.84375-1.6465-2.4297 0-1.5742 0.65625-2.416 1.6465-2.416 0.8125 0 1.3398 0.55078 1.4512 1.4629h2.6504c-0.06446-2.1953-1.6641-3.625-4.1406-3.625-2.8027 0-4.4961 1.8711-4.4961 4.6074 0 2.7246 1.6816 4.6016 4.502 4.6016zm-1.1445-12.84h-2.377v0.07617l2.5117 2.6016h2.0352l2.5059-2.6016v-0.07617h-2.3711l-1.1543 1.3477z" fill="#fff" stroke-width=".5"/>
</svg>
