<svg xmlns="http://www.w3.org/2000/svg" width="64" height="64"><path fill="#5e5c64" stroke="#3d3846" stroke-width="2" d="M8.151 11h47.656a4.17 4.17 0 0 1 4.172 4.172v33.656A4.17 4.17 0 0 1 55.807 53H8.151a4.17 4.17 0 0 1-4.172-4.172V15.172A4.17 4.17 0 0 1 8.151 11z"/><g stroke-width=".5"><path fill="#5e5c64" d="M8.151 11h47.656a4.17 4.17 0 0 1 4.172 4.172v33.656A4.17 4.17 0 0 1 55.807 53H8.151a4.17 4.17 0 0 1-4.172-4.172V15.172A4.17 4.17 0 0 1 8.151 11"/><path fill="#3d3846" d="M53.479 45h3c.83 0 1.5.67 1.5 1.5V49c0 .83-.67 1.5-1.5 1.5h-3c-.83 0-1.5-.67-1.5-1.5v-2.5c0-.83.67-1.5 1.5-1.5m-21 0h17c.83 0 1.5.67 1.5 1.5V49c0 .83-.67 1.5-1.5 1.5h-17c-.832 0-1.5-.67-1.5-1.5v-2.5c0-.83.668-1.5 1.5-1.5m-7 0h3c.83 0 1.5.67 1.5 1.5V49c0 .83-.67 1.5-1.5 1.5h-3c-.83 0-1.5-.67-1.5-1.5v-2.5c0-.83.67-1.5 1.5-1.5m-7 0h3c.83 0 1.5.67 1.5 1.5V49c0 .83-.67 1.5-1.5 1.5h-3c-.83 0-1.5-.67-1.5-1.5v-2.5c0-.83.67-1.5 1.5-1.5m-11 0h7c.83 0 1.5.67 1.5 1.5V49c0 .83-.67 1.5-1.5 1.5h-7c-.832 0-1.5-.67-1.5-1.5v-2.5c0-.83.668-1.5 1.5-1.5m48.98-11.922h.02c.83 0 1.5.67 1.5 1.5V42.5c0 .83-.67 1.5-1.5 1.5h-.02c-.832 0-1.5-.67-1.5-1.5v-7.922c0-.83.668-1.5 1.5-1.5M53.479 31h3c.83 0 1.5.67 1.5 1.5V35c0 .83-.67 1.5-1.5 1.5h-3c-.83 0-1.5-.67-1.5-1.5v-2.5c0-.83.67-1.5 1.5-1.5m-4 7h3c.83 0 1.5.67 1.5 1.5V42c0 .83-.67 1.5-1.5 1.5h-3c-.83 0-1.5-.67-1.5-1.5v-2.5c0-.83.67-1.5 1.5-1.5m-7 0h3c.83 0 1.5.67 1.5 1.5V42c0 .83-.67 1.5-1.5 1.5h-3c-.83 0-1.5-.67-1.5-1.5v-2.5c0-.83.67-1.5 1.5-1.5m-35 0h3c.83 0 1.5.67 1.5 1.5V42c0 .83-.67 1.5-1.5 1.5h-3c-.83 0-1.5-.67-1.5-1.5v-2.5c0-.83.67-1.5 1.5-1.5m28 0h3c.83 0 1.5.67 1.5 1.5V42c0 .83-.67 1.5-1.5 1.5h-3c-.83 0-1.5-.67-1.5-1.5v-2.5c0-.83.67-1.5 1.5-1.5m-7 0h3c.83 0 1.5.67 1.5 1.5V42c0 .83-.67 1.5-1.5 1.5h-3c-.83 0-1.5-.67-1.5-1.5v-2.5c0-.83.67-1.5 1.5-1.5m-7 0h3c.83 0 1.5.67 1.5 1.5V42c0 .83-.67 1.5-1.5 1.5h-3c-.83 0-1.5-.67-1.5-1.5v-2.5c0-.83.67-1.5 1.5-1.5m-7 0h3c.83 0 1.5.67 1.5 1.5V42c0 .83-.67 1.5-1.5 1.5h-3c-.83 0-1.5-.67-1.5-1.5v-2.5c0-.83.67-1.5 1.5-1.5m32-7h3c.83 0 1.5.67 1.5 1.5V35c0 .83-.67 1.5-1.5 1.5h-3c-.83 0-1.5-.67-1.5-1.5v-2.5c0-.83.67-1.5 1.5-1.5m-7 0h3c.83 0 1.5.67 1.5 1.5V35c0 .83-.67 1.5-1.5 1.5h-3c-.83 0-1.5-.67-1.5-1.5v-2.5c0-.83.67-1.5 1.5-1.5m-7 0h3c.83 0 1.5.67 1.5 1.5V35c0 .83-.67 1.5-1.5 1.5h-3c-.83 0-1.5-.67-1.5-1.5v-2.5c0-.83.67-1.5 1.5-1.5m-7 0h3c.83 0 1.5.67 1.5 1.5V35c0 .83-.67 1.5-1.5 1.5h-3c-.83 0-1.5-.67-1.5-1.5v-2.5c0-.83.67-1.5 1.5-1.5m-7 0h3c.83 0 1.5.67 1.5 1.5V35c0 .83-.67 1.5-1.5 1.5h-3c-.83 0-1.5-.67-1.5-1.5v-2.5c0-.83.67-1.5 1.5-1.5m-11 0h7c.83 0 1.5.67 1.5 1.5V35c0 .83-.67 1.5-1.5 1.5h-7c-.833 0-1.5-.67-1.5-1.5v-2.5c0-.83.667-1.5 1.5-1.5m42-7.03h7c.83 0 1.5.67 1.5 1.5v2.5c0 .83-.67 1.5-1.5 1.5h-7c-.83 0-1.5-.67-1.5-1.5v-2.5c0-.83.67-1.5 1.5-1.5m-7 0h3c.83 0 1.5.67 1.5 1.5v2.5c0 .83-.67 1.5-1.5 1.5h-3c-.83 0-1.5-.67-1.5-1.5v-2.5c0-.83.67-1.5 1.5-1.5m-35 0h3c.83 0 1.5.67 1.5 1.5v2.5c0 .83-.67 1.5-1.5 1.5h-3c-.83 0-1.5-.67-1.5-1.5v-2.5c0-.83.67-1.5 1.5-1.5m28 0h3c.83 0 1.5.67 1.5 1.5v2.5c0 .83-.67 1.5-1.5 1.5h-3c-.83 0-1.5-.67-1.5-1.5v-2.5c0-.83.67-1.5 1.5-1.5m-7 0h3c.83 0 1.5.67 1.5 1.5v2.5c0 .83-.67 1.5-1.5 1.5h-3c-.83 0-1.5-.67-1.5-1.5v-2.5c0-.83.67-1.5 1.5-1.5m-7 0h3c.83 0 1.5.67 1.5 1.5v2.5c0 .83-.67 1.5-1.5 1.5h-3c-.83 0-1.5-.67-1.5-1.5v-2.5c0-.83.67-1.5 1.5-1.5m-7 0h3c.83 0 1.5.67 1.5 1.5v2.5c0 .83-.67 1.5-1.5 1.5h-3c-.83 0-1.5-.67-1.5-1.5v-2.5c0-.83.67-1.5 1.5-1.5m39-4.97h3c.83 0 1.5.557 1.5 1.25s-.67 1.25-1.5 1.25h-3c-.83 0-1.5-.557-1.5-1.25s.67-1.25 1.5-1.25m-7 0h3c.83 0 1.5.557 1.5 1.25s-.67 1.25-1.5 1.25h-3c-.83 0-1.5-.557-1.5-1.25s.67-1.25 1.5-1.25m-11 0h3c.83 0 1.5.557 1.5 1.25s-.67 1.25-1.5 1.25h-3c-.83 0-1.5-.557-1.5-1.25s.67-1.25 1.5-1.25m-7 0h3c.83 0 1.5.557 1.5 1.25s-.67 1.25-1.5 1.25h-3c-.83 0-1.5-.557-1.5-1.25s.67-1.25 1.5-1.25m-7 0h3c.83 0 1.5.557 1.5 1.25s-.67 1.25-1.5 1.25h-3c-.83 0-1.5-.557-1.5-1.25s.67-1.25 1.5-1.25m-7 0h3c.83 0 1.5.557 1.5 1.25s-.67 1.25-1.5 1.25h-3c-.83 0-1.5-.557-1.5-1.25s.67-1.25 1.5-1.25m-7 0h3c.83 0 1.5.557 1.5 1.25s-.67 1.25-1.5 1.25h-3c-.83 0-1.5-.557-1.5-1.25s.67-1.25 1.5-1.25"/><path fill="#f9f06b" d="M50.96 12.959A1.02 1.02 0 1 1 50.958 15a1.02 1.02 0 0 1 .002-2.041M54.979 13a1 1 0 1 1 .001 1.999A1 1 0 0 1 54.98 13"/></g><g stroke="#deddda"><path fill="none" stroke-dasharray="2, 2" d="M48.462 35.512V20.51a4.004 4.004 0 0 0-4-4.004l-9.988-.006a3.994 3.994 0 0 0-3.994 3.996l.005 6"/><path fill="#3d3846" fill-rule="evenodd" stroke-linecap="round" stroke-linejoin="round" d="M39.075 29.631h16.898c1.955 0 3.54 1.393 3.54 3.11v14.642c0 1.717-1.585 3.11-3.54 3.11H39.075c-1.955 0-3.541-1.393-3.541-3.11V32.74c0-1.716 1.586-3.109 3.541-3.109m0 0"/><path fill="#3d3846" fill-rule="evenodd" stroke-linecap="round" stroke-linejoin="round" stroke-width=".5" d="M28.378 23.674h3.203c.66 0 1.193.533 1.193 1.193v2.69c0 .66-.533 1.193-1.193 1.193h-3.203c-.66 0-1.193-.533-1.193-1.193v-2.69c0-.66.533-1.193 1.193-1.193m0 0"/></g><path fill="#fff" d="M47.481 46c2.504 0 4.059-1.459 4.135-3.666h-2.65c-.106.947-.674 1.465-1.452 1.465-.996 0-1.646-.844-1.646-2.43 0-1.574.656-2.416 1.646-2.416.813 0 1.34.55 1.451 1.463h2.65c-.064-2.195-1.663-3.625-4.14-3.625-2.803 0-4.496 1.871-4.496 4.607 0 2.725 1.682 4.602 4.502 4.602zm-1.144-12.84h-2.378v.076l2.512 2.602h2.035l2.506-2.602v-.076h-2.37l-1.155 1.348z"/></svg>