<svg xmlns="http://www.w3.org/2000/svg" width="64" height="64"><rect width="55" height="49" x="4.5" y="-56.5" fill="#e6e6e6" stroke="#000" stroke-linecap="round" stroke-linejoin="round" stroke-opacity=".196" rx="2.558" ry="2.579" transform="scale(1 -1)"/><path fill="#f9f9f9" d="M5 45V10.552C5 8 7.571 8 7.571 8h48.857C59 8 59 10.552 59 10.552V45z"/><path d="M5 46h54v-1H5z" opacity=".15"/><path d="M11 48a3 3 0 0 0-3 3 3 3 0 0 0 3 3 3 3 0 0 0 3-3 3 3 0 0 0-3-3m0 1a2 2 0 0 1 2 2 2 2 0 0 1-2 2 2 2 0 0 1-2-2 2 2 0 0 1 2-2" opacity=".15" style="paint-order:fill markers stroke"/><rect width="14" height="4" x="41" y="49" fill="#b3b3b3" opacity=".75" rx="0" ry="0" style="paint-order:fill markers stroke"/><g fill-rule="evenodd"><circle cx="11" cy="51" r="2" fill="#fff" style="paint-order:fill markers stroke"/><rect width="6" height="6" x="17" y="48" opacity=".15" rx="1.5" ry="1.5" style="paint-order:fill markers stroke"/><rect width="4" height="4" x="18" y="49" fill="#fff" rx="1" ry="1" style="paint-order:fill markers stroke"/><rect width="6" height="6" x="27" y="48" opacity=".15" rx="1.5" ry="1.5" style="paint-order:fill markers stroke"/><rect width="4" height="4" x="28" y="49" fill="#fff" rx="1" ry="1" style="paint-order:fill markers stroke"/></g></svg>