<svg width="64" height="64" version="1.1" xmlns="http://www.w3.org/2000/svg">
 <rect transform="scale(1,-1)" x="4.5" y="-56.5" width="55" height="49" rx="2.5581" ry="2.5789" fill="#e6e6e6" stroke="#000" stroke-linecap="round" stroke-linejoin="round" stroke-opacity=".196"/>
 <path d="m5 45v-34.448c0-2.5517 2.5714-2.5517 2.5714-2.5517h48.857c2.5714 0 2.5714 2.5517 2.5714 2.5517v34.448z" fill="#f9f9f9"/>
 <path d="m5 46h54v-1h-54z" opacity=".15"/>
 <path d="m11 48a3 3 0 0 0-3 3 3 3 0 0 0 3 3 3 3 0 0 0 3-3 3 3 0 0 0-3-3zm0 1.2a1.8 1.8 0 0 1 1.8 1.8 1.8 1.8 0 0 1-1.8 1.8 1.8 1.8 0 0 1-1.8-1.8 1.8 1.8 0 0 1 1.8-1.8z" fill="#ccc" opacity=".9" style="paint-order:fill markers stroke"/>
 <circle transform="scale(1,-1)" cx="11" cy="-51" r="2" fill="#9f9f9f" opacity=".9" style="paint-order:fill markers stroke"/>
 <g transform="matrix(1.2791 0 0 1.2799 1.3023 .64234)" stroke-width=".78156" style="paint-order:fill markers stroke">
  <rect x="12.273" y="37.001" width="4.6909" height="4.6879" rx=".93818" ry=".93757" fill="#b3b3b3" opacity=".75"/>
  <rect x="13.055" y="37.782" width="3.1273" height="3.1252" rx=".62545" ry=".62505" fill="#f9f9f9" opacity=".75"/>
 </g>
 <rect x="41" y="49" width="14" height="4" rx="0" ry="0" fill="#b3b3b3" opacity=".75" style="paint-order:fill markers stroke"/>
</svg>
