<svg xmlns="http://www.w3.org/2000/svg" width="64" height="64" viewBox="0 0 16.933 16.933"><circle cx="8.466" cy="8.466" r="7.144" fill="#476acc" stroke="#2f4ea7" stroke-width=".529"/><circle cx="8.466" cy="8.466" r="7.144" fill="#476acc"/><circle cx="8.466" cy="8.466" r="7.144" fill="none"/><path fill="#fff" d="M8.466 5.706c-3.45 0-4.486 1.038-4.486 5.35 0 .69 2.416-.862 3.106-1.897h2.76c.691 1.035 3.107 2.578 3.107 1.898 0-4.314-1.035-5.351-4.486-5.351zm2.071 1.035a.345.345 0 0 1 .345.345.345.345 0 0 1-.345.345.345.345 0 0 1-.345-.345.345.345 0 0 1 .345-.345m-4.141.003h.345v.69h.69v.346h-.69v.69h-.345v-.69h-.69v-.345h.69zm3.45.687a.345.345 0 0 1 .346.345.345.345 0 0 1-.345.345.345.345 0 0 1-.345-.345.345.345 0 0 1 .345-.345zm1.381 0a.345.345 0 0 1 .345.345.345.345 0 0 1-.345.345.345.345 0 0 1-.345-.345.345.345 0 0 1 .345-.345m-.69.69a.345.345 0 0 1 .345.346.345.345 0 0 1-.345.345.345.345 0 0 1-.345-.345.345.345 0 0 1 .345-.346"/></svg>