<svg xmlns="http://www.w3.org/2000/svg" width="64" height="64" viewBox="0 0 16.933 16.933"><path fill="#f95" fill-rule="evenodd" stroke="#da7836" stroke-width=".529" d="M14.287 1.852c.293 0 .53.236.53.53v12.17a.53.53 0 0 1-.53.53H8.202V1.851z" style="paint-order:fill markers stroke"/><path fill="#5f8dd3" fill-rule="evenodd" stroke="#3464ae" stroke-width=".529" d="M2.646 1.852a.53.53 0 0 0-.53.53v12.17c0 .293.237.53.53.53H9.26V1.851z" style="paint-order:fill markers stroke"/><path fill="#f95" fill-rule="evenodd" d="M14.287 1.852c.293 0 .53.236.53.53v12.17a.53.53 0 0 1-.53.53H8.202V1.851z" style="paint-order:fill markers stroke"/><path fill="#5f8dd3" fill-rule="evenodd" d="M2.646 1.852a.53.53 0 0 0-.53.53v12.17c0 .293.237.53.53.53H9.26V1.851z" style="paint-order:fill markers stroke"/><path fill="#37c871" fill-rule="evenodd" stroke="#2f9d5b" stroke-width=".529" d="M13.414 1.592c.298-.028.609.067.609.51v12.73c0 .412-.31.532-.609.51l-5.473-.26.01-13.227z" style="paint-order:fill markers stroke"/><path fill="#37c871" fill-rule="evenodd" d="M13.414 1.592c.298-.028.609.067.609.51v12.73c0 .412-.31.532-.609.51l-5.473-.26.01-13.227z" style="paint-order:fill markers stroke"/><path fill="#4e76b2" fill-rule="evenodd" stroke="#2a5596" stroke-width=".529" d="M12.7 1.323c.259-.029.53.07.53.53V15.08c0 .428-.27.553-.53.53l-4.763-.53V1.85z" style="paint-order:fill markers stroke"/><path fill="#4e76b2" fill-rule="evenodd" d="M12.7 1.323c.259-.029.53.07.53.53V15.08c0 .428-.27.553-.53.53l-4.763-.53V1.85z" style="paint-order:fill markers stroke"/><path fill="#4e76b2" d="M7.673 1.852h.529v13.229h-.529z" style="paint-order:stroke fill markers"/><path fill="#fff" d="M7.885 4.5c-.08-.013-.158.04-.242.182-.134.227-.195.863-.085 1.475.037.21.117.513.225.845-.086.31-.181.64-.285.967-.412 1.292-1.296 2.646-1.762 3.375-.294.458-1.003.997-1.063.892-.058-.105.141-.34.39-.717.247-.375.881-.764.881-.764s-.27-.01-.964.6c-.693.614-.483.917-.318 1.01.164.096.624.46 2.188-2.256.572-.993.903-1.895 1.096-2.643.198.512.453 1.029.736 1.355.165.19.382.373.623.541-.19.035-.408.077-.703.13-1.08.197-1.618.622-1.63.631.008-.002 1.265-.4 2.6-.585.525.32 1.128.566 1.627.665.779.158.99-.128 1.016-.166-.03.025-.132.072-.453.045-.258-.021-.965-.221-1.68-.605 1.481-.137 1.993.014 2.125.12.132.105.132.223.132.223s.17-.164.058-.33c-.094-.173-.239-.316-1.427-.28-.59.017-.906.038-1.21.078a4.1 4.1 0 0 1-.98-.814c-.366-.434-.59-.933-.736-1.424.219-1.054.15-1.707.15-1.713 0 0-.111.505-.282 1.17-.099-.503-.132-.967-.16-1.297-.06-.756.278-.546.326-.45.077.062.115.27.115.27s-.027-.31-.162-.442a.3.3 0 0 0-.146-.088m-.913 5.624h-.004v.003z"/></svg>