<svg xmlns="http://www.w3.org/2000/svg" width="64" height="64"><circle cx="32" cy="32" r="27" fill="#cbd2d5" stroke="#9fabb1" stroke-width="2"/><circle cx="32" cy="32" r="27" fill="#cbd2d5"/><circle cx="32" cy="-32" r="18.9" fill="#a4b0b6" transform="scale(1 -1)"/><path fill="#303334" d="M32.001 41.447a1.35 1.35 0 0 1-1.35-1.35 1.35 1.35 0 0 1 1.35-1.35 1.35 1.35 0 0 1 1.35 1.35 1.35 1.35 0 0 1-1.35 1.35m-5.708-2.373a1.35 1.35 0 0 1-.973-.396 1.35 1.35 0 0 1 0-1.909 1.35 1.35 0 0 1 1.909 0 1.35 1.35 0 0 1 0 1.91 1.35 1.35 0 0 1-.936.395m11.417 0a1.35 1.35 0 0 1-.937-.396 1.35 1.35 0 0 1 0-1.909 1.35 1.35 0 0 1 1.91 0 1.35 1.35 0 0 1 0 1.91 1.35 1.35 0 0 1-.973.395M32 34.697a2.7 2.7 0 0 1-2.7-2.7 2.7 2.7 0 0 1 2.7-2.7 2.7 2.7 0 0 1 2.7 2.7 2.7 2.7 0 0 1-2.7 2.7m-8.1-1.35a1.35 1.35 0 0 1-1.35-1.35 1.35 1.35 0 0 1 1.35-1.35 1.35 1.35 0 0 1 1.35 1.35 1.35 1.35 0 0 1-1.35 1.35m16.2 0a1.35 1.35 0 0 1-1.35-1.35 1.35 1.35 0 0 1 1.35-1.35 1.35 1.35 0 0 1 1.35 1.35 1.35 1.35 0 0 1-1.35 1.35M26.253 27.62a1.35 1.35 0 0 1-.933-.396 1.35 1.35 0 0 1 0-1.909 1.35 1.35 0 0 1 1.909 0 1.35 1.35 0 0 1 0 1.91 1.35 1.35 0 0 1-.976.395m11.496 0a1.35 1.35 0 0 1-.976-.396 1.35 1.35 0 0 1 0-1.909 1.35 1.35 0 0 1 1.91 0 1.35 1.35 0 0 1 0 1.91 1.35 1.35 0 0 1-.934.395m-5.748-2.373a1.35 1.35 0 0 1-1.35-1.35 1.35 1.35 0 0 1 1.35-1.35 1.35 1.35 0 0 1 1.35 1.35 1.35 1.35 0 0 1-1.35 1.35"/></svg>