<svg xmlns="http://www.w3.org/2000/svg" width="64" height="64" viewBox="0 0 16.933 16.933"><g transform="translate(0 -280.07)"><path fill="#fff" stroke="#000" stroke-opacity=".137" stroke-width=".529" d="M7.144 282.183a5.556 5.556 0 0 0-5.557 5.557v5.556H5.91a5.56 5.56 0 0 1-1.676-3.969 5.556 5.556 0 0 1 5.557-5.556 5.6 5.6 0 0 1 1.42.191 5.56 5.56 0 0 0-4.066-1.779z" paint-order="stroke markers fill"/><path fill="#fff" d="M7.144 282.18a5.556 5.556 0 0 0-5.557 5.557v5.556h5.557a5.556 5.556 0 0 0 5.556-5.556 5.556 5.556 0 0 0-5.556-5.557" paint-order="stroke markers fill"/><path fill="#69e17c" stroke="#20943c" stroke-opacity=".745" stroke-width=".265" d="M9.922 283.9a5.556 5.556 0 0 1 5.556 5.556v5.557H9.922a5.556 5.556 0 0 1-5.556-5.557 5.556 5.556 0 0 1 5.556-5.556z" opacity=".65" paint-order="fill markers stroke"/><path fill="#70bd87" d="M9.79 283.774a5.556 5.556 0 0 0-5.557 5.556 5.56 5.56 0 0 0 1.677 3.97h1.235a5.556 5.556 0 0 0 5.556-5.556 5.56 5.56 0 0 0-1.491-3.778 5.6 5.6 0 0 0-1.42-.19z" opacity=".5" paint-order="stroke markers fill"/><rect width="4.762" height=".529" x="7.673" y="288.53" fill="#fff" paint-order="stroke markers fill" ry=".265"/><rect width="3.969" height=".529" x="7.673" y="290.12" fill="#fff" paint-order="stroke markers fill" ry=".265"/></g></svg>