<svg xmlns="http://www.w3.org/2000/svg" xmlns:xlink="http://www.w3.org/1999/xlink" width="64" height="64" viewBox="0 0 16.933 16.933"><defs><linearGradient id="b"><stop offset="0" stop-color="#70bd87"/><stop offset="1" stop-color="#70bd87" stop-opacity="0"/></linearGradient><linearGradient id="a"><stop offset="0" stop-color="#69e17c"/><stop offset="1" stop-color="#5eda82"/></linearGradient><linearGradient xlink:href="#a" id="c" x1="10.583" y1="283.506" x2="10.583" y2="294.619" gradientUnits="userSpaceOnUse" gradientTransform="translate(-.661 .397)"/><linearGradient xlink:href="#b" id="d" x1="27" y1="50" x2="27" y2="14" gradientUnits="userSpaceOnUse"/></defs><g transform="translate(0 -280.067)"><path d="M7.144 282.183a5.556 5.556 0 0 0-5.557 5.557v5.556H5.91a5.556 5.556 0 0 1-1.676-3.969 5.556 5.556 0 0 1 5.557-5.556 5.556 5.556 0 0 1 1.42.191 5.556 5.556 0 0 0-4.066-1.779z" fill="#fff" stroke="#000" stroke-width=".529" stroke-opacity=".137" paint-order="stroke markers fill"/><path d="M7.144 282.183a5.556 5.556 0 0 0-5.557 5.557v5.556h5.557a5.556 5.556 0 0 0 5.556-5.556 5.556 5.556 0 0 0-5.556-5.557z" fill="#fff" paint-order="stroke markers fill"/><path d="M9.922 283.903a5.556 5.556 0 0 1 5.556 5.556v5.557H9.922a5.556 5.556 0 0 1-5.556-5.557 5.556 5.556 0 0 1 5.556-5.556z" opacity=".65" fill="url(#c)" stroke="#20943c" stroke-width=".265" stroke-opacity=".745" paint-order="fill markers stroke"/><path d="M37 14a21 21 0 0 0-21 21 21 21 0 0 0 6.332 15H27a21 21 0 0 0 21-21 21 21 0 0 0-5.635-14.277A21 21 0 0 0 37 14z" transform="translate(0 280.067) scale(.26458)" fill="url(#d)" paint-order="stroke markers fill"/><rect width="4.762" height=".529" x="7.673" y="288.533" ry=".265" fill="#fff" paint-order="stroke markers fill"/><rect ry=".265" y="290.121" x="7.673" height=".529" width="3.969" fill="#fff" paint-order="stroke markers fill"/></g></svg>