<svg xmlns="http://www.w3.org/2000/svg" width="64" height="64" viewBox="0 0 16.933 16.933"><defs><radialGradient id="a" cx="51.783" cy="-71.55" r="26.61" gradientTransform="matrix(.39079 .00479 -.00391 .31941 -9.85 25.692)" gradientUnits="userSpaceOnUse"><stop offset="0" stop-color="#f9eee5"/><stop offset=".317" stop-color="#f4e7db"/><stop offset="1" stop-color="#d3b28f"/></radialGradient><radialGradient id="b" cx="51.067" cy="-67.575" r="26.61" gradientTransform="matrix(.25604 .15978 -.07849 .12577 -7.76 4.048)" gradientUnits="userSpaceOnUse"><stop offset="0" stop-color="#ecded0" stop-opacity="0"/><stop offset=".337" stop-color="#ebddcf" stop-opacity="0"/><stop offset="1" stop-color="#cca987"/></radialGradient></defs><path fill="url(#a)" stroke="#000" stroke-linecap="round" stroke-linejoin="round" stroke-opacity=".15" stroke-width=".265" d="M3.52 8.85c.037-.303-.051-.627.27-.883-.507.113-1.608-1.92.537-2.096-3.304-.903.909-4.546 2.038-1.864 2.23-4.846 9.054-2.028 6.21 2.037.991-.147 2.108 1.485.48 2.211.71.427.653 1.282-.346 1.384l-6.171.942z"/><path fill="url(#b)" stroke="#000" stroke-linecap="round" stroke-linejoin="round" stroke-opacity=".15" stroke-width=".265" d="M10.059 1.45a3.83 3.83 0 0 0-2.69 1.107 6.728 6.344 0 0 1 5.45 3.1c1.326-2.359-.585-4.207-2.76-4.207"/><path fill="#cc1e1f" stroke="#000" stroke-linecap="round" stroke-linejoin="round" stroke-opacity=".15" stroke-width=".265" d="M7.76 1.966a.786.786 0 0 0-1.09.801.55.55 0 0 0 .056.225h0l.082.202.165.402h0l.299.73 1.333-.546a.786.786 0 0 0 .43-1.028.786.786 0 0 0-.907-.469.8.8 0 0 0-.367-.317zm-2.771-.274a.63.63 0 0 0-.19.36c-.03.22.091.388.284.425a.3.3 0 0 0 .14.005h0l.135-.016.27-.03h0l.488-.057.102-.754.018-.134a.5.5 0 0 0-.006-.157c-.04-.182-.203-.297-.417-.272a.67.67 0 0 0-.538.464.66.66 0 0 0-.286.166"/><path fill="#ffdbb3" stroke="#000" stroke-linecap="round" stroke-linejoin="round" stroke-opacity=".15" stroke-width=".265" d="M3.52 8.85c.037-.303-.051-.627.27-.883-.507.113-1.608-1.92.537-2.096-3.304-.903.909-4.546 2.038-1.864 2.23-4.846 9.054-2.028 6.21 2.037.991-.147 2.108 1.485.48 2.211.71.427.653 1.282-.346 1.384l-6.171.942z"/><path fill="#fff" stroke="#000" stroke-linecap="round" stroke-linejoin="round" stroke-opacity=".15" stroke-width=".265" d="m6.417 9.685.288 6.19.876-.088.876-.1.876-.092.876-.094.876-.092.876-.095.876-.093.673-6.132c.046-.502-.663-.568-1.014.08-.04-.665-1.036-.458-1.013.083-.03-.546-1.016-.52-1.013.084-.014-.615-1.061-.568-1.013.09-.052-.673-1.047-.538-1.014.083-.028-.612-1.048-.47-1.013.086-.032-.56-1.027-.577-1.013.09"/><path fill="#d30d0e" stroke="#000" stroke-linecap="round" stroke-linejoin="round" stroke-opacity=".15" stroke-width=".265" d="M8.443 9.509c-.028-.612-1.048-.47-1.013.086l.151 6.192.876-.1zm2.027-.173c-.014-.615-1.061-.568-1.013.09l-.124 6.17.876-.095zm2.027-.167c-.04-.665-1.037-.458-1.014.083l-.398 6.157.876-.095z"/><path fill="#e6e6e6" stroke="#000" stroke-linecap="round" stroke-linejoin="round" stroke-opacity=".15" stroke-width=".265" d="m6.705 15.874-2.441-1.672-.884-5.68c-.076-.474.352-.233.35.133-.001-.374.29-.54.428.165.001-.483.247-.458.418.16-.002-.473.266-.55.417.16.04-.605.342-.432.453.173-.004-.392.37-.671.547.21-.031-.682.409-.437.424.161z"/><path fill="#af090b" stroke="#000" stroke-linecap="round" stroke-linejoin="round" stroke-opacity=".15" stroke-width=".265" d="m6.298 15.595-.394-.27-.458-6.012c-.004-.392.37-.671.547.21zm-.719-.492-.352-.241-.65-5.882c-.003-.473.265-.55.416.16zm-.697-.478-.317-.217-.836-5.753c0-.374.29-.54.429.165"/><circle cx="11.06" cy="6.106" r=".774" fill="#430201"/><circle cx="11.224" cy="5.857" r=".207" fill="#fff"/><circle cx="6.216" cy="6.107" r=".774" fill="#430201"/><circle cx="6.379" cy="5.857" r=".207" fill="#fff"/><path fill="#330002" d="M7.782 6.715h1.711c.17 0 .308.137.308.308v.374c0 1.357-2.326 1.319-2.326 0v-.374c0-.17.137-.308.308-.308z"/><path fill="#8d161a" d="M8.638 7.84a.7.7 0 0 0-.634.409c.38.198.891.203 1.271.008a.7.7 0 0 0-.637-.417"/></svg>