<svg width="64" height="64" version="1" xmlns="http://www.w3.org/2000/svg">
 <rect x="6" y="6" width="52" height="52" rx="8" ry="8" fill="#3c6eb4" stroke="#385b8a" stroke-width="2"/>
 <rect x="6" y="6" width="52" height="52" rx="8" ry="8" fill="#3c6eb4" stroke-width=".92857"/>
 <path d="m40.015 14.001c-0.20005-0.01218-0.52036 0.11589-1.1055 0.37109-0.69454 0.30295-2.2722 0.55078-3.5078 0.55078-4.3727 0.08929-7.872 1.5874-10.707 4.4102-3.8481 3.8574-5.06 8.7089-3.3047 13.215 0.40518 1.0401 0.6521 2.0986 0.54688 2.3516-0.10518 0.25295-0.84513 0.95367-1.6406 1.5586-1.7284 1.3142-2.9236 3.4333-3.2227 5.7109-0.17963 1.3681-0.05568 2.0208 0.70703 3.6484 1.638 3.4952 5.3532 4.9923 9.3125 3.7539 2.2926-0.71703 4.5855-3.2649 6.4219-7.1289 1.5861-3.3374 1.6532-3.4185 3.3555-4.0195 2.8698-1.0134 4.6791-2.1315 6.4766-4.0078 3.1866-3.3265 4.3686-7.636 3.2266-11.754-0.51318-1.8502-0.94556-2.4883-3.2695-4.8438-1.472-1.492-2.7769-3.0028-2.9023-3.3555-0.10576-0.29711-0.18667-0.44881-0.38672-0.46094zm-7.7344 4c1.3623 0.0056 2.4157 0.41671 2.7031 1.2344 0.09424 0.26813-0.30303 1.5334-0.88672 2.8086-1.501 3.2796-1.9797 5.0818-2.8867 10.867-1.1249 7.1751-2.3538 10.274-4.8164 12.137-1.5524 1.1744-3.4582 1.2739-4.4766 0.23828-0.881-0.89595-1.1364-2.0188-0.72656-3.1953 0.32462-0.93199 0.63785-1.0813 3.0039-1.4297 1.6461-0.24237 2.8047-1.3825 2.8047-2.875 0-0.93916-0.37767-1.4797-1.6562-2.832-1.9781-2.0923-2.8425-4.1015-2.8516-6.6367-0.0144-3.9653 1.9266-7.3371 5.2422-9.1094 1.5159-0.81024 3.1846-1.2126 4.5469-1.207zm5.0664 2.0039c0.40819-0.06096 0.92687 0.41688 1.6602 1.4141 2.8972 3.9397 2.6005 9.9027-0.66406 13.328-1.3916 1.4601-1.7187 1.5483-2.6836 0.76172-0.55811-0.455-0.66475-0.86716-0.66016-2.5312 0.0066-2.5494 0.76478-8.7919 1.3555-11.164 0.28624-1.1495 0.58399-1.7476 0.99219-1.8086z" fill="#fff"/>
</svg>
