<svg xmlns="http://www.w3.org/2000/svg" width="64" height="64"><g stroke-width="3.78"><path fill="#fff" d="M2.003 18.002v35.997a.995.995 0 0 0 .998 1.002h58.002a1 1 0 0 0 .998-1.002V17.998H2.004z" style="paint-order:markers stroke fill"/><path d="M2.003 18.002v35.997a.995.995 0 0 0 .998 1.002h58.002a1 1 0 0 0 .998-1.002V17.998h-.998v35.044c0 .53-.435.956-.968.956H3.968a.96.96 0 0 1-.967-.956V17.998H1.999z" opacity=".1" style="paint-order:markers stroke fill"/><path fill="#666" d="M3.001 9a1 1 0 0 0-1.002 1v7.998H62v-7.997a1 1 0 0 0-.997-1.002z" style="paint-order:stroke markers fill"/><rect width="3.001" height="3.001" x="56.002" y="12" opacity=".35" ry="1.5" style="paint-order:stroke markers fill"/><rect width="3.001" height="3.001" x="50" y="12" opacity=".35" ry="1.5" style="paint-order:stroke markers fill"/><rect width="3.001" height="3.001" x="44.002" y="12" opacity=".35" ry="1.5" style="paint-order:stroke markers fill"/><path d="M62.001 42.294a36.3 36.3 0 0 1-12.828 12.707h11.83a1 1 0 0 0 .998-1.002z" opacity=".05" style="paint-order:markers stroke fill"/></g><g stroke-width=".58"><path fill="#ef4a5b" d="M12 27h3.529l4.118 11.429 4.117-11.43h3.53L21.41 43h-3.529z"/><path fill="#3e4143" d="m24.942 43 5.882-16h3.53L28.47 43zm11.765 0 5.882-16h3.53l-5.883 16z"/><path fill="#949b9d" d="m21.412 43 5.882-16h3.53L24.94 43zm11.765 0 5.882-16h3.53l-5.883 16z"/><path fill="#babfc2" d="M36.706 43h-3.53l-5.882-16h3.53zm11.765 0h-3.53L39.06 27h3.53z"/><path fill="#535353" d="m30.824 27 5.882 16h3.53l-5.883-16zm11.765 0 5.882 16h3.53l-5.883-16z"/></g></svg>