<svg xmlns="http://www.w3.org/2000/svg" width="64" height="64" viewBox="0 0 16.933 16.933"><circle cx="8.466" cy="8.466" r="6.879" fill="#77767b" stroke="#5b5a5e" stroke-linecap="round" stroke-linejoin="round" stroke-width=".529" style="paint-order:stroke fill markers"/><circle cx="8.466" cy="8.466" r="6.879" fill="#77767b" style="paint-order:stroke fill markers"/><path fill="#f9f9f9" stroke="#d0d0d2" stroke-width=".529" d="M11.404 8.56a3.09 3.09 0 0 0-2.838 1.888l-.01.026-.032-.007a2.5 2.5 0 0 0-.51-.053 2.47 2.47 0 0 0-2.47 2.47 2.47 2.47 0 0 0 2.47 2.47h.062l.073-.003.064-.006h6.423l.042.004a2 2 0 0 0 .127.005 1.85 1.85 0 0 0 1.852-1.851 1.85 1.85 0 0 0-1.852-1.852 2 2 0 0 0-.308.025v-.028A3.087 3.087 0 0 0 11.41 8.56z" style="paint-order:stroke markers fill"/><path fill="#f9f9f9" d="M11.404 8.56a3.09 3.09 0 0 0-2.838 1.888l-.01.026-.032-.007a2.5 2.5 0 0 0-.51-.053 2.47 2.47 0 0 0-2.47 2.47 2.47 2.47 0 0 0 2.47 2.47h.062l.073-.003.064-.006h6.423l.042.004a2 2 0 0 0 .127.005 1.85 1.85 0 0 0 1.852-1.851 1.85 1.85 0 0 0-1.852-1.852 2 2 0 0 0-.308.025v-.028A3.087 3.087 0 0 0 11.41 8.56z" style="paint-order:stroke markers fill"/><circle cx="8.874" cy="4.185" r=".934" fill="#999" stroke="#b2b2b2" stroke-linecap="round" stroke-linejoin="round" stroke-width=".265"/><circle cx="5.113" cy="7.503" r="1.339" fill="#999" stroke="#b2b2b2" stroke-linecap="round" stroke-linejoin="round" stroke-width=".265"/><circle cx="10.782" cy="7.359" r=".648" fill="#999" stroke="#b2b2b2" stroke-linecap="round" stroke-linejoin="round" stroke-width=".265"/></svg>