<svg xmlns="http://www.w3.org/2000/svg" height="64" width="64"><rect ry="3" rx="3" y="6" x="6" height="52" width="52" opacity=".3" fill="#e6e6e6" stroke="#000" stroke-width="2" stroke-linecap="round" stroke-linejoin="round" paint-order="markers stroke fill"/><rect width="52" height="52" x="6" y="6" rx="3" ry="3" fill="#fafafa" paint-order="markers stroke fill"/><path d="M24.5 24.5A7.484 7.484 0 0 0 17 32c0 4.155 3.345 7.5 7.5 7.5h15c4.155 0 7.5-3.345 7.5-7.5 0-4.155-3.345-7.5-7.5-7.5z" style="marker:none" color="#000" overflow="visible" opacity=".5" fill="none" stroke="#000" stroke-width="2"/><path d="M12 11.002a1 1 0 0 1-2 0 1 1 0 1 1 2 0z" style="marker:none" color="#000" overflow="visible" opacity=".3" fill-rule="evenodd"/><path style="marker:none" d="M24.5 24.5A7.484 7.484 0 0 0 17 32c0 4.155 3.345 7.5 7.5 7.5h15c4.155 0 7.5-3.345 7.5-7.5 0-4.155-3.345-7.5-7.5-7.5z" color="#000" overflow="visible" fill="#999"/><path style="marker:none" d="M39.5 25.5c3.586 0 6.5 2.914 6.5 6.5 0 3.587-2.914 6.5-6.5 6.5A6.504 6.504 0 0 1 33 32c0-3.586 2.914-6.5 6.5-6.5z" color="#000" overflow="visible" fill="#fff" stroke="#000" stroke-opacity=".255"/><path style="marker:none" d="M54 11.002a1 1 0 0 1-2 0 1 1 0 1 1 2 0zm-42 42a1 1 0 0 1-2 0 1 1 0 1 1 2 0zm42 0a1 1 0 0 1-2 0 1 1 0 1 1 2 0z" color="#000" overflow="visible" opacity=".3" fill-rule="evenodd"/><path d="M39.5 25.5c3.586 0 6.5 2.914 6.5 6.5 0 3.587-2.914 6.5-6.5 6.5A6.504 6.504 0 0 1 33 32c0-3.586 2.914-6.5 6.5-6.5z" style="marker:none" color="#000" overflow="visible" fill="#fff"/></svg>