<svg xmlns="http://www.w3.org/2000/svg" width="64" height="64"><path fill="#f9f9f9" d="M32 4.5C16.826 4.5 4.5 16.826 4.5 32S16.826 59.5 32 59.5 59.5 47.174 59.5 32 47.174 4.5 32 4.5" color="#000" overflow="visible" style="marker:none"/><path fill="none" stroke="#000" stroke-linecap="round" stroke-linejoin="round" d="M32 4.5C16.826 4.5 4.5 16.826 4.5 32S16.826 59.5 32 59.5 59.5 47.174 59.5 32 47.174 4.5 32 4.5" color="#000" opacity=".2" overflow="visible" style="marker:none"/><path fill="none" stroke="#333" stroke-linecap="round" stroke-width=".6" d="M29.88 33.773 47.2 14.3"/><path fill="#00f" stroke="#333" stroke-linecap="round" stroke-width=".6" d="M33.222 32.236 17.8 29.366"/><path fill="none" stroke="#eb5c3a" stroke-linecap="round" stroke-width=".6" d="M29.88 28.076 39.143 49.7"/><path fill="#ececec" d="M32.503 32c.003 1.336-2.009 1.336-2.006 0-.003-1.336 2.009-1.336 2.006 0" color="#000" overflow="visible" style="marker:none"/></svg>