<svg xmlns="http://www.w3.org/2000/svg" width="64" height="64"><path fill="#c4c7cc" stroke="#9e9e9e" stroke-width="2" d="M25.9 43.834c-.52 0-.9.378-.9.834v10.955L20.922 56H20.9c-.52 0-.9.378-.9.834V58h24v-1.166c0-.456-.381-.834-.9-.834h-.024L39 55.623V44.668c0-.456-.38-.834-.9-.834z"/><path fill="#c4c7cc" d="M25.9 43.834c-.52 0-.9.378-.9.834v10.955L20.922 56H20.9c-.52 0-.9.378-.9.834V58h24v-1.166c0-.456-.381-.834-.9-.834h-.024L39 55.623V44.668c0-.456-.38-.834-.9-.834z"/><rect width="60" height="40" x="2" y="6" fill="#2f3337" stroke="#1a1a1a" stroke-width="2" rx="6" ry="6"/><rect width="60" height="40" x="2" y="6" fill="#2f3337" rx="6" ry="6"/><rect width="54" height="34" x="5" y="9" fill="#5294e2" rx="3" ry="3"/></svg>