<svg xmlns="http://www.w3.org/2000/svg" width="64" height="64"><defs><linearGradient id="a" x1="1.323" x2="15.61" y1="7.673" y2="7.673" gradientTransform="scale(3.7796)" gradientUnits="userSpaceOnUse"><stop offset="0" stop-color="#5179a9"/><stop offset=".242" stop-color="#337235"/><stop offset=".5" stop-color="#b6b521"/><stop offset=".77" stop-color="#936a2a"/><stop offset="1" stop-color="#8e4c32"/></linearGradient><linearGradient id="b" x1="1.587" x2="15.346" y1="289.06" y2="289.06" gradientTransform="translate(0 -1058.6)scale(3.7796)" gradientUnits="userSpaceOnUse"><stop offset="0" stop-color="#9ab9dd"/><stop offset=".242" stop-color="#9add9c"/><stop offset=".5" stop-color="#f3f284"/><stop offset=".755" stop-color="#edb968"/><stop offset="1" stop-color="#ed8e68"/></linearGradient></defs><rect width="52" height="52" x="6.002" y="5.998" fill="none" stroke="url(#a)" stroke-linecap="round" stroke-linejoin="round" stroke-width="1.999" opacity=".75" rx="3.001" ry="3.001" style="paint-order:markers stroke fill"/><rect width="52" height="52" x="6.002" y="5.998" fill="url(#b)" rx="3.001" ry="3.001" style="paint-order:markers stroke fill"/><g fill="#fff" transform="scale(3.7796)"><rect width="10.054" height="1.323" x="3.44" y="12.7" opacity=".5" ry=".265" style="paint-order:markers stroke fill"/><rect width="1.323" height="1.323" x="4.498" y="11.906" ry=".132" style="paint-order:stroke markers fill"/><rect width="1.323" height="1.323" x="6.703" y="11.906" ry=".132" style="paint-order:stroke markers fill"/><rect width="1.323" height="1.323" x="8.908" y="11.906" ry=".132" style="paint-order:stroke markers fill"/><rect width="1.323" height="1.323" x="11.113" y="11.906" ry=".132" style="paint-order:stroke markers fill"/></g><path fill-opacity=".937" d="M9 5.998A2.993 2.993 0 0 0 6.001 9v.998h52V9A2.993 2.993 0 0 0 55 6z" opacity=".35" style="paint-order:markers stroke fill"/><rect width="10.001" height="1.999" x="26.911" y="7" opacity=".35" ry="1.002" style="paint-order:stroke markers fill"/><path fill="#fff" d="M40.452 23.008a2.25 10.125 44.998 0 0-8.376 5.735 2.25 10.125 44.998 0 0-3.985 4.628 3.9 3.9 0 0 1 2.54 2.54 2.25 10.125 44.998 0 0 4.627-3.986 2.25 10.125 44.998 0 0 5.567-8.75 2.25 10.125 44.998 0 0-.373-.167M27.5 34.997C23 36.203 26.375 39.05 23 41c4.504 0 6.75-2.251 6.75-3.753 0-.748.076-2.126-2.25-2.25"/></svg>