<svg xmlns="http://www.w3.org/2000/svg" width="64" height="64"><g transform="translate(0 -1058.5)scale(3.7796)"><g stroke="#000" stroke-opacity=".196" stroke-width=".265"><rect width="4.233" height="4.498" x="10.848" y="282.71" fill="#5ad85d" ry=".312"/><rect width="4.233" height="4.498" x="10.848" y="286.22" fill="#ff584c" ry=".351"/><rect width="4.233" height="4.233" x="10.848" y="289.86" fill="#ffce3d" ry=".331"/></g><rect width="12.171" height="13.758" x="2.117" y="-295.41" fill="#387fe7" stroke="#2355a5" stroke-width=".529" ry=".529" transform="scale(1 -1)"/><rect width="12.171" height="13.758" x="2.117" y="-295.41" fill="#387fe7" ry=".529" transform="scale(1 -1)"/></g><path fill="#fff" d="M40.002 30.002a4 4 0 0 0-4 4v4h-2v8h12v-8h-2v-4a4 4 0 0 0-4-4m0 2a2 2 0 0 1 2 2v4h-4v-4a2 2 0 0 1 2-2m-10 0c-7.756 0-14 6.244-14 14h16v-2h-13.82a11.96 11.96 0 0 1 11.82-10c.686 0 1.352.074 2 .196v-2.024a13 13 0 0 0-2-.172m0-14c-3.324 0-6 2.676-6 6s2.676 6 6 6 6-2.676 6-6-2.676-6-6-6m0 2c2.216 0 4 1.784 4 4s-1.784 4-4 4-4-1.784-4-4 1.784-4 4-4"/></svg>