<svg xmlns="http://www.w3.org/2000/svg" width="64" height="64" viewBox="0 0 16.933 16.933"><g transform="translate(19.58 6.88) scale(.26458)"><g transform="matrix(.5 0 0 .5 -74 -26.5)"><rect width="96" height="100" x="16" y="15" fill="#f5f5f5" overflow="visible" rx="2.982" ry="2.982"/><rect width="98" height="102" x="15" y="14" fill="none" stroke="#4f6698" stroke-linecap="round" stroke-linejoin="round" stroke-opacity=".267" stroke-width="2" overflow="visible" rx="4" ry="4"/><path fill="#6c748c" d="M76.785 76.532c3.984 0 7.606-.931 10.969-2.95l-1.242-2.793c-2.587 1.5-5.898 2.587-9.417 2.587-9.83 0-17.178-6.416-17.178-17.696 0-13.505 9.935-22.301 20.231-22.301 10.504 0 16.04 6.83 16.04 16.195 0 7.502-4.14 11.9-7.813 11.9-3.156 0-4.243-2.12-3.156-6.777l2.276-11.538h-3.104l-.673 2.38h-.103c-1.035-1.915-2.639-2.846-4.605-2.846-6.778 0-11.125 7.295-11.125 13.4 0 5.279 3 8.228 6.933 8.228 2.536 0 5.174-1.76 7.037-3.984h.155c.363 2.949 2.794 4.398 5.95 4.398 5.227 0 11.539-5.278 11.539-15.367 0-11.383-7.348-19.145-18.99-19.145-12.883 0-24.111 10.14-24.111 25.612 0 13.453 9.055 20.697 20.386 20.697zM75.75 61.061c-2.328 0-4.087-1.5-4.087-5.226 0-4.346 2.794-9.83 7.347-9.83 1.604 0 2.639.62 3.725 2.431l-1.604 9.21c-2.018 2.38-3.777 3.415-5.38 3.415z" aria-label="@" transform="scale(.99014 1.01)"/></g><rect width="48" height="5" x="-66" y="26" fill-opacity=".051" rx="1.5" ry="1.5"/></g></svg>