<svg xmlns="http://www.w3.org/2000/svg" width="64" height="64" viewBox="0 0 16.933 16.933"><g transform="translate(0 -280.067)"><circle cx="8.467" cy="288.533" r="7.144" fill="#71a5e8" stroke="#3f76c5" stroke-width=".529" opacity=".9" paint-order="stroke markers fill"/><path fill="#557cae" d="M1.677 285.094a7.673 7.408 0 0 0-.883 3.44 7.673 7.408 0 0 0 .882 3.439h13.58a7.673 7.408 0 0 0 .884-3.44 7.673 7.408 0 0 0-.882-3.44z" paint-order="stroke markers fill"/><circle cx="8.467" cy="288.533" r="7.144" fill="#71a5e8" paint-order="stroke markers fill"/><path d="M8.467 282.713a5.82 5.82 0 0 0-4.498 2.131v1.458a5 5 0 0 0-.53 2.231 5 5 0 0 0 .53 2.242v1.446a5.82 5.82 0 0 0 4.498 2.133 5.82 5.82 0 0 0 4.498-2.131v-1.458a5 5 0 0 0 .529-2.232 5 5 0 0 0-.53-2.24v-1.448a5.82 5.82 0 0 0-4.497-2.132" opacity=".25" paint-order="stroke markers fill"/><path fill="none" stroke="#000" stroke-width=".529" d="m10.583 285.888-4.233 2.645 4.233 2.646" opacity=".35"/><circle cx="5.821" cy="288.533" r="1.058" fill="#fff" paint-order="markers stroke fill"/><circle cx="10.583" cy="285.888" r="1.058" fill="#fff" paint-order="markers stroke fill"/><circle cx="10.583" cy="291.179" r="1.058" fill="#fff" paint-order="markers stroke fill"/></g></svg>