<svg xmlns="http://www.w3.org/2000/svg" width="64" height="64"><linearGradient id="a" x1="15" x2="9" y1="9" y2="9" gradientTransform="matrix(2.6667 0 0 6 -6.694 -25)" gradientUnits="userSpaceOnUse"><stop offset="0" stop-color="#a1daff"/><stop offset="1" stop-color="#abebf9" stop-opacity="0"/></linearGradient><g transform="translate(0 -1058.5)scale(3.7796)"><rect width="13.758" height="13.758" x="1.588" y="281.65" fill="none" stroke="#2454d8" stroke-linecap="round" stroke-linejoin="round" stroke-width=".529" opacity=".75" rx=".794" ry=".794" style="paint-order:markers stroke fill"/><rect width="13.758" height="13.758" x="1.588" y="281.65" fill="#90a9ff" rx=".794" ry=".794" style="paint-order:markers stroke fill"/><rect width="10.054" height="1.323" x="3.44" y="292.77" fill="#fff" opacity=".35" ry=".265" style="paint-order:markers stroke fill"/><g fill="#ccdfff"><rect width="1.323" height="1.323" x="4.498" y="291.97" ry=".132" style="paint-order:stroke markers fill"/><rect width="1.323" height="1.323" x="6.703" y="291.97" ry=".132" style="paint-order:stroke markers fill"/><rect width="1.323" height="1.323" x="8.908" y="291.97" ry=".132" style="paint-order:stroke markers fill"/><rect width="1.323" height="1.323" x="11.113" y="291.97" ry=".132" style="paint-order:stroke markers fill"/></g><path d="M2.381 281.65a.79.79 0 0 0-.793.794v.264h13.758v-.264a.79.79 0 0 0-.794-.794z" opacity=".35" style="paint-order:markers stroke fill"/><rect width="2.646" height=".529" x="7.12" y="281.92" opacity=".35" ry=".265" style="paint-order:stroke markers fill"/></g><path fill="url(#a)" fill-rule="evenodd" d="M17.306 23h16v6h-16z"/><path fill="#fff" d="m33.628 41 8.237-.053.932-9.323c.195-1.89-2.147-2.677-2.797-.932.008-2.096-2.147-2.358-2.798-.934.083-1.73-2.117-2.4-2.796-.932v-3.729c0-2.796-2.797-2.796-2.797 0v8.391c-4.662-4.662-5.805-1.311-5.805-1.311 3.168 2.138 5.104 8.84 7.824 8.823"/></svg>