<svg xmlns="http://www.w3.org/2000/svg" width="64" height="64" fill="none"><defs><style id="current-color-scheme" type="text/css">.ColorScheme-Highlight{color:#3daee9}</style></defs><rect width="52" height="52" x="6.002" y="6.024" stroke="#2454d8" stroke-linecap="round" stroke-linejoin="round" stroke-width="1.999" opacity=".75" rx="3.001" ry="3.001" style="paint-order:markers stroke fill"/><rect width="52" height="52" x="6.002" y="6.024" fill="#90a9ff" stroke-width="3.78" rx="3.001" ry="3.001" style="paint-order:markers stroke fill"/><path fill="#000" stroke-width="3.78" d="M9 6.024a2.993 2.993 0 0 0-2.998 3.001v.998h52v-.998a2.993 2.993 0 0 0-3.001-3z" opacity=".35" style="paint-order:markers stroke fill"/><rect width="10.001" height="1.999" x="26.911" y="7.045" fill="#000" stroke-width="3.78" opacity=".35" ry="1.002" style="paint-order:stroke markers fill"/><path fill="#fff" stroke-width="1.86" d="M37 24a8 8 0 1 1-16 0 8 8 0 0 1 16 0" class="ColorScheme-Highlight" opacity=".15"/><path fill="#fff" stroke-width="1.705" d="M35 24a6 6 0 1 1-12 0 6 6 0 0 1 12 0" class="ColorScheme-Highlight" opacity=".15"/><path fill="#fff" stroke-width="1.369" d="M30.226 51.806c3.389.376 8.176.403 8.842.405l.16.002c2.942.047 5.488-1.912 5.866-4.838l.945-6.517c.81-4.865-2.838-6.082-4.055-3.649 0-2.838-3.243-4.46-4.865-2.027 0-2.433-3.497-4.055-5.12-1.622v-8.92c0-3.244-4.789-4.055-4.789 0v17.308s-.684-2.053-2.053-3.422c-4.46-4.46-6.69-.101-6.69-.101 3.244 2.433 5.7 12.707 11.76 13.38z"/></svg>