<svg xmlns="http://www.w3.org/2000/svg" width="64" height="64"><rect width="52" height="52" x="6" y="6" fill="#3e4245" stroke="#000" stroke-width="2" rx="2" ry="2" style="paint-order:stroke markers fill"/><rect width="52" height="52" x="6" y="6" fill="#3e4245" rx="2" ry="2" style="paint-order:stroke markers fill"/><path fill="#fff" d="M12 15h24v2H12z"/><circle cx="43" cy="16" r="2" fill="#72d406"/><circle cx="51" cy="16" r="2" fill="#72d406"/><g fill="#fff"><path d="M12 31h24v2H12z"/><circle cx="43" cy="32" r="2"/><circle cx="51" cy="32" r="2"/><path d="M12 47h24v2H12z"/></g><rect width="52" height="3" x="6" y="22" fill="#00000f" fill-rule="evenodd" opacity=".5" rx="0" ry="0" style="paint-order:fill markers stroke"/><rect width="52" height="3" x="6" y="38" fill="#00000f" fill-rule="evenodd" opacity=".5" rx="0" ry="0" style="paint-order:fill markers stroke"/><g transform="translate(-1 -1)"><circle cx="46" cy="46" r="18" fill="#e356b4" fill-rule="evenodd" stroke="#bf3090" stroke-width="2" style="paint-order:fill markers stroke"/><circle cx="46" cy="46" r="18" fill="#e356b4" fill-rule="evenodd" style="paint-order:fill markers stroke"/><path fill="#fff" d="M53 32c-2.216 0-4 1.784-4 4s1.784 4 4 4 4-1.784 4-4-1.784-4-4-4M35 42c-2.216 0-4 1.784-4 4s1.784 4 4 4 4-1.784 4-4-1.784-4-4-4m18 10c-2.216 0-4 1.784-4 4s1.784 4 4 4 4-1.784 4-4-1.784-4-4-4m-7-14a1 1 0 1 0 0 2 1 1 0 1 0 0-2m-4 2a1 1 0 1 0 0 2 1 1 0 1 0 0-2m0 10a1 1 0 1 0 0 2 1 1 0 1 0 0-2m4 2a1 1 0 1 0 0 2 1 1 0 1 0 0-2"/></g></svg>