<svg xmlns="http://www.w3.org/2000/svg" width="64" height="64"><g stroke-width="3.78" transform="translate(-384.57 -483.8)"><path fill="#fff" d="M386.57 501.8v35.997a.995.995 0 0 0 .998 1.002h58.002a1 1 0 0 0 .998-1.002v-36.001H386.57z" style="paint-order:markers stroke fill"/><path d="M386.57 501.8v35.997a.995.995 0 0 0 .998 1.002h58.002a1 1 0 0 0 .998-1.002v-36.001h-.998v35.044c0 .53-.435.956-.968.956h-56.067a.96.96 0 0 1-.967-.956v-35.044h-1.002z" opacity=".1" style="paint-order:markers stroke fill"/><path fill="#666" d="M387.57 492.8a1 1 0 0 0-1.002 1.002v7.997h60.001v-7.997a1 1 0 0 0-.997-1.002z" style="paint-order:stroke markers fill"/><rect width="3.001" height="3.001" x="440.57" y="495.8" opacity=".35" ry="1.5" style="paint-order:stroke markers fill"/><rect width="3.001" height="3.001" x="434.57" y="495.8" opacity=".35" ry="1.5" style="paint-order:stroke markers fill"/><rect width="3.001" height="3.001" x="428.57" y="495.8" opacity=".35" ry="1.5" style="paint-order:stroke markers fill"/><path d="M446.57 526.09a36.3 36.3 0 0 1-12.828 12.707h11.83a1 1 0 0 0 .998-1.002z" opacity=".05" style="paint-order:markers stroke fill"/></g><path fill="#ccc" d="M7 22v2h40v-2zm0 6v2h14v-2zm28 0v24h24V28zm2 2h20v20H37v-2zm0 18h4l4-4-2-2zm20 0-6-6-6 6zM42 32c-1.662 0-3 1.338-3 3s1.338 3 3 3 3-1.338 3-3-1.338-3-3-3M7 34v2h24v-2zm0 6v2h18v-2zm0 6v2h24v-2z" color="#000"/><path fill="#ff8080" d="M47 28c-6.627 0-12 5.373-12 12s5.373 12 12 12 12-5.373 12-12-5.373-12-12-12m0 2c5.523 0 10 4.477 10 10 0 2.41-.888 4.59-2.309 6.316L40.683 32.308C42.41 30.888 44.59 30 47 30m-7.691 3.684 14.008 14.008C51.59 49.112 49.41 50 47 50c-5.523 0-10-4.477-10-10 0-2.41.889-4.59 2.309-6.316" color="#000"/></svg>