<svg xmlns="http://www.w3.org/2000/svg" width="64" height="64" viewBox="0 0 16.933 16.933"><circle cx="8.467" cy="8.466" r="7.148" fill="#fcfcfc"/><g fill-rule="evenodd" stroke-width=".3"><path fill="#139dcb" d="M8.466 8.466 4.16 12.773a6.06 6.06 0 0 0 2.73 1.567z"/><path fill="#3ed4f0" d="M8.466 8.466 6.891 14.34c.503.134 1.03.213 1.575.213s1.073-.079 1.576-.213z"/><path fill="#32d439" d="m8.466 8.466 1.576 5.873a6.06 6.06 0 0 0 2.732-1.567z"/><path fill="#cee834" d="m8.466 8.466 4.308 4.306a6.06 6.06 0 0 0 1.567-2.73z"/><path fill="#ffe600" d="M14.341 6.89 8.466 8.467l5.875 1.576c.134-.503.21-1.03.21-1.576s-.076-1.074-.21-1.577"/><path fill="#f7ac1b" d="M12.774 4.16 8.467 8.467 14.34 6.89a6.06 6.06 0 0 0-1.567-2.73z"/><path fill="#fa7c1a" d="M10.042 2.594 8.466 8.467l4.308-4.306a6.06 6.06 0 0 0-2.732-1.567"/><path fill="#ee332c" d="M8.466 2.381c-.546 0-1.072.079-1.575.213l1.575 5.872 1.576-5.872a6.1 6.1 0 0 0-1.576-.213"/><path fill="#421ca8" d="m8.466 8.466-5.874 1.577a6.06 6.06 0 0 0 1.567 2.73z"/><path fill="#e861e2" d="M2.592 6.89c-.134.503-.21 1.03-.21 1.577s.076 1.073.21 1.576l5.874-1.576z"/><path fill="#ff5474" d="M6.89 2.594A6.06 6.06 0 0 0 4.16 4.16l4.307 4.306z"/><path fill="#e92f61" d="M4.159 4.16a6.06 6.06 0 0 0-1.567 2.73l5.874 1.576z"/></g><circle cx="8.467" cy="8.466" r="7.276" fill="none" stroke="#4f6698" stroke-opacity=".267" stroke-width=".264"/><circle cx="8.466" cy="8.466" r="6.127" fill="#fff" opacity=".25"/><circle cx="8.467" cy="8.466" r="6" fill="none" stroke="#4f6698" stroke-opacity=".267" stroke-width=".264"/></svg>