<svg xmlns="http://www.w3.org/2000/svg" width="64" height="64"><linearGradient id="b" x1="16" x2="16" y1="18" y2="6" gradientTransform="translate(44.967 1009.3)" gradientUnits="userSpaceOnUse"><stop offset="0" stop-color="#f0f0f0"/><stop offset="1" stop-color="#fcfcfc"/></linearGradient><linearGradient id="a" x1="19.514" x2="15" y1="15.555" y2="11" gradientTransform="translate(44.967 1009.3)" gradientUnits="userSpaceOnUse"><stop offset="0" stop-color="#f3f3f3"/><stop offset="1" stop-color="#fcfcfc" stop-opacity="0"/></linearGradient><g transform="translate(270.4 69.763)"><path fill="none" stroke="#42557f" stroke-opacity=".291" d="M-244.5-26.43c-.776 0-1.4.596-1.4 1.334v10.5l-3.6.333c-.776 0-1.4.596-1.4 1.334v1.666h25v-1.666c0-.738-.625-1.334-1.4-1.334l-3.6-.334v-10.499c0-.738-.625-1.334-1.4-1.334z"/><path fill="#fafafa" d="M-244.5-25.929c-.52 0-.9.378-.9.834v10.955l-4.078.377h-.022c-.52 0-.9.378-.9.834v1.166h24v-1.166c0-.456-.381-.834-.9-.834h-.024l-4.076-.377v-10.955c0-.456-.38-.834-.9-.834z"/><rect width="61" height="40" x="-268.9" y="-64.263" fill="#414757" stroke="#252831" stroke-dashoffset=".5" stroke-linecap="round" stroke-linejoin="round" stroke-opacity=".784" rx="1.4" ry="1.333"/><path fill="#5294e2" fill-rule="evenodd" d="M-266.4-61.763h56v35h-56z"/></g><g stroke-width=".5"><path fill="url(#a)" d="M60.967 1015.3a6 6 0 0 0-6 6 6 6 0 0 0 6 6 6 6 0 0 0 6-6 6 6 0 0 0-6-6m0 1a5 5 0 0 1 5 5 5 5 0 0 1-5 5 5 5 0 0 1-5-5 5 5 0 0 1 5-5" transform="matrix(2 0 0 2 -89.934 -2016.7)"/><path fill="url(#b)" d="M60.967 1015.3a6 6 0 0 0-6 6 6 6 0 0 0 6 6 6 6 0 0 0 4.215-1.736l-.701-.71a5 5 0 0 1-3.514 1.446 5 5 0 0 1-5-5 5 5 0 0 1 5-5z" transform="matrix(2 0 0 2 -89.934 -2016.7)"/></g></svg>