<svg xmlns="http://www.w3.org/2000/svg" width="64" height="64"><g transform="translate(0 -1058.5)scale(3.7796)"><rect width="13.758" height="13.758" x="1.588" y="281.65" fill="none" stroke="#2454d8" stroke-linecap="round" stroke-linejoin="round" stroke-width=".529" opacity=".75" rx=".794" ry=".794" style="paint-order:markers stroke fill"/><rect width="13.758" height="13.758" x="1.588" y="281.65" fill="#90a9ff" rx=".794" ry=".794" style="paint-order:markers stroke fill"/><rect width="10.054" height="1.323" x="3.44" y="292.77" fill="#fff" opacity=".35" ry=".265" style="paint-order:markers stroke fill"/><g fill="#ccdfff"><rect width="1.323" height="1.323" x="4.498" y="291.97" ry=".132" style="paint-order:stroke markers fill"/><rect width="1.323" height="1.323" x="6.703" y="291.97" ry=".132" style="paint-order:stroke markers fill"/><rect width="1.323" height="1.323" x="8.908" y="291.97" ry=".132" style="paint-order:stroke markers fill"/><rect width="1.323" height="1.323" x="11.113" y="291.97" ry=".132" style="paint-order:stroke markers fill"/></g><path d="M2.381 281.65a.79.79 0 0 0-.793.794v.264h13.758v-.264a.79.79 0 0 0-.794-.794z" opacity=".35" style="paint-order:markers stroke fill"/><rect width="2.646" height=".529" x="7.12" y="281.92" opacity=".35" ry=".265" style="paint-order:stroke markers fill"/></g><g stroke-width=".667" transform="matrix(1.5 0 0 1.5 -569.54 -769.77)"><path fill="#fff" d="M388.57 526.8v6h7v-5h-3l-1-1z"/><path fill="#fff" d="M388.57 534.8v6h7v-5h-3l-1-1z" opacity=".75"/><path fill="#ffa86d" d="M398.57 526.8v6h5v-4l-2-2z"/><path fill="#ff7214" fill-rule="evenodd" d="m401.57 526.8 2 2h-2z"/><path fill="#94d669" d="M398.57 534.8v6h5v-4l-2-2z"/><path fill="#67b632" fill-rule="evenodd" d="m401.57 534.8 2 2h-2z"/><rect width="6" height="6" x="406.57" y="526.8" fill="#fff" rx="0"/><rect width="4" height="2" x="407.57" y="528.8" opacity=".15" rx="1"/><rect width="2" height="2" x="409.57" y="528.8" fill="#3daee9" rx="1"/></g></svg>