<svg xmlns="http://www.w3.org/2000/svg" width="64" height="64" viewBox="0 0 16.933 16.933"><g transform="translate(19.58 6.88)scale(.26458)"><g transform="matrix(.5 0 0 .5 -74 -26.5)"><rect width="96" height="100" x="16" y="15" fill="#f5f5f5" overflow="visible" rx="2.982" ry="2.982"/><rect width="98" height="102" x="15" y="14" fill="none" stroke="#4f6698" stroke-linecap="round" stroke-linejoin="round" stroke-opacity=".267" stroke-width="2" overflow="visible" rx="4" ry="4"/><path fill="#6c748c" d="M76.028 77.297c3.945 0 7.53-.94 10.86-2.98l-1.229-2.82c-2.562 1.515-5.84 2.613-9.324 2.613-9.733 0-17.009-6.48-17.009-17.873 0-13.64 9.837-22.524 20.032-22.524 10.4 0 15.882 6.898 15.882 16.357 0 7.577-4.1 12.019-7.736 12.019-3.125 0-4.202-2.141-3.125-6.845l2.253-11.653H83.56l-.666 2.403h-.102c-1.025-1.934-2.613-2.874-4.56-2.874-6.711 0-11.015 7.368-11.015 13.534 0 5.332 2.97 8.31 6.864 8.31 2.511 0 5.123-1.777 6.968-4.024h.153c.36 2.979 2.767 4.442 5.892 4.442 5.175 0 11.425-5.33 11.425-15.52 0-11.497-7.276-19.337-18.803-19.337-12.756 0-23.873 10.242-23.873 25.868 0 13.588 8.966 20.904 20.185 20.904zm-1.025-15.625c-2.305 0-4.047-1.515-4.047-5.279 0-4.39 2.767-9.928 7.275-9.928 1.588 0 2.613.626 3.688 2.455l-1.588 9.302c-1.998 2.404-3.74 3.45-5.327 3.45z" aria-label="@"/></g><rect width="48" height="5" x="-66" y="26" fill-opacity=".051" rx="1.5" ry="1.5"/></g></svg>