<svg xmlns="http://www.w3.org/2000/svg" width="64" height="64"><g transform="translate(270.4 69.763)"><path fill="none" stroke="#42557f" stroke-opacity=".291" d="M-244.5-26.43c-.776 0-1.4.596-1.4 1.334v10.5l-3.6.333c-.776 0-1.4.596-1.4 1.334v1.666h25v-1.666c0-.738-.625-1.334-1.4-1.334l-3.6-.334v-10.499c0-.738-.625-1.334-1.4-1.334z"/><path fill="#fafafa" d="M-244.5-25.929c-.52 0-.9.378-.9.834v10.955l-4.078.377h-.022c-.52 0-.9.378-.9.834v1.166h24v-1.166c0-.456-.381-.834-.9-.834h-.024l-4.076-.377v-10.955c0-.456-.38-.834-.9-.834z"/><rect width="61" height="40" x="-268.9" y="-64.263" fill="#414757" stroke="#252831" stroke-dashoffset=".5" stroke-linecap="round" stroke-linejoin="round" stroke-opacity=".784" rx="1.4" ry="1.333"/><path fill="#1a1c1f" fill-rule="evenodd" d="M-266.4-61.763h56v35h-56z"/></g><g opacity=".5"><path fill="#fff" d="M15.998 10.999h20.001v2H15.998zm0 12.001h16.001v2H15.998zm0 4h16.001v2H15.998zm0 4h12.001v2H15.998zm0-16h16.001v2H15.998zm0 4h12.001v2H15.998zm0 16h20.001v2.001H15.998zm0 4.001h12.001v2H15.998z"/><path fill="#41f045" d="M7.999 10.999h6v2h-6zm0 4h6v2h-6zm0 4h6v2h-6zm0 4h6V25h-6zm0 4.001h6v2h-6zm0 4h6v2h-6zm0 4h6v2h-6zm0 4.001h6v2h-6z"/></g></svg>