<svg width="64" height="64" version="1.1" viewBox="0 0 16.933 16.933" xmlns="http://www.w3.org/2000/svg">
 <ellipse cx="8.4665" cy="8.4665" rx="6.879" ry="6.8791" fill="#77767b" stroke="#5b5a5e" stroke-linecap="round" stroke-linejoin="round" stroke-width=".52916" style="paint-order:stroke fill markers"/>
 <ellipse cx="8.4665" cy="8.4665" rx="6.879" ry="6.8791" fill="#77767b" stroke-width=".9286" style="paint-order:stroke fill markers"/>
 <path d="m11.404 8.5605a3.087 3.087 0 0 0-2.838 1.888 3.087 3.087 0 0 0-0.01 0.026 2.47 2.47 0 0 0-0.032-7e-3 2.47 2.47 0 0 0-0.51-0.053 2.47 2.47 0 0 0-2.47 2.47 2.47 2.47 0 0 0 2.47 2.47 2.47 2.47 0 0 0 0.062-1e-3 2.47 2.47 0 0 0 0.073-3e-3 2.47 2.47 0 0 0 0.064-5e-3h6.423a1.851 1.851 0 0 0 0.042 4e-3 1.851 1.851 0 0 0 0.127 5e-3 1.851 1.851 0 0 0 1.852-1.852 1.851 1.851 0 0 0-1.852-1.851 1.851 1.851 0 0 0-0.308 0.025 3.087 3.087 0 0 0 0-0.028 3.087 3.087 0 0 0-3.087-3.088 3.087 3.087 0 0 0-6e-3 0z" fill="#f9f9f9" stroke="#d0d0d2" stroke-width=".52916" style="paint-order:stroke markers fill"/>
 <path d="m11.404 8.5605a3.087 3.087 0 0 0-2.838 1.888 3.087 3.087 0 0 0-0.01 0.026 2.47 2.47 0 0 0-0.032-7e-3 2.47 2.47 0 0 0-0.51-0.053 2.47 2.47 0 0 0-2.47 2.47 2.47 2.47 0 0 0 2.47 2.47 2.47 2.47 0 0 0 0.062-1e-3 2.47 2.47 0 0 0 0.073-3e-3 2.47 2.47 0 0 0 0.064-5e-3h6.423a1.851 1.851 0 0 0 0.042 4e-3 1.851 1.851 0 0 0 0.127 5e-3 1.851 1.851 0 0 0 1.852-1.852 1.851 1.851 0 0 0-1.852-1.851 1.851 1.851 0 0 0-0.308 0.025 3.087 3.087 0 0 0 0-0.028 3.087 3.087 0 0 0-3.087-3.088 3.087 3.087 0 0 0-6e-3 0z" fill="#f9f9f9" style="paint-order:stroke markers fill"/>
 <circle cx="8.8739" cy="4.185" r=".93435" fill="#999999" stop-color="#000000" stroke="#b2b2b2" stroke-linecap="round" stroke-linejoin="round" stroke-width=".26458"/>
 <circle cx="5.113" cy="7.5026" r="1.3393" fill="#999999" stop-color="#000000" stroke="#b2b2b2" stroke-linecap="round" stroke-linejoin="round" stroke-width=".26458"/>
 <circle cx="10.782" cy="7.3588" r=".648" fill="#999999" stop-color="#000000" stroke="#b2b2b2" stroke-linecap="round" stroke-linejoin="round" stroke-width=".26458"/>
</svg>
