<svg xmlns="http://www.w3.org/2000/svg" width="64" height="64"><rect width="52" height="52" x="6.002" y="5.998" fill="none" stroke="#2454d8" stroke-linecap="round" stroke-linejoin="round" stroke-width="1.999" opacity=".75" rx="3.001" ry="3.001" style="paint-order:markers stroke fill"/><g stroke-width="3.78"><rect width="52" height="52" x="6.002" y="5.998" fill="#90a9ff" rx="3.001" ry="3.001" style="paint-order:markers stroke fill"/><path d="M9 5.998A2.993 2.993 0 0 0 6.001 9v.998h52V9A2.993 2.993 0 0 0 55 6z" opacity=".35" style="paint-order:markers stroke fill"/><rect width="10.001" height="1.999" x="26.911" y="7" opacity=".35" ry="1.002" style="paint-order:stroke markers fill"/></g><path fill="#fff" d="M26 22.43c-.831 0-1.5.669-1.5 1.5s.669 1.5 1.5 1.5 1.5-.669 1.5-1.5-.669-1.5-1.5-1.5m9.429 0L32 25.859 37.143 31 32 36.145l3.429 3.429L44 31.002l-3.429-3.43zm-13.18 9c-1.246 0-2.25 1.004-2.25 2.25s1.004 2.25 2.25 2.25 2.25-1.004 2.25-2.25-1.003-2.25-2.25-2.25m6.75 9c-1.661 0-3 1.338-3 3s1.339 3 3 3 3-1.338 3-3-1.337-3-3-3"/></svg>