<svg xmlns="http://www.w3.org/2000/svg" width="64" height="64"><rect width="52" height="52" x="6.002" y="5.998" fill="none" stroke="#2454d8" stroke-linecap="round" stroke-linejoin="round" stroke-width="1.999" opacity=".75" rx="3.001" ry="3.001" style="paint-order:markers stroke fill"/><g stroke-width="3.78"><rect width="52" height="52" x="6.002" y="5.998" fill="#90a9ff" rx="3.001" ry="3.001" style="paint-order:markers stroke fill"/><path d="M9 5.998A2.993 2.993 0 0 0 6.001 9v.998h52V9A2.993 2.993 0 0 0 55 6z" opacity=".35" style="paint-order:markers stroke fill"/><rect width="10.001" height="1.999" x="26.911" y="7" opacity=".35" ry="1.002" style="paint-order:stroke markers fill"/></g><path fill="#fff" d="M10 15h14v2H10zm0 34h6v2h-6zm8 0h24v2H18zm-8-4h6v2h-6zm8 0h28v2H18zm-8-4h6v2h-6zm8 0h24v2H18zm-8-4h6v2h-6zm8 0h28v2H18zm-8-4h6v2h-6zm8 0h20v2H18zm-8-4h6v2h-6zm8 0h32v2H18zm-8-4h6v2h-6zm8 0h36v2H18zm-8-4h6v2h-6zm8 0h24v2H18z" opacity=".5"/></svg>