<svg xmlns="http://www.w3.org/2000/svg" width="64" height="64" viewBox="0 0 16.933 16.933"><g transform="translate(0 -280.067)"><path fill="#fff" d="M.53 284.83v9.524c0 .147.117.265.264.265H16.14a.264.264 0 0 0 .264-.265v-9.525z" paint-order="markers stroke fill"/><path d="M.53 284.83v9.524c0 .147.117.265.264.265H16.14a.264.264 0 0 0 .264-.265v-9.525h-.264v9.272c0 .14-.115.253-.256.253H1.05a.254.254 0 0 1-.256-.253v-9.272H.529z" opacity=".15" paint-order="markers stroke fill"/><path fill="#666" d="M.794 282.448a.264.264 0 0 0-.265.265v2.116h15.875v-2.116a.264.264 0 0 0-.264-.265z" paint-order="stroke markers fill"/><rect width=".794" height=".794" x="14.817" y="283.242" opacity=".35" paint-order="stroke markers fill" ry=".397"/><rect width=".794" height=".794" x="13.229" y="283.242" opacity=".35" paint-order="stroke markers fill" ry=".397"/><rect width=".794" height=".794" x="11.642" y="283.242" opacity=".35" paint-order="stroke markers fill" ry=".397"/><path fill="#ccc" d="M8.467 286.305a3.44 3.44 0 0 0-3.44 3.44 3.44 3.44 0 0 0 3.44 3.439 3.44 3.44 0 0 0 3.44-3.44 3.44 3.44 0 0 0-3.44-3.44zm0 1.393a2.046 2.046 0 0 1 2.046 2.046 2.046 2.046 0 0 1-2.046 2.045 2.046 2.046 0 0 1-2.046-2.045 2.046 2.046 0 0 1 2.046-2.046" opacity=".15" paint-order="stroke markers fill"/><g fill="#ccc" paint-order="stroke markers fill"><path d="M8.467 286.833a2.91 2.91 0 0 0-2.91 2.91 2.91 2.91 0 0 0 2.91 2.911 2.91 2.91 0 0 0 2.91-2.91 2.91 2.91 0 0 0-2.91-2.91zm0 1.323a1.587 1.587 0 0 1 1.587 1.588 1.587 1.587 0 0 1-1.587 1.587 1.587 1.587 0 0 1-1.588-1.587 1.587 1.587 0 0 1 1.588-1.588"/><path d="M7.938 285.643h1.058v1.852H7.938zm0 6.35h1.058v1.852H7.938zm4.63-2.778v1.058h-1.852v-1.058zm-6.35 0v1.058H4.366v-1.058zm5.522 3.055-.747.748-1.31-1.31.748-.748zm-4.49-4.49-.747.748-1.31-1.31.748-.748zm-1.309 5.238-.748-.748 1.31-1.31.748.748zm4.49-4.49-.748-.748 1.31-1.31.748.748z"/></g><path d="M16.404 291.257a9.6 9.6 0 0 1-3.394 3.362h3.13a.264.264 0 0 0 .264-.265z" opacity=".05" paint-order="markers stroke fill"/></g></svg>