<svg xmlns="http://www.w3.org/2000/svg" width="64" height="64" viewBox="0 0 16.933 16.933"><g transform="translate(0 -280.067)"><rect width="14.287" height="14.287" x="-295.677" y="-15.61" fill="#51a0dd" stroke="#2578b7" stroke-width=".529" opacity=".9" rx="7.144" ry="7.144" transform="scale(1 -1)rotate(90)"/><rect width="14.287" height="14.287" x="-295.677" y="-15.61" fill="#51a0dd" rx="7.144" ry="7.144" transform="scale(1 -1)rotate(90)"/><path fill="#fff" d="M9.264 284.83c-1.6 0-2.923 1.308-2.923 2.909 0 .608.206 1.168.529 1.637l-1.95 1.95a.531.532 0 0 0 .744.761l1.949-1.95a2.9 2.9 0 0 0 1.651.512c1.601 0 2.907-1.31 2.907-2.91s-1.306-2.91-2.907-2.91zm0 1.057c1.03 0 1.85.823 1.85 1.852s-.82 1.852-1.85 1.852a1.84 1.84 0 0 1-1.85-1.852c0-1.03.821-1.852 1.85-1.852"/></g></svg>