<svg xmlns="http://www.w3.org/2000/svg" width="64" height="64"><g transform="translate(161 38.64)"><path fill="#e1e3e7" d="M-150-33.64v54h42v-54z"/><rect width="43" height="55" x="-150.5" y="-34.14" fill="none" stroke="#000" stroke-opacity=".24" rx=".5" ry=".5"/><g fill="#8c8c8c"><rect width="2" height="2" x="-149" y="-32.64" rx="1" ry="1"/><rect width="2" height="2" x="-111" y="-32.64" rx="1" ry="1"/><rect width="2" height="2" x="-111" y="17.36" rx="1" ry="1"/><rect width="2" height="2" x="-149" y="17.36" rx="1" ry="1"/><rect width="2" height="2" x="-149" y="-7.64" rx="1" ry="1"/><rect width="2" height="2" x="-111" y="-7.64" rx="1" ry="1"/></g><path fill="#edeff3" stroke="#cbcdd1" d="m-122-30.14-17.934 18.17A16.5 16.5 0 0 0-145.5.36a16.5 16.5 0 0 0 16.5 16.5A16.5 16.5 0 0 0-112.5.36a17 17 0 0 0-.03-.852.5.5 0 0 0 .03-.148v-29c0-.277-.223-.5-.5-.5z"/><circle cx="-129" cy=".36" r="6.5" fill="#e1e3e7" stroke="#cfd1d5"/><rect width="20" height="12" x="-143.5" y="-27.14" fill="#4c5263" stroke="#313643" rx="1.5" ry="1.5"/><path fill="#e9eaee" d="M-142-24.64v1h3.19v-1zm3.609 0v1h3.021v-1zm3.441 0v1h2.644v-1zm3.063 0v1h1.175v-1zm-10.113 3v1h5.078v-1zm5.581 0v1h2.434v-1zm2.896 0v1h1.133v-1zm-8.477 3v1h5.623v-1zm6.043 0v1h2.943v-1zm5.957 0v1h5.078v-1z"/></g><path fill="#49494c" fill-rule="evenodd" stroke="#000" stroke-opacity=".392" d="M48 39.122C48 47.837 40.837 55 32 55s-16-7.163-16-15.878C16 30.164 23.163 23 32 23s16 7.164 16 16.122"/><path fill="#fff" d="M32.008 25c-.558 0-1.099.045-1.641.11a14 14 0 0 0-1.586.273c-.164.039-.324.118-.49.165-.149.04-.294.065-.437.11-.186.058-.376.103-.55.165-.187.066-.362.145-.547.218-.361.146-.693.319-1.038.49-.125.065-.263.1-.385.167-.403.21-.77.46-1.147.71-.143.096-.297.172-.437.271-.058.042-.107.067-.165.11-.164.125-.334.249-.491.386-.188.154-.368.325-.548.49-.056.052-.109.112-.164.164l-.055.054c-.028.028-.026.083-.054.11-.367.358-.77.699-1.094 1.094-.009.018.009.044 0 .053-.317.385-.6.786-.875 1.206-.037.056-.073.105-.11.164-.026.042-.082.065-.11.11-.105.172-.177.366-.273.546-.032.058-.079.107-.11.165-.132.255-.263.507-.385.766-.006.018.008.04 0 .055a14 14 0 0 0-.546 1.365c-.034.094-.08.182-.11.274-.006.018.005.039 0 .053-.036.11-.078.22-.111.33a14 14 0 0 0-.329 1.366c-.06.336-.13.694-.164 1.039A14.181 14.182 0 0 0 18 39.002c0 .705.063 1.4.165 2.077.01.072-.012.149 0 .219.077.465.206.918.329 1.365.045.17.112.327.164.493.07.226.139.436.219.655a14 14 0 0 0 .437 1.093q.132.279.273.548a14 14 0 0 0 .875 1.477c.028.042.08.068.11.11.347.49.69.98 1.094 1.421.07.077.147.144.22.22.07.073.146.146.218.218.374.374.787.709 1.204 1.04a13.6 13.6 0 0 0 1.696 1.146c.02.017.033.042.052.054.095.053.182.114.275.165.551.273 1.209.568 1.64.766.192.074.404.1.602.165.092.031.18.08.272.11.238.072.47.157.711.219l.219.054a14 14 0 0 0 1.585.273c.543.063 1.082.11 1.642.11.594 0 1.172-.037 1.75-.11.638-.084 1.19-.217 1.75-.33a13.84 13.84 0 0 0 7.38-4.81c.05-.061.118-.102.165-.165.018-.02.039-.035.054-.052.025-.033.032-.079.055-.112a13.9 13.9 0 0 0 2.352-4.92c.098-.38.206-.755.272-1.147.01-.053-.008-.11 0-.165.011-.07.044-.138.055-.219.01-.075.045-.143.054-.218h-.053c.076-.576.163-1.154.163-1.75 0-.965-.087-1.93-.273-2.842-.016-.076-.038-.144-.052-.22-.083-.361-.219-.738-.331-1.091-.005-.018.005-.039 0-.054l-.052-.165c-.07-.21-.144-.451-.221-.656-.021-.056-.031-.112-.052-.165-.077-.192-.191-.36-.275-.547-.004 0 .003-.046 0-.055-.044-.094-.12-.18-.165-.273a14 14 0 0 0-.547-1.04c-.102-.17-.165-.377-.273-.545-.042-.063-.121-.102-.165-.165-.117-.175-.257-.323-.383-.491-.14-.175-.245-.378-.383-.548-.01-.018.008-.044 0-.054-.301-.368-.648-.706-.986-1.04-.162-.16-.322-.34-.49-.49-.05-.045-.115-.068-.166-.112a14 14 0 0 0-1.148-.875c-.096-.065-.175-.152-.273-.217-.122-.08-.259-.142-.383-.219-.235-.147-.464-.304-.709-.437a14 14 0 0 0-.656-.33 14 14 0 0 0-1.148-.49 13 13 0 0 0-1.423-.438A13.6 13.6 0 0 0 32 25.005m0 1.75a12.3 12.3 0 0 1 2.46.275h.052c.293.061.594.138.875.219.17.047.33.11.494.164.3.1.584.205.875.33.34.14.663.265.985.437l-.164.052a.56.56 0 0 0-.22.219c-.034.084.01.201 0 .329.067.03.106.157.22.219.043.024.07-.018.11 0 .066.036.122.152.11.218-.02.097-.154.039-.219.11.01.137-.075.184-.11.274.021.057.1.042.11.11-.012.075-.14.086-.11.164.126.098.263-.038.383-.054.261-.035.496.07.657-.054-.021-.124.175-.161.164-.273-.01-.084-.157-.107-.219-.165-.035-.031-.07-.103-.11-.164-.045-.07-.112-.152-.164-.219-.07-.09-.22-.205-.22-.273 0-.079.092-.11.111-.219-.02-.1-.205 0-.219-.11a.3.3 0 0 1 .053-.11c.262.143.523.313.768.492l.165.11c.189.142.362.297.547.437-.117.021-.176.158-.273.273a.8.8 0 0 1-.273.22c-.049.02-.119-.029-.164 0-.065.043-.09.167-.165.218-.054.035-.217.164-.273.164-.066 0-.171-.07-.218-.054-.07.023-.03.135-.11.165-.155.052-.438-.123-.492.11.066.133.267.087.383.164a.8.8 0 0 1 .219.33 1.1 1.1 0 0 1 0 .383c-.072.185-.28.17-.492.164-.06-.002-.11 0-.165 0-.362-.024-.712-.149-.875.11.013.198.044.32 0 .49-.031.126-.17.22-.164.33.003.055.096.143.11.218.009.04-.02.128 0 .165.06.115.222-.018.33 0 .102.017.22.211.218.329a.605.606 0 0 1-.11.273c-.102.157-.293.134-.438.218-.122.069-.147.209-.219.33-.077.129-.141.192-.11.383a.85.85 0 0 1-.437.437c-.065.03-.161.068-.219.11a1 1 0 0 0-.165.165c-.082.09-.174.149-.218.219-.035.052-.018.147-.054.218-.053.098-.154.175-.22.273-.029.046-.074.104-.11.165-.073.135-.176.262-.164.381.012.116.156.12.165.22.007.055-.058.104-.055.164 0 .089.048.15.053.218.017.175-.075.21-.109.33-.017.055.014.118 0 .164-.028.087-.162.171-.164.273-.002.073.103.17.11.273.004.07-.066.1-.054.164.024.128.283.284.383.384.131.13.271.243.329.383.047.117.07.294.164.383.069.065.186.095.273.165.083.063.188.096.273.164.14.112.32.345.548.33.12-.018.249-.088.383-.111.139-.025.298-.07.438-.054.105.017.217.115.329.11.117 0 .25-.107.383-.165.23-.1.592-.267.928-.218.255.035.262.38.437.49.207.017.385-.093.548-.053.122.03.262.231.273.33.012.1-.095.21-.11.272-.032.137-.03.296-.053.382-.02.066-.058.15-.056.218a.95.95 0 0 0 .165.33c.077.097.18.167.273.272a3.2 3.2 0 0 1 .385.657c.028.064-.03.134 0 .218-.053.392-.182.66-.438 1.094-.122.14-.278.263-.275.438-.008.42.238.686.22 1.092-.043.546.041.583 0 .875.183.093.053.408 0 .602-.08.23-.176.283-.22.437.125.053.3.034.438 0 0 0 .168.7.164.71a12.254 12.255 0 0 1-5.14 3.007c-.962.233-1.247.233-1.697.33a11 11 0 0 1-1.802.164q-.638 0-1.258-.054c-.319-.032-.62-.109-.928-.165l-.275-.054c-.285-.096-.612-.154-.874-.219a12.366 12.367 0 0 1-.875-.273c.024-.023.047-.02.054-.054.017-.07.003-.109 0-.219.026-.114.14-.101.164-.219-.049-.084-.145-.066-.218-.11a.23.23 0 0 1-.11-.219c.122-.05.35.116.437-.054.044-.08-.06-.245 0-.329.04-.053.297-.096.385-.11.122-.021.257-.018.327-.053a.39.39 0 0 0 .164-.33c-.007-.069-.057-.104-.11-.165-.044-.05-.023-.116-.052-.165-.056-.082-.14-.101-.167-.218.168-.034.413.178.657.11.115-.033.274-.329.329-.438.017-.033-.018-.07 0-.11.02-.045.105-.086.11-.11.017-.063-.014-.123 0-.165.042-.119.149-.13.219-.218.052-.067.113-.153.164-.219.054-.07.074-.156.11-.219.035-.212-.105-.359-.052-.546.054-.21.341-.289.546-.385.07-.031.16-.087.219-.108.14-.05.308-.063.437-.11.219-.081.275-.293.383-.492a1 1 0 0 0 .11-.273c.01-.062-.012-.093 0-.165.011-.07.036-.142.055-.219a2 2 0 0 0 .054-.383c0-.093-.05-.136-.054-.219-.016-.302.107-.381.219-.547.056-.083.07-.158.11-.219.189-.28.516-.394.49-.819-.007-.14-.06-.448-.163-.492-.06-.026-.187-.019-.273-.054-.276-.105-.48-.473-.766-.492-.062 0-.097.053-.165.053-.114 0-.257-.091-.383-.109-.08-.017-.226.023-.273 0-.074-.035-.05-.178-.11-.219-.048-.031-.147-.026-.22-.054-.115-.044-.195-.098-.328-.11-.04-.002-.117 0-.165 0-.073-.018-.15-.07-.218-.11a.36.36 0 0 1-.165-.165c.077-.252-.168-.292-.219-.437-.024-.069.023-.158 0-.219-.03-.088-.122-.147-.218-.219-.17-.13-.305-.243-.548-.273-.105-.017-.254 0-.383 0a.64.64 0 0 1-.383-.219c-.098-.113-.133-.218-.22-.273-.081-.052-.216-.052-.272-.11-.025-.024-.03-.052-.053-.11-.042-.084-.108-.172-.056-.273-.092-.047-.06.126-.164.11-.091-.13-.175-.201-.383-.164-.095.017-.163.105-.273.11-.091 0-.154-.093-.273-.11-.091-.018-.21.063-.273.054-.1-.018-.128-.103-.22-.165-.066-.043-.181-.166-.218-.164-.117 0-.22.25-.383.164-.079-.1.149-.122.054-.218-.07-.07-.105.017-.164.054a1.2 1.2 0 0 1-.22.11c-.16.06-.256.044-.382.11-.116.06-.153.154-.219.273-.053.098-.138.268-.219.273-.098 0-.184-.126-.271-.164-.268-.116-.434.052-.656.054-.207 0-.502-.297-.492-.49.007-.117.095-.29.11-.437.01-.116.109-.223.11-.33 0-.141-.236-.257-.328-.272-.22-.04-.517.105-.767 0-.047-.079.082-.142.11-.219.016-.044-.017-.06 0-.11.028-.074.13-.14.165-.219.026-.06.028-.144.052-.219.032-.087.105-.159.112-.219.01-.078-.047-.166-.11-.218-.194.017-.327 0-.437.054-.252.115-.186.465-.438.548-.087.028-.233.035-.329.052-.082.018-.187.058-.273.056a.6.6 0 0 1-.329-.164.3.3 0 0 1-.054-.11c.003-.018-.004-.037 0-.055.08-.39.163-.777.273-1.148.005-.017-.005-.038 0-.052.073-.245.18-.473.273-.713.023-.017.033-.04.052-.052.137-.095.275-.21.438-.219.101 0 .289.035.385.053.087.017.143.105.219.112.215.017.26-.18.437-.273.182.026.273-.018.437 0 .112.017.242.157.33.164.073 0 .092-.122.164-.11.07.017.208.189.219.273.012.105-.084.213-.055.327.11.112.333.098.49.165.105-.084.018-.207 0-.328-.001-.054.01-.115 0-.164-.008-.084-.052-.147-.052-.219-.002-.332.27-.525.49-.656.098-.058.189-.123.273-.165.117-.059.175-.11.273-.164.177-.1.353-.161.492-.273.064-.15-.007-.343 0-.492.064-.038.096 0 .164 0 .107-.023.158-.159.219-.219.035-.035.122-.075.164-.11.107-.084.126-.182.22-.219.034-.017.111-.03.164-.054.07-.019.16-.07.273-.11.073-.025.245-.026.273-.054.035-.035-.01-.167 0-.219.056-.263.476-.294.71-.383.165-.063.312-.2.492-.165-.035.126-.193.067-.165.219.04.212.308-.023.385-.053.14-.06.413-.098.6-.166.165-.06.43-.14.274-.329-.13 0-.161.116-.273.165-.077.017-.098-.048-.165-.053-.063 0-.1.065-.164.053-.065-.018-.154-.144-.165-.219-.026-.193.193-.238.273-.383-.052-.175-.29-.042-.437-.11a.26.26 0 0 1 .218-.218c.1-.017.324.018.385.053.035.031 0 .117.053.166.06.053.142.018.219 0 .028-.133-.186-.075-.165-.164.158-.105.464-.028.656-.055.11-.017.23-.108.33-.164.094-.053.174-.142.272-.054.028.094-.056.115-.11.164a4 4 0 0 0-.49.546c.084.084.236.039.381.054.056 0 .105.044.165.055.07.017.164-.021.219 0 .098.024.122.164.218.164.16 0 .146-.219.055-.329.028-.11.092-.14.054-.219-.07-.143-.368.025-.383-.164-.01-.117.122-.131.164-.219-.017-.224.186-.234.165-.437-.01-.083-.105-.084-.165-.163-.03-.04-.017-.133-.052-.165-.123-.105-.368-.077-.385-.273-.007-.115.017-.2 0-.329-.016-.117-.116-.469-.219-.491-.131-.028-.226.2-.383.273a.7.7 0 0 1-.33.052c-.055-.017-.155-.054-.164-.163-.01-.122.088-.143.11-.273-.017-.077-.087-.052-.164-.11-.086-.065-.157-.203-.273-.219-.058 0-.163.051-.219.055-.105 0-.185-.027-.273-.055.037-.017.072-.042.11-.054.214-.073.438-.103.657-.164.038-.018.072-.044.11-.055.054.058.098.18.165.22.043.024.11-.018.164 0 .172.052.305.148.492.11.065-.114-.13-.13-.053-.22.125.018.23.07.328.111.134-.098.223-.115.218-.273 0-.08-.108-.11-.164-.164.11-.02.217-.039.329-.055.008.03.036.053.054.055.066.017.289-.09.329-.11.007 0-.01-.048 0-.055a13 13 0 0 1 1.367-.054m-4.375.82c-.04.076-.082.139-.165.165.021.114-.147.184-.164.273-.01.061-.004.165 0 .219.035.558-.438.833-.985.819-.105.101-.051.297-.11.437-.05.118-.21.23-.33.219-.087 0-.218-.138-.218-.219 0-.1.141-.157.054-.273.012-.077.185-.15.164-.273-.02-.13-.168-.033-.329-.052a1.6 1.6 0 0 1-.329-.112c.177-.117.36-.22.548-.33.165-.097.324-.183.492-.272.44-.22.913-.425 1.367-.6m9.406 1.312c-.047 0-.07.03-.11.053-.09.054-.095.14-.165.164-.094.037-.205.018-.219.11-.01.072.058.097.053.165-.035.087-.091.115-.109.219.12.192.401-.018.548-.053.067-.021.128 0 .165-.056.04-.061.022-.184.052-.273.035-.098.123-.075.112-.164-.01-.088-.185-.179-.329-.165m-12.795 1.365c.105.03.343.34.11.438a1.6 1.6 0 0 1-.385.056c-.078-.018-.134-.151-.217-.165-.16-.028-.381.175-.491 0 .028-.105.15-.075.273-.11.218-.06.521-.268.71-.219m.438.548c.052 0 .096.103.162.11.063 0 .126-.063.165-.054.098.026.147.201.054.273-.077 0-.105-.065-.164-.054-.158.028-.21.337-.328.329-.112-.018-.168-.247-.054-.33.004-.07-.058-.094-.054-.164.035-.044.126-.115.217-.11m-.546.052c.033.004.042 0 .052 0-.014.126-.066.161-.162.22a.66.66 0 0 0-.33.438c-.017.063-.194.233-.272.217-.186-.038.066-.385.11-.437.047-.056.108-.096.164-.163.053-.065.058-.184.11-.219a.8.8 0 0 1 .33-.054m16.62.053c.085.024.102.122.165.166.047.031.112.02.165.052.06.04.094.105.164.167.098.082.245.154.385.218.026.018.075.04.109.053.096.126.182.254.273.385.01.07.02.171.054.217.09.124.23.23.329.385 0 .143.063.23.164.271.128.217.263.434.385.656.05.102.06.226.109.33-.035 0-.075.017-.11 0-.116-.204-.716-.244-.767.052-.023.133.088.308-.11.33-.123.018-.268-.127-.438-.164-.07-.017-.164.025-.218 0-.128-.044-.109-.196-.22-.273a1 1 0 0 0-.328-.11h-.165c-.078-.018-.206-.018-.273-.055-.063-.038-.203-.108-.218-.164-.025-.087.157-.2.164-.273.004-.053-.04-.079-.052-.165-.01-.05.008-.129 0-.164-.018-.06-.126-.108-.22-.11-.085 0-.148.052-.22.054-.103.002-.31-.065-.437-.052-.075 0-.145.047-.217.052-.203.018-.334-.018-.492 0a1.3 1.3 0 0 0-.437.11c-.055.025-.095.076-.165.11a1 1 0 0 1-.11.055c-.066.03-.157.093-.219.11-.09.023-.217 0-.385 0-.117 0-.325-.024-.327-.164-.002-.216.397-.126.602-.165.077-.017.128-.11.219-.164.044-.027.068-.027.11-.053.07-.05.208-.164.219-.22.01-.053-.061-.126-.054-.165.008-.049.1-.101.164-.164.098-.097.152-.21.273-.273.082-.044.236-.042.273-.11.009-.076-.002-.097 0-.165.05-.047.066-.102.11-.11.126-.029.236.06.383.054a.5.5 0 0 0 .217-.053c.058-.04.109-.08.165-.112.061-.031.09-.103.164-.11.184-.018.3.217.385.329.07.093.266.21.382.273.065.037.147.079.219.11.152.07.432.289.437.438.004.073-.066.094-.052.164.113.02.213-.103.217-.219.001-.07-.069-.087-.053-.164.053-.116.257-.018.327-.053-.012-.133-.217-.152-.329-.22-.06-.035-.101-.084-.164-.11-.091-.035-.203-.056-.273-.11-.067-.051-.1-.14-.165-.22-.094-.111-.276-.127-.218-.383.028-.038.064-.12.11-.11m-15.418.385h.164c.06 0 .14-.033.165 0-.039.152-.371.109-.492.053.007-.058.088-.048.165-.053m-.548.271c.04 0 .068-.017.11 0a1.2 1.2 0 0 1-.437.22c-.09.027-.203.043-.22-.053-.018-.123.083-.1.165-.112.102-.018.263-.051.384-.053m15.2 0c-.075.023-.115.196 0 .217.053-.031.069-.119.053-.219-.028-.031-.028 0-.052 0m-.055.33c-.036.017-.07.017-.11.054 0 .131.026.215 0 .329.075.143.235.045.273-.055.046-.243-.052-.358-.164-.329m.764.657c.088.14.247.24.438.273.07-.053.077-.184.11-.273h-.273c-.103 0-.213-.05-.273 0m-20.45 4.702c.287-.017.371.376.602.49.058.032.144.04.219.056.061.018.105.035.164.053.123.043.284.017.384.056.148.066.255.36.383.437.007.074-.023.161 0 .217.061.082.173.112.273.165.119.064.16.222.273.273.038.017.103-.018.164 0 .154.047.196.257.33.218.087-.024.096-.136.11-.218.057-.063.129-.163.218-.165.145 0 .166.131.219.273.03.08.087.189.11.273.035.145.03.569 0 .656-.037.105-.185.156-.273.273-.042.053-.077.123-.11.165-.056.07-.122.1-.164.164-.025.035-.032.116-.055.165-.07.149-.168.259-.11.437.025.074.109.133.11.219 0 .102-.201.163-.218.273-.013.082.084.22.11.329.017.082.17.165.219.219.082.093.143.21.218.327.149.228.238.49.383.71.076.116.223.21.273.33.027.06-.024.164 0 .218.084.19.466.4.657.492.087.044.192 0 .273.054a1.6 1.6 0 0 1 .437.384c.056.098.082.337.11.49.035.206-.008.381 0 .603.007.121.053.209.053.33 0 .041.003.122 0 .164-.002.145.014.289 0 .437a1.3 1.3 0 0 0 0 .217c.009.072.05.1.056.165.003.07-.061.166-.054.219.015.147.134.248.164.385.023.105.068.362.053.49-.007.07-.042.145-.053.218-.007.058.009.109 0 .165-.01.082-.06.142-.054.219.01.157.14.28.164.437.01.053-.001.114 0 .165 0 .047.04.066.053.11a12 12 0 0 1-1.312-.875 12 12 0 0 1-1.147-.986l-.054-.052a13 13 0 0 1-1.04-1.148c-.182-.231-.381-.467-.547-.71-.098-.146-.182-.288-.273-.438q-.083-.136-.165-.273a12 12 0 0 1-.437-.82c-.088-.176-.142-.365-.219-.549a12 12 0 0 1-.492-1.312c-.094-.322-.15-.648-.218-.984-.053-.255-.128-.505-.165-.766a11.485 11.486 0 0 1-.054-.438 12.4 12.4 0 0 1 .056-2.787v-.053c.11 0 .26-.163.383-.166m4.704 1.312c.112-.052.147.205.052.22-.087.017-.14-.18-.052-.22"/></svg>