<svg xmlns="http://www.w3.org/2000/svg" xmlns:xlink="http://www.w3.org/1999/xlink" width="64" height="64"><defs><radialGradient xlink:href="#a" id="b" cx="32" cy="4.342" r="27.5" fx="32" fy="4.342" gradientTransform="rotate(90 55.558 -13.527)scale(2.31034)" gradientUnits="userSpaceOnUse"/><linearGradient id="a"><stop offset="0" stop-color="#fafafa"/><stop offset="1" stop-color="#e1e1e1"/></linearGradient></defs><rect width="52" height="52" x="6" y="6" fill="#e6e6e6" stroke="#000" stroke-linecap="round" stroke-linejoin="round" stroke-width="2" opacity=".3" paint-order="markers stroke fill" rx="3" ry="3"/><rect width="52" height="52" x="6" y="6" fill="#fafafa" paint-order="markers stroke fill" rx="3" ry="3"/><path d="m20.526 19.98-8.062 23.01h5.21l1.674-5.457h8.342l1.674 5.457h5.24L26.48 19.98zm3.008 3.567 3.008 9.923h-5.985c1.63-5.275 2.632-8.586 2.977-9.923m19.816 1.581a14 14 0 0 0-5.8 1.582l1.582 3.225c1.891-.846 3.531-1.271 4.931-1.271q2.728.001 2.729 2.666v.745l-3.04.093c-2.621.094-4.585.6-5.891 1.488-1.295.878-1.923 2.234-1.923 4.094 0 1.775.466 3.163 1.427 4.124.971.961 2.287 1.426 3.97 1.426 1.367 0 2.502-.171 3.348-.558.857-.397 1.677-1.126 2.481-2.14h.124l.93 2.388h3.318V31.33c0-2.089-.607-3.658-1.86-4.682s-3.077-1.52-5.427-1.52c-.307 0-.6-.016-.9 0zm3.442 9.738v1.457c0 1.055-.324 1.906-.992 2.543-.659.637-1.53.961-2.636.961-1.546 0-2.326-.699-2.326-2.046 0-.94.344-1.618 1.023-2.078.68-.46 1.712-.734 3.101-.775z" color="#000" font-family="Open Sans" font-size="32.338" font-weight="700" letter-spacing="0" opacity=".35" overflow="visible" style="text-align:start;line-height:125%;-inkscape-font-specification:Open Sans Bold;marker:none" word-spacing="0"/><path fill="gray" stroke="#32434b" stroke-opacity=".471" d="M49 33.5c-8 0-14.5 6.5-14.5 14.5S41 62.5 49 62.5 63.5 56 63.5 48 57 33.5 49 33.5z" color="#000" overflow="visible" style="marker:none"/><path fill="url(#b)" d="M49 36.5c-6.345 0-11.5 5.155-11.5 11.5S42.655 59.5 49 59.5 60.5 54.345 60.5 48 55.345 36.5 49 36.5" color="#000" overflow="visible" style="marker:none"/><path d="M49 36.5c-1.586 0-3.093.324-4.469.906a9.7 9.7 0 0 1 1.75-.187l2.063-.063v1.625q0 1.774-1.125 2.844c-.738.714-1.696 1.094-2.938 1.094-1.733 0-2.625-.77-2.625-2.282 0-.653.172-1.181.469-1.624a11.5 11.5 0 0 0-4.25 6.28c1.079 1.018 2.512 1.532 4.344 1.532 1.534 0 2.801-.192 3.75-.625.96-.445 1.88-1.27 2.781-2.406h.125l1.063 2.656h3.718V37.5c-1.427-.636-2.994-1-4.656-1" color="#000" font-family="Open Sans" font-size="32.338" font-weight="700" letter-spacing="0" opacity=".5" overflow="visible" style="text-align:start;line-height:125%;marker:none;-inkscape-font-specification:Open Sans Bold" word-spacing="0"/><rect width="27" height="27" x="59.217" y="5.698" fill="#ccc" color="#000" opacity=".2" overflow="visible" rx="122.727" ry="122.727" style="marker:none" transform="translate(-10.25 32.357)scale(.81481)"/></svg>