<svg xmlns="http://www.w3.org/2000/svg" width="64" height="64"><path fill="none" stroke="#21598b" stroke-width="1.999" d="M3.001 9h58.002c.552 0 .998.445.998.997v44.002a1 1 0 0 1-.998 1.002H3.001a1 1 0 0 1-1.002-1.002V9.997a1 1 0 0 1 1.002-.998z" opacity=".75" style="paint-order:stroke markers fill"/><path fill="#53a8f6" d="M3.001 9h58.002c.552 0 .998.445.998.997v44.002a1 1 0 0 1-.998 1.002H3.001a1 1 0 0 1-1.002-1.002V9.997a1 1 0 0 1 1.002-.998z" style="paint-order:stroke markers fill"/><rect width="3.999" height="1.999" x="5.998" y="9.997" opacity=".35" ry="1.002" style="paint-order:stroke markers fill"/><rect width="10.001" height="1.999" x="27.001" y="9.997" opacity=".35" ry="1.002" style="paint-order:stroke markers fill"/><rect width="1.999" height="1.999" x="57" y="9.997" opacity=".35" ry="1.002" style="paint-order:stroke markers fill"/><rect width="3.001" height="1.999" x="53.001" y="9.997" opacity=".35" ry="1.002" style="paint-order:stroke markers fill"/><rect width="1.999" height="1.999" x="50" y="9.997" opacity=".35" ry="1.002" style="paint-order:stroke markers fill"/><g fill="#fff" transform="scale(3.7796)"><path d="M15.002 50.998c-1.108 0-2 .892-2 2V55h38v-2.002c0-1.108-.892-2-2-2z" opacity=".35" style="paint-order:stroke markers fill" transform="scale(.26458)"/><rect width="1.323" height="1.323" x="4.498" y="12.7" ry=".132" style="paint-order:stroke markers fill"/><rect width="1.323" height="1.323" x="6.703" y="12.7" ry=".132" style="paint-order:stroke markers fill"/><rect width="1.323" height="1.323" x="8.908" y="12.7" ry=".132" style="paint-order:stroke markers fill"/><rect width="1.323" height="1.323" x="11.113" y="12.7" ry=".132" style="paint-order:stroke markers fill"/></g><path d="M3.001 9a1 1 0 0 0-1.002 1v2.998H62v-2.997a1 1 0 0 0-.997-1.002z" opacity=".35" style="paint-order:stroke markers fill"/><rect width="37.991" height="27.819" x="13" y="18.001" fill="#fff" opacity=".35" ry="1.309"/><g fill="#fff" opacity=".75" transform="matrix(.46937 0 0 .4555 -209.41 -153.63)"><ellipse cx="498.35" cy="384.49" rx="3.196" ry="3.293"/><ellipse cx="489.83" cy="384.49" rx="3.196" ry="3.293"/><ellipse cx="481.31" cy="384.49" rx="3.196" ry="3.293"/></g><path fill="#fff" d="M49.691 18.002c.725 0 1.309.583 1.309 1.309v25.2c0 .726-.584 1.31-1.309 1.31H32v-27.82z" opacity=".35"/></svg>