<svg xmlns="http://www.w3.org/2000/svg" width="64" height="64"><g transform="translate(0 -1058.5)scale(3.7796)"><rect width="13.758" height="13.758" x="1.588" y="281.65" fill="none" stroke="#2454d8" stroke-linecap="round" stroke-linejoin="round" stroke-width=".529" opacity=".75" rx=".794" ry=".794" style="paint-order:markers stroke fill"/><rect width="13.758" height="13.758" x="1.588" y="281.65" fill="#90a9ff" rx=".794" ry=".794" style="paint-order:markers stroke fill"/><rect width="10.054" height="1.323" x="3.44" y="292.77" fill="#fff" opacity=".35" ry=".265" style="paint-order:markers stroke fill"/><g fill="#ccdfff"><rect width="1.323" height="1.323" x="4.498" y="291.97" ry=".132" style="paint-order:stroke markers fill"/><rect width="1.323" height="1.323" x="6.703" y="291.97" ry=".132" style="paint-order:stroke markers fill"/><rect width="1.323" height="1.323" x="8.908" y="291.97" ry=".132" style="paint-order:stroke markers fill"/><rect width="1.323" height="1.323" x="11.113" y="291.97" ry=".132" style="paint-order:stroke markers fill"/></g><path d="M2.381 281.65a.79.79 0 0 0-.793.794v.264h13.758v-.264a.79.79 0 0 0-.794-.794z" opacity=".35" style="paint-order:markers stroke fill"/><rect width="2.646" height=".529" x="7.12" y="281.92" opacity=".35" ry=".265" style="paint-order:stroke markers fill"/></g><path fill="#fff" d="m24.929 23-.683 1.246-1.246.683 1.246.683.683 1.245.683-1.245 1.246-.683-1.246-.684zm5.143 0-.683 1.246-1.246.683 1.246.683.683 1.245.683-1.245L32 24.929l-1.245-.684zm7.27 0L23 37.341 26.66 41 41 26.659zm0 1.828 1.828 1.83-4.277 4.282-1.83-1.83zm-9.841 2.03-.684 1.245-1.245.683 1.245.683.684 1.245.683-1.245 1.245-.683-1.245-.683z"/></svg>