<svg xmlns="http://www.w3.org/2000/svg" width="64" height="64" viewBox="0 0 16.933 16.933"><g transform="translate(0 -280.067)"><rect width="15.081" height="12.965" x=".955" y="282.039" fill="#363842" color="#000" overflow="visible" rx=".823" ry=".707" style="marker:none"/><rect width="15.081" height="12.965" x=".926" y="282.051" fill="none" stroke="#000" stroke-linecap="round" stroke-linejoin="round" stroke-width=".265" color="#000" opacity=".75" overflow="visible" rx=".823" ry=".707" style="marker:none"/><g stroke-width="1.612"><path fill="#fff" d="M2.646 290.65h2.646v2.646H2.646z" opacity=".1"/><path fill="#fff" d="m3.631 285.089-.985 2.125c.159-.09.332-.155.511-.197l.478 4.637.477-4.638c.178.042.349.107.504.198zm5.261 6.237q.134.24.197.511l-4.802.478 4.803.478a1.8 1.8 0 0 1-.198.503l2.125-.985z"/><path fill="none" stroke="#fff" stroke-dasharray=".85295759,.85295759" stroke-dashoffset="1" stroke-width=".529" d="M2.81 288.536h4.596v4.596H2.81z" opacity=".2"/></g></g></svg>