<svg xmlns="http://www.w3.org/2000/svg" width="64" height="64"><g transform="translate(-73.763)"><rect width="52" height="52" x="6.002" y="5.998" fill="none" stroke="#2454d8" stroke-linecap="round" stroke-linejoin="round" stroke-width="1.999" opacity=".75" rx="3.001" ry="3.001" style="paint-order:markers stroke fill"/><g stroke-width="3.78"><rect width="52" height="52" x="6.002" y="5.998" fill="#90a9ff" rx="3.001" ry="3.001" style="paint-order:markers stroke fill"/><path d="M9 5.998A2.993 2.993 0 0 0 6.001 9v.998h52V9A2.993 2.993 0 0 0 55 6z" opacity=".35" style="paint-order:markers stroke fill"/><rect width="10.001" height="1.999" x="26.911" y="7" opacity=".35" ry="1.002" style="paint-order:stroke markers fill"/></g><rect width="4" height="28" x="19" y="20" fill-rule="evenodd" opacity=".35" rx="4.001" ry="2" style="paint-order:stroke fill markers"/><path stroke="#000" stroke-opacity=".196" stroke-width="2" d="M15 25.899a6.003 6.105 0 0 1 12 0 6 6.101 0 0 1-12 0z" color="#000" overflow="visible"/><path fill="#fff" d="M15 25.899a6.003 6.105 0 0 1 12 0 6 6.101 0 0 1-12 0" color="#000" overflow="visible"/><rect width="4" height="28" x="41" y="20" fill-rule="evenodd" opacity=".35" rx="4.001" ry="2" style="paint-order:stroke fill markers"/><path stroke="#000" stroke-opacity=".196" stroke-width="2" d="M37 41.899a6.003 6.105 0 0 1 12 0 6 6.101 0 0 1-12 0z" color="#000" overflow="visible"/><path fill="#fff" d="M37 41.899a6.003 6.105 0 0 1 12 0 6 6.101 0 0 1-12 0" color="#000" overflow="visible"/></g><g transform="translate(-126 3.002)"><rect width="52" height="52" x="132" y="2.998" fill-opacity=".298" stroke="#000" stroke-linecap="round" stroke-linejoin="round" stroke-opacity=".298" stroke-width="1.999" opacity=".75" rx="3.001" ry="3.001" style="paint-order:markers stroke fill"/><g stroke-width="3.78" transform="translate(126 -3)"><rect width="52" height="52" x="6.002" y="5.998" fill="#fafafa" rx="3.001" ry="3.001" style="paint-order:markers stroke fill"/><path fill-opacity=".224" d="M9 5.998A2.993 2.993 0 0 0 6.001 9v.998h52V9A2.993 2.993 0 0 0 55 6z" opacity=".35" style="paint-order:markers stroke fill"/><rect width="10.001" height="1.999" x="26.911" y="7" opacity=".15" ry="1.002" style="paint-order:stroke markers fill"/></g><circle cx="178" cy="5" r="1" fill-rule="evenodd" opacity=".15" style="paint-order:fill markers stroke"/><rect width="52" height="1" x="132" y="7" opacity=".15" ry="0" style="paint-order:stroke markers fill"/><rect width="4" height="28" x="145" y="17" fill="#b3b3b3" fill-rule="evenodd" opacity=".75" rx="4.001" ry="2" style="paint-order:stroke fill markers"/><path fill="#45a4e9" stroke="#1987d7" stroke-width="2" d="M141 22.899a6.003 6.105 0 0 1 12 0 6 6.101 0 0 1-12 0z" color="#000" overflow="visible"/><path fill="#45a4e9" d="M141 22.899a6.003 6.105 0 0 1 12 0 6 6.101 0 0 1-12 0" color="#000" overflow="visible"/><rect width="4" height="28" x="167" y="17" fill="#b3b3b3" fill-rule="evenodd" opacity=".75" rx="4.001" ry="2" style="paint-order:stroke fill markers"/><path fill="#45a4e9" stroke="#1987d7" stroke-width="2" d="M163 38.899a6.003 6.105 0 0 1 12 0 6 6.101 0 0 1-12 0z" color="#000" overflow="visible"/><path fill="#45a4e9" d="M163 38.899a6.003 6.105 0 0 1 12 0 6 6.101 0 0 1-12 0" color="#000" overflow="visible"/></g></svg>