<svg xmlns="http://www.w3.org/2000/svg" width="64" height="64"><rect width="52" height="52" x="6.002" y="5.998" fill="none" stroke="#2454d8" stroke-linecap="round" stroke-linejoin="round" stroke-width="1.999" opacity=".75" rx="3.001" ry="3.001" style="paint-order:markers stroke fill"/><g stroke-width="3.78"><rect width="52" height="52" x="6.002" y="5.998" fill="#90a9ff" rx="3.001" ry="3.001" style="paint-order:markers stroke fill"/><rect width="38" height="5" x="13.002" y="50.001" fill="#fff" opacity=".35" ry="1.002" style="paint-order:markers stroke fill"/><g fill="#ccdfff"><rect width="5" height="5" x="17.001" y="47" ry=".499" style="paint-order:stroke markers fill"/><rect width="5" height="5" x="25.335" y="47" ry=".499" style="paint-order:stroke markers fill"/><rect width="5" height="5" x="33.669" y="47" ry=".499" style="paint-order:stroke markers fill"/><rect width="5" height="5" x="42.003" y="47" ry=".499" style="paint-order:stroke markers fill"/></g><path d="M9 5.998A2.993 2.993 0 0 0 6.001 9v.998h52V9A2.993 2.993 0 0 0 55 6z" opacity=".35" style="paint-order:markers stroke fill"/><rect width="10.001" height="1.999" x="26.911" y="7" opacity=".35" ry="1.002" style="paint-order:stroke markers fill"/></g><g fill="#fff" stroke-width=".5"><path d="M32 17a18 18 0 0 0-15.754 9.336 3.96 3.96 0 0 0 1.312 1.816A16 16 0 0 1 32 19a8 8 0 0 0-8 8 8 8 0 0 0 8 8 8 8 0 0 0 8-8 8 8 0 0 0-7.3-7.964 16 16 0 0 1 13.74 9.116 3.95 3.95 0 0 0 1.32-1.836A18 18 0 0 0 32 17m0 4a6 6 0 0 1 6 6 6 6 0 0 1-6 6 6 6 0 0 1-6-6 6 6 0 0 1 6-6m0 2a4 4 0 0 0-4 4 4 4 0 0 0 4 4 4 4 0 0 0 4-4 4 4 0 0 0-.18-1.176A2 2 0 0 1 34 27a2 2 0 0 1-2-2 2 2 0 0 1 1.18-1.82A4 4 0 0 0 32 23"/><path d="M16 15v22h14v4h-6v2h16v-2h-6v-4h14V15H18zm2 2h28v18H18z"/></g></svg>