<svg width="64" height="64" version="1.1" viewBox="0 0 16.933 16.933" xmlns="http://www.w3.org/2000/svg" xmlns:xlink="http://www.w3.org/1999/xlink">
 <defs>
  <linearGradient id="b" x1="1.5875" x2="15.346" y1="289.06" y2="289.06" gradientTransform="translate(-1.2742e-8 -280.07)" gradientUnits="userSpaceOnUse">
   <stop stop-color="#9ab9dd" offset="0"/>
   <stop stop-color="#9add9c" offset=".24232"/>
   <stop stop-color="#f3f284" offset=".50045"/>
   <stop stop-color="#edb968" offset=".7549"/>
   <stop stop-color="#ed8e68" offset="1"/>
  </linearGradient>
  <linearGradient id="a" x1="1.3229" x2="15.61" y1="7.6728" y2="7.6728" gradientUnits="userSpaceOnUse">
   <stop stop-color="#5179a9" offset="0"/>
   <stop stop-color="#337235" offset=".24232"/>
   <stop stop-color="#b6b521" offset=".50045"/>
   <stop stop-color="#936a2a" offset=".76997"/>
   <stop stop-color="#8e4c32" offset="1"/>
  </linearGradient>
 </defs>
 <rect x="1.588" y="1.587" width="13.758" height="13.758" rx=".794" ry=".794" fill="none" opacity=".75" stroke="url(#a)" stroke-linecap="round" stroke-linejoin="round" stroke-width=".529" style="paint-order:markers stroke fill"/>
 <rect x="1.588" y="1.587" width="13.758" height="13.758" rx=".794" ry=".794" fill="url(#b)" style="paint-order:markers stroke fill"/>
 <g fill="#fff">
  <rect x="3.44" y="12.7" width="10.054" height="1.323" ry=".265" opacity=".5" style="paint-order:markers stroke fill"/>
  <rect x="4.498" y="11.906" width="1.323" height="1.323" ry=".132" style="paint-order:stroke markers fill"/>
  <rect x="6.703" y="11.906" width="1.323" height="1.323" ry=".132" style="paint-order:stroke markers fill"/>
  <rect x="8.908" y="11.906" width="1.323" height="1.323" ry=".132" style="paint-order:stroke markers fill"/>
  <rect x="11.113" y="11.906" width="1.323" height="1.323" ry=".132" style="paint-order:stroke markers fill"/>
 </g>
 <path d="m2.381 1.587a0.792 0.792 0 0 0-0.793 0.794v0.264h13.758v-0.264a0.792 0.792 0 0 0-0.794-0.794z" fill-opacity=".93725" opacity=".35" style="paint-order:markers stroke fill"/>
 <rect x="7.12" y="1.852" width="2.646" height=".529" ry=".265" opacity=".35" style="paint-order:stroke markers fill"/>
</svg>
