<svg xmlns="http://www.w3.org/2000/svg" width="64" height="64" viewBox="0 0 16.933 16.933"><path fill="#8bacff" stroke="#436fed" stroke-width=".529" d="M.794 2.381H16.14c.146 0 .264.118.264.264v11.642a.264.264 0 0 1-.264.265H.794a.264.264 0 0 1-.265-.265V2.645c0-.146.118-.264.265-.264z" opacity=".9" style="paint-order:stroke markers fill"/><path fill="#8bacff" d="M.794 2.381H16.14c.146 0 .264.118.264.264v11.642a.264.264 0 0 1-.264.265H.794a.264.264 0 0 1-.265-.265V2.645c0-.146.118-.264.265-.264" style="paint-order:stroke markers fill"/><g style="paint-order:markers stroke fill"><path d="M.53 3.44v4.498a4.233 4.233 0 0 0 4.232-4.233 4 4 0 0 0-.01-.265z" opacity=".15"/><path d="M.53 3.44v3.175a2.91 2.91 0 0 0 2.91-2.91 3 3 0 0 0-.015-.265z" opacity=".15"/><path d="M.53 3.44v1.852a1.587 1.587 0 0 0 1.587-1.587 1.6 1.6 0 0 0-.023-.265H.529z" opacity=".15"/></g><rect width="1.058" height=".529" x="1.587" y="2.645" opacity=".35" ry=".265" style="paint-order:stroke markers fill"/><rect width="2.646" height=".529" x="7.144" y="2.645" opacity=".35" ry=".265" style="paint-order:stroke markers fill"/><rect width=".529" height=".529" x="15.081" y="2.645" opacity=".35" ry=".265" style="paint-order:stroke markers fill"/><rect width=".794" height=".529" x="14.023" y="2.645" opacity=".35" ry=".265" style="paint-order:stroke markers fill"/><rect width=".529" height=".529" x="13.229" y="2.645" opacity=".35" ry=".265" style="paint-order:stroke markers fill"/><path fill="#fff" d="M15.002 50.998c-1.108 0-2 .892-2 2V55h38v-2.002c0-1.108-.892-2-2-2z" opacity=".35" style="paint-order:stroke markers fill" transform="scale(.26458)"/><g fill="#ccdfff"><rect width="1.323" height="1.323" x="4.498" y="12.7" ry=".132" style="paint-order:stroke markers fill"/><rect width="1.323" height="1.323" x="6.703" y="12.7" ry=".132" style="paint-order:stroke markers fill"/><rect width="1.323" height="1.323" x="8.908" y="12.7" ry=".132" style="paint-order:stroke markers fill"/><rect width="1.323" height="1.323" x="11.112" y="12.7" ry=".132" style="paint-order:stroke markers fill"/></g><path d="M.794 2.381a.264.264 0 0 0-.265.265v.793h15.875v-.793a.264.264 0 0 0-.264-.265z" opacity=".35" style="paint-order:stroke markers fill"/><g style="paint-order:markers stroke fill"><path d="M16.404 3.44v4.498a4.233 4.233 0 0 1-4.233-4.233 4 4 0 0 1 .01-.265z" opacity=".15"/><path d="M16.404 3.44v3.175a2.91 2.91 0 0 1-2.91-2.91 3 3 0 0 1 .014-.265z" opacity=".15"/><path d="M16.404 3.44v1.852a1.587 1.587 0 0 1-1.587-1.587 1.6 1.6 0 0 1 .022-.265z" opacity=".15"/></g></svg>