<svg xmlns="http://www.w3.org/2000/svg" width="64" height="64" viewBox="0 0 16.933 16.933"><path fill="#4f6698" fill-opacity=".267" d="M3.293 3.703a.886.886 0 0 0-.892.872v8.312c0 .483.407.87.892.871h6.949l1.36 1.32 1.363-1.32h1.774a.886.886 0 0 0 .892-.871V4.575a.886.886 0 0 0-.892-.872zm0 .264H14.74c.347 0 .627.271.627.608v8.312c0 .336-.28.607-.627.607h-1.882l-1.254 1.215-1.254-1.215H3.293a.616.616 0 0 1-.627-.607V4.575c0-.337.28-.608.627-.608" color="#000" font-family="sans-serif" font-weight="400" overflow="visible" style="line-height:normal;text-indent:0;text-align:start;text-decoration-line:none;text-decoration-style:solid;text-decoration-color:#000;text-transform:none;white-space:normal;isolation:auto;mix-blend-mode:normal;solid-color:#000;solid-opacity:1"/><g transform="translate(-.244 -5.202)scale(.35278)"><path fill="#f5f5f5" d="M10.028 25.992c-.985 0-1.778.768-1.778 1.722v23.561c0 .954.793 1.722 1.778 1.722h20l3.555 3.745 3.556-3.745h5.333c.985 0 1.778-.768 1.778-1.722v-23.56c0-.955-.793-1.723-1.778-1.723z"/><circle cx="10.5" cy="27.492" r="7.8" fill="#ff5656" stroke="#ff5656" stroke-width=".9"/><g style="line-height:125%;-inkscape-font-specification:&quot;Sans Bold&quot;"><path fill="#fff" d="M11.325 31.28h-1.56v-6.11l-1.522.588v-1.297l2.917-1.192h.165z" font-family="Roboto Condensed" font-size="15" font-weight="700" letter-spacing="0" style="-inkscape-font-specification:&quot;Roboto Condensed, Bold&quot;" word-spacing="0"/></g></g></svg>