<svg xmlns="http://www.w3.org/2000/svg" width="64" height="64" version="1"><rect width="52" height="52" x="6" y="6" fill="#ff811f" stroke="#ac520c" stroke-width="2" rx="8" ry="8"/><rect width="52" height="52" x="6" y="6" fill="#ff811f" rx="8" ry="8"/><path fill="#5a3608" d="M32 16a16.35 16.35 0 0 0-16.348 16.348A16.35 16.35 0 0 0 32 48.696a16.35 16.35 0 0 0 8.493-2.405 31 31 0 0 1 2.922 3.975l3.98-2.448a36 36 0 0 0-3.294-4.508 16.35 16.35 0 0 0 4.247-10.963A16.35 16.35 0 0 0 32 16m0 5.843a9.342 10.51 0 0 1 9.34 10.505 9.342 10.51 0 0 1-1.959 6.445c-3.055-2.349-6.502-4.013-10.127-3.73l.362 4.656c1.686-.132 3.912.666 6.173 2.235a9.342 10.51 0 0 1-3.789.904 9.342 10.51 0 0 1-9.34-10.51A9.342 10.51 0 0 1 32 21.843"/></svg>