<svg xmlns="http://www.w3.org/2000/svg" width="64" height="64" viewBox="0 0 16.933 16.933"><g paint-order="markers stroke fill"><g fill="#4d4d4d" stroke-width=".962" transform="translate(-.339 -291.608)scale(1.04)"><rect width="13.229" height="13.229" x="1.852" y="281.919" stroke="#1e1e1e" stroke-linecap="round" stroke-linejoin="round" stroke-width=".509" opacity=".9" rx=".794" ry=".794"/><rect width="13.229" height="13.229" x="1.852" y="281.919" rx=".794" ry=".794"/></g><g fill="#4d4d4d" stroke-width=".962" transform="translate(-.339 -291.608)scale(1.04)"><rect width="13.229" height="13.229" x="1.852" y="281.919" rx=".794" ry=".794"/><rect width="13.229" height="13.229" x="1.852" y="281.919" rx=".794" ry=".794"/></g><g stroke-width=".833" transform="matrix(1.2 0 0 1.2 -1.693 -336.186)"><rect width="1.587" height="1.587" x="7.673" y="283.242" fill="#ff3b53" rx=".265" ry=".265"/><rect width="1.587" height="1.587" x="9.26" y="283.242" fill="#ff3b53" rx=".265" ry=".265"/><rect width="1.587" height="1.587" x="10.848" y="283.242" fill="#ff3b53" rx=".265" ry=".265"/><rect width="1.587" height="1.587" x="10.848" y="284.829" fill="#ff3b53" rx=".265" ry=".265"/><rect width="1.587" height="1.587" x="7.673" y="286.417" fill="#1cbedd" rx=".265" ry=".265"/><rect width="1.587" height="1.587" x="7.673" y="288.004" fill="#1cbedd" rx=".265" ry=".265"/><rect width="1.587" height="1.587" x="9.26" y="288.004" fill="#1cbedd" rx=".265" ry=".265"/><rect width="1.587" height="1.587" x="9.26" y="289.592" fill="#1cbedd" rx=".265" ry=".265"/><rect width="1.587" height="1.587" x="7.673" y="289.592" fill="#f5ab00" rx=".265" ry=".265"/><rect width="1.587" height="1.587" x="6.085" y="289.592" fill="#f5ab00" rx=".265" ry=".265"/><rect width="1.587" height="1.587" x="6.085" y="288.004" fill="#f5ab00" rx=".265" ry=".265"/><rect width="1.587" height="1.587" x="4.498" y="289.592" fill="#f5ab00" rx=".265" ry=".265"/></g></g></svg>