<svg xmlns="http://www.w3.org/2000/svg" width="64" height="64" viewBox="0 0 16.933 16.933"><path fill="#2376c5" stroke="#1a538a" stroke-width=".529" d="M13.503 3.713c-1.347-1.096-3.136-1.7-5.037-1.7s-3.689.604-5.036 1.7c-1.359 1.106-2.107 2.58-2.107 4.15 0 1.499.682 2.91 1.925 3.996a.8.8 0 0 0-.051.16l-.409 2.01c-.048.238.017.38.08.458.073.09.182.14.305.14a.65.65 0 0 0 .299-.083l2.377-1.235a8.6 8.6 0 0 0 2.617.404c1.901 0 3.69-.604 5.037-1.7 1.359-1.106 2.107-2.58 2.107-4.15s-.748-3.044-2.107-4.15z"/><path fill="#2376c5" d="M13.503 3.713c-1.347-1.096-3.136-1.7-5.037-1.7s-3.689.604-5.036 1.7c-1.359 1.106-2.107 2.58-2.107 4.15 0 1.499.682 2.91 1.925 3.996a.8.8 0 0 0-.051.16l-.409 2.01c-.048.238.017.38.08.458.073.09.182.14.305.14a.65.65 0 0 0 .299-.083l2.377-1.235a8.6 8.6 0 0 0 2.617.404c1.901 0 3.69-.604 5.037-1.7 1.359-1.106 2.107-2.58 2.107-4.15s-.748-3.044-2.107-4.15"/><path fill="#fff" d="M7.144 5.289v1.34h-1.34v.67h1.34v1.339h-1.34v.67h1.34v1.339h.67v-1.34h1.339v1.34h.67v-1.34h1.339v-.67h-1.34V7.299h1.34v-.67h-1.34V5.29h-.67v1.34H7.814V5.29zm.67 2.01h1.339v1.338h-1.34z"/><path fill="#b7e6ff" stroke="#1a748a" stroke-opacity=".497" stroke-width=".529" d="M9.421 8.978c.674-.596 1.568-.925 2.518-.925s1.845.329 2.518.925c.68.602 1.054 1.405 1.054 2.26 0 .816-.341 1.584-.963 2.175a.4.4 0 0 1 .026.087l.204 1.094c.025.13-.008.208-.04.25a.19.19 0 0 1-.152.076.3.3 0 0 1-.15-.045l-1.188-.672c-.411.144-.853.22-1.309.22-.95 0-1.844-.33-2.518-.926-.68-.602-1.054-1.404-1.054-2.26 0-.854.375-1.657 1.054-2.259z"/><path fill="#b7e6ff" d="M9.421 8.978c.674-.596 1.568-.925 2.518-.925s1.845.329 2.518.925c.68.602 1.054 1.405 1.054 2.26 0 .816-.341 1.584-.963 2.175a.4.4 0 0 1 .026.087l.204 1.094c.025.13-.008.208-.04.25a.19.19 0 0 1-.152.076.3.3 0 0 1-.15-.045l-1.188-.672c-.411.144-.853.22-1.309.22-.95 0-1.844-.33-2.518-.926-.68-.602-1.054-1.404-1.054-2.26 0-.854.375-1.657 1.054-2.259"/><g fill="#1d5a9e" stroke-width=".277"><circle cx="10.449" cy="11.226" r=".649" opacity=".837"/><circle cx="11.928" cy="11.226" r=".649" opacity=".837"/><circle cx="13.481" cy="11.226" r=".649" opacity=".837"/></g></svg>