<svg xmlns="http://www.w3.org/2000/svg" width="64" height="64"><path fill="#1c394a" stroke="#0e1d25" stroke-width="2" d="M32 5c14.912 0 27 12.088 27 27S46.912 59 32 59 5 46.912 5 32 17.088 5 32 5z"/><path fill="#1c394a" d="M32 5c14.912 0 27 12.088 27 27S46.912 59 32 59 5 46.912 5 32 17.088 5 32 5"/><path fill="#f9f9f9" d="M46.086 43.739s-2.348-3.522-5.87-3.522c-3.283.633-4.585.097-4.695 0V26.001c-.156-2.99-2.61-5.989-6.264-7.368-4.636-1.752-9.538-.23-10.955 3.411-1.422 3.637 1.174 8.039 5.814 9.79 3.591 1.357 6.888 1.018 9.057-1.013v14.087c4.695 3.123 9.061-1.128 12.913-1.174"/></svg>