<svg xmlns="http://www.w3.org/2000/svg" xmlns:xlink="http://www.w3.org/1999/xlink" width="64" height="64"><defs><linearGradient id="a"><stop offset="0"/><stop offset="1" stop-opacity="0"/></linearGradient><linearGradient xlink:href="#a" id="d" x1="25" x2="26" y1="29" y2="36" gradientTransform="translate(-1 1058.5)" gradientUnits="userSpaceOnUse"/><linearGradient xlink:href="#a" id="c" x1="19" x2="26.088" y1="29" y2="37.812" gradientUnits="userSpaceOnUse"/><radialGradient xlink:href="#a" id="b" cx="35.997" cy="1101.5" r="23.502" gradientTransform="matrix(1 0 0 .33781 -.98 729.41)" gradientUnits="userSpaceOnUse"/></defs><g transform="translate(0 -1058.5)"><circle cx="32" cy="1090.5" r="27" fill="#01579b"/><circle cx="32" cy="1090.5" r="26" fill="#0277bd"/><g fill-rule="evenodd"><path fill="url(#b)" d="M26.442 1093.6q-.59-.002-1.186.037c-1.06.077-2.14.274-3.242.613-4.407 1.356-5.108 4.942-10.395 11.991-.32.426.159.991.631.745 4.77-3.443 8.126-4.942 11.87-4.866 3.742.076 6.349 1.424 9.023 2.979 2.673 1.554 5.4 3.322 9.238 4.045s8.75.389 15.807-2.131c.527-.19.392-.97-.168-.97-8.74 0-15.921-6.9-23.666-10.457-2.542-1.166-5.164-1.96-7.912-1.986" color="#000" opacity=".3" style="isolation:auto;mix-blend-mode:normal;text-decoration-color:#000;text-decoration-line:none;text-decoration-style:solid;text-indent:0;text-transform:none;white-space:normal"/><path fill="#81d4fa" d="M26.442 1092.6q-.59-.002-1.185.037c-1.061.077-2.14.274-3.243.613-4.407 1.356-5.108 4.942-10.395 11.99-.32.426.159.991.631.744 4.77-4.443 8.127-4.94 11.87-4.865s6.35 1.424 9.023 2.979c2.673 1.554 5.4 3.322 9.238 4.045s8.75.389 15.807-2.131c.527-.19.392-.97-.168-.97-8.74 0-15.921-6.9-23.666-10.456-2.542-1.167-5.164-1.96-7.912-1.986" color="#000" style="isolation:auto;mix-blend-mode:normal;text-decoration-color:#000;text-decoration-line:none;text-decoration-style:solid;text-indent:0;text-transform:none;white-space:normal"/><path fill="url(#c)" d="M52.428 28.379 40 29l-14 4-13 12-.746 1.49c.35 1.008.768 1.773 1.49 1.442C23.586 37.18 33.372 29.519 53.976 30.5c.501.023.72-.624.309-.91a46 46 0 0 0-1.858-1.211z" opacity=".5" transform="translate(0 1058.5)"/><path fill="url(#d)" d="m51.428 1086.9-12.428.621-14 4-13 12-.746 1.49c.35 1.008.768 1.774 1.49 1.442 9.842-10.752 19.628-18.413 40.232-17.432.501.023.72-.624.309-.91a46 46 0 0 0-1.858-1.211z" opacity=".5"/><path fill="#fff" d="M21.113 1076.4a27 27 0 0 0-2.465.072c-3.13.24-5.64 1.054-7.033 2.725-2.178 2.613-3.413 7.19-3.527 12.154s.916 10.316 3.488 14.432a.5.5 0 0 0 .793.07c9.97-10.966 19.742-18.83 40.607-17.836a.5.5 0 0 0 .309-.91c-6.578-4.555-15.62-8.067-23.686-9.706-3.025-.614-5.912-.966-8.487-1.002z" color="#000" style="isolation:auto;mix-blend-mode:normal;text-decoration-color:#000;text-decoration-line:none;text-decoration-style:solid;text-indent:0;text-transform:none;white-space:normal"/></g></g></svg>