<svg xmlns="http://www.w3.org/2000/svg" width="64" height="64"><g fill-rule="evenodd"><path fill="#c8c8c8" stroke="#9c9c9c" stroke-width="2" d="M38.747 9.09A28.471 22.63 17.344 0 0 4.826 22.203a28.471 22.63 17.344 0 0 20.43 30.087 28.471 22.63 17.344 0 0 33.921-13.113 28.471 22.63 17.344 0 0-20.43-30.089m1.365 8.758a21.235 16.869 17.344 0 1 15.24 22.435 21.235 16.869 17.344 0 1-25.299 9.772 21.235 16.869 17.344 0 1-15.238-22.432 21.235 16.869 17.344 0 1 25.296-9.775" color="#000"/><path fill="#c8c8c8" d="M38.747 9.09A28.471 22.63 17.344 0 0 4.826 22.203a28.471 22.63 17.344 0 0 20.43 30.087 28.471 22.63 17.344 0 0 33.921-13.113 28.471 22.63 17.344 0 0-20.43-30.089m1.365 8.758a21.235 16.869 17.344 0 1 15.24 22.435 21.235 16.869 17.344 0 1-25.299 9.772 21.235 16.869 17.344 0 1-15.238-22.432 21.235 16.869 17.344 0 1 25.296-9.775" color="#000"/><path fill="#4f61eb" stroke="#3544b3" stroke-linecap="round" stroke-width="2" d="m55.586 56.513-9.13.005-6.223-9.197s-1.002-1.723-1.618-2.223c-.513-.416-.733-.565-1.24-.565h-1.156l.003 11.974-7.927.004v-30.6h17.258s6.994 1.291 7.137 8.219c.158 7.723-6.76 9.995-6.76 9.995.949.388 8.58 10.599 9.657 12.383M41.904 32.547l-5.603-.004-.003 5.203 5.606-.001s2.597-.008 2.597-2.646c0-2.692-2.597-2.55-2.597-2.55"/><path fill="#4f61eb" d="m55.586 56.513-9.13.005-6.223-9.197s-1.002-1.723-1.618-2.223c-.513-.416-.733-.565-1.24-.565h-1.156l.003 11.974-7.927.004v-30.6h17.258s6.994 1.291 7.137 8.219c.158 7.723-6.76 9.995-6.76 9.995.949.388 8.58 10.599 9.657 12.383M41.904 32.547l-5.603-.004-.003 5.203 5.606-.001s2.597-.008 2.597-2.646c0-2.692-2.597-2.55-2.597-2.55"/></g></svg>