<svg xmlns="http://www.w3.org/2000/svg" width="64" height="64" version="1"><rect width="54" height="53.999" x="-59" y="-59.001" fill="#2777a7" stroke="#1c4f6c" stroke-width="2" rx="27" ry="26.999" transform="scale(1 -1)rotate(90)"/><rect width="54" height="53.999" x="-59" y="-59.001" fill="#2777a7" rx="27" ry="26.999" transform="scale(1 -1)rotate(90)"/><path fill="#f2f8fa" d="M31.999 14.45c-2.858 1.496-4.107 4.201-5.4 6.75-.823-1.111-1.032-2.669-1.35-4.05-2.527 3.326-3.64 8.853-4.657 12.178-1.44 4.728-3.274 7.629-5.893 9.319-1.557 1.004-2.953 1.519-5.968 2.202-.762.227-1.71.439-2.041.514a27 27 0 0 0 5.073 8.508q.073.08.145.158a27 27 0 0 0 3.95 3.604c.172.129.338.262.512.386a28 28 0 0 0 1.93 1.241c.406.24.812.475 1.232.694.277.145.563.271.847.406a27 27 0 0 0 2.009.86c.391.149.783.299 1.184.43.361.118.73.221 1.099.324q.6.167 1.21.309c.488.112.974.228 1.472.313a27 27 0 0 0 4.195.393h.01c.148.003.292.01.441.01q.603-.001 1.2-.028c1.57-2.44 1.773-6.253 1.246-8.491-.32-1.266-1.151-3.541-1.096-3.63.055-.09 1.41.047 2.565.047 1.364 0 2.364.05 3.086-.169.61-.185 1.341-.486 1.774-.464 1.927.097 4.367-.778 5.01-2.491.2-.533.546-1.22.768-1.524.363-.501.375-.643.143-1.43-.33-1.112-1-2.036-2.421-3.333-1.076-.982-1.42-1.083-1.474-2.136-.04-.772.168-1.313-.251-1.708-.474-.448-1.873-.16-1.951-.168-.499-.58-.974-1.186-.056-2.023.694-.634.821-.872.821-1.566 0-.683-.124-.926-.726-1.454-.397-.348-.825-.631-.952-.631-.126 0-.766-.51-1.418-1.132-1.266-1.204-2.245-1.419-3.23-1.419-.798 0-1.688-.197-1.688-1.35 1.061-3.84 5.159-5.863 6.75-6.75-4.03-.57-6.776.273-9.45 2.7-.126-1.41 1.2-4.488 1.35-5.4z"/></svg>