<svg xmlns="http://www.w3.org/2000/svg" width="64" height="64" viewBox="0 0 16.933 16.933"><g transform="translate(0 -280.07)"><rect width="12.7" height="14.287" x="2.117" y="281.39" fill="#e9ebef" fill-rule="evenodd" stroke="#000" stroke-linecap="round" stroke-linejoin="bevel" stroke-width=".529" opacity=".25" paint-order="stroke fill markers" rx="2.117" ry="2.117"/><rect width="12.7" height="14.287" x="2.117" y="281.39" fill="#ebebed" fill-rule="evenodd" paint-order="stroke fill markers" rx="2.117" ry="2.117"/><path fill="#334d5c" stroke="#20323c" stroke-width=".529" d="M12.7 290.12a4.233 4.233 0 1 1-8.466 0 4.233 4.233 0 1 1 8.466 0z"/><path fill="#334d5c" d="M12.7 290.12a4.233 4.233 0 1 1-8.466 0 4.233 4.233 0 1 1 8.466 0"/><path fill="#20323c" d="M11.642 290.12a3.175 3.175 0 1 1-6.35 0 3.175 3.175 0 1 1 6.35 0"/><path fill="#efc84a" d="M11.377 290.12a2.91 2.91 0 1 1-5.82 0 2.91 2.91 0 1 1 5.82 0"/><path fill="#20323c" d="M10.054 290.12a1.587 1.587 0 1 1-3.175 0 1.587 1.587 0 1 1 3.175 0m-.265-6.35a1.322 1.322 0 1 1-2.645 0 1.322 1.322 0 1 1 2.645 0"/><path fill="#334d5c" d="M9.525 283.77a1.058 1.058 0 1 1-2.117 0 1.058 1.058 0 1 1 2.117 0"/><path fill="#efc84a" d="M8.996 283.771a.53.529 0 1 1-1.059 0 .53.529 0 1 1 1.059 0"/><path fill="#334d5c" d="M9.79 290.12a1.323 1.323 0 1 1-2.646 0 1.323 1.323 0 1 1 2.645 0z"/></g></svg>