<svg xmlns="http://www.w3.org/2000/svg" width="64" height="64" viewBox="0 0 16.933 16.933"><g transform="translate(0 -280.067)"><rect rx="2.117" ry="2.117" y="281.39" x="2.117" height="14.287" width="12.7" opacity=".25" fill="#e9ebef" fill-rule="evenodd" stroke="#000" stroke-width=".529" stroke-linecap="round" stroke-linejoin="bevel" paint-order="stroke fill markers"/><rect width="12.7" height="14.287" x="2.117" y="281.39" ry="2.117" rx="2.117" fill="#ebebed" fill-rule="evenodd" paint-order="stroke fill markers"/><path d="M12.7 290.12a4.233 4.23 0 1 1-8.467 0 4.233 4.23 0 1 1 8.467 0z" fill="#334d5c"/><path d="M11.642 290.12a3.175 3.174 0 1 1-6.35 0 3.175 3.174 0 1 1 6.35 0z" fill="#efc84a"/><path d="M10.054 290.12a1.587 1.586 0 1 1-3.175 0 1.587 1.586 0 1 1 3.175 0z" fill="#334d5c"/><path d="M9.26 290.12z" fill="#f0f0f0"/><path d="M9.789 283.77a1.322 1.322 0 1 1-2.645 0 1.322 1.322 0 1 1 2.645 0z" fill="#b4b4b4"/><path d="M9.525 283.77a1.058 1.058 0 1 1-2.117 0 1.058 1.058 0 1 1 2.117 0z" fill="#334d5c"/><path d="M8.996 283.771a.53.529 0 1 1-1.059 0 .53.529 0 1 1 1.059 0z" fill="#efc84a"/></g></svg>