<svg width="64" height="64" version="1.1" xmlns="http://www.w3.org/2000/svg">
 <path d="M32 5A27 27 0 0 0 5 32a27 27 0 0 0 27 27 27 27 0 0 0 27-27A27 27 0 0 0 32 5z" fill="#f0f0f0" stroke="#dbdbdb" stroke-width="2"/>
 <path d="M32 5A27 27 0 0 0 5 32a27 27 0 0 0 27 27 27 27 0 0 0 27-27A27 27 0 0 0 32 5z" fill="#f0f0f0"/>
 <g transform="rotate(45 32 32)" fill="#0066ff" stroke-width=".81818">
  <path d="m32 14a18 18 0 0 0-10.571 3.4519l4.0426 4.0426a12.375 12.375 0 0 1 6.5291-1.8695 12.375 12.375 0 0 1 12.373 12.375 12.375 12.375 0 0 1-1.8761 6.5209l4.0451 4.0459a18 18 0 0 0 3.4568-10.567 18 18 0 0 0-18-18z"/>
  <path d="m17.456 21.433a18 18 0 0 0-3.456 10.567 18 18 0 0 0 18 18 18 18 0 0 0 10.571-3.4519l-4.0434-4.0426a12.375 12.375 0 0 1-6.5274 1.8695 12.375 12.375 0 0 1-12.376-12.375 12.375 12.375 0 0 1 1.8769-6.5209z"/>
 </g>
</svg>
