<svg xmlns="http://www.w3.org/2000/svg" width="64" height="64"><path fill="#f0f0f0" stroke="#dbdbdb" stroke-width="2" d="M32 5A27 27 0 0 0 5 32a27 27 0 0 0 27 27 27 27 0 0 0 27-27A27 27 0 0 0 32 5z"/><path fill="#f0f0f0" d="M32 5A27 27 0 0 0 5 32a27 27 0 0 0 27 27 27 27 0 0 0 27-27A27 27 0 0 0 32 5"/><path fill="#06f" stroke-width=".818" d="M44.728 19.272a18 18 0 0 0-9.916-5.034v5.717a12.4 12.4 0 0 1 5.939 3.295 12.375 12.375 0 0 1-.001 17.5 12.4 12.4 0 0 1-5.938 3.284v5.721a18 18 0 0 0 9.916-5.028 18 18 0 0 0 0-25.455m-15.54-5.028a18 18 0 0 0-9.916 5.028 18 18 0 0 0 0 25.456 18 18 0 0 0 9.916 5.034v-5.718a12.4 12.4 0 0 1-5.938-3.293 12.375 12.375 0 0 1-.001-17.502 12.4 12.4 0 0 1 5.938-3.284z"/></svg>