<svg xmlns="http://www.w3.org/2000/svg" width="64" height="64"><circle cx="32" cy="32" r="27" fill="#b80000" stroke="#700000" stroke-width="2"/><circle cx="32" cy="32" r="27" fill="#b80000"/><path fill="#f9f9f9" d="M25.993 5.71a27 27 0 0 0-2.263.622l3.51 13.103c.26.973.41 1.507-.729 2.864-.193.23-.382.462-.532.722a4.695 4.695 0 0 0 5.28 6.883 4.696 4.696 0 0 0 1.133-8.602 5 5 0 0 0-.82-.358c-1.665-.606-1.804-1.143-2.064-2.116zm31.771 18.31-13.161 3.526c-.973.26-1.505.41-2.861-.729a5 5 0 0 0-.723-.534 4.695 4.695 0 1 0 1.717 6.415c.15-.26.258-.54.36-.823.606-1.665 1.142-1.8 2.115-2.062l13.144-3.524a27 27 0 0 0-.592-2.27zm-32.975 5.287a4.8 4.8 0 0 0-.94.154 4.68 4.68 0 0 0-2.85 2.187c-.15.26-.257.54-.36.823-.606 1.664-1.141 1.8-2.114 2.061L5.701 37.968a27 27 0 0 0 .617 2.266l12.814-3.435c.973-.26 1.504-.41 2.861.73.23.192.462.383.722.533a4.695 4.695 0 0 0 6.883-5.283 4.696 4.696 0 0 0-4.81-3.473zm8.626 4.98a4.695 4.695 0 0 0-2.07 8.756c.26.15.537.255.82.358 1.664.606 1.803 1.143 2.064 2.116l3.441 12.848a27 27 0 0 0 2.274-.587l-3.448-12.87c-.26-.973-.41-1.507.73-2.864.192-.23.38-.462.531-.722a4.698 4.698 0 0 0-4.343-7.037z" style="paint-order:normal"/></svg>