<?xml version="1.0" encoding="UTF-8" standalone="no"?>
<svg
   xmlns:dc="http://purl.org/dc/elements/1.1/"
   xmlns:cc="http://creativecommons.org/ns#"
   xmlns:rdf="http://www.w3.org/1999/02/22-rdf-syntax-ns#"
   xmlns:svg="http://www.w3.org/2000/svg"
   xmlns="http://www.w3.org/2000/svg"
   xmlns:sodipodi="http://sodipodi.sourceforge.net/DTD/sodipodi-0.dtd"
   xmlns:inkscape="http://www.inkscape.org/namespaces/inkscape"
   version="1.1"
   id="svg2"
   height="64"
   width="64"
   sodipodi:docname="scanner.svg"
   inkscape:version="0.92.4 (5da689c313, 2019-01-14)">
  <sodipodi:namedview
     pagecolor="#ffffff"
     bordercolor="#666666"
     borderopacity="1"
     objecttolerance="10"
     gridtolerance="10"
     guidetolerance="10"
     inkscape:pageopacity="0"
     inkscape:pageshadow="2"
     inkscape:window-width="1366"
     inkscape:window-height="711"
     id="namedview77"
     showgrid="true"
     inkscape:zoom="5.2149125"
     inkscape:cx="44.806709"
     inkscape:cy="32.215765"
     inkscape:window-x="0"
     inkscape:window-y="27"
     inkscape:window-maximized="1"
     inkscape:current-layer="svg2"
     inkscape:snap-bbox="true"
     inkscape:snap-bbox-edge-midpoints="true"
     inkscape:bbox-nodes="true">
    <inkscape:grid
       type="xygrid"
       id="grid877" />
  </sodipodi:namedview>
  <defs
     id="defs4" />
  <metadata
     id="metadata7">
    <rdf:RDF>
      <cc:Work
         rdf:about="">
        <dc:format>image/svg+xml</dc:format>
        <dc:type
           rdf:resource="http://purl.org/dc/dcmitype/StillImage" />
        <dc:title />
      </cc:Work>
    </rdf:RDF>
  </metadata>
  <rect
     style="fill:#e8e8e8;fill-opacity:1;stroke:none;stroke-width:0.99999994"
     id="rect4897"
     y="4.4999413"
     x="8.4999523"
     ry="2.796613"
     rx="2.7647114"
     height="55.000057"
     width="47.000095" />
  <rect
     width="47.000095"
     height="55.000004"
     rx="2.7647114"
     ry="2.796613"
     x="8.4999523"
     y="4.4999981"
     id="rect3993"
     style="opacity:0.2;fill:none;stroke:#000000;stroke-width:0.99999994;stroke-opacity:1" />
  <rect
     width="39"
     height="47"
     rx="0.90697676"
     ry="0.92156863"
     x="12.499999"
     y="8.5"
     id="rect5505-21-3-8-5-2"
     style="color:#000000;display:inline;overflow:visible;visibility:visible;opacity:0.9;fill:#363636;fill-opacity:1;fill-rule:nonzero;stroke:none;stroke-width:0.99999994;marker:none;enable-background:accumulate" />
  <path
     d="m 17,12.999947 c 6.874523,0 29.999963,0.0028 29.999963,0.0028 L 47,51.000046 c 0,0 -20,0 -30,0 0,-12.66642 0,-25.333027 0,-37.999726 z"
     id="path4160"
     style="display:inline;fill:#f9f9f9;fill-opacity:1;stroke:none;stroke-width:0.99999994"
     inkscape:connector-curvature="0" />
  <path
     d="m 16.497102,12.502793 c 7.105002,0 31.00576,0.0028 31.00576,0.0028 l 3.7e-5,38.9916 c 0,0 -20.670531,0 -31.005797,0 0,-12.998005 0,-25.99601 0,-38.994071 z"
     id="path4160-9"
     style="display:inline;opacity:0.3;fill:none;stroke:#000000;stroke-width:0.9999218;stroke-linecap:butt;stroke-linejoin:round;stroke-miterlimit:4;stroke-dasharray:none;stroke-dashoffset:0;stroke-opacity:1"
     inkscape:connector-curvature="0" />
  <path
     d="m 20,18.5 h 2.15993 z m 2.47672,0 h 2.015936 z m 2.332726,0 h 1.785542 z m 2.073533,0 h 0.777575 z m 1.094365,0 h 1.727945 z m 2.073534,0 h 4.550254 z m 4.838245,0 h 3.484688 z m 3.772679,0 h 1.065566 z M 20,20.5 h 3.369492 z m 3.74388,0 h 1.612748 z m 1.900739,0 h 0.806374 z m 1.123164,0 h 1.468753 z m 1.785543,0 h 1.497552 z m 1.785542,0 h 2.390324 z m 2.707114,0 h 3.1103 z m 3.398291,0 h 2.073534 z m 2.361524,0 h 0.518384 z M 20,22.5 h 2.851108 z m 3.139099,0 h 4.665451 z m 4.953441,0 h 2.275128 z m 2.563118,0 h 2.131132 z m 2.419123,0 h 1.814342 z m 2.102333,0 2.851108,0.0289 z m 3.1103,0.0289 h 4.636651 z M 20,24.5 h 3.945473 z m 4.262263,0 h 4.262264 z m 4.550254,0 h 1.699146 z m 1.987137,0 h 4.003072 z m 4.262263,0 h 2.735913 z m 3.052702,0 h 1.094365 z m 1.382356,0 h 0.604781 z m 0.921571,0 h 1.699145 z M 20,26.5 h 1.468752 z m 1.929538,0 h 5.443025 z m -1.905568,3 h 2.851108 z m 3.139099,0 h 4.665451 z m 4.953441,0 h 2.275128 z m 2.563118,0 h 2.131132 z m 2.419123,0 h 1.814342 z m 2.102333,0 2.851108,0.0289 z m 3.1103,0.0289 h 4.636651 z M 20,31.5 h 2.15993 z m 2.47672,0 h 1.987137 z m 2.332726,0 h 1.785542 z m 2.073533,0 h 0.777575 z m 1.094365,0 h 1.727945 z m 2.073534,0 h 4.521455 z m 4.838245,0 h 3.455889 z m 3.74388,0 h 1.094365 z m 1.382356,0 h 2.591917 z M 20,33.5 h 3.628683 z m 3.916674,0 h 3.887876 z m 4.175866,0 h 1.497552 z m 1.785543,0 h 3.657483 z m 3.945474,0 h 4.607852 z m 4.924642,0 h 1.699146 z M 20,35.5 h 3.945473 z m 4.262263,0 h 4.262264 z m 4.550254,0 h 1.699146 z m 1.987137,0 h 4.003072 z m 4.262263,0 h 2.735913 z m 3.052702,0 h 1.094365 z m 1.382356,0 h 0.604781 z m 0.921571,0 h 1.699145 z M 20,37.5 h 3.369492 z m 3.74388,0 h 1.612748 z m 1.900739,0 h 0.806374 z m 1.123164,0 h 1.468753 z m 1.785543,0 h 1.497552 z m 1.785542,0 h 2.390324 z m 2.707114,0 h 3.1103 z m 3.398291,0 h 2.073534 z m 2.361524,0 h 0.518384 z M 20,40.5 h 2.851108 z m 3.139099,0 h 4.665451 z m 4.953441,0 h 2.275128 z m 2.563118,0 h 2.131132 z m 2.419123,0 h 1.814342 z m 2.102333,0 2.851108,0.0289 z m 3.1103,0.0289 h 4.636651 z M 20,42.5 h 3.369492 z m 3.74388,0 h 1.612748 z m 1.900739,0 h 0.806374 z m 1.123164,0 h 1.468753 z m 1.785543,0 h 1.497552 z m 1.785542,0 h 2.390324 z m 2.707114,0 h 3.1103 z m 3.398291,0 h 2.073534 z m 2.361524,0 h 0.518384 z M 20,44.5 h 3.571085 z m 3.887875,0 h 1.123164 z m 1.411155,0 h 2.563118 z m 2.851109,0 h 3.772679 z m 4.089469,0 h 2.563118 z m 2.822309,0 H 35.6091 Z m 0.835173,0 h 3.254296 z m 3.599885,0 h 1.699146 z M 20,46.5 h 3.571085 z m 3.887875,0 h 1.612748 z m 1.900739,0 h 2.534319 z m 2.82231,0 h 2.735912 z m 3.052702,0 h 1.094365 z m 1.382356,0 h 0.60478 z m 0.92157,0 h 1.699146 z"
     id="path3475"
     style="fill:none;stroke:#aaaaaa;stroke-width:1;stroke-linecap:butt;stroke-linejoin:miter;stroke-miterlimit:4;stroke-dasharray:none;stroke-opacity:1"
     inkscape:connector-curvature="0"
     sodipodi:nodetypes="cccccccccccccccccccccccccccccccccccccccccccccccccccccccccccccccccccccccccccccccccccccccccccccccccccccccccccccccccccccccccccccccccccccccccccccccccccccccccccccccccccccccccccccccccccccccccccccccccccccccccccccccccccccccccccccccccccccccccccccccccccccccccccccccccccccccccccccccccccccccccccccccccccccccccccccccccccccccc" />
  <rect
     style="opacity:1;fill:#d35f5f;fill-opacity:1;stroke:none;stroke-width:0.99999982"
     id="rect3099"
     width="38"
     height="2"
     x="13"
     y="38" />
  <rect
     style="opacity:0.35;fill:none;stroke:#000000;stroke-width:0.99999994;stroke-opacity:1"
     id="rect4935"
     y="8.5028772"
     x="12.497139"
     ry="0.92145586"
     rx="0.90710974"
     height="46.994247"
     width="39.005722" />
</svg>
