<svg xmlns="http://www.w3.org/2000/svg" xmlns:xlink="http://www.w3.org/1999/xlink" width="64" height="64" viewBox="0 0 16.933 16.933"><defs><linearGradient id="a"><stop offset="0" stop-color="#66bcff"/><stop offset="1" stop-color="#b29aff"/></linearGradient><linearGradient xlink:href="#a" id="b" gradientUnits="userSpaceOnUse" x1="13.229" y1="297" x2="2.117" y2="280.067"/><clipPath clipPathUnits="userSpaceOnUse" id="c"><rect ry=".265" y="282.448" x="1.058" height="12.171" width="14.817" fill="url(#b)" stroke-width=".535" stroke-opacity=".039" paint-order="stroke markers fill"/></clipPath></defs><g paint-order="stroke markers fill" transform="translate(0 -280.067)"><path d="M.794 282.448H16.14c.146 0 .264.118.264.264v11.642a.264.264 0 0 1-.264.265H.794a.264.264 0 0 1-.265-.265v-11.642c0-.146.118-.264.265-.264z" fill="#8daaff" stroke="#5873d4" stroke-width=".529"/><path d="M.794 282.448H16.14c.146 0 .264.118.264.264v11.642a.264.264 0 0 1-.264.265H.794a.264.264 0 0 1-.265-.265v-11.642c0-.146.118-.264.265-.264z" fill="#8daaff"/><rect ry=".265" y="282.712" x="1.587" height=".529" width="1.058" opacity=".35"/><rect width="2.646" height=".529" x="7.144" y="282.712" ry=".265" opacity=".35"/><rect ry=".265" y="282.712" x="15.081" height=".529" width=".529" opacity=".35"/><rect width=".794" height=".529" x="14.023" y="282.712" ry=".265" opacity=".35"/><rect ry=".265" y="282.712" x="13.229" height=".529" width=".529" opacity=".35"/><rect clip-path="url(#c)" ry=".529" y="293.56" x="3.44" height="2.646" width="10.054" opacity=".35" fill="#fff"/><rect ry=".132" y="292.767" x="4.498" height="1.323" width="1.323" fill="#ccdfff"/><rect width="1.323" height="1.323" x="6.703" y="292.767" ry=".132" fill="#ccdfff"/><rect ry=".132" y="292.767" x="8.908" height="1.323" width="1.323" fill="#ccdfff"/><rect width="1.323" height="1.323" x="11.113" y="292.767" ry=".132" fill="#ccdfff"/><path d="M.794 282.448a.264.264 0 0 0-.265.265v.793h15.875v-.793a.264.264 0 0 0-.264-.265z" opacity=".35"/></g><path d="M12.17 6.88l-1.587 1.058c-.05.342-.118.681 0 1.058l1.588 1.058z" fill="#f9f9f9"/><path d="M5.556 6.35a.264.264 0 0 0-.264.265v3.704c0 .146.118.264.264.264h4.763a.264.264 0 0 0 .264-.264V6.615a.264.264 0 0 0-.264-.265H5.556zm2.381.794A1.323 1.323 0 0 1 9.26 8.467 1.323 1.323 0 0 1 7.937 9.79a1.323 1.323 0 0 1-1.322-1.323 1.323 1.323 0 0 1 1.322-1.323z" fill="#f9f9f9"/></svg>