<svg xmlns="http://www.w3.org/2000/svg" width="64" height="64" viewBox="0 0 16.933 16.933"><rect width="13.758" height="13.758" x="1.588" y="1.587" fill="none" stroke="#2454d8" stroke-linecap="round" stroke-linejoin="round" stroke-width=".529" opacity=".75" rx=".794" ry=".794" style="paint-order:markers stroke fill"/><g stroke-width="3.78" transform="scale(.26458)"><rect width="52" height="52" x="6.002" y="5.998" fill="#90a9ff" rx="3.001" ry="3.001" style="paint-order:markers stroke fill"/><rect width="38" height="5" x="13.002" y="50.001" fill="#fff" opacity=".35" ry="1.002" style="paint-order:markers stroke fill"/><g fill="#ccdfff"><rect width="5" height="5" x="17.001" y="47" ry=".499" style="paint-order:stroke markers fill"/><rect width="5" height="5" x="25.335" y="47" ry=".499" style="paint-order:stroke markers fill"/><rect width="5" height="5" x="33.669" y="47" ry=".499" style="paint-order:stroke markers fill"/><rect width="5" height="5" x="42.003" y="47" ry=".499" style="paint-order:stroke markers fill"/></g><path d="M9 5.998A2.993 2.993 0 0 0 6.001 9v.998h52V9A2.993 2.993 0 0 0 55 6z" opacity=".35" style="paint-order:markers stroke fill"/><rect width="10.001" height="1.999" x="26.911" y="7" opacity=".35" ry="1.002" style="paint-order:stroke markers fill"/></g><path fill="#f9f9f9" d="m12.17 6.88-1.587 1.058c-.05.342-.118.681 0 1.058l1.588 1.058z"/><path fill="#f9f9f9" d="M5.556 6.35a.264.264 0 0 0-.264.265v3.704c0 .146.118.264.264.264h4.763a.264.264 0 0 0 .264-.264V6.615a.264.264 0 0 0-.264-.265zm2.381.794A1.323 1.323 0 0 1 9.26 8.467 1.323 1.323 0 0 1 7.937 9.79a1.323 1.323 0 0 1-1.322-1.323 1.323 1.323 0 0 1 1.322-1.323"/></svg>