<svg xmlns="http://www.w3.org/2000/svg" width="64" height="64" viewBox="0 0 16.933 16.933"><path fill="#fff" fill-opacity=".976" stroke="#000" stroke-opacity=".268" stroke-width=".529" d="M3.175 282.45c-.293 0-.265.264-.265.53H1.852c-.265 0-.265 0-.265.264v5.556c0 .293.237.53.53.53h12.7a.53.53 0 0 0 .529-.53v-5.556c0-.265 0-.265-.265-.265H7.673c0-.265.028-.53-.265-.53z" style="paint-order:markers stroke fill" transform="translate(0 -280.07)"/><path fill="#fff" fill-opacity=".976" d="M3.175 282.45c-.293 0-.265.264-.265.53H1.852c-.265 0-.265 0-.265.264v5.556c0 .293.237.53.53.53h12.7a.53.53 0 0 0 .529-.53v-5.556c0-.265 0-.265-.265-.265H7.673c0-.265.028-.53-.265-.53z" style="paint-order:markers stroke fill" transform="translate(0 -280.07)"/><path fill="none" stroke="#003779" stroke-opacity=".561" stroke-width=".529" d="M8.467 284.3c-.293 0-.382.276-.53.53l-.308.528H.794c-.265 0-.265.265-.265.265v8.996c0 .264.265.264.265.264H16.14c.264 0 .264-.264.264-.264v-10.054c0-.265-.264-.265-.264-.265z" style="paint-order:markers stroke fill" transform="translate(0 -280.07)"/><path fill="#6ba4e7" d="M8.467 284.3c-.293 0-.382.276-.53.53l-.308.528H.794c-.265 0-.265.265-.265.265v8.996c0 .264.265.264.265.264H16.14c.264 0 .264-.264.264-.264v-10.054c0-.265-.264-.265-.264-.265z" style="paint-order:markers stroke fill" transform="translate(0 -280.07)"/><path d="M6.35 6.35v1.058a4.233 4.233 0 0 1 4.233 4.233h1.058A5.29 5.29 0 0 0 6.35 6.35m0 2.117v1.058c1.169 0 2.117.948 2.117 2.116h1.058A3.175 3.175 0 0 0 6.35 8.467m0 2.116a1.058 1.058 0 1 0 0 2.117 1.058 1.058 0 0 0 0-2.117" opacity=".15"/><ellipse cx="13.094" cy="13.229" fill="#4d4d4d" stroke="#383838" stroke-width=".539" rx="3.569" ry="3.435" style="paint-order:stroke fill markers"/><circle cx="13.229" cy="13.229" r="3.439" fill="#4d4d4d" style="paint-order:stroke fill markers"/><path fill="#fff" d="M13.229 11.245a1.323 1.323 0 0 0-1.323 1.323h-.22a.31.31 0 0 0-.31.309v2.028a.31.31 0 0 0 .31.309h3.087a.31.31 0 0 0 .308-.309v-2.028a.31.31 0 0 0-.308-.31h-.221a1.323 1.323 0 0 0-1.323-1.322m0 .265a.926.926 0 0 1 .926.926 1 1 0 0 1-.01.132h-1.832a1 1 0 0 1-.01-.132.926.926 0 0 1 .926-.926m-.013 1.587h.013a.53.53 0 0 1 .53.53.53.53 0 0 1-.265.457v.601h-.53v-.6a.53.53 0 0 1-.264-.459.53.53 0 0 1 .516-.529"/></svg>