<svg width="64" height="64" version="1.1" xmlns="http://www.w3.org/2000/svg">
 <circle cx="32" cy="32" r="27" fill="#3f3f3f" stroke="#212121" stroke-width="2"/>
 <circle cx="32" cy="32" r="27" fill="#3f3f3f" stroke-width=".96429"/>
 <path d="m32.844 15c-2.3517-6.7e-4 -4.7017 0.0029-7.0547 0.01367-0.7381 0.0054-1.4866 0.07609-2.209 0.23633-0.87421 0.19228-1.7129 0.51695-2.4824 1.0137-0.63864 0.41126-1.237 0.86548-1.75 1.4316-0.77998 0.85458-1.3808 1.8168-1.7891 2.9277-0.26697 0.72639-0.41162 1.4729-0.50586 2.2207-0.15704 1.2124 0.05552 2.0422 0.40625 3.2012 0.23033 0.76378 0.57137 1.4833 1.0059 2.1562 0.65435 1.0148 1.4325 1.9027 2.4219 2.5703 0.52872 0.35785 1.0812 0.67172 1.6309 0.99219 0.44496 0.26172 0.89489 0.50287 1.3398 0.75391l1.1777 0.6582c0.7224 0.40593 1.4502 0.80657 2.1621 1.2285 0.21463 0.12819 0.52258 0.16921 0.56445 0.56445-0.1204 0.0054-0.22475 0.01607-0.32422 0.02148-1.1517 0-2.3028-0.02088-3.4492 0.0059-0.91085 0.02136-1.8224 0.06857-2.6914 0.45312-0.6177 0.2724-1.2089 0.58196-1.7324 1.0039-0.96843 0.7798-1.6762 1.7761-2.1055 2.9512-0.28268 0.77446-0.45914 1.5833-0.42773 2.4219 0.01571 0.43797 0.08359 1.2451 0.16211 1.6777 0.06805 0.36854 0.14186 0.74801 0.2832 1.0898 0.33503 0.82253 0.78534 1.5813 1.3926 2.2383 0.91608 0.98277 2.03 1.6389 3.3125 1.9434 0.63864 0.15488 1.315 0.20898 1.9746 0.20898 4.6956 0.01601 9.3903 0.02184 14.086 0.0059 1.293-0.0054 2.5493-0.22525 3.748-0.77539 0.81662-0.37388 1.5539-0.86038 2.2188-1.4746 0.69099-0.64093 1.2771-1.3704 1.7168-2.209 0.26174-0.50206 0.47764-1.0392 0.65039-1.584 0.15181-0.46468 0.23014-0.96122 0.29297-1.4473 0.06282-0.48604 0.12905-1.1878 0.09766-1.6738-0.06282-0.93469-0.22365-1.2852-0.54297-2.1719-0.30362-0.83322-0.69535-1.6139-1.2031-2.3242-0.68052-0.95606-1.4936-1.7724-2.5039-2.3652-0.79045-0.46468-1.5754-0.94054-2.3711-1.3945-0.57059-0.33115-1.1625-0.63461-1.7383-0.95508-0.71193-0.40058-1.43-0.80605-2.1367-1.2227-0.09423-0.05341-0.13313-0.18901-0.20117-0.28516 0.08899-0.0374 0.17663-0.09961 0.26562-0.09961 0.90038-0.0054 1.8047 0.0067 2.7051-0.0039 0.98937-0.01063 1.992 0.07661 2.9395-0.28125 0.57582-0.21899 1.1451-0.45922 1.6738-0.76367 0.72764-0.42195 1.3454-0.99575 1.8008-1.7168 0.33503-0.53411 0.65436-1.0858 0.90039-1.668 0.17798-0.42195 0.21039-0.90343 0.32031-1.3574 0.29315-1.1911 0.03058-2.701-0.35156-3.8066-0.2827-0.82279-0.76527-1.5515-1.3516-2.2031-0.90562-1.0042-2.0248-1.6435-3.2969-1.9747-0.63864-0.16556-1.3131-0.21875-1.9727-0.21875-2.353-0.008075-4.7069-0.012964-7.0586-0.013672zm0 3c2.3482 7.07e-4 4.6985 0.0056 7.0488 0.01367 0.0033 5e-6 0.0065 5e-6 0.0098 0 0.49831 0 0.92762 0.04707 1.2207 0.12305 0.77366 0.20213 1.3149 0.51967 1.8203 1.0801 0.38758 0.43158 0.62387 0.82365 0.74219 1.168 6.49e-4 2e-3 0.0013 0.0039 2e-3 0.0059 0.24535 0.70984 0.32862 1.8931 0.27539 2.1094-0.0013 0.0033-0.0026 0.0065-0.0039 0.0098-0.19236 0.79444-0.25693 1.1093-0.16797 0.89844-0.14736 0.34835-0.37992 0.7633-0.67383 1.2324-0.18511 0.29307-0.42552 0.52317-0.76953 0.72266-0.31095 0.17819-0.727 0.36178-1.2285 0.55274h-2e-3c-0.14308 0.05364-0.7239 0.07515-1.9102 0.08789h-2e-3c-0.38108 0.0045-0.805 0.0027-1.2051 2e-3v-0.005979h-6.8306c-1.1694 0-1.1694 0.94548-1.1694 0.94548v5.5645s-1.9807-1.1014-3.4961-1.9495c-2e-3 -0.0013-0.0039-0.0026-0.0059-0.0039l-1.166-0.65234-0.01172-0.0059c-0.47748-0.26919-0.90722-0.5007-1.2812-0.7207-0.0033-2e-3 -0.0065-0.0039-0.0098-0.0059-0.56902-0.33176-1.0613-0.61428-1.4609-0.88477l-0.0039-2e-3c-0.57172-0.3858-1.0789-0.93479-1.5781-1.709l-2e-3 -2e-3c-0.29386-0.455-0.508-0.91587-0.65234-1.3945l-2e-3 -0.0039c-0.33303-1.1005-0.39307-1.2498-0.30273-1.9473 6.56e-4 -0.0033 0.0013-0.0065 2e-3 -0.0098 0.07759-0.61566 0.18729-1.1295 0.3457-1.5605 0.2731-0.74306 0.64827-1.3485 1.1895-1.9414 2e-3 -0.0026 0.0039-0.0052 0.0059-0.0078 0.26973-0.29767 0.64194-0.59514 1.1523-0.92383l2e-3 -2e-3c0.43547-0.2811 0.92459-0.47696 1.5-0.60352h0.0059c0.47447-0.10524 1.0138-0.16143 1.5723-0.16602 2.3469-0.010509 4.6929-0.014111 7.041-0.013441zm0.15625 12.9s1.1914 0.63456 1.9922 1.102c0.72374 0.42592 1.4446 0.83272 2.1445 1.2266 0.0039 0.0026 0.0078 0.0052 0.01172 0.0078 0.63593 0.35392 1.2116 0.64928 1.6914 0.92773 0.0065 0.0039 0.01301 0.0078 0.01953 0.01172 0.7496 0.4277 1.5241 0.89659 2.3379 1.375l2e-3 2e-3c0.57954 0.34008 1.0844 0.82202 1.5781 1.5156 6.49e-4 2e-3 0.0013 0.0039 2e-3 0.0059 0.32713 0.45765 0.59862 0.987 0.82422 1.6055l2e-3 2e-3c0.3331 0.92148 0.32456 0.70962 0.36719 1.3438v2e-3c0.0014 0.03852-0.02839 0.70306-0.07813 1.0879-0.05548 0.42922-0.11942 0.7458-0.16992 0.90039-0.0026 0.0085-0.0052 0.01692-0.0078 0.02539-0.1266 0.39924-0.28257 0.7779-0.45117 1.1016v2e-3c-0.2626 0.49901-0.62057 0.95396-1.0977 1.3965-0.43128 0.39714-0.88572 0.69777-1.4259 0.9451l-0.0039 2e-3c-0.75144 0.34485-1.5458 0.49772-2.5059 0.50195-4.6863 0.01599-9.3751 0.01022-14.066-0.0059-0.0033-5e-6 -0.0065-5e-6 -0.0098 0-0.49553 0-0.94492-0.04675-1.2676-0.125-0.0046-6.61e-4 -0.0091-0.0013-0.01367-2e-3 -0.71837-0.17053-1.2646-0.48797-1.8066-1.0684-0.32545-0.35337-0.58961-0.77894-0.8125-1.3262-0.0026-0.0052-0.0052-0.01042-0.0078-0.01563 0.01695 0.041-0.04059-0.14286-0.10352-0.47852v-2e-3c-1e-3 -0.0055-8.2e-4 -0.0022-2e-3 -0.0078-0.0168-0.09882-0.10401-0.98181-0.11328-1.2402v-4e-3c-0.01298-0.34645 0.05817-0.76104 0.24805-1.2812 0.2521-0.69009 0.61563-1.1978 1.168-1.6426l2e-3 -2e-3c0.22235-0.17922 0.56396-0.37476 1.0605-0.59375l0.0039-2e-3c0.24205-0.10712 0.6927-0.17723 1.5469-0.19726 0.30474-0.0071 0.62621-0.0045 0.94141-0.0059v0.010073h7.0438c2.1e-5 0 0.95622-0.024077 0.95622-1v-2z" fill="#00f782"/>
</svg>
