<svg width="64" height="64" version="1.1" viewBox="0 0 64 64" xmlns="http://www.w3.org/2000/svg">
 <circle cx="32" cy="32" r="27" fill="#15f68b" stroke="#1eb870" stroke-width="2"/>
 <circle cx="32" cy="32" r="27" fill="#15f68b" stroke-width="1.1739"/>
 <path d="m25.231 16c-2.5055 0-4.5643 1.1067-5.9231 2.6466-1.3588 1.5399-2.0769 3.4866-2.0769 5.3534 0 3.4052 1.4708 6.4192 4.3726 7.8702l5.1826 2.5914h-2.7861c-3.7333 0-6.7692 3.0359-6.7692 6.7692 0 3.7333 2.8718 6.7692 6.1538 6.7692h15.385c2.5055 0 4.5643-1.1067 5.9231-2.6466 1.3588-1.5399 2.0769-3.4866 2.0769-5.3534 0-3.4052-1.4708-6.4192-4.3726-7.8702l-5.1826-2.5914h2.7861c3.7333 0 6.7692-3.0359 6.7692-6.7692 0-1.7803-0.74494-3.4266-1.8534-4.661-1.1084-1.2345-2.622-2.1082-4.3004-2.1082zm0 2.4615h15.385c0.78311 0 1.7311 0.46926 2.4688 1.2908 0.73772 0.82161 1.2236 1.9446 1.2236 3.0169 0 2.4206-1.8871 4.3077-4.3077 4.3077h-8c-0.6797 0-1.2308 0.55106-1.2308 1.2308v5.3942l-8.0649-4.0336c-2.0212-1.0106-3.0121-2.9195-3.0121-5.6683 0-1.2103 0.51259-2.6481 1.4615-3.7236 0.94895-1.0755 2.2747-1.8149 4.0769-1.8149zm8 11.837 8.0649 4.0336c2.0212 1.0106 3.0121 2.9195 3.0121 5.6683 0 1.2103-0.51259 2.6481-1.4615 3.7236-0.94895 1.0755-2.2747 1.8149-4.0769 1.8149h-15.385c-1.641 0-3.6923-1.8871-3.6923-4.3077s1.8871-4.3077 4.3077-4.3077h8c0.6797 0 1.2308-0.55106 1.2308-1.2308z" fill="#494647" stroke-width="1.2308"/>
</svg>
