<svg width="64" height="64" version="1.1" xmlns="http://www.w3.org/2000/svg">
 <rect x="9" y="53" width="46" height="7" rx="2" ry="2" fill="#47515a" stop-color="#000000" stroke="#32383e" stroke-linecap="round" stroke-linejoin="round" stroke-width="2" style="paint-order:stroke fill markers"/>
 <rect x="9" y="53" width="46" height="7" rx="2" ry="2" fill="#47515a" stop-color="#000000" style="paint-order:stroke fill markers"/>
 <rect x="9" y="51" width="46" height="7" rx="2" ry="2" fill="#dbe1e3" stop-color="#000000" stroke="#a2aeaf" stroke-linecap="round" stroke-linejoin="round" stroke-width="2" style="paint-order:stroke fill markers"/>
 <rect x="9" y="51" width="46" height="7" rx="2" ry="2" fill="#dbe1e3" stop-color="#000000" style="paint-order:stroke fill markers"/>
 <path d="m26 46.909h12v5.6724s-1.5 1.4184-6 1.4184c-4.5 0-6-1.4184-6-1.4184z" fill="#47515a" stroke="#000000" stroke-opacity=".25"/>
 <g transform="matrix(1.0284 0 0 1.0283 -.90884 -.70426)">
  <rect x="9.6304" y="3.6022" width="44.728" height="44.728" rx="22.363" fill="#54aff7" stroke="#328fd8" stroke-width="1.9448"/>
  <rect x="9.6304" y="3.6022" width="44.728" height="44.728" rx="22.363" fill="#54aff7" stroke-width="1.2105"/>
  <path d="m31.685 3.6182a22.516 22.516 0 0 0-4.9696 0.63097c-0.42013 0.37699-1.0415 0.56868-1.738 0.54951-0.2492 0.23801-0.19169 0.68369-0.32747 1.0112-0.11501 0.27475-0.51756 0.56868-0.79231 0.54631-0.20287-0.017572-0.43609-0.3035-0.43609-0.4936 0-0.22843 0.31788-0.35622 0.14376-0.61181a22.256 22.256 0 0 0-4.952 2.805c0.40574-0.15015 0.85462-0.40095 1.2236-0.40894 0.06071 0 0.11661 0.00479 0.17093 0.019169 0.2476 0.065494 0.89935 0.77953 0.35622 1.0112-0.05112 0.022363-0.79711 0.10383-0.9265 0.081468-0.19009-0.031948-0.3019-0.29393-0.4936-0.32747-0.32108-0.055909-0.72842 0.27795-1.0048 0.1278a22.293 22.293 0 0 0-6.8289 9.4407c0.12939-0.07508 0.26357-0.15335 0.38018-0.21566 0.39935-0.20767 0.73641-0.54311 1.2013-0.57347 0.23162-0.0048 0.56708 0.06231 0.78912 0.10862 0.20607 0.04153 0.3706 0.18051 0.54951 0.19328 0.50478 0.03834 0.62458-0.35462 1.0351-0.57348 0.42491 0.06071 0.70765-0.07188 1.0926-0.02875 0.26198 0.02875 0.45047 0.3083 0.65494 0.32428 0.17093 0.01758 0.32428-0.15974 0.49041-0.13419 0.16134 0.02555 0.43929 0.37699 0.46484 0.57348 0.03354 0.246-0.17892 0.46644-0.10862 0.73641 0.25719 0.26197 0.72523 0.31469 1.0926 0.46484 0.23961-0.19648 0.03195-0.56389 0-0.84823-0.0048-0.1262 0.01756-0.23642 0-0.35303-0.02237-0.19648-0.10862-0.37698-0.10862-0.54631-0.0048-0.77634 0.62618-1.1405 1.1485-1.4473 0.22523-0.13419 0.40255-0.36741 0.59903-0.46484 0.27635-0.13898 0.48242-0.17093 0.71084-0.30031 0.41373-0.23162 0.76836-0.42011 1.0926-0.68369 0.15015-0.35302 0.01598-0.82426 0.02875-1.1725 0.15015-0.09105 0.27795 0.04153 0.43609 0.02875 0.2492-0.05271 0.26996-0.40574 0.41214-0.54631 0.08307-0.08147 0.3067-0.13898 0.40894-0.21885 0.2492-0.19488 0.32907-0.49041 0.54631-0.57348 0.07827-0.03195 0.25719-0.02236 0.38018-0.05591 0.16134-0.04313 0.39136-0.23482 0.65494-0.32428 0.17093-0.0591 0.56549-0.07188 0.63098-0.13738 0.07987-0.08147 0-0.31309 0.02875-0.43609 0.13258-0.61659 1.0607-0.74758 1.6134-0.95525 0.38497-0.14536 0.77794-0.41214 1.2013-0.33067-0.08307 0.29233-0.47603 0.19009-0.40894 0.54631 0.09265 0.4936 0.75238-0.14216 0.9265-0.21566 0.33386-0.14057 0.90413-0.22523 1.3419-0.38337 0.38337-0.14057 1.0703-0.35462 0.70765-0.79231-0.30191-0.017572-0.44568 0.35303-0.70765 0.46484-0.1821 0.028758-0.14856-0.15015-0.3019-0.16613-0.14696-0.017572-0.23002 0.13419-0.38018 0.10862-0.15015-0.025559-0.36102-0.26037-0.38337-0.43609-0.05911-0.45527 0.38497-0.64216 0.57348-0.9824-0.1246-0.41214-0.69488-0.084663-1.0383-0.246 0.03354-0.246 0.28754-0.41533 0.57348-0.46165 0.23482-0.039935 0.76197-0.019169 0.90093 0.10543 0.08147 0.068689 0.0064 0.24121 0.13738 0.35622 0.13897 0.1262 0.3099 0.11342 0.49041 0.084663 0.06549-0.31149-0.40415-0.23482-0.35303-0.43929 0.369-0.24121 0.96803-0.041533 1.4201-0.10862 0.26037-0.038337 0.53354-0.22363 0.76516-0.35303 0.21884-0.1246 0.50318-0.34184 0.73641-0.13738 0.06389 0.22363-0.20287 0.29712-0.32747 0.40894a8.7618 8.7618 0 0 0-1.1725 1.23c0.19968 0.19488 0.56069 0.097443 0.89935 0.13738 0.13099 0.017572 0.29712 0.055909 0.43609 0.081468 0.16294 0.028754 0.33706 0.020767 0.46484 0.052715 0.23002 0.055909 0.29073 0.30191 0.51756 0.30191 0.3738 0 0.37698-0.40574 0.16613-0.65814 0.06709-0.25719 0.17093-0.38977 0.08147-0.57028-0.16773-0.33706-0.78592-0.017573-0.81788-0.43609-0.02076-0.27156 0.22843-0.26197 0.32747-0.46484-0.04473-0.52555 0.4313-0.56389 0.38018-1.0351-0.022359-0.19648-0.19009-0.19968-0.32747-0.38337-0.071881-0.094247-0.10383-0.28274-0.19009-0.35622-0.28594-0.24121-0.86579-0.19488-0.90093-0.65494-0.0048-0.15655 0.01756-0.29553 0.03195-0.44248-0.26357-0.01278-0.52395-0.036741-0.78912-0.039935zm-10.639 5.3577c0.1278 0.017572 0.28274 0.15335 0.43609 0.16613 0.14536 0.00479 0.26676-0.079871 0.35622-0.055909 0.22843 0.060702 0.32428 0.40574 0.10862 0.57347-0.17892 0.022363-0.2492-0.076676-0.38337-0.052715-0.3706 0.063896-0.51277 0.78912-0.78912 0.76516-0.26197-0.02236-0.40255-0.65972-0.13737-0.84823 0.01757-0.16613-0.1214-0.19169-0.11182-0.35622 0.07827-0.10064 0.3035-0.20926 0.52076-0.19009m-1.23 0.084663c0.07668 0.0032 0.13259 0.020767 0.16294 0.052715-0.03674 0.29073-0.26517 0.27316-0.49041 0.40894-0.38817 0.23482-0.61341 0.59104-0.73641 1.0926-0.03514 0.14536-0.41693 0.53194-0.60222 0.4936-0.4329-0.09105 0.11981-0.88976 0.21885-1.0112 0.10862-0.13419 0.25559-0.25399 0.38337-0.40894 0.1246-0.15015 0.20767-0.35303 0.32747-0.43609a1.5974 1.5974 0 0 1 0.73641-0.19009m3.2316 0.9824c0.13897 0.0032 0.26197 0.02556 0.31788 0.08147-0.08946 0.36102-0.86419 0.26517-1.1485 0.13419 0.01916-0.13578 0.23002-0.17252 0.40894-0.19009 0.1262-0.0048 0.28274-0.02875 0.42171-0.02556m-1.7683 0.66452a0.99998 0.99998 0 0 1 0.28434 0.04313c-0.2508 0.21086-0.52395 0.32907-0.95525 0.46484-0.20766 0.0655-0.56708 0.14696-0.60222-0.08466-0.04313-0.28434 0.3035-0.21725 0.4936-0.24281 0.23801-0.03355 0.5-0.17252 0.77953-0.1805m27.428 0.40574c0.02076 0.20447 0.02396 0.39935-0.03195 0.62139-0.07508 0.29553-0.34025 0.56389-0.32747 0.82106 0.01758 0.13099 0.16134 0.25879 0.19328 0.43609 0.01758 0.09425-0.04473 0.29712 0 0.38337 0.13898 0.26836 0.51756 0.04153 0.76516 0.08147 0.24121 0.03834 0.52076 0.38497 0.51756 0.65494-0.0031 0.18849-0.18051 0.50158-0.30031 0.68369-0.23801 0.36261-0.56069 0.37859-0.90093 0.57028-0.28434 0.16134-0.40734 0.4313-0.57348 0.71084-0.18051 0.3035-0.29233 0.48721-0.21885 0.9265-0.2444 0.48402-0.61501 0.78113-1.1198 1.0112-0.15015 0.06709-0.35303 0.09106-0.49041 0.19009-0.10862 0.07827-0.17252 0.29073-0.32747 0.46484-0.19169 0.21246-0.39296 0.3019-0.4936 0.46484-0.07827 0.1262-0.10383 0.37699-0.19009 0.54631-0.11661 0.23002-0.36421 0.34185-0.51756 0.57348-0.07028 0.10702-0.11661 0.32428-0.19328 0.46484-0.17252 0.31469-0.46804 0.54152-0.43609 0.81788 0.03195 0.26676 0.33546 0.31309 0.35622 0.54631 0.0048 0.13099-0.08626 0.21246-0.08147 0.35622 0.0048 0.20926 0.14536 0.35622 0.16294 0.51756 0.04153 0.40574-0.13897 0.56868-0.21566 0.84503-0.03674 0.13259-0.02076 0.27955-0.05591 0.38337-0.06709 0.20287-0.34983 0.38657-0.35622 0.62778-0.0031 0.17093 0.17572 0.3067 0.19009 0.54631 0.0048 0.16454-0.08147 0.34185-0.05272 0.4936 0.05751 0.29711 0.58944 0.64216 0.82108 0.87378 0.3083 0.3083 0.71244 0.54791 0.84503 0.87378 0.11182 0.27635 0.11182 0.63737 0.32747 0.84503 0.15974 0.15335 0.42331 0.2492 0.62778 0.40894 0.19009 0.14856 0.39935 0.27795 0.60222 0.43609 0.33226 0.26038 0.83385 0.77953 1.3641 0.73961 0.27635-0.02076 0.56069-0.2476 0.87378-0.3019 0.32268-0.05751 0.74119-0.08626 1.0671-0.05272 0.2492 0.02555 0.50478 0.17412 0.76516 0.16294 0.27316-0.01758 0.58784-0.22044 0.89935-0.35622 0.49201-0.21406 1.206-0.47922 1.9249-0.43929 0.13737-1.0064 0.23322-2.0271 0.23322-3.0734 0-4.2315-1.1837-8.1675-3.2108-11.535-0.09425-0.0064-0.18051-0.01917-0.28434-0.01597-0.27635 0.01757-0.73162 0.01757-0.73641-0.32747-0.0031-0.28274 0.26676-0.34504 0.58944-0.36581a22.326 22.326 0 0 0-2.0096-2.6117m-34.136 10.246c-0.45367 0.02555-0.74918 0.04633-1.008 0.16294-0.59104 0.26836-0.47603 1.0687-1.0671 1.2571-0.20447 0.06549-0.48402 0.06709-0.70765 0.10862-0.19328 0.03514-0.4297 0.14216-0.63097 0.13738-0.23642-0.0048-0.64855-0.23322-0.78912-0.38337-0.09744-0.10542-0.25559-0.47123-0.35942-0.71404a22.731 22.731 0 0 0-0.30031 2.3993c0.047922 0.0096 0.099039 0.02236 0.14057 0.02236 0.25879 0.0016 0.53514-0.26676 0.82106-0.27475 0.66931-0.01916 0.96004 0.85142 1.5 1.1198 0.13578 0.06709 0.31469 0.07028 0.49041 0.10862 0.14057 0.03195 0.2476 0.09106 0.38337 0.13738 0.28914 0.09744 0.64216 0.08786 0.87378 0.19009 0.34823 0.15495 0.60222 0.80829 0.90094 0.9824 0.01758 0.17572-0.03195 0.41373 0.02875 0.54631 0.14057 0.19169 0.34184 0.15015 0.57347 0.27475 0.27795 0.15015 0.36261 0.53672 0.62778 0.65494 0.09106 0.03993 0.32108 0.03674 0.46484 0.08147 0.36261 0.11022 0.47922 0.52875 0.78912 0.43609 0.20287-0.06071 0.18849-0.26996 0.22204-0.46484 0.13419-0.14536 0.27955-0.37698 0.49041-0.38018 0.33866-0.01758 0.369 0.35143 0.4936 0.6805 0.07028 0.18689 0.25239 0.34983 0.30031 0.54631 0.08466 0.33866 0.04313 1.3546-0.02875 1.5575-0.08466 0.2492-0.42331 0.35462-0.63098 0.63098-0.09745 0.12939-0.14376 0.31788-0.21884 0.40894-0.13419 0.16294-0.33386 0.20607-0.4329 0.35622-0.05591 0.08466-0.11022 0.26676-0.16613 0.38018-0.16453 0.34823-0.38497 0.59424-0.246 1.0112 0.05751 0.17093 0.32747 0.28754 0.32747 0.49041 0 0.23801-0.50638 0.45047-0.54631 0.71084-0.02875 0.19328 0.15655 0.53992 0.21884 0.79231 0.04473 0.19009 0.40574 0.3099 0.51756 0.43609 0.19169 0.21566 0.34663 0.51916 0.52076 0.78912 0.34663 0.53194 0.6182 1.1789 0.95525 1.6949 0.17892 0.26996 0.4265 0.51277 0.54631 0.79231 0.0607 0.14057 0.05272 0.3099 0.10862 0.43609 0.19488 0.44089 1.0559 0.90095 1.5 1.1198 0.20767 0.10063 0.43929 0.13738 0.63098 0.24281 0.28913 0.16134 0.861 0.59424 1.008 0.84823 0.13099 0.22843 0.21086 0.78273 0.27475 1.1453 0.08466 0.47922 0.0031 0.84823 0.02875 1.3658 0.01758 0.28114 0.10542 0.56389 0.10862 0.84503 0.0016 0.09904-0.05112 0.17093-0.05591 0.27156-0.0048 0.34026 0.08466 0.72363 0.05591 1.0671a1.0351 1.0351 0 0 1-0.02236 0.19328c2.6805 1.131 5.6293 1.7572 8.7298 1.7572 0.32428 0 0.64056-0.03674 0.96164-0.04952 8e-3 -0.05112 0.01438-0.10223 0.02555-0.14376 0.09905-0.27635 0.35303-0.369 0.51756-0.57348 0.1246-0.15495 0.1821-0.33546 0.30031-0.49041 0.1278-0.16773 0.24281-0.31629 0.32747-0.46484 0.07987-0.4984-0.19808-0.84663-0.08147-1.2827 0.13099-0.49041 0.80669-0.78912 1.2827-1.0112 0.16294-0.07508 0.33226-0.19968 0.46484-0.246 0.32907-0.11501 0.73801-0.05272 1.0383-0.16294 0.51117-0.18689 0.56548-0.73481 0.81788-1.2013 0.11981-0.22044 0.27635-0.44248 0.30031-0.59903 0.02077-0.14057-0.05112-0.27316-0.02875-0.43929 0.02555-0.16454 0.17252-0.3083 0.21884-0.49041 0.06071-0.23642 0.08467-0.58145 0.08467-0.84503 0-0.21566-0.10063-0.40734-0.10862-0.60222-0.03514-0.70765 0.25559-0.78752 0.51756-1.1725 0.13099-0.19169 0.17892-0.40894 0.27156-0.54631 0.43929-0.65654 1.2029-0.97283 1.1485-1.9648-0.01918-0.32907-0.22363-1.0719-0.46484-1.1757-0.13897-0.0607-0.45527-0.0048-0.65494-0.08147-0.64536-0.24121-1.0255-1.0415-1.6949-1.0926-0.14216-0.01758-0.27316 0.05911-0.4329 0.05592-0.26517-0.01758-0.66452-0.1853-0.95845-0.21885-0.18689-0.02076-0.43449 0.05591-0.54631 0-0.17093-0.08307-0.18849-0.39616-0.32747-0.49041-0.11022-0.07508-0.32268-0.10064-0.49041-0.16613-0.26836-0.10383-0.48242-0.22523-0.79231-0.246-0.09585-0.0048-0.21566 0.04633-0.32747 0.02875-0.17093-0.02875-0.3067-0.23162-0.46484-0.32747-0.19808-0.1214-0.38337-0.18051-0.46484-0.35303 0.17892-0.58784-0.31629-0.75238-0.43609-1.0926-0.05751-0.15974-0.03035-0.35143-0.08147-0.4936-0.07028-0.20287-0.27316-0.31948-0.4936-0.49041-0.39456-0.3035-0.74599-0.58944-1.3099-0.65814-0.2476-0.03195-0.49201 0.07508-0.79231 0.05591-0.31788-0.02076-0.71724-0.29871-0.95525-0.57028-0.23162-0.26517-0.34504-0.50318-0.54631-0.63098-0.19009-0.123-0.44408-0.11981-0.57348-0.24281-0.05751-0.05432-0.04792-0.14696-0.10862-0.27475-0.09585-0.19808-0.25719-0.3083-0.13738-0.54631-0.21724-0.11182-0.22363 0.20607-0.46165 0.16613-0.21246-0.3019-0.39136-0.44408-0.87378-0.35622-0.22044 0.04153-0.34504 0.32108-0.60222 0.32747-0.21086 0.01758-0.377-0.23482-0.65494-0.27475-0.21086-0.02875-0.44888 0.05591-0.59903 0.02875-0.23322-0.04633-0.3051-0.24121-0.51756-0.38018-0.15654-0.10223-0.45845-0.27795-0.54631-0.27475-0.27475 0.01756-0.46964 0.58465-0.84823 0.38337-0.1837-0.23322 0.29872-0.35622 0.08147-0.57348-0.16613-0.16613-0.3051 0.07348-0.43609 0.16613-0.15175 0.10542-0.29393 0.20926-0.46165 0.27156-0.3754 0.14057-0.60862 0.06709-0.90095 0.21884-0.27156 0.14057-0.28274 0.3754-0.43609 0.65494-0.1262 0.22843-0.41373 0.56069-0.60222 0.57348-0.22843 0.01758-0.44728-0.31948-0.65494-0.40894-0.62458-0.27156-0.9281 0.23961-1.4473 0.246-0.48242 0.01758-1.1693-0.77634-1.1453-1.23 0.0048-0.27635 0.15814-0.69646 0.19009-1.0383 0.02875-0.27156 0.21566-0.4345 0.21884-0.68369 0.0048-0.33226-0.43929-0.58784-0.65494-0.62778-0.50957-0.09425-1.2189 0.20607-1.8034-0.02875-0.11182-0.1853 0.13099-0.31309 0.19328-0.4936 0.03514-0.10223 0.01597-0.23961 0.05272-0.35302 0.06549-0.17412 0.246-0.3083 0.32747-0.4936 0.0607-0.14057 0.07668-0.34344 0.13738-0.51756 0.07188-0.19808 0.20287-0.32587 0.21884-0.46484a0.61181 0.61181 0 0 0-0.19328-0.51756m7.3002 5.781c0.1853 0.01758 0.20767 0.39935 0.01918 0.4313-0.20447 0.03195-0.3067-0.31948-0.10862-0.41214a0.16773 0.16773 0 0 1 0.09106-0.01918" fill="#c6e3fc" stroke-width="1.2105"/>
 </g>
</svg>
