<svg xmlns="http://www.w3.org/2000/svg" width="64" height="64"><rect width="46" height="7" x="9" y="53" fill="#47515a" stroke="#32383e" stroke-linecap="round" stroke-linejoin="round" stroke-width="2" rx="2" ry="2" style="paint-order:stroke fill markers"/><rect width="46" height="7" x="9" y="53" fill="#47515a" rx="2" ry="2" style="paint-order:stroke fill markers"/><rect width="46" height="7" x="9" y="51" fill="#dbe1e3" stroke="#a2aeaf" stroke-linecap="round" stroke-linejoin="round" stroke-width="2" rx="2" ry="2" style="paint-order:stroke fill markers"/><rect width="46" height="7" x="9" y="51" fill="#dbe1e3" rx="2" ry="2" style="paint-order:stroke fill markers"/><path fill="#47515a" stroke="#000" stroke-opacity=".25" d="M26 46.909h12v5.672S36.5 54 32 54s-6-1.419-6-1.419z"/><g transform="matrix(1.0284 0 0 1.0283 -.909 -.704)"><rect width="44.728" height="44.728" x="9.63" y="3.602" fill="#54aff7" stroke="#328fd8" stroke-width="1.945" rx="22.363"/><rect width="44.728" height="44.728" x="9.63" y="3.602" fill="#54aff7" rx="22.363"/><path fill="#c6e3fc" d="M31.685 3.618a22.5 22.5 0 0 0-4.97.631c-.42.377-1.041.569-1.738.55-.249.238-.191.683-.327 1.01-.115.276-.518.57-.792.547-.203-.017-.436-.303-.436-.493 0-.229.317-.357.143-.612a22.3 22.3 0 0 0-4.952 2.805c.406-.15.855-.401 1.224-.41a.7.7 0 0 1 .17.02c.248.066.9.78.357 1.011-.051.023-.797.104-.926.082-.19-.032-.302-.294-.494-.328-.321-.056-.728.278-1.005.128a22.3 22.3 0 0 0-6.829 9.44c.13-.074.264-.153.38-.215.4-.208.737-.543 1.202-.573.231-.005.567.062.789.108.206.042.37.18.55.193.504.039.624-.354 1.034-.573.425.06.708-.072 1.093-.029.262.029.45.309.655.325.17.017.324-.16.49-.135.162.026.44.377.465.574.034.246-.179.466-.108.736.257.262.725.315 1.092.465.24-.196.032-.564 0-.848-.005-.126.018-.237 0-.353-.022-.197-.108-.377-.108-.547-.005-.776.626-1.14 1.148-1.447.225-.134.403-.367.6-.465.275-.139.482-.17.71-.3.414-.232.768-.42 1.093-.684.15-.353.016-.824.028-1.172.15-.091.278.041.436.029.25-.053.27-.406.413-.547.083-.081.306-.139.408-.219.25-.194.33-.49.547-.573.078-.032.257-.022.38-.056.161-.043.391-.235.655-.324.17-.06.565-.072.63-.138.08-.081 0-.313.03-.436.132-.616 1.06-.747 1.613-.955.385-.145.778-.412 1.201-.33-.083.292-.476.19-.409.546.093.493.753-.142.927-.216.334-.14.904-.225 1.342-.383.383-.14 1.07-.355.707-.793-.301-.017-.445.353-.707.465-.182.029-.149-.15-.302-.166-.147-.018-.23.134-.38.109s-.361-.26-.384-.436c-.059-.456.385-.643.574-.983-.125-.412-.695-.084-1.038-.246.033-.246.287-.415.573-.461.235-.04.762-.02.9.105.082.069.007.241.138.356.14.126.31.114.49.085.066-.312-.403-.235-.352-.44.369-.24.968-.041 1.42-.108.26-.038.533-.224.765-.353.219-.125.503-.342.736-.137.064.223-.202.297-.327.408a8.8 8.8 0 0 0-1.173 1.23c.2.195.561.098.9.138.13.017.297.056.436.081.163.03.337.021.465.053.23.056.29.302.517.302.374 0 .377-.406.166-.658.067-.257.171-.39.082-.57-.168-.338-.786-.018-.818-.437-.02-.271.228-.262.327-.464-.044-.526.432-.564.38-1.035-.022-.197-.19-.2-.327-.384-.072-.094-.104-.283-.19-.356-.286-.241-.866-.195-.9-.655-.006-.157.017-.296.031-.443-.263-.012-.524-.036-.789-.04zM21.046 8.976c.128.017.283.153.436.166.145.005.267-.08.356-.056.229.06.325.406.109.574-.179.022-.25-.077-.383-.053-.371.064-.513.789-.79.765-.262-.022-.402-.66-.137-.848.018-.166-.121-.192-.112-.356.079-.101.304-.21.521-.19m-1.23.084q.117.004.163.053c-.037.29-.265.273-.49.409-.389.235-.614.59-.737 1.092-.035.146-.417.532-.602.494-.433-.091.12-.89.219-1.011.108-.134.255-.254.383-.41.125-.15.208-.352.328-.435a1.6 1.6 0 0 1 .736-.19m3.232.982c.139.003.262.026.317.082-.089.36-.864.265-1.148.134.02-.136.23-.173.409-.19.126-.005.283-.03.422-.026m-1.769.665a1 1 0 0 1 .285.043c-.251.21-.524.329-.956.465-.207.065-.567.147-.602-.085-.043-.284.304-.217.494-.243.238-.033.5-.172.78-.18m27.427.405c.021.205.024.4-.032.622-.075.295-.34.564-.327.82.018.132.161.26.193.437.018.094-.045.297 0 .383.14.269.518.042.765.082.242.038.521.385.518.655-.003.188-.18.501-.3.683-.238.363-.561.379-.901.57-.285.162-.408.432-.574.711-.18.304-.292.488-.219.927-.244.484-.615.781-1.12 1.011-.15.067-.352.091-.49.19-.108.079-.172.291-.327.465-.192.213-.393.302-.494.465-.078.126-.104.377-.19.546-.117.23-.364.342-.518.574-.07.107-.116.324-.193.465-.172.314-.468.541-.436.817.032.267.336.314.356.547.005.13-.086.212-.081.356.005.21.145.356.163.518.041.405-.14.568-.216.845-.037.132-.02.28-.056.383-.067.203-.35.387-.356.628-.003.17.176.306.19.546.005.165-.081.342-.053.494.058.297.59.642.821.873.309.309.713.548.845.874.112.277.112.638.328.845.16.154.423.25.628.41.19.148.399.277.602.435.332.26.834.78 1.364.74.276-.02.56-.248.874-.302a4.2 4.2 0 0 1 1.067-.053c.25.026.505.174.765.163.273-.017.588-.22.9-.356.491-.214 1.205-.48 1.924-.44.138-1.006.234-2.026.234-3.073 0-4.231-1.184-8.167-3.211-11.535-.095-.006-.18-.019-.285-.016-.276.018-.731.018-.736-.327-.003-.283.267-.345.59-.366a22 22 0 0 0-2.01-2.612M14.573 21.362c-.454.026-.75.047-1.008.163-.591.269-.476 1.069-1.067 1.257-.205.066-.484.067-.708.109-.193.035-.43.142-.63.137-.237-.004-.65-.233-.79-.383-.097-.105-.256-.471-.36-.714a23 23 0 0 0-.3 2.4c.048.009.1.022.14.022.26.001.536-.267.822-.275.67-.02.96.851 1.5 1.12.136.067.315.07.49.108.14.032.248.091.384.138.289.097.642.088.873.19.349.155.603.808.901.982.018.176-.032.414.03.546.14.192.341.15.573.275.278.15.362.537.627.655.091.04.321.037.465.082.363.11.48.528.79.436.202-.061.188-.27.221-.465.135-.145.28-.377.49-.38.34-.018.37.351.494.68.07.187.253.35.3.547.085.338.044 1.354-.028 1.557-.085.25-.423.355-.631.631-.097.13-.144.318-.219.409-.134.163-.334.206-.433.356-.056.085-.11.267-.166.38-.164.349-.385.595-.246 1.012.058.17.328.287.328.49 0 .238-.507.45-.547.71-.029.194.157.54.22.793.044.19.405.31.517.436.191.216.346.52.52.79.347.531.619 1.178.956 1.694.179.27.426.513.546.793.06.14.053.31.109.436.194.44 1.055.9 1.5 1.12.207.1.439.137.63.242.29.162.862.594 1.009.848.13.229.21.783.274 1.146.085.479.003.848.03 1.366.017.28.104.563.108.845.001.099-.051.17-.056.271-.005.34.084.724.056 1.067a1 1 0 0 1-.023.194 22.4 22.4 0 0 0 8.73 1.757c.324 0 .64-.037.962-.05.008-.05.014-.102.025-.144.1-.276.353-.369.518-.573.124-.155.182-.335.3-.49.128-.168.243-.317.328-.465.08-.499-.198-.847-.082-1.283.131-.49.807-.79 1.283-1.011.163-.075.332-.2.465-.246.329-.115.738-.053 1.038-.163.511-.187.566-.735.818-1.201.12-.22.276-.443.3-.6.021-.14-.05-.273-.029-.439.026-.164.173-.308.22-.49a3.8 3.8 0 0 0 .084-.845c0-.216-.1-.408-.109-.602-.035-.708.256-.788.518-1.173.13-.192.179-.409.271-.546.44-.657 1.203-.973 1.149-1.965-.02-.33-.224-1.072-.465-1.176-.139-.06-.455-.005-.655-.081-.645-.241-1.025-1.042-1.695-1.093-.142-.017-.273.06-.433.056-.265-.017-.664-.185-.958-.219-.187-.02-.435.056-.546 0-.171-.083-.189-.396-.328-.49-.11-.075-.323-.1-.49-.166-.269-.104-.483-.225-.793-.246-.095-.005-.215.046-.327.028-.171-.028-.307-.231-.465-.327-.198-.121-.383-.18-.465-.353.18-.588-.316-.752-.436-1.093-.057-.16-.03-.351-.081-.493-.07-.203-.273-.32-.494-.49-.394-.304-.746-.59-1.31-.659-.247-.032-.492.075-.792.056-.318-.02-.717-.299-.955-.57-.232-.265-.345-.503-.547-.631-.19-.123-.444-.12-.573-.243-.058-.054-.048-.147-.109-.275-.096-.198-.257-.308-.137-.546-.217-.112-.224.206-.462.166-.212-.302-.391-.444-.874-.356-.22.041-.345.321-.602.327-.21.018-.377-.234-.655-.274-.21-.03-.449.056-.599.028-.233-.046-.305-.24-.517-.38-.157-.102-.459-.278-.547-.275-.274.018-.47.585-.848.384-.184-.233.299-.356.082-.574-.166-.166-.305.074-.436.166-.152.106-.294.21-.462.272-.376.14-.609.067-.901.219-.272.14-.283.375-.436.655-.126.228-.414.56-.602.573-.229.018-.448-.32-.655-.409-.625-.271-.928.24-1.448.246-.482.018-1.169-.776-1.145-1.23.005-.276.158-.696.19-1.038.029-.271.216-.434.219-.684.005-.332-.44-.587-.655-.627-.51-.095-1.219.206-1.803-.03-.112-.184.13-.312.193-.493.035-.102.016-.24.053-.353.065-.174.246-.308.327-.493.06-.14.077-.344.138-.518.071-.198.202-.326.218-.465a.61.61 0 0 0-.193-.517m7.3 5.78c.186.018.208.4.02.432-.205.032-.307-.32-.11-.412a.17.17 0 0 1 .092-.02"/></g></svg>