<svg xmlns="http://www.w3.org/2000/svg" width="64" height="64" viewBox="0 0 16.934 16.934"><circle cx="8.467" cy="8.467" r="7.144" fill="#333" stroke="#1a1a1a" stroke-width=".529" style="paint-order:markers stroke fill"/><circle cx="8.467" cy="8.467" r="7.144" fill="#333" style="paint-order:markers stroke fill"/><path fill="#f55" d="M4.938 9.315c-.555-.84-1.028-2.905.504-3.02 1.996-.149 4.054-.008 6.056-.008 1.053 0 2.076.008 2.27-1.262h-6.14c-.978 0-2.171-.18-3.11.133-1.285.429-1.738 2.132-.994 3.225.333.49.876.735 1.414.932"/><path fill="#5ff" d="M11.996 7.62c.555.84 1.028 2.904-.504 3.019-1.996.149-4.054.008-6.056.008-1.053 0-2.076-.008-2.27 1.262h6.14c.978 0 2.171.18 3.11-.133 1.285-.43 1.738-2.132.994-3.225-.333-.49-.876-.735-1.414-.932"/><path fill="#fff" d="M6.448 8.451v.084l1.094.163.925.317.925-.315 1.094-.165-1.094-.281-.925-.335-.925.341Z"/></svg>