<svg xmlns="http://www.w3.org/2000/svg" width="64" height="64" viewBox="0 0 16.933 16.933"><g fill="#e6e6e6"><g stroke="#b2b2b2" stroke-width=".529"><path d="M1.587 10.848v3.175a6.879 1.587 0 0 0 6.88 1.587 6.879 1.587 0 0 0 6.878-1.587v-3.175z"/><path d="M1.587 6.88v3.174a6.879 1.587 0 0 0 6.88 1.587 6.879 1.587 0 0 0 6.878-1.587V6.879z"/><path d="M1.587 2.91v3.175a6.88 1.587 0 0 0 6.88 1.588 6.88 1.587 0 0 0 6.879-1.588V2.91z"/></g><path d="M1.587 10.848v3.175a6.879 1.587 0 0 0 6.88 1.587 6.879 1.587 0 0 0 6.878-1.587v-3.175z"/></g><ellipse cx="8.466" cy="10.848" fill="#ccc" stroke="#b2b2b2" stroke-width=".529" rx="6.879" ry="1.587"/><ellipse cx="8.466" cy="10.848" fill="#ccc" rx="6.879" ry="1.587"/><path fill="#e6e6e6" d="M1.587 6.88v3.174a6.879 1.587 0 0 0 6.88 1.587 6.879 1.587 0 0 0 6.878-1.587V6.879z"/><ellipse cx="8.466" cy="6.879" fill="#ccc" stroke="#b2b2b2" stroke-width=".529" rx="6.879" ry="1.587"/><ellipse cx="8.466" cy="6.879" fill="#ccc" rx="6.879" ry="1.587"/><path fill="#e6e6e6" d="M1.587 2.91v3.175a6.88 1.587 0 0 0 6.88 1.588 6.88 1.587 0 0 0 6.879-1.588V2.91z"/><ellipse cx="8.466" cy="2.91" fill="#ccc" stroke="#b2b2b2" stroke-width=".529" rx="6.879" ry="1.587"/><ellipse cx="8.466" cy="2.91" fill="#ccc" rx="6.879" ry="1.587"/><path fill="#fff" d="M2.117 3.517v3.178a6.88 1.587 0 0 0 .529.233V3.755a6.88 1.587 0 0 1-.53-.238zm0 3.969v3.177a6.88 1.587 0 0 0 .529.234V7.724a6.88 1.587 0 0 1-.53-.238zm0 3.969v3.177a6.88 1.587 0 0 0 .529.234v-3.173a6.88 1.587 0 0 1-.53-.238zm.793-7.612v3.175a6.88 1.587 0 0 0 1.323.318V4.159a6.88 1.587 0 0 1-1.323-.316m0 3.969v3.175a6.88 1.587 0 0 0 1.323.317V8.128a6.88 1.587 0 0 1-1.323-.316m0 3.968v3.176a6.88 1.587 0 0 0 1.323.317v-3.176a6.88 1.587 0 0 1-1.323-.317" opacity=".35"/><path fill="#f67d7d" stroke="#e86868" stroke-linecap="round" stroke-linejoin="round" stroke-width=".529" d="M14.287 1.587c-3.395 0-7.818 4.849-10.169 9.827-.68 1.438-1.254 2.993-1.472 3.932l.264-.012c.987-2.844 2.122-3.075 2.662-3.164 1.93-.32 3.408-.941 4.833-2.645-1.94 0-3.157-.325-3.157-.529h3.493A18 18 0 0 0 12.1 7.409c-1.695 0-3.106-.215-3.106-.53h3.492a12.4 12.4 0 0 0 .887-1.587c-1.513 0-2.527-.342-2.527-.53h2.78c.458-1.128.664-2.207.66-3.174z"/><path fill="#f67d7d" d="M14.287 1.587c-3.395 0-7.818 4.849-10.169 9.827-.68 1.438-1.254 2.993-1.472 3.932l.264-.012c.987-2.844 2.122-3.075 2.662-3.164 1.93-.32 3.408-.941 4.833-2.645-1.94 0-3.157-.325-3.157-.529h3.493A18 18 0 0 0 12.1 7.409c-1.695 0-3.106-.215-3.106-.53h3.492a12.4 12.4 0 0 0 .887-1.587c-1.513 0-2.527-.342-2.527-.53h2.78c.458-1.128.664-2.207.66-3.174z"/></svg>