<svg xmlns="http://www.w3.org/2000/svg" width="64" height="64" viewBox="0 0 16.933 16.933"><g fill="#e6e6e6"><g stroke="#b2b2b2" stroke-width=".529"><path d="M1.587 10.848v3.175a6.879 1.587 0 0 0 6.88 1.587 6.879 1.587 0 0 0 6.878-1.587v-3.175z"/><path d="M1.587 6.88v3.174a6.879 1.587 0 0 0 6.88 1.587 6.879 1.587 0 0 0 6.878-1.587V6.879z"/><path d="M1.587 2.91v3.175a6.88 1.587 0 0 0 6.88 1.588 6.88 1.587 0 0 0 6.879-1.588V2.91z"/></g><path d="M1.587 10.848v3.175a6.879 1.587 0 0 0 6.88 1.587 6.879 1.587 0 0 0 6.878-1.587v-3.175z"/></g><ellipse cx="8.466" cy="10.848" fill="#ccc" stroke="#b2b2b2" stroke-width=".529" rx="6.879" ry="1.587"/><ellipse cx="8.466" cy="10.848" fill="#ccc" rx="6.879" ry="1.587"/><path fill="#e6e6e6" d="M1.587 6.88v3.174a6.879 1.587 0 0 0 6.88 1.587 6.879 1.587 0 0 0 6.878-1.587V6.879z"/><ellipse cx="8.466" cy="6.879" fill="#ccc" stroke="#b2b2b2" stroke-width=".529" rx="6.879" ry="1.587"/><ellipse cx="8.466" cy="6.879" fill="#ccc" rx="6.879" ry="1.587"/><path fill="#e6e6e6" d="M1.587 2.91v3.175a6.88 1.587 0 0 0 6.88 1.588 6.88 1.587 0 0 0 6.879-1.588V2.91z"/><ellipse cx="8.466" cy="2.91" fill="#ccc" stroke="#b2b2b2" stroke-width=".529" rx="6.879" ry="1.587"/><ellipse cx="8.466" cy="2.91" fill="#ccc" rx="6.879" ry="1.587"/><path fill="#fff" d="M2.117 3.517v3.178a6.88 1.587 0 0 0 .529.233V3.755a6.88 1.587 0 0 1-.53-.238zm0 3.969v3.177a6.88 1.587 0 0 0 .529.234V7.724a6.88 1.587 0 0 1-.53-.238zm0 3.969v3.177a6.88 1.587 0 0 0 .529.234v-3.173a6.88 1.587 0 0 1-.53-.238zm.793-7.612v3.175a6.88 1.587 0 0 0 1.323.318V4.159a6.88 1.587 0 0 1-1.323-.316m0 3.969v3.175a6.88 1.587 0 0 0 1.323.317V8.128a6.88 1.587 0 0 1-1.323-.316m0 3.968v3.176a6.88 1.587 0 0 0 1.323.317v-3.176a6.88 1.587 0 0 1-1.323-.317" opacity=".35"/><path fill="#24abeb" stroke="#208abc" stroke-width=".529" d="M10.145 1.59c-3.853-.004-4.889 4.384-4.738 6.9.406.342.714.753.99 1.126-.275-.331-.652-.584-1.025-.86q-.044.372-.064.684c.548.412 1.072 1.19 1.072 1.19s-.04-.05-.2-.218c-.143-.15-.744-.584-.886-.686-.014.462.024.767.111.828.168.117.366.336.56.582.436.555.85 1.25.85 1.25.362 1.073.718 2.1 1.54 2.96l.295-.067a5.6 5.6 0 0 1-1.153-2.084c-.396-1.305-.655-2.939-.446-4.701.458-2.686 1.61-4.976 2.976-6.21-1.204 1.239-2.413 4.58-2.637 6.124-.235 1.425-.103 2.627.018 3.85.123-1.187 1.695-1.95 1.695-1.95s.57-.844 1.17-2.015c-.787.262-1.537.556-2.245.941 0 0 1.284-.9 2.48-1.413 1.085-2.257 2.034-5.361-.362-6.234"/><path fill="#24abeb" d="M10.145 1.59c-3.853-.004-4.889 4.384-4.738 6.9.406.342.714.753.99 1.126-.275-.331-.652-.584-1.025-.86q-.044.372-.064.684c.548.412 1.072 1.19 1.072 1.19s-.04-.05-.2-.218c-.143-.15-.744-.584-.886-.686-.014.462.024.767.111.828.168.117.366.336.56.582.436.555.85 1.25.85 1.25.362 1.073.718 2.1 1.54 2.96l.295-.067a5.6 5.6 0 0 1-1.153-2.084c-.396-1.305-.655-2.939-.446-4.701.458-2.686 1.61-4.976 2.976-6.21-1.204 1.239-2.413 4.58-2.637 6.124-.235 1.425-.103 2.627.018 3.85.123-1.187 1.695-1.95 1.695-1.95s.57-.844 1.17-2.015c-.787.262-1.537.556-2.245.941 0 0 1.284-.9 2.48-1.413 1.085-2.257 2.034-5.361-.362-6.234"/></svg>