<?xml version="1.0" encoding="UTF-8"?>
<svg width="64" height="64" version="1.1" xmlns="http://www.w3.org/2000/svg">
 <defs>
  <linearGradient id="c" x1="-197.1" x2="-196.91" y1="217.68" y2="219.36" gradientTransform="matrix(2.6726 -2.6726 2.6726 2.6726 5.4095e-6 -1058.5)" gradientUnits="userSpaceOnUse">
   <stop offset="0"/>
   <stop stop-opacity="0" offset="1"/>
  </linearGradient>
 </defs>
 <path d="m12 8.9992c-1.1074 0-1.0016 0.99781-1.0016 2.0032h-3.9988c-1.0016 0-1.0016 0-1.0016 0.99782v20.999c0 1.1074 0.89577 2.0032 2.0032 2.0032h48.001a1.9994 1.9994 0 0 0 1.9994-2.0032v-20.999c0-1.0016 0-1.0016-1.0016-1.0016h-27.999c0-1.0016 0.10583-2.0032-1.0016-2.0032z" fill="#fff" fill-opacity=".976" stroke="#000" stroke-opacity=".268" stroke-width="1.9994" paint-order="markers stroke fill"/>
 <path d="m12 8.9992c-1.1074 0-1.0016 0.99781-1.0016 2.0032h-3.9988c-1.0016 0-1.0016 0-1.0016 0.99782v20.999c0 1.1074 0.89577 2.0032 2.0032 2.0032h48.001a1.9994 1.9994 0 0 0 1.9994-2.0032v-20.999c0-1.0016 0-1.0016-1.0016-1.0016h-27.999c0-1.0016 0.10583-2.0032-1.0016-2.0032z" fill="#fff" fill-opacity=".976" stroke-width="3.7796" paint-order="markers stroke fill"/>
 <path d="m32.002 15.999c-1.1074 0-1.4438 1.0432-2.0032 2.0032l-1.1641 1.9956h-25.834c-1.0016 0-1.0016 1.0016-1.0016 1.0016v34.001c0 0.99782 1.0016 0.99782 1.0016 0.99782h58.002c0.99782 0 0.99782-0.99782 0.99782-0.99782v-38c0-1.0016-0.99782-1.0016-0.99782-1.0016z" fill="none" stroke="#003579" stroke-opacity=".561" stroke-width="1.9994" paint-order="markers stroke fill"/>
 <path d="m32.002 15.999c-1.1074 0-1.4438 1.0432-2.0032 2.0032l-1.1641 1.9956h-25.834c-1.0016 0-1.0016 1.0016-1.0016 1.0016v34.001c0 0.99782 1.0016 0.99782 1.0016 0.99782h58.002c0.99782 0 0.99782-0.99782 0.99782-0.99782v-38c0-1.0016-0.99782-1.0016-0.99782-1.0016z" fill="#6ba4e7" stroke-width="3.7796" paint-order="markers stroke fill"/>
 <path d="m62 43.998-11.998 12h10c1.1077 0 1.998-0.89038 1.998-1.998z" fill="url(#c)" opacity=".1"/>
 <rect x="13.002" y="10.999" width="14" height="1.9994" rx="1.0016" ry="1.0016" fill-opacity=".267" stroke-width="3.7796" paint-order="markers stroke fill"/>
 <path d="m28.07 45.294c-2.1315-0.5407-3.9191-1.0102-3.9726-1.0432-0.1341-0.08288-0.12463-1.9102 0.0099-1.9102 0.05892 0 1.7513 0.41914 3.761 0.93147 2.0097 0.51229 3.8599 0.93147 4.1117 0.93147s2.1163-0.41816 4.1433-0.92931c2.027-0.51111 3.7284-0.90269 3.781-0.87021 0.12916 0.07983 0.12245 1.77-0.0072 1.8502-0.07367 0.04555-7.9516 2.0531-7.9516 2.0263 0-0.0019-1.7439-0.44588-3.8754-0.98658zm-0.12751-4.6898c-2.0207-0.52151-3.7344-0.98807-3.8082-1.0369-0.08705-0.05755-0.13411-0.39402-0.13411-0.95886 0-0.77417 0.02242-0.87022 0.20308-0.87022 0.1117 0 1.8624 0.41916 3.8904 0.93147 2.0281 0.51229 3.8088 0.93147 3.9572 0.93147 0.14836 0 1.9241-0.41916 3.9459-0.93147 2.0219-0.51229 3.7517-0.93147 3.8439-0.93147 0.14015 0 0.16253 0.15693 0.13608 0.95513l-0.03185 0.95513-3.8356 0.96107c-2.1096 0.5286-3.9836 0.95695-4.1643 0.95194-0.18082-0.0051-1.9821-0.43582-4.0029-0.95733zm0.02089-4.6198c-2.0696-0.52839-3.81-1.0079-3.8677-1.0656s-0.09044-0.51692-0.07278-1.0205l0.0321-0.91564 7.9508-1.9822 3.4219 0.85607c1.882 0.47086 3.6807 0.92799 3.9972 1.0159l0.57535 0.15984v0.92455c0 0.76912-0.03227 0.94149-0.19178 1.0252-0.2494 0.13089-7.7173 1.9932-7.9241 1.9761-0.08682-0.0072-1.8511-0.44538-3.9207-0.97377z" opacity=".15" stroke-width="1.1234"/>
</svg>
