<svg xmlns="http://www.w3.org/2000/svg" width="64" height="64"><defs><linearGradient id="a" x1="-197.1" x2="-196.91" y1="217.68" y2="219.36" gradientTransform="matrix(2.6726 -2.6726 2.6726 2.6726 0 -1058.5)" gradientUnits="userSpaceOnUse"><stop offset="0"/><stop offset="1" stop-opacity="0"/></linearGradient></defs><path fill="#fff" fill-opacity=".976" stroke="#000" stroke-opacity=".268" stroke-width="1.999" d="M12 9c-1.107 0-1.002.997-1.002 2.002H7c-1.002 0-1.002 0-1.002.998v21c0 1.107.896 2.002 2.003 2.002h48.001a2 2 0 0 0 2-2.003V12c0-1 0-1-1.002-1H29.001c0-1.002.106-2.004-1.002-2.004z" paint-order="markers stroke fill"/><path fill="#fff" fill-opacity=".976" d="M12 9c-1.107 0-1.002.997-1.002 2.002H7c-1.002 0-1.002 0-1.002.998v21c0 1.107.896 2.002 2.003 2.002h48.001a2 2 0 0 0 2-2.003V12c0-1 0-1-1.002-1H29.001c0-1.002.106-2.004-1.002-2.004z" paint-order="markers stroke fill"/><path fill="none" stroke="#003579" stroke-opacity=".561" stroke-width="1.999" d="M32.002 15.999c-1.107 0-1.444 1.043-2.003 2.003l-1.164 1.996H3c-1.002 0-1.002 1.001-1.002 1.001V55c0 .998 1.002.998 1.002.998h58.002C62 55.998 62 55 62 55V17c0-1-.997-1-.997-1z" paint-order="markers stroke fill"/><path fill="#6ba4e7" d="M32.002 15.999c-1.107 0-1.444 1.043-2.003 2.003l-1.164 1.996H3c-1.002 0-1.002 1.001-1.002 1.001V55c0 .998 1.002.998 1.002.998h58.002C62 55.998 62 55 62 55V17c0-1-.997-1-.997-1z" paint-order="markers stroke fill"/><path fill="url(#a)" d="m62 43.998-11.998 12h10C61.11 55.998 62 55.108 62 54z" opacity=".1"/><rect width="14" height="1.999" x="13.002" y="10.999" fill-opacity=".267" paint-order="markers stroke fill" rx="1.002" ry="1.002"/><path d="M28.07 45.294c-2.131-.54-3.92-1.01-3.973-1.043-.134-.083-.124-1.91.01-1.91.06 0 1.752.419 3.761.931s3.86.932 4.112.932 2.116-.419 4.143-.93c2.027-.51 3.729-.902 3.781-.87.13.08.123 1.77-.007 1.85-.074.046-7.951 2.053-7.951 2.027 0-.002-1.744-.446-3.876-.987m-.128-4.69c-2.02-.521-3.734-.988-3.808-1.037-.087-.057-.134-.394-.134-.959 0-.774.023-.87.203-.87.112 0 1.863.42 3.89.932 2.029.512 3.81.931 3.958.931s1.924-.419 3.946-.931c2.022-.513 3.751-.932 3.844-.932.14 0 .162.157.136.955l-.032.955-3.836.962c-2.11.528-3.983.956-4.164.951s-1.982-.435-4.003-.957m.021-4.62c-2.07-.528-3.81-1.008-3.867-1.065s-.09-.517-.073-1.02l.032-.916L32.005 31l3.423.857c1.882.47 3.68.928 3.997 1.015l.575.16v.925c0 .769-.032.941-.192 1.025-.249.13-7.717 1.993-7.924 1.976-.086-.007-1.85-.445-3.92-.974z" opacity=".15"/></svg>