<svg width="64" height="64" version="1.1" xmlns="http://www.w3.org/2000/svg">
 <rect x="5" y="8" width="54" height="48" rx="6" ry="6" fill="#4d4d4d" stroke="#333333" stroke-linecap="round" stroke-linejoin="round" stroke-width="2"/>
 <rect x="5" y="8" width="54" height="48" rx="6" ry="6" fill="#4d4d4d" stroke-width="4.1176"/>
 <path d="m13 23v3h-3v2h3v2h-3v2h3v3h2v-3h2v3h2v-3h2v-2h-2v-2h2v-2h-2v-3h-2v3h-2v-3zm10 0v9h2v-9zm-8 5h2v2h-2zm8 5v2h2v-2z" fill="#ffffff"/>
 <path d="m11 8c-3.324 0-6 2.676-6 6v4h54v-4c0-3.324-2.676-6-6-6h-42z" fill="#e6e6e6"/>
 <circle cx="53" cy="13" r="2" fill="#ffaaaa" stop-color="#000000" stroke="#ff5c5c" stroke-linecap="round" stroke-linejoin="round"/>
 <rect x="5" y="18" width="54" height="1" rx="0" ry="0" fill="#333333" stop-color="#000000"/>
</svg>
