<svg xmlns="http://www.w3.org/2000/svg" width="64" height="64"><rect width="54" height="48" x="5" y="8" fill="#4d4d4d" stroke="#333" stroke-linecap="round" stroke-linejoin="round" stroke-width="2" rx="6" ry="6"/><rect width="54" height="48" x="5" y="8" fill="#4d4d4d" rx="6" ry="6"/><path fill="#fff" d="M13 23v3h-3v2h3v2h-3v2h3v3h2v-3h2v3h2v-3h2v-2h-2v-2h2v-2h-2v-3h-2v3h-2v-3zm10 0v9h2v-9zm-8 5h2v2h-2zm8 5v2h2v-2z"/><path fill="#e6e6e6" d="M11 8c-3.324 0-6 2.676-6 6v4h54v-4c0-3.324-2.676-6-6-6z"/><circle cx="53" cy="13" r="2" fill="#faa" stroke="#ff5c5c" stroke-linecap="round" stroke-linejoin="round"/><rect width="54" height="1" x="5" y="18" fill="#333" rx="0" ry="0"/></svg>