<svg xmlns="http://www.w3.org/2000/svg" width="64" height="64"><path fill="#3c1d66" stroke="#000" stroke-linecap="round" stroke-linejoin="round" stroke-opacity=".25" d="M58 56.632c0 .755-.613 1.368-1.368 1.368H7.369A1.37 1.37 0 0 1 6 56.632V7.369c0-.755.613-1.368 1.369-1.368h49.263A1.37 1.37 0 0 1 58 7.369z"/><circle cx="43.647" cy="21.031" r="8.21" fill="#3a3670" stroke="#000" stroke-linecap="round" stroke-linejoin="round" stroke-opacity=".25"/><path fill="#e6e6e6" stroke="#000" stroke-linecap="round" stroke-linejoin="round" stroke-opacity=".25" d="M49.941 15.762c.275.82.43 1.696.43 2.607a8.21 8.21 0 0 1-14.504 5.268c1.09 3.256 4.158 5.604 7.78 5.604a8.21 8.21 0 0 0 8.211-8.21 8.18 8.18 0 0 0-1.917-5.269"/><path fill="#462e7a" stroke="#000" stroke-linecap="round" stroke-linejoin="round" stroke-opacity=".25" d="M6 19.603s26.571 1.427 34.453 25.293l-4.1 7.637-18.106-.851L6 47.43z"/><path fill="#ac776d" stroke="#000" stroke-linecap="round" stroke-linejoin="round" stroke-opacity=".25" d="M58 31.236S41.214 27.578 27.605 48.49l17.376 4.86L58 51.894z"/><path fill="#b8ad99" stroke="#000" stroke-linecap="round" stroke-linejoin="round" stroke-opacity=".25" d="M58 39.447s-16.786-3.658-30.395 17.254L58 52.533z"/><path fill="#574a5c" stroke="#000" stroke-linecap="round" stroke-linejoin="round" stroke-opacity=".25" d="M25.288 48.621S41.579 41.134 58 43.648v10.247H25.158z"/><path fill="#312b33" stroke="#000" stroke-linecap="round" stroke-linejoin="round" stroke-opacity=".25" d="M7.368 58h49.263c.756 0 1.369-.613 1.369-1.368V47.72c-14.353 7.472-26.673-2.033-26.673-2.033C14.792 34.283 10.326 34.45 6 33.917V56.63c0 .755.613 1.368 1.368 1.368z"/><circle cx="13.524" cy="17.455" r="1.693" fill="#e5e5e5" stroke="#000" stroke-linecap="round" stroke-linejoin="round" stroke-opacity=".25"/><circle cx="16.627" cy="21.633" r="1.088" fill="#e5e5e5" stroke="#000" stroke-linecap="round" stroke-linejoin="round" stroke-opacity=".25"/><circle cx="28.943" cy="27.107" r="1.088" fill="#e5e5e5" stroke="#000" stroke-linecap="round" stroke-linejoin="round" stroke-opacity=".25"/><circle cx="19.487" cy="13.707" r=".887" fill="#e5e5e5" stroke="#000" stroke-linecap="round" stroke-linejoin="round" stroke-opacity=".25"/><circle cx="14.893" cy="10.39" r=".645" fill="#e5e5e5" stroke="#000" stroke-linecap="round" stroke-linejoin="round" stroke-opacity=".25"/><circle cx="18.999" cy="19.969" r=".645" fill="#e5e5e5" stroke="#000" stroke-linecap="round" stroke-linejoin="round" stroke-opacity=".25"/><circle cx="21.735" cy="21.337" r=".645" fill="#e5e5e5" stroke="#000" stroke-linecap="round" stroke-linejoin="round" stroke-opacity=".25"/><circle cx="20.367" cy="30.916" r=".645" fill="#e5e5e5" stroke="#000" stroke-linecap="round" stroke-linejoin="round" stroke-opacity=".25"/></svg>