<svg xmlns="http://www.w3.org/2000/svg" width="64" height="64" viewBox="0 0 16.933 16.933"><g transform="translate(0 -280.067)"><g stroke="#000" stroke-linecap="round" stroke-linejoin="round" stroke-opacity=".196" stroke-width=".26" paint-order="fill markers stroke" transform="translate(-.163 -5.549)scale(1.01923)"><rect width="13.758" height="13.758" x="1.587" y="281.654" fill="#4d4d4d" rx=".825" ry=".825"/><path fill="#1f8fd7" d="M14.52 281.654c.458 0 .826.368.826.826v6.053h-6.88v-6.879zM2.413 295.413a.824.824 0 0 1-.826-.826v-6.054h6.88v6.88z"/></g><g paint-order="markers stroke fill"><rect width="13.758" height="13.758" x="1.587" y="281.654" fill="#4d4d4d" rx=".825" ry=".825"/><path fill="#1f8fd7" d="M14.52 281.654c.458 0 .826.368.826.826v6.053h-6.88v-6.879zM2.413 295.413a.824.824 0 0 1-.826-.826v-6.054h6.88v6.88z"/></g><path fill="#fff" d="m5.027 283.08.572 1.22 1.28.196-.926.949.219 1.34-1.145-.633-1.145.633.219-1.34-.926-.95 1.28-.195z"/><circle cx="11.906" cy="285.094" r="1.587" fill="#fff"/><path fill="#fff" d="M10.319 290.385h3.175v3.175h-3.175z"/><circle cx="5.027" cy="291.973" r="1.587" fill="#fff"/></g></svg>