<svg xmlns="http://www.w3.org/2000/svg" width="64" height="64" viewBox="0 0 16.933 16.933"><circle cx="8.467" cy="8.466" r="7.144" fill="#2eb6dc" stroke="#1a87a8" stroke-linecap="round" stroke-linejoin="round" stroke-width=".529" paint-order="markers stroke fill"/><g transform="translate(1.012 1.012)scale(.3106)"><path fill="#2eb6dc" d="M24 1c12.703 0 23 10.297 23 23S36.703 47 24 47 1 36.703 1 24 11.297 1 24 1"/><path fill="#f9f9f9" d="M24 10a14 14 0 0 0-14 14 14 14 0 0 0 14 14 14 14 0 0 0 14-14 14 14 0 0 0-14-14m0 2a12 12 0 0 1 12 12 12 12 0 0 1-12 12 12 12 0 0 1-12-12 12 12 0 0 1 12-12"/><circle cx="26.5" cy="25.499" r="2.5" fill="#f9f9f9"/><circle cx="35.5" cy="18.499" r="2.5" fill="#f9f9f9"/><circle cx="32.5" cy="34.499" r="2.5" fill="#f9f9f9"/><circle cx="11.5" cy="27.499" r="2.5" fill="#f9f9f9"/><path fill="#f9f9f9" fill-rule="evenodd" d="m34.881 17.715-8.785 6.93-14.629 1.963.266 1.982 14.34-1.924 5.594 8.484 1.668-1.102-5.451-8.266 8.236-6.498-1.238-1.57z" color="#000"/></g></svg>