<?xml version="1.0" encoding="UTF-8" standalone="no"?>
<svg
   xmlns:dc="http://purl.org/dc/elements/1.1/"
   xmlns:cc="http://creativecommons.org/ns#"
   xmlns:rdf="http://www.w3.org/1999/02/22-rdf-syntax-ns#"
   xmlns:svg="http://www.w3.org/2000/svg"
   xmlns="http://www.w3.org/2000/svg"
   xmlns:xlink="http://www.w3.org/1999/xlink"
   xmlns:sodipodi="http://sodipodi.sourceforge.net/DTD/sodipodi-0.dtd"
   xmlns:inkscape="http://www.inkscape.org/namespaces/inkscape"
   version="1.1"
   width="64"
   height="64"
   id="svg3489"
   sodipodi:docname="system-help.svg"
   inkscape:version="0.92.4 (5da689c313, 2019-01-14)">
  <sodipodi:namedview
     pagecolor="#ffffff"
     bordercolor="#666666"
     borderopacity="1"
     objecttolerance="10"
     gridtolerance="10"
     guidetolerance="10"
     inkscape:pageopacity="0"
     inkscape:pageshadow="2"
     inkscape:window-width="1366"
     inkscape:window-height="711"
     id="namedview29"
     showgrid="true"
     inkscape:zoom="5.2149125"
     inkscape:cx="12.865104"
     inkscape:cy="23.515955"
     inkscape:window-x="0"
     inkscape:window-y="27"
     inkscape:window-maximized="1"
     inkscape:current-layer="svg3489">
    <inkscape:grid
       type="xygrid"
       id="grid829" />
  </sodipodi:namedview>
  <defs
     id="defs3491">
    <linearGradient
       id="linearGradient4806">
      <stop
         id="stop4808"
         style="stop-color:#ffffff;stop-opacity:1"
         offset="0" />
      <stop
         id="stop4810"
         style="stop-color:#ffffff;stop-opacity:0.23529412"
         offset="0.42447853" />
      <stop
         id="stop4812"
         style="stop-color:#ffffff;stop-opacity:0.15686275"
         offset="0.82089913" />
      <stop
         id="stop4814"
         style="stop-color:#ffffff;stop-opacity:0.39215687"
         offset="1" />
    </linearGradient>
    <linearGradient
       id="linearGradient3820-7-2">
      <stop
         id="stop3822-2-6"
         style="stop-color:#000000;stop-opacity:1"
         offset="0" />
      <stop
         id="stop3824-1-2"
         style="stop-color:#000000;stop-opacity:0"
         offset="1" />
    </linearGradient>
    <linearGradient
       xlink:href="#linearGradient4806"
       id="linearGradient3293"
       gradientUnits="userSpaceOnUse"
       gradientTransform="matrix(2.3268746,0,0,2.3268746,-135.94475,-32.842783)"
       x1="71.204407"
       y1="15.369057"
       x2="71.204407"
       y2="40.495617" />
    <radialGradient
       xlink:href="#linearGradient3820-7-2"
       id="radialGradient3300"
       gradientUnits="userSpaceOnUse"
       gradientTransform="matrix(0.3823536,7.5555777e-8,-1.8372241e-8,0.1115198,-5.9254271,36.335849)"
       cx="99.189415"
       cy="185.29727"
       fx="99.189415"
       fy="185.29727"
       r="62.769119" />
    <radialGradient
       xlink:href="#linearGradient3820-7-2"
       id="radialGradient4192"
       gradientUnits="userSpaceOnUse"
       gradientTransform="matrix(0.2549024,5.3967361e-8,-1.2248161e-8,0.07965545,6.7163816,44.240666)"
       cx="99.189415"
       cy="185.29727"
       fx="99.189415"
       fy="185.29727"
       r="62.769119" />
    <linearGradient
       gradientTransform="matrix(2.261075,0,0,1.6903709,-4577.9225,-5418.7019)"
       gradientUnits="userSpaceOnUse"
       xlink:href="#linearGradient947"
       id="linearGradient11527-6-5"
       y2="3241.9966"
       x2="2035.1652"
       y1="3208.0737"
       x1="2035.1652" />
    <linearGradient
       id="linearGradient947">
      <stop
         id="stop943"
         style="stop-color:#64baff;stop-opacity:1"
         offset="0" />
      <stop
         id="stop945"
         style="stop-color:#3689e6;stop-opacity:1"
         offset="1" />
    </linearGradient>
  </defs>
  <metadata
     id="metadata3494">
    <rdf:RDF>
      <cc:Work
         rdf:about="">
        <dc:format>image/svg+xml</dc:format>
        <dc:type
           rdf:resource="http://purl.org/dc/dcmitype/StillImage" />
        <dc:title />
      </cc:Work>
    </rdf:RDF>
  </metadata>
  <path
     d="m 32.000001,4.4999991 c -15.173559,0 -27.5000022,12.3264409 -27.5000022,27.4999989 0,15.173559 12.3264432,27.500003 27.5000022,27.500003 15.173556,0 27.500025,-12.326444 27.5,-27.500003 0,-15.173558 -12.326444,-27.4999989 -27.5,-27.4999989 z"
     id="path2555-7-8-5-0-9"
     style="color:#000000;display:inline;overflow:visible;visibility:visible;opacity:1;fill:#489cf0;fill-opacity:0.99215686;fill-rule:nonzero;stroke:none;stroke-width:0.99999994;marker:none;enable-background:accumulate"
     inkscape:connector-curvature="0" />
  <path
     d="M 32,4.5 C 16.826448,4.5 4.4999988,16.826446 4.4999988,31.999998 4.4999988,47.173552 16.826448,59.500005 32,59.5 47.17355,59.5 59.50001,47.173552 59.500001,31.999998 59.500001,16.826446 47.17355,4.5 32,4.5 Z"
     id="path2555-7-1"
     style="color:#000000;clip-rule:nonzero;display:inline;overflow:visible;visibility:visible;opacity:0.5;isolation:auto;mix-blend-mode:normal;color-interpolation:sRGB;color-interpolation-filters:linearRGB;solid-color:#000000;solid-opacity:1;fill:none;fill-opacity:1;fill-rule:nonzero;stroke:#002e99;stroke-width:0.99999994;stroke-linecap:round;stroke-linejoin:round;stroke-miterlimit:4;stroke-dasharray:none;stroke-dashoffset:0;stroke-opacity:1;marker:none;color-rendering:auto;image-rendering:auto;shape-rendering:auto;text-rendering:auto;enable-background:accumulate"
     inkscape:connector-curvature="0" />
  <path
     style="color:#000000;font-style:normal;font-weight:bold;font-size:72px;font-family:'Standard Symbols L';display:inline;overflow:visible;visibility:visible;fill:#ffffff;fill-opacity:1;fill-rule:nonzero;stroke:none;stroke-width:0.99999994;marker:none;enable-background:accumulate"
     id="path3298"
     d="m 33.071103,38.355135 c -0.07774,-2.903092 0.543969,-5.721374 3.165728,-7.717671 2.769247,-2.257683 5.436253,-5.082354 5.154408,-8.412001 -0.06154,-3.211143 -3.637931,-5.727423 -7.491231,-6.089221 -4.334336,-0.628166 -9.578857,0.925214 -11.031264,4.46639 -0.736628,1.722307 -0.05353,4.812331 2.418583,4.812331 1.445944,0 2.110072,-0.977153 2.219178,-1.871014 0.08255,-0.676325 -0.182864,-1.280278 -0.339607,-1.838927 -0.1786,-0.636545 0.583829,-1.870234 1.414216,-2.372888 0.693885,-0.420027 1.419867,-0.56087 1.526879,-0.587778 2.491935,-0.626515 4.976036,0.757375 6.012447,2.441742 1.036411,1.684363 -0.104363,4.239218 -1.744536,6.723713 -1.640172,2.484499 -3.400371,5.306379 -3.393339,8.303682 0,1.141075 -0.09718,1.528724 -0.02813,1.990373 0.05518,0.368845 1.22262,0.324272 2.11667,0.151269 z m -1.137241,3.907406 c -2.382685,-0.135317 -4.031832,2.69046 -2.600434,4.490863 1.278307,1.987825 4.862384,1.497114 5.476693,-0.753898 0.63866,-1.75045 -0.898284,-3.766186 -2.876258,-3.736966 z"
     inkscape:connector-curvature="0" />
</svg>
