<svg xmlns="http://www.w3.org/2000/svg" width="64" height="64"><rect width="55" height="55" x="4.5" y="4.5" fill="#fb9246" color="#000" overflow="visible" rx="27.5" ry="27.5" style="marker:none"/><rect width="55" height="55" x="4.5" y="4.5" fill="none" stroke="#a62100" stroke-linecap="round" stroke-linejoin="round" color="#000" opacity=".5" overflow="visible" rx="27.5" ry="27.5" style="marker:none"/><path fill="#fff6e9" d="M31.47 16.008a16.02 16.02 0 0 0-10.795 4.672 16.006 16.006 0 0 0-1.308 21.125l3.365-3.364a11.3 11.3 0 0 1 1.275-14.43 11.31 11.31 0 0 1 11.761-2.647v4.045l2.683-2.682 1.314-1.313 2.046-2.045a16.02 16.02 0 0 0-10.34-3.36zm13.163 6.19-3.365 3.364a11.3 11.3 0 0 1-1.275 14.43 11.31 11.31 0 0 1-11.761 2.647v-4.045l-3.997 3.995-2.046 2.045c6.37 4.946 15.426 4.384 21.136-1.311a16.006 16.006 0 0 0 1.308-21.125" paint-order="stroke markers fill"/></svg>