<?xml version="1.0" encoding="UTF-8" standalone="no"?>
<!-- Created with Inkscape (http://www.inkscape.org/) -->

<svg
   xmlns:dc="http://purl.org/dc/elements/1.1/"
   xmlns:cc="http://creativecommons.org/ns#"
   xmlns:rdf="http://www.w3.org/1999/02/22-rdf-syntax-ns#"
   xmlns:svg="http://www.w3.org/2000/svg"
   xmlns="http://www.w3.org/2000/svg"
   xmlns:sodipodi="http://sodipodi.sourceforge.net/DTD/sodipodi-0.dtd"
   xmlns:inkscape="http://www.inkscape.org/namespaces/inkscape"
   width="64"
   height="64"
   viewBox="0 0 64 64.000003"
   id="svg2"
   version="1.1"
   inkscape:version="0.92.4 (5da689c313, 2019-01-14)"
   sodipodi:docname="system-switch-user.svg">
  <defs
     id="defs4" />
  <sodipodi:namedview
     id="base"
     pagecolor="#ffffff"
     bordercolor="#666666"
     borderopacity="1.0"
     inkscape:pageopacity="0.0"
     inkscape:pageshadow="2"
     inkscape:zoom="9.1260969"
     inkscape:cx="16.019445"
     inkscape:cy="18.490729"
     inkscape:document-units="px"
     inkscape:current-layer="layer1"
     showgrid="true"
     units="px"
     inkscape:showpageshadow="false"
     borderlayer="true"
     inkscape:window-width="1366"
     inkscape:window-height="711"
     inkscape:window-x="0"
     inkscape:window-y="27"
     inkscape:window-maximized="1"
     showguides="true"
     inkscape:guide-bbox="true">
    <inkscape:grid
       type="xygrid"
       id="grid4136" />
    <sodipodi:guide
       position="5,5.0000688"
       orientation="0,54"
       id="guide4144"
       inkscape:locked="false" />
    <sodipodi:guide
       position="59,5.0000688"
       orientation="-54,0"
       id="guide4146"
       inkscape:locked="false" />
    <sodipodi:guide
       position="59,59.000069"
       orientation="0,-54"
       id="guide4148"
       inkscape:locked="false" />
    <sodipodi:guide
       position="0,64.000069"
       orientation="64,0"
       id="guide4150"
       inkscape:locked="false" />
    <sodipodi:guide
       position="0,6.875e-05"
       orientation="0,64"
       id="guide4152"
       inkscape:locked="false" />
    <sodipodi:guide
       position="64,4.0000002"
       orientation="-64,0"
       id="guide4154"
       inkscape:locked="false" />
    <sodipodi:guide
       position="64,64.000069"
       orientation="0,-64"
       id="guide4156"
       inkscape:locked="false" />
    <sodipodi:guide
       position="5,41.000002"
       orientation="1,0"
       id="guide4174"
       inkscape:locked="false" />
  </sodipodi:namedview>
  <metadata
     id="metadata7">
    <rdf:RDF>
      <cc:Work
         rdf:about="">
        <dc:format>image/svg+xml</dc:format>
        <dc:type
           rdf:resource="http://purl.org/dc/dcmitype/StillImage" />
        <dc:title />
      </cc:Work>
    </rdf:RDF>
  </metadata>
  <g
     inkscape:label="Capa 1"
     inkscape:groupmode="layer"
     id="layer1"
     transform="translate(0,-1058.5196)">
    <circle
       style="opacity:1;fill:#66bb6a;fill-opacity:1;stroke:none;stroke-width:1;stroke-opacity:1"
       id="path4160"
       cx="32"
       cy="1090.5197"
       r="28" />
    <circle
       r="26.923077"
       cy="-1090.5197"
       cx="32"
       id="circle4251"
       style="opacity:1;fill:#81c784;fill-opacity:1;stroke:none;stroke-width:1;stroke-opacity:1"
       transform="scale(1,-1)" />
    <path
       style="opacity:1;fill:#ffffff;fill-opacity:1;stroke:none;stroke-width:2;stroke-linecap:round;stroke-linejoin:round;stroke-miterlimit:4;stroke-dasharray:none;stroke-opacity:1"
       d="m 34.960498,1075.5197 c -0.537005,0.021 -0.961296,0.4626 -0.960938,1 l 0,4 -14,0 c -0.55397,0 -1,0.446 -1,1 l 0,4 c 0,0.5539 0.44603,1 1,1 l 14,0 0,4 c 8.05e-4,0.8312 0.956494,1.2987 1.613281,0.789 l 9.001953,-7 c 0.514196,-0.4003 0.514196,-1.1777 0,-1.5781 l -9.001953,-7 c -0.185814,-0.1449 -0.416802,-0.2196 -0.652343,-0.2109 z"
       id="rect4186"
       inkscape:connector-curvature="0" />
    <path
       inkscape:connector-curvature="0"
       id="path4276"
       d="m 29.039503,1090.5197 c 0.537005,0.021 0.961296,0.4626 0.960938,1 l 0,4 14,0 c 0.55397,0 1,0.446 1,1 l 0,4 c 0,0.5539 -0.44603,1 -1,1 l -14,0 0,4 c -8.05e-4,0.8312 -0.956494,1.2987 -1.613281,0.789 l -9.001953,-7 c -0.514196,-0.4003 -0.514196,-1.1777 0,-1.5781 l 9.001953,-7 c 0.185814,-0.1449 0.416802,-0.2196 0.652343,-0.2109 z"
       style="opacity:1;fill:#ffffff;fill-opacity:1;stroke:none;stroke-width:2;stroke-linecap:round;stroke-linejoin:round;stroke-miterlimit:4;stroke-dasharray:none;stroke-opacity:1" />
  </g>
</svg>
