<svg xmlns="http://www.w3.org/2000/svg" width="64" height="64"><g transform="translate(0 -1058.52)"><circle cx="32" cy="1090.52" r="28" fill="#26c6da"/><circle cx="32" cy="-1090.52" r="26.923" fill="#4dd0e1" transform="scale(1 -1)"/><g fill="#fff" transform="translate(0 -1)"><rect width="4" height="8" x="30" y="1074.52" ry="2"/><rect width="4" height="8" x="30" y="1100.52" ry="2"/><rect width="4" height="8" x="1089.52" y="-49" ry="2" transform="rotate(90)"/><rect width="4" height="8" x="1089.52" y="-23" ry="2" transform="rotate(90)"/><rect width="4" height="8" x="747.194" y="-811.448" ry="2" transform="rotate(135)"/><rect width="4" height="8" x="747.194" y="-785.448" ry="2" transform="rotate(135)"/><rect width="4" height="8" x="792.448" y="732.194" ry="2" transform="rotate(45)"/><rect width="4" height="8" x="792.448" y="758.194" ry="2" transform="rotate(45)"/></g></g></svg>