<svg xmlns="http://www.w3.org/2000/svg" width="64" height="64" version="1.0"><g opacity=".5"><path fill="#ececec" stroke="#a8a8a8" d="M14.797 29.031c.251 1.49.328 2.83.047 4.469-2.91 2.415-10.355 3.5-10.344 6l-1 7.5c0 2.485 6.94 4.5 15.5 4.5s15.5-2.015 15.5-4.5l-1-7.5c-.012-2.14-7.5-3.5-10.375-6-.173-1.42-.12-2.81.07-4.211C22.083 30.634 21 31.884 21 32.137c-1 .484-2.53.484-3.5 0-.022-.27-1.39-1.665-2.703-3.106z"/><path fill="#f2f2f2" stroke="#bdbdbd" d="M19 12.5c-4.142 0-7.5 3.033-7.5 6.775.032 1.384.155 3.03 1 6.774.5 1.452 4.96 5.604 5 6.088.97.484 2.5.484 3.5 0 0-.484 4-4.636 4.5-6.088.951-3.892.949-5.323 1-6.774 0-3.742-3.358-6.775-7.5-6.775z"/></g><path fill="#ececec" stroke="#a8a8a8" d="M34.048 27.5c.61 2.902.949 5.098.455 8-3.85 3.22-13.695 4.667-13.68 8l-1.323 10c0 3.314 9.178 6 20.5 6s20.5-2.686 20.5-6l-1.323-10c-.015-2.853-9.919-4.667-13.721-8-.325-2.694-.067-5.306.496-8z"/><path fill="#f2f2f2" stroke="#bdbdbd" d="M40 7.5c-5.799 0-10.5 4.153-10.5 9.276.045 1.896.216 4.148 1.4 9.276.7 1.988 6.944 7.288 7 7.951 1.358.663 3.5.663 4.9 0 0-.663 5.6-5.963 6.3-7.95 1.332-5.33 1.329-7.29 1.4-9.277C50.5 11.653 45.799 7.5 40 7.5z"/></svg>