<svg width="64" height="64" version="1.1" viewBox="0 0 16.933 16.933" xmlns="http://www.w3.org/2000/svg">
 <g fill="#4b92d6">
  <path d="m8.3772 1.5785a6.8886 6.8886 0 1 1 0 13.776 6.8886 6.8886 0 0 1 0-13.776z" fill="#2c76bc" stroke="#2c76bc" stroke-width=".5101"/>
  <path d="m8.3851 1.588a6.879 6.879 0 1 1 0 13.757 6.879 6.879 0 0 1 0-13.757z" stroke-width=".96291"/>
 </g>
 <path d="M8.326 4.236A4.238 4.238 0 0 0 5.47 5.472a4.235 4.235 0 0 0-.346 5.589l.89-.89a2.99 2.99 0 0 1 .338-3.818 2.992 2.992 0 0 1 3.112-.7v1.07l.71-.71.347-.347.541-.541a4.238 4.238 0 0 0-2.736-.89zm3.484 1.637-.891.89a2.99 2.99 0 0 1-.338 3.818 2.992 2.992 0 0 1-3.111.7v-1.07l-1.058 1.057-.541.541a4.238 4.238 0 0 0 5.592-.347 4.235 4.235 0 0 0 .346-5.589z" fill="#fff" paint-order="stroke markers fill"/>
</svg>
