<svg xmlns="http://www.w3.org/2000/svg" width="64" height="64" viewBox="0 0 16.933 16.933"><path d="M8.467 1.588a6.879 6.879 0 1 1 0 13.757 6.879 6.879 0 0 1 0-13.757z" fill="#79c147" stroke-width=".529" stroke="#5a9632" opacity=".9"/><path d="M8.467 1.588a6.879 6.879 0 1 1 0 13.757 6.879 6.879 0 0 1 0-13.757z" fill="#79c147"/><g fill="#fff" stroke-width=".938"><path d="M4.233 7.902v1.13h4.234v-1.13m-4.234 0"/><path d="M4.375 9.596A4.248 4.248 0 0 0 8.458 12.7c2.323 0 4.242-1.895 4.242-4.233 0-2.339-1.92-4.234-4.242-4.234a4.248 4.248 0 0 0-4.083 3.105h1.093a3.225 3.225 0 0 1 2.99-2.046c1.782 0 3.21 1.422 3.21 3.175 0 1.75-1.429 3.175-3.21 3.175a3.2 3.2 0 0 1-3.007-2.046m-1.076 0"/></g></svg>