<svg xmlns="http://www.w3.org/2000/svg" width="64" height="64" viewBox="0 0 16.933 16.933"><g fill="#4b92d6"><path fill="#2c76bc" stroke="#2c76bc" stroke-width=".51" d="M8.377 1.579a6.889 6.889 0 1 1 0 13.776 6.889 6.889 0 0 1 0-13.776z"/><path d="M8.385 1.588a6.879 6.879 0 1 1 0 13.757 6.879 6.879 0 0 1 0-13.757"/></g><path fill="#fff" d="M8.326 4.236A4.24 4.24 0 0 0 5.47 5.472a4.235 4.235 0 0 0-.346 5.589l.89-.89a2.99 2.99 0 0 1 .338-3.818 2.99 2.99 0 0 1 3.112-.7v1.07l.71-.71.347-.347.541-.541a4.24 4.24 0 0 0-2.736-.89zm3.484 1.637-.891.89a2.99 2.99 0 0 1-.338 3.818 2.99 2.99 0 0 1-3.111.7v-1.07l-1.058 1.057-.541.541a4.24 4.24 0 0 0 5.592-.347 4.235 4.235 0 0 0 .346-5.589z" paint-order="stroke markers fill"/></svg>