<svg xmlns="http://www.w3.org/2000/svg" width="64" height="64"><path fill="#33d17a" stroke="#000" stroke-linecap="round" stroke-linejoin="round" stroke-opacity=".2" d="M9.998 6.001a3.99 3.99 0 0 0-2.83 1.169l31.33 48.661L56.828 7.17A3.99 3.99 0 0 0 53.998 6z"/><path fill="#5799e9" stroke="#000" stroke-linecap="round" stroke-linejoin="round" stroke-opacity=".2" d="M7.17 7.171A3.99 3.99 0 0 0 6 10.004v43.998a3.99 3.99 0 0 0 1.17 2.832l48.663-3.165L32 32.003z"/><path fill="#837f8a" stroke="#000" stroke-linecap="round" stroke-linejoin="round" stroke-opacity=".2" d="M56.829 7.171 44.998 19.004l4.333 8.666 8.667 4.333v-22a3.99 3.99 0 0 0-1.169-2.831z"/><path fill="#f8db51" stroke="#000" stroke-linecap="round" stroke-linejoin="round" stroke-opacity=".2" d="m31.999 32 13-13 12.999 13.002-10.834 19.5z" style="paint-order:normal"/><path fill="#b78860" stroke="#000" stroke-linecap="round" stroke-linejoin="round" stroke-opacity=".2" d="M57.999 32 31.998 58h22A3.99 3.99 0 0 0 58 54z"/><path fill="#ff9536" stroke="#000" stroke-linecap="round" stroke-linejoin="round" stroke-opacity=".2" d="M45 44.999H18.999l13-12.999z"/><path fill="#f65960" stroke="#000" stroke-linecap="round" stroke-linejoin="round" stroke-opacity=".2" d="M18.999 44.999 7.168 56.832a3.99 3.99 0 0 0 2.83 1.167H32l13-13z"/></svg>