<svg xmlns="http://www.w3.org/2000/svg" width="64" height="64"><path fill="#5059c9" stroke="#4047ac" stroke-width="2" d="M51.5 10a6.5 6.5 0 0 0-6.5 6.5 6.5 6.5 0 0 0 6.5 6.5 6.5 6.5 0 0 0 6.5-6.5 6.5 6.5 0 0 0-6.5-6.5zm-7.465 16A2.03 2.03 0 0 0 42 28.035v13.952h.012A9.5 9.5 0 0 0 51.5 51a9.5 9.5 0 0 0 9.488-9.013H61V28.035A2.03 2.03 0 0 0 58.965 26z"/><path fill="#5059c9" d="M51.5 10a6.5 6.5 0 0 0-6.5 6.5 6.5 6.5 0 0 0 6.5 6.5 6.5 6.5 0 0 0 6.5-6.5 6.5 6.5 0 0 0-6.5-6.5m-7.465 16A2.03 2.03 0 0 0 42 28.035v13.952h.012A9.5 9.5 0 0 0 51.5 51a9.5 9.5 0 0 0 9.488-9.013H61V28.035A2.03 2.03 0 0 0 58.965 26z"/><path fill="#7b83eb" stroke="#5059c9" stroke-width="2" d="M33.5 4a9.5 9.5 0 0 0-9.5 9.5 9.5 9.5 0 0 0 9.5 9.5 9.5 9.5 0 0 0 9.5-9.5A9.5 9.5 0 0 0 33.5 4zM22.295 26A3.287 3.287 0 0 0 19 29.295v16.478h.002A14.5 14.5 0 0 0 33.5 60a14.5 14.5 0 0 0 14.496-14.227H48V29.295A3.287 3.287 0 0 0 44.705 26z"/><path fill="#7b83eb" d="M33.5 4a9.5 9.5 0 0 0-9.5 9.5 9.5 9.5 0 0 0 9.5 9.5 9.5 9.5 0 0 0 9.5-9.5A9.5 9.5 0 0 0 33.5 4M22.295 26A3.287 3.287 0 0 0 19 29.295v16.478h.002A14.5 14.5 0 0 0 33.5 60a14.5 14.5 0 0 0 14.496-14.227H48V29.295A3.287 3.287 0 0 0 44.705 26z"/><rect width="29" height="29" x="3" y="18" fill="#5059c9" stroke="#3e4598" stroke-width="2" rx="1.977" ry="1.977"/><rect width="29" height="29" x="3" y="18" fill="#5059c9" rx="1.977" ry="1.977"/><path d="M10 25v5h5v13h5V30h5v-5z" opacity=".1"/><path fill="#fff" d="M10 24v5h5v13h5V29h5v-5z"/></svg>