<svg xmlns="http://www.w3.org/2000/svg" width="64" height="64" viewBox="0 0 16.933 16.933"><g paint-order="stroke markers fill"><path fill="#424242" stroke="#000" stroke-width=".529" d="M1.344 2.381H15.59c.157 0 .284.13.284.29v11.59a.284.29 0 0 1-.285.29H1.344a.284.29 0 0 1-.286-.29V2.671c0-.16.128-.29.286-.29z" opacity=".85"/><path fill="#454b4b" d="M1.344 2.381H15.59c.157 0 .284.13.284.29v11.59a.284.29 0 0 1-.285.29H1.344a.284.29 0 0 1-.286-.29V2.671c0-.16.128-.29.286-.29"/><path d="M8.467 2.381v12.171h7.122a.284.29 0 0 0 .286-.29V2.672a.284.29 0 0 0-.286-.29z" opacity=".15"/><g fill="#fff"><g transform="translate(-.222 -138.93)scale(.50244)"><rect width="4.233" height=".529" x="5.292" y="289.06" ry=".265" transform="translate(4.082 .6)"/><path d="M8.055 284.862a.26.26 0 0 0-.262.13.264.264 0 0 0 .097.362l2.842 1.64-2.842 1.641a.264.264 0 0 0-.097.361c.074.127.235.17.362.098l3.208-1.853a.26.26 0 0 0 .127-.224q.002-.011.002-.023 0-.011-.002-.022a.26.26 0 0 0-.127-.224l-3.208-1.853a.3.3 0 0 0-.1-.033"/></g><g transform="translate(-.222 -138.93)scale(.50244)"><rect width="4.233" height=".529" x="5.292" y="289.06" ry=".265" transform="translate(4.082 .6)"/><path d="M8.055 284.862a.26.26 0 0 0-.262.13.264.264 0 0 0 .097.362l2.842 1.64-2.842 1.641a.264.264 0 0 0-.097.361c.074.127.235.17.362.098l3.208-1.853a.26.26 0 0 0 .127-.224q.002-.011.002-.023 0-.011-.002-.022a.26.26 0 0 0-.127-.224l-3.208-1.853a.3.3 0 0 0-.1-.033"/></g></g><g fill="#fff"><g transform="translate(6.514 -138.93)scale(.50244)"><rect width="4.233" height=".529" x="5.292" y="289.06" ry=".265" transform="translate(4.082 .6)"/><path d="M8.055 284.862a.26.26 0 0 0-.262.13.264.264 0 0 0 .097.362l2.842 1.64-2.842 1.641a.264.264 0 0 0-.097.361c.074.127.235.17.362.098l3.208-1.853a.26.26 0 0 0 .127-.224q.002-.011.002-.023 0-.011-.002-.022a.26.26 0 0 0-.127-.224l-3.208-1.853a.3.3 0 0 0-.1-.033"/></g><g transform="translate(6.514 -138.93)scale(.50244)"><rect width="4.233" height=".529" x="5.292" y="289.06" ry=".265" transform="translate(4.082 .6)"/><path d="M8.055 284.862a.26.26 0 0 0-.262.13.264.264 0 0 0 .097.362l2.842 1.64-2.842 1.641a.264.264 0 0 0-.097.361c.074.127.235.17.362.098l3.208-1.853a.26.26 0 0 0 .127-.224q.002-.011.002-.023 0-.011-.002-.022a.26.26 0 0 0-.127-.224l-3.208-1.853a.3.3 0 0 0-.1-.033"/></g></g></g></svg>