<svg xmlns="http://www.w3.org/2000/svg" width="64" height="64" viewBox="0 0 16.933 16.933"><g paint-order="stroke markers fill"><path d="M1.852 2.91h13.23c.146 0 .264.118.264.265v10.583a.264.264 0 0 1-.265.265H1.852a.264.264 0 0 1-.265-.265V3.175c0-.147.119-.265.265-.265z" opacity=".85" fill="#424242" stroke="#000" stroke-width=".529"/><path d="M1.852 2.91h13.23c.146 0 .264.118.264.265v10.583a.264.264 0 0 1-.265.265H1.852a.264.264 0 0 1-.265-.265V3.175c0-.147.119-.265.265-.265z" fill="#424242"/><path d="M8.467 2.91v11.113h6.614a.264.264 0 0 0 .265-.265V3.175a.264.264 0 0 0-.265-.265H8.467z" opacity=".15"/><g fill="#fff"><g transform="translate(-.222 -138.93) scale(.50244)"><rect ry=".265" y="289.063" x="5.292" height=".529" width="4.233" transform="translate(4.082 .6)"/><path d="M8.055 284.862a.264.264 0 0 0-.262.13.264.264 0 0 0 .097.362l2.842 1.64-2.842 1.641a.264.264 0 0 0-.097.361c.074.127.235.17.362.098l3.208-1.853a.26.26 0 0 0 .127-.224c.002-.008.001-.015.002-.023 0-.008 0-.014-.002-.022a.26.26 0 0 0-.127-.224l-3.208-1.853a.266.266 0 0 0-.1-.033z"/></g><g transform="translate(-.222 -138.93) scale(.50244)"><rect transform="translate(4.082 .6)" width="4.233" height=".529" x="5.292" y="289.063" ry=".265"/><path d="M8.055 284.862a.264.264 0 0 0-.262.13.264.264 0 0 0 .097.362l2.842 1.64-2.842 1.641a.264.264 0 0 0-.097.361c.074.127.235.17.362.098l3.208-1.853a.26.26 0 0 0 .127-.224c.002-.008.001-.015.002-.023 0-.008 0-.014-.002-.022a.26.26 0 0 0-.127-.224l-3.208-1.853a.266.266 0 0 0-.1-.033z"/></g></g><g fill="#fff"><g transform="translate(6.514 -138.93) scale(.50244)"><rect transform="translate(4.082 .6)" width="4.233" height=".529" x="5.292" y="289.063" ry=".265"/><path d="M8.055 284.862a.264.264 0 0 0-.262.13.264.264 0 0 0 .097.362l2.842 1.64-2.842 1.641a.264.264 0 0 0-.097.361c.074.127.235.17.362.098l3.208-1.853a.26.26 0 0 0 .127-.224c.002-.008.001-.015.002-.023 0-.008 0-.014-.002-.022a.26.26 0 0 0-.127-.224l-3.208-1.853a.266.266 0 0 0-.1-.033z"/></g><g transform="translate(6.514 -138.93) scale(.50244)"><rect ry=".265" y="289.063" x="5.292" height=".529" width="4.233" transform="translate(4.082 .6)"/><path d="M8.055 284.862a.264.264 0 0 0-.262.13.264.264 0 0 0 .097.362l2.842 1.64-2.842 1.641a.264.264 0 0 0-.097.361c.074.127.235.17.362.098l3.208-1.853a.26.26 0 0 0 .127-.224c.002-.008.001-.015.002-.023 0-.008 0-.014-.002-.022a.26.26 0 0 0-.127-.224l-3.208-1.853a.266.266 0 0 0-.1-.033z"/></g></g></g></svg>