<svg xmlns="http://www.w3.org/2000/svg" width="64" height="64" version="1"><rect width="52" height="52" x="6" y="6" fill="#e6e6e6" stroke="#c2c2c2" stroke-width="2" rx="6" ry="6"/><rect width="52" height="52" x="6" y="6" fill="#e6e6e6" rx="6" ry="6"/><rect width="44" height="44" x="10" y="10" fill="#f2f2f2" rx="2" ry="2"/><path fill="#a57959" stroke="#000" stroke-opacity=".15" d="M31.42 29.814c-.702.4-1.502.613-2.315.614-.085 0-.165-.017-.248-.022v8.761l-2-2.231a2.1 2.1 0 0 1-1.668.825 2 2 0 0 1-.052.451l3.72 4.067v6.645c-2.584.829-3.143 2.788-3.143 5.076h12.572c0-2.288-.56-4.247-3.143-5.076v-2.167l3.796-3.667a2.095 2.245 0 0 1-.128-.762 2.095 2.245 0 0 1 .282-1.127 2.095 2.245 0 0 1-.012-.017 2.095 2.245 0 0 1-.27.02 2.095 2.245 0 0 1-.885-.21l-2.783 2.65V30.192a4.7 4.7 0 0 1-1.407.236 4.7 4.7 0 0 1-2.316-.614z"/><path fill="#1c8d43" stroke="#000" stroke-opacity=".15" d="M31.42 10a4.68 4.68 0 0 0-3.275 1.335 4.7 4.7 0 0 0-1.356-.2c-2.558 0-4.632 2.033-4.632 4.54a4.48 4.48 0 0 0 1.093 2.922A4.52 4.52 0 0 0 21 22.486c.002 2.114 1.493 3.947 3.597 4.42.482 2.06 2.352 3.52 4.508 3.523a4.7 4.7 0 0 0 2.315-.614c.704.4 1.502.612 2.316.614a4.65 4.65 0 0 0 4.031-2.309c2.324-.275 4.073-2.207 4.076-4.502a5 5 0 0 0-.022-.386A4.49 4.49 0 0 0 43 20.215c-.003-2.115-1.494-3.948-3.597-4.42-.437-1.862-2.02-3.258-3.957-3.489a4.65 4.65 0 0 0-4.026-2.305zm-8.324 23.572A2.095 2.095 0 0 0 21 35.668a2.1 2.1 0 0 0 .282 1.047A2.1 2.1 0 0 0 21 37.762a2.095 2.095 0 0 0 2.096 2.096 2.095 2.095 0 0 0 2.093-2.096 2.095 2.095 0 0 0 2.097-2.094 2.095 2.095 0 0 0-2.097-2.096 2.1 2.1 0 0 0-1.046.283 2.1 2.1 0 0 0-1.047-.283zm15.715 3.143a2.095 2.245 0 0 0-2.096 2.244 2.095 2.245 0 0 0 2.096 2.246 2.095 2.245 0 0 0 .27-.02 2.095 2.245 0 0 0 .013.017 2.095 2.245 0 0 0-.283 1.126 2.095 2.245 0 0 0 2.093 2.244 2.095 2.245 0 0 0 2.097-2.244 2.095 2.245 0 0 0-.283-1.123A2.095 2.245 0 0 0 43 40.083a2.095 2.245 0 0 0-2.097-2.244 2.095 2.245 0 0 0-.27.022 2.095 2.245 0 0 0-1.823-1.146z"/></svg>