<svg xmlns="http://www.w3.org/2000/svg" width="64" height="64" viewBox="0 0 16.933 16.933"><defs><linearGradient id="a" x1="22.004" x2="22.004" y1="44.854" y2="3.072" gradientTransform="translate(-.044 .309)scale(.35276)" gradientUnits="userSpaceOnUse"><stop offset="0" stop-color="#a0a0a0"/><stop offset="1" stop-color="#c8c8c8"/></linearGradient></defs><rect width="11.906" height="14.023" x="2.514" y="1.455" fill="#f3f3f3" stroke="#5e5750" stroke-linecap="round" stroke-linejoin="round" stroke-opacity=".255" stroke-width=".265" rx="0" ry="0" style="paint-order:fill markers stroke"/><g fill="#bad5ff" fill-opacity=".592"><rect width=".09" height="11.545" x="7.158" y="-14.191" rx="0" ry="0" style="paint-order:markers stroke fill" transform="rotate(90)"/><rect width=".09" height="11.545" x="7.878" y="-14.191" rx="0" ry="0" style="paint-order:markers stroke fill" transform="rotate(90)"/><rect width=".09" height="11.545" x="11.377" y="-14.191" rx="0" ry="0" style="paint-order:markers stroke fill" transform="rotate(90)"/><rect width=".09" height="11.545" x="12.345" y="-14.191" rx="0" ry="0" style="paint-order:markers stroke fill" transform="rotate(90)"/><rect width=".18" height="13.758" x="13.049" y="1.587" rx="0" ry="0" style="paint-order:markers stroke fill"/></g><rect width=".18" height="13.758" x="4.233" y="1.587" fill="#f6b6b6" fill-opacity=".694" rx="0" ry="0" style="paint-order:markers stroke fill"/><rect width=".09" height="11.545" x="3.879" y="-14.191" fill="#bad5ff" fill-opacity=".592" rx="0" ry="0" style="paint-order:markers stroke fill" transform="rotate(90)"/><path fill="none" stroke="url(#a)" stroke-width=".265" d="M4.542 4.365h.828m.118 0h.77m.123 0h.686m.113 0h.296m.118 0h.663m.13 0h1.74m.118 0h1.325m.118 0h.403m-7.55.794h1.285m.15 0h.613m.113 0h.303m.123 0h.566m.118 0h.58m.11 0h.91m.118 0h1.2m-6.188.79h1.087m.114 0h1.79m.11 0h.868m.111 0h.812m.117 0h.692m.111 0 1.088.007m-6.9.79h1.51m.12 0h1.633m.113 0h.642m.118 0h1.528m.103 0h1.047m.118 0h.415m.118 0h.23m-7.695.794h.564m.173 0h2.089m-2.826 3.44h1.284m.15 0h.613m.113 0h.303m.123 0h.566m.118 0h.58m.11 0h.91m-4.87 1.047h1.087m.114 0h1.79m.11 0h.868m3.068.022h1.773m-8.81-1.863h1.51m.12 0h1.633m.113 0h.642m.118 0h1.528M4.542 8.599h.828m.118 0h.77m.123 0h.686m.113 0h.296m.118 0h.663m.13 0h1.74m.118 0h1.325m-7.028.793h1.394m.11 0h1.481m.113 0h.58m.109 0h1.393m.112 0h1.522m-6.814 3.44h1.303m.14 0h.575m.134 0h.287m.091 0h.566m.075 0h2.996m.14 0h.8m.108 0h.202m-5.932.794h.425m-1.91 0h1.36m.659 0h.989m.105 0h1.452m.113 0h.985m.1 0h.202m.111 0h1.251m.128 0h.655m-6.625.793h.6m-2.085 0h1.36m.855 0h.844"/><g fill="#bad5ff" fill-opacity=".592" transform="rotate(90)"><rect width=".09" height="11.545" x="4.672" y="-14.191" rx="0" ry="0" style="paint-order:markers stroke fill"/><rect width=".09" height="11.545" x="5.466" y="-14.191" rx="0" ry="0" style="paint-order:markers stroke fill"/><rect width=".09" height="11.545" x="6.26" y="-14.191" rx="0" ry="0" style="paint-order:markers stroke fill"/><rect width=".09" height="11.545" x="7.878" y="-14.191" rx="0" ry="0" style="paint-order:markers stroke fill"/><rect width=".09" height="11.545" x="8.906" y="-14.191" rx="0" ry="0" style="paint-order:markers stroke fill"/><rect width=".09" height="11.545" x="9.699" y="-14.191" rx="0" ry="0" style="paint-order:markers stroke fill"/><rect width=".09" height="11.545" x="10.493" y="-14.191" rx="0" ry="0" style="paint-order:markers stroke fill"/><rect width=".09" height="11.545" x="13.139" y="-14.191" rx="0" ry="0" style="paint-order:markers stroke fill"/><rect width=".09" height="11.545" x="13.933" y="-14.191" rx="0" ry="0" style="paint-order:markers stroke fill"/></g><g fill="#fff"><g stroke="#32a3d7" stroke-width=".529"><path stroke="#a7a7a7" d="M6.193 11.936h.64V9.264h.91V8.73H5.292v.533h.9z" aria-label="T"/><path stroke="#a7a7a7" d="M7.937 13.523h2.014v-.537H8.578v-.857h1.127v-.537H8.578v-.741h1.326v-.533H7.937z" aria-label="E"/><g aria-label="X"><path stroke="#a7a7a7" d="M10.583 12.465h.68l.342-.71c.078-.164.152-.333.234-.528h.018c.095.195.168.364.25.528l.36.71h.71l-.9-1.624.844-1.58h-.675l-.304.658a10 10 0 0 0-.212.506h-.021c-.096-.199-.165-.355-.239-.506l-.32-.659h-.71l.844 1.55z"/><path stroke="none" d="M10.583 12.465h.68l.342-.71c.078-.164.152-.333.234-.528h.018c.095.195.168.364.25.528l.36.71h.71l-.9-1.624.844-1.58h-.675l-.304.658a10 10 0 0 0-.212.506h-.021c-.096-.199-.165-.355-.239-.506l-.32-.659h-.71l.844 1.55z"/></g></g><path d="M6.193 11.936h.64V9.264h.91V8.73H5.292v.533h.9z" aria-label="T"/><path d="M7.937 13.523h2.014v-.537H8.578v-.857h1.127v-.537H8.578v-.741h1.326v-.533H7.937z" aria-label="E"/></g></svg>