<svg xmlns="http://www.w3.org/2000/svg" xmlns:xlink="http://www.w3.org/1999/xlink" width="64" height="64" viewBox="0 0 16.933 16.933"><defs><linearGradient xlink:href="#a" id="b" x1="22.004" x2="22.004" y1="44.854" y2="3.072" gradientTransform="translate(-.044 280.376)scale(.35276)" gradientUnits="userSpaceOnUse"/><linearGradient id="a"><stop offset="0" stop-color="#a0a0a0"/><stop offset="1" stop-color="#c8c8c8"/></linearGradient></defs><g transform="translate(0 -280.067)"><rect width="11.906" height="14.023" x="2.514" y="281.522" fill="#f3f3f3" stroke="#5e5750" stroke-linecap="round" stroke-linejoin="round" stroke-opacity=".255" stroke-width=".265" paint-order="fill markers stroke" rx="0" ry="0"/><rect width=".09" height="11.545" x="287.225" y="-14.191" fill="#bad5ff" fill-opacity=".592" paint-order="markers stroke fill" rx="0" ry="0" transform="rotate(90)"/><rect width=".09" height="11.545" x="287.945" y="-14.191" fill="#bad5ff" fill-opacity=".592" paint-order="markers stroke fill" rx="0" ry="0" transform="rotate(90)"/><rect width=".09" height="11.545" x="291.444" y="-14.191" fill="#bad5ff" fill-opacity=".592" paint-order="markers stroke fill" rx="0" ry="0" transform="rotate(90)"/><rect width=".09" height="11.545" x="292.412" y="-14.191" fill="#bad5ff" fill-opacity=".592" paint-order="markers stroke fill" rx="0" ry="0" transform="rotate(90)"/><rect width=".18" height="13.758" x="13.049" y="281.654" fill="#bad5ff" fill-opacity=".592" paint-order="markers stroke fill" rx="0" ry="0"/><rect width=".18" height="13.758" x="4.233" y="281.654" fill="#f6b6b6" fill-opacity=".694" paint-order="markers stroke fill" rx="0" ry="0"/><rect width=".09" height="11.545" x="283.946" y="-14.191" fill="#bad5ff" fill-opacity=".592" paint-order="markers stroke fill" rx="0" ry="0" transform="rotate(90)"/><path fill="none" stroke="url(#b)" stroke-width=".265" d="M4.542 284.432h.828m.118 0h.77m.123 0h.686m.113 0h.296m.118 0h.663m.13 0h1.74m.118 0h1.325m.118 0h.403m-7.55.794h1.285m.15 0h.613m.113 0h.303m.123 0h.566m.118 0h.58m.11 0h.91m.118 0h1.2m-6.188.79h1.087m.114 0h1.79m.11 0h.868m.111 0h.812m.117 0h.692m.111 0 1.088.007m-6.9.79h1.51m.12 0h1.633m.113 0h.642m.118 0h1.528m.103 0h1.047m.118 0h.415m.118 0h.23m-7.695.794h.564m.173 0h2.089m-2.826 3.44h1.284m.15 0h.613m.113 0h.303m.123 0h.566m.118 0h.58m.11 0h.91m-4.87 1.047h1.087m.114 0h1.79m.11 0h.868m3.068.022h1.773m-8.81-1.863h1.51m.12 0h1.633m.113 0h.642m.118 0h1.528m-5.664-1.587h.828m.118 0h.77m.123 0h.686m.113 0h.296m.118 0h.663m.13 0h1.74m.118 0h1.325m-7.028.793h1.394m.11 0h1.481m.113 0h.58m.109 0h1.393m.112 0h1.522m-6.814 3.44h1.303m.14 0h.575m.134 0h.287m.091 0h.566m.075 0h2.996m.14 0h.8m.108 0h.202m-5.932.794h.425m-1.91 0h1.36m.659 0h.989m.105 0h1.452m.113 0h.985m.1 0h.202m.111 0h1.251m.128 0h.655m-6.625.793h.6m-2.085 0h1.36m.855 0h.844"/><rect width=".09" height="11.545" x="284.739" y="-14.191" fill="#bad5ff" fill-opacity=".592" paint-order="markers stroke fill" rx="0" ry="0" transform="rotate(90)"/><rect width=".09" height="11.545" x="285.533" y="-14.191" fill="#bad5ff" fill-opacity=".592" paint-order="markers stroke fill" rx="0" ry="0" transform="rotate(90)"/><rect width=".09" height="11.545" x="286.327" y="-14.191" fill="#bad5ff" fill-opacity=".592" paint-order="markers stroke fill" rx="0" ry="0" transform="rotate(90)"/><rect width=".09" height="11.545" x="287.945" y="-14.191" fill="#bad5ff" fill-opacity=".592" paint-order="markers stroke fill" rx="0" ry="0" transform="rotate(90)"/><rect width=".09" height="11.545" x="288.973" y="-14.191" fill="#bad5ff" fill-opacity=".592" paint-order="markers stroke fill" rx="0" ry="0" transform="rotate(90)"/><rect width=".09" height="11.545" x="289.766" y="-14.191" fill="#bad5ff" fill-opacity=".592" paint-order="markers stroke fill" rx="0" ry="0" transform="rotate(90)"/><rect width=".09" height="11.545" x="290.56" y="-14.191" fill="#bad5ff" fill-opacity=".592" paint-order="markers stroke fill" rx="0" ry="0" transform="rotate(90)"/><rect width=".09" height="11.545" x="293.206" y="-14.191" fill="#bad5ff" fill-opacity=".592" paint-order="markers stroke fill" rx="0" ry="0" transform="rotate(90)"/><rect width=".09" height="11.545" x="294" y="-14.191" fill="#bad5ff" fill-opacity=".592" paint-order="markers stroke fill" rx="0" ry="0" transform="rotate(90)"/><path fill="#333" stroke="#0c0c0c" stroke-linejoin="round" stroke-width=".132" d="M8.355 291.19c.157-.119.599.103 1.004.506s.618.834.503.993c0 0 .01.008.01.01l5.647-5.676c.143-.144-.08-.6-.498-1.016s-.875-.637-1.018-.493z"/><path fill="#94d2ff" stroke="#6d89ca" stroke-linejoin="round" stroke-width=".132" d="M13.313 286.207c.158-.118.6.103 1.005.507.404.402.618.833.502.992l.01.01.689-.693.014-.015-.01-.009c.116-.159-.097-.59-.502-.992-.406-.404-.847-.625-1.004-.507l-.014.014z" opacity=".8"/><path fill="#b3b3b3" d="M12.476 287.048c.158-.118.6.103 1.005.507.404.402.618.833.502.992l.01.01.07-.071-.01-.01c.116-.159-.097-.59-.502-.992-.406-.404-.847-.625-1.004-.507l-.07.07z"/><path fill="#b3b3b3" d="M12.7 286.823c.158-.118.6.103 1.005.507.404.402.617.833.502.992l.01.01.07-.071-.01-.01c.116-.159-.097-.59-.502-.992-.406-.404-.847-.625-1.004-.507l-.07.07z"/><path fill="#b3b3b3" d="M12.925 286.596c.158-.118.6.104 1.005.507s.618.834.502.993l.01.01.07-.072-.01-.009c.116-.159-.097-.59-.502-.992-.406-.404-.847-.625-1.004-.507z"/><path fill="#f5f1d0" fill-rule="evenodd" stroke="#dbce48" stroke-width=".132" d="m7.273 293.758 2.57-1.048.021-.022c.115-.159-.1-.59-.505-.992-.406-.404-.847-.624-1.004-.506z"/><path fill="#0c0c0c" fill-rule="evenodd" stroke="#0c0c0c" stroke-width=".132" d="m7.566 293.063-.294.692.701-.287c-.056-.067-.108-.135-.175-.203a3 3 0 0 0-.232-.202z"/></g></svg>