<svg width="64" height="64" version="1.1" xmlns="http://www.w3.org/2000/svg">
 <g stroke="#000" stroke-linecap="round" stroke-linejoin="round" stroke-opacity=".196">
  <path d="M12.849 49.816c2.429 3.494 5.564 7.61 9.144 8.162-1.4-.81-4.901-3.98-5.998-9.996 1.164 2.28 6.42 5.303 7.997 5.997-.784-.731-3.792-5.12-3.999-7.696l-10.084-3.1c.063.095.286 2.9 2.94 6.633z" fill="#304776"/>
  <path d="M48.757 24.98l-18.182-6.377-19.486 1.299-4.973 6.206c.885 5.737.335 11.947 3.417 16.959l34.45 10.912 4.745-13.243z" fill="#e6e6e6"/>
  <path d="M11.556 19.529l3.282.469.902-4.394-1.803.879z" fill="#3f7da7" fill-rule="evenodd"/>
  <path d="M47.278 28.476l-2.698-8.861-32.994-.331-.188.23-.309.388L24 38z" fill="#f7f7f7"/>
  <path d="M30.504 8.335c-.004.001-4.149.02-5.958.601-3.015.696-5.72 1.979-8.4 3.464-3.48 2.34-6.33 5.579-8.531 9.124-1.937 3.418-3.11 7.22-3.546 11.115-.26 3.95.193 7.975 1.68 11.67 2.816 6.347 9.786 13.748 16.244 13.669-.82-.127-1.445-.958-2.216-1.408-2.592-1.515-5.056-4.061-6.928-6.754-2.654-3.732-2.877-6.537-2.94-6.632l.036.01c-.887-2.804-1.414-5.704-1.737-8.67-.042-.663-.124-1.381.114-1.205.893 1.416 2.124 1.864 3.675 2.668-1.47-2.313-2.141-4.964-1.9-7.713.243-2.758 1.8-5.432 3.508-7.414 4.478-5.126 11.012-9.273 16.899-12.525z" fill="#2f5da4"/>
  <path d="M25.99 4c-4.736.126-7.397 4.978-9.264 8.722-.672 1.19-1.37 2.603-1.957 3.727-1.124 1.771-.464 3.899-.231 5.837-.025.53.3 1.646.046 1.758-.514 1.553-1.004 3.557.225 4.913.39-1.755 2.305-2.6 3.815-3.34 1.706-.74 3.087-2.362 4.777-3.141 2.227-1.277 4.376.524 7.237.524 2.734 0 5.623-1 8.329-2.216.63.651 1.756 1.71 2.248 2.482h-.007c1.41 2.256 2.388 4.878 2.71 7.451.4 3.366.064 6.718-1.926 9.266l-.016.004h.014c.041.005 3.61.259 5.992-2.001-1.699 13.135-9.753 20.157-13.994 21.99 5.646.38 9.995-3.998 9.995-3.998.822-1.169-1.984 2.796-3.998 3.999 3.69-1.033 6.16-1.409 8.488-3.107-.001 0 1.891-1.03 3.865-3.282.263-.3.714-.715.984-1.056.168-.212.324-.43.488-.642.029-.035.062-.069.09-.104 4.154-5.082 6.177-11.4 6.027-17.126.029-6.94-2.788-12.965-7.52-17.946-3.422-3.602-7.309-6.006-10.81-7.199-4.534-1.302-10.13-1.857-14.131-1.1-.38.127.056-2.083.524-2.416-1.122.105-2.338 2.593-3.248 3.146.747-1.236.351-1.977 1.249-3.146-3.337.623-2.927 3.407-4.979 5.352.676-3.614 2.167-5.025 4.979-7.351z" fill="#4a7ae1"/>
  <path d="M16.615 23.992c6.665-.192 2.48-4.323 11.375-11.995-7.246 3.752-14.144 3.746-11.366 11.995h-.008z" fill="#fff" opacity=".1"/>
 </g>
 <path d="M20.61 20.64c-.638 1.167-2.13 1.637-2.954 1.198-.843-.44-.839-1.909-.186-3.076.63-1.167 3.413-.643 3.426-.643.013 0 .354 1.358-.285 2.52z" fill="#fff" opacity=".25"/>
 <path d="M17.815 25.96s.36-.347.172-.98c-2.237.74-3.336-1.402-3.328-1.402.008 0-1.676 4.412.334 6.411.174-1.646 2.74-3.944 2.747-3.944" fill="#5c5f60" stroke="#000" stroke-linecap="round" stroke-linejoin="round" stroke-opacity=".196"/>
 <circle cx="19" cy="20" r="1" fill="#212a3c" opacity=".75"/>
 <circle cx="19.219" cy="19.669" r=".5" fill="#fff" opacity=".5"/>
</svg>
