<svg xmlns="http://www.w3.org/2000/svg" width="64" height="64" viewBox="0 0 16.933 16.933"><g transform="translate(0 -280.067)"><path fill="#ffc859" stroke="#cd981b" stroke-width=".529" d="M2.403 281.39H14.53a.55.55 0 0 1 .551.55v13.188a.55.55 0 0 1-.551.55H2.403a.55.55 0 0 1-.55-.55v-13.189a.55.55 0 0 1 .55-.55z" opacity=".75" paint-order="fill markers stroke"/><path fill="#ffc859" d="M2.403 281.39H14.53a.55.55 0 0 1 .551.55v13.188a.55.55 0 0 1-.551.55H2.403a.55.55 0 0 1-.55-.55v-13.189a.55.55 0 0 1 .55-.55z" paint-order="fill markers stroke"/><path fill="#ffa444" stroke="#e87700" stroke-width=".529" d="M2.403 281.39a.563.563 0 0 0-.55.577v2.598H15.08v-2.598a.563.563 0 0 0-.551-.577z" opacity=".75" paint-order="fill markers stroke"/><path fill="#ffa444" d="M2.403 281.39a.563.563 0 0 0-.55.577v2.598H15.08v-2.598a.563.563 0 0 0-.551-.577z" paint-order="fill markers stroke"/><rect width="9.525" height=".265" x="3.704" y="286.417" opacity=".1" paint-order="markers stroke fill" ry="0"/><rect width="9.525" height=".265" x="3.704" y="289.327" opacity=".1" paint-order="markers stroke fill" ry="0"/><rect width="9.525" height=".265" x="3.704" y="292.237" opacity=".1" paint-order="markers stroke fill" ry="0"/></g></svg>