<svg width="64" height="64" version="1.1" viewBox="0 0 16.933 16.933" xmlns="http://www.w3.org/2000/svg">
 <path d="m15.61 8.466a7.144 7.144 0 0 1-7.144 7.144 7.144 7.144 0 0 1-7.143-7.144 7.144 7.144 0 0 1 7.143-7.143 7.144 7.144 0 0 1 7.144 7.143z" fill="rgb(225, 140, 65)" stroke="#b9671d" stroke-width=".52916"/>
 <path d="m15.61 8.466a7.144 7.144 0 0 1-7.144 7.144 7.144 7.144 0 0 1-7.143-7.144 7.144 7.144 0 0 1 7.143-7.143 7.144 7.144 0 0 1 7.144 7.143z" fill="rgb(225, 140, 65)"/>
 <path d="m5.821 4.498h5.291a1.323 1.323 0 0 1 1.323 1.323v5.291a1.323 1.323 0 0 1-1.323 1.323h-5.291a1.323 1.323 0 0 1-1.323-1.323v-5.291a1.323 1.323 0 0 1 1.323-1.323z" fill="#303030" style="paint-order:markers stroke fill"/>
 <path d="m7.109 8.835v-2.92h0.997v-0.679h-2.713v0.679h0.997v2.92h0.719zm3.669-1.871c0.253-0.155 0.413-0.432 0.413-0.792 0-0.56-0.4-0.936-1.178-0.936h-1.521v3.599h1.61c0.818 0 1.245-0.36 1.245-0.981 0-0.453-0.223-0.762-0.569-0.89zm-0.854-1.101c0.352 0 0.543 0.139 0.543 0.422s-0.191 0.427-0.543 0.427h-0.716v-0.849h0.716zm-0.716 2.345v-0.889h0.84c0.374 0 0.574 0.144 0.574 0.447 0 0.309-0.2 0.442-0.574 0.442h-0.84z" fill="rgb(255, 255, 255)" style="white-space:pre"/>
 <path d="m5.033 10.97h3.092v0.614h-3.092v-0.614z" fill="rgb(255, 255, 255)"/>
</svg>
