<svg xmlns="http://www.w3.org/2000/svg" width="64" height="64"><rect width="52" height="52" x="6" y="6" fill="#e2434b" stroke="#ae292f" stroke-width="2" rx="8" ry="8" style="paint-order:stroke fill markers"/><rect width="52" height="52" x="6" y="6" fill="#e2434b" rx="8" ry="8" style="paint-order:stroke fill markers"/><path fill="#fff" d="M35.986 24.188s3.708.602 3.697 2.125c0 .055.001.1-.01.154-.217 1.36-3.933 1.563-6.51 1.705-.536.03-1.023.058-1.42.092-.333.029-.75.05-1.224.074h-.004c-2.782.145-7.512.391-8.857 2.74a.9.9 0 0 0-.12.417c-.004 1.03 2.198 1.925 4.846 3 3.8 1.542 8.52 3.457 8.957 6.685a4 4 0 0 1 .034.537c-.01 5.34-10.957 10.087-24.645 15.584.998.446 2.102.7 3.27.7h36c4.431 0 8-3.569 8-8v-3.46c-1.44-3.289-3.798-6.269-7.599-8.242-4.965-2.585-11.5-3.985-16.379-5.029-3.805-.815-6.604-1.414-6.863-2.191a.8.8 0 0 1-.033-.22c.01-1.215 3.786-1.5 6.258-1.62 2.614-.132 6.573-.483 7.054-2.367q.023-.09.03-.178.003-.043.002-.084c.01-1.753-4.485-2.422-4.485-2.422z"/></svg>