<svg xmlns="http://www.w3.org/2000/svg" width="64" height="64"><g stroke-width="1.077" transform="translate(2.286 3.143)scale(.92857)"><path fill="#b1b6bd" stroke="#000" stroke-opacity=".235" d="M12.077 5.769h39.846v20.462H12.077z"/><rect width="54.923" height="33.385" x="4.538" y="24.077" fill="#464854" stroke="#000" stroke-opacity=".392" rx="2.452" ry="2.455"/><rect width="32" height="4" x="16" y="32" opacity=".4" rx="2" ry="2"/><rect width="24" height="4" x="20" y="40" opacity=".4" rx="2" ry="2"/><rect width="16" height="4" x="24" y="48" opacity=".4" rx="2" ry="2"/><path d="M15.846 13.846h9.692v5.385h-9.692zm22.616 0h9.692v5.385h-9.692z" opacity=".5"/></g><circle cx="48" cy="48" r="13.5" fill="#45d157" stroke="#000" stroke-opacity=".235"/><path fill="#f2f2f2" fill-rule="evenodd" d="M45.319 39.601v4.987l-4.922 7.124h4.92V56.4h5.6v-4.688l4.685.002-4.686-6.997v-5.114z"/></svg>