<svg xmlns="http://www.w3.org/2000/svg" width="64" height="64" viewBox="0 0 16.933 16.933"><g transform="translate(0 -280.067)"><circle cx="8.467" cy="288.533" r="7.144" fill="#71a5e8" stroke="#4686de" stroke-width=".529" opacity=".9" paint-order="stroke markers fill"/><circle cx="8.467" cy="288.533" r="7.144" fill="#71a5e8" paint-order="stroke markers fill"/><path fill="#fff" d="M6.765 288.443c.081.22.173.399.367.155.24-.143 1.046-.77.966-.156-.258 1.137-.573 2.263-.813 3.404-.251.625.32 1.19.915.783.633-.26 1.178-.686 1.735-1.076-.076-.186-.127-.454-.337-.21-.275.125-.877.715-.989.228.232-1.231.66-2.417.934-3.64.253-.56-.16-1.27-.776-.806-.739.322-1.357.847-2.002 1.318m2.742-4.142c-.753-.04-1.148 1.175-.431 1.508.58.238 1.214-.358 1.072-.954a.65.65 0 0 0-.64-.554z" font-family="URW Palladio L" font-size="40" font-weight="700" style="line-height:100%;-inkscape-font-specification:&quot;URW Palladio L Bold&quot;;text-align:start"/></g></svg>