<svg xmlns="http://www.w3.org/2000/svg" width="64" height="64"><rect width="53" height="53" x="5.5" y="5.5" fill="#262b2d" fill-opacity=".902" color="#000" opacity=".9" overflow="visible" rx="2.891" ry="2.891" style="marker:none"/><rect width="53" height="53" x="5.5" y="5.5" fill="none" stroke="#000" stroke-linecap="round" stroke-linejoin="round" color="#000" opacity=".7" overflow="visible" rx="2.891" ry="2.891" style="marker:none"/><path fill="#fff" d="M17 14v2.143c-.694.148-1.289.412-1.758.818q-1.1.96-1.1 2.637 0 .89.337 1.556.335.666.898 1.168.563.503 1.687 1.047 1.2.588 1.586.856.395.267.596.562.201.286.201.658 0 .667-.46 1.004-.453.337-1.31.336a6 6 0 0 1-1.577-.232q-.857-.234-2.1-.805v2.49c.882.445 1.886.683 3 .739V31h2v-2.17c.71-.157 1.318-.419 1.799-.816q1.2-.987 1.201-2.7 0-1.236-.639-2.084-.637-.855-2.357-1.703-1.302-.64-1.654-.882a1.9 1.9 0 0 1-.504-.51 1.2 1.2 0 0 1-.16-.623q0-.571.394-.926.395-.354 1.135-.354.62 0 1.258.164.646.164 1.629.579l.84-2.084q-.949-.423-1.823-.657a7 7 0 0 0-1.119-.19V14zm9 19v2h11v-2z" color="#000" overflow="visible" style="isolation:auto;mix-blend-mode:normal;solid-color:#000;solid-opacity:1;marker:none"/></svg>