<svg xmlns="http://www.w3.org/2000/svg" width="64" height="64" viewBox="0 0 16.933 16.933"><defs><linearGradient id="a" x1="47" x2="59.998" y1="41" y2="53.978" gradientTransform="scale(.26458)" gradientUnits="userSpaceOnUse"><stop offset="0"/><stop offset="1" stop-color="#242424" stop-opacity="0"/></linearGradient></defs><g transform="matrix(.99996 0 0 .99998 0 .536)"><path fill="#4d4d4d" stroke="#1a1a1a" stroke-width=".529" d="M1.851 1.581h13.23c.44 0 .793.357.793.8v11.1c0 .444-.354.8-.793.8H1.851a.795.795 0 0 1-.793-.8v-11.1c0-.443.354-.8.793-.8z"/><path fill="#4d4d4d" d="M1.851 1.581h13.23c.44 0 .793.357.793.8v11.1c0 .444-.354.8-.793.8H1.851a.795.795 0 0 1-.793-.8v-11.1c0-.443.354-.8.793-.8"/><rect width="4.233" height=".529" x="5.292" y="8.99" fill="#55c66e" ry=".265" style="paint-order:stroke markers fill"/><path fill="#55c66e" d="M3.973 4.19a.26.26 0 0 0-.262.13.264.264 0 0 0 .097.362l2.842 1.64-2.842 1.641a.264.264 0 0 0-.097.362c.074.127.235.17.362.097L7.28 6.57a.26.26 0 0 0 .127-.225q.002-.012.002-.022 0-.011-.002-.023a.26.26 0 0 0-.127-.224L4.073 4.223a.3.3 0 0 0-.1-.033" style="paint-order:stroke markers fill"/><path fill="url(#a)" d="m15.875 8.944-5.337 5.337h4.767c.316 0 .57-.238.57-.535z" opacity=".15"/></g></svg>