<svg xmlns="http://www.w3.org/2000/svg" width="64" height="64"><path fill="#f2f2f2" d="M23.921 46.999s.189 6.176-.745 7.503c-.93 1.322-2.781 1.337-2.781 1.337-1.187.14-1.198 2.661 0 2.661h23.21c1.199 0 1.191-2.524 0-2.66 0 0-1.851-.016-2.781-1.339s-.741-7.502-.741-7.502z" overflow="visible"/><rect width="59" height="40" x="2.498" y="7.499" fill="#292929" stroke="#000" stroke-dashoffset=".5" stroke-linecap="round" stroke-linejoin="round" stroke-width="1.002" rx="1.312" ry="1.213"/><path fill="#658dec" d="M5 9.997h54v34.999H5z"/><path fill="none" stroke="#000" stroke-dashoffset=".5" stroke-linecap="round" stroke-linejoin="round" stroke-width=".998" d="M23.921 46.002s.189 7.174-.745 8.5c-.93 1.323-2.781 1.338-2.781 1.338-1.187.14-1.198 2.661 0 2.661h23.21c1.199 0 1.191-2.525 0-2.66 0 0-1.851-.016-2.781-1.339s-.741-8.504-.741-8.504z" color="#000" opacity=".15" overflow="visible"/><path fill="#fff" d="M9.477 22A44 44 0 0 0 5 22.277V45h43.08A43.98 43.98 0 0 0 9.478 22z" opacity=".15" style="paint-order:stroke markers fill"/><path fill="#fff" d="M59 30.787A43.98 43.98 0 0 0 33.092 45H59Z" opacity=".15" style="paint-order:stroke markers fill"/><circle cx="50.501" cy="17.499" r="5.499" fill="#ffdb8a" style="paint-order:stroke markers fill"/></svg>