<svg xmlns="http://www.w3.org/2000/svg" width="64" height="64"><path fill="#2bac8f" stroke="#134447" stroke-linecap="round" stroke-linejoin="round" stroke-opacity=".86" stroke-width="2" d="m.986 15 5.168 8.493h.007l5.16 8.476V32h.012l-.012.008 5.17 8.49h.03l-.03.008 5.166 8.49V49H32l5.168-8.495h-.014l.014-.007 5.17-8.49-.012-.008h.012l-.014-.024.016.02 5.17-8.494h-.018l.019-.007-.003-.002h10.338L63.014 15H52.68v.005l-.002-.002V15H42.34v.003l-5.168 8.493.019.007h-.019l.005.019-.01-.017L32 32h.017l-.017.007-5.17 8.49.015.008h-.015v.005l-.002-.003v-.002l-.028-.007h.03l-5.167-8.493-.003.003-.016-.008h.019L16.5 23.515l.023-.038-.052-.022-5.149-8.454H.986zm41.352 17.007-2.626 4.316-2.54 4.175h.029l-.029.007L42.34 49h20.674l-5.168-8.495h-10.34l-.028-.007h.033l-5.17-8.493z"/><path fill="#2bac8f" d="M63.016 49H52.677v-5.884l5.17-2.61z"/><path fill="#2e997c" d="M57.846 40.506H47.508l1.034 4.57L52.677 49z"/><path fill="#278768" d="M52.679 49H42.34l2.068-5.884 3.101-2.61z"/><path fill="#21674f" d="m42.338 32.007-4.135-2.629-6.204 2.629 5.17 8.494z"/><path fill="#2a8d70" d="m47.51 40.506-5.168-1.315-5.17 1.315L42.343 49z"/><path fill="#2f9f81" d="M47.51 40.498H37.174l2.54-4.175 2.628-4.319z"/><path fill="#96cfba" d="M63.016 15H52.678v4.553l5.169 3.942z"/><path fill="#85c8b1" d="M57.846 23.495h-10.34l1.035-5.904 4.134-2.59z"/><path fill="#6bbfa4" d="M52.679 15H42.34v4.553l5.168 3.942z"/><path fill="#52b99b" d="m47.51 23.496-5.168 1.943-5.17-1.943 5.17-8.494z"/><path fill="#44b799" d="M47.51 23.503H37.174l1.034 3.905 4.135 4.59z"/><path fill="#33b394" d="M42.338 32H32l5.17-8.495z"/><path fill="#2da4ad" d="M37.168 40.5 32 43.11l-5.17-2.61L32 32.005z"/><path fill="#2f98af" d="M37.17 40.506H26.83l.165 5.526L32 49.001z"/><path fill="#0d657a" d="M31.997 49H21.658v-5.884l5.17-2.61 2.548 4.187z"/><path fill="#2a69b1" d="m26.83 40.506-5.17-1.316-5.17 1.315L21.661 49"/><path fill="#2077bc" d="M26.83 40.498H16.492l1.034-5.237 4.135-3.257z"/><path fill="#2886c7" d="m21.66 32.007-6.202-2.629-4.136 2.629 5.17 8.494"/><path fill="#238dcd" d="M21.662 32H11.323v-6.553l5.17-1.943z"/><path fill="#1a9cd1" d="m16.522 23.478-5.2-1.98-5.17 1.98 5.185 8.52"/><path fill="#0ea6d3" d="M16.491 23.495H6.153l1.035-3.942L11.323 15z"/><path fill="#08abd8" d="M11.323 15H.985l5.17 8.495z"/></svg>