<svg xmlns="http://www.w3.org/2000/svg" width="64" height="64"><rect width="1.997" height="10.981" x="-6.421" y="35.951" fill="#d9d9d9" stroke="#000" stroke-opacity=".25" stroke-width="1.308" rx=".998" transform="rotate(-20.21)"/><path fill="#6b6767" stroke="#000" stroke-opacity=".25" d="M38.938 10.568a2 2 0 0 0-.76.107l-37.28 13.1a1.317 1.317 0 0 0-.821 1.606l2.654 8.98c.01.03.029.054.041.082l.026.05q.044.087.107.16c.1.138.22.267.383.365l14.729 8.838a5.23 5.23 0 0 0 4.662.359l36.234-14.721c.011-.005.018-.013.03-.018l.714-.263a.99.99 0 0 0 .586-1.254l-3.031-8.393a1.18 1.18 0 0 0-.735-.713l.08.032-16.874-8.127a2 2 0 0 0-.745-.19z"/><path fill="#928e8e" stroke="#000" stroke-opacity=".25" d="M38.904 9.133a5.2 5.2 0 0 0-1.766.37C30.884 12 13.732 18.815.845 23.694c-1.01.382-1.147 1.754-.234 2.332l1.623 1.027a10.7 10.7 0 0 1 5.172-.33c1.843.339 3.48 1.149 4.646 2.297s1.792 2.568 1.772 4.025a5 5 0 0 1-.178 1.237l1.762 1.117a5.23 5.23 0 0 0 4.77.426l36.24-14.721c.999-.406 1.104-1.78.18-2.334l-14.82-8.893a5.24 5.24 0 0 0-2.874-.744z"/><path fill="#f29292" d="M28.902 27.141a.654.654 0 0 1 .092-1.165l7.04-2.869a1.3 1.3 0 0 1 1.17.093l2.292 1.386a.654.654 0 0 1-.092 1.166l-7.04 2.868a1.31 1.31 0 0 1-1.17-.093z"/><path fill="#b7b6b6" d="M42.311 21.42a1.7 1.7 0 0 1-.394-.835 1.6 1.6 0 0 1 .124-.898c.129-.296.34-.577.624-.827s.634-.463 1.03-.628a5 5 0 0 1 2.608-.324c.43.062.833.182 1.182.353s.639.39.853.643z"/><path fill="#b7b6b6" d="M42.311 21.42a1.7 1.7 0 0 1-.394-.835 1.6 1.6 0 0 1 .124-.898c.129-.296.34-.577.624-.827s.634-.463 1.03-.628a5 5 0 0 1 2.608-.324c.43.062.833.182 1.182.353s.639.39.853.643z"/><ellipse cx="17.065" cy="31.002" fill="#b7b6b6" rx="3.435" ry="2.29" transform="rotate(-5.665)"/><ellipse cx="17.065" cy="31.002" fill="#b7b6b6" rx="3.435" ry="2.29" transform="rotate(-5.665)"/><path fill="#d9d9d9" stroke="#000" stroke-opacity=".25" d="M56.461 24.699c-.259 0-.52.051-.77.152l-2.255.914c-.85.345-.963 1.5-.198 2.004.405.266.713.654.881 1.108l2.176 5.86a1.31 1.31 0 0 0 1.717.757l1.719-.693 2.335 6.2a.997.997 0 1 0 1.867-.705l-2.722-7.228a1.3 1.3 0 0 0-.064-.23l-2.448-6.326a3.6 3.6 0 0 0-.71-1.145 2.07 2.07 0 0 0-1.528-.668zM46.459 28.74c-.259 0-.52.051-.77.152l-2.255.912c-.85.345-.963 1.5-.198 2.004.405.266.713.656.881 1.11l2.176 5.86a1.31 1.31 0 0 0 1.717.757l.396-.16 2.291 6.224a.998.998 0 1 0 1.873-.691l-2.312-6.281.158-.063a1.31 1.31 0 0 0 .73-1.685L48.7 30.553a3.6 3.6 0 0 0-.713-1.145 2.07 2.07 0 0 0-1.527-.668zm-9.846 3.998c-.258 0-.52.051-.77.152l-2.255.914c-.85.344-.963 1.5-.197 2.004.404.266.712.654.88 1.108l2.176 5.86a1.31 1.31 0 0 0 1.717.757l.412-.166 2.297 6.238a.995.995 0 0 0 1.281.592.995.995 0 0 0 .592-1.281l-2.318-6.297.142-.057a1.31 1.31 0 0 0 .73-1.685l-2.447-6.326a3.6 3.6 0 0 0-.712-1.145 2.07 2.07 0 0 0-1.528-.668zm-9.777 3.947c-.259.001-.52.05-.77.15l-2.255.915c-.85.344-.963 1.5-.198 2.004.404.266.713.653.881 1.107l1.752 4.715q.015.104.05.207l3.104 8.431a.995.995 0 0 0 1.282.592.995.995 0 0 0 .591-1.28l-2.31-6.28 1.83-.738a1.31 1.31 0 0 0 .73-1.686l-2.449-6.326a3.6 3.6 0 0 0-.71-1.143 2.07 2.07 0 0 0-1.528-.668z"/></svg>