<svg width="64" height="64" version="1.1" viewBox="0 0 64 64" xmlns="http://www.w3.org/2000/svg">
 <rect transform="rotate(-20.21)" x="-6.421" y="35.951" width="1.9966" height="10.981" rx=".99831" fill="#d9d9d9" stroke="#000000" stroke-opacity=".25" stroke-width="1.3084"/>
 <path d="m38.938 10.568c-0.25551-0.013729-0.51406 0.021136-0.75977 0.10742l-37.281 13.1c-0.65135 0.22888-1.0161 0.94335-0.82031 1.6055l2.6543 8.9805c0.0089106 0.030257 0.028711 0.053588 0.041016 0.082031 0.0076956 0.016744 0.016942 0.032362 0.025391 0.048829 0.030448 0.058429 0.064138 0.11191 0.10742 0.16016 0.099953 0.13873 0.21955 0.26726 0.38281 0.36523l14.729 8.8379c1.411 0.84653 3.1376 0.97864 4.6621 0.35938l36.234-14.721c0.011061-0.004493 0.018457-0.012853 0.029297-0.017579l0.71484-0.26367c0.49904-0.1839 0.76689-0.75333 0.58594-1.2539l-3.0312-8.3926c-0.12163-0.33616-0.39448-0.5999-0.73438-0.71289l0.080079 0.03125-16.875-8.127c-0.23483-0.11315-0.48864-0.17572-0.74414-0.18945z" fill="#6b6767" stroke="#000000" stroke-opacity=".25"/>
 <path d="m38.904 9.1328c-0.59828 0.020266-1.1955 0.14373-1.7656 0.37109-6.2541 2.4947-23.406 9.3103-36.293 14.189-1.0106 0.38258-1.1473 1.7538-0.23438 2.332l1.623 1.0273c1.6331-0.52642 3.4437-0.64752 5.1719-0.33008 1.8426 0.33848 3.4803 1.1484 4.6465 2.2969 1.166 1.1486 1.7911 2.5681 1.7715 4.0254-0.005595 0.41819-0.068802 0.83154-0.17774 1.2363l1.7617 1.1172c1.4277 0.90424 3.2038 1.0619 4.7695 0.42578l36.24-14.721c0.99948-0.406 1.1047-1.7788 0.17969-2.334l-14.82-8.8926c-0.87712-0.52622-1.8759-0.77792-2.873-0.74414z" fill="#928e8e" stroke="#000000" stroke-opacity=".25"/>
 <path d="m28.902 27.141c-0.4603-0.27843-0.40639-0.96259 0.09185-1.1655l7.0396-2.868c0.38297-0.15609 0.8171-0.12194 1.1709 0.09224l2.2914 1.3864c0.4603 0.27856 0.40639 0.96259-0.09185 1.1655l-7.0395 2.8681c-0.38297 0.15596-0.81723 0.12181-1.171-0.09224z" fill="#f29292" stroke-width="1.3084"/>
 <path d="m42.311 21.42c-0.21405-0.25357-0.34803-0.5371-0.39435-0.8345-0.04632-0.2974-0.0041-0.60291 0.12443-0.89887 0.12848-0.29609 0.34058-0.57687 0.62437-0.82652 0.28366-0.24964 0.6334-0.46317 1.0291-0.62829 0.39566-0.16525 0.82966-0.27882 1.2773-0.33443 0.44747-0.05561 0.89966-0.05207 1.3309 0.01047 0.43112 0.06241 0.8328 0.18252 1.1819 0.35353 0.34921 0.17101 0.63902 0.38951 0.85308 0.64308z" fill="#b7b6b6" stroke-width="1.3084"/>
 <path d="m42.311 21.42c-0.21405-0.25357-0.34803-0.5371-0.39435-0.8345-0.04632-0.2974-0.0041-0.60291 0.12443-0.89887 0.12848-0.29609 0.34058-0.57687 0.62437-0.82652 0.28366-0.24964 0.6334-0.46317 1.0291-0.62829 0.39566-0.16525 0.82966-0.27882 1.2773-0.33443 0.44747-0.05561 0.89966-0.05207 1.3309 0.01047 0.43112 0.06241 0.8328 0.18252 1.1819 0.35353 0.34921 0.17101 0.63902 0.38951 0.85308 0.64308z" fill="#b7b6b6" stroke-width="1.3084"/>
 <ellipse transform="rotate(-5.665)" cx="17.065" cy="31.002" rx="3.4352" ry="2.2901" fill="#b7b6b6" stroke-width="1.3084"/>
 <ellipse transform="rotate(-5.665)" cx="17.065" cy="31.002" rx="3.4352" ry="2.2901" fill="#b7b6b6" stroke-width="1.3084"/>
 <path d="m56.461 24.699c-0.25868 8.07e-4 -0.52 0.051229-0.76953 0.15234l-2.2559 0.91406c-0.84928 0.34411-0.96268 1.5-0.19727 2.0039 0.4043 0.26613 0.71247 0.65367 0.88086 1.1074l2.1758 5.8594c0.25645 0.69084 1.0333 1.0336 1.7168 0.75781l1.7188-0.69336 2.3359 6.2012c0.19495 0.51756 0.76759 0.77698 1.2852 0.58203 0.51756-0.19495 0.77698-0.76954 0.58203-1.2871l-2.7227-7.2285c-0.014613-0.076953-0.0352-0.15484-0.064454-0.23047l-2.4473-6.3262c-0.16342-0.42235-0.40438-0.81115-0.71094-1.1445-0.40101-0.43591-0.95826-0.66974-1.5273-0.66797zm-10.002 4.041c-0.25867 8.02e-4 -0.52 0.05127-0.76953 0.15234l-2.2559 0.91211c-0.84941 0.34411-0.96268 1.5002-0.19727 2.0039 0.4043 0.26613 0.71234 0.65562 0.88086 1.1094l2.1758 5.8594c0.25658 0.69084 1.0334 1.0336 1.7168 0.75781l0.39648-0.16016 2.291 6.2246c0.19106 0.51901 0.76224 0.78286 1.2812 0.5918 0.51901-0.19106 0.78286-0.76419 0.5918-1.2832l-2.3125-6.2812 0.1582-0.0625c0.66323-0.2677 0.98848-1.0185 0.73047-1.6855l-2.4473-6.3262c-0.16342-0.42248-0.40633-0.81128-0.71289-1.1445-0.40101-0.436-0.95826-0.66973-1.5273-0.66797zm-9.8457 3.998c-0.25866 8.02e-4 -0.52 0.05127-0.76953 0.15234l-2.2559 0.91406c-0.84928 0.34398-0.96268 1.5002-0.19727 2.0039 0.4043 0.26613 0.71234 0.65367 0.88086 1.1074l2.1758 5.8594c0.25658 0.69096 1.0334 1.0336 1.7168 0.75781l0.41211-0.16602 2.2969 6.2383c0.19106 0.51901 0.76224 0.78286 1.2812 0.5918 0.51901-0.19106 0.78286-0.76224 0.5918-1.2812l-2.3184-6.2969 0.14258-0.056641c0.66336-0.2677 0.98862-1.0185 0.73047-1.6855l-2.4473-6.3262c-0.16342-0.42235-0.4062-0.81128-0.71289-1.1445-0.40101-0.436-0.9583-0.66973-1.5273-0.66797zm-9.7773 3.9473c-0.25868 7.88e-4 -0.52 0.049317-0.76953 0.15039l-2.2559 0.91406c-0.84928 0.34411-0.96268 1.5-0.19727 2.0039 0.40416 0.26613 0.71247 0.65367 0.88086 1.1074l1.752 4.7148c0.009852 0.068922 0.025716 0.13894 0.050781 0.20703l3.1035 8.4316c0.19106 0.51901 0.76224 0.78286 1.2812 0.5918 0.51901-0.19106 0.78286-0.76224 0.5918-1.2812l-2.3105-6.2793 1.8301-0.73828c0.66323-0.26757 0.98862-1.0185 0.73047-1.6855l-2.4492-6.3262c-0.16342-0.42235-0.40438-0.8092-0.71094-1.1426-0.40101-0.43591-0.95826-0.6697-1.5273-0.66797z" fill="#d9d9d9" stroke="#000000" stroke-opacity=".25"/>
</svg>
