<svg xmlns="http://www.w3.org/2000/svg" width="64" height="64"><path fill="#966fb2" fill-rule="evenodd" stroke="#754e92" stroke-width="2" d="M19.211 5.001A14.18 14.18 0 0 0 5 19.212v14.211c0 7.393 5.59 13.433 12.79 14.142v11.438l11.369-11.369h15.632a14.18 14.18 0 0 0 14.211-14.21V19.211a14.18 14.18 0 0 0-14.211-14.21z"/><path fill="#966fb2" fill-rule="evenodd" d="M19.211 5.001A14.18 14.18 0 0 0 5 19.212v14.211c0 7.393 5.59 13.433 12.79 14.142v11.438l11.369-11.369h15.632a14.18 14.18 0 0 0 14.211-14.21V19.211a14.18 14.18 0 0 0-14.211-14.21z"/><path fill="#ece2f7" d="M34.686 10.686c-.687 0-1.256.548-1.263 1.213-.004.667.566 1.229 1.257 1.232 2.985.023 5.438.966 7.417 2.826 1.955 1.843 2.974 4.396 3 7.727v.003c.007.663.577 1.21 1.266 1.21l.014-.003c.69-.006 1.263-.562 1.257-1.23v-.002c-.016-1.942-.332-3.727-.95-5.299a11.45 11.45 0 0 0-2.814-4.16c-2.447-2.302-5.574-3.491-9.173-3.517zm-12.818 2.873c-.481-.082-1.003.008-1.524.258h-.041l-.059.033q-1.447.823-2.717 2.207l-.067.072v.067c-.586.73-.974 1.466-1.063 2.203-.028.125-.027.238-.027.358 0 .336.049.676.152 1.01l.028.095.058.033c.335 1.149 1.094 2.936 2.756 5.962 1.107 2.006 2.238 3.682 3.362 5.093a27 27 0 0 0 2.04 2.293c.009.01.042.043.077.075.013.012.03.038.072.08l.078.078H25l.05.053.014.017.014.014a27 27 0 0 0 2.295 2.031 36.4 36.4 0 0 0 5.09 3.373c3.03 1.671 4.834 2.427 5.976 2.756l.042.05.07.025a3 3 0 0 0 .993.152 1.3 1.3 0 0 0 .37-.027q1.172-.14 2.322-1.105l.009-.011.008-.006c.012-.011.005-.006.011-.014.007-.006.01-.013.017-.019.907-.828 1.639-1.728 2.19-2.692l.036-.061v-.059c.506-1.053.305-2.129-.516-2.814-.02-.017-.415-.347-.905-.747a44 44 0 0 0-1.497-1.182c-.759-.562-1.932-1.288-2.6-1.66h-.003c-1.285-.72-2.627-.301-3.217.464l-1.035 1.296c-.418.526-1.252.476-1.274.474-7.023-1.806-8.91-8.867-8.924-8.918-.001-.022-.052-.857.475-1.282l1.29-1.032c.767-.588 1.198-1.93.475-3.217-.377-.666-1.107-1.848-1.66-2.601h-.003c-.296-.4-.775-.997-1.182-1.499-.204-.25-.39-.48-.525-.644l-.16-.194-.048-.053-.014-.017a2.18 2.18 0 0 0-1.315-.768zm12.893 2.814c-.677-.047-1.286.46-1.335 1.113-.05.654.478 1.238 1.155 1.285 1.672.119 2.801.61 3.65 1.507v.003c.865.914 1.26 1.958 1.226 3.384v.005c-.014.657.536 1.213 1.216 1.227h.03c.67 0 1.23-.529 1.244-1.177.046-1.96-.593-3.709-1.88-5.065-1.291-1.363-3.122-2.127-5.306-2.282"/></svg>