<svg xmlns="http://www.w3.org/2000/svg" width="64" height="64"><circle cx="32" cy="32" r="27" fill="#4f4f4f" stroke="#2e2e2e" stroke-linecap="round" stroke-width="2" style="paint-order:stroke fill markers"/><circle cx="32" cy="32" r="27" fill="#4f4f4f"/><path fill="#5397e9" d="M16.739 21.435v21.13H47.26v-21.13zm7.043 1.174h2.348v2.348h-2.348zm4.696 0h2.348v2.348h-2.348zm4.696 0h2.347v2.348h-2.347zm4.695 0h2.348v2.348h-2.348zM23.782 39.044h2.348v2.348h-2.348zm4.696 0h2.348v2.348h-2.348zm4.695 0h2.348v2.348h-2.348zm4.696 0h2.348v2.348h-2.348z"/><path fill="#fff" d="M16.739 26.13v11.739h8.217V26.13zm10.565 0v11.739h9.391V26.13zm11.739 0v11.739h8.217V26.13z"/><path fill="#f9e37d" d="M21.435 17.913v28.174h4.696v-2.348h-2.348V20.261h2.348v-2.348zm16.435 0v2.348h2.348v23.478H37.87v2.348h4.696V17.913z"/></svg>