<svg xmlns="http://www.w3.org/2000/svg" width="64" height="64" viewBox="0 0 16.933 16.933"><rect width="13.493" height="9.789" x="1.72" y="3.572" fill="#2e2e2e" stroke="#000" stroke-dashoffset=".5" stroke-linecap="round" stroke-linejoin="round" stroke-width=".265" rx=".3" ry=".297"/><path fill="#585858" d="M2.381 4.233h12.171V12.7H2.382z"/><g transform="matrix(2 0 0 2 -15.628 -15.364)"><circle cx="14.561" cy="13.635" r="1.587" fill="#53a54f"/><circle cx="14.561" cy="13.635" r="1.455" fill="#64cc5f"/><g fill="#fff" stroke-width=".265"><path d="M13.767 12.841h.132c.804 0 1.455.651 1.455 1.455v.132h-.132a.133.133 0 0 1-.132-.132 1.19 1.19 0 0 0-1.19-1.19.133.133 0 0 1-.133-.133z"/><path d="M13.767 13.371h.132c.512 0 .926.415.926.926v.132h-.132a.133.133 0 0 1-.132-.132.66.66 0 0 0-.662-.661.133.133 0 0 1-.132-.133z"/><path d="M14.032 13.9a.265.265 0 1 1 0 .53.265.265 0 0 1 0-.53"/></g></g></svg>