<svg xmlns="http://www.w3.org/2000/svg" width="64" height="64" version="1"><rect width="54" height="54" x="5" y="5" fill="#e4e4e4" stroke="#b2b2b2" stroke-width="2" rx="27" ry="27"/><rect width="54" height="54" x="5" y="5" fill="#e4e4e4" rx="27" ry="27"/><rect width="46" height="46" x="9" y="9" fill="#f2f2f2" rx="23" ry="23"/><path fill="#3099ec" d="M32.39 51.911a1.85 1.85 0 0 1-1.047-.772c-.38-.568-.506-.98-.969-3.158-.193-.908-.477-1.512-.956-2.033-.837-.908-1.803-1.23-4.09-1.366-2.56-.15-3.469-.377-4.324-1.077-.972-.795-1.378-1.694-1.958-4.34-.36-1.635-.564-2.294-.987-3.175-.776-1.615-1.843-2.87-3.388-3.987-.996-.72-1.293-1.158-1.129-1.664.134-.41.558-.675 1.084-.675.424 0 .682.106 1.019.416.322.297.513.578.959 1.413.407.763.798 1.319.928 1.319.078 0 .09-.322.09-2.314 0-1.383.026-2.406.064-2.545.075-.279.377-.555.605-.554.378 0 .702.365.867.975.038.139.196 1.527.353 3.084s.307 2.858.336 2.888c.086.094.484-.406.742-.936.254-.521.426-1.185.428-1.655 0-.149-.07-.621-.157-1.05-.129-.638-.146-.826-.092-1.027.168-.637.863-.742 1.32-.199.33.393.444.839.441 1.728 0 .963-.083 1.321-.78 3.487-.603 1.872-.793 2.701-.791 3.454 0 2.702 2.224 4.46 5.942 4.713.331.022.602.02.602-.006 0-.025-.207-.433-.46-.906-.874-1.63-1.228-2.768-1.228-3.945 0-.885.128-1.426.689-2.9.767-2.019.842-2.346.842-3.677.001-.693-.03-1.125-.107-1.49-.418-1.986-1.446-3.691-2.896-4.805-.575-.442-.747-.537-2.217-1.229-1.414-.665-1.782-.897-2.348-1.476-.607-.623-.865-1.132-.907-1.79-.025-.408-.015-.472.087-.527.234-.125.73-.148 1.174-.054.823.175 1.56.65 2.74 1.768 1.256 1.19 1.964 1.63 2.828 1.757.421.062.464.058.544-.052.128-.18.109-.848-.037-1.243-.268-.728-.844-1.268-2.131-2-.827-.471-1.385-.874-1.634-1.18-.609-.75-.733-1.849-.27-2.408.436-.53 1.178-.59 2.032-.164.416.207.601.358 1.232 1.006 1.84 1.89 2.947 4.368 3.435 7.687.13.886.113 4.223-.028 5.381a52 52 0 0 1-.598 3.677c-.217 1.092-.234 1.592-.067 1.968.123.276.378.461.636.461.292 0 .81-.34 1.406-.923.974-.953 1.52-1.876 1.832-3.098.136-.533.16-.795.2-2.184.042-1.468.054-1.6.187-1.878.193-.407.55-.666.915-.666.236 0 .309.033.509.237.52.531.503 1.229-.096 3.71-.427 1.768-.997 3.13-1.72 4.11-.217.294-.855.982-1.417 1.53-.676.656-1.127 1.151-1.328 1.458-1.177 1.794-.55 3.551 1.384 3.877a2.84 2.84 0 0 0 2.317-.684c.853-.774 1.65-2.497 2.208-4.777.83-3.388 1.096-7.073.663-9.182-.391-1.908-1.177-3.508-2.28-4.643-.302-.31-.954-.847-1.616-1.332-1.845-1.35-2.587-2.223-2.844-3.344-.128-.556-.095-1.122.07-1.25.214-.162.751-.243 1.122-.167.92.188 1.727.92 2.578 2.337.668 1.113.974 1.529 1.433 1.946q.511.464.513.252c0-.037-.163-.384-.363-.77-1.451-2.813-2.493-4.934-2.633-5.36-.317-.962-.136-1.644.513-1.937.738-.332 1.558.207 1.952 1.282.084.23.628 2.099 1.209 4.154 1.254 4.438 1.169 4.159 1.258 4.13.109-.037.517-1.052.723-1.8.27-.982.388-2.006.346-3.03-.04-1.003-.145-1.652-.51-3.166-.198-.815-.272-1.248-.272-1.587 0-.801.313-1.453.851-1.776.597-.357 1.498-.178 2.101.42.593.586.785 1.221.734 2.427-.055 1.289-.263 2.071-1.432 5.382-1.042 2.951-1.355 4.051-1.543 5.425-.123.9-.12 2.32 0 3.077.11.66.33 1.393.429 1.424.035.011.338-.766.672-1.727.819-2.353.93-2.618 1.185-2.847.507-.454 1.259-.065 1.259.65 0 .598-1.265 4.375-4.486 13.403-.9 2.52-1.627 4.626-1.616 4.68.014.063 1.3-1.091 3.663-3.283 5.048-4.685 5.124-4.764 5.45-5.721.13-.384.149-.523.121-.982-.043-.735-.283-1.37-1.012-2.679-.862-1.55-1.136-2.208-1.226-2.94-.183-1.49 1.125-2.46 2.048-1.519.513.523 1.223 2.321 1.533 3.883.085.431.156.843.156.914 0 .362.19.062.962-1.512 1.116-2.276 1.322-2.588 1.921-2.904.526-.277 1.17.012 1.52.683.19.363.183 1.046-.014 1.658-.522 1.615-2.58 5.056-4.795 8.02-.123.164-.191.298-.151.298s.23-.093.423-.207c1.192-.706 2.036-.752 2.868-.156.254.182.537.723.536 1.024 0 .341-.187.737-.439.93-.46.354-.941.468-2.306.548-2.246.13-3.952.747-5.589 2.018-1.29 1.002-2.044 2.012-3.334 4.467-1.05 1.998-1.543 2.723-2.525 3.714-.711.718-1.242 1.06-1.847 1.189-.395.084-.392.084-.805-.03z"/></svg>