<svg xmlns="http://www.w3.org/2000/svg" width="64" height="64"><path fill="#5c5c5c" stroke="#3b3b3b" stroke-width="2" d="M32 5c14.912 0 27 12.088 27 27S46.912 59 32 59 5 46.912 5 32 17.088 5 32 5z"/><path fill="#5c5c5c" d="M32 5c14.912 0 27 12.088 27 27S46.912 59 32 59 5 46.912 5 32 17.088 5 32 5"/><path d="M29.571 19.3c1.056-1.537 2.22-3.118 3.833-4.102 1.592.957 2.68 2.516 3.724 4.02 2.45 3.729 3.948 8.207 3.647 12.711.788.672 1.603 1.318 2.384 1.991 1.122 1.033 1.647 2.657 1.372 4.157-.372 1.892-.732 3.778-1.132 5.682-.224.968-1.532 1.417-2.307.793-1.269-1.083-2.522-2.193-3.801-3.254-.964.935-2.243 1.547-3.593 1.63-1.547.114-3.084-.548-4.214-1.603-.918.705-1.767 1.552-2.663 2.307-.432.35-.792.81-1.302 1.044-.792.345-1.815-.17-1.996-1.022-.41-1.838-.837-3.692-1.236-5.54-.322-1.552.252-3.27 1.449-4.32a79 79 0 0 1 2.111-1.718c.197-.103.098-.344.11-.525-.214-4.347 1.262-8.635 3.608-12.238" opacity=".1"/><path fill="#dedede" d="M31.999 17.998c-7.728 0-13.995 1.957-13.995 4.375v3.5c0 2.412 6.268 4.37 13.995 4.37 7.732 0 14-1.958 14-4.37v-3.5c0-2.418-6.268-4.375-14-4.375"/><path fill="#dedede" d="M31.955 31.998c-6.268 0-11.55-1.285-13.332-3.063-.416.415-.623.858-.623 1.313v3.5c0 2.418 6.268 4.375 14 4.375s14-1.957 14-4.375v-3.5c0-.454-.246-.898-.662-1.313-1.782 1.778-7.115 3.063-13.383 3.063"/><path fill="#dedede" d="M31.955 39.873c-6.268 0-11.55-1.285-13.332-3.063-.416.415-.623.858-.623 1.313v3.5c0 2.418 6.268 4.375 14 4.375s14-1.957 14-4.375v-3.5c0-.454-.246-.898-.662-1.313-1.782 1.778-7.115 3.063-13.383 3.063"/><path fill="#127db2" d="M28.171 17.9c1.056-1.537 2.22-3.118 3.833-4.102 1.592.957 2.68 2.516 3.724 4.02 2.45 3.729 3.948 8.207 3.647 12.711.788.672 1.603 1.318 2.384 1.991 1.122 1.033 1.647 2.657 1.372 4.157-.372 1.892-.732 3.778-1.132 5.682-.224.968-1.532 1.417-2.307.793-1.269-1.083-2.522-2.193-3.801-3.254-.964.935-2.243 1.547-3.593 1.63-1.547.114-3.084-.548-4.214-1.603-.918.705-1.767 1.552-2.663 2.307-.432.35-.792.81-1.302 1.044-.792.345-1.815-.17-1.996-1.022-.41-1.838-.837-3.691-1.236-5.54-.322-1.552.252-3.27 1.449-4.32a79 79 0 0 1 2.111-1.718c.197-.103.098-.344.11-.525-.214-4.347 1.262-8.635 3.608-12.238m1.253 5.72c-.93 1.193-.814 3.052.258 4.123 1.142 1.253 3.297 1.307 4.49.088.918-.843 1.23-2.247.788-3.413a3.18 3.18 0 0 0-2.653-2.072c-1.093-.126-2.232.382-2.883 1.268"/><path fill="#d60f0f" d="M27.804 43.805c-.011-.547.58-.897 1.039-.602 1.93.996 4.332.968 6.262-.032.438-.273 1.082.055 1.1.585q.008 1.741 0 3.472c.01.569-.723.924-1.154.574-.334-.295-.635-.628-.958-.935-.503.99-.979 1.997-1.492 2.98-.241.471-1.013.471-1.258.012-.508-.984-.984-1.996-1.503-2.986-.312.312-.613.64-.947.935-.438.356-1.099.158-1.093-.404-.006-1.143 0-2.456 0-3.599"/><path fill="#007016" d="M34.104 25.698a2.1 2.1 0 1 1-4.201-.002 2.1 2.1 0 0 1 4.201.002"/></svg>