<?xml version="1.0" encoding="UTF-8" standalone="no"?>
<!-- Created with Inkscape (http://www.inkscape.org/) -->

<svg
   xmlns:dc="http://purl.org/dc/elements/1.1/"
   xmlns:cc="http://creativecommons.org/ns#"
   xmlns:rdf="http://www.w3.org/1999/02/22-rdf-syntax-ns#"
   xmlns:svg="http://www.w3.org/2000/svg"
   xmlns="http://www.w3.org/2000/svg"
   xmlns:sodipodi="http://sodipodi.sourceforge.net/DTD/sodipodi-0.dtd"
   xmlns:inkscape="http://www.inkscape.org/namespaces/inkscape"
   width="64"
   height="64"
   viewBox="0 0 16.933333 16.933333"
   version="1.1"
   id="svg4572"
   inkscape:version="0.92.4 (5da689c313, 2019-01-14)"
   sodipodi:docname="waterfox.svg">
  <title
     id="title4611">Canvas icon theme</title>
  <defs
     id="defs4566" />
  <sodipodi:namedview
     id="base"
     pagecolor="#ffffff"
     bordercolor="#666666"
     borderopacity="1.0"
     inkscape:pageopacity="0.0"
     inkscape:pageshadow="2"
     inkscape:zoom="7.919596"
     inkscape:cx="23.759383"
     inkscape:cy="28.630162"
     inkscape:document-units="px"
     inkscape:current-layer="layer1"
     showgrid="true"
     units="px"
     width="64px"
     showguides="true"
     inkscape:guide-bbox="true"
     inkscape:window-width="1366"
     inkscape:window-height="711"
     inkscape:window-x="0"
     inkscape:window-y="27"
     inkscape:window-maximized="1"
     inkscape:snap-bbox="true"
     inkscape:bbox-nodes="true"
     inkscape:snap-bbox-edge-midpoints="false"
     inkscape:snap-nodes="true">
    <inkscape:grid
       type="xygrid"
       id="grid4582" />
    <sodipodi:guide
       position="1.0583333,15.875"
       orientation="0,1"
       id="guide4584"
       inkscape:locked="false" />
    <sodipodi:guide
       position="1.0583333,1.0583333"
       orientation="1,0"
       id="guide4586"
       inkscape:locked="false" />
    <sodipodi:guide
       position="15.875,15.875"
       orientation="1,0"
       id="guide4588"
       inkscape:locked="false" />
    <sodipodi:guide
       position="1.0583333,1.0583333"
       orientation="0,1"
       id="guide4590"
       inkscape:locked="false" />
    <sodipodi:guide
       position="8.4666665,8.4666665"
       orientation="0,1"
       id="guide822"
       inkscape:locked="false" />
    <sodipodi:guide
       position="8.4666665,8.4666665"
       orientation="1,0"
       id="guide824"
       inkscape:locked="false" />
  </sodipodi:namedview>
  <metadata
     id="metadata4569">
    <rdf:RDF>
      <cc:Work
         rdf:about="">
        <dc:format>image/svg+xml</dc:format>
        <dc:type
           rdf:resource="http://purl.org/dc/dcmitype/StillImage" />
        <dc:title>Canvas icon theme</dc:title>
        <cc:license
           rdf:resource="http://creativecommons.org/licenses/by-nc-sa/4.0/" />
        <dc:creator>
          <cc:Agent>
            <dc:title>Vince Liuice</dc:title>
          </cc:Agent>
        </dc:creator>
      </cc:Work>
      <cc:License
         rdf:about="http://creativecommons.org/licenses/by-nc-sa/4.0/">
        <cc:permits
           rdf:resource="http://creativecommons.org/ns#Reproduction" />
        <cc:permits
           rdf:resource="http://creativecommons.org/ns#Distribution" />
        <cc:requires
           rdf:resource="http://creativecommons.org/ns#Notice" />
        <cc:requires
           rdf:resource="http://creativecommons.org/ns#Attribution" />
        <cc:prohibits
           rdf:resource="http://creativecommons.org/ns#CommercialUse" />
        <cc:permits
           rdf:resource="http://creativecommons.org/ns#DerivativeWorks" />
        <cc:requires
           rdf:resource="http://creativecommons.org/ns#ShareAlike" />
      </cc:License>
    </rdf:RDF>
  </metadata>
  <g
     inkscape:label="Layer 1"
     inkscape:groupmode="layer"
     id="layer1"
     transform="translate(0,-280.06667)">
    <g
       transform="matrix(0.10554811,0,0,0.10554811,-5.0435077,275.04425)"
       style="opacity:1;isolation:isolate;stroke-width:2.50675559"
       id="g39">
      <circle
         style="vector-effect:non-scaling-stroke;fill:#242424;fill-opacity:1;stroke-width:2.50675559"
         cx="128.00015"
         cy="138.35703"
         r="54.374908"
         id="circle37" />
    </g>
    <path
       inkscape:connector-curvature="0"
       style="isolation:isolate;fill:#2fedd8;fill-opacity:1;stroke-width:0.26458333;stroke:#000000;stroke-opacity:0.19607843;stroke-miterlimit:4;stroke-dasharray:none"
       d="m 9.2286002,280.90217 c -0.1697214,9.6e-4 -0.4936485,0.0296 -0.659359,0.0755 -0.5534944,0.15337 -1.0697302,0.87383 -1.2608781,1.39799 -0.028815,0.0788 -0.065757,0.15083 -0.082749,0.15916 -0.016887,0.009 -0.083172,0.0249 -0.1467119,0.0382 -0.6550315,0.13711 -1.4547696,0.43761 -2.003092,0.7514 -1.2326965,0.7057 -2.178302,1.70745 -2.7936475,2.95904 -0.3475699,0.70696 -0.5445227,1.35525 -0.6584091,2.16743 -0.048341,0.34472 -0.048341,1.38817 0,1.73322 0.2184845,1.55387 0.8696109,2.88568 1.9399743,3.96986 1.2195029,1.23534 2.7852036,1.93913 4.5558788,2.04848 0.2200678,0.0137 0.8862875,-0.009 1.145197,-0.0372 0.7227928,-0.0818 1.4923433,-0.3024 2.1539203,-0.61704 2.157191,-1.02604 3.627582,-3.08285 3.898629,-5.45093 0.01331,-0.11684 0.0247,-0.43601 0.02481,-0.71214 0.04191,-0.78875 -0.282024,-1.5715 -0.606797,-2.14768 -0.335536,-0.69536 -0.400238,-1.29793 -0.449634,-2.03898 0.0067,-0.0453 0.0059,-0.0922 -0.0011,-0.10344 -0.889031,0.27337 -1.65014,0.99174 -2.118033,1.65636 -0.316434,0.50495 -0.52373,1.02087 -0.52468,1.47516 0.04423,1.15922 1.036483,1.99391 1.058436,3.04072 0,1.11121 -0.669386,2.1857 -1.464585,2.95387 -0.160011,0.15453 -0.198431,0.18293 -0.216057,0.16539 -0.0058,-0.006 0.01921,-0.074 0.05477,-0.15198 0.553495,-1.21443 0.43697,-2.67005 -0.413326,-3.68975 -0.118953,-0.14259 -0.586848,-0.605 -0.653238,-0.64595 0.03051,0.16043 0.04602,0.32339 0.04644,0.48677 0,1.46132 -1.1845666,2.6459 -2.6458801,2.6459 -1.4612082,0 -2.6458801,-1.18458 -2.6458801,-2.6459 0,-1.4613 1.1846719,-2.64587 2.6458801,-2.64587 0.1668714,4e-4 0.3333209,0.0167 0.4971314,0.0485 0.00855,4.1e-4 0.017309,4.1e-4 0.025858,9.7e-4 0.024697,-0.0211 0.040319,-0.0402 0.040319,-0.0466 0,-0.0409 -0.6513376,-0.69314 -0.8320357,-0.83299 -0.3673075,-0.28446 -0.7854889,-0.62749 -1.2681607,-0.75245 -0.1291908,-0.0335 -0.197375,-0.0602 -0.197375,-0.0774 0,-0.0492 0.4591345,-0.18587 0.9684038,-0.28835 0.6190397,-0.12466 1.0205447,-0.15516 2.2200992,-0.16751 0.5032533,-0.005 0.9993298,-0.0182 1.1027669,-0.0289 1.2930692,-0.20835 2.3333512,-1.05527 2.7966022,-2.00192 0.01298,-0.043 0.01151,-0.0435 -0.189142,-0.0435 -0.424937,0 -0.852617,-0.0882 -1.259717,-0.26768 -0.527108,-0.29901 -0.99078,-0.64553 -1.5554615,-0.76691 -0.1456568,-0.0314 -0.5407237,-0.0368 -0.7617413,-0.0671 -0.051825,-0.44382 0.1451287,-1.08757 0.3349044,-1.37318 0.047074,-0.0674 0.082222,-0.13267 0.078528,-0.14375 -0.00708,-0.0213 -0.07895,-0.0295 -0.1809095,-0.0289 z"
       id="path46" />
  </g>
</svg>
