<svg xmlns="http://www.w3.org/2000/svg" width="64" height="64"><g stroke="#38414d" stroke-linecap="round" stroke-linejoin="round" stroke-width="2"><path fill="#515e6f" d="M17.204 5A12.174 12.174 0 0 0 5 17.204v29.592c0 2.364.674 4.557 1.83 6.418h-.003q.014.021.03.042.333.531.716 1.025c.078.101.166.194.248.293.142.171.279.346.43.509h.015c.699.755 1.482 1.43 2.354 1.989h42.76a12.1 12.1 0 0 0 2.354-1.99h.015c.151-.162.288-.337.43-.508.081-.099.17-.192.248-.293q.383-.494.716-1.025.015-.021.03-.042h-.004A12.1 12.1 0 0 0 59 46.796V17.204C59 10.44 53.56 5 46.797 5z"/><path fill="#2bb563" d="M18.5 55.143V59H32v-3.857z"/><path fill="#5057eb" d="M8.319 55.143C10.54 57.51 13.684 59 17.203 59H18.5v-3.857z"/><path fill="#ffb73f" d="M45.5 55.143V59h1.296c3.52 0 6.663-1.49 8.886-3.857z"/><path fill="#e8475b" d="M32 55.143V59h13.5v-3.857z"/></g><path fill="#515e6f" d="M17.204 5A12.174 12.174 0 0 0 5 17.204v29.592c0 2.364.674 4.557 1.83 6.418h-.003q.014.021.03.042.333.531.716 1.025c.078.101.166.194.248.293.142.171.279.346.43.509h.015c.699.755 1.482 1.43 2.354 1.989h42.76a12.1 12.1 0 0 0 2.354-1.99h.015c.151-.162.288-.337.43-.508.081-.099.17-.192.248-.293q.383-.494.716-1.025.015-.021.03-.042h-.004A12.1 12.1 0 0 0 59 46.796V17.204C59 10.44 53.56 5 46.797 5z"/><path fill="#2bb563" d="M18.5 55.143V59H32v-3.857z"/><path fill="#5057eb" d="M8.319 55.143C10.54 57.51 13.684 59 17.203 59H18.5v-3.857z"/><path fill="#ffb73f" d="M45.5 55.143V59h1.296c3.52 0 6.663-1.49 8.886-3.857z"/><path fill="#e8475b" d="M32 55.143V59h13.5v-3.857z"/><path fill="#fff" d="M34.573 20.429a8.36 8.36 0 0 0-6.652 3.315 6.4 6.4 0 0 0-2.99-.742 6.43 6.43 0 0 0-6.43 6.426 6.4 6.4 0 0 0 .142 1.318 4.5 4.5 0 0 0-4 4.468 4.5 4.5 0 0 0 4.501 4.5 4.5 4.5 0 0 0 1.718-.346 6.2 6.2 0 0 1-.433-2.226c0-2.512 1.517-4.6 3.657-5.627a5.8 5.8 0 0 1 1.974-.652 8.54 8.54 0 0 1 3.44-5.074c1.238-.928 2.75-1.503 4.429-1.503h.004c.05 0 .1.01.15.012.038 0 .072-.012.11-.012 2.374.003 4.455 1.17 6.042 2.86.459-.148.92-.286 1.405-.287h.003c.096 0 .185.022.28.026.052-.003.1-.026.154-.026h.004c.214 0 .419.038.629.057a8.36 8.36 0 0 0-8.137-6.487"/><path fill="#fff" d="M34.192 26.214a6.575 6.429 0 0 0-6.575 6.429 6.575 6.429 0 0 0 .003.052 4.602 4.5 0 0 0-.66-.052 4.602 4.5 0 0 0-4.602 4.5 4.602 4.5 0 0 0 4.602 4.5h20.382a3.945 3.857 0 0 0 3.945-3.857 3.945 3.857 0 0 0-3.945-3.858 5.26 5.143 0 0 0-5.26-5.143 5.26 5.143 0 0 0-2.28.515 6.575 6.429 0 0 0-5.61-3.086"/></svg>