<svg width="64" height="64" version="1.1" xmlns="http://www.w3.org/2000/svg">
 <rect x="6" y="6" width="52" height="52" rx="8" ry="8" fill="#f2f2f2" fill-rule="evenodd" stroke="#c7c7c7" stroke-width="2"/>
 <rect x="6" y="6" width="52" height="52" rx="8" ry="8" fill="#f2f2f2" fill-rule="evenodd"/>
 <path d="m49 20.608-21.034.49c-2.068.047-4.149.837-5.788 2.158-1.58 1.302-2.524 3.224-3.017 5.178l7.5-.326c.067-.825.535-1.574 1.137-2.121.544-.471 1.237-.787 1.962-.814l18.017-.652z" fill="#29b55d"/>
 <path d="m18.428 30.555-3.18 8.397c-.42 1.109-.347 2.502.525 3.363 1.028 1.016 2.59 1.165 3.96 1.04l22.337-2.039 4.973-14.675-6.359.245-3.831 10.843-3.424.245L37.26 27.05l-6.848.326-4.076 11.25-2.283.081c-.66.024-1.019-.896-.815-1.467l2.527-7.093z" fill="#384aaa"/>
</svg>
