<svg xmlns="http://www.w3.org/2000/svg" width="64" height="64" viewBox="0 0 16.933 16.933"><rect width="13.758" height="13.758" x="1.587" y="1.586" fill="#4d4d4d" stroke="#232323" stroke-width=".529" rx=".826" ry=".826" style="paint-order:markers stroke fill"/><rect width="13.758" height="13.758" x="1.587" y="1.586" fill="#4d4d4d" rx=".826" ry=".826" style="paint-order:markers stroke fill"/><g fill="#fff"><rect width="3.175" height="3.175" x="2.91" y="2.91" opacity=".9" rx=".529" ry=".529"/><rect width="3.175" height="3.175" x="6.879" y="2.91" opacity=".9" rx=".529" ry=".529"/><rect width="3.175" height="3.175" x="10.848" y="2.91" opacity=".9" rx=".529" ry=".529"/><rect width="3.175" height="3.175" x="2.91" y="6.88" opacity=".9" rx=".529" ry=".529"/><rect width="3.175" height="3.175" x="6.879" y="6.88" opacity=".9" rx=".529" ry=".529"/><rect width="3.175" height="3.175" x="10.848" y="6.88" opacity=".9" rx=".529" ry=".529"/><rect width="3.175" height="3.175" x="2.91" y="10.85" opacity=".9" rx=".529" ry=".529"/><rect width="3.175" height="3.175" x="6.879" y="10.85" opacity=".9" rx=".529" ry=".529"/><rect width="3.175" height="3.175" x="10.848" y="10.85" opacity=".9" rx=".529" ry=".529"/></g></svg>