<svg xmlns="http://www.w3.org/2000/svg" width="64" height="64"><g stroke-width="3.78"><path fill="#fff" d="M2.003 18.002v35.997a.995.995 0 0 0 .998 1.002h58.002a1 1 0 0 0 .998-1.002V17.998H2.004z" style="paint-order:markers stroke fill"/><path d="M2.003 18.002v35.997a.995.995 0 0 0 .998 1.002h58.002a1 1 0 0 0 .998-1.002V17.998h-.998v35.044c0 .53-.435.956-.968.956H3.968a.96.96 0 0 1-.967-.956V17.998H1.999z" opacity=".35" style="paint-order:markers stroke fill"/><path fill="#666" d="M3.001 9a1 1 0 0 0-1.002 1v7.998H62v-7.997a1 1 0 0 0-.997-1.002z" style="paint-order:stroke markers fill"/><rect width="3.001" height="3.001" x="56.002" y="12" opacity=".35" ry="1.5" style="paint-order:stroke markers fill"/><rect width="3.001" height="3.001" x="50" y="12" opacity=".35" ry="1.5" style="paint-order:stroke markers fill"/><rect width="3.001" height="3.001" x="44.002" y="12" opacity=".35" ry="1.5" style="paint-order:stroke markers fill"/><path d="M20 31v17.511c0 .27.221.487.499.487h29c.276 0 .5-.218.499-.487L50 30.999h-1v17H21v-17h-1.002z" opacity=".35" style="paint-order:markers stroke fill"/><path fill="#666" d="M21 22a1.01 1.01 0 0 0-1.002 1.002v7.997h30v-7.997C50 22.449 49.444 22 49 22z" style="paint-order:stroke markers fill"/><rect width="3.001" height="3.001" x="44" y="25" opacity=".35" ry="1.5" style="paint-order:stroke markers fill"/><rect width="3.001" height="3.001" x="38" y="25" opacity=".35" ry="1.5" style="paint-order:stroke markers fill"/><rect width="3.001" height="3.001" x="32" y="25" opacity=".35" ry="1.5" style="paint-order:stroke markers fill"/></g></svg>