<svg xmlns="http://www.w3.org/2000/svg" width="64" height="64" viewBox="0 0 16.933 16.933"><g transform="translate(0 -280.07)"><path fill="#fff" fill-opacity=".976" stroke="#000" stroke-opacity=".268" stroke-width=".529" d="M3.175 282.45c-.293 0-.265.264-.265.53H1.852c-.265 0-.265 0-.265.264v5.556c0 .293.237.53.53.53h12.7a.53.53 0 0 0 .529-.53v-5.556c0-.265 0-.265-.265-.265H7.673c0-.265.028-.53-.265-.53z" style="paint-order:markers stroke fill"/><path fill="#fff" fill-opacity=".976" d="M3.175 282.45c-.293 0-.265.264-.265.53H1.852c-.265 0-.265 0-.265.264v5.556c0 .293.237.53.53.53h12.7a.53.53 0 0 0 .529-.53v-5.556c0-.265 0-.265-.265-.265H7.673c0-.265.028-.53-.265-.53z" style="paint-order:markers stroke fill"/><path fill="none" stroke="#003779" stroke-opacity=".561" stroke-width=".529" d="M8.467 284.3c-.293 0-.382.276-.53.53l-.308.528H.794c-.265 0-.265.265-.265.265v8.996c0 .264.265.264.265.264H16.14c.264 0 .264-.264.264-.264v-10.054c0-.265-.264-.265-.264-.265z" style="paint-order:markers stroke fill"/><path fill="#6ba4e7" d="M8.467 284.3c-.293 0-.382.276-.53.53l-.308.528H.794c-.265 0-.265.265-.265.265v8.996c0 .264.265.264.265.264H16.14c.264 0 .264-.264.264-.264v-10.054c0-.265-.264-.265-.264-.265z" style="paint-order:markers stroke fill"/><rect width="3.704" height=".529" x="3.44" y="282.98" fill-opacity=".267" rx=".265" ry=".265" style="paint-order:markers stroke fill"/></g><path fill="#fff" d="m6.087 9.441-.002-1.699 1.905-.284v1.983zm2.22-2.033 2.54-.406v2.439h-2.54zm2.54 2.381v2.439l-2.54-.392V9.789zM7.99 11.791l-1.903-.286V9.789H7.99z"/></svg>