<?xml version="1.0" encoding="UTF-8" standalone="no"?>
<!-- Created with Inkscape (http://www.inkscape.org/) -->

<svg
   xmlns:dc="http://purl.org/dc/elements/1.1/"
   xmlns:cc="http://creativecommons.org/ns#"
   xmlns:rdf="http://www.w3.org/1999/02/22-rdf-syntax-ns#"
   xmlns:svg="http://www.w3.org/2000/svg"
   xmlns="http://www.w3.org/2000/svg"
   xmlns:xlink="http://www.w3.org/1999/xlink"
   xmlns:sodipodi="http://sodipodi.sourceforge.net/DTD/sodipodi-0.dtd"
   xmlns:inkscape="http://www.inkscape.org/namespaces/inkscape"
   width="64"
   height="64"
   viewBox="0 0 16.933333 16.933334"
   version="1.1"
   id="svg8"
   inkscape:version="0.92.4 (5da689c313, 2019-01-14)"
   sodipodi:docname="wine-winefile.svg">
  <defs
     id="defs2">
    <clipPath
       clipPathUnits="userSpaceOnUse"
       id="clipPath827">
      <rect
         ry="0.52915645"
         y="285.35831"
         x="0.52916664"
         height="9.5249939"
         width="15.875"
         id="rect829"
         style="opacity:1;fill:#5294e2;fill-opacity:1;stroke:none;stroke-width:0.25100571;stroke-miterlimit:4;stroke-dasharray:none;stroke-opacity:0.19607843;paint-order:markers stroke fill"
         transform="rotate(45)" />
    </clipPath>
    <linearGradient
       inkscape:collect="always"
       xlink:href="#linearGradient835"
       id="linearGradient837-3"
       x1="-197.10156"
       y1="217.68132"
       x2="-196.91447"
       y2="219.36513"
       gradientUnits="userSpaceOnUse" />
    <linearGradient
       inkscape:collect="always"
       id="linearGradient835">
      <stop
         style="stop-color:#000000;stop-opacity:1;"
         offset="0"
         id="stop831" />
      <stop
         style="stop-color:#000000;stop-opacity:0;"
         offset="1"
         id="stop833" />
    </linearGradient>
    <clipPath
       clipPathUnits="userSpaceOnUse"
       id="clipPath872">
      <path
         sodipodi:nodetypes="sccscscscccs"
         inkscape:connector-curvature="0"
         style="opacity:1;fill:#6ba4e7;fill-opacity:1;stroke:none;stroke-width:0.52916664;stroke-miterlimit:4;stroke-dasharray:none;stroke-opacity:0.56078384;paint-order:markers stroke fill"
         d="m -194.48233,207.57853 c -0.20729,-0.20729 -0.46484,-0.0746 -0.74835,1e-5 l -0.59232,0.15602 -4.64618,-4.64614 c -0.18708,-0.18709 -0.37417,-1e-5 -0.37417,-1e-5 l -5.98684,6.73519 c -0.17578,0.19776 0,0.37419 0,0.37419 l 9.72861,9.72861 c 0.18709,0.18709 0.37418,-1e-5 0.37418,-1e-5 l 7.48354,-6.73518 c 0.1871,-0.1871 1e-5,-0.37419 1e-5,-0.37419 z"
         id="path874" />
    </clipPath>
  </defs>
  <sodipodi:namedview
     id="base"
     pagecolor="#ffffff"
     bordercolor="#666666"
     borderopacity="1.0"
     inkscape:pageopacity="0.0"
     inkscape:pageshadow="2"
     inkscape:zoom="5.6"
     inkscape:cx="-25.961239"
     inkscape:cy="45.600036"
     inkscape:document-units="mm"
     inkscape:current-layer="layer1"
     showgrid="true"
     units="px"
     inkscape:window-width="1366"
     inkscape:window-height="711"
     inkscape:window-x="0"
     inkscape:window-y="27"
     inkscape:window-maximized="1"
     inkscape:snap-bbox="true"
     inkscape:snap-bbox-edge-midpoints="true"
     inkscape:snap-bbox-midpoints="true"
     inkscape:bbox-nodes="true">
    <inkscape:grid
       type="xygrid"
       id="grid3713" />
  </sodipodi:namedview>
  <metadata
     id="metadata5">
    <rdf:RDF>
      <cc:Work
         rdf:about="">
        <dc:format>image/svg+xml</dc:format>
        <dc:type
           rdf:resource="http://purl.org/dc/dcmitype/StillImage" />
        <dc:title />
      </cc:Work>
    </rdf:RDF>
  </metadata>
  <g
     inkscape:label="Layer 1"
     inkscape:groupmode="layer"
     id="layer1"
     transform="translate(0,-280.06663)">
    <path
       sodipodi:nodetypes="scsssssssscss"
       inkscape:connector-curvature="0"
       id="rect4538-5"
       d="m 3.175,282.44788 c -0.2931528,0 -0.2645834,0.26458 -0.2645834,0.52917 H 1.8520833 c -0.2645833,0 -0.2645833,0 -0.2645833,0.26458 v 5.55625 c 0,0.29316 0.2360061,0.52917 0.5291666,0.52917 H 14.816666 c 0.293161,0 0.529167,-0.23601 0.529167,-0.52917 v -5.55625 c 0,-0.26458 0,-0.26458 -0.264583,-0.26458 H 7.6729167 c 0,-0.26459 0.028569,-0.52917 -0.2645834,-0.52917 z"
       style="opacity:1;fill:#ffffff;fill-opacity:0.97647059;stroke:#000000;stroke-width:0.52916682;stroke-miterlimit:4;stroke-dasharray:none;stroke-opacity:0.2679739;paint-order:markers stroke fill" />
    <path
       style="opacity:1;fill:#ffffff;fill-opacity:0.97647059;stroke:none;stroke-width:0.52916682;stroke-miterlimit:4;stroke-dasharray:none;stroke-opacity:0.2679739;paint-order:markers stroke fill"
       d="m 3.175,282.44788 c -0.2931528,0 -0.2645834,0.26458 -0.2645834,0.52917 H 1.8520833 c -0.2645833,0 -0.2645833,0 -0.2645833,0.26458 v 5.55625 c 0,0.29316 0.2360061,0.52917 0.5291666,0.52917 H 14.816666 c 0.293161,0 0.529167,-0.23601 0.529167,-0.52917 v -5.55625 c 0,-0.26458 0,-0.26458 -0.264583,-0.26458 H 7.6729167 c 0,-0.26459 0.028569,-0.52917 -0.2645834,-0.52917 z"
       id="path830"
       inkscape:connector-curvature="0"
       sodipodi:nodetypes="scsssssssscss" />
    <path
       sodipodi:nodetypes="sccscscscccs"
       inkscape:connector-curvature="0"
       style="opacity:1;fill:#6ba4e7;fill-opacity:1;stroke:#003779;stroke-width:0.52916682;stroke-miterlimit:4;stroke-dasharray:none;stroke-opacity:0.56078384;paint-order:markers stroke fill"
       d="m 8.4666667,284.29995 c -0.2931618,0 -0.3814517,0.27594 -0.5291667,0.52917 l -0.3085084,0.52916 -6.5706583,2e-5 c -0.26458322,0 -0.26458322,0.26458 -0.26458322,0.26458 l 0.52916662,8.99583 C 1.3384541,294.88284 1.5875,294.8833 1.5875,294.8833 h 13.758333 c 0.264584,0 0.264584,-0.26459 0.264584,-0.26459 l 0.529167,-10.05416 c 0,-0.26459 -0.264584,-0.26459 -0.264584,-0.26459 z"
       id="path869" />
    <path
       id="path832"
       d="m 8.4666667,284.29995 c -0.2931618,0 -0.3814517,0.27594 -0.5291667,0.52917 l -0.3085084,0.52916 -6.5706583,2e-5 c -0.26458322,0 -0.26458322,0.26458 -0.26458322,0.26458 l 0.52916662,8.99583 C 1.3384541,294.88284 1.5875,294.8833 1.5875,294.8833 h 13.758333 c 0.264584,0 0.264584,-0.26459 0.264584,-0.26459 l 0.529167,-10.05416 c 0,-0.26459 -0.264584,-0.26459 -0.264584,-0.26459 z"
       style="opacity:1;fill:#6ba4e7;fill-opacity:1;stroke:none;stroke-width:0.52916664;stroke-miterlimit:4;stroke-dasharray:none;stroke-opacity:0.56078384;paint-order:markers stroke fill"
       inkscape:connector-curvature="0"
       sodipodi:nodetypes="sccscscscccs" />
    <rect
       style="opacity:1;fill:#000000;fill-opacity:0.26666667;stroke:none;stroke-width:0.52916682;stroke-linecap:round;stroke-linejoin:miter;stroke-miterlimit:4;stroke-dasharray:none;stroke-opacity:1;paint-order:markers stroke fill"
       id="rect830"
       width="3.7041669"
       height="0.52915972"
       x="3.4395838"
       y="282.97705"
       rx="0.26458353"
       ry="0.26457515" />
    <rect
       clip-path="url(#clipPath872)"
       transform="rotate(-45,-0.39691983,0.95812238)"
       ry="0.13229166"
       y="217.86841"
       x="-199.58691"
       height="4.7624998"
       width="5.2916665"
       id="rect819-2"
       style="opacity:0.1;fill:url(#linearGradient837-3);fill-opacity:1;stroke:none;stroke-width:0.52916664;stroke-miterlimit:4;stroke-dasharray:none;stroke-opacity:0.03921569;paint-order:stroke markers fill" />
    <path
       id="path9"
       d="m 6.0871568,289.50785 -0.00174,-1.69863 1.9050068,-0.28383 v 1.98246 z m 2.2207722,-2.03309 2.539373,-0.4054 v 2.43849 H 8.307929 Z m 2.539988,2.38145 -6.15e-4,2.4385 -2.5393738,-0.39199 v -2.04651 z m -2.8574895,2.00217 -1.9034592,-0.28628 -1.018e-4,-1.71589 h 1.9035584 v 2.00217 z"
       style="fill:#ffffff;stroke-width:0.00762143"
       inkscape:connector-curvature="0" />
  </g>
</svg>
