<svg xmlns="http://www.w3.org/2000/svg" width="64" height="64" viewBox="0 0 16.933 16.933"><g transform="translate(0 -280.067)"><g paint-order="markers stroke fill"><rect width="14.288" height="14.288" x="1.323" y="281.39" fill="#2196f3" rx=".529" ry=".529"/><path d="M1.852 281.39a.53.53 0 0 0-.53.529v13.229c0 .293.237.53.53.53h13.23a.53.53 0 0 0 .528-.53v-13.23a.53.53 0 0 0-.529-.528zm0 .264h13.23c.146 0 .264.118.264.265v13.229a.264.264 0 0 1-.265.265H1.852a.264.264 0 0 1-.265-.265v-13.23c0-.146.119-.264.265-.264" opacity=".25"/></g><path fill="#fff" d="m4.852 288.269-.003-2.58 2.894-.432v3.012zm3.374-3.089 3.857-.615v3.704H8.226zm3.858 3.618-.001 3.704-3.857-.595v-3.11zm-4.34 3.041-2.892-.435v-2.606h2.891z"/><circle cx="12.7" cy="292.767" r="3.175" fill="#f55" stroke="#e73d3d" stroke-width=".529" paint-order="stroke markers fill"/><circle cx="12.7" cy="292.767" r="3.175" fill="#f55" paint-order="stroke markers fill"/><g fill="#fff"><rect width="3.704" height="1.058" x="10.583" y="292.238" opacity=".5" paint-order="markers stroke fill" rx=".529" ry=".529"/><circle cx="13.758" cy="292.767" r="1.058" paint-order="stroke markers fill"/></g></g></svg>