<svg xmlns="http://www.w3.org/2000/svg" width="64" height="64" viewBox="0 0 16.933 16.933"><g transform="translate(0 -280.067)"><path fill="#fff" d="M.53 284.83v9.524c0 .147.117.265.264.265H16.14a.264.264 0 0 0 .264-.265v-9.525z" paint-order="markers stroke fill"/><path d="M.53 284.83v9.524c0 .147.117.265.264.265H16.14a.264.264 0 0 0 .264-.265v-9.525h-.264v9.272c0 .14-.115.253-.256.253H1.05a.254.254 0 0 1-.256-.253v-9.272z" opacity=".15" paint-order="markers stroke fill"/><path fill="#666" d="M.794 282.448a.264.264 0 0 0-.265.265v2.116h15.875v-2.116a.264.264 0 0 0-.264-.265z" paint-order="stroke markers fill"/><rect width=".794" height=".794" x="14.817" y="283.242" opacity=".35" paint-order="stroke markers fill" ry=".397"/><rect width=".794" height=".794" x="13.229" y="283.242" opacity=".35" paint-order="stroke markers fill" ry=".397"/><rect width=".794" height=".794" x="11.642" y="283.242" opacity=".35" paint-order="stroke markers fill" ry=".397"/><rect width="8.467" height=".529" x="4.233" y="286.946" opacity=".35" paint-order="stroke markers fill" ry=".265"/><circle cx="10.054" cy="287.21" r="1.058" fill="#308fcf" paint-order="stroke markers fill"/><rect width="8.467" height=".529" x="4.233" y="291.179" opacity=".35" paint-order="stroke markers fill" ry=".265"/><circle cx="6.615" cy="291.444" r="1.587" opacity=".15" paint-order="markers stroke fill"/><circle cx="6.615" cy="291.444" r="1.058" fill="#308fcf" paint-order="markers stroke fill"/></g></svg>