<svg xmlns="http://www.w3.org/2000/svg" width="64" height="64"><g stroke-width="3.78"><path fill="#fff" d="M2.003 45.998V10.001a.995.995 0 0 1 .998-1.002h58.002a1 1 0 0 1 .998 1.002v36.001H2.004z" style="paint-order:markers stroke fill"/><path fill="#666" d="M3.001 56a1 1 0 0 1-1.002-1.002v-8.997H62v8.997A1 1 0 0 1 61.003 56z" style="paint-order:stroke markers fill"/><path d="M2.003 45.996V9.001a.995.995 0 0 1 .998-1.002h58.002c.553 0 1 .45.998 1.002v36.998h-.998V9.957a.96.96 0 0 0-.968-.956H3.968a.96.96 0 0 0-.967.956v36.042H1.999z" opacity=".1" style="paint-order:markers stroke fill"/></g><path d="M10 48a3 3 0 0 0-3 3 3 3 0 0 0 3 3 3 3 0 0 0 3-3 3 3 0 0 0-3-3m0 1a2 2 0 0 1 2 2 2 2 0 0 1-2 2 2 2 0 0 1-2-2 2 2 0 0 1 2-2" opacity=".35" style="paint-order:fill markers stroke"/><rect width="16" height="4" x="40" y="49" opacity=".35" rx="1" ry="1" style="paint-order:fill markers stroke"/><rect width="4" height="4" x="18" y="49" opacity=".35" rx="1" ry="1" style="paint-order:fill markers stroke"/><rect width="4" height="4" x="24" y="49" opacity=".35" rx="1" ry="1" style="paint-order:fill markers stroke"/><rect width="4" height="4" x="30" y="49" opacity=".35" rx="1" ry="1" style="paint-order:fill markers stroke"/></svg>