<svg xmlns="http://www.w3.org/2000/svg" width="64" height="64"><g transform="translate(-.4 -22)scale(1.35)"><rect width="40" height="40" x="4" y="20" fill="#da4446" stroke="#a22224" stroke-width="1.482" rx="20"/><rect width="40" height="40" x="4" y="20" fill="#da4446" rx="20"/><path fill="#fce3e0" d="M17.93 31.001q-.098.002-.226.012c-.324.02-6.437 1.165-6.827 1.278-.41.12-.762.372-.848.61-.146.407.278 1.728.837 2.615 2.23 2.648 4.707 3.321 7.134 4.749.279.326.389.484-1.748 1.43-3.34 1.479-4.42 2.737-5.06 4.597-.19.55-.277 2.004-.144 2.37.173.474.277.57 3.504-.042 3.241-.615 2.973-.651 3.244-.907.22-.209.232-.26.329-1.246.055-.566.17-1.67.253-1.963.195-.679.684-1.389 1.218-1.764 2.021-1.423 5.827-.713 7.886 1.47.776.823 1.263 1.997 1.652 3.273.224.737.452 1.056.806 1.127.325.064.333-.037 4.458-.82 2.294-.436 3.249-.648 3.384-.753.29-.226.29-.779.002-1.692-.496-1.57-1.356-2.612-2.95-3.82-.788-.596-1.783-1.16-3.468-1.968C29.763 38.79 29 38.582 29 38.344c0-.197.63-.285 1.901-.666 2.786-.833 4.128-2.003 4.128-4.168 0-.95-.18-1.717-.458-1.966-.371-.331-1.022-.342-2.58-.06-4.992.903-4.648.868-4.88 1.243-.123.2-.118.246.108 1.15.13.517.233 1.165.233 1.315-.002.32-.418.854-.62 1.044-.498.466-1.624.782-2.778.782-1.396 0-2.448-.48-3.492-1.592-.755-.804-1.14-1.581-1.655-3.013-.451-1.257-.513-1.42-.977-1.412"/></g></svg>