<svg xmlns="http://www.w3.org/2000/svg" width="64" height="64"><rect width="48.001" height="52" x="8.021" y="5.978" fill="#7fbc34" stroke="#578024" stroke-width="2" ry="2.079" style="paint-order:stroke markers fill"/><g style="paint-order:stroke markers fill"><g transform="matrix(3.78 0 0 3.93 0 -1102.17)"><rect width="12.7" height="13.229" x="2.117" y="281.92" fill="#7fbc34" ry=".529"/><path fill="green" d="M2.646 281.92a.53.53 0 0 0-.53.529v5.045a9.26 9.26 0 0 0 8.467 5.538 9.26 9.26 0 0 0 4.234-1.027v-9.556a.53.53 0 0 0-.53-.53z" opacity=".1"/><path fill="#fff" d="M2.646 281.92a.53.53 0 0 0-.53.529v12.17c0 .294.237.53.53.53h5.909a10.58 10.58 0 0 0 6.262-5.472v-7.228a.53.53 0 0 0-.53-.53z" opacity=".1"/></g><path fill="#fff" d="M20.002 15.001a12 12 0 0 0 12 12 12 12 0 0 0 12-12h-3a9 9 0 0 1-9 9 9 9 0 0 1-9.003-9z"/></g><path fill="#fff" d="M12 44v10h10V44zm2 2h2v2h2v-2h2v4h-2v2h-2v-2h-2z"/></svg>