<svg xmlns="http://www.w3.org/2000/svg" width="64" height="64"><g transform="translate(161 38.64)"><path fill="#e1e3e7" d="M-150-33.64v54h42v-54z"/><rect width="43" height="55" x="-150.5" y="-34.14" fill="none" stroke="#000" stroke-opacity=".24" rx=".5" ry=".5"/><g fill="#8c8c8c"><rect width="2" height="2" x="-149" y="-32.64" rx="1" ry="1"/><rect width="2" height="2" x="-111" y="-32.64" rx="1" ry="1"/><rect width="2" height="2" x="-111" y="17.36" rx="1" ry="1"/><rect width="2" height="2" x="-149" y="17.36" rx="1" ry="1"/><rect width="2" height="2" x="-149" y="-7.64" rx="1" ry="1"/><rect width="2" height="2" x="-111" y="-7.64" rx="1" ry="1"/></g><path fill="#edeff3" stroke="#cbcdd1" d="m-122-30.14-17.934 18.17A16.5 16.5 0 0 0-145.5.36a16.5 16.5 0 0 0 16.5 16.5A16.5 16.5 0 0 0-112.5.36a17 17 0 0 0-.03-.852.5.5 0 0 0 .03-.148v-29c0-.277-.223-.5-.5-.5z"/><circle cx="-129" cy=".36" r="6.5" fill="#e1e3e7" stroke="#cfd1d5"/><rect width="20" height="12" x="-143.5" y="-27.14" fill="#4c5263" stroke="#313643" rx="1.5" ry="1.5"/><path fill="#e9eaee" d="M-142-24.64v1h3.19v-1zm3.609 0v1h3.021v-1zm3.441 0v1h2.644v-1zm3.063 0v1h1.175v-1zm-10.113 3v1h5.078v-1zm5.581 0v1h2.434v-1zm2.896 0v1h1.133v-1zm-8.477 3v1h5.623v-1zm6.043 0v1h2.943v-1zm5.957 0v1h5.078v-1z"/></g><path fill="#49494c" fill-rule="evenodd" stroke="#000" stroke-opacity=".392" d="M48 39.122C48 47.837 40.837 55 32 55s-16-7.163-16-15.878C16 30.164 23.163 23 32 23s16 7.164 16 16.122"/><g stroke-width=".667"><path fill="#8cd839" d="M32 27.014a12 12 0 0 0-10.369 5.979L32 38.176l10.362-5.183A12 12 0 0 0 32 27.014"/><path fill="#419bc8" d="M20.952 34.33a12 12 0 0 0-.953 4.684 12 12 0 0 0 11.25 11.962V39.477z"/><path fill="#57cfc2" d="m43.035 34.332-10.286 5.145v11.51A12 12 0 0 0 44 39.014a12 12 0 0 0-.964-4.682z"/></g></svg>