<svg xmlns="http://www.w3.org/2000/svg" width="64" height="64"><rect width="52" height="52" x="6" y="6" fill="#ec5056" stroke="#bc2f33" stroke-width="2" rx="8" ry="8"/><rect width="52" height="52" x="6" y="6" fill="#ec5056" rx="8" ry="8"/><path fill="#fff" d="M31.91 14A18 18 0 0 0 14 32a18 18 0 0 0 18 18 18 18 0 0 0 18-18 18 18 0 0 0-18-18zm-4.17 8.66q.522.027.977.344l11.213 7.727q.53.374.734.982a1.9 1.9 0 0 1 0 1.225 1.9 1.9 0 0 1-.738.978l-11.21 7.727a1.88 1.88 0 0 1-1.331.328q-.727-.09-1.213-.639c-.486-.549-.49-.793-.49-1.283V24.6q.001-.736.49-1.286a1.88 1.88 0 0 1 1.213-.639q.181-.023.355-.013z"/></svg>