<svg width="64" height="64" version="1.1" xmlns="http://www.w3.org/2000/svg">
 <rect x="6" y="6" width="52" height="52" rx="8" ry="8" fill="#4d4d4d" stroke="#333333" stroke-linecap="round" stroke-linejoin="round" stroke-width="2"/>
 <rect x="6" y="6" width="52" height="52" rx="8" ry="8" fill="#4d4d4d" stroke-width=".92857"/>
 <path d="M47.054 43.298c-.035 2.059-1.761 3.69-3.825 3.69H27.716a.844.844 0 0 1-.781-1.168l.005-.012a14.027 13.994 0 0 1 4.788-6.043c.264-.188.581-.286.904-.286h10.659a3.764 3.755 0 0 1 3.763 3.82zM36.285 16.953a.844.844 0 0 1 .782 1.167l-.005.013a14.027 13.994 0 0 1-4.789 6.043c-.263.188-.58.285-.904.285H20.773c-2.064 0-3.79-1.631-3.825-3.69a3.764 3.755 0 0 1 3.763-3.819zM20.71 46.989a3.763 3.754 0 0 1-3.475-5.193 24.535 24.477 0 0 1 5.211-7.85 24.47 24.413 0 0 1 8.115-5.444 16.97 16.97 0 0 0 9.252-9.23 3.764 3.755 0 0 1 6.954 2.872 24.535 24.477 0 0 1-5.211 7.85 24.47 24.413 0 0 1-8.115 5.445 16.97 16.97 0 0 0-9.253 9.23 3.764 3.755 0 0 1-3.478 2.32" fill="#fff" stroke-width="0"/>
</svg>
