<?xml version="1.0" encoding="UTF-8" standalone="no"?>
<svg
   xmlns:dc="http://purl.org/dc/elements/1.1/"
   xmlns:cc="http://creativecommons.org/ns#"
   xmlns:rdf="http://www.w3.org/1999/02/22-rdf-syntax-ns#"
   xmlns:svg="http://www.w3.org/2000/svg"
   xmlns="http://www.w3.org/2000/svg"
   xmlns:sodipodi="http://sodipodi.sourceforge.net/DTD/sodipodi-0.dtd"
   xmlns:inkscape="http://www.inkscape.org/namespaces/inkscape"
   height="64"
   viewBox="0 0 64 64"
   width="64"
   version="1.1"
   id="svg63"
   sodipodi:docname="zotero.svg"
   inkscape:version="0.92.4 (5da689c313, 2019-01-14)">
  <metadata
     id="metadata67">
    <rdf:RDF>
      <cc:Work
         rdf:about="">
        <dc:format>image/svg+xml</dc:format>
        <dc:type
           rdf:resource="http://purl.org/dc/dcmitype/StillImage" />
        <dc:title>Template icons dark</dc:title>
      </cc:Work>
    </rdf:RDF>
  </metadata>
  <sodipodi:namedview
     pagecolor="#ffffff"
     bordercolor="#666666"
     borderopacity="1"
     objecttolerance="10"
     gridtolerance="10"
     guidetolerance="10"
     inkscape:pageopacity="0"
     inkscape:pageshadow="2"
     inkscape:window-width="1366"
     inkscape:window-height="711"
     id="namedview65"
     showgrid="true"
     inkscape:zoom="7.375"
     inkscape:cx="10.037764"
     inkscape:cy="35.349402"
     inkscape:window-x="0"
     inkscape:window-y="27"
     inkscape:window-maximized="1"
     inkscape:current-layer="svg63">
    <inkscape:grid
       type="xygrid"
       id="grid819" />
  </sodipodi:namedview>
  <title
     id="title2">Template icons dark</title>
  <defs
     id="defs35" />
  <path
     inkscape:connector-curvature="0"
     style="color:#000000;display:block;overflow:visible;isolation:auto;mix-blend-mode:normal;fill:#423c50;fill-opacity:1;stroke-width:1;marker:none;paint-order:fill markers stroke;stroke:#000000;stroke-opacity:0.19607843;stroke-miterlimit:4;stroke-dasharray:none"
     d="M 57.234555,46.63955 C 56.214868,48.39728 34.038937,61.139045 31.999486,61.139535 29.959695,61.138761 7.7849674,48.39722 6.7643983,46.639519 c -1.0201041,-1.758502 -1.019706,-27.24227 -1.84e-5,-29 C 7.784067,15.88179 29.959998,3.1400255 31.999449,3.139535 c 2.039791,7.739e-4 24.214519,12.742315 25.235088,14.500016 1.020104,1.758503 1.019705,27.242271 1.8e-5,28.999999 z"
     display="block"
     overflow="visible"
     id="path39" />
  <path
     inkscape:connector-curvature="0"
     style="color:#000000;display:block;overflow:visible;opacity:0.15;isolation:auto;mix-blend-mode:normal;fill:#ffffff;fill-opacity:1;stroke-width:3.72083044;marker:none;paint-order:fill markers stroke"
     d="m 51.412004,43.414945 c -0.784361,1.33341 -17.842407,10.999618 -19.411186,11.00013 -1.569611,3.9e-5 -18.628481,-9.666628 -19.412419,-11.000341 -0.783587,-1.332429 -0.784764,-20.666591 -4.03e-4,-22.000001 0.784361,-1.33341 17.843239,-10.999147 19.412019,-10.999658 1.569611,-4e-5 18.62848,9.666627 19.412419,11.000341 0.783587,1.332428 0.783931,20.666119 -4.3e-4,21.999529 z"
     display="block"
     overflow="visible"
     id="path43" />
  <g
     aria-label="z"
     style="font-style:normal;font-variant:normal;font-weight:bold;font-stretch:normal;font-size:50px;line-height:1.25;font-family:sans-serif;-inkscape-font-specification:'sans-serif Bold';letter-spacing:0px;word-spacing:0px;fill:#ff5555;fill-opacity:1;stroke:none;stroke-width:1"
     id="text822">
    <path
       d="m 20.95,46 h 22.1 V 40.2 H 30.1 L 42.65,21.95 V 18 h -20.3 v 5.8 h 11.1 l -12.5,18.25 z"
       style="stroke-width:1"
       id="path817" />
  </g>
</svg>
