<?xml version="1.0" encoding="UTF-8" standalone="no"?>
<!-- Created with Inkscape (http://www.inkscape.org/) -->

<svg
   xmlns:dc="http://purl.org/dc/elements/1.1/"
   xmlns:cc="http://creativecommons.org/ns#"
   xmlns:rdf="http://www.w3.org/1999/02/22-rdf-syntax-ns#"
   xmlns:svg="http://www.w3.org/2000/svg"
   xmlns="http://www.w3.org/2000/svg"
   xmlns:sodipodi="http://sodipodi.sourceforge.net/DTD/sodipodi-0.dtd"
   xmlns:inkscape="http://www.inkscape.org/namespaces/inkscape"
   width="22"
   height="22"
   viewBox="0 0 5.8208332 5.8208332"
   version="1.1"
   id="svg4572"
   inkscape:version="0.92.4 (5da689c313, 2019-01-14)"
   sodipodi:docname="emblem-system.svg">
  <title
     id="title4611">Canvas icon theme</title>
  <defs
     id="defs4566" />
  <sodipodi:namedview
     id="base"
     pagecolor="#ffffff"
     bordercolor="#666666"
     borderopacity="1.0"
     inkscape:pageopacity="0.0"
     inkscape:pageshadow="2"
     inkscape:zoom="15.839192"
     inkscape:cx="-5.7370584"
     inkscape:cy="10.380297"
     inkscape:document-units="px"
     inkscape:current-layer="layer1"
     showgrid="true"
     units="px"
     width="64px"
     showguides="true"
     inkscape:guide-bbox="true"
     inkscape:window-width="1366"
     inkscape:window-height="711"
     inkscape:window-x="0"
     inkscape:window-y="27"
     inkscape:window-maximized="1"
     inkscape:snap-bbox="true"
     inkscape:bbox-nodes="true"
     inkscape:snap-bbox-edge-midpoints="true">
    <inkscape:grid
       type="xygrid"
       id="grid4582" />
  </sodipodi:namedview>
  <metadata
     id="metadata4569">
    <rdf:RDF>
      <cc:Work
         rdf:about="">
        <dc:format>image/svg+xml</dc:format>
        <dc:type
           rdf:resource="http://purl.org/dc/dcmitype/StillImage" />
        <dc:title>Canvas icon theme</dc:title>
        <cc:license
           rdf:resource="http://creativecommons.org/licenses/by-nc-sa/4.0/" />
        <dc:creator>
          <cc:Agent>
            <dc:title>Vince Liuice</dc:title>
          </cc:Agent>
        </dc:creator>
      </cc:Work>
      <cc:License
         rdf:about="http://creativecommons.org/licenses/by-nc-sa/4.0/">
        <cc:permits
           rdf:resource="http://creativecommons.org/ns#Reproduction" />
        <cc:permits
           rdf:resource="http://creativecommons.org/ns#Distribution" />
        <cc:requires
           rdf:resource="http://creativecommons.org/ns#Notice" />
        <cc:requires
           rdf:resource="http://creativecommons.org/ns#Attribution" />
        <cc:prohibits
           rdf:resource="http://creativecommons.org/ns#CommercialUse" />
        <cc:permits
           rdf:resource="http://creativecommons.org/ns#DerivativeWorks" />
        <cc:requires
           rdf:resource="http://creativecommons.org/ns#ShareAlike" />
      </cc:License>
    </rdf:RDF>
  </metadata>
  <g
     inkscape:label="Layer 1"
     inkscape:groupmode="layer"
     id="layer1"
     transform="translate(0,-291.17917)">
    <path
       inkscape:connector-curvature="0"
       style="display:inline;opacity:1;fill:#ffffff;fill-opacity:1;stroke:none;stroke-width:0.26458332;stroke-opacity:1;enable-background:new"
       d="m 3.2411396,292.76667 0.029138,0.34846 a 1.0394345,1.0394345 0 0 1 0.3038158,0.1757 l 0.3166983,-0.14915 0.3307265,0.57289 -0.2875571,0.19967 a 1.0394345,1.0394345 0 0 1 0.015901,0.17535 1.0394345,1.0394345 0 0 1 -0.015134,0.17606 l 0.286803,0.19895 -0.3307292,0.57289 -0.3159786,-0.14875 a 1.0394345,1.0394345 0 0 1 -0.3044957,0.17459 l -0.029176,0.34917 H 2.5796945 l -0.029139,-0.34845 a 1.0394345,1.0394345 0 0 1 -0.3038157,-0.1757 l -0.3166983,0.14914 -0.3307292,-0.57289 0.2875597,-0.19967 a 1.0394345,1.0394345 0 0 1 -0.015901,-0.17534 1.0394345,1.0394345 0 0 1 0.015134,-0.17606 l -0.2868029,-0.19896 0.3307291,-0.57289 0.3159786,0.14875 a 1.0394345,1.0394345 0 0 1 0.3044957,-0.17458 l 0.029178,-0.34918 h 0.6614583 z m -0.3307292,0.88194 a 0.44097222,0.44097222 0 0 0 -0.4409731,0.44098 0.44097222,0.44097222 0 0 0 0.4409731,0.44097 0.44097222,0.44097222 0 0 0 0.4409731,-0.44097 0.44097222,0.44097222 0 0 0 -0.4409731,-0.44098 z"
       id="path4397" />
    <rect
       style="opacity:1;fill:#3c4049;fill-opacity:0.8;stroke:none;stroke-width:0.52916664;stroke-linecap:round;stroke-linejoin:miter;stroke-miterlimit:4;stroke-dasharray:none;stroke-opacity:1;paint-order:markers stroke fill"
       id="rect845"
       width="3.7041667"
       height="3.7041667"
       x="1.5874999"
       y="292.76666"
       rx="0.26458329"
       ry="0.26459068" />
    <path
       d="m 3.219097,293.29583 v 0.3514 c -0.1110522,0.0254 -0.2165835,0.0717 -0.3100586,0.13091 l -0.2480468,-0.24805 -0.3100586,0.31006 0.2480468,0.24805 c -0.059095,0.0937 -0.1055819,0.19875 -0.1309135,0.31006 H 2.1166665 v 0.44097 h 0.3513998 c 0.025332,0.11131 0.071819,0.21637 0.1309135,0.31006 l -0.2480468,0.24805 0.3100586,0.31005 0.2480468,-0.24805 c 0.093475,0.0592 0.1990064,0.10553 0.3100586,0.13092 v 0.3514 h 0.4409723 v -0.3514 c 0.112794,-0.0257 0.2154524,-0.0702 0.3100586,-0.13092 l 0.2480468,0.24805 0.3100586,-0.31005 -0.2480469,-0.24805 c 0.058321,-0.093 0.098895,-0.19975 0.1240235,-0.31006 h 0.3582899 v -0.44097 H 4.4042099 c -0.025128,-0.11031 -0.065702,-0.21703 -0.1240235,-0.31006 l 0.2480469,-0.24805 -0.3100586,-0.31006 -0.2480468,0.24805 c -0.094606,-0.0607 -0.1972646,-0.10513 -0.3100586,-0.13091 v -0.3514 z m 0.2204862,0.88194 c 0.2434166,0 0.4409721,0.1959 0.4409721,0.44097 0,0.24508 -0.1975555,0.44098 -0.4409721,0.44098 -0.2434167,0 -0.4409723,-0.1959 -0.4409723,-0.44098 0,-0.24507 0.1975556,-0.44097 0.4409723,-0.44097 z"
       id="path74"
       style="display:inline;fill:#ffffff;fill-opacity:1;fill-rule:evenodd;stroke:none;stroke-width:0.26458332;enable-background:new"
       inkscape:connector-curvature="0" />
  </g>
</svg>
