<svg xmlns="http://www.w3.org/2000/svg" width="22" height="22" viewBox="0 0 5.821 5.821"><g transform="translate(0 -291.18)"><path d="M3.241 292.767l.03.348a1.04 1.04 0 0 1 .303.176l.317-.15.33.574-.287.2a1.04 1.04 0 0 1 .016.175 1.04 1.04 0 0 1-.015.176l.287.199-.331.572-.316-.148a1.04 1.04 0 0 1-.305.174l-.029.35H2.58l-.03-.349a1.04 1.04 0 0 1-.303-.176l-.317.15-.33-.573.287-.2a1.04 1.04 0 0 1-.016-.175 1.04 1.04 0 0 1 .015-.176l-.287-.2.331-.572.316.148a1.04 1.04 0 0 1 .305-.174l.029-.35h.661zm-.33.882a.441.441 0 0 0-.442.44.441.441 0 0 0 .441.442.441.441 0 0 0 .441-.441.441.441 0 0 0-.44-.441z" fill="#fff"/><rect width="3.704" height="3.704" x="1.587" y="292.767" rx=".265" ry=".265" fill="#3c4049" fill-opacity=".8" paint-order="markers stroke fill"/><path d="M3.22 293.296v.351a1.001 1.001 0 0 0-.311.131l-.248-.248-.31.31.248.248c-.06.094-.106.199-.13.31h-.352v.441h.351c.025.112.072.217.131.31l-.248.248.31.31.248-.248c.094.06.199.106.31.131v.352h.441v-.352a.967.967 0 0 0 .31-.13l.248.247.31-.31-.248-.248c.059-.093.1-.2.124-.31h.358v-.44h-.358a1.005 1.005 0 0 0-.124-.31l.248-.249-.31-.31-.248.248a.97.97 0 0 0-.31-.13v-.352zm.22.882a.44.44 0 1 1 0 .882.44.44 0 1 1 0-.882z" fill="#fff" fill-rule="evenodd"/></g></svg>