<?xml version="1.0" encoding="UTF-8" standalone="no"?>
<svg
   xmlns:dc="http://purl.org/dc/elements/1.1/"
   xmlns:cc="http://creativecommons.org/ns#"
   xmlns:rdf="http://www.w3.org/1999/02/22-rdf-syntax-ns#"
   xmlns:svg="http://www.w3.org/2000/svg"
   xmlns="http://www.w3.org/2000/svg"
   xmlns:sodipodi="http://sodipodi.sourceforge.net/DTD/sodipodi-0.dtd"
   xmlns:inkscape="http://www.inkscape.org/namespaces/inkscape"
   width="64"
   height="64"
   version="1"
   id="svg20"
   sodipodi:docname="audio-speakers.svg"
   inkscape:version="0.92.4 (5da689c313, 2019-01-14)">
  <metadata
     id="metadata26">
    <rdf:RDF>
      <cc:Work
         rdf:about="">
        <dc:format>image/svg+xml</dc:format>
        <dc:type
           rdf:resource="http://purl.org/dc/dcmitype/StillImage" />
      </cc:Work>
    </rdf:RDF>
  </metadata>
  <defs
     id="defs24" />
  <sodipodi:namedview
     pagecolor="#ffffff"
     bordercolor="#666666"
     borderopacity="1"
     objecttolerance="10"
     gridtolerance="10"
     guidetolerance="10"
     inkscape:pageopacity="0"
     inkscape:pageshadow="2"
     inkscape:window-width="1366"
     inkscape:window-height="708"
     id="namedview22"
     showgrid="false"
     inkscape:zoom="1.3037281"
     inkscape:cx="12.817497"
     inkscape:cy="-19.126467"
     inkscape:window-x="0"
     inkscape:window-y="30"
     inkscape:window-maximized="1"
     inkscape:current-layer="svg20" />
  <g
     id="g874"
     transform="translate(115.86796,38.58536)">
    <path
       inkscape:connector-curvature="0"
       id="rect4197-8"
       d="m -83.86796,-32.08536 a 25.5,25.5 0 0 0 -13.703125,4 h -5.175785 c -1.45256,0 -2.62109,1.16853 -2.62109,2.62109 v 5.22071 a 25.5,25.5 0 0 0 -4,13.6582 25.5,25.5 0 0 0 4,13.70312 v 5.17579 c 0,1.45256 1.16853,2.62109 2.62109,2.62109 h 5.220707 a 25.5,25.5 0 0 0 13.658203,4 25.5,25.5 0 0 0 13.703125,-4 h 5.175781 c 1.452561,0 2.621094,-1.16853 2.621094,-2.62109 V 7.07284 a 25.5,25.5 0 0 0 4,-13.6582 25.5,25.5 0 0 0 -4,-13.70313 v -5.17578 c 0,-1.45256 -1.168533,-2.62109 -2.621094,-2.62109 h -5.220703 a 25.5,25.5 0 0 0 -13.658203,-4 z"
       style="opacity:1;fill:#4c5263;fill-opacity:1;stroke:#252831;stroke-width:0.99999994;stroke-linecap:butt;stroke-linejoin:miter;stroke-miterlimit:4;stroke-dasharray:none;stroke-dashoffset:0;stroke-opacity:0.78431373" />
    <circle
       r="21.5"
       cy="-6.5853601"
       cx="-83.867958"
       id="path4195-4"
       style="opacity:1;fill:#fff669;fill-opacity:1;stroke:#272a2f;stroke-width:1;stroke-linecap:butt;stroke-linejoin:miter;stroke-miterlimit:4;stroke-dasharray:none;stroke-dashoffset:0;stroke-opacity:0.78431373" />
    <rect
       ry="1.5"
       rx="1.5"
       y="-25.58536"
       x="-102.86796"
       height="2"
       width="2"
       id="rect4235-4"
       style="opacity:1;fill:#b2b7bf;fill-opacity:1;stroke:none;stroke-width:1;stroke-linecap:butt;stroke-linejoin:miter;stroke-miterlimit:4;stroke-dasharray:none;stroke-dashoffset:0;stroke-opacity:0.78431373" />
    <rect
       ry="1.5"
       rx="1.5"
       y="-25.58536"
       x="-66.867958"
       height="2"
       width="2"
       id="rect4235-9-3"
       style="opacity:1;fill:#b2b7bf;fill-opacity:1;stroke:none;stroke-width:1;stroke-linecap:butt;stroke-linejoin:miter;stroke-miterlimit:4;stroke-dasharray:none;stroke-dashoffset:0;stroke-opacity:0.78431373" />
    <rect
       ry="1.5"
       rx="1.5"
       y="10.41464"
       x="-66.867958"
       height="2"
       width="2"
       id="rect4235-7-3"
       style="opacity:1;fill:#b2b7bf;fill-opacity:1;stroke:none;stroke-width:1;stroke-linecap:butt;stroke-linejoin:miter;stroke-miterlimit:4;stroke-dasharray:none;stroke-dashoffset:0;stroke-opacity:0.78431373" />
    <rect
       ry="1.5"
       rx="1.5"
       y="10.41464"
       x="-102.86796"
       height="2"
       width="2"
       id="rect4235-3-8"
       style="opacity:1;fill:#b2b7bf;fill-opacity:1;stroke:none;stroke-width:1;stroke-linecap:butt;stroke-linejoin:miter;stroke-miterlimit:4;stroke-dasharray:none;stroke-dashoffset:0;stroke-opacity:0.78431373" />
    <circle
       r="7"
       cy="-6.5853601"
       cx="-83.867958"
       id="path4264-5"
       style="opacity:1;fill:#4c5263;fill-opacity:1;stroke:none;stroke-width:1;stroke-linecap:butt;stroke-linejoin:miter;stroke-miterlimit:4;stroke-dasharray:none;stroke-dashoffset:0;stroke-opacity:0.78431373" />
  </g>
</svg>
