<?xml version="1.0" encoding="UTF-8" standalone="no"?>
<svg
   xmlns:dc="http://purl.org/dc/elements/1.1/"
   xmlns:cc="http://creativecommons.org/ns#"
   xmlns:rdf="http://www.w3.org/1999/02/22-rdf-syntax-ns#"
   xmlns:svg="http://www.w3.org/2000/svg"
   xmlns="http://www.w3.org/2000/svg"
   xmlns:sodipodi="http://sodipodi.sourceforge.net/DTD/sodipodi-0.dtd"
   xmlns:inkscape="http://www.inkscape.org/namespaces/inkscape"
   width="64"
   height="64"
   version="1"
   id="svg48"
   sodipodi:docname="camera-video.svg"
   inkscape:version="0.92.4 (5da689c313, 2019-01-14)">
  <metadata
     id="metadata54">
    <rdf:RDF>
      <cc:Work
         rdf:about="">
        <dc:format>image/svg+xml</dc:format>
        <dc:type
           rdf:resource="http://purl.org/dc/dcmitype/StillImage" />
      </cc:Work>
    </rdf:RDF>
  </metadata>
  <defs
     id="defs52" />
  <sodipodi:namedview
     pagecolor="#ffffff"
     bordercolor="#666666"
     borderopacity="1"
     objecttolerance="10"
     gridtolerance="10"
     guidetolerance="10"
     inkscape:pageopacity="0"
     inkscape:pageshadow="2"
     inkscape:window-width="1366"
     inkscape:window-height="708"
     id="namedview50"
     showgrid="true"
     inkscape:snap-bbox="true"
     inkscape:bbox-nodes="true"
     inkscape:zoom="3.6875"
     inkscape:cx="43.559759"
     inkscape:cy="44.38298"
     inkscape:window-x="0"
     inkscape:window-y="30"
     inkscape:window-maximized="1"
     inkscape:current-layer="svg48">
    <inkscape:grid
       type="xygrid"
       id="grid866" />
  </sodipodi:namedview>
  <rect
     style="fill:#4c5263;fill-opacity:1;stroke:#252630;stroke-opacity:0.78431374"
     width="45"
     height="56"
     x="13"
     y="4"
     rx="3"
     ry="3"
     id="rect6" />
  <circle
     id="circle873"
     transform="matrix(0,-1,-1,0,0,0)"
     r="3.5"
     cy="-50.5"
     cx="-11.5"
     style="fill:#333741;stroke-width:1;fill-opacity:1" />
  <circle
     style="fill:#ffffff"
     cx="-11.5"
     cy="-50.5"
     r="2.5"
     transform="matrix(0,-1,-1,0,0,0)"
     id="circle10" />
  <circle
     id="circle858"
     transform="matrix(0,-1,-1,0,0,0)"
     r="12.5"
     cy="-35.5"
     cx="-30.5"
     style="opacity:1;fill:#333741;fill-opacity:1;stroke-width:1" />
  <circle
     style="opacity:1;fill:#8f96a9;fill-opacity:1"
     cx="-30.5"
     cy="-35.5"
     r="11.5"
     transform="matrix(0,-1,-1,0,0,0)"
     id="circle12" />
  <circle
     id="circle860"
     transform="rotate(-90)"
     r="9.5"
     cy="35.5"
     cx="-30.500002"
     style="fill:#333741;stroke-width:1;fill-opacity:1" />
  <circle
     style="fill:#007095"
     cx="-30.5"
     cy="35.5"
     r="8.5"
     transform="rotate(-90)"
     id="circle16" />
  <circle
     style="fill:#333741;fill-opacity:1"
     cx="-30.5"
     cy="-35.5"
     r="4.5"
     transform="matrix(0,-1,-1,0,0,0)"
     id="circle20" />
  <rect
     style="fill:#414655;fill-opacity:1;stroke:#252630;stroke-opacity:0.78431374"
     width="6"
     height="36"
     x="7"
     y="14"
     rx="1.5"
     ry="1.385"
     id="rect22" />
  <circle
     style="opacity:0.5"
     cx="18.5"
     cy="50.5"
     r="1.5"
     id="circle24" />
  <circle
     cx="24.5"
     cy="50.5"
     r="1.5"
     style="opacity:0.5"
     id="circle26" />
  <circle
     cx="30.5"
     cy="50.5"
     r="1.5"
     style="opacity:0.5"
     id="circle28" />
  <circle
     style="opacity:0.5"
     cx="36.5"
     cy="50.5"
     r="1.5"
     id="circle30" />
  <circle
     cx="21.5"
     cy="54.5"
     r="1.5"
     style="opacity:0.5"
     id="circle32" />
  <circle
     style="opacity:0.5"
     cx="27.5"
     cy="54.5"
     r="1.5"
     id="circle34" />
  <circle
     cx="33.5"
     cy="54.5"
     r="1.5"
     style="opacity:0.5"
     id="circle36" />
  <circle
     id="circle864"
     transform="matrix(0,-1,-1,0,0,0)"
     r="1.5"
     cy="-50.5"
     cx="-11.5"
     style="fill:#dd586a;stroke-width:0.59999996;fill-opacity:1" />
  <circle
     id="circle862"
     transform="matrix(0,-1,-1,0,0,0)"
     r="3.5"
     cy="-35.5"
     cx="-30.5"
     style="fill:#49acdc;stroke-width:1" />
</svg>
