<?xml version="1.0" encoding="UTF-8" standalone="no"?>
<svg
   xmlns:dc="http://purl.org/dc/elements/1.1/"
   xmlns:cc="http://creativecommons.org/ns#"
   xmlns:rdf="http://www.w3.org/1999/02/22-rdf-syntax-ns#"
   xmlns:svg="http://www.w3.org/2000/svg"
   xmlns="http://www.w3.org/2000/svg"
   xmlns:sodipodi="http://sodipodi.sourceforge.net/DTD/sodipodi-0.dtd"
   xmlns:inkscape="http://www.inkscape.org/namespaces/inkscape"
   width="64"
   height="64"
   version="1.1"
   id="svg16"
   sodipodi:docname="computer.svg"
   inkscape:version="0.92.4 (5da689c313, 2019-01-14)">
  <metadata
     id="metadata22">
    <rdf:RDF>
      <cc:Work
         rdf:about="">
        <dc:format>image/svg+xml</dc:format>
        <dc:type
           rdf:resource="http://purl.org/dc/dcmitype/StillImage" />
      </cc:Work>
    </rdf:RDF>
  </metadata>
  <defs
     id="defs20" />
  <sodipodi:namedview
     pagecolor="#ffffff"
     bordercolor="#666666"
     borderopacity="1"
     objecttolerance="10"
     gridtolerance="10"
     guidetolerance="10"
     inkscape:pageopacity="0"
     inkscape:pageshadow="2"
     inkscape:window-width="1366"
     inkscape:window-height="708"
     id="namedview18"
     showgrid="false"
     inkscape:zoom="0.32593203"
     inkscape:cx="352.38501"
     inkscape:cy="131.22108"
     inkscape:window-x="0"
     inkscape:window-y="30"
     inkscape:window-maximized="1"
     inkscape:current-layer="svg16" />
  <g
     id="g854"
     transform="translate(270.39831,69.762709)">
    <path
       sodipodi:nodetypes="ssccsccsccsss"
       inkscape:connector-curvature="0"
       id="rect4170"
       d="m -244.49792,-26.4297 c -0.7756,0 -1.40039,0.59532 -1.40039,1.33398 v 10.49903 l -3.59961,0.33398 c -0.7756,0 -1.40039,0.59532 -1.40039,1.33398 v 1.66602 h 25 v -1.66602 c 0,-0.73866 -0.62479,-1.33398 -1.40039,-1.33398 l -3.59961,-0.33398 v -10.49903 c 0,-0.73866 -0.62479,-1.33398 -1.40039,-1.33398 z"
       style="opacity:1;fill:none;fill-opacity:1;stroke:#42557f;stroke-width:0.99999994;stroke-linecap:butt;stroke-linejoin:miter;stroke-miterlimit:4;stroke-dasharray:none;stroke-dashoffset:0;stroke-opacity:0.29081636" />
    <path
       inkscape:connector-curvature="0"
       id="rect4170-0"
       d="m -244.49792,-25.92873 c -0.51974,0 -0.90039,0.37727 -0.90039,0.83399 v 10.95508 l -4.07812,0.37695 h -0.0215 c -0.51974,0 -0.90038,0.37727 -0.90038,0.83398 v 1.16602 h 24 v -1.16602 c 0,-0.45671 -0.38064,-0.83398 -0.90039,-0.83398 h -0.0234 l -4.07617,-0.37695 v -10.95508 c 0,-0.45672 -0.38065,-0.83399 -0.90039,-0.83399 h -12.19922 z"
       style="opacity:1;fill:#fafafa;fill-opacity:1;stroke:none;stroke-width:0.99999994;stroke-linecap:butt;stroke-linejoin:miter;stroke-miterlimit:4;stroke-dasharray:none;stroke-dashoffset:0;stroke-opacity:1" />
    <rect
       style="fill:#414757;fill-opacity:1;stroke:#252831;stroke-width:1.00023937;stroke-linecap:round;stroke-linejoin:round;stroke-miterlimit:4;stroke-dasharray:none;stroke-dashoffset:0.5;stroke-opacity:0.78431373"
       id="rect2722"
       y="-64.262589"
       x="-268.89819"
       ry="1.3333334"
       rx="1.4000021"
       height="39.99976"
       width="60.99976" />
    <rect
       style="display:inline;fill:#5294e2;fill-opacity:1;fill-rule:evenodd;stroke:none;enable-background:new"
       id="rect2716"
       y="-61.762711"
       x="-266.39832"
       height="35"
       width="56" />
  </g>
</svg>
