<svg xmlns="http://www.w3.org/2000/svg" width="64" height="64" version="1"><g fill="#939aad"><path d="M58 40v2H6v-2zm0 6v2H6v-2zm0 6v2H6v-2zm0-30v2H6v-2zm0 6v2H6v-2zm0 6v2H6v-2zm0-18v2H6v-2zm0-6v2H6v-2z"/><path d="M24 58h-2V6h2zm-6 0h-2V6h2zm-6 0h-2V6h2zm30 0h-2V6h2zm-6 0h-2V6h2zm-6 0h-2V6h2zm18 0h-2V6h2zm6 0h-2V6h2z"/></g><rect width="48" height="48" x="-56" y="-56" rx="2.5" ry="2.5" transform="matrix(0 -1 -1 0 0 0)" fill="#4c5263" stroke="#25252f" stroke-opacity=".784"/><path d="M14 23h12v2H14zm14 0h6v2h-6zm8 0h14v2H36zm-22 8h16v2H14zm18 0h16v2H32zm-18 8h6v2h-6zm8 0h6v2h-6zm8 0h12v2H30z" stroke-width="2" fill="#1f91b7" stroke="#333741" paint-order="markers stroke fill"/><path d="M14 23h12v2H14zm14 0h6v2h-6zm8 0h14v2H36zm-22 8h16v2H14zm18 0h16v2H32zm-18 8h6v2h-6zm8 0h6v2h-6zm8 0h12v2H30z" fill="#1f91b7" paint-order="markers stroke fill"/></svg>