<?xml version="1.0" encoding="UTF-8" standalone="no"?>
<svg
   xmlns:dc="http://purl.org/dc/elements/1.1/"
   xmlns:cc="http://creativecommons.org/ns#"
   xmlns:rdf="http://www.w3.org/1999/02/22-rdf-syntax-ns#"
   xmlns:svg="http://www.w3.org/2000/svg"
   xmlns="http://www.w3.org/2000/svg"
   xmlns:sodipodi="http://sodipodi.sourceforge.net/DTD/sodipodi-0.dtd"
   xmlns:inkscape="http://www.inkscape.org/namespaces/inkscape"
   width="64"
   height="64"
   version="1"
   id="svg10"
   sodipodi:docname="drive-optical.svg"
   inkscape:version="0.92.4 (5da689c313, 2019-01-14)">
  <metadata
     id="metadata16">
    <rdf:RDF>
      <cc:Work
         rdf:about="">
        <dc:format>image/svg+xml</dc:format>
        <dc:type
           rdf:resource="http://purl.org/dc/dcmitype/StillImage" />
      </cc:Work>
    </rdf:RDF>
  </metadata>
  <defs
     id="defs14" />
  <sodipodi:namedview
     pagecolor="#ffffff"
     bordercolor="#666666"
     borderopacity="1"
     objecttolerance="10"
     gridtolerance="10"
     guidetolerance="10"
     inkscape:pageopacity="0"
     inkscape:pageshadow="2"
     inkscape:window-width="1366"
     inkscape:window-height="708"
     id="namedview12"
     showgrid="true"
     inkscape:snap-bbox="true"
     inkscape:bbox-nodes="true"
     inkscape:zoom="3.6875"
     inkscape:cx="24.450351"
     inkscape:cy="31.403349"
     inkscape:window-x="0"
     inkscape:window-y="30"
     inkscape:window-maximized="1"
     inkscape:current-layer="svg10">
    <inkscape:grid
       type="xygrid"
       id="grid823" />
  </sodipodi:namedview>
  <rect
     id="rect871"
     transform="matrix(0,-1,-1,0,0,0)"
     ry="2.0769229"
     rx="2.0769229"
     y="-58.999996"
     x="-58.999996"
     height="53.999996"
     width="53.999996"
     style="fill:#000000;fill-opacity:0.23921569;stroke:none;stroke-width:1;stroke-miterlimit:4;stroke-dasharray:none;stroke-opacity:0.30196078" />
  <rect
     style="fill:#e1e3e7;fill-opacity:1;stroke:none;stroke-width:1;stroke-miterlimit:4;stroke-dasharray:none;stroke-opacity:0.30196078"
     width="52"
     height="52"
     x="-58"
     y="-58"
     rx="2"
     ry="2"
     transform="matrix(0,-1,-1,0,0,0)"
     id="rect4" />
  <g
     id="g895"
     transform="translate(60.62321,-2)">
    <rect
       ry="1.5"
       rx="1.5"
       y="10.5"
       x="-52.123211"
       height="12"
       width="20"
       id="rect4676"
       style="opacity:1;fill:#4c5263;fill-opacity:1;stroke:#313643;stroke-width:0.99999994;stroke-linecap:butt;stroke-linejoin:miter;stroke-miterlimit:4;stroke-dasharray:none;stroke-dashoffset:0;stroke-opacity:1" />
    <path
       inkscape:connector-curvature="0"
       style="display:inline;fill:#e9eaee;fill-opacity:1;stroke:none"
       d="m -50.62321,13 v 1 h 3.18928 v -1 z m 3.60893,0 v 1 h 3.02142 v -1 z m 3.44107,0 v 1 h 2.64374 v -1 z m 3.06339,0 v 1 h 1.175 v -1 z m -10.11339,3 v 1 h 5.07768 v -1 z m 5.58125,0 v 1 h 2.43392 v -1 z m 2.89553,0 v 1 h 1.13304 v -1 z m -8.47678,3 v 1 H -45 v -1 z m 6.04285,0 v 1 h 2.94315 v -1 z"
       id="path4149-8-7-9"
       sodipodi:nodetypes="ccccccccccccccccccccccccccccccccccccccccccccc" />
    <path
       inkscape:connector-curvature="0"
       style="display:inline;fill:#e9eaee;fill-opacity:1;stroke:none"
       d="m -38.62321,19 v 1 h 5.07767 v -1 z"
       id="path4149-8-7-9-4"
       sodipodi:nodetypes="ccccc" />
  </g>
  <g
     style="stroke-width:1.34146345"
     id="g4211"
     transform="matrix(0.74545455,0,0,0.74545455,8.1454544,8.1454544)">
    <circle
       r="27.5"
       cy="32"
       cx="32"
       id="path4194"
       style="opacity:1;fill:none;fill-opacity:1;stroke:#cbcdd1;stroke-width:1.34146345;stroke-linecap:butt;stroke-linejoin:miter;stroke-miterlimit:4;stroke-dasharray:none;stroke-dashoffset:0;stroke-opacity:1" />
    <path
       inkscape:connector-curvature="0"
       style="opacity:1;fill:#fafafa;fill-opacity:1;stroke:none;stroke-width:1.34146345;stroke-linecap:butt;stroke-linejoin:miter;stroke-miterlimit:4;stroke-dasharray:none;stroke-dashoffset:0;stroke-opacity:0.78431373"
       d="M 32,5.170731 A 26.829269,26.829269 0 0 0 5.1707313,32 26.829269,26.829269 0 0 0 32,58.829269 26.829269,26.829269 0 0 0 58.829269,32 26.829269,26.829269 0 0 0 32,5.170731 Z m 0,15.898826 A 10.930443,10.930443 0 0 1 42.930443,32 10.930443,10.930443 0 0 1 32,42.930443 10.930443,10.930443 0 0 1 21.069557,32 10.930443,10.930443 0 0 1 32,21.069557 Z"
       id="path4194-0" />
  </g>
  <path
     style="opacity:1;fill:#ffffff;fill-opacity:0.38775509;stroke:none;stroke-width:1;stroke-linecap:butt;stroke-linejoin:miter;stroke-miterlimit:4;stroke-dasharray:none;stroke-dashoffset:0;stroke-opacity:1"
     d="M 32,24.000001 A 7.9999995,7.9999995 0 0 0 24,32 a 7.9999995,7.9999995 0 0 0 8,8 7.9999995,7.9999995 0 0 0 8,-8 7.9999995,7.9999995 0 0 0 -8,-7.999999 z m 0,4 A 3.9999999,3.9999999 0 0 1 36,32 a 3.9999999,3.9999999 0 0 1 -4,4.000001 3.9999999,3.9999999 0 0 1 -4,-4 3.9999999,3.9999999 0 0 1 4,-4 z"
     id="path4243"
     inkscape:connector-curvature="0" />
  <circle
     style="opacity:1;fill:none;fill-opacity:0.49803922;stroke:#cbcdd1;stroke-width:0.99999994;stroke-linecap:butt;stroke-linejoin:miter;stroke-miterlimit:4;stroke-dasharray:none;stroke-dashoffset:0;stroke-opacity:1"
     id="path4243-8"
     cx="32"
     cy="32"
     r="8.5" />
  <circle
     r="3.5"
     style="opacity:1;fill:none;fill-opacity:0.49803922;stroke:#cbcdd1;stroke-width:1;stroke-linecap:butt;stroke-linejoin:miter;stroke-miterlimit:4;stroke-dasharray:none;stroke-dashoffset:0;stroke-opacity:1"
     id="path4260"
     cx="32"
     cy="32" />
  <rect
     ry="1"
     rx="1"
     y="10"
     x="52"
     height="2"
     width="2"
     id="rect886"
     style="opacity:1;fill:#8c8c8c;fill-opacity:1;stroke:none;stroke-width:1;stroke-linecap:butt;stroke-linejoin:miter;stroke-miterlimit:4;stroke-dasharray:none;stroke-dashoffset:0;stroke-opacity:0.64313725" />
  <rect
     ry="1"
     rx="1"
     y="52"
     x="10"
     height="2"
     width="2"
     id="rect888"
     style="opacity:1;fill:#8c8c8c;fill-opacity:1;stroke:none;stroke-width:1;stroke-linecap:butt;stroke-linejoin:miter;stroke-miterlimit:4;stroke-dasharray:none;stroke-dashoffset:0;stroke-opacity:0.64313725" />
  <rect
     style="opacity:1;fill:#8c8c8c;fill-opacity:1;stroke:none;stroke-width:1;stroke-linecap:butt;stroke-linejoin:miter;stroke-miterlimit:4;stroke-dasharray:none;stroke-dashoffset:0;stroke-opacity:0.64313725"
     id="rect890"
     width="2"
     height="2"
     x="52"
     y="52"
     rx="1"
     ry="1" />
</svg>
