<?xml version="1.0" encoding="UTF-8" standalone="no"?>
<svg
   xmlns:dc="http://purl.org/dc/elements/1.1/"
   xmlns:cc="http://creativecommons.org/ns#"
   xmlns:rdf="http://www.w3.org/1999/02/22-rdf-syntax-ns#"
   xmlns:svg="http://www.w3.org/2000/svg"
   xmlns="http://www.w3.org/2000/svg"
   xmlns:sodipodi="http://sodipodi.sourceforge.net/DTD/sodipodi-0.dtd"
   xmlns:inkscape="http://www.inkscape.org/namespaces/inkscape"
   width="64"
   height="64"
   version="1"
   id="svg20"
   sodipodi:docname="input-gaming.svg"
   inkscape:version="0.92.4 (5da689c313, 2019-01-14)">
  <metadata
     id="metadata26">
    <rdf:RDF>
      <cc:Work
         rdf:about="">
        <dc:format>image/svg+xml</dc:format>
        <dc:type
           rdf:resource="http://purl.org/dc/dcmitype/StillImage" />
      </cc:Work>
    </rdf:RDF>
  </metadata>
  <defs
     id="defs24" />
  <sodipodi:namedview
     pagecolor="#ffffff"
     bordercolor="#666666"
     borderopacity="1"
     objecttolerance="10"
     gridtolerance="10"
     guidetolerance="10"
     inkscape:pageopacity="0"
     inkscape:pageshadow="2"
     inkscape:window-width="1366"
     inkscape:window-height="708"
     id="namedview22"
     showgrid="false"
     inkscape:zoom="1.84375"
     inkscape:cx="-15.250637"
     inkscape:cy="33.340534"
     inkscape:window-x="0"
     inkscape:window-y="30"
     inkscape:window-maximized="1"
     inkscape:current-layer="svg20" />
  <g
     transform="translate(-515.00035,-895.99999)"
     id="input-gaming_64"
     inkscape:label="#g5602">
    <g
       style="display:inline;fill:#000000;fill-opacity:0.02352941"
       transform="translate(281.00035,831.99999)"
       inkscape:label="#g4820"
       id="sdcdsdsc-7-8">
      <rect
         style="opacity:1;fill:none;fill-opacity:0.02352941;stroke:none;stroke-width:0.1;stroke-linecap:butt;stroke-linejoin:miter;stroke-miterlimit:4;stroke-dasharray:none;stroke-dashoffset:0;stroke-opacity:0.78431373"
         id="rect4138-2-8-2"
         width="64"
         height="64"
         x="234"
         y="64" />
    </g>
    <path
       inkscape:connector-curvature="0"
       id="rect4268-1"
       d="m 559.00072,908.0003 c -2.17513,0 -4,2 -4,2 h -8 v 0 h -8 c 0,0 -1.82487,-2 -4,-2 -2.97247,0 -9.07227,3.1865 -9.00977,4.4864 v 0 c -0.77021,0.664 -1.47868,1.4886 -1.99023,2.5117 0,0 -6.95581,15.33001 -7,25.9981 0.40824,7.0643 4.26563,7.953 5,8 1.01075,-0.016 1.88544,-0.08 3,-1 0.57031,-0.51559 5.44287,-5.4428 7,-7 1.55713,-1.55709 2,-2 4,-2 h 11 11 c 2,0 2.44287,0.44281 4,2 1.55713,1.5571 6.42969,6.4843 7,7 1.11457,0.92 1.98925,0.98401 3,1 0.73438,-0.047 4.59176,-0.9357 5,-8 -0.0442,-10.66809 -7,-26 -7,-26 -0.51155,-1.0231 -1.22002,-1.8477 -1.99023,-2.5117 0.0625,-1.2999 -6.0373,-4.4864 -9.00977,-4.4864 v 0 z"
       style="opacity:1;fill:#464c5c;fill-opacity:1;stroke:#3f434d;stroke-width:0.2;stroke-miterlimit:4;stroke-dasharray:none;stroke-opacity:1" />
    <path
       sodipodi:nodetypes="sccccccsscccs"
       inkscape:connector-curvature="0"
       id="rect4268"
       d="m 535.00067,908.00447 c -2.97247,0 -9.07227,3.18642 -9.00977,4.48632 v 0.002 c -0.77022,0.66399 -1.47868,1.48857 -1.99024,2.51167 0,0 -6.9558,15.3319 -7,26 0.40824,7.0643 4.26563,7.953 5,8 1.01076,-0.0161 1.88544,-0.08 3,-1 0.57032,-0.51565 5.44287,-5.44287 7.00001,-7 1.55713,-1.55713 2,-2 4,-2 h 11 v -29 h -8 c 0,0 -1.82487,-2 -4,-2 z"
       style="opacity:1;fill:#464c5c;fill-opacity:1;stroke:none;stroke-width:0.2;stroke-miterlimit:4;stroke-dasharray:none;stroke-opacity:1" />
    <path
       sodipodi:nodetypes="sccccccsscccs"
       inkscape:connector-curvature="0"
       id="rect4268-9"
       d="m 559.00067,908.00451 c 2.97246,0 9.07226,3.1864 9.00976,4.4863 v 0 c 0.77022,0.664 1.47868,1.4886 1.99024,2.5117 0,0 6.9558,15.3319 7,26 -0.40824,7.0643 -4.26563,7.953 -5,8 -1.01076,-0.016 -1.88544,-0.08 -3,-1 -0.57032,-0.5157 -5.44287,-5.4429 -7,-7 -1.55714,-1.5572 -2,-2 -4,-2 h -11 v -29 h 8 c 0,0 1.82486,-2 4,-2 z"
       style="opacity:1;fill:#464c5c;fill-opacity:1;stroke:none;stroke-width:0.2;stroke-miterlimit:4;stroke-dasharray:none;stroke-opacity:1" />
    <ellipse
       ry="2.4999986"
       rx="2.5"
       cy="916.50439"
       cx="563.00067"
       id="path4529-6-5-92-6"
       style="fill:#000000;fill-opacity:0.19607843;stroke:none;stroke-width:0.2;stroke-miterlimit:4;stroke-dasharray:none;stroke-opacity:1" />
    <ellipse
       ry="1.499987"
       rx="1.5"
       cy="916.50439"
       cx="563.00067"
       id="path4500-1"
       style="fill:#fff669;fill-opacity:1;stroke:none;stroke-width:0.2;stroke-miterlimit:4;stroke-dasharray:none;stroke-opacity:1" />
    <ellipse
       ry="2.4999986"
       rx="2.5"
       cy="924.50439"
       cx="563.00067"
       id="path4529-6-5-92-2-2"
       style="fill:#000000;fill-opacity:0.19607843;stroke:none;stroke-width:0.2;stroke-miterlimit:4;stroke-dasharray:none;stroke-opacity:1" />
    <ellipse
       ry="1.499987"
       rx="1.5"
       cy="924.50439"
       cx="563.00067"
       id="path4500-4-9"
       style="fill:#8ce755;fill-opacity:1;stroke:none;stroke-width:0.2;stroke-miterlimit:4;stroke-dasharray:none;stroke-opacity:1" />
    <ellipse
       ry="2.4999986"
       rx="2.5"
       cy="920.50439"
       cx="567.00067"
       id="path4529-6-5-92-0-3"
       style="fill:#000000;fill-opacity:0.19607843;stroke:none;stroke-width:0.2;stroke-miterlimit:4;stroke-dasharray:none;stroke-opacity:1" />
    <ellipse
       ry="1.499987"
       rx="1.5"
       cy="920.50439"
       cx="567.00067"
       id="path4500-9-1"
       style="fill:#ff5656;fill-opacity:1;stroke:none;stroke-width:0.2;stroke-miterlimit:4;stroke-dasharray:none;stroke-opacity:1" />
    <ellipse
       ry="2.4999986"
       rx="2.5"
       cy="920.50439"
       cx="559.00067"
       id="path4529-6-5-92-3-9"
       style="fill:#000000;fill-opacity:0.19607843;stroke:none;stroke-width:0.2;stroke-miterlimit:4;stroke-dasharray:none;stroke-opacity:1" />
    <ellipse
       ry="1.499987"
       rx="1.5"
       cy="920.50439"
       cx="559.00067"
       id="path4500-2-4"
       style="fill:#5294e2;fill-opacity:1;stroke:none;stroke-width:0.2;stroke-miterlimit:4;stroke-dasharray:none;stroke-opacity:1" />
    <ellipse
       ry="4.9999943"
       rx="5"
       cy="920.00439"
       cx="531.00067"
       id="path4529-0-6-8-9-2-7-6-6-8"
       style="fill:#000000;fill-opacity:0.39215686;stroke:none;stroke-width:0.2;stroke-miterlimit:4;stroke-dasharray:none;stroke-opacity:1" />
    <ellipse
       ry="4.0000057"
       rx="4"
       cy="920.00439"
       cx="531.00067"
       id="path4529-0-6-8-9-2-3-5-2-1-4"
       style="fill:#636979;fill-opacity:1;stroke:none;stroke-width:0.2;stroke-miterlimit:4;stroke-dasharray:none;stroke-opacity:1" />
    <ellipse
       ry="2.999995"
       rx="3"
       cy="920.00439"
       cx="531.00067"
       id="path4529-0-6-8-9-2-3-5-3-9-8-5"
       style="fill:#333949;fill-opacity:1;stroke:none;stroke-width:0.2;stroke-miterlimit:4;stroke-dasharray:none;stroke-opacity:1" />
    <path
       id="rect4268-0-6"
       d="m 534.00067,907.00255 v 0.002 0.1875 c -1.63905,0.2224 -3.44796,0.84295 -5.09571,1.67965 -0.98877,0.5021 -1.88103,1.0435 -2.57031,1.588 -0.34464,0.2723 -0.64071,0.5422 -0.88281,0.8496 -0.10547,0.1339 -0.11529,0.3702 -0.19922,0.5371 -0.81376,0.7195 -1.58834,1.5946 -2.14649,2.7109 l -0.008,0.016 -0.008,0.019 c 0,0 -1.76052,3.877 -3.52148,9.0918 -1.76096,5.2148 -3.54537,11.765 -3.56836,17.3144 v 0.029 l 0.002,0.031 c 0.21445,3.7108 1.36638,5.9731 2.66797,7.2793 1.30158,1.3062 2.60889,1.6182 3.26562,1.6602 h 0.041 0.0391 c 1.04382,-0.016 2.326,-0.1595 3.6211,-1.2285 l 0.0176,-0.014 0.0156,-0.016 c 0.40971,-0.3704 1.68291,-1.6527 3.16797,-3.1446 1.48505,-1.4919 3.09469,-3.11609 3.86914,-3.89059 0.77856,-0.7785 1.23581,-1.20861 1.60937,-1.414 0.37357,-0.20541 0.75741,-0.293 1.68359,-0.293 h 11 11 c 0.9262,0 1.31005,0.088 1.68359,0.293 0.37356,0.2054 0.83082,0.6354 1.60937,1.414 0.77444,0.7744 2.3841,2.39869 3.86915,3.89059 1.48505,1.4919 2.7585,2.77431 3.16796,3.1446 l 0.0156,0.016 0.0176,0.014 c 1.2951,1.069 2.57728,1.212 3.6211,1.2285 h 0.0391 0.041 c 0.65673,-0.042 1.96404,-0.354 3.26562,-1.6602 1.30159,-1.3062 2.45353,-3.5685 2.66797,-7.2793 l 0.002,-0.031 v -0.029 c -0.023,-5.5494 -1.8074,-12.1011 -3.56836,-17.3164 -1.76095,-5.2152 -3.52148,-9.0917 -3.52148,-9.0917 l -0.008,-0.019 -0.008,-0.018 c -0.55814,-1.1163 -1.33269,-1.9915 -2.14649,-2.711 -0.0839,-0.167 -0.0938,-0.4032 -0.19922,-0.5371 -0.2421,-0.3074 -0.53817,-0.5774 -0.88281,-0.8496 -0.68929,-0.5446 -1.58154,-1.0858 -2.57032,-1.5879 -1.97755,-1.0042 -4.25214,-1.86525 -6.0957,-1.86525 -2.39719,0 -3.9157,1.51795 -4.36719,2.00005 h -7.63281 -7.63281 c -0.45084,-0.4821 -1.96935,-2.00005 -4.36654,-2.00005 h -1 z m 1,1.00195 c 2.17513,0 4,2 4,2 h 8 8 c 0,0 1.82486,-2 4,-2 2.97246,0 9.07226,3.1865 9.00976,4.4864 0.77022,0.664 1.47868,1.4886 1.99024,2.5117 0,0 6.95581,15.3319 7,26 -0.40824,7.0643 -4.26563,7.953 -5,8 -1.01076,-0.016 -1.88544,-0.08 -3,-1 -0.57032,-0.5157 -5.44287,-5.4429 -7,-7 -1.55714,-1.5572 -2,-2 -4,-2 h -11 -11 c -2,0 -2.44287,0.4429 -4,2 -1.55714,1.5572 -6.42969,6.4844 -7.00001,7 -1.11456,0.92 -1.98924,0.984 -2.99999,1 -0.73438,-0.047 -4.59177,-0.9357 -5,-8 0.0442,-10.6681 6.99999,-25.9981 6.99999,-25.9981 0.51156,-1.0231 1.22002,-1.8477 1.99024,-2.5117 -0.0625,-1.2999 6.0373,-4.4863 9.00977,-4.4863 v 0 z"
       style="color:#000000;font-style:normal;font-variant:normal;font-weight:normal;font-stretch:normal;font-size:medium;line-height:normal;font-family:sans-serif;text-indent:0;text-align:start;text-decoration:none;text-decoration-line:none;text-decoration-style:solid;text-decoration-color:#000000;letter-spacing:normal;word-spacing:normal;text-transform:none;writing-mode:lr-tb;direction:ltr;baseline-shift:baseline;text-anchor:start;white-space:normal;clip-rule:nonzero;display:inline;overflow:visible;visibility:visible;opacity:1;isolation:auto;mix-blend-mode:normal;color-interpolation:sRGB;color-interpolation-filters:linearRGB;solid-color:#000000;solid-opacity:1;fill:#2c303c;fill-opacity:0.90588235;fill-rule:nonzero;stroke:none;stroke-width:2;stroke-linecap:butt;stroke-linejoin:miter;stroke-miterlimit:4;stroke-dasharray:none;stroke-dashoffset:0;stroke-opacity:1;color-rendering:auto;image-rendering:auto;shape-rendering:auto;text-rendering:auto;enable-background:accumulate"
       inkscape:connector-curvature="0" />
    <ellipse
       ry="4.9999943"
       rx="5"
       cy="931.00439"
       cx="555.00067"
       id="path4529-0-6-8-9-2-7-6-6-8-6"
       style="fill:#000000;fill-opacity:0.39215686;stroke:none;stroke-width:0.2;stroke-miterlimit:4;stroke-dasharray:none;stroke-opacity:1" />
    <ellipse
       ry="4.0000057"
       rx="4"
       cy="931.00439"
       cx="555.00067"
       id="path4529-0-6-8-9-2-3-5-2-1-4-3"
       style="fill:#636979;fill-opacity:1;stroke:none;stroke-width:0.2;stroke-miterlimit:4;stroke-dasharray:none;stroke-opacity:1" />
    <ellipse
       ry="2.999995"
       rx="3"
       cy="931.00439"
       cx="555.00067"
       id="path4529-0-6-8-9-2-3-5-3-9-8-5-2"
       style="fill:#333949;fill-opacity:1;stroke:none;stroke-width:0.2;stroke-miterlimit:4;stroke-dasharray:none;stroke-opacity:1" />
    <ellipse
       ry="4.9999943"
       rx="5"
       cy="931.00439"
       cx="539.00067"
       id="path4529-0-6-8-9-2-7-6-6-8-6-0"
       style="fill:#000000;fill-opacity:0.39215686;stroke:none;stroke-width:0.2;stroke-miterlimit:4;stroke-dasharray:none;stroke-opacity:1" />
    <path
       sodipodi:nodetypes="cccc"
       inkscape:connector-curvature="0"
       id="path4584"
       d="m 525.00066,913.00451 c 0,0 6.7461,-2.6906 9.22098,-2.82321 2.03293,0 5.67417,6.2348 6.77903,6.32321 h 6"
       style="fill:none;fill-rule:evenodd;stroke:#5e6474;stroke-width:1px;stroke-linecap:butt;stroke-linejoin:miter;stroke-opacity:1" />
    <path
       sodipodi:nodetypes="cccc"
       inkscape:connector-curvature="0"
       id="path4584-6"
       d="m 569.00067,913.00451 c 0,0 -6.7461,-2.6906 -9.22098,-2.82321 -2.03293,0 -5.67417,6.2348 -6.77902,6.32321 h -6"
       style="fill:none;fill-rule:evenodd;stroke:#5e6474;stroke-width:1px;stroke-linecap:butt;stroke-linejoin:miter;stroke-opacity:1" />
    <path
       sodipodi:nodetypes="cccscccssscccccccccccccscccccccccccc"
       inkscape:connector-curvature="0"
       id="rect4268-15-6"
       d="m 535.00073,908.0042 v 0 c -2.65842,0 -7.8044,2.5453 -8.82031,4.0137 0.65074,-0.2446 1.43784,-0.5381 2.33984,-0.8496 2.00861,-0.69359 4.28021,-1.4133 5.67383,-1.4883 h 0.0137 v 0 h 0.0137 c 0.76381,0 1.41884,0.49031 2.09765,1.1074 0.67882,0.61711 1.3691,1.4123 2.0254,2.2032 0.65629,0.7909 1.27809,1.57681 1.79101,2.15621 0.25646,0.28959 0.48813,0.5276 0.66602,0.6797 0.17624,0.1508 0.31529,0.18769 0.23632,0.17769 h 5.9629 v 0 h 5.96289 c -0.079,0.01 0.0601,-0.027 0.23632,-0.17769 0.17789,-0.1521 0.40956,-0.3901 0.66602,-0.6797 1.31509,-1.4891 2.41302,-3.0707 3.81641,-4.35941 0.67881,-0.6171 1.33384,-1.1074 2.09765,-1.1074 v 0 h 0.0137 0.0137 c 1.39362,0.075 3.66522,0.79471 5.67383,1.4883 0.90267,0.3117 1.69085,0.6049 2.3418,0.8496 -1.00972,-1.4678 -6.16159,-4.0176 -8.82227,-4.0176 v 0 c -2.17513,0 -4,2 -4,2 h -8 -8 c 0,0 -1.82487,-2 -4,-2 z m 32.82227,4.0196 z m -41.64258,0 z"
       style="opacity:1;fill:#3e4454;fill-opacity:1;stroke:none;stroke-width:0.2;stroke-miterlimit:4;stroke-dasharray:none;stroke-opacity:1" />
    <path
       sodipodi:nodetypes="ccccccccccccc"
       id="rect4275-7-5"
       d="m 538.00067,928.00451 v 2 h -2 v 2 h 2 v 2 h 2 v -2 h 2 v -2 h -2 v -2 z"
       style="fill:none;fill-opacity:1;stroke:#636979;stroke-width:2;stroke-miterlimit:4;stroke-dasharray:none;stroke-opacity:0.78431373"
       inkscape:connector-curvature="0" />
    <path
       sodipodi:nodetypes="ccccccccccccc"
       inkscape:connector-curvature="0"
       id="rect4275-6"
       d="m 538.00067,928.00451 v 2 h -2 v 2 h 2 v 2 h 2 v -2 h 2 v -2 h -2 v -2 z"
       style="fill:#333949;fill-opacity:1;stroke:none;stroke-width:0.2;stroke-miterlimit:4;stroke-dasharray:none;stroke-opacity:1" />
    <ellipse
       ry="1.499988"
       rx="1.5"
       cy="919.50439"
       cx="543.50067"
       id="path4529-6-5-92-6-9"
       style="fill:#000000;fill-opacity:0.3014354;stroke:none;stroke-width:0.2;stroke-miterlimit:4;stroke-dasharray:none;stroke-opacity:1" />
    <ellipse
       ry="1.499988"
       rx="1.5"
       cy="919.50439"
       cx="550.50067"
       id="path4529-6-5-92-6-9-3"
       style="fill:#000000;fill-opacity:0.3014354;stroke:none;stroke-width:0.2;stroke-miterlimit:4;stroke-dasharray:none;stroke-opacity:1" />
  </g>
</svg>
