<?xml version="1.0" encoding="UTF-8" standalone="no"?>
<svg
   xmlns:dc="http://purl.org/dc/elements/1.1/"
   xmlns:cc="http://creativecommons.org/ns#"
   xmlns:rdf="http://www.w3.org/1999/02/22-rdf-syntax-ns#"
   xmlns:svg="http://www.w3.org/2000/svg"
   xmlns="http://www.w3.org/2000/svg"
   xmlns:sodipodi="http://sodipodi.sourceforge.net/DTD/sodipodi-0.dtd"
   xmlns:inkscape="http://www.inkscape.org/namespaces/inkscape"
   width="64"
   height="64"
   version="1"
   id="svg24"
   sodipodi:docname="gnome-dev-ethernet.svg"
   inkscape:version="0.92.4 (5da689c313, 2019-01-14)">
  <metadata
     id="metadata30">
    <rdf:RDF>
      <cc:Work
         rdf:about="">
        <dc:format>image/svg+xml</dc:format>
        <dc:type
           rdf:resource="http://purl.org/dc/dcmitype/StillImage" />
      </cc:Work>
    </rdf:RDF>
  </metadata>
  <defs
     id="defs28" />
  <sodipodi:namedview
     pagecolor="#ffffff"
     bordercolor="#666666"
     borderopacity="1"
     objecttolerance="10"
     gridtolerance="10"
     guidetolerance="10"
     inkscape:pageopacity="0"
     inkscape:pageshadow="2"
     inkscape:window-width="1366"
     inkscape:window-height="708"
     id="namedview26"
     showgrid="true"
     inkscape:snap-bbox="true"
     inkscape:bbox-nodes="true"
     inkscape:snap-bbox-edge-midpoints="true"
     inkscape:object-paths="true"
     inkscape:snap-intersection-paths="true"
     inkscape:snap-smooth-nodes="true"
     inkscape:snap-midpoints="true"
     inkscape:snap-object-midpoints="true"
     inkscape:zoom="2.6074563"
     inkscape:cx="-12.850553"
     inkscape:cy="24.617075"
     inkscape:window-x="0"
     inkscape:window-y="30"
     inkscape:window-maximized="1"
     inkscape:current-layer="svg24">
    <inkscape:grid
       type="xygrid"
       id="grid840" />
  </sodipodi:namedview>
  <g
     transform="matrix(4,0,0,4,-3072,-2756)"
     id="network-wired_64"
     inkscape:label="#g5939-2-6">
    <rect
       y="689"
       x="768"
       height="16.000019"
       width="16"
       id="rect5910-0-5"
       style="opacity:1;fill:none;fill-opacity:1;stroke:none;stroke-width:2;stroke-linecap:butt;stroke-linejoin:round;stroke-miterlimit:4;stroke-dasharray:none;stroke-dashoffset:0;stroke-opacity:1" />
    <path
       inkscape:connector-curvature="0"
       id="rect5873-8-0"
       transform="translate(-244,-74)"
       d="m 1014,765 c -0.554,0 -1,0.446 -1,1 v 1 7 1 c 0,0.554 0.446,1 1,1 h 1 1 l 1,1 h 6 l 1,-1 h 1 1 c 0.554,0 1,-0.446 1,-1 v -1 -7 -1 c 0,-0.554 -0.446,-1 -1,-1 h -1 -10 z"
       style="opacity:1;fill:#f2f2f2;fill-opacity:1;stroke:none;stroke-width:2;stroke-linecap:butt;stroke-linejoin:round;stroke-miterlimit:4;stroke-dasharray:none;stroke-dashoffset:0;stroke-opacity:1" />
    <path
       sodipodi:nodetypes="ccccccccc"
       inkscape:connector-curvature="0"
       id="rect5873-4-6-7"
       d="m 771,692.99998 v 7 h 2 l 1,1 h 4 l 1,-1 h 2 v -7 z"
       style="opacity:1;fill:#4c5263;fill-opacity:1;stroke:none;stroke-width:2;stroke-linecap:butt;stroke-linejoin:round;stroke-miterlimit:4;stroke-dasharray:none;stroke-dashoffset:0;stroke-opacity:1" />
    <path
       inkscape:connector-curvature="0"
       style="color:#000000;font-style:normal;font-variant:normal;font-weight:normal;font-stretch:normal;font-size:medium;line-height:normal;font-family:sans-serif;text-indent:0;text-align:start;text-decoration:none;text-decoration-line:none;text-decoration-style:solid;text-decoration-color:#000000;letter-spacing:normal;word-spacing:normal;text-transform:none;writing-mode:lr-tb;direction:ltr;baseline-shift:baseline;text-anchor:start;white-space:normal;clip-rule:nonzero;display:inline;overflow:visible;visibility:visible;opacity:1;isolation:auto;mix-blend-mode:normal;color-interpolation:sRGB;color-interpolation-filters:linearRGB;solid-color:#000000;solid-opacity:1;fill:#4f6698;fill-opacity:0.26666667;fill-rule:nonzero;stroke:none;stroke-width:0.5;stroke-linecap:butt;stroke-linejoin:round;stroke-miterlimit:4;stroke-dasharray:none;stroke-dashoffset:0;stroke-opacity:1;color-rendering:auto;image-rendering:auto;shape-rendering:auto;text-rendering:auto;enable-background:accumulate"
       d="m 770,690.75002 c -0.68818,0 -1.25,0.56182 -1.25,1.25 v 1 7 1 c 0,0.68818 0.56182,1.25 1.25,1.25 h 1 0.89647 l 0.9258,0.92773 A 0.250025,0.250025 0 0 0 773,703.25005 h 6 a 0.250025,0.250025 0 0 0 0.17772,-0.0723 l 0.9258,-0.92773 H 781 h 1 c 0.68817,0 1.25,-0.56182 1.25,-1.25 v -1 -7 -1 c 0,-0.68818 -0.56183,-1.25 -1.25,-1.25 h -1 -10 z m 0,0.25 h 1 10 1 c 0.554,0 1,0.446 1,1 v 1 7 1 c 0,0.554 -0.446,1 -1,1 h -1 -1 l -1,1 h -6 l -1,-1 h -1 -1 c -0.554,0 -1,-0.446 -1,-1 v -1 -7 -1 c 0,-0.554 0.446,-1 1,-1 z"
       id="rect5873-8-0-7" />
  </g>
</svg>
