<svg xmlns="http://www.w3.org/2000/svg" xmlns:xlink="http://www.w3.org/1999/xlink" width="64" height="64" version="1"><defs><linearGradient xlink:href="#a" id="b" gradientUnits="userSpaceOnUse" gradientTransform="matrix(0 .91422 .91422 0 2.99 .688)" x1="3.5" y1="23" x2="47.5" y2="23"/><linearGradient id="a"><stop offset="0" stop-color="#fff"/><stop offset="1" stop-color="#fff" stop-opacity="0"/></linearGradient><linearGradient xlink:href="#a" id="c" gradientUnits="userSpaceOnUse" gradientTransform="rotate(45 20.076 23.364) scale(.91422)" x1="46.006" y1="23.707" x2="4.287" y2="27.243"/><linearGradient xlink:href="#a" id="d" gradientUnits="userSpaceOnUse" gradientTransform="scale(.91422 -.91422) rotate(45 85.356 -.966)" x1="48.127" y1="25.828" x2="2.873" y2="24.414"/><linearGradient xlink:href="#a" id="e" gradientUnits="userSpaceOnUse" gradientTransform="matrix(.91422 0 0 -.91422 .704 45.027)" x1="4.49" y1="23" x2="47.5" y2="23"/></defs><path d="M29.5 5c-14.346 0-26 11.654-26 26s11.654 26 26 26 26-11.654 26-26-11.654-26-26-26z" style="marker:none" color="#000" overflow="visible" fill="#5294e2"/><path d="M27.695 41.805a8.685 19.656 0 0 0-3.7-37.46" opacity=".8" fill="none" stroke="url(#b)" stroke-width=".804" stroke-linecap="round" stroke-linejoin="round" transform="matrix(1.2439 0 0 1.24391 -.353 1.146)"/><path d="M32.08 52.43a2.274 2.274 0 0 0 4.548 0 2.274 2.274 0 1 0-4.549 0z" style="marker:none" color="#000" overflow="visible" fill="#fff"/><path d="M37.915 37.899A19.656 8.685 45 0 1 8.841 13.213" opacity=".8" fill="none" stroke="url(#c)" stroke-width=".804" stroke-linecap="round" stroke-linejoin="round" transform="matrix(1.2439 0 0 1.24391 -.353 1.146)"/><path d="M13.031 18.385a2.274 2.274 0 0 1-4.548 0 2.274 2.274 0 1 1 4.548 0z" style="marker:none" color="#000" overflow="visible" fill="#fff"/><path d="M38.091 10.581a8.685 19.656 45 0 0-29.06 20.984" opacity=".8" fill="none" stroke="url(#d)" stroke-width=".804" stroke-linecap="round" stroke-linejoin="round" transform="matrix(1.2439 0 0 1.24391 -.353 1.146)"/><path d="M10.546 44.218a2.274 2.274 0 0 0 0-4.549 2.274 2.274 0 1 0 0 4.549z" fill="#fff"/><path d="M40.758 19.45a19.656 8.685 0 0 0-36.376 4.956" fill="none" stroke="url(#e)" stroke-width=".804" stroke-linecap="round" stroke-linejoin="round" transform="matrix(1.2439 0 0 1.24391 -.353 1.146)"/><path d="M53.046 25.776a2.274 2.274 0 0 0-4.549 0 2.274 2.274 0 1 0 4.549 0z" style="marker:none" color="#000" overflow="visible" fill="#fff"/><g transform="translate(-466.5 -808)"><path d="M515 838c-4.432 0-8 3.568-8 8v3h3v-3c0-2.77 2.23-5 5-5s5 2.23 5 5v3h3v-3c0-4.432-3.568-8-8-8z" fill="none" stroke="#4f6698" stroke-width="2" stroke-linecap="round" stroke-linejoin="round" stroke-opacity=".267"/><path d="M515 838c-4.432 0-8 3.568-8 8v3h3v-3c0-2.77 2.23-5 5-5s5 2.23 5 5v3h3v-3c0-4.432-3.568-8-8-8z" fill="#fafafa"/><rect ry="1.4" rx="1.4" y="-526" x="-866" height="22" width="17" transform="matrix(0 -1 -1 0 0 0)" fill="#fecd38"/><rect ry="1.9" rx="1.9" y="-526.5" x="-866.5" height="23" width="18" transform="matrix(0 -1 -1 0 0 0)" fill="none" stroke="#463500" stroke-opacity=".413"/></g></svg>