<svg xmlns="http://www.w3.org/2000/svg" xmlns:xlink="http://www.w3.org/1999/xlink" width="64" height="64" viewBox="0 0 16.933 16.933"><defs><linearGradient id="a"><stop offset="0" stop-color="#fff"/><stop offset="1" stop-color="#fff" stop-opacity="0"/></linearGradient><linearGradient xlink:href="#a" id="b" gradientUnits="userSpaceOnUse" gradientTransform="matrix(0 .91422 .91422 0 2.99 .688)" x1="3.5" y1="23" x2="47.5" y2="23"/><linearGradient xlink:href="#a" id="c" gradientUnits="userSpaceOnUse" gradientTransform="rotate(45 20.076 23.364) scale(.91422)" x1="46.006" y1="23.707" x2="4.287" y2="27.243"/><linearGradient xlink:href="#a" id="d" gradientUnits="userSpaceOnUse" gradientTransform="scale(.91422 -.91422) rotate(45 85.356 -.966)" x1="48.127" y1="25.828" x2="2.873" y2="24.414"/><linearGradient xlink:href="#a" id="e" gradientUnits="userSpaceOnUse" gradientTransform="matrix(.91422 0 0 -.91422 .704 45.027)" x1="4.49" y1="23" x2="47.5" y2="23"/></defs><path style="marker:none" d="M8.467 1.587a6.884 6.884 0 0 0-6.88 6.88 6.884 6.884 0 0 0 6.88 6.879 6.884 6.884 0 0 0 6.879-6.88 6.884 6.884 0 0 0-6.88-6.879z" color="#000" overflow="visible" fill="#5294e2"/><path d="M27.695 41.805a8.685 19.656 0 0 0-3.7-37.46" opacity=".8" fill="none" stroke="url(#b)" stroke-width=".804" stroke-linecap="round" stroke-linejoin="round" transform="matrix(.32911 0 0 .32912 .568 .568)"/><path style="marker:none" d="M9.15 14.137a.602.602 0 0 0 1.203 0 .602.602 0 1 0-1.204 0z" color="#000" overflow="visible" fill="#fff"/><path d="M37.915 37.899A19.656 8.685 45 0 1 8.841 13.213" opacity=".8" fill="none" stroke="url(#c)" stroke-width=".804" stroke-linecap="round" stroke-linejoin="round" transform="matrix(.32911 0 0 .32912 .568 .568)"/><path style="marker:none" d="M4.11 5.129a.602.602 0 0 1-1.204 0 .602.602 0 1 1 1.203 0z" color="#000" overflow="visible" fill="#fff"/><path d="M38.091 10.581a8.685 19.656 45 0 0-29.06 20.984" opacity=".8" fill="none" stroke="url(#d)" stroke-width=".804" stroke-linecap="round" stroke-linejoin="round" transform="matrix(.32911 0 0 .32912 .568 .568)"/><path d="M3.452 11.964a.602.602 0 0 0 0-1.204.602.602 0 1 0 0 1.204z" fill="#fff"/><path d="M40.758 19.45a19.656 8.685 0 0 0-36.376 4.956" fill="none" stroke="url(#e)" stroke-width=".804" stroke-linecap="round" stroke-linejoin="round" transform="matrix(.32911 0 0 .32912 .568 .568)"/><path style="marker:none" d="M14.696 7.085a.602.602 0 0 0-1.203 0 .602.602 0 1 0 1.203 0z" color="#000" overflow="visible" fill="#fff"/></svg>