<?xml version="1.0" encoding="UTF-8" standalone="no"?>
<svg
   xmlns:dc="http://purl.org/dc/elements/1.1/"
   xmlns:cc="http://creativecommons.org/ns#"
   xmlns:rdf="http://www.w3.org/1999/02/22-rdf-syntax-ns#"
   xmlns:svg="http://www.w3.org/2000/svg"
   xmlns="http://www.w3.org/2000/svg"
   xmlns:sodipodi="http://sodipodi.sourceforge.net/DTD/sodipodi-0.dtd"
   xmlns:inkscape="http://www.inkscape.org/namespaces/inkscape"
   width="64"
   height="64"
   version="1"
   id="svg18"
   sodipodi:docname="smartphone.svg"
   inkscape:version="0.92.4 (5da689c313, 2019-01-14)">
  <metadata
     id="metadata24">
    <rdf:RDF>
      <cc:Work
         rdf:about="">
        <dc:format>image/svg+xml</dc:format>
        <dc:type
           rdf:resource="http://purl.org/dc/dcmitype/StillImage" />
      </cc:Work>
    </rdf:RDF>
  </metadata>
  <defs
     id="defs22" />
  <sodipodi:namedview
     pagecolor="#ffffff"
     bordercolor="#666666"
     borderopacity="1"
     objecttolerance="10"
     gridtolerance="10"
     guidetolerance="10"
     inkscape:pageopacity="0"
     inkscape:pageshadow="2"
     inkscape:window-width="1366"
     inkscape:window-height="708"
     id="namedview20"
     showgrid="true"
     inkscape:zoom="5.2149125"
     inkscape:cx="32.072728"
     inkscape:cy="50.916436"
     inkscape:window-x="0"
     inkscape:window-y="30"
     inkscape:window-maximized="1"
     inkscape:current-layer="svg18">
    <inkscape:grid
       type="xygrid"
       id="grid864" />
  </sodipodi:namedview>
  <rect
     style="opacity:1;fill:#343944;fill-opacity:1;stroke:none;stroke-width:0.94099998;stroke-linecap:round;stroke-linejoin:miter;stroke-miterlimit:4;stroke-dasharray:none;stroke-opacity:0.61184208;paint-order:markers stroke fill"
     id="rect830"
     width="32"
     height="52"
     x="16"
     y="6"
     rx="4"
     ry="4" />
  <rect
     ry="2.0888886"
     rx="2.1538458"
     y="7.9999995"
     x="18"
     height="47"
     width="27.999998"
     id="rect832"
     style="opacity:1;fill:#4c5263;fill-opacity:1;stroke:#17181e;stroke-width:1;stroke-linecap:round;stroke-linejoin:miter;stroke-miterlimit:4;stroke-dasharray:none;stroke-opacity:0.58823529;paint-order:fill markers stroke" />
  <path
     style="opacity:1;fill:#2c303a;fill-opacity:1;stroke:none;stroke-width:0.99999994;stroke-linecap:round;stroke-linejoin:miter;stroke-miterlimit:4;stroke-dasharray:none;stroke-opacity:0.58823529;paint-order:fill markers stroke"
     d="M 26,8.4793949 H 37 L 36,10 h -9 z"
     id="rect834"
     inkscape:connector-curvature="0"
     sodipodi:nodetypes="ccccc" />
  <path
     style="fill:#ffffff;stroke-width:0.78571445;fill-opacity:1;stroke:none;stroke-opacity:0.78431374;opacity:0.5"
     d="m 27.859287,15.418212 -1.359286,0.785715 1.881,3.259143 C 24.942715,21.124071 24.928572,25 24.928572,25 h 14.142856 c 0,0 -0.01571,-3.875929 -3.452429,-5.53693 l 1.881,-3.259143 -1.359286,-0.785715 -2.035,3.523144 c -0.623858,-0.139857 -1.312143,-0.227072 -2.102572,-0.227072 -0.792,0 -1.483429,0.08722 -2.108854,0.227072 z m 1.001,6.43893 c 0.435286,0 0.782572,0.350429 0.782572,0.782572 0,0.432143 -0.352,0.788857 -0.782572,0.788857 -0.435286,0 -0.788857,-0.352 -0.788857,-0.788857 0,-0.432143 0.353571,-0.782572 0.788857,-0.782572 z m 6.285712,0 c 0.435285,0 0.782571,0.350429 0.782571,0.782572 0,0.432143 -0.352,0.788857 -0.782571,0.788857 -0.435286,0 -0.788858,-0.352 -0.788858,-0.788857 0,-0.432143 0.353572,-0.782572 0.788858,-0.782572 z m 6.351715,3.926215 c -0.903572,0 -1.640572,0.832857 -1.640572,1.859 v 7.276502 c 0,1.026143 0.737,1.863714 1.640572,1.863714 C 42.401286,36.782573 43,35.945002 43,34.918859 v -7.276502 c 0,-1.027714 -0.597143,-1.860571 -1.502286,-1.860571 m -16.569142,0.0016 v 13.357145 c 0,0.370858 0.415643,0.785715 0.785715,0.785715 h 2.357143 v 2.947215 c 0,0.977428 0.622286,1.767857 1.571429,1.767857 0.942853,0 1.602853,-0.792 1.571425,-1.767857 v -2.94643 h 1.571428 v 2.94643 c 0,0.977399 0.622286,1.767828 1.571429,1.767828 0.942858,0 1.571429,-0.803786 1.571429,-1.767857 v -2.94643 h 2.357143 c 0.370858,0 0.785715,-0.414857 0.785715,-0.785714 V 25.784143 Z m -2.288,0 C 21.737,25.783386 21,26.616243 21,27.642386 v 7.276502 c 0,1.026143 0.737,1.863714 1.640572,1.863714 0.904357,0 1.502286,-0.837571 1.502286,-1.863714 v -7.276502 c 0,-1.027714 -0.597143,-1.860571 -1.502286,-1.860571 M 35.08157,22.293243 m -13.163856,2.765714"
     id="path14"
     inkscape:connector-curvature="0" />
</svg>
