<?xml version="1.0" encoding="UTF-8" standalone="no"?>
<svg
   xmlns:dc="http://purl.org/dc/elements/1.1/"
   xmlns:cc="http://creativecommons.org/ns#"
   xmlns:rdf="http://www.w3.org/1999/02/22-rdf-syntax-ns#"
   xmlns:svg="http://www.w3.org/2000/svg"
   xmlns="http://www.w3.org/2000/svg"
   xmlns:sodipodi="http://sodipodi.sourceforge.net/DTD/sodipodi-0.dtd"
   xmlns:inkscape="http://www.inkscape.org/namespaces/inkscape"
   width="64"
   height="64"
   version="1"
   id="svg28"
   sodipodi:docname="uninterruptible-power-supply.svg"
   inkscape:version="0.92.4 (5da689c313, 2019-01-14)">
  <metadata
     id="metadata34">
    <rdf:RDF>
      <cc:Work
         rdf:about="">
        <dc:format>image/svg+xml</dc:format>
        <dc:type
           rdf:resource="http://purl.org/dc/dcmitype/StillImage" />
      </cc:Work>
    </rdf:RDF>
  </metadata>
  <defs
     id="defs32" />
  <sodipodi:namedview
     pagecolor="#ffffff"
     bordercolor="#666666"
     borderopacity="1"
     objecttolerance="10"
     gridtolerance="10"
     guidetolerance="10"
     inkscape:pageopacity="0"
     inkscape:pageshadow="2"
     inkscape:window-width="1366"
     inkscape:window-height="708"
     id="namedview30"
     showgrid="true"
     inkscape:snap-bbox="true"
     inkscape:bbox-nodes="true"
     inkscape:snap-bbox-edge-midpoints="true"
     inkscape:zoom="3.6875"
     inkscape:cx="-19.779397"
     inkscape:cy="47.577341"
     inkscape:window-x="0"
     inkscape:window-y="30"
     inkscape:window-maximized="1"
     inkscape:current-layer="svg28">
    <inkscape:grid
       type="xygrid"
       id="grid841" />
  </sodipodi:namedview>
  <rect
     style="fill:#caced6;stroke-width:0.941;fill-opacity:1;stroke:#333741;stroke-opacity:0.6118421;stroke-miterlimit:4;stroke-dasharray:none"
     width="52"
     height="42"
     x="-58"
     y="-53"
     rx="3.7142856"
     ry="3.8181818"
     transform="matrix(0,-1,-1,0,0,0)"
     id="rect4" />
  <path
     style="opacity:1;fill:#414655;fill-opacity:1"
     d="M 46,6 V 34 C 46,41.756 39.756,48 32,48 24.244,48 18,41.756 18,34 V 6 Z"
     id="path6"
     inkscape:connector-curvature="0"
     sodipodi:nodetypes="cssscc" />
  <circle
     cx="32"
     cy="34"
     r="6"
     style="fill:#333741;fill-opacity:1"
     id="circle12" />
  <circle
     id="circle854"
     style="fill:#333741;fill-opacity:1;stroke-width:1"
     r="4"
     cy="22.342304"
     cx="32" />
  <circle
     cx="32"
     cy="22.342304"
     r="3"
     style="fill:#ffffff"
     id="circle16" />
  <circle
     cx="31.999998"
     cy="13"
     r="4"
     style="fill:#333741;fill-opacity:1;stroke-width:1"
     id="circle856" />
  <circle
     cx="32"
     cy="13"
     r="3"
     style="fill:#ffffff"
     id="circle20" />
  <path
     style="opacity:1;stroke-width:0.99999994;fill:#414655;fill-opacity:1"
     d="M 17 56 C 15.892 56 15 56.892 15 58 L 49 58 C 49 56.892 48.108 56 47 56 L 17 56 z "
     id="rect22" />
  <path
     style="opacity:1;fill:#414655;fill-opacity:1"
     d="m 51,32 c -0.554,0 -1,0.446 -1,1 0,0.554 0.446,1 1,1 h 2 v -2 z m 0,4 c -0.554,0 -1,0.446 -1,1 0,0.554 0.446,1 1,1 h 2 v -2 z m 0,4 c -0.554,0 -1,0.446 -1,1 0,0.554 0.446,1 1,1 h 2 v -2 z"
     id="path24"
     inkscape:connector-curvature="0"
     sodipodi:nodetypes="sssccssssccssssccs" />
  <path
     d="m 13,32 c 0.554,0 1,0.446 1,1 0,0.554 -0.446,1 -1,1 h -2 v -2 z m 0,4 c 0.554,0 1,0.446 1,1 0,0.554 -0.446,1 -1,1 h -2 v -2 z m 0,4 c 0.554,0 1,0.446 1,1 0,0.554 -0.446,1 -1,1 h -2 v -2 z"
     style="opacity:1;fill:#414655;fill-opacity:1"
     id="path26"
     inkscape:connector-curvature="0"
     sodipodi:nodetypes="sssccssssccssssccs" />
  <circle
     id="circle852"
     style="fill:#3697c4;fill-opacity:1;stroke-width:1"
     r="5"
     cy="34"
     cx="32" />
</svg>
