<svg xmlns="http://www.w3.org/2000/svg" width="16" height="16" version="1.1" id="svg9"><defs id="defs3"><style id="current-color-scheme" type="text/css">.ColorScheme-Text{color:#727272}</style></defs><path d="M1 2v6h1l4-2h9V2c0-1-1-1-1-1H2S1 1 1 2z" id="path5" color="#727272" opacity="1" fill="#000" fill-opacity=".267"/><path class="ColorScheme-Text" d="M15 7s1 0 1 1v6s0 1-1 1H1s-1 0-1-1v-4c0-1 1-1 1-1h6l2-2z" id="path7" color="#727272" fill="#003479" fill-opacity=".561"/><path id="path834" d="M15 8v6H1v-3-1h6.443l2-2z" class="ColorScheme-Text" color="#727272" fill="#6ba4e7" fill-opacity="1" stroke-width="1"/><path id="path836" d="M2 2v6h5l2-2h5V2H3z" color="#727272" opacity="1" fill="#fff" fill-opacity="1"/></svg>