<svg xmlns="http://www.w3.org/2000/svg" width="16" height="16" version="1.1" id="svg7"><defs id="defs3"><style id="current-color-scheme" type="text/css"></style></defs><g id="folder-publicshare_16" transform="translate(-948 -240)" stroke-linejoin="miter" stroke-miterlimit="4" stroke-dasharray="none" stroke-dashoffset="0" stroke-opacity="1"><path id="rect5615-6" opacity=".75" fill="none" fill-opacity=".327" stroke="none" stroke-width="1" stroke-linecap="butt" d="M948 240h16v16h-16z"/><g id="g5972" fill-opacity="1" stroke="#4b4b4b" stroke-width="0"><circle r="2" cy="248" cx="953" id="path4547-8-3" display="inline" opacity=".65" fill="#5c657a"/><ellipse ry="2" rx="2" cy="253" cx="959" id="path4547-9-8" display="inline" opacity=".65" fill="#5c657a"/><ellipse ry="2" rx="2" cy="243" cx="959" id="path4547-6" display="inline" opacity=".65" fill="#5c657a"/><path id="rect4669-4-2" d="M959 240a3 3 0 0 0-3 3c0 .462.114.894.3 1.285l-2.015 1.016c-.39-.187-.823-.301-1.285-.301a3 3 0 0 0 0 6c.462 0 .894-.114 1.285-.3l2.016 1.015c-.187.39-.301.823-.301 1.285a3 3 0 1 0 3-3c-.462 0-.894.114-1.285.3l-2.016-1.015c.187-.39.301-.823.301-1.285 0-.462-.114-.894-.3-1.285l2.015-1.016c.39.187.823.301 1.285.301a3 3 0 1 0 0-6zm0 1a2 2 0 1 1 0 4 2 2 0 0 1 0-4zm-6 5a2 2 0 1 1 0 4 2 2 0 0 1 0-4zm6 5a2 2 0 1 1 0 4 2 2 0 0 1 0-4z" display="inline" opacity=".65" fill="#25282f"/></g></g></svg>