<svg xmlns="http://www.w3.org/2000/svg" viewBox="0 0 16 16">
  <defs id="defs3051">
    <style type="text/css" id="current-color-scheme">
      .ColorScheme-Text {
        color:#5d656b;
      }
      </style>
  </defs>
    <path
       style="fill:currentColor"
       d="M 8.5 1.8 L 5.8 4.5 L 8.5 7.2 L 9.2 6.5 L 7.7 5 L 10 5 A 1 1 0 0 1 11 6 L 11 11.1 A 1.5 1.5 0 0 0 10 12.5 A 1.5 1.5 0 0 0 11.5 14 A 1.5 1.5 0 0 0 13 12.5 A 1.5 1.5 0 0 0 12 11.1 L 12 6 A 2 2 0 0 0 10 4 A 2 2 0 0 0 10 4 L 7.7 4 L 9.2 2.5 L 8.5 1.8 z M 3.5 3 A 1.5 1.5 0 0 0 2 4.5 A 1.5 1.5 0 0 0 3 5.9 L 3 11.1 A 1.5 1.5 0 0 0 2 12.5 A 1.5 1.5 0 0 0 3.5 14 A 1.5 1.5 0 0 0 5 12.5 A 1.5 1.5 0 0 0 4 11.1 L 4 5.9 A 1.5 1.5 0 0 0 5 4.5 A 1.5 1.5 0 0 0 3.5 3 z M 3.5 4 A 0.5 0.5 0 0 1 3.5 4 A 0.5 0.5 0 0 1 4 4.5 A 0.5 0.5 0 0 1 3.5 5 A 0.5 0.5 0 0 1 3 4.5 A 0.5 0.5 0 0 1 3.5 4 z M 3.5 12 L 3.5 12 A 0.5 0.5 0 0 1 4 12.5 A 0.5 0.5 0 0 1 3.5 13 A 0.5 0.5 0 0 1 3 12.5 A 0.5 0.5 0 0 1 3.5 12 z M 11.5 12 L 11.5 12 A 0.5 0.5 0 0 1 12 12.5 A 0.5 0.5 0 0 1 11.5 13 A 0.5 0.5 0 0 1 11 12.5 A 0.5 0.5 0 0 1 11.5 12 z "
       class="ColorScheme-Text" />
</svg>
