<svg xmlns="http://www.w3.org/2000/svg" width="16" height="16" version="1.1" id="svg7"><defs id="defs3"><style id="current-color-scheme" type="text/css"></style></defs><g id="folder-recent_16" transform="translate(-948 -368)" stroke="none"><path id="rect5615-4" opacity=".75" fill="none" fill-opacity=".327" stroke-width="1" stroke-linecap="butt" stroke-linejoin="miter" stroke-miterlimit="4" stroke-dasharray="none" stroke-dashoffset="0" stroke-opacity="1" d="M948 368h16v16h-16z"/><path style="marker:none" d="M956.885 369c-3.705 0-6.755 2.44-7.088 6H948l2.654 3.334L953.31 375h-1.733c.328-2.596 2.583-4.262 5.309-4.262 2.95 0 5.345 2.358 5.345 5.262 0 2.904-2.394 5.262-5.345 5.262-1.601 0-3.038-.697-4.018-1.795l-1.3 1.185a7.146 7.146 0 0 0 5.318 2.348c3.927 0 7.115-3.136 7.115-7s-3.188-7-7.115-7zm-.219 2.666l-.666 4.668 3.334 2.666v-.666l-2-2.668v-4z" id="path2504-1-2-0" color="#000" display="inline" overflow="visible" visibility="visible" opacity=".75" fill="#5c657a" fill-opacity="1" fill-rule="nonzero" stroke-width="4.781"/></g></svg>