<svg version="1.1" viewBox="0 0 16 16" xmlns="http://www.w3.org/2000/svg">
 <defs>
  <style id="current-color-scheme" type="text/css">.ColorScheme-Text {
        color:#232629;
      }</style>
 </defs>
 <path class="ColorScheme-Text" d="m0 2v12h16v-12h-16zm1.4141 1h13.172l-6.5859 6.5859-6.5859-6.5859zm-0.41406 1 4 4-4 4v-8zm14 0v8l-4-4 4-4zm-9.293 4.707 2.293 2.293 2.293-2.293 4.293 4.293h-13.172l4.293-4.293z" fill="#252830" fill-opacity=".65098"/>
 <path class="ColorScheme-Text" d="m1.4141 3h13.172l-6.5859 6.5859zm-0.41406 1 4 4-4 4zm14 0v8l-4-4zm-9.293 4.707 2.293 2.293 2.293-2.293 4.293 4.293h-13.172z" color="#232629" fill="#5c6579" fill-opacity=".65098"/>
</svg>
