<svg width="16" height="16" version="1.1" xmlns="http://www.w3.org/2000/svg">
 <defs>
  <style id="current-color-scheme" type="text/css"/>
 </defs>
 <path d="m11.973 2.3714c-0.22593 9.375e-4 -0.43499 0.074998-0.63186 0.21562-0.49686 0.35811-1.5262 0.73123-3.3355 0.73123-1.8187 0-2.8499-0.37311-3.3468-0.73123-0.19687-0.14062-0.38436-0.20624-0.60936-0.20624-0.22499 0-0.48842 0.065623-0.76029 0.20624-0.9656 0.51749-1.8656 2.1881-2.3531 4.3677-0.41249 1.8599-0.56248 4.3864-0.31874 5.4036 0.21562 0.8831 0.59061 1.2703 1.2562 1.2703 0.97497-0.01875 2.2031-1.1118 2.9905-2.5874 0.56248-0.81748 1.8749-1.184 3.1405-1.1456 1.2562-0.046875 2.5696 0.32812 3.1321 1.1456 0.78748 1.4756 2.0146 2.5687 2.999 2.5874 0.65623 0 1.0312-0.38718 1.2468-1.2703 0.24374-1.0172 0.09375-3.5436-0.31874-5.4036-0.48749-2.1796-1.3875-3.8502-2.3531-4.3668-0.26718-0.14625-0.51092-0.21749-0.73779-0.21562z" color="#727272" fill="none" stroke="#25282f" stroke-opacity=".65098"/>
 <path d="m11.973 2.3711c-0.22593 9.375e-4 -0.43399 0.076176-0.63086 0.2168-0.49686 0.35811-1.5266 0.73047-3.3359 0.73047-1.8187 0-2.8508-0.37235-3.3477-0.73047-0.19687-0.14062-0.38438-0.20703-0.60938-0.20703-0.22499 0-0.4879 0.06641-0.75977 0.20703-0.9656 0.51749-1.866 2.1876-2.3535 4.3672-0.41249 1.8599-0.5621 4.3852-0.31836 5.4023 0.21562 0.8831 0.59025 1.2715 1.2559 1.2715 0.97497-0.01875 2.2028-1.1123 2.9902-2.5879 0.56248-0.81748 1.875-1.183 3.1406-1.1445 1.2562-0.046875 2.5703 0.32705 3.1328 1.1445 0.78748 1.4756 2.0157 2.5691 3 2.5879 0.65623 0 1.0305-0.38838 1.2461-1.2715 0.24374-1.0172 0.094133-3.5424-0.31836-5.4023-0.48749-2.1796-1.3879-3.8506-2.3535-4.3672-0.26718-0.14625-0.51141-0.21672-0.73828-0.21484v-0.0019531zm-7.9727 2.6289h1v1h1v1h-1v1h-1v-1h-1v-1h1v-1zm7.5 0c0.27614 0 0.5 0.22386 0.5 0.5s-0.22386 0.5-0.5 0.5-0.5-0.22386-0.5-0.5 0.22386-0.5 0.5-0.5zm-1 1c0.27614 0 0.5 0.22386 0.5 0.5s-0.22386 0.5-0.5 0.5-0.5-0.22386-0.5-0.5 0.22386-0.5 0.5-0.5zm2 0c0.27614 0 0.5 0.22386 0.5 0.5s-0.22386 0.5-0.5 0.5-0.5-0.22386-0.5-0.5 0.22386-0.5 0.5-0.5zm-1 1c0.27614 0 0.5 0.22386 0.5 0.5s-0.22386 0.5-0.5 0.5-0.5-0.22386-0.5-0.5 0.22386-0.5 0.5-0.5z" color="#727272" fill="#5c6579" fill-opacity=".74902"/>
</svg>
