<svg xmlns="http://www.w3.org/2000/svg" width="16" height="16" version="1.1" id="svg9"><defs id="defs3"><style id="current-color-scheme" type="text/css"></style></defs><rect id="rect23" width="14" height="7" x="1" y="1" rx="1" ry="1" display="inline" opacity="1" fill="#000" fill-opacity=".267" stroke="none" stroke-width="1" stroke-linecap="round" stroke-linejoin="miter" stroke-miterlimit="4" stroke-dasharray="none" stroke-opacity="1" paint-order="stroke markers fill"/><rect id="rect816" width="12" height="6" x="2" y="2" rx="0" ry="0" opacity="1" fill="#f9f9f9" fill-opacity="1" stroke="none" stroke-width="1" stroke-linecap="round" stroke-linejoin="miter" stroke-miterlimit="4" stroke-dasharray="none" stroke-opacity="1" paint-order="stroke markers fill"/><path d="M8 3L7 5H1c-.554 0-1 .446-1 1v8c0 .554.446 1 1 1h14c.554 0 1-.446 1-1V4c0-.5-.5-1-1-1z" id="path4-3" display="inline" fill="#003579" fill-opacity=".561" stroke="none"/><path id="path819" d="M8.608 4l-.876 2H1v8h14V4z" display="inline" fill="#6ba4e7" fill-opacity="1" stroke="none" stroke-width="1"/><path d="M8.918 3l-1.06.283L7 5H1.453L0 5.389v2.07l15.63-4.188C15.45 3.111 15.229 3 15 3H8.918zM16 4.229L0 8.518v2.07l16-4.29v-2.07zm0 3.125L0 11.643v2.07l16-4.287V7.354zm0 3.126L0 14.77V15h6.863L16 12.55v-2.07zm0 3.127L10.807 15H16v-1.393z" id="rect830" opacity=".15" fill="#fff" fill-opacity="1" stroke="none" stroke-width="1" stroke-linecap="round" stroke-linejoin="miter" stroke-miterlimit="4" stroke-dasharray="none" stroke-opacity="1" paint-order="stroke markers fill"/></svg>