<svg width="16" height="16" version="1.1" xmlns="http://www.w3.org/2000/svg">
 <defs>
  <style id="current-color-scheme" type="text/css">.ColorScheme-Text { color:#5d656b; } .ColorScheme-Highlight { color:#5294e2; }</style>
 </defs>
 <circle cx="8" cy="8" r="7" style="fill:currentColor" class="ColorScheme-Text" opacity=".35"/>
 <path d="m8 0a8 8 0 0 0-8 8h1 3v-1h-2.9219a7 7 0 0 1 6.9219-6 7 7 0 0 1 7 7 7 7 0 0 1-7 7 7 7 0 0 1-6.3105-4h-1.0879a8 8 0 0 0 7.3984 5 8 8 0 0 0 8-8 8 8 0 0 0-8-8zm-1 4v4 1h4v-1h-3v-4h-1z" style="fill:currentColor" class="ColorScheme-Text"/>
</svg>
