<svg xmlns="http://www.w3.org/2000/svg" width="16" height="16" version="1.1" id="svg7"><defs id="defs3"><style id="current-color-scheme" type="text/css"></style></defs><path d="M10.215.998a4.77 4.77 0 0 0-3.383 1.407 4.78 4.78 0 0 0-.599 6.047c-.028.021-.062.035-.09.06l-4.938 4.52c-.391.358-.166 1.18.209 1.556.375.375 1.198.6 1.557.21l4.52-4.94c.024-.027.038-.06.06-.09a4.78 4.78 0 0 0 6.046-.598 4.78 4.78 0 0 0 0-6.765A4.77 4.77 0 0 0 10.215.998zm0 1.916c.735 0 1.474.277 2.035.838a2.882 2.882 0 0 1 0 4.07 2.882 2.882 0 0 1-4.07 0 2.882 2.882 0 0 1 0-4.07 2.869 2.869 0 0 1 2.035-.838z" id="path836" display="inline" opacity=".75" fill="#5c657a" fill-opacity="1" stroke="none" stroke-width="2" stroke-linecap="butt" stroke-linejoin="miter" stroke-miterlimit="4" stroke-dasharray="none" stroke-dashoffset="0" stroke-opacity=".651"/></svg>