<svg version="1.1" viewBox="0 0 16 16" xmlns="http://www.w3.org/2000/svg">
 <defs>
  <style id="current-color-scheme" type="text/css">.ColorScheme-Text {
        color:#232629;
      }</style>
 </defs>
 <path class="ColorScheme-Text" d="m7.5 2a4.5 4.5 0 0 0-4.5 4.5 4.5 4.5 0 0 0 0.052734 0.65625 3 3 0 0 0-2.0527 2.8438 3 3 0 0 0 3 3h7.5a3.5 3.5 0 0 0 3.5-3.5 3.5 3.5 0 0 0-3.0293-3.4648 4.5 4.5 0 0 0-4.4707-4.0352zm0 1a3.5 3.5 0 0 1 3.5 3.5 3.5 3.5 0 0 1-0.050781 0.56445 2.5 2.5 0 0 1 0.55078-0.064453 2.5 2.5 0 0 1 2.5 2.5 2.5 2.5 0 0 1-2.5 2.5h-7.5a2 2 0 0 1-2-2 2 2 0 0 1 2-2 2 2 0 0 1 0.35742 0.033203 3.5 3.5 0 0 1-0.35742-1.5332 3.5 3.5 0 0 1 3.5-3.5z" fill="#5c6579" fill-opacity=".74902"/>
</svg>
