<svg width="24" height="24" version="1.1" xmlns="http://www.w3.org/2000/svg">
 <defs>
  <style id="current-color-scheme" type="text/css"/>
 </defs>
 <g transform="translate(-920,-233)">
  <rect x="921" y="234" width="22" height="22" fill="none" opacity=".75"/>
  <g fill="#5c657a" stroke-width="0">
   <circle cx="936" cy="238" r="3.1" opacity=".65"/>
   <circle cx="928" cy="245" r="3.1" opacity=".65"/>
   <circle cx="936" cy="252" r="3.1" opacity=".65"/>
  </g>
  <path d="m936 234c-2.2091 0-4 1.7909-4 4 0 0.47234 0.0958 0.91916 0.24609 1.3398l-2.2266 2.2266c-0.59478-0.35069-1.2791-0.56641-2.0195-0.56641-2.2091 0-4 1.7909-4 4s1.7909 4 4 4c0.74045 0 1.4248-0.21572 2.0195-0.56641l2.2266 2.2266c-0.15032 0.42068-0.24609 0.8675-0.24609 1.3398 0 2.2091 1.7909 4 4 4 2.2092 0 4-1.7909 4-4s-1.7908-4-4-4c-0.99871 0-1.9006 0.37916-2.6016 0.98438l-1.9648-1.9648c0.35069-0.59478 0.56641-1.2791 0.56641-2.0195s-0.21572-1.4248-0.56641-2.0195l1.9648-1.9648c0.70092 0.60522 1.6028 0.98438 2.6016 0.98438 2.2092 0 4-1.7909 4-4s-1.7908-4-4-4zm0 1c1.6569 0 3 1.3432 3 3 0 1.6569-1.3431 3-3 3-1.6568 0-3-1.3431-3-3 0-1.6568 1.3432-3 3-3zm-8 7c1.6569 0 3 1.3432 3 3 0 1.6569-1.3431 3-3 3-1.6568 0-3-1.3431-3-3 0-1.6568 1.3432-3 3-3zm8 7c1.6569 0 3 1.3432 3 3 0 1.6569-1.3431 3-3 3-1.6568 0-3-1.3431-3-3 0-1.6568 1.3432-3 3-3z" fill="#25282f" opacity=".65" stroke-width="0"/>
 </g>
</svg>
