<svg xmlns="http://www.w3.org/2000/svg" width="32" height="32" viewBox="0 0 8.467 8.467"><g paint-order="markers stroke fill"><path d="M1.588 1.058c-.147 0-.133.133-.133.265H.926c-.132 0-.132 0-.132.132v2.778c0 .147.118.265.264.265h6.35a.264.264 0 0 0 .265-.265V1.455c0-.132 0-.132-.133-.132H3.836c0-.132.015-.265-.132-.265z" fill="#fff" fill-opacity=".976" stroke="#000" stroke-width=".529" stroke-opacity=".268"/><path d="M1.587 1.058c-.146 0-.132.133-.132.265H.926c-.132 0-.132 0-.132.132v2.778c0 .147.118.265.264.265h6.35a.264.264 0 0 0 .265-.265V1.455c0-.132 0-.132-.132-.132H3.836c0-.132.015-.265-.132-.265z" fill="#fff" fill-opacity=".976"/><path d="M4.233 2.117c-.146 0-.19.138-.264.265l-.154.264H.397c-.132 0-.132.132-.132.132v4.498c0 .132.132.132.132.132H8.07c.132 0 .132-.132.132-.132V2.249c0-.132-.132-.132-.132-.132z" fill="none" stroke="#003779" stroke-width=".529" stroke-opacity=".561"/><path d="M4.233 2.117c-.146 0-.19.138-.264.264l-.155.265H.397c-.132 0-.132.132-.132.132v4.498c0 .132.132.132.132.132H8.07c.132 0 .132-.132.132-.132V2.249c0-.132-.132-.132-.132-.132z" fill="#6ba4e7"/></g><g stroke-width="2.25" paint-order="stroke markers fill"><path d="M4.097 3.969v.32a.751.751 0 0 0-.29.12l-.225-.227-.194.193.227.227a.751.751 0 0 0-.12.288h-.32v.274h.32a.751.751 0 0 0 .12.289l-.227.226.194.193.226-.227a.751.751 0 0 0 .289.12v.32h.273v-.32a.751.751 0 0 0 .289-.119l.226.226.193-.193-.226-.227a.751.751 0 0 0 .12-.288h.32V4.89h-.32a.751.751 0 0 0-.12-.289l.226-.226-.193-.193-.227.227a.751.751 0 0 0-.288-.12v-.32zm.136.648a.41.41 0 0 1 .41.41.41.41 0 0 1-.41.41.41.41 0 0 1-.41-.41.41.41 0 0 1 .41-.41z" opacity=".35" fill="none" stroke="#000" stroke-width=".52932804"/><path d="M4.097 3.969v.32a.751.751 0 0 0-.29.12l-.225-.227-.194.193.227.227a.751.751 0 0 0-.12.288h-.32v.274h.32a.751.751 0 0 0 .12.289l-.227.226.194.193.226-.227a.751.751 0 0 0 .289.12v.32h.273v-.32a.751.751 0 0 0 .289-.119l.226.226.193-.193-.226-.227a.751.751 0 0 0 .12-.288h.32V4.89h-.32a.751.751 0 0 0-.12-.289l.226-.226-.193-.193-.227.227a.751.751 0 0 0-.288-.12v-.32zm.136.648a.41.41 0 0 1 .41.41.41.41 0 0 1-.41.41.41.41 0 0 1-.41-.41.41.41 0 0 1 .41-.41z" fill="#5b8cc5"/></g></svg>