<svg xmlns="http://www.w3.org/2000/svg" xmlns:xlink="http://www.w3.org/1999/xlink" width="32" height="32" viewBox="0 0 8.467 8.467"><defs><linearGradient id="b"><stop offset="0" stop-color="#66bcff"/><stop offset="1" stop-color="#b29aff"/></linearGradient><clipPath clipPathUnits="userSpaceOnUse" id="c"><rect ry=".265" y="282.448" x="1.058" height="12.171" width="14.817" fill="url(#a)" stroke-width=".535" stroke-opacity=".039" paint-order="stroke markers fill"/></clipPath><linearGradient xlink:href="#b" id="a" gradientUnits="userSpaceOnUse" x1="13.229" y1="297" x2="2.117" y2="280.067"/></defs><g transform="translate(0 -288.533)"><rect ry=".138" y="289.592" x=".265" height="6.35" width="7.938" fill="none" stroke="#262a2f" stroke-width=".529" stroke-opacity=".784" paint-order="markers stroke fill"/><rect width="7.938" height="6.35" x=".265" y="289.592" ry=".138" fill="#636a78" paint-order="markers stroke fill"/><path d="M.397 289.592a.132.132 0 0 0-.132.132v.661h7.937v-.661a.132.132 0 0 0-.132-.132z" fill="#4a4f59" paint-order="stroke markers fill"/><rect width=".529" height=".265" x="1.058" y="289.856" ry=".132" opacity=".35" paint-order="stroke markers fill"/><rect ry=".132" y="289.856" x="3.44" height=".265" width="1.587" opacity=".35" paint-order="stroke markers fill"/><rect width=".265" height=".265" x="7.408" y="289.856" ry=".132" opacity=".8" fill="#fff" paint-order="stroke markers fill"/><rect ry=".132" y="289.856" x="6.615" height=".265" width=".529" opacity=".35" paint-order="stroke markers fill"/><rect width=".265" height=".265" x="6.085" y="289.856" ry=".132" opacity=".35" paint-order="stroke markers fill"/><rect width="10.054" height="2.646" x="3.44" y="293.56" ry=".529" clip-path="url(#c)" transform="matrix(.47368 0 0 .5 .223 148.63)" opacity=".15" fill="#fff" paint-order="stroke markers fill"/><rect width=".529" height=".529" x="2.381" y="295.148" ry=".053" fill="#999ea7" paint-order="stroke markers fill"/><rect ry=".053" y="295.148" x="3.44" height=".529" width=".529" fill="#999ea7" paint-order="stroke markers fill"/><rect width=".529" height=".529" x="4.498" y="295.148" ry=".053" fill="#999ea7" paint-order="stroke markers fill"/><rect ry=".053" y="295.148" x="5.556" height=".529" width=".529" fill="#999ea7" paint-order="stroke markers fill"/></g></svg>