<?xml version="1.0" encoding="UTF-8" standalone="no"?>
<!-- Created with Inkscape (http://www.inkscape.org/) -->

<svg
   xmlns:dc="http://purl.org/dc/elements/1.1/"
   xmlns:cc="http://creativecommons.org/ns#"
   xmlns:rdf="http://www.w3.org/1999/02/22-rdf-syntax-ns#"
   xmlns:svg="http://www.w3.org/2000/svg"
   xmlns="http://www.w3.org/2000/svg"
   xmlns:sodipodi="http://sodipodi.sourceforge.net/DTD/sodipodi-0.dtd"
   xmlns:inkscape="http://www.inkscape.org/namespaces/inkscape"
   width="32"
   height="32"
   viewBox="0 0 8.4666665 8.466667"
   version="1.1"
   id="svg8"
   inkscape:version="0.92.4 (5da689c313, 2019-01-14)"
   sodipodi:docname="default-folder-publicshare.svg">
  <defs
     id="defs2">
    <clipPath
       clipPathUnits="userSpaceOnUse"
       id="clipPath827">
      <rect
         ry="0.52915645"
         y="285.35831"
         x="0.52916664"
         height="9.5249939"
         width="15.875"
         id="rect829"
         style="opacity:1;fill:#5294e2;fill-opacity:1;stroke:none;stroke-width:0.25100571;stroke-miterlimit:4;stroke-dasharray:none;stroke-opacity:0.19607843;paint-order:markers stroke fill"
         transform="rotate(45)" />
    </clipPath>
    <clipPath
       clipPathUnits="userSpaceOnUse"
       id="clipPath827-5-3">
      <rect
         ry="0.52915645"
         y="285.35831"
         x="0.52916664"
         height="9.5249939"
         width="15.875"
         id="rect829-3-6"
         style="opacity:1;fill:#5677fc;fill-opacity:1;stroke:none;stroke-width:0.25100571;stroke-miterlimit:4;stroke-dasharray:none;stroke-opacity:0.19607843;paint-order:markers stroke fill"
         transform="rotate(45)" />
    </clipPath>
    <clipPath
       clipPathUnits="userSpaceOnUse"
       id="clipPath827-5-3-3">
      <rect
         ry="0.52915645"
         y="285.35831"
         x="0.52916664"
         height="9.5249939"
         width="15.875"
         id="rect829-3-6-6"
         style="opacity:1;fill:#5677fc;fill-opacity:1;stroke:none;stroke-width:0.25100571;stroke-miterlimit:4;stroke-dasharray:none;stroke-opacity:0.19607843;paint-order:markers stroke fill"
         transform="rotate(45)" />
    </clipPath>
  </defs>
  <sodipodi:namedview
     id="base"
     pagecolor="#ffffff"
     bordercolor="#666666"
     borderopacity="1.0"
     inkscape:pageopacity="0.0"
     inkscape:pageshadow="2"
     inkscape:zoom="22.4"
     inkscape:cx="19.451931"
     inkscape:cy="14.903765"
     inkscape:document-units="mm"
     inkscape:current-layer="layer1"
     showgrid="true"
     units="px"
     inkscape:window-width="1366"
     inkscape:window-height="711"
     inkscape:window-x="0"
     inkscape:window-y="27"
     inkscape:window-maximized="1">
    <inkscape:grid
       type="xygrid"
       id="grid3713" />
  </sodipodi:namedview>
  <metadata
     id="metadata5">
    <rdf:RDF>
      <cc:Work
         rdf:about="">
        <dc:format>image/svg+xml</dc:format>
        <dc:type
           rdf:resource="http://purl.org/dc/dcmitype/StillImage" />
        <dc:title></dc:title>
      </cc:Work>
    </rdf:RDF>
  </metadata>
  <g
     inkscape:label="Layer 1"
     inkscape:groupmode="layer"
     id="layer1"
     transform="translate(0,-288.5333)">
    <g
       id="g33">
      <path
         style="opacity:1;fill:#ffffff;fill-opacity:0.97647059;stroke:#000000;stroke-width:0.52916682;stroke-miterlimit:4;stroke-dasharray:none;stroke-opacity:0.2679739;paint-order:markers stroke fill"
         d="m 1.5876056,289.59163 c -0.1465705,0 -0.1322864,0.1323 -0.1322864,0.26458 H 0.92617366 c -0.13228638,0 -0.13228638,0 -0.13228638,0.1323 v 2.77812 c 0,0.14658 0.11799834,0.26459 0.26457272,0.26459 h 6.3497465 c 0.1465747,0 0.2645729,-0.11801 0.2645729,-0.26459 v -2.77812 c 0,-0.1323 0,-0.1323 -0.1322862,-0.1323 h -3.704019 c 0,-0.13228 0.014284,-0.26458 -0.1322863,-0.26458 z"
         id="rect4538-5"
         inkscape:connector-curvature="0"
         sodipodi:nodetypes="scsssssssscss" />
      <path
         sodipodi:nodetypes="scsssssssscss"
         inkscape:connector-curvature="0"
         id="path830"
         d="m 1.5875,289.59163 c -0.1465763,0 -0.1322917,0.13229 -0.1322917,0.26459 H 0.92604168 c -0.13229165,0 -0.13229165,0 -0.13229165,0.13229 v 2.77812 c 0,0.14659 0.11800305,0.26459 0.26458327,0.26459 h 6.3499998 c 0.1465806,0 0.2645835,-0.118 0.2645835,-0.26459 v -2.77812 c 0,-0.13229 0,-0.13229 -0.1322915,-0.13229 H 3.8364584 c 0,-0.1323 0.014284,-0.26459 -0.1322916,-0.26459 z"
         style="opacity:1;fill:#ffffff;fill-opacity:0.97647059;stroke:none;stroke-width:0.52916682;stroke-miterlimit:4;stroke-dasharray:none;stroke-opacity:0.2679739;paint-order:markers stroke fill" />
      <path
         id="rect822-6"
         d="m 4.2333333,290.6503 c -0.1465786,0 -0.1907228,0.13796 -0.2645792,0.26457 l -0.1542518,0.26456 -3.41756739,10e-6 c -0.1322896,0 -0.1322896,0.13227 -0.1322896,0.13227 v 4.49758 c 0,0.13228 0.1322896,0.13228 0.1322896,0.13228 H 8.0697314 c 0.13229,0 0.13229,-0.13228 0.13229,-0.13228 l -5e-7,-2.9102 v -1.4551 l 5e-7,-0.6614 c 0,-0.13228 -0.13229,-0.13228 -0.13229,-0.13228 z"
         style="opacity:1;fill:none;fill-opacity:1;stroke:#003779;stroke-width:0.52916664;stroke-miterlimit:4;stroke-dasharray:none;stroke-opacity:0.56078384;paint-order:markers stroke fill"
         inkscape:connector-curvature="0"
         sodipodi:nodetypes="sccscscscccccs" />
      <path
         sodipodi:nodetypes="sccscscscccccs"
         inkscape:connector-curvature="0"
         style="opacity:1;fill:#6ba4e7;fill-opacity:1;stroke:none;stroke-width:0.52916664;stroke-miterlimit:4;stroke-dasharray:none;stroke-opacity:0.56078384;paint-order:markers stroke fill"
         d="m 4.233333,290.64996 c -0.1465808,0 -0.1907257,0.13797 -0.2645832,0.26458 l -0.1542543,0.26458 -3.41762068,10e-6 c -0.13229166,0 -0.13229166,0.13229 -0.13229166,0.13229 v 4.49792 c 0,0.13229 0.13229166,0.13229 0.13229166,0.13229 H 8.0697915 c 0.132292,0 0.132292,-0.13229 0.132292,-0.13229 l -5e-7,-2.91042 v -1.45521 l 5e-7,-0.66145 c 0,-0.1323 -0.132292,-0.1323 -0.132292,-0.1323 z"
         id="path832" />
    </g>
    <g
       id="g6732"
       transform="matrix(0.26458333,0,0,0.26458333,-226.21875,229.26663)">
      <g
         transform="translate(812,233.5)"
         id="g3145">
        <ellipse
           ry="1.4999951"
           rx="1.4999944"
           cy="6"
           cx="62.5"
           style="opacity:0.15;fill:#000000;fill-opacity:1;stroke:#757575;stroke-width:0;stroke-linejoin:round;stroke-miterlimit:4;stroke-dasharray:none;stroke-dashoffset:0;stroke-opacity:1"
           id="path4232" />
        <ellipse
           ry="1.4999949"
           rx="1.4999944"
           cy="12"
           cx="62.5"
           style="display:inline;opacity:0.15;fill:#000000;fill-opacity:1;stroke:#575757;stroke-width:0;stroke-linejoin:round;stroke-miterlimit:4;stroke-dasharray:none;stroke-dashoffset:0;stroke-opacity:1"
           id="path4232-4" />
        <ellipse
           ry="1.4999948"
           rx="1.4999944"
           cy="9"
           cx="55.5"
           style="display:inline;opacity:0.15;fill:#000000;fill-opacity:1;stroke:#575757;stroke-width:0;stroke-linejoin:round;stroke-miterlimit:4;stroke-dasharray:none;stroke-dashoffset:0;stroke-opacity:1"
           id="path4232-4-9" />
        <path
           transform="translate(43,-9.5)"
           id="rect4389"
           d="m 19.5,13 c -1.380712,0 -2.5,1.119288 -2.5,2.5 0,0.167224 0.01751,0.33025 0.04883,0.488281 l -2.539062,1.03711 C 14.054737,16.406089 13.327417,16 12.5,16 11.119288,16 10,17.119288 10,18.5 c 0,1.380712 1.119288,2.5 2.5,2.5 0.830391,0 1.560972,-0.408157 2.015625,-1.03125 l 2.53125,1.066406 C 17.018425,21.1861 17,21.340789 17,21.5 c 0,1.380712 1.119288,2.5 2.5,2.5 1.380712,0 2.5,-1.119288 2.5,-2.5 0,-1.209447 -0.858924,-2.217549 -2,-2.449219 V 17.949219 C 21.141076,17.717549 22,16.709447 22,15.5 22,14.119288 20.880712,13 19.5,13 Z m 0,1 C 20.328427,14 21,14.671573 21,15.5 21,16.328427 20.328427,17 19.5,17 18.671573,17 18,16.328427 18,15.5 18,14.671573 18.671573,14 19.5,14 Z m -2.0625,2.910156 c 0.360392,0.52647 0.915111,0.907625 1.5625,1.039063 v 1.101562 c -0.655515,0.133088 -1.216259,0.521851 -1.576172,1.058594 L 14.931641,19.058594 C 14.972944,18.878345 15,18.692776 15,18.5 15,18.304399 14.97218,18.116262 14.92969,17.933594 Z M 12.5,17 C 13.328427,17 14,17.671573 14,18.5 14,19.328427 13.328427,20 12.5,20 11.671573,20 11,19.328427 11,18.5 11,17.671573 11.671573,17 12.5,17 Z m 7,3 C 20.328427,20 21,20.671573 21,21.5 21,22.328427 20.328427,23 19.5,23 18.671573,23 18,22.328427 18,21.5 18,20.671573 18.671573,20 19.5,20 Z"
           style="opacity:0.3;fill:#000000;fill-opacity:1;stroke:#000000;stroke-width:0;stroke-linejoin:round;stroke-miterlimit:4;stroke-dasharray:none;stroke-dashoffset:0;stroke-opacity:1"
           inkscape:connector-curvature="0" />
      </g>
    </g>
  </g>
</svg>
