<svg xmlns="http://www.w3.org/2000/svg" xmlns:xlink="http://www.w3.org/1999/xlink" width="64" height="64" viewBox="0 0 16.933 16.933"><defs><linearGradient id="a"><stop offset="0"/><stop offset="1" stop-opacity="0"/></linearGradient><clipPath clipPathUnits="userSpaceOnUse" id="b"><rect ry=".529" y="285.358" x=".529" height="9.525" width="15.875" transform="rotate(45)" fill="#5294e2" stroke-width=".251" stroke-opacity=".196" paint-order="markers stroke fill"/></clipPath><linearGradient xlink:href="#a" id="c" x1="-197.102" y1="217.681" x2="-196.914" y2="219.365" gradientUnits="userSpaceOnUse"/></defs><g transform="translate(0 -280.067)"><path d="M3.44 282.448c-.294 0-.395.269-.53.53H1.852c-.265 0-.265.264-.265.264v5.556c0 .293.237.53.53.53h12.7c.293 0 .529-.237.529-.53v-5.556c0-.265-.265-.265-.265-.265H7.673c-.155-.249-.236-.53-.53-.53z" fill="#6ba4e7" paint-order="markers stroke fill"/><path d="M3.44 282.448c-.294 0-.395.269-.53.53H1.852c-.265 0-.265.264-.265.264v5.556c0 .293.237.53.53.53h12.7c.293 0 .529-.237.529-.53v-5.556c0-.265-.265-.265-.265-.265H7.673c-.155-.249-.236-.53-.53-.53z" opacity=".18" paint-order="markers stroke fill"/><rect width="12.171" height="7.408" x="2.381" y="281.39" ry=".265" rx=".265" fill="none" stroke="#000" stroke-width=".529" stroke-opacity=".267" paint-order="markers stroke fill"/><rect ry=".265" y="281.39" x="2.381" height="7.408" width="12.171" rx=".265" fill="#fff" paint-order="markers stroke fill"/><rect ry=".265" y="285.623" x="4.233" height=".529" width="8.467" fill="#bbb" paint-order="stroke markers fill"/><rect width="8.467" height=".529" x="4.233" y="284.565" ry=".265" fill="#bbb" paint-order="stroke markers fill"/><path d="M8.467 285.094c-.293 0-.382.276-.53.529l-.463.794H.794c-.265 0-.265.264-.265.264v7.938s0 .264.265.264H16.14s.264 0 .264-.264v-9.261c0-.264-.264-.264-.264-.264z" fill="none" stroke="#003579" stroke-width=".52916" stroke-opacity=".561" paint-order="markers stroke fill"/><rect width="8.467" height=".529" x="4.233" y="282.448" ry=".265" fill="#bbb" paint-order="stroke markers fill"/><rect ry=".265" y="283.506" x="4.233" height=".529" width="8.467" fill="#bbb" paint-order="stroke markers fill"/><path d="M8.467 285.094c-.293 0-.382.276-.53.529l-.463.794H.794c-.265 0-.265.264-.265.264v7.938s0 .264.265.264H16.14s.264 0 .264-.264v-9.261c0-.264-.264-.264-.264-.264z" fill="#6ba4e7" paint-order="markers stroke fill"/><rect width="5.292" height="4.762" x="-199.587" y="217.868" ry=".132" transform="rotate(-45)" clip-path="url(#b)" opacity=".1" fill="url(#c)" paint-order="stroke markers fill"/></g></svg>