<?xml version="1.0" encoding="UTF-8" standalone="no"?>
<!-- Created with Inkscape (http://www.inkscape.org/) -->

<svg
   xmlns:dc="http://purl.org/dc/elements/1.1/"
   xmlns:cc="http://creativecommons.org/ns#"
   xmlns:rdf="http://www.w3.org/1999/02/22-rdf-syntax-ns#"
   xmlns:svg="http://www.w3.org/2000/svg"
   xmlns="http://www.w3.org/2000/svg"
   xmlns:sodipodi="http://sodipodi.sourceforge.net/DTD/sodipodi-0.dtd"
   xmlns:inkscape="http://www.inkscape.org/namespaces/inkscape"
   width="32"
   height="32"
   viewBox="0 0 8.4666665 8.466667"
   version="1.1"
   id="svg8"
   inkscape:version="0.92.4 (5da689c313, 2019-01-14)"
   sodipodi:docname="bookmarks.svg">
  <defs
     id="defs2">
    <clipPath
       clipPathUnits="userSpaceOnUse"
       id="clipPath827">
      <rect
         ry="0.52915645"
         y="285.35831"
         x="0.52916664"
         height="9.5249939"
         width="15.875"
         id="rect829"
         style="opacity:1;fill:#5294e2;fill-opacity:1;stroke:none;stroke-width:0.25100571;stroke-miterlimit:4;stroke-dasharray:none;stroke-opacity:0.19607843;paint-order:markers stroke fill"
         transform="rotate(45)" />
    </clipPath>
    <clipPath
       clipPathUnits="userSpaceOnUse"
       id="clipPath827-5">
      <rect
         ry="0.52915645"
         y="285.35831"
         x="0.52916664"
         height="9.5249939"
         width="15.875"
         id="rect829-3"
         style="opacity:1;fill:#5677fc;fill-opacity:1;stroke:none;stroke-width:0.25100571;stroke-miterlimit:4;stroke-dasharray:none;stroke-opacity:0.19607843;paint-order:markers stroke fill"
         transform="rotate(45)" />
    </clipPath>
    <clipPath
       clipPathUnits="userSpaceOnUse"
       id="clipPath827-5-3">
      <rect
         ry="0.52915645"
         y="285.35831"
         x="0.52916664"
         height="9.5249939"
         width="15.875"
         id="rect829-3-6"
         style="opacity:1;fill:#5677fc;fill-opacity:1;stroke:none;stroke-width:0.25100571;stroke-miterlimit:4;stroke-dasharray:none;stroke-opacity:0.19607843;paint-order:markers stroke fill"
         transform="rotate(45)" />
    </clipPath>
  </defs>
  <sodipodi:namedview
     id="base"
     pagecolor="#ffffff"
     bordercolor="#666666"
     borderopacity="1.0"
     inkscape:pageopacity="0.0"
     inkscape:pageshadow="2"
     inkscape:zoom="15.839192"
     inkscape:cx="19.082623"
     inkscape:cy="14.47665"
     inkscape:document-units="mm"
     inkscape:current-layer="layer1"
     showgrid="true"
     units="px"
     inkscape:window-width="1366"
     inkscape:window-height="711"
     inkscape:window-x="0"
     inkscape:window-y="27"
     inkscape:window-maximized="1"
     inkscape:snap-bbox="true"
     inkscape:snap-bbox-edge-midpoints="true"
     inkscape:snap-nodes="false">
    <inkscape:grid
       type="xygrid"
       id="grid3713" />
  </sodipodi:namedview>
  <metadata
     id="metadata5">
    <rdf:RDF>
      <cc:Work
         rdf:about="">
        <dc:format>image/svg+xml</dc:format>
        <dc:type
           rdf:resource="http://purl.org/dc/dcmitype/StillImage" />
        <dc:title></dc:title>
      </cc:Work>
    </rdf:RDF>
  </metadata>
  <g
     inkscape:label="Layer 1"
     inkscape:groupmode="layer"
     id="layer1"
     transform="translate(0,-288.5333)">
    <g
       id="g33">
      <path
         style="opacity:1;fill:#ffffff;fill-opacity:0.97647059;stroke:#000000;stroke-width:0.52916682;stroke-miterlimit:4;stroke-dasharray:none;stroke-opacity:0.2679739;paint-order:markers stroke fill"
         d="m 1.5876056,289.59163 c -0.1465705,0 -0.1322864,0.1323 -0.1322864,0.26458 H 0.92617366 c -0.13228638,0 -0.13228638,0 -0.13228638,0.1323 v 2.77812 c 0,0.14658 0.11799834,0.26459 0.26457272,0.26459 h 6.3497465 c 0.1465747,0 0.2645729,-0.11801 0.2645729,-0.26459 v -2.77812 c 0,-0.1323 0,-0.1323 -0.1322862,-0.1323 h -3.704019 c 0,-0.13228 0.014284,-0.26458 -0.1322863,-0.26458 z"
         id="rect4538-5"
         inkscape:connector-curvature="0"
         sodipodi:nodetypes="scsssssssscss" />
      <path
         sodipodi:nodetypes="scsssssssscss"
         inkscape:connector-curvature="0"
         id="path830"
         d="m 1.5875,289.59163 c -0.1465763,0 -0.1322917,0.13229 -0.1322917,0.26459 H 0.92604168 c -0.13229165,0 -0.13229165,0 -0.13229165,0.13229 v 2.77812 c 0,0.14659 0.11800305,0.26459 0.26458327,0.26459 h 6.3499998 c 0.1465806,0 0.2645835,-0.118 0.2645835,-0.26459 v -2.77812 c 0,-0.13229 0,-0.13229 -0.1322915,-0.13229 H 3.8364584 c 0,-0.1323 0.014284,-0.26459 -0.1322916,-0.26459 z"
         style="opacity:1;fill:#ffffff;fill-opacity:0.97647059;stroke:none;stroke-width:0.52916682;stroke-miterlimit:4;stroke-dasharray:none;stroke-opacity:0.2679739;paint-order:markers stroke fill" />
      <path
         id="rect822-6"
         d="m 4.2333333,290.6503 c -0.1465786,0 -0.1907228,0.13796 -0.2645792,0.26457 l -0.1542518,0.26456 -3.41756739,10e-6 c -0.1322896,0 -0.1322896,0.13227 -0.1322896,0.13227 v 4.49758 c 0,0.13228 0.1322896,0.13228 0.1322896,0.13228 H 8.0697314 c 0.13229,0 0.13229,-0.13228 0.13229,-0.13228 l -5e-7,-2.9102 v -1.4551 l 5e-7,-0.6614 c 0,-0.13228 -0.13229,-0.13228 -0.13229,-0.13228 z"
         style="opacity:1;fill:none;fill-opacity:1;stroke:#003779;stroke-width:0.52916664;stroke-miterlimit:4;stroke-dasharray:none;stroke-opacity:0.56078384;paint-order:markers stroke fill"
         inkscape:connector-curvature="0"
         sodipodi:nodetypes="sccscscscccccs" />
      <path
         sodipodi:nodetypes="sccscscscccccs"
         inkscape:connector-curvature="0"
         style="opacity:1;fill:#6ba4e7;fill-opacity:1;stroke:none;stroke-width:0.52916664;stroke-miterlimit:4;stroke-dasharray:none;stroke-opacity:0.56078384;paint-order:markers stroke fill"
         d="m 4.233333,290.64996 c -0.1465808,0 -0.1907257,0.13797 -0.2645832,0.26458 l -0.1542543,0.26458 -3.41762068,10e-6 c -0.13229166,0 -0.13229166,0.13229 -0.13229166,0.13229 v 4.49792 c 0,0.13229 0.13229166,0.13229 0.13229166,0.13229 H 8.0697915 c 0.132292,0 0.132292,-0.13229 0.132292,-0.13229 l -5e-7,-2.91042 v -1.45521 l 5e-7,-0.66145 c 0,-0.1323 -0.132292,-0.1323 -0.132292,-0.1323 z"
         id="path832" />
    </g>
    <g
       id="g52"
       transform="translate(-12.964587,2.7782721)">
      <path
         sodipodi:nodetypes="ccccccccccc"
         inkscape:connector-curvature="0"
         id="path3092-8-0"
         d="m 18.190108,291.97259 -0.992003,-0.52128 -0.991975,0.52144 0.330332,-0.99227 -0.859896,-0.7276 h 1.058333 l 0.463021,-1.05834 0.463021,1.05834 h 1.058333 l -0.859895,0.7276 z"
         inkscape:transform-center-y="-0.84427813"
         inkscape:transform-center-x="0.00029759694"
         style="display:inline;opacity:0.3;fill:none;fill-opacity:1;stroke:#000000;stroke-width:0.26458332;stroke-linecap:round;stroke-linejoin:round;stroke-miterlimit:4;stroke-dashoffset:0;stroke-opacity:1" />
      <path
         inkscape:connector-curvature="0"
         id="path3092-8-0-4"
         d="m 17.19792,289.5253 -0.341577,0.78084 a 0.1323049,0.1323049 0 0 1 -0.121444,0.079 h -0.697626 l 0.584464,0.49454 a 0.1323049,0.1323049 0 0 1 0.0403,0.14263 l -0.226351,0.68059 0.700749,-0.36899 a 0.1323049,0.1323049 0 0 1 0.122978,0 l 0.701252,0.36846 -0.226854,-0.68006 a 0.1323049,0.1323049 0 0 1 0.0403,-0.14263 l 0.584465,-0.49454 h -0.697627 a 0.1323049,0.1323049 0 0 1 -0.121444,-0.079 z"
         style="display:inline;opacity:0.15;fill:#000000;fill-opacity:1;stroke:none;stroke-width:0.26458332;stroke-linecap:round;stroke-linejoin:round;stroke-miterlimit:4;stroke-dashoffset:0;stroke-opacity:1" />
    </g>
  </g>
</svg>
