<svg xmlns="http://www.w3.org/2000/svg" xmlns:xlink="http://www.w3.org/1999/xlink" width="48" height="48" viewBox="0 0 12.7 12.7"><defs><linearGradient xlink:href="#a" id="c" x1="-197.102" y1="217.681" x2="-196.914" y2="219.365" gradientUnits="userSpaceOnUse"/><linearGradient id="a"><stop offset="0"/><stop offset="1" stop-opacity="0"/></linearGradient><clipPath clipPathUnits="userSpaceOnUse" id="b"><rect ry=".529" y="285.358" x=".529" height="9.525" width="15.875" transform="rotate(45)" fill="#5677fc" stroke-width=".251" stroke-opacity=".196" paint-order="markers stroke fill"/></clipPath></defs><g transform="translate(0 -284.3)"><path d="M2.381 285.887s-.264 0-.264.265v.265h-.794s-.265-.002-.265.262v4.09c0 .226.182.408.407.408h9.77a.406.406 0 0 0 .407-.407v-4.089c0-.264-.265-.264-.265-.264H5.821v-.265c0-.265-.265-.265-.265-.265z" fill="#fff" fill-opacity=".976" stroke="#000" stroke-width=".529" stroke-opacity=".267" paint-order="markers stroke fill"/><path d="M2.381 285.887s-.264 0-.264.265v.265h-.794s-.265-.002-.265.262v4.09c0 .226.182.408.407.408h9.77a.406.406 0 0 0 .407-.407v-4.089c0-.264-.265-.264-.265-.264H5.821v-.265c0-.265-.265-.265-.265-.265z" fill="#fff" fill-opacity=".976" paint-order="markers stroke fill"/><path d="M6.35 287.208c-.225 0-.292.212-.406.406l-.236.388H.529c-.264 0-.264.265-.264.265v6.88c0 .265.264.265.264.265h11.642c.264 0 .264-.264.264-.264v-7.673c0-.265-.264-.265-.264-.265z" fill="#6ba4e7" stroke="#003579" stroke-width=".529" stroke-opacity=".561" paint-order="markers stroke fill"/><path d="M6.35 287.208c-.225 0-.292.212-.406.406l-.236.388H.529c-.264 0-.264.265-.264.265v6.88c0 .265.264.265.264.265h11.642c.264 0 .264-.264.264-.264v-7.673c0-.265-.264-.265-.264-.265z" fill="#6ba4e7" paint-order="markers stroke fill"/><rect clip-path="url(#b)" transform="scale(.76667) rotate(-45 109.079 45.442)" ry=".132" y="217.868" x="-199.587" height="4.762" width="5.292" opacity=".1" fill="url(#c)" paint-order="stroke markers fill"/></g><g fill="#5b8cc5" paint-order="stroke markers fill"><path d="M6.077 5.292v.64a1.502 1.502 0 0 0-.578.239l-.452-.453-.387.387.453.453a1.502 1.502 0 0 0-.24.577h-.64v.547h.641a1.502 1.502 0 0 0 .238.578l-.452.452.387.386.453-.453a1.502 1.502 0 0 0 .577.24v.64h.546v-.64a1.502 1.502 0 0 0 .578-.239l.452.452.387-.386-.453-.454a1.502 1.502 0 0 0 .24-.576h.64v-.547h-.641a1.502 1.502 0 0 0-.238-.578l.452-.452-.387-.387-.453.454a1.502 1.502 0 0 0-.577-.24v-.64zm.273 1.297a.82.82 0 0 1 .82.82.82.82 0 0 1-.82.819.82.82 0 0 1-.82-.82.82.82 0 0 1 .82-.819z" opacity=".35" stroke="#000" stroke-width=".529"/><path d="M6.077 5.292v.64a1.502 1.502 0 0 0-.578.239l-.452-.453-.387.387.453.453a1.502 1.502 0 0 0-.24.577h-.64v.547h.641a1.502 1.502 0 0 0 .238.578l-.452.452.387.386.453-.453a1.502 1.502 0 0 0 .577.24v.64h.546v-.64a1.502 1.502 0 0 0 .578-.239l.452.452.387-.386-.453-.454a1.502 1.502 0 0 0 .24-.576h.64v-.547h-.641a1.502 1.502 0 0 0-.238-.578l.452-.452-.387-.387-.453.454a1.502 1.502 0 0 0-.577-.24v-.64zm.273 1.297a.82.82 0 0 1 .82.82.82.82 0 0 1-.82.819.82.82 0 0 1-.82-.82.82.82 0 0 1 .82-.819z"/></g></svg>