<svg xmlns="http://www.w3.org/2000/svg" xmlns:xlink="http://www.w3.org/1999/xlink" width="48" height="48" viewBox="0 0 12.7 12.7"><defs><linearGradient xlink:href="#a" id="c" x1="-197.102" y1="217.681" x2="-196.914" y2="219.365" gradientUnits="userSpaceOnUse"/><linearGradient id="a"><stop offset="0"/><stop offset="1" stop-opacity="0"/></linearGradient><clipPath clipPathUnits="userSpaceOnUse" id="b"><rect ry=".529" y="285.358" x=".529" height="9.525" width="15.875" transform="rotate(45)" fill="#5677fc" stroke-width=".251" stroke-opacity=".196" paint-order="markers stroke fill"/></clipPath></defs><g transform="translate(0 -284.3)"><path d="M2.381 285.887s-.264 0-.264.265v.265h-.794s-.265-.002-.265.262v4.09c0 .226.182.408.407.408h9.77a.406.406 0 0 0 .407-.407v-4.089c0-.264-.265-.264-.265-.264H5.821v-.265c0-.265-.265-.265-.265-.265z" fill="#fff" fill-opacity=".976" stroke="#000" stroke-width=".529" stroke-opacity=".267" paint-order="markers stroke fill"/><path d="M2.381 285.887s-.264 0-.264.265v.265h-.794s-.265-.002-.265.262v4.09c0 .226.182.408.407.408h9.77a.406.406 0 0 0 .407-.407v-4.089c0-.264-.265-.264-.265-.264H5.821v-.265c0-.265-.265-.265-.265-.265z" fill="#fff" fill-opacity=".976" paint-order="markers stroke fill"/><path d="M6.35 287.208c-.225 0-.292.212-.406.406l-.236.388H.529c-.264 0-.264.265-.264.265v6.88c0 .265.264.265.264.265h11.642c.264 0 .264-.264.264-.264v-7.673c0-.265-.264-.265-.264-.265z" fill="#6ba4e7" stroke="#003579" stroke-width=".529" stroke-opacity=".561" paint-order="markers stroke fill"/><path d="M6.35 287.208c-.225 0-.292.212-.406.406l-.236.388H.529c-.264 0-.264.265-.264.265v6.88c0 .265.264.265.264.265h11.642c.264 0 .264-.264.264-.264v-7.673c0-.265-.264-.265-.264-.265z" fill="#6ba4e7" paint-order="markers stroke fill"/><rect clip-path="url(#b)" transform="scale(.76667) rotate(-45 109.079 45.442)" ry=".132" y="217.868" x="-199.587" height="4.762" width="5.292" opacity=".1" fill="url(#c)" paint-order="stroke markers fill"/></g><g transform="matrix(.26458 0 0 .26458 -1.058 -8.467)"><circle cx="25" cy="60" r="2" opacity=".15"/><ellipse cx="31" cy="66" rx="2" ry="2" opacity=".15"/><ellipse cx="31" cy="54" rx="2" ry="2" opacity=".15"/></g><path d="M7.144 5.027a.794.794 0 0 0-.794.794c0 .122.03.236.08.34l-.534.533a.786.786 0 0 0-.34-.08.794.794 0 0 0 0 1.588c.122 0 .237-.03.34-.08l.534.534a.786.786 0 0 0-.08.34.794.794 0 1 0 .794-.794.786.786 0 0 0-.34.08l-.534-.534a.786.786 0 0 0 .08-.34.786.786 0 0 0-.08-.34l.534-.533c.103.05.218.08.34.08a.794.794 0 0 0 0-1.588zm0 .265a.53.53 0 1 1 0 1.058.53.53 0 0 1 0-1.058zM5.556 6.879a.53.53 0 1 1 0 1.058.53.53 0 0 1 0-1.058zm1.588 1.588a.53.53 0 1 1 0 1.058.53.53 0 0 1 0-1.058z" opacity=".3"/></svg>