<svg width="48" height="48" version="1.1" viewBox="0 0 12.7 12.7" xmlns="http://www.w3.org/2000/svg" xmlns:xlink="http://www.w3.org/1999/xlink">
 <defs>
  <clipPath id="b">
   <rect transform="rotate(45)" x=".529" y="285.36" width="15.875" height="9.525" ry=".529" fill="#5294e2" stroke-opacity=".196" stroke-width=".251" paint-order="markers stroke fill"/>
  </clipPath>
  <linearGradient id="c" x1="-197.1" x2="-196.91" y1="217.68" y2="219.36" gradientUnits="userSpaceOnUse">
   <stop offset="0"/>
   <stop stop-opacity="0" offset="1"/>
  </linearGradient>
 </defs>
 <g transform="translate(0 -284.3)">
  <path d="M2.524 285.887c-.226 0-.304.33-.407.53h-.794c-.265 0-.265.264-.265.264v4.091c0 .226.182.407.407.407h9.77a.406.406 0 0 0 .407-.407v-4.09c0-.265-.265-.265-.265-.265h-5.82c-.12-.192-.182-.53-.408-.53z" fill="#fff" stroke="#000" stroke-opacity=".255" stroke-width=".529" paint-order="markers stroke fill"/>
  <path d="M2.524 285.887c-.226 0-.304.33-.407.53h-.794c-.265 0-.265.264-.265.264v4.091c0 .226.182.407.407.407h9.77a.406.406 0 0 0 .407-.407v-4.09c0-.265-.265-.265-.265-.265h-5.82c-.12-.192-.182-.53-.408-.53z" fill="#fff" paint-order="markers stroke fill"/>
  <path d="M6.35 289.062c-.265 0-.359.511-.524.794H.529c-.264 0-.264.265-.264.265v5.027s0 .264.264.264h11.642s.264 0 .264-.264v-5.821c0-.265-.264-.265-.264-.265z" fill="#5294e2" stroke="#003479" stroke-opacity=".561" stroke-width=".529" paint-order="markers stroke fill"/>
  <path d="M6.35 289.062c-.265 0-.359.511-.524.794H.529c-.264 0-.264.265-.264.265v5.027s0 .264.264.264h11.642s.264 0 .264-.264v-5.821c0-.265-.264-.265-.264-.265z" fill="#6ba4e7" paint-order="markers stroke fill"/>
  <rect transform="scale(.76667) rotate(-45 109.08 45.444)" x="-199.59" y="217.87" width="5.292" height="4.762" ry=".132" clip-path="url(#b)" fill="url(#c)" opacity=".1" paint-order="stroke markers fill"/>
 </g>
</svg>
