<svg xmlns="http://www.w3.org/2000/svg" xmlns:xlink="http://www.w3.org/1999/xlink" width="48" height="48" viewBox="0 0 12.7 12.7"><defs><linearGradient id="a"><stop offset="0"/><stop offset="1" stop-opacity="0"/></linearGradient><linearGradient xlink:href="#a" id="c" gradientUnits="userSpaceOnUse" x1="-197.102" y1="217.681" x2="-196.914" y2="219.365"/><clipPath clipPathUnits="userSpaceOnUse" id="b"><rect ry=".529" y="285.358" x=".529" height="9.525" width="15.875" transform="rotate(45)" fill="#5294e2" stroke-width=".251" stroke-opacity=".196" paint-order="markers stroke fill"/></clipPath></defs><g transform="translate(0 -284.3)"><path d="M2.524 286.681c-.226 0-.304.33-.407.53H1.058c-.264 0-.264.264-.264.264v4.09c0 .226.181.408.407.408h10.298a.406.406 0 0 0 .407-.407v-4.091c0-.265-.264-.265-.264-.265H5.556c-.12-.19-.181-.529-.407-.529z" fill="#5886bd" paint-order="markers stroke fill"/><rect ry=".265" y="286.152" x="1.588" height="7.408" width="9.525" rx=".207" fill="#fff" stroke="#000" stroke-width=".529" stroke-opacity=".267" paint-order="markers stroke fill"/><rect rx=".207" width="9.525" height="7.408" x="1.588" y="286.152" ry=".265" fill="#fff" paint-order="markers stroke fill"/><path d="M6.35 289.062c-.265 0-.359.511-.524.794H.529c-.264 0-.264.265-.264.265v5.027s0 .264.264.264h11.642s.264 0 .264-.264v-5.821c0-.265-.264-.265-.264-.265z" fill="#5294e2" stroke="#003479" stroke-width=".529" stroke-opacity=".561" paint-order="markers stroke fill"/><rect ry="0" rx="0" y="289.062" x="2.646" height=".265" width="7.408" opacity=".25" paint-order="markers stroke fill"/><path d="M6.35 289.062c-.265 0-.359.511-.524.794H.529c-.264 0-.264.265-.264.265v5.027s0 .264.264.264h11.642s.264 0 .264-.264v-5.821c0-.265-.264-.265-.264-.265z" fill="#5294e2" paint-order="markers stroke fill"/><rect clip-path="url(#b)" transform="scale(.76667) rotate(-45 109.082 45.444)" ry=".132" y="217.868" x="-199.587" height="4.762" width="5.292" opacity=".1" fill="url(#c)" paint-order="stroke markers fill"/><rect width="7.408" height=".265" x="2.646" y="286.681" rx="0" ry="0" opacity=".25" paint-order="markers stroke fill"/><rect ry="0" rx="0" y="287.475" x="2.646" height=".265" width="7.408" opacity=".25" paint-order="markers stroke fill"/><rect width="7.408" height=".265" x="2.646" y="288.269" rx="0" ry="0" opacity=".25" paint-order="markers stroke fill"/></g></svg>