<?xml version="1.0" encoding="UTF-8" standalone="no"?>
<!-- Created with Inkscape (http://www.inkscape.org/) -->

<svg
   xmlns:dc="http://purl.org/dc/elements/1.1/"
   xmlns:cc="http://creativecommons.org/ns#"
   xmlns:rdf="http://www.w3.org/1999/02/22-rdf-syntax-ns#"
   xmlns:svg="http://www.w3.org/2000/svg"
   xmlns="http://www.w3.org/2000/svg"
   xmlns:xlink="http://www.w3.org/1999/xlink"
   xmlns:sodipodi="http://sodipodi.sourceforge.net/DTD/sodipodi-0.dtd"
   xmlns:inkscape="http://www.inkscape.org/namespaces/inkscape"
   width="48"
   height="48"
   viewBox="0 0 12.7 12.7"
   version="1.1"
   id="svg8"
   inkscape:version="0.92.4 (5da689c313, 2019-01-14)"
   sodipodi:docname="default-folder-open.svg">
  <defs
     id="defs2">
    <linearGradient
       inkscape:collect="always"
       id="linearGradient835">
      <stop
         style="stop-color:#000000;stop-opacity:1;"
         offset="0"
         id="stop831" />
      <stop
         style="stop-color:#000000;stop-opacity:0;"
         offset="1"
         id="stop833" />
    </linearGradient>
    <clipPath
       clipPathUnits="userSpaceOnUse"
       id="clipPath827">
      <rect
         ry="0.52915645"
         y="285.35831"
         x="0.52916664"
         height="9.5249939"
         width="15.875"
         id="rect829"
         style="opacity:1;fill:#5294e2;fill-opacity:1;stroke:none;stroke-width:0.25100571;stroke-miterlimit:4;stroke-dasharray:none;stroke-opacity:0.19607843;paint-order:markers stroke fill"
         transform="rotate(45)" />
    </clipPath>
    <clipPath
       clipPathUnits="userSpaceOnUse"
       id="clipPath827-5-3">
      <rect
         ry="0.52915645"
         y="285.35831"
         x="0.52916664"
         height="9.5249939"
         width="15.875"
         id="rect829-3-6"
         style="opacity:1;fill:#5677fc;fill-opacity:1;stroke:none;stroke-width:0.25100571;stroke-miterlimit:4;stroke-dasharray:none;stroke-opacity:0.19607843;paint-order:markers stroke fill"
         transform="rotate(45)" />
    </clipPath>
    <linearGradient
       inkscape:collect="always"
       xlink:href="#linearGradient835"
       id="linearGradient836"
       gradientUnits="userSpaceOnUse"
       x1="-197.10156"
       y1="217.68132"
       x2="-196.91447"
       y2="219.36513" />
  </defs>
  <sodipodi:namedview
     id="base"
     pagecolor="#ffffff"
     bordercolor="#666666"
     borderopacity="1.0"
     inkscape:pageopacity="0.0"
     inkscape:pageshadow="2"
     inkscape:zoom="11.2"
     inkscape:cx="23.107246"
     inkscape:cy="31.323255"
     inkscape:document-units="mm"
     inkscape:current-layer="layer1"
     showgrid="true"
     units="px"
     inkscape:window-width="1366"
     inkscape:window-height="710"
     inkscape:window-x="0"
     inkscape:window-y="0"
     inkscape:window-maximized="1"
     inkscape:snap-bbox="true"
     inkscape:snap-smooth-nodes="true"
     inkscape:snap-midpoints="true"
     inkscape:snap-object-midpoints="true"
     inkscape:snap-center="true"
     inkscape:bbox-nodes="true"
     inkscape:snap-nodes="true"
     inkscape:snap-bbox-edge-midpoints="true"
     inkscape:object-paths="true"
     inkscape:snap-intersection-paths="true">
    <inkscape:grid
       type="xygrid"
       id="grid3713" />
  </sodipodi:namedview>
  <metadata
     id="metadata5">
    <rdf:RDF>
      <cc:Work
         rdf:about="">
        <dc:format>image/svg+xml</dc:format>
        <dc:type
           rdf:resource="http://purl.org/dc/dcmitype/StillImage" />
        <dc:title></dc:title>
      </cc:Work>
    </rdf:RDF>
  </metadata>
  <g
     inkscape:label="Layer 1"
     inkscape:groupmode="layer"
     id="layer1"
     transform="translate(0,-284.29996)">
    <path
       inkscape:connector-curvature="0"
       id="path828"
       d="m 2.5237174,285.88746 c -0.2255016,0 -0.3033793,0.32891 -0.4070507,0.52917 l -0.79375,0 c -0.2645834,0 -0.2645834,0.26458 -0.2645834,0.26458 l 0,4.09086 c 0,0.22551 0.181543,0.40706 0.4070515,0.40706 h 9.7692302 c 0.225508,0 0.407051,-0.18155 0.407051,-0.40706 l 10e-7,-4.09086 c 0,-0.26458 -0.264584,-0.26458 -0.264584,-0.26458 H 5.55625 C 5.4367361,286.2254 5.3747007,285.88746 5.1491984,285.88746 Z"
       style="opacity:1;fill:#ffffff;fill-opacity:1;stroke:#000000;stroke-width:0.52916667;stroke-miterlimit:4;stroke-dasharray:none;stroke-opacity:0.25490198;paint-order:markers stroke fill"
       sodipodi:nodetypes="scscsssssccss" />
    <path
       sodipodi:nodetypes="scscsssssccss"
       style="opacity:1;fill:#ffffff;fill-opacity:1;stroke:none;stroke-width:0.52916667;stroke-miterlimit:4;stroke-dasharray:none;stroke-opacity:0.25490198;paint-order:markers stroke fill"
       d="m 2.5237174,285.88746 c -0.2255016,0 -0.3033793,0.32891 -0.4070507,0.52917 l -0.79375,0 c -0.2645834,0 -0.2645834,0.26458 -0.2645834,0.26458 l 0,4.09086 c 0,0.22551 0.181543,0.40706 0.4070515,0.40706 h 9.7692302 c 0.225508,0 0.407051,-0.18155 0.407051,-0.40706 l 10e-7,-4.09086 c 0,-0.26458 -0.264584,-0.26458 -0.264584,-0.26458 H 5.55625 C 5.4367361,286.2254 5.3747007,285.88746 5.1491984,285.88746 Z"
       id="path850"
       inkscape:connector-curvature="0" />
    <path
       id="path832"
       d="m 6.3499999,289.06246 c -0.2645832,0 -0.3587837,0.51058 -0.5241546,0.79375 H 0.52916667 c -0.26458334,0 -0.26458334,0.26458 -0.26458334,0.26458 v 5.02709 c 0,0 -2e-8,0.26458 0.26458334,0.26458 H 12.170833 c 0,0 0.264584,0 0.264584,-0.26458 v -5.82084 c 0,-0.26458 -0.264584,-0.26458 -0.264584,-0.26458 z"
       style="opacity:1;fill:#5294e2;fill-opacity:1;stroke:#003479;stroke-width:0.52916667;stroke-miterlimit:4;stroke-dasharray:none;stroke-opacity:0.56078434;paint-order:markers stroke fill"
       inkscape:connector-curvature="0"
       sodipodi:nodetypes="ccsccsccccc" />
    <path
       sodipodi:nodetypes="ccsccsccccc"
       inkscape:connector-curvature="0"
       style="opacity:1;fill:#5294e2;fill-opacity:1;stroke:none;stroke-width:0.52916667;stroke-miterlimit:4;stroke-dasharray:none;stroke-opacity:0.56078434;paint-order:markers stroke fill"
       d="m 6.3499999,289.06246 c -0.2645832,0 -0.3587837,0.51058 -0.5241546,0.79375 H 0.52916667 c -0.26458334,0 -0.26458334,0.26458 -0.26458334,0.26458 v 5.02709 c 0,0 -2e-8,0.26458 0.26458334,0.26458 H 12.170833 c 0,0 0.264584,0 0.264584,-0.26458 v -5.82084 c 0,-0.26458 -0.264584,-0.26458 -0.264584,-0.26458 z"
       id="path848" />
    <rect
       clip-path="url(#clipPath827)"
       transform="matrix(0.54211519,-0.54211519,0.54211519,0.54211519,-0.14111116,69.339674)"
       ry="0.13229166"
       y="217.86841"
       x="-199.58691"
       height="4.7624998"
       width="5.2916665"
       id="rect834"
       style="opacity:0.1;fill:url(#linearGradient836);fill-opacity:1;stroke:none;stroke-width:0.69021738;stroke-miterlimit:4;stroke-dasharray:none;stroke-opacity:0.03921569;paint-order:stroke markers fill" />
  </g>
</svg>
