<?xml version="1.0" encoding="UTF-8" standalone="no"?>
<!-- Created with Inkscape (http://www.inkscape.org/) -->

<svg
   xmlns:dc="http://purl.org/dc/elements/1.1/"
   xmlns:cc="http://creativecommons.org/ns#"
   xmlns:rdf="http://www.w3.org/1999/02/22-rdf-syntax-ns#"
   xmlns:svg="http://www.w3.org/2000/svg"
   xmlns="http://www.w3.org/2000/svg"
   xmlns:xlink="http://www.w3.org/1999/xlink"
   xmlns:sodipodi="http://sodipodi.sourceforge.net/DTD/sodipodi-0.dtd"
   xmlns:inkscape="http://www.inkscape.org/namespaces/inkscape"
   width="48"
   height="48"
   viewBox="0 0 12.7 12.7"
   version="1.1"
   id="svg8"
   inkscape:version="0.92.4 (5da689c313, 2019-01-14)"
   sodipodi:docname="default-folder.svg">
  <defs
     id="defs2">
    <clipPath
       clipPathUnits="userSpaceOnUse"
       id="clipPath827">
      <rect
         ry="0.52915645"
         y="285.35831"
         x="0.52916664"
         height="9.5249939"
         width="15.875"
         id="rect829"
         style="opacity:1;fill:#5294e2;fill-opacity:1;stroke:none;stroke-width:0.25100571;stroke-miterlimit:4;stroke-dasharray:none;stroke-opacity:0.19607843;paint-order:markers stroke fill"
         transform="rotate(45)" />
    </clipPath>
    <clipPath
       clipPathUnits="userSpaceOnUse"
       id="clipPath827-5">
      <rect
         ry="0.52915645"
         y="285.35831"
         x="0.52916664"
         height="9.5249939"
         width="15.875"
         id="rect829-3"
         style="opacity:1;fill:#5677fc;fill-opacity:1;stroke:none;stroke-width:0.25100571;stroke-miterlimit:4;stroke-dasharray:none;stroke-opacity:0.19607843;paint-order:markers stroke fill"
         transform="rotate(45)" />
    </clipPath>
    <linearGradient
       inkscape:collect="always"
       xlink:href="#linearGradient835"
       id="linearGradient837-3"
       x1="-197.10156"
       y1="217.68132"
       x2="-196.91447"
       y2="219.36513"
       gradientUnits="userSpaceOnUse" />
    <linearGradient
       inkscape:collect="always"
       id="linearGradient835">
      <stop
         style="stop-color:#000000;stop-opacity:1;"
         offset="0"
         id="stop831" />
      <stop
         style="stop-color:#000000;stop-opacity:0;"
         offset="1"
         id="stop833" />
    </linearGradient>
    <clipPath
       clipPathUnits="userSpaceOnUse"
       id="clipPath827-5-3">
      <rect
         ry="0.52915645"
         y="285.35831"
         x="0.52916664"
         height="9.5249939"
         width="15.875"
         id="rect829-3-6"
         style="opacity:1;fill:#5677fc;fill-opacity:1;stroke:none;stroke-width:0.25100571;stroke-miterlimit:4;stroke-dasharray:none;stroke-opacity:0.19607843;paint-order:markers stroke fill"
         transform="rotate(45)" />
    </clipPath>
    <clipPath
       clipPathUnits="userSpaceOnUse"
       id="clipPath827-5-3-5">
      <rect
         ry="0.52915645"
         y="285.35831"
         x="0.52916664"
         height="9.5249939"
         width="15.875"
         id="rect829-3-6-3"
         style="opacity:1;fill:#5677fc;fill-opacity:1;stroke:none;stroke-width:0.25100571;stroke-miterlimit:4;stroke-dasharray:none;stroke-opacity:0.19607843;paint-order:markers stroke fill"
         transform="rotate(45)" />
    </clipPath>
    <clipPath
       clipPathUnits="userSpaceOnUse"
       id="clipPath827-5-3-7">
      <rect
         ry="0.52915645"
         y="285.35831"
         x="0.52916664"
         height="9.5249939"
         width="15.875"
         id="rect829-3-6-0"
         style="opacity:1;fill:#5677fc;fill-opacity:1;stroke:none;stroke-width:0.25100571;stroke-miterlimit:4;stroke-dasharray:none;stroke-opacity:0.19607843;paint-order:markers stroke fill"
         transform="rotate(45)" />
    </clipPath>
  </defs>
  <sodipodi:namedview
     id="base"
     pagecolor="#ffffff"
     bordercolor="#666666"
     borderopacity="1.0"
     inkscape:pageopacity="0.0"
     inkscape:pageshadow="2"
     inkscape:zoom="11.313708"
     inkscape:cx="7.6432177"
     inkscape:cy="31.968088"
     inkscape:document-units="mm"
     inkscape:current-layer="layer1"
     showgrid="true"
     units="px"
     inkscape:window-width="1366"
     inkscape:window-height="710"
     inkscape:window-x="0"
     inkscape:window-y="0"
     inkscape:window-maximized="1"
     inkscape:snap-bbox="false"
     inkscape:bbox-nodes="true"
     inkscape:object-paths="true"
     inkscape:snap-intersection-paths="true"
     inkscape:snap-smooth-nodes="true"
     inkscape:snap-object-midpoints="true"
     inkscape:bbox-paths="true"
     inkscape:snap-bbox-edge-midpoints="true"
     inkscape:snap-bbox-midpoints="true"
     inkscape:snap-nodes="true"
     inkscape:snap-global="true"
     inkscape:snap-midpoints="true">
    <inkscape:grid
       type="xygrid"
       id="grid3713" />
  </sodipodi:namedview>
  <metadata
     id="metadata5">
    <rdf:RDF>
      <cc:Work
         rdf:about="">
        <dc:format>image/svg+xml</dc:format>
        <dc:type
           rdf:resource="http://purl.org/dc/dcmitype/StillImage" />
        <dc:title />
      </cc:Work>
    </rdf:RDF>
  </metadata>
  <g
     inkscape:label="Layer 1"
     inkscape:groupmode="layer"
     id="layer1"
     transform="translate(0,-284.29996)">
    <g
       id="g908">
      <path
         sodipodi:nodetypes="cccccsssssccccc"
         inkscape:connector-curvature="0"
         id="path830"
         d="m 2.38125,285.88746 c 0,0 -0.2645834,-10e-6 -0.2645834,0.26458 l 1e-7,0.26459 h -0.79375 c 0,0 -0.2645836,-0.002 -0.2645836,0.26233 v 4.09087 c 0,0.22551 0.1815432,0.40706 0.4070513,0.40706 h 9.7692316 c 0.225508,0 0.407051,-0.18154 0.407051,-0.40706 l 0,-4.08862 c 0,-0.26458 -0.264584,-0.26458 -0.264584,-0.26458 H 5.8208333 l 0,-0.26459 c 0,-0.26459 -0.2645833,-0.26458 -0.2645833,-0.26458 z"
         style="opacity:1;fill:#ffffff;fill-opacity:0.97647059;stroke:#000000;stroke-width:0.5291667;stroke-miterlimit:4;stroke-dasharray:none;stroke-opacity:0.26666667;paint-order:markers stroke fill" />
      <path
         style="opacity:1;fill:#ffffff;fill-opacity:0.97647059;stroke:none;stroke-width:0.5291667;stroke-miterlimit:4;stroke-dasharray:none;stroke-opacity:0.26666667;paint-order:markers stroke fill"
         d="m 2.38125,285.88746 c 0,0 -0.2645834,-10e-6 -0.2645834,0.26458 l 1e-7,0.26459 h -0.79375 c 0,0 -0.2645836,-0.002 -0.2645836,0.26233 v 4.09087 c 0,0.22551 0.1815432,0.40706 0.4070513,0.40706 h 9.7692316 c 0.225508,0 0.407051,-0.18154 0.407051,-0.40706 l 0,-4.08862 c 0,-0.26458 -0.264584,-0.26458 -0.264584,-0.26458 H 5.8208333 l 0,-0.26459 c 0,-0.26459 -0.2645833,-0.26458 -0.2645833,-0.26458 z"
         id="path833"
         inkscape:connector-curvature="0"
         sodipodi:nodetypes="cccccsssssccccc" />
      <path
         sodipodi:nodetypes="sccscscscccccs"
         inkscape:connector-curvature="0"
         style="opacity:1;fill:#6ba4e7;fill-opacity:1;stroke:#003579;stroke-width:0.5291667;stroke-miterlimit:4;stroke-dasharray:none;stroke-opacity:0.56078384;paint-order:markers stroke fill"
         d="m 6.3499996,287.20816 c -0.2247573,-9e-5 -0.2924462,0.21155 -0.4056944,0.40571 l -0.2365231,0.38806 H 0.5291665 c -0.26458317,0 -0.26458334,0.26458 -0.26458334,0.26458 l 1.7e-7,6.88137 c 10e-9,0.26458 0.26458334,0.26458 0.26458334,0.26458 H 12.170833 c 0.264584,0 0.264584,-0.26458 0.264584,-0.26458 l -10e-7,-4.39871 v -2.23132 l 10e-7,-1.04289 c 0,-0.26458 -0.264584,-0.26458 -0.264584,-0.26458 z"
         id="path832" />
      <path
         id="path902"
         d="m 6.3499996,287.20816 c -0.2247573,-9e-5 -0.2924462,0.21155 -0.4056944,0.40571 l -0.2365231,0.38806 H 0.5291665 c -0.26458317,0 -0.26458334,0.26458 -0.26458334,0.26458 l 1.7e-7,6.88137 c 10e-9,0.26458 0.26458334,0.26458 0.26458334,0.26458 H 12.170833 c 0.264584,0 0.264584,-0.26458 0.264584,-0.26458 l -10e-7,-4.39871 v -2.23132 l 10e-7,-1.04289 c 0,-0.26458 -0.264584,-0.26458 -0.264584,-0.26458 z"
         style="opacity:1;fill:#6ba4e7;fill-opacity:1;stroke:none;stroke-width:0.5291667;stroke-miterlimit:4;stroke-dasharray:none;stroke-opacity:0.56078384;paint-order:markers stroke fill"
         inkscape:connector-curvature="0"
         sodipodi:nodetypes="sccscscscccccs" />
      <rect
         clip-path="url(#clipPath827-5-3)"
         transform="matrix(0.54211519,-0.54211519,0.54211519,0.54211519,-0.14111129,69.337466)"
         ry="0.13229166"
         y="217.86841"
         x="-199.58691"
         height="4.7624998"
         width="5.2916665"
         id="rect819-2"
         style="opacity:0.1;fill:url(#linearGradient837-3);fill-opacity:1;stroke:none;stroke-width:0.69021738;stroke-miterlimit:4;stroke-dasharray:none;stroke-opacity:0.03921569;paint-order:stroke markers fill" />
    </g>
  </g>
</svg>
