<svg xmlns="http://www.w3.org/2000/svg" xmlns:xlink="http://www.w3.org/1999/xlink" width="48" height="48" viewBox="0 0 12.7 12.7"><defs><linearGradient id="b"><stop offset="0" stop-color="#66bcff"/><stop offset="1" stop-color="#b29aff"/></linearGradient><clipPath clipPathUnits="userSpaceOnUse" id="c"><rect ry=".265" y="282.448" x="1.058" height="12.171" width="14.817" fill="url(#a)" stroke-width=".535" stroke-opacity=".039" paint-order="stroke markers fill"/></clipPath><linearGradient xlink:href="#b" id="a" gradientUnits="userSpaceOnUse" x1="13.229" y1="297" x2="2.117" y2="280.067"/></defs><g transform="translate(0 -284.3)"><rect ry=".265" y="282.712" x="33.338" height="12.171" width="15.875" fill="none" stroke="#262a2f" stroke-width=".529" stroke-opacity=".784" paint-order="markers stroke fill"/><rect width="12.7" height="9.525" y="285.888" ry=".265" rx=".265" fill="#636a78" paint-order="markers stroke fill"/><path d="M.265 285.887a.264.264 0 0 0-.265.265v.794h12.7v-.794a.264.264 0 0 0-.265-.265H.265z" fill="#4a4f59" paint-order="markers stroke fill"/><rect width=".529" height=".529" x="11.642" y="286.152" ry=".265" opacity=".8" fill="#fff" paint-order="stroke markers fill"/><rect ry=".265" y="286.152" x="10.319" height=".529" width="1.058" rx=".265" opacity=".35" paint-order="stroke markers fill"/><rect width=".529" height=".529" x="9.525" y="286.152" ry=".265" opacity=".35" paint-order="stroke markers fill"/><rect width="10.054" height="2.646" x="3.44" y="293.56" ry=".353" clip-path="url(#c)" transform="matrix(.78947 0 0 .75001 -.334 74.444)" rx=".335" opacity=".15" fill="#fff" paint-order="stroke markers fill"/><rect width="1.058" height="1.058" x="3.44" y="294.09" ry="0" rx="0" fill="#999ea7" paint-order="stroke markers fill"/><rect rx="0" ry="0" y="294.09" x="5.027" height="1.058" width="1.058" fill="#999ea7" paint-order="stroke markers fill"/><rect width="1.058" height="1.058" x="6.615" y="294.09" ry="0" rx="0" fill="#999ea7" paint-order="stroke markers fill"/><rect rx="0" ry="0" y="294.09" x="8.202" height="1.058" width="1.058" fill="#999ea7" paint-order="stroke markers fill"/><rect rx=".265" width="3.175" height=".529" x="4.762" y="286.152" ry=".265" opacity=".35" paint-order="stroke markers fill"/><rect rx=".265" width="1.058" height=".529" x=".529" y="286.152" ry=".265" opacity=".35" paint-order="stroke markers fill"/></g></svg>