<?xml version="1.0" encoding="UTF-8" standalone="no"?>
<svg
   xmlns:dc="http://purl.org/dc/elements/1.1/"
   xmlns:cc="http://creativecommons.org/ns#"
   xmlns:rdf="http://www.w3.org/1999/02/22-rdf-syntax-ns#"
   xmlns:svg="http://www.w3.org/2000/svg"
   xmlns="http://www.w3.org/2000/svg"
   xmlns:xlink="http://www.w3.org/1999/xlink"
   xmlns:sodipodi="http://sodipodi.sourceforge.net/DTD/sodipodi-0.dtd"
   xmlns:inkscape="http://www.inkscape.org/namespaces/inkscape"
   width="48"
   viewBox="0 0 48 48"
   height="48"
   id="svg2"
   version="1.1"
   inkscape:version="0.92.4 (5da689c313, 2019-01-14)"
   sodipodi:docname="user-trash.svg">
  <metadata
     id="metadata20">
    <rdf:RDF>
      <cc:Work
         rdf:about="">
        <dc:format>image/svg+xml</dc:format>
        <dc:type
           rdf:resource="http://purl.org/dc/dcmitype/StillImage" />
        <dc:title></dc:title>
      </cc:Work>
    </rdf:RDF>
  </metadata>
  <defs
     id="defs18">
    <linearGradient
       gradientUnits="userSpaceOnUse"
       y2="30"
       x2="20"
       y1="15"
       x1="22"
       id="linearGradient3862"
       xlink:href="#linearGradient3855"
       inkscape:collect="always" />
    <linearGradient
       y2="26"
       x2="20"
       y1="14"
       x1="21"
       gradientUnits="userSpaceOnUse"
       id="linearGradient3839"
       xlink:href="#linearGradient3833"
       inkscape:collect="always" />
    <linearGradient
       gradientUnits="userSpaceOnUse"
       y2="24"
       x2="20"
       y1="14"
       x1="21"
       id="linearGradient3829"
       xlink:href="#linearGradient3823"
       inkscape:collect="always" />
    <linearGradient
       gradientTransform="translate(22,1004.3622)"
       gradientUnits="userSpaceOnUse"
       y2="5"
       x2="44"
       y1="11"
       x1="35"
       id="linearGradient3954"
       xlink:href="#linearGradient3915"
       inkscape:collect="always" />
    <linearGradient
       gradientTransform="matrix(1.0436562,0,0,1.2222222,26.301501,1003.2511)"
       y2="5"
       x2="38"
       y1="8"
       x1="35"
       gradientUnits="userSpaceOnUse"
       id="linearGradient3933"
       xlink:href="#linearGradient3915"
       inkscape:collect="always" />
    <linearGradient
       gradientUnits="userSpaceOnUse"
       y2="5"
       x2="38"
       y1="8"
       x1="35"
       id="linearGradient3921"
       xlink:href="#linearGradient3915"
       inkscape:collect="always" />
    <linearGradient
       gradientUnits="userSpaceOnUse"
       y2="28.5625"
       x2="46.004719"
       y1="28.5625"
       x1="1.9952807"
       id="linearGradient3867"
       xlink:href="#linearGradient3861"
       inkscape:collect="always" />
    <linearGradient
       gradientTransform="translate(0,-1004.3622)"
       y2="1014.3622"
       x2="24"
       y1="1046.3622"
       x1="24"
       gradientUnits="userSpaceOnUse"
       id="linearGradient3858"
       xlink:href="#linearGradient3810"
       inkscape:collect="always" />
    <linearGradient
       gradientTransform="translate(0,-3)"
       y2="1014.3622"
       x2="24"
       y1="1046.3622"
       x1="24"
       gradientUnits="userSpaceOnUse"
       id="linearGradient3856"
       xlink:href="#linearGradient3810"
       inkscape:collect="always" />
    <linearGradient
       gradientUnits="userSpaceOnUse"
       y2="1014.3622"
       x2="24"
       y1="1046.3622"
       x1="24"
       id="linearGradient3816"
       xlink:href="#linearGradient3810"
       inkscape:collect="always" />
    <linearGradient
       id="linearGradient3810">
      <stop
         id="stop3812"
         offset="0"
         style="stop-color:#f2c66f;stop-opacity:1;" />
      <stop
         id="stop3814"
         offset="1"
         style="stop-color:#fbd68f;stop-opacity:1;" />
    </linearGradient>
    <linearGradient
       id="linearGradient3844">
      <stop
         id="stop3846"
         offset="0"
         style="stop-color:#000000;stop-opacity:0.39215687;" />
      <stop
         id="stop3848"
         offset="1"
         style="stop-color:#000000;stop-opacity:0;" />
    </linearGradient>
    <linearGradient
       id="linearGradient3861"
       inkscape:collect="always">
      <stop
         id="stop3863"
         offset="0"
         style="stop-color:#000000;stop-opacity:1;" />
      <stop
         id="stop3865"
         offset="1"
         style="stop-color:#000000;stop-opacity:0;" />
    </linearGradient>
    <linearGradient
       id="linearGradient3915">
      <stop
         id="stop3917"
         offset="0"
         style="stop-color:#f8f4e1;stop-opacity:1;" />
      <stop
         id="stop3919"
         offset="1"
         style="stop-color:#ad9e57;stop-opacity:1;" />
    </linearGradient>
    <linearGradient
       id="linearGradient3956">
      <stop
         id="stop3958"
         offset="0"
         style="stop-color:#f8f4e1;stop-opacity:1;" />
      <stop
         id="stop3960"
         offset="1"
         style="stop-color:#eae5c8;stop-opacity:1;" />
    </linearGradient>
    <linearGradient
       id="linearGradient3823">
      <stop
         id="stop3825"
         offset="0"
         style="stop-color:#49b7ef;stop-opacity:1;" />
      <stop
         id="stop3827"
         offset="1"
         style="stop-color:#1d8de2;stop-opacity:1;" />
    </linearGradient>
    <linearGradient
       id="linearGradient3833">
      <stop
         style="stop-color:#fdfeff;stop-opacity:1;"
         offset="0"
         id="stop3835" />
      <stop
         style="stop-color:#dfe4e4;stop-opacity:1;"
         offset="1"
         id="stop3837" />
    </linearGradient>
    <linearGradient
       id="linearGradient3855">
      <stop
         id="stop3857"
         offset="0"
         style="stop-color:#000000;stop-opacity:1;" />
      <stop
         id="stop3859"
         offset="1"
         style="stop-color:#000000;stop-opacity:0.29411766;" />
    </linearGradient>
  </defs>
  <sodipodi:namedview
     pagecolor="#ffffff"
     bordercolor="#666666"
     borderopacity="1"
     objecttolerance="10"
     gridtolerance="10"
     guidetolerance="10"
     inkscape:pageopacity="0"
     inkscape:pageshadow="2"
     inkscape:window-width="1366"
     inkscape:window-height="710"
     id="namedview16"
     showgrid="true"
     inkscape:zoom="4.4453125"
     inkscape:cx="-24.047163"
     inkscape:cy="42.669497"
     inkscape:window-x="0"
     inkscape:window-y="0"
     inkscape:window-maximized="1"
     inkscape:current-layer="svg2"
     showguides="true"
     inkscape:guide-bbox="true"
     inkscape:snap-bbox="true"
     inkscape:bbox-nodes="true"
     inkscape:bbox-paths="true"
     inkscape:snap-bbox-edge-midpoints="true"
     inkscape:snap-bbox-midpoints="true"
     inkscape:object-paths="true"
     inkscape:snap-intersection-paths="true"
     inkscape:object-nodes="true"
     inkscape:snap-global="true">
    <inkscape:grid
       type="xygrid"
       id="grid2997"
       empspacing="5"
       visible="true"
       enabled="true"
       snapvisiblegridlinesonly="true" />
  </sodipodi:namedview>
  <g
     transform="translate(-1311,-730)"
     id="user-trash_48"
     inkscape:label="#g6449">
    <g
       inkscape:label="#g4150"
       transform="translate(1311,730)"
       id="dvcsdcsd">
      <rect
         style="opacity:1;fill:none;fill-opacity:1;stroke:none;stroke-width:1;stroke-linecap:butt;stroke-linejoin:miter;stroke-miterlimit:4;stroke-dasharray:none;stroke-dashoffset:0;stroke-opacity:1"
         id="rect4148-0"
         width="48"
         height="48"
         x="0"
         y="0" />
    </g>
    <g
       transform="translate(1311,729.99954)"
       id="g6024">
      <path
         style="opacity:1;fill:#636a78;fill-opacity:1;stroke:#272a2f;stroke-width:1;stroke-linecap:butt;stroke-linejoin:miter;stroke-miterlimit:4;stroke-dasharray:none;stroke-dashoffset:0;stroke-opacity:0.78431373"
         d="m 9,4.5000073 h 30 c 0.831,0 1.218524,0.7207807 1.5,1.5055525 l 1.35,3.7638814 c 0.281476,0.7847718 -0.669,1.5055528 -1.5,1.5055528 H 7.65 c -0.831,0 -1.7814759,-0.720781 -1.5,-1.5055528 L 7.5,6.0055598 C 7.7814757,5.220788 8.169,4.5000073 9,4.5000073 Z"
         id="rect4290-78"
         inkscape:connector-curvature="0"
         sodipodi:nodetypes="sssssssss" />
      <path
         style="opacity:0.3;fill:#000000;fill-opacity:1;stroke:none;stroke-width:0.99999994;stroke-linecap:butt;stroke-linejoin:miter;stroke-miterlimit:4;stroke-dasharray:none;stroke-dashoffset:0;stroke-opacity:1"
         d="m 39,5 -4.725,32.185803 c -0.117783,0.802315 -0.669,1.462991 -1.5,1.462991 h -17.55 c -0.831,0 -1.382217,-0.660676 -1.5,-1.462991 L 9,5 Z"
         id="rect4203-7-3"
         inkscape:connector-curvature="0"
         sodipodi:nodetypes="csssscc" />
      <path
         style="opacity:1;fill:#636a78;fill-opacity:1;stroke:#272a2f;stroke-width:0.99999994;stroke-linecap:butt;stroke-linejoin:miter;stroke-miterlimit:4;stroke-dasharray:none;stroke-dashoffset:0;stroke-opacity:0.78431373"
         d="m 41.85,10.5 -3.225,32.521923 c -0.08084,0.815273 -0.669,1.478269 -1.5,1.478269 h -26.25 c -0.831,0 -1.4191542,-0.662996 -1.4999997,-1.478269 L 6.1500003,10.5 Z"
         id="rect4203-66"
         inkscape:connector-curvature="0"
         sodipodi:nodetypes="csssscc" />
      <path
         sodipodi:nodetypes="csccsccccccccsccccccsccccccccsccccccccccsccccccccscscccc"
         inkscape:connector-curvature="0"
         id="path4226-1-8-8"
         d="m 17.858679,32.230802 c -0.191925,0.3447 -0.344691,0.863332 -0.344691,1.19013 0,0.07586 0,0.172357 0.01882,0.306217 l -2.398823,-4.125517 c -0.07678,-0.13386 -0.133972,-0.325905 -0.133972,-0.49893 0,-0.17325 0.05723,-0.383858 0.133972,-0.51795 l 1.151618,-2.01495 -1.28559,-0.728595 4.183485,-0.07745 2.033745,3.664845 -1.304385,-0.748275 z m 1.842623,-12.078265 c 0.364297,-0.6339 0.959692,-0.979286 1.68828,-0.979286 0.787327,0 1.40154,0.36507 1.842592,1.112455 l 0.652583,1.09366 -2.26488,4.365601 -3.664844,-2.580311 z m 0.267915,15.39772 c -1.093658,0 -1.99539,-0.901838 -1.99539,-1.995473 0,-0.30711 0.134745,-0.825712 0.326677,-1.151617 l 0.613418,-1.093658 h 4.548547 v 4.240778 h -3.493252 z m 3.646852,-15.51367 C 23.328527,19.538321 22.944662,19.192046 22.484019,19 h 4.720111 c 0.42225,0 0.748155,0.173251 0.94089,0.499814 l 1.170442,1.995473 1.266112,-0.748962 -2.034667,3.646707 -4.163115,-0.05865 1.285597,-0.728588 z m 7.273388,11.311397 c 0.575017,0 1.055265,-0.15354 1.457955,-0.45999 l -2.380028,4.14429 c -0.191932,0.325898 -0.536857,0.53139 -0.939435,0.51795 h -2.246077 v 1.477523 l -2.14893,-3.58806 2.14893,-3.588975 v 1.497232 h 4.107585 z m 1.84104,-3.4542 c 0.173137,0.30711 0.26949,0.633008 0.26949,0.978593 0,0.690975 -0.441848,1.420222 -1.055265,1.764952 -0.288285,0.154455 -0.692475,0.274433 -1.093658,0.250695 h -1.267575 l -2.26341,-3.91554 3.66495,-2.091735 z"
         style="fill:#ffffff;fill-opacity:1" />
    </g>
  </g>
</svg>
