<svg width="64" height="64" version="1.1" viewBox="0 0 16.933 16.933" xmlns="http://www.w3.org/2000/svg">
 <rect x=".529" y="2.381" width="15.875" height="12.171" ry=".265" fill="none" stroke="#321870" stroke-opacity=".78431" stroke-width=".529" style="paint-order:markers stroke fill"/>
 <rect x=".529" y="2.381" width="15.875" height="12.171" ry=".265" fill="#9677e2" style="paint-order:markers stroke fill"/>
 <path d="m0.794 2.381a0.264 0.264 0 0 0-0.265 0.265v0.793h15.875v-0.793a0.264 0.264 0 0 0-0.264-0.265z" opacity=".35" style="paint-order:stroke markers fill"/>
 <rect x="1.587" y="2.645" width="1.058" height=".529" ry=".265" opacity=".35" style="paint-order:stroke markers fill"/>
 <rect x="7.144" y="2.645" width="2.646" height=".529" ry=".265" opacity=".35" style="paint-order:stroke markers fill"/>
 <rect x="15.081" y="2.645" width=".529" height=".529" ry=".265" fill="#fff" opacity=".8" style="paint-order:stroke markers fill"/>
 <rect x="14.023" y="2.645" width=".794" height=".529" ry=".265" opacity=".35" style="paint-order:stroke markers fill"/>
 <rect x="13.229" y="2.645" width=".529" height=".529" ry=".265" opacity=".35" style="paint-order:stroke markers fill"/>
 <path d="m3.9692 13.493c-0.29308 0-0.52916 0.23609-0.52916 0.52916v0.52969h10.054v-0.52969c0-0.29308-0.23609-0.52916-0.52916-0.52916z" fill="#fff" opacity=".15" style="paint-order:stroke markers fill"/>
 <g fill="#c2b4ec">
  <rect x="4.498" y="12.7" width="1.323" height="1.323" ry=".132" style="paint-order:stroke markers fill"/>
  <rect x="6.703" y="12.7" width="1.323" height="1.323" ry=".132" style="paint-order:stroke markers fill"/>
  <rect x="8.908" y="12.7" width="1.323" height="1.323" ry=".132" style="paint-order:stroke markers fill"/>
  <rect x="11.113" y="12.7" width="1.323" height="1.323" ry=".132" style="paint-order:stroke markers fill"/>
 </g>
 <path d="m8.467 5.972c-0.782 0-1.411 0.629-1.411 1.41v0.53h0.504v-0.53c0-0.488 0.418-0.906 0.907-0.906 0.488 0 0.907 0.418 0.907 0.907v0.529h0.504v-0.53c0-0.781-0.63-1.41-1.411-1.41z" fill="#fff"/>
 <rect transform="matrix(0,-1,-1,0,0,0)" x="-11.112" y="-10.583" width="3.225" height="4.233" rx=".266" ry=".269" fill="#fff"/>
</svg>
