<svg xmlns="http://www.w3.org/2000/svg" xmlns:xlink="http://www.w3.org/1999/xlink" width="64" height="64" viewBox="0 0 16.933 16.933"><defs><linearGradient xlink:href="#a" id="c" x1="-197.102" y1="217.681" x2="-196.914" y2="219.365" gradientUnits="userSpaceOnUse"/><linearGradient id="a"><stop offset="0"/><stop offset="1" stop-opacity="0"/></linearGradient><clipPath clipPathUnits="userSpaceOnUse" id="b"><rect ry=".529" y="285.358" x=".529" height="9.525" width="15.875" transform="rotate(45)" fill="#5677fc" stroke-width=".251" stroke-opacity=".196" paint-order="markers stroke fill"/></clipPath></defs><g transform="translate(0 -280.067)"><path d="M3.175 282.448c-.293 0-.265.264-.265.53H1.852c-.265 0-.265 0-.265.264v5.556c0 .293.237.53.53.53h12.7a.529.529 0 0 0 .529-.53v-5.556c0-.265 0-.265-.265-.265H7.673c0-.265.028-.53-.265-.53z" fill="#fff" fill-opacity=".976" stroke="#000" stroke-width=".529" stroke-opacity=".268" paint-order="markers stroke fill"/><path d="M3.175 282.448c-.293 0-.265.264-.265.53H1.852c-.265 0-.265 0-.265.264v5.556c0 .293.237.53.53.53h12.7a.529.529 0 0 0 .529-.53v-5.556c0-.265 0-.265-.265-.265H7.673c0-.265.028-.53-.265-.53z" fill="#fff" fill-opacity=".976" paint-order="markers stroke fill"/><path d="M8.467 284.3c-.293 0-.382.276-.53.53l-.308.528H.794c-.265 0-.265.265-.265.265v8.996c0 .264.265.264.265.264H16.14c.264 0 .264-.264.264-.264v-10.054c0-.265-.264-.265-.264-.265z" fill="none" stroke="#003779" stroke-width=".529" stroke-opacity=".561" paint-order="markers stroke fill"/><path d="M8.467 284.3c-.293 0-.382.276-.53.53l-.308.528H.794c-.265 0-.265.265-.265.265v8.996c0 .264.265.264.265.264H16.14c.264 0 .264-.264.264-.264v-10.054c0-.265-.264-.265-.264-.265z" fill="#6ba4e7" paint-order="markers stroke fill"/><rect clip-path="url(#b)" transform="rotate(-45 0 0)" ry=".132" y="217.868" x="-199.587" height="4.762" width="5.292" opacity=".1" fill="url(#c)" paint-order="stroke markers fill"/><rect ry=".265" rx=".265" y="282.977" x="3.44" height=".529" width="3.704" fill-opacity=".267" paint-order="markers stroke fill"/></g><path d="M8.16 7.673v.72a1.69 1.69 0 0 0-.65.269L7 8.152l-.435.436.51.51a1.69 1.69 0 0 0-.27.649h-.72v.615h.721a1.69 1.69 0 0 0 .268.65l-.509.509.435.434.51-.51a1.69 1.69 0 0 0 .65.27v.72h.614v-.72a1.69 1.69 0 0 0 .65-.268l.51.508.434-.434-.51-.51a1.69 1.69 0 0 0 .27-.65h.72v-.614h-.721a1.69 1.69 0 0 0-.268-.65l.509-.51-.435-.434-.51.51a1.69 1.69 0 0 0-.649-.27v-.72zm.307 1.46a.922.922 0 0 1 .921.921.922.922 0 0 1-.921.922.922.922 0 0 1-.922-.922.922.922 0 0 1 .922-.922z" opacity=".35" fill="none" stroke="#000" stroke-width=".529" paint-order="stroke markers fill"/><path d="M8.16 7.673v.72a1.69 1.69 0 0 0-.65.269L7 8.152l-.435.436.51.51a1.69 1.69 0 0 0-.27.649h-.72v.615h.721a1.69 1.69 0 0 0 .268.65l-.509.509.435.434.51-.51a1.69 1.69 0 0 0 .65.27v.72h.614v-.72a1.69 1.69 0 0 0 .65-.268l.51.508.434-.434-.51-.51a1.69 1.69 0 0 0 .27-.65h.72v-.614h-.721a1.69 1.69 0 0 0-.268-.65l.509-.51-.435-.434-.51.51a1.69 1.69 0 0 0-.649-.27v-.72zm.307 1.46a.922.922 0 0 1 .921.921.922.922 0 0 1-.921.922.922.922 0 0 1-.922-.922.922.922 0 0 1 .922-.922z" fill="#5b8cc5" paint-order="stroke markers fill"/></svg>