<svg xmlns="http://www.w3.org/2000/svg" xmlns:xlink="http://www.w3.org/1999/xlink" width="64" height="64" viewBox="0 0 16.933 16.933"><defs><linearGradient xlink:href="#a" id="c" x1="-197.102" y1="217.681" x2="-196.914" y2="219.365" gradientUnits="userSpaceOnUse"/><linearGradient id="a"><stop offset="0"/><stop offset="1" stop-opacity="0"/></linearGradient><clipPath clipPathUnits="userSpaceOnUse" id="b"><rect ry=".529" y="285.358" x=".529" height="9.525" width="15.875" transform="rotate(45)" fill="#5677fc" stroke-width=".251" stroke-opacity=".196" paint-order="markers stroke fill"/></clipPath></defs><g transform="translate(0 -280.067)"><path d="M3.175 282.448c-.293 0-.265.264-.265.53H1.852c-.265 0-.265 0-.265.264v5.556c0 .293.237.53.53.53h12.7a.529.529 0 0 0 .529-.53v-5.556c0-.265 0-.265-.265-.265H7.673c0-.265.028-.53-.265-.53z" fill="#fff" fill-opacity=".976" stroke="#000" stroke-width=".529" stroke-opacity=".268" paint-order="markers stroke fill"/><path d="M3.175 282.448c-.293 0-.265.264-.265.53H1.852c-.265 0-.265 0-.265.264v5.556c0 .293.237.53.53.53h12.7a.529.529 0 0 0 .529-.53v-5.556c0-.265 0-.265-.265-.265H7.673c0-.265.028-.53-.265-.53z" fill="#fff" fill-opacity=".976" paint-order="markers stroke fill"/><path d="M8.467 284.3c-.293 0-.382.276-.53.53l-.308.528H.794c-.265 0-.265.265-.265.265v8.996c0 .264.265.264.265.264H16.14c.264 0 .264-.264.264-.264v-10.054c0-.265-.264-.265-.264-.265z" fill="none" stroke="#003779" stroke-width=".529" stroke-opacity=".561" paint-order="markers stroke fill"/><path d="M8.467 284.3c-.293 0-.382.276-.53.53l-.308.528H.794c-.265 0-.265.265-.265.265v8.996c0 .264.265.264.265.264H16.14c.264 0 .264-.264.264-.264v-10.054c0-.265-.264-.265-.264-.265z" fill="#6ba4e7" paint-order="markers stroke fill"/><rect clip-path="url(#b)" transform="rotate(-45 0 0)" ry=".132" y="217.868" x="-199.587" height="4.762" width="5.292" opacity=".1" fill="url(#c)" paint-order="stroke markers fill"/><rect ry=".265" rx=".265" y="282.977" x="3.44" height=".529" width="3.704" fill-opacity=".267" paint-order="markers stroke fill"/></g><g transform="translate(-.53 4.763) scale(.26458)"><path d="M30 10h12v4H30z" opacity=".15"/><ellipse ry="2.5" rx="3.5" cy="25.5" cx="38.5" opacity=".15"/><ellipse ry="2.5" rx="3.5" cy="27.5" cx="25.5" opacity=".15"/><path d="M29 9v16.324c-.825-.8-2.078-1.324-3.5-1.324-2.485 0-4.5 1.567-4.5 3.5s2.015 3.5 4.5 3.5 4.5-1.567 4.5-3.5l-.002-.021H30V15h12v8.324c-.825-.8-2.078-1.324-3.5-1.324-2.485 0-4.5 1.567-4.5 3.5s2.015 3.5 4.5 3.5 4.5-1.567 4.5-3.5c0-.013-.004-.024-.004-.037H43V9h-1zm1 1h12v4H30zm8.5 13c1.933 0 3.5 1.12 3.5 2.5S40.433 28 38.5 28 35 26.88 35 25.5s1.567-2.5 3.5-2.5zm-13 2c1.933 0 3.5 1.12 3.5 2.5S27.433 30 25.5 30 22 28.88 22 27.5s1.567-2.5 3.5-2.5z" opacity=".3"/></g></svg>