<?xml version="1.0" encoding="UTF-8" standalone="no"?>
<!-- Created with Inkscape (http://www.inkscape.org/) -->

<svg
   xmlns:dc="http://purl.org/dc/elements/1.1/"
   xmlns:cc="http://creativecommons.org/ns#"
   xmlns:rdf="http://www.w3.org/1999/02/22-rdf-syntax-ns#"
   xmlns:svg="http://www.w3.org/2000/svg"
   xmlns="http://www.w3.org/2000/svg"
   xmlns:xlink="http://www.w3.org/1999/xlink"
   xmlns:sodipodi="http://sodipodi.sourceforge.net/DTD/sodipodi-0.dtd"
   xmlns:inkscape="http://www.inkscape.org/namespaces/inkscape"
   width="64"
   height="64"
   viewBox="0 0 16.933333 16.933334"
   version="1.1"
   id="svg8"
   inkscape:version="0.92.4 (5da689c313, 2019-01-14)"
   sodipodi:docname="default-folder-download.svg">
  <defs
     id="defs2">
    <clipPath
       clipPathUnits="userSpaceOnUse"
       id="clipPath827">
      <rect
         ry="0.52915645"
         y="285.35831"
         x="0.52916664"
         height="9.5249939"
         width="15.875"
         id="rect829"
         style="opacity:1;fill:#5294e2;fill-opacity:1;stroke:none;stroke-width:0.25100571;stroke-miterlimit:4;stroke-dasharray:none;stroke-opacity:0.19607843;paint-order:markers stroke fill"
         transform="rotate(45)" />
    </clipPath>
    <clipPath
       clipPathUnits="userSpaceOnUse"
       id="clipPath827-5">
      <rect
         ry="0.52915645"
         y="285.35831"
         x="0.52916664"
         height="9.5249939"
         width="15.875"
         id="rect829-3"
         style="opacity:1;fill:#5677fc;fill-opacity:1;stroke:none;stroke-width:0.25100571;stroke-miterlimit:4;stroke-dasharray:none;stroke-opacity:0.19607843;paint-order:markers stroke fill"
         transform="rotate(45)" />
    </clipPath>
    <linearGradient
       inkscape:collect="always"
       xlink:href="#linearGradient835"
       id="linearGradient837-3"
       x1="-197.10156"
       y1="217.68132"
       x2="-196.91447"
       y2="219.36513"
       gradientUnits="userSpaceOnUse" />
    <linearGradient
       inkscape:collect="always"
       id="linearGradient835">
      <stop
         style="stop-color:#000000;stop-opacity:1;"
         offset="0"
         id="stop831" />
      <stop
         style="stop-color:#000000;stop-opacity:0;"
         offset="1"
         id="stop833" />
    </linearGradient>
    <clipPath
       clipPathUnits="userSpaceOnUse"
       id="clipPath827-5-3">
      <rect
         ry="0.52915645"
         y="285.35831"
         x="0.52916664"
         height="9.5249939"
         width="15.875"
         id="rect829-3-6"
         style="opacity:1;fill:#5677fc;fill-opacity:1;stroke:none;stroke-width:0.25100571;stroke-miterlimit:4;stroke-dasharray:none;stroke-opacity:0.19607843;paint-order:markers stroke fill"
         transform="rotate(45)" />
    </clipPath>
  </defs>
  <sodipodi:namedview
     id="base"
     pagecolor="#ffffff"
     bordercolor="#666666"
     borderopacity="1.0"
     inkscape:pageopacity="0.0"
     inkscape:pageshadow="2"
     inkscape:zoom="22.4"
     inkscape:cx="8.124789"
     inkscape:cy="45.847078"
     inkscape:document-units="mm"
     inkscape:current-layer="layer1"
     showgrid="true"
     units="px"
     inkscape:window-width="1366"
     inkscape:window-height="710"
     inkscape:window-x="0"
     inkscape:window-y="0"
     inkscape:window-maximized="1"
     inkscape:snap-bbox="true"
     inkscape:snap-bbox-edge-midpoints="true"
     inkscape:bbox-nodes="true">
    <inkscape:grid
       type="xygrid"
       id="grid3713" />
  </sodipodi:namedview>
  <metadata
     id="metadata5">
    <rdf:RDF>
      <cc:Work
         rdf:about="">
        <dc:format>image/svg+xml</dc:format>
        <dc:type
           rdf:resource="http://purl.org/dc/dcmitype/StillImage" />
        <dc:title />
      </cc:Work>
    </rdf:RDF>
  </metadata>
  <g
     inkscape:label="Layer 1"
     inkscape:groupmode="layer"
     id="layer1"
     transform="translate(0,-280.06663)">
    <g
       id="g857">
      <path
         style="opacity:1;fill:#ffffff;fill-opacity:0.97647059;stroke:#000000;stroke-width:0.52916676;stroke-miterlimit:4;stroke-dasharray:none;stroke-opacity:0.2679739;paint-order:markers stroke fill"
         d="m 3.175,282.44788 c -0.2931528,0 -0.2645834,0.26458 -0.2645834,0.52917 H 1.8520833 c -0.2645833,0 -0.2645833,0 -0.2645833,0.26458 v 5.55625 c 0,0.29316 0.2360061,0.52917 0.5291666,0.52917 H 14.816666 c 0.293161,0 0.529167,-0.23601 0.529167,-0.52917 v -5.55625 c 0,-0.26458 0,-0.26458 -0.264583,-0.26458 H 7.6729166 c 0,-0.26459 0.028569,-0.52917 -0.2645833,-0.52917 z"
         id="rect4538-5"
         inkscape:connector-curvature="0"
         sodipodi:nodetypes="scsssssssscss" />
      <path
         sodipodi:nodetypes="scsssssssscss"
         inkscape:connector-curvature="0"
         id="path830"
         d="m 3.175,282.44788 c -0.2931528,0 -0.2645834,0.26458 -0.2645834,0.52917 H 1.8520833 c -0.2645833,0 -0.2645833,0 -0.2645833,0.26458 v 5.55625 c 0,0.29316 0.2360061,0.52917 0.5291666,0.52917 H 14.816666 c 0.293161,0 0.529167,-0.23601 0.529167,-0.52917 v -5.55625 c 0,-0.26458 0,-0.26458 -0.264583,-0.26458 H 7.6729166 c 0,-0.26459 0.028569,-0.52917 -0.2645833,-0.52917 z"
         style="opacity:1;fill:#ffffff;fill-opacity:0.97647059;stroke:none;stroke-width:0.52916676;stroke-miterlimit:4;stroke-dasharray:none;stroke-opacity:0.2679739;paint-order:markers stroke fill" />
      <path
         id="rect822-6"
         d="m 8.4666666,284.29995 c -0.2931617,0 -0.3814516,0.27594 -0.5291666,0.52917 l -0.3085084,0.52916 -6.8352416,2e-5 c -0.26458333,0 -0.26458333,0.26458 -0.26458333,0.26458 v 8.99583 c 0,0.26459 0.26458333,0.26459 0.26458333,0.26459 h 15.345833 c 0.264584,0 0.264584,-0.26459 0.264584,-0.26459 l -1e-6,-5.82084 v -2.91042 l 1e-6,-1.3229 c 0,-0.26459 -0.264584,-0.26459 -0.264584,-0.26459 z"
         style="opacity:1;fill:none;fill-opacity:1;stroke:#003779;stroke-width:0.52916664;stroke-miterlimit:4;stroke-dasharray:none;stroke-opacity:0.56078384;paint-order:markers stroke fill"
         inkscape:connector-curvature="0"
         sodipodi:nodetypes="sccscscscccccs" />
      <path
         sodipodi:nodetypes="sccscscscccccs"
         inkscape:connector-curvature="0"
         style="opacity:1;fill:#6ba4e7;fill-opacity:1;stroke:none;stroke-width:0.52916664;stroke-miterlimit:4;stroke-dasharray:none;stroke-opacity:0.56078384;paint-order:markers stroke fill"
         d="m 8.4666666,284.29995 c -0.2931617,0 -0.3814516,0.27594 -0.5291666,0.52917 l -0.3085084,0.52916 -6.8352416,2e-5 c -0.26458333,0 -0.26458333,0.26458 -0.26458333,0.26458 v 8.99583 c 0,0.26459 0.26458333,0.26459 0.26458333,0.26459 h 15.345833 c 0.264584,0 0.264584,-0.26459 0.264584,-0.26459 l -1e-6,-5.82084 v -2.91042 l 1e-6,-1.3229 c 0,-0.26459 -0.264584,-0.26459 -0.264584,-0.26459 z"
         id="path832" />
      <rect
         clip-path="url(#clipPath827-5-3)"
         transform="rotate(-45,-1.2974248e-5,-5.3370489e-6)"
         ry="0.13229166"
         y="217.86841"
         x="-199.58691"
         height="4.7624998"
         width="5.2916665"
         id="rect819-2"
         style="opacity:0.1;fill:url(#linearGradient837-3);fill-opacity:1;stroke:none;stroke-width:0.52916664;stroke-miterlimit:4;stroke-dasharray:none;stroke-opacity:0.03921569;paint-order:stroke markers fill" />
      <rect
         ry="0.26457515"
         rx="0.26458353"
         y="282.97705"
         x="3.4395833"
         height="0.52915972"
         width="3.7041669"
         id="rect830"
         style="opacity:1;fill:#000000;fill-opacity:0.26666667;stroke:none;stroke-width:0.52916676;stroke-linecap:round;stroke-linejoin:miter;stroke-miterlimit:4;stroke-dasharray:none;stroke-opacity:1;paint-order:markers stroke fill" />
    </g>
    <g
       id="layer4-3"
       inkscape:label="icon"
       style="display:inline"
       transform="matrix(0.26458333,0,0,0.26458333,1.0666666e-7,284.56435)">
      <path
         sodipodi:nodetypes="cccccccc"
         inkscape:connector-curvature="0"
         id="rect4376-2"
         d="m 29,10 h 6 v 11 h 6 L 32,29.5 23,21 h 6 z"
         style="opacity:0.15;fill:#000000;fill-opacity:1;stroke:#102b68;stroke-width:0;stroke-linecap:butt;stroke-linejoin:miter;stroke-miterlimit:4;stroke-dashoffset:0;stroke-opacity:1" />
      <path
         style="display:inline;opacity:0.3;fill:#000000;fill-opacity:1;stroke:#102b68;stroke-width:0;stroke-linecap:butt;stroke-linejoin:miter;stroke-miterlimit:4;stroke-dashoffset:0;stroke-opacity:1"
         d="m 28,9.000005 v 11 h -7.5 l 11.5,11 11.5,-11 H 36 v -11 z m 1,1 h 6 v 11 h 6 l -9,8.5 -9,-8.5 h 6 z"
         id="rect4376-9-9"
         inkscape:connector-curvature="0" />
    </g>
  </g>
</svg>
