<svg width="64" height="64" version="1.1" viewBox="0 0 16.933 16.933" xmlns="http://www.w3.org/2000/svg" xmlns:xlink="http://www.w3.org/1999/xlink">
 <defs>
  <linearGradient id="a">
   <stop offset="0"/>
   <stop stop-opacity="0" offset="1"/>
  </linearGradient>
  <clipPath id="b">
   <rect transform="rotate(45)" x=".529" y="285.36" width="15.875" height="9.525" ry=".529" fill="#5294e2" stroke-opacity=".196" stroke-width=".251" paint-order="markers stroke fill"/>
  </clipPath>
  <linearGradient id="c" x1="-197.1" x2="-196.91" y1="217.68" y2="219.36" gradientUnits="userSpaceOnUse" xlink:href="#a"/>
 </defs>
 <g opacity=".5">
  <g stroke-width="3.7796">
   <path transform="scale(.26458)" d="m11.604 26.797c-0.66899 0-0.89502 0.61351-1.2012 1.2031h-1.8047a1.1981 1.1981 0 0 0-1.1973 1.1973v4.2031h13.701l0.69922-1.1973c0.33638-0.57828 0.53584-1.2031 1.1973-1.2031h15.604v-1.8027a1.1981 1.1981 0 0 0-1.2031-1.1973h-16.195c-0.3515-0.56694-0.53206-1.2031-1.1973-1.2031h-8.4023z" fill="#5294e2" style="paint-order:markers stroke fill"/>
   <path transform="scale(.26458)" d="m11.604 26.797c-0.66899 0-0.89502 0.61351-1.2012 1.2031h-1.8047a1.1981 1.1981 0 0 0-1.1973 1.1973v4.2031h13.701l0.69922-1.1973c0.33638-0.57828 0.53584-1.2031 1.1973-1.2031h15.604v-1.8027a1.1981 1.1981 0 0 0-1.2031-1.1973h-16.195c-0.3515-0.56694-0.53206-1.2031-1.1973-1.2031h-8.4023z" opacity=".18" style="paint-order:markers stroke fill"/>
   <path transform="scale(.26458)" d="m9.8008 29.799c-0.33293 0-0.60156 0.26668-0.60156 0.59961v3.002h11.902l0.69922-1.1973c0.33638-0.57828 0.53584-1.2031 1.1973-1.2031h13.805v-0.60156c0-0.33293-0.26863-0.59961-0.60156-0.59961h-26.4z" fill="#f2f2f2" style="paint-order:markers stroke fill"/>
   <path transform="scale(.26458)" d="m22.998 31c-0.66143 0-0.86088 0.62485-1.1973 1.2031l-0.69922 1.1973h-14.902c-0.66377 0-1.1992 0.5335-1.1992 1.1973v19.205c0 0.66377 0.53545 1.1973 1.1992 1.1973h33.604c0.66377 0 1.1992-0.5335 1.1992-1.1973v-12.605-6.5996-2.3984c0-0.66521-0.53792-1.1992-1.2031-1.1992h-16.801z" fill="#5294e2" style="paint-order:markers stroke fill"/>
  </g>
  <rect x="3.228" y="7.249" width="1.905" height=".317" ry=".159" opacity=".125" style="paint-order:stroke markers fill"/>
  <rect transform="matrix(.42426 -.42426 .42426 .42426 1.0061 -162.38)" x="-199.59" y="217.87" width="5.292" height="4.762" ry=".132" clip-path="url(#b)" fill="url(#c)" opacity=".05" style="paint-order:stroke markers fill"/>
 </g>
 <g transform="translate(0 -280.07)">
  <path d="M8.096 283.189c-.176 0-.236.161-.317.317h-.477a.317.317 0 0 0-.317.318v3.175c0 .176.142.317.317.317h7.62a.317.317 0 0 0 .318-.317v-3.175a.317.317 0 0 0-.318-.318h-4.286c-.093-.149-.141-.317-.317-.317z" fill="#5294e2" paint-order="markers stroke fill"/>
  <path d="M8.096 283.189c-.176 0-.236.161-.317.317h-.477a.317.317 0 0 0-.317.318v3.175c0 .176.142.317.317.317h7.62a.317.317 0 0 0 .318-.317v-3.175a.317.317 0 0 0-.318-.318h-4.286c-.093-.149-.141-.317-.317-.317z" opacity=".18" paint-order="markers stroke fill"/>
  <rect x="7.461" y="283.98" width="7.303" height="3.016" ry=".159" fill="#fff" paint-order="markers stroke fill"/>
  <rect x="6.35" y="284.94" width="9.525" height="5.715" ry=".317" fill="#5294e2" paint-order="markers stroke fill"/>
  <path d="M11.113 284.3h4.444c.176 0 .318.142.318.317V287a.317.317 0 0 1-.318.317H9.723c-.175 0-.406-.165-.317-.317l1.389-2.382c.089-.151.142-.317.318-.317z" fill="#5294e2" paint-order="markers stroke fill"/>
  <rect x="8.255" y="283.35" width="1.905" height=".317" ry=".159" opacity=".25" paint-order="stroke markers fill"/>
  <rect transform="rotate(-45 140.29 49.578) scale(.6)" x="-199.59" y="217.87" width="5.292" height="4.762" ry=".132" clip-path="url(#b)" fill="url(#c)" opacity=".1" paint-order="stroke markers fill"/>
 </g>
</svg>
