<svg xmlns="http://www.w3.org/2000/svg" xmlns:xlink="http://www.w3.org/1999/xlink" width="64" height="64" viewBox="0 0 16.933 16.933"><defs><linearGradient xlink:href="#a" id="c" x1="-197.102" y1="217.681" x2="-196.914" y2="219.365" gradientUnits="userSpaceOnUse"/><linearGradient id="a"><stop offset="0"/><stop offset="1" stop-opacity="0"/></linearGradient><clipPath clipPathUnits="userSpaceOnUse" id="b"><rect ry=".529" y="285.358" x=".529" height="9.525" width="15.875" transform="rotate(45)" fill="#5677fc" stroke-width=".251" stroke-opacity=".196" paint-order="markers stroke fill"/></clipPath></defs><g transform="translate(0 -280.067)"><path d="M3.44 282.448c-.294 0-.395.269-.53.53h-.793a.528.528 0 0 0-.53.528v5.292c0 .293.237.53.53.53h12.7a.529.529 0 0 0 .529-.53v-5.292a.528.528 0 0 0-.53-.529H7.674c-.155-.249-.236-.53-.53-.53z" fill="#fff" fill-opacity=".976" stroke="#000" stroke-width=".529" stroke-opacity=".268" paint-order="markers stroke fill"/><path d="M3.44 282.448c-.294 0-.395.269-.53.53h-.793a.528.528 0 0 0-.53.528v5.292c0 .293.237.53.53.53h12.7a.529.529 0 0 0 .529-.53v-5.292a.528.528 0 0 0-.53-.529H7.674c-.155-.249-.236-.53-.53-.53z" fill="#fff" fill-opacity=".976" paint-order="markers stroke fill"/><path d="M8.467 284.3c-.293 0-.382.276-.53.53l-.308.528h-6.57a.528.528 0 0 0-.53.53v8.466c0 .293.236.53.53.53h14.816a.53.53 0 0 0 .53-.53v-9.525a.528.528 0 0 0-.53-.529z" fill="none" stroke="#003779" stroke-width=".529" stroke-opacity=".561" paint-order="markers stroke fill"/><path d="M8.467 284.3c-.293 0-.382.276-.53.53l-.308.528h-6.57a.528.528 0 0 0-.53.53v8.466c0 .293.236.53.53.53h14.816a.53.53 0 0 0 .53-.53v-9.525a.528.528 0 0 0-.53-.529z" fill="#6ba4e7" paint-order="markers stroke fill"/><rect clip-path="url(#b)" transform="rotate(-45 0 0)" ry=".132" y="217.868" x="-199.587" height="4.762" width="5.292" opacity=".1" fill="url(#c)" paint-order="stroke markers fill"/><rect ry=".265" rx=".265" y="283.242" x="3.44" height=".529" width="3.704" fill-opacity=".267" paint-order="markers stroke fill"/></g><path d="M8.467 7.639l-.684 1.563a.265.265 0 0 1-.242.158H6.146l1.169.989a.265.265 0 0 1 .08.286l-.453 1.36 1.402-.737a.265.265 0 0 1 .246 0l1.402.737-.454-1.36a.265.265 0 0 1 .08-.286l1.169-.989H9.393a.265.265 0 0 1-.243-.158z" opacity=".15" stroke="#000" stroke-linecap="square" stroke-width=".265"/><path style="line-height:normal;text-indent:0;text-align:start;text-decoration-line:none;text-decoration-style:solid;text-decoration-color:#000;text-transform:none;white-space:normal;isolation:auto;mix-blend-mode:normal;solid-color:#000;solid-opacity:1" d="M8.461 6.847a.132.132 0 0 0-.116.079l-.89 2.037H5.423a.132.132 0 0 0-.085.233l1.65 1.398-.631 1.9a.132.132 0 0 0 .187.158l1.922-1.01 1.923 1.01a.132.132 0 0 0 .187-.159l-.633-1.9 1.65-1.397a.132.132 0 0 0-.085-.233H9.48l-.89-2.037a.132.132 0 0 0-.128-.08zm.006.462l.804 1.84a.132.132 0 0 0 .122.079h1.755l-1.444 1.221a.132.132 0 0 0-.04.144l.558 1.672-1.693-.89a.132.132 0 0 0-.123 0l-1.694.89.557-1.672a.132.132 0 0 0-.04-.144L5.785 9.228h1.756a.132.132 0 0 0 .121-.08l.805-1.839z" color="#000" font-weight="400" font-family="sans-serif" overflow="visible" opacity=".3"/></svg>