<?xml version="1.0" encoding="UTF-8" standalone="no"?>
<svg
   xmlns:dc="http://purl.org/dc/elements/1.1/"
   xmlns:cc="http://creativecommons.org/ns#"
   xmlns:rdf="http://www.w3.org/1999/02/22-rdf-syntax-ns#"
   xmlns:svg="http://www.w3.org/2000/svg"
   xmlns="http://www.w3.org/2000/svg"
   xmlns:xlink="http://www.w3.org/1999/xlink"
   xmlns:sodipodi="http://sodipodi.sourceforge.net/DTD/sodipodi-0.dtd"
   xmlns:inkscape="http://www.inkscape.org/namespaces/inkscape"
   width="64"
   viewBox="0 0 64 64"
   height="64"
   id="svg2"
   version="1.1"
   inkscape:version="0.92.4 (5da689c313, 2019-01-14)"
   sodipodi:docname="user-trash.svg">
  <metadata
     id="metadata20">
    <rdf:RDF>
      <cc:Work
         rdf:about="">
        <dc:format>image/svg+xml</dc:format>
        <dc:type
           rdf:resource="http://purl.org/dc/dcmitype/StillImage" />
        <dc:title />
      </cc:Work>
    </rdf:RDF>
  </metadata>
  <defs
     id="defs18">
    <linearGradient
       gradientUnits="userSpaceOnUse"
       y2="30"
       x2="20"
       y1="15"
       x1="22"
       id="linearGradient3862"
       xlink:href="#linearGradient3855"
       inkscape:collect="always" />
    <linearGradient
       y2="26"
       x2="20"
       y1="14"
       x1="21"
       gradientUnits="userSpaceOnUse"
       id="linearGradient3839"
       xlink:href="#linearGradient3833"
       inkscape:collect="always" />
    <linearGradient
       gradientUnits="userSpaceOnUse"
       y2="24"
       x2="20"
       y1="14"
       x1="21"
       id="linearGradient3829"
       xlink:href="#linearGradient3823"
       inkscape:collect="always" />
    <linearGradient
       gradientTransform="translate(22,1004.3622)"
       gradientUnits="userSpaceOnUse"
       y2="5"
       x2="44"
       y1="11"
       x1="35"
       id="linearGradient3954"
       xlink:href="#linearGradient3915"
       inkscape:collect="always" />
    <linearGradient
       gradientTransform="matrix(1.0436562,0,0,1.2222222,26.301501,1003.2511)"
       y2="5"
       x2="38"
       y1="8"
       x1="35"
       gradientUnits="userSpaceOnUse"
       id="linearGradient3933"
       xlink:href="#linearGradient3915"
       inkscape:collect="always" />
    <linearGradient
       gradientUnits="userSpaceOnUse"
       y2="5"
       x2="38"
       y1="8"
       x1="35"
       id="linearGradient3921"
       xlink:href="#linearGradient3915"
       inkscape:collect="always" />
    <linearGradient
       gradientUnits="userSpaceOnUse"
       y2="28.5625"
       x2="46.004719"
       y1="28.5625"
       x1="1.9952808"
       id="linearGradient3867"
       xlink:href="#linearGradient3861"
       inkscape:collect="always" />
    <linearGradient
       gradientTransform="translate(0,-1004.3622)"
       y2="1014.3622"
       x2="24"
       y1="1046.3622"
       x1="24"
       gradientUnits="userSpaceOnUse"
       id="linearGradient3858"
       xlink:href="#linearGradient3810"
       inkscape:collect="always" />
    <linearGradient
       gradientTransform="translate(0,-3)"
       y2="1014.3622"
       x2="24"
       y1="1046.3622"
       x1="24"
       gradientUnits="userSpaceOnUse"
       id="linearGradient3856"
       xlink:href="#linearGradient3810"
       inkscape:collect="always" />
    <linearGradient
       gradientUnits="userSpaceOnUse"
       y2="1014.3622"
       x2="24"
       y1="1046.3622"
       x1="24"
       id="linearGradient3816"
       xlink:href="#linearGradient3810"
       inkscape:collect="always" />
    <linearGradient
       id="linearGradient3810">
      <stop
         id="stop3812"
         offset="0"
         style="stop-color:#f2c66f;stop-opacity:1;" />
      <stop
         id="stop3814"
         offset="1"
         style="stop-color:#fbd68f;stop-opacity:1;" />
    </linearGradient>
    <linearGradient
       id="linearGradient3844">
      <stop
         id="stop3846"
         offset="0"
         style="stop-color:#000000;stop-opacity:0.39215687;" />
      <stop
         id="stop3848"
         offset="1"
         style="stop-color:#000000;stop-opacity:0;" />
    </linearGradient>
    <linearGradient
       id="linearGradient3861"
       inkscape:collect="always">
      <stop
         id="stop3863"
         offset="0"
         style="stop-color:#000000;stop-opacity:1;" />
      <stop
         id="stop3865"
         offset="1"
         style="stop-color:#000000;stop-opacity:0;" />
    </linearGradient>
    <linearGradient
       id="linearGradient3915">
      <stop
         id="stop3917"
         offset="0"
         style="stop-color:#f8f4e1;stop-opacity:1;" />
      <stop
         id="stop3919"
         offset="1"
         style="stop-color:#ad9e57;stop-opacity:1;" />
    </linearGradient>
    <linearGradient
       id="linearGradient3956">
      <stop
         id="stop3958"
         offset="0"
         style="stop-color:#f8f4e1;stop-opacity:1;" />
      <stop
         id="stop3960"
         offset="1"
         style="stop-color:#eae5c8;stop-opacity:1;" />
    </linearGradient>
    <linearGradient
       id="linearGradient3823">
      <stop
         id="stop3825"
         offset="0"
         style="stop-color:#49b7ef;stop-opacity:1;" />
      <stop
         id="stop3827"
         offset="1"
         style="stop-color:#1d8de2;stop-opacity:1;" />
    </linearGradient>
    <linearGradient
       id="linearGradient3833">
      <stop
         style="stop-color:#fdfeff;stop-opacity:1;"
         offset="0"
         id="stop3835" />
      <stop
         style="stop-color:#dfe4e4;stop-opacity:1;"
         offset="1"
         id="stop3837" />
    </linearGradient>
    <linearGradient
       id="linearGradient3855">
      <stop
         id="stop3857"
         offset="0"
         style="stop-color:#000000;stop-opacity:1;" />
      <stop
         id="stop3859"
         offset="1"
         style="stop-color:#000000;stop-opacity:0.29411766;" />
    </linearGradient>
  </defs>
  <sodipodi:namedview
     pagecolor="#ffffff"
     bordercolor="#666666"
     borderopacity="1"
     objecttolerance="10"
     gridtolerance="10"
     guidetolerance="10"
     inkscape:pageopacity="0"
     inkscape:pageshadow="2"
     inkscape:window-width="1366"
     inkscape:window-height="710"
     id="namedview16"
     showgrid="true"
     inkscape:zoom="4.4453125"
     inkscape:cx="12.058285"
     inkscape:cy="42.669497"
     inkscape:window-x="0"
     inkscape:window-y="0"
     inkscape:window-maximized="1"
     inkscape:current-layer="svg2"
     showguides="true"
     inkscape:guide-bbox="true"
     inkscape:snap-bbox="true"
     inkscape:bbox-nodes="true"
     inkscape:bbox-paths="true"
     inkscape:snap-bbox-edge-midpoints="true"
     inkscape:snap-bbox-midpoints="true"
     inkscape:object-paths="true"
     inkscape:snap-intersection-paths="true"
     inkscape:object-nodes="true"
     inkscape:snap-global="true">
    <inkscape:grid
       type="xygrid"
       id="grid2997"
       empspacing="5"
       visible="true"
       enabled="true"
       snapvisiblegridlinesonly="true" />
  </sodipodi:namedview>
  <g
     transform="translate(-1242,-714)"
     id="user-trash_64"
     inkscape:label="#g6440">
    <g
       inkscape:label="#g4147"
       id="djcndc"
       style="display:inline"
       transform="translate(1242,730)">
      <rect
         style="opacity:1;fill:none;fill-opacity:1;stroke:none;stroke-width:1;stroke-linecap:butt;stroke-linejoin:miter;stroke-miterlimit:4;stroke-dasharray:none;stroke-dashoffset:0;stroke-opacity:1"
         id="rect4145-4-6"
         width="64"
         height="64"
         x="0"
         y="-16" />
    </g>
    <g
       transform="translate(1242,714.0004)"
       id="g5938">
      <path
         style="opacity:1;fill:#636a78;fill-opacity:1;stroke:#272a2f;stroke-width:1;stroke-linecap:butt;stroke-linejoin:miter;stroke-miterlimit:4;stroke-dasharray:none;stroke-dashoffset:0;stroke-opacity:0.78431373"
         d="m 12,5.5 h 40 c 1.108,0 1.624699,0.9574966 2,2 l 1.8,5 c 0.375301,1.042503 -0.892,2 -2,2 H 10.2 c -1.108,0 -2.3753012,-0.957497 -2,-2 l 1.8,-5 c 0.375301,-1.0425035 0.892,-2 2,-2 z"
         id="rect4290-7"
         inkscape:connector-curvature="0"
         sodipodi:nodetypes="sssssssss" />
      <path
         style="opacity:0.3;fill:#000000;fill-opacity:1;stroke:none;stroke-width:0.99999994;stroke-linecap:butt;stroke-linejoin:miter;stroke-miterlimit:4;stroke-dasharray:none;stroke-dashoffset:0;stroke-opacity:1"
         d="m 52,6 -6.3,43.041938 c -0.157044,1.072932 -0.892,1.956452 -2,1.956452 H 20.3 c -1.108,0 -1.842956,-0.88352 -2,-1.956452 L 12,6 Z"
         id="rect4203-7-89"
         inkscape:connector-curvature="0"
         sodipodi:nodetypes="csssscc" />
      <path
         style="opacity:1;fill:#636a78;fill-opacity:1;stroke:#272a2f;stroke-width:0.99999994;stroke-linecap:butt;stroke-linejoin:miter;stroke-miterlimit:4;stroke-dasharray:none;stroke-dashoffset:0;stroke-opacity:0.78431373"
         d="m 55.8,13.500805 -4.3,43.041938 c -0.107794,1.078993 -0.892,1.956452 -2,1.956452 h -35 c -1.108,0 -1.892206,-0.877459 -2,-1.956452 L 8.2,13.500805 Z"
         id="rect4203-5"
         inkscape:connector-curvature="0"
         sodipodi:nodetypes="csssscc" />
      <path
         sodipodi:nodetypes="csccsccccccccsccccccsccccccccsccccccccccsccccccccscscccc"
         inkscape:connector-curvature="0"
         id="path4226-1-8-3"
         d="m 23.81157,41.641069 c -0.2559,0.4596 -0.45959,1.15111 -0.45959,1.58684 0,0.10115 0,0.22981 0.0251,0.40829 l -3.19843,-5.50069 c -0.10238,-0.17848 -0.17863,-0.43454 -0.17863,-0.66524 0,-0.231 0.0763,-0.51181 0.17863,-0.6906 l 1.53549,-2.6866 -1.71412,-0.97146 5.57798,-0.10326 2.71166,4.88646 -1.73918,-0.9977 z M 26.2684,25.536716 c 0.48573,-0.8452 1.27959,-1.305714 2.25104,-1.305714 1.04977,0 1.86872,0.486759 2.45679,1.483273 l 0.87011,1.458213 -3.01984,5.820801 -4.88646,-3.440414 z m 0.35722,20.530293 c -1.45821,0 -2.66052,-1.20245 -2.66052,-2.66063 0,-0.40948 0.17966,-1.10095 0.43557,-1.53549 l 0.81789,-1.45821 h 6.06473 v 5.65437 H 26.62562 Z M 31.48809,25.382116 C 31.1047,24.717761 30.59288,24.256062 29.97869,24 h 6.29348 c 0.563,0 0.99754,0.231002 1.25452,0.666418 l 1.56059,2.660631 1.68815,-0.998615 -2.71289,4.862275 -5.55082,-0.0782 1.71413,-0.97145 z m 9.69785,15.081863 c 0.76669,0 1.40702,-0.20472 1.94394,-0.61332 l -3.17337,5.52572 c -0.25591,0.43453 -0.71581,0.70852 -1.25258,0.6906 h -2.99477 v 1.97003 l -2.86524,-4.78408 2.86524,-4.7853 v 1.99631 h 5.47678 z m 2.45472,-4.6056 c 0.23085,0.40948 0.35932,0.84401 0.35932,1.30479 0,0.9213 -0.58913,1.89363 -1.40702,2.35327 -0.38438,0.20594 -0.9233,0.36591 -1.45821,0.33426 h -1.6901 l -3.01788,-5.22072 4.8866,-2.78898 z"
         style="fill:#ffffff;fill-opacity:1" />
    </g>
  </g>
</svg>
