<svg xmlns="http://www.w3.org/2000/svg" xmlns:xlink="http://www.w3.org/1999/xlink" width="96" height="96" viewBox="0 0 25.4 25.4"><defs><linearGradient id="b"><stop offset="0" stop-color="#66bcff"/><stop offset="1" stop-color="#b29aff"/></linearGradient><clipPath clipPathUnits="userSpaceOnUse" id="c"><rect ry=".265" y="282.448" x="1.058" height="12.171" width="14.817" fill="url(#a)" stroke-width=".535" stroke-opacity=".039" paint-order="stroke markers fill"/></clipPath><linearGradient xlink:href="#b" id="a" gradientUnits="userSpaceOnUse" x1="13.229" y1="297" x2="2.117" y2="280.067"/></defs><g transform="matrix(1.5 0 0 1.5 0 -419.968)" stroke-width=".667"><rect width="15.875" height="12.171" x=".529" y="282.448" ry=".265" fill="#636a78" stroke="#262a2f" stroke-width=".353" stroke-opacity=".784" paint-order="markers stroke fill"/><rect ry=".265" y="282.448" x=".529" height="12.171" width="15.875" fill="#636a78" paint-order="markers stroke fill"/><path d="M.794 282.448a.264.264 0 0 0-.265.265v.793h15.875v-.793a.264.264 0 0 0-.264-.265z" fill="#4a4f59" paint-order="stroke markers fill"/><rect ry=".176" y="282.801" x="1.587" height=".353" width="1.058" opacity=".35" paint-order="stroke markers fill"/><rect width="2.646" height=".353" x="7.144" y="282.801" ry=".176" opacity=".35" paint-order="stroke markers fill"/><rect ry=".176" y="282.801" x="15.169" height=".353" width=".353" opacity=".8" fill="#fff" paint-order="stroke markers fill"/><rect width=".882" height=".353" x="13.935" y="282.801" ry=".176" opacity=".35" paint-order="stroke markers fill"/><rect ry=".176" y="282.801" x="13.229" height=".353" width=".353" opacity=".35" paint-order="stroke markers fill"/><rect clip-path="url(#c)" ry=".529" y="293.56" x="3.44" height="2.646" width="10.054" transform="matrix(1.01754 0 0 1 -.149 0)" opacity=".15" fill="#fff" paint-order="stroke markers fill"/><rect ry=".141" y="292.678" x="4.41" height="1.411" width="1.411" fill="#999ea7" paint-order="stroke markers fill"/><rect width="1.411" height="1.411" x="6.703" y="292.678" ry=".141" fill="#999ea7" paint-order="stroke markers fill"/><rect ry=".141" y="292.678" x="8.819" height="1.411" width="1.411" fill="#999ea7" paint-order="stroke markers fill"/><rect width="1.411" height="1.411" x="11.113" y="292.678" ry=".141" fill="#999ea7" paint-order="stroke markers fill"/></g></svg>