<svg xmlns="http://www.w3.org/2000/svg" xmlns:xlink="http://www.w3.org/1999/xlink" width="96" height="96" viewBox="0 0 25.4 25.4"><defs><linearGradient id="a"><stop offset="0"/><stop offset="1" stop-opacity="0"/></linearGradient><clipPath clipPathUnits="userSpaceOnUse" id="b"><rect ry=".529" y="285.358" x=".529" height="9.525" width="15.875" transform="rotate(45)" fill="#5294e2" stroke-width=".251" stroke-opacity=".196" paint-order="markers stroke fill"/></clipPath><linearGradient xlink:href="#a" id="c" x1="-197.102" y1="217.681" x2="-196.914" y2="219.365" gradientUnits="userSpaceOnUse"/></defs><g transform="translate(0 -271.6)"><path d="M5.027 275.04c-.44 0-.592.403-.794.793H2.646c-.265 0-.265.265-.265.265v8.334c0 .44.354.794.794.794h19.05c.44 0 .794-.354.794-.794v-8.334c0-.265-.265-.265-.265-.265H11.642c-.233-.373-.354-.793-.794-.793z" fill="#fff" stroke="#000" stroke-width=".529" stroke-opacity=".255" paint-order="markers stroke fill"/><path d="M5.027 275.04c-.44 0-.592.403-.794.793H2.646c-.265 0-.265.265-.265.265v8.334c0 .44.354.794.794.794h19.05c.44 0 .794-.354.794-.794v-8.334c0-.265-.265-.265-.265-.265H11.642c-.233-.373-.354-.793-.794-.793z" fill="#fff" paint-order="markers stroke fill"/><path d="M12.7 281.125c-.44 0-.572.546-.794.926l-.232.397H1.058c-.264 0-.264.264-.264.264v10.584c0 .264.264.264.264.264h23.284s.264 0 .264-.264V281.39c0-.265-.264-.265-.264-.265z" fill="#5294e2" stroke="#003479" stroke-width=".529" stroke-opacity=".561" paint-order="markers stroke fill"/><path d="M12.7 281.125c-.44 0-.572.546-.794.926l-.232.397H1.058c-.264 0-.264.264-.264.264v10.584c0 .264.264.264.264.264h23.284s.264 0 .264-.264V281.39c0-.265-.264-.265-.264-.265z" fill="#5294e2" paint-order="markers stroke fill"/><rect clip-path="url(#b)" transform="rotate(-45 -179.575 -74.382) scale(1.5)" ry=".132" y="217.868" x="-199.587" height="4.762" width="5.292" opacity=".1" fill="url(#c)" paint-order="stroke markers fill"/></g></svg>