<?xml version="1.0" encoding="UTF-8" standalone="no"?>
<!-- Created with Inkscape (http://www.inkscape.org/) -->

<svg
   xmlns:dc="http://purl.org/dc/elements/1.1/"
   xmlns:cc="http://creativecommons.org/ns#"
   xmlns:rdf="http://www.w3.org/1999/02/22-rdf-syntax-ns#"
   xmlns:svg="http://www.w3.org/2000/svg"
   xmlns="http://www.w3.org/2000/svg"
   xmlns:xlink="http://www.w3.org/1999/xlink"
   xmlns:sodipodi="http://sodipodi.sourceforge.net/DTD/sodipodi-0.dtd"
   xmlns:inkscape="http://www.inkscape.org/namespaces/inkscape"
   width="96"
   height="96"
   viewBox="0 0 25.399999 25.400001"
   version="1.1"
   id="svg8"
   inkscape:version="0.92.4 (5da689c313, 2019-01-14)"
   sodipodi:docname="default-folder-open.svg">
  <defs
     id="defs2">
    <linearGradient
       inkscape:collect="always"
       id="linearGradient835">
      <stop
         style="stop-color:#000000;stop-opacity:1;"
         offset="0"
         id="stop831" />
      <stop
         style="stop-color:#000000;stop-opacity:0;"
         offset="1"
         id="stop833" />
    </linearGradient>
    <clipPath
       clipPathUnits="userSpaceOnUse"
       id="clipPath827">
      <rect
         ry="0.52915645"
         y="285.35831"
         x="0.52916664"
         height="9.5249939"
         width="15.875"
         id="rect829"
         style="opacity:1;fill:#5294e2;fill-opacity:1;stroke:none;stroke-width:0.25100571;stroke-miterlimit:4;stroke-dasharray:none;stroke-opacity:0.19607843;paint-order:markers stroke fill"
         transform="rotate(45)" />
    </clipPath>
    <linearGradient
       inkscape:collect="always"
       xlink:href="#linearGradient835"
       id="linearGradient837"
       x1="-197.10156"
       y1="217.68132"
       x2="-196.91447"
       y2="219.36513"
       gradientUnits="userSpaceOnUse" />
    <clipPath
       clipPathUnits="userSpaceOnUse"
       id="clipPath827-5-3">
      <rect
         ry="0.52915645"
         y="285.35831"
         x="0.52916664"
         height="9.5249939"
         width="15.875"
         id="rect829-3-6"
         style="opacity:1;fill:#5677fc;fill-opacity:1;stroke:none;stroke-width:0.25100571;stroke-miterlimit:4;stroke-dasharray:none;stroke-opacity:0.19607843;paint-order:markers stroke fill"
         transform="rotate(45)" />
    </clipPath>
    <clipPath
       clipPathUnits="userSpaceOnUse"
       id="clipPath827-7-3">
      <rect
         ry="0.52915645"
         y="285.35831"
         x="0.52916664"
         height="9.5249939"
         width="15.875"
         id="rect829-5-6"
         style="opacity:1;fill:#5677fc;fill-opacity:1;stroke:none;stroke-width:0.25100571;stroke-miterlimit:4;stroke-dasharray:none;stroke-opacity:0.19607843;paint-order:markers stroke fill"
         transform="rotate(45)" />
    </clipPath>
  </defs>
  <sodipodi:namedview
     id="base"
     pagecolor="#ffffff"
     bordercolor="#666666"
     borderopacity="1.0"
     inkscape:pageopacity="0.0"
     inkscape:pageshadow="2"
     inkscape:zoom="2.8"
     inkscape:cx="-3.4879322"
     inkscape:cy="50.73383"
     inkscape:document-units="mm"
     inkscape:current-layer="layer1"
     showgrid="true"
     units="px"
     inkscape:window-width="1366"
     inkscape:window-height="710"
     inkscape:window-x="0"
     inkscape:window-y="0"
     inkscape:window-maximized="1"
     inkscape:snap-bbox="true"
     inkscape:bbox-paths="true"
     inkscape:bbox-nodes="true"
     inkscape:snap-bbox-edge-midpoints="true"
     inkscape:snap-bbox-midpoints="true"
     inkscape:snap-intersection-paths="true"
     inkscape:object-paths="true"
     inkscape:snap-midpoints="true"
     inkscape:snap-smooth-nodes="true"
     inkscape:snap-object-midpoints="true"
     inkscape:snap-center="true">
    <inkscape:grid
       type="xygrid"
       id="grid3713" />
  </sodipodi:namedview>
  <metadata
     id="metadata5">
    <rdf:RDF>
      <cc:Work
         rdf:about="">
        <dc:format>image/svg+xml</dc:format>
        <dc:type
           rdf:resource="http://purl.org/dc/dcmitype/StillImage" />
        <dc:title></dc:title>
      </cc:Work>
    </rdf:RDF>
  </metadata>
  <g
     inkscape:label="Layer 1"
     inkscape:groupmode="layer"
     id="layer1"
     transform="translate(0,-271.59996)">
    <g
       id="g870">
      <path
         sodipodi:nodetypes="scscsssssccss"
         inkscape:connector-curvature="0"
         id="path829"
         d="m 5.0270833,275.03954 c -0.4397292,0 -0.5915893,0.40325 -0.79375,0.79375 h -1.5875 c -0.2645833,0 -0.2645833,0.26459 -0.2645833,0.26459 l -1e-7,8.33435 c 0,0.43974 0.3540091,0.79376 0.7937499,0.79376 H 22.224999 c 0.439741,0 0.79375,-0.35402 0.79375,-0.79376 l 1e-6,-8.33435 c 0,-0.26459 -0.264583,-0.26459 -0.264583,-0.26459 h -11.1125 c -0.233053,-0.37289 -0.354021,-0.79375 -0.79375,-0.79375 z"
         style="opacity:1;fill:#ffffff;fill-opacity:1;stroke:#000000;stroke-width:0.5291667;stroke-miterlimit:4;stroke-dasharray:none;stroke-opacity:0.25490196;paint-order:markers stroke fill" />
      <path
         style="opacity:1;fill:#ffffff;fill-opacity:1;stroke:none;stroke-width:0.5291667;stroke-miterlimit:4;stroke-dasharray:none;stroke-opacity:0.25490196;paint-order:markers stroke fill"
         d="m 5.0270833,275.03954 c -0.4397292,0 -0.5915893,0.40325 -0.79375,0.79375 h -1.5875 c -0.2645833,0 -0.2645833,0.26459 -0.2645833,0.26459 l -1e-7,8.33435 c 0,0.43974 0.3540091,0.79376 0.7937499,0.79376 H 22.224999 c 0.439741,0 0.79375,-0.35402 0.79375,-0.79376 l 1e-6,-8.33435 c 0,-0.26459 -0.264583,-0.26459 -0.264583,-0.26459 h -11.1125 c -0.233053,-0.37289 -0.354021,-0.79375 -0.79375,-0.79375 z"
         id="path861"
         inkscape:connector-curvature="0"
         sodipodi:nodetypes="scscsssssccss" />
      <path
         sodipodi:nodetypes="sccscscccccscs"
         inkscape:connector-curvature="0"
         id="rect822"
         d="m 12.7,281.12496 c -0.439743,0 -0.572178,0.54617 -0.79375,0.92601 l -0.231769,0.39688 -10.6161477,3e-5 c -0.2645833,0 -0.2645833,0.26458 -0.2645833,0.26458 v 10.58333 c 0,0.26459 0.2645833,0.26459 0.2645833,0.26459 H 24.341667 c 0,0 0.264583,0 0.264583,-0.26459 l 0,-5.29169 v -4.7625 l 0,-1.85206 c 0,-0.26458 -0.264583,-0.26458 -0.264583,-0.26458 z"
         style="opacity:1;fill:#5294e2;fill-opacity:1;stroke:#003479;stroke-width:0.5291667;stroke-miterlimit:4;stroke-dasharray:none;stroke-opacity:0.56078384;paint-order:markers stroke fill" />
      <path
         style="opacity:1;fill:#5294e2;fill-opacity:1;stroke:none;stroke-width:0.5291667;stroke-miterlimit:4;stroke-dasharray:none;stroke-opacity:0.56078384;paint-order:markers stroke fill"
         d="m 12.7,281.12496 c -0.439743,0 -0.572178,0.54617 -0.79375,0.92601 l -0.231769,0.39688 -10.6161477,3e-5 c -0.2645833,0 -0.2645833,0.26458 -0.2645833,0.26458 v 10.58333 c 0,0.26459 0.2645833,0.26459 0.2645833,0.26459 H 24.341667 c 0,0 0.264583,0 0.264583,-0.26459 l 0,-5.29169 v -4.7625 l 0,-1.85206 c 0,-0.26458 -0.264583,-0.26458 -0.264583,-0.26458 z"
         id="path863"
         inkscape:connector-curvature="0"
         sodipodi:nodetypes="sccscscccccscs" />
      <rect
         clip-path="url(#clipPath827)"
         transform="matrix(1.0606602,-1.0606602,1.0606602,1.0606602,-1.7e-7,-148.76459)"
         ry="0.13229166"
         y="217.86841"
         x="-199.58691"
         height="4.7624998"
         width="5.2916665"
         id="rect819"
         style="opacity:0.1;fill:url(#linearGradient837);fill-opacity:1;stroke:none;stroke-width:0.35277775;stroke-miterlimit:4;stroke-dasharray:none;stroke-opacity:0.03921569;paint-order:stroke markers fill" />
    </g>
  </g>
</svg>
