<?xml version="1.0" encoding="UTF-8" standalone="no"?>
<!-- Created with Inkscape (http://www.inkscape.org/) -->

<svg
   xmlns:dc="http://purl.org/dc/elements/1.1/"
   xmlns:cc="http://creativecommons.org/ns#"
   xmlns:rdf="http://www.w3.org/1999/02/22-rdf-syntax-ns#"
   xmlns:svg="http://www.w3.org/2000/svg"
   xmlns="http://www.w3.org/2000/svg"
   xmlns:xlink="http://www.w3.org/1999/xlink"
   xmlns:sodipodi="http://sodipodi.sourceforge.net/DTD/sodipodi-0.dtd"
   xmlns:inkscape="http://www.inkscape.org/namespaces/inkscape"
   width="96"
   height="96"
   viewBox="0 0 25.399999 25.400001"
   version="1.1"
   id="svg8"
   inkscape:version="0.92.4 (5da689c313, 2019-01-14)"
   sodipodi:docname="default-folder-saved-search.svg">
  <defs
     id="defs2">
    <clipPath
       clipPathUnits="userSpaceOnUse"
       id="clipPath827">
      <rect
         ry="0.52915645"
         y="285.35831"
         x="0.52916664"
         height="9.5249939"
         width="15.875"
         id="rect829"
         style="opacity:1;fill:#5294e2;fill-opacity:1;stroke:none;stroke-width:0.25100571;stroke-miterlimit:4;stroke-dasharray:none;stroke-opacity:0.19607843;paint-order:markers stroke fill"
         transform="rotate(45)" />
    </clipPath>
    <clipPath
       clipPathUnits="userSpaceOnUse"
       id="clipPath827-5">
      <rect
         ry="0.52915645"
         y="285.35831"
         x="0.52916664"
         height="9.5249939"
         width="15.875"
         id="rect829-3"
         style="opacity:1;fill:#5677fc;fill-opacity:1;stroke:none;stroke-width:0.25100571;stroke-miterlimit:4;stroke-dasharray:none;stroke-opacity:0.19607843;paint-order:markers stroke fill"
         transform="rotate(45)" />
    </clipPath>
    <clipPath
       clipPathUnits="userSpaceOnUse"
       id="clipPath827-5-3">
      <rect
         ry="0.52915645"
         y="285.35831"
         x="0.52916664"
         height="9.5249939"
         width="15.875"
         id="rect829-3-6"
         style="opacity:1;fill:#5677fc;fill-opacity:1;stroke:none;stroke-width:0.25100571;stroke-miterlimit:4;stroke-dasharray:none;stroke-opacity:0.19607843;paint-order:markers stroke fill"
         transform="rotate(45)" />
    </clipPath>
    <clipPath
       clipPathUnits="userSpaceOnUse"
       id="clipPath827-7">
      <rect
         ry="0.52915645"
         y="285.35831"
         x="0.52916664"
         height="9.5249939"
         width="15.875"
         id="rect829-5"
         style="opacity:1;fill:#5677fc;fill-opacity:1;stroke:none;stroke-width:0.25100571;stroke-miterlimit:4;stroke-dasharray:none;stroke-opacity:0.19607843;paint-order:markers stroke fill"
         transform="rotate(45)" />
    </clipPath>
    <linearGradient
       inkscape:collect="always"
       xlink:href="#linearGradient835"
       id="linearGradient837"
       x1="-197.10156"
       y1="217.68132"
       x2="-196.91447"
       y2="219.36513"
       gradientUnits="userSpaceOnUse" />
    <linearGradient
       inkscape:collect="always"
       id="linearGradient835">
      <stop
         style="stop-color:#000000;stop-opacity:1;"
         offset="0"
         id="stop831" />
      <stop
         style="stop-color:#000000;stop-opacity:0;"
         offset="1"
         id="stop833" />
    </linearGradient>
    <clipPath
       clipPathUnits="userSpaceOnUse"
       id="clipPath827-7-3">
      <rect
         ry="0.52915645"
         y="285.35831"
         x="0.52916664"
         height="9.5249939"
         width="15.875"
         id="rect829-5-6"
         style="opacity:1;fill:#5677fc;fill-opacity:1;stroke:none;stroke-width:0.25100571;stroke-miterlimit:4;stroke-dasharray:none;stroke-opacity:0.19607843;paint-order:markers stroke fill"
         transform="rotate(45)" />
    </clipPath>
  </defs>
  <sodipodi:namedview
     id="base"
     pagecolor="#ffffff"
     bordercolor="#666666"
     borderopacity="1.0"
     inkscape:pageopacity="0.0"
     inkscape:pageshadow="2"
     inkscape:zoom="1.4142136"
     inkscape:cx="-86.961509"
     inkscape:cy="81.493832"
     inkscape:document-units="mm"
     inkscape:current-layer="layer1"
     showgrid="true"
     units="px"
     inkscape:window-width="1366"
     inkscape:window-height="710"
     inkscape:window-x="0"
     inkscape:window-y="0"
     inkscape:window-maximized="1"
     inkscape:snap-bbox="true"
     inkscape:bbox-nodes="true"
     inkscape:object-paths="true"
     inkscape:snap-intersection-paths="true"
     inkscape:snap-smooth-nodes="true"
     inkscape:snap-object-midpoints="true"
     inkscape:bbox-paths="true"
     inkscape:snap-bbox-edge-midpoints="true"
     inkscape:snap-bbox-midpoints="true">
    <inkscape:grid
       type="xygrid"
       id="grid3713" />
  </sodipodi:namedview>
  <metadata
     id="metadata5">
    <rdf:RDF>
      <cc:Work
         rdf:about="">
        <dc:format>image/svg+xml</dc:format>
        <dc:type
           rdf:resource="http://purl.org/dc/dcmitype/StillImage" />
        <dc:title></dc:title>
      </cc:Work>
    </rdf:RDF>
  </metadata>
  <g
     inkscape:label="Layer 1"
     inkscape:groupmode="layer"
     id="layer1"
     transform="translate(0,-271.59996)">
    <g
       id="g881">
      <path
         sodipodi:nodetypes="scccsssssccss"
         style="opacity:1;fill:#ffffff;fill-opacity:1;stroke:#000000;stroke-width:0.5291667;stroke-miterlimit:4;stroke-dasharray:none;stroke-opacity:0.26666667;paint-order:markers stroke fill"
         d="m 5.1593742,274.77495 c -0.439729,0 -0.591589,0.40326 -0.7937502,0.79376 H 2.6458333 c -0.2645833,0 -0.2645833,0.26458 -0.2645833,0.26458 v 8.46667 c 0,0.43973 0.354009,0.79375 0.793749,0.79375 h 19.049997 c 0.439742,0 0.793751,-0.35402 0.793751,-0.79375 l 3e-6,-8.46667 c 0,-0.26458 -0.264583,-0.26458 -0.264583,-0.26458 H 11.509373 c -0.233052,-0.37289 -0.354021,-0.79376 -0.793749,-0.79376 z"
         id="rect4538"
         inkscape:connector-curvature="0" />
      <path
         inkscape:connector-curvature="0"
         id="path903"
         d="m 5.1593742,274.77495 c -0.439729,0 -0.591589,0.40326 -0.7937502,0.79376 H 2.6458333 c -0.2645833,0 -0.2645833,0.26458 -0.2645833,0.26458 v 8.46667 c 0,0.43973 0.354009,0.79375 0.793749,0.79375 h 19.049997 c 0.439742,0 0.793751,-0.35402 0.793751,-0.79375 l 3e-6,-8.46667 c 0,-0.26458 -0.264583,-0.26458 -0.264583,-0.26458 H 11.509373 c -0.233052,-0.37289 -0.354021,-0.79376 -0.793749,-0.79376 z"
         style="opacity:1;fill:#ffffff;fill-opacity:1;stroke:none;stroke-width:0.5291667;stroke-miterlimit:4;stroke-dasharray:none;stroke-opacity:0.26666667;paint-order:markers stroke fill"
         sodipodi:nodetypes="scccsssssccss" />
      <path
         inkscape:connector-curvature="0"
         id="rect822"
         transform="matrix(0.26458333,0,0,0.26458333,0,271.59996)"
         d="m 48,23 c -1.662017,0 -2.162563,1.564346 -3,3 l -1.75,3 H 4 c -0.5539976,0 -1,0.446024 -1,1 v 52 c 0,0.553976 0.4460024,1 1,1 h 88 c 0.553998,0 1,-0.446024 1,-1 V 48.5 30 24 c 0,-0.999987 -1,-1 -1,-1 z"
         style="opacity:1;fill:#6ba4e7;fill-opacity:1;stroke:#003579;stroke-width:2;stroke-miterlimit:4;stroke-dasharray:none;stroke-opacity:0.56078413;paint-order:markers stroke fill" />
      <rect
         ry="0.39686885"
         y="275.30414"
         x="5.5562482"
         height="0.79373771"
         width="4.7624998"
         id="rect817"
         style="opacity:0.25;fill:#000000;fill-opacity:1;stroke:none;stroke-width:0.71899027;stroke-miterlimit:4;stroke-dasharray:none;stroke-opacity:0.03921569;paint-order:stroke markers fill" />
      <path
         inkscape:connector-curvature="0"
         style="opacity:1;fill:#6ba4e7;fill-opacity:1;stroke:none;stroke-width:2;stroke-miterlimit:4;stroke-dasharray:none;stroke-opacity:0.56078413;paint-order:markers stroke fill"
         d="m 48,23 c -1.662017,0 -2.162563,1.564346 -3,3 l -1.75,3 H 4 c -0.5539976,0 -1,0.446024 -1,1 v 52 c 0,0.553976 0.4460024,1 1,1 h 88 c 0.553998,0 1,-0.446024 1,-1 V 48.5 30 24 c 0,-0.999987 -1,-1 -1,-1 z"
         transform="matrix(0.26458333,0,0,0.26458333,0,271.59996)"
         id="path874" />
      <rect
         clip-path="url(#clipPath827-7-3)"
         transform="matrix(1.0606602,-1.0606602,1.0606602,1.0606602,-3.6e-7,-148.76455)"
         ry="0.13229166"
         y="217.86841"
         x="-199.58691"
         height="4.7624998"
         width="5.2916665"
         id="rect819"
         style="opacity:0.1;fill:url(#linearGradient837);fill-opacity:1;stroke:none;stroke-width:0.35277775;stroke-miterlimit:4;stroke-dasharray:none;stroke-opacity:0.03921569;paint-order:stroke markers fill" />
    </g>
    <path
       style="display:inline;opacity:0.3;fill:#000000;fill-opacity:1;stroke:#474f56;stroke-width:0;stroke-linecap:butt;stroke-linejoin:miter;stroke-miterlimit:4;stroke-dasharray:none;stroke-dashoffset:0;stroke-opacity:1"
       d="m 13.888516,282.03391 c -0.65778,0 -1.313365,0.25314 -1.815253,0.75501 -0.883656,0.88365 -0.993458,2.24566 -0.321284,3.24498 -0.01535,0.0116 -0.03368,0.0188 -0.04821,0.0321 l -2.6505961,2.4257 c -0.209814,0.19256 -0.08893,0.63396 0.112448,0.83534 0.201375,0.20137 0.642779,0.32226 0.8353431,0.11244 l 2.4257,-2.65059 c 0.01323,-0.0145 0.02064,-0.0328 0.03212,-0.0482 0.999331,0.67218 2.361327,0.56236 3.244982,-0.32129 1.00375,-1.00375 1.00375,-2.62676 0,-3.63051 -0.501888,-0.50186 -1.157472,-0.755 -1.815253,-0.755 z m 0,1.02811 c 0.394679,0 0.791237,0.14867 1.092385,0.4498 0.602245,0.60225 0.602245,1.58248 0,2.18473 -0.602271,0.60225 -1.582499,0.60225 -2.184744,0 -0.602244,-0.60225 -0.602244,-1.58248 0,-2.18473 0.301123,-0.30113 0.69768,-0.4498 1.092359,-0.4498 z"
       id="path3820-71-1"
       inkscape:connector-curvature="0" />
  </g>
</svg>
