<svg width="16" height="16" version="1.1" xmlns="http://www.w3.org/2000/svg">
 <path d="m10.101 5.7008c0.10318 0 0.19158 0.037008 0.26379 0.10926l0.52602 0.52601c0.072208 0.072254 0.10931 0.15905 0.10926 0.26223 0 0.10323-0.037058 0.19153-0.10926 0.26379l-3.3278 3.3278c-0.072254 0.07221-0.16061 0.10926-0.26379 0.10926-0.10323 0-0.19002-0.03701-0.26223-0.10926l-0.52758-0.52601-1.4001-1.4001c-0.072254-0.072208-0.10926-0.16061-0.10926-0.26379 0-0.10323 0.037008-0.19153 0.10926-0.26379l0.52601-0.52602c0.072254-0.072254 0.16056-0.1077 0.26379-0.1077 0.10318 0 0.18997 0.035447 0.26223 0.1077l1.1379 1.1426 2.5395-2.5427c0.072206-0.072254 0.159-0.10926 0.26223-0.10926z" fill="#5d656b" fill-rule="evenodd"/>
 <path d="m8 1a7 7 0 0 0-7 7 7 7 0 0 0 7 7 7 7 0 0 0 7-7 7 7 0 0 0-7-7zm0 1a6 6 0 0 1 6 6 6 6 0 0 1-6 6 6 6 0 0 1-6-6 6 6 0 0 1 6-6z" fill="#5d656b"/>
</svg>
