<?xml version="1.0" encoding="UTF-8" standalone="no"?>
<svg
   xmlns:osb="http://www.openswatchbook.org/uri/2009/osb"
   xmlns:dc="http://purl.org/dc/elements/1.1/"
   xmlns:cc="http://creativecommons.org/ns#"
   xmlns:rdf="http://www.w3.org/1999/02/22-rdf-syntax-ns#"
   xmlns:svg="http://www.w3.org/2000/svg"
   xmlns="http://www.w3.org/2000/svg"
   width="16"
   version="1.1"
   style="enable-background:new"
   id="svg7384"
   height="16">
  <metadata
     id="metadata90">
    <rdf:RDF>
      <cc:Work
         rdf:about="">
        <dc:format>image/svg+xml</dc:format>
        <dc:type
           rdf:resource="http://purl.org/dc/dcmitype/StillImage" />
        <dc:title>Moka Symbolic Icon Theme</dc:title>
      </cc:Work>
    </rdf:RDF>
  </metadata>
  <title
     id="title8473">Moka Symbolic Icon Theme</title>
  <defs
     id="defs7386">
    <linearGradient
       osb:paint="solid"
       id="linearGradient5606">
      <stop
         style="stop-color:#000000;stop-opacity:1;"
         offset="0"
         id="stop5608" />
    </linearGradient>
    <filter
       style="color-interpolation-filters:sRGB"
       id="filter7554">
      <feBlend
         mode="darken"
         in2="BackgroundImage"
         id="feBlend7556" />
    </filter>
  </defs>
  <g
     transform="translate(-261.00021,308.00336)"
     style="display:inline"
     id="layer9">
    <path
       style="fill:#bebebe;fill-opacity:1;stroke:none"
       id="path6273"
       d="m 267.49679,-307.00336 c -0.79399,9.7e-4 -0.78072,0.0333 -0.53125,1.03125 l 1.625,4.96875 -4.5,0 -1.21875,-1.78125 c -0.13926,-0.20883 -0.1227,-0.21873 -0.34375,-0.21875 l -0.21875,0 c -0.42773,0 -0.28125,0.4375 -0.28125,0.4375 l 0.28125,2.5625 -0.28125,2.5625 c 0,0 -0.13986,0.43749 0.25,0.4375 l 0.25,0 c 0.21159,0 0.20422,-0.009 0.34375,-0.21875 l 1.21875,-1.78125 4.5,0 -1.625,4.9375 c -0.26171,1.04691 -0.2647,1.06251 0.53125,1.0625 0.43199,0 0.43388,-0.0117 0.71875,-0.5 l 3.6875,-5.5 3.09375,0 c 0.554,0 1,-0.446 1,-1 0,-0.554 -0.446,-1 -1,-1 l -3.09375,0 -3.6875,-5.5 c -0.2665,-0.45685 -0.28331,-0.49822 -0.65625,-0.5 l -0.0625,0 z" />
  </g>
  <g
     transform="translate(-261.00021,308.00336)"
     style="display:inline;filter:url(#filter7554)"
     id="layer10" />
  <g
     transform="translate(-20.000014,-308.99664)"
     style="display:inline"
     id="layer1" />
  <g
     transform="translate(-261.00021,308.00336)"
     style="display:inline"
     id="layer14" />
  <g
     transform="translate(-261.00021,308.00336)"
     style="display:inline"
     id="layer15" />
  <g
     transform="translate(-261.00021,308.00336)"
     style="display:inline"
     id="g71291" />
  <g
     transform="translate(-20.000014,-158.99664)"
     style="display:inline"
     id="layer2" />
  <g
     transform="translate(-20.000014,-158.99664)"
     style="display:inline"
     id="g6058" />
  <g
     transform="translate(-261.00021,308.00336)"
     style="display:inline"
     id="layer12" />
</svg>
