<svg xmlns="http://www.w3.org/2000/svg" width="16" height="16" enable-background="new"><defs><filter id="a" color-interpolation-filters="sRGB"><feBlend mode="darken" in2="BackgroundImage"/></filter></defs><g color="#000" fill="#5d656b"><path style="marker:none" d="M8 3a6 6 0 1 0 0 12A6 6 0 0 0 8 3zm0 2a4 4 0 1 1 0 8 4 4 0 0 1 0-8zm1.969 1.531a.504.504 0 0 0-.25.157L8.062 8.344 6.906 7.188c-.157-.257-.568-.307-.781-.094-.213.213-.163.624.093.781l1.5 1.5a.519.519 0 0 0 .688 0l2-2c.293-.298-.025-.911-.438-.844zM5 1a3 3 0 0 0-3 3c0 .38.09.728.219 1.063 1.128-1.648 2.941-2.81 5.03-3.032A2.982 2.982 0 0 0 5 1zM11 1c-.9 0-1.7.403-2.25 1.031 2.09.222 3.903 1.384 5.031 3.031C13.91 4.729 14 4.38 14 4a3 3 0 0 0-3-3z" overflow="visible" enable-background="new"/><path style="marker:none" d="M4.572 13.379l-.5 1.25.01.004a.923.923 0 0 0-.08.367c0 .524.475 1 .998 1 .396 0 .764-.273.92-.633l.008.004.5-1.25-1.856-.742zM11.428 13.379l-1.856.742.5 1.25.01-.004c.156.36.522.633.918.633.523 0 1-.477 1-1a.921.921 0 0 0-.08-.367l.008-.004-.5-1.25z" overflow="visible" enable-background="new"/></g></svg>