<?xml version="1.0" encoding="UTF-8" standalone="no"?>
<svg
   xmlns:osb="http://www.openswatchbook.org/uri/2009/osb"
   xmlns:dc="http://purl.org/dc/elements/1.1/"
   xmlns:cc="http://creativecommons.org/ns#"
   xmlns:rdf="http://www.w3.org/1999/02/22-rdf-syntax-ns#"
   xmlns:svg="http://www.w3.org/2000/svg"
   xmlns="http://www.w3.org/2000/svg"
   width="16"
   version="1.1"
   style="enable-background:new"
   id="svg7384"
   height="16.000099">
  <metadata
     id="metadata90">
    <rdf:RDF>
      <cc:Work
         rdf:about="">
        <dc:format>image/svg+xml</dc:format>
        <dc:type
           rdf:resource="http://purl.org/dc/dcmitype/StillImage" />
        <dc:title>Moka Symbolic Icon Theme</dc:title>
      </cc:Work>
    </rdf:RDF>
  </metadata>
  <title
     id="title8473">Moka Symbolic Icon Theme</title>
  <defs
     id="defs7386">
    <linearGradient
       osb:paint="solid"
       id="linearGradient5606">
      <stop
         style="stop-color:#000000;stop-opacity:1;"
         offset="0"
         id="stop5608" />
    </linearGradient>
    <filter
       style="color-interpolation-filters:sRGB"
       id="filter7554">
      <feBlend
         mode="darken"
         in2="BackgroundImage"
         id="feBlend7556" />
    </filter>
  </defs>
  <g
     transform="translate(-461.0002,208.00336)"
     style="display:inline"
     id="layer9">
    <path
       style="color:#000000;display:inline;overflow:visible;visibility:visible;fill:#bebebe;fill-opacity:1;fill-rule:nonzero;stroke:none;stroke-width:2;marker:none;enable-background:new"
       id="path6324"
       d="m 468.99999,-205.00336 c -3.31371,0 -6,2.68629 -6,6 0,3.31371 2.68629,6 6,6 3.31371,0 6,-2.68629 6,-6 0,-3.31371 -2.68629,-6 -6,-6 z m 0,2 c 2.20914,0 4,1.79086 4,4 0,2.20914 -1.79086,4 -4,4 -2.20914,0 -4,-1.79086 -4,-4 0,-2.20914 1.79086,-4 4,-4 z m 1.96875,1.53125 c -0.0964,0.0256 -0.18476,0.0808 -0.25,0.15625 l -1.65625,1.65625 -1.15625,-1.15625 c -0.15717,-0.25698 -0.56824,-0.30673 -0.78125,-0.0937 -0.21301,0.21299 -0.16326,0.62406 0.0937,0.78125 l 1.5,1.5 c 0.1835,0.17369 0.504,0.17369 0.6875,0 l 2,-2 c 0.29287,-0.29845 -0.0248,-0.91114 -0.4375,-0.84375 z" />
    <path
       style="color:#000000;display:inline;overflow:visible;visibility:visible;fill:#bebebe;fill-opacity:1;fill-rule:nonzero;stroke:none;stroke-width:2;marker:none;enable-background:new"
       id="path6347"
       d="m 466,-207.00336 c -1.65685,0 -3,1.34315 -3,3 0,0.3797 0.0901,0.72814 0.21875,1.0625 1.12852,-1.64797 2.94185,-2.80968 5.03125,-3.03125 -0.54989,-0.628 -1.34969,-1.03125 -2.25,-1.03125 z" />
    <path
       style="color:#000000;display:inline;overflow:visible;visibility:visible;fill:#bebebe;fill-opacity:1;fill-rule:nonzero;stroke:none;stroke-width:2;marker:none;enable-background:new"
       id="path6349"
       d="m 472,-207.00336 c -0.90031,0 -1.70011,0.40325 -2.25,1.03125 2.0894,0.22157 3.90273,1.38328 5.03125,3.03125 0.12869,-0.33436 0.21875,-0.6828 0.21875,-1.0625 0,-1.65685 -1.34315,-3 -3,-3 z" />
    <path
       style="color:#000000;display:inline;overflow:visible;visibility:visible;fill:#bebebe;fill-opacity:1;fill-rule:nonzero;stroke:none;stroke-width:2;marker:none;enable-background:new"
       id="path6386"
       d="m 465.57227,-194.62445 -0.5,1.25 0.01,0.004 c -0.0502,0.11572 -0.0801,0.23968 -0.0801,0.36719 0,0.52354 0.47478,0.99997 0.99805,1 0.39583,2e-5 0.76363,-0.27338 0.91992,-0.63281 l 0.008,0.004 0.5,-1.25 -1.85546,-0.74218 z" />
    <path
       style="color:#000000;display:inline;overflow:visible;visibility:visible;fill:#bebebe;fill-opacity:1;fill-rule:nonzero;stroke:none;stroke-width:2;marker:none;enable-background:new"
       id="path6388"
       d="m 472.42773,-194.62445 -1.85546,0.74218 0.5,1.25 0.01,-0.004 c 0.15604,0.3594 0.52214,0.63279 0.91797,0.63281 0.52327,3e-5 1,-0.4764 1,-1 0,-0.12752 -0.0298,-0.25147 -0.0801,-0.36719 l 0.008,-0.004 -0.5,-1.25 z" />
  </g>
  <g
     transform="translate(-461.0002,208.00336)"
     style="display:inline;filter:url(#filter7554)"
     id="layer10" />
  <g
     transform="translate(-220,-408.99664)"
     style="display:inline"
     id="layer1" />
  <g
     transform="translate(-461.0002,208.00336)"
     style="display:inline"
     id="layer14" />
  <g
     transform="translate(-461.0002,208.00336)"
     style="display:inline"
     id="layer15" />
  <g
     transform="translate(-461.0002,208.00336)"
     style="display:inline"
     id="g71291" />
  <g
     transform="translate(-220,-258.99664)"
     style="display:inline"
     id="layer2" />
  <g
     transform="translate(-220,-258.99664)"
     style="display:inline"
     id="g6058" />
  <g
     transform="translate(-461.0002,208.00336)"
     style="display:inline"
     id="layer12" />
</svg>
