<svg xmlns="http://www.w3.org/2000/svg" width="16" height="16" enable-background="new"><defs><filter id="a" color-interpolation-filters="sRGB"><feBlend mode="darken" in2="BackgroundImage"/></filter></defs><path style="marker:none" d="M8 1a7 7 0 0 0-7 7c0 3.525 2.61 6.419 6 6.906v-2A5.017 5.017 0 0 1 3 8a5 5 0 0 1 5-5 5.017 5.017 0 0 1 4.906 4h2C14.42 3.61 11.525 1 8 1z" color="#5d656b" overflow="visible" fill="#5d656b" enable-background="accumulate"/><path style="line-height:normal;-inkscape-font-specification:Sans;text-indent:0;text-align:start;text-decoration-line:none;text-transform:none;block-progression:tb;marker:none" d="M10.406 5.188a.504.504 0 0 0-.25.156L8.5 7h1.375l.969-.969c.293-.298-.025-.91-.438-.843zm-4.656.437a.474.474 0 0 0-.187.125c-.213.213-.164.624.093.781l1.375 1.375c.055-.356.28-.633.594-.781L6.344 5.844a.539.539 0 0 0-.594-.219z" color="#000" font-weight="400" font-family="Sans" overflow="visible" fill="#5d656b" enable-background="accumulate"/><path style="marker:none" d="M8.875 8.07A.86.86 0 0 0 8 8.936v6.196a.86.86 0 0 0 .875.867h6.25a.86.86 0 0 0 .875-.867V8.937a.86.86 0 0 0-.875-.868h-6.25zM11 9.06h2v3.966h-2V9.061zm0 4.957h2v.992h-2v-.992z" class="warning" color="#5d656b" overflow="visible" fill="#f57900" enable-background="new"/></svg>