<?xml version="1.0" encoding="UTF-8" standalone="no"?>
<svg
   xmlns:osb="http://www.openswatchbook.org/uri/2009/osb"
   xmlns:dc="http://purl.org/dc/elements/1.1/"
   xmlns:cc="http://creativecommons.org/ns#"
   xmlns:rdf="http://www.w3.org/1999/02/22-rdf-syntax-ns#"
   xmlns:svg="http://www.w3.org/2000/svg"
   xmlns="http://www.w3.org/2000/svg"
   width="16.000017"
   version="1.1"
   style="enable-background:new"
   id="svg7384"
   height="16">
  <metadata
     id="metadata90">
    <rdf:RDF>
      <cc:Work
         rdf:about="">
        <dc:format>image/svg+xml</dc:format>
        <dc:type
           rdf:resource="http://purl.org/dc/dcmitype/StillImage" />
        <dc:title>Moka Symbolic Icon Theme</dc:title>
      </cc:Work>
    </rdf:RDF>
  </metadata>
  <title
     id="title8473">Moka Symbolic Icon Theme</title>
  <defs
     id="defs7386">
    <linearGradient
       osb:paint="solid"
       id="linearGradient5606">
      <stop
         style="stop-color:#000000;stop-opacity:1;"
         offset="0"
         id="stop5608" />
    </linearGradient>
    <filter
       style="color-interpolation-filters:sRGB"
       id="filter7554">
      <feBlend
         mode="darken"
         in2="BackgroundImage"
         id="feBlend7556" />
    </filter>
  </defs>
  <g
     transform="translate(-421.00018,208.00336)"
     style="display:inline"
     id="layer9">
    <path
       style="color:#bebebe;display:inline;overflow:visible;visibility:visible;fill:#bebebe;fill-opacity:1;fill-rule:nonzero;stroke:none;stroke-width:2;marker:none;enable-background:accumulate"
       id="path5118-0"
       d="m 429.0002,-207.00336 c -3.86599,0 -7,3.13401 -7,7 0,3.52482 2.61003,6.41897 6,6.90625 l 0,-2 c -2.27842,-0.46623 -4,-2.49001 -4,-4.90625 0,-2.76142 2.23857,-5 5,-5 2.41624,0 4.44002,1.72159 4.90625,4 l 2,0 c -0.48728,-3.38997 -3.38143,-6 -6.90625,-6 z" />
    <path
       style="color:#000000;font-style:normal;font-variant:normal;font-weight:normal;font-stretch:normal;font-size:medium;line-height:normal;font-family:Sans;-inkscape-font-specification:Sans;text-indent:0;text-align:start;text-decoration:none;text-decoration-line:none;letter-spacing:normal;word-spacing:normal;text-transform:none;direction:ltr;block-progression:tb;writing-mode:lr-tb;baseline-shift:baseline;text-anchor:start;display:inline;overflow:visible;visibility:visible;fill:#bebebe;fill-opacity:1;stroke:none;stroke-width:1;marker:none;enable-background:accumulate"
       id="path4639-9-2"
       d="m 431.40645,-202.81586 c -0.0964,0.0256 -0.18476,0.0808 -0.25,0.15625 l -1.65625,1.65625 1.375,0 0.96875,-0.96875 c 0.29287,-0.29845 -0.0248,-0.91114 -0.4375,-0.84375 z m -4.65625,0.4375 c -0.0709,0.0214 -0.13425,0.0718 -0.1875,0.125 -0.21301,0.21301 -0.16326,0.62407 0.0937,0.78125 l 1.375,1.375 c 0.0551,-0.35618 0.27911,-0.63296 0.59375,-0.78125 l -1.28125,-1.28125 c -0.11789,-0.19273 -0.38121,-0.28286 -0.59375,-0.21875 z" />
    <path
       style="color:#bebebe;display:inline;overflow:visible;visibility:visible;fill:#f57900;fill-opacity:1;fill-rule:nonzero;stroke:none;stroke-width:2;marker:none;enable-background:new"
       id="path10898-2-9-4-4"
       d="m 429.8752,-199.93387 c -0.49245,0 -0.875,0.37924 -0.875,0.8674 l 0,6.19571 c 0,0.48816 0.38255,0.8674 0.875,0.8674 l 6.25,0 c 0.49245,0 0.875,-0.37924 0.875,-0.8674 l 0,-6.19571 c 0,-0.48816 -0.38255,-0.8674 -0.875,-0.8674 l -6.25,0 z m 2.125,0.99131 2,0 0,3.96526 -2,0 0,-3.96526 z m 0,4.95657 2,0 0,0.99132 -2,0 0,-0.99132 z"
       class="warning" />
  </g>
  <g
     transform="translate(-421.00018,208.00336)"
     style="display:inline;filter:url(#filter7554)"
     id="layer10" />
  <g
     transform="translate(-179.99998,-408.99664)"
     style="display:inline"
     id="layer1" />
  <g
     transform="translate(-421.00018,208.00336)"
     style="display:inline"
     id="layer14" />
  <g
     transform="translate(-421.00018,208.00336)"
     style="display:inline"
     id="layer15" />
  <g
     transform="translate(-421.00018,208.00336)"
     style="display:inline"
     id="g71291" />
  <g
     transform="translate(-179.99998,-258.99664)"
     style="display:inline"
     id="layer2" />
  <g
     transform="translate(-179.99998,-258.99664)"
     style="display:inline"
     id="g6058" />
  <g
     transform="translate(-421.00018,208.00336)"
     style="display:inline"
     id="layer12" />
</svg>
