<svg width="16" height="16" version="1.1" xmlns="http://www.w3.org/2000/svg">
 <path d="m8 5c0.61792 0.00131 1.2204 0.19339 1.725 0.55l0.275-0.55 1 2h-2l0.27-0.54c-0.35718-0.29597-0.80613-0.45859-1.27-0.46-1.1046 0-2 0.89543-2 2h-1c0-1.6569 1.3431-3 3-3zm2 3h1c0 1.6569-1.3431 3-3 3-0.61802-0.001663-1.2205-0.19409-1.725-0.551l-0.275 0.551-1-2h2l-0.27 0.54c0.35718 0.29597 0.80613 0.45859 1.27 0.46 1.1046 0 2-0.89543 2-2z" fill="#5d656b"/>
 <path d="m8 1-6 2c0 3.9895-0.017497 6.0713 0.70898 7.6543 0.72698 1.5834 2.2176 2.6261 5.291 4.3457 3.0734-1.7196 4.564-2.7618 5.291-4.3457 0.72648-1.583 0.70948-3.6653 0.70898-7.6543zm0 1 5 1.7148c4.17e-4 3.4192 0.01556 5.2037-0.58984 6.5605-0.60582 1.3577-1.849 2.2507-4.4102 3.7246-2.5612-1.4739-3.8043-2.3674-4.4102-3.7246-0.6054-1.3568-0.58984-3.141-0.58984-6.5605z" color="#000000" fill="#5d656b" solid-color="#000000" stroke-width=".4913" style="isolation:auto;mix-blend-mode:normal"/>
</svg>
