<svg width="16" height="16" version="1.1" xmlns="http://www.w3.org/2000/svg">
 <rect x="6" y="5" width="3" height="5" rx="0" ry="0" fill="#5d656b" opacity=".35" style="paint-order:stroke fill markers"/>
 <g fill="#5d656b" stroke-linecap="round" stroke-linejoin="round" stroke-width="2" style="paint-order:stroke fill markers" aria-label="">
  <path d="m5.5 0c-0.20833 0-0.40364 0.039061-0.58594 0.11719s-0.34115 0.1849-0.47656 0.32031-0.24219 0.29427-0.32031 0.47656c-0.078127 0.18229-0.11719 0.3776-0.11719 0.58594v9c0 0.20833 0.039061 0.40364 0.11719 0.58594 0.078127 0.18229 0.1849 0.34115 0.32031 0.47656s0.29427 0.24219 0.47656 0.32031c0.18229 0.078127 0.3776 0.11719 0.58594 0.11719h4c0.20833 0 0.40364-0.03906 0.58594-0.11719 0.18229-0.07813 0.34115-0.1849 0.47656-0.32031s0.24218-0.29427 0.32031-0.47656c0.07813-0.18229 0.11719-0.3776 0.11719-0.58594v-9c0-0.20833-0.039061-0.40364-0.11719-0.58594-0.078126-0.18229-0.1849-0.34115-0.32031-0.47656s-0.29427-0.24219-0.47656-0.32031c-0.18229-0.078127-0.3776-0.11719-0.58594-0.11719zm0 1h4c0.13541 0 0.2526 0.049478 0.35156 0.14844s0.14844 0.21615 0.14844 0.35156v9c0 0.13541-0.049478 0.2526-0.14844 0.35156-0.09896 0.09896-0.21615 0.14844-0.35156 0.14844h-4c-0.13541 0-0.2526-0.049478-0.35156-0.14844-0.09896-0.098959-0.14844-0.21615-0.14844-0.35156v-9c0-0.13541 0.049478-0.2526 0.14844-0.35156s0.21615-0.14844 0.35156-0.14844zm-3.5 7v2.6133c0 1.876 1.5107 3.3867 3.3867 3.3867h1.6133v1h-2v1h5v-1h-2v-1h1.6133c1.876 0 3.3867-1.5107 3.3867-3.3867v-2.6133h-1v2.6348c0 1.3102-1.055 2.3652-2.3652 2.3652h-4.2695c-1.3102 0-2.3652-1.055-2.3652-2.3652v-2.6348z" fill="#5d656b"/>
 </g>
</svg>
