<svg width="16" height="16" enable-background="new" version="1.1" xmlns="http://www.w3.org/2000/svg">
 <path d="m12.188 1a0.5 0.5 0 0 0-0.125 0.90625c3.0554 2.4006 3.8142 6.6694 1.9277 9.9629l0.71875 0.71875c2.2992-3.7441 1.4652-8.7292-2.0527-11.494a0.5 0.5 0 0 0-0.40625-0.09375 0.5 0.5 0 0 0-0.0625 0zm-4.7188 1-1.6738 1.6738 2.2051 2.2051v-3.8789h-0.5293-0.0019531zm3.252 1.125a0.5 0.5 0 0 0-0.1582 0.90625c1.772 1.4585 2.3102 3.8689 1.4922 5.9023l0.75586 0.75586c1.2063-2.5011 0.60306-5.608-1.623-7.4395a0.5 0.5 0 0 0-0.40625-0.125 0.5 0.5 0 0 0-0.060547 0zm-5.6328 1.2559-0.61719 0.61914h-2.4707v6h2.4688l3.0625 3.0312 0.46875-0.03125v-6.707l-2.9121-2.9121zm4.2246 0.96289a0.5 0.5 0 0 0-0.1875 0.875c0.42054 0.42397 0.65867 0.95605 0.71875 1.5039l0.95508 0.95508c0.21475-1.117-0.10214-2.3179-0.95508-3.1777a0.5 0.5 0 0 0-0.4707-0.15625 0.5 0.5 0 0 0-0.060547 0zm0.35547 3.6172c-0.12261 0.29706-0.30232 0.57672-0.54297 0.82031-8e-3 8e-3 4e-3 0.02825 0 0.03125a0.5 0.5 0 1 0 0.6875 0.6875c8e-3 -8e-3 0.02725 4e-3 0.03125 0 0.2345-0.23778 0.42633-0.50258 0.58008-0.7832l-0.75586-0.75586zm1.9004 1.9004c-0.088054 0.13274-0.18336 0.26224-0.28516 0.38867-0.228 0.282-0.4105 0.48775-0.6875 0.71875a0.5 0.5 0 1 0 0.625 0.75c0.32-0.267 0.5798-0.51875 0.8418-0.84375 0.077977-0.096769 0.15149-0.19685 0.22266-0.29688l-0.7168-0.7168zm1.8594 1.8594c-0.007367 0.009675-0.014064 0.019646-0.021484 0.029297a7.118 7.118 0 0 1-1.3438 1.3438 0.50316 0.50316 0 1 0 0.59375 0.8125 8.545 8.545 0 0 0 1.4688-1.4883l-0.69727-0.69727z" fill="#5d656b"/>
 <rect transform="rotate(45)" x="1.3137" y="-.5" width="20" height="1" ry="0" fill="#5d656b"/>
</svg>
