<svg width="16px" height="16px" version="1.1" viewBox="0 0 16 16" xmlns="http://www.w3.org/2000/svg">
 <g transform="matrix(-1 0 0 1 15.997 -.050695)" color="#5d656b" fill="#5d656b">
  <path d="m12.187 1c-0.37 0.106-0.452 0.704-0.125 0.906 3.336 2.621 3.938 7.47 1.344 10.844a7.118 7.118 0 0 1-1.344 1.344c-0.425 0.31 0.169 1.123 0.594 0.812a8.545 8.545 0 0 0 1.531-1.562c2.923-3.802 2.231-9.294-1.53-12.25a0.507 0.507 0 0 0-0.407-0.094 0.651 0.651 0 0 0-0.063 0zm-1.467 2.125c-0.379 0.09-0.483 0.695-0.157 0.906 2.176 1.791 2.492 5.018 0.72 7.219-0.228 0.282-0.411 0.488-0.688 0.719-0.265 0.136-0.346 0.535-0.155 0.764 0.19 0.23 0.597 0.222 0.78-0.014 0.32-0.267 0.581-0.519 0.843-0.844 2.112-2.621 1.72-6.49-0.875-8.625a0.507 0.507 0 0 0-0.406-0.125 0.651 0.651 0 0 0-0.062 0z" opacity=".35" overflow="visible"/>
  <path d="m7.469 2-3 3h-2.469v6h2.469l3.062 3.031 0.469-0.031v-12zm1.843 3.344c-0.357 0.092-0.476 0.644-0.187 0.875 0.982 0.99 0.98 2.57 0 3.562-8e-3 8e-3 4e-3 0.028 0 0.031-0.257 0.158-0.306 0.568-0.093 0.78 0.213 0.214 0.623 0.165 0.78-0.092 8e-3 -8e-3 0.028 4e-3 0.032 0 1.359-1.378 1.363-3.626 0-5a0.51 0.51 0 0 0-0.47-0.156 0.651 0.651 0 0 0-0.062 0z" overflow="visible"/>
 </g>
</svg>
