<svg width="16" height="16" version="1.1" xmlns="http://www.w3.org/2000/svg">
 <path d="m5.5 0c-0.20833 0-0.40364 0.039058-0.58594 0.11719s-0.34115 0.1849-0.47656 0.32031-0.24219 0.29427-0.32031 0.47656c-0.078127 0.18229-0.11719 0.3776-0.11719 0.58594v0.37891l1 1v-1.3789c0-0.13541 0.049476-0.2526 0.14844-0.35156s0.21615-0.14844 0.35156-0.14844h4c0.13541 0 0.2526 0.049476 0.35156 0.14844s0.14844 0.21615 0.14844 0.35156v6.3789l1 1v-7.3789c0-0.20833-0.039059-0.40364-0.11719-0.58594-0.078125-0.18229-0.1849-0.34115-0.32031-0.47656s-0.29427-0.24219-0.47656-0.32031c-0.18229-0.078127-0.3776-0.11719-0.58594-0.11719zm-1.5 3.293v7.207c0 0.20833 0.039059 0.40364 0.11719 0.58594 0.078127 0.18229 0.1849 0.34115 0.32031 0.47656s0.29427 0.24219 0.47656 0.32031c0.18229 0.078128 0.3776 0.11719 0.58594 0.11719h4c0.20833 0 0.40364-0.03906 0.58594-0.11719 0.18229-0.07813 0.34115-0.1849 0.47656-0.32031s0.24218-0.29427 0.32031-0.47656c0.07813-0.18229 0.11719-0.3776 0.11719-0.58594v-0.20703l-1-1v1.207c0 0.13541-0.049475 0.2526-0.14844 0.35156-0.09896 0.09896-0.21615 0.14844-0.35156 0.14844h-4c-0.13541 0-0.2526-0.049475-0.35156-0.14844-0.09896-0.098959-0.14844-0.21615-0.14844-0.35156v-6.207zm-2 4.707v2.6133c0 1.876 1.5107 3.3867 3.3867 3.3867h1.6133v1h-2v1h5v-1h-2v-1h1.6133c1.3817 0 2.566-0.81866 3.0937-2l-0.7793-0.7793c-0.25933 1.0252-1.185 1.7793-2.293 1.7793h-4.2695c-1.3102 0-2.3652-1.055-2.3652-2.3652v-2.6348zm10 0v1.8789l0.99023 0.99023c0.006257-0.08447 0.009766-0.16974 0.009766-0.25586v-2.6133z" fill="#5d656b"/>
 <rect transform="rotate(45)" x="1.3137" y="-.5" width="20" height="1" rx=".5" ry=".5" fill="#5d656b"/>
</svg>
