<svg width="16px" height="16px" version="1.1" viewBox="0 0 16 16" xmlns="http://www.w3.org/2000/svg">
 <path d="m3.8125 1a0.5 0.5 0 0 1 0.125 0.90625c-3.0554 2.4006-3.8142 6.6694-1.9277 9.9629l-0.71875 0.71875c-2.2992-3.7441-1.4652-8.7292 2.0527-11.494a0.5 0.5 0 0 1 0.40625-0.09375 0.5 0.5 0 0 1 0.0625 0zm4.7188 1 1.6738 1.6738-2.2051 2.2051v-3.8789h0.53125zm-3.252 1.125a0.5 0.5 0 0 1 0.1582 0.90625c-1.772 1.4585-2.3102 3.8689-1.4922 5.9023l-0.75586 0.75586c-1.2063-2.5011-0.60306-5.608 1.623-7.4395a0.5 0.5 0 0 1 0.40625-0.125 0.5 0.5 0 0 1 0.06055 0zm5.6328 1.2559 0.61719 0.61914h2.4707v6h-2.4688l-3.0625 3.0312-0.46875-0.03125v-6.707l2.9121-2.9121zm-4.2246 0.96289a0.5 0.5 0 0 1 0.1875 0.875c-0.42054 0.42397-0.65867 0.95605-0.71875 1.5039l-0.95508 0.95508c-0.21475-1.117 0.10214-2.3179 0.95508-3.1777a0.5 0.5 0 0 1 0.4707-0.15625 0.5 0.5 0 0 1 0.060547 0zm-0.35547 3.6172c0.12261 0.29706 0.30232 0.57672 0.54297 0.82031 8e-3 8e-3 -4e-3 0.02825 0 0.03125a0.5 0.5 0 1 1-0.6875 0.6875c-8e-3 -8e-3 -0.02725 4e-3 -0.03125 0-0.2345-0.23778-0.42633-0.50258-0.58008-0.7832zm-1.9004 1.9004c0.08805 0.13274 0.18336 0.26224 0.28516 0.38867 0.228 0.282 0.4105 0.48775 0.6875 0.71875a0.5 0.5 0 1 1-0.625 0.75c-0.32-0.267-0.5798-0.51875-0.8418-0.84375-0.07798-0.09677-0.15149-0.19685-0.22266-0.29688l0.7168-0.7168zm-1.8594 1.8594c0.0074 0.0097 0.01406 0.01965 0.02148 0.0293a7.118 7.118 0 0 0 1.3438 1.3438 0.50316 0.50316 0 1 1-0.59375 0.8125 8.545 8.545 0 0 1-1.4688-1.4883l0.69727-0.69727z" fill="#5d656b"/>
 <rect transform="matrix(-.70711 .70711 .70711 .70711 0 0)" x="-10" y="10.814" width="20" height="1" ry="0" fill="#5d656b"/>
</svg>
