<svg xmlns="http://www.w3.org/2000/svg" width="16" height="16" enable-background="new"><defs><filter id="a" color-interpolation-filters="sRGB"><feBlend mode="darken" in2="BackgroundImage"/></filter></defs><path style="marker:none" overflow="visible" d="M8 1.5A2.5 2.5 0 0 0 5.5 4v1c-.277 0-.5.223-.5.5V6c0 .552.224 1 .5 1 .037 0 .059-.048.094-.063.148.759.47 1.418.906 1.875-.02.701-.106.74-.156.969-1.145 1.009-2.412 1.567-3.657 2.344a.487.487 0 0 0-.187.375V14c0 .277.223.5.5.5h10c.277 0 .5-.223.5-.5v-1.5a.484.484 0 0 0-.156-.344c-1.264-.78-2.564-1.324-3.688-2.375-.05-.229-.136-.268-.156-.969.436-.457.757-1.116.906-1.875.035.015.057.063.094.063.276 0 .5-.448.5-1v-.5c0-.277-.223-.5-.5-.5V4A2.5 2.5 0 0 0 8 1.5z" color="#000" fill="#5d656b"/></svg>