<svg width="16" height="16" enable-background="new" version="1.1" xmlns="http://www.w3.org/2000/svg">
 <path d="m8 1a2.7273 2.6923 0 0 0-2.7273 2.6923v1.0769c-0.30218 0-0.54545 0.24015-0.54545 0.53846v0.53846c0 0.59446 0.24436 1.0769 0.54545 1.0769 0.040364 0 0.064364-0.051692 0.10255-0.067846 0.16145 0.81738 0.51273 1.5271 0.98836 2.0192-0.021818 0.75492-0.11564 0.79692-0.17018 1.0435-1.2491 1.0866-2.6313 1.6875-3.9895 2.5243a0.53127 0.52446 0 0 0-0.204 0.40385v1.6154c0 0.29831 0.24327 0.53846 0.54545 0.53846h10.909c0.30218 0 0.54545-0.24015 0.54545-0.53846v-1.6154a0.528 0.52123 0 0 0-0.17018-0.37046c-1.3789-0.84-2.7971-1.4258-4.0233-2.5577-0.054546-0.24662-0.14836-0.28862-0.17018-1.0435 0.47564-0.49215 0.82582-1.2018 0.98836-2.0192 0.03818 0.016154 0.06218 0.067846 0.10255 0.067846 0.30109 0 0.54545-0.48246 0.54545-1.0769v-0.53846c0-0.29831-0.24327-0.53846-0.54545-0.53846v-1.0769a2.7273 2.6923 0 0 0-2.7273-2.6923z" color="#000000" fill="#5d656b" overflow="visible"/>
</svg>
