<svg width="16px" height="16px" version="1.1" viewBox="0 0 16 16" xmlns="http://www.w3.org/2000/svg">
 <path class="error" d="m5 5v8h6v-8z" fill="#e13f2b" opacity=".35"/>
 <path d="m6 1v1h4v-1zm-2.156 2c-0.281 0.047-0.844 0.25-0.844 1v10c0 1 1 1 1 1h8c1 0 1-1 1-1v-10s0-1-1-1h-8s-0.063-0.016-0.156 0zm0.156 1h8v10h-8z" fill="#5d656b"/>
 <path d="m6.2324 6.7324c-0.12781 0-0.25558 0.04855-0.35351 0.14648-0.19587 0.19587-0.19587 0.51117 0 0.70704l1.4141 1.4141-1.4141 1.4141c-0.19587 0.19587-0.19587 0.51117 0 0.70704 0.19587 0.19587 0.51117 0.19587 0.70704 0l1.4141-1.4141 1.4141 1.4141c0.19587 0.19587 0.51117 0.19587 0.70704 0 0.19587-0.19587 0.19587-0.51117 0-0.70704l-1.4141-1.4141 1.4141-1.4141c0.19587-0.19587 0.19587-0.51117 0-0.70704-0.19587-0.19587-0.51117-0.19587-0.70704 0l-1.4141 1.4141-1.4141-1.4141c-0.097934-0.097934-0.22571-0.14649-0.35351-0.14648z" fill="#d33636" stop-color="#000000" stroke-linecap="round" stroke-linejoin="round" stroke-width="2" style="paint-order:fill markers stroke"/>
</svg>
