<svg width="16" height="16" version="1.1" xmlns="http://www.w3.org/2000/svg">
 <path d="m12.949 9c-1.0843 0.027342-1.9492 0.92647-1.9492 2.0293v0.9707c-0.554 0-1 0.446-1 1v2c0 0.554 0.446 1 1 1h4c0.554 0 1-0.446 1-1v-2c0-0.554-0.446-1-1-1v-0.9707c0-1.12-0.892-2.0293-2-2.0293h-0.05078zm0.05078 0.99805c0.554 0 1 0.443 1 1v1h-2v-1c0-0.557 0.446-1 1-1zm-2 3.002h4v2h-4z" color="#000000" fill="#5d656b" stroke-linecap="square" stroke-linejoin="round" stroke-width="2" style="-inkscape-stroke:none"/>
 <path d="m7.998 0v7.041l-3.293-3.293-0.0019531 0.0019531c-0.35575-0.35595-0.99609-0.99609-0.99609-0.99609l-0.70703 0.70703 4.5449 4.541-4.5449 4.541 0.70703 0.70703s0.64035-0.64009 0.99609-0.99609h0.0019531l3.2949-3.293v7.0391h1l0.18164-0.18164c-0.11524-0.251-0.18164-0.52788-0.18164-0.81836v-0.41211-1.5879-3.584l1.0527 1.0527c0.069179-0.36683 0.20539-0.71215 0.39453-1.0215l-1.4473-1.4473 4-4-4-4h-1.002zm1.002 1.416 2.5859 2.5859-2.5859 2.5859v-5.1719z" fill="#5d656b"/>
</svg>
