<svg width="16" height="16" version="1.1" xmlns="http://www.w3.org/2000/svg">
 <path d="m7.4805 1.002a0.50005 0.50005 0 0 0-0.18555 0.042969 0.50005 0.50005 0 0 0-0.29492 0.45508v5.2852l-2.7344-1.709a0.5 0.5 0 0 0-0.68945 0.1582 0.5 0.5 0 0 0 0.1582 0.68945l3.2656 2.041v0.070312l-3.2656 2.041a0.5 0.5 0 0 0-0.1582 0.68945 0.5 0.5 0 0 0 0.68945 0.1582l2.7344-1.709v5.2852a0.50005 0.50005 0 0 0 0.83203 0.37305l1.168-1.0391v-0.83398c0-0.21998 0.043159-0.42286 0.11914-0.60742l-1.1191 0.99414v-4.7969l2.1953 1.3711c0.11952-0.31627 0.29007-0.60833 0.50195-0.86523l-1.7539-1.0957 3.3223-2.0762a0.50005 0.50005 0 0 0 0.066406-0.79688l-4.5-4a0.50005 0.50005 0 0 0-0.35156-0.125zm0.51953 1.6113 3.1699 2.8164-3.1699 1.9805v-4.7969z" fill="#5d656b"/>
 <path d="m12.949 9c-1.0843 0.027342-1.9492 0.92647-1.9492 2.0293v0.9707c-0.554 0-1 0.446-1 1v2c0 0.554 0.446 1 1 1h4c0.554 0 1-0.446 1-1v-2c0-0.554-0.446-1-1-1v-0.9707c0-1.12-0.892-2.0293-2-2.0293h-0.05078zm0.05078 0.99805c0.554 0 1 0.443 1 1v1h-2v-1c0-0.557 0.446-1 1-1zm-2 3.002h4v2h-4z" color="#000000" fill="#5d656b" stroke-width="2" style="-inkscape-stroke:none"/>
</svg>
