<svg width="16" height="16" version="1.1" xmlns="http://www.w3.org/2000/svg">
 <path d="m7.4805 1.002a0.50005 0.50005 0 0 0-0.18555 0.042969 0.50005 0.50005 0 0 0-0.29492 0.45508v4.1094l1 0.62305v-3.6191l3.1699 2.8164-2.2266 1.3906 0.94531 0.58789 2.377-1.4844a0.50005 0.50005 0 0 0 0.066406-0.79688l-4.5-4a0.50005 0.50005 0 0 0-0.35156-0.125zm-3.3965 4.0039a0.5 0.5 0 0 0-0.50781 0.22852 0.5 0.5 0 0 0 0.1582 0.68945l3.2656 2.041v0.070312l-3.2656 2.041a0.5 0.5 0 0 0-0.1582 0.68945 0.5 0.5 0 0 0 0.68945 0.1582l2.7344-1.709v5.2852a0.50005 0.50005 0 0 0 0.83203 0.37305l4.5-4a0.50005 0.50005 0 0 0-0.066406-0.79688l-3.3223-2.0762-0.94336-0.58984-3.7656-2.3457a0.5 0.5 0 0 0-0.15039-0.058594zm3.916 3.584 3.1699 1.9805-3.1699 2.8164v-4.7969z" fill="#5d656b"/>
 <rect transform="rotate(31.936)" x="2.0209" y="2.0574" width="18" height="1" rx=".5" ry=".5" fill="#5d656b"/>
</svg>
