<svg xmlns="http://www.w3.org/2000/svg" height="16" width="16"><defs><filter id="a" color-interpolation-filters="sRGB"><feBlend mode="darken" in2="BackgroundImage"/></filter></defs><path d="M8.5 0C5.453 0 3 2.676 3 6v4c0 3.324 2.453 6 5.5 6 .694 0 1.354-.147 1.965-.4A3 3 0 0 1 10 14a3 3 0 0 1 3.898-2.86c.065-.369.102-.75.102-1.14V6c0-3.324-2.453-6-5.5-6zM8 2h.5c.208 0 .393.133.469.313l2.875 2.843.406.375-.438.344L9.25 8l2.563 2.125.437.344-.406.375-2.875 2.844c-.025.06-.08.11-.125.156A.484.484 0 0 1 8.5 14H8V9.062l-2.156 1.782A.485.485 0 0 1 5.5 11H5v-.5c0-.153.079-.283.188-.375L7.75 8 5.312 5.969c-.046-.02-.086-.062-.125-.094A.494.494 0 0 1 5 5.5V5h.5c.123 0 .225.051.313.125l.03.031L8 6.938V2zm1 1.688v3.25l1.781-1.47L9 3.689zm0 5.374v3.25l1.781-1.78L9 9.061z" fill="#5d656b" enable-background="new"/><path style="isolation:auto;mix-blend-mode:normal;marker:none" overflow="visible" d="M15 14a2 2 0 1 1-4 0 2 2 0 1 1 4 0z" color="#5d656b" fill="#5d656b"/></svg>