<svg xmlns="http://www.w3.org/2000/svg" width="16" height="16.004" enable-background="new"><defs><filter id="a" color-interpolation-filters="sRGB"><feBlend mode="darken" in2="BackgroundImage"/></filter></defs><g fill="#5d656b"><path style="line-height:normal;-inkscape-font-specification:Sans;text-indent:0;text-align:start;text-decoration-line:none;text-transform:none;block-progression:tb;marker:none" d="M9 .005v.812a1.002 1.002 0 0 0-.031.281c.008.043.018.084.031.125.1.447.542.793 1 .782h.562L8 4.567 4.719 1.286a1 1 0 0 0-.907-.281H3v.687a1 1 0 0 0 .281 1.031l4 4a1 1 0 0 0 1.438 0L12 3.442v.563c0 .523.476 1 1 1a1 1 0 0 0 .219 0H14v-5h-4a.979.979 0 0 0-.188 0H9z" color="#000" font-weight="400" font-family="Sans" overflow="visible" opacity=".35" enable-background="accumulate"/><path d="M15.724 14.856c-.424.726-1.482.523-2.237.413-.734-.107-1.61-.215-2.092-.898-.271-.382-.188-.856-.187-1.267.001-.406.124-.92-.109-1.272-.377-.574-1.168-.724-1.63-.794-1.05-.155-1.86-.163-2.98.03-.542.093-1.282.233-1.58.76-.447.786.224 1.68-.299 2.503-.497.784-1.407.816-2.084.914-.653.094-1.599.34-2.121-.187-.3-.303-.275-.733-.275-1.124 0-.398-.05-.79 0-1.141.117-.85.522-1.667 1.21-2.41.674-.73 1.448-1.105 2.207-1.396C5.032 8.42 6.429 8.273 8 8.254c1.545-.018 3.073.161 4.556.756 1.853.743 3.087 2.275 3.304 3.867.037.27.013.624.009.964-.003.34.041.696-.145 1.015z" clip-rule="evenodd" fill-rule="evenodd"/></g></svg>