<svg width="16" height="16" version="1.1" xmlns="http://www.w3.org/2000/svg">
 <path d="m7 2v1h6v-1zm-5 2c-1.108 0-2 0.892-2 2v7c0 1.108 0.892 2 2 2h12c0.47927 0 0.91799-0.16623 1.2617-0.44531l-0.7168-0.7168c-0.15666 0.10173-0.34343 0.16211-0.54492 0.16211h-12c-0.554 0-1-0.446-1-1v-7c0-0.554 0.446-1 1-1h3.707l-1-1zm4.1211 0 1 1h6.8789c0.554 0 1 0.446 1 1v6.8789l0.85938 0.85938c0.090441-0.2285 0.14062-0.47685 0.14062-0.73828v-7c0-1.108-0.892-2-2-2zm-4.1211 2v1h2v-1zm8.5 0a3.5 3.5 0 0 0-1.8438 0.53516l0.73047 0.73047a2.5 2.5 0 0 1 1.1133-0.26562 2.5 2.5 0 0 1 2.5 2.5 2.5 2.5 0 0 1-0.26562 1.1133l0.73047 0.73047a3.5 3.5 0 0 0 0.53516-1.8438 3.5 3.5 0 0 0-3.5-3.5zm-2.6074 1.1855a3.5 3.5 0 0 0-0.89258 2.3145 3.5 3.5 0 0 0 3.5 3.5 3.5 3.5 0 0 0 2.3145-0.89258l-0.70508-0.70508a2.5 2.5 0 0 1-1.6094 0.59766 2.5 2.5 0 0 1-2.5-2.5 2.5 2.5 0 0 1 0.59766-1.6094z" fill="#5d656b"/>
 <rect transform="rotate(45)" x="1.3137" y="-.5" width="20" height="1" ry="0" fill="#5d656b"/>
</svg>
