<svg width="16" height="16" enable-background="new" version="1.1" xmlns="http://www.w3.org/2000/svg">
 <g fill="#5d656b">
  <path d="M7 0C4.984 0 3 2.026 3 4v2h1V4c0-1.662 1.338-3 3-3h2c1.662 0 3 1.338 3 3v2h1V4c0-1.995-1.964-4-4-4H7z" color="#5d656b" enable-background="accumulate" overflow="visible"/>
 </g>
 <path d="m3 6c-1.108 0-2 0.892-2 2v5c0 1.108 0.892 2 2 2h10c1.108 0 2-0.892 2-2v-5c0-1.108-0.892-2-2-2h-10zm0 1h10c0.554 0 1 0.446 1 1v5c0 0.554-0.446 1-1 1h-10c-0.554 0-1-0.446-1-1v-5c0-0.554 0.446-1 1-1z" fill="#5d656b" stroke-linecap="round" stroke-width="2.2014"/>
</svg>
