<svg xmlns="http://www.w3.org/2000/svg" width="16" height="16" enable-background="new"><defs><filter id="a" color-interpolation-filters="sRGB"><feBlend mode="darken" in2="BackgroundImage"/></filter></defs><g fill="#5d656b"><path style="marker:none" d="M7 0C4.984 0 3 2.026 3 4h1c0-1.662 1.338-3 3-3h2c1.662 0 3 1.338 3 3v2h1V4c0-1.995-1.964-4-4-4z" color="#5d656b" overflow="visible" enable-background="accumulate"/><path style="marker:none" d="M2 7v7.5c0 .831.669 1.5 1.5 1.5H12v-1H3.5a.478.478 0 0 1-.5-.5v-1h1.25V13H3v-1.5h1.25V11H3V9.5h1.25V9H3V8h9V7H2zm5.75 2C6.78 9 6 9.78 6 10.75c0 .702.406 1.315 1 1.594V14h2v-1.656c.594-.28 1-.892 1-1.594C10 9.78 9.22 9 8.25 9h-.5zm4 0v.5H12V9h-.25zm0 2v.5H12V11h-.25zm0 2v.5H12V13h-.25z" color="#000" overflow="visible" enable-background="accumulate"/></g><path style="marker:none" d="M13 7v4l.25 2h1.5l.25-2V7zm0 7v2h2v-2z" class="warning" color="#5d656b" overflow="visible" fill="#f57900" enable-background="accumulate"/></svg>