<?xml version="1.0" encoding="UTF-8" standalone="no"?>
<svg
   xmlns:osb="http://www.openswatchbook.org/uri/2009/osb"
   xmlns:dc="http://purl.org/dc/elements/1.1/"
   xmlns:cc="http://creativecommons.org/ns#"
   xmlns:rdf="http://www.w3.org/1999/02/22-rdf-syntax-ns#"
   xmlns:svg="http://www.w3.org/2000/svg"
   xmlns="http://www.w3.org/2000/svg"
   height="16"
   id="svg7384"
   style="enable-background:new"
   version="1.1"
   width="16">
  <metadata
     id="metadata90">
    <rdf:RDF>
      <cc:Work
         rdf:about="">
        <dc:format>image/svg+xml</dc:format>
        <dc:type
           rdf:resource="http://purl.org/dc/dcmitype/StillImage" />
        <dc:title>Moka Symbolic Icon Theme</dc:title>
      </cc:Work>
    </rdf:RDF>
  </metadata>
  <title
     id="title8473">Moka Symbolic Icon Theme</title>
  <defs
     id="defs7386">
    <linearGradient
       id="linearGradient5606"
       osb:paint="solid">
      <stop
         id="stop5608"
         offset="0"
         style="stop-color:#000000;stop-opacity:1;" />
    </linearGradient>
    <filter
       id="filter7554"
       style="color-interpolation-filters:sRGB">
      <feBlend
         id="feBlend7556"
         in2="BackgroundImage"
         mode="darken" />
    </filter>
  </defs>
  <g
     id="layer9"
     style="display:inline"
     transform="translate(-340.0002,227.00336)">
    <g
       id="g7261"
       transform="translate(-137,175.99664)">
      <path
         d="m 243,64 c -2.01566,0 -4,2.02594 -4,4 l 0,2 1,0 0,-2 c 0,-1.662 1.338,-3 3,-3 l 2,0 c 1.662,0 3,1.338 3,3 l 0,2 1,0 0,-2 c 0,-1.99486 -1.96353,-4 -4,-4 l -2,0 z"
         id="rect5137-0"
         style="color:#bebebe;display:inline;overflow:visible;visibility:visible;fill:#bebebe;fill-opacity:1;fill-rule:nonzero;stroke:none;stroke-width:1;marker:none;enable-background:accumulate"
         transform="translate(241.0002,-467)" />
      <path
         d="m 238,71 0,1 0,1 0,0.5 0,1.25 0,0.25 0,0.5 0,1.5 0,0.5 0,0.5 0,0.5 c 0,0.831 0.669,1.5 1.5,1.5 l 9,0 c 0.831,0 1.5,-0.669 1.5,-1.5 l 0,-0.5 0,-0.5 0,-0.5 0,-1.5 0,-0.5 0,-0.25 0,-1.25 0,-0.5 0,-1 0,-1 -12,0 z m 1,1 10,0 0,1 -1.25,0 0,0.5 1.25,0 0,1.25 0,0.25 -1.25,0 0,0.5 1.25,0 0,1.5 -1.25,0 0,0.5 1.25,0 0,0.5 0,0.5 c 0,0.2943 -0.2057,0.5 -0.5,0.5 l -9,0 c -0.2943,0 -0.5,-0.2057 -0.5,-0.5 l 0,-0.5 0,-0.5 1.25,0 0,-0.5 -1.25,0 0,-1.5 1.25,0 0,-0.5 -1.25,0 0,-0.25 0,-1.25 1.25,0 0,-0.5 -1.25,0 0,-1 z m 4.75,1 c -0.9695,0 -1.75,0.7805 -1.75,1.75 0,0.702266 0.40576,1.314629 1,1.59375 L 243,78 l 2,0 0,-1.65625 c 0.59424,-0.279121 1,-0.891484 1,-1.59375 0,-0.9695 -0.7805,-1.75 -1.75,-1.75 l -0.5,0 z"
         id="rect7229"
         style="color:#000000;display:inline;overflow:visible;visibility:visible;fill:#bebebe;fill-opacity:1;stroke:none;stroke-width:1;marker:none;enable-background:accumulate"
         transform="translate(241.0002,-467)" />
    </g>
  </g>
  <g
     id="layer10"
     style="display:inline;filter:url(#filter7554)"
     transform="translate(-340.0002,227.00336)" />
  <g
     id="layer1"
     style="display:inline"
     transform="translate(-99.000004,-389.99664)" />
  <g
     id="layer14"
     style="display:inline"
     transform="translate(-340.0002,227.00336)" />
  <g
     id="layer15"
     style="display:inline"
     transform="translate(-340.0002,227.00336)" />
  <g
     id="g71291"
     style="display:inline"
     transform="translate(-340.0002,227.00336)" />
  <g
     id="layer2"
     style="display:inline"
     transform="translate(-99.000004,-239.99664)" />
  <g
     id="g6058"
     style="display:inline"
     transform="translate(-99.000004,-239.99664)" />
  <g
     id="layer12"
     style="display:inline"
     transform="translate(-340.0002,227.00336)" />
</svg>
