<svg width="16" height="16" enable-background="new" version="1.1" xmlns="http://www.w3.org/2000/svg">
 <g fill="#5d656b">
  <path d="m7 0c-2.016 0-4 2.026-4 4v2h1v-2c0-1.662 1.338-3 3-3h2c1.662 0 3 1.338 3 3v1h1v-1c0-1.995-1.964-4-4-4z" color="#5d656b" enable-background="accumulate" overflow="visible"/>
 </g>
 <path d="m3 6c-1.108 0-2 0.892-2 2v5c0 1.108 0.892 2 2 2h9v-1h-9c-0.554 0-1-0.446-1-1v-5c0-0.554 0.446-1 1-1h9v-1h-9z" fill="#5d656b" stroke-linecap="round" stroke-width="2.2014"/>
 <path class="warning" d="m13 6v4l0.25 2h1.5l0.25-2v-4zm0 7v2h2v-2z" color="#5d656b" enable-background="accumulate" fill="#f57900" overflow="visible"/>
</svg>
