<?xml version="1.0" encoding="UTF-8" standalone="no"?>
<svg
   xmlns:osb="http://www.openswatchbook.org/uri/2009/osb"
   xmlns:dc="http://purl.org/dc/elements/1.1/"
   xmlns:cc="http://creativecommons.org/ns#"
   xmlns:rdf="http://www.w3.org/1999/02/22-rdf-syntax-ns#"
   xmlns:svg="http://www.w3.org/2000/svg"
   xmlns="http://www.w3.org/2000/svg"
   width="16"
   version="1.1"
   style="enable-background:new"
   id="svg7384"
   height="16">
  <metadata
     id="metadata90">
    <rdf:RDF>
      <cc:Work
         rdf:about="">
        <dc:format>image/svg+xml</dc:format>
        <dc:type
           rdf:resource="http://purl.org/dc/dcmitype/StillImage" />
        <dc:title>Moka Symbolic Icon Theme</dc:title>
      </cc:Work>
    </rdf:RDF>
  </metadata>
  <title
     id="title8473">Moka Symbolic Icon Theme</title>
  <defs
     id="defs7386">
    <linearGradient
       osb:paint="solid"
       id="linearGradient5606">
      <stop
         style="stop-color:#000000;stop-opacity:1;"
         offset="0"
         id="stop5608" />
    </linearGradient>
    <filter
       style="color-interpolation-filters:sRGB"
       id="filter7554">
      <feBlend
         mode="darken"
         in2="BackgroundImage"
         id="feBlend7556" />
    </filter>
  </defs>
  <g
     transform="translate(-361.00021,208.00336)"
     style="display:inline"
     id="layer9">
    <g
       transform="translate(-116,194.99664)"
       id="g6318">
      <path
         transform="translate(241.0002,-467)"
         style="color:#bebebe;display:inline;overflow:visible;visibility:visible;fill:#bebebe;fill-opacity:1;fill-rule:nonzero;stroke:none;stroke-width:1;marker:none;enable-background:accumulate"
         id="path6321"
         d="m 243,64 c -2.01566,0 -4,2.02594 -4,4 l 1,0 c 0,-1.662 1.338,-3 3,-3 l 2,0 c 1.662,0 3,1.338 3,3 l 0,2 1,0 0,-2 c 0,-1.99486 -1.96353,-4 -4,-4 z" />
      <path
         transform="translate(357.0002,-726)"
         style="color:#000000;display:inline;overflow:visible;visibility:visible;fill:#bebebe;fill-opacity:1;stroke:none;stroke-width:1;marker:none;enable-background:accumulate"
         id="path6323"
         d="m 122,330 0,1 0,1 0,0.5 0,1.25 0,0.25 0,0.5 0,1.5 0,0.5 0,0.5 0,0.5 c 0,0.831 0.669,1.5 1.5,1.5 l 8.5,0 0,-1 -8.5,0 c -0.2943,0 -0.5,-0.2057 -0.5,-0.5 l 0,-0.5 0,-0.5 1.25,0 0,-0.5 -1.25,0 0,-1.5 1.25,0 0,-0.5 -1.25,0 0,-0.25 0,-1.25 1.25,0 0,-0.5 -1.25,0 0,-1 9,0 0,-1 -10,0 z m 5.75,2 c -0.9695,0 -1.75,0.7805 -1.75,1.75 0,0.70227 0.40576,1.31463 1,1.59375 l 0,1.65625 2,0 0,-1.65625 c 0.59424,-0.27912 1,-0.89148 1,-1.59375 0,-0.9695 -0.7805,-1.75 -1.75,-1.75 l -0.5,0 z m 4,0 0,0.5 0.25,0 0,-0.5 -0.25,0 z m 0,2 0,0.5 0.25,0 0,-0.5 -0.25,0 z m 0,2 0,0.5 0.25,0 0,-0.5 -0.25,0 z" />
    </g>
    <path
       style="color:#bebebe;display:inline;overflow:visible;visibility:visible;fill:#f57900;fill-opacity:1;stroke:none;stroke-width:2;marker:none;enable-background:accumulate"
       id="path5140-8"
       d="m 374.0002,-201.00336 10e-6,4.00003 0.25,2 1.5,0 0.25,-2 -10e-6,-4.00003 z m 0,7 0,2 2,0 0,-2 z"
       class="warning" />
  </g>
  <g
     transform="translate(-361.00021,208.00336)"
     style="display:inline;filter:url(#filter7554)"
     id="layer10" />
  <g
     transform="translate(-120.00001,-408.99664)"
     style="display:inline"
     id="layer1" />
  <g
     transform="translate(-361.00021,208.00336)"
     style="display:inline"
     id="layer14" />
  <g
     transform="translate(-361.00021,208.00336)"
     style="display:inline"
     id="layer15" />
  <g
     transform="translate(-361.00021,208.00336)"
     style="display:inline"
     id="g71291" />
  <g
     transform="translate(-120.00001,-258.99664)"
     style="display:inline"
     id="layer2" />
  <g
     transform="translate(-120.00001,-258.99664)"
     style="display:inline"
     id="g6058" />
  <g
     transform="translate(-361.00021,208.00336)"
     style="display:inline"
     id="layer12" />
</svg>
