<?xml version="1.0" encoding="UTF-8" standalone="no"?>
<svg
   xmlns:osb="http://www.openswatchbook.org/uri/2009/osb"
   xmlns:dc="http://purl.org/dc/elements/1.1/"
   xmlns:cc="http://creativecommons.org/ns#"
   xmlns:rdf="http://www.w3.org/1999/02/22-rdf-syntax-ns#"
   xmlns:svg="http://www.w3.org/2000/svg"
   xmlns="http://www.w3.org/2000/svg"
   width="16"
   version="1.1"
   style="enable-background:new"
   id="svg7384"
   height="16">
  <metadata
     id="metadata90">
    <rdf:RDF>
      <cc:Work
         rdf:about="">
        <dc:format>image/svg+xml</dc:format>
        <dc:type
           rdf:resource="http://purl.org/dc/dcmitype/StillImage" />
        <dc:title>Moka Symbolic Icon Theme</dc:title>
      </cc:Work>
    </rdf:RDF>
  </metadata>
  <title
     id="title8473">Moka Symbolic Icon Theme</title>
  <defs
     id="defs7386">
    <linearGradient
       osb:paint="solid"
       id="linearGradient5606">
      <stop
         style="stop-color:#000000;stop-opacity:1;"
         offset="0"
         id="stop5608" />
    </linearGradient>
    <filter
       style="color-interpolation-filters:sRGB"
       id="filter7554">
      <feBlend
         mode="darken"
         in2="BackgroundImage"
         id="feBlend7556" />
    </filter>
  </defs>
  <g
     transform="translate(-580.0002,246.00336)"
     style="display:inline"
     id="layer9">
    <path
       style="color:#000000;font-style:normal;font-variant:normal;font-weight:normal;font-stretch:normal;font-size:medium;line-height:normal;font-family:Sans;-inkscape-font-specification:Sans;text-indent:0;text-align:start;text-decoration:none;text-decoration-line:none;letter-spacing:normal;word-spacing:normal;text-transform:none;direction:ltr;block-progression:tb;writing-mode:lr-tb;baseline-shift:baseline;text-anchor:start;display:inline;overflow:visible;visibility:visible;fill:#bebebe;fill-opacity:1;stroke:none;stroke-width:1;marker:none;enable-background:accumulate"
       id="rect9696"
       d="m 583.0002,-245.00336 c -1.09935,0 -2,0.90065 -2,2 l 0,10 c 0,1.09935 0.90065,2 2,2 l 10,0 c 1.09935,0 2,-0.90065 2,-2 l 0,-10 c 0,-1.09935 -0.90065,-2 -2,-2 l -10,0 z m 0,1 10,0 c 0.56265,0 1,0.43735 1,1 l 0,10 c 0,0.56265 -0.43735,1 -1,1 l -10,0 c -0.56265,0 -1,-0.43735 -1,-1 l 0,-10 c 0,-0.56265 0.43735,-1 1,-1 z m 1,5 0,2 8,0 0,-2 -8,0 z" />
  </g>
  <g
     transform="translate(-580.0002,246.00336)"
     style="display:inline;filter:url(#filter7554)"
     id="layer10" />
  <g
     transform="translate(-339,-370.99664)"
     style="display:inline"
     id="layer1" />
  <g
     transform="translate(-580.0002,246.00336)"
     style="display:inline"
     id="layer14" />
  <g
     transform="translate(-580.0002,246.00336)"
     style="display:inline"
     id="layer15" />
  <g
     transform="translate(-580.0002,246.00336)"
     style="display:inline"
     id="g71291" />
  <g
     transform="translate(-339,-220.99664)"
     style="display:inline"
     id="layer2" />
  <g
     transform="translate(-339,-220.99664)"
     style="display:inline"
     id="g6058" />
  <g
     transform="translate(-580.0002,246.00336)"
     style="display:inline"
     id="layer12" />
</svg>
