<svg xmlns="http://www.w3.org/2000/svg" width="16" height="16" enable-background="new"><defs><filter id="a" color-interpolation-filters="sRGB"><feBlend mode="darken" in2="BackgroundImage"/></filter></defs><path style="line-height:125%;-inkscape-font-specification:'Ubuntu Light'" d="M6 1v5c.008 2.006.5 2.406.5 4.281h2C8.5 8.406 8.902 8.41 9 6V1H6zm1.563 10.844c-.23 0-.456.038-.657.093a1.247 1.247 0 0 0-.5.25c-.148.124-.26.3-.343.5-.084.202-.125.46-.125.75 0 .279.041.49.125.688.083.197.195.37.343.5.148.13.3.222.5.281.2.059.428.094.657.094.216 0 .43-.035.625-.094.194-.059.35-.152.5-.281.148-.13.256-.303.343-.5a1.63 1.63 0 0 0 .157-.688c0-.29-.07-.548-.157-.75a1.323 1.323 0 0 0-.343-.5 1.297 1.297 0 0 0-.5-.25 2.314 2.314 0 0 0-.625-.093z" font-weight="300" font-size="40" font-family="Ubuntu" letter-spacing="0" word-spacing="0" fill="#5d656b"/></svg>