<svg width="16" height="16" version="1.1" xmlns="http://www.w3.org/2000/svg">
 <path d="m8 0c-4.424 0-8 3.576-8 8s3.576 8 8 8 8-3.576 8-8-3.576-8-8-8zm0 1c3.87 0 7 3.13 7 7s-3.13 7-7 7-7-3.13-7-7 3.13-7 7-7z" color="#bebebe" fill="#5d656b" overflow="visible" style="text-indent:0;text-transform:none"/>
 <path d="m8 3a3 3 0 0 0-3 3h1a2 2 0 0 1 2-2 2 2 0 0 1 2 2 2 2 0 0 1-2 2h-0.5v2h1v-1.0469a3 3 0 0 0 2.5-2.9531 3 3 0 0 0-3-3zm0 8a1 1 0 0 0-1 1 1 1 0 0 0 1 1 1 1 0 0 0 1-1 1 1 0 0 0-1-1z" fill="#5d656b" fill-rule="evenodd" stop-color="#000000" stroke-linecap="round" stroke-linejoin="round" stroke-width="2" style="paint-order:stroke fill markers"/>
</svg>
