<?xml version="1.0" encoding="UTF-8" standalone="no"?>
<svg
   xmlns:osb="http://www.openswatchbook.org/uri/2009/osb"
   xmlns:dc="http://purl.org/dc/elements/1.1/"
   xmlns:cc="http://creativecommons.org/ns#"
   xmlns:rdf="http://www.w3.org/1999/02/22-rdf-syntax-ns#"
   xmlns:svg="http://www.w3.org/2000/svg"
   xmlns="http://www.w3.org/2000/svg"
   width="16"
   version="1.1"
   style="enable-background:new"
   id="svg7384"
   height="16">
  <metadata
     id="metadata90">
    <rdf:RDF>
      <cc:Work
         rdf:about="">
        <dc:format>image/svg+xml</dc:format>
        <dc:type
           rdf:resource="http://purl.org/dc/dcmitype/StillImage" />
        <dc:title>Moka Symbolic Icon Theme</dc:title>
      </cc:Work>
    </rdf:RDF>
  </metadata>
  <title
     id="title8473">Moka Symbolic Icon Theme</title>
  <defs
     id="defs7386">
    <linearGradient
       osb:paint="solid"
       id="linearGradient5606">
      <stop
         style="stop-color:#000000;stop-opacity:1;"
         offset="0"
         id="stop5608" />
    </linearGradient>
    <filter
       style="color-interpolation-filters:sRGB"
       id="filter7554">
      <feBlend
         mode="darken"
         in2="BackgroundImage"
         id="feBlend7556" />
    </filter>
  </defs>
  <g
     transform="translate(-541.00018,328.00336)"
     style="display:inline"
     id="layer9">
    <path
       style="font-style:normal;font-variant:normal;font-weight:300;font-stretch:normal;font-size:40px;line-height:125%;font-family:Ubuntu;-inkscape-font-specification:'Ubuntu Light';letter-spacing:0px;word-spacing:0px;fill:#bebebe;fill-opacity:1;stroke:none"
       id="path4113"
       d="m 547.0002,-327.00336 0,5 c 0.008,2.00609 0.5,2.40625 0.5,4.28125 l 2,0 c 0,-1.875 0.402,-1.87153 0.5,-4.28125 l 0,-5 -3,0 z m 1.5625,10.84375 c -0.2287,0 -0.4558,0.0385 -0.65625,0.0937 -0.20112,0.0558 -0.35201,0.12623 -0.5,0.25 -0.14866,0.12377 -0.26035,0.29955 -0.34375,0.5 -0.0834,0.20113 -0.125,0.45941 -0.125,0.75 0,0.27848 0.0416,0.48974 0.125,0.6875 0.0834,0.19709 0.19509,0.37018 0.34375,0.5 0.14799,0.12915 0.29888,0.22205 0.5,0.28125 0.20045,0.0585 0.42755,0.0937 0.65625,0.0937 0.2166,0 0.4306,-0.0352 0.625,-0.0937 0.1944,-0.0592 0.35134,-0.1521 0.5,-0.28125 0.14799,-0.12982 0.25695,-0.30291 0.34375,-0.5 0.0867,-0.19776 0.15625,-0.40902 0.15625,-0.6875 0,-0.29059 -0.0695,-0.54887 -0.15625,-0.75 -0.0868,-0.20045 -0.19576,-0.37623 -0.34375,-0.5 -0.14866,-0.12377 -0.3056,-0.1942 -0.5,-0.25 -0.1944,-0.0551 -0.4084,-0.0937 -0.625,-0.0937 z" />
  </g>
  <g
     transform="translate(-541.00018,328.00336)"
     style="display:inline;filter:url(#filter7554)"
     id="layer10" />
  <g
     transform="translate(-299.99998,-288.99664)"
     style="display:inline"
     id="layer1" />
  <g
     transform="translate(-541.00018,328.00336)"
     style="display:inline"
     id="layer14" />
  <g
     transform="translate(-541.00018,328.00336)"
     style="display:inline"
     id="layer15" />
  <g
     transform="translate(-541.00018,328.00336)"
     style="display:inline"
     id="g71291" />
  <g
     transform="translate(-299.99998,-138.99664)"
     style="display:inline"
     id="layer2" />
  <g
     transform="translate(-299.99998,-138.99664)"
     style="display:inline"
     id="g6058" />
  <g
     transform="translate(-541.00018,328.00336)"
     style="display:inline"
     id="layer12" />
</svg>
