<?xml version="1.0" encoding="UTF-8" standalone="no"?>
<svg
   xmlns:osb="http://www.openswatchbook.org/uri/2009/osb"
   xmlns:dc="http://purl.org/dc/elements/1.1/"
   xmlns:cc="http://creativecommons.org/ns#"
   xmlns:rdf="http://www.w3.org/1999/02/22-rdf-syntax-ns#"
   xmlns:svg="http://www.w3.org/2000/svg"
   xmlns="http://www.w3.org/2000/svg"
   width="16"
   version="1.1"
   style="enable-background:new"
   id="svg7384"
   height="16">
  <metadata
     id="metadata90">
    <rdf:RDF>
      <cc:Work
         rdf:about="">
        <dc:format>image/svg+xml</dc:format>
        <dc:type
           rdf:resource="http://purl.org/dc/dcmitype/StillImage" />
        <dc:title>Moka Symbolic Icon Theme</dc:title>
      </cc:Work>
    </rdf:RDF>
  </metadata>
  <title
     id="title8473">Moka Symbolic Icon Theme</title>
  <defs
     id="defs7386">
    <linearGradient
       osb:paint="solid"
       id="linearGradient5606">
      <stop
         style="stop-color:#000000;stop-opacity:1;"
         offset="0"
         id="stop5608" />
    </linearGradient>
    <filter
       style="color-interpolation-filters:sRGB"
       id="filter7554">
      <feBlend
         mode="darken"
         in2="BackgroundImage"
         id="feBlend7556" />
    </filter>
  </defs>
  <g
     transform="translate(-501.0002,328.00336)"
     style="display:inline"
     id="layer9">
    <g
       transform="translate(461.0002,-846.00336)"
       style="color:#bebebe;display:inline;visibility:visible;fill:none;stroke:none;stroke-width:1.78124988;marker:none"
       id="g5648" />
    <path
       style="fill:#bebebe;fill-opacity:1;stroke:none"
       id="path5652"
       d="m 509.0002,-327.00336 c -3.86603,0 -7,3.13412 -7,7 0,3.86603 3.13397,7 7,7 3.86603,0 7,-3.13397 7,-7 0,-3.86588 -3.13397,-7 -7,-7 z m 0,1 c 3.31371,0 6,2.68629 6,6 0,3.31371 -2.68629,6 -6,6 -3.31371,0 -6,-2.68629 -6,-6 0,-3.31371 2.68629,-6 6,-6 z m 0,1.75 c -0.69036,0 -1.25,0.55964 -1.25,1.25 0,0.69036 0.55964,1.25 1.25,1.25 0.69036,0 1.25,-0.55964 1.25,-1.25 0,-0.69036 -0.55964,-1.25 -1.25,-1.25 z m -1,3.25 0,5 2,0 0,-5 -1,0 -1,0 z" />
  </g>
  <g
     transform="translate(-501.0002,328.00336)"
     style="display:inline;filter:url(#filter7554)"
     id="layer10" />
  <g
     transform="translate(-260,-288.99664)"
     style="display:inline"
     id="layer1" />
  <g
     transform="translate(-501.0002,328.00336)"
     style="display:inline"
     id="layer14" />
  <g
     transform="translate(-501.0002,328.00336)"
     style="display:inline"
     id="layer15" />
  <g
     transform="translate(-501.0002,328.00336)"
     style="display:inline"
     id="g71291" />
  <g
     transform="translate(-260,-138.99664)"
     style="display:inline"
     id="layer2" />
  <g
     transform="translate(-260,-138.99664)"
     style="display:inline"
     id="g6058" />
  <g
     transform="translate(-501.0002,328.00336)"
     style="display:inline"
     id="layer12" />
</svg>
