<svg xmlns="http://www.w3.org/2000/svg" width="16" height="16" enable-background="new"><defs><filter id="a" color-interpolation-filters="sRGB"><feBlend mode="darken" in2="BackgroundImage"/></filter></defs><path d="M5.923 13.423c0-.29.042-.536.125-.737.084-.2.2-.362.348-.486a1.38 1.38 0 0 1 .524-.27 2.416 2.416 0 0 1 1.26 0 1.287 1.287 0 0 1 .866.755c.088.202.13.448.13.738 0 .279-.042.517-.129.715a1.386 1.386 0 0 1-.352.491c-.148.13-.32.224-.514.283a2.288 2.288 0 0 1-1.26 0 1.377 1.377 0 0 1-.525-.283 1.33 1.33 0 0 1-.348-.491 1.835 1.835 0 0 1-.125-.715m.306-3.17v-.686c0-.316.033-.601.098-.858.064-.257.163-.5.296-.732a3.5 3.5 0 0 1 .514-.677c.21-.22.464-.447.761-.681.26-.204.479-.386.658-.548.18-.16.324-.32.436-.477a1.63 1.63 0 0 0 .24-.495c.05-.174.075-.375.075-.603 0-.353-.12-.644-.357-.872-.238-.229-.601-.343-1.09-.343-.425 0-.885.09-1.377.268-.49.18-1 .4-1.524.659l-.946-2.049a9.705 9.705 0 0 1 1.84-.811 8 8 0 0 1 1.025-.255A5.79 5.79 0 0 1 7.898 1c.63 0 1.199.076 1.705.227.507.152.937.372 1.29.663.352.29.622.644.81 1.057.19.415.284.887.284 1.418 0 .39-.044.738-.13 1.044a3.14 3.14 0 0 1-.384.853c-.171.263-.385.516-.64.76-.257.244-.556.502-.895.774-.26.204-.472.382-.636.533a2.606 2.606 0 0 0-.384.43 1.267 1.267 0 0 0-.19.423 2.293 2.293 0 0 0-.052.514v.556H6.23z" fill="#5d656b" enable-background="new"/></svg>