<svg xmlns="http://www.w3.org/2000/svg" width="16" height="16" enable-background="new"><defs><filter id="a" color-interpolation-filters="sRGB"><feBlend mode="darken" in2="BackgroundImage"/></filter></defs><g transform="translate(-361 268.003)" fill="#5d656b"><path d="M368.998-265.003c-2.618 0-4.998 2.382-4.998 5 0 2.617 2.38 5 4.998 5 2.618 0 5.002-2.382 5.002-5s-2.384-5-5.002-5z"/><rect y="-268.003" x="368" width="2" ry=".5" height="2" fill-rule="evenodd"/><rect y="-254.003" x="368" width="2" ry=".5" height="2" fill-rule="evenodd"/><rect y="69.072" x="443.773" width="2" transform="rotate(-45)" ry=".5" height="2" fill-rule="evenodd"/><rect y="83.072" x="443.773" width="2" transform="rotate(-45)" ry=".5" height="2" fill-rule="evenodd"/><rect y="361" x="259.003" width="2" transform="rotate(-90)" ry=".5" height="2" fill-rule="evenodd"/><rect y="375" x="259.003" width="2" transform="rotate(-90)" ry=".5" height="2" fill-rule="evenodd"/><rect y="436.773" x="-78.072" width="2" transform="rotate(-135)" ry=".5" height="2" fill-rule="evenodd"/><rect y="450.773" x="-78.072" width="2" transform="rotate(-135)" ry=".5" height="2" fill-rule="evenodd"/></g></svg>