<svg xmlns="http://www.w3.org/2000/svg" width="16" height="16" enable-background="new"><defs><filter id="a" color-interpolation-filters="sRGB"><feBlend mode="darken" in2="BackgroundImage"/></filter></defs><path style="line-height:normal;-inkscape-font-specification:Sans;text-indent:0;text-align:start;text-decoration-line:none;text-transform:none;block-progression:tb;marker:none" d="M8.5 1C7.142 1 6.036 2.08 6 3.406a.5.5 0 0 0 0 .031V3.5a.506.494 0 0 0 0 .126v5.281a.5.5 NaN 0 0 0 .031.5.5 0 0 0 0 .032.5.5 NaN 0 0 0 .03 1.508 1.508 0 0 0 1.5 1.5A1.51 1.51 0 0 0 9 9a.5.5 NaN 0 0 0-.062V5.5a.5.5 0 0 0-.594-.5.5.5 0 0 0-.406.5v3.469a.5.5 0 0 0 0 .093.5.5 0 0 1-.5.438A.493.493 0 0 1 7 9a.5.5 NaN 0 0 0-.094v-5.25a.506.494 0 0 0 0-.062V3.5a.5.5 0 0 0 0-.062C7.018 2.624 7.684 2 8.5 2c.805 0 1.465.609 1.5 1.406a.5.5 0 0 0 0 .031v.032a.506.494 0 0 0 0 .156v6.687a.5.5 0 0 0 0 .094v.094c0 1.386-1.113 2.5-2.5 2.5A2.495 2.495 0 0 1 5 10.594v-.063a.5.5 0 0 0 0-.03V4.5a.5.5 0 0 0-.594-.5.5.5 0 0 0-.406.5v6a.5.5 0 0 0 0 .125c0 .021.03.041.031.063C4.13 12.527 5.636 14 7.5 14c1.927 0 3.5-1.573 3.5-3.5v-.156a.5.5 0 0 0 0-.031V3.5a.506.494 0 0 0 0-.031.5.5 0 0 0 0-.031C10.98 2.095 9.87 1 8.5 1z" color="#000" font-weight="400" font-family="Sans" overflow="visible" fill="#5d656b" stroke-width="7.755" enable-background="accumulate"/></svg>