<?xml version="1.0" encoding="UTF-8" standalone="no"?>
<svg
   xmlns:osb="http://www.openswatchbook.org/uri/2009/osb"
   xmlns:dc="http://purl.org/dc/elements/1.1/"
   xmlns:cc="http://creativecommons.org/ns#"
   xmlns:rdf="http://www.w3.org/1999/02/22-rdf-syntax-ns#"
   xmlns:svg="http://www.w3.org/2000/svg"
   xmlns="http://www.w3.org/2000/svg"
   width="16"
   version="1.1"
   style="enable-background:new"
   id="svg7384"
   height="16">
  <metadata
     id="metadata90">
    <rdf:RDF>
      <cc:Work
         rdf:about="">
        <dc:format>image/svg+xml</dc:format>
        <dc:type
           rdf:resource="http://purl.org/dc/dcmitype/StillImage" />
        <dc:title>Moka Symbolic Icon Theme</dc:title>
      </cc:Work>
    </rdf:RDF>
  </metadata>
  <title
     id="title8473">Moka Symbolic Icon Theme</title>
  <defs
     id="defs7386">
    <linearGradient
       osb:paint="solid"
       id="linearGradient5606">
      <stop
         style="stop-color:#000000;stop-opacity:1;"
         offset="0"
         id="stop5608" />
    </linearGradient>
    <filter
       style="color-interpolation-filters:sRGB"
       id="filter7554">
      <feBlend
         mode="darken"
         in2="BackgroundImage"
         id="feBlend7556" />
    </filter>
  </defs>
  <g
     transform="translate(-321.00021,288.00336)"
     style="display:inline"
     id="layer9">
    <path
       style="color:#000000;font-style:normal;font-variant:normal;font-weight:normal;font-stretch:normal;font-size:medium;line-height:normal;font-family:Sans;-inkscape-font-specification:Sans;text-indent:0;text-align:start;text-decoration:none;text-decoration-line:none;letter-spacing:normal;word-spacing:normal;text-transform:none;direction:ltr;block-progression:tb;writing-mode:lr-tb;baseline-shift:baseline;text-anchor:start;display:inline;overflow:visible;visibility:visible;fill:#bebebe;fill-opacity:1;stroke:none;stroke-width:7.75504684;marker:none;enable-background:accumulate"
       id="path35480"
       d="m 329.5002,-287.00336 c -1.35845,0 -2.46352,1.0793 -2.5,2.40625 a 0.50005,0.50005 0 0 0 0,0.0312 c -1.5e-4,0.0112 0,0.02 0,0.0312 0,0.008 -8e-5,0.0232 0,0.0312 a 0.5057293,0.49443445 0 0 0 0,0.125 l 0,5.28125 a 0.50005019,0.5000498 0 0 0 0,0.0312 0.50005,0.50005 0 0 0 0,0.0312 0.50005019,0.5000498 0 0 0 0,0.0312 c -0.002,0.8225 0.6775,1.498 1.5,1.5 0.82158,9.9e-4 1.498,-0.67819 1.5,-1.5 a 0.50005019,0.5000498 0 0 0 0,-0.0625 l 0,-3.4372 a 0.50005,0.50005 0 0 0 -0.59375,-0.5 0.50005,0.50005 0 0 0 -0.40625,0.5 l 0,3.46875 a 0.50005,0.50005 0 0 0 0,0.0937 c -0.0323,0.24849 -0.2408,0.43817 -0.5,0.4375 -0.28207,-7.2e-4 -0.50073,-0.21794 -0.5,-0.5 a 0.50005019,0.5000498 0 0 0 0,-0.0937 l 0,-5.25 a 0.5057293,0.49443445 0 0 0 0,-0.0625 l 0,-0.0937 a 0.50005,0.50005 0 0 0 0,-0.0625 c 0.018,-0.8138 0.68359,-1.4375 1.5,-1.4375 0.80506,0 1.46472,0.60867 1.5,1.40625 a 0.50005,0.50005 0 0 0 0,0.0312 c 2.5e-4,0.0113 0,0.0199 0,0.0312 a 0.5057293,0.49443445 0 0 0 0,0.15625 l 0,6.375 0,0.3125 a 0.50005,0.50005 0 0 0 0,0.0937 l 0,0.0937 c 0,1.38663 -1.11337,2.5 -2.5,2.5 -1.35463,0 -2.45024,-1.06438 -2.5,-2.40625 -7.8e-4,-0.0211 2.6e-4,-0.0412 0,-0.0625 a 0.50005,0.50005 0 0 0 0,-0.031 c 0,-0.008 -8e-5,-0.0231 0,-0.0312 l 0,-0.5 0,-5.4688 a 0.50005,0.50005 0 0 0 -0.59375,-0.50005 0.50005,0.50005 0 0 0 -0.40625,0.5 l 0,5.46875 0,0.5 0,0.0312 a 0.50005,0.50005 0 0 0 0,0.125 c 7.6e-4,0.0215 0.0301,0.0411 0.0312,0.0625 0.0986,1.84004 1.60495,3.3125 3.46875,3.3125 1.92707,0 3.5,-1.57293 3.5,-3.5 l 0,-0.0937 0,-0.0625 a 0.50005,0.50005 0 0 0 0,-0.0312 l 0,-0.31255 0,-6.5 a 0.5057293,0.49443445 0 0 0 0,-0.0312 0.50005,0.50005 0 0 0 0,-0.0312 c -0.0185,-1.34238 -1.13009,-2.4376 -2.5,-2.4376 z" />
  </g>
  <g
     transform="translate(-321.00021,288.00336)"
     style="display:inline;filter:url(#filter7554)"
     id="layer10" />
  <g
     transform="translate(-80.000014,-328.99664)"
     style="display:inline"
     id="layer1" />
  <g
     transform="translate(-321.00021,288.00336)"
     style="display:inline"
     id="layer14" />
  <g
     transform="translate(-321.00021,288.00336)"
     style="display:inline"
     id="layer15" />
  <g
     transform="translate(-321.00021,288.00336)"
     style="display:inline"
     id="g71291" />
  <g
     transform="translate(-80.000014,-178.99664)"
     style="display:inline"
     id="layer2" />
  <g
     transform="translate(-80.000014,-178.99664)"
     style="display:inline"
     id="g6058" />
  <g
     transform="translate(-321.00021,288.00336)"
     style="display:inline"
     id="layer12" />
</svg>
