<svg xmlns="http://www.w3.org/2000/svg" height="16" width="16" enable-background="new"><defs><filter id="a" color-interpolation-filters="sRGB"><feBlend in2="BackgroundImage" mode="darken"/></filter></defs><path d="M8 1a1 1 0 0 0-.994 1.1A4.988 4.988 0 0 0 3 7v4.5l-2 2v.5h14v-.5l-2-2V7a4.987 4.987 0 0 0-4.006-4.9A1 1 0 0 0 8 1zm0 2a4 4 0 0 1 4 4v4.922L13 13H3l1-1.078V7a4 4 0 0 1 4-4zm0 1a3 3 0 0 0-3 3v5h6V7a3 3 0 0 0-3-3zM6.27 15A2 2 0 0 0 8 16a2 2 0 0 0 1.729-1h-3.46z" fill="#5d656b" stroke-width="3" stroke-linecap="round" enable-background="new"/></svg>