<svg xmlns="http://www.w3.org/2000/svg" width="16" height="16" enable-background="new"><defs><filter id="a" color-interpolation-filters="sRGB"><feBlend mode="darken" in2="BackgroundImage"/></filter></defs><g fill="#5d656b"><path style="text-indent:0;text-transform:none;block-progression:tb" d="M1 3v2h4c.572 0 1 .429 1 1v4c0 1.645 1.356 3 3 3h5v-2H9c-.571 0-1-.429-1-1V6c0-1.645-1.355-3-3-3z" color="#5d656b"/><path style="text-indent:0;text-transform:none" d="M9 3c-.23 0-.44.044-.656.094.481.55.861 1.177 1.031 1.906H14V3H9zM1 13h4c.23 0 .441-.044.656-.094-.48-.55-.86-1.177-1.03-1.906H1z" color="#5d656b"/><path d="M12 1v6l4-3zM12 9v6l4-3z"/></g></svg>