<svg xmlns="http://www.w3.org/2000/svg" height="16" width="16" enable-background="new"><defs><filter id="a" color-interpolation-filters="sRGB"><feBlend in2="BackgroundImage" mode="darken"/></filter></defs><g fill="#5d656b"><path d="M4 3C2.355 3 1 4.355 1 6v2.688A4.453 4.453 0 0 1 3 7.28V6c0-.571.429-1 1-1h1V3H4zm5 0v2h3c.571 0 1 .429 1 1v4c0 .571-.429 1-1 1H8.937c.02.167.063.328.063.5 0 .53-.113 1.027-.281 1.5H12c1.645 0 3-1.355 3-3V6c0-1.645-1.355-3-3-3H9z" style="text-indent:0;text-transform:none;block-progression:tb" color="#000"/><path d="M6 4l4-3v6z"/><path d="M4.5 8a3.5 3.5 0 1 0 0 7 3.5 3.5 0 0 0 0-7zM4 9h1v5H4v-3.5H3V10c1 0 1-1 1-1z" style="marker:none" color="#5d656b" overflow="visible" stroke-width="2" enable-background="accumulate"/></g></svg>