<svg xmlns="http://www.w3.org/2000/svg" width="16" height="16" enable-background="new"><defs><filter id="a" color-interpolation-filters="sRGB"><feBlend mode="darken" in2="BackgroundImage"/></filter></defs><g fill="#5d656b"><path style="text-indent:0;text-transform:none;block-progression:tb" d="M15 3v2h-4c-.571 0-1 .429-1 1v4c0 1.645-1.355 3-3 3H2v-2h5c.571 0 1-.429 1-1V6c0-1.645 1.355-3 3-3z" color="#5d656b"/><path style="text-indent:0;text-transform:none" d="M7 3c.23 0 .44.044.656.094-.481.55-.861 1.177-1.03 1.906H1.999V3h5zm8 10h-4c-.23 0-.44-.044-.656-.094.481-.55.861-1.177 1.031-1.906H15z" color="#5d656b"/><path d="M4 1v6L0 4zM4 9v6l-4-3z"/></g></svg>