<svg xmlns="http://www.w3.org/2000/svg" height="16" width="16" enable-background="new"><defs><filter id="a" color-interpolation-filters="sRGB"><feBlend in2="BackgroundImage" mode="darken"/></filter></defs><g fill="#5d656b"><path d="M4 3C2.355 3 1 4.355 1 6v4c0 1.645 1.355 3 3 3h3.281A4.436 4.436 0 0 1 7 11.5c0-.172.044-.333.063-.5H4c-.571 0-1-.429-1-1V6c0-.571.429-1 1-1h3V3H4zm7 0v2h1c.571 0 1 .429 1 1v1.281c.795.284 1.483.76 2 1.406V6c0-1.645-1.355-3-3-3h-1z" style="text-indent:0;text-transform:none;block-progression:tb" color="#000"/><path d="M10 4L6 1v6z"/><path d="M11.5 8a3.5 3.5 0 1 0 0 7 3.5 3.5 0 0 0 0-7zM11 9h1v5h-1v-3.5h-1V10c1 0 1-1 1-1z" style="marker:none" color="#5d656b" overflow="visible" stroke-width="2" enable-background="accumulate"/></g></svg>