<?xml version="1.0" encoding="UTF-8" standalone="no"?>
<svg
   xmlns:osb="http://www.openswatchbook.org/uri/2009/osb"
   xmlns:dc="http://purl.org/dc/elements/1.1/"
   xmlns:cc="http://creativecommons.org/ns#"
   xmlns:rdf="http://www.w3.org/1999/02/22-rdf-syntax-ns#"
   xmlns:svg="http://www.w3.org/2000/svg"
   xmlns="http://www.w3.org/2000/svg"
   height="16"
   id="svg7384"
   style="enable-background:new"
   version="1.1"
   width="16">
  <metadata
     id="metadata90">
    <rdf:RDF>
      <cc:Work
         rdf:about="">
        <dc:format>image/svg+xml</dc:format>
        <dc:type
           rdf:resource="http://purl.org/dc/dcmitype/StillImage" />
        <dc:title>Moka Symbolic Icon Theme</dc:title>
      </cc:Work>
    </rdf:RDF>
  </metadata>
  <title
     id="title8473">Moka Symbolic Icon Theme</title>
  <defs
     id="defs7386">
    <linearGradient
       id="linearGradient5606"
       osb:paint="solid">
      <stop
         id="stop5608"
         offset="0"
         style="stop-color:#000000;stop-opacity:1;" />
    </linearGradient>
    <filter
       id="filter7554"
       style="color-interpolation-filters:sRGB">
      <feBlend
         id="feBlend7556"
         in2="BackgroundImage"
         mode="darken" />
    </filter>
  </defs>
  <g
     id="layer9"
     style="display:inline"
     transform="translate(-441.0002,268.00336)">
    <g
       id="g5104"
       style="stroke:none"
       transform="matrix(-1,0,0,1,758.00041,24.996641)">
      <path
         d="m 200,239 c -1.6447,0 -3,1.3553 -3,3 l 0,2.6875 c 0.51709,-0.64597 1.20552,-1.1229 2,-1.40625 L 199,242 c 0,-0.5713 0.4287,-1 1,-1 l 1,0 0,-0.5 0,-1 0,-0.5 -1,0 z m 5,0 0,2 3,0 c 0.5713,0 1,0.4287 1,1 l 0,4 c 0,0.5713 -0.4287,1 -1,1 l -1,0 -0.65625,0 -1.40625,0 c 0.0187,0.16677 0.0625,0.32822 0.0625,0.5 0,0.53043 -0.11271,1.02745 -0.28125,1.5 l 1.625,0 0.65625,0 1,0 c 1.6447,0 3,-1.3553 3,-3 l 0,-4 c 0,-1.6447 -1.3553,-3 -3,-3 l -3,0 z"
         id="path5096"
         style="color:#000000;text-indent:0;text-transform:none;block-progression:tb;fill:#bebebe;fill-opacity:1;stroke:none"
         transform="matrix(-1,0,0,1,513.00022,-529)" />
      <path
         d="m 311.00045,-289 -4,-3 0,6 z"
         id="path5098"
         style="fill:#bebebe;fill-opacity:1;stroke:none" />
      <path
         d="m 312.5002,-285 c 1.933,0 3.5,1.567 3.5,3.5 0,1.933 -1.567,3.5 -3.5,3.5 -1.933,0 -3.5,-1.567 -3.5,-3.5 0,-1.933 1.567,-3.5 3.5,-3.5 z m 0.5,1 -1,0 0,5 1,0 0,-3.5 1,0 0,-0.5 c -1,0 -1,-1 -1,-1 z"
         id="path5102"
         style="color:#bebebe;display:inline;overflow:visible;visibility:visible;fill:#bebebe;fill-opacity:1;stroke:none;stroke-width:2;marker:none;enable-background:accumulate" />
    </g>
  </g>
  <g
     id="layer10"
     style="display:inline;filter:url(#filter7554)"
     transform="translate(-441.0002,268.00336)" />
  <g
     id="layer1"
     style="display:inline"
     transform="translate(-200,-348.99664)" />
  <g
     id="layer14"
     style="display:inline"
     transform="translate(-441.0002,268.00336)" />
  <g
     id="layer15"
     style="display:inline"
     transform="translate(-441.0002,268.00336)" />
  <g
     id="g71291"
     style="display:inline"
     transform="translate(-441.0002,268.00336)" />
  <g
     id="layer2"
     style="display:inline"
     transform="translate(-200,-198.99664)" />
  <g
     id="g6058"
     style="display:inline"
     transform="translate(-200,-198.99664)" />
  <g
     id="layer12"
     style="display:inline"
     transform="translate(-441.0002,268.00336)" />
</svg>
