<?xml version="1.0" encoding="UTF-8" standalone="no"?>
<svg
   xmlns:osb="http://www.openswatchbook.org/uri/2009/osb"
   xmlns:dc="http://purl.org/dc/elements/1.1/"
   xmlns:cc="http://creativecommons.org/ns#"
   xmlns:rdf="http://www.w3.org/1999/02/22-rdf-syntax-ns#"
   xmlns:svg="http://www.w3.org/2000/svg"
   xmlns="http://www.w3.org/2000/svg"
   width="16.000254"
   version="1.1"
   style="enable-background:new"
   id="svg7384"
   height="16">
  <metadata
     id="metadata90">
    <rdf:RDF>
      <cc:Work
         rdf:about="">
        <dc:format>image/svg+xml</dc:format>
        <dc:type
           rdf:resource="http://purl.org/dc/dcmitype/StillImage" />
        <dc:title>Moka Symbolic Icon Theme</dc:title>
      </cc:Work>
    </rdf:RDF>
  </metadata>
  <title
     id="title8473">Moka Symbolic Icon Theme</title>
  <defs
     id="defs7386">
    <linearGradient
       osb:paint="solid"
       id="linearGradient5606">
      <stop
         style="stop-color:#000000;stop-opacity:1;"
         offset="0"
         id="stop5608" />
    </linearGradient>
    <filter
       style="color-interpolation-filters:sRGB"
       id="filter7554">
      <feBlend
         mode="darken"
         in2="BackgroundImage"
         id="feBlend7556" />
    </filter>
  </defs>
  <g
     transform="translate(-481.0002,288.00336)"
     style="display:inline"
     id="layer9">
    <path
       style="color:#bebebe;text-indent:0;text-transform:none;block-progression:tb;fill:#bebebe;fill-opacity:1;stroke:none"
       id="path4544-6"
       d="m 482.00045,-285.00336 0,0.9375 0,1.0625 4,0 c 0.5713,0 1,0.4287 1,1 l 0,4 c 0,1.6447 1.3553,3 3,3 l 5,0 0,-2 -5,0 c -0.5713,0 -1,-0.4287 -1,-1 l 0,-4 c 0,-1.6447 -1.3553,-3 -3,-3 z" />
    <path
       style="color:#bebebe;text-indent:0pt;text-transform:none;fill:#bebebe;fill-opacity:1;stroke:none"
       id="path4544-1-5"
       d="m 490.00045,-285.00336 c -0.22957,0 -0.44085,0.0438 -0.65625,0.0937 0.4813,0.5511 0.86125,1.1776 1.0312,1.9062 l 4.625,0 0,-2 -5,0 z m -8,10 4,0 c 0.22957,0 0.44085,-0.0438 0.65625,-0.0937 -0.4813,-0.55115 -0.86125,-1.1777 -1.0312,-1.9063 l -3.62505,0 z" />
    <path
       style="fill:#bebebe;fill-opacity:1;stroke:none"
       id="path3003-08"
       d="m 493.00045,-287.00336 0,6 4,-3 z" />
    <path
       style="fill:#bebebe;fill-opacity:1;stroke:none"
       id="path3773"
       d="m 493.00045,-279.00336 0,6 4,-3 z" />
  </g>
  <g
     transform="translate(-481.0002,288.00336)"
     style="display:inline;filter:url(#filter7554)"
     id="layer10" />
  <g
     transform="translate(-240,-328.99664)"
     style="display:inline"
     id="layer1" />
  <g
     transform="translate(-481.0002,288.00336)"
     style="display:inline"
     id="layer14" />
  <g
     transform="translate(-481.0002,288.00336)"
     style="display:inline"
     id="layer15" />
  <g
     transform="translate(-481.0002,288.00336)"
     style="display:inline"
     id="g71291" />
  <g
     transform="translate(-240,-178.99664)"
     style="display:inline"
     id="layer2" />
  <g
     transform="translate(-240,-178.99664)"
     style="display:inline"
     id="g6058" />
  <g
     transform="translate(-481.0002,288.00336)"
     style="display:inline"
     id="layer12" />
</svg>
