<svg xmlns="http://www.w3.org/2000/svg" width="16" height="16" enable-background="new"><defs><filter id="a" color-interpolation-filters="sRGB"><feBlend mode="darken" in2="BackgroundImage"/></filter></defs><g fill="#5d656b"><path style="text-indent:0;text-transform:none;block-progression:tb" d="M4 3C2.355 3 1 4.355 1 6v4c0 1.645 1.355 3 3 3h8c1.645 0 3-1.355 3-3V6c0-1.645-1.355-3-3-3h-1v2h1c.571 0 1 .429 1 1v4c0 .571-.429 1-1 1H4c-.571 0-1-.429-1-1V6c0-.571.429-1 1-1h3V3H4z" color="#000"/><path d="M10 4L6 1v6z"/></g></svg>