<svg xmlns="http://www.w3.org/2000/svg" width="16" height="16" enable-background="new"><defs><filter id="a" color-interpolation-filters="sRGB"><feBlend mode="darken" in2="BackgroundImage"/></filter></defs><g fill="#5d656b"><path style="text-indent:0;text-transform:none;block-progression:tb" d="M12 3c1.645 0 3 1.355 3 3v4c0 1.645-1.355 3-3 3H4c-1.645 0-3-1.355-3-3V6c0-1.645 1.355-3 3-3h1v2H4c-.571 0-1 .429-1 1v4c0 .571.429 1 1 1H12c.571 0 1-.429 1-1V6c0-.571-.429-1-1-1H9V3h3z" color="#000"/><path d="M6 4l4-3v6z"/></g></svg>