<?xml version="1.0" encoding="UTF-8" standalone="no"?>
<svg
   xmlns:osb="http://www.openswatchbook.org/uri/2009/osb"
   xmlns:dc="http://purl.org/dc/elements/1.1/"
   xmlns:cc="http://creativecommons.org/ns#"
   xmlns:rdf="http://www.w3.org/1999/02/22-rdf-syntax-ns#"
   xmlns:svg="http://www.w3.org/2000/svg"
   xmlns="http://www.w3.org/2000/svg"
   height="16"
   id="svg7384"
   style="enable-background:new"
   version="1.1"
   width="16">
  <metadata
     id="metadata90">
    <rdf:RDF>
      <cc:Work
         rdf:about="">
        <dc:format>image/svg+xml</dc:format>
        <dc:type
           rdf:resource="http://purl.org/dc/dcmitype/StillImage" />
        <dc:title>Moka Symbolic Icon Theme</dc:title>
      </cc:Work>
    </rdf:RDF>
  </metadata>
  <title
     id="title8473">Moka Symbolic Icon Theme</title>
  <defs
     id="defs7386">
    <linearGradient
       id="linearGradient5606"
       osb:paint="solid">
      <stop
         id="stop5608"
         offset="0"
         style="stop-color:#000000;stop-opacity:1;" />
    </linearGradient>
    <filter
       id="filter7554"
       style="color-interpolation-filters:sRGB">
      <feBlend
         id="feBlend7556"
         in2="BackgroundImage"
         mode="darken" />
    </filter>
  </defs>
  <g
     id="layer9"
     style="display:inline"
     transform="translate(-461.0002,268.00336)">
    <path
       d="m 465.00024,-265.00338 c -1.6447,0 -3,1.3553 -3,3 l 0,4 c 0,1.6447 1.3553,3 3,3 l 1,0 0.65625,0 1.625,0 c -0.16854,-0.47255 -0.28125,-0.96957 -0.28125,-1.5 0,-0.17178 0.0438,-0.33323 0.0625,-0.5 l -1.40625,0 -0.65625,0 -1,0 c -0.5713,0 -1,-0.4287 -1,-1 l 0,-4 c 0,-0.5713 0.4287,-1 1,-1 l 3,0 0,-2 -3,0 z m 7,0 0,0.5 0,1 0,0.5 1,0 c 0.5713,0 1,0.4287 1,1 l 0,1.28125 c 0.79448,0.28335 1.48291,0.76028 2,1.40625 l 0,-2.6875 c 0,-1.6447 -1.3553,-3 -3,-3 l -1,0 z"
       id="path5086"
       style="color:#000000;text-indent:0;text-transform:none;block-progression:tb;fill:#bebebe;fill-opacity:1;stroke:none" />
    <path
       d="m 471.00044,-264.00336 -4,-3 0,6 z"
       id="path5088"
       style="fill:#bebebe;fill-opacity:1;stroke:none" />
    <path
       d="m 472.50019,-260.00336 c -1.933,0 -3.5,1.567 -3.5,3.5 0,1.933 1.567,3.5 3.5,3.5 1.933,0 3.5,-1.567 3.5,-3.5 0,-1.933 -1.567,-3.5 -3.5,-3.5 z m -0.5,1 1,0 0,5 -1,0 0,-3.5 -1,0 0,-0.5 c 1,0 1,-1 1,-1 z"
       id="path5092"
       style="color:#bebebe;display:inline;overflow:visible;visibility:visible;fill:#bebebe;fill-opacity:1;stroke:none;stroke-width:2;marker:none;enable-background:accumulate" />
  </g>
  <g
     id="layer10"
     style="display:inline;filter:url(#filter7554)"
     transform="translate(-461.0002,268.00336)" />
  <g
     id="layer1"
     style="display:inline"
     transform="translate(-220,-348.99664)" />
  <g
     id="layer14"
     style="display:inline"
     transform="translate(-461.0002,268.00336)" />
  <g
     id="layer15"
     style="display:inline"
     transform="translate(-461.0002,268.00336)" />
  <g
     id="g71291"
     style="display:inline"
     transform="translate(-461.0002,268.00336)" />
  <g
     id="layer2"
     style="display:inline"
     transform="translate(-220,-198.99664)" />
  <g
     id="g6058"
     style="display:inline"
     transform="translate(-220,-198.99664)" />
  <g
     id="layer12"
     style="display:inline"
     transform="translate(-461.0002,268.00336)" />
</svg>
