<svg xmlns="http://www.w3.org/2000/svg" height="16" width="16.001"><g color="#000" fill="#5d656b"><path d="M15.343 4.926l.707.707-.354.354a2.999 2.999 0 0 0 0 4.242l.354.353-.707.707-.354-.353a4 4 0 0 1 0-5.656z" style="line-height:normal;font-variant-ligatures:normal;font-variant-position:normal;font-variant-caps:normal;font-variant-numeric:normal;font-variant-alternates:normal;font-feature-settings:normal;text-indent:0;text-align:start;text-decoration-line:none;text-decoration-style:solid;text-decoration-color:#000;text-transform:none;text-orientation:mixed;white-space:normal;shape-padding:0;isolation:auto;mix-blend-mode:normal" font-weight="400" overflow="visible" font-family="sans-serif"/><path d="M13.221 2.805l.707.707-.353.353a5.999 5.999 0 0 0 0 8.485l.353.353-.707.707-.353-.353a7 7 0 0 1 0-9.899z" style="line-height:normal;font-variant-ligatures:normal;font-variant-position:normal;font-variant-caps:normal;font-variant-numeric:normal;font-variant-alternates:normal;font-feature-settings:normal;text-indent:0;text-align:start;text-decoration-line:none;text-decoration-style:solid;text-decoration-color:#000;text-transform:none;text-orientation:mixed;white-space:normal;shape-padding:0;isolation:auto;mix-blend-mode:normal" font-weight="400" overflow="visible" font-family="sans-serif"/><path d="M4.496 0C3.087 0 2 .842 2 2.537v5.924C2 10.156 3.087 11 4.496 11c1.41 0 2.494-.846 2.494-2.54V2.538C6.99.845 5.905 0 4.496 0zM0 7v1.5c0 2.321 1.748 4.199 4 4.45v2.073c-.683.054-1.356.2-2 .436V16h5v-.541a7.856 7.856 0 0 0-2-.434V12.95c2.252-.25 4-2.128 4-4.449V7H8v1.5a3.482 3.482 0 0 1-3 3.451V11.5H4v.451A3.482 3.482 0 0 1 1 8.5V7z" style="marker:none" overflow="visible"/></g></svg>