<?xml version="1.0" encoding="UTF-8" standalone="no"?>
<svg
   xmlns:osb="http://www.openswatchbook.org/uri/2009/osb"
   xmlns:dc="http://purl.org/dc/elements/1.1/"
   xmlns:cc="http://creativecommons.org/ns#"
   xmlns:rdf="http://www.w3.org/1999/02/22-rdf-syntax-ns#"
   xmlns:svg="http://www.w3.org/2000/svg"
   xmlns="http://www.w3.org/2000/svg"
   xmlns:sodipodi="http://sodipodi.sourceforge.net/DTD/sodipodi-0.dtd"
   xmlns:inkscape="http://www.inkscape.org/namespaces/inkscape"
   height="16"
   id="svg7384"
   style="enable-background:new"
   version="1.1"
   width="16"
   sodipodi:docname="microphone-sensitivity-muted-symbolic.svg"
   inkscape:version="0.92.4 (5da689c313, 2019-01-14)">
  <sodipodi:namedview
     pagecolor="#ffffff"
     bordercolor="#666666"
     borderopacity="1"
     objecttolerance="10"
     gridtolerance="10"
     guidetolerance="10"
     inkscape:pageopacity="0"
     inkscape:pageshadow="2"
     inkscape:window-width="1366"
     inkscape:window-height="706"
     id="namedview21"
     showgrid="false"
     inkscape:zoom="14.75"
     inkscape:cx="-0.6779661"
     inkscape:cy="7.7966102"
     inkscape:window-x="0"
     inkscape:window-y="32"
     inkscape:window-maximized="1"
     inkscape:current-layer="svg7384" />
  <metadata
     id="metadata90">
    <rdf:RDF>
      <cc:Work
         rdf:about="">
        <dc:format>image/svg+xml</dc:format>
        <dc:type
           rdf:resource="http://purl.org/dc/dcmitype/StillImage" />
        <dc:title>Moka Symbolic Icon Theme</dc:title>
      </cc:Work>
    </rdf:RDF>
  </metadata>
  <title
     id="title8473">Moka Symbolic Icon Theme</title>
  <defs
     id="defs7386">
    <linearGradient
       id="linearGradient5606"
       osb:paint="solid">
      <stop
         id="stop5608"
         offset="0"
         style="stop-color:#000000;stop-opacity:1;" />
    </linearGradient>
    <filter
       id="filter7554"
       style="color-interpolation-filters:sRGB">
      <feBlend
         id="feBlend7556"
         in2="BackgroundImage"
         mode="darken" />
    </filter>
  </defs>
  <path
     inkscape:connector-curvature="0"
     d="M 7.496,0 C 6.087,0 5,0.842 5,2.537 V 8.461 C 5,8.733 5.037,8.975 5.09,9.203 L 5.998,8.295 V 2.537 c 0,-0.634 0.177,-0.959 0.408,-1.178 0.232,-0.218 0.585,-0.36 1.09,-0.36 0.505,0 0.856,0.141 1.088,0.36 0.232,0.22 0.408,0.545 0.408,1.178 V 5.301 L 9.99,4.303 V 2.537 C 9.99,0.845 8.905,0 7.496,0 Z m 6.756,1.252 -13,13 0.496,0.496 L 4.596,11.9 A 4.484,4.484 0 0 0 7,12.95 v 2.073 A 7.576,7.576 0 0 0 5,15.459 V 16 h 5 V 15.459 A 7.856,7.856 0 0 0 8,15.025 V 12.95 c 2.252,-0.25 4,-2.128 4,-4.449 V 7 H 11 V 8.5 A 3.482,3.482 0 0 1 8,11.951 V 11.5 H 7 v 0.451 A 3.49,3.49 0 0 1 5.293,11.203 L 5.955,10.541 C 6.375,10.843 6.903,11 7.496,11 8.906,11 9.99,10.154 9.99,8.46 V 6.507 L 14.748,1.749 Z M 3,7 v 1.5 c 0,0.806 0.222,1.552 0.592,2.201 L 4.334,9.959 A 3.45,3.45 0 0 1 4,8.5 V 7 Z m 5.992,0.504 v 0.957 c 0,0.633 -0.176,0.958 -0.408,1.178 -0.232,0.219 -0.583,0.363 -1.088,0.363 -0.343,0 -0.61,-0.07 -0.822,-0.18 z"
     style="color:#000000;overflow:visible;opacity:0.5;fill:#808080;marker:none"
     overflow="visible"
     id="path2" />
</svg>
