<?xml version="1.0" encoding="UTF-8" standalone="no"?>
<svg
   xmlns:osb="http://www.openswatchbook.org/uri/2009/osb"
   xmlns:dc="http://purl.org/dc/elements/1.1/"
   xmlns:cc="http://creativecommons.org/ns#"
   xmlns:rdf="http://www.w3.org/1999/02/22-rdf-syntax-ns#"
   xmlns:svg="http://www.w3.org/2000/svg"
   xmlns="http://www.w3.org/2000/svg"
   xmlns:sodipodi="http://sodipodi.sourceforge.net/DTD/sodipodi-0.dtd"
   xmlns:inkscape="http://www.inkscape.org/namespaces/inkscape"
   height="16"
   id="svg7384"
   style="enable-background:new"
   version="1.1"
   width="16.001175"
   sodipodi:docname="microphone-sensitivity-high-symbolic.svg"
   inkscape:version="0.92.4 (5da689c313, 2019-01-14)">
  <sodipodi:namedview
     pagecolor="#ffffff"
     bordercolor="#666666"
     borderopacity="1"
     objecttolerance="10"
     gridtolerance="10"
     guidetolerance="10"
     inkscape:pageopacity="0"
     inkscape:pageshadow="2"
     inkscape:window-width="1366"
     inkscape:window-height="706"
     id="namedview23"
     showgrid="false"
     inkscape:zoom="29.5"
     inkscape:cx="-0.34122199"
     inkscape:cy="11.085939"
     inkscape:window-x="0"
     inkscape:window-y="32"
     inkscape:window-maximized="1"
     inkscape:current-layer="svg7384" />
  <metadata
     id="metadata90">
    <rdf:RDF>
      <cc:Work
         rdf:about="">
        <dc:format>image/svg+xml</dc:format>
        <dc:type
           rdf:resource="http://purl.org/dc/dcmitype/StillImage" />
        <dc:title>Moka Symbolic Icon Theme</dc:title>
      </cc:Work>
    </rdf:RDF>
  </metadata>
  <title
     id="title8473">Moka Symbolic Icon Theme</title>
  <defs
     id="defs7386">
    <linearGradient
       id="linearGradient5606"
       osb:paint="solid">
      <stop
         id="stop5608"
         offset="0"
         style="stop-color:#000000;stop-opacity:1;" />
    </linearGradient>
    <filter
       id="filter7554"
       style="color-interpolation-filters:sRGB">
      <feBlend
         id="feBlend7556"
         in2="BackgroundImage"
         mode="darken" />
    </filter>
  </defs>
  <g
     style="color:#000000;fill:#808080"
     id="g8">
    <path
       inkscape:connector-curvature="0"
       d="m 15.343,4.926 0.707,0.707 -0.354,0.354 a 2.999,2.999 0 0 0 0,4.242 l 0.354,0.353 -0.707,0.707 -0.354,-0.353 a 4,4 0 0 1 0,-5.656 z"
       style="font-weight:400;line-height:normal;font-family:sans-serif;font-variant-ligatures:normal;font-variant-position:normal;font-variant-caps:normal;font-variant-numeric:normal;font-variant-alternates:normal;font-feature-settings:normal;text-indent:0;text-align:start;text-decoration:none;text-decoration-line:none;text-decoration-style:solid;text-decoration-color:#000000;text-transform:none;text-orientation:mixed;white-space:normal;shape-padding:0;overflow:visible;isolation:auto;mix-blend-mode:normal"
       font-weight="400"
       overflow="visible"
       id="path2" />
    <path
       inkscape:connector-curvature="0"
       d="m 13.221,2.805 0.707,0.707 -0.353,0.353 a 5.999,5.999 0 0 0 0,8.485 l 0.353,0.353 -0.707,0.707 -0.353,-0.353 a 7,7 0 0 1 0,-9.899 z"
       style="font-weight:400;line-height:normal;font-family:sans-serif;font-variant-ligatures:normal;font-variant-position:normal;font-variant-caps:normal;font-variant-numeric:normal;font-variant-alternates:normal;font-feature-settings:normal;text-indent:0;text-align:start;text-decoration:none;text-decoration-line:none;text-decoration-style:solid;text-decoration-color:#000000;text-transform:none;text-orientation:mixed;white-space:normal;shape-padding:0;overflow:visible;isolation:auto;mix-blend-mode:normal"
       font-weight="400"
       overflow="visible"
       id="path4" />
    <path
       inkscape:connector-curvature="0"
       d="M 4.496,0 C 3.087,0 2,0.842 2,2.537 V 8.461 C 2,10.156 3.087,11 4.496,11 5.906,11 6.99,10.154 6.99,8.46 V 2.538 C 6.99,0.845 5.905,0 4.496,0 Z M 0,7 v 1.5 c 0,2.321 1.748,4.199 4,4.45 v 2.073 c -0.6833211,0.05419 -1.3561276,0.200857 -2,0.436 V 16 H 7 V 15.459 C 6.3551092,15.227745 5.6827387,15.08184 5,15.025 V 12.95 C 7.252,12.7 9,10.822 9,8.501 V 7 H 8 v 1.5 c 0.00126,1.737778 -1.2789515,3.210446 -3,3.451 V 11.5 H 4 v 0.451 C 2.2789515,11.710446 0.99874136,10.237778 1,8.5 V 7 Z"
       style="overflow:visible;marker:none"
       overflow="visible"
       id="path6"
       sodipodi:nodetypes="ssssssscsccccccccscccccccccc" />
  </g>
</svg>
