<svg width="16" height="16" version="1.1" xmlns="http://www.w3.org/2000/svg">
 <path d="m4.5 0a2.495 2.495 0 0 0-1.7012 0.67773l0.70312 0.70313c0.26492-0.23625 0.61352-0.38086 0.99805-0.38086 0.831 0 1.5 0.669 1.5 1.5v1.3789l1 1v-2.3789c0-1.385-1.115-2.5-2.5-2.5zm-2.2773 1.5156a2.495 2.495 0 0 0-0.22266 0.98438v6c0 1.385 1.115 2.5 2.5 2.5s2.5-1.115 2.5-2.5v-2.207l-1-1v3.207c0 0.831-0.669 1.5-1.5 1.5s-1.5-0.669-1.5-1.5v-6c0-0.065588 0.005586-0.13004 0.013672-0.19336l-0.79102-0.79102zm10.998 1.2891-0.35352 0.35352a7 7 0 0 0-1.998 5.5898l1.2637 1.2637a5.999 5.999 0 0 1 1.4414-6.1465l0.35352-0.35352-0.70703-0.70703zm2.123 2.1211-0.35547 0.35352a4 4 0 0 0 0 5.6563l0.35547 0.35352 0.70703-0.70703-0.35547-0.35352a2.999 2.999 0 0 1 0-4.2422l0.35547-0.35352-0.70703-0.70703zm-15.344 2.0742v1.5c0 2.321 1.748 4.1982 4 4.4492v2.0508h-2v1h5v-1h-2v-2.0508c2.252-0.251 4-2.1282 4-4.4492v-0.20703l-1-1v1.207c0 1.939-1.561 3.5-3.5 3.5s-3.5-1.561-3.5-3.5v-1.5h-1zm11.289 3.582a7 7 0 0 0 1.5781 2.4746l0.35352 0.35352 0.44727-0.44922-2.3789-2.3789z" fill="#5d656b"/>
 <rect transform="rotate(45)" x="1.3137" y="-.5" width="20" height="1" ry="0" fill="#5d656b"/>
</svg>
