<svg width="16" height="16.001" version="1.1" xmlns="http://www.w3.org/2000/svg">
 <path d="m13.5 0c-0.277 0-0.5 0.223-0.5 0.5v10.379l2 2v-12.379c0-0.277-0.223-0.5-0.5-0.5h-1zm-3 3c-0.277 0-0.5 0.223-0.5 0.5v4.3789l2 2v-6.3789c0-0.277-0.223-0.5-0.5-0.5h-1zm-2.3789 3 0.87891 0.87891v-0.37891c0-0.277-0.223-0.5-0.5-0.5h-0.37891zm-1.0879 0.32617c-0.020076 0.054257-0.033203 0.11242-0.033203 0.17383v8c0 0.277 0.223 0.5 0.5 0.5h1c0.277 0 0.5-0.223 0.5-0.5v-6.207l-1.9668-1.9668zm-2.5332 2.6738c-0.277 0-0.5 0.223-0.5 0.5v5c0 0.277 0.223 0.5 0.5 0.5h1c0.277 0 0.5-0.223 0.5-0.5v-5c0-0.277-0.223-0.5-0.5-0.5h-1zm5.5 0.29297v5.207c0 0.277 0.223 0.5 0.5 0.5h1c0.277 0 0.5-0.223 0.5-0.5v-3.207l-2-2zm-8.5 2.707c-0.277 0-0.5 0.223-0.5 0.5v2c0 0.277 0.223 0.5 0.5 0.5h1c0.277 0 0.5-0.223 0.5-0.5v-2c0-0.277-0.223-0.5-0.5-0.5h-1zm11.5 0.29297v2.207c0 0.277 0.223 0.5 0.5 0.5h1c0.277 0 0.5-0.223 0.5-0.5v-0.20703l-2-2z" fill="#5d656b"/>
 <rect transform="rotate(45)" x="1.3137" y="-.5" width="20" height="1" ry="0" fill="#5d656b"/>
</svg>
