<svg width="16" height="16" version="1.1" xmlns="http://www.w3.org/2000/svg">
 <path d="m8.0312 2c-1.1957 0-2.3438 0.16939-3.4355 0.47461l0.8418 0.8418c0.80965-0.2025 1.6517-0.31641 2.5312-0.31641h0.0019531c2.393 0 4.5225 0.83625 6.4355 2.0312l-3.4746 3.7793 0.71094 0.71094 4.3574-4.8027c-2.257-1.654-4.9578-2.7188-7.9688-2.7188zm-4.502 0.82227c-1.27 0.47436-2.4526 1.1329-3.5293 1.9277l8.0312 8.75 2.9375-3.2383-0.71484-0.71484-2.2832 2.4844-6.377-7.0312c0.87423-0.54248 1.7929-1.0077 2.7598-1.3535l-0.82422-0.82422z" fill="#5d656b"/>
 <rect transform="rotate(45)" x="1.3137" y="-.5" width="20" height="1" ry="0" fill="#5d656b"/>
</svg>
