<?xml version="1.0" encoding="UTF-8" standalone="no"?>
<svg
   xmlns:osb="http://www.openswatchbook.org/uri/2009/osb"
   xmlns:dc="http://purl.org/dc/elements/1.1/"
   xmlns:cc="http://creativecommons.org/ns#"
   xmlns:rdf="http://www.w3.org/1999/02/22-rdf-syntax-ns#"
   xmlns:svg="http://www.w3.org/2000/svg"
   xmlns="http://www.w3.org/2000/svg"
   width="16.000198"
   version="1.1"
   style="enable-background:new"
   id="svg7384"
   height="16">
  <metadata
     id="metadata90">
    <rdf:RDF>
      <cc:Work
         rdf:about="">
        <dc:format>image/svg+xml</dc:format>
        <dc:type
           rdf:resource="http://purl.org/dc/dcmitype/StillImage" />
        <dc:title>Moka Symbolic Icon Theme</dc:title>
      </cc:Work>
    </rdf:RDF>
  </metadata>
  <title
     id="title8473">Moka Symbolic Icon Theme</title>
  <defs
     id="defs7386">
    <linearGradient
       osb:paint="solid"
       id="linearGradient5606">
      <stop
         style="stop-color:#000000;stop-opacity:1;"
         offset="0"
         id="stop5608" />
    </linearGradient>
    <filter
       style="color-interpolation-filters:sRGB"
       id="filter7554">
      <feBlend
         mode="darken"
         in2="BackgroundImage"
         id="feBlend7556" />
    </filter>
  </defs>
  <g
     transform="translate(-301.0002,348.00336)"
     style="display:inline"
     id="layer9">
    <g
       transform="translate(220.0004,-585.00336)"
       style="fill:#bebebe;fill-opacity:1"
       id="layer9-23">
      <path
         style="color:#bebebe;fill:#bebebe;fill-opacity:1;stroke:none"
         id="path1244"
         d="m 81.0003,240.06248 -5e-4,9.9375 c -1.01e-4,2 2,2 2,2 l 12,0 c 2,0 2,-2 2,-2 l 0,-10 c 0,0 1.2e-5,-2 -2,-2 l -12,0 c 0,0 -1.999396,4.3e-4 -1.9995,2.0625 z M 83,240 l 4,0 c 0.666386,0.0162 1.167229,0.83815 0.8755,1.4375 l -1.375,2.7812 c 0.35458,0.11552 0.74913,0.19557 0.96875,0.4375 0.33238,0.36614 0.53125,0.8102 0.53125,1.3438 l 0,2 c 0,1.1124 -0.90732,2 -2,2 l -3,0 -5e-4,-2 3,0 0,-2 -0.9995,0 c -0.666386,-0.0162 -1.166729,-0.83815 -0.875,-1.4375 l 1.25,-2.5625 -2.375,0 z m 10,0 c 2,0 2,2 2,2 l 0,1 -2,0 0,-1 -2,0 0,6 2,0 0,-2 -1,0 8e-4,-1.96875 L 94,244 l 1.0008,0.0312 0,1 0,2.9375 C 95.0008,247.96875 95,250 93,250 l -1.9992,-5e-5 C 91.0008,249.99995 89,250 89,248 l 0,-6 c 0,-2 2,-2 2,-2 z" />
    </g>
  </g>
  <g
     transform="translate(-301.0002,348.00336)"
     style="display:inline;filter:url(#filter7554)"
     id="layer10" />
  <g
     transform="translate(-60,-268.99664)"
     style="display:inline"
     id="layer1" />
  <g
     transform="translate(-301.0002,348.00336)"
     style="display:inline"
     id="layer14" />
  <g
     transform="translate(-301.0002,348.00336)"
     style="display:inline"
     id="layer15" />
  <g
     transform="translate(-301.0002,348.00336)"
     style="display:inline"
     id="g71291" />
  <g
     transform="translate(-60,-118.99664)"
     style="display:inline"
     id="layer2" />
  <g
     transform="translate(-60,-118.99664)"
     style="display:inline"
     id="g6058" />
  <g
     transform="translate(-301.0002,348.00336)"
     style="display:inline"
     id="layer12" />
</svg>
