<?xml version="1.0" encoding="UTF-8" standalone="no"?>
<svg
   xmlns:osb="http://www.openswatchbook.org/uri/2009/osb"
   xmlns:dc="http://purl.org/dc/elements/1.1/"
   xmlns:cc="http://creativecommons.org/ns#"
   xmlns:rdf="http://www.w3.org/1999/02/22-rdf-syntax-ns#"
   xmlns:svg="http://www.w3.org/2000/svg"
   xmlns="http://www.w3.org/2000/svg"
   width="16.000198"
   version="1.1"
   style="enable-background:new"
   id="svg7384"
   height="16">
  <metadata
     id="metadata90">
    <rdf:RDF>
      <cc:Work
         rdf:about="">
        <dc:format>image/svg+xml</dc:format>
        <dc:type
           rdf:resource="http://purl.org/dc/dcmitype/StillImage" />
        <dc:title>Moka Symbolic Icon Theme</dc:title>
      </cc:Work>
    </rdf:RDF>
  </metadata>
  <title
     id="title8473">Moka Symbolic Icon Theme</title>
  <defs
     id="defs7386">
    <linearGradient
       osb:paint="solid"
       id="linearGradient5606">
      <stop
         style="stop-color:#000000;stop-opacity:1;"
         offset="0"
         id="stop5608" />
    </linearGradient>
    <filter
       style="color-interpolation-filters:sRGB"
       id="filter7554">
      <feBlend
         mode="darken"
         in2="BackgroundImage"
         id="feBlend7556" />
    </filter>
  </defs>
  <g
     transform="translate(-321.0002,348.00336)"
     style="display:inline"
     id="layer9">
    <g
       transform="translate(240.0004,-585.00336)"
       style="fill:#bebebe;fill-opacity:1"
       id="layer9-5">
      <path
         transform="translate(81,237)"
         style="color:#bebebe;fill:#bebebe;fill-opacity:1;stroke:none"
         id="path1244-8"
         d="m 1.9998,0.99998 c 0,0 -1.999914,0 -2,2.0625 l 0,9.9375 c -8.4e-5,2 2,2 2,2 l 12,0 c 2,0 2,-2 2,-2 l 0,-10 c 0,0 0,-2 -2,-2 z M 2,3 4,3 4,7 5,7 5,3 7,3 7,7 7,9 7,13 5,13 5,9 4,9 C 2,9 2,7 2,7 Z m 8,0 2,0 c 2,0 2,2 2,2 l 0,1 -2,0 0,-1 -2,0 0,6 2,0 L 12,9 11,9 11,7.03125 13,7 l 1,0.03125 0,1 0,2.9375 C 14,10.9688 14,13 12,13 l -2,0 c 0,0 -2,0 -2,-2 L 8,5 C 8,3 10,3 10,3 Z" />
    </g>
  </g>
  <g
     transform="translate(-321.0002,348.00336)"
     style="display:inline;filter:url(#filter7554)"
     id="layer10" />
  <g
     transform="translate(-80,-268.99664)"
     style="display:inline"
     id="layer1" />
  <g
     transform="translate(-321.0002,348.00336)"
     style="display:inline"
     id="layer14" />
  <g
     transform="translate(-321.0002,348.00336)"
     style="display:inline"
     id="layer15" />
  <g
     transform="translate(-321.0002,348.00336)"
     style="display:inline"
     id="g71291" />
  <g
     transform="translate(-80,-118.99664)"
     style="display:inline"
     id="layer2" />
  <g
     transform="translate(-80,-118.99664)"
     style="display:inline"
     id="g6058" />
  <g
     transform="translate(-321.0002,348.00336)"
     style="display:inline"
     id="layer12" />
</svg>
