<?xml version="1.0" encoding="UTF-8" standalone="no"?>
<svg
   xmlns:osb="http://www.openswatchbook.org/uri/2009/osb"
   xmlns:dc="http://purl.org/dc/elements/1.1/"
   xmlns:cc="http://creativecommons.org/ns#"
   xmlns:rdf="http://www.w3.org/1999/02/22-rdf-syntax-ns#"
   xmlns:svg="http://www.w3.org/2000/svg"
   xmlns="http://www.w3.org/2000/svg"
   width="16"
   version="1.1"
   style="enable-background:new"
   id="svg7384"
   height="16">
  <metadata
     id="metadata90">
    <rdf:RDF>
      <cc:Work
         rdf:about="">
        <dc:format>image/svg+xml</dc:format>
        <dc:type
           rdf:resource="http://purl.org/dc/dcmitype/StillImage" />
        <dc:title>Moka Symbolic Icon Theme</dc:title>
      </cc:Work>
    </rdf:RDF>
  </metadata>
  <title
     id="title8473">Moka Symbolic Icon Theme</title>
  <defs
     id="defs7386">
    <linearGradient
       osb:paint="solid"
       id="linearGradient5606">
      <stop
         style="stop-color:#000000;stop-opacity:1;"
         offset="0"
         id="stop5608" />
    </linearGradient>
    <filter
       style="color-interpolation-filters:sRGB"
       id="filter7554">
      <feBlend
         mode="darken"
         in2="BackgroundImage"
         id="feBlend7556" />
    </filter>
  </defs>
  <g
     transform="translate(-361.0002,348.00336)"
     style="display:inline"
     id="layer9">
    <g
       transform="translate(300.00044,-585.00334)"
       style="fill:#bebebe;fill-opacity:1"
       id="layer9-0">
      <path
         transform="translate(61,237)"
         style="color:#bebebe;fill:#bebebe;fill-opacity:1;stroke:none"
         id="rect7011-2"
         d="m 2.9998,0.99998 c 0,0 -2,0 -2,2.0625 l 0,9.9375 c 0,2 2,2 2,2 l 10,0 c 2,0 2,-2 2,-2 l 0,-10 c 0,0 0,-2 -2,-2 z m 3,2 L 6,7 l 4,0 -2e-4,-4.00002 2,0 L 12,13 9.9998,12.99998 10,9 6,9 5.9998,12.99998 4,13 3.9998,2.99998 Z" />
    </g>
  </g>
  <g
     transform="translate(-361.0002,348.00336)"
     style="display:inline;filter:url(#filter7554)"
     id="layer10" />
  <g
     transform="translate(-120,-268.99664)"
     style="display:inline"
     id="layer1" />
  <g
     transform="translate(-361.0002,348.00336)"
     style="display:inline"
     id="layer14" />
  <g
     transform="translate(-361.0002,348.00336)"
     style="display:inline"
     id="layer15" />
  <g
     transform="translate(-361.0002,348.00336)"
     style="display:inline"
     id="g71291" />
  <g
     transform="translate(-120,-118.99664)"
     style="display:inline"
     id="layer2" />
  <g
     transform="translate(-120,-118.99664)"
     style="display:inline"
     id="g6058" />
  <g
     transform="translate(-361.0002,348.00336)"
     style="display:inline"
     id="layer12" />
</svg>
