<svg height="16" width="16" xmlns="http://www.w3.org/2000/svg"><g fill="#5d656b"><path d="M13 9c-1.108 0-2 .91-2 2.031V12h-.5s-.5 0-.5.5v3s0 .5.5.5h5s.5 0 .5-.5v-3c0-.5-.5-.5-.5-.5H15v-.969C15 9.911 14.108 9 13 9zm0 1c.554 0 1 .442 1 1v1h-2v-1c0-.558.446-1 1-1z"/><path color="#000" d="M8 3C5.147 3 2.532 4.111.5 5.938l1.281 1.437C3.593 5.787 5.514 5 8.001 5c2.486 0 4.32.74 6.218 2.406L15.5 5.937C13.469 4.111 10.854 3 8 3zm0 4c-1.848 0-3.514.75-4.875 1.875l1.344 1.406C5.375 9.632 6.768 9 7.938 9c.772 0 1.648.276 2.427.645a3.013 3.013 0 0 1 1.63-1.454C10.816 7.451 9.456 7 8 7z" opacity=".35" overflow="visible" style="marker:none"/><path color="#000" d="M8 11c-.884 0-1.765.477-2.125.875L8 14.156l1-1.074v-1.889A3.03 3.03 0 0 0 8 11z" overflow="visible" style="marker:none"/></g></svg>