<svg width="16px" height="16px" version="1.1" viewBox="0 0 16 16" xmlns="http://www.w3.org/2000/svg">
 <path d="m7.998 0c-0.27102 0-0.54135 0.061232-0.81445 0.15625-0.012459 0.004312-0.024831 0.0088709-0.037109 0.013672-0.77872 0.30686-2.255 0.81362-3.5703 1.2852l0.7832 0.7832c1.177-0.41698 2.4212-0.8478 3.1543-1.1367 0.21044-0.073221 0.35628-0.10156 0.48438-0.10156 0.13725 0 0.28371 0.028347 0.49414 0.10156 1.2077 0.47595 3.8144 1.3997 5.1777 1.8848 0.26536 0.10068 0.33035 0.2369 0.33008 0.56641l-0.003906 5.3418c-8.49e-4 0.98947-0.18541 1.7122-0.625 2.3555l0.70898 0.70898c0.61293-0.8566 0.91508-1.8813 0.91602-3.0625l0.003906-5.3418c1.93e-4 -0.22992-0.003796-0.52168-0.19141-0.85742-0.18756-0.33575-0.53464-0.55217-0.7832-0.64648-0.0065-0.0020198-0.013002-0.0039693-0.019532-0.0058593-1.3647-0.48562-3.9846-1.4171-5.1465-1.875-0.012925-0.004826-0.025948-0.0093849-0.039062-0.013672-0.27311-0.09503-0.55163-0.15625-0.82227-0.15625zm-5.459 1.832c-0.20956 0.078724-0.40666 0.1539-0.58398 0.22461-0.00785 0.00316-0.015666 0.0064058-0.023438 0.0097656-0.22994 0.098558-0.55638 0.30917-0.73828 0.63867-0.1819 0.3295-0.18925 0.61851-0.18945 0.84766l-0.0039062 5.3418c-0.001241 1.4947 0.47433 2.739 1.4727 3.709 0.99665 0.96839 2.3954 1.7697 4.4707 3.0352 0.00124 7.68e-4 0.0026662 0.001153 0.0039062 0.001953 0.00166 1e-3 0.0022363 7.97e-4 0.0039063 0.001953 0.31446 0.19425 0.67722 0.35421 1.0391 0.35547l0.0019531 0.001953h0.0019531l0.0019532-0.001953c0.35749-0.0013 0.73689-0.16346 1.0527-0.35938h0.0019531c1.993-1.2051 3.3691-1.992 4.3652-2.9297l-0.70898-0.70898c-0.85826 0.79742-2.1963 1.5874-4.1836 2.7891-0.2641 0.16398-0.39277 0.21051-0.5293 0.21094-0.12747-4.44e-4 -0.25937-0.046998-0.52344-0.21094-4.1723-2.5445-5.4729-3.2311-5.4707-5.8945l0.0039062-5.3418c2.852e-4 -0.32951 0.064113-0.45658 0.32031-0.56641 0.28162-0.11231 0.62661-0.24075 0.99414-0.375l-0.7793-0.7793zm3.2754 3.2754a2.5 2.5 0 0 0-1.8145 2.3926 2.5 2.5 0 0 0 2.5 2.5 2.5 2.5 0 0 0 2.3848-1.8223l-0.9043-0.9043a1.5 1.5 0 0 1 0.019531 0.22656 1.5 1.5 0 0 1-1.5 1.5 1.5 1.5 0 0 1-1.5-1.5 1.5 1.5 0 0 1 1.5-1.5 1.5 1.5 0 0 1 0.22656 0.019531l-0.91211-0.91211zm1.4375 0.023438 1.6152 1.6152a2.5 2.5 0 0 0-1.6152-1.6152zm1.8691 1.8691 1 1h0.87891v0.5c0 0.277 0.223 0.5 0.5 0.5s0.5-0.223 0.5-0.5v-0.5h0.5c0.277 0 0.5-0.223 0.5-0.5s-0.223-0.5-0.5-0.5h-3.3789z" fill="#5d656b"/>
 <rect transform="rotate(45)" x="1.3137" y="-.5" width="20" height="1" ry="0" fill="#5d656b"/>
</svg>
