<svg height="16" width="16" xmlns="http://www.w3.org/2000/svg"><g fill="#5d656b"><path d="M9.5 6c-.277 0-.5.223-.5.5V11h1.004c.01-.87.394-1.654.996-2.205V6.5c0-.277-.223-.5-.5-.5zm-4 3c-.277 0-.5.223-.5.5v5c0 .277.223.5.5.5h1c.277 0 .5-.223.5-.5v-5c0-.277-.223-.5-.5-.5zM13 9c-1.108 0-2 .91-2 2.031V12h-.5s-.5 0-.5.5v3c0 .5.5.5.5.5h5s.5 0 .5-.5v-3c0-.5-.5-.5-.5-.5H15v-.969C15 9.911 14.108 9 13 9zm0 1c.554 0 1 .442 1 1v1h-2v-1c0-.558.446-1 1-1zM1.5 12c-.277 0-.5.223-.5.5v2c0 .277.223.5.5.5h1c.277 0 .5-.223.5-.5v-2c0-.277-.223-.5-.5-.5z"/><path d="M13.5 3c-.277 0-.5.223-.5.5V8c.772 0 1.469.308 2 .795V3.5c0-.277-.223-.5-.5-.5z" opacity=".35"/></g></svg>