<?xml version="1.0" encoding="UTF-8" standalone="no"?>
<svg
   xmlns:osb="http://www.openswatchbook.org/uri/2009/osb"
   xmlns:dc="http://purl.org/dc/elements/1.1/"
   xmlns:cc="http://creativecommons.org/ns#"
   xmlns:rdf="http://www.w3.org/1999/02/22-rdf-syntax-ns#"
   xmlns:svg="http://www.w3.org/2000/svg"
   xmlns="http://www.w3.org/2000/svg"
   width="16.000017"
   version="1.1"
   style="enable-background:new"
   id="svg7384"
   height="16">
  <metadata
     id="metadata90">
    <rdf:RDF>
      <cc:Work
         rdf:about="">
        <dc:format>image/svg+xml</dc:format>
        <dc:type
           rdf:resource="http://purl.org/dc/dcmitype/StillImage" />
        <dc:title>Moka Symbolic Icon Theme</dc:title>
      </cc:Work>
    </rdf:RDF>
  </metadata>
  <title
     id="title8473">Moka Symbolic Icon Theme</title>
  <defs
     id="defs7386">
    <linearGradient
       osb:paint="solid"
       id="linearGradient5606">
      <stop
         style="stop-color:#000000;stop-opacity:1;"
         offset="0"
         id="stop5608" />
    </linearGradient>
    <filter
       style="color-interpolation-filters:sRGB"
       id="filter7554">
      <feBlend
         mode="darken"
         in2="BackgroundImage"
         id="feBlend7556" />
    </filter>
  </defs>
  <g
     transform="translate(-481.0002,428.00336)"
     style="display:inline"
     id="layer9">
    <path
       style="color:#000000;opacity:0.35;fill:#bebebe;fill-opacity:1;stroke:none"
       id="path3766-7"
       d="m 491.0002,-427.53461 0,1.03125 0,1.5 -2.5,0 -0.5,0 0,1 0.5,0 3,0 0.5,0 0,-0.5 0,-0.96875 3.40627,2.96875 -1.65627,1.5625 c 0.1496,0.28061 0.25,0.5961 0.25,0.9375 0,0.0424 0.003,0.0833 0,0.125 l 3.00002,-2.625 0,0 0,0 -5.18752,-4.375 z m 0,9.53125 0,0.53125 0.65625,-0.53125 z" />
    <path
       style="color:#000000;opacity:0.35;fill:#bebebe;fill-opacity:1;stroke:none"
       id="path3783-95"
       d="m 487.0002,-423.53461 -0.8125,0.65625 -5.18748,4.375 0,0 0,0 5.18748,4.375 0.8125,0.65625 0,-1.03125 0,-1.5 2.5,0 0.5,0 0,-1 -0.5,0 -3,0 -0.5,0 0,0.5 0,0.96875 -3.40623,-2.96875 1.40623,-1.375 c -0.003,-0.0417 0,-0.0826 0,-0.125 0,-1.108 0.892,-2 2,-2 l 1,0 0,-0.5 z" />
    <path
       style="fill:#bebebe;fill-opacity:1;stroke:none"
       id="path5858-0"
       d="m 486.0002,-421.00336 c -0.55228,0 -1,0.44772 -1,1 0,0.55228 0.44772,1 1,1 0.55228,0 1,-0.44772 1,-1 0,-0.55228 -0.44772,-1 -1,-1 z m 3,0 c -0.55228,0 -1,0.44772 -1,1 0,0.55228 0.44772,1 1,1 0.55228,0 1,-0.44772 1,-1 0,-0.55228 -0.44772,-1 -1,-1 z m 3,0 c -0.55228,0 -1,0.44772 -1,1 0,0.55228 0.44772,1 1,1 0.55228,0 1,-0.44772 1,-1 0,-0.55228 -0.44772,-1 -1,-1 z" />
  </g>
  <g
     transform="translate(-481.0002,428.00336)"
     style="display:inline;filter:url(#filter7554)"
     id="layer10" />
  <g
     transform="translate(-240,-188.99664)"
     style="display:inline"
     id="layer1" />
  <g
     transform="translate(-481.0002,428.00336)"
     style="display:inline"
     id="layer14" />
  <g
     transform="translate(-481.0002,428.00336)"
     style="display:inline"
     id="layer15" />
  <g
     transform="translate(-481.0002,428.00336)"
     style="display:inline"
     id="g71291" />
  <g
     transform="translate(-240,-38.996641)"
     style="display:inline"
     id="layer2" />
  <g
     transform="translate(-240,-38.996641)"
     style="display:inline"
     id="g6058" />
  <g
     transform="translate(-481.0002,428.00336)"
     style="display:inline"
     id="layer12" />
</svg>
