<?xml version="1.0" encoding="UTF-8" standalone="no"?>
<svg
   xmlns:osb="http://www.openswatchbook.org/uri/2009/osb"
   xmlns:dc="http://purl.org/dc/elements/1.1/"
   xmlns:cc="http://creativecommons.org/ns#"
   xmlns:rdf="http://www.w3.org/1999/02/22-rdf-syntax-ns#"
   xmlns:svg="http://www.w3.org/2000/svg"
   xmlns="http://www.w3.org/2000/svg"
   height="16.000031"
   id="svg7384"
   style="enable-background:new"
   version="1.1"
   width="16">
  <metadata
     id="metadata90">
    <rdf:RDF>
      <cc:Work
         rdf:about="">
        <dc:format>image/svg+xml</dc:format>
        <dc:type
           rdf:resource="http://purl.org/dc/dcmitype/StillImage" />
        <dc:title>Moka Symbolic Icon Theme</dc:title>
      </cc:Work>
    </rdf:RDF>
  </metadata>
  <title
     id="title8473">Moka Symbolic Icon Theme</title>
  <defs
     id="defs7386">
    <linearGradient
       id="linearGradient5606"
       osb:paint="solid">
      <stop
         id="stop5608"
         offset="0"
         style="stop-color:#000000;stop-opacity:1;" />
    </linearGradient>
    <filter
       id="filter7554"
       style="color-interpolation-filters:sRGB">
      <feBlend
         id="feBlend7556"
         in2="BackgroundImage"
         mode="darken" />
    </filter>
  </defs>
  <g
     id="layer9"
     style="display:inline"
     transform="translate(-340.00013,328.00336)">
    <path
       d="m 350.50011,-325.00333 c -0.277,0 -0.5,0.223 -0.5,0.5 l 0,6.5 1,0 1,0 0,-6.5 c 0,-0.277 -0.223,-0.5 -0.5,-0.5 z"
       id="rect7124"
       style="color:#bebebe;display:inline;overflow:visible;visibility:visible;opacity:0.35;fill:#bebebe;fill-opacity:1;fill-rule:nonzero;stroke:none;stroke-width:1;marker:none;enable-background:accumulate" />
    <rect
       height="9"
       id="rect7126"
       ry="0.5"
       style="color:#bebebe;display:inline;overflow:visible;visibility:visible;opacity:0.35;fill:#bebebe;fill-opacity:1;fill-rule:nonzero;stroke:none;stroke-width:1;marker:none;enable-background:accumulate"
       width="2.0000257"
       x="346.99979"
       y="-322.00333" />
    <rect
       height="6"
       id="rect7128"
       ry="0.5"
       style="color:#bebebe;display:inline;overflow:visible;visibility:visible;opacity:0.35;fill:#bebebe;fill-opacity:1;fill-rule:nonzero;stroke:none;stroke-width:1;marker:none;enable-background:accumulate"
       width="2.0000257"
       x="343.99979"
       y="-319.00333" />
    <rect
       height="3"
       id="rect7130"
       ry="0.5"
       style="color:#bebebe;display:inline;overflow:visible;visibility:visible;opacity:0.35;fill:#bebebe;fill-opacity:1;fill-rule:nonzero;stroke:none;stroke-width:1;marker:none;enable-background:accumulate"
       width="2.0000136"
       x="340.99982"
       y="-316.00333" />
    <path
       d="m 353.5002,-328.00336 c -0.277,0 -0.5,0.223 -0.5,0.5 l 0,9.5 2,0 0,-9.5 c 0,-0.277 -0.223,-0.5 -0.5,-0.5 l -1,0 z"
       id="rect7132"
       style="color:#bebebe;display:inline;overflow:visible;visibility:visible;opacity:0.35;fill:#bebebe;fill-opacity:1;fill-rule:nonzero;stroke:none;stroke-width:1;marker:none;enable-background:accumulate" />
    <path
       d="m 351.00011,-317.00333 0,1 c 0,0.27614 0.10029,0.53779 0.28125,0.71875 l 0.78125,0.78125 -0.78125,0.78125 c -0.18096,0.18096 -0.28125,0.44261 -0.28125,0.71875 l 0,1 1,0 c 0.27614,0 0.53779,-0.10029 0.71875,-0.28125 l 0.78125,-0.78125 0.78125,0.78125 c 0.18096,0.18096 0.44261,0.28125 0.71875,0.28125 l 1,0 0,-1 c 0,-0.27614 -0.10029,-0.53779 -0.28125,-0.71875 l -0.78125,-0.78125 0.78125,-0.78125 c 0.18096,-0.18096 0.28125,-0.44261 0.28125,-0.71875 l 0,-1 -1,0 c -0.27614,0 -0.53779,0.10029 -0.71875,0.28125 l -0.78125,0.78125 -0.78125,-0.78125 c -0.18096,-0.18096 -0.44261,-0.28125 -0.71875,-0.28125 l -1,0 z"
       id="path2987-7-9-8-5-1"
       style="display:inline;fill:#bebebe;fill-opacity:1;stroke:none;enable-background:new" />
  </g>
  <g
     id="layer10"
     style="display:inline;filter:url(#filter7554)"
     transform="translate(-340.00013,328.00336)" />
  <g
     id="layer1"
     style="display:inline"
     transform="translate(-98.999927,-288.99664)" />
  <g
     id="layer14"
     style="display:inline"
     transform="translate(-340.00013,328.00336)" />
  <g
     id="layer15"
     style="display:inline"
     transform="translate(-340.00013,328.00336)" />
  <g
     id="g71291"
     style="display:inline"
     transform="translate(-340.00013,328.00336)" />
  <g
     id="layer2"
     style="display:inline"
     transform="translate(-98.999927,-138.99664)" />
  <g
     id="g6058"
     style="display:inline"
     transform="translate(-98.999927,-138.99664)" />
  <g
     id="layer12"
     style="display:inline"
     transform="translate(-340.00013,328.00336)" />
</svg>
