<?xml version="1.0" encoding="UTF-8" standalone="no"?>
<svg
   xmlns:osb="http://www.openswatchbook.org/uri/2009/osb"
   xmlns:dc="http://purl.org/dc/elements/1.1/"
   xmlns:cc="http://creativecommons.org/ns#"
   xmlns:rdf="http://www.w3.org/1999/02/22-rdf-syntax-ns#"
   xmlns:svg="http://www.w3.org/2000/svg"
   xmlns="http://www.w3.org/2000/svg"
   width="16.000017"
   version="1.1"
   style="enable-background:new"
   id="svg7384"
   height="16">
  <metadata
     id="metadata90">
    <rdf:RDF>
      <cc:Work
         rdf:about="">
        <dc:format>image/svg+xml</dc:format>
        <dc:type
           rdf:resource="http://purl.org/dc/dcmitype/StillImage" />
        <dc:title>Moka Symbolic Icon Theme</dc:title>
      </cc:Work>
    </rdf:RDF>
  </metadata>
  <title
     id="title8473">Moka Symbolic Icon Theme</title>
  <defs
     id="defs7386">
    <linearGradient
       osb:paint="solid"
       id="linearGradient5606">
      <stop
         style="stop-color:#000000;stop-opacity:1;"
         offset="0"
         id="stop5608" />
    </linearGradient>
    <filter
       style="color-interpolation-filters:sRGB"
       id="filter7554">
      <feBlend
         mode="darken"
         in2="BackgroundImage"
         id="feBlend7556" />
    </filter>
  </defs>
  <g
     transform="translate(-481.00018,408.00336)"
     style="display:inline"
     id="layer9">
    <path
       style="color:#000000;opacity:0.35;fill:#bebebe;fill-opacity:1;stroke:none"
       id="path5842"
       d="m 491.00018,-407.53461 0,1.03125 0,1.5 -2.5,0 -0.5,0 0,1 0.5,0 3,0 0.5,0 0,-0.5 0,-0.96875 3.40627,2.96875 -3.40627,2.96875 0,-0.96875 0,-0.5 -0.5,0 -2.5,0 0,1 2,0 0,1.5 0,1.03125 0.8125,-0.65625 5.18752,-4.375 0,0 0,0 -5.18752,-4.375 z" />
    <path
       style="color:#000000;opacity:0.35;fill:#bebebe;fill-opacity:1;stroke:none"
       id="path5844"
       d="m 487.00018,-403.53461 -0.8125,0.65625 -5.18748,4.375 0,0 0,0 5.18748,4.375 0.8125,0.65625 0,-1.03125 0,-1.5 2.5,0 0.5,0 0,-1 -0.5,0 -3,0 -0.5,0 0,0.5 0,0.96875 -3.40623,-2.96875 3.40623,-2.96875 0,0.96875 0,0.5 0.5,0 2.50002,0 0,-1 -2.00002,0 0,-1.5 z" />
  </g>
  <g
     transform="translate(-481.00018,408.00336)"
     style="display:inline;filter:url(#filter7554)"
     id="layer10" />
  <g
     transform="translate(-239.99998,-208.99664)"
     style="display:inline"
     id="layer1" />
  <g
     transform="translate(-481.00018,408.00336)"
     style="display:inline"
     id="layer14" />
  <g
     transform="translate(-481.00018,408.00336)"
     style="display:inline"
     id="layer15" />
  <g
     transform="translate(-481.00018,408.00336)"
     style="display:inline"
     id="g71291" />
  <g
     transform="translate(-239.99998,-58.996641)"
     style="display:inline"
     id="layer2" />
  <g
     transform="translate(-239.99998,-58.996641)"
     style="display:inline"
     id="g6058" />
  <g
     transform="translate(-481.00018,408.00336)"
     style="display:inline"
     id="layer12" />
</svg>
