<?xml version="1.0" encoding="UTF-8" standalone="no"?>
<svg
   xmlns:osb="http://www.openswatchbook.org/uri/2009/osb"
   xmlns:dc="http://purl.org/dc/elements/1.1/"
   xmlns:cc="http://creativecommons.org/ns#"
   xmlns:rdf="http://www.w3.org/1999/02/22-rdf-syntax-ns#"
   xmlns:svg="http://www.w3.org/2000/svg"
   xmlns="http://www.w3.org/2000/svg"
   width="16"
   version="1.1"
   style="enable-background:new"
   id="svg7384"
   height="16.000031">
  <metadata
     id="metadata90">
    <rdf:RDF>
      <cc:Work
         rdf:about="">
        <dc:format>image/svg+xml</dc:format>
        <dc:type
           rdf:resource="http://purl.org/dc/dcmitype/StillImage" />
        <dc:title>Moka Symbolic Icon Theme</dc:title>
      </cc:Work>
    </rdf:RDF>
  </metadata>
  <title
     id="title8473">Moka Symbolic Icon Theme</title>
  <defs
     id="defs7386">
    <linearGradient
       osb:paint="solid"
       id="linearGradient5606">
      <stop
         style="stop-color:#000000;stop-opacity:1;"
         offset="0"
         id="stop5608" />
    </linearGradient>
    <filter
       style="color-interpolation-filters:sRGB"
       id="filter7554">
      <feBlend
         mode="darken"
         in2="BackgroundImage"
         id="feBlend7556" />
    </filter>
  </defs>
  <g
     transform="translate(-360.00013,328.00336)"
     style="display:inline"
     id="layer9">
    <path
       style="color:#bebebe;display:inline;overflow:visible;visibility:visible;opacity:0.35;fill:#bebebe;fill-opacity:1;fill-rule:nonzero;stroke:none;stroke-width:1;marker:none;enable-background:accumulate"
       id="rect6691"
       d="m 373.5002,-328.00336 c -0.277,0 -0.5,0.223 -0.5,0.5 l 0,8.5 0,5.5 c 0,0.277 0.223,0.5 0.5,0.5 l 1,0 c 0.277,0 0.5,-0.223 0.5,-0.5 l 0,-14 c 0,-0.277 -0.223,-0.5 -0.5,-0.5 l -1,0 z m -3,3 c -0.277,0 -0.5,0.223 -0.5,0.5 l 0,3.5 1,0 c 0.1385,0 0.27582,0.005 0.40625,0.0312 0.041,0.009 0.0848,0.0196 0.125,0.0312 0.16774,0.0456 0.32185,0.13378 0.46875,0.21875 l 0,-3.78115 c 0,-0.277 -0.223,-0.5 -0.5,-0.5 l -1,0 z m -3,3 c -0.277,0 -0.5,0.223 -0.5,0.5 l 0,0.5 1,0 1,0 0,-0.5 c 0,-0.277 -0.223,-0.5 -0.5,-0.5 l -1,0 z m -3.5,4.71875 0,3.78125 c 0,0.277 0.223,0.5 0.5,0.5 l 1,0 c 0.277,0 0.5,-0.223 0.5,-0.5 l 0,-3.5 -1,0 c -0.18351,0 -0.36266,-0.0166 -0.53125,-0.0625 -0.0319,-0.009 -0.0625,-0.0205 -0.0937,-0.0312 -0.1331,-0.0434 -0.25596,-0.11864 -0.375,-0.1875 z m 8,0 c -0.0717,0.0415 -0.14173,0.0925 -0.21875,0.125 -0.0815,0.0357 -0.16352,0.0686 -0.25,0.0937 -0.16859,0.0459 -0.34774,0.0625 -0.53125,0.0625 l -1,0 0,3.5 c 0,0.277 0.223,0.5 0.5,0.5 l 1,0 c 0.277,0 0.5,-0.223 0.5,-0.5 l 0,-3.78125 z m -5,0.28125 0,3.5 c 0,0.277 0.223,0.5 0.5,0.5 l 1,0 c 0.277,0 0.5,-0.223 0.5,-0.5 l 0,-3.5 -1,0 -1,0 z m -5.5,1 c -0.277,0 -0.5,0.223 -0.5,0.5 l 0,2 c 0,0.277 0.223,0.5 0.5,0.5 l 1,0 c 0.277,0 0.5,-0.223 0.5,-0.5 l 0,-2 c 0,-0.277 -0.223,-0.5 -0.5,-0.5 l -1,0 z" />
    <path
       style="color:#bebebe;display:inline;overflow:visible;visibility:visible;fill:#bebebe;fill-opacity:1;fill-rule:nonzero;stroke:none;stroke-width:1;marker:none;enable-background:accumulate"
       id="path5112"
       d="m 365.00014,-320.00333 c -0.55228,0 -1,0.44772 -1,1 0,0.55228 0.44772,1 1,1 0.55228,0 1,-0.44772 1,-1 0,-0.55228 -0.44772,-1 -1,-1 z m 3,0 c -0.55228,0 -1,0.44772 -1,1 0,0.55228 0.44772,1 1,1 0.55228,0 1,-0.44772 1,-1 0,-0.55228 -0.44772,-1 -1,-1 z m 3,0 c -0.55228,0 -1,0.44772 -1,1 0,0.55228 0.44772,1 1,1 0.55228,0 1,-0.44772 1,-1 0,-0.55228 -0.44772,-1 -1,-1 z" />
  </g>
  <g
     transform="translate(-360.00013,328.00336)"
     style="display:inline;filter:url(#filter7554)"
     id="layer10" />
  <g
     transform="translate(-118.99993,-288.99664)"
     style="display:inline"
     id="layer1" />
  <g
     transform="translate(-360.00013,328.00336)"
     style="display:inline"
     id="layer14" />
  <g
     transform="translate(-360.00013,328.00336)"
     style="display:inline"
     id="layer15" />
  <g
     transform="translate(-360.00013,328.00336)"
     style="display:inline"
     id="g71291" />
  <g
     transform="translate(-118.99993,-138.99664)"
     style="display:inline"
     id="layer2" />
  <g
     transform="translate(-118.99993,-138.99664)"
     style="display:inline"
     id="g6058" />
  <g
     transform="translate(-360.00013,328.00336)"
     style="display:inline"
     id="layer12" />
</svg>
