<svg width="16" height="16" version="1.1" xmlns="http://www.w3.org/2000/svg">
 <path d="m7.5 0v2h1v-2zm-4.8027 1.9902-0.7071 0.70704 1.4141 1.4141 0.707-0.70703zm10.605 0-1.414 1.4141 0.707 0.70703 1.416-1.4141zm-5.3027 1.0098a5 5 0 0 0-2.2969 0.58203l0.6641 0.66406a4.081 4.081 0 0 1 0.584-0.24609 3.589 3.589 0 0 0-0.334 0.49609l4.8867 4.8867c0.1733-0.0995 0.341-0.20891 0.4961-0.33593a4.084 4.084 0 0 1-0.2383 0.59374l0.666 0.66602a5 5 0 0 0-4.4277-7.3066zm-3.1523 1.1406a5 5 0 0 0 3.1523 8.8594 5 5 0 0 0 3.8613-1.8457l-0.6367-0.63672a4.084 4.084 0 0 1-2.0859 1.3438 4.081 4.081 0 0 1-3.6387-7.0684zm1.3867 1.3867a3.589 3.589 0 0 0 0.025 1.668 3.596 3.596 0 0 0 4.2129 2.5703zm-6.2344 1.9727v1h2v-1zm14 0v1h2v-1zm-10.596 4.3887-1.4141 1.4141 0.7071 0.70704 1.414-1.4141zm9.1914 0-0.707 0.70703 1.414 1.4141 0.7071-0.70704zm-5.0957 2.1094v2h1v-2z" fill="#5d656b"/>
 <rect transform="rotate(45)" x="1.3137" y="-.5" width="20" height="1" ry="0" fill="#5d656b"/>
</svg>
