<svg width="16" height="16" version="1.1" xmlns="http://www.w3.org/2000/svg">
 <path d="m8 1c-0.59143 5.84e-4 -1.0532 0.51115-0.99414 1.0996-0.71853 0.14428-1.3733 0.43978-1.9375 0.84766l0.7207 0.7207c0.63352-0.42119 1.3932-0.66797 2.2109-0.66797 2.2091 0 4 1.7909 4 4v2.8789l1 1v-3.8789c0.004981-2.38-1.6724-4.4322-4.0059-4.9004 0.059143-0.58846-0.40271-1.099-0.99414-1.0996zm-3.6777 2.6152c-0.82665 0.89811-1.3248 2.0911-1.3223 3.3848v4.5l-2 2v0.5h13.707l-2.707-2.707v0.62891l1 1.0781h-10l1-1.0781v-4.9219c0-1.0298 0.39395-1.9648 1.0332-2.6738l-0.71094-0.71094zm1.9473 11.385c0.3569 0.61817 1.0167 0.99927 1.7305 1 0.71344-0.0011 1.3718-0.38214 1.7285-1h-3.459z" fill="#5d656b"/>
 <rect transform="rotate(45)" x="1.3137" y="-.5" width="20" height="1" ry="0" fill="#5d656b"/>
</svg>
