<?xml version="1.0" encoding="UTF-8" standalone="no"?>
<svg
   xmlns:osb="http://www.openswatchbook.org/uri/2009/osb"
   xmlns:dc="http://purl.org/dc/elements/1.1/"
   xmlns:cc="http://creativecommons.org/ns#"
   xmlns:rdf="http://www.w3.org/1999/02/22-rdf-syntax-ns#"
   xmlns:svg="http://www.w3.org/2000/svg"
   xmlns="http://www.w3.org/2000/svg"
   width="16"
   version="1.1"
   style="enable-background:new"
   id="svg7384"
   height="16">
  <metadata
     id="metadata90">
    <rdf:RDF>
      <cc:Work
         rdf:about="">
        <dc:format>image/svg+xml</dc:format>
        <dc:type
           rdf:resource="http://purl.org/dc/dcmitype/StillImage" />
        <dc:title>Moka Symbolic Icon Theme</dc:title>
      </cc:Work>
    </rdf:RDF>
  </metadata>
  <title
     id="title8473">Moka Symbolic Icon Theme</title>
  <defs
     id="defs7386">
    <linearGradient
       osb:paint="solid"
       id="linearGradient5606">
      <stop
         style="stop-color:#000000;stop-opacity:1;"
         offset="0"
         id="stop5608" />
    </linearGradient>
    <filter
       style="color-interpolation-filters:sRGB"
       id="filter7554">
      <feBlend
         mode="darken"
         in2="BackgroundImage"
         id="feBlend7556" />
    </filter>
  </defs>
  <g
     transform="translate(-521.02081,248.00336)"
     style="display:inline"
     id="layer9">
    <path
       transform="matrix(0.88624425,0,0,0.88624425,539.34025,-335.48308)"
       style="color:#000000;display:inline;overflow:visible;visibility:visible;fill:#bebebe;fill-opacity:1;stroke:none;stroke-width:3.38507128;marker:none;enable-background:accumulate"
       id="path14339"
       d="m -11.667264,100.56203 c 0,0.66597 0,1.33193 0,1.99789 -2.211177,-0.0301 -4.467169,1.70104 -5.010434,3.84465 -0.601324,2.12805 0.486881,4.75521 2.416844,5.83477 1.89991,1.13162 4.7191966,0.76045 6.2614846,-0.82434 l 9e-7,0 c 1.5847896,-1.54229 1.9559557,-4.36157 0.8243397,-6.26148 1.1398504,1.89515 0.7831433,4.72218 -0.8041697,6.28165 0,0 -1e-6,0 -1e-6,0 -1.5460231,1.60076 -4.3805225,1.98941 -6.3101775,0.85358 0,0 -10e-7,0 -10e-7,0 -1.946051,-1.08012 -3.057837,-3.70252 -2.481775,-5.86654 -0.594116,2.15935 0.494369,4.8037 2.453789,5.91501 0,0 10e-7,0 10e-7,0 1.944788,1.1643 4.8170934,0.80123 6.4175616,-0.82265 -3e-7,0 7e-7,0 7e-7,0 1.6369854,-1.58737 2.0311692,-4.46695 0.8707838,-6.44535 1.1764298,1.96913 0.810419,4.8638 -0.831483,6.48465 0,0 -1e-6,0 -1e-6,0 -1.6077467,1.655 -4.5096941,2.05213 -6.5124411,0.87962 0,0 -10e-7,0 -10e-7,0 -2.013705,-1.12523 -3.151128,-3.80982 -2.559232,-6.05289 -0.609725,2.23846 0.504687,4.94473 2.531595,6.10076 0,0 0,0 0,0 2.017693,1.20063 4.9569746,0.82876 6.6184882,-0.84908 -2e-7,0 8e-7,0 8e-7,0 1.6909557,-1.6484 2.0939764,-4.59497 0.8972674,-6.64631 1.2127631,2.04207 0.8379323,5.00374 -0.857943,6.68563 0,0 -10e-7,0 -10e-7,0 -1.6687966,1.70898 -4.6377384,2.11493 -6.7134244,0.90608 0,0 -1e-6,0 -1e-6,0 -2.081226,-1.16995 -3.244605,-3.91649 -2.637101,-6.23871 -0.625322,2.31762 0.51506,5.08582 2.60948,6.28655 0,0 1e-6,0 1e-6,0 2.090623,1.23695 5.0968762,0.85624 6.8194074,-0.87555 -2e-7,0 8e-7,-1e-5 8e-7,-1e-5 1.7448995,-1.70943 2.156718,-4.72296 0.9236878,-6.84719 1.2490747,2.11497 0.8654292,5.14359 -0.884387,6.8865 0,0 -1.1e-6,0 -1.1e-6,0 -1.7298097,1.76291 -4.7657049,2.17768 -6.9142869,0.93252 0,0 -1e-6,0 -1e-6,0 -2.148706,-1.21465 -3.338026,-4.02309 -2.714923,-6.42443 -0.640921,2.39673 0.525401,5.22683 2.687302,6.47227 0,0 1e-6,0 1e-6,0 2.163518,1.27325 5.2367256,0.88374 7.02027,-0.902 -3e-7,0 8e-7,0 8e-7,0 1.7988404,-1.77045 2.2194735,-4.85093 0.9501318,-7.04806 1.2853862,2.18786 0.892926,5.28343 -0.9108311,7.08736 0,0 -1e-6,0 -1e-6,0 -1.7908229,1.81686 -4.8936725,2.24043 -7.1151495,0.95896 0,0 -1e-6,0 -1e-6,0 -2.216186,-1.25934 -3.431447,-4.12969 -2.792745,-6.61014 -0.656531,2.47584 0.535719,5.36786 2.765108,6.65801 0,0 0,0 0,0 2.236422,1.30959 5.3766067,0.91127 7.2211966,-0.92842 -3e-7,0 8e-7,0 8e-7,0 1.8528108,-1.83148 2.2822808,-4.97895 0.9766154,-7.24902 1.3217196,2.2608 0.9204394,5.42337 -0.937291,7.28834 0,0 -1.1e-6,0 -1.1e-6,0 -1.8518727,1.87083 -5.0217167,2.30323 -7.3161327,0.98543 0,0 -10e-7,0 -10e-7,0 -2.283707,-1.30408 -3.524924,-4.23637 -2.870614,-6.79597 -0.672128,2.555 0.546092,5.50895 2.842993,6.84381 0,0 10e-7,0 10e-7,0 2.309352,1.3459 5.5165083,0.93875 7.4221158,-0.95491 -3e-7,0 8e-7,0 8e-7,0 1.9067546,-1.8925 2.3450224,-5.10694 1.0030359,-7.4499 1.3580406,2.33369 0.9479627,5.56322 -0.9637115,7.48923 0,0 -1.1e-6,0 -1.1e-6,0 -1.9128903,1.92479 -5.1497069,2.36602 -7.5170529,1.0119 0,0 -1e-6,0 -1e-6,0 -2.351219,-1.34878 -3.618406,-4.343 -2.948499,-6.98177 -0.687736,2.63416 0.55644,5.65006 2.920862,7.02964 0,0 10e-7,0 10e-7,0 2.382291,1.38224 5.6564417,0.96626 7.623099,-0.98136 -2e-7,0 9e-7,0 9e-7,0 1.9607279,-1.95356 2.4078157,-5.23499 1.0294958,-7.65089 1.3943644,2.40664 0.9754496,5.70315 -0.990195,7.69019 0,0 -1.2e-6,0 -1.2e-6,0 -1.9739358,1.97874 -5.2777285,2.42877 -7.7179785,1.03833 0,0 -1e-6,0 -1e-6,0 -2.418708,-1.3935 -3.711821,-4.44964 -3.026304,-7.16752 -0.703346,2.71327 0.566756,5.79108 2.998667,7.21539 0,0 0,0 0,0 2.455196,1.41856 5.7963229,0.99379 7.8240257,-1.00779 -3e-7,0 9e-7,0 9e-7,0 2.0146982,-2.01459 2.4706229,-5.36301 1.0559793,-7.85185 1.4306977,2.47957 1.0029629,5.84308 -1.0166549,7.89117 0,0 -1.2e-6,0 -1.2e-6,0 -2.0349857,2.03272 -5.4057728,2.49157 -7.9189618,1.06479 0,0 -1e-6,0 -1e-6,0 -2.486228,-1.43822 -3.805298,-4.5563 -3.104173,-7.35334 -0.718944,2.79243 0.577129,5.93217 3.076552,7.40118 0,0 1e-6,0 1e-6,0 2.528125,1.45488 5.9362245,1.02127 8.0249449,-1.03427 -3e-7,0 9e-7,0 9e-7,0 2.0686421,-2.07562 2.5333645,-5.491 1.0823997,-8.05273 1.4670093,2.55247 1.0304598,5.98293 -1.0430989,8.09203 0,0 -1.2e-6,0 -1.2e-6,0 -2.0959989,2.08666 -5.5337404,2.55433 -8.1198244,1.09124 0,0 -1e-6,0 -1e-6,0 -2.553709,-1.48292 -3.898719,-4.66291 -3.181995,-7.53906 -0.734542,2.87154 0.587471,6.07319 3.154375,7.5869 0,0 0,0 0,0 2.60102,1.49119 6.0760739,1.04877 8.2258074,-1.06071 -3e-7,0 1e-6,0 1e-6,0 2.1225829,-2.13664 2.59612,-5.61897 1.1088438,-8.2536 1.5033304,2.62536 1.0579831,6.12279 -1.0695194,8.29292 0,0 -1.3e-6,0 -1.3e-6,0 -2.1570164,2.14062 -5.6617295,2.61712 -8.3207435,1.11771 0,0 -2e-6,0 -2e-6,0 -2.621221,-1.52763 -3.992201,-4.76954 -3.25988,-7.72485 -0.75015,2.9507 0.59782,6.21429 3.232244,7.77272 0,0 0,0 0,0 2.673959,1.52752 6.2160073,1.07628 8.4267907,-1.08717 -3e-7,0 1e-6,0 1e-6,0 2.1765562,-2.19769 2.6589133,-5.74701 1.1353037,-8.45458 1.5396637,2.6983 1.0854965,6.26272 -1.0959793,8.4939 0,0 -1.3e-6,0 -1.3e-6,0 -2.2180663,2.19459 -5.7897738,2.67992 -8.5217268,1.14418 0,-1e-5 -2e-6,-1e-5 -2e-6,-1e-5 -2.688741,-1.57235 -4.085678,-4.87621 -3.337749,-7.91068 -0.765801,3.02985 0.60807,6.35544 3.310046,7.95867 0,0 10e-7,0 10e-7,0 2.746934,1.56392 6.3560659,1.10392 8.6280283,-1.11356 -3e-7,0 1e-6,0 1e-6,0 2.2306474,-2.2588 2.7219134,-5.87525 1.1619217,-8.65595 1.5679002,2.77614 1.0905211,6.40002 -1.1425498,8.67532 0,0 -1.8e-6,0 -1.8e-6,0 -2.2755501,2.23282 -5.8992934,2.70961 -8.6747964,1.14164 -2.745481,-1.61997 -4.143836,-4.99664 -3.347695,-8.08314 1e-6,0 0,0 0,0 0.854109,-3.07097 3.753629,-5.29549 6.940757,-5.32531 z" />
  </g>
  <g
     transform="translate(-521.02081,248.00336)"
     style="display:inline;filter:url(#filter7554)"
     id="layer10" />
  <g
     transform="translate(-280.02061,-368.99664)"
     style="display:inline"
     id="layer1" />
  <g
     transform="translate(-521.02081,248.00336)"
     style="display:inline"
     id="layer14" />
  <g
     transform="translate(-521.02081,248.00336)"
     style="display:inline"
     id="layer15" />
  <g
     transform="translate(-521.02081,248.00336)"
     style="display:inline"
     id="g71291" />
  <g
     transform="translate(-280.02061,-218.99664)"
     style="display:inline"
     id="layer2" />
  <g
     transform="translate(-280.02061,-218.99664)"
     style="display:inline"
     id="g6058" />
  <g
     transform="translate(-521.02081,248.00336)"
     style="display:inline"
     id="layer12" />
</svg>
