<?xml version="1.0" encoding="UTF-8" standalone="no"?>
<svg
   xmlns:osb="http://www.openswatchbook.org/uri/2009/osb"
   xmlns:dc="http://purl.org/dc/elements/1.1/"
   xmlns:cc="http://creativecommons.org/ns#"
   xmlns:rdf="http://www.w3.org/1999/02/22-rdf-syntax-ns#"
   xmlns:svg="http://www.w3.org/2000/svg"
   xmlns="http://www.w3.org/2000/svg"
   width="16"
   version="1.1"
   style="enable-background:new"
   id="svg7384"
   height="16">
  <metadata
     id="metadata90">
    <rdf:RDF>
      <cc:Work
         rdf:about="">
        <dc:format>image/svg+xml</dc:format>
        <dc:type
           rdf:resource="http://purl.org/dc/dcmitype/StillImage" />
        <dc:title>Moka Symbolic Icon Theme</dc:title>
      </cc:Work>
    </rdf:RDF>
  </metadata>
  <title
     id="title8473">Moka Symbolic Icon Theme</title>
  <defs
     id="defs7386">
    <linearGradient
       osb:paint="solid"
       id="linearGradient5606">
      <stop
         style="stop-color:#000000;stop-opacity:1;"
         offset="0"
         id="stop5608" />
    </linearGradient>
    <filter
       style="color-interpolation-filters:sRGB"
       id="filter7554">
      <feBlend
         mode="darken"
         in2="BackgroundImage"
         id="feBlend7556" />
    </filter>
  </defs>
  <g
     transform="translate(-460.00021,248.00336)"
     style="display:inline"
     id="layer9">
    <path
       style="fill:#bebebe;fill-opacity:1;stroke:none"
       id="path5215"
       d="m 473.0002,-239.00336 c -1.108,0 -2,0.91085 -2,2.03125 l 0,0.96875 -1,0 0,1 0,2 0,1 1,0 4,0 1,0 0,-1 0,-2 0,-1 -1,0 0,-0.96875 c 0,-1.1199 -0.892,-2.03125 -2,-2.03125 z m 0,1 c 0.554,0 1,0.4424 1,1 l 0,1 -2,0 0,-1 c 0,-0.5576 0.446,-1 1,-1 z" />
    <path
       style="color:#bebebe;display:inline;overflow:visible;visibility:visible;fill:#bebebe;fill-opacity:1;fill-rule:nonzero;stroke:none;stroke-width:1;marker:none;enable-background:accumulate"
       id="path5261"
       d="m 468.0002,-247.00336 c -3.86599,0 -7,3.13401 -7,7 0,3.86599 3.13401,7 7,7 0.33536,0 0.67757,-0.0168 1,-0.0625 l 0,-2.0625 c -0.32378,0.068 -0.65495,0.125 -1,0.125 -2.76142,0 -5,-2.23858 -5,-5 0,-2.76142 2.23858,-5 5,-5 1.63862,0 3.0664,0.80776 3.96875,2.03125 l -1.96875,1.96875 5,0 0,-5 -1.59375,1.59375 c -1.28154,-1.57267 -3.21576,-2.59375 -5.40625,-2.59375 z" />
  </g>
  <g
     transform="translate(-460.00021,248.00336)"
     style="display:inline;filter:url(#filter7554)"
     id="layer10" />
  <g
     transform="translate(-219.00001,-368.99664)"
     style="display:inline"
     id="layer1" />
  <g
     transform="translate(-460.00021,248.00336)"
     style="display:inline"
     id="layer14" />
  <g
     transform="translate(-460.00021,248.00336)"
     style="display:inline"
     id="layer15" />
  <g
     transform="translate(-460.00021,248.00336)"
     style="display:inline"
     id="g71291" />
  <g
     transform="translate(-219.00001,-218.99664)"
     style="display:inline"
     id="layer2" />
  <g
     transform="translate(-219.00001,-218.99664)"
     style="display:inline"
     id="g6058" />
  <g
     transform="translate(-460.00021,248.00336)"
     style="display:inline"
     id="layer12" />
</svg>
