<svg xmlns="http://www.w3.org/2000/svg" width="16" height="16" enable-background="new"><defs><filter id="a" color-interpolation-filters="sRGB"><feBlend mode="darken" in2="BackgroundImage"/></filter></defs><g fill="#5d656b"><path d="M13 9c-1.108 0-2 .91-2 2.031V12h-1v4h6v-4h-1v-.969C15 9.911 14.108 9 13 9zm0 1c.554 0 1 .442 1 1v1h-2v-1c0-.558.446-1 1-1z"/><path style="marker:none" d="M8 1a7 7 0 0 0 0 14c.335 0 .678-.017 1-.063v-2.062A4.841 4.841 0 0 1 8 13 5 5 0 0 1 8 3c1.639 0 3.066.808 3.969 2.031L10 7h5V2l-1.594 1.594C12.125 2.02 10.19 1 8 1z" color="#5d656b" overflow="visible" enable-background="accumulate"/></g></svg>