<?xml version="1.0" encoding="UTF-8" standalone="no"?>
<svg
   xmlns:osb="http://www.openswatchbook.org/uri/2009/osb"
   xmlns:dc="http://purl.org/dc/elements/1.1/"
   xmlns:cc="http://creativecommons.org/ns#"
   xmlns:rdf="http://www.w3.org/1999/02/22-rdf-syntax-ns#"
   xmlns:svg="http://www.w3.org/2000/svg"
   xmlns="http://www.w3.org/2000/svg"
   width="16"
   version="1.1"
   style="enable-background:new"
   id="svg7384"
   height="16">
  <metadata
     id="metadata90">
    <rdf:RDF>
      <cc:Work
         rdf:about="">
        <dc:format>image/svg+xml</dc:format>
        <dc:type
           rdf:resource="http://purl.org/dc/dcmitype/StillImage" />
        <dc:title>Moka Symbolic Icon Theme</dc:title>
      </cc:Work>
    </rdf:RDF>
  </metadata>
  <title
     id="title8473">Moka Symbolic Icon Theme</title>
  <defs
     id="defs7386">
    <linearGradient
       osb:paint="solid"
       id="linearGradient5606">
      <stop
         style="stop-color:#000000;stop-opacity:1;"
         offset="0"
         id="stop5608" />
    </linearGradient>
    <filter
       style="color-interpolation-filters:sRGB"
       id="filter7554">
      <feBlend
         mode="darken"
         in2="BackgroundImage"
         id="feBlend7556" />
    </filter>
  </defs>
  <g
     transform="translate(-519.00021,368.01034)"
     style="display:inline"
     id="layer9">
    <path
       style="color:#bebebe;font-style:normal;font-variant:normal;font-weight:normal;font-stretch:normal;font-size:medium;line-height:normal;font-family:Sans;-inkscape-font-specification:Sans;text-indent:0;text-align:start;text-decoration:none;text-decoration-line:none;letter-spacing:normal;word-spacing:normal;text-transform:none;direction:ltr;block-progression:tb;writing-mode:lr-tb;baseline-shift:baseline;text-anchor:start;display:inline;overflow:visible;visibility:visible;fill:#bebebe;fill-opacity:1;stroke:none;stroke-width:2;marker:none;enable-background:accumulate"
       id="path7282"
       d="m 521.0002,-367.01036 0,1 0,7 c 0,2.07164 1.57494,3.52182 2.9375,4.46875 1.36256,0.94693 2.6875,1.46875 2.6875,1.46875 l 0.375,0.125 0.375,-0.125 c 0,0 1.32934,-0.54445 2.6875,-1.5 1.35816,-0.95555 2.9375,-2.39317 2.9375,-4.4375 l 0,-7 0,-1 -1,0 -5.25,0 -4.75,0 -1,0 z m 1,1 4.75,0 5.25,0 0,7 c 0,2.96398 -5,5 -5,5 0,0 -5,-1.94932 -5,-5 l 0,-7 z" />
    <path
       style="color:#bebebe;font-style:normal;font-variant:normal;font-weight:normal;font-stretch:normal;font-size:medium;line-height:normal;font-family:Sans;-inkscape-font-specification:Sans;text-indent:0;text-align:start;text-decoration:none;text-decoration-line:none;letter-spacing:normal;word-spacing:normal;text-transform:none;direction:ltr;block-progression:tb;writing-mode:lr-tb;baseline-shift:baseline;text-anchor:start;display:inline;overflow:visible;visibility:visible;opacity:0.35;fill:#bebebe;fill-opacity:1;stroke:none;stroke-width:2;marker:none;enable-background:accumulate"
       id="path7292"
       d="m 523.0002,-365.01036 0,6 c 0,0.97901 0.92512,2.0221 2.0625,2.8125 0.94964,0.65993 1.64577,0.90854 1.9375,1.03125 0.29177,-0.12746 0.98307,-0.39096 1.9375,-1.0625 1.14191,-0.80345 2.0625,-1.86157 2.0625,-2.78125 l 0,-6 -4.25,0 -3.75,0 z" />
  </g>
  <g
     transform="translate(-519.00021,368.01034)"
     style="display:inline;filter:url(#filter7554)"
     id="layer10" />
  <g
     transform="translate(-278.00001,-248.98966)"
     style="display:inline"
     id="layer1" />
  <g
     transform="translate(-519.00021,368.01034)"
     style="display:inline"
     id="layer14" />
  <g
     transform="translate(-519.00021,368.01034)"
     style="display:inline"
     id="layer15" />
  <g
     transform="translate(-519.00021,368.01034)"
     style="display:inline"
     id="g71291" />
  <g
     transform="translate(-278.00001,-98.98966)"
     style="display:inline"
     id="layer2" />
  <g
     transform="translate(-278.00001,-98.98966)"
     style="display:inline"
     id="g6058" />
  <g
     transform="translate(-519.00021,368.01034)"
     style="display:inline"
     id="layer12" />
</svg>
