<svg xmlns="http://www.w3.org/2000/svg" width="16" height="16"><path style="marker:none" d="M8.039 1a1 1 0 0 1 .875.6L10.402 5h3.846c.92.001 1.35 1.137.664 1.748L11.918 9.4l1.521 4.264c.315.887-.658 1.679-1.462 1.19l-3.979-2.432c-1-.684-1-.502-1-1.584V1.79l.084-.191a1 1 0 0 1 .957-.6zm-.041 1v9.25l4.5 2.75-1.75-4.898L14.248 6h-4.5z" class="warning" fill="#b3b3b3"/><path class="warning" d="M7.998 2l1.75 4h4.5l-3.5 3.102L12.498 14l-4.5-2.75z" style="marker:none" opacity=".3" fill="#b3b3b3"/><path style="marker:none" d="M7.998 1c-.097 0-.191.015-.281.041A1 1 0 0 1 7.998 1zm-.299.047a.995.995 0 0 0-.246.117 1 1 0 0 1 .246-.117zm-.25.119a.997.997 0 0 0-.207.18 1 1 0 0 1 .207-.18zm-.219.193c-.06.072-.11.153-.148.24a1 1 0 0 1 .148-.24zm-.232.432v2.494L6.248 6h-4.5l3.5 3.102L3.498 14l3.629-2.217c.126.174.374.3.871.639l-3.979 2.432a1 1 0 0 1-1.462-1.19L4.078 9.4 1.084 6.748A1 1 0 0 1 1.748 5h3.846z" opacity=".75" fill="#555761"/></svg>