<?xml version="1.0" encoding="UTF-8" standalone="no"?>
<svg
   xmlns:dc="http://purl.org/dc/elements/1.1/"
   xmlns:cc="http://creativecommons.org/ns#"
   xmlns:rdf="http://www.w3.org/1999/02/22-rdf-syntax-ns#"
   xmlns:svg="http://www.w3.org/2000/svg"
   xmlns="http://www.w3.org/2000/svg"
   version="1.2"
   width="16"
   height="16"
   id="svg2">
  <defs
     id="defs4" />
  <metadata
     id="metadata7">
    <rdf:RDF>
      <cc:Work
         rdf:about="">
        <dc:format>image/svg+xml</dc:format>
        <dc:type
           rdf:resource="http://purl.org/dc/dcmitype/StillImage" />
        <dc:title></dc:title>
      </cc:Work>
    </rdf:RDF>
  </metadata>
  <path
     style="color:#000000;display:inline;overflow:visible;visibility:visible;opacity:1;vector-effect:none;fill:#555761;fill-opacity:1;fill-rule:nonzero;stroke:none;stroke-width:1;stroke-linecap:butt;stroke-linejoin:miter;stroke-miterlimit:4;stroke-dasharray:none;stroke-dashoffset:0;stroke-opacity:1;marker:none;enable-background:accumulate"
     id="path4285"
     d="M 8,2 C 5.207344,2 2.87218,3.916531 2.203125,6.5 H 3.6875 C 4.307257,4.715684 6.005331,3.4375 8,3.4375 c 1.387271,0 2.631388,0.616947 3.46875,1.59375 L 9.5,7 H 14 V 2.5 L 12.484375,4.015625 C 11.388811,2.776248 9.784754,2 8,2 Z M 2,9 v 4.5 L 3.765625,11.734375 C 4.848209,12.824114 6.34186,13.5 8,13.5 c 2.792657,0 5.12782,-1.916531 5.796875,-4.5 H 12.3125 C 11.692744,10.784316 9.994668,12.0625 8,12.0625 c -1.25885,0 -2.392665,-0.519628 -3.21875,-1.34375 L 6.5,9 Z" />
</svg>
