<svg width="16.969" height="16" enable-background="new" version="1.1" xmlns="http://www.w3.org/2000/svg">
 <g fill="#5d656b">
  <path d="M10.969 11v1c0 .276.1.538.281.719l.781.781-.781.781a1.015 1.015 0 0 0-.281.719v1h1c.276 0 .538-.1.718-.281l.782-.781.781.78c.181.182.443.282.719.282h1v-1c0-.276-.1-.538-.282-.719l-.78-.781.78-.781c.181-.181.282-.443.282-.719v-1h-1c-.276 0-.538.1-.719.281l-.781.781-.782-.78A1.015 1.015 0 0 0 11.97 11z"/>
 </g>
 <path d="m8 0c-1.1046 0-2 0.89543-2 2h-3v0.0058594c-1.113 0.032581-2 0.93344-2 2.0547v9.8789c0 1.142 0.91858 2.0605 2.0605 2.0605h6.9395v-1h-7c-0.554 0-1-0.446-1-1v-10c0-0.554 0.446-1 1-1h3v1s-1 1e-6 -1 1h6c0-0.75-0.56275-0.953-0.84375-1h-0.15625v-1h3c0.554 0 1 0.446 1 1v6h1v-5.9395c0-1.142-0.91858-2.0605-2.0605-2.0605h-2.9395c0-0.138-0.00525-0.27625-0.03125-0.40625-0.19615-0.93036-1.0179-1.5955-1.9688-1.5938zm-0.011719 1c0.0039062-2.289e-5 0.0078124-2.289e-5 0.011719 0 0.414 0 0.75425 0.266 0.90625 0.625 0.056891 0.11716 0.088816 0.24486 0.09375 0.375-6.1e-5 0.88813-1.0716 1.3352-1.7031 0.71094-0.63157-0.62426-0.19666-1.7005 0.69141-1.7109z" fill="#5d656b"/>
</svg>
