<?xml version="1.0" encoding="UTF-8" standalone="no"?>
<svg
   xmlns:osb="http://www.openswatchbook.org/uri/2009/osb"
   xmlns:dc="http://purl.org/dc/elements/1.1/"
   xmlns:cc="http://creativecommons.org/ns#"
   xmlns:rdf="http://www.w3.org/1999/02/22-rdf-syntax-ns#"
   xmlns:svg="http://www.w3.org/2000/svg"
   xmlns="http://www.w3.org/2000/svg"
   width="16.96875"
   version="1.1"
   style="enable-background:new"
   id="svg7384"
   height="16.000076">
  <metadata
     id="metadata90">
    <rdf:RDF>
      <cc:Work
         rdf:about="">
        <dc:format>image/svg+xml</dc:format>
        <dc:type
           rdf:resource="http://purl.org/dc/dcmitype/StillImage" />
        <dc:title>Moka Symbolic Icon Theme</dc:title>
      </cc:Work>
    </rdf:RDF>
  </metadata>
  <title
     id="title8473">Moka Symbolic Icon Theme</title>
  <defs
     id="defs7386">
    <linearGradient
       osb:paint="solid"
       id="linearGradient5606">
      <stop
         style="stop-color:#000000;stop-opacity:1;"
         offset="0"
         id="stop5608" />
    </linearGradient>
    <filter
       style="color-interpolation-filters:sRGB"
       id="filter7554">
      <feBlend
         mode="darken"
         in2="BackgroundImage"
         id="feBlend7556" />
    </filter>
  </defs>
  <g
     transform="translate(-400.03146,208.00336)"
     style="display:inline"
     id="layer9">
    <path
       style="fill:#bebebe;fill-opacity:1;stroke:none"
       id="path5658"
       d="m 411.0002,-197.00336 0,1 c 0,0.27614 0.10029,0.53779 0.28125,0.71875 l 0.78125,0.78125 -0.78125,0.78125 c -0.18096,0.18096 -0.28125,0.44261 -0.28125,0.71875 l 0,1 1,0 c 0.27614,0 0.53779,-0.10029 0.71875,-0.28125 l 0.78125,-0.78125 0.78125,0.78125 c 0.18096,0.18096 0.44261,0.28125 0.71875,0.28125 l 1,0 0,-1 c 0,-0.27614 -0.10029,-0.53779 -0.28125,-0.71875 l -0.78125,-0.78125 0.78125,-0.78125 c 0.18096,-0.18096 0.28125,-0.44261 0.28125,-0.71875 l 0,-1 -1,0 c -0.27614,0 -0.53779,0.10029 -0.71875,0.28125 l -0.78125,0.78125 -0.78125,-0.78125 c -0.18096,-0.18096 -0.44261,-0.28125 -0.71875,-0.28125 z" />
    <path
       style="color:#000000;display:inline;overflow:visible;visibility:visible;fill:#bebebe;fill-opacity:1;fill-rule:nonzero;stroke:none;stroke-width:4;marker:none;enable-background:accumulate"
       id="path6055"
       d="m 408.0002,-208 c -1.10457,0 -2,0.89543 -2,2 l -4,0 0,10 0,3 1.65625,0 6.34375,0 0,-1 -5,0 -1,0 -1,0 0,-10 0,-0.5 0,-0.5 3,0 0,1 c 0,0 -1,0 -1,1 l 1,0 4,0 1,0 c 0,-0.75 -0.5625,-0.95312 -0.84375,-1 l -0.15625,0 0,-1 2,0 1,0 0,2 0,5 1,0 0,-8 -4,0 c 0,-0.13807 -0.005,-0.27605 -0.0312,-0.40625 C 409.78241,-207.31762 408.9667,-208 408.0002,-208 Z m 0,1 c 0.41421,0 0.75444,0.26608 0.90625,0.625 0.0506,0.11964 0.0937,0.23693 0.0937,0.375 0,0.55228 -0.44771,1 -1,1 -0.55229,0 -1,-0.44772 -1,-1 0,-0.55228 0.44771,-1 1,-1 z" />
  </g>
  <g
     transform="translate(-400.03146,208.00336)"
     style="display:inline;filter:url(#filter7554)"
     id="layer10" />
  <g
     transform="translate(-159.03126,-408.99664)"
     style="display:inline"
     id="layer1" />
  <g
     transform="translate(-400.03146,208.00336)"
     style="display:inline"
     id="layer14" />
  <g
     transform="translate(-400.03146,208.00336)"
     style="display:inline"
     id="layer15" />
  <g
     transform="translate(-400.03146,208.00336)"
     style="display:inline"
     id="g71291" />
  <g
     transform="translate(-159.03126,-258.99664)"
     style="display:inline"
     id="layer2" />
  <g
     transform="translate(-159.03126,-258.99664)"
     style="display:inline"
     id="g6058" />
  <g
     transform="translate(-400.03146,208.00336)"
     style="display:inline"
     id="layer12" />
</svg>
