<svg xmlns="http://www.w3.org/2000/svg" width="16" height="16"><path d="M1.5 2C0 2 0 3.5 0 3.5v9S0 14 1.5 14h8.75c.084-.158.18-.305.313-.438l.062-.062-.063-.063c-.39-.39-.562-.919-.562-1.437H8v-2h5v.25c.158.084.305.18.438.313l.062.062.063-.063c.39-.39.919-.562 1.437-.562V3.5C15 2 13.5 2 13.5 2h-12zM2 4h11v5H2V4zm0 6h5v2H2v-2z" opacity=".35" fill="#5d656b"/><path d="M11 11v1c0 .276.1.538.281.719l.781.781-.78.781A1.015 1.015 0 0 0 11 15v1h1c.276 0 .538-.1.719-.281l.781-.781.781.78c.181.182.443.282.719.282h1v-1c0-.276-.1-.538-.281-.719l-.782-.781.782-.781c.18-.181.281-.443.281-.719v-1h-1c-.276 0-.538.1-.719.281l-.781.781-.781-.78A1.015 1.015 0 0 0 12 11h-1z" fill="#5d656b"/></svg>