<svg xmlns="http://www.w3.org/2000/svg" width="16" height="16" enable-background="new"><defs><filter id="a" color-interpolation-filters="sRGB"><feBlend mode="darken" in2="BackgroundImage"/></filter></defs><g fill="#5d656b"><path d="M3 1S1 1 1 3v6c0 2 2 2 2 2h1v4l4-4h5c1.108 0 2-.892 2-2V3c0-2-1.969-2-1.969-2H3zm2 3c.631 0 1.131.346 1.5.812C6.868 4.346 7.368 4 8 4c.631 0 1.131.346 1.5.812C9.868 4.346 10.368 4 11 4c1.093 0 2 .907 2 2s-.907 2-2 2c-.632 0-1.132-.346-1.5-.813C9.13 7.654 8.63 8 8 8c-.632 0-1.132-.346-1.5-.813C6.13 7.654 5.63 8 5 8c-1.093 0-2-.907-2-2s.907-2 2-2z" opacity=".35"/><path d="M5 5a1 1 0 1 0 0 2 1 1 0 0 0 0-2zm3 0a1 1 0 1 0 0 2 1 1 0 0 0 0-2zm3 0a1 1 0 1 0 0 2 1 1 0 0 0 0-2z"/></g></svg>