<?xml version="1.0" encoding="UTF-8" standalone="no"?>
<svg
   xmlns:osb="http://www.openswatchbook.org/uri/2009/osb"
   xmlns:dc="http://purl.org/dc/elements/1.1/"
   xmlns:cc="http://creativecommons.org/ns#"
   xmlns:rdf="http://www.w3.org/1999/02/22-rdf-syntax-ns#"
   xmlns:svg="http://www.w3.org/2000/svg"
   xmlns="http://www.w3.org/2000/svg"
   width="16"
   version="1.1"
   style="enable-background:new"
   id="svg7384"
   height="16">
  <metadata
     id="metadata90">
    <rdf:RDF>
      <cc:Work
         rdf:about="">
        <dc:format>image/svg+xml</dc:format>
        <dc:type
           rdf:resource="http://purl.org/dc/dcmitype/StillImage" />
        <dc:title>Moka Symbolic Icon Theme</dc:title>
      </cc:Work>
    </rdf:RDF>
  </metadata>
  <title
     id="title8473">Moka Symbolic Icon Theme</title>
  <defs
     id="defs7386">
    <linearGradient
       osb:paint="solid"
       id="linearGradient5606">
      <stop
         style="stop-color:#000000;stop-opacity:1;"
         offset="0"
         id="stop5608" />
    </linearGradient>
    <filter
       style="color-interpolation-filters:sRGB"
       id="filter7554">
      <feBlend
         mode="darken"
         in2="BackgroundImage"
         id="feBlend7556" />
    </filter>
  </defs>
  <g
     transform="translate(-301.0002,248.00336)"
     style="display:inline"
     id="layer9">
    <path
       style="opacity:0.35;fill:#bebebe;fill-opacity:1;stroke:none"
       id="path3003-8"
       d="m 304,-247.00338 c 0,0 -2,0 -2,2 l 0,6 c 0,2 2,2 2,2 l 1,0 0,4 4,-4 5,0 c 1.108,0 2,-0.892 2,-2 l 0,-1 0,-2 0,-3 c 0,-2 -1.96875,-2 -1.96875,-2 l -10.03125,0 z m 4,1 2,0 0,3 0,2 -2,0 -3,0 0,-2 3,0 0,-3 z" />
  </g>
  <g
     transform="translate(-301.0002,248.00336)"
     style="display:inline;filter:url(#filter7554)"
     id="layer10" />
  <g
     transform="translate(-59.999998,-368.99664)"
     style="display:inline"
     id="layer1" />
  <g
     transform="translate(-301.0002,248.00336)"
     style="display:inline"
     id="layer14" />
  <g
     transform="translate(-301.0002,248.00336)"
     style="display:inline"
     id="layer15" />
  <g
     transform="translate(-301.0002,248.00336)"
     style="display:inline"
     id="g71291" />
  <g
     transform="translate(-59.999998,-218.99664)"
     style="display:inline"
     id="layer2" />
  <g
     transform="translate(-59.999998,-218.99664)"
     style="display:inline"
     id="g6058" />
  <g
     transform="translate(-301.0002,248.00336)"
     style="display:inline"
     id="layer12" />
</svg>
