<?xml version="1.0" encoding="UTF-8" standalone="no"?>
<svg
   xmlns:osb="http://www.openswatchbook.org/uri/2009/osb"
   xmlns:dc="http://purl.org/dc/elements/1.1/"
   xmlns:cc="http://creativecommons.org/ns#"
   xmlns:rdf="http://www.w3.org/1999/02/22-rdf-syntax-ns#"
   xmlns:svg="http://www.w3.org/2000/svg"
   xmlns="http://www.w3.org/2000/svg"
   width="16"
   version="1.1"
   style="enable-background:new"
   id="svg7384"
   height="16">
  <metadata
     id="metadata90">
    <rdf:RDF>
      <cc:Work
         rdf:about="">
        <dc:format>image/svg+xml</dc:format>
        <dc:type
           rdf:resource="http://purl.org/dc/dcmitype/StillImage" />
        <dc:title>Moka Symbolic Icon Theme</dc:title>
      </cc:Work>
    </rdf:RDF>
  </metadata>
  <title
     id="title8473">Moka Symbolic Icon Theme</title>
  <defs
     id="defs7386">
    <linearGradient
       osb:paint="solid"
       id="linearGradient5606">
      <stop
         style="stop-color:#000000;stop-opacity:1;"
         offset="0"
         id="stop5608" />
    </linearGradient>
    <filter
       style="color-interpolation-filters:sRGB"
       id="filter7554">
      <feBlend
         mode="darken"
         in2="BackgroundImage"
         id="feBlend7556" />
    </filter>
  </defs>
  <g
     transform="translate(-341.0002,288.00336)"
     style="display:inline"
     id="layer9">
    <g
       transform="matrix(0,1,-1,0,634.0002,-329.00331)"
       id="g6063">
      <g
         id="g6065">
        <g
           transform="translate(2e-4,0)"
           style="fill:#bebebe;fill-opacity:1"
           id="g6067">
          <path
             transform="matrix(0,-1,1,0,-123.00025,393)"
             style="color:#000000;text-indent:0;text-transform:none;block-progression:tb;fill:#bebebe;fill-opacity:1"
             id="path6069"
             d="m 106,165 c -1.6447,0 -3,1.3553 -3,3 l 0,1 0,0.65625 0,3.34375 0,3 c 0,1.6447 1.3553,3 3,3 l 3,0 0,-2 -3,0 c -0.5713,0 -1,-0.4287 -1,-1 l 0,-3 0,-3.34375 0,-0.65625 0,-1 c 0,-0.5713 0.4287,-1 1,-1 l 4,0 c 0.5713,0 1,0.4287 1,1 l 0,3 2,0 0,-3 c 0,-1.6447 -1.3553,-3 -3,-3 l -4,0 z" />
        </g>
        <path
           style="fill:#bebebe;fill-opacity:1;stroke:none"
           id="path6073"
           d="m 51.0002,281 -4,-3 0,6 z" />
      </g>
    </g>
  </g>
  <g
     transform="translate(-341.0002,288.00336)"
     style="display:inline;filter:url(#filter7554)"
     id="layer10" />
  <g
     transform="translate(-100,-328.99664)"
     style="display:inline"
     id="layer1" />
  <g
     transform="translate(-341.0002,288.00336)"
     style="display:inline"
     id="layer14" />
  <g
     transform="translate(-341.0002,288.00336)"
     style="display:inline"
     id="layer15" />
  <g
     transform="translate(-341.0002,288.00336)"
     style="display:inline"
     id="g71291" />
  <g
     transform="translate(-100,-178.99664)"
     style="display:inline"
     id="layer2" />
  <g
     transform="translate(-100,-178.99664)"
     style="display:inline"
     id="g6058" />
  <g
     transform="translate(-341.0002,288.00336)"
     style="display:inline"
     id="layer12" />
</svg>
