<svg xmlns="http://www.w3.org/2000/svg" width="16" height="16"><path style="marker:none" d="M9 3a2.5 2.5 0 0 0-2.164 1.254A1.5 1.5 0 0 0 6 4a1.5 1.5 0 0 0-1.5 1.5 1.5 1.5 0 0 0 .102.543A2 2 0 0 0 3 8a2 2 0 0 0 2 2h6a2 2 0 0 0 2-2 2 2 0 0 0-1.564-1.951A2.5 2.5 0 0 0 11.5 5.5 2.5 2.5 0 0 0 9 3z" opacity=".6" fill="#555761"/><path class="info" d="M5.047 11.012a.375.375 0 0 0-.371.185L4.05 12.28a.373.373 0 0 0 .136.512c.18.104.408.043.512-.137l.625-1.082a.376.376 0 0 0-.277-.56zm1.553 0a.375.375 0 0 0-.371.185l-1.125 1.948a.376.376 0 0 0 .65.375l1.125-1.948a.376.376 0 0 0-.28-.56zm1.539 0a.375.375 0 0 0-.371.185l-.875 1.516a.373.373 0 0 0 .136.512c.18.103.408.043.512-.137l.875-1.516a.376.376 0 0 0-.277-.56zm1.488 0a.375.375 0 0 0-.371.185L8.13 13.145a.376.376 0 1 0 .65.375l1.125-1.948a.376.376 0 0 0-.279-.56zm1.42 0a.375.375 0 0 0-.371.185l-.625 1.082a.373.373 0 0 0 .136.512c.18.104.408.043.512-.137l.625-1.082a.376.376 0 0 0-.277-.56z" style="marker:none" fill="#64baff"/></svg>