<svg xmlns="http://www.w3.org/2000/svg" height="16" width="16"><path style="marker:none;font-variant-east_asian:normal" d="M6 3a2.5 2.5 0 0 0-2.5 2.5 2.5 2.5 0 0 0 .064.549A2 2 0 0 0 2 8a2 2 0 0 0 1.299 1.871c.273-.507.71-.937 1.213-1.264-.001-.034-.012-.067-.012-.101a1 1 0 0 1 0-.006c0-.916.377-1.827 1.025-2.475A3.542 3.542 0 0 1 8 5a1 1 0 0 0 .002 0c.942.001 1.785.496 2.44 1.17.062-.015.121-.042.181-.066a2 2 0 0 0-.225-.061A1.5 1.5 0 0 0 10.5 5.5 1.5 1.5 0 0 0 9 4a1.5 1.5 0 0 0-.836.254A2.5 2.5 0 0 0 6 3zm2 3a2.5 2.5 0 0 0-2.5 2.5 2.5 2.5 0 0 0 .064.549A2 2 0 0 0 4 11a2 2 0 0 0 2 2h6a2 2 0 0 0 2-2 2 2 0 0 0-1.602-1.957A1.5 1.5 0 0 0 12.5 8.5 1.5 1.5 0 0 0 11 7a1.5 1.5 0 0 0-.836.254A2.5 2.5 0 0 0 8 6z" opacity=".6" fill="#555761"/><path d="M53 4a2.5 2.5 0 0 0-2.164 1.254A1.5 1.5 0 0 0 50 5a1.5 1.5 0 0 0-1.5 1.5 1.5 1.5 0 0 0 .102.543A2 2 0 0 0 47 9a2 2 0 0 0 2 2h6a2 2 0 0 0 2-2 2 2 0 0 0-1.564-1.951A2.5 2.5 0 0 0 55.5 6.5 2.5 2.5 0 0 0 53 4z" style="marker:none" opacity=".6" fill="#fafafa"/><path d="M11.488 3l.184.816.828.196-.83.168-.16.82-.19-.83-.82-.182.816-.162zm2.496 1.5l.278 1.225 1.238.29-1.244.255-.24 1.23-.286-1.244-1.23-.272 1.225-.246z" style="marker:none" fill="#555761"/></svg>