<svg xmlns="http://www.w3.org/2000/svg" height="16.001" width="16"><path style="marker:none" d="M9 3.002a2.5 2.5 0 0 0-2.164 1.254A1.5 1.5 0 0 0 6 4.002a1.5 1.5 0 0 0-1.5 1.5 1.5 1.5 0 0 0 .102.543A2 2 0 0 0 3 8.002a2 2 0 0 0 2 2h.736l.272-2.127A1.001 1.001 0 0 1 7 7.002h2.5a1.001 1.001 0 0 1 .97 1.242l-.189.754h.217a1.001 1.001 0 0 1 1 .938A2 2 0 0 0 13 8.002a2 2 0 0 0-1.564-1.95 2.5 2.5 0 0 0 .064-.55 2.5 2.5 0 0 0-2.5-2.5z" opacity=".6" fill="#555761"/><path style="marker:none" d="M9.5 8.001H7L6.489 12 8 12.001 7.5 15l3-5-1.5.002z" class="warning" fill="#f9c440"/></svg>