<svg xmlns="http://www.w3.org/2000/svg" width="16" height="16"><path style="marker:none" d="M9 3a2.5 2.5 0 0 0-2.164 1.254A1.5 1.5 0 0 0 6 4a1.5 1.5 0 0 0-1.5 1.5 1.5 1.5 0 0 0 .102.543A2 2 0 0 0 3 8a2 2 0 0 0 2 2h6a2 2 0 0 0 2-2 2 2 0 0 0-1.564-1.951A2.5 2.5 0 0 0 11.5 5.5 2.5 2.5 0 0 0 9 3z" opacity=".6" fill="#555761"/><path d="M11.047 11.012a.376.376 0 0 1 .277.56l-.625 1.082a.373.373 0 0 1-.511.137.373.373 0 0 1-.137-.512l.625-1.082a.375.375 0 0 1 .37-.185zm-2.908 0a.376.376 0 0 1 .277.56l-.625 1.082a.373.373 0 0 1-.512.137.373.373 0 0 1-.136-.512l.625-1.082a.375.375 0 0 1 .37-.185zm-3.092 0a.376.376 0 0 1 .277.56L4.7 12.654a.373.373 0 0 1-.511.137.373.373 0 0 1-.137-.512l.625-1.082a.375.375 0 0 1 .37-.185zm4.08.865a.375.375 0 0 1 .14.049c.18.104.243.332.14.512L8.78 13.52a.376.376 0 1 1-.65-.375l.625-1.082a.375.375 0 0 1 .371-.186zm-3.027 0a.373.373 0 0 1 .28.56l-.626 1.083a.376.376 0 0 1-.65-.375l.625-1.082a.375.375 0 0 1 .37-.186z" style="marker:none" fill="#64baff"/></svg>