<svg width="16" height="16" version="1.1" xmlns="http://www.w3.org/2000/svg">
 <path d="m3.6973 0.4082-1.123 2.8105-3.7812 3.7812h1.207 1.293a7 7 0 0 0-0.29297 2 7 7 0 0 0 7 7 7 7 0 0 0 7-7 7 7 0 0 0-0.29297-2h2.5l-3.7812-3.7812-1.123-2.8105-4.3027 1.0762-4.3027-1.0762zm0.60547 1.1836 3.6973 0.92383 3.6973-0.92383 0.56445 1.4082h-8.5234l0.56445-1.4082zm-1.0957 2.4082h9.5859l2 2h-13.586l2-2zm-0.85352 3h1.6465a1 1 0 0 0 1 1 1 1 0 0 0 1-1h4a1 1 0 0 0 1 1 1 1 0 0 0 1-1h1.6543a6 6 0 0 1 0.3457 2 6 6 0 0 1-6 6 6 6 0 0 1-6-6 6 6 0 0 1 0.35352-2zm3.1465 4c-0.277 0-0.5 0.223-0.5 0.5s0.223 0.5 0.5 0.5h5c0.277 0 0.5-0.223 0.5-0.5s-0.223-0.5-0.5-0.5h-5z" fill="#5d656b" fill-rule="evenodd" stop-color="#000000" stroke-linecap="round" stroke-linejoin="round" stroke-width="2" style="paint-order:stroke fill markers"/>
</svg>
