<svg xmlns="http://www.w3.org/2000/svg" height="16" width="16"><path style="line-height:normal;font-variant-ligatures:normal;font-variant-position:normal;font-variant-caps:normal;font-variant-numeric:normal;font-variant-alternates:normal;font-feature-settings:normal;text-indent:0;text-align:start;text-decoration-line:none;text-decoration-style:solid;text-decoration-color:#000;text-transform:none;text-orientation:mixed;white-space:normal;shape-padding:0;isolation:auto;mix-blend-mode:normal" d="M8 1a7 7 0 0 0-7 7 7 7 0 0 0 7 7 7 7 0 0 0 7-7 7 7 0 0 0-7-7zm0 1.133A5.85 5.85 0 0 1 13.867 8 5.85 5.85 0 0 1 8 13.867 5.85 5.85 0 0 1 2.133 8 5.85 5.85 0 0 1 8 2.133zm3.162 2.137a.533.533 0 0 0-.076.007v.008a.533.533 0 0 0-.268.166L7.984 7.277 6.22 5.52a.533.533 0 1 0-.735.732L7.62 8.387a.533.533 0 0 0 .733 0l3.2-3.201a.533.533 0 0 0-.39-.916z" color="#000" font-weight="400" font-family="sans-serif" overflow="visible" fill="#5d656b"/></svg>