<svg height="16" width="16" xmlns="http://www.w3.org/2000/svg"><path color="#000" d="M12.5 1A2.5 2.5 0 0 0 10 3.5a2.5 2.5 0 0 0 .05.482L5.205 6.676A2.5 2.5 0 0 0 3.5 6 2.5 2.5 0 0 0 1 8.5 2.5 2.5 0 0 0 3.5 11a2.5 2.5 0 0 0 1.717-.684l4.834 2.688A2.5 2.5 0 0 0 10 13.5a2.5 2.5 0 0 0 2.5 2.5 2.5 2.5 0 0 0 2.5-2.5 2.5 2.5 0 0 0-2.5-2.5 2.5 2.5 0 0 0-1.72.688L5.946 9a2.5 2.5 0 0 0 .053-.5 2.5 2.5 0 0 0-.057-.514l4.828-2.683A2.5 2.5 0 0 0 12.499 6a2.5 2.5 0 0 0 2.5-2.5 2.5 2.5 0 0 0-2.5-2.5z" fill="#5d656b" fill-rule="evenodd" overflow="visible" style="isolation:auto;mix-blend-mode:normal"/></svg>