<svg width="64" height="64" version="1.1" viewBox="0 0 16.933 16.933" xmlns="http://www.w3.org/2000/svg">
 <g transform="translate(0 -280.07)" paint-order="stroke markers fill">
  <rect x="1.852" y="281.39" width="13.229" height="14.287" ry=".571" fill="#25917b" opacity=".75" stroke="#1a6e63" stroke-width=".529"/>
  <g transform="matrix(1.0417 0 0 1.08 -.353 -23.082)" stroke-width=".961">
   <rect x="2.117" y="281.92" width="12.7" height="13.229" ry=".529" fill="#31cfa8"/>
   <path d="M2.646 281.919a.528.528 0 0 0-.53.529v5.045a9.26 9.26 0 0 0 8.467 5.538 9.26 9.26 0 0 0 4.234-1.027v-9.556a.528.528 0 0 0-.53-.53z" fill="#004b7d" opacity=".1"/>
   <path d="M2.646 281.919a.528.528 0 0 0-.53.529v12.17c0 .294.237.53.53.53h5.909a10.583 10.583 0 0 0 6.262-5.472v-7.228a.528.528 0 0 0-.53-.53z" fill="#005574" opacity=".1"/>
  </g>
  <path d="M5.292 284.035a3.175 3.175 0 0 0 3.175 3.175 3.175 3.175 0 0 0 3.175-3.175h-.794a2.381 2.381 0 0 1-2.381 2.382 2.381 2.381 0 0 1-2.382-2.382h-.793z" fill="#fff"/>
 </g>
</svg>
