<svg xmlns="http://www.w3.org/2000/svg" width="16" height="16" enable-background="new"><defs><filter id="a" color-interpolation-filters="sRGB"><feBlend mode="darken" in2="BackgroundImage"/></filter></defs><g transform="translate(-321 156.003)" filter="url(#a)"><path style="marker:none" d="M328-154.003v1h6v-1h-6zm-5 2c-.552 0-1 .45-1 1v8c0 .55.448 1 1 1h12c.552 0 1-.45 1-1v-8c0-.55-.448-1-1-1h-12zm1 2h2v1h-2v-1zm7 0a3 3 0 1 1 0 6 3 3 0 0 1 0-6zm0 1a2 2 0 1 0 0 4 2 2 0 0 0 0-4z" color="#5d656b" overflow="visible" fill="#5d656b" enable-background="accumulate"/></g></svg>