<svg height="16" width="16" xmlns="http://www.w3.org/2000/svg"><path color="#000" d="M7.063 1c-.455.05-.884.221-1.25.5C5.325 1.871 5 2.455 5 3.188V7H2.5c-.277 0-.5.222-.5.496v7.01c0 .274.223.494.5.494h6c.277 0 .5-.22.5-.494v-7.01A.497.497 0 0 0 8.5 7H6V3.187c0-.449.172-.703.438-.906.266-.202.663-.3 1.062-.281.399.019.784.154 1.063.406.278.252.468.585.468 1.125 0 2.166 1.464 3.51 3 3.469.857-.022 1.689-.477 2.25-1.313l-.562-1C13.344 5.603 12.651 5.983 12 6c-.96.025-1.969-.73-1.969-2.469 0-.792-.336-1.444-.812-1.875-.476-.43-1.081-.627-1.688-.656-.151-.007-.317-.017-.468 0zM14 3v.125l.781 1.375c.011-.04.021-.083.031-.125zm0 .344l-.03.312.718 1.219c.023-.063.043-.122.062-.188zm-.062.5c-.014.09-.043.166-.06.25l.655 1.125c.03-.061.067-.124.094-.188zm-.094.437c-.024.09-.065.17-.094.25l.594 1.032c.04-.066.088-.119.125-.188z" fill="#5d656b" font-family="Sans" font-weight="400" overflow="visible" style="line-height:normal;-inkscape-font-specification:Sans;text-indent:0;text-align:start;text-decoration-line:none;text-transform:none;marker:none"/></svg>