<svg xmlns="http://www.w3.org/2000/svg" width="16.032" height="16" enable-background="new"><defs><filter id="a" color-interpolation-filters="sRGB"><feBlend mode="darken" in2="BackgroundImage"/></filter></defs><g transform="translate(-301 136.003)" filter="url(#a)"><path fill="none" d="M301.032-136.003h16v16h-16z"/><path d="M302-132.003c-1 0-1 1-1 1v5c0 1 1 1 1 1h1c0 1 1 1 1 1h1s1 0 1-1h6c0 1 .969 1 .969 1h1s1.031 0 1.031-1h1c1 0 1-1 1-1v-5s0-1-1.031-1H302zm2.5 1c1.378 0 2.5 1.119 2.5 2.5 0 1.38-1.122 2.5-2.5 2.5s-2.5-1.12-2.5-2.5c0-1.381 1.122-2.5 2.5-2.5zm6.5 1h1v1h1v-1h1v1h1v-1h1v1h-1v1h1v1h-1v-1h-1v1h-1v-1h-1v.875h-1v-1h1v-.875h-1v-1zm2 2h1v-1h-1v1z" fill="#5d656b"/><path d="M304.313-130.003a1.5 1.5 0 0 0-1.313 1.5 1.5 1.5 0 0 0 3 0 1.5 1.5 0 0 0-1.687-1.5zm.187.5a1 1 0 1 1 0 2 1 1 0 0 1 0-2z" fill="#5d656b"/></g></svg>