<?xml version="1.0" encoding="UTF-8" standalone="no"?>
<svg
   xmlns:dc="http://purl.org/dc/elements/1.1/"
   xmlns:cc="http://creativecommons.org/ns#"
   xmlns:rdf="http://www.w3.org/1999/02/22-rdf-syntax-ns#"
   xmlns:svg="http://www.w3.org/2000/svg"
   xmlns="http://www.w3.org/2000/svg"
   xmlns:sodipodi="http://sodipodi.sourceforge.net/DTD/sodipodi-0.dtd"
   xmlns:inkscape="http://www.inkscape.org/namespaces/inkscape"
   width="16.032"
   height="16"
   enable-background="new"
   version="1.1"
   id="svg15"
   sodipodi:docname="display-projector-symbolic.svg"
   inkscape:version="0.92.4 (5da689c313, 2019-01-14)">
  <metadata
     id="metadata19">
    <rdf:RDF>
      <cc:Work
         rdf:about="">
        <dc:format>image/svg+xml</dc:format>
        <dc:type
           rdf:resource="http://purl.org/dc/dcmitype/StillImage" />
        <dc:title></dc:title>
      </cc:Work>
    </rdf:RDF>
  </metadata>
  <sodipodi:namedview
     pagecolor="#ffffff"
     bordercolor="#666666"
     borderopacity="1"
     objecttolerance="10"
     gridtolerance="10"
     guidetolerance="10"
     inkscape:pageopacity="0"
     inkscape:pageshadow="2"
     inkscape:window-width="1366"
     inkscape:window-height="711"
     id="namedview17"
     showgrid="false"
     inkscape:zoom="14.75"
     inkscape:cx="-2.4246782"
     inkscape:cy="8"
     inkscape:window-x="0"
     inkscape:window-y="27"
     inkscape:window-maximized="1"
     inkscape:current-layer="svg15" />
  <defs
     id="defs5">
    <filter
       id="a"
       color-interpolation-filters="sRGB">
      <feBlend
         mode="darken"
         in2="BackgroundImage"
         id="feBlend2" />
    </filter>
  </defs>
  <path
     style="fill:#5d656b;filter:url(#a)"
     inkscape:connector-curvature="0"
     id="path9"
     d="M 1,4 C 0,4 0,5 0,5 v 5 c 0,1 1,1 1,1 h 1 c 0,1 1,1 1,1 h 1 c 0,0 1,0 1,-1 h 6 c 0,1 0.969,1 0.969,1 h 1 c 0,0 1.031,0 1.031,-1 h 1 c 1,0 1,-1 1,-1 V 5 C 16,5 16,4 14.969,4 Z M 3.5,5 C 4.878,5 6,6.119 6,7.5 6,8.88 4.878,10 3.5,10 2.122,10 1,8.88 1,7.5 1,6.119 2.122,5 3.5,5 Z M 10,6 h 1 v 1 h 1 V 6 h 1 v 1 h 1 V 6 h 1 v 1 h -1 v 1 h 1 V 9 H 14 V 8 H 13 V 9 H 12 V 8 h -1 v 0.875 h -1 v -1 h 1 V 7 h -1 z m 2,2 h 1 V 7 h -1 z" />
  <path
     style="fill:#5d656b;filter:url(#a)"
     inkscape:connector-curvature="0"
     id="path11"
     d="M 3.313,6 A 1.5,1.5 0 0 0 2,7.5 1.5,1.5 0 0 0 5,7.5 1.5,1.5 0 0 0 3.313,6 Z M 3.5,6.5 a 1,1 0 1 1 0,2 1,1 0 0 1 0,-2 z" />
</svg>
