<?xml version="1.0" encoding="UTF-8" standalone="no"?>
<svg
   xmlns:osb="http://www.openswatchbook.org/uri/2009/osb"
   xmlns:dc="http://purl.org/dc/elements/1.1/"
   xmlns:cc="http://creativecommons.org/ns#"
   xmlns:rdf="http://www.w3.org/1999/02/22-rdf-syntax-ns#"
   xmlns:svg="http://www.w3.org/2000/svg"
   xmlns="http://www.w3.org/2000/svg"
   width="16"
   version="1.1"
   style="enable-background:new"
   id="svg7384"
   height="16">
  <metadata
     id="metadata90">
    <rdf:RDF>
      <cc:Work
         rdf:about="">
        <dc:format>image/svg+xml</dc:format>
        <dc:type
           rdf:resource="http://purl.org/dc/dcmitype/StillImage" />
        <dc:title>Moka Symbolic Icon Theme</dc:title>
      </cc:Work>
    </rdf:RDF>
  </metadata>
  <title
     id="title8473">Moka Symbolic Icon Theme</title>
  <defs
     id="defs7386">
    <linearGradient
       osb:paint="solid"
       id="linearGradient5606">
      <stop
         style="stop-color:#000000;stop-opacity:1;"
         offset="0"
         id="stop5608" />
    </linearGradient>
    <filter
       style="color-interpolation-filters:sRGB"
       id="filter7554">
      <feBlend
         mode="darken"
         in2="BackgroundImage"
         id="feBlend7556" />
    </filter>
  </defs>
  <g
     transform="translate(-383.00012,116.03456)"
     style="display:inline"
     id="layer9" />
  <g
     transform="translate(-383.00012,116.03456)"
     style="display:inline;filter:url(#filter7554)"
     id="layer10">
    <path
       style="color:#bebebe;display:inline;overflow:visible;visibility:visible;fill:#bebebe;fill-opacity:1;fill-rule:nonzero;stroke:none;stroke-width:4;marker:none;enable-background:accumulate"
       id="path4018"
       d="m 386.34395,-115.00336 c -0.17828,0.0566 -0.31743,0.22106 -0.34375,0.40625 l -2,10.59375 c -5e-5,1 -5e-5,2 0,3 l 14,0 c -5e-5,-1 -5e-5,-2 0,-3 l -2,-10.59375 c -0.0437,-0.2292 -0.2667,-0.41036 -0.5,-0.40625 l -9,0 c -0.0311,-0.003 -0.0626,-0.003 -0.0937,0 -0.0208,-0.001 -0.0417,-0.001 -0.0625,0 z m 0.5625,1 8.1875,0 1.78125,10 -11.75,0 1.78125,-10 z m 4.09375,0.84375 c -0.82843,0 -1.5,0.43305 -1.5,0.96875 0,0.42409 0.41359,0.77444 1,0.90625 l 0,0.375 0,0.21875 0,0.3125 -2.3125,1.1875 -0.1875,0.0625 0,0.15625 0,0.34375 -0.5,0 0,1.28125 2,0 0,-1.28125 -0.5,0 0,-0.1875 1.5,-0.78125 0,2.90625 -1,0 1.5,1.9375 1.5,-1.9375 -1,0 0,-3.53125 1.5,0.75 0,0.28125 c -0.292,0.11291 -0.5,0.32649 -0.5,0.5625 0,0.35713 0.44772,0.65625 1,0.65625 0.55228,0 1,-0.29912 1,-0.65625 0,-0.236 -0.208,-0.44959 -0.5,-0.5625 l 0,-0.40625 0,-0.15625 -0.1875,-0.0937 -2.3125,-1.1875 0,-0.0312 0,-0.15625 0,-0.0625 c 0.58641,-0.13181 1,-0.48216 1,-0.90625 0,-0.5357 -0.67157,-0.96875 -1.5,-0.96875 z m -6,10.15625 12,0 0,1 -12,0 0,-1 z" />
  </g>
  <g
     transform="translate(-141.99992,-500.96544)"
     style="display:inline"
     id="layer1" />
  <g
     transform="translate(-383.00012,116.03456)"
     style="display:inline"
     id="layer14" />
  <g
     transform="translate(-383.00012,116.03456)"
     style="display:inline"
     id="layer15" />
  <g
     transform="translate(-383.00012,116.03456)"
     style="display:inline"
     id="g71291" />
  <g
     transform="translate(-141.99992,-350.96544)"
     style="display:inline"
     id="layer2" />
  <g
     transform="translate(-141.99992,-350.96544)"
     style="display:inline"
     id="g6058" />
  <g
     transform="translate(-383.00012,116.03456)"
     style="display:inline"
     id="layer12" />
</svg>
