<svg xmlns="http://www.w3.org/2000/svg" width="16" height="16" enable-background="new"><defs><filter id="a" color-interpolation-filters="sRGB"><feBlend mode="darken" in2="BackgroundImage"/></filter></defs><g transform="translate(-383 116.035)" filter="url(#a)"><path style="marker:none" d="M386.344-115.003a.512.512 0 0 0-.344.406l-2 10.594v3h14v-3l-2-10.594a.517.517 0 0 0-.5-.406h-9a.489.489 0 0 0-.093 0 .651.651 0 0 0-.063 0zm.562 1h8.188l1.781 10h-11.75l1.781-10zm4.094.843c-.828 0-1.5.433-1.5.97 0 .423.414.774 1 .905v.907l-2.312 1.187-.188.063v.5h-.5v1.28h2v-1.28h-.5v-.188l1.5-.781v2.906h-1l1.5 1.938 1.5-1.938h-1v-3.531l1.5.75v.281c-.292.113-.5.327-.5.563 0 .357.448.656 1 .656s1-.3 1-.656c0-.236-.208-.45-.5-.563v-.562l-.187-.094-2.313-1.188v-.25c.587-.131 1-.482 1-.906 0-.535-.671-.969-1.5-.969zm-6 10.157h12v1h-12v-1z" color="#5d656b" overflow="visible" fill="#5d656b" enable-background="accumulate"/></g></svg>