<?xml version="1.0" encoding="UTF-8" standalone="no"?>
<svg
   xmlns:osb="http://www.openswatchbook.org/uri/2009/osb"
   xmlns:dc="http://purl.org/dc/elements/1.1/"
   xmlns:cc="http://creativecommons.org/ns#"
   xmlns:rdf="http://www.w3.org/1999/02/22-rdf-syntax-ns#"
   xmlns:svg="http://www.w3.org/2000/svg"
   xmlns="http://www.w3.org/2000/svg"
   width="16"
   version="1.1"
   style="enable-background:new"
   id="svg7384"
   height="16.031197">
  <metadata
     id="metadata90">
    <rdf:RDF>
      <cc:Work
         rdf:about="">
        <dc:format>image/svg+xml</dc:format>
        <dc:type
           rdf:resource="http://purl.org/dc/dcmitype/StillImage" />
        <dc:title>Moka Symbolic Icon Theme</dc:title>
      </cc:Work>
    </rdf:RDF>
  </metadata>
  <title
     id="title8473">Moka Symbolic Icon Theme</title>
  <defs
     id="defs7386">
    <linearGradient
       osb:paint="solid"
       id="linearGradient5606">
      <stop
         style="stop-color:#000000;stop-opacity:1;"
         offset="0"
         id="stop5608" />
    </linearGradient>
    <filter
       style="color-interpolation-filters:sRGB"
       id="filter7554">
      <feBlend
         mode="darken"
         in2="BackgroundImage"
         id="feBlend7556" />
    </filter>
  </defs>
  <g
     transform="translate(-301.00021,116.03456)"
     style="display:inline"
     id="layer9" />
  <g
     transform="translate(-301.00021,116.03456)"
     style="display:inline;filter:url(#filter7554)"
     id="layer10">
    <path
       style="display:inline;fill:#bebebe;fill-opacity:1;stroke:none;enable-background:new"
       id="rect4970-7"
       d="m 304.4377,-115.00336 c -0.17828,0.0566 -0.31743,0.22106 -0.34375,0.40625 l -2.09381,3.59375 5e-5,0 c -5e-5,1 -5e-5,2 0,3 l 14.00001,0 c -5e-5,-1 -5e-5,-2 0,-3 l -5e-5,0 -1.9061,-3.59375 c -0.0437,-0.22921 -0.2667,-0.41037 -0.5,-0.40625 l -9,0 c -0.0311,-0.003 -0.0626,-0.003 -0.0937,0 -0.0208,-0.001 -0.0417,-0.001 -0.0625,0 z m 0.5625,1 8.18751,0 1.68744,3 -11.75001,0 z m -2.00006,4 12.00001,0 0,1 -12.00001,0 z" />
    <path
       style="fill:#bebebe;fill-opacity:1;stroke:none"
       id="path5012"
       d="m 302.0002,-100.00336 14,0 0,-3 -14,0 z m 1,-2 12,0 0,1 -12,0 z" />
    <path
       style="fill:#bebebe;fill-opacity:1;stroke:none"
       id="path5017"
       d="m 302.0002,-104.00336 14,0 0,-3 -14,0 z m 1,-2 12,0 0,1 -12,0 z" />
  </g>
  <g
     transform="translate(-60.000014,-500.96544)"
     style="display:inline"
     id="layer1" />
  <g
     transform="translate(-301.00021,116.03456)"
     style="display:inline"
     id="layer14" />
  <g
     transform="translate(-301.00021,116.03456)"
     style="display:inline"
     id="layer15" />
  <g
     transform="translate(-301.00021,116.03456)"
     style="display:inline"
     id="g71291" />
  <g
     transform="translate(-60.000014,-350.96544)"
     style="display:inline"
     id="layer2" />
  <g
     transform="translate(-60.000014,-350.96544)"
     style="display:inline"
     id="g6058" />
  <g
     transform="translate(-301.00021,116.03456)"
     style="display:inline"
     id="layer12" />
</svg>
