<svg height="16.007" width="16" xmlns="http://www.w3.org/2000/svg"><g color="#000" fill="#5d656b" font-family="sans-serif" font-weight="400"><path d="M2.48.007s-.34.009-.69.197a1.564 1.564 0 0 0-.788 1.27l-1 11.992a.5.5 0 0 0 .023.2l.5 1.5-.018-.077c.036.219.123.433.29.611a.987.987 0 0 0 .702.307h13a.987.987 0 0 0 .703-.307c.166-.178.255-.392.291-.611l-.019.076.5-1.5a.5.5 0 0 0 .023-.199l-1-11.992c-.043-.676-.434-1.137-.804-1.317-.372-.18-.727-.148-.727-.148L13.5.007h-11a.5.5 0 0 0-.02 0zm11.055.998s.11-.002.223.053c.112.054.22.094.244.48a.5.5 0 0 0 0 .01l.992 11.899-.469 1.402a.5.5 0 0 0-.018.076c-.01.048-.027.073-.033.082H1.525c-.01-.01-.023-.034-.03-.082a.5.5 0 0 0-.02-.076l-.467-1.402.99-11.899a.5.5 0 0 0 0-.008c.023-.322.13-.382.262-.453.132-.07.258-.08.258-.08H13.5a.5.5 0 0 0 .035-.002z" fill-rule="evenodd" overflow="visible" style="line-height:normal;font-variant-ligatures:normal;font-variant-position:normal;font-variant-caps:normal;font-variant-numeric:normal;font-variant-alternates:normal;font-feature-settings:normal;text-indent:0;text-align:start;text-decoration-line:none;text-decoration-style:solid;text-decoration-color:#000;text-transform:none;text-orientation:mixed;shape-padding:0;isolation:auto;mix-blend-mode:normal"/><path d="M1 13.007v2h14v-2z" fill-rule="evenodd" overflow="visible" style="line-height:normal;font-variant-ligatures:normal;font-variant-position:normal;font-variant-caps:normal;font-variant-numeric:normal;font-variant-alternates:normal;font-feature-settings:normal;text-indent:0;text-align:start;text-decoration-line:none;text-decoration-style:solid;text-decoration-color:#000;text-transform:none;text-orientation:mixed;shape-padding:0;isolation:auto;mix-blend-mode:normal"/><path d="M8 4.092L5 7.007v.416h6v-.416zM5 8.259v.833h6v-.833z" overflow="visible" style="line-height:normal;font-variant-ligatures:normal;font-variant-position:normal;font-variant-caps:normal;font-variant-numeric:normal;font-variant-alternates:normal;font-feature-settings:normal;text-indent:0;text-align:start;text-decoration-line:none;text-decoration-style:solid;text-decoration-color:#000;text-transform:none;text-orientation:mixed;shape-padding:0;isolation:auto;mix-blend-mode:normal"/></g></svg>