<?xml version="1.0" encoding="UTF-8" standalone="no"?>
<svg
   xmlns:osb="http://www.openswatchbook.org/uri/2009/osb"
   xmlns:dc="http://purl.org/dc/elements/1.1/"
   xmlns:cc="http://creativecommons.org/ns#"
   xmlns:rdf="http://www.w3.org/1999/02/22-rdf-syntax-ns#"
   xmlns:svg="http://www.w3.org/2000/svg"
   xmlns="http://www.w3.org/2000/svg"
   height="16"
   id="svg7384"
   style="enable-background:new"
   version="1.1"
   width="16">
  <metadata
     id="metadata90">
    <rdf:RDF>
      <cc:Work
         rdf:about="">
        <dc:format>image/svg+xml</dc:format>
        <dc:type
           rdf:resource="http://purl.org/dc/dcmitype/StillImage" />
        <dc:title>Moka Symbolic Icon Theme</dc:title>
      </cc:Work>
    </rdf:RDF>
  </metadata>
  <title
     id="title8473">Moka Symbolic Icon Theme</title>
  <defs
     id="defs7386">
    <linearGradient
       id="linearGradient5606"
       osb:paint="solid">
      <stop
         id="stop5608"
         offset="0"
         style="stop-color:#000000;stop-opacity:1;" />
    </linearGradient>
    <filter
       id="filter7554"
       style="color-interpolation-filters:sRGB">
      <feBlend
         id="feBlend7556"
         in2="BackgroundImage"
         mode="darken" />
    </filter>
  </defs>
  <g
     id="layer9"
     style="display:inline"
     transform="translate(-321.0002,116.00336)" />
  <g
     id="layer10"
     style="display:inline;filter:url(#filter7554)"
     transform="translate(-321.0002,116.00336)">
    <path
       d="m 329,-115.00391 c -3.8423,0 -7,3.1577 -7,7 0,3.84231 3.1577,7 7,7 3.8423,0 7,-3.15769 7,-7 0,-3.8423 -3.1577,-7 -7,-7 z m 0,4 c 1.68054,0 3,1.31946 3,3 0,1.68055 -1.31946,3 -3,3 -1.68054,0 -3,-1.31945 -3,-3 0,-1.68054 1.31946,-3 3,-3 z"
       id="path39797"
       style="color:#bebebe;font-style:normal;font-variant:normal;font-weight:normal;font-stretch:normal;font-size:medium;line-height:normal;font-family:sans-serif;text-indent:0;text-align:start;text-decoration:none;text-decoration-line:none;text-decoration-style:solid;text-decoration-color:#000000;letter-spacing:normal;word-spacing:normal;text-transform:none;direction:ltr;block-progression:tb;writing-mode:lr-tb;baseline-shift:baseline;text-anchor:start;white-space:normal;clip-rule:nonzero;display:inline;overflow:visible;visibility:visible;opacity:1;isolation:auto;mix-blend-mode:normal;color-interpolation:sRGB;color-interpolation-filters:linearRGB;solid-color:#000000;solid-opacity:1;fill:#bebebe;fill-opacity:1;fill-rule:nonzero;stroke:none;stroke-width:4;stroke-linecap:butt;stroke-linejoin:miter;stroke-miterlimit:4;stroke-dasharray:none;stroke-dashoffset:0;stroke-opacity:1;marker:none;color-rendering:auto;image-rendering:auto;shape-rendering:auto;text-rendering:auto;enable-background:accumulate" />
    <path
       d="m 329,-110.00391 c -1.09865,0 -2,0.90136 -2,2 0,1.09865 0.90135,2 2,2 1.09865,0 2,-0.90135 2,-2 0,-1.09864 -0.90135,-2 -2,-2 z m 0,1 c 0.55821,0 1,0.4418 1,1 0,0.55821 -0.44179,1 -1,1 -0.55821,0 -1,-0.44179 -1,-1 0,-0.5582 0.44179,-1 1,-1 z"
       id="path40342"
       style="color:#bebebe;font-style:normal;font-variant:normal;font-weight:normal;font-stretch:normal;font-size:medium;line-height:normal;font-family:sans-serif;text-indent:0;text-align:start;text-decoration:none;text-decoration-line:none;text-decoration-style:solid;text-decoration-color:#000000;letter-spacing:normal;word-spacing:normal;text-transform:none;direction:ltr;block-progression:tb;writing-mode:lr-tb;baseline-shift:baseline;text-anchor:start;white-space:normal;clip-rule:nonzero;display:inline;overflow:visible;visibility:visible;opacity:1;isolation:auto;mix-blend-mode:normal;color-interpolation:sRGB;color-interpolation-filters:linearRGB;solid-color:#000000;solid-opacity:1;fill:#bebebe;fill-opacity:1;fill-rule:nonzero;stroke:none;stroke-width:1;stroke-linecap:butt;stroke-linejoin:miter;stroke-miterlimit:4;stroke-dasharray:none;stroke-dashoffset:0;stroke-opacity:1;marker:none;color-rendering:auto;image-rendering:auto;shape-rendering:auto;text-rendering:auto;enable-background:accumulate" />
  </g>
  <g
     id="layer1"
     style="display:inline"
     transform="translate(-80,-500.99664)" />
  <g
     id="layer14"
     style="display:inline"
     transform="translate(-321.0002,116.00336)" />
  <g
     id="layer15"
     style="display:inline"
     transform="translate(-321.0002,116.00336)" />
  <g
     id="g71291"
     style="display:inline"
     transform="translate(-321.0002,116.00336)" />
  <g
     id="layer2"
     style="display:inline"
     transform="translate(-80,-350.99664)" />
  <g
     id="g6058"
     style="display:inline"
     transform="translate(-80,-350.99664)" />
  <g
     id="layer12"
     style="display:inline"
     transform="translate(-321.0002,116.00336)" />
</svg>
