<svg xmlns="http://www.w3.org/2000/svg" width="16" height="16" enable-background="new"><defs><filter id="a" color-interpolation-filters="sRGB"><feBlend mode="darken" in2="BackgroundImage"/></filter></defs><g transform="translate(-441 156.003)" filter="url(#a)"><path style="marker:none" d="M446-155.003c-.554 0-1 .446-1 1v12c0 .554.446 1 1 1h6c.554 0 1-.446 1-1v-12c0-.554-.446-1-1-1zm0 1h6v7h-6zm1 8h1v1h1v-1h1v1h1v-1h1v1h-1v1h1v1h-1v1h-1v-1h-1v1h-1v-1h-1v1h-1v-1h1v-1h-1v-1h1zm0 1v1h1v-1zm1 1v1h1v-1zm1 0h1v-1h-1zm1 0v1h1v-1z" color="#000" overflow="visible" fill="#5d656b" enable-background="new"/></g></svg>