<?xml version="1.0" encoding="UTF-8" standalone="no"?>
<svg
   xmlns:osb="http://www.openswatchbook.org/uri/2009/osb"
   xmlns:dc="http://purl.org/dc/elements/1.1/"
   xmlns:cc="http://creativecommons.org/ns#"
   xmlns:rdf="http://www.w3.org/1999/02/22-rdf-syntax-ns#"
   xmlns:svg="http://www.w3.org/2000/svg"
   xmlns="http://www.w3.org/2000/svg"
   width="16"
   version="1.1"
   style="enable-background:new"
   id="svg7384"
   height="16">
  <metadata
     id="metadata90">
    <rdf:RDF>
      <cc:Work
         rdf:about="">
        <dc:format>image/svg+xml</dc:format>
        <dc:type
           rdf:resource="http://purl.org/dc/dcmitype/StillImage" />
        <dc:title>Moka Symbolic Icon Theme</dc:title>
      </cc:Work>
    </rdf:RDF>
  </metadata>
  <title
     id="title8473">Moka Symbolic Icon Theme</title>
  <defs
     id="defs7386">
    <linearGradient
       osb:paint="solid"
       id="linearGradient5606">
      <stop
         style="stop-color:#000000;stop-opacity:1;"
         offset="0"
         id="stop5608" />
    </linearGradient>
    <filter
       style="color-interpolation-filters:sRGB"
       id="filter7554">
      <feBlend
         mode="darken"
         in2="BackgroundImage"
         id="feBlend7556" />
    </filter>
  </defs>
  <g
     transform="translate(-400.99878,156.00336)"
     style="display:inline"
     id="layer9" />
  <g
     transform="translate(-400.99878,156.00336)"
     style="display:inline;filter:url(#filter7554)"
     id="layer10">
    <path
       style="color:#000000;display:inline;overflow:visible;visibility:visible;fill:#bebebe;fill-opacity:1;fill-rule:nonzero;stroke:none;stroke-width:4;marker:none;enable-background:accumulate"
       id="path5113"
       d="m 403.99876,-155.00336 10e-4,5 -1,0 c -1,0 -1,1 -1,1 l -4.4e-4,3 14,0 4.4e-4,-3 c 0,0 0.108,-1 -1,-1 l -1,0 -10e-4,-5 z m 1,1 8,0 10e-4,4 -8,0 z m -0.99712,5 1,0 0,1 -1,0 z" />
    <path
       style="color:#000000;display:inline;overflow:visible;visibility:visible;fill:#bebebe;fill-opacity:1;fill-rule:evenodd;stroke:none;stroke-width:2;marker:none;enable-background:accumulate"
       id="path7472-5"
       d="m 402.0002,-145.00336 0,2 c 0,1 1,1 1,1 l 5,0 0,2 2,0 0,-2 5,0 c 0,0 1,0 1,-1 l 0,-2 z m 1,1 3,0 0,1 -3,0 z" />
  </g>
  <g
     transform="translate(-159.99858,-460.99664)"
     style="display:inline"
     id="layer1" />
  <g
     transform="translate(-400.99878,156.00336)"
     style="display:inline"
     id="layer14" />
  <g
     transform="translate(-400.99878,156.00336)"
     style="display:inline"
     id="layer15" />
  <g
     transform="translate(-400.99878,156.00336)"
     style="display:inline"
     id="g71291" />
  <g
     transform="translate(-159.99858,-310.99664)"
     style="display:inline"
     id="layer2" />
  <g
     transform="translate(-159.99858,-310.99664)"
     style="display:inline"
     id="g6058" />
  <g
     transform="translate(-400.99878,156.00336)"
     style="display:inline"
     id="layer12" />
</svg>
