<?xml version="1.0" encoding="UTF-8" standalone="no"?>
<svg
   xmlns:osb="http://www.openswatchbook.org/uri/2009/osb"
   xmlns:dc="http://purl.org/dc/elements/1.1/"
   xmlns:cc="http://creativecommons.org/ns#"
   xmlns:rdf="http://www.w3.org/1999/02/22-rdf-syntax-ns#"
   xmlns:svg="http://www.w3.org/2000/svg"
   xmlns="http://www.w3.org/2000/svg"
   width="16"
   version="1.1"
   style="enable-background:new"
   id="svg7384"
   height="16.002222">
  <metadata
     id="metadata90">
    <rdf:RDF>
      <cc:Work
         rdf:about="">
        <dc:format>image/svg+xml</dc:format>
        <dc:type
           rdf:resource="http://purl.org/dc/dcmitype/StillImage" />
        <dc:title>Moka Symbolic Icon Theme</dc:title>
      </cc:Work>
    </rdf:RDF>
  </metadata>
  <title
     id="title8473">Moka Symbolic Icon Theme</title>
  <defs
     id="defs7386">
    <linearGradient
       osb:paint="solid"
       id="linearGradient5606">
      <stop
         style="stop-color:#000000;stop-opacity:1;"
         offset="0"
         id="stop5608" />
    </linearGradient>
    <filter
       style="color-interpolation-filters:sRGB"
       id="filter7554">
      <feBlend
         mode="darken"
         in2="BackgroundImage"
         id="feBlend7556" />
    </filter>
  </defs>
  <g
     transform="translate(-501.00046,156.00556)"
     style="display:inline"
     id="layer9" />
  <g
     transform="translate(-501.00046,156.00556)"
     style="display:inline;filter:url(#filter7554)"
     id="layer10">
    <path
       style="fill:#bebebe;fill-opacity:1;stroke:none"
       id="rect6035"
       d="m 502.34395,-156.00336 a 0.50005,0.50005 0 0 0 -0.3125,0.65625 l 1.96875,5.875 -1,6.40625 0,0.0312 0,0.0312 0,2.5 0,0.5 12,0 0,-3 0,-0.0312 0,-0.0312 -1,-6.4375 1.71875,-5.875 a 0.50005,0.50005 0 0 0 -0.46875,-0.625 l -12.75,0 a 0.50005,0.50005 0 0 0 -0.0937,0 0.50005,0.50005 0 0 0 -0.0625,0 z m 0.84375,1 11.40625,0 -1.46875,5 -8.28125,0 -1.65625,-5 z m 1.75,6 8.125,0 0.9375,6 -10,0 0.9375,-6 z m -0.9375,7 1,0 0,1 -1,0 0,-1 z" />
    <path
       style="color:#000000;font-style:normal;font-variant:normal;font-weight:normal;font-stretch:normal;font-size:medium;line-height:normal;font-family:Sans;-inkscape-font-specification:Sans;text-indent:0;text-align:start;text-decoration:none;text-decoration-line:none;letter-spacing:normal;word-spacing:normal;text-transform:none;direction:ltr;block-progression:tb;writing-mode:lr-tb;baseline-shift:baseline;text-anchor:start;display:inline;overflow:visible;visibility:visible;fill:#bebebe;fill-opacity:1;stroke:none;stroke-width:1px;marker:none;enable-background:accumulate"
       id="path6048"
       d="m 512.46895,-145.84711 -7.1875,1.8125 0,0.0312 7.4375,0 -0.25,-1.84375 z" />
    <path
       style="color:#000000;font-style:normal;font-variant:normal;font-weight:normal;font-stretch:normal;font-size:medium;line-height:normal;font-family:Sans;-inkscape-font-specification:Sans;text-indent:0;text-align:start;text-decoration:none;text-decoration-line:none;letter-spacing:normal;word-spacing:normal;text-transform:none;direction:ltr;block-progression:tb;writing-mode:lr-tb;baseline-shift:baseline;text-anchor:start;display:inline;overflow:visible;visibility:visible;opacity:0.35;fill:#bebebe;fill-opacity:1;stroke:none;stroke-width:1px;marker:none;enable-background:accumulate"
       id="path6074"
       d="m 505.8127,-148.00336 -0.375,2.875 6.90625,-1.75 -0.15625,-1.125 z" />
    <path
       style="color:#000000;font-style:normal;font-variant:normal;font-weight:normal;font-stretch:normal;font-size:medium;line-height:normal;font-family:Sans;-inkscape-font-specification:Sans;text-indent:0;text-align:start;text-decoration:none;text-decoration-line:none;letter-spacing:normal;word-spacing:normal;text-transform:none;direction:ltr;block-progression:tb;writing-mode:lr-tb;baseline-shift:baseline;text-anchor:start;display:inline;overflow:visible;visibility:visible;opacity:0.35;fill:#bebebe;fill-opacity:1;stroke:none;stroke-width:1px;marker:none;enable-background:accumulate"
       id="path6076"
       d="m 504.5627,-154.00336 1,3 6.8125,0 0.875,-3 -8.6875,0 z" />
  </g>
  <g
     transform="translate(-260.00026,-460.99444)"
     style="display:inline"
     id="layer1" />
  <g
     transform="translate(-501.00046,156.00556)"
     style="display:inline"
     id="layer14" />
  <g
     transform="translate(-501.00046,156.00556)"
     style="display:inline"
     id="layer15" />
  <g
     transform="translate(-501.00046,156.00556)"
     style="display:inline"
     id="g71291" />
  <g
     transform="translate(-260.00026,-310.99444)"
     style="display:inline"
     id="layer2" />
  <g
     transform="translate(-260.00026,-310.99444)"
     style="display:inline"
     id="g6058" />
  <g
     transform="translate(-501.00046,156.00556)"
     style="display:inline"
     id="layer12" />
</svg>
