<?xml version="1.0" encoding="UTF-8" standalone="no"?>
<!-- Created with Inkscape (http://www.inkscape.org/) -->

<svg
   xmlns:osb="http://www.openswatchbook.org/uri/2009/osb"
   xmlns:dc="http://purl.org/dc/elements/1.1/"
   xmlns:cc="http://creativecommons.org/ns#"
   xmlns:rdf="http://www.w3.org/1999/02/22-rdf-syntax-ns#"
   xmlns:svg="http://www.w3.org/2000/svg"
   xmlns="http://www.w3.org/2000/svg"
   xmlns:sodipodi="http://sodipodi.sourceforge.net/DTD/sodipodi-0.dtd"
   xmlns:inkscape="http://www.inkscape.org/namespaces/inkscape"
   sodipodi:docname="caffeine-cup-full.svg"
   height="24"
   id="svg6530"
   version="1.1"
   inkscape:version="0.92.4 (5da689c313, 2019-01-14)"
   viewBox="0 0 24 24"
   width="24">
  <defs
     id="defs6532">
    <linearGradient
       id="linearGradient5606"
       osb:paint="solid">
      <stop
         id="stop5608"
         offset="0"
         style="stop-color:#000000;stop-opacity:1;" />
    </linearGradient>
  </defs>
  <sodipodi:namedview
     inkscape:bbox-nodes="true"
     bordercolor="#666666"
     borderopacity="1.0"
     inkscape:current-layer="layer3"
     inkscape:cx="3.2030913"
     inkscape:cy="13.753528"
     inkscape:document-units="px"
     inkscape:guide-bbox="true"
     id="base"
     inkscape:object-nodes="true"
     inkscape:object-paths="true"
     pagecolor="#727272"
     inkscape:pageopacity="0"
     inkscape:pageshadow="2"
     showgrid="true"
     showguides="true"
     inkscape:snap-bbox="true"
     inkscape:snap-bbox-edge-midpoints="true"
     inkscape:snap-bbox-midpoints="true"
     inkscape:snap-smooth-nodes="true"
     units="px"
     inkscape:window-height="704"
     inkscape:window-maximized="1"
     inkscape:window-width="1366"
     inkscape:window-x="0"
     inkscape:window-y="34"
     inkscape:zoom="11.313708">
    <inkscape:grid
       empspacing="4"
       id="grid8845"
       originx="-564"
       originy="-76.001587"
       type="xygrid" />
  </sodipodi:namedview>
  <metadata
     id="metadata6535">
    <rdf:RDF>
      <cc:Work
         rdf:about="">
        <dc:format>image/svg+xml</dc:format>
        <dc:type
           rdf:resource="http://purl.org/dc/dcmitype/StillImage" />
        <dc:title />
      </cc:Work>
    </rdf:RDF>
  </metadata>
  <g
     inkscape:groupmode="layer"
     id="layer3"
     inkscape:label="apps"
     transform="translate(-564,-499.99841)">
    <g
       id="g841"
       transform="translate(-1.87697,-1.996843)">
      <path
         inkscape:connector-curvature="0"
         id="path4274"
         d="m 571.87697,512.99684 v 3 c 0,3 2,5 5,5 h 2 c 3,0 4.75978,-1.56569 4.95898,-4 h 0.54102 c 1.5,0 1.5,-1.5 1.5,-1.5 v -1 c 0,-1.5 -1.5,-1.5 -1.5,-1.5 h -0.5 z m 1,1 h 10 v 2 c 0,2.216 -1.784,4 -4,4 h -2 c -2.216,0 -4,-1.784 -4,-4 z m 11.5,0 c 0.5,-0.0323 0.51562,0.53125 0.51562,0.53125 v 1 c 0,0.46875 -0.51562,0.46875 -0.51562,0.46875 h -0.5 l 0.01,-1.98437 z"
         style="color:#000000;fill:#bebebe;fill-opacity:1;stroke:none" />
      <path
         style="color:#000000;opacity:1;fill:#bebebe;fill-opacity:1;stroke:none"
         sodipodi:nodetypes="cscsc"
         id="path4276"
         d="m 578.07029,505.99648 c -1.0982,1.38422 -1.4282,2.06599 -1.0321,2.94706 0.3591,0.79867 1.2876,1.20591 0.821,3.05294 0.7664,-0.89992 1.3758,-2.04275 0.774,-2.9647 -0.6122,-0.9377 -0.9479,-1.5073 -0.5629,-3.0353 z"
         inkscape:connector-curvature="0" />
      <path
         style="color:#000000;opacity:1;fill:#bebebe;fill-opacity:1;stroke:none"
         sodipodi:nodetypes="cscsc"
         id="path4278"
         d="m 575.07029,505.99648 c -1.0982,1.38422 -1.4282,2.06599 -1.0321,2.94706 0.3591,0.79867 1.2876,1.20591 0.821,3.05294 0.7664,-0.89992 1.3758,-2.04275 0.774,-2.9647 -0.6122,-0.9377 -0.9479,-1.5073 -0.5629,-3.0353 z"
         inkscape:connector-curvature="0" />
      <path
         style="color:#000000;opacity:1;fill:#bebebe;fill-opacity:1;stroke:none"
         sodipodi:nodetypes="cscsc"
         id="path4280"
         d="m 581.07029,505.99648 c -1.0982,1.38422 -1.4282,2.06599 -1.0321,2.94706 0.3591,0.79867 1.2876,1.20591 0.821,3.05294 0.7664,-0.89992 1.3758,-2.04275 0.774,-2.9647 -0.6122,-0.9377 -0.9479,-1.5073 -0.5629,-3.0353 z"
         inkscape:connector-curvature="0" />
      <path
         inkscape:connector-curvature="0"
         id="rect834"
         d="m 573.87697,514.99684 v 1 c 0,1.662 1.338,3 3,3 h 2 c 1.662,0 3,-1.338 3,-3 v -1 z"
         style="opacity:1;fill:#bebebe;fill-opacity:1;fill-rule:evenodd;stroke:none;stroke-width:2;stroke-linecap:square;stroke-linejoin:miter;stroke-miterlimit:4;stroke-dasharray:none;stroke-opacity:1;paint-order:fill markers stroke" />
    </g>
  </g>
  <g
     inkscape:groupmode="layer"
     id="layer1"
     inkscape:label="panel"
     style="display:inline"
     transform="translate(-564,-952.36057)" />
  <g
     inkscape:groupmode="layer"
     id="layer2"
     inkscape:label="animations"
     transform="translate(-564,-499.99841)" />
</svg>
