<?xml version="1.0" encoding="UTF-8" standalone="no"?>
<svg
   xmlns:dc="http://purl.org/dc/elements/1.1/"
   xmlns:cc="http://creativecommons.org/ns#"
   xmlns:rdf="http://www.w3.org/1999/02/22-rdf-syntax-ns#"
   xmlns:svg="http://www.w3.org/2000/svg"
   xmlns="http://www.w3.org/2000/svg"
   xmlns:sodipodi="http://sodipodi.sourceforge.net/DTD/sodipodi-0.dtd"
   xmlns:inkscape="http://www.inkscape.org/namespaces/inkscape"
   width="24"
   height="24"
   version="1.1"
   id="svg7"
   sodipodi:docname="fcitx-panel.svg"
   inkscape:version="0.92.4 (5da689c313, 2019-01-14)">
  <metadata
     id="metadata11">
    <rdf:RDF>
      <cc:Work
         rdf:about="">
        <dc:format>image/svg+xml</dc:format>
        <dc:type
           rdf:resource="http://purl.org/dc/dcmitype/StillImage" />
      </cc:Work>
    </rdf:RDF>
  </metadata>
  <sodipodi:namedview
     pagecolor="#ffffff"
     bordercolor="#666666"
     borderopacity="1"
     objecttolerance="10"
     gridtolerance="10"
     guidetolerance="10"
     inkscape:pageopacity="0"
     inkscape:pageshadow="2"
     inkscape:window-width="1366"
     inkscape:window-height="711"
     id="namedview9"
     showgrid="false"
     inkscape:zoom="9.8333333"
     inkscape:cx="-1.5254237"
     inkscape:cy="12"
     inkscape:window-x="0"
     inkscape:window-y="27"
     inkscape:window-maximized="1"
     inkscape:current-layer="svg7" />
  <defs
     id="defs3">
    <style
       id="current-color-scheme"
       type="text/css">
   .ColorScheme-Text { color:#dfdfdf; } .ColorScheme-Highlight { color:#5294e2; }
  </style>
  </defs>
  <path
     id="path2"
     style="color:#000000;overflow:visible;fill:#dddddd;fill-opacity:1;marker:none"
     overflow="visible"
     d="M 7,5 C 5.892,5 5,5.892 5,7 v 10 c 0,1.108 0.892,2 2,2 h 10 c 1.108,0 2,-0.892 2,-2 V 7 C 19,5.892 18.108,5 17,5 Z m 0,1 h 10 c 0.554,0 1,0.446 1,1 v 9 c 0,0.554 -0.446,1 -1,1 H 7 C 6.446,17 6,16.554 6,16 V 7 C 6,6.446 6.446,6 7,6 Z m 6.656,3.994 c -0.79,0 -1.548,0.257 -2.28,0.75 l 0.374,0.85 c 0.312,-0.21 0.616,-0.36 0.906,-0.469 0.298,-0.116 0.571,-0.156 0.876,-0.156 0.449,0 0.791,0.104 1.03,0.344 0.24,0.232 0.438,0.548 0.438,0.968 v 0.307 C 14.79,12.508 14.48,12.444 14.219,12.4 a 4.015,4.015 0 0 0 -0.781,-0.062 c -0.356,0 -0.672,0.038 -0.969,0.125 -0.29,0.087 -0.564,0.215 -0.781,0.375 -0.21,0.16 -0.353,0.345 -0.469,0.562 -0.116,0.218 -0.188,0.55 -0.188,0.819 0,0.254 0.063,0.501 0.157,0.719 0.101,0.217 0.208,0.402 0.375,0.562 0.174,0.16 0.393,0.28 0.625,0.375 0.239,0.087 0.505,0.125 0.781,0.125 0.428,0 0.818,-0.076 1.188,-0.25 0.377,-0.181 0.683,-0.448 0.937,-0.781 l 0.031,0.344 a 0.743,0.743 0 0 0 0.219,0.437 c 0.123,0.109 0.299,0.173 0.531,0.188 0.08,0 0.187,0.006 0.281,0 0.102,-0.008 0.197,-0.01 0.313,-0.032 V 14.875 C 16.345,14.868 16.165,14.839 16.115,14.781 A 0.497,0.497 0 0 1 16,14.469 v -2.131 c 0,-0.747 -0.096,-1.32 -0.531,-1.719 -0.435,-0.399 -1.03,-0.625 -1.813,-0.625 z m -0.09,3.07 c 0.218,0 0.608,0.05 0.833,0.094 0.232,0.044 0.398,0.106 0.601,0.186 v 0.75 c 0,0.145 -0.129,0.307 -0.281,0.437 -0.427,0.38 -0.94,0.43 -1.438,0.469 -0.326,0 -0.734,0.018 -0.944,-0.171 C 12.127,14.633 12,14.408 12,14.125 c 0,-0.305 0.295,-0.569 0.563,-0.75 a 1.67,1.67 0 0 1 1.004,-0.31 z"
     inkscape:connector-curvature="0" />
</svg>
