<svg width="24" height="24" version="1.1" xmlns="http://www.w3.org/2000/svg">
 <path class="warning" d="m20 17.5a1.5 1.5 0 0 1-1.5 1.5 1.5 1.5 0 0 1-1.5-1.5 1.5 1.5 0 0 1 1.5-1.5 1.5 1.5 0 0 1 1.5 1.5z" fill="#5294e2"/>
 <g transform="translate(4 -2)" fill="#d3dae3">
  <path d="m8 10c0.55228 0 1 0.44772 1 1s-0.44772 1-1 1-1-0.44772-1-1 0.44772-1 1-1zm-2 3h3v5h-2v-4h-1z"/>
  <path d="m8 7-6 2c0 3.9895-0.017497 6.0713 0.70898 7.6543 0.72698 1.5834 2.2176 2.6261 5.291 4.3457 3.0734-1.7196 4.564-2.7618 5.291-4.3457 0.72648-1.583 0.70948-3.6653 0.70898-7.6543zm0 1 5 1.7148c4.17e-4 3.4192 0.01556 5.2037-0.58984 6.5605-0.60582 1.3577-1.849 2.2507-4.4102 3.7246-2.5612-1.4739-3.8043-2.3674-4.4102-3.7246-0.6054-1.3568-0.58984-3.141-0.58984-6.5605z" color="#000000" solid-color="#000000" stroke-width=".4913" style="isolation:auto;mix-blend-mode:normal"/>
 </g>
</svg>
