<svg width="24" height="24" version="1.1" xmlns="http://www.w3.org/2000/svg">
 <defs>
  <style id="current-color-scheme" type="text/css">
   .ColorScheme-Text { color:#d3dae3; } .ColorScheme-Highlight { color:#4285f4; }
  </style>
 </defs>
 <g transform="translate(4 4)" style="fill:currentColor" class="ColorScheme-Text">
  <path d="m7 5h2v3h2l-3 4-3-4h2z"/>
  <path d="m8 1-6 2c0 3.9895-0.017497 6.0713 0.70898 7.6543 0.72698 1.5834 2.2176 2.6261 5.291 4.3457 3.0734-1.7196 4.564-2.7618 5.291-4.3457 0.72648-1.583 0.70948-3.6653 0.70898-7.6543zm0 1 5 1.7148c4.17e-4 3.4192 0.01556 5.2037-0.58984 6.5605-0.60582 1.3577-1.849 2.2507-4.4102 3.7246-2.5612-1.4739-3.8043-2.3674-4.4102-3.7246-0.6054-1.3568-0.58984-3.141-0.58984-6.5605z"/>
 </g>
</svg>
