<svg width="24" height="24" version="1.1" xmlns="http://www.w3.org/2000/svg">
 <defs>
  <style id="current-color-scheme" type="text/css">
   .ColorScheme-Text { color:#d3dae3; } .ColorScheme-Highlight { color:#4285f4; }
  </style>
 </defs>
 <g transform="translate(4 -2)">
  <path d="m8 11c0.84039 0.0013 1.6417 0.35494 2.209 0.975l0.789-0.457-0.178 1.474 4e-3 8e-3h-4e-3l-0.121 1-2.299-0.982 0.909-0.526c-0.36292-0.31617-0.82768-0.49086-1.309-0.492-0.7138 7.32e-4 -1.3731 0.38183-1.73 1h-1.097c0.42361-1.1981 1.5562-1.9994 2.827-2zm-2.701 3.018 2.299 0.982-0.897 0.518c0.36174 0.31031 0.8224 0.48124 1.299 0.482 0.7138-7.32e-4 1.3731-0.38183 1.73-1h1.096c-0.42349 1.1978-1.5555 1.999-2.826 2-0.83446-0.001143-1.6307-0.35014-2.197-0.963l-0.803 0.463 0.18-1.49-4e-3 -0.01h4e-3z" style="fill:currentColor" class="ColorScheme-Text"/>
  <path d="m8 7-6 2c0 3.9895-0.017497 6.0713 0.70898 7.6543 0.72698 1.5834 2.2176 2.6261 5.291 4.3457 3.0734-1.7196 4.564-2.7618 5.291-4.3457 0.72648-1.583 0.70948-3.6653 0.70898-7.6543zm0 1 5 1.7148c4.17e-4 3.4192 0.01556 5.2037-0.58984 6.5605-0.60582 1.3577-1.849 2.2507-4.4102 3.7246-2.5612-1.4739-3.8043-2.3674-4.4102-3.7246-0.6054-1.3568-0.58984-3.141-0.58984-6.5605z" style="fill:currentColor" class="ColorScheme-Text"/>
 </g>
</svg>
