<?xml version="1.0" encoding="UTF-8" standalone="no"?>
<svg
   xmlns:dc="http://purl.org/dc/elements/1.1/"
   xmlns:cc="http://creativecommons.org/ns#"
   xmlns:rdf="http://www.w3.org/1999/02/22-rdf-syntax-ns#"
   xmlns:svg="http://www.w3.org/2000/svg"
   xmlns="http://www.w3.org/2000/svg"
   xmlns:sodipodi="http://sodipodi.sourceforge.net/DTD/sodipodi-0.dtd"
   xmlns:inkscape="http://www.inkscape.org/namespaces/inkscape"
   width="24"
   height="24"
   version="1.1"
   id="svg7"
   sodipodi:docname="notification-symbolic.svg"
   inkscape:version="0.92.4 (5da689c313, 2019-01-14)">
  <metadata
     id="metadata11">
    <rdf:RDF>
      <cc:Work
         rdf:about="">
        <dc:format>image/svg+xml</dc:format>
        <dc:type
           rdf:resource="http://purl.org/dc/dcmitype/StillImage" />
      </cc:Work>
    </rdf:RDF>
  </metadata>
  <sodipodi:namedview
     pagecolor="#ffffff"
     bordercolor="#666666"
     borderopacity="1"
     objecttolerance="10"
     gridtolerance="10"
     guidetolerance="10"
     inkscape:pageopacity="0"
     inkscape:pageshadow="2"
     inkscape:window-width="1366"
     inkscape:window-height="708"
     id="namedview9"
     showgrid="true"
     inkscape:zoom="27.812867"
     inkscape:cx="10.648551"
     inkscape:cy="10.269295"
     inkscape:window-x="0"
     inkscape:window-y="30"
     inkscape:window-maximized="1"
     inkscape:current-layer="svg7">
    <inkscape:grid
       type="xygrid"
       id="grid830" />
  </sodipodi:namedview>
  <defs
     id="defs3">
    <style
       id="current-color-scheme"
       type="text/css">
   .ColorScheme-Text { color:#dfdfdf; } .ColorScheme-Highlight { color:#5294e2; }
  </style>
  </defs>
  <path
     inkscape:connector-curvature="0"
     style="display:inline;opacity:1;fill:#bebebe;fill-opacity:1;stroke:none;stroke-width:3;stroke-linecap:round;stroke-miterlimit:4;stroke-dasharray:none;stroke-opacity:1;enable-background:new"
     d="m 12,5 c -0.55228,0 -1,0.44772 -1,1 0,0.0333 0.0019,0.06651 0.0059,0.09961 C 8.7156788,6.55843 7.00008,8.57084 7,11 v 4.5 l -2,2 V 18 h 2 10 2 v -0.5 l -2,-2 V 13 11 C 17.00017,8.57084 15.284461,6.558439 12.994141,6.099609 12.998141,6.066509 12.99971,6.0333 13,6 13,5.44772 12.55228,5 12,5 Z m 0,2 a 4.0000086,4.0000086 0 0 1 4,4 v 3 1 0.921875 L 17,17 H 16 8 7 L 8,15.921875 V 15 14 11 a 4.0000086,4.0000086 0 0 1 4,-4 z m 0,1 a 3,3 0 0 0 -3,3 v 5 h 6 V 11 A 3,3 0 0 0 12,8 Z m -1.730469,11 c 0.35698,0.61831 1.016499,0.99944 1.730469,1 0.71327,-0.0013 1.371886,-0.38229 1.728516,-1 z"
     id="path5938" />
</svg>
