<svg height="24" width="24" xmlns="http://www.w3.org/2000/svg"><g fill="#bebebe"><path d="M11 4.003l-.5 1.032c.162-.014.335-.032.5-.032h.5l-.5-1zm0 2a5 5 0 0 0-5 5c0 2.254 1.512 4.126 3.562 4.75a3.715 3.715 0 0 1 1.969-1.437c.62-1.322 1.975-2.338 3.469-2.313.304-.005.587.056.875.125.084-.364.125-.735.125-1.125a5 5 0 0 0-5-5zm-4.938.063l.344 1.062c.22-.259.46-.5.719-.718l-1.063-.344zm9.875 0l-1.093.375h-.063c.14.11.275.225.406.344.132.118.258.241.375.375l.375-1.094zM5 10.503l-1 .5 1.031.5c-.015-.169-.031-.326-.031-.5 0-.027-.002-.083 0-.156.006-.116.022-.232.031-.344H5zm11.969 0c.014.17.03.327.03.5 0 .028.003.084 0 .157-.005.115-.022.232-.03.343h.03l1-.5-1.03-.5zM6.437 14.847l-.375 1.094 1.094-.375h.063a8.605 8.605 0 0 1-.407-.344 4.596 4.596 0 0 1-.375-.375z" style="marker:none" color="#bebebe" overflow="visible" stroke-width="2"/><path d="M15 13.003c-1.312 0-2.405.859-2.813 2.032a2.494 2.494 0 0 0 .313 4.968H18a2 2 0 1 0 0-4 3 3 0 0 0-3-3z"/></g></svg>