<svg height="24" width="24" xmlns="http://www.w3.org/2000/svg"><g fill="#bebebe"><path d="M12 4C9.929 4 8.165 5.268 7.406 7.063A3.981 3.981 0 0 0 4 11a4 4 0 0 0 4 4h8.5a3.5 3.5 0 0 0 3.5-3.5 3.49 3.49 0 0 0-3.094-3.469A5.011 5.011 0 0 0 12 4z"/><path d="M7 16v1.133l-.982-.567-.5.868.98.566-.98.566.5.868.982-.567V20h1v-1.133l.982.567.5-.868-.98-.566.98-.566-.5-.868-.982.567V16H7zM12 16v1.133l-.982-.567-.5.868.98.566-.98.566.5.868.982-.567V20h1v-1.133l.982.567.5-.868-.98-.566.98-.566-.5-.868-.982.567V16h-1zM17 16v1.133l-.982-.567-.5.868.98.566-.98.566.5.868.982-.567V20h1v-1.133l.982.567.5-.868-.98-.566.98-.566-.5-.868-.982.567V16h-1z" opacity=".35" stroke-width="4" stroke-linecap="round" stroke-linejoin="round"/></g></svg>