<svg xmlns="http://www.w3.org/2000/svg" width="22" height="22"><path d="M11.5 9a2.492 2.492 0 0 0-2.45 2H3v1h6.05c.231 1.144 1.236 2 2.45 2a2.492 2.492 0 0 0 2.45-2H19v-1h-5.05a2.492 2.492 0 0 0-2.45-2" fill="#2ecc71"/><path d="M5.5 14A2.495 2.495 0 0 0 3 16.5C3 17.885 4.115 19 5.5 19a2.492 2.492 0 0 0 2.45-2H19v-1H7.95a2.492 2.492 0 0 0-2.45-2m0 1c.831 0 1.5.669 1.5 1.5S6.331 18 5.5 18 4 17.331 4 16.5 4.669 15 5.5 15" fill="#1d99f3"/><path d="M14.5 3a2.492 2.492 0 0 0-2.45 2H3v1h9.05c.231 1.144 1.236 2 2.45 2a2.492 2.492 0 0 0 2.45-2H19V5h-2.05a2.492 2.492 0 0 0-2.45-2m0 1c.831 0 1.5.669 1.5 1.5S15.331 7 14.5 7 13 6.331 13 5.5 13.669 4 14.5 4" fill="#da4453"/></svg>