<svg xmlns="http://www.w3.org/2000/svg" viewBox="0 0 22 22"><path d="M7 3v14.46c-.329.07-.627.142-1 .206L6.277 19c.25-.043.485-.096.723-.148V19h1v-.402c4.815-1.4 7-4.744 7-7.598h-1.477c0 .924-.466 2.706-1.265 3.393-.816-.774-1.8-1.969-2.037-3.372L9.03 11c0 1.899 1.341 3.47 2.35 4.436-.862.875-1.878 1.403-3.381 1.804V3H7zm5.137 0c-1.173.025-2.074.218-2.729.498l.37 1.262c.313-.102 1.5-.46 2.195-.46h.095c.969.039 1.037.37 1.037 1.147v.307l-.505.076C10.254 6.15 9 6.417 9 8.1c0 1.173.914 1.9 2.236 1.9.914 0 1.514-.357 2.127-.842l.192.715H15V5.154C15 3.714 13.937 3 12.3 3h-.163zm.968 3.748v1.568c-.504.32-.886.55-1.54.55-.587 0-.874-.344-.874-.829 0-.918.859-1.073 1.909-1.213l.505-.076z" fill="currentColor" color="#5d656b"/></svg>