<svg xmlns="http://www.w3.org/2000/svg" viewBox="0 0 22 22"><path d="M6.096 6c.27 1.778.967 3.648 2.55 5.354-.72.906-1.629 1.787-2.804 2.646H3v1h1.326c-.498.299-1.026.596-1.607.89L3.314 17a21.61 21.61 0 0 0 3.24-2H19v-1H7.771c2.82-2.54 4.051-5.368 4.948-8H11.36c-.512 1.503-1.103 2.932-1.986 4.309C8.11 8.892 7.518 7.512 7.289 6H6.096zm10.04 0c-1.172.025-2.071.218-2.726.498l.367 1.262c.314-.102 1.5-.46 2.196-.46h.095c.969.039 1.037.37 1.037 1.147v.307l-.505.078c-2.346.319-3.6.586-3.6 2.27 0 1.173.914 1.898 2.236 1.898.914 0 1.514-.357 2.127-.842l.192.715H19V8.154C19 6.714 17.937 6 16.3 6h-.163zm.97 3.75v1.568c-.505.32-.887.547-1.542.547-.586 0-.873-.343-.873-.828 0-.918.859-1.072 1.909-1.213l.505-.074z" fill="currentColor" color="#5d656b"/></svg>