<svg xmlns="http://www.w3.org/2000/svg" viewBox="0 0 22 22"><path d="M11 3a3 3 0 0 0-3 3H5v13h8v-1H6V7h2v1.088A1.5 1.5 0 0 0 7 9.5 1.5 1.5 0 0 0 8.5 11 1.5 1.5 0 0 0 10 9.5a1.5 1.5 0 0 0-1-1.412V7h4v1.088A1.5 1.5 0 0 0 12 9.5a1.5 1.5 0 0 0 1.5 1.5A1.5 1.5 0 0 0 15 9.5a1.5 1.5 0 0 0-1-1.412V7h2v6h1V6h-3a3 3 0 0 0-3-3zm0 1a2 2 0 0 1 2 2H9a2 2 0 0 1 2-2zM8.5 9a.5.5 0 0 1 .5.5.5.5 0 0 1-.5.5.5.5 0 0 1-.5-.5.5.5 0 0 1 .5-.5zm5 0a.5.5 0 0 1 .5.5.5.5 0 0 1-.5.5.5.5 0 0 1-.5-.5.5.5 0 0 1 .5-.5z" fill="currentColor" color="#5d656b"/><path d="M14.834 14l-.834.834 1.666 1.666L14 18.166l.834.834 1.666-1.666L18.166 19l.834-.834-1.666-1.666L19 14.834 18.166 14 16.5 15.666 14.834 14z" fill="#da4453"/></svg>