<svg xmlns="http://www.w3.org/2000/svg" viewBox="0 0 22 22"><path d="M11 3a3 3 0 0 0-3 3H5v13h9v-1H6V7h2v1.088A1.5 1.5 0 0 0 7 9.5 1.5 1.5 0 0 0 8.5 11 1.5 1.5 0 0 0 10 9.5a1.5 1.5 0 0 0-1-1.412V7h4v1.088A1.5 1.5 0 0 0 12 9.5a1.5 1.5 0 0 0 1.5 1.5A1.5 1.5 0 0 0 15 9.5a1.5 1.5 0 0 0-1-1.412V7h2v6h1V6h-3a3 3 0 0 0-3-3zm0 1a2 2 0 0 1 2 2H9a2 2 0 0 1 2-2zM8.5 9a.5.5 0 0 1 .5.5.5.5 0 0 1-.5.5.5.5 0 0 1-.5-.5.5.5 0 0 1 .5-.5zm5 0a.5.5 0 0 1 .5.5.5.5 0 0 1-.5.5.5.5 0 0 1-.5-.5.5.5 0 0 1 .5-.5zm2.5 5v2h-2v1h2v2h1v-2h2v-1h-2v-2h-1z" fill="currentColor" color="#5d656b"/></svg>