<svg xmlns="http://www.w3.org/2000/svg" viewBox="0 0 22 22"><path d="M7.41 3.876c-1.593.894-2.937 2.401-3.658 3.751-.004.001.004.023 0 .031-.506 1.055-.715 2.197-.752 3.343.322 2.72 1.168 4.661 3.033 6.249C7.48 18.42 9.21 18.895 11 19c2.377.003 4.884-1.364 6.218-3 .028-.035.067-.058.094-.094.01-.012.022-.02.031-.03.014-.019.018-.045.031-.064 1.208-1.6 1.474-3.084 1.625-4.81-.444-3.107-1.821-5.224-3.782-6.78M11 4.002a7.023 7.023 0 0 1 1.406.158h.03c.167.035.339.079.5.125.097.027.188.063.282.094.172.057.334.116.5.187.194.08.379.153.563.25-.031.001-.063.021-.094.031a.319.319 0 0 0-.125.125c-.02.048.005.115 0 .188.038.017.06.09.125.125.025.014.04 0 .063 0 .038.021.07.087.063.125-.011.055-.088.022-.125.063.006.078-.043.105-.063.156.012.033.057.024.063.063-.007.043-.08.049-.063.094.072.056.15-.022.219-.031.149-.02.283.04.375-.031-.012-.071.1-.092.094-.156-.006-.048-.09-.061-.125-.094-.02-.018-.04-.059-.063-.094-.026-.04-.064-.087-.094-.125-.04-.052-.125-.117-.125-.156 0-.045.052-.063.063-.125-.012-.057-.117 0-.125-.063a.162.162 0 0 1 .03-.063c.15.082.299.179.439.281l.094.063c.108.081.207.17.313.25-.067.012-.101.09-.156.156a.464.464 0 0 1-.156.125c-.028.012-.068-.016-.094 0-.037.025-.051.096-.094.125-.031.02-.124.094-.156.094-.038 0-.098-.04-.125-.031-.04.013-.017.077-.063.094-.088.03-.25-.07-.281.063.038.076.153.05.219.094a.475.475 0 0 1 .125.188c0 .038.015.179 0 .219-.041.106-.16.097-.281.094h-.094c-.207-.014-.407-.085-.5.063.007.112.025.182 0 .28-.018.072-.097.125-.094.188.002.032.055.082.063.125.005.023-.011.073 0 .094.034.066.127 0 .188 0 .059.001.126.121.125.188a.336.336 0 0 1-.063.156c-.058.09-.167.077-.25.125-.07.039-.084.119-.125.188-.044.074-.081.11-.063.219a.485.485 0 0 1-.25.25c-.037.017-.092.039-.125.063a.63.63 0 0 0-.094.094c-.047.052-.1.085-.125.125-.02.03-.001.084-.031.125-.03.056-.088.1-.125.155-.017.026-.043.06-.063.094-.042.077-.101.151-.094.22.007.065.089.067.094.124.004.032-.033.06-.031.094 0 .051.027.086.03.125.002.1-.043.12-.062.188-.01.032.008.068 0 .094-.016.05-.093.098-.094.156 0 .042.059.097.063.156.002.04-.038.057-.031.094.014.073.162.162.219.219.075.075.155.139.188.219.027.067.04.168.094.219.039.037.106.054.156.094.047.036.107.055.156.094.08.064.183.197.313.188.068-.001.142-.05.219-.063.079-.014.17-.04.25-.031.06 0 .124.066.188.063.067 0 .143-.061.219-.094.131-.057.338-.153.53-.125.146.02.15.217.25.28.118.002.22-.053.313-.03.07.017.15.132.156.188.007.058-.054.12-.063.155-.018.078-.017.17-.03.22-.012.037-.033.085-.032.124a.54.54 0 0 0 .094.188c.044.056.103.096.156.156a1.8 1.8 0 0 1 .22.375c.016.037-.017.077 0 .125-.03.224-.104.377-.25.625-.07.08-.159.15-.157.25-.005.24.136.392.125.624-.024.312.024.333 0 .5.105.053.031.233 0 .344-.045.132-.1.162-.125.25.071.03.171.019.25 0 0 0 .096.4.094.406-1.522 1.401-3.08 1.853-4.937 2-.679.036-1.264-.135-1.906-.281a7.067 7.067 0 0 1-.5-.156c.014-.013.027-.011.031-.031.01-.04.002-.062 0-.125.015-.065.08-.058.094-.125-.028-.048-.083-.038-.125-.063a.133.133 0 0 1-.063-.125c.07-.029.2.066.25-.031.025-.046-.034-.14 0-.188.023-.03.17-.055.22-.063.07-.012.147 0 .187-.03a.223.223 0 0 0 .094-.189c-.004-.039-.033-.059-.063-.094-.025-.029-.013-.066-.03-.094-.032-.047-.08-.058-.095-.125.096-.019.236.102.375.063.066-.019.157-.188.188-.25v-.063c.012-.026.06-.049.063-.063.001-.036-.008-.07 0-.094.024-.068.085-.075.125-.125.03-.038.065-.087.094-.125.031-.04.042-.089.063-.125.02-.122-.06-.206-.03-.312.031-.12.195-.165.312-.22.04-.018.092-.05.125-.062.08-.028.176-.036.25-.063.125-.046.157-.167.219-.281a.611.611 0 0 0 .063-.156c.005-.035-.007-.053 0-.094.006-.04.02-.081.031-.125a1.1 1.1 0 0 0 .031-.219c0-.053-.029-.078-.031-.125-.009-.173.061-.218.125-.313.032-.047.04-.09.063-.125.108-.16.295-.226.28-.468-.004-.08-.034-.256-.093-.281-.034-.015-.107-.011-.156-.031-.158-.06-.274-.27-.438-.281-.035 0-.055.03-.094.03-.065 0-.147-.052-.219-.062-.046-.001-.129.013-.156 0-.042-.02-.029-.102-.063-.125-.027-.018-.084-.015-.125-.031-.066-.025-.112-.056-.188-.063h-.094c-.042-.001-.086-.04-.125-.063a.208.208 0 0 1-.094-.094c.044-.144-.096-.167-.125-.25-.014-.039.013-.09 0-.125-.017-.05-.07-.084-.125-.125-.097-.074-.174-.139-.313-.156h-.219c-.078 0-.16-.058-.219-.125-.056-.065-.076-.125-.125-.156-.047-.03-.124-.03-.156-.063-.014-.014-.017-.03-.03-.063-.024-.048-.062-.098-.032-.156-.053-.027-.035.072-.094.063-.052-.074-.1-.115-.219-.094-.054.001-.093.06-.156.063-.052 0-.088-.053-.156-.063-.052 0-.12.036-.156.031-.057-.01-.073-.059-.125-.094-.038-.025-.104-.095-.125-.094-.067 0-.126.143-.219.094-.045-.057.085-.07.031-.125-.04-.04-.06.001-.094.031a.666.666 0 0 1-.125.063c-.092.034-.147.025-.219.063-.066.034-.087.088-.125.156-.03.056-.079.153-.125.156-.056 0-.105-.072-.155-.094-.153-.066-.248.03-.375.031-.118 0-.287-.17-.281-.28.004-.068.054-.167.063-.25.006-.066.062-.127.063-.188 0-.081-.135-.147-.188-.156-.125-.023-.295.06-.438 0-.027-.045.047-.081.063-.125.009-.025-.01-.034 0-.063.016-.042.074-.08.094-.125.015-.034.016-.082.03-.125.018-.05.06-.091.064-.125.005-.045-.027-.095-.063-.125-.111.001-.187 0-.25.031-.144.066-.106.266-.25.313-.05.016-.133.02-.188.03-.047.002-.107.033-.156.032-.058 0-.153-.057-.188-.094-.01-.001-.024-.036-.031-.063.002-.001-.002-.021 0-.031.046-.223.093-.444.156-.656.003 0-.003-.022 0-.03.042-.14.103-.27.156-.407.013 0 .019-.023.03-.03.078-.054.157-.12.25-.126.058 0 .165.02.22.031.05.001.082.06.125.063.123.001.149-.102.25-.155.104.015.156-.001.25 0 .064 0 .138.09.188.094.042 0 .053-.07.094-.063.04 0 .119.107.125.155.007.06-.048.122-.031.188.063.064.19.056.28.094.06-.048.01-.118 0-.188-.001-.03.005-.066 0-.094-.005-.048-.03-.084-.03-.124 0-.19.154-.3.28-.375.056-.033.108-.07.156-.094.067-.034.1-.063.156-.094.101-.057.202-.092.281-.156.037-.086-.004-.196 0-.281.037-.022.055 0 .094 0 .061-.013.09-.091.125-.125.02-.02.07-.043.094-.063.061-.048.072-.104.125-.125a.364.364 0 0 0 .094-.031c.04-.011.092-.04.156-.063.042-.014.14-.015.156-.031.02-.02-.006-.095 0-.125.032-.15.272-.168.406-.219.094-.036.178-.114.281-.094-.02.072-.11.038-.094.125.023.121.176-.013.22-.03.08-.035.236-.056.343-.095.094-.034.245-.08.156-.188-.074 0-.092.066-.156.094-.044.001-.056-.027-.094-.03-.036 0-.057.037-.094.03-.037 0-.088-.082-.094-.125-.015-.11.11-.136.156-.219-.03-.1-.166-.024-.25-.063a.148.148 0 0 1 .125-.125c.057 0 .185.001.22.031.02.017 0 .066.03.094.034.031.081.001.125 0 .016-.076-.106-.043-.094-.094.09-.059.265-.016.375-.03.063-.002.131-.063.188-.095.054-.03.1-.08.156-.03.016.053-.032.065-.063.093a2.182 2.182 0 0 0-.28.313c.048.048.135.022.218.031.032 0 .06.025.094.031.04.001.094-.012.125 0 .056.014.07.094.125.094.091 0 .083-.125.031-.188.016-.063.053-.08.031-.125-.04-.082-.21.014-.219-.094-.005-.067.07-.075.094-.125-.01-.129.106-.135.094-.25-.006-.048-.06-.049-.094-.094-.017-.023 0-.076-.03-.094-.07-.059-.21-.044-.22-.155-.004-.066.001-.115 0-.188-.009-.067-.066-.268-.125-.281-.075-.016-.129.114-.219.156a.389.389 0 0 1-.188.03.105.105 0 0 1-.094-.093c-.006-.07.05-.082.063-.156-.01-.044-.05-.03-.094-.063-.049-.037-.09-.116-.156-.125-.033 0-.093.029-.125.031-.06 0-.106-.015-.156-.031.021-.001.041-.024.063-.031.122-.042.25-.059.375-.094.022-.001.041-.025.063-.031.031.033.056.103.094.125.025.014.063-.001.094 0 .098.03.174.085.281.063.037-.065-.074-.074-.03-.125.071 0 .131.04.187.063.077-.056.128-.066.125-.156 0-.046-.062-.063-.094-.094.063-.011.124-.022.188-.031.005.017.021.03.031.031a.768.768 0 0 0 .188-.063c.004 0-.006-.027 0-.031.253-.027.521-.031.781-.031m-2.5.469c-.023.043-.047.079-.094.094.012.065-.084.105-.094.156-.006.035-.002.094 0 .125.02.318-.25.476-.563.468-.06.058-.029.17-.063.25-.028.067-.12.131-.188.125-.05 0-.125-.079-.125-.125 0-.057.081-.09.031-.156.007-.044.106-.086.094-.156-.012-.074-.096-.019-.188-.03a.58.58 0 0 1-.188-.064c.101-.067.205-.126.313-.188.094-.056.185-.105.281-.156.252-.126.522-.243.781-.343m5.375.75c-.027 0-.04.017-.063.03-.051.031-.054.08-.094.094-.054.021-.117.001-.125.063-.006.041.033.055.03.094-.02.05-.052.066-.062.125.068.11.229 0 .313-.03.038-.012.073 0 .094-.032.023-.035.013-.105.03-.156.02-.056.07-.043.064-.094-.006-.05-.106-.102-.188-.094m-7.312.78c.06.017.195.194.063.25-.013.002-.187.037-.22.032-.045-.001-.077-.086-.124-.094-.092-.016-.218.1-.281 0 .016-.06.086-.043.156-.063.125-.034.298-.153.406-.125m.25.313c.03 0 .055.059.093.063.036 0 .072-.036.094-.031.056.015.084.115.031.156-.044 0-.06-.037-.094-.031-.09.016-.12.193-.187.188-.064-.001-.096-.141-.031-.188.002-.04-.033-.054-.031-.094.02-.025.072-.066.124-.063m-.312.03h.03c-.008.072-.038.092-.093.126a.378.378 0 0 0-.188.25c-.01.036-.111.133-.156.124-.106-.022.038-.22.063-.25.027-.032.062-.055.094-.093.03-.037.033-.105.063-.125a.441.441 0 0 1 .188-.031m9.498.03c.048.014.058.07.094.095.027.018.064.012.094.03.035.023.054.06.094.095.056.047.14.088.22.125.015 0 .043.023.062.03.055.072.104.145.156.22.006.04.012.098.031.124.052.071.131.132.188.22 0 .082.036.132.094.155.073.124.15.248.22.375.028.058.034.129.062.188h-.063c-.066-.116-.409-.139-.438.03-.013.076.05.176-.063.189-.07 0-.153-.073-.25-.094-.04-.001-.094.014-.125 0-.073-.025-.062-.112-.125-.156a.547.547 0 0 0-.188-.063h-.094c-.045-.001-.118-.001-.156-.031-.036-.022-.116-.062-.125-.094-.014-.05.09-.114.094-.156.002-.03-.023-.045-.03-.094-.006-.029.005-.074 0-.094-.002-.034-.072-.062-.126-.063-.048 0-.084.03-.125.031-.059 0-.177-.037-.25-.03-.043 0-.083.027-.124.03h-.281a.76.76 0 0 0-.25.063c-.031.014-.054.043-.094.063-.018.001-.04.021-.063.031-.038.017-.09.053-.125.063-.052.013-.124 0-.22 0-.067 0-.186-.014-.187-.094 0-.123.227-.072.344-.094.044 0 .073-.063.125-.094.025-.015.039-.015.063-.03.04-.029.119-.094.125-.126.006-.03-.035-.072-.031-.094.005-.028.057-.058.094-.094.056-.055.087-.12.156-.156.047-.025.135-.024.156-.063.005-.043 0-.055 0-.094.029-.027.038-.058.063-.063.072-.016.135.035.219.031.036 0 .086 0 .124-.03.033-.023.062-.046.094-.064.035-.018.051-.059.094-.063.105 0 .171.124.22.188.04.053.152.12.218.156.037.021.084.045.125.063.087.04.247.165.25.25.002.042-.038.054-.03.094.065.011.122-.059.124-.125 0-.04-.039-.05-.03-.094.03-.066.147 0 .187-.03-.007-.076-.124-.087-.188-.126-.034-.02-.058-.048-.094-.063-.052-.02-.116-.032-.156-.063-.038-.029-.057-.08-.094-.125-.054-.064-.158-.073-.125-.219.016-.022.037-.069.063-.063m-8.811.22h.094c.034 0 .08-.019.094 0-.022.087-.212.062-.281.03.004-.033.05-.027.094-.03m-.313.155h.063a.71.71 0 0 1-.25.125c-.051.016-.116.025-.125-.03-.011-.07.047-.057.094-.064.058 0 .15-.029.219-.03m8.687 0c-.043.013-.066.112 0 .124.03-.018.039-.068.03-.125-.016-.018-.016 0-.03 0m-.031.188c-.021.001-.04.001-.063.031 0 .075.015.123 0 .188.043.082.134.026.156-.031.026-.139-.03-.205-.094-.188m.437.375c.05.08.141.137.25.156.04-.03.044-.105.063-.156h-.156c-.059 0-.122-.028-.156 0M4.287 10c.164-.001.212.215.344.28.033.017.082.022.125.031.035.001.06.02.094.031.07.024.162.001.219.031.085.038.146.207.219.25.004.043-.013.093 0 .125.035.047.099.064.156.094.068.037.092.127.156.156.022.001.059 0 .094 0 .088.027.112.147.188.125.05-.014.055-.078.063-.125.033-.036.074-.093.125-.094.083 0 .095.075.125.156.017.046.05.108.063.156.02.083.017.325 0 .375-.021.06-.106.089-.156.156-.024.03-.044.07-.063.094-.032.04-.07.057-.094.094-.014.02-.018.066-.031.094-.04.085-.096.148-.063.25.014.042.062.076.063.125 0 .058-.115.093-.125.156-.007.047.048.126.063.187.01.047.097.094.125.125.047.053.082.121.125.188.085.13.136.28.219.406.043.066.127.12.156.188.015.035-.014.094 0 .125.048.108.266.228.375.281.05.025.11 0 .156.031a.919.919 0 0 1 .25.219c.032.056.047.193.063.28.02.118-.005.218 0 .345.004.069.03.118.03.187v.094c-.001.083.008.166 0 .25a.744.744 0 0 0 0 .125c.005.041.029.057.032.094.002.04-.035.095-.031.125.009.084.077.142.094.22.013.06.039.207.03.28-.004.04-.024.083-.03.125-.004.033.005.062 0 .094-.006.047-.034.081-.031.125.006.09.08.16.094.25.005.03 0 .065 0 .094 0 .027.023.038.03.063a6.979 6.979 0 0 1-.75-.5 7.065 7.065 0 0 1-.655-.563l-.031-.03C4.74 14.637 4.097 12.832 4.009 11c0-.302.026-.584.063-.875v-.03c.063 0 .149-.093.219-.095m2.688.75c.064-.03.084.117.03.125-.05 0-.08-.102-.03-.125" fill="currentColor" color="#5d656b"/><path d="M11 3a8 8 0 0 0-8 8 8 8 0 0 0 8 8 8 8 0 0 0 8-8 8 8 0 0 0-8-8m0 1a7 7 0 0 1 7 7 7 7 0 0 1-7 7 7 7 0 0 1-7-7 7 7 0 0 1 7-7" fill="currentColor" color="#3daee9"/></svg>