<svg xmlns="http://www.w3.org/2000/svg" xmlns:xlink="http://www.w3.org/1999/xlink" viewBox="0 0 22 22"><defs><linearGradient id="a"><stop offset="0" stop-color="#fff" stop-opacity=".459"/><stop offset="1" stop-color="#fff" stop-opacity=".053"/></linearGradient><linearGradient xlink:href="#a" id="b" x1="8.686" y1="9.229" x2="12.661" y2="13.144" gradientUnits="userSpaceOnUse"/></defs><path d="M15.406 3l-4 4-1.094 1.094L7 11.375v.031l-.688.688L3 15.375V17l2 2h1.625l3.969-4 1.125-1.125L15 10.594l.719-.719L19 6.594V5l-2-2h-1.594z" fill="currentColor" color="#5d656b"/><path d="M15.406 3l-4 4-1.094 1.094L7 11.375v.031l-.688.688L3 15.375V17l2 2h1.625l3.969-4 1.125-1.125L15 10.594l.719-.719L19 6.594V5l-2-2h-1.594z" color="#5d656b" fill="url(#b)"/></svg>