<svg xmlns="http://www.w3.org/2000/svg" xmlns:xlink="http://www.w3.org/1999/xlink" width="22" height="22" id="svg4355" version="1.1"><defs id="defs4357"><style type="text/css" id="current-color-scheme"></style><linearGradient id="linearGradient4012"><stop id="stop4014" offset="0" stop-color="#1d99f3" stop-opacity="1"/><stop offset=".417" id="stop4016" stop-color="#48acf5" stop-opacity=".761"/><stop offset=".667" id="stop4018" stop-color="#73c0f7" stop-opacity="0"/><stop id="stop4020" offset="1" stop-color="#cae7fc" stop-opacity="0"/></linearGradient><linearGradient xlink:href="#linearGradient4012" id="linearGradient4164" x1="3" y1="1049.362" x2="19" y2="1033.362" gradientUnits="userSpaceOnUse" gradientTransform="matrix(.75 0 0 .75 1.75 269.34)"/><linearGradient xlink:href="#linearGradient4012" id="linearGradient3983" gradientUnits="userSpaceOnUse" gradientTransform="matrix(.75 0 0 .75 2.75 262.34)" x1="3" y1="1049.362" x2="24.333" y2="1028.029"/><linearGradient y2="1028.029" x2="24.333" y1="1049.362" x1="3" gradientTransform="matrix(.75 0 0 .75 3.75 -767.022)" gradientUnits="userSpaceOnUse" id="linearGradient4007" xlink:href="#linearGradient4012"/><linearGradient y2="1033.362" x2="19" y1="1049.362" x1="3" gradientTransform="matrix(.75 0 0 .75 3.75 -767.022)" gradientUnits="userSpaceOnUse" id="linearGradient4010" xlink:href="#linearGradient4012"/><linearGradient xlink:href="#linearGradient4012" id="linearGradient4164-76" x1="3" y1="1049.362" x2="19" y2="1033.362" gradientUnits="userSpaceOnUse" gradientTransform="matrix(.75 0 0 .75 3.75 -769.022)"/><clipPath clipPathUnits="userSpaceOnUse" id="clipPath4160"><path id="rect4162" opacity="1" fill="#f2f2f2" fill-opacity="1" stroke="none" stroke-opacity="1" d="M7 1023.362h1v1H7z"/></clipPath><clipPath clipPathUnits="userSpaceOnUse" id="clipPath4160-4"><path id="rect4162-9" opacity="1" fill="#f2f2f2" fill-opacity="1" stroke="none" stroke-opacity="1" d="M7 1023.362h1v1H7z"/></clipPath><clipPath clipPathUnits="userSpaceOnUse" id="clipPath4160-3"><path id="rect4162-0" opacity="1" fill="#f2f2f2" fill-opacity="1" stroke="none" stroke-opacity="1" d="M7 1023.362h1v1H7z"/></clipPath></defs><g id="layer1" transform="translate(-544.571 -742.934)"><g transform="translate(544.571 -287.429)" id="layer1-5"><g transform="translate(1)" id="g4071"><path d="M11 4c-.973 3.405-3.356 6.344-4.406 8.688A4.91 4.91 0 0 0 6 15c0 2.77 2.23 5 5 5s5-2.23 5-5a4.91 4.91 0 0 0-.594-2.313C14.356 10.345 11.973 7.405 11 4z" transform="translate(-1 1029.362)" id="rect4346" fill="#b3b3b3" fill-opacity="1" stroke="none"/><path d="M11 4c-.3 1.048-.732 2.044-1.219 3H11V4zm0 3v4h3.5c-.705-1.214-1.545-2.554-2.281-4H11zm0 4H7.5c-.167.288-.354.57-.5.844V15h4v-4zm0 4v4h3a4.947 4.947 0 0 0 1-1v-3h-4z" transform="translate(-1 1029.362)" id="rect4352-0" fill="#777" fill-opacity="1" stroke="none"/><path d="M11 4c-.973 3.405-3.356 6.344-4.406 8.688A4.91 4.91 0 0 0 6 15c0 2.77 2.23 5 5 5s5-2.23 5-5a4.91 4.91 0 0 0-.594-2.313C14.356 10.345 11.973 7.405 11 4z" transform="translate(-1 1029.362)" id="rect4156" fill="url(#linearGradient4010)" fill-opacity="1" stroke="none"/><g transform="translate(-379.857 490.286)" id="layer1-0"><path d="M11 4c-.973 3.405-3.356 6.344-4.406 8.688A4.91 4.91 0 0 0 6 15c0 2.77 2.23 5 5 5s5-2.23 5-5a4.91 4.91 0 0 0-.594-2.313C14.356 10.345 11.973 7.405 11 4zm0 2c.778 2.767 2.691 5.158 3.531 7.063.156.3.261.6.344.937.034.14.075.292.094.438.003.02-.003.042 0 .062.017.145.031.287.031.438V15a4.096 4.096 0 0 1-.094.75c-.003.02.004.043 0 .063a4.233 4.233 0 0 1-.219.718c-.003.01.004.022 0 .032a4.07 4.07 0 0 1-.374.656c-.006.007.004.024 0 .031-.14.208-.294.385-.47.563a3.848 3.848 0 0 1-.593.5A3.977 3.977 0 0 1 11 19a4.066 4.066 0 0 1-1.344-.25c-.03-.011-.063-.02-.094-.031-.04-.016-.085-.015-.124-.032-.065-.027-.126-.063-.188-.093-.11-.054-.21-.125-.313-.188-.071-.043-.15-.077-.218-.125-.02-.013-.044-.017-.063-.031a4.06 4.06 0 0 1-.5-.438 4.043 4.043 0 0 1-.406-.5c-.012-.008-.02-.023-.031-.03A4.129 4.129 0 0 1 7 14.936c0-.686.175-1.308.469-1.874C8.309 11.158 10.222 8.767 11 6z" transform="translate(378.857 539.076)" id="rect4108" fill="currentColor" fill-opacity="1" stroke="none" color="#5d656b"/></g></g></g></g></svg>