<svg xmlns="http://www.w3.org/2000/svg" viewBox="0 0 22 22"><path d="M10.5 2v2.025A7 7 0 0 0 4.018 10.5H2v1h2.025a7 7 0 0 0 6.475 6.482V20h1v-2.025a7 7 0 0 0 6.482-6.475H20v-1h-2.025A7 7 0 0 0 11.5 4.018V2h-1zm0 3.025v2.01A4 4 0 0 0 7.037 10.5H5.025A6 6 0 0 1 10.5 5.025zm1 0a6 6 0 0 1 5.475 5.475h-2.01A4 4 0 0 0 11.5 7.037V5.025zm-1 3.016V10.5H8.047A3 3 0 0 1 10.5 8.041zm1 .006a3 3 0 0 1 2.459 2.453H11.5V8.047zM5.025 11.5h2.01a4 4 0 0 0 3.465 3.463v2.012A6 6 0 0 1 5.025 11.5zm3.016 0H10.5v2.453A3 3 0 0 1 8.041 11.5zm3.459 0h2.453a3 3 0 0 1-2.453 2.459V11.5zm3.463 0h2.012a6 6 0 0 1-5.475 5.475v-2.01a4 4 0 0 0 3.463-3.465z" fill="currentColor" color="#5d656b"/></svg>