<svg xmlns="http://www.w3.org/2000/svg" viewBox="0 0 22 22"><path d="M7 6v1h9a2 2 0 0 1 2 2 2 2 0 0 1-2 2H7a3 3 0 0 0-3 3 3 3 0 0 0 3 3h8v-1H7a2 2 0 0 1-2-2 2 2 0 0 1 2-2h9a3 3 0 0 0 3-3 3 3 0 0 0-3-3H7z" fill="currentColor" color="#5d656b"/><path d="M5.5 4A2.5 2.5 0 0 0 3 6.5 2.5 2.5 0 0 0 5.5 9 2.5 2.5 0 0 0 8 6.5 2.5 2.5 0 0 0 5.5 4zm0 1A1.5 1.5 0 0 1 7 6.5 1.5 1.5 0 0 1 5.5 8 1.5 1.5 0 0 1 4 6.5 1.5 1.5 0 0 1 5.5 5zm11 9a2.5 2.5 0 0 0-2.5 2.5 2.5 2.5 0 0 0 2.5 2.5 2.5 2.5 0 0 0 2.5-2.5 2.5 2.5 0 0 0-2.5-2.5zm0 1a1.5 1.5 0 0 1 1.5 1.5 1.5 1.5 0 0 1-1.5 1.5 1.5 1.5 0 0 1-1.5-1.5 1.5 1.5 0 0 1 1.5-1.5z" fill="currentColor" color="#3daee9"/></svg>