<svg xmlns="http://www.w3.org/2000/svg" viewBox="0 0 22 22"><path d="M3 7v9h5v-4h7v2h1v-2h1v2h1v-2h1v-1H8V7H3zm1 1h3v7H4V8z" fill="currentColor" color="#5d656b"/><path d="M16.5 2A3.5 3.5 0 0 0 13 5.5a3.5 3.5 0 0 0 .7 2.094l.716-.717A2.5 2.5 0 0 1 14 5.5 2.5 2.5 0 0 1 16.5 3a2.5 2.5 0 0 1 1.377.416l.717-.717A3.5 3.5 0 0 0 16.5 2zm2.8 1.406l-.716.717A2.5 2.5 0 0 1 19 5.5 2.5 2.5 0 0 1 16.5 8a2.5 2.5 0 0 1-1.377-.416l-.717.717A3.5 3.5 0 0 0 16.5 9 3.5 3.5 0 0 0 20 5.5a3.5 3.5 0 0 0-.7-2.094z" fill="currentColor" color="#3daee9"/></svg>