<svg xmlns="http://www.w3.org/2000/svg" viewBox="0 0 22 22"><defs id="defs3051"><style type="text/css" id="current-color-scheme"></style></defs><path d="M3 3v16h16V9h-1v9H4V7h9V3zm6.428 6c-1.066 0-1.514.352-1.514 1.254v1.223c0 .556-.02 1.2-.61 1.2H7v.645h.305c.589 0 .61.645.61 1.201v1.223c0 .902.447 1.254 1.513 1.254v-.592c-.711 0-.721-.239-.721-1.105v-1.008c0-.416-.124-1.035-.723-1.291.6-.256.723-.874.723-1.29v-1.017c0-.866.01-1.105.72-1.105zm3.136 0v.592c.711 0 .729.239.729 1.105v1.018c0 .415.124 1.033.723 1.289-.6.256-.723.875-.723 1.29v1.009c0 .866-.018 1.105-.729 1.105V17c1.067 0 1.522-.352 1.522-1.254v-1.223c0-.556.04-1.2.62-1.2H15v-.645h-.295c-.579 0-.62-.645-.62-1.201v-1.223c0-.902-.454-1.254-1.52-1.254" fill="currentColor" color="#5d656b"/><path d="M15 3l2 3 2-3z" fill="#f60" fill-rule="evenodd"/></svg>