<svg xmlns="http://www.w3.org/2000/svg" viewBox="0 0 22 22"><path d="M11 3v1a7 7 0 0 1 6.309 4h-3.61v1h5V4h-1v2.656A8 8 0 0 0 11 3zM3.3 13v5h1v-2.656A8 8 0 0 0 11 19v-1a7 7 0 0 1-6.309-4h3.61v-1h-5z" fill="currentColor" color="#5d656b"/><path d="M6 3a2 2 0 0 0-2 2 2 2 0 0 0 .68 1.5A2 2 0 0 0 4 8a2 2 0 0 0 2 2 2 2 0 0 0 2-2 2 2 0 0 0-.68-1.5A2 2 0 0 0 8 5a2 2 0 0 0-2-2m0 1a1 1 0 0 1 1 1 1 1 0 0 1-1 1 1 1 0 0 1-1-1 1 1 0 0 1 1-1m0 3a1 1 0 0 1 1 1 1 1 0 0 1-1 1 1 1 0 0 1-1-1 1 1 0 0 1 1-1" fill="#da4453"/><path d="M17 12a2 2 0 0 0-2 2v3a2 2 0 0 0 2 2 2 2 0 0 0 2-2 2 2 0 0 0-2-2 2 2 0 0 0-1 .27V14a1 1 0 0 1 1-1 1 1 0 0 1 1 1h1a2 2 0 0 0-2-2m0 4a1 1 0 0 1 1 1 1 1 0 0 1-1 1 1 1 0 0 1-1-1 1 1 0 0 1 1-1" fill="#1d99f3"/></svg>