<svg xmlns="http://www.w3.org/2000/svg" viewBox="0 0 22 22"><path d="M11 3v1a7 7 0 0 1 6.309 4h-3.61v1h5V4h-1v2.656A8 8 0 0 0 11 3zM3.3 13v5h1v-2.656A8 8 0 0 0 11 19v-1a7 7 0 0 1-6.309-4h3.61v-1h-5z" fill="currentColor" color="#5d656b"/><path d="M16 12a2 2 0 0 0-2 2 2 2 0 0 0 .68 1.5A2 2 0 0 0 14 17a2 2 0 0 0 2 2 2 2 0 0 0 2-2 2 2 0 0 0-.68-1.5A2 2 0 0 0 18 14a2 2 0 0 0-2-2zm0 1a1 1 0 0 1 1 1 1 1 0 0 1-1 1 1 1 0 0 1-1-1 1 1 0 0 1 1-1zm0 3a1 1 0 0 1 1 1 1 1 0 0 1-1 1 1 1 0 0 1-1-1 1 1 0 0 1 1-1z" fill="#da4453"/><path d="M3 3v1h1v6h1V3H3zm5 0a2 2 0 0 0-2 2v3a2 2 0 0 0 2 2 2 2 0 0 0 2-2 2 2 0 0 0-2-2 2 2 0 0 0-1 .27V5a1 1 0 0 1 1-1 1 1 0 0 1 1 1h1a2 2 0 0 0-2-2zm0 4a1 1 0 0 1 1 1 1 1 0 0 1-1 1 1 1 0 0 1-1-1 1 1 0 0 1 1-1z" fill="#1d99f3"/></svg>