<svg xmlns="http://www.w3.org/2000/svg" viewBox="0 0 22 22"><path d="M7.688 4.611l-5 4 .624.78 5-4-.624-.78zm1.697.07l-.77.64 5 6 .77-.64-5-6zm9.199.042l-4 6 .832.554 4-6-.832-.554zM2 9.998v7h1v-7H2zm1 7v1h6v-1H3zm10.61-5.309l-4 5 .78.623 4-5-.78-.623zm1.78 0l-.78.623 4 5 .78-.623-4-5z" fill="currentColor" color="#5d656b"/><path d="M8.5 3A1.5 1.5 0 0 0 7 4.5 1.5 1.5 0 0 0 8.5 6 1.5 1.5 0 0 0 10 4.5 1.5 1.5 0 0 0 8.5 3zm11 0A1.5 1.5 0 0 0 18 4.5 1.5 1.5 0 0 0 19.5 6 1.5 1.5 0 0 0 21 4.5 1.5 1.5 0 0 0 19.5 3zm-17 5A1.5 1.5 0 0 0 1 9.5 1.5 1.5 0 0 0 2.5 11 1.5 1.5 0 0 0 4 9.5 1.5 1.5 0 0 0 2.5 8zm12 2a1.5 1.5 0 0 0-1.5 1.5 1.5 1.5 0 0 0 1.5 1.5 1.5 1.5 0 0 0 1.5-1.5 1.5 1.5 0 0 0-1.5-1.5zm-12 6A1.5 1.5 0 0 0 1 17.5 1.5 1.5 0 0 0 2.5 19 1.5 1.5 0 0 0 4 17.5 1.5 1.5 0 0 0 2.5 16zm7 0A1.5 1.5 0 0 0 8 17.5 1.5 1.5 0 0 0 9.5 19a1.5 1.5 0 0 0 1.5-1.5A1.5 1.5 0 0 0 9.5 16zm10 0a1.5 1.5 0 0 0-1.5 1.5 1.5 1.5 0 0 0 1.5 1.5 1.5 1.5 0 0 0 1.5-1.5 1.5 1.5 0 0 0-1.5-1.5z" fill="currentColor" color="#3daee9"/></svg>