<svg xmlns="http://www.w3.org/2000/svg" viewBox="0 0 22 22"><path d="M15.781 5.563L11.937 9.75l.75.688 3.844-4.188c-.141-.135-.473-.423-.75-.688zm-9.562.062l-.75.688 3.808 4.101.754-.695L6.22 5.625zm4.281 7.813v2.124h1v-2.124c-.397.004-.705 0-1 0z" fill="currentColor" color="#5d656b"/><path d="M4.5 3A1.5 1.5 0 0 0 3 4.5 1.5 1.5 0 0 0 4.5 6 1.5 1.5 0 0 0 6 4.5 1.5 1.5 0 0 0 4.5 3zm13 0A1.5 1.5 0 0 0 16 4.5 1.5 1.5 0 0 0 17.5 6 1.5 1.5 0 0 0 19 4.5 1.5 1.5 0 0 0 17.5 3zM11 10a1.5 1.5 0 0 0-1.5 1.5A1.5 1.5 0 0 0 11 13a1.5 1.5 0 0 0 1.5-1.5A1.5 1.5 0 0 0 11 10zm0 6a1.5 1.5 0 0 0-1.5 1.5A1.5 1.5 0 0 0 11 19a1.5 1.5 0 0 0 1.5-1.5A1.5 1.5 0 0 0 11 16z" fill="currentColor" color="#3daee9"/></svg>