<svg xmlns="http://www.w3.org/2000/svg" viewBox="0 0 22 22"><path d="M13.031 3c0 1.899 1.341 3.47 2.35 4.436-1.199 1.217-2.677 1.766-5.381 2.23L10.277 11C16.305 9.966 19 6.176 19 3h-1.477c0 .924-.466 2.706-1.265 3.393-.816-.774-1.8-1.969-2.037-3.372L13.03 3zM5 7l-2 3h4L5 7zm11.13 4.97c-1.172.026-2.073.216-2.728.497l.37 1.263c.313-.102 1.5-.459 2.195-.459h.095c.969.039 1.038.37 1.038 1.147v.307l-.506.076c-2.346.319-3.6.586-3.6 2.27 0 1.172.914 1.9 2.236 1.9.914 0 1.514-.358 2.127-.842l.192.715h1.445v-4.719c0-1.44-1.063-2.154-2.7-2.154h-.163zm.97 3.749v1.568c-.505.319-.887.549-1.541.549-.587 0-.873-.346-.873-.83 0-.918.858-1.07 1.908-1.211l.506-.076zM3 16l2 3 2-3H3z" fill="currentColor" color="#5d656b"/></svg>