<svg xmlns="http://www.w3.org/2000/svg" viewBox="0 0 22 22"><path d="M6 3L3 5l3 2V3zm4 0v4l3-2-3-2zM6.115 8.03c-1.173.025-2.074.215-2.728.495l.369 1.264c.313-.102 1.5-.459 2.195-.459h.096c.968.038 1.035.369 1.035 1.147v.306l-.504.076c-2.345.32-3.6.587-3.6 2.27 0 1.173.914 1.9 2.237 1.9.913 0 1.513-.357 2.127-.841l.191.712H8.98v-4.716c0-1.441-1.065-2.155-2.702-2.155h-.162zm6.127 1.54c0 1.899 1.341 3.471 2.35 4.436-1.199 1.218-2.677 1.766-5.381 2.23l.277 1.334c6.028-1.034 8.723-4.824 8.723-8h-1.477c0 .924-.466 2.706-1.265 3.393-.816-.773-1.8-1.968-2.037-3.371l-1.19-.022zm-5.16 2.207v1.569c-.505.318-.886.549-1.541.549-.586 0-.873-.346-.873-.83 0-.919.86-1.071 1.91-1.211l.504-.077z" fill="currentColor" color="#5d656b"/></svg>