<svg xmlns="http://www.w3.org/2000/svg" viewBox="0 0 22 22"><path d="M18.514 3.008a2 9 45 0 0-7.446 5.097 2 9 45 0 0-3.543 4.114 3.471 3.471 0 0 1 2.258 2.258 2 9 45 0 0 4.113-3.543 2 9 45 0 0 4.95-7.778 2 9 45 0 0-.332-.148zM16.5 11c-.486 1.703-1.676 3.166-2.201 4.338A2.48 2.48 0 0 0 14 16.5c0 1.385 1.115 2.5 2.5 2.5s2.5-1.115 2.5-2.5c0-.423-.113-.814-.297-1.162-.525-1.172-1.717-2.635-2.203-4.338zM7 13.664C3 14.736 6 17.268 3 19c4.003 0 6-2 6-3.336 0-.665.068-1.89-2-2zm10.643 1.195c.518.361.857.959.857 1.641 0 1.108-.892 2-2 2a1.99 1.99 0 0 1-1.64-.857c.323.224.714.357 1.14.357 1.108 0 2-.892 2-2 0-.426-.133-.817-.357-1.14z" fill="currentColor" color="#5d656b"/></svg>