<svg xmlns="http://www.w3.org/2000/svg" viewBox="0 0 22 22"><path d="M12.002 3l-7.344 7.313-1.406 1.437-.25.25v4h4l.25-.25.375-.344.687-.719.375-.343L15 8l1-1-3.998-4zm-.594 2L14 7.594l-4.28 4.25L7.159 9.25 11.408 5zM6.44 9.969l2.594 2.594-.719.718-2.593-2.594.281-.28.437-.438zm-1.406 1.406l2.594 2.594-.719.719-2.594-2.594.72-.719zM16.498 14c-.262 0-.954.046-2.062.563-.347.161-.634.344-1.03.562-.21.116-.968.494-1.25.625-.825.383-1.1.48-1.812.75-.69.262-1.433.499-1.938.688C6.283 17.982 3 18 3 18v1s3.327.032 5.75-.875c.321-.12.881-.318 1.406-.5.807-.294 1.68-.657 2.406-.969.305-.141 1.011-.49 1.311-.656.44-.243.734-.422.969-.531.513-.303 1.083-.483 1.656-.469-.045 0 .174.001.375.094.201.084.425.233.594.375.327.332.464.585.531 1.031-.026.682-.26.896-.75 1.281-.324.215-.78.254-1.248.223v.969c.784.002 1.411-.155 1.78-.348a2.387 2.387 0 0 0 1.218-2.156c-.005-.288-.077-.525-.219-.844-.141-.319-.344-.676-.656-.938-.482-.423-.724-.609-1.625-.687z" fill="currentColor" color="#5d656b"/></svg>