<svg xmlns="http://www.w3.org/2000/svg" viewBox="0 0 22 22"><path d="M11.037 3.002c-4.098.095-7.505 3.581-7.404 7.723.02.793.173 1.557.431 2.275l1.123-.367a6.061 6.061 0 0 1-.376-1.908c-.11-3.503 2.765-6.46 6.226-6.56 3.65-.108 6.725 2.917 6.824 6.56.105 3.828-3.038 7.052-6.824 7.15-3.173.082-5.94-2.008-6.973-4.875L3 13.348c1.171 3.388 4.46 5.725 8.037 5.65 4.4-.092 8.058-3.83 7.961-8.273-.093-4.271-3.688-7.822-7.96-7.723zm-5.85 9.63c.88 2.39 3.199 4.126 5.85 4.036 3.123-.106 5.711-2.78 5.596-5.943-.108-2.962-2.622-5.417-5.596-5.297-2.766.11-5.058 2.49-4.935 5.297.023.527.151 1.027.334 1.502l1.396-.456a3.319 3.319 0 0 1-.266-1.046c-.147-2.022 1.49-3.752 3.471-3.877 2.22-.14 4.11 1.677 4.23 3.877.133 2.429-1.842 4.494-4.23 4.61-2.078.103-3.887-1.248-4.601-3.108l-1.248.406zm2.645-.86c.529 1.255 1.783 2.152 3.205 2.027 1.531-.135 2.793-1.5 2.621-3.074-.14-1.29-1.301-2.357-2.62-2.162-1.011.148-1.858 1.108-1.628 2.162.036.163.107.321.2.466l1.427-.466c.695 0 .433.82 0 1.011-.558.247-1.124-.07-1.428-.545l-1.777.58z" fill="currentColor" color="#5d656b"/></svg>