<svg xmlns="http://www.w3.org/2000/svg" viewBox="0 0 22 22"><path d="M19 3a4.997 4.997 0 0 0-3.182 2.178A1.99 1.99 0 0 0 15 5c-.209 0-.405.04-.594.1A7.472 7.472 0 0 0 10.5 4 7.484 7.484 0 0 0 3 11.5c0 4.155 3.345 7.5 7.5 7.5 4.155 0 7.5-3.345 7.5-7.5a7.472 7.472 0 0 0-1.1-3.906c.06-.189.1-.385.1-.594 0-.448-.15-.857-.396-1.19A3.993 3.993 0 0 1 19 4.03V3M6.318 6.518a6.476 6.476 0 0 0-1.517 4.181c0 3.601 2.899 6.5 6.5 6.5 1.595 0 3.05-.57 4.18-1.517A6.48 6.48 0 0 1 10.5 18 6.486 6.486 0 0 1 4 11.5c0-2.005.9-3.792 2.318-4.982" fill="currentColor" color="#5d656b"/></svg>