<svg xmlns="http://www.w3.org/2000/svg" viewBox="0 0 22 22"><path d="M7.012 3c-.578 1-.878 1-.301 2l3.541 6.14-2.059 3.528A2.495 2.495 0 0 0 4 16.5C4 17.885 5.115 19 6.5 19a2.495 2.495 0 0 0 2.451-2.988l1.162-2.014c.78-.001.88-.775 1.334-.785l1.604 2.781A2.495 2.495 0 0 0 15.5 19c1.384 0 2.499-1.115 2.499-2.5a2.495 2.495 0 0 0-4.186-1.838l-2.054-3.521L15.3 5c.578-1 .277-1-.3-2l-3.994 6.848L7.012 3M11 11a.499.499 0 1 1 0 1 .499.499 0 1 1 0-1zm-4.5 4c.831 0 1.5.669 1.5 1.5S7.331 18 6.5 18 5 17.331 5 16.5 5.669 15 6.5 15m9 0c.831 0 1.5.669 1.5 1.5s-.669 1.5-1.5 1.5-1.5-.669-1.5-1.5.669-1.5 1.5-1.5" fill="currentColor" color="#5d656b"/></svg>