<svg xmlns="http://www.w3.org/2000/svg" viewBox="0 0 22 22"><path d="M3 3v7h8V3H3zm1 1h6v5H4V4zm8 .078V8h1V5.355A6 6 0 0 1 17 11h1a7 7 0 0 0-6-6.922zM4 11a7 7 0 0 0 6 6.922V14H9v2.645A6 6 0 0 1 5 11H4z" fill="currentColor" color="#5d656b"/><path d="M15.5 12a3.5 3.5 0 0 0-3.5 3.5 3.5 3.5 0 0 0 .7 2.094l.716-.717A2.5 2.5 0 0 1 13 15.5a2.5 2.5 0 0 1 2.5-2.5 2.5 2.5 0 0 1 1.377.416l.717-.717A3.5 3.5 0 0 0 15.5 12m2.8 1.406l-.716.717A2.5 2.5 0 0 1 18 15.5a2.5 2.5 0 0 1-2.5 2.5 2.5 2.5 0 0 1-1.377-.416l-.717.717A3.5 3.5 0 0 0 15.5 19a3.5 3.5 0 0 0 3.5-3.5 3.5 3.5 0 0 0-.7-2.094z" fill="currentColor" color="#3daee9"/></svg>