<svg xmlns="http://www.w3.org/2000/svg" viewBox="0 0 22 22"><path d="M14.297 6.157q0 .418-.077.792-.076.375-.262.707-.175.32-.35.588-.174.257-.502.535-.317.268-.546.45-.23.182-.656.428-.415.246-.655.374-.24.129-.71.375l4.38 4.656q1.005-1.07 1.836-2.526l1.245.802q-.972 1.66-2.076 2.783l1.737 1.852L16.394 19l-1.671-1.82q-2.196 1.649-4.61 1.649-1.05 0-2.01-.321-.95-.332-1.628-.878-.678-.546-1.082-1.273Q5 15.629 5 14.847q0-.727.175-1.359.185-.642.47-1.102.294-.471.731-.888.448-.428.885-.717.437-.3 1.005-.61l-.295-.322q-1.605-1.733-1.605-3.5 0-1.498 1.158-2.418Q8.692 3 10.528 3q1.715 0 2.742.813 1.027.814 1.027 2.344M9.654 9.464q.579-.289.94-.492.36-.214.797-.525.448-.32.688-.62.251-.3.415-.717.175-.428.175-.9 0-.941-.535-1.433-.536-.503-1.584-.503-1.071 0-1.825.535t-.754 1.423q0 1.445 1.442 2.975l.24.257m4.086 6.657l-4.566-4.966q-1.158.685-1.791 1.51-.634.813-.634 2.011 0 1.145.983 1.948.983.792 2.447.792 1.803 0 3.561-1.295" fill="currentColor" color="#5d656b"/></svg>