<svg xmlns="http://www.w3.org/2000/svg" viewBox="0 0 22 22"><path d="M11 3a8 8 0 0 0-.807.041 7.965 7.965 0 0 0-5.922 3.63 8 8 0 0 0-.013.024c-.14.218-.269.442-.387.674a8 8 0 0 0-.002.006 7.95 7.95 0 0 0-.307.684 8 8 0 0 0-.056.154c-.07.188-.134.377-.19.572a8 8 0 0 0-.062.236 7.96 7.96 0 0 0-.12.538 8 8 0 0 0-.042.28 8.037 8.037 0 0 0-.057.473A8 8 0 0 0 3 11a8 8 0 0 0 .041.807 7.965 7.965 0 0 0 3.63 5.922 8 8 0 0 0 .024.013c.218.14.442.269.674.387h.002a8 8 0 0 0 .004.002c.222.112.45.215.684.306a8 8 0 0 0 .154.057c.188.07.377.134.572.19a8 8 0 0 0 .236.062c.178.045.356.086.538.12a8 8 0 0 0 .28.042c.157.023.314.043.473.057A8 8 0 0 0 11 19a8 8 0 0 0 1-.07v-1.008A7 7 0 0 1 11 18c-.236 0-.469-.012-.7-.035a7 7 0 0 1-.622-.094 7 7 0 0 1-.069-.01h-.002a7 7 0 0 1-4.841-3.68 7 7 0 0 1-.012-.02 7 7 0 0 1-.268-.6l-.03-.086a7 7 0 0 1-.183-.547c-.018-.063-.032-.128-.048-.192a7 7 0 0 1-.104-.457c-.017-.094-.03-.19-.043-.285a7 7 0 0 1-.049-.404A7.096 7.096 0 0 1 4 11c0-.236.012-.469.035-.7a7 7 0 0 1 .094-.622 7 7 0 0 1 .01-.07 7 7 0 0 1 3.68-4.842 7 7 0 0 1 .02-.012 7 7 0 0 1 .6-.268l.086-.03a7 7 0 0 1 .547-.183c.063-.018.128-.032.192-.048a7 7 0 0 1 .457-.104c.094-.017.19-.03.285-.043a7 7 0 0 1 .404-.049C10.605 4.013 10.8 4 11 4a7 7 0 0 1 .7.035 7 7 0 0 1 .622.094 7 7 0 0 1 .069.01h.002a7 7 0 0 1 4.841 3.68 7 7 0 0 1 .004.005l.008.016a7 7 0 0 1 .268.6l.03.085a7 7 0 0 1 .183.547c.018.063.032.128.048.192a7 7 0 0 1 .104.457c.017.094.03.19.043.285a7 7 0 0 1 .049.404c.016.195.029.39.029.59a7 7 0 0 1-.08 1h1.008A8 8 0 0 0 19 11c0-.27-.013-.536-.04-.799a8 8 0 0 0-.001-.008 7.965 7.965 0 0 0-3.63-5.922c-.003 0-.005-.002-.007-.003a8 8 0 0 0-.017-.01 7.95 7.95 0 0 0-.674-.387h-.002a8 8 0 0 0-.004-.002 7.95 7.95 0 0 0-.684-.307 8 8 0 0 0-.154-.056 7.902 7.902 0 0 0-.572-.19 8 8 0 0 0-.236-.062 7.96 7.96 0 0 0-.538-.12 8 8 0 0 0-.28-.042 8.037 8.037 0 0 0-.473-.057A8 8 0 0 0 11 3zm0 2c-3.324 0-6 2.676-6 6h3c0-1.662 1.338-3 3-3V5zm0 4c-1.108 0-2 .892-2 2s.892 2 2 2v-1c-.554 0-1-.446-1-1s.446-1 1-1 1 .446 1 1h1c0-1.108-.892-2-2-2zm3 4v1h-1v1h1v2h-1v1h1v1h1v-1h2v1h1v-1h1v-1h-1v-2h1v-1h-1v-1h-1v1h-2v-1h-1zm1 2h2v2h-2v-2z" fill="currentColor" color="#5d656b"/></svg>