<svg xmlns="http://www.w3.org/2000/svg" viewBox="0 0 22 22"><path d="M11 3a8 8 0 0 0-8 8 8 8 0 0 0 8 8 8 8 0 0 0 8-8 8 8 0 0 0-8-8zm0 1a7 7 0 0 1 7 7 7 7 0 0 1-7 7 7 7 0 0 1-7-7 7 7 0 0 1 7-7zm0 2a5 5 0 0 0-3.318 1.268l.709.709A4 4 0 0 1 11 7a4 4 0 0 1 4 4h1a5 5 0 0 0-5-5zm1.344 2.166l-2.147 4.977c-.123.14-.21.31-.258.494l-.02.092-.005.013h.006c-.09.562.22 1.087.719 1.213.498.125 1.02-.19 1.207-.728l.008.002v-.03l.023-.074a1.2 1.2 0 0 0 .006-.55l.46-5.409zm-5.87.723A5 5 0 0 0 6 11h1a4 4 0 0 1 .238-1.348l-.763-.763z" fill="currentColor" color="#5d656b"/></svg>