<svg xmlns="http://www.w3.org/2000/svg" viewBox="0 0 22 22"><path d="M11 3a8 8 0 1 0 0 16 8 8 0 0 0 0-16zm0 1a7 7 0 0 1 4.531 1.666v.002l.031.05L11 10.282 6.437 5.72l.02-.033A7 7 0 0 1 11 4zM5.719 6.438L10.28 11 5.72 15.563c-.102-.122-.168-.188-.262-.297A7 7 0 0 1 4 11a7 7 0 0 1 1.666-4.53l.053-.032zm10.562 0l.024.007A7 7 0 0 1 18 11a7 7 0 0 1-1.678 4.545c-.015.008-.025.009-.04.018L11.718 11l4.562-4.563zM11 11.718l4.563 4.563-.012.026A7 7 0 0 1 11 18a7 7 0 0 1-4.559-1.693l-.003-.026L11 11.72z" fill="currentColor" color="#5d656b"/></svg>