<svg xmlns="http://www.w3.org/2000/svg" viewBox="0 0 22 22"><path d="M11 3C9.895 3 8.656 5.344 8.656 5.344s-2.531-.781-3.312 0c-.781.78 0 3.312 0 3.312S3 9.896 3 11c0 1.105 2.344 2.344 2.344 2.344s-.781 2.531 0 3.312c.78.781 3.312 0 3.312 0S9.896 19 11 19c1.105 0 2.344-2.344 2.344-2.344s2.531.781 3.312 0c.781-.78 0-3.312 0-3.312S19 12.104 19 11c0-1.105-2.344-2.344-2.344-2.344s.781-2.531 0-3.312c-.78-.781-3.312 0-3.312 0S12.104 3 11 3zm0 4a4 4 0 1 1 0 8 4 4 0 0 1 0-8z" fill="currentColor" color="#5d656b"/></svg>