<svg xmlns="http://www.w3.org/2000/svg" viewBox="0 0 22 22"><path d="M9 2v2.13c-.977.143-1.81.4-2.463.802-1.01.615-1.516 1.558-1.516 2.83C5.017 9.957 6.58 10.68 9 11.346v4.99c-1.173-.1-2.245-.32-3.377-.803L5 16.89c.565.301 1.327.562 2.29.785.543.122 1.11.2 1.71.254V20h1v-2.023c.17.004.314.023.494.023.164-.001.336-.015.506-.023V20h1v-2.12c1.997-.284 3.98-1.201 3.959-3.687-.07-1.829-1.203-2.507-3.959-3.476V5.764c.903.12 2.002.372 3.225.982L16 5.203c-.55-.295-1.831-.766-2.646-.941a11.701 11.701 0 0 0-1.354-.2V2h-1v2.014c-.092-.002-.178-.014-.271-.014-.257 0-.488.02-.729.033V2H9zm1.438 3.648c.15.001.362.01.562.018v4.701c-.157-.053-.255-.093-.422-.148-.179-.044-.385-.108-.578-.16V5.662c.146-.006.292-.014.438-.014zM9 5.76v3.996c-1.227-.435-2.357-1.091-2.324-2.19C6.616 6.526 7.68 5.976 9 5.76zm1 5.853c.184.047.33.092.521.14.161.047.318.098.479.145v4.493c-.15.003-.311.018-.451.017-.192-.002-.365-.014-.549-.02v-4.775zm2 .598c1.281.448 2.32 1.035 2.297 2.064-.039 1.396-1.132 1.883-2.297 2.05V12.21z" fill="currentColor" color="#5d656b"/></svg>