<svg xmlns="http://www.w3.org/2000/svg" viewBox="0 0 22 22"><defs id="defs3051"><style type="text/css" id="current-color-scheme">.ColorScheme-Text{color:#5d656b}</style></defs><path d="M3 2v17h17V2H3zm1 1h7v7H4V3zm8 0h7v7h-7V3zm-8 8h7v7H4v-7zm8 0h7v7h-7v-7z" class="ColorScheme-Text" fill="currentColor" fill-opacity=".1"/><path d="M4 3v7h7V3H4zm8 0v6.293L18.293 3H12zm7 .707L12.707 10H19V3.707zM4 11v6.293L10.293 11H4zm8 0v7h7v-7h-7zm-1 .707L4.707 18H11v-6.293z" class="ColorScheme-Text" fill="currentColor" fill-opacity=".5"/><path d="M19.293 2L3 18.293V19h.707L20 2.707V2h-.707z" class="ColorScheme-Text" fill="currentColor"/></svg>