<svg xmlns="http://www.w3.org/2000/svg" viewBox="0 0 22 22"><path d="M7.5 3C5.567 3 4 4.79 4 7v3c0 2.21 1.567 4 3.5 4s3.5-1.79 3.5-4V7c0-2.21-1.567-4-3.5-4zm8 0C13.567 3 12 4.79 12 7v3c0 2.21 1.567 4 3.5 4s3.5-1.79 3.5-4V7c0-2.21-1.567-4-3.5-4zm-8 1C8.88 4 10 5.343 10 7v3c0 1.657-1.12 3-2.5 3S5 11.657 5 10V7c0-1.657 1.12-3 2.5-3zm8 0C16.88 4 18 5.343 18 7v3c0 1.657-1.12 3-2.5 3S13 11.657 13 10V7c0-1.657 1.12-3 2.5-3zM3 13v1h1v-1H3z" fill="currentColor" color="#5d656b"/><path d="M15 15v2h-2v1h2v2h1v-2h2v-1h-2v-2h-1z" fill="currentColor" color="#3daee9"/></svg>