<svg xmlns="http://www.w3.org/2000/svg" viewBox="0 0 22 22"><defs id="defs3051"><style type="text/css" id="current-color-scheme">.ColorScheme-Text{color:#5d656b}</style></defs><g transform="translate(-421.714 -525.79)"><path id="path3011" d="M432.718 528.79c-.319 0-.628.027-.938.064a8.18 8.18 0 0 0-.905.156c-.094.022-.185.067-.281.094-.084.023-.167.037-.25.063-.105.033-.214.059-.313.094-.107.038-.207.083-.313.125-.206.083-.397.182-.594.28-.071.036-.15.056-.22.094-.23.121-.44.263-.655.406-.082.055-.17.098-.25.156-.033.024-.061.038-.094.063-.094.071-.191.142-.281.219-.107.089-.21.187-.313.28-.032.03-.062.065-.094.095l-.031.03c-.016.017-.015.048-.031.064-.21.204-.439.399-.625.625-.005.01.005.025 0 .03-.18.22-.343.448-.5.688-.02.032-.042.061-.063.094-.015.024-.047.037-.063.063-.06.098-.1.21-.156.313-.018.033-.045.061-.063.094-.075.146-.15.29-.219.438-.004.01.004.023 0 .03a8.026 8.026 0 0 0-.313.781c-.019.053-.045.103-.063.156-.003.01.003.022 0 .031-.02.062-.044.125-.063.188-.073.257-.14.514-.188.781-.034.192-.074.397-.094.594a8.104 8.104 0 0 0-.03.812c0 .404.035.8.093 1.188.006.04-.007.085 0 .125.044.266.118.525.188.78.026.096.064.186.094.281.04.13.08.25.125.375.077.212.156.422.25.625.05.106.102.21.156.313a8 8 0 0 0 .5.843c.016.024.046.04.063.063.198.281.394.56.625.813.04.044.084.082.125.125.04.042.084.084.125.125.214.214.45.405.688.594.306.243.629.458.969.655.012.01.019.024.03.031.054.03.104.065.157.094.316.156.692.325.938.438.11.042.23.057.344.094.053.018.103.046.156.063.136.04.268.09.406.125l.125.03c.291.07.601.122.905.157.31.036.618.063.938.063.34 0 .671-.021 1-.063.365-.048.681-.124 1-.188a7.909 7.909 0 0 0 4.219-2.749c.028-.035.067-.058.094-.094.009-.012.022-.02.03-.03.015-.019.019-.045.032-.064a7.964 7.964 0 0 0 1.343-2.812c.056-.216.118-.431.156-.655.005-.03-.005-.063 0-.094.006-.04.025-.08.031-.125.006-.043.026-.082.031-.125h-.03c.043-.33.093-.659.093-1 0-.551-.05-1.103-.156-1.624-.009-.043-.022-.082-.03-.125-.047-.208-.125-.423-.189-.625-.003-.01.003-.022 0-.03a3.439 3.439 0 0 0-.03-.095c-.04-.119-.082-.258-.126-.374-.012-.032-.018-.064-.03-.094-.044-.11-.109-.206-.157-.313-.002 0 .002-.026 0-.031-.025-.054-.068-.103-.094-.156a7.813 7.813 0 0 0-.313-.594c-.058-.098-.094-.217-.156-.313-.024-.036-.069-.058-.094-.094-.067-.099-.147-.185-.219-.28-.08-.1-.14-.217-.218-.314-.005-.01.005-.025 0-.03-.172-.21-.37-.403-.563-.594-.093-.092-.184-.194-.281-.281-.028-.025-.065-.038-.094-.063a8.131 8.131 0 0 0-.656-.5c-.055-.038-.101-.088-.156-.125-.07-.046-.148-.08-.22-.125-.134-.084-.265-.174-.405-.25a8.093 8.093 0 0 0-.375-.187 7.9 7.9 0 0 0-.656-.281 7.649 7.649 0 0 0-.813-.25 7.757 7.757 0 0 0-1.969-.25m0 1a7.023 7.023 0 0 1 1.406.156h.031c.166.035.338.08.5.125.096.027.187.063.281.094.172.057.334.117.5.188.194.08.379.153.563.25l-.094.031a.319.319 0 0 0-.125.125c-.02.048.005.115 0 .188.038.017.06.089.125.125.025.014.04-.01.063 0 .038.02.07.087.063.125-.011.055-.088.022-.125.063.006.078-.043.105-.063.156.012.033.057.024.063.063-.007.043-.08.049-.063.094.072.056.15-.022.219-.031.149-.02.283.04.375-.031-.012-.071.1-.092.094-.156-.006-.048-.09-.061-.125-.094-.02-.018-.04-.06-.063-.094-.026-.04-.064-.087-.094-.125-.04-.052-.125-.117-.125-.156 0-.045.052-.063.063-.125-.012-.057-.117 0-.125-.063a.162.162 0 0 1 .03-.063c.15.082.299.179.439.28l.094.064c.108.08.207.17.313.25-.067.012-.101.09-.156.156a.464.464 0 0 1-.156.125c-.028.012-.068-.016-.094 0-.037.025-.051.096-.094.125-.031.02-.124.094-.156.094-.038 0-.098-.04-.125-.031-.04.013-.017.077-.063.094-.088.03-.25-.07-.281.063.038.076.153.05.219.094a.475.475 0 0 1 .125.187.644.644 0 0 1 0 .22c-.041.105-.16.096-.281.093h-.094c-.207-.014-.407-.085-.5.063.007.113.025.183 0 .281-.018.072-.097.125-.094.188.002.032.055.082.063.125.005.023-.011.073 0 .094.034.066.127-.01.188 0 .059.01.126.12.125.188a.346.346 0 0 1-.063.156c-.058.089-.167.077-.25.125-.07.039-.084.119-.125.188-.044.074-.081.11-.063.219a.485.485 0 0 1-.25.25c-.037.016-.092.038-.125.062a.63.63 0 0 0-.094.094c-.047.052-.1.085-.125.125-.019.031-.01.084-.031.125-.029.056-.088.1-.125.156-.017.026-.043.06-.063.094-.042.077-.101.151-.094.22.007.065.089.067.094.124.004.032-.033.059-.031.094.001.051.027.086.031.125.01.099-.044.12-.063.188-.009.032.008.068 0 .094-.016.05-.093.098-.094.156-.001.042.059.097.063.156.002.04-.038.057-.031.094.014.073.162.162.219.219.075.075.155.139.188.219.027.067.041.168.094.219.039.037.106.054.156.094.047.036.107.055.156.094.08.064.183.196.313.187.068-.01.142-.05.219-.063.079-.014.17-.039.25-.03.06.01.124.065.188.062.067 0 .143-.06.219-.094.132-.057.339-.152.53-.124.147.02.15.216.25.28.119.01.22-.054.314-.03.07.016.149.131.156.187.007.058-.054.121-.063.156-.018.078-.017.17-.031.22-.011.037-.032.085-.031.124a.54.54 0 0 0 .094.188c.044.056.103.096.156.156a1.8 1.8 0 0 1 .219.375c.017.037-.016.077 0 .125-.03.224-.103.377-.25.624-.07.08-.158.15-.156.25-.005.24.136.393.125.625-.024.312.024.333 0 .5.105.053.03.233 0 .344-.045.132-.1.162-.125.25.07.03.17.019.25 0 0 0 .096.4.094.405a7.003 7.003 0 0 1-2.938 1.719c-.55.132-.713.132-.969.187a6.383 6.383 0 0 1-1.03.094c-.244 0-.484-.01-.72-.03-.182-.019-.354-.063-.53-.095a7.17 7.17 0 0 1-.157-.03c-.163-.056-.35-.089-.5-.125a7.067 7.067 0 0 1-.5-.156c.015-.013.028-.011.032-.031.009-.04.002-.062 0-.125.015-.065.08-.058.094-.125-.028-.048-.083-.038-.125-.063a.133.133 0 0 1-.063-.125c.07-.03.2.066.25-.031.025-.046-.034-.141 0-.188.023-.031.168-.055.218-.063.071-.012.148-.01.188-.031a.223.223 0 0 0 .094-.188c-.004-.04-.033-.06-.063-.094-.025-.03-.013-.066-.03-.094-.032-.047-.08-.058-.095-.125.096-.02.236.102.375.063.066-.02.157-.188.188-.25.01-.019-.01-.04 0-.063.012-.026.06-.049.063-.063.01-.036-.008-.071 0-.094.024-.068.085-.075.125-.125.03-.038.065-.087.094-.125.031-.04.042-.089.063-.125.02-.122-.06-.206-.03-.313.031-.12.195-.165.312-.219.04-.019.092-.05.125-.063.08-.028.176-.036.25-.063.125-.046.157-.166.22-.28a.611.611 0 0 0 .062-.156c.005-.035-.007-.053 0-.094.006-.04.02-.081.031-.125a1.1 1.1 0 0 0 .031-.22c0-.052-.029-.077-.03-.124-.01-.173.06-.218.124-.313.032-.047.04-.09.063-.125.108-.16.295-.226.281-.469-.005-.08-.035-.255-.094-.28-.034-.015-.107-.011-.156-.031-.158-.06-.274-.27-.438-.281-.035 0-.055.03-.094.03-.065 0-.147-.052-.219-.062-.046-.01-.129.013-.156 0-.042-.02-.029-.102-.063-.125-.027-.018-.084-.015-.125-.031-.066-.025-.112-.056-.188-.063-.023-.001-.067 0-.094 0-.042-.01-.086-.04-.125-.063a.208.208 0 0 1-.094-.094c.044-.144-.096-.167-.125-.25-.014-.04.013-.09 0-.125-.017-.05-.07-.084-.125-.125-.097-.074-.174-.139-.313-.156-.06-.01-.145 0-.219 0a.367.367 0 0 1-.218-.125c-.056-.065-.076-.125-.125-.156-.047-.03-.124-.03-.156-.063-.014-.014-.017-.03-.031-.063-.023-.048-.061-.098-.031-.156-.053-.027-.035.072-.094.063-.052-.074-.101-.115-.22-.094-.053.01-.092.06-.155.063-.052 0-.088-.053-.156-.063-.052-.01-.12.036-.156.031-.057-.01-.073-.059-.125-.094-.038-.025-.104-.095-.125-.094-.067 0-.126.143-.22.094-.044-.057.086-.07.032-.125-.04-.04-.061.01-.094.031a.666.666 0 0 1-.125.063c-.092.034-.147.025-.22.063-.065.034-.086.088-.124.156-.031.056-.08.153-.125.156-.056 0-.106-.072-.156-.094-.153-.066-.248.03-.375.031-.118 0-.287-.17-.281-.28.004-.068.054-.167.063-.25.006-.067.062-.128.063-.189 0-.08-.135-.147-.188-.156-.125-.023-.295.061-.438 0-.027-.045.047-.08.063-.124.009-.025-.01-.034 0-.063.016-.042.074-.08.094-.125.015-.034.016-.082.03-.125.018-.05.06-.091.064-.125.005-.045-.027-.095-.063-.125-.111.01-.187 0-.25.03-.144.067-.106.267-.25.314-.05.016-.133.02-.188.03-.047.01-.107.033-.156.032a.354.354 0 0 1-.188-.094.174.174 0 0 1-.03-.063c.001-.01-.003-.021 0-.031.045-.223.092-.444.155-.656.003-.01-.003-.022 0-.031.042-.139.103-.27.156-.406.013-.01.019-.023.031-.03.077-.054.156-.12.25-.126.057 0 .164.02.219.031.05.01.082.06.125.063.123.01.149-.103.25-.156.104.015.156-.01.25 0 .064.01.138.09.188.094.042 0 .053-.069.094-.063.04.01.119.108.125.156.007.06-.048.122-.031.188.063.064.19.056.28.094.06-.048.01-.118 0-.188-.001-.03.005-.066 0-.094-.005-.048-.03-.084-.03-.125-.001-.19.154-.3.28-.375.056-.033.109-.069.157-.094.067-.034.1-.063.156-.094.1-.057.202-.092.28-.155.038-.086-.003-.196 0-.281.038-.022.056 0 .095 0 .06-.013.09-.091.125-.125.02-.02.069-.043.094-.063.06-.048.072-.104.125-.125.019-.01.064-.017.094-.031.04-.011.092-.04.156-.063.042-.014.14-.015.156-.031.02-.02-.006-.095 0-.125.032-.151.272-.168.406-.22.094-.035.178-.113.28-.093-.02.072-.11.038-.093.125.023.12.176-.013.219-.031.08-.034.236-.055.343-.094.094-.034.245-.08.156-.188-.074 0-.092.066-.156.094-.044.01-.056-.027-.094-.031-.036 0-.057.038-.094.03-.037-.01-.088-.081-.094-.124-.015-.111.11-.136.156-.219-.03-.1-.166-.024-.25-.063a.148.148 0 0 1 .125-.125c.057-.01.185.01.22.031.02.017 0 .066.03.094.034.031.081.01.125 0 .016-.076-.106-.043-.094-.094.09-.059.265-.016.375-.03.063-.01.131-.063.188-.095.054-.03.1-.08.156-.03.016.053-.032.065-.063.093a2.182 2.182 0 0 0-.28.313c.048.048.135.022.218.031.032 0 .06.025.094.031.04.01.094-.012.125 0 .056.014.07.094.125.094.091 0 .083-.125.031-.188.016-.063.053-.08.031-.125-.04-.082-.21.014-.219-.094-.005-.067.07-.075.094-.125-.01-.129.106-.135.094-.25-.006-.048-.06-.049-.094-.094-.017-.023-.01-.076-.03-.094-.07-.059-.21-.044-.22-.156-.004-.066.01-.115 0-.188-.009-.067-.066-.267-.125-.28-.075-.016-.129.113-.219.155a.389.389 0 0 1-.188.031c-.032-.01-.089-.032-.094-.094-.006-.07.05-.082.063-.155-.01-.044-.05-.03-.094-.063-.049-.037-.09-.116-.156-.125-.033 0-.093.029-.125.03-.06 0-.105-.014-.155-.03.02-.01.04-.024.063-.031.121-.042.25-.06.374-.094.022-.01.041-.025.063-.031.031.033.056.103.094.125.025.014.063-.01.094 0 .098.03.174.085.281.063.037-.065-.074-.074-.03-.125.071.01.131.04.187.063.077-.056.128-.066.125-.156 0-.046-.062-.063-.094-.094.063-.011.124-.022.188-.031.005.017.021.03.031.03.038.01.165-.05.188-.062.004 0-.006-.027 0-.031.253-.027.521-.031.781-.031m-2.5.469c-.022.043-.046.079-.093.094.012.065-.084.104-.094.155-.006.035-.002.094 0 .125.02.32-.251.477-.563.47-.061.057-.03.169-.063.249-.028.067-.12.13-.188.125-.05 0-.125-.08-.125-.125 0-.057.08-.091.03-.156.008-.044.107-.086.095-.156-.012-.074-.096-.019-.188-.03a.923.923 0 0 1-.188-.064c.1-.067.205-.126.313-.188.094-.056.185-.105.28-.156.253-.127.523-.244.782-.343m5.374.749c-.027 0-.04.018-.063.031-.051.031-.054.079-.094.094-.054.021-.117.01-.125.063-.006.041.033.055.03.094-.02.049-.052.066-.062.125.068.11.229-.01.313-.031.038-.011.073 0 .094-.031.023-.035.013-.105.03-.156.02-.056.07-.043.064-.094-.006-.05-.106-.102-.188-.094m-7.312.78c.06.017.196.194.063.25a.931.931 0 0 1-.22.032c-.045-.01-.077-.086-.124-.094-.092-.016-.218.1-.281 0 .016-.06.086-.043.156-.063.125-.034.298-.153.406-.125m.25.312c.03 0 .056.06.094.063.036 0 .072-.036.094-.03.056.014.084.114.03.155-.043 0-.06-.037-.093-.03-.091.015-.12.192-.188.187-.064-.01-.096-.14-.031-.188.002-.04-.033-.054-.031-.094.02-.025.072-.066.125-.063m-.313.031h.03c-.008.071-.038.091-.093.125a.378.378 0 0 0-.188.25c-.01.036-.111.134-.156.125-.106-.022.038-.22.063-.25.027-.033.062-.056.094-.094.03-.037.033-.105.063-.125a.441.441 0 0 1 .188-.03m9.499.03c.048.013.058.07.094.094.027.018.064.012.094.031.035.022.054.06.094.094.056.047.14.088.219.125.016.01.044.023.063.031.055.071.104.145.156.22.006.04.012.098.03.124.053.071.132.132.189.219-.001.083.036.133.094.156.073.124.149.248.219.375.029.058.035.129.063.188-.021 0-.043.01-.063 0-.066-.116-.41-.14-.438.03-.013.076.049.176-.063.189-.071.01-.153-.073-.25-.094-.04-.01-.094.014-.125 0-.073-.025-.062-.112-.125-.156a.547.547 0 0 0-.188-.063h-.094c-.045-.01-.118-.01-.156-.031-.036-.022-.116-.062-.125-.094-.014-.05.09-.114.094-.156.002-.031-.023-.045-.031-.094-.005-.03.006-.074 0-.094-.01-.034-.071-.062-.125-.063-.048 0-.084.03-.125.03-.06.002-.177-.036-.25-.03-.044 0-.084.028-.125.03-.116.01-.191-.01-.281 0a.76.76 0 0 0-.25.064c-.031.014-.054.043-.094.063a.619.619 0 0 1-.063.03c-.038.018-.09.054-.125.064-.052.013-.124 0-.22 0-.067 0-.186-.014-.187-.094-.001-.123.227-.072.344-.094.044-.01.073-.063.125-.094.025-.015.039-.015.063-.031.04-.028.119-.093.125-.125.006-.03-.035-.072-.031-.094.005-.028.057-.058.094-.094.056-.055.087-.12.156-.156.047-.025.135-.024.156-.063.005-.043-.001-.055 0-.094.029-.027.038-.058.063-.063.072-.016.135.035.219.031.036 0 .086-.01.125-.031.033-.022.062-.045.094-.063.035-.018.05-.059.094-.063.105-.01.17.124.219.188.04.053.153.119.219.156.037.02.084.045.125.063.087.039.247.165.25.25.002.042-.038.054-.031.094.066.01.123-.06.125-.125 0-.041-.04-.05-.031-.094.03-.066.148-.01.188-.031-.007-.075-.124-.086-.188-.125-.034-.021-.058-.048-.094-.063-.052-.021-.116-.032-.156-.063-.038-.03-.057-.08-.094-.125-.054-.064-.158-.073-.125-.219.016-.022.037-.069.063-.063m-8.812.219h.094c.034.001.08-.018.094 0-.022.088-.212.063-.281.031.004-.033.05-.027.094-.031m-.313.156c.023 0 .039-.01.063 0a.71.71 0 0 1-.25.125c-.051.016-.116.025-.125-.031-.011-.07.047-.056.094-.063.058-.01.15-.03.219-.031m8.687 0c-.043.014-.066.113 0 .125.03-.018.039-.068.03-.125-.016-.018-.016 0-.03 0m-.031.188c-.021.01-.04.01-.063.03 0 .076.015.124 0 .189.043.082.134.026.156-.031.026-.14-.03-.205-.094-.188m.438.375c.049.08.14.137.25.156.04-.03.044-.105.063-.156h-.156c-.06 0-.122-.028-.156 0M426 535.79c.164-.01.212.216.344.281.033.017.082.022.125.031.035.01.061.02.094.031.071.024.162.01.22.031.084.038.145.207.218.25.004.043-.013.093 0 .125.035.047.1.064.156.094.068.037.092.127.156.156.022.01.06-.01.094 0 .088.027.112.147.188.125.05-.014.055-.078.063-.125.033-.036.074-.093.125-.094.083 0 .095.075.125.156.017.046.051.108.063.156.021.083.017.325 0 .375-.021.06-.106.089-.156.156-.024.03-.044.07-.063.094-.032.04-.069.057-.094.094-.014.02-.018.066-.031.094-.04.085-.096.148-.063.25.014.041.062.075.063.124 0 .058-.115.093-.125.156-.007.047.048.126.063.188.011.047.097.094.125.125.047.053.082.121.125.188.085.13.136.28.219.406.043.066.127.119.156.188.015.035-.014.094 0 .125.048.108.266.228.375.28.05.026.11 0 .156.032a.919.919 0 0 1 .25.219c.032.056.047.193.063.28.02.117-.005.217 0 .344.004.07.03.12.03.188 0 .024.002.07 0 .094-.001.083.008.166 0 .25a.744.744 0 0 0 0 .125c.005.041.029.057.032.094.002.039-.035.095-.031.125.009.084.077.142.094.219.013.06.039.208.03.28-.004.04-.024.084-.03.126-.004.033.005.062 0 .094-.006.047-.034.08-.031.125.006.09.08.16.094.25.005.03-.001.065 0 .094 0 .027.023.038.03.063a6.979 6.979 0 0 1-.749-.5 7.065 7.065 0 0 1-.656-.563l-.031-.031a7.23 7.23 0 0 1-.594-.656c-.104-.132-.218-.267-.313-.405-.056-.083-.104-.164-.156-.25-.032-.051-.063-.104-.094-.156a6.577 6.577 0 0 1-.25-.469c-.049-.101-.08-.208-.125-.313a6.742 6.742 0 0 1-.28-.75c-.055-.184-.087-.37-.126-.562-.03-.146-.073-.29-.094-.438-.01-.081-.023-.168-.03-.25a7.108 7.108 0 0 1 .031-1.593v-.031c.063 0 .15-.092.22-.094m2.687.75c.064-.03.084.117.03.125-.05.01-.08-.102-.03-.125" class="ColorScheme-Text" fill="currentColor" fill-opacity="1"/></g></svg>