<svg xmlns="http://www.w3.org/2000/svg" viewBox="0 0 22 22"><path d="M2 3v16h14l4-8-4-8H2m5.428 4v.592c-.711 0-.721.239-.721 1.105v1.018c0 .415-.124 1.033-.723 1.289.6.256.723.875.723 1.29v1.009c0 .866.01 1.105.72 1.105V15c-1.065 0-1.513-.352-1.513-1.254v-1.223c0-.556-.02-1.2-.61-1.2H5v-.645h.305c.589 0 .61-.645.61-1.201V8.254C5.914 7.352 6.361 7 7.427 7m3.136 0c1.067 0 1.522.352 1.522 1.254v1.223c0 .556.04 1.2.62 1.2H13v.645h-.295c-.579 0-.62.645-.62 1.201v1.223c0 .902-.454 1.254-1.52 1.254v-.592c.71 0 .728-.239.728-1.105v-1.008c0-.416.124-1.035.723-1.291-.6-.256-.723-.874-.723-1.29V8.698c0-.866-.018-1.105-.729-1.105V7" fill="currentColor" color="#5d656b"/></svg>