<svg xmlns="http://www.w3.org/2000/svg" viewBox="0 0 22 22"><path d="M11 3.121L9.125 4.996 7.949 6.172l.707.707 1.176-1.176L11 4.535l1.168 1.168 1.176 1.176.707-.707-1.176-1.176L11 3.121zM6.172 7.95L4.996 9.125 3.121 11l1.875 1.875 1.176 1.176.707-.707-1.176-1.176L4.535 11l1.168-1.168L6.88 8.656l-.707-.707zm9.656 0l-.707.707 1.176 1.176L17.465 11l-1.168 1.168-1.176 1.176.707.707 1.176-1.176L18.879 11l-1.875-1.875-1.176-1.176zM11 8.172L8.172 11 11 13.828 13.828 11 11 8.172zm0 1.414L12.414 11 11 12.414 9.586 11 11 9.586zM8.656 15.12l-.707.707 1.176 1.176L11 18.879l1.875-1.875 1.176-1.176-.707-.707-1.176 1.176L11 17.465l-1.168-1.168-1.176-1.176z" fill="currentColor" color="#5d656b"/></svg>