<svg xmlns="http://www.w3.org/2000/svg" viewBox="0 0 22 22"><path d="M15.316 7.61v6.656h1.061V7.609h-1.06zm-9.601.408L3 14.266h1.232L4.8 12.84h2.697l.58 1.426h1.266L6.658 8.018h-.943zm.428 1.332c.088.3.187.583.293.85l.673 1.683H5.172l.67-1.654c.111-.275.212-.567.3-.88zm5.896.552c-.647 0-1.194.206-1.64.616-.447.406-.67.947-.67 1.623 0 .67.207 1.212.623 1.627.415.415.962.623 1.64.623.424 0 .783-.066 1.078-.198.298-.134.544-.313.739-.537.197-.223.333-.467.408-.73.077-.266.115-.484.115-.653 0-.34-.03-.612-.09-.812a2.235 2.235 0 0 0-.459-.842 1.943 1.943 0 0 0-.77-.54 2.635 2.635 0 0 0-.974-.177zm0 .938c.404 0 .707.129.91.387.206.257.309.579.309.968 0 .224-.047.436-.145.633a1.113 1.113 0 0 1-.443.47 1.266 1.266 0 0 1-.666.179c-.346 0-.632-.12-.861-.358-.227-.24-.34-.559-.34-.957 0-.398.117-.716.351-.957.235-.243.53-.365.885-.365zm6.262 2.078a.686.686 0 0 0-.504.205.685.685 0 0 0-.201.498c0 .195.07.36.207.498a.687.687 0 0 0 .498.203.67.67 0 0 0 .492-.207.675.675 0 0 0 .207-.494.68.68 0 0 0-.207-.498.66.66 0 0 0-.492-.205z" fill="currentColor" color="#5d656b"/></svg>