<svg xmlns="http://www.w3.org/2000/svg" viewBox="0 0 22 22"><path d="M10 3C6.676 3 4 5.676 4 9v4l-1 4 4-2h3c.819 0 1.597-.165 2.307-.459a3.997 3.997 0 0 1-.252-.99c-.628.283-1.32.449-2.055.449H5V9c0-2.77 2.23-5 5-5s5 2.23 5 5c0 .048-.007.093-.008.14C15.316 9.058 15.65 9 16 9c0-3.324-2.676-6-6-6zm6 7a2.993 2.993 0 0 0-1.809 5.38L16 19l1.809-3.62A2.993 2.993 0 0 0 16 10zm0 1c1.108 0 2 .892 2 2s-.892 2-2 2-2-.892-2-2 .892-2 2-2zm-10 .979V12h.018c-.006-.01-.012-.013-.018-.021z" fill="currentColor" color="#5d656b"/></svg>