<svg xmlns="http://www.w3.org/2000/svg" viewBox="0 0 22 22"><path d="M14.078 4.5a3.282 3.282 0 0 0-3.2 4.03 9.318 9.318 0 0 1-6.765-3.428A3.259 3.259 0 0 0 3.67 6.75a3.28 3.28 0 0 0 1.459 2.732 3.264 3.264 0 0 1-1.486-.41v.041a3.283 3.283 0 0 0 2.632 3.217 3.286 3.286 0 0 1-1.482.057 3.286 3.286 0 0 0 3.066 2.279 6.584 6.584 0 0 1-4.076 1.404c-.265 0-.526-.014-.783-.045A9.29 9.29 0 0 0 8.031 17.5c6.038 0 9.34-5 9.34-9.338 0-.142-.005-.283-.01-.424A6.672 6.672 0 0 0 19 6.04a6.56 6.56 0 0 1-1.885.516 3.286 3.286 0 0 0 1.442-1.815 6.569 6.569 0 0 1-2.084.797A3.276 3.276 0 0 0 14.078 4.5z" fill="currentColor" color="#5d656b"/></svg>