<svg xmlns="http://www.w3.org/2000/svg" viewBox="0 0 22 22"><defs id="defs3051"><style type="text/css" id="current-color-scheme">.ColorScheme-Text{color:#5d656b}</style></defs><path d="M17.969 6.531c.013.072.031.143.031.219v7.5c0 .693-.557 1.25-1.25 1.25H4.25c-.076 0-.147-.018-.219-.031A1.238 1.238 0 0 0 5.25 16.5h12.5c.693 0 1.25-.557 1.25-1.25v-7.5c0-.617-.446-1.114-1.031-1.219z" class="ColorScheme-Text" fill="currentColor" fill-opacity=".5"/><path d="M4.25 5.5C3.557 5.5 3 6.057 3 6.75v7.5c0 .693.557 1.25 1.25 1.25h12.5c.693 0 1.25-.557 1.25-1.25v-7.5c0-.693-.557-1.25-1.25-1.25H4.25zm9.75 2h1v4H9v2L6 11l3-2.5v2h5v-3z" class="ColorScheme-Text" fill="currentColor"/></svg>