<svg xmlns="http://www.w3.org/2000/svg" viewBox="0 0 22 22"><path d="M3 3v1h10V3H3zm0 2v1h6V5H3zm0 4v1h8V9H3zm0 2v1h4v-1H3zm0 4v1h7v-1H3zm0 2v1h2v-1H3z" fill="currentColor" color="#5d656b"/><path d="M16 3v1h1v2h-1v1h3V6h-1V4h1V3h-3zm-6 2v1h1V5h-1zm2 0v1h1V5h-1zm2 0v1h1V5h-1zm0 4v1h1v2h-1v1h5v-1h-1v-2h1V9h-5zm2 1h1v2h-1v-2zm-8 1v1h1v-1H8zm2 0v1h1v-1h-1zm2 0v1h1v-1h-1zm0 4v1h1v2h-1v1h7v-1h-1v-2h1v-1h-7zm2 1h1v2h-1v-2zm2 0h1v2h-1v-2zM6 17v1h1v-1H6zm2 0v1h1v-1H8zm2 0v1h1v-1h-1z" fill="currentColor" color="#3daee9"/></svg>