<svg xmlns="http://www.w3.org/2000/svg" viewBox="0 0 22 22"><path d="M15 4L3 7.418v6.164l1 .285V16.3l6 1.7v-2.424L15 17V4zm4.03.428l-.772.63A11 11 0 0 1 20 10.999a11 11 0 0 1-1.75 5.932l.783.642A12 12 0 0 0 21 10.998a12.003 12.003 0 0 0-1.97-6.57zm-5.03.9v10.344L4 12.824V8.176l10-2.848zm2.69 1.016l-.782.638A8 8 0 0 1 17 10.998a7.996 7.996 0 0 1-1.09 4.018l.781.64A9 9 0 0 0 18 10.998a8.999 8.999 0 0 0-1.31-4.654zM2 7.704l-1 .284v5.024l1 .285V7.703zm3 6.448l4 1.139v1.426l-4-1.133v-1.432z" fill="currentColor" color="#5d656b"/></svg>