<svg xmlns="http://www.w3.org/2000/svg" viewBox="0 0 22 22"><path d="M4.5 3A1.5 1.5 0 0 0 3 4.5a1.5 1.5 0 0 0 1 1.412v10.176A1.5 1.5 0 0 0 3 17.5 1.5 1.5 0 0 0 4.5 19 1.5 1.5 0 0 0 6 17.5a1.5 1.5 0 0 0-1-1.412V11.73A2 2 0 0 0 6 12h10a1 1 0 0 1 1 1v3.088a1.5 1.5 0 0 0-1 1.412 1.5 1.5 0 0 0 1.5 1.5 1.5 1.5 0 0 0 1.5-1.5 1.5 1.5 0 0 0-1-1.412V13a2 2 0 0 0-2-2H6a1 1 0 0 1-1-1V5.912A1.5 1.5 0 0 0 6 4.5 1.5 1.5 0 0 0 4.5 3zm0 1a.5.5 0 0 1 .5.5.5.5 0 0 1-.5.5.5.5 0 0 1-.5-.5.5.5 0 0 1 .5-.5zm0 13a.5.5 0 0 1 .5.5.5.5 0 0 1-.5.5.5.5 0 0 1-.5-.5.5.5 0 0 1 .5-.5zm13 0a.5.5 0 0 1 .5.5.5.5 0 0 1-.5.5.5.5 0 0 1-.5-.5.5.5 0 0 1 .5-.5z" fill="currentColor" color="#5d656b"/></svg>