<svg xmlns="http://www.w3.org/2000/svg" viewBox="0 0 22 22"><path d="M6.5 3A1.5 1.5 0 0 0 5 4.5a1.5 1.5 0 0 0 1 1.412V15a2 2 0 0 0 2 2h1v2l3-2.5L9 14v2H8a1 1 0 0 1-1-1V5.912A1.5 1.5 0 0 0 8 4.5 1.5 1.5 0 0 0 6.5 3zM13 3l-3 2.5L13 8V6h1a1 1 0 0 1 1 1v9.088a1.5 1.5 0 0 0-1 1.412 1.5 1.5 0 0 0 1.5 1.5 1.5 1.5 0 0 0 1.5-1.5 1.5 1.5 0 0 0-1-1.412V7a2 2 0 0 0-2-2h-1V3zM6.5 4a.5.5 0 0 1 .5.5.5.5 0 0 1-.5.5.5.5 0 0 1-.5-.5.5.5 0 0 1 .5-.5zm9 13a.5.5 0 0 1 .5.5.5.5 0 0 1-.5.5.5.5 0 0 1-.5-.5.5.5 0 0 1 .5-.5z" fill="currentColor" color="#5d656b"/></svg>