<svg xmlns="http://www.w3.org/2000/svg" viewBox="0 0 22 22"><path d="M8 3a5 5 0 0 1-.084.885 5 5 0 0 1-.111.484 5 5 0 0 1 0 .002 5 5 0 0 1-.162.475 5 5 0 0 1 0 .002 5 5 0 0 1-2.598 2.707 5 5 0 0 1-.455.18 5 5 0 0 1-.01.003 5 5 0 0 1-.012.004 5 5 0 0 1-.455.127 5 5 0 0 1-.015.004A5 5 0 0 1 3 8v1a6 6 0 0 0 1.414-.176l.951 2.852A8.959 8.959 0 0 1 3 12v.662a10.31 10.31 0 0 0 4.8-1.187l.67 1.052.538.842v.002a12 12 0 0 0 .844-.535l-.004-.006a11.965 11.965 0 0 0 4.527-6.059l2.154.616.74.248c.475-1.475.728-3.08.731-4.635h-1a14.322 14.322 0 0 1-.426 3.36l-7.693-2.2A6 6 0 0 0 9 3H8zm.61 2.123l4.808 1.375a10.968 10.968 0 0 1-4.105 5.492l-.649-1.02-.424-.667a9 9 0 0 1-.699.45 9.039 9.039 0 0 1-1.23.595l-.946-2.836A6 6 0 0 0 8.61 5.123zm3.513 5.666a12 12 0 0 1-.682.732l1.452 1.348A13.986 13.986 0 0 1 3 17v1a14.983 14.983 0 0 0 10.617-4.459l2.21 2.053A18 18 0 0 1 11.188 19h2.02a19 19 0 0 0 3.346-2.729l.01.008a19 19 0 0 0 .681-.732l-.006-.004A19 19 0 0 0 19 13.246v-2.039a18 18 0 0 1-2.508 3.64l-2.18-2.025-.726-.674-1.463-1.359z" fill="currentColor" color="#5d656b"/></svg>