<svg xmlns="http://www.w3.org/2000/svg" viewBox="0 0 22 22"><path d="M14 3l-5.264 7.178a4.5 4.5 0 0 1 .45.156A4.478 4.478 0 0 0 7.5 10a4.5 4.5 0 0 0-3.18 1.32 4.5 4.5 0 0 0-.627.787l2.094 2.094-1.396 1.904a3.5 3.5 0 0 0 1.505 1.502L7.8 16.213l2.096 2.096a4.5 4.5 0 0 0 .785-.63A4.5 4.5 0 0 0 12 14.5c0-.581-.12-1.133-.32-1.643a4.5 4.5 0 0 1 .144.405L19 8l-5-5zm-8.086.086l-2.828 2.83 3.672 3.67 2.828-2.828-3.672-3.672zm8.203 1.445l3.352 3.352-6.041 4.431a4.5 4.5 0 0 1 .172.348 4.505 4.505 0 0 0-2.243-2.252 4.5 4.5 0 0 1 .332.16l4.428-6.039zM7.5 11a3.5 3.5 0 0 1 3.5 3.5 3.5 3.5 0 0 1-1.027 2.473l-4.946-4.946A3.5 3.5 0 0 1 7.5 11zm7.742 1.414l-2.828 2.83 3.672 3.672 2.828-2.83-3.672-3.672zM3.748 16.98L3 18l1 1 1.02-.748a4.5 4.5 0 0 1-1.272-1.272z" fill="currentColor" color="#5d656b"/></svg>