<svg xmlns="http://www.w3.org/2000/svg" viewBox="0 0 22 22"><path d="M7.03 3l-.704 1.809A17.496 17.496 0 0 1 3 3.424v1.389c.933.464 1.892.857 2.875 1.158L4.381 9.816C3.91 9.602 3.453 9.357 3 9.1v1.408c.309.159.617.32.932.463L3 13.369v3.418l.055-.14a18.738 18.738 0 0 0 7.306 1.867l.002.486H11.6v-.465a18.785 18.785 0 0 0 7.4-1.644v-3.703l-.691-1.782c.234-.089.46-.204.691-.302V9.758c-.377.173-.754.346-1.14.492l-1.596-4.107c.93-.25 1.845-.573 2.736-.965V3.805c-1.03.495-2.095.893-3.186 1.177L15.043 3h-1.338l.879 2.256c-.994.184-2 .28-3.008.29L11.57 3h-1.248l.008 2.518a17.58 17.58 0 0 1-2.79-.39L8.366 3H7.03zm.054 3.295c1.07.25 2.156.4 3.248.46l.012 4.587a17.523 17.523 0 0 1-4.815-1.051l1.555-3.996zm7.957.135l1.643 4.218c-1.661.497-3.379.75-5.098.743l-.008-4.606c1.161-.012 2.32-.13 3.463-.355zm-9.96 5.015a18.779 18.779 0 0 0 5.267 1.135l.011 4.695a17.478 17.478 0 0 1-6.85-1.796l1.571-4.034zm12.054.36l1.511 3.879a17.497 17.497 0 0 1-7.05 1.615l-.008-4.672a18.843 18.843 0 0 0 5.547-.822z" fill="currentColor" color="#5d656b"/></svg>