<svg xmlns="http://www.w3.org/2000/svg" viewBox="0 0 22 22"><path d="M11 3a8 8 0 0 0-8 8 8 8 0 0 0 1.385 4.498 1.5 1.5 0 0 0-.184.252 1.5 1.5 0 0 0 .549 2.049 1.5 1.5 0 0 0 1.758-.19A8 8 0 0 0 11 19a8 8 0 0 0 8-8 8 8 0 0 0-8-8zm0 1a7 7 0 0 1 7 7 7 7 0 0 1-7 7 7 7 0 0 1-4.018-1.271A1.5 1.5 0 0 0 6.25 15.2a1.5 1.5 0 0 0-.973-.185A7 7 0 0 1 4 11a7 7 0 0 1 7-7zm0 2a5 5 0 0 0-5 5 5 5 0 0 0 5 5 5 5 0 0 0 3.072-1.063 1.5 1.5 0 0 0 1.727-.687 1.5 1.5 0 0 0-.078-1.62A5 5 0 0 0 16 11a5 5 0 0 0-5-5zm0 1a4 4 0 0 1 4 4 4 4 0 0 1-.143 1.043 1.5 1.5 0 0 0-1.656.707 1.5 1.5 0 0 0 .037 1.56A4 4 0 0 1 11 15a4 4 0 0 1-4-4 4 4 0 0 1 4-4zm0 2a2 2 0 0 0-2 2 2 2 0 0 0 2 2 2 2 0 0 0 2-2 2 2 0 0 0-2-2z" fill="currentColor" color="#5d656b"/></svg>