<svg xmlns="http://www.w3.org/2000/svg" viewBox="0 0 22 22"><defs id="defs3051"><style type="text/css" id="current-color-scheme">.ColorScheme-Text{color:#5d656b}</style></defs><path d="M11 3a8 8 0 0 0-8 8 8 8 0 0 0 8 8 8 8 0 0 0 8-8 8 8 0 0 0-8-8zm0 1a7 7 0 0 1 7 7 7 7 0 0 1-7 7 7 7 0 0 1-7-7 7 7 0 0 1 7-7z" class="ColorScheme-Text" fill="currentColor"/><path d="M3.035 10.264A8 8 0 1 0 19 11a8.017 8.017 0 0 0-.037-.713C18.568 11.826 15.122 13 11 13c-4.144 0-7.6-1.188-7.965-2.736z" class="ColorScheme-Text" fill="currentColor" fill-opacity=".5"/></svg>