<svg xmlns="http://www.w3.org/2000/svg" viewBox="0 0 22 22"><path d="M6.525 3l2.903 1.28a11.49 11.49 0 0 1-1.801 2.534L3.818 3.02h-.806v.949l3.722 3.705A11.48 11.48 0 0 1 4.36 9.268l-.79-1.786V7.48l-.54-1.256-.013 3.023.224.506c-.081.03-.158.071-.24.1v1.308c.253-.079.494-.185.74-.28l1.936 4.366c-.862.34-1.754.619-2.676.818v1.27c1.1-.222 2.158-.551 3.178-.957l1.135 2.562h1.332l-1.35-3.046a18.715 18.715 0 0 0 4.588-3.092l3.424 3.408A23.678 23.678 0 0 1 11.67 19h2.22a24.861 24.861 0 0 0 2.294-1.92l1.867 1.86.888.01.006-.856-1.884-1.877A25.061 25.061 0 0 0 19 13.987v-2.15a23.607 23.607 0 0 1-2.813 3.509l-3.42-3.409a18.727 18.727 0 0 0 3.31-4.732l2.859 1.26.003-1.346-2.367-1.025c.406-.988.739-2.012.971-3.076h-1.27c-.208.891-.49 1.752-.83 2.586L11.04 3.697c.09-.227.196-.446.274-.68H9.995c-.024.066-.058.127-.084.192L9.432 3H6.525zm4.03 1.775l4.392 1.934a17.455 17.455 0 0 1-3.054 4.357L8.5 7.686a12.776 12.776 0 0 0 2.055-2.91zm-2.946 3.77l3.399 3.383a17.452 17.452 0 0 1-4.215 2.834l-1.934-4.367c1-.497 1.92-1.12 2.75-1.85z" fill="currentColor" color="#5d656b"/></svg>