<svg xmlns="http://www.w3.org/2000/svg" viewBox="0 0 22 22"><path d="M9 4.998c-3.866 0-7 2.678-7 5.982 0 3.305 2.134 5.766 6 5.766-3.222 0-4.834-3.012-4.834-5.766 0-2.753 2.612-4.986 5.834-4.986 1.456 0 2.77.473 3.793 1.227A5 3.916 0 0 0 11 6.955a5 3.916 0 0 0-5 3.918v.01a5 3.916 0 0 0 .02.316C6.212 14.43 9.259 17 13 17c3.866 0 7-2.742 7-6.123C20 7.496 17.866 5 14 5c3.222 0 4.834 3.057 4.834 5.875S16.222 15.977 13 15.977c-1.673 0-3.177-.62-4.24-1.606a5 3.916 0 0 0 2.24.418 5 3.916 0 0 0 4.992-3.809H16c0-.019-.004-.037-.004-.056a5 3.916 0 0 0 .004-.051 5 3.916 0 0 0-.031-.4C15.666 7.407 12.665 4.998 9 4.998z" fill="currentColor" color="#5d656b"/></svg>