<svg xmlns="http://www.w3.org/2000/svg" viewBox="0 0 22 22"><defs id="defs3051"><style type="text/css" id="current-color-scheme">.ColorScheme-Text{color:#5d656b}</style></defs><path d="M5 3l2.813 15h5.437L17 3H5zm1.5 1a.5.5 0 0 1 .5.5.5.5 0 0 1-.5.5.5.5 0 0 1-.5-.5.5.5 0 0 1 .5-.5zm7 0a.5.5 0 0 1 .5.5.5.5 0 0 1-.5.5.5.5 0 0 1-.5-.5.5.5 0 0 1 .5-.5zm-2.596 2.002a3 3 0 0 1 3.07 2.603 3 3 0 0 1-2.58 3.37 3 3 0 0 1-3.369-2.58 3 3 0 0 1 2.58-3.37 3 3 0 0 1 .3-.023zM12.5 13a.5.5 0 0 1 .5.5.5.5 0 0 1-.5.5.5.5 0 0 1-.5-.5.5.5 0 0 1 .5-.5zm-3 2a.5.5 0 0 1 .5.5.5.5 0 0 1-.5.5.5.5 0 0 1-.5-.5.5.5 0 0 1 .5-.5z" class="ColorScheme-Text" fill="currentColor"/><path d="M19.418 4c-1.137-.012-3.748 1.079-6.479 2.715a3 3 0 0 1 .696.857c1.94-1.292 3.386-1.95 3.812-1.504.4.419-.27 1.476-1.709 3.014.071.12.114.266.172.389 2.183-2.177 4.548-4.757 4.014-5.317-.097-.101-.27-.151-.506-.154zM8.217 10.113c-3.79 3.248-6.825 7.107-6.113 7.852.145.152 1.551-.233 2.001-.45.687-.249 1.809-.71 3.157-1.45l-.084-.452c-1.296.645-2.211.86-2.53.528-.574-.602 1.377-2.581 4.274-4.98a3 3 0 0 1-.705-1.048zM2 19v1h18v-1H2z" class="ColorScheme-Text" fill="currentColor" fill-opacity=".5"/><path d="M6.5 4a.5.5 0 0 0-.5.5.5.5 0 0 0 .5.5.5.5 0 0 0 .5-.5.5.5 0 0 0-.5-.5zm7 0a.5.5 0 0 0-.5.5.5.5 0 0 0 .5.5.5.5 0 0 0 .5-.5.5.5 0 0 0-.5-.5zm-2.596 2.002a3 3 0 0 0-.299.023 3 3 0 0 0-2.58 3.37 3 3 0 0 0 3.37 2.58 3 3 0 0 0 2.58-3.37 3 3 0 0 0-3.07-2.603zM12.5 13a.5.5 0 0 0-.5.5.5.5 0 0 0 .5.5.5.5 0 0 0 .5-.5.5.5 0 0 0-.5-.5zm-3 2a.5.5 0 0 0-.5.5.5.5 0 0 0 .5.5.5.5 0 0 0 .5-.5.5.5 0 0 0-.5-.5z" fill="#fdbc4b"/></svg>