<svg xmlns="http://www.w3.org/2000/svg" viewBox="0 0 22 22"><path d="M11 3a7 6 0 0 0-.92.059 7 6 0 0 0-.162.017l-.004.004A7 6 0 0 0 4 9a7 3 0 0 0 .012.094A7 2 0 0 1 4 9v8a7 2 0 0 0 7 2 7 2 0 0 0 7-2V9a7 6 0 0 0-4.316-5.535c0-.001 0-.003.002-.004a7 6 0 0 0-.055-.018 7 6 0 0 0-.39-.119 7 6 0 0 0-.282-.08 7 6 0 0 0-.38-.082 7 6 0 0 0-.304-.058 7 6 0 0 0-.37-.045 7 6 0 0 0-.329-.036A7 6 0 0 0 11 3zm2.115 1.326A6 5 0 0 1 17 9a6 2 0 0 1-6 2 6 2 0 0 1-6-2 6 5 0 0 1 3.752-4.633C7.728 5.853 7.191 7.794 7.041 9.5A6 2 0 0 0 11 10c.299-2.495 1.193-4.245 2.115-5.674zM5 10.537A7 3 0 0 0 11 12a7 3 0 0 0 6-1.46V17a6 1 0 0 1-6 1 6 1 0 0 1-6-1v-6.463z" fill="currentColor" color="#5d656b"/></svg>