<svg xmlns="http://www.w3.org/2000/svg" viewBox="0 0 22 22"><path d="M6.168 2.016c-.257-.099-.535.294-.623.88-.08.529.002 3.318.107 3.678.052.179-.034.263-.486.473-.664.309-1.618 1.213-1.936 1.834A2.32 2.32 0 0 0 3 9.84c0 .44.053.56.41.916.433.432.887.608 1.871.72.329.038.663.12.742.182.282.223.562.944.672 1.725.07.493.262 1.11.506 1.63.391.835.392.84.32 1.9-.04.584-.126 1.419-.193 1.853-.109.71-.103.81.072 1.004.3.33 1.08.3 1.309-.051.172-.262.395-1.028.531-1.824l.07-.407.512.262c.29.149.59.408.696.598l.185.334h-.297c-.44 0-.779.283-.779.65 0 .651.373.668.373.668h6c1 0 1.059-.211 1.146-1.146.026-.269.103-.343.5-.475.956-.317 1.58-1.306 1.278-2.027-.162-.386-.667-.657-1.08-.579-.245.047-.264.009-.37-.72-.223-1.553-.847-2.617-1.97-3.366-.832-.554-1.768-.809-3.381-.923-1.527-.109-2.035-.284-2.533-.875a1.792 1.792 0 0 1-.344-.739c-.145-.927-.3-1.279-.767-1.728l-.473-.457.21-.613c.63-1.826.73-4.284.177-4.284-.313 0-.803.756-1.149 1.774l-.183.537-.141-.639c-.188-.852-.531-1.64-.752-1.724zM5.5 8a.5.5 0 1 1 0 1 .5.5 0 0 1 0-1z" fill="currentColor" color="#5d656b"/></svg>