<svg xmlns="http://www.w3.org/2000/svg" viewBox="0 0 22 22"><path d="M15 3l-.766 2.152-2.062-.98.98 2.062L11 7l2.152.766-.98 2.062 2.062-.98L15 11l.766-2.152 2.062.98-.98-2.062L19 7l-2.152-.766.98-2.062-2.062.98L15 3zM7.7 9l-.491 2.625L5.24 9.82l.887 2.518-2.607-.578 2.027 1.738L3 14.301l2.625.492L3.82 16.76l2.518-.887-.578 2.607 1.738-2.027L8.301 19l.492-2.623 1.967 1.803-.887-2.518 2.607.578-2.027-1.738L13 13.699l-2.623-.49 1.803-1.969-2.518.887.578-2.607-1.738 2.027L7.699 9z" fill="currentColor" color="#5d656b"/></svg>