<svg xmlns="http://www.w3.org/2000/svg" viewBox="0 0 22 22"><path d="M13.932 3c-1.096.027-2.098-.042-3.229.252V3.25c-1.901.796-3.01 2.56-3.51 4.473-.04.158-.26.789-.26 1.564v2.867c-.058 1.557-1.164 2.51-2.314 3.367-.536.38-1.094.709-1.619 1.098L3.004 19c2.969-.01 4.28-.02 6.273-.016 1.605-2.462 2.67-4.191 2.694-6.752V9.29c.07-.624.303-1.282.81-1.34.888-.048 1.617.205 2.094.51a3.11 3.11 0 0 0 1.771.547H19V3.994h-1.14c-.806.065-1.437-.477-2.174-.742-.368-.091-.998-.252-1.754-.252z" fill="currentColor" color="#5d656b"/></svg>