<svg xmlns="http://www.w3.org/2000/svg" viewBox="0 0 22 22"><path d="M3 3v4h1V4h3V3H3zm7 0v3H6v7H3v1h7v5h1v-5h8v-1h-3V6h-5V3h-1zm5 0v1h3v3h1V3h-4zM7 7h3v6H7V7zm4 0h4v6h-4V7zm-8 8v4h4v-1H4v-3H3zm15 0v3h-3v1h4v-4h-1z" fill="currentColor" color="#5d656b"/><path d="M11 5c-.904 0-1.637.603-2.23 1.365-.594.762-1.084 1.73-1.489 2.692-.809 1.921-1.267 3.826-1.267 3.826l.972.234s.448-1.845 1.217-3.674c.385-.914.851-1.82 1.354-2.464.5-.642 1-.972 1.437-.975.42.014.783.185 1.156.543.376.36.74.908 1.077 1.588.643 1.3 1.184 3.072 1.722 4.865h1.047l-.016-.05c-.562-1.876-1.123-3.774-1.857-5.259-.367-.742-.777-1.384-1.281-1.867-.504-.483-1.127-.805-1.828-.824h-.006z" fill="currentColor" color="#3daee9"/></svg>