<svg xmlns="http://www.w3.org/2000/svg" viewBox="0 0 22 22"><path d="M3 2v18h1v-7.709c.113.085.228.157.34.256.743.656 1.447 1.566 2.13 2.498.684.932 1.344 1.883 2.057 2.629C9.24 18.42 10.042 19 11 19s1.758-.58 2.47-1.326c.714-.746 1.374-1.697 2.057-2.63.684-.93 1.388-1.841 2.131-2.497.744-.656 1.498-1.047 2.342-1.047v-1c-.844 0-1.598-.391-2.342-1.047-.743-.656-1.447-1.566-2.13-2.498-.684-.932-1.344-1.883-2.057-2.629C12.758 3.58 11.958 3 11 3c-.958 0-1.76.58-2.473 1.326-.713.746-1.373 1.697-2.056 2.63-.684.93-1.388 1.841-2.131 2.497-.113.1-.227.173-.34.258V2H3zm8 2c.542 0 1.115.357 1.746 1.018.631.66 1.283 1.584 1.975 2.527.2.274.417.543.627.814-.161.096-.3.226-.41.368-.23.293-.403.657-.567 1.08-.08.207-.147.461-.22.693h-2.585c-.298-1.589-.589-3.18-.85-4.383a18.037 18.037 0 0 0-.38-1.515 3.349 3.349 0 0 0-.139-.358C10.474 4.087 10.741 4 11 4zM9.428 5.086c.093.32.196.718.31 1.244.244 1.125.525 2.648.81 4.17H8.218c.108-.505.21-1.025.306-1.547.218-1.177.423-2.34.65-3.172.085-.309.17-.504.255-.695zM7.959 6.62c-.143.681-.28 1.403-.418 2.15-.11.592-.224 1.18-.346 1.729H5.604c-.009-.02-.015-.045-.024-.064a1.884 1.884 0 0 0-.297-.506c.73-.706 1.381-1.55 1.994-2.385l.682-.924zm7.898 2.592c.049.037.11.089.196.17.202.193.473.478.779.777.115.113.242.227.367.34h-2.002c.036-.104.07-.238.106-.332.144-.372.297-.666.424-.828.104-.135.124-.125.13-.127zM4.62 11.5h.25c.027.095.054.159.08.256-.106-.092-.219-.173-.33-.256zm1.3 0h1.013c-.042.146-.078.327-.121.459-.141.425-.297.768-.44.977-.025.036-.027.016-.049.043-.011-.035-.02-.048-.031-.086-.098-.321-.204-.762-.318-1.204L5.92 11.5zm2.046 0h2.777c.264 1.391.53 2.755.787 3.82.15.623.296 1.146.446 1.541.074.198.147.364.246.514.011.017.034.038.047.057-.447.37-.867.568-1.268.568-.542 0-1.117-.357-1.748-1.018-.63-.66-1.283-1.584-1.975-2.527-.14-.19-.291-.376-.435-.566.134-.113.254-.243.353-.387.233-.339.408-.756.565-1.23.077-.233.137-.514.205-.772zm3.795 0h2.095c-.11.428-.216.864-.314 1.309-.238 1.078-.449 2.154-.64 2.945-.038.154-.068.23-.104.36-.095-.3-.19-.592-.295-1.028-.237-.984-.49-2.267-.742-3.586zm3.125 0h2.488a5.46 5.46 0 0 0-.377.297c-.85.75-1.584 1.715-2.275 2.658-.25.34-.489.665-.729.988.167-.742.334-1.551.526-2.418.115-.522.238-1.043.367-1.525z" fill="currentColor" color="#5d656b"/></svg>