<svg xmlns="http://www.w3.org/2000/svg" viewBox="0 0 22 22"><path d="M16.143 13.381c.927 0 1.656.233 2.186.699.535.465.802 1.103.802 1.913 0 .923-.294 1.647-.88 2.174-.588.522-1.401.783-2.442.783-.992 0-1.759-.16-2.302-.48v-1.032c.3.178.66.32 1.081.425.422.105.832.158 1.233.158.697 0 1.235-.166 1.616-.498.38-.332.57-.806.57-1.421 0-1.198-.74-1.798-2.222-1.798-.478 0-.984.061-1.518.183l-.547-.347L14 10l4.505-.05V11H15l-.223 2.521c.465-.093.92-.14 1.366-.14z" fill="currentColor" color="#3daee9"/><path d="M3 3v2h1V4h1V3H3zm5 0v1h2V3H8zm4 0v1h2V3h-2zm5 0v1h1v1h1V3h-2zM9 7v1h2.293L8 11.293l.707.707L12 8.707V11h1V7H9zM3 8v2h1V8H3zm0 5v6h6v-6H3zm1 1h4v4H4v-4z" fill="currentColor" color="#5d656b"/></svg>