<svg xmlns="http://www.w3.org/2000/svg" viewBox="0 0 22 22"><path d="M1 3v16h10v-1H2v-.586l.463-.463 6.267-6.267 1.454 1.45.814.815H11l.816-.814 1.454-1.451L14.586 12H16l-2.023-2.023 5.752-5.754L19.95 4H20v6h1V3H1zm1 1h.049l.222.223 5.752 5.754L2 16V4zm1.463 0h15.074L11 11.537 3.463 4z" fill="currentColor" color="#5d656b"/><path d="M19 11l-.996.994L18 11.99l-5 4.998.008.008L13.004 18H13v1h2l.006-.006.004-.004.01.002-.006-.006L16 18l4-3.996-.705-.71-4.99 4.987-.594-.592 4.992-4.988.592.594.705.703 1-1L19 11z" fill="#2ecc71"/></svg>