<svg xmlns="http://www.w3.org/2000/svg" viewBox="0 0 22 22"><path d="M1 3v16h13v-1H2v-.586l.463-.463 6.267-6.267 1.454 1.45.814.815H11l.816-.814 1.454-1.451L14.586 12H16l-2.023-2.023 5.752-5.754L19.95 4H20v8h1V3H1zm1 1h.049l.222.223 5.752 5.754L2 16V4zm1.463 0h15.074L11 11.537 3.463 4z" fill="currentColor" color="#5d656b"/><path d="M18 13c-1.662 0-3 1.338-3 3s1.338 3 3 3 3-1.338 3-3-1.338-3-3-3zm0 1c.372 0 .714.106 1.012.281l-2.73 2.73A1.983 1.983 0 0 1 16 16c0-1.108.892-2 2-2zm1.719.988A1.996 1.996 0 0 1 18 18c-.372 0-.714-.106-1.012-.281l2.73-2.73z" fill="#da4453"/></svg>