<svg xmlns="http://www.w3.org/2000/svg" viewBox="0 0 22 22"><path d="M11.117 3a8 8 0 0 0-5.773 2.344 8 8 0 0 0 0 11.312 8 8 0 0 0 11.312 0 8 8 0 0 0 0-11.312A8 8 0 0 0 11.117 3zm-.219 1a7 7 0 0 1 4.68 1.715l-1.404 1.404A8 5 45 0 0 8.75 4.377 7 7 0 0 1 10.898 4zM7.871 5.307a7 4 45 0 1 5.594 2.521L11 10.293l-4.55-4.55a7 4 45 0 1 1.421-.436zm8.42 1.109a7 7 0 0 1 1.336 6.81 8 5 45 0 0-2.75-5.396l1.414-1.414zm-10.55.031L10.292 11l-2.467 2.467a7 4 45 0 1-2.086-7.02zm8.433 2.086a7 4 45 0 1 2.086 7.02L11.707 11l2.467-2.467zm-9.801.24a8 5 45 0 0 2.75 5.397l-1.414 1.414a7 7 0 0 1-1.336-6.81zM11 11.707l4.55 4.55a7 4 45 0 1-7.015-2.085L11 11.707zm-3.174 3.174a8 5 45 0 0 5.424 2.742 7 7 0 0 1-6.828-1.338l1.404-1.404z" fill="currentColor" color="#5d656b"/></svg>