<svg xmlns="http://www.w3.org/2000/svg" viewBox="0 0 22 22"><path d="M11 3c-4.432 0-8 3.568-8 8h1c0-3.878 3.122-7 7-7s7 3.122 7 7h1c0-4.432-3.568-8-8-8zm0 2c-3.324 0-6 2.676-6 6h3c0-1.662 1.338-3 3-3V5zm0 4c-1.108 0-2 .892-2 2h1c0-.554.446-1 1-1s1 .446 1 1h1c0-1.108-.892-2-2-2zm1 3l-2 1.5 2 1.5v-1h5c.554 0 1 .446 1 1h1c0-1.108-.892-2-2-2h-5v-1zm-8 1v1H3v1h1v2H3v1h1v1h1v-1h2v1h1v-1h1v-1H8v-2h1v-1H8v-1H7v1H5v-1H4zm1 2h2v2H5v-2zm5 1c0 1.108.892 2 2 2h5v1l2-1.5-2-1.5v1h-5c-.554 0-1-.446-1-1h-1z" fill="currentColor" color="#5d656b"/></svg>