<svg xmlns="http://www.w3.org/2000/svg" viewBox="0 0 22 22"><path d="M4.5 3a1.5 1.5 0 1 0 0 3 1.5 1.5 0 0 0 0-3zM7 4v1h1V4H7zm2 0v1h10V4H9zm0 2v1h3V6H9zM4.5 9a1.5 1.5 0 1 0 0 3 1.5 1.5 0 0 0 0-3zM7 10v1h1v-1H7zm10 1v1h-1.023A2.97 2.97 0 0 0 13 14.977V15c0 1.108-.892 2-2 2H8v1h3.023A2.97 2.97 0 0 0 14 15.023V15c0-1.108.892-2 2-2h1v1l2-1.5-2-1.5zm-9 1v1h3c.399 0 .767.119 1.078.318.076-.337.21-.649.389-.931A2.95 2.95 0 0 0 11.023 12H8zm-3.5 3a1.5 1.5 0 1 0 0 3 1.5 1.5 0 0 0 0-3zM17 16v1h-1c-.399 0-.767-.119-1.078-.318-.076.337-.21.649-.389.931a2.95 2.95 0 0 0 1.444.387H17v1l2-1.5-2-1.5z" fill="currentColor" color="#5d656b"/></svg>