<svg xmlns="http://www.w3.org/2000/svg" viewBox="0 0 22 22"><path d="M2 3v16h5v-2a1 1 0 0 0-1 1H5V4h1a1 1 0 0 0 2 0h8a1 1 0 0 0 2 0h1v7h1V3H2zm17 8a7 7 0 0 0-14 0 6.983 6.983 0 0 0 2 4.867v-1.58A5.982 5.982 0 0 1 6 11a6 6 0 1 1 12 0h1zM3 4h1v14H3V4zm14 7v1h-1.023A2.97 2.97 0 0 0 13 14.977V15c0 1.108-.892 2-2 2H8v1h3.023A2.97 2.97 0 0 0 14 15.023V15c0-1.108.892-2 2-2h1v1l2-1.5-2-1.5zm-9 1v1h3c.399 0 .767.119 1.078.318.076-.337.21-.649.389-.931A2.95 2.95 0 0 0 11.023 12H8zm9 4v1h-1c-.399 0-.767-.119-1.078-.318-.076.337-.21.649-.389.931a2.95 2.95 0 0 0 1.444.387H17v1l2-1.5-2-1.5z" fill="currentColor" color="#5d656b"/></svg>