<svg xmlns="http://www.w3.org/2000/svg" height="22" width="22"><path d="M12.013 3.009v2h-9v1h9v1.777a1.998 1.998 0 0 0-.365-.154l-.008-.002a1.998 1.998 0 0 0-2.488 1.334 1.998 1.998 0 0 0-.012.045H3.013v1h6.111a1.998 1.998 0 0 0 1.36 1.445 1.998 1.998 0 0 0 .308.066 1.998 1.998 0 0 0-1.64 1.399 1.998 1.998 0 0 0-.024.09H3.013v1h6.121a1.998 1.998 0 0 0 1.35 1.398 1.998 1.998 0 0 0 .307.066 1.998 1.998 0 0 0-1.64 1.399 1.998 1.998 0 0 0-.034.136H3.013v1h6.133a1.998 1.998 0 0 0 1.338 1.354 1.998 1.998 0 0 0 2.492-1.33 1.998 1.998 0 0 0 .006-.024h6.031v-1h-6v-3h6v-1h-6v-3h6v-1h-6v-3h6v-1h-6v-2h-1zM11.07 8.56a.98.98 0 0 1 .255.037l.026.006a.98.98 0 0 1 .652 1.217.98.98 0 0 1-1.213.662.98.98 0 0 1-.668-1.209.98.98 0 0 1 .948-.713zm.943 2.737v.441a1.998 1.998 0 0 0-.365-.154l-.008-.002a1.998 1.998 0 0 0-.3-.065 1.998 1.998 0 0 0 .673-.22zm-.943 1.218a.98.98 0 0 1 .255.036l.026.007a.98.98 0 0 1 .652 1.217.98.98 0 0 1-1.213.66.98.98 0 0 1-.668-1.209.98.98 0 0 1 .948-.71zm.943 2.737v.441a1.998 1.998 0 0 0-.365-.154l-.008-.002a1.998 1.998 0 0 0-.303-.065 1.998 1.998 0 0 0 .676-.22zm-.943 1.218a.98.98 0 0 1 .256.035l.025.006a.98.98 0 0 1 .653 1.219.98.98 0 0 1-1.213.66.98.98 0 0 1-.668-1.209.98.98 0 0 1 .947-.71z" fill="currentColor" color="#5d656b"/></svg>