<svg xmlns="http://www.w3.org/2000/svg" height="22" width="22"><path d="M16 3v2H3v1h13v1.652a1.998 1.998 0 0 0-.365-.152l-.008-.002a1.998 1.998 0 0 0-2.488 1.334 1.998 1.998 0 0 0-.041.168H13V7h-1v2H3v1h9v1.652a1.998 1.998 0 0 0-.365-.152l-.008-.002a1.998 1.998 0 0 0-2.488 1.334 1.998 1.998 0 0 0-.041.168H9v-2H8v2H3v1h5v1.654a1.998 1.998 0 0 0-.365-.154l-.008-.002a1.998 1.998 0 0 0-2.488 1.334 1.998 1.998 0 0 0-.041.168H3v1h2.144a1.998 1.998 0 0 0 1.327 1.322A1.998 1.998 0 0 0 8.96 18H19v-1H9.004A1.998 1.998 0 0 0 9 16.982V14h.144a1.998 1.998 0 0 0 1.329 1.322A1.998 1.998 0 0 0 12.961 14H19v-1h-5.996a1.998 1.998 0 0 0-.004-.018V10h.145a1.998 1.998 0 0 0 1.328 1.322A1.998 1.998 0 0 0 16.961 10H19V9h-1.996A1.998 1.998 0 0 0 17 8.982V6h2V5h-2V3h-1zm-.943 5.457a.98.98 0 0 1 .255.035l.026.008a.98.98 0 0 1 .652 1.217.98.98 0 0 1-1.213.66.98.98 0 0 1-.668-1.209.98.98 0 0 1 .948-.711zm-4 4a.98.98 0 0 1 .255.035l.026.008a.98.98 0 0 1 .652 1.217.98.98 0 0 1-1.213.66.98.98 0 0 1-.668-1.209.98.98 0 0 1 .948-.711zm-4 4a.98.98 0 0 1 .256.035l.025.008a.98.98 0 0 1 .652 1.217.98.98 0 0 1-1.213.66.98.98 0 0 1-.668-1.209.98.98 0 0 1 .948-.711z" fill="currentColor" color="#5d656b"/></svg>