<svg xmlns="http://www.w3.org/2000/svg" viewBox="0 0 22 22"><path d="M3 3v1h7V3H3zm9 0v1h7V3h-7zM3 6v1h7V6H3zm9 0v1h7V6h-7zM3 9v1h7V9H3zm9 0v1h7V9h-7zm-9 4v1h7v-1H3zm0 4v1h7v-1H3z" fill="currentColor" color="#5d656b"/><path d="M12.5 12l-2 1.5 2 1.5v-1h1a1.5 1.5 0 0 1 1.5 1.5 2.5 2.5 0 0 0 2.5 2.5h2.031v-1H17.5a1.5 1.5 0 0 1-1.5-1.5 2.5 2.5 0 0 0-2.5-2.5h-1v-1zm6.031 0v1h-1c-.494 0-.952.15-1.34.396a2 2 0 0 1 .631.784 2 2 0 0 1 .006.002c.21-.113.448-.182.703-.182h1v1l2-1.5-2-1.5zm-4.342 4.842c-.2.098-.42.158-.658.158H11.5v1h2.031c.482 0 .93-.137 1.309-.373a2 2 0 0 1-.65-.785z" fill="currentColor" color="#3daee9"/></svg>