<svg xmlns="http://www.w3.org/2000/svg" viewBox="0 0 22 22"><path d="M3 3v1h7V3H3zm9 0v1h7V3h-7zM3 6v1h7V6H3zm9 0v1h7V6h-7zM3 9v1h7V9H3zm9 0v1h7V9h-7zm-9 4v1h7v-1H3zm8 0v1h2.01a1.5 1.5 0 0 1 .758.207 3.49 3.49 0 0 1 .51-.86A2.5 2.5 0 0 0 13.01 13H11zm7.01 3v1h-1a1.5 1.5 0 0 1-.758-.207 3.49 3.49 0 0 1-.51.86A2.5 2.5 0 0 0 17.01 18h1v1l2-1.5-2-1.5zM3 17v1h7v-1H3z" fill="currentColor" color="#5d656b"/><path d="M18.01 12v1h-1a2.5 2.5 0 0 0-2.5 2.5 1.5 1.5 0 0 1-1.5 1.5h-2.031v1h2.03a2.5 2.5 0 0 0 2.5-2.5 1.5 1.5 0 0 1 1.5-1.5h1v1l2-1.5-2-1.5z" fill="currentColor" color="#3daee9"/></svg>