<svg xmlns="http://www.w3.org/2000/svg" viewBox="0 0 22 22"><path d="M3 3v1h7V3H3zm9 0v1h7V3h-7zM3 6v1h7V6H3zm9 0v1h7V6h-7zM3 9v1h7V9H3zm9 0v1h7V9h-7zm-9 4v1h7v-1H3zm15 0a2.5 2.5 0 0 0-1.268.348c.208.261.384.545.51.859A1.5 1.5 0 0 1 18 14h2.01v-1H18zm-5 3l-2 1.5 2 1.5v-1h1a2.5 2.5 0 0 0 1.268-.348 3.49 3.49 0 0 1-.51-.859A1.5 1.5 0 0 1 14 17h-1v-1zM3 17v1h7v-1H3z" fill="currentColor" color="#5d656b"/><path d="M13 12l-2 1.5 2 1.5v-1h1a1.5 1.5 0 0 1 1.5 1.5A2.5 2.5 0 0 0 18 18h2.031v-1H18a1.5 1.5 0 0 1-1.5-1.5A2.5 2.5 0 0 0 14 13h-1v-1z" fill="currentColor" color="#3daee9"/></svg>