<svg xmlns="http://www.w3.org/2000/svg" viewBox="0 0 22 22"><path d="M18.293 3l-3.5 3.5-1.5-1.5-2 2L9.5 8.793l1.5 1.5.707.707 1.5 1.5L15 10.707l2-2-1.5-1.5 3.5-3.5L18.293 3zm-9.5 6.5L8 10.293l-2 2 1.5 1.5-4.5 4.5.707.707 4.5-4.5 1.5 1.5 2-2 .793-.793-1.5-1.5-.707-.707-1.5-1.5z" fill="currentColor" color="#5d656b"/><path d="M14.834 14l-.834.834 1.666 1.666L14 18.166l.834.834 1.666-1.666L18.166 19l.834-.834-1.666-1.666L19 14.834 18.166 14 16.5 15.666 14.834 14z" fill="currentColor" color="#da4453"/></svg>