<svg xmlns="http://www.w3.org/2000/svg" viewBox="0 0 22 22"><path d="M4 3v14H3v1h1v1h1v-1h7v-1H5V3H4zm6.5 0c-.972 0-1.88.34-2.52.98C7.34 4.62 7 5.528 7 6.5h2c0-.528.16-.87.395-1.105C9.63 5.159 9.972 5 10.5 5s.87.16 1.105.395c.236.235.395.577.395 1.105 0 .458-.09.653-.21.826-.522.526-1.153.976-1.66 1.406C9.56 9.162 9 9.724 9 10.5v.5h2v-.5c.71-.728 1.77-1.362 2.43-2.03.348-.498.57-1.178.57-1.97 0-.972-.34-1.88-.98-2.52-.64-.64-1.548-.98-2.52-.98zM17 3v9h1V3h-1zm-1.293 9l-.707.707L17.293 15H13v1h4.293L15 18.293l.707.707L19 15.707l.207-.207-.207-.207L15.707 12zM9 13v2h2v-2H9z" fill="currentColor" color="#5d656b"/></svg>