<svg xmlns="http://www.w3.org/2000/svg" viewBox="0 0 22 22"><path d="M1.002 3L1 3.002v.996L1.002 4h.996L2 3.998v.006c4.313.75 7.625 6.163 7.965 12.789l.93-.93C10.272 9.1 6.645 3.7 2 3h-.998zM10 3v3h1v1h1V6h1V3h-3zm10 0c-.005 7.065-3.394 13-7.889 13.87l.303.302-.414.414v.34c5.11-.77 9-7.222 9-14.926h-1zm-9 1h1v1h-1V4zm0 4v1h1V8h-1zm0 2v1h1v-1h-1zm7 6v1h-1v1h1v1h3v-3h-3zm-3 1v1h1v-1h-1zm4 0h1v1h-1v-1zm-9.01.576c.002.112.01.222.01.334h.324l-.334-.334z" fill="currentColor" color="#5d656b"/><path d="M11 14.344l-2.828 2.828L11 20l2.828-2.828L11 14.344zm0 1.414l1.414 1.414L11 18.586l-1.414-1.414L11 15.758z" fill="currentColor" color="#3daee9"/></svg>