<svg xmlns="http://www.w3.org/2000/svg" viewBox="0 0 22 22"><path d="M1 2a10 15 0 0 0 8 14.68v-1.043A9 14 0 0 1 2 2H1zm19 0a9 14 0 0 1-7 13.633v1.062A10 15 0 0 0 21 2h-1zM1 15v3h3v-1h1v-1H4v-1H1zm17 0v1h-1v1h1v1h3v-3h-3zM2 16h1v1H2v-1zm4 0v1h1v-1H6zm9 0v1h1v-1h-1zm4 0h1v1h-1v-1z" fill="currentColor" color="#5d656b"/><path d="M11 14a2.5 2.5 0 0 0-2.5 2.5A2.5 2.5 0 0 0 11 19a2.5 2.5 0 0 0 2.5-2.5A2.5 2.5 0 0 0 11 14zm0 1a1.5 1.5 0 0 1 1.5 1.5A1.5 1.5 0 0 1 11 18a1.5 1.5 0 0 1-1.5-1.5A1.5 1.5 0 0 1 11 15z" fill="currentColor" color="#3daee9"/></svg>