<svg xmlns="http://www.w3.org/2000/svg" viewBox="0 0 22 22"><defs id="defs3051"><style type="text/css" id="current-color-scheme">.ColorScheme-Text{color:#5d656b}</style></defs><path d="M10.988 3L6 7.99v6.02L10.988 19H12V3h-1.012zm3.336 4.281l-.539.862A4 4 0 0 1 15 11a4 4 0 0 1-1.21 2.861l.538.864A5 5 0 0 0 16 11a5 5 0 0 0-1.676-3.719zM3 8v6h2V8H3z" class="ColorScheme-Text" fill="currentColor"/><path d="M13.865 3.537l-.244.977A7 7 0 0 1 18 11a7 7 0 0 1-4.38 6.479l.243.974A8 8 0 0 0 19 11a8 8 0 0 0-5.135-7.463z" class="ColorScheme-Text" fill="currentColor" fill-opacity=".5"/></svg>