<svg xmlns="http://www.w3.org/2000/svg" viewBox="0 0 22 22"><defs id="defs3051"><style type="text/css" id="current-color-scheme"></style></defs><path d="M12.4 3L9.107 6.293 8.9 6.5l.207.207L12.4 10l.707-.707L10.814 7H14V6h-3.186l2.293-2.293L12.4 3zm3.1 3a.499.499 0 1 0 0 1 .499.499 0 1 0 0-1zM6.95 8L2 12.95 8.05 19 13 14.05 6.95 8zM18.5 8a.499.499 0 1 0 0 1 .499.499 0 1 0 0-1zM6.95 9.414l4.777 4.777-3.536 3.536-4.777-4.778L6.95 9.414zM19.5 11a.499.499 0 1 0 0 1 .499.499 0 1 0 0-1zm-1 3a.499.499 0 1 0 0 1 .499.499 0 1 0 0-1zm-3 2a.499.499 0 1 0 0 1 .499.499 0 1 0 0-1z" fill="currentColor" color="#5d656b"/></svg>