<svg xmlns="http://www.w3.org/2000/svg" viewBox="0 0 22 22"><path d="M9.6 3l-.707.707L11.186 6H8v1h3.186L8.893 9.293 9.6 10l3.293-3.293.207-.207-.207-.207L9.6 3zM6.5 6a.499.499 0 1 0 0 1 .499.499 0 1 0 0-1zm-3 2a.499.499 0 1 0 0 1 .499.499 0 1 0 0-1zm11.55 0L9 14.05 13.95 19 20 12.95 15.05 8zm0 1.414l3.536 3.535-4.777 4.778-3.536-3.536 4.778-4.777zM2.5 11a.499.499 0 1 0 0 1 .499.499 0 1 0 0-1zm1 3a.499.499 0 1 0 0 1 .499.499 0 1 0 0-1zm3 2a.499.499 0 1 0 0 1 .499.499 0 1 0 0-1z" fill="currentColor" color="#5d656b"/></svg>