<svg xmlns="http://www.w3.org/2000/svg" viewBox="0 0 22 22"><defs id="defs3051"><style type="text/css" id="current-color-scheme"></style></defs><path d="M4 3v14H3v1h1v1h1v-1h14v-1h-.293l-.748-.748-.828-.828-2-2-.004.004-.006-.004-2.123 2.123-1.295-1.295-.828-.828-2-2H5V10h3.875l2-2 .828-.828 1.295-1.295L15.121 8l.006-.004.004.004 2-2 .828-.828L19 4.13l-.707-.707-1.041 1.04-.828.829-1.297 1.297L13 4.465l-.002.002-.002-.002-1.527 1.527H5V3H4zm1 3h6.46l-.464.465-.828.828L8.461 9H5V6zm0 6.424h3.46l1.708 1.707.828.828.465.465H5v-3zm10.127 2.41l1.297 1.297.828.828.041.041H5v-1.568h6.469l1.527 1.527.002-.002.002.002 2.127-2.125z" fill="currentColor" color="#5d656b"/></svg>