<svg xmlns="http://www.w3.org/2000/svg" viewBox="0 0 22 22"><defs id="defs3051"><style type="text/css" id="current-color-scheme"></style></defs><path d="M4 3v14H3v1h1v1h1v-1h14v-1H5v-1h3v-.008l.008.008 2-2H11.6l2 2H19v-1h-4.986l-2-2h-2.42l-2 2H5v-5h3.875l2-2 .828-.828 1.295-1.295L15.121 8l.006-.004.004.004 2-2 .828-.828L19 4.13l-.707-.707-1.041 1.04-.828.829-1.297 1.297L13 4.465l-.002.002-.002-.002-1.527 1.527H5V3H4zm1 3h6.46l-.464.465-.828.828L8.461 9H5V6z" fill="currentColor" color="#5d656b"/></svg>