<svg xmlns="http://www.w3.org/2000/svg" viewBox="0 0 22 22"><defs id="defs3051"><style type="text/css" id="current-color-scheme">.ColorScheme-Text{color:#5d656b}</style></defs><path d="M4 3v14H3v1h1v1h1v-1h14v-1H5v-1h3v-.008l.008.008 2-2H11.6l2 2H19v-1h-4.986l-2-2h-2.42l-2 2H5v-5h3.875l2-2 .828-.828 1.295-1.295L15.121 8l.006-.004.004.004 2-2 .828-.828L19 4.13l-.707-.707-1.041 1.04-.828.829-1.297 1.297L13 4.465l-.002.002-.002-.002-1.527 1.527H5V3H4zm1 3h6.46l-.464.465-.828.828L8.461 9H5V6z" class="ColorScheme-Text" fill="currentColor"/><path d="M18.934 4.064l.066.067v-.004l-.066-.063zm.066.067l-1.041 1.04-.828.829-2 2-.004-.004-.006.004-2.123-2.123-1.295 1.295-.828.828-2 2H5v5h2.594l2-2H10l2-.008.008.008h.006l1.992 1.992L19 15V4.13zM10 14l-2 2H5v1h14v-1h-5.4l-2-2H10z" class="ColorScheme-Text" fill="currentColor" fill-opacity=".5"/></svg>