<svg xmlns="http://www.w3.org/2000/svg" viewBox="0 0 22 22"><path d="M11.5 2a.499.499 0 1 0 0 1 .499.499 0 1 0 0-1zm-7 1a.499.499 0 1 0 0 1 .499.499 0 1 0 0-1zm14 0a.499.499 0 1 0 0 1 .499.499 0 1 0 0-1zm-7 1a.499.499 0 1 0 0 1 .499.499 0 1 0 0-1zm-5 1a.499.499 0 1 0 0 1 .499.499 0 1 0 0-1zM11 5a5.98 5.98 0 0 0-4.686 2.25l3.13 2.504A1.988 1.988 0 0 1 11 9V5zm0 1.5a.499.499 0 1 0 1 0 .499.499 0 1 0-1 0zm0 2a.499.499 0 1 0 1 0 .499.499 0 1 0-1 0zm3.709-3.436l-2.65 4.243c.52.324.87.88.923 1.527l4.989-.416a6.972 6.972 0 0 0-3.262-5.354zM3.5 10a.499.499 0 1 0 0 1 .499.499 0 1 0 0-1zm2 0a.499.499 0 1 0 0 1 .499.499 0 1 0 0-1zm2 0a.499.499 0 1 0 0 1 .499.499 0 1 0 0-1zm2 0a.499.499 0 1 0 0 1 .499.499 0 1 0 0-1zm2 0a.499.499 0 1 0 0 1 .499.499 0 1 0 0-1zm0 2a.499.499 0 1 0 0 1 .499.499 0 1 0 0-1zm2 0a.499.499 0 1 0 0 1 .499.499 0 1 0 0-1zm-3.916.416l-2.123 2.123A4.985 4.985 0 0 0 11 16v-3a1.994 1.994 0 0 1-1.416-.584zM11 14.5a.499.499 0 1 0 1 0 .499.499 0 1 0-1 0zm4.5-.5a.499.499 0 1 0 0 1 .499.499 0 1 0 0-1zm-9 2a.499.499 0 1 0 0 1 .499.499 0 1 0 0-1zm5 0a.499.499 0 1 0 0 1 .499.499 0 1 0 0-1zm6 0a.499.499 0 1 0 0 1 .499.499 0 1 0 0-1zm-13 2a.499.499 0 1 0 0 1 .499.499 0 1 0 0-1zm7 0a.499.499 0 1 0 0 1 .499.499 0 1 0 0-1z" fill="currentColor" color="#5d656b"/></svg>