<svg xmlns="http://www.w3.org/2000/svg" viewBox="0 0 22 22"><defs id="defs3051"><style type="text/css" id="current-color-scheme">.ColorScheme-Text{color:#5d656b}</style></defs><path d="M4 3v14H3v1h1v1h1v-1h14v-1H5v-1h3v-.008l.008.008 2-2H11.6l2 2H19v-1h-4.986l-2-2h-2.42l-2 2H5v-4h5v-.008l.008.008.996-.996L11 10l-.703-.703-.703.703H5V3H4zm7 7h2V9h-1V8h-1v2zm0-6v2h1V5h1V4h-2zm4 0v1h1v1h1V4h-2zm-1 1.594l-.707.707-.996.996.707.707.996-.996.996.996.707-.707L14 5.594zM16 8v1h-1v1h2V8h-1zm3 0l-1 1h1V8z" class="ColorScheme-Text" fill="currentColor"/><path d="M14 7l-1.996 2H13v1h-1.994l-.998 1H5v4h2.6l2-2h2.408L14 14.992 19 15V9h-2v1h-2V9h1l-2-2zm-4 7l-2 2H5v1h14v-1h-5.4l-2-2H10z" class="ColorScheme-Text" fill="currentColor" fill-opacity=".5"/></svg>