<svg xmlns="http://www.w3.org/2000/svg" xmlns:xlink="http://www.w3.org/1999/xlink" viewBox="0 0 22 22">a<defs id="defs3762"><style type="text/css" id="current-color-scheme"></style><linearGradient gradientUnits="userSpaceOnUse" y2="535.791" x2="433.714" y1="543.791" x1="425.714" id="linearGradient4154" xlink:href="#linearGradient4172-7" gradientTransform="matrix(1.5 0 0 1.5 -79.849 -215.567)"/><linearGradient id="linearGradient4172-7"><stop offset="0" id="stop4174-2" stop-color="#1d99f3" stop-opacity="1"/><stop offset="1" id="stop4176-0" stop-color="#cae7fc" stop-opacity="1"/></linearGradient></defs><path d="M3 4v14h16V4H3zm7.941 1A6 6 0 0 1 17 10.922V11a6 6 0 0 1-5.98 6A6 6 0 0 1 5 11.04 6 6 0 0 1 10.941 5z" fill="currentColor" color="#5d656b"/><path d="M570.723 594.12a6 6 0 0 1-5.98 6 6 6 0 0 1-6.02-5.961 6 6 0 0 1 5.94-6.04 6 6 0 0 1 6.059 5.922" fill="url(#linearGradient4154)" stroke-width="2" stroke-linecap="square" transform="translate(-553.723 -583.12)"/></svg>