<svg xmlns="http://www.w3.org/2000/svg" viewBox="0 0 22 22"><defs id="defs3051"><style type="text/css" id="current-color-scheme"></style></defs><path d="M6.877 3A8.98 8.98 0 0 0 3 6.877V7l.922.307a7.952 7.952 0 0 1 3.385-3.385L7 3h-.123zm8.129 0l-.307.922a7.952 7.952 0 0 1 3.385 3.385L19.006 7v-.123A8.98 8.98 0 0 0 15.129 3h-.123zM11 5c-3.878 0-7 3.122-7 7s3.122 7 7 7 7-3.122 7-7-3.122-7-7-7zm0 1c3.324 0 6 2.676 6 6s-2.676 6-6 6-6-2.676-6-6 2.676-6 6-6zM9 9v6l5-3-5-3z" fill="currentColor" color="#5d656b"/></svg>