<svg version="1.1" viewBox="0 0 22 22" xmlns="http://www.w3.org/2000/svg">
 <defs>
  <style id="current-color-scheme" type="text/css">.ColorScheme-Text {
        color:#5d656b;
      }</style>
 </defs>
 <path class="ColorScheme-Text" d="m7 3v2h-2c-1.108 0-2 0.892-2 2v9c0 1.108 0.892 2 2 2h12c1.108 0 2-0.892 2-2v-9c0-1.108-0.892-2-2-2h-2v-2h-3v2h-2v-2h-3zm1 1h1v1h-1v-1zm5 0h1v1h-1v-1zm-8 2h7 3 2c0.554 0 1 0.446 1 1v9c0 0.554-0.446 1-1 1h-12c-0.554 0-1-0.446-1-1v-9c0-0.554 0.446-1 1-1z" fill="currentColor"/>
</svg>
