<svg xmlns="http://www.w3.org/2000/svg" viewBox="0 0 22 22"><defs id="defs3051"><style type="text/css" id="current-color-scheme">.ColorScheme-Text{color:#5d656b}</style></defs><path d="M11 3a8 8 0 0 0-8 8 8 8 0 0 0 1.395 4.5l.722-.723A7 7 0 0 1 4 11a7 7 0 0 1 7-7 7 7 0 0 1 3.773 1.121l.721-.72A8 8 0 0 0 11 3zm7.293 0L3 18.293l.707.707L19 3.707 18.293 3zm-.682 3.496l-.72.72a7 7 0 0 1 0 .003A7 7 0 0 1 18 11a7 7 0 0 1-7 7 7 7 0 0 1-3.777-1.115l-.721.72A8 8 0 0 0 11 19a8 8 0 0 0 8-8 8 8 0 0 0-1.389-4.504zM11 8v.895l.512-.512L11 8zm2.918 2.19L11 13.106V14l4-3-1.082-.81z" class="ColorScheme-Text" fill="currentColor"/><path d="M10 8a3 3 0 0 0-2.6 4.494l2.6-2.6z" class="ColorScheme-Text" fill="#d24d57"/></svg>