<svg xmlns="http://www.w3.org/2000/svg" viewBox="0 0 22 22"><path d="M4 3v14H3v1h1v1h1v-1h7v-1H5V3H4zm13 0v9h1V3h-1zm-6.5.5c-.972 0-1.88.34-2.52.98C7.34 5.12 7 6.028 7 7h2c0-.528.16-.87.395-1.105.235-.236.577-.395 1.105-.395s.87.16 1.105.395C11.841 6.13 12 6.472 12 7c0 .458-.09.653-.21.826-.522.526-1.153.976-1.66 1.406C9.56 9.662 9 10.224 9 11v.5h2V11c.71-.728 1.77-1.362 2.43-2.03.348-.498.57-1.178.57-1.97 0-.972-.34-1.88-.98-2.52-.64-.64-1.548-.98-2.52-.98zm6 8.5l-3.293 3.293L13 15.5l.207.207L16.5 19l.707-.707L14.914 16h4.293v-1h-4.293l2.293-2.293L16.5 12zM9 13.5v2h2v-2H9z" fill="currentColor" color="#5d656b"/></svg>