<svg xmlns="http://www.w3.org/2000/svg" viewBox="0 0 22 22"><defs id="defs3051"><style type="text/css" id="current-color-scheme">.ColorScheme-Text{color:#5d656b}</style></defs><path d="M7 11l-3 3 3 3v-6zm8 0v6l3-3-3-3zM6.023 4.994v4h-1v-2h-1v2h-1v1h16v-1H19V7h-1v1.994h-.977v-4h-1v4h-1v-2h-1v2h-1v-2h-1v2h-1v-2h-1v2h-1v-2h-1v2h-1v-4h-1zM3 11h1v6H3zm15 0h1v6h-1z" class="ColorScheme-Text" fill="currentColor"/><path d="M9.207 11.5l-.707.707L10.293 14 8.5 15.793l.707.707L11 14.707l1.793 1.793.707-.707L11.707 14l1.793-1.793-.707-.707L11 13.293 9.207 11.5z" fill="#d24d57"/></svg>