<svg xmlns="http://www.w3.org/2000/svg" viewBox="0 0 22 22"><path d="M10.969 3C9.218 3 7.562 3.422 6 4.264l.777 1.787c.781-.384 1.483-.658 2.108-.824a7.566 7.566 0 0 1 1.935-.25c.987 0 1.744.22 2.27.662.526.442.789 1.075.789 1.9 0 .442-.057.83-.172 1.164a3.198 3.198 0 0 1-.592 1c-.28.334-.867.883-1.763 1.65C10.252 12.358 9.1 14.14 9 16h2l-.006-.031c0-.759.132-1.368.395-1.826.271-.467.813-1.055 1.627-1.764.994-.842 1.657-1.475 1.986-1.9.337-.426.588-.875.752-1.35.164-.475.246-1.022.246-1.639 0-1.417-.448-2.519-1.344-3.303C13.76 3.396 12.531 3 10.97 3zM9 17v2h2v-2H9z" fill="currentColor" color="#5d656b"/></svg>