<svg xmlns="http://www.w3.org/2000/svg" viewBox="0 0 22 22"><path d="M11 6a10 10 0 0 0-8.686 5.07c.186.292.446.527.752.69A9 9 0 0 1 11 7a4 4 0 0 0-4 4 4 4 0 0 0 4 4 4 4 0 0 0 4-4 4 4 0 0 0-3.656-3.982 9 9 0 0 1 7.588 4.744c.31-.164.572-.403.757-.698A10 10 0 0 0 11 6zm0 2a3 3 0 0 1 3 3 3 3 0 0 1-3 3 3 3 0 0 1-3-3 3 3 0 0 1 3-3z" fill="currentColor" color="#5d656b"/><path d="M11 9a2 2 0 0 0-2 2 2 2 0 0 0 2 2 2 2 0 0 0 2-2 2 2 0 0 0-.09-.588A1 1 0 0 1 12 11a1 1 0 0 1-1-1 1 1 0 0 1 .59-.91A2 2 0 0 0 11 9z" fill="#da4453"/></svg>