<svg xmlns="http://www.w3.org/2000/svg" viewBox="0 0 22 22"><path d="M11 3a8 8 0 0 0-2 .266V4.31a7 7 0 0 0-1.316.544l-.008-.007-.733-.733a8 8 0 0 0-2.828 2.828l.522.522.218.219A7 7 0 0 0 4.31 9H3.26A8 8 0 0 0 3 11a8 8 0 0 0 .266 2H4.31a7 7 0 0 0 .544 1.316l-.218.22-.522.52a8 8 0 0 0 2.828 2.829l.522-.522.219-.218A7 7 0 0 0 9 17.69v1.049a8 8 0 0 0 2 .26 7.993 7.993 0 0 0 1-.07v-1.006A7.01 7.01 0 0 1 11 18c-.335 0-.669-.026-1-.074V16.91a6 6 0 0 1-2.473-1.023l-.062.062-.65.65-.004.005a6.995 6.995 0 0 1-1.413-1.416l.002-.002.65-.65.065-.065A6 6 0 0 1 5.085 12H4.077A7.01 7.01 0 0 1 4 11c0-.335.026-.669.074-1H5.09a6 6 0 0 1 1.023-2.473l-.062-.062-.65-.65-.005-.004a6.995 6.995 0 0 1 1.417-1.413l.001.002.65.65.065.065A6 6 0 0 1 10 5.085V4.077A7.01 7.01 0 0 1 11 4c.335 0 .669.026 1 .074V5.09a6 6 0 0 1 2.473 1.023l.062-.062.65-.65.004-.005a6.995 6.995 0 0 1 1.413 1.417l-.002.001-.65.65-.065.065A6 6 0 0 1 16.915 10H17.923c.049.33.075.665.076 1 0 .335-.026.669-.074 1H16.91a6 6 0 0 1-.73 2h1.134a7 7 0 0 0 .377-1h1.049a8 8 0 0 0 .26-2 8 8 0 0 0-.266-2H17.69a7 7 0 0 0-.545-1.316l.007-.008.733-.733a8 8 0 0 0-2.828-2.828l-.729.729-.012.011A7 7 0 0 0 13 4.31V3.26A8 8 0 0 0 11 3zM9 8v6l5-3-5-3zm6 7l-2 2 2 2h4v-4h-4zm.6 1H18v2h-2.4l-1-1 1-1z" fill="currentColor" color="#5d656b"/></svg>