<svg xmlns="http://www.w3.org/2000/svg" viewBox="0 0 22 22"><defs id="defs3051"><style type="text/css" id="current-color-scheme"></style></defs><path d="M4 3v14H3v1h1v1h1v-1h14v-1H5V3H4zm11.049 1.23a2.219 2.219 0 0 0-2.219 2.22 2.219 2.219 0 0 0 2.219 2.218 2.219 2.219 0 0 0 2.219-2.219 2.219 2.219 0 0 0-2.22-2.219zM7.994 7.764a.806.806 0 0 0-.806.806.806.806 0 0 0 .806.807.806.806 0 0 0 .805-.807.806.806 0 0 0-.805-.806zm3.91 3.406a1.47 1.47 0 0 0-1.47 1.47 1.47 1.47 0 0 0 1.47 1.471 1.47 1.47 0 0 0 1.471-1.47 1.47 1.47 0 0 0-1.47-1.471z" fill="currentColor" color="#5d656b"/></svg>