<svg xmlns="http://www.w3.org/2000/svg" viewBox="0 0 22 22"><path d="M3 3v3h1v1h1V6h1V5h1V4H6V3H3zm13 0v1h-1v1h1v1h1v1h1V6h1V3h-3zM4 4h1v1H4V4zm5 0v1h1V4H9zm3 0v1h1V4h-1zm5 0h1v1h-1V4zM4 9v1h1V9H4zm13 0v1h1V9h-1zM4 12v1h1v-1H4zm13 0v1h1v-1h-1zM4 15v1H3v3h3v-1h1v-1H6v-1H5v-1H4zm13 0v1h-1v1h-1v1h1v1h3v-3h-1v-1h-1zM4 17h1v1H4v-1zm13 0h1v1h-1v-1z" fill="currentColor" color="#5d656b"/><path d="M11 12a2 2 0 0 0-2 2 2 2 0 0 0 2 2 2 2 0 0 0 2-2 2 2 0 0 0-2-2zm0 4a2 2 0 0 0-2 2 2 2 0 0 0 2 2 2 2 0 0 0 2-2 2 2 0 0 0-2-2zm0-3a1 1 0 0 1 1 1 1 1 0 0 1-1 1 1 1 0 0 1-1-1 1 1 0 0 1 1-1zm0 4a1 1 0 0 1 1 1 1 1 0 0 1-1 1 1 1 0 0 1-1-1 1 1 0 0 1 1-1z" fill="currentColor" color="#3daee9"/></svg>