<svg xmlns="http://www.w3.org/2000/svg" viewBox="0 0 22 22"><path d="M11 3a7.97 7.97 0 0 0-5.043 1.785A.983.983 0 0 0 5 4c-.554 0-1 .446-1 1 0 .478.338.857.785.957A7.97 7.97 0 0 0 3 11a7.97 7.97 0 0 0 1.785 5.043A.983.983 0 0 0 4 17c0 .554.446 1 1 1a.983.983 0 0 0 .957-.785A7.97 7.97 0 0 0 11 19a7.97 7.97 0 0 0 5.043-1.785c.1.447.48.785.957.785.554 0 1-.446 1-1a.983.983 0 0 0-.785-.957A7.97 7.97 0 0 0 19 11a7.97 7.97 0 0 0-1.785-5.043c.447-.1.785-.48.785-.957 0-.554-.446-1-1-1a.983.983 0 0 0-.957.785A7.97 7.97 0 0 0 11 3zm-1 1l.047.072C10.359 4.03 10.675 4 11 4c3.878 0 7 3.122 7 7s-3.122 7-7 7-7-3.122-7-7a6.979 6.979 0 0 1 5.846-6.898L10 4zm1 5c-1.108 0-2 .892-2 2s.892 2 2 2 2-.892 2-2-.892-2-2-2z" fill="currentColor" color="#5d656b"/></svg>