<svg xmlns="http://www.w3.org/2000/svg" viewBox="0 0 22 22"><path d="M10.957 2.979C8.291 3.004 5.639 3.703 3 5c3.107 5.003 2.048 8.228 0 12 5.61 2.98 10.967 2.345 16 0-2.508-3.88-2.722-7.203 0-12-2.697-1.399-5.377-2.047-8.043-2.021zm-.242 1.013c.879-.025 1.773.05 2.681.211a30.644 30.644 0 0 0-.664 3.484c-.437-.04-.877-.07-1.328-.082a19.8 19.8 0 0 0-2.181.086 30.666 30.666 0 0 0-.655-3.445c.71-.132 1.423-.233 2.147-.254zm3.658.428c1.07.263 2.16.634 3.275 1.135-.49.944-.857 1.89-1.105 2.834a24.094 24.094 0 0 0-2.818-.58c.145-1.124.365-2.254.648-3.39zm-6.785.025c.279 1.12.496 2.236.64 3.344-.888.123-1.812.327-2.757.588a15.866 15.866 0 0 0-1.143-2.813 21.885 21.885 0 0 1 3.26-1.119zm3.422 4.159c.55-.001 1.09.024 1.619.072a26.556 26.556 0 0 0-.022 4.748c-1.045.094-2.13.096-3.257-.002a26.566 26.566 0 0 0-.024-4.742c.572-.05 1.133-.076 1.684-.076zm-2.678.177a25.47 25.47 0 0 1 .023 4.541 20.738 20.738 0 0 1-2.65-.572c.056-.276.116-.548.149-.838.088-.8.035-1.657-.145-2.562.902-.251 1.78-.449 2.623-.569zm5.29.018c.929.133 1.832.332 2.722.57a10.406 10.406 0 0 0-.043 3.373 23.3 23.3 0 0 1-2.703.56A25.455 25.455 0 0 1 13.62 8.8zm-8.16 4.918c.956.264 1.889.474 2.786.597a23.919 23.919 0 0 1-.64 3.19 19.158 19.158 0 0 1-3.25-1.055c.417-.86.812-1.761 1.105-2.732zm11.028.006c.236.92.6 1.826 1.104 2.71a20.15 20.15 0 0 1-3.252 1.046 24.008 24.008 0 0 1-.635-3.186 24.077 24.077 0 0 0 2.783-.57zm-7.25.687c1.203.104 2.36.102 3.475.002a24.96 24.96 0 0 0 .642 3.248c-1.7.28-3.277.272-4.77.035.29-1.09.514-2.185.653-3.285z" fill="currentColor" color="#5d656b"/></svg>