<svg xmlns="http://www.w3.org/2000/svg" viewBox="0 0 22 22"><defs id="defs3051"><style type="text/css" id="current-color-scheme"></style></defs><path d="M11 3c-1.11 0-2.163.23-3.121.637l.775.775a6.985 6.985 0 0 1 8.934 8.934l.775.775A7.968 7.968 0 0 0 19 11c0-4.432-3.568-8-8-8zM3 5v1h5V5H3zm.637 2.879A7.968 7.968 0 0 0 3 11c0 4.432 3.568 8 8 8 1.11 0 2.163-.23 3.121-.637l-.775-.775a6.985 6.985 0 0 1-8.934-8.934l-.775-.775zM16 14v2h-2v1h2v2h1v-2h2v-1h-2v-2h-1z" fill="currentColor" color="#5d656b"/></svg>