<svg xmlns="http://www.w3.org/2000/svg" viewBox="0 0 22 22"><defs id="defs3051"><style type="text/css" id="current-color-scheme"></style></defs><path d="M10.5 3c-.654 0-1.202.418-1.408 1H4v12.092A1.497 1.497 0 0 0 4.5 19a1.497 1.497 0 0 0 .5-2.908V5h4.092c.15.425.483.758.908.908V13h1.092A1.497 1.497 0 0 0 14 12.5a1.497 1.497 0 0 0-2.908-.5H11V5.908A1.497 1.497 0 0 0 10.5 3zm0 1a.499.499 0 1 1 0 1 .499.499 0 1 1 0-1zm2 8a.499.499 0 1 1 0 1 .499.499 0 1 1 0-1zm4 1l-.207.207L13 16.5l.707.707L16 14.914v4.293h1v-4.293l2.293 2.293L20 16.5l-3.293-3.293L16.5 13zm-12 4a.499.499 0 1 1 0 1 .499.499 0 1 1 0-1z" fill="currentColor" color="#5d656b"/></svg>