<svg xmlns="http://www.w3.org/2000/svg" viewBox="0 0 22 22"><defs id="defs3051"><style type="text/css" id="current-color-scheme"></style></defs><path d="M10.5 3c-.654 0-1.202.418-1.408 1H4v12.092A1.497 1.497 0 0 0 4.5 19a1.497 1.497 0 0 0 .5-2.908V5h4.092c.15.425.483.758.908.908V13h1.092A1.497 1.497 0 0 0 14 12.5a1.497 1.497 0 0 0-2.908-.5H11V5.908A1.497 1.497 0 0 0 10.5 3zm0 1a.499.499 0 1 1 0 1 .499.499 0 1 1 0-1zm2 8a.499.499 0 1 1 0 1 .499.499 0 1 1 0-1zm3.5 1v4.293L13.707 15l-.707.707L16.293 19l.207.207.207-.207L20 15.707 19.293 15 17 17.293V13h-1zM4.5 17a.499.499 0 1 1 0 1 .499.499 0 1 1 0-1z" fill="currentColor" color="#5d656b"/></svg>