<svg xmlns="http://www.w3.org/2000/svg" viewBox="0 0 22 22"><path d="M11.382 2.388c-1.99 0-3.22 1.264-3.398 2.799v1.018l-2.15-1.52-.85.663 2.547 1.989.85.663.848-.663 2.547-1.99-.849-.662-1.943 1.52V5.187c0-1.036 1.065-1.799 2.398-1.799 1.333 0 2.62.764 2.602 1.799V6h1v-.813c0-1.546-1.612-2.799-3.602-2.799zM13.984 7a2 2 0 1 0 0 4 2 2 0 0 0 0-4zm-6 2a2 2 0 0 0-2 2 2 2 0 0 0 2 2 2 2 0 0 0 2-2 2 2 0 0 0-2-2zM14 12c-1.519 0-2.764 1.163-2.979 2.672.583.662.963 1.328.963 2.328h4.43c.393-.54.607-1.199.607-1.875C17.021 13.399 15.67 12 14 12zm-.049 1c1.103 0 1.996.84 1.996 1.875 0 .406-.14.8-.4 1.125h-2.82a2.525 2.525 0 0 0-.743-1.398c.142-.906.964-1.602 1.967-1.602zm-5.967 1a3 3.125 0 0 0-3 3.125A3 3.125 0 0 0 5.59 19h4.793a3 3.125 0 0 0 .601-1.875 3 3.125 0 0 0-3-3.125zm0 1a2 2.25 0 0 1 2 2.25 2 2.25 0 0 1-.117.75H6.102a2 2.25 0 0 1-.118-.75 2 2.25 0 0 1 2-2.25z" fill="currentColor" color="#5d656b"/></svg>