<svg xmlns="http://www.w3.org/2000/svg" viewBox="0 0 22 22"><path d="M6.79 3.412l-.868.5 1.646 2.85L5.32 6.16l-.26.967 3.215.861 1.57 2.717H6.708L4.354 8.352l-.708.707 1.647 1.646H2v1h3.293l-1.647 1.647.708.707 2.353-2.354H9.84l-1.567 2.713-3.214.861.257.967 2.25-.603-1.646 2.851.865.5 1.647-2.851.603 2.25.965-.26-.861-3.217 1.855-3.21H11l1.857 3.218-.86 3.215.966.257.601-2.248L15.211 19l.867-.5-1.646-2.852 2.248.602.26-.965-3.215-.861-1.57-2.719h3.138l2.353 2.354.708-.707-1.647-1.647H20v-1h-3.293l1.647-1.646L18.303 9H17l-1.707 1.705h-3.137L13.141 9H12l-.998 1.703H11l-.004-.002-1.853-3.213.86-3.215-.966-.26-.601 2.25zM17.502 5.25h1.503l-.028.75H16l1.503-2.25H16V3h3.006zm-4.005 2H15l-.028.75h-2.975l1.501-2.25h-1.501V5H15z" fill="currentColor" color="#5d656b"/></svg>