<svg xmlns="http://www.w3.org/2000/svg" viewBox="0 0 22 22"><path d="M7.046 4.049A7.995 8 0 0 0 3 11a7.995 8 0 0 0 7.995 8 7.995 8 0 0 0 6.937-4.043 7.995 8 0 0 0 .01-.006l-.738-.738a6.996 7 0 0 1-.004.006 6.996 7 0 0 1-3.207.781 6.996 7 0 0 1-6.996-7 6.996 7 0 0 1 .787-3.213zM6.303 5.82A7.995 8 0 0 0 5.998 8a7.995 8 0 0 0 7.995 8 7.995 8 0 0 0 2.186-.313A6.996 7 0 0 1 10.995 18a6.996 7 0 0 1-6.996-7 6.996 7 0 0 1 2.304-5.18zM11.71 9.1h1.715l-.032.9H9.996l1.714-2.7H9.996v-.9h3.429zm4.573-2.4H18l-.032.9h-3.401l1.716-2.7h-1.716V4H18z" fill="currentColor" color="#5d656b"/></svg>