<svg xmlns="http://www.w3.org/2000/svg" viewBox="0 0 22 22"><path d="M3 3v16h16V3H3zm1 1h5v5H4V4zm6 0h2v2h-2V4zm3 0h2v2h-2V4zm3 0h2v2h-2V4zm-6 3h2v2h-2V7zm3 0h2v2h-2V7zm3 0h2v2h-2V7zM4 10h2v2H4v-2zm3 0h2v2H7v-2zm3 0h2v2h-2v-2zm3 0h2v2h-2v-2zm3 0h2v2h-2v-2zM4 13h2v2H4v-2zm3 0h2v2H7v-2zm3 0h2v2h-2v-2zm3 0h2v2h-2v-2zm3 0h2v2h-2v-2zM4 16h2v2H4v-2zm3 0h2v2H7v-2zm3 0h2v2h-2v-2zm3 0h2v2h-2v-2zm3 0h2v2h-2v-2z" fill="currentColor" color="#5d656b"/><path d="M4 4v5h5V4H4z" fill="currentColor" color="#3daee9"/></svg>