<svg xmlns="http://www.w3.org/2000/svg" viewBox="0 0 22 22"><path d="M10.294 20.038c-.687-1.069-.933-1.24-1.244-.868-.116.139-.274.253-.35.253-.077 0-.511-.518-.965-1.15-.9-1.256-1.34-1.405-1.508-.515-.094.495-.141.443-.846-.931-.41-.8-.867-1.502-1.016-1.558-.148-.057-.474-.011-.723.102-.249.113-.492.165-.541.117-.049-.049.083-.77.294-1.604.455-1.805.358-2.064-.71-1.894-.525.083-.685.05-.685-.14 0-.138.51-1.109 1.131-2.159 1.064-1.794 1.116-1.932.87-2.306-.642-.974.313-2.174 1.731-2.174.374 0 .68-.048.68-.106 0-.059-.199-.341-.441-.628-.243-.287-.442-.584-.442-.662 0-.077.522-.043 1.16.076l1.16.217-.11-.434c-.06-.239-.154-.66-.21-.936l-.101-.502 1.112.449 1.113.45.312-.41c.172-.225.447-.705.612-1.067.165-.362.355-.658.423-.658s.258.296.423.658c.165.362.44.842.612 1.067l.312.41 1.113-.45 1.112-.45-.101.503c-.056.276-.151.702-.213.946-.122.482-.177.48 1.816.03.543-.122.498.142-.151.877l-.548.62h.787c1.525 0 2.505 1.16 1.837 2.174-.246.374-.194.512.87 2.306C19.49 10.741 20 11.712 20 11.85c0 .191-.16.224-.685.14-1.068-.17-1.165.09-.71 1.895.21.833.343 1.555.294 1.604-.049.048-.292-.004-.541-.117-.25-.113-.575-.159-.723-.102-.149.056-.606.758-1.016 1.558-.705 1.374-.752 1.426-.846.931-.169-.89-.607-.74-1.508.514-.454.633-.888 1.15-.965 1.15-.076 0-.234-.113-.35-.252-.311-.373-.557-.2-1.244.868-.34.53-.657.962-.706.962-.049 0-.366-.433-.706-.962zm2.196-3.462c.437-.62.354-1.013-.215-1.013-.27 0-.667-.123-.883-.273-.355-.248-.43-.248-.784 0-.216.15-.613.273-.883.273-.569 0-.652.393-.215 1.013.239.34.434.39 1.49.39s1.251-.05 1.49-.39zm-2.365-1.544c.186-.098.419-.33.519-.516.151-.281.093-.388-.357-.652-.407-.24-.525-.423-.486-.756.05-.42.106-.44 1.199-.44 1.099 0 1.15.019 1.2.448.038.331-.065.511-.397.688-.554.294-.579.772-.058 1.135.603.42.922.331 1.387-.382.235-.36.765-.84 1.178-1.067.413-.226.837-.571.942-.766.321-.596.538-2.576.326-2.97-.104-.193-1.033-1.017-2.066-1.832-2.494-1.969-2.51-1.969-5.016 0-1.037.815-1.97 1.639-2.074 1.831-.214.399.006 2.377.332 2.983.109.202.453.495.766.652.696.35 1.362.94 1.362 1.205 0 .53.645.757 1.243.44zM8.882 10.84c0-.104-.153-.19-.34-.19-.347 0-1.195-.989-1.008-1.175.057-.056.482.054.946.243.668.273.844.43.844.755 0 .226-.1.444-.221.484-.121.04-.22-.012-.22-.117zm3.77-.102a.802.802 0 0 1-.012-.496c.1-.258 1.678-.914 1.831-.761.183.182-.672 1.169-1.012 1.169-.188 0-.341.079-.341.175 0 .273-.352.207-.466-.087zm-6.24-2.722c.187-.123.206-.212.064-.305-.11-.072-.23-.287-.266-.478-.082-.432-.765-.788-1.519-.791-.748-.004-.742.32.021 1.125.602.635 1.18.787 1.7.449zm10.876-.449c.763-.805.77-1.129.02-1.125-.753.003-1.436.359-1.518.791-.036.19-.156.406-.266.478-.142.093-.123.182.064.305.52.338 1.098.186 1.7-.449zM7.183 6.464c.261-.286.265-.351.034-.542-.395-.326-1.532-.418-2.129-.172l-.53.218.65.118c.357.065.834.246 1.059.402.527.365.563.364.916-.024zm8.515.033c.247-.162.741-.347 1.097-.411l.646-.118-.53-.218c-.596-.246-1.733-.154-2.128.172-.231.19-.227.256.034.542.36.395.326.394.88.033z" fill="currentColor" color="#5d656b"/></svg>