<svg xmlns="http://www.w3.org/2000/svg" viewBox="0 0 22 22"><path d="M14.666 6.895l-1.332 3.771L12 14.437l.943.334.453-1.283a4 4 0 0 0 2.375 2.283 4 4 0 0 0 5.104-2.437 4 4 0 0 0-2.438-5.105 4 4 0 0 0-3.28.283l.452-1.283-.943-.334zM5 7.447a4 4 0 0 0-4 4 4 4 0 0 0 4 4 4 4 0 0 0 3-1.361v1.361h1v-8H8V8.81a4 4 0 0 0-3-1.362zm0 1a3 3 0 0 1 3 3 3 3 0 0 1-3 3 3 3 0 0 1-3-3 3 3 0 0 1 3-3zm12.012.555a3 3 0 0 1 1.093.17A3 3 0 0 1 19.934 13a3 3 0 0 1-3.829 1.828A3 3 0 0 1 14.275 11a3 3 0 0 1 2.737-1.998z" fill="currentColor" color="#5d656b"/><path d="M10 3v16h1v-2.42l9.36 2.106.232-1.028L11 15.5V3h-1z" fill="currentColor" color="#3daee9"/></svg>