<svg xmlns="http://www.w3.org/2000/svg" viewBox="0 0 22 22"><defs id="defs3051"><style type="text/css" id="current-color-scheme"></style></defs><path d="M3 3v6h3c1.108 0 2-.892 2-2 0-.81-.481-1.502-1.172-1.816C6.934 4.978 7 4.748 7 4.5 7 3.669 6.331 3 5.5 3H3zm11 0v6h3c1.108 0 2-.892 2-2V5c0-1.108-.892-2-2-2h-3zM4 4h1.5a.499.499 0 1 1 0 1H4V4zm11 0h2c.554 0 1 .446 1 1v2c0 .554-.446 1-1 1h-2V4zM4 6h2c.554 0 1 .446 1 1s-.446 1-1 1H4V6zm6 0v1h2V6h-2zm-6 6v1h2v-1H4zm4 0v1h2v-1H8zm4 0v1h2v-1h-2zm4 0v1h2v-1h-2zM5 15l-2 2 2 2v-4zm12 0v4l2-2-2-2zm-6 1c-.554 0-1 .446-1 1s.446 1 1 1 1-.446 1-1-.446-1-1-1z" fill="currentColor" color="#5d656b"/></svg>