<svg xmlns="http://www.w3.org/2000/svg" viewBox="0 0 22 22"><defs id="defs3051"><style type="text/css" id="current-color-scheme">.ColorScheme-Text{color:#5d656b}</style></defs><path d="M6.023 4.994v4h-1v-2h-1v2h-1v1h6.862l1.138-1.139v-1.86h-1v2h-1v-2h-1v2h-1v-4h-1zm6 2v.861l.862-.86h-.862zM18 7v1.994h-.977V7.098l-1 1v.896h-.896l-1 1h4.896v-1H19V7h-1zM7 11l-3 3 .94.94L7 12.878V11zm8 0v6l3-3-3-3zM18.271 3L2.978 18.291l.707.707L18.978 3.706 18.271 3z" class="ColorScheme-Text" fill="currentColor"/><path d="M18 11h1v6h-1zM3 11v5.857l1-1V11H3z" class="ColorScheme-Text" fill="currentColor"/></svg>