<svg xmlns="http://www.w3.org/2000/svg" viewBox="0 0 22 22"><path d="M13.01 4c-1.694-.04-2.94.896-3.772 2.191-.83 1.297-1.33 2.961-1.748 4.608-.416 1.646-.745 3.28-1.158 4.457-.206.588-.437 1.059-.67 1.347-.232.29-.419.392-.672.397H3v1h2.01c.58-.011 1.079-.331 1.432-.77.353-.438.608-1 .834-1.644.452-1.29.777-2.93 1.185-4.543.409-1.614.903-3.195 1.62-4.313.716-1.117 1.57-1.762 2.908-1.73h.008c2.712.022 3.864 1.139 4.455 2.252.389.732.328 1.05.361 1.465-1.7-.755-3.136-.952-4.144-.418-1.202.635-1.748 1.98-1.836 3.384-.089 1.405.256 2.928.955 4.147C13.486 17.05 14.597 18 16 18c1.548.015 3.005 0 3.005 0l-.011-1s-1.451.015-2.99 0H16c-.951 0-1.758-.643-2.345-1.668-.588-1.025-.9-2.395-.824-3.586.074-1.19.513-2.146 1.304-2.564.791-.419 2.097-.393 4.12.753l.71.403.036-.817s.064-1.362-.666-2.738C17.605 5.41 16.008 4.027 13.012 4h-.002z" fill="currentColor" color="#5d656b"/></svg>