<svg width="22" height="22" version="1.1" xmlns="http://www.w3.org/2000/svg">
 <style id="current-color-scheme" type="text/css">.ColorScheme-Text {
            color:#5d656b;
        }</style>
 <path class="ColorScheme-Text" d="m7 4c-0.554 0-1 0.446-1 1v2h-2c-0.554 0-1 0.446-1 1v9c0 0.554 0.446 1 1 1h14c0.554 0 1-0.446 1-1v-9c0-0.554-0.446-1-1-1h-2v-2c0-0.554-0.446-1-1-1zm0 1h8v2h-8zm-3 3h14v2h-14zm0 3h3v2c0 0.554 0.446 1 1 1h6c0.554 0 1-0.446 1-1v-2h3v6h-14zm4 0h6v2h-6z" fill="currentColor"/>
</svg>
