<svg xmlns="http://www.w3.org/2000/svg" viewBox="0 0 22 22"><path d="M11 3c-4.432 0-8 3.568-8 8s3.568 8 8 8v-1c-3.878 0-7-3.122-7-7s3.122-7 7-7 7 3.122 7 7h1c0-4.432-3.568-8-8-8zm0 2c-3.324 0-6 2.676-6 6h3c0-1.662 1.338-3 3-3V5zm0 4c-1.108 0-2 .892-2 2s.892 2 2 2v-1c-.554 0-1-.446-1-1s.446-1 1-1 1 .446 1 1h1c0-1.108-.892-2-2-2zm2.5 4a1.497 1.497 0 0 0-.5 2.908V19h4v-3c.554 0 1-.446 1-1s-.446-1-1-1-1 .446-1 1h-1.092c.056-.157.092-.323.092-.5 0-.831-.669-1.5-1.5-1.5zm3.5 4l2 2v-4l-2 2zm-3-1h2v2h-2v-2z" fill="currentColor" color="#5d656b"/></svg>