<svg xmlns="http://www.w3.org/2000/svg" viewBox="0 0 22 22"><path d="M11 3c-4.432 0-8 3.568-8 8a7.982 7.982 0 0 0 10 7.74v-1.033A7.034 7.034 0 0 1 11 18c-3.878 0-7-3.122-7-7s3.122-7 7-7 7 3.122 7 7c0 .696-.105 1.366-.293 2h1.033A7.982 7.982 0 0 0 11 3zm0 2c-3.324 0-6 2.676-6 6h3c0-1.662 1.338-3 3-3V5zm0 4c-1.108 0-2 .892-2 2s.892 2 2 2 2-.892 2-2-.892-2-2-2zm0 1c.554 0 1 .446 1 1s-.446 1-1 1-1-.446-1-1 .446-1 1-1zm3 1c0 .353-.069.688-.182 1h3.092c.056-.325.09-.658.09-1h-3zm1.404 2.041a1.995 1.995 0 0 1 .953 3.424A1.489 1.489 0 0 1 16 15.5c0-.082.013-.16.025-.238A1.996 1.996 0 0 0 17 19c1.108 0 2-.892 2-2a3.976 3.976 0 0 0-3.596-3.959zM13 13.225A2.979 2.979 0 0 1 11 14v3c.703 0 1.374-.127 2-.348v-3.427z" fill="currentColor" color="#5d656b"/></svg>