<svg xmlns="http://www.w3.org/2000/svg" viewBox="0 0 22 22"><path d="M14.127 3.004c-.621.038-1.047.428-1.346.91-.326-1.186-2.639-1.26-3.101.422-.364-.392-.828-.663-1.412-.621h-.024c-1.069.093-1.826 1.034-1.642 2.064l.912 5.311c-.346-.237-.765-.643-1.073-.777-.713-.312-1.366-.351-1.892-.2-1.052.301-1.367 1.286-1.367 1.286L3 11.911l.455.311c1.005.66 2.024 2.262 2.986 3.754.482.746.961 1.451 1.506 2.021.545.57 1.163 1.008 1.994 1.003H17.137l.023-.668s.064-1.24.182-2.71c.117-1.47.3-3.184.502-3.978l1.095-4.287c.316-1.177-.646-2.31-1.892-2.22-.383.02-.72.185-1.004.399l.021-.644c.072-1.076-.832-1.958-1.937-1.888zm-2.873.709v.002c.58-.036 1.139.454 1.162 1.02l.275 4.91c.016.277.193.274.206.023l.25-4.933c.02-.522.49-.99 1.025-1.022.619-.04 1.204.53 1.164 1.134l-.273 5.397c-.009.162.039.242.09.045l.935-3.621c.107-.444.536-.796 1.004-.823.691-.05 1.316.68 1.14 1.334l-1.095 4.287c-.44 1.723-.662 6.018-.688 6.531L10 18c-2.117-.021-3.664-4.752-6.135-6.377 0 0 .89-2.556 4.54.998 0 0 .025-.118.068-.287a1.063 1.063 0 0 1-.047-.269L7.332 5.667c-.103-.579.38-1.19.98-1.243.546-.039 1.084.383 1.163.91L10.273 10c.033.193.265.142.25-.11l-.294-5.042c-.037-.559.451-1.1 1.025-1.134z" fill="currentColor" color="#5d656b"/></svg>