<svg xmlns="http://www.w3.org/2000/svg" viewBox="0 0 22 22"><path d="M3 3v16h16V8h-1v10H4V4h9V3H3zm12.5 0l-.707.707L12 6.5l.707.707L15 4.914V10h1V4.914l2.293 2.293L19 6.5l-2.793-2.793L15.5 3zm-8 2A2.495 2.495 0 0 0 5 7.5C5 8.885 6.115 10 7.5 10S10 8.885 10 7.5 8.885 5 7.5 5zm0 1C8.331 6 9 6.669 9 7.5S8.331 9 7.5 9 6 8.331 6 7.5 6.669 6 7.5 6zm6.494 4l-3.346 3.344L9.307 12l-.006.008L9.293 12 5 16.293l.707.707 3.592-3.592.642.643.707.707.707-.707L14 11.406l2.293 2.293.707-.707L14.008 10l-.008.008-.006-.008z" fill="currentColor" color="#5d656b"/></svg>