<svg xmlns="http://www.w3.org/2000/svg" viewBox="0 0 22 22"><defs id="defs3051"><style type="text/css" id="current-color-scheme"></style></defs><path d="M6 3S5 3 5 4H3v15h16V4h-2c0-1-1-1-1-1h-3s-1 0-1 1h-2c0-1-1-1-1-1H6zm0 1h3v1H6V4zm7 0h3v1h-3V4zM4 7h14v11H4V7zm5.5 2A3.492 3.492 0 0 0 6 12.5C6 14.439 7.561 16 9.5 16c.54 0 1.044-.13 1.5-.346.456.217.96.346 1.5.346 1.939 0 3.5-1.561 3.5-3.5S14.439 9 12.5 9c-.54 0-1.044.13-1.5.346A3.482 3.482 0 0 0 9.5 9zm0 1c.172 0 .34.018.502.05A3.484 3.484 0 0 0 9 12.5c0 .957.384 1.819 1.002 2.45A2.495 2.495 0 0 1 7 12.5C7 11.115 8.115 10 9.5 10zm3 0c1.385 0 2.5 1.115 2.5 2.5a2.495 2.495 0 0 1-3.002 2.45A3.484 3.484 0 0 0 13 12.5c0-.957-.384-1.819-1.002-2.45.162-.032.33-.05.502-.05zm-1.5.508a2.485 2.485 0 0 1 0 3.984 2.485 2.485 0 0 1 0-3.984z" fill="currentColor" color="#5d656b"/></svg>