<svg xmlns="http://www.w3.org/2000/svg" viewBox="0 0 22 22"><path d="M5.111 3v.814h2.073L5 7.068v.733h3.828v-.852H6.582l2.174-3.293V3H5.11zM13 8.992v8.293l-2.293-2.293L10 15.7l3.293 3.293.207.207.207-.207L17 15.7l-.707-.707L14 17.285V8.992h-1zM7.096 9c-.784.018-1.385.155-1.823.355l.247.9c.209-.072 1.002-.325 1.466-.325h.063c.646.027.693.262.693.818v.219l-.338.054C5.838 11.25 5 11.441 5 12.643 5 13.48 5.61 14 6.494 14c.61 0 1.01-.255 1.42-.602l.127.51h.967V10.54C9.008 9.51 8.296 9 7.203 9h-.107zm.646 2.678v1.119c-.337.228-.592.392-1.03.392-.39 0-.583-.245-.583-.591 0-.656.574-.765 1.275-.866l.338-.054z" fill="currentColor" color="#5d656b"/></svg>