<svg xmlns="http://www.w3.org/2000/svg" viewBox="0 0 22 22"><path d="M3.707 3a.99.99 0 0 1 .473 1.7.736.736 0 0 1-.164-.596.99.99 0 0 0 .484 1.855c.55 0 .994-.444.994-.994A1.975 1.975 0 0 0 3.707 3zm4 0a.99.99 0 0 1 .473 1.7.736.736 0 0 1-.164-.596.99.99 0 0 0 .484 1.855c.55 0 .994-.444.994-.994A1.975 1.975 0 0 0 7.707 3zm5 0a.99.99 0 0 1 .473 1.7.736.736 0 0 1-.164-.596.99.99 0 0 0 .484 1.855c.55 0 .994-.444.994-.994A1.975 1.975 0 0 0 12.707 3zm4 0a.99.99 0 0 1 .473 1.7.736.736 0 0 1-.164-.596.99.99 0 0 0 .484 1.855c.55 0 .994-.444.994-.994A1.975 1.975 0 0 0 16.707 3zM4 7v2H3v10h16V9h-1V7h-1v2h-3V7h-1v2H9V7H8v2H5V7H4zm0 3h14v4h-.545A2.45 2.45 0 0 1 15 11.545V11h-1v.545A2.45 2.45 0 0 1 11.545 14h-1.09A2.45 2.45 0 0 1 8 11.545V11H7v.545A2.45 2.45 0 0 1 4.545 14H4v-4zm3.5 3.658A2.989 2.989 0 0 0 10 15h2a2.989 2.989 0 0 0 2.5-1.342A2.989 2.989 0 0 0 17 15h1v1H4v-1h1a2.989 2.989 0 0 0 2.5-1.342zM4 17h14v1H4v-1z" fill="currentColor" color="#5d656b"/></svg>