<svg xmlns="http://www.w3.org/2000/svg" viewBox="0 0 22 22"><path d="M18.293 3L3 18.293l.707.707L19 3.707 18.293 3zM11 6a10 10 0 0 0-8.713 5.12c.18.3.434.549.74.72A9 9 0 0 1 11 7a4 4 0 0 0-4 4 4 4 0 0 0 .357 1.643l.774-.774A3 3 0 0 1 8 11a3 3 0 0 1 3-3 3 3 0 0 1 .87.13l.77-.77a4 4 0 0 0-1.296-.342 9 9 0 0 1 1.453.185l.844-.844A10 10 0 0 0 11 6zm5.404 1.596l-.728.728a9 9 0 0 1 3.299 3.514c.308-.173.565-.423.744-.727a10 10 0 0 0-3.315-3.515zM11 9a2 2 0 0 0-2 2l2-2zm3.643.357l-.774.774A3 3 0 0 1 14 11a3 3 0 0 1-3 3 3 3 0 0 1-.87-.13l-.773.773A4 4 0 0 0 11 15a4 4 0 0 0 4-4 4 4 0 0 0-.357-1.643zM13 11l-2 2a2 2 0 0 0 2-2zM1 13c-.667 6-.333 3 0 0z" fill="currentColor" color="#5d656b"/></svg>