<svg xmlns="http://www.w3.org/2000/svg" viewBox="0 0 22 22"><defs id="defs3051"><style type="text/css" id="current-color-scheme">.ColorScheme-Text{color:#5d656b}</style></defs><path d="M3 5v12h10v-1H4V6h14v5h1V5H3zm4.5 2C6.669 7 6 7.669 6 8.5V10H5v3h5v-3H9V8.5C9 7.669 8.331 7 7.5 7zm0 1c.277 0 .5.223.5.5V10H7V8.5c0-.277.223-.5.5-.5zM11 8v1h6V8h-6zm0 2v1h5v-1h-5zm0 2v1h4v-1h-4z" class="ColorScheme-Text" fill="currentColor"/><path d="M17.5 12l-.707.707L19.086 15H14v1h5.086l-2.293 2.293.707.707 2.793-2.793L21 15.5l-.707-.707L17.5 12z" class="ColorScheme-Text" fill="currentColor" fill-opacity=".5"/></svg>