<svg xmlns="http://www.w3.org/2000/svg" viewBox="0 0 22 22"><path d="M7.096 3c-.784.018-1.385.155-1.823.355l.247.9c.209-.072 1.002-.325 1.466-.325h.063c.646.027.693.262.693.818v.219l-.338.054C5.838 5.25 5 5.441 5 6.643 5 7.48 5.61 8 6.494 8c.61 0 1.01-.255 1.42-.602l.127.51h.967V4.54C9.008 3.51 8.296 3 7.203 3h-.107zm.646 2.678v1.119c-.337.228-.592.392-1.03.392-.39 0-.583-.245-.583-.591 0-.656.574-.765 1.275-.866l.338-.054zM13.5 8.793L13.293 9 10 12.293l.707.707L13 10.707V19h1v-8.293L16.293 13l.707-.707L13.707 9l-.207-.207zm-8.389.406v.815h2.073L5 13.27V14h3.828v-.852H6.582l2.174-3.29v-.659H5.11z" fill="currentColor" color="#5d656b"/></svg>