<svg xmlns="http://www.w3.org/2000/svg" viewBox="0 0 22 22"><path d="M3 2.998v1h10v-1H3zM16 3v1h1v2h-1v1h3V6h-1V4h1V3h-3zM3 4.998v1h6v-1H3zm7 0v1h1v-1h-1zm2 0v1h1v-1h-1zm2 0v1h1v-1h-1zm-11 4v1h8v-1H3zM14 9v1h1v2h-1v1h5v-1h-1v-2h1V9h-5zm2 1h1v2h-1v-2zm-13 .998v1h4v-1H3zm5 0v1h1v-1H8zm2 0v1h1v-1h-1zm2 0v1h1v-1h-1zm-9 4v1h7v-1H3zM12 15v1h1v2h-1v1h7v-1h-1v-2h1v-1h-7zm2 1h1v2h-1v-2zm2 0h1v2h-1v-2zm-13 .998v1h2v-1H3zm3 0v1h1v-1H6zm2 0v1h1v-1H8zm2 0v1h1v-1h-1z" fill="currentColor" color="#5d656b"/></svg>