<svg xmlns="http://www.w3.org/2000/svg" viewBox="0 0 22 22"><path d="M5.707 3L5 3.707l6.125 6.125L12.293 11l-1.168 1.168L5 18.293l.707.707 6.125-6.125L13.707 11l-1.875-1.875L5.707 3" fill="currentColor" color="#5d656b"/><path d="M16.766 12.014a2 2 0 0 0-1.768 1.896 2 2 0 0 0 0 .09h1a1 1 0 0 1 .883-.994h.115v-.992h-.23zm.232.002v1a1 1 0 0 1 .994.882v.116h.006a1 1 0 0 1-.883.994H17V15a2 2 0 0 0-.2.002 2 2 0 0 0-.8.219v-.207h-.002v2h1V16h.232a2 2 0 0 0 1.768-1.896 2 2 0 0 0 0-.09h-.014v-.23a2 2 0 0 0-1.896-1.768 2 2 0 0 0-.09 0zM16 18v1h1v-1h-1z" fill="#fdbc4b"/></svg>