<svg width="22" height="22" version="1.1" viewBox="0 0 22 22" xmlns="http://www.w3.org/2000/svg">
 <defs>
  <style id="current-color-scheme" type="text/css">.ColorScheme-Accent {
        color:#3593e6;
      }</style>
 </defs>
 <path d="m5 2c-0.84728 0-1.0014 0.66738-1.0014 1h-1.666c-0.33262 0-0.33262 0-0.33262 0.33262v6.6679c0 0.37042 0.29734 0.66776 0.66524 0.66776h16.667c0.36937 0.0014 0.66916-0.29839 0.66776-0.66776v-6.6679c0-0.33262 0-0.33262-0.33262-0.33262h-9.669c0-0.33262-0.15051-1-0.99836-1z" fill="#cccccc" fill-opacity=".976" stroke="#000000" stroke-opacity=".27843" stroke-width="2" style="paint-order:markers stroke fill"/>
 <path d="m5 2c-0.84728 0-1.0014 0.66738-1.0014 1h-1.666c-0.33262 0-0.33262 0-0.33262 0.33262v6.6679c0 0.37042 0.29734 0.66776 0.66524 0.66776h16.667c0.36937 0.0014 0.66916-0.29839 0.66776-0.66776v-6.6679c0-0.33262 0-0.33262-0.33262-0.33262h-9.669c0-0.33262-0.15051-1-0.99836-1z" fill="#ffffff" fill-opacity=".976" stroke-width="2.5198" style="paint-order:markers stroke fill"/>
 <path d="m10.999 5c-0.48248 0-0.81227 0.27135-0.99874 0.58885l-1 1.4112-7.6674 5.032e-4c-0.33262 2.18e-5 -0.33262 0.33262-0.33262 0.33262v11.334c0 0.33262 0.33262 0.33262 0.33262 0.33262h19.335c0.33262 0 0.33262-0.33262 0.33262-0.33262v-13.335c0-0.33262-0.33262-0.33262-0.33262-0.33262z" fill="#6ba4e7" stroke="#003579" stroke-opacity=".56078" stroke-width="2"/>
 <path d="m10.999 5c-0.48248 0-0.81227 0.27135-0.99874 0.58885l-1 1.4112-7.6674 5.032e-4c-0.33262 2.18e-5 -0.33262 0.33262-0.33262 0.33262v11.334c0 0.33262 0.33262 0.33262 0.33262 0.33262h19.335c0.33262 0 0.33262-0.33262 0.33262-0.33262v-13.335c0-0.33262-0.33262-0.33262-0.33262-0.33262z" fill="#6ba4e7"/>
</svg>
