<svg width="22" height="22" version="1.1" xmlns="http://www.w3.org/2000/svg" xmlns:xlink="http://www.w3.org/1999/xlink">
 <g transform="translate(0,6)">
  <rect x="2" y="-3.9973" width="17.997" height="17.997" rx=".9973" ry=".99733" color="#000000" color-rendering="auto" fill="#d53842" image-rendering="auto" shape-rendering="auto" solid-color="#000000" style="filter-blend-mode:normal;filter-gaussianBlur-deviation:0;isolation:auto;mix-blend-mode:normal"/>
  <path d="m3-3h16v16h-16z" color="#000000" fill="#f5d66c"/>
  <path d="m10.474-1.7358-0.0044 0.45948c-1.2713 0.095487-2.4849 0.39344-3.5813 1.0119-1.8665 0.99692-3.1328 3.8898-3.2028 5.9033 0.0038477 0.18375-0.039171 0.38991 0.035466 0.55949 0.17742 0.22881 0.60185 0.2973 0.78976 0.042404 0.48305-0.55861 1.2324-0.94898 2.0175-0.90963 0.73412-0.036984 1.4122 0.3602 1.8406 0.8935 0.1548 0.20164 0.48313 0.25576 0.68567 0.087321 0.24296-0.22771 0.45848-0.49198 0.75751-0.66631 0.21348-0.13316 0.45029-0.22744 0.70022-0.27297 0.04347 1.7534-0.0015 2.526 0.0068 4.2796 0.01518 0.28987-0.05905 0.57709-0.2633 0.79941-0.36119 0.45839-1.0722 0.62748-1.6186 0.36282-0.43169-0.19349-0.71578-0.6173-0.7393-1.0605-0.02157-0.21951-0.17653-0.44442-0.43195-0.45947-0.28639-0.036146-0.53966 0.21721-0.50015 0.48066-0.017422 0.96057 0.7997 1.829 1.7953 2.0108 1.07 0.2241 2.2434-0.40373 2.5815-1.3725 0.19172-0.52166 0.08887-1.0825 0.12155-1.6234 0.0086-1.4679-0.02186-1.9549 0.02305-3.4225 0.58787 0.11351 1.063 0.50383 1.4277 0.92656 0.20671 0.18551 0.56975 0.14396 0.72386-0.082225 0.34504-0.42327 0.83871-0.76071 1.4068-0.85111 0.73362-0.1405 1.4828 0.12994 2.037 0.57306 0.21669 0.13644 0.3781 0.36119 0.62292 0.45608 0.31506 0.093206 0.69702-0.17713 0.61656-0.49676 0.009883-1.87-0.99465-4.6813-2.6035-5.782-1.115-0.77401-2.474-1.2127-3.8539-1.3462-0.12807-0.021904-0.25854-0.013859-0.37192-0.044928l-9e-3 -0.45579c0.0053-0.69597-0.98856-0.68615-1.0094 0zm4.9053 2.9703c0.62451 0.47655 1.4657 2.1186 1.6718 3.238-0.61565-0.36244-1.1229-0.36119-1.8603-0.29298-0.73364 0.04841-1.4264 0.64195-1.9525 1.1151-0.63314-0.57297-1.5121-1.1812-2.4035-1.1188-0.77853 0.018815-1.5159 0.35634-2.0752 0.84857-0.84924-0.78435-2.1817-1.0703-3.3174-0.70276-0.24754 0.075118-0.50668 0.10938-0.52997-0.10223 0.31068-1.4702 2.0539-3.2316 2.7223-3.6138 0.6984-0.35984 2.1839-0.91891 3.4166-0.87384 1.6112-0.084667 3.6218 0.85338 4.328 1.5026z" color="#000000" fill="#d53842"/>
 </g>
</svg>
