<svg width="16" height="16" version="1.1" xmlns="http://www.w3.org/2000/svg">
 <path d="m13 11v2h-2v1h2v2h1v-2h2v-1h-2v-2z" color="#5d656b" fill="#5d656b" font-family="sans-serif" font-weight="400" overflow="visible" style="isolation:auto;mix-blend-mode:normal;text-decoration-color:#5d656b;text-decoration-line:none;text-decoration-style:solid;text-indent:0;text-transform:none"/>
 <path d="m5 0v1h1v-1h-1zm1 1v1h-1v-1h-2c-1.108 0-2 0.892-2 2v10c0 1.108 0.892 2 2 2h7v-1h-7c-0.554 0-1-0.446-1-1v-7c0-0.554 0.446-1 1-1h10c0.554 0 1 0.446 1 1v4h1v-7c0-1.108-0.892-2-2-2h-2v1h-1v-1h-4zm4 0h1v-1h-1v1z" fill="#5d656b" fill-rule="evenodd" stop-color="#000000" stroke-linecap="round" stroke-linejoin="round" style="paint-order:stroke fill markers"/>
</svg>
