<svg width="16" height="16" enable-background="new" version="1.1" xmlns="http://www.w3.org/2000/svg">
 <path d="m3 1c-1.108 0-2 0.892-2 2v10c0 1.108 0.892 2 2 2h10c1.108 0 2-0.892 2-2v-10c0-1.108-0.892-2-2-2h-10zm0 1h10c0.554 0 1 0.446 1 1v10c0 0.554-0.446 1-1 1h-10c-0.554 0-1-0.446-1-1v-10c0-0.554 0.446-1 1-1z" fill="#5d656b"/>
 <rect x="7" y="2" width="2" height="12" fill="#5d656b" fill-rule="evenodd" opacity=".35" stop-color="#000000" style="paint-order:stroke fill markers"/>
 <rect x="2" y="4" width="12" height="1" fill="#5d656b" fill-rule="evenodd" stop-color="#000000" style="paint-order:stroke fill markers"/>
</svg>
