<svg height="16" width="16" xmlns="http://www.w3.org/2000/svg" enable-background="new"><defs><filter id="a" color-interpolation-filters="sRGB"><feBlend in2="BackgroundImage" mode="darken"/></filter></defs><path d="M2.906 1.035c-.498.042-.837.48-.937.937-.292.892-.592 1.793-.875 2.688L1 5.035v8c0 .554.446 1 1 1h12c.554 0 1-.446 1-1v-8l-.125-.47c-.338-.989-.642-2.017-1-3-.214-.437-.702-.576-1.156-.53zm.819 2h8.533l.332 1H3.4c.108-.334.215-.664.326-1zm3.275 3h2v3h1.75l-2.75 3-2.75-3H7z" fill="#5d656b"/></svg>