<svg height="16" width="16" xmlns="http://www.w3.org/2000/svg"><g color="#5d656b" fill="#5d656b"><path d="M8 11.97a.498.498 0 0 1-.375-.158l-2.5-3a.428.428 0 0 1-.09-.248c-.014-.266.188-.556.465-.564H7V4.5c0-.262.238-.5.5-.5h1a.492.492 0 0 1 .094 0c.23.044.41.267.406.5V8h1.5c.37.011.606.524.375.813l-2.5 3a.497.497 0 0 1-.375.158z" overflow="visible" style="marker:none"/><path d="M8 0a8 8 0 1 0 0 16A8 8 0 0 0 8 0zm0 2a6 6 0 1 1 0 12A6 6 0 0 1 8 2z" overflow="visible" style="marker:none"/></g></svg>