<svg width="16" height="16" version="1.1" xmlns="http://www.w3.org/2000/svg">
 <path d="m12 0c-2.216 0-4 1.784-4 4v2h1v-2c0-1.662 1.338-3 3-3s3 1.338 3 3v2h1v-2c0-2.216-1.784-4-4-4z" fill="#5d656b"/>
 <path d="m2 6c-1.108 0-2 0.892-2 2v5c0 1.108 0.892 2 2 2h8c1.108 0 2-0.892 2-2v-5c0-1.108-0.892-2-2-2zm0 1h8c0.554 0 1 0.446 1 1v5c0 0.554-0.446 1-1 1h-8c-0.554 0-1-0.446-1-1v-5c0-0.554 0.446-1 1-1z" fill="#5d656b"/>
 <path d="m5.4551 8-2.1426 5h1.0879l0.42773-1h2.3438l0.42773 1h1.0879l-2.1426-5zm0.54492 1.2676 0.74219 1.7324h-1.4844z" color="#000000" fill="#5d656b" style="-inkscape-stroke:none"/>
</svg>
