<svg width="16px" height="16px" version="1.1" viewBox="0 0 16 16" xmlns="http://www.w3.org/2000/svg">
 <path d="m3.1211 1 1 1h9.8789c0.554 0 1 0.446 1 1v8c0 0.51571-0.38836 0.93435-0.88867 0.99023l0.79297 0.79297c0.65048-0.32933 1.0957-1.0016 1.0957-1.7832v-8c0-1.108-0.892-2-2-2h-10.879zm-1.3945 0.019531c-0.97747 0.13276-1.7266 0.96543-1.7266 1.9805v8c0 1.108 0.892 2 2 2h1.5215l2.4785 3 2-3h5.707l-1-1h-5.1406l-1.5664 2.4004-1.9668-2.4004h-2.0332c-0.554 0-1-0.446-1-1v-8c0-0.554 0.446-1 1-1h0.70703l-0.98047-0.98047z" fill="#5d656b"/>
 <rect transform="rotate(45)" x="1.3137" y="-.5" width="20" height="1" ry="0" fill="#5d656b"/>
</svg>
