<svg width="16px" height="16px" version="1.1" xmlns="http://www.w3.org/2000/svg">
 <path d="m3 0a5 5 0 0 0 0.10742 0.98633l3.9062 3.9062a5 5 0 0 0 0.98633 0.10742h3a1 1 0 0 1 0.10156 0.0058594 1 1 0 0 1 0.035157 0.0039062c0.0079 0.00108 0.015617 0.0026463 0.023437 0.0039063 0.03413 0.00549 0.068703 0.01265 0.10156 0.021484a1 1 0 0 1 0.007812 0.0019532h0.001953c0.02119 0.00592 0.04191 0.014234 0.0625 0.021484 0.01891 0.0066599 0.038271 0.011788 0.056641 0.019531a1 1 0 0 1 0.007813 0.0039062 1 1 0 0 1 0.078124 0.039063c0.0071 0.0038699 0.014445 0.0076797 0.021485 0.011719a1 1 0 0 1 0.021484 0.013672c0.01928 0.011724 0.038261 0.024146 0.056641 0.037109a1 1 0 0 1 0.054687 0.041016c0.0018 0.00148 0.00406 0.0024162 0.00586 0.0039062a1 1 0 0 1 0.044922 0.041016l0.001953 0.0019532a1 1 0 0 1 0.046875 0.046875c0.0139 0.014902 0.028045 0.029186 0.041015 0.044922a1 1 0 0 1 0.044922 0.060547c0.01296 0.018384 0.02539 0.037364 0.03711 0.056641a1 1 0 0 1 0.013672 0.021484c0.003999 0.00703 0.007898 0.014347 0.011718 0.021484a1 1 0 0 1 0.039063 0.078125c0.0012 0.00271 0.002806 0.0050925 0.003906 0.0078125a1 1 0 0 1 0.019531 0.056641c0.0073 0.020591 0.015565 0.041308 0.021485 0.0625a1 1 0 0 1 0 0.0019532c7.02e-4 0.0025299 0.001253 0.0052725 0.001953 0.0078124 0.0088 0.032861 0.015994 0.067437 0.021484 0.10156a1 1 0 0 1 0.003906 0.023437c0.0016 0.011724 0.002707 0.023304 0.003907 0.035156a1 1 0 0 1 0.005859 0.10156v1h1v-1a2 2 0 0 0-2-2h-3a4 4 0 0 1-4-4h-1zm2 0a3 3 0 0 0 3 3h3a3 3 0 0 1 3 3v1h1v-1a4 4 0 0 0-4-4h-3a2 2 0 0 1-2-2h-1zm7 8v1.8789l2.1133 2.1133c0.49971-0.056444 0.88672-0.4769 0.88672-0.99219v-2c0-0.554-0.446-1-1-1h-1-1zm-12 0.011719v4h11v-1.0117h-10v-2h8.707l-0.98828-0.98828h-8.7188zm10.133 0 0.86719 0.86719v-0.86719h-0.86719zm1.8672 3.2813v0.70703h0.70703l-0.70703-0.70703z" fill="#5d656b"/>
 <rect transform="rotate(45)" x="1.3137" y="-.5" width="20" height="1" ry="0" fill="#5d656b"/>
</svg>
