<svg width="16" height="16" version="1.1" xmlns="http://www.w3.org/2000/svg">
 <path d="m5 1c-0.52147 0-0.99358 0.20236-1.3496 0.5293l0.70898 0.70898c0.17399-0.14662 0.39528-0.23828 0.64062-0.23828 0.55228 0 1 0.44772 1 1 0 0.24534-0.09166 0.46664-0.23828 0.64062l0.70898 0.70898c0.32693-0.35603 0.5293-0.82814 0.5293-1.3496 0-1.1046-0.89543-2-2-2zm-1.9043 1.3887c-0.061677 0.19253-0.095703 0.39832-0.095703 0.61133 0 1.1046 0.89543 2 2 2 0.21301 0 0.4188-0.034026 0.61133-0.095703l-0.97461-0.97461c-0.25884-0.10146-0.46494-0.30757-0.56641-0.56641l-0.97461-0.97461zm7.9043 0.61133c-1.1046 0-2 0.89543-2 2s0.89543 2 2 2c1.1046 0 2-0.89543 2-2s-0.89543-2-2-2zm0 1c0.55228 0 1 0.44772 1 1s-0.44772 1-1 1-1-0.44772-1-1 0.44772-1 1-1zm-7 2c-1.662 0-3 1.338-3 3v3c0 0.554 0.446 1 1 1h4v-1h-4v-3c0-1.108 0.89201-2 2-2h2c0.68256 0 1.2804 0.34035 1.6406 0.85938 0.18224-0.13066 0.37551-0.24628 0.57812-0.34766l-1.3945-1.3945c-0.26494-0.075838-0.5415-0.11752-0.82422-0.11719h-2zm6.1211 2 1 1h0.87891c1.108 0 2 0.892 2 2v0.87891l1 1v-1.8789c0-1.662-1.338-3-3-3h-1.8789zm-1.209 0.20508c-1.1204 0.43422-1.9121 1.5175-1.9121 2.7949v3c0 0.554 0.446 1 1 1h6c0.46469 0 0.84964-0.31602 0.96289-0.74414l-0.96289-0.96289v0.70703h-6v-3c0-1.015 0.74909-1.8477 1.7266-1.9805l-0.81445-0.81445z" fill="#5d656b"/>
 <rect transform="rotate(45)" x="1.3137" y="-.5" width="20" height="1" ry="0" fill="#5d656b"/>
</svg>
