<svg width="16px" height="16px" version="1.1" viewBox="0 0 16 16" xmlns="http://www.w3.org/2000/svg">
 <path d="m8 0a8 8 0 0 0-8 8 8 8 0 0 0 8 8 8 8 0 0 0 8-8 8 8 0 0 0-8-8zm0 1a7 7 0 0 1 7 7 7 7 0 0 1-7 7 7 7 0 0 1-7-7 7 7 0 0 1 7-7z" fill="#5d656b" fill-rule="evenodd" stop-color="#000000"/>
 <path d="m8 2a6 6 0 0 0-6 6 6 6 0 0 0 6 6v-1a5 5 0 0 1-5-5 5 5 0 0 1 5-5v-1z" fill="#5d656b" fill-rule="evenodd" stop-color="#000000" stroke-width=".85714"/>
 <path d="m7 3.1133a5 5 0 0 0-4 4.8867 5 5 0 0 0 4 4.8867v-9.7734z" fill="#5d656b" fill-rule="evenodd" opacity=".15" stop-color="#000000" stroke-width=".71429"/>
 <rect x="7" y="3" width="1" height="10" fill="#5d656b" fill-rule="evenodd" stop-color="#000000"/>
</svg>
