<?xml version="1.0" encoding="UTF-8" standalone="no"?>
<svg
   xmlns:osb="http://www.openswatchbook.org/uri/2009/osb"
   xmlns:dc="http://purl.org/dc/elements/1.1/"
   xmlns:cc="http://creativecommons.org/ns#"
   xmlns:rdf="http://www.w3.org/1999/02/22-rdf-syntax-ns#"
   xmlns:svg="http://www.w3.org/2000/svg"
   xmlns="http://www.w3.org/2000/svg"
   width="16.000017"
   version="1.1"
   style="enable-background:new"
   id="svg7384"
   height="16">
  <metadata
     id="metadata90">
    <rdf:RDF>
      <cc:Work
         rdf:about="">
        <dc:format>image/svg+xml</dc:format>
        <dc:type
           rdf:resource="http://purl.org/dc/dcmitype/StillImage" />
        <dc:title>Moka Symbolic Icon Theme</dc:title>
      </cc:Work>
    </rdf:RDF>
  </metadata>
  <title
     id="title8473">Moka Symbolic Icon Theme</title>
  <defs
     id="defs7386">
    <linearGradient
       osb:paint="solid"
       id="linearGradient5606">
      <stop
         style="stop-color:#000000;stop-opacity:1;"
         offset="0"
         id="stop5608" />
    </linearGradient>
    <filter
       style="color-interpolation-filters:sRGB"
       id="filter7554">
      <feBlend
         mode="darken"
         in2="BackgroundImage"
         id="feBlend7556" />
    </filter>
  </defs>
  <g
     transform="translate(-501.00018,15.003359)"
     style="display:inline"
     id="layer9" />
  <g
     transform="translate(-501.00018,15.003359)"
     style="display:inline;filter:url(#filter7554)"
     id="layer10" />
  <g
     transform="translate(-259.99998,-601.99664)"
     style="display:inline"
     id="layer1" />
  <g
     transform="translate(-501.00018,15.003359)"
     style="display:inline"
     id="layer14" />
  <g
     transform="translate(-501.00018,15.003359)"
     style="display:inline"
     id="layer15" />
  <g
     transform="translate(-501.00018,15.003359)"
     style="display:inline"
     id="g71291" />
  <g
     transform="translate(-259.99998,-451.99664)"
     style="display:inline"
     id="layer2" />
  <g
     transform="translate(-259.99998,-451.99664)"
     style="display:inline"
     id="g6058" />
  <g
     transform="translate(-501.00018,15.003359)"
     style="display:inline"
     id="layer12">
    <path
       style="color:#bebebe;display:inline;overflow:visible;visibility:visible;fill:#bebebe;fill-opacity:1;fill-rule:nonzero;stroke:none;stroke-width:1;marker:none;enable-background:accumulate"
       id="path4929"
       d="m 503.0002,-14.010089 0,14 6,0.0067 0,-1 -5,-0.0067 0,-12 10,0 0,6.00673 1,0 0,-7.00673 z" />
    <path
       style="color:#000000;display:inline;overflow:visible;visibility:visible;fill:#bebebe;fill-opacity:1;fill-rule:nonzero;stroke:none;stroke-width:2;marker:none;enable-background:accumulate"
       id="path6355-2"
       d="m 513.0002,-6.003359 0,0.5625 c -0.45253,0.0753 -0.89155,0.24731 -1.25,0.5 l -0.15625,-0.1875 c -0.0979,-0.0979 -0.21594,-0.125 -0.34375,-0.125 l -0.5,0 0,0.5 c 0,0.12781 0.0583,0.27706 0.15625,0.375 l 0.15625,0.125 c -0.25889,0.36223 -0.42342,0.79092 -0.5,1.25 l -0.5625,0 0,1 0.5625,0 c 0.0766,0.45908 0.24111,0.88777 0.5,1.25 l -0.15625,0.125 c -0.0979,0.0979 -0.15625,0.24719 -0.15625,0.375 l 0,0.5 0.5,0 c 0.12781,0 0.27706,-0.0271 0.375,-0.125 l 0.15625,-0.1875 c 0.35844,0.25269 0.76622,0.42467 1.21875,0.5 l 0,0.5625 1,0 0,-0.5625 c 0.45253,-0.0753 0.86031,-0.24731 1.21875,-0.5 l 0.15625,0.1875 c 0.0979,0.0979 0.25,0.0984 0.375,0.125 l 0.5,0 0,-0.5 c 0,-0.12781 -0.0583,-0.27706 -0.15625,-0.375 l -0.15625,-0.125 c 0.25889,-0.36223 0.42343,-0.79092 0.5,-1.25 l 0.5625,0 0,-1 -0.5625,0 c -0.0766,-0.45908 -0.24111,-0.88777 -0.5,-1.25 l 0.15625,-0.125 c 0.0979,-0.0979 0.13942,-0.2483 0.15625,-0.375 l 0,-0.5 -0.5,0 c -0.12781,0 -0.27706,0.0271 -0.375,0.125 l -0.15625,0.1875 c -0.35844,-0.25269 -0.76622,-0.42467 -1.21875,-0.5 l 0,-0.5625 z m 0.5,1.5 c 1.10457,0 2,0.89543 2,2 0,1.10457 -0.89543,2 -2,2 -1.10457,0 -2,-0.89543 -2,-2 0,-1.10457 0.89543,-2 2,-2 z" />
  </g>
</svg>
