<svg width="16" height="16" version="1.1" xmlns="http://www.w3.org/2000/svg">
 <path d="m3 1c-1.108 0-2 0.89201-2 2v10c0 1.108 0.89201 2 2 2h10c1.108 0 2-0.892 2-2v-2-4.293-1.4141l-4.293-4.293h-0.70703-1-6zm0 1h2v4c0 0.554 0.446 1 1 1h4c0.554 0 1-0.446 1-1v-3.293l3 3v7.293c0 0.554-0.446 1-1 1h-1v-4c0-0.554-0.446-1-1-1h-6c-0.554 0-1 0.446-1 1v4h-1c-0.554 0-1-0.446-1-1v-10c0-0.554 0.446-1 1-1zm3 0h2v4h-2v-4zm-1 8h6v4h-6v-4z" fill="#5d656b" stop-color="#000000" style="paint-order:stroke fill markers"/>
</svg>
