<?xml version="1.0" encoding="UTF-8" standalone="no"?>
<svg
   xmlns:osb="http://www.openswatchbook.org/uri/2009/osb"
   xmlns:dc="http://purl.org/dc/elements/1.1/"
   xmlns:cc="http://creativecommons.org/ns#"
   xmlns:rdf="http://www.w3.org/1999/02/22-rdf-syntax-ns#"
   xmlns:svg="http://www.w3.org/2000/svg"
   xmlns="http://www.w3.org/2000/svg"
   width="16"
   version="1.1"
   style="enable-background:new"
   id="svg7384"
   height="16">
  <metadata
     id="metadata90">
    <rdf:RDF>
      <cc:Work
         rdf:about="">
        <dc:format>image/svg+xml</dc:format>
        <dc:type
           rdf:resource="http://purl.org/dc/dcmitype/StillImage" />
        <dc:title>Moka Symbolic Icon Theme</dc:title>
      </cc:Work>
    </rdf:RDF>
  </metadata>
  <title
     id="title8473">Moka Symbolic Icon Theme</title>
  <defs
     id="defs7386">
    <linearGradient
       osb:paint="solid"
       id="linearGradient5606">
      <stop
         style="stop-color:#000000;stop-opacity:1;"
         offset="0"
         id="stop5608" />
    </linearGradient>
    <filter
       style="color-interpolation-filters:sRGB"
       id="filter7554">
      <feBlend
         mode="darken"
         in2="BackgroundImage"
         id="feBlend7556" />
    </filter>
  </defs>
  <g
     transform="translate(-421.0002,15.003359)"
     style="display:inline"
     id="layer9" />
  <g
     transform="translate(-421.0002,15.003359)"
     style="display:inline;filter:url(#filter7554)"
     id="layer10" />
  <g
     transform="translate(-180,-601.99664)"
     style="display:inline"
     id="layer1" />
  <g
     transform="translate(-421.0002,15.003359)"
     style="display:inline"
     id="layer14" />
  <g
     transform="translate(-421.0002,15.003359)"
     style="display:inline"
     id="layer15" />
  <g
     transform="translate(-421.0002,15.003359)"
     style="display:inline"
     id="g71291" />
  <g
     transform="translate(-180,-451.99664)"
     style="display:inline"
     id="layer2" />
  <g
     transform="translate(-180,-451.99664)"
     style="display:inline"
     id="g6058" />
  <g
     transform="translate(-421.0002,15.003359)"
     style="display:inline"
     id="layer12">
    <g
       transform="matrix(1,0,0,-1,421.00022,1.003371)"
       id="g6648">
      <path
         transform="translate(-200,-477)"
         style="color:#bebebe;display:inline;overflow:visible;visibility:visible;fill:#bebebe;fill-opacity:1;fill-rule:nonzero;stroke:none;stroke-width:1;marker:none;enable-background:accumulate"
         id="path6650"
         d="m 202,478 0,2 0,2 0,8 0,1 0,1 7,0 0,-1 -6,0 0,-1 0,-7.40625 0,-2.59375 0,-1 10,0 0,7 1,0 0,-8 z" />
      <g
         transform="translate(-24.932404,-15.494844)"
         id="g6652" />
    </g>
    <path
       style="fill:#bebebe;fill-opacity:1;stroke:none"
       id="path6654"
       d="m 433.00022,-8.99663 0,-2 -2,0 0,-2 2,0 0,-2 3.99998,3.00634 z" />
  </g>
</svg>
