<?xml version="1.0" encoding="UTF-8" standalone="no"?>
<svg
   xmlns:osb="http://www.openswatchbook.org/uri/2009/osb"
   xmlns:dc="http://purl.org/dc/elements/1.1/"
   xmlns:cc="http://creativecommons.org/ns#"
   xmlns:rdf="http://www.w3.org/1999/02/22-rdf-syntax-ns#"
   xmlns:svg="http://www.w3.org/2000/svg"
   xmlns="http://www.w3.org/2000/svg"
   width="16"
   version="1.1"
   style="enable-background:new"
   id="svg7384"
   height="16">
  <metadata
     id="metadata90">
    <rdf:RDF>
      <cc:Work
         rdf:about="">
        <dc:format>image/svg+xml</dc:format>
        <dc:type
           rdf:resource="http://purl.org/dc/dcmitype/StillImage" />
        <dc:title>Moka Symbolic Icon Theme</dc:title>
      </cc:Work>
    </rdf:RDF>
  </metadata>
  <title
     id="title8473">Moka Symbolic Icon Theme</title>
  <defs
     id="defs7386">
    <linearGradient
       osb:paint="solid"
       id="linearGradient5606">
      <stop
         style="stop-color:#000000;stop-opacity:1;"
         offset="0"
         id="stop5608" />
    </linearGradient>
    <filter
       style="color-interpolation-filters:sRGB"
       id="filter7554">
      <feBlend
         mode="darken"
         in2="BackgroundImage"
         id="feBlend7556" />
    </filter>
  </defs>
  <g
     transform="translate(-261.0002,-24.99664)"
     style="display:inline"
     id="layer9" />
  <g
     transform="translate(-261.0002,-24.99664)"
     style="display:inline;filter:url(#filter7554)"
     id="layer10" />
  <g
     transform="translate(-20,-641.99664)"
     style="display:inline"
     id="layer1" />
  <g
     transform="translate(-261.0002,-24.99664)"
     style="display:inline"
     id="layer14" />
  <g
     transform="translate(-261.0002,-24.99664)"
     style="display:inline"
     id="layer15" />
  <g
     transform="translate(-261.0002,-24.99664)"
     style="display:inline"
     id="g71291" />
  <g
     transform="translate(-20,-491.99664)"
     style="display:inline"
     id="layer2" />
  <g
     transform="translate(-20,-491.99664)"
     style="display:inline"
     id="g6058" />
  <g
     transform="translate(-261.0002,-24.99664)"
     style="display:inline"
     id="layer12">
    <rect
       y="-38.996639"
       x="264.00021"
       width="9.9999886"
       transform="scale(1,-1)"
       style="fill:#bebebe;fill-opacity:1;stroke:none"
       id="rect5102"
       height="1" />
    <rect
       y="-26.996639"
       x="264.00021"
       width="9.9999981"
       transform="scale(1,-1)"
       style="fill:#bebebe;fill-opacity:1;stroke:none"
       id="rect5104"
       height="1" />
    <path
       style="color:#000000;font-style:normal;font-variant:normal;font-weight:normal;font-stretch:normal;font-size:medium;line-height:normal;font-family:sans-serif;text-indent:0;text-align:start;text-decoration:none;text-decoration-line:none;text-decoration-style:solid;text-decoration-color:#000000;letter-spacing:normal;word-spacing:normal;text-transform:none;direction:ltr;block-progression:tb;writing-mode:lr-tb;baseline-shift:baseline;text-anchor:start;white-space:normal;clip-rule:nonzero;display:inline;overflow:visible;visibility:visible;opacity:1;isolation:auto;mix-blend-mode:normal;color-interpolation:sRGB;color-interpolation-filters:linearRGB;solid-color:#000000;solid-opacity:1;fill:#bebebe;fill-opacity:1;fill-rule:nonzero;stroke:none;stroke-width:1px;stroke-linecap:butt;stroke-linejoin:round;stroke-miterlimit:4;stroke-dasharray:none;stroke-dashoffset:0;stroke-opacity:1;color-rendering:auto;image-rendering:auto;shape-rendering:auto;text-rendering:auto;enable-background:accumulate"
       id="path5888"
       d="m 264,26.496094 c 10e-6,2.549999 0.37861,3.922781 1.03711,4.800781 0.48898,0.651969 1.0711,0.889067 1.62305,1.199219 -0.55202,0.310194 -1.134,0.549106 -1.62305,1.201172 -0.6585,0.877999 -1.0371,2.248828 -1.03711,4.798828 l 1,0 c 0,-2.450001 0.37139,-3.577219 0.83789,-4.199219 0.4665,-0.622 1.12545,-0.842097 1.93945,-1.384766 a 0.50005,0.50005 0 0 0 0,-0.832031 c -0.814,-0.542669 -1.47295,-0.760812 -1.93945,-1.382812 C 265.37139,30.075265 265,28.946094 265,26.496094 l -1,0 z" />
    <path
       style="color:#000000;font-style:normal;font-variant:normal;font-weight:normal;font-stretch:normal;font-size:medium;line-height:normal;font-family:sans-serif;text-indent:0;text-align:start;text-decoration:none;text-decoration-line:none;text-decoration-style:solid;text-decoration-color:#000000;letter-spacing:normal;word-spacing:normal;text-transform:none;direction:ltr;block-progression:tb;writing-mode:lr-tb;baseline-shift:baseline;text-anchor:start;white-space:normal;clip-rule:nonzero;display:inline;overflow:visible;visibility:visible;opacity:1;isolation:auto;mix-blend-mode:normal;color-interpolation:sRGB;color-interpolation-filters:linearRGB;solid-color:#000000;solid-opacity:1;fill:#bebebe;fill-opacity:1;fill-rule:nonzero;stroke:none;stroke-width:1px;stroke-linecap:butt;stroke-linejoin:round;stroke-miterlimit:4;stroke-dasharray:none;stroke-dashoffset:0;stroke-opacity:1;color-rendering:auto;image-rendering:auto;shape-rendering:auto;text-rendering:auto;enable-background:accumulate"
       id="path5936"
       d="m 273,26.496094 c 0,2.45 -0.37139,3.579171 -0.83789,4.201172 -0.4665,0.622 -1.12545,0.840143 -1.93945,1.382812 a 0.50005,0.50005 0 0 0 0,0.832031 c 0.814,0.542669 1.47295,0.762766 1.93945,1.384766 0.4665,0.622 0.83789,1.749218 0.83789,4.199219 l 1,0 c -10e-6,-2.55 -0.37861,-3.920829 -1.03711,-4.798828 -0.48905,-0.652066 -1.07103,-0.890978 -1.62305,-1.201172 0.55195,-0.310152 1.13407,-0.54725 1.62305,-1.199219 0.6585,-0.878 1.0371,-2.250782 1.03711,-4.800781 l -1,0 z" />
    <path
       style="fill:#bebebe;fill-opacity:1;stroke:none"
       id="rect5938"
       d="m 266.6252,29.99664 c 0.0123,0.0278 0.0186,0.0769 0.0312,0.0937 0.27067,0.36089 0.78083,0.5518 1.6875,1.15625 l 0,0.0312 0.0312,0 c 0.41523,0.29802 0.6041,0.72701 0.625,1.15625 0.0209,-0.42924 0.20977,-0.85823 0.625,-1.15625 l 0.0312,0 0,-0.0312 c 0.90667,-0.60445 1.41683,-0.79536 1.6875,-1.15625 0.0127,-0.0169 0.019,-0.066 0.0312,-0.0937 z m -0.375,7 5.5,0 c 0,-1 -2.5,-1.25 -2.75,-1.69426 -0.25,0.44426 -2.75,0.69426 -2.75,1.69426 z" />
  </g>
</svg>
