<?xml version="1.0" encoding="UTF-8" standalone="no"?>
<svg
   xmlns:osb="http://www.openswatchbook.org/uri/2009/osb"
   xmlns:dc="http://purl.org/dc/elements/1.1/"
   xmlns:cc="http://creativecommons.org/ns#"
   xmlns:rdf="http://www.w3.org/1999/02/22-rdf-syntax-ns#"
   xmlns:svg="http://www.w3.org/2000/svg"
   xmlns="http://www.w3.org/2000/svg"
   width="16"
   version="1.1"
   style="enable-background:new"
   id="svg7384"
   height="16">
  <metadata
     id="metadata90">
    <rdf:RDF>
      <cc:Work
         rdf:about="">
        <dc:format>image/svg+xml</dc:format>
        <dc:type
           rdf:resource="http://purl.org/dc/dcmitype/StillImage" />
        <dc:title>Moka Symbolic Icon Theme</dc:title>
      </cc:Work>
    </rdf:RDF>
  </metadata>
  <title
     id="title8473">Moka Symbolic Icon Theme</title>
  <defs
     id="defs7386">
    <linearGradient
       osb:paint="solid"
       id="linearGradient5606">
      <stop
         style="stop-color:#000000;stop-opacity:1;"
         offset="0"
         id="stop5608" />
    </linearGradient>
    <filter
       style="color-interpolation-filters:sRGB"
       id="filter7554">
      <feBlend
         mode="darken"
         in2="BackgroundImage"
         id="feBlend7556" />
    </filter>
  </defs>
  <g
     transform="translate(-320.99821,17.004207)"
     style="display:inline"
     id="layer9" />
  <g
     transform="translate(-320.99821,17.004207)"
     style="display:inline;filter:url(#filter7554)"
     id="layer10" />
  <g
     transform="translate(-79.998014,-599.99579)"
     style="display:inline"
     id="layer1" />
  <g
     transform="translate(-320.99821,17.004207)"
     style="display:inline"
     id="layer14" />
  <g
     transform="translate(-320.99821,17.004207)"
     style="display:inline"
     id="layer15" />
  <g
     transform="translate(-320.99821,17.004207)"
     style="display:inline"
     id="g71291" />
  <g
     transform="translate(-79.998014,-449.99579)"
     style="display:inline"
     id="layer2" />
  <g
     transform="translate(-79.998014,-449.99579)"
     style="display:inline"
     id="g6058" />
  <g
     transform="translate(-320.99821,17.004207)"
     style="display:inline"
     id="layer12">
    <path
       style="fill:#bebebe;fill-opacity:1;fill-rule:nonzero;stroke:none"
       id="path5981"
       d="m 324.0002,-17.00336 c -0.554,0 -1,0.446 -1,1 l 0,2 c 0,0.554 0.446,1 1,1 l 3,0 0,3 -2.34375,0 4.34375,6.28125 4.375,-6.28125 -2.375,0 0,-3 3,0 c 0.554,0 1,-0.446 1,-1 l 0,-2 c 0,-0.554 -0.446,-1 -1,-1 l -10,0 z m 0,1 10,0 0,2 -3,0 -4,0 -3,0 0,-2 z" />
    <path
       style="fill:#bebebe;fill-opacity:1;fill-rule:nonzero;stroke:none"
       id="path5989"
       d="m 321.9932,-2.972809 0,1.96856 14.005,0 -0.005,-1.96856 z" />
  </g>
</svg>
