<svg width="16" height="16" version="1.1" xmlns="http://www.w3.org/2000/svg">
 <path d="m7.5 5v6.0859l-2.3281-2.3281-0.70703 0.70703 3.5352 3.5352 3.5352-3.5352-0.70703-0.70703-2.3281 2.3281v-6.0859h-1z" fill="#5d656b" stroke-width="1.0801"/>
 <path d="m1 0v3c0 0.554 0.446 1 1 1h12c0.554 0 1-0.446 1-1v-3h-1v3h-12v-3h-1z" fill="#5d656b" fill-rule="evenodd" stop-color="#000000" style="paint-order:stroke fill markers"/>
 <rect x="1" width="14" height="1" fill="#5d656b" fill-rule="evenodd" stop-color="#000000" style="paint-order:stroke fill markers"/>
 <path d="m2 4v9c0 1.108 0.892 2 2 2h8c1.108 0 2-0.892 2-2v-9h-1v9c0 0.554-0.446 1-1 1h-8c-0.554 0-1-0.446-1-1v-9h-1z" fill="#5d656b" fill-rule="evenodd" stop-color="#000000" style="paint-order:stroke fill markers"/>
</svg>
