<?xml version="1.0" encoding="UTF-8" standalone="no"?>
<svg
   xmlns:osb="http://www.openswatchbook.org/uri/2009/osb"
   xmlns:dc="http://purl.org/dc/elements/1.1/"
   xmlns:cc="http://creativecommons.org/ns#"
   xmlns:rdf="http://www.w3.org/1999/02/22-rdf-syntax-ns#"
   xmlns:svg="http://www.w3.org/2000/svg"
   xmlns="http://www.w3.org/2000/svg"
   width="16"
   version="1.1"
   style="enable-background:new"
   id="svg7384"
   height="16">
  <metadata
     id="metadata90">
    <rdf:RDF>
      <cc:Work
         rdf:about="">
        <dc:format>image/svg+xml</dc:format>
        <dc:type
           rdf:resource="http://purl.org/dc/dcmitype/StillImage" />
        <dc:title>Moka Symbolic Icon Theme</dc:title>
      </cc:Work>
    </rdf:RDF>
  </metadata>
  <title
     id="title8473">Moka Symbolic Icon Theme</title>
  <defs
     id="defs7386">
    <linearGradient
       osb:paint="solid"
       id="linearGradient5606">
      <stop
         style="stop-color:#000000;stop-opacity:1;"
         offset="0"
         id="stop5608" />
    </linearGradient>
    <filter
       style="color-interpolation-filters:sRGB"
       id="filter7554">
      <feBlend
         mode="darken"
         in2="BackgroundImage"
         id="feBlend7556" />
    </filter>
  </defs>
  <g
     transform="translate(-361.0002,16.003359)"
     style="display:inline"
     id="layer9" />
  <g
     transform="translate(-361.0002,16.003359)"
     style="display:inline;filter:url(#filter7554)"
     id="layer10" />
  <g
     transform="translate(-120,-600.99664)"
     style="display:inline"
     id="layer1" />
  <g
     transform="translate(-361.0002,16.003359)"
     style="display:inline"
     id="layer14" />
  <g
     transform="translate(-361.0002,16.003359)"
     style="display:inline"
     id="layer15" />
  <g
     transform="translate(-361.0002,16.003359)"
     style="display:inline"
     id="g71291" />
  <g
     transform="translate(-120,-450.99664)"
     style="display:inline"
     id="layer2" />
  <g
     transform="translate(-120,-450.99664)"
     style="display:inline"
     id="g6058" />
  <g
     transform="translate(-361.0002,16.003359)"
     style="display:inline"
     id="layer12">
    <path
       style="color:#000000;font-style:normal;font-variant:normal;font-weight:normal;font-stretch:normal;font-size:medium;line-height:normal;font-family:Sans;-inkscape-font-specification:Sans;text-indent:0;text-align:start;text-decoration:none;text-decoration-line:none;letter-spacing:normal;word-spacing:normal;text-transform:none;direction:ltr;block-progression:tb;writing-mode:lr-tb;baseline-shift:baseline;text-anchor:start;display:inline;overflow:visible;visibility:visible;fill:#bebebe;fill-opacity:1;stroke:none;stroke-width:1.55467153;marker:none;enable-background:new"
       id="path27918-2"
       d="m 370.51086,-15.0062 c -3.02885,0 -5.53125,2.47458 -5.53125,5.5 0,1.14986 0.38921,2.20784 1,3.09375 l -3.6875,3.6875 a 1.0054782,1.0054782 0 1 0 1.40625,1.4375 l 3.6875,-3.6875 c 0.88729,0.61091 1.973,0.96875 3.125,0.96875 3.02886,0 5.5,-2.47459 5.5,-5.5 0,-3.02542 -2.47114,-5.5 -5.5,-5.5 z m 0,2 c 1.94736,0 3.5,1.55485 3.5,3.5 0,1.94514 -1.55264,3.5 -3.5,3.5 -1.94735,0 -3.5,-1.55486 -3.5,-3.5 0,-1.94515 1.55265,-3.5 3.5,-3.5 z" />
  </g>
</svg>
