<?xml version="1.0" encoding="UTF-8" standalone="no"?>
<svg
   xmlns:osb="http://www.openswatchbook.org/uri/2009/osb"
   xmlns:dc="http://purl.org/dc/elements/1.1/"
   xmlns:cc="http://creativecommons.org/ns#"
   xmlns:rdf="http://www.w3.org/1999/02/22-rdf-syntax-ns#"
   xmlns:svg="http://www.w3.org/2000/svg"
   xmlns="http://www.w3.org/2000/svg"
   width="16"
   version="1.1"
   style="enable-background:new"
   id="svg7384"
   height="16">
  <metadata
     id="metadata90">
    <rdf:RDF>
      <cc:Work
         rdf:about="">
        <dc:format>image/svg+xml</dc:format>
        <dc:type
           rdf:resource="http://purl.org/dc/dcmitype/StillImage" />
        <dc:title>Moka Symbolic Icon Theme</dc:title>
      </cc:Work>
    </rdf:RDF>
  </metadata>
  <title
     id="title8473">Moka Symbolic Icon Theme</title>
  <defs
     id="defs7386">
    <linearGradient
       osb:paint="solid"
       id="linearGradient5606">
      <stop
         style="stop-color:#000000;stop-opacity:1;"
         offset="0"
         id="stop5608" />
    </linearGradient>
    <filter
       style="color-interpolation-filters:sRGB"
       id="filter7554">
      <feBlend
         mode="darken"
         in2="BackgroundImage"
         id="feBlend7556" />
    </filter>
  </defs>
  <g
     transform="translate(-281.00021,-3.996641)"
     style="display:inline"
     id="layer9" />
  <g
     transform="translate(-281.00021,-3.996641)"
     style="display:inline;filter:url(#filter7554)"
     id="layer10" />
  <g
     transform="translate(-40.000014,-620.99664)"
     style="display:inline"
     id="layer1" />
  <g
     transform="translate(-281.00021,-3.996641)"
     style="display:inline"
     id="layer14" />
  <g
     transform="translate(-281.00021,-3.996641)"
     style="display:inline"
     id="layer15" />
  <g
     transform="translate(-281.00021,-3.996641)"
     style="display:inline"
     id="g71291" />
  <g
     transform="translate(-40.000014,-470.99664)"
     style="display:inline"
     id="layer2" />
  <g
     transform="translate(-40.000014,-470.99664)"
     style="display:inline"
     id="g6058" />
  <g
     transform="translate(-281.00021,-3.996641)"
     style="display:inline"
     id="layer12">
    <path
       style="color:#000000;display:inline;overflow:visible;visibility:visible;fill:#bebebe;fill-opacity:1;fill-rule:nonzero;stroke:none;marker:none;enable-background:new"
       id="path6025"
       d="m 282.0002,4.99664 0,14 11,0 0,-3 -1,0 0,2 -9,0 0,-12 9,0 0,2 1,0 0,-3 -11,0 z" />
    <path
       style="fill:#bebebe;fill-opacity:1;fill-rule:nonzero;stroke:none"
       id="path4827"
       d="m 294.41809,7.006447 c -0.24402,0.177146 -0.45012,0.454937 -0.54938,0.650006 -0.0503,0.101323 -0.11924,0.223329 -0.20678,0.374974 -0.0759,0.135797 -0.1675,0.2964 -0.27503,0.494229 -0.56316,1.033946 -1.13597,1.707394 -1.14011,1.711534 -0.004,0.0043 -0.31914,0.365323 -0.66861,0.67758 -1.95279,-0.838191 -5.15113,-2.203003 -5.45925,-2.281586 -0.45976,-0.115105 -0.89815,0.209555 -0.91677,0.223338 l -0.20196,0.151645 0.21575,0.130963 4.70792,2.857834 -4.70792,2.856455 -0.21575,0.130277 0.20196,0.15234 c 0.0186,0.01311 0.45701,0.337757 0.91677,0.222643 0.30536,-0.07586 3.50646,-1.443395 5.45925,-2.281586 0.34947,0.315017 0.66448,0.674829 0.66655,0.67758 0.006,0.0069 0.57901,0.677589 1.14217,1.7136 0.10753,0.197829 0.19921,0.359126 0.27709,0.494229 0.0855,0.152331 0.15441,0.271585 0.20472,0.372908 0.0993,0.195069 0.30536,0.47286 0.54938,0.65208 0.72169,0.528694 1.74117,0.372909 2.26986,-0.348788 0.20472,-0.280543 0.31225,-0.609335 0.31225,-0.956058 0,-0.512151 -0.24539,-1.001545 -0.65691,-1.309662 -0.17645,-0.130972 -0.37911,-0.225403 -0.56935,-0.268826 -0.15441,-0.05511 -0.27159,-0.0738 -0.39497,-0.09444 -0.18404,-0.0324 -0.39152,-0.06686 -0.80924,-0.23436 -0.81337,-0.32604 -1.49371,-0.930557 -1.50473,-0.942274 -0.19783,-0.164743 -0.39083,-0.454243 -0.5611,-0.836118 0.17027,-0.383245 0.36327,-0.672754 0.56523,-0.843008 0.007,-0.0043 0.68516,-0.608657 1.5006,-0.935383 0.41772,-0.167494 0.6252,-0.204034 0.80924,-0.23436 0.12338,-0.01997 0.24056,-0.04063 0.37842,-0.08961 0.20679,-0.05031 0.40945,-0.144754 0.59073,-0.275031 0.40945,-0.308117 0.65208,-0.795454 0.65208,-1.307597 0,-0.347409 -0.10753,-0.678275 -0.31225,-0.956057 -0.53076,-0.721698 -1.54817,-0.880235 -2.26986,-0.349475 m 1.06634,0.616226 c 0.18543,0.02966 0.34879,0.128211 0.45908,0.277791 0.0903,0.122006 0.13578,0.264695 0.13578,0.41358 0,0.222643 -0.10752,0.436329 -0.28743,0.567292 -0.15165,0.110288 -0.33499,0.156471 -0.5218,0.126831 -0.18335,-0.0276 -0.34672,-0.126831 -0.45701,-0.278477 -0.0896,-0.12132 -0.1351,-0.264 -0.1351,-0.41358 0,-0.222643 0.10546,-0.433568 0.28468,-0.565226 0.15165,-0.112354 0.33776,-0.155777 0.5218,-0.128211 m -4.68999,4.374291 c 0,-0.303291 0.24608,-0.549368 0.54937,-0.549368 0.30123,0 0.54662,0.246077 0.54662,0.549368 0,0.301226 -0.24539,0.547303 -0.54662,0.547303 -0.30329,0 -0.54937,-0.246077 -0.54937,-0.547303 m 4.99742,3.116323 c 0.17991,0.130277 0.28743,0.341889 0.28743,0.564532 0,0.14958 -0.0455,0.29226 -0.13578,0.414265 -0.11029,0.15096 -0.27366,0.250218 -0.45908,0.277106 -0.18404,0.03034 -0.37015,-0.01586 -0.5218,-0.126146 -0.17922,-0.130962 -0.28468,-0.344648 -0.28468,-0.567291 0,-0.14958 0.0455,-0.29226 0.1351,-0.41358 0.22747,-0.310877 0.66655,-0.379114 0.97881,-0.148886" />
  </g>
</svg>
