<?xml version="1.0" encoding="UTF-8" standalone="no"?>
<svg
   xmlns:osb="http://www.openswatchbook.org/uri/2009/osb"
   xmlns:dc="http://purl.org/dc/elements/1.1/"
   xmlns:cc="http://creativecommons.org/ns#"
   xmlns:rdf="http://www.w3.org/1999/02/22-rdf-syntax-ns#"
   xmlns:svg="http://www.w3.org/2000/svg"
   xmlns="http://www.w3.org/2000/svg"
   width="16"
   version="1.1"
   style="enable-background:new"
   id="svg7384"
   height="16">
  <metadata
     id="metadata90">
    <rdf:RDF>
      <cc:Work
         rdf:about="">
        <dc:format>image/svg+xml</dc:format>
        <dc:type
           rdf:resource="http://purl.org/dc/dcmitype/StillImage" />
        <dc:title>Moka Symbolic Icon Theme</dc:title>
      </cc:Work>
    </rdf:RDF>
  </metadata>
  <title
     id="title8473">Moka Symbolic Icon Theme</title>
  <defs
     id="defs7386">
    <linearGradient
       osb:paint="solid"
       id="linearGradient5606">
      <stop
         style="stop-color:#000000;stop-opacity:1;"
         offset="0"
         id="stop5608" />
    </linearGradient>
    <filter
       style="color-interpolation-filters:sRGB"
       id="filter7554">
      <feBlend
         mode="darken"
         in2="BackgroundImage"
         id="feBlend7556" />
    </filter>
  </defs>
  <g
     transform="translate(-401.0002,16.00336)"
     style="display:inline"
     id="layer9" />
  <g
     transform="translate(-401.0002,16.00336)"
     style="display:inline;filter:url(#filter7554)"
     id="layer10" />
  <g
     transform="translate(-160,-600.99664)"
     style="display:inline"
     id="layer1" />
  <g
     transform="translate(-401.0002,16.00336)"
     style="display:inline"
     id="layer14" />
  <g
     transform="translate(-401.0002,16.00336)"
     style="display:inline"
     id="layer15" />
  <g
     transform="translate(-401.0002,16.00336)"
     style="display:inline"
     id="g71291" />
  <g
     transform="translate(-160,-450.99664)"
     style="display:inline"
     id="layer2" />
  <g
     transform="translate(-160,-450.99664)"
     style="display:inline"
     id="g6058" />
  <g
     transform="translate(-401.0002,16.00336)"
     style="display:inline"
     id="layer12">
    <path
       style="color:#000000;font-style:normal;font-variant:normal;font-weight:normal;font-stretch:normal;line-height:normal;font-family:Sans;-inkscape-font-specification:Sans;text-indent:0;text-align:start;text-decoration:none;text-decoration-line:none;letter-spacing:normal;word-spacing:normal;text-transform:none;direction:ltr;block-progression:tb;writing-mode:lr-tb;baseline-shift:baseline;text-anchor:start;display:inline;overflow:visible;visibility:visible;fill:#bebebe;fill-opacity:1;stroke:none;stroke-width:2;marker:none;enable-background:new"
       id="path36048"
       d="m 407.7502,-9.15961 a 1.0001,1.0001 0 0 0 1.875,0.34375 l 3.3125,-5.625 a 1.0077822,1.0077822 0 1 0 -1.75,-1 l -3.3125,5.625 a 1.0001,1.0001 0 0 0 -0.125,0.65625 z" />
    <path
       style="color:#000000;display:inline;overflow:visible;visibility:visible;fill:#bebebe;fill-opacity:1;fill-rule:nonzero;stroke:none;stroke-width:0.55063653;marker:none;enable-background:new"
       id="path36050"
       d="m 406.21895,-10.90961 4.94742,3.05384 c 0.60355,0.31472 0.81997,1.11313 0.16464,1.59705 l -0.62186,0.21653 -6.01923,-3.52145 0.0177,-0.90733 c 0.28883,-0.58524 0.75466,-0.81586 1.51132,-0.43864 z" />
    <path
       style="color:#000000;display:inline;overflow:visible;visibility:visible;fill:#bebebe;fill-opacity:1;fill-rule:nonzero;stroke:none;stroke-width:0.55063653;marker:none;enable-background:new"
       id="path36052"
       d="m 404.02387,-8.80079 c -0.86313,0.347359 -1.55857,1.0885126 -1.85035,1.971975 -0.29179,0.8834625 -0.17456,1.8930207 0.3119,2.686115 0.31236,0.5092425 0.76492,0.9250054 1.27614,1.2341178 0.51121,0.3091125 1.0804,0.514857 1.66271,0.6483015 1.16462,0.266889 2.37246,0.2568207 3.56727,0.2568207 l 4.00866,0 c -0.84008,0.1162286 -1.71187,-0.00629 -2.48737,-0.34956 -0.33811,-0.1496606 -0.66216,-0.3436538 -0.91582,-0.6126718 -0.25366,-0.2690181 -0.43293,-0.6191462 -0.4496,-0.9885182 -0.013,-0.2889274 0.0756,-0.5814421 0.24674,-0.814568 0.17118,-0.2331259 0.42374,-0.4052523 0.70332,-0.479322 l -6.0736,-3.55269 z" />
  </g>
</svg>
