<?xml version="1.0" encoding="UTF-8" standalone="no"?>
<svg
   xmlns:osb="http://www.openswatchbook.org/uri/2009/osb"
   xmlns:dc="http://purl.org/dc/elements/1.1/"
   xmlns:cc="http://creativecommons.org/ns#"
   xmlns:rdf="http://www.w3.org/1999/02/22-rdf-syntax-ns#"
   xmlns:svg="http://www.w3.org/2000/svg"
   xmlns="http://www.w3.org/2000/svg"
   xmlns:sodipodi="http://sodipodi.sourceforge.net/DTD/sodipodi-0.dtd"
   xmlns:inkscape="http://www.inkscape.org/namespaces/inkscape"
   width="15.981825"
   version="1.1"
   style="enable-background:new"
   id="svg7384"
   height="16"
   inkscape:version="0.91 r"
   sodipodi:docname="edit-clear-symbolic.svg">
  <sodipodi:namedview
     pagecolor="#ffffff"
     bordercolor="#666666"
     borderopacity="1"
     objecttolerance="10"
     gridtolerance="10"
     guidetolerance="10"
     inkscape:pageopacity="0"
     inkscape:pageshadow="2"
     inkscape:window-width="659"
     inkscape:window-height="480"
     id="namedview21"
     showgrid="false"
     inkscape:zoom="14.75"
     inkscape:cx="7.9909124"
     inkscape:cy="8"
     inkscape:window-x="0"
     inkscape:window-y="27"
     inkscape:window-maximized="0"
     inkscape:current-layer="svg7384" />
  <metadata
     id="metadata90">
    <rdf:RDF>
      <cc:Work
         rdf:about="">
        <dc:format>image/svg+xml</dc:format>
        <dc:type
           rdf:resource="http://purl.org/dc/dcmitype/StillImage" />
        <dc:title>Moka Symbolic Icon Theme</dc:title>
      </cc:Work>
    </rdf:RDF>
  </metadata>
  <title
     id="title8473">Moka Symbolic Icon Theme</title>
  <defs
     id="defs7386">
    <linearGradient
       osb:paint="solid"
       id="linearGradient5606">
      <stop
         style="stop-color:#000000;stop-opacity:1;"
         offset="0"
         id="stop5608" />
    </linearGradient>
    <filter
       style="color-interpolation-filters:sRGB"
       id="filter7554">
      <feBlend
         mode="darken"
         in2="BackgroundImage"
         id="feBlend7556" />
    </filter>
  </defs>
  <path
     inkscape:connector-curvature="0"
     d="m 4.8748,1.999978 c -0.25613,0.0339 -0.497,0.17155 -0.65625,0.375 l -4,5 c -0.28127,0.35137 -0.28127,0.89863 0,1.25 l 4,5 c 0.20539,0.2592 0.54566,0.40503 0.875,0.375 0.01,7.7e-4 0.0212,-5.1e-4 0.0312,0 0.0201,10e-4 0.0421,0 0.0625,0 l 8.625,0 c 0.6627,0 1.1875,-0.54894 1.1875,-1.21875 l 0,-9.5625 c 10e-5,-0.66976 -0.52475,-1.21875 -1.18745,-1.21875 l -8.625,0 c -0.0416,-0.003 -0.0834,-0.003 -0.125,0 -0.0623,-0.006 -0.12518,-0.006 -0.1875,0 z m 1.125,3 1,0 c 0.27614,0 0.53779,0.10029 0.71875,0.28125 l 1.28125,1.28125 1.28125,-1.28125 c 0.18096,-0.18096 0.44292,-0.26812 0.71875,-0.28125 l 1,0 0,1 c 0,0.27614 -0.12201,0.51841 -0.28125,0.71875 l -1.28125,1.28125 1.28125,1.28125 c 0.18096,0.18096 0.19393,0.45678 0.28125,0.71875 l 0,1 -1,0 c -0.27549,0.019 -0.56909,-0.0737 -0.71875,-0.28125 L 8.9998,9.437478 7.71855,10.718728 c -0.18096,0.18096 -0.44261,0.28125 -0.71875,0.28125 l -1,0 0,-1 c 0,-0.27614 0.0856,-0.55379 0.28125,-0.71875 L 7.5623,7.999978 6.28105,6.718728 C 6.10009,6.537768 5.92188,6.264898 5.9998,5.999978 Z"
     id="path7274"
     style="color:#bebebe;fill:#bebebe;stroke:none;stroke-linejoin:round" />
</svg>
