<?xml version="1.0" encoding="UTF-8" standalone="no"?>
<svg
   xmlns:osb="http://www.openswatchbook.org/uri/2009/osb"
   xmlns:dc="http://purl.org/dc/elements/1.1/"
   xmlns:cc="http://creativecommons.org/ns#"
   xmlns:rdf="http://www.w3.org/1999/02/22-rdf-syntax-ns#"
   xmlns:svg="http://www.w3.org/2000/svg"
   xmlns="http://www.w3.org/2000/svg"
   height="16"
   id="svg7384"
   style="enable-background:new"
   version="1.1"
   width="16">
  <metadata
     id="metadata90">
    <rdf:RDF>
      <cc:Work
         rdf:about="">
        <dc:format>image/svg+xml</dc:format>
        <dc:type
           rdf:resource="http://purl.org/dc/dcmitype/StillImage" />
        <dc:title>Moka Symbolic Icon Theme</dc:title>
      </cc:Work>
    </rdf:RDF>
  </metadata>
  <title
     id="title8473">Moka Symbolic Icon Theme</title>
  <defs
     id="defs7386">
    <linearGradient
       id="linearGradient5606"
       osb:paint="solid">
      <stop
         id="stop5608"
         offset="0"
         style="stop-color:#000000;stop-opacity:1;" />
    </linearGradient>
    <filter
       id="filter7554"
       style="color-interpolation-filters:sRGB">
      <feBlend
         id="feBlend7556"
         in2="BackgroundImage"
         mode="darken" />
    </filter>
  </defs>
  <g
     id="layer9"
     style="display:inline"
     transform="translate(-261.00021,-149)" />
  <g
     id="layer10"
     style="display:inline;filter:url(#filter7554)"
     transform="translate(-261.00021,-149)" />
  <g
     id="layer1"
     style="display:inline"
     transform="translate(-20.00001,-766)" />
  <g
     id="layer14"
     style="display:inline"
     transform="translate(-261.00021,-149)" />
  <g
     id="layer15"
     style="display:inline"
     transform="translate(-261.00021,-149)" />
  <g
     id="g71291"
     style="display:inline"
     transform="translate(-261.00021,-149)" />
  <g
     id="layer2"
     style="display:inline"
     transform="translate(-20.00001,-616)" />
  <g
     id="g6058"
     style="display:inline"
     transform="translate(-20.00001,-616)" />
  <g
     id="layer12"
     style="display:inline"
     transform="translate(-261.00021,-149)">
    <g
       id="g5313"
       transform="translate(18.00001,322)">
      <g
         id="g5315"
         style="display:inline"
         transform="translate(15.000398,-1169)">
        <g
           id="g5317" />
      </g>
    </g>
    <path
       d="m 263.0002,150 0,7 7,7 7,-7 -7,-7 z m 1,1 2,0 3.5625,0 6,6 -5.5625,5.5625 -6,-6 0,-3.5625 z m 2,1 c 0.55228,0 1,0.44772 1,1 0,0.55228 -0.44772,1 -1,1 -0.55228,0 -1,-0.44772 -1,-1 0,-0.55228 0.44772,-1 1,-1 z"
       id="path4849"
       style="fill:#bebebe;fill-opacity:1;stroke:none" />
    <path
       d="m 262.88282,152.98821 c 0.30112,-0.34375 0.68838,-0.59712 1.12654,-0.73715 0.58421,-0.18672 1.24821,-0.11788 1.84835,0.30234 0.21868,0.14824 0.28015,0.48405 0.12862,0.70045 -0.15152,0.21641 -0.48795,0.27329 -0.70219,0.11871 -0.36789,-0.2576 -0.67505,-0.26314 -0.9933,-0.16143 -0.31826,0.10171 -0.62665,0.37152 -0.83981,0.70903 -0.21315,0.33753 -0.32362,0.73083 -0.27665,1.10337 0.047,0.37253 0.20993,0.71923 0.65269,1.02925 1.77371,1.24196 2.03486,3.21182 1.1207,4.44705 -0.50983,0.68888 -1.35904,1.10936 -2.36568,1.09027 l -0.49652,-1.03435 c 0.9654,0.21774 1.67363,-0.13171 2.06097,-0.6551 0.57154,-0.77231 0.53145,-2.03127 -0.89305,-3.02872 -0.64874,-0.45426 -0.98957,-1.10408 -1.06988,-1.74102 -0.0803,-0.63693 0.10614,-1.24538 0.43034,-1.75873 0.0812,-0.12821 0.16849,-0.26939 0.26887,-0.38397 z m -1.61392,7.26275 c 0.0816,0.0403 0.16193,0.0592 0.24064,0.0922 l 0.54513,1.18285 c -0.0667,-0.0109 -0.13961,-0.0161 -0.20733,-0.0308 z m 0.41212,0.17418 c 0.0864,0.0316 0.17589,0.0434 0.25854,0.0666 l 0.50419,1.07787 c -0.0763,-0.004 -0.1473,0.004 -0.22529,-0.005 z"
       id="path7413-8"
       style="color:#000000;font-style:normal;font-variant:normal;font-weight:normal;font-stretch:normal;font-size:medium;line-height:normal;font-family:Sans;-inkscape-font-specification:Sans;text-indent:0;text-align:start;text-decoration:none;text-decoration-line:none;letter-spacing:normal;word-spacing:normal;text-transform:none;direction:ltr;block-progression:tb;writing-mode:lr-tb;baseline-shift:baseline;text-anchor:start;display:inline;overflow:visible;visibility:visible;fill:#bebebe;fill-opacity:1;stroke:none;stroke-width:1;marker:none;enable-background:accumulate" />
  </g>
</svg>
