<?xml version="1.0" encoding="UTF-8" standalone="no"?>
<svg
   xmlns:osb="http://www.openswatchbook.org/uri/2009/osb"
   xmlns:dc="http://purl.org/dc/elements/1.1/"
   xmlns:cc="http://creativecommons.org/ns#"
   xmlns:rdf="http://www.w3.org/1999/02/22-rdf-syntax-ns#"
   xmlns:svg="http://www.w3.org/2000/svg"
   xmlns="http://www.w3.org/2000/svg"
   width="16"
   version="1.1"
   style="enable-background:new"
   id="svg7384"
   height="16">
  <metadata
     id="metadata90">
    <rdf:RDF>
      <cc:Work
         rdf:about="">
        <dc:format>image/svg+xml</dc:format>
        <dc:type
           rdf:resource="http://purl.org/dc/dcmitype/StillImage" />
        <dc:title>Moka Symbolic Icon Theme</dc:title>
      </cc:Work>
    </rdf:RDF>
  </metadata>
  <title
     id="title8473">Moka Symbolic Icon Theme</title>
  <defs
     id="defs7386">
    <linearGradient
       osb:paint="solid"
       id="linearGradient5606">
      <stop
         style="stop-color:#000000;stop-opacity:1;"
         offset="0"
         id="stop5608" />
    </linearGradient>
    <filter
       style="color-interpolation-filters:sRGB"
       id="filter7554">
      <feBlend
         mode="darken"
         in2="BackgroundImage"
         id="feBlend7556" />
    </filter>
  </defs>
  <g
     transform="translate(-461.00018,14.99663)"
     style="display:inline"
     id="layer9" />
  <g
     transform="translate(-461.00018,14.99663)"
     style="display:inline;filter:url(#filter7554)"
     id="layer10" />
  <g
     transform="translate(-219.99998,-602.00337)"
     style="display:inline"
     id="layer1" />
  <g
     transform="translate(-461.00018,14.99663)"
     style="display:inline"
     id="layer14" />
  <g
     transform="translate(-461.00018,14.99663)"
     style="display:inline"
     id="layer15" />
  <g
     transform="translate(-461.00018,14.99663)"
     style="display:inline"
     id="g71291" />
  <g
     transform="translate(-219.99998,-452.00337)"
     style="display:inline"
     id="layer2" />
  <g
     transform="translate(-219.99998,-452.00337)"
     style="display:inline"
     id="g6058" />
  <g
     transform="translate(-461.00018,14.99663)"
     style="display:inline"
     id="layer12">
    <path
       style="color:#bebebe;display:inline;overflow:visible;visibility:visible;fill:#bebebe;fill-opacity:1;fill-rule:nonzero;stroke:none;stroke-width:1;marker:none;enable-background:accumulate"
       id="path6605"
       d="m 463.0002,-14.003359 0,3 0,1 0,10 12,0 0,-14 -12,0 z m 1,1 10,0 0,12 -10,0 0,-8.40625 0,-1.59375 0,-2 z" />
    <g
       transform="translate(437.0678,-30.498203)"
       id="g6607" />
    <rect
       y="-12.00336"
       x="465.00021"
       width="8"
       style="opacity:0.35;fill:#bebebe;fill-opacity:1;stroke:none"
       id="rect6615"
       height="10" />
    <path
       style="fill:#bebebe;fill-opacity:1;stroke:none"
       id="rect6617"
       d="m 465.0002,-12.00336 0,1 7,0 0,-1 -7,0 z m 0,2 0,1 3,0 0,-1 -3,0 z m 4,0 0,1 3,0 0,-1 -3,0 z m -4,2 0,1 6,0 0,-1 -6,0 z m 0,2 0,1 3,0 0,-1 -3,0 z m 4,0 0,1 4,0 0,-1 -4,0 z" />
  </g>
</svg>
