<svg xmlns="http://www.w3.org/2000/svg" width="16" height="16" enable-background="new"><defs><filter id="a" color-interpolation-filters="sRGB"><feBlend mode="darken" in2="BackgroundImage"/></filter></defs><path style="line-height:normal;-inkscape-font-specification:Sans;text-indent:0;text-align:start;text-decoration-line:none;text-transform:none;block-progression:tb;marker:none" d="M9.51.997c-3.028 0-5.53 2.475-5.53 5.5 0 1.15.389 2.208 1 3.094l-3.688 3.687a1.005 1.005 0 1 0 1.406 1.438l3.688-3.688c.887.611 1.973.97 3.125.97 3.029 0 5.5-2.475 5.5-5.5 0-3.026-2.471-5.5-5.5-5.5zm0 2c1.948 0 3.5 1.555 3.5 3.5s-1.552 3.5-3.5 3.5a3.483 3.483 0 0 1-3.5-3.5c0-1.945 1.553-3.5 3.5-3.5z" color="#000" font-weight="400" font-family="Sans" overflow="visible" fill="#5d656b" enable-background="new"/></svg>