<svg xmlns="http://www.w3.org/2000/svg" width="15.982" height="16"><path d="M4.875 2a1.012 1.012 0 0 0-.656.375l-4 5a1.031 1.031 0 0 0 0 1.25l4 5c.205.26.545.405.875.375h8.718c.663 0 1.188-.549 1.188-1.219V3.22C15 2.549 14.475 2 13.812 2H5.187a.87.87 0 0 0-.125 0 .979.979 0 0 0-.187 0zM6 5h1c.276 0 .538.1.719.281l1.28 1.281 1.282-1.28c.181-.182.443-.269.719-.282h1v1c0 .276-.122.518-.281.719L10.437 8l1.282 1.281c.18.181.193.457.28.719v1h-1c-.275.019-.568-.074-.718-.281L9 9.437 7.719 10.72a1.015 1.015 0 0 1-.72.281H6v-1c0-.276.086-.554.282-.719L7.562 8 6.281 6.719C6.101 6.538 5.921 6.265 6 6z" color="#5d656b" fill="#5d656b"/></svg>