<svg xmlns="http://www.w3.org/2000/svg" height="16" width="16" enable-background="new"><defs><filter id="a" color-interpolation-filters="sRGB"><feBlend in2="BackgroundImage" mode="darken"/></filter></defs><path d="M11.125 2c.256.034.497.172.656.375l4 5c.282.351.282.899 0 1.25l-4 5c-.205.26-.545.405-.875.375H2.188C1.525 14 1 13.451 1 12.781V3.22C1 2.549 1.525 2 2.188 2h8.625a.87.87 0 0 1 .125 0 .979.979 0 0 1 .187 0zM10 5H9c-.276 0-.538.1-.719.281L7 6.562l-1.281-1.28C5.538 5.1 5.276 5.012 5 5H4v1c0 .276.122.518.281.719L5.563 8 4.28 9.281c-.18.181-.194.457-.281.719v1h1c.276.019.57-.074.719-.281L7 9.437l1.281 1.282c.181.18.443.281.719.281h1v-1c0-.276-.086-.554-.281-.719L8.438 8l1.28-1.281c.182-.181.36-.454.282-.719z" color="#5d656b" fill="#5d656b"/></svg>