<svg width="16px" height="16px" version="1.1" xmlns="http://www.w3.org/2000/svg">
 <path d="m3 2c-1.108 0-2 0.892-2 2v9c0 1.108 0.892 2 2 2h9c1.108 0 2-0.892 2-2v-5h-1v5c0 0.554-0.446 1-1 1h-9c-0.554 0-1-0.446-1-1v-9c0-0.554 0.446-1 1-1h5v-1z" fill="#5d656b" fill-rule="evenodd" stop-color="#000000"/>
 <rect x="9" y="1" width="6" height="1" rx="0" ry="0" fill="#5d656b" fill-rule="evenodd" stop-color="#000000"/>
 <rect x="14" y="1" width="1" height="6" fill="#5d656b" fill-rule="evenodd" stop-color="#000000"/>
 <rect transform="rotate(-45)" x="1.1673" y="10.814" width="7.318" height="1" fill="#5d656b" fill-rule="evenodd" stop-color="#000000" stroke-width=".90173"/>
</svg>
