<?xml version="1.0" encoding="UTF-8" standalone="no"?>
<svg
   xmlns:osb="http://www.openswatchbook.org/uri/2009/osb"
   xmlns:dc="http://purl.org/dc/elements/1.1/"
   xmlns:cc="http://creativecommons.org/ns#"
   xmlns:rdf="http://www.w3.org/1999/02/22-rdf-syntax-ns#"
   xmlns:svg="http://www.w3.org/2000/svg"
   xmlns="http://www.w3.org/2000/svg"
   width="16"
   version="1.1"
   style="enable-background:new"
   id="svg7384"
   height="16.006714">
  <metadata
     id="metadata90">
    <rdf:RDF>
      <cc:Work
         rdf:about="">
        <dc:format>image/svg+xml</dc:format>
        <dc:type
           rdf:resource="http://purl.org/dc/dcmitype/StillImage" />
        <dc:title>Moka Symbolic Icon Theme</dc:title>
      </cc:Work>
    </rdf:RDF>
  </metadata>
  <title
     id="title8473">Moka Symbolic Icon Theme</title>
  <defs
     id="defs7386">
    <linearGradient
       osb:paint="solid"
       id="linearGradient5606">
      <stop
         style="stop-color:#000000;stop-opacity:1;"
         offset="0"
         id="stop5608" />
    </linearGradient>
    <filter
       style="color-interpolation-filters:sRGB"
       id="filter7554">
      <feBlend
         mode="darken"
         in2="BackgroundImage"
         id="feBlend7556" />
    </filter>
  </defs>
  <g
     transform="translate(-442.00024,-22.989927)"
     style="display:inline"
     id="layer9" />
  <g
     transform="translate(-442.00024,-22.989927)"
     style="display:inline;filter:url(#filter7554)"
     id="layer10" />
  <g
     transform="translate(-201.00004,-639.98993)"
     style="display:inline"
     id="layer1" />
  <g
     transform="translate(-442.00024,-22.989927)"
     style="display:inline"
     id="layer14" />
  <g
     transform="translate(-442.00024,-22.989927)"
     style="display:inline"
     id="layer15" />
  <g
     transform="translate(-442.00024,-22.989927)"
     style="display:inline"
     id="g71291" />
  <g
     transform="translate(-201.00004,-489.98993)"
     style="display:inline"
     id="layer2" />
  <g
     transform="translate(-201.00004,-489.98993)"
     style="display:inline"
     id="g6058" />
  <g
     transform="translate(-442.00024,-22.989927)"
     style="display:inline"
     id="layer12">
    <path
       style="color:#000000;font-style:normal;font-variant:normal;font-weight:normal;font-stretch:normal;font-size:medium;line-height:normal;font-family:Sans;-inkscape-font-specification:Sans;text-indent:0;text-align:start;text-decoration:none;text-decoration-line:none;letter-spacing:normal;word-spacing:normal;text-transform:none;direction:ltr;block-progression:tb;writing-mode:lr-tb;baseline-shift:baseline;text-anchor:start;display:inline;overflow:visible;visibility:visible;fill:#bebebe;fill-opacity:1;stroke:none;stroke-width:2;marker:none;enable-background:accumulate"
       id="path5144-0"
       d="m 443.0002,23.996641 0,0.40625 a 0.50005,0.50005 0 0 0 0,0.0937 l 0,0.5 0,0.5 0,1 0,1.5 0,0.5 0,0.5 0,7 c 0,0.83333 0.57399,1.50574 1.0625,1.75 0.48851,0.24441 0.9375,0.25005 0.9375,0.25005 l 6,0 0,-1 -6,0 c 0,0 -0.22511,-0.0188 -0.5,-0.15625 -0.11216,-0.05608 -0.5,-0.46961 -0.5,-0.84375 l 0,-7 12,0 0,3 1,0 0,-4 0,-0.5 0,-0.5 0,-0.5 a 0.50005,0.50005 0 0 0 0,-0.0937 l 0,-0.4063 -0.40625,0 -0.0937,0 -0.5,0 -4.5,0 c -0.26389,0 -0.42709,-0.0542 -0.59375,-0.1875 -0.16666,-0.13333 -0.3125,-0.375 -0.5,-0.625 -0.1875,-0.25 -0.41666,-0.50833 -0.71875,-0.75 -0.30219,-0.24167 -0.70144,-0.4375 -1.18755,-0.4375 l -4.5,0 -0.65625,0 -0.34375,0 z m 1,1 4.5,0 c 0.26389,0 0.42709,0.0542 0.59375,0.1875 0.16666,0.13333 0.3125,0.375 0.5,0.625 0.1875,0.25 0.41666,0.50833 0.71875,0.75 0.30209,0.24167 0.70139,0.4375 1.1875,0.4375 l 4.5,0 0,0.5 0,0.5 -12,0 0,-1.5 0,-1 0,-0.5 z" />
    <path
       style="display:inline;fill:#bebebe;fill-opacity:1;stroke:none;enable-background:new"
       id="rect5887-6"
       d="m 454.0002,32.996641 0,2 -2,0 0,2 2,0 0,2 2,0 0,-2 2,0 0,-2 -2,0 0,-2 -2,0 z" />
  </g>
</svg>
