<svg width="16" height="16.007" enable-background="new" version="1.1" xmlns="http://www.w3.org/2000/svg">
 <g fill="#5d656b">
  <path d="m1 1.007v0.406c-0.002952 0.031264-0.002952 0.062736 0 0.094v11.5c0 0.833 0.574 1.505 1.062 1.75 0.489 0.244 0.938 0.25 0.938 0.25h7v-1h-7s-0.225-0.02-0.5-0.157c-0.112-0.056-0.5-0.47-0.5-0.843v-7h12v3.993h1v-6.493c3e-3 -0.031264 3e-3 -0.062736 0-0.094v-0.406h-5.5c-0.264 0-0.427-0.054-0.594-0.188-0.166-0.133-0.312-0.375-0.5-0.625-0.20633-0.27963-0.44763-0.53168-0.718-0.75-0.33392-0.27803-0.75351-0.43238-1.188-0.437zm1 1h4.5c0.264 0 0.427 0.054 0.594 0.187 0.166 0.134 0.312 0.375 0.5 0.625 0.187 0.25 0.416 0.509 0.718 0.75 0.303 0.242 0.702 0.438 1.188 0.438h4.5v1h-12z" color="#000000" enable-background="accumulate" font-family="Sans" font-weight="400" overflow="visible" style="text-decoration-line:none;text-indent:0;text-transform:none"/>
 </g>
 <path d="m12 10v2h-2v1h2v2h1v-2h2v-1h-2v-2z" fill="#5d656b" stroke-width=".84515" style="paint-order:stroke fill markers"/>
</svg>
