<?xml version="1.0" encoding="UTF-8" standalone="no"?>
<svg
   xmlns:osb="http://www.openswatchbook.org/uri/2009/osb"
   xmlns:dc="http://purl.org/dc/elements/1.1/"
   xmlns:cc="http://creativecommons.org/ns#"
   xmlns:rdf="http://www.w3.org/1999/02/22-rdf-syntax-ns#"
   xmlns:svg="http://www.w3.org/2000/svg"
   xmlns="http://www.w3.org/2000/svg"
   width="16"
   version="1.1"
   style="enable-background:new"
   id="svg7384"
   height="16">
  <metadata
     id="metadata90">
    <rdf:RDF>
      <cc:Work
         rdf:about="">
        <dc:format>image/svg+xml</dc:format>
        <dc:type
           rdf:resource="http://purl.org/dc/dcmitype/StillImage" />
        <dc:title>Moka Symbolic Icon Theme</dc:title>
      </cc:Work>
    </rdf:RDF>
  </metadata>
  <title
     id="title8473">Moka Symbolic Icon Theme</title>
  <defs
     id="defs7386">
    <linearGradient
       osb:paint="solid"
       id="linearGradient5606">
      <stop
         style="stop-color:#000000;stop-opacity:1;"
         offset="0"
         id="stop5608" />
    </linearGradient>
    <filter
       style="color-interpolation-filters:sRGB"
       id="filter7554">
      <feBlend
         mode="darken"
         in2="BackgroundImage"
         id="feBlend7556" />
    </filter>
  </defs>
  <g
     transform="translate(-501.00021,-43.99664)"
     style="display:inline"
     id="layer9" />
  <g
     transform="translate(-501.00021,-43.99664)"
     style="display:inline;filter:url(#filter7554)"
     id="layer10" />
  <g
     transform="translate(-260.00001,-660.99664)"
     style="display:inline"
     id="layer1" />
  <g
     transform="translate(-501.00021,-43.99664)"
     style="display:inline"
     id="layer14" />
  <g
     transform="translate(-501.00021,-43.99664)"
     style="display:inline"
     id="layer15" />
  <g
     transform="translate(-501.00021,-43.99664)"
     style="display:inline"
     id="g71291" />
  <g
     transform="translate(-260.00001,-510.99664)"
     style="display:inline"
     id="layer2" />
  <g
     transform="translate(-260.00001,-510.99664)"
     style="display:inline"
     id="g6058" />
  <g
     transform="translate(-501.00021,-43.99664)"
     style="display:inline"
     id="layer12">
    <path
       style="color:#000000;font-style:normal;font-variant:normal;font-weight:normal;font-stretch:normal;line-height:normal;font-family:Sans;-inkscape-font-specification:Sans;text-indent:0;text-align:start;text-decoration:none;text-decoration-line:none;letter-spacing:normal;word-spacing:normal;text-transform:none;direction:ltr;block-progression:tb;writing-mode:lr-tb;baseline-shift:baseline;text-anchor:start;display:inline;overflow:visible;visibility:visible;fill:#bebebe;fill-opacity:1;stroke:none;stroke-width:2;marker:none;enable-background:accumulate"
       id="path11643-3-2-96"
       d="m 505.00021,46.99664 0,2 4.15625,0 2,-2 c -0.0513,-0.003 -0.10426,0 -0.15625,0 l -6,0 z m 9,2.84375 -3.15625,3.15625 1.15625,0 0,2 -3.15625,0 -2,2 c 0.0528,0.003 0.10267,0 0.15625,0 l 6,0 c 0.9998,-2e-5 1,-1 1,-1 l 0,-6 c 0,-0.0532 0.003,-0.10368 0,-0.15625 z m -7,1.15625 c -0.91927,0 -1.73559,0.38396 -2.25,0.96875 -0.5144,0.58479 -0.75639,1.31063 -0.75,2.03125 3.6e-4,0.043 0.0291,0.0819 0.0312,0.125 l 3.12505,-3.125 -0.15625,0 z" />
    <path
       style="color:#000000;display:inline;overflow:visible;visibility:visible;fill:#bebebe;fill-opacity:1;fill-rule:nonzero;stroke:none;stroke-width:1;marker:none;enable-background:accumulate"
       id="path2986-2-7"
       d="m 514.65646,44.93414 -12.71875,12.71875 1.40625,1.40625 12.71875,-12.71875 z" />
  </g>
</svg>
