<svg width="16" height="16" version="1.1" xmlns="http://www.w3.org/2000/svg">
 <rect transform="rotate(45)" x="1.3137" y="-.5" width="20" height="1" ry="0" fill="#5d656b"/>
 <path d="m6 2c-0.55556 0-1.0845 0.1115-1.5645 0.31445l0.78906 0.78906c0.24752-0.065686 0.50664-0.10352 0.77539-0.10352h7v-1h-7zm-2.4551 0.83789c-0.94128 0.73057-1.5449 1.873-1.5449 3.1621v1 1 5 1h1 7.5c1.1505 0 2.1655-0.55228 2.8027-1.4043l-0.7168-0.7168c-0.44653 0.67618-1.2116 1.1211-2.0859 1.1211h-7.5v-5h5.707l-1-1h-4.707v-1c0-1.0125 0.49783-1.9026 1.2617-2.4453l-0.7168-0.7168zm5.5762 4.1621 1 1h0.37891c1.385 0 2.5 1.115 2.5 2.5 0 0.11967-0.01124 0.23647-0.027344 0.35156l0.82617 0.82617c0.13073-0.36793 0.20117-0.76386 0.20117-1.1777 0-1.939-1.561-3.5-3.5-3.5h-1.3789z" fill="#5d656b" fill-rule="evenodd" stop-color="#000000" style="paint-order:stroke fill markers"/>
</svg>
