<svg xmlns="http://www.w3.org/2000/svg" width="16" height="16" enable-background="new"><defs><filter id="a" color-interpolation-filters="sRGB"><feBlend mode="darken" in2="BackgroundImage"/></filter></defs><g color="#000" fill="#5d656b"><path style="line-height:normal;-inkscape-font-specification:Sans;text-indent:0;text-align:start;text-decoration-line:none;text-transform:none;block-progression:tb;marker:none" d="M4 3v2h4.156l2-2c-.051-.003-.104 0-.156 0H4zm9 2.844L9.844 9H11v2H7.844l-2 2c.053.003.102 0 .156 0h6c1 0 1-1 1-1V6c0-.053.003-.104 0-.156zM6 7c-.92 0-1.736.384-2.25.969A3.017 3.017 0 0 0 3 10c0 .043.03.082.031.125L6.156 7H6z" font-weight="400" font-family="Sans" overflow="visible" enable-background="accumulate"/><path style="marker:none" d="M13.656.938L.938 13.655l1.406 1.406L15.063 2.345z" overflow="visible" enable-background="accumulate"/></g></svg>