<?xml version="1.0" encoding="UTF-8" standalone="no"?>
<svg
   xmlns:osb="http://www.openswatchbook.org/uri/2009/osb"
   xmlns:dc="http://purl.org/dc/elements/1.1/"
   xmlns:cc="http://creativecommons.org/ns#"
   xmlns:rdf="http://www.w3.org/1999/02/22-rdf-syntax-ns#"
   xmlns:svg="http://www.w3.org/2000/svg"
   xmlns="http://www.w3.org/2000/svg"
   width="16"
   version="1.1"
   style="enable-background:new"
   id="svg7384"
   height="16">
  <metadata
     id="metadata90">
    <rdf:RDF>
      <cc:Work
         rdf:about="">
        <dc:format>image/svg+xml</dc:format>
        <dc:type
           rdf:resource="http://purl.org/dc/dcmitype/StillImage" />
        <dc:title>Moka Symbolic Icon Theme</dc:title>
      </cc:Work>
    </rdf:RDF>
  </metadata>
  <title
     id="title8473">Moka Symbolic Icon Theme</title>
  <defs
     id="defs7386">
    <linearGradient
       osb:paint="solid"
       id="linearGradient5606">
      <stop
         style="stop-color:#000000;stop-opacity:1;"
         offset="0"
         id="stop5608" />
    </linearGradient>
    <filter
       style="color-interpolation-filters:sRGB"
       id="filter7554">
      <feBlend
         mode="darken"
         in2="BackgroundImage"
         id="feBlend7556" />
    </filter>
  </defs>
  <g
     transform="translate(-461.0002,36.003359)"
     style="display:inline"
     id="layer9" />
  <g
     transform="translate(-461.0002,36.003359)"
     style="display:inline;filter:url(#filter7554)"
     id="layer10" />
  <g
     transform="translate(-220,-580.99664)"
     style="display:inline"
     id="layer1" />
  <g
     transform="translate(-461.0002,36.003359)"
     style="display:inline"
     id="layer14" />
  <g
     transform="translate(-461.0002,36.003359)"
     style="display:inline"
     id="layer15" />
  <g
     transform="translate(-461.0002,36.003359)"
     style="display:inline"
     id="g71291" />
  <g
     transform="translate(-220,-430.99664)"
     style="display:inline"
     id="layer2" />
  <g
     transform="translate(-220,-430.99664)"
     style="display:inline"
     id="g6058" />
  <g
     transform="translate(-461.0002,36.003359)"
     style="display:inline"
     id="layer12">
    <path
       style="fill:#bebebe;fill-opacity:1;stroke:none"
       id="path16259-2"
       d="m 469.00019,-34.37836 -0.6875,0.625 -5.5,5 -0.8125,0.75 0,1 1,0 0,6 12,0 0,-6 1,0 0,-1 -1.0625,-1 -5.25,-4.75 z m 0,1.75 5,4.625 0,6 -3,0 0,-4 -4,0 0,4 -3,0 0,-6 z m -1,7.625 2,0 0,3 -2,0 z" />
    <path
       style="color:#000000;display:inline;overflow:visible;visibility:visible;fill:#bebebe;fill-opacity:1;fill-rule:evenodd;stroke:none;stroke-width:2;marker:none;enable-background:accumulate"
       id="rect3000-4-3"
       d="m 472.00019,-33.003359 0,2.25 1,0.84375 0,-2.09375 1,0 0,2.90625 1,0.84375 0,-4.75 -3,0 z" />
  </g>
</svg>
