<?xml version="1.0" encoding="UTF-8" standalone="no"?>
<svg
   xmlns:osb="http://www.openswatchbook.org/uri/2009/osb"
   xmlns:dc="http://purl.org/dc/elements/1.1/"
   xmlns:cc="http://creativecommons.org/ns#"
   xmlns:rdf="http://www.w3.org/1999/02/22-rdf-syntax-ns#"
   xmlns:svg="http://www.w3.org/2000/svg"
   xmlns="http://www.w3.org/2000/svg"
   height="16"
   id="svg7384"
   style="enable-background:new"
   version="1.1"
   width="16.000017">
  <metadata
     id="metadata90">
    <rdf:RDF>
      <cc:Work
         rdf:about="">
        <dc:format>image/svg+xml</dc:format>
        <dc:type
           rdf:resource="http://purl.org/dc/dcmitype/StillImage" />
        <dc:title>Moka Symbolic Icon Theme</dc:title>
      </cc:Work>
    </rdf:RDF>
  </metadata>
  <title
     id="title8473">Moka Symbolic Icon Theme</title>
  <defs
     id="defs7386">
    <linearGradient
       id="linearGradient5606"
       osb:paint="solid">
      <stop
         id="stop5608"
         offset="0"
         style="stop-color:#000000;stop-opacity:1;" />
    </linearGradient>
    <filter
       id="filter7554"
       style="color-interpolation-filters:sRGB">
      <feBlend
         id="feBlend7556"
         in2="BackgroundImage"
         mode="darken" />
    </filter>
  </defs>
  <g
     id="layer9"
     style="display:inline"
     transform="translate(-321.0002,36.003359)" />
  <g
     id="layer10"
     style="display:inline;filter:url(#filter7554)"
     transform="translate(-321.0002,36.003359)" />
  <g
     id="layer1"
     style="display:inline"
     transform="translate(-80,-580.99664)" />
  <g
     id="layer14"
     style="display:inline"
     transform="translate(-321.0002,36.003359)" />
  <g
     id="layer15"
     style="display:inline"
     transform="translate(-321.0002,36.003359)" />
  <g
     id="g71291"
     style="display:inline"
     transform="translate(-321.0002,36.003359)" />
  <g
     id="layer2"
     style="display:inline"
     transform="translate(-80,-430.99664)" />
  <g
     id="g6058"
     style="display:inline"
     transform="translate(-80,-430.99664)" />
  <g
     id="layer12"
     style="display:inline"
     transform="translate(-321.0002,36.003359)">
    <path
       d="m 326.21895,-34.00336 -1.40625,1.375 3.65625,3.65625 -7.46875,-0.03125 0,2 7.46875,0.0312 -3.65625,3.625 1.40625,1.375 6,-6.03125 -6,-6 z m 8.78125,4 c -1.10457,0 -2,0.89543 -2,2 0,1.10457 0.89543,2 2,2 1.10457,0 2,-0.89543 2,-2 0,-1.10457 -0.89543,-2 -2,-2 z"
       id="path5831"
       style="fill:#bebebe;fill-opacity:1;fill-rule:nonzero;stroke:none" />
  </g>
</svg>
