<svg xmlns="http://www.w3.org/2000/svg" width="16" height="16"><path d="M1 8v1h1V8zm2 0v1h1V8zm2 0v1h1V8zm2 0v1h1V8zm2 0v1h1V8zm2 0v1h1V8zm2 0v1h1V8zm2 0v1h1V8zM12.963.994c-.095.002-.156.014-.156.014l-11.8 2.186C.026 3.376.206 4.359.206 4.359L.695 7h3.112l1.107-1.928L7.377 7h2.3l.895-1.256L12.398 7h2.538l-.963-5.191c-.138-.738-.725-.82-1.01-.815zM1.252 10l.777 4.191c.182.983 1.164.801 1.164.801l11.799-2.185s.985-.183.803-1.166L15.49 10h-2.035l.19 1.021-9.833 1.823L3.285 10z" fill="#5d656b"/></svg>