<svg xmlns="http://www.w3.org/2000/svg" width="16" height="16" enable-background="new"><defs><filter id="a" color-interpolation-filters="sRGB"><feBlend mode="darken" in2="BackgroundImage"/></filter></defs><path style="marker:none" d="M13.656.938L.937 13.655l1.407 1.406L15.063 2.345z" color="#000" overflow="visible" fill="#5d656b" enable-background="accumulate"/><path style="marker:none" d="M8 4.156C5.1 4.156 2.56 5.695 1.156 8c.497.815 1.16 1.505 1.906 2.094l1.875-1.875c-.005-.074-.03-.144-.03-.219C4.906 6.302 6.3 4.937 8 4.937c.064 0 .124.028.188.032l.75-.75A7.966 7.966 0 0 0 8 4.156zm4.937 1.75l-1.875 1.875c.005.074.032.144.032.219 0 1.698-1.394 3.063-3.094 3.063-.064 0-.124-.028-.188-.032l-.75.75c.31.037.618.063.938.063 2.9 0 5.44-1.539 6.844-3.844-.497-.815-1.16-1.505-1.907-2.094z" class="error" color="#5d656b" overflow="visible" fill="#e13f2b" enable-background="accumulate"/></svg>