<?xml version="1.0" encoding="UTF-8" standalone="no"?>
<svg
   xmlns:osb="http://www.openswatchbook.org/uri/2009/osb"
   xmlns:dc="http://purl.org/dc/elements/1.1/"
   xmlns:cc="http://creativecommons.org/ns#"
   xmlns:rdf="http://www.w3.org/1999/02/22-rdf-syntax-ns#"
   xmlns:svg="http://www.w3.org/2000/svg"
   xmlns="http://www.w3.org/2000/svg"
   xmlns:sodipodi="http://sodipodi.sourceforge.net/DTD/sodipodi-0.dtd"
   xmlns:inkscape="http://www.inkscape.org/namespaces/inkscape"
   width="16"
   version="1.1"
   style="enable-background:new"
   id="svg7384"
   height="15.99997"
   inkscape:version="0.91 r"
   sodipodi:docname="insert-link-symbolic.svg">
  <sodipodi:namedview
     pagecolor="#ffffff"
     bordercolor="#666666"
     borderopacity="1"
     objecttolerance="10"
     gridtolerance="10"
     guidetolerance="10"
     inkscape:pageopacity="0"
     inkscape:pageshadow="2"
     inkscape:window-width="640"
     inkscape:window-height="480"
     id="namedview22"
     showgrid="false"
     inkscape:zoom="14.750027"
     inkscape:cx="8"
     inkscape:cy="7.9999852"
     inkscape:window-x="0"
     inkscape:window-y="27"
     inkscape:window-maximized="0"
     inkscape:current-layer="svg7384" />
  <metadata
     id="metadata90">
    <rdf:RDF>
      <cc:Work
         rdf:about="">
        <dc:format>image/svg+xml</dc:format>
        <dc:type
           rdf:resource="http://purl.org/dc/dcmitype/StillImage" />
        <dc:title>Moka Symbolic Icon Theme</dc:title>
      </cc:Work>
    </rdf:RDF>
  </metadata>
  <title
     id="title8473">Moka Symbolic Icon Theme</title>
  <defs
     id="defs7386">
    <linearGradient
       osb:paint="solid"
       id="linearGradient5606">
      <stop
         style="stop-color:#000000;stop-opacity:1;"
         offset="0"
         id="stop5608" />
    </linearGradient>
    <filter
       style="color-interpolation-filters:sRGB"
       id="filter7554">
      <feBlend
         mode="darken"
         in2="BackgroundImage"
         id="feBlend7556" />
    </filter>
  </defs>
  <path
     inkscape:connector-curvature="0"
     d="m 4.99999,2 c -2.1987,0 -4,1.8013 -4,4 0,2.1987 1.8013,4 4,4 l 1.03125,0 C 5.31692,9.46453 4.75499,8.73908 4.40624,7.90625 3.58612,7.65757 2.99999,6.91431 2.99999,6 c 0,-1.1253 0.8747,-2 2,-2 l 2,0 c 1.1253,0 2,0.8747 2,2 0,0.37181 -0.11277,0.70542 -0.28125,1 l 2.125,0 c 0.083,-0.31943 0.15625,-0.65568 0.15625,-1 0,-2.1987 -1.8013,-4 -4,-4 l -2,0 z m 4.96875,0 c 0.71432,0.53547 1.27625,1.26092 1.625,2.09375 0.82012,0.24868 1.40625,0.99194 1.40625,1.90625 0,1.1253 -0.8747,2 -2,2 l -2,0 c -1.1253,0 -2,-0.8747 -2,-2 0,-0.37181 0.11277,-0.70542 0.28125,-1 l -2.125,0 c -0.083,0.31943 -0.15625,0.65568 -0.15625,1 0,2.1987 1.8013,4 4,4 l 2,0 c 2.1987,0 4,-1.8013 4,-4 0,-2.1987 -1.8013,-4 -4,-4 L 9.96874,2 Z"
     id="path8655"
     style="color:#000000;font-style:normal;font-variant:normal;font-weight:normal;font-stretch:normal;font-size:medium;line-height:normal;font-family:Sans;-inkscape-font-specification:Sans;text-indent:0;text-align:start;text-decoration:none;text-decoration-line:none;letter-spacing:normal;word-spacing:normal;text-transform:none;direction:ltr;block-progression:tb;writing-mode:lr-tb;baseline-shift:baseline;text-anchor:start;display:inline;overflow:visible;visibility:visible;fill:#bebebe;fill-opacity:1;stroke:none;stroke-width:2;marker:none;enable-background:accumulate" />
  <path
     inkscape:connector-curvature="0"
     d="m 4.99999,12.00002 3.00024,3.99995 2.99976,-3.99995 z"
     id="path7325-0"
     style="display:inline;fill:#bebebe;fill-opacity:1;stroke:none;enable-background:new" />
</svg>
