<svg xmlns="http://www.w3.org/2000/svg" width="16" height="16"><path d="M5 12l3 4 3-4z" fill="#5d656b"/><path d="M4 0v2h6c.428 0 1 .614 1 1v1H6c-.92 0-1.736.384-2.25.969A3.017 3.017 0 0 0 3 7c.006.72.269 1.453.781 2.031C4.294 9.61 5.091 10 6 10h7V3a3 3 0 0 0-3-3H4zm2 6h5v2H6c-.398 0-.567-.11-.719-.281A1.144 1.144 0 0 1 5 7c-.002-.28.105-.554.25-.719C5.395 6.116 5.578 6 6 6z" style="line-height:normal;-inkscape-font-specification:Sans;text-indent:0;text-align:start;text-decoration-line:none;text-transform:none;block-progression:tb;marker:none" color="#000" font-weight="400" font-family="Sans" overflow="visible" fill="#5d656b"/></svg>