<svg xmlns="http://www.w3.org/2000/svg" width="16" height="16" enable-background="new"><defs><filter id="a" color-interpolation-filters="sRGB"><feBlend mode="darken" in2="BackgroundImage"/></filter></defs><path style="marker:none" d="M12.5 9a3.5 3.5 0 1 0 0 7 3.5 3.5 0 0 0 0-7zm0 3H15v1h-5v-1z" class="error" color="#5d656b" overflow="visible" fill="#e13f2b" enable-background="accumulate"/><path style="marker:none" color="#000" overflow="visible" fill="#5d656b" enable-background="new" d="M3 3h10v2H3zM3 7v2h6.687A4.5 4.5 0 0 1 12.5 8c.171 0 .333.044.5.062V7H3zM3 11v2h5.062c-.019-.167-.062-.328-.062-.5 0-.53.112-1.027.28-1.5H3z"/></svg>