<svg xmlns="http://www.w3.org/2000/svg" width="16" height="16" enable-background="new"><defs><filter id="a" color-interpolation-filters="sRGB"><feBlend mode="darken" in2="BackgroundImage"/></filter></defs><path style="line-height:normal;-inkscape-font-specification:Sans;text-indent:0;text-align:start;text-decoration-line:none;text-transform:none;block-progression:tb;marker:none" d="M4 2v2h7c1.68 0 3 1.32 3 3s-1.32 3-3 3h-1V8l-5 3 5 3v-2h1c2.75.1 5-2.247 5-5s-2.247-5-5-5H4zM2 9a2 2 0 0 0-2 2 2 2 0 0 0 2 2 2 2 0 0 0 2-2 2 2 0 0 0-2-2z" color="#5d656b" font-weight="400" font-family="Sans" overflow="visible" fill="#5d656b" enable-background="accumulate"/></svg>