<svg width="16.002" height="16" version="1.1" xmlns="http://www.w3.org/2000/svg">
 <g color="#5d656b" fill="#5d656b">
  <path d="m0 2.052v1h1v-1zm2 0v1h1v-1zm2 0v1h1v-1zm2 0v1h1v-1zm2 0v1h1v-1zm2 0v1h1v-1zm2 0v1h1v-1zm-12 2v1h1v-1zm0 2v1h1v-1zm0 2v1h1v-1zm0 2v0.5c0 0.177 0.036 0.343 0.092 0.5h0.908v-1z" overflow="visible" style="isolation:auto;mix-blend-mode:normal"/>
 </g>
 <path d="m4 4c-1.108 0-2 0.892-2 2v6c0 1.108 0.892 2 2 2h10c1.108 0 2-0.892 2-2v-6c0-1.108-0.892-2-2-2h-10zm0 1h10c0.554 0 1 0.446 1 1v0.38281l-6 3.4629-6-3.4629v-0.38281c0-0.554 0.446-1 1-1zm-1 2.5371 2.5352 1.4629-2.5352 1.4629v-2.9258zm12 0v2.9258l-2.5352-1.4629 2.5352-1.4629zm-8.4648 2.0391 2.4648 1.4238 2.4648-1.4238 3.5352 2.041v0.38281c0 0.554-0.446 1-1 1h-10c-0.554 0-1-0.446-1-1v-0.38281l3.5352-2.041z" fill="#5d656b" fill-rule="evenodd" stroke-linejoin="round" stroke-width="2" style="paint-order:stroke fill markers"/>
</svg>
