<?xml version="1.0" encoding="UTF-8" standalone="no"?>
<svg
   xmlns:osb="http://www.openswatchbook.org/uri/2009/osb"
   xmlns:dc="http://purl.org/dc/elements/1.1/"
   xmlns:cc="http://creativecommons.org/ns#"
   xmlns:rdf="http://www.w3.org/1999/02/22-rdf-syntax-ns#"
   xmlns:svg="http://www.w3.org/2000/svg"
   xmlns="http://www.w3.org/2000/svg"
   height="16"
   id="svg7384"
   style="enable-background:new"
   version="1.1"
   width="16">
  <metadata
     id="metadata90">
    <rdf:RDF>
      <cc:Work
         rdf:about="">
        <dc:format>image/svg+xml</dc:format>
        <dc:type
           rdf:resource="http://purl.org/dc/dcmitype/StillImage" />
        <dc:title>Moka Symbolic Icon Theme</dc:title>
      </cc:Work>
    </rdf:RDF>
  </metadata>
  <title
     id="title8473">Moka Symbolic Icon Theme</title>
  <defs
     id="defs7386">
    <linearGradient
       id="linearGradient5606"
       osb:paint="solid">
      <stop
         id="stop5608"
         offset="0"
         style="stop-color:#000000;stop-opacity:1;" />
    </linearGradient>
    <filter
       id="filter7554"
       style="color-interpolation-filters:sRGB">
      <feBlend
         id="feBlend7556"
         in2="BackgroundImage"
         mode="darken" />
    </filter>
  </defs>
  <g
     id="layer9"
     style="display:inline"
     transform="translate(-281.00021,-149)" />
  <g
     id="layer10"
     style="display:inline;filter:url(#filter7554)"
     transform="translate(-281.00021,-149)" />
  <g
     id="layer1"
     style="display:inline"
     transform="translate(-40.000014,-766)" />
  <g
     id="layer14"
     style="display:inline"
     transform="translate(-281.00021,-149)" />
  <g
     id="layer15"
     style="display:inline"
     transform="translate(-281.00021,-149)" />
  <g
     id="g71291"
     style="display:inline"
     transform="translate(-281.00021,-149)" />
  <g
     id="layer2"
     style="display:inline"
     transform="translate(-40.000014,-616)" />
  <g
     id="g6058"
     style="display:inline"
     transform="translate(-40.000014,-616)" />
  <g
     id="layer12"
     style="display:inline"
     transform="translate(-281.00021,-149)">
    <path
       d="m 286.21895,150 -0.3125,0.28125 -3.625,3.625 -0.28125,0.3125 0,0.40625 0,4.75 0,0.40625 0.28125,0.3125 3.625,3.625 0.3125,0.28125 0.40625,0 4.75,0 0.40625,0 0.3125,-0.28125 3.625,-3.625 0.28125,-0.3125 0,-0.40625 0,-4.75 0,-0.40625 -0.28125,-0.3125 -3.625,-3.625 -0.3125,-0.28125 -0.40625,0 -4.75,0 -0.40625,0 z m 0.40625,1 4.75,0 3.625,3.625 0,4.75 -3.625,3.625 -4.75,0 -3.625,-3.625 0,-4.75 3.625,-3.625 z m 1.375,2 c 0,3.34879 0.003,4.31525 0,5 l 2,0 c -0.005,-2 -0.009,-3.00002 0,-5 l -2,0 z m 0,6 0,2 2,0 0,-2 -2,0 z"
       id="path3791"
       style="color:#000000;font-style:normal;font-variant:normal;font-weight:normal;font-stretch:normal;font-size:medium;line-height:normal;font-family:Sans;-inkscape-font-specification:Sans;text-indent:0;text-align:start;text-decoration:none;text-decoration-line:none;letter-spacing:normal;word-spacing:normal;text-transform:none;direction:ltr;block-progression:tb;writing-mode:lr-tb;baseline-shift:baseline;text-anchor:start;display:inline;overflow:visible;visibility:visible;fill:#bebebe;fill-opacity:1;stroke:none;stroke-width:1;marker:none;enable-background:accumulate" />
  </g>
</svg>
