<svg width="16" height="16.009" version="1.1" xmlns="http://www.w3.org/2000/svg">
 <path d="m2.7316 2.4694c0.43402-0.43402 1.1321-0.43403 1.5661 0l1.3383 1.3383-2.8284 2.8284-1.3383-1.3383c-0.43403-0.43403-0.43402-1.1321 0-1.5661zm0.78306 0.63115-1.4142 1.4142 0.70711 0.70711 1.4142-1.4142zm2.8284 1.4142 5.5809 5.5809c0.02432 0.02433 0.04616 0.05004 0.06767 0.07596l0.0083-1e-6v2.8284l-0.99989 1e-6 -1.8285-1e-6v-0.0083c-0.02589-0.0215-0.051635-0.04335-0.075959-0.06767l-5.5809-5.5809 2.1213-2.1213zm0 1.4142-1.4142 1.4142 4.657 4.657h1.4142v-1.4142z" color="#000000" fill="#5d656b" fill-rule="evenodd" stroke-linecap="round" stroke-linejoin="round" stroke-width="2"/>
 <path d="m12 1c1.108 0 2 0.892 2 2v10c0 1.108-0.892 2-2 2h-8c-1.108 0-2-0.892-2-2v-5.7559l1 1v4.7559c0 0.554 0.446 1 1 1h8c0.554 0 1-0.446 1-1v-10c0-0.554-0.446-1-1-1h-6.7559l-1-1z" fill="#5d656b" fill-rule="evenodd" stop-color="#000000"/>
</svg>
