<?xml version="1.0" encoding="UTF-8" standalone="no"?>
<svg
   xmlns:osb="http://www.openswatchbook.org/uri/2009/osb"
   xmlns:dc="http://purl.org/dc/elements/1.1/"
   xmlns:cc="http://creativecommons.org/ns#"
   xmlns:rdf="http://www.w3.org/1999/02/22-rdf-syntax-ns#"
   xmlns:svg="http://www.w3.org/2000/svg"
   xmlns="http://www.w3.org/2000/svg"
   xmlns:sodipodi="http://sodipodi.sourceforge.net/DTD/sodipodi-0.dtd"
   xmlns:inkscape="http://www.inkscape.org/namespaces/inkscape"
   width="16.000013"
   version="1.1"
   style="enable-background:new"
   id="svg7384"
   height="16"
   sodipodi:docname="mail-mark-important-symbolic.svg"
   inkscape:version="0.92.4 (5da689c313, 2019-01-14)">
  <sodipodi:namedview
     pagecolor="#ffffff"
     bordercolor="#666666"
     borderopacity="1"
     objecttolerance="10"
     gridtolerance="10"
     guidetolerance="10"
     inkscape:pageopacity="0"
     inkscape:pageshadow="2"
     inkscape:window-width="1366"
     inkscape:window-height="711"
     id="namedview21"
     showgrid="true"
     inkscape:zoom="20.85965"
     inkscape:cx="13.016321"
     inkscape:cy="4.5295059"
     inkscape:window-x="0"
     inkscape:window-y="27"
     inkscape:window-maximized="1"
     inkscape:current-layer="svg7384">
    <inkscape:grid
       type="xygrid"
       id="grid843" />
  </sodipodi:namedview>
  <metadata
     id="metadata90">
    <rdf:RDF>
      <cc:Work
         rdf:about="">
        <dc:format>image/svg+xml</dc:format>
        <dc:type
           rdf:resource="http://purl.org/dc/dcmitype/StillImage" />
        <dc:title>Moka Symbolic Icon Theme</dc:title>
      </cc:Work>
    </rdf:RDF>
  </metadata>
  <title
     id="title8473">Moka Symbolic Icon Theme</title>
  <defs
     id="defs7386">
    <linearGradient
       osb:paint="solid"
       id="linearGradient5606">
      <stop
         style="stop-color:#000000;stop-opacity:1;"
         offset="0"
         id="stop5608" />
    </linearGradient>
    <filter
       style="color-interpolation-filters:sRGB"
       id="filter7554">
      <feBlend
         mode="darken"
         in2="BackgroundImage"
         id="feBlend7556" />
    </filter>
  </defs>
  <g
     style="color:#000000"
     transform="translate(-912.002,-523.948)"
     id="g4">
    <path
       style="overflow:visible;isolation:auto;mix-blend-mode:normal;fill:#666666;marker:none"
       d="m 2.4980469,3.0527344 c -0.831,0 -1.50000002,0.669 -1.50000002,1.5 v 6.9999996 c 0,0.831 0.66900002,1.5 1.50000002,1.5 H 7 v -1 H 2.4980469 c -0.2763717,5.54e-4 -0.5005544,-0.223628 -0.5,-0.5 V 4.5664062 L 7,8.4160156 V 7.4003906 C 7,7.316205 7.0197811,7.2520998 7.0292969,7.1777344 l -4.0566407,-3.125 H 13.021484 L 10.494141,6 h 1.640625 L 13.998047,4.5644531 V 6 h 1 V 4.5527344 c 0,-0.831 -0.669,-1.5 -1.5,-1.5 z"
       transform="translate(912.002,523.948)"
       id="path2"
       inkscape:connector-curvature="0"
       sodipodi:nodetypes="ssssccccccsccccccccsss" />
  </g>
  <g
     transform="translate(-361.0002,-103.99664)"
     style="display:inline"
     id="layer9" />
  <g
     transform="translate(-361.0002,-103.99664)"
     style="display:inline;filter:url(#filter7554)"
     id="layer10" />
  <g
     transform="translate(-120,-720.99664)"
     style="display:inline"
     id="layer1" />
  <g
     transform="translate(-361.0002,-103.99664)"
     style="display:inline"
     id="layer14" />
  <g
     transform="translate(-361.0002,-103.99664)"
     style="display:inline"
     id="layer15" />
  <g
     transform="translate(-361.0002,-103.99664)"
     style="display:inline"
     id="g71291" />
  <g
     transform="translate(-120,-570.99664)"
     style="display:inline"
     id="layer2" />
  <g
     transform="translate(-120,-570.99664)"
     style="display:inline"
     id="g6058" />
  <path
     inkscape:connector-curvature="0"
     class="warning"
     d="m 9,15.00688 c -1,0 -1,-1 -1,-1 v -6 c 0,-1 1,-1 1,-1 h 6 c 0,0 1,0 1,1 v 6 c 0,0 0,1 -1,1 z m 2,-1 h 2 v -4 h -2 z m 0,-5 h 2 v -1 h -2 z"
     id="path6872-9"
     style="color:#bebebe;display:inline;overflow:visible;visibility:visible;fill:#f57900;fill-opacity:1;fill-rule:nonzero;stroke:none;stroke-width:2;marker:none" />
</svg>
