<svg width="16" height="16" version="1.1" xmlns="http://www.w3.org/2000/svg">
 <path d="m13.268 2.4694c-0.43402-0.43402-1.1321-0.43403-1.5661 0l-1.3383 1.3383 2.8284 2.8284 1.3383-1.3383c0.43403-0.43403 0.43402-1.1321 0-1.5661zm-0.78306 0.63115 1.4142 1.4142-0.70711 0.70711-1.4142-1.4142zm-2.8284 1.4142-5.5809 5.5809c-0.02432 0.02433-0.046155 0.05004-0.067673 0.07596l-0.00829-1e-6 -1e-7 1.8285 1e-7 0.99989 0.99989 1e-6 1.8285-1e-6v-0.0083c0.025887-0.0215 0.051635-0.04335 0.075959-0.06767l5.5809-5.5809-2.1213-2.1213zm0 1.4142 1.4142 1.4142-4.657 4.657h-1.4142v-1.4142z" color="#000000" fill="#5d656b" fill-rule="evenodd" stroke-linecap="round" stroke-linejoin="round" stroke-width="2"/>
 <path d="m4 1c-1.108 0-2 0.892-2 2v10c0 1.108 0.892 2 2 2h8c1.108 0 2-0.892 2-2v-5.7559l-1 1v4.7559c0 0.554-0.446 1-1 1h-8c-0.554 0-1-0.446-1-1v-10c0-0.554 0.446-1 1-1h6.7559l1-1h-7.7559z" fill="#5d656b" fill-rule="evenodd" stop-color="#000000"/>
</svg>
