<svg width="16" height="16.045" version="1.1" xmlns="http://www.w3.org/2000/svg">
 <path class="ColorScheme-Text" d="m2 2c-1.108 0-2 0.892-2 2v8c0 1.108 0.892 2 2 2h6.7637a4.5 4.5 0 0 1-0.49609-1h-6.2676c-0.48888 0-0.87448-0.35406-0.96289-0.81641l4.4609-3.5508 1.1699 0.93164c0.43444 0.34596 1.0359 0.48525 1.6055 0.41992a4.5 4.5 0 0 1 1.1582-1.7637l-0.89258 0.71094c-0.30559 0.24335-0.77257 0.24335-1.0781 0l-6.4238-5.1152c0.088406-0.46235 0.47401-0.81641 0.96289-0.81641h12c0.48888 0 0.87448 0.35406 0.96289 0.81641l-4.8945 3.8965a4.5 4.5 0 0 1 2.4316-0.71289 4.5 4.5 0 0 1 0.048828 0.0019531l2.4512-1.9531v2.709a4.5 4.5 0 0 1 1 0.91406v-4.6719c0-1.108-0.892-2-2-2h-12zm-1 3.0488 3.7051 2.9512-3.7051 2.9512v-5.9023z" fill="#5d656b"/>
 <path d="m12.5 8a3.5 3.5 0 0 0-3.5 3.5 3.5 3.5 0 0 0 3.5 3.5 3.5 3.5 0 0 0 3.5-3.5 3.5 3.5 0 0 0-3.5-3.5zm-0.5 1h1v2h2v1h-2v2h-1v-2h-2v-1h2v-2z" fill="#5d656b" fill-rule="evenodd" style="paint-order:stroke fill markers"/>
</svg>
