<svg xmlns="http://www.w3.org/2000/svg" width="16" height="16.009"><g color="#000" font-weight="400" font-family="Sans" fill="#5d656b"><path d="M11.594 6.009a.502.502 0 1 1-.094 1h-6a.5.5 0 1 1 0-1h6a.5.5 0 0 1 .094 0zM11.594 8.009a.502.502 0 1 1-.094 1h-5a.5.5 0 1 1 0-1h5a.5.5 0 0 1 .094 0zM11.594 10.009a.502.502 0 1 1-.094 1h-6a.5.5 0 1 1 0-1h6a.5.5 0 0 1 .094 0zM11.594 12.009a.502.502 0 1 1-.094 1h-3a.5.5 0 1 1 0-1h3a.5.5 0 0 1 .094 0z" style="line-height:normal;-inkscape-font-specification:Sans;text-indent:0;text-align:start;text-decoration-line:none;text-transform:none;block-progression:tb;marker:none" overflow="visible"/><path d="M13 1.009c1.09 0 2 .91 2 2v11c0 1.09-.91 2-2 2H4c-1.09 0-2-.91-2-2v-11c0-1.09.91-2 2-2v13h9v-13z" style="line-height:normal;-inkscape-font-specification:Sans;text-indent:0;text-align:start;text-decoration-line:none;text-transform:none;block-progression:tb;marker:none" overflow="visible" stroke-width="2"/><path d="M11.594.009a.5.5 0 0 1 .406.5v3a.5.5 0 1 1-1 0v-3a.5.5 0 0 1 .594-.5zM9.594.009a.5.5 0 0 1 .406.5v3a.5.5 0 1 1-1 0v-3a.5.5 0 0 1 .594-.5zM7.594.009a.5.5 0 0 1 .406.5v3a.5.5 0 1 1-1 0v-3a.5.5 0 0 1 .594-.5zM5.594.009a.5.5 0 0 1 .406.5v3a.5.5 0 1 1-1 0v-3a.5.5 0 0 1 .594-.5z" style="line-height:normal;-inkscape-font-specification:Sans;text-indent:0;text-align:start;text-decoration-line:none;text-transform:none;block-progression:tb;marker:none" overflow="visible"/></g></svg>