<?xml version="1.0" encoding="UTF-8" standalone="no"?>
<svg
   xmlns:osb="http://www.openswatchbook.org/uri/2009/osb"
   xmlns:dc="http://purl.org/dc/elements/1.1/"
   xmlns:cc="http://creativecommons.org/ns#"
   xmlns:rdf="http://www.w3.org/1999/02/22-rdf-syntax-ns#"
   xmlns:svg="http://www.w3.org/2000/svg"
   xmlns="http://www.w3.org/2000/svg"
   height="16"
   id="svg7384"
   style="enable-background:new"
   version="1.1"
   width="16">
  <metadata
     id="metadata90">
    <rdf:RDF>
      <cc:Work
         rdf:about="">
        <dc:format>image/svg+xml</dc:format>
        <dc:type
           rdf:resource="http://purl.org/dc/dcmitype/StillImage" />
        <dc:title>Moka Symbolic Icon Theme</dc:title>
      </cc:Work>
    </rdf:RDF>
  </metadata>
  <title
     id="title8473">Moka Symbolic Icon Theme</title>
  <defs
     id="defs7386">
    <linearGradient
       id="linearGradient5606"
       osb:paint="solid">
      <stop
         id="stop5608"
         offset="0"
         style="stop-color:#000000;stop-opacity:1;" />
    </linearGradient>
    <filter
       id="filter7554"
       style="color-interpolation-filters:sRGB">
      <feBlend
         id="feBlend7556"
         in2="BackgroundImage"
         mode="darken" />
    </filter>
  </defs>
  <g
     id="layer9"
     style="display:inline"
     transform="translate(-302.0002,-150)" />
  <g
     id="layer10"
     style="display:inline;filter:url(#filter7554)"
     transform="translate(-302.0002,-150)" />
  <g
     id="layer1"
     style="display:inline"
     transform="translate(-61,-767)" />
  <g
     id="layer14"
     style="display:inline"
     transform="translate(-302.0002,-150)" />
  <g
     id="layer15"
     style="display:inline"
     transform="translate(-302.0002,-150)" />
  <g
     id="g71291"
     style="display:inline"
     transform="translate(-302.0002,-150)" />
  <g
     id="layer2"
     style="display:inline"
     transform="translate(-61,-617)" />
  <g
     id="g6058"
     style="display:inline"
     transform="translate(-61,-617)" />
  <g
     id="layer12"
     style="display:inline"
     transform="translate(-302.0002,-150)">
    <g
       id="g6251"
       transform="translate(59,323)">
      <g
         id="g6253"
         style="display:inline"
         transform="translate(15.000398,-1169)">
        <g
           id="g6255" />
      </g>
    </g>
    <rect
       height="15"
       id="rect6315"
       ry="0"
       style="color:#000000;display:inline;overflow:visible;visibility:visible;fill:#bebebe;fill-opacity:1;fill-rule:nonzero;stroke:none;stroke-width:2;marker:none;enable-background:accumulate"
       width="1.0000136"
       x="305.00021"
       y="151" />
    <path
       d="M 314.65645,150.84375 C 311.83174,150.56445 311.0627,155.25 307.0002,152 l 0,8 c 5,4 5,-4 10,0 l 0,-8 c -0.9375,-0.75 -1.69189,-1.0918 -2.34375,-1.15625 z m -0.46875,1.03125 c 0.39006,-0.0624 0.96097,0.0947 1.8125,0.6875 l 0,5.6875 c -0.7477,-0.31934 -1.47493,-0.47901 -2.125,-0.375 -1.10988,0.17758 -1.875,0.84375 -2.5,1.34375 -0.625,0.5 -1.10988,0.83383 -1.5625,0.90625 -0.39006,0.0624 -0.96097,-0.0947 -1.8125,-0.6875 l 0,-5.6875 c 0.7477,0.31934 1.47493,0.47901 2.125,0.375 1.10988,-0.17758 1.875,-0.84375 2.5,-1.34375 0.625,-0.5 1.10988,-0.83383 1.5625,-0.90625 z"
       id="rect6317"
       style="color:#000000;display:inline;overflow:visible;visibility:visible;fill:#bebebe;fill-opacity:1;fill-rule:nonzero;stroke:none;stroke-width:2;marker:none;enable-background:accumulate" />
  </g>
</svg>
