<?xml version="1.0" encoding="UTF-8" standalone="no"?>
<svg
   xmlns:osb="http://www.openswatchbook.org/uri/2009/osb"
   xmlns:dc="http://purl.org/dc/elements/1.1/"
   xmlns:cc="http://creativecommons.org/ns#"
   xmlns:rdf="http://www.w3.org/1999/02/22-rdf-syntax-ns#"
   xmlns:svg="http://www.w3.org/2000/svg"
   xmlns="http://www.w3.org/2000/svg"
   width="16"
   version="1.1"
   style="enable-background:new"
   id="svg7384"
   height="16.000019">
  <metadata
     id="metadata90">
    <rdf:RDF>
      <cc:Work
         rdf:about="">
        <dc:format>image/svg+xml</dc:format>
        <dc:type
           rdf:resource="http://purl.org/dc/dcmitype/StillImage" />
        <dc:title>Moka Symbolic Icon Theme</dc:title>
      </cc:Work>
    </rdf:RDF>
  </metadata>
  <title
     id="title8473">Moka Symbolic Icon Theme</title>
  <defs
     id="defs7386">
    <linearGradient
       osb:paint="solid"
       id="linearGradient5606">
      <stop
         style="stop-color:#000000;stop-opacity:1;"
         offset="0"
         id="stop5608" />
    </linearGradient>
    <filter
       style="color-interpolation-filters:sRGB"
       id="filter7554">
      <feBlend
         mode="darken"
         in2="BackgroundImage"
         id="feBlend7556" />
    </filter>
  </defs>
  <g
     transform="translate(-381.00035,-23.996643)"
     style="display:inline"
     id="layer9" />
  <g
     transform="translate(-381.00035,-23.996643)"
     style="display:inline;filter:url(#filter7554)"
     id="layer10" />
  <g
     transform="translate(-140.00015,-640.99664)"
     style="display:inline"
     id="layer1" />
  <g
     transform="translate(-381.00035,-23.996643)"
     style="display:inline"
     id="layer14" />
  <g
     transform="translate(-381.00035,-23.996643)"
     style="display:inline"
     id="layer15" />
  <g
     transform="translate(-381.00035,-23.996643)"
     style="display:inline"
     id="g71291" />
  <g
     transform="translate(-140.00015,-490.99664)"
     style="display:inline"
     id="layer2" />
  <g
     transform="translate(-140.00015,-490.99664)"
     style="display:inline"
     id="g6058" />
  <g
     transform="translate(-381.00035,-23.996643)"
     style="display:inline"
     id="layer12">
    <path
       style="color:#000000;display:inline;overflow:visible;visibility:visible;fill:#bebebe;fill-opacity:1;fill-rule:nonzero;stroke:none;stroke-width:2;marker:none;enable-background:new"
       id="path5874"
       d="m 389.0002,23.99664 c -2.76142,0 -5,2.23858 -5,5 0,0.17259 0.0142,0.33191 0.0312,0.5 0.0137,0.16725 0.0358,0.33617 0.0625,0.5 0.57248,3.51444 3.99064,6.25316 4.90625,9 0.91561,-2.74684 4.33377,-5.48556 4.90625,-9 0.0267,-0.16383 0.0488,-0.33275 0.0625,-0.5 0.0171,-0.16809 0.0312,-0.32741 0.0312,-0.5 0,-2.76142 -2.23858,-5 -5,-5 z m 0,3 c 1.10457,0 2,0.89543 2,2 0,1.10457 -0.89543,2 -2,2 -1.10457,0 -2,-0.89543 -2,-2 0,-1.10457 0.89543,-2 2,-2 z" />
  </g>
</svg>
