<svg width="16px" height="16px" version="1.1" xmlns="http://www.w3.org/2000/svg">
 <path d="m8 1v2h-2.8789l1 1h1.8789v1.8789l1 1v-2.8789h5v-1h-5v-2h-1zm-4.0879 2.2051c-1.1204 0.43422-1.9121 1.5175-1.9121 2.7949 0 1.662 1.338 3 3 3h3v4h-5v1h5v2h1v-2h3c0.75607 0 1.4422-0.27995 1.9688-0.73828l-0.70703-0.70703c-0.34373 0.27908-0.78245 0.44531-1.2617 0.44531h-3v-4h0.70703l-1.707-1.707v0.70703h-3c-1.108 0-2-0.892-2-2 0-1.015 0.74909-1.8477 1.7266-1.9805l-0.81445-0.81445zm6.209 4.7949 1 1h0.87891c1.108 0 2 0.892 2 2 0 0.26143-0.050184 0.50978-0.14062 0.73828l0.74609 0.74609c0.24916-0.43774 0.39453-0.94269 0.39453-1.4844 0-1.662-1.338-3-3-3h-1.8789z" fill="#5d656b"/>
 <rect transform="rotate(45)" x="1.3137" y="-.5" width="20" height="1" ry="0" fill="#5d656b"/>
</svg>
