<svg width="16px" height="16px" version="1.1" viewBox="0 0 16 16" xmlns="http://www.w3.org/2000/svg">
 <path d="m11.5 1a3.5 3.5 0 0 0-3.5 3.5 3.5 3.5 0 0 0 3.5 3.5 3.5 3.5 0 0 0 3.5-3.5 3.5 3.5 0 0 0-3.5-3.5zm0 1a2.5 2.5 0 0 1 2.5 2.5 2.5 2.5 0 0 1-2.5 2.5 2.5 2.5 0 0 1-2.5-2.5 2.5 2.5 0 0 1 2.5-2.5zm-7 6a3.5 3.5 0 0 0-3.5 3.5 3.5 3.5 0 0 0 3.5 3.5 3.5 3.5 0 0 0 3.4648-3h6.5352c0.277 0 0.5-0.223 0.5-0.5s-0.223-0.5-0.5-0.5h-6.5352a3.5 3.5 0 0 0-3.4648-3zm0 1a2.5 2.5 0 0 1 2.5 2.5 2.5 2.5 0 0 1-2.5 2.5 2.5 2.5 0 0 1-2.5-2.5 2.5 2.5 0 0 1 2.5-2.5z" fill="#5d656b"/>
 <path d="m1.5 4c-0.277 0-0.5 0.223-0.5 0.5s0.223 0.5 0.5 0.5h5.5352a4.5 4.5 0 0 1-0.035156-0.5 4.5 4.5 0 0 1 0.035156-0.5h-5.5352z" fill="#5d656b" opacity=".45"/>
</svg>
