<svg width="16px" height="16px" version="1.1" xmlns="http://www.w3.org/2000/svg">
 <path d="m2.1328 0.011719 1 1h7.8359v4c1.3828-1e-7 2.5 1.5664 2.5 3.5 0 0.85743-0.22082 1.6415-0.58594 2.25l0.72266 0.72266c0.55592-0.81717 0.86328-1.8511 0.86328-2.9727 0-1.1594-0.32588-2.2273-0.91797-3.0566-0.39077-0.54734-0.95664-0.91876-1.582-1.1641v-4.2793h-9.8359zm-0.16406 1.25v14.738h2.0312 2.9688 1.0312 3.9688v-3.2676c0.34057-0.13358 0.66262-0.30506 0.94922-0.52148l-0.68359-0.68359c-0.37132 0.30583-0.80293 0.48438-1.2656 0.48438v2.9883h-2.9688v-2.2676c0.62539-0.2453 1.1913-0.61672 1.582-1.1641 0.38707-0.54215 0.65792-1.1876 0.80078-1.8926l-0.89258-0.89258c-0.099201 1.806-1.1731 3.2285-2.4902 3.2285v2.9883h-0.03125-2.9688-1.0312v-12.738l-1-1zm5.0312 2.7383v0.87891l0.14258 0.14258c0.98733 0.077968 1.8197 0.952 2.1738 2.1738l1.1777 1.1777c-0.025144-1.1053-0.34391-2.1221-0.91211-2.918-0.39077-0.54734-0.95664-0.91876-1.582-1.1641v-0.29102h-1z" color="#000000" fill="#5d656b"/>
 <rect transform="rotate(45)" x="1.3137" y="-.5" width="20" height="1" ry="0" fill="#5d656b"/>
</svg>
