<svg xmlns="http://www.w3.org/2000/svg" width="16" height="16" enable-background="new"><defs><filter id="a" color-interpolation-filters="sRGB"><feBlend mode="darken" in2="BackgroundImage"/></filter></defs><path style="marker:none" d="M8 1a7 7 0 0 0 0 14c2.766 0 5.145-1.608 6.281-3.938l-1.875-.78C11.572 11.88 9.93 13 8 13A5 5 0 0 1 8 3c1.639 0 3.066.808 3.969 2.031L10 7h5V2l-1.594 1.594C12.125 2.02 10.19 1 8 1zm0 5.5a1.5 1.5 0 1 0 0 3 1.5 1.5 0 0 0 0-3z" color="#5d656b" overflow="visible" fill="#5d656b" enable-background="accumulate"/></svg>