<svg width="16" height="16" enable-background="new" version="1.1" xmlns="http://www.w3.org/2000/svg">
 <path d="m8 0a8 8 0 0 0-8 8 8 8 0 0 0 8 8 8 8 0 0 0 8-8 8 8 0 0 0-8-8zm0 1a7 7 0 0 1 7 7 7 7 0 0 1-7 7 7 7 0 0 1-7-7 7 7 0 0 1 7-7z" fill="#5d656b" fill-rule="evenodd" stop-color="#000000" style="paint-order:stroke fill markers"/>
 <path d="m11.182 4.1109-3.182 3.182-3.182-3.182-0.70711 0.70711 3.182 3.182-3.182 3.182 0.70711 0.70711 3.182-3.182 3.182 3.182 0.70711-0.70711-3.182-3.182 3.182-3.182z" fill="#5d656b" fill-rule="evenodd" stop-color="#000000" style="paint-order:stroke fill markers"/>
</svg>
