<?xml version="1.0" encoding="UTF-8" standalone="no"?>
<svg
   xmlns:osb="http://www.openswatchbook.org/uri/2009/osb"
   xmlns:dc="http://purl.org/dc/elements/1.1/"
   xmlns:cc="http://creativecommons.org/ns#"
   xmlns:rdf="http://www.w3.org/1999/02/22-rdf-syntax-ns#"
   xmlns:svg="http://www.w3.org/2000/svg"
   xmlns="http://www.w3.org/2000/svg"
   width="16"
   version="1.1"
   style="enable-background:new"
   id="svg7384"
   height="16">
  <metadata
     id="metadata90">
    <rdf:RDF>
      <cc:Work
         rdf:about="">
        <dc:format>image/svg+xml</dc:format>
        <dc:type
           rdf:resource="http://purl.org/dc/dcmitype/StillImage" />
        <dc:title>Moka Symbolic Icon Theme</dc:title>
      </cc:Work>
    </rdf:RDF>
  </metadata>
  <title
     id="title8473">Moka Symbolic Icon Theme</title>
  <defs
     id="defs7386">
    <linearGradient
       osb:paint="solid"
       id="linearGradient5606">
      <stop
         style="stop-color:#000000;stop-opacity:1;"
         offset="0"
         id="stop5608" />
    </linearGradient>
    <filter
       style="color-interpolation-filters:sRGB"
       id="filter7554">
      <feBlend
         mode="darken"
         in2="BackgroundImage"
         id="feBlend7556" />
    </filter>
  </defs>
  <g
     transform="translate(-441.0002,35)"
     style="display:inline"
     id="layer9" />
  <g
     transform="translate(-441.0002,35)"
     style="display:inline;filter:url(#filter7554)"
     id="layer10" />
  <g
     transform="translate(-200,-582)"
     style="display:inline"
     id="layer1" />
  <g
     transform="translate(-441.0002,35)"
     style="display:inline"
     id="layer14" />
  <g
     transform="translate(-441.0002,35)"
     style="display:inline"
     id="layer15" />
  <g
     transform="translate(-441.0002,35)"
     style="display:inline"
     id="g71291" />
  <g
     transform="translate(-200,-432)"
     style="display:inline"
     id="layer2" />
  <g
     transform="translate(-200,-432)"
     style="display:inline"
     id="g6058" />
  <g
     transform="translate(-441.0002,35)"
     style="display:inline"
     id="layer12">
    <path
       style="color:#bebebe;text-indent:0;text-transform:none;block-progression:tb;fill:#bebebe;fill-opacity:1;stroke:none;enable-background:new"
       id="path5027"
       d="m 449.03144,-33.93752 c -3.8533,0 -6.96875,3.11545 -6.96875,6.96875 0,3.8533 3.11545,6.96875 6.96875,6.96875 3.8533,0 6.96875,-3.11545 6.96875,-6.96875 0,-3.8533 -3.11545,-6.96875 -6.96875,-6.96875 z m -4.03125,2.9375 1,0 c 0.27614,0 0.53779,0.10028 0.71875,0.28125 l 2.28125,2.28125 2.28125,-2.28125 c 0.18096,-0.18097 0.44261,-0.28125 0.71875,-0.28125 l 1,0 0,1 c 0,0.27614 -0.10029,0.53778 -0.28125,0.71875 l -2.28125,2.28125 2.28125,2.28125 c 0.18096,0.18097 0.28125,0.44261 0.28125,0.71875 l 0,1 -1,0 c -0.27614,0 -0.53779,-0.10028 -0.71875,-0.28125 l -2.28125,-2.28125 -2.28125,2.28125 c -0.18096,0.18097 -0.44261,0.28125 -0.71875,0.28125 l -1,0 0,-1 c 0,-0.27614 0.10029,-0.53778 0.28125,-0.71875 l 2.28125,-2.28125 -2.28125,-2.28125 c -0.18096,-0.18097 -0.28125,-0.44261 -0.28125,-0.71875 l 0,-1 z" />
  </g>
</svg>
