<svg xmlns="http://www.w3.org/2000/svg" height="16" width="16"><path d="M.5.998c-.277 0-.5.223-.5.5v1c0 .277.223.5.5.5h7c.277 0 .5-.223.5-.5v-1c0-.277-.223-.5-.5-.5h-7zm0 8c-.277 0-.5.223-.5.5v1c0 .277.223.5.5.5h7c.277 0 .5-.223.5-.5v-1c0-.277-.223-.5-.5-.5h-7zm0 4c-.277 0-.5.223-.5.5v1c0 .277.223.5.5.5h7c.277 0 .5-.223.5-.5v-1c0-.277-.223-.5-.5-.5h-7z" style="marker:none" opacity=".5" fill="#555761"/><path d="M.5 4.998c-.277 0-.5.223-.5.5v1c0 .277.223.5.5.5h15c.277 0 .5-.223.5-.5v-1c0-.277-.223-.5-.5-.5H.5zM12 8.025a.522.522 0 0 0-.375.16l-2.5 3c-.231.29.006.802.375.813H11v3.5a.517.517 0 0 0 .406.5.489.489 0 0 0 .094 0h1a.52.52 0 0 0 .5-.5v-3.5h1.5c.277-.008.478-.3.465-.566a.418.418 0 0 0-.09-.246l-2.5-3a.522.522 0 0 0-.375-.16z" style="marker:none" fill="#555761"/></svg>