<svg xmlns="http://www.w3.org/2000/svg" height="16" width="16"><path d="M11.451-.002a.489.489 0 0 0-.045.002.517.517 0 0 0-.406.5V4H9.5c-.369.011-.606.524-.375.813l2.5 3a.522.522 0 0 0 .75 0l2.5-3a.418.418 0 0 0 .09-.247c.013-.267-.188-.558-.465-.566H13V.5a.52.52 0 0 0-.5-.5h-1a.489.489 0 0 0-.049-.002zM.5 9c-.277 0-.5.223-.5.5v1c0 .277.223.5.5.5h15c.277 0 .5-.223.5-.5v-1c0-.277-.223-.5-.5-.5H.5z" style="marker:none;font-variant-east_asian:normal" fill="#5d656b"/><path d="M.5 1c-.277 0-.5.223-.5.5v1c0 .277.223.5.5.5h7c.277 0 .5-.223.5-.5v-1c0-.277-.223-.5-.5-.5h-7zm0 4c-.277 0-.5.223-.5.5v1c0 .277.223.5.5.5h7c.277 0 .5-.223.5-.5v-1c0-.277-.223-.5-.5-.5h-7zm0 8c-.277 0-.5.223-.5.5v1c0 .277.223.5.5.5h7c.277 0 .5-.223.5-.5v-1c0-.277-.223-.5-.5-.5h-7z" style="marker:none;font-variant-east_asian:normal" opacity=".5" fill="#555761"/></svg>