<?xml version="1.0" encoding="UTF-8" standalone="no"?>
<svg
   xmlns:dc="http://purl.org/dc/elements/1.1/"
   xmlns:cc="http://creativecommons.org/ns#"
   xmlns:rdf="http://www.w3.org/1999/02/22-rdf-syntax-ns#"
   xmlns:svg="http://www.w3.org/2000/svg"
   xmlns="http://www.w3.org/2000/svg"
   xmlns:sodipodi="http://sodipodi.sourceforge.net/DTD/sodipodi-0.dtd"
   xmlns:inkscape="http://www.inkscape.org/namespaces/inkscape"
   width="16"
   height="16"
   version="1.1"
   id="svg4"
   sodipodi:docname="sidebar-tree-symbolic.svg"
   inkscape:version="0.92.4 (5da689c313, 2019-01-14)">
  <metadata
     id="metadata10">
    <rdf:RDF>
      <cc:Work
         rdf:about="">
        <dc:format>image/svg+xml</dc:format>
        <dc:type
           rdf:resource="http://purl.org/dc/dcmitype/StillImage" />
      </cc:Work>
    </rdf:RDF>
  </metadata>
  <defs
     id="defs8" />
  <sodipodi:namedview
     pagecolor="#ffffff"
     bordercolor="#666666"
     borderopacity="1"
     objecttolerance="10"
     gridtolerance="10"
     guidetolerance="10"
     inkscape:pageopacity="0"
     inkscape:pageshadow="2"
     inkscape:window-width="1049"
     inkscape:window-height="711"
     id="namedview6"
     showgrid="true"
     inkscape:zoom="10.429825"
     inkscape:cx="11.785018"
     inkscape:cy="-0.20400525"
     inkscape:window-x="317"
     inkscape:window-y="27"
     inkscape:window-maximized="0"
     inkscape:current-layer="svg4"
     inkscape:snap-bbox="true"
     inkscape:bbox-nodes="true"
     inkscape:snap-bbox-edge-midpoints="true">
    <inkscape:grid
       type="xygrid"
       id="grid817" />
  </sodipodi:namedview>
  <rect
     style="opacity:1;fill:#444444;fill-opacity:1;stroke:none;stroke-width:22.11083221;stroke-linecap:round;stroke-linejoin:round;stroke-miterlimit:4;stroke-dasharray:none;stroke-opacity:0.09803922;paint-order:stroke fill markers"
     id="rect819"
     width="1"
     height="9"
     x="4"
     y="4"
     rx="0"
     ry="0" />
  <rect
     style="opacity:1;fill:#444444;fill-opacity:1;stroke:none;stroke-width:20;stroke-linecap:round;stroke-linejoin:round;stroke-miterlimit:4;stroke-dasharray:none;stroke-opacity:0.09803922;paint-order:stroke fill markers"
     id="rect821"
     width="7"
     height="1"
     x="5"
     y="12"
     rx="0"
     ry="0" />
  <rect
     ry="0"
     rx="0"
     y="9"
     x="5"
     height="1"
     width="5"
     id="rect825"
     style="opacity:1;fill:#444444;fill-opacity:1;stroke:none;stroke-width:17.32050896;stroke-linecap:round;stroke-linejoin:round;stroke-miterlimit:4;stroke-dasharray:none;stroke-opacity:0.09803922;paint-order:stroke fill markers" />
  <rect
     style="opacity:1;fill:#444444;fill-opacity:1;stroke:none;stroke-width:20;stroke-linecap:round;stroke-linejoin:round;stroke-miterlimit:4;stroke-dasharray:none;stroke-opacity:0.09803922;paint-order:stroke fill markers"
     id="rect829"
     width="7.0000005"
     height="1"
     x="5"
     y="6"
     rx="0"
     ry="0" />
  <path
     style="fill:#444444;stroke-width:0.75"
     d="M 12.5,5 C 11.671573,5 11,5.671573 11,6.5 11,7.328428 11.671573,8 12.5,8 13.328428,8 14,7.328428 14,6.5 14,5.671573 13.328428,5 12.5,5 Z m 0,1 C 12.777,6 13,6.223 13,6.5 13,6.777 12.777,7 12.5,7 12.223,7 12,6.777 12,6.5 12,6.223 12.223,6 12.5,6 Z"
     id="path831"
     inkscape:connector-curvature="0" />
  <path
     id="path827"
     d="M 10.5,8 C 9.671573,8 9,8.671573 9,9.5 9,10.328428 9.671573,11 10.5,11 11.328428,11 12,10.328428 12,9.5 12,8.671573 11.328428,8 10.5,8 Z m 0,1 C 10.777,9 11,9.223 11,9.5 11,9.777 10.777,10 10.5,10 10.223,10 10,9.777 10,9.5 10,9.223 10.223,9 10.5,9 Z"
     style="fill:#444444;stroke-width:0.75"
     inkscape:connector-curvature="0" />
  <path
     inkscape:connector-curvature="0"
     style="fill:#444444;stroke-width:0.75"
     d="M 12.5,11 C 11.671573,11 11,11.671573 11,12.5 11,13.328428 11.671573,14 12.5,14 13.328428,14 14,13.328428 14,12.5 14,11.671573 13.328428,11 12.5,11 Z m 0,1 C 12.777,12 13,12.223 13,12.5 13,12.777 12.777,13 12.5,13 12.223,13 12,12.777 12,12.5 12,12.223 12.223,12 12.5,12 Z"
     id="path829" />
  <path
     id="path832"
     d="M 4.5,2 C 3.671573,2 3,2.671573 3,3.5 3,4.328428 3.671573,5 4.5,5 5.328428,5 6,4.328428 6,3.5 6,2.671573 5.328428,2 4.5,2 Z m 0,1 C 4.777,3 5,3.223 5,3.5 5,3.777 4.777,4 4.5,4 4.223,4 4,3.777 4,3.5 4,3.223 4.223,3 4.5,3 Z"
     style="fill:#444444;stroke-width:0.75"
     inkscape:connector-curvature="0" />
</svg>
