<svg height="16" width="16" xmlns="http://www.w3.org/2000/svg"><g fill="#5d656b"><path d="M12 10v2h-2v2h2v2h2v-2h2v-2h-2v-2z"/><path color="#5d656b" d="M8.014.62L6.028 6H.514l4.285 3.482-1.42 5.338 4.635-3.002.986.639V12a1 1 0 0 1 1-1h1v-1a1 1 0 0 1 .797-.979L15.514 6H10zm4.146 12.366A1 1 0 0 1 12 13a1 1 0 0 1 .168.014z" font-family="sans-serif" font-weight="400" overflow="visible" style="line-height:normal;-inkscape-font-specification:sans-serif;text-indent:0;text-align:start;text-decoration-line:none;text-transform:none;marker:none"/></g></svg>