<svg width="16px" height="16px" version="1.1" xmlns="http://www.w3.org/2000/svg">
 <path d="m4.1211 2 0.87891 0.87891v-0.87891h-0.87891zm4.8789 0v3h-1.8789l1 1h0.87891v0.87891l1 1v-1.8789h2v-1h-2v-3h-1zm4.5 0c-0.277 0-0.5 0.223-0.5 0.5v8.3789l0.9082 0.9082c0.057199-0.081314 0.091797-0.17971 0.091797-0.28711v-9c0-0.277-0.223-0.5-0.5-0.5zm-9.5 1.293v1.707h-2v1h2v4h-2v1h2v3h1v-3h4v3h1v-3h1.707l-1-1h-0.70703v-0.70703l-1-1v1.707h-4v-4h1.707l-1-1h-0.70703v-0.70703l-1-1zm9.5 9.707a0.5 0.5 0 0 0-0.5 0.5 0.5 0.5 0 0 0 0.5 0.5 0.5 0.5 0 0 0 0.5-0.5 0.5 0.5 0 0 0-0.14648-0.35352 0.5 0.5 0 0 0-0.35352-0.14648z" fill="#5d656b"/>
 <rect transform="rotate(45)" x="1.3137" y="-.5" width="20" height="1" ry="0" fill="#5d656b"/>
</svg>
