<svg width="16.003" height="16" version="1.1" xmlns="http://www.w3.org/2000/svg">
 <rect x="4.498" y="6.0001" width="7" height="1" ry=".5" fill="#5d656b" stroke-linecap="round" stroke-linejoin="round" stroke-width="1.0377" style="paint-order:stroke fill markers"/>
 <rect transform="rotate(45)" x="8.8727" y="-3.6809" width="4" height="1" ry=".5" fill="#5d656b" stroke-linecap="round" stroke-linejoin="round" stroke-width=".78446" style="paint-order:stroke fill markers"/>
 <rect transform="scale(-1)" x="-11.499" y="-10" width="7" height="1" ry=".5" fill="#5d656b" stroke-linecap="round" stroke-linejoin="round" stroke-width="1.0377" style="paint-order:stroke fill markers"/>
 <rect transform="rotate(225)" x="-13.753" y="-3.6834" width="4" height="1" ry=".5" fill="#5d656b" stroke-linecap="round" stroke-linejoin="round" stroke-width=".78446" style="paint-order:stroke fill markers"/>
 <path d="m8 1a7 7 0 0 1 7 7 7 7 0 0 1-7 7 7 7 0 0 1-7-7 7 7 0 0 1 7-7zm0 1a6 6 0 0 0-6 6 6 6 0 0 0 6 6 6 6 0 0 0 6-6 6 6 0 0 0-6-6z" fill="#5d656b"/>
</svg>
