<?xml version="1.0" encoding="UTF-8" standalone="no"?>
<svg
   xmlns:osb="http://www.openswatchbook.org/uri/2009/osb"
   xmlns:dc="http://purl.org/dc/elements/1.1/"
   xmlns:cc="http://creativecommons.org/ns#"
   xmlns:rdf="http://www.w3.org/1999/02/22-rdf-syntax-ns#"
   xmlns:svg="http://www.w3.org/2000/svg"
   xmlns="http://www.w3.org/2000/svg"
   width="16"
   version="1.1"
   style="enable-background:new"
   id="svg7384"
   height="16">
  <metadata
     id="metadata90">
    <rdf:RDF>
      <cc:Work
         rdf:about="">
        <dc:format>image/svg+xml</dc:format>
        <dc:type
           rdf:resource="http://purl.org/dc/dcmitype/StillImage" />
        <dc:title>Moka Symbolic Icon Theme</dc:title>
      </cc:Work>
    </rdf:RDF>
  </metadata>
  <title
     id="title8473">Moka Symbolic Icon Theme</title>
  <defs
     id="defs7386">
    <linearGradient
       osb:paint="solid"
       id="linearGradient5606">
      <stop
         style="stop-color:#000000;stop-opacity:1;"
         offset="0"
         id="stop5608" />
    </linearGradient>
    <filter
       style="color-interpolation-filters:sRGB"
       id="filter7554">
      <feBlend
         mode="darken"
         in2="BackgroundImage"
         id="feBlend7556" />
    </filter>
  </defs>
  <g
     transform="translate(-321.00021,-23.996641)"
     style="display:inline"
     id="layer9" />
  <g
     transform="translate(-321.00021,-23.996641)"
     style="display:inline;filter:url(#filter7554)"
     id="layer10" />
  <g
     transform="translate(-80.000014,-640.99664)"
     style="display:inline"
     id="layer1" />
  <g
     transform="translate(-321.00021,-23.996641)"
     style="display:inline"
     id="layer14" />
  <g
     transform="translate(-321.00021,-23.996641)"
     style="display:inline"
     id="layer15" />
  <g
     transform="translate(-321.00021,-23.996641)"
     style="display:inline"
     id="g71291" />
  <g
     transform="translate(-80.000014,-490.99664)"
     style="display:inline"
     id="layer2" />
  <g
     transform="translate(-80.000014,-490.99664)"
     style="display:inline"
     id="g6058" />
  <g
     transform="translate(-321.00021,-23.996641)"
     style="display:inline"
     id="layer12">
    <g
       transform="translate(61.0002,371.99664)"
       style="fill:#bebebe;fill-opacity:1;stroke:none"
       id="g3874">
      <rect
         y="-347"
         x="267"
         width="2"
         style="color:#bebebe;fill:#bebebe;fill-opacity:1;stroke:none"
         rx="0.5"
         id="rect5820"
         height="6" />
      <path
         transform="translate(257.00019,-351)"
         style="color:#000000;fill:#bebebe;fill-opacity:1;stroke:none"
         id="path3864-9"
         d="M 9,5.34375 C 6.668833,6.1669998 5,8.3870028 5,11 c 0,3.313708 2.6862915,6 6,6 3.313708,0 6,-2.686292 6,-6 0,-2.6129972 -1.668833,-4.8330002 -4,-5.65625 l 0,2.21875 c 1.193791,0.6920851 2,1.9582915 2,3.4375 0,2.209139 -1.790861,4 -4,4 C 8.790861,15 7,13.209139 7,11 7,9.5207915 7.8062088,8.2545851 9,7.5625 L 9,5.34375 Z" />
    </g>
  </g>
</svg>
