<?xml version="1.0" encoding="UTF-8" standalone="no"?>
<svg
   xmlns:dc="http://purl.org/dc/elements/1.1/"
   xmlns:cc="http://creativecommons.org/ns#"
   xmlns:rdf="http://www.w3.org/1999/02/22-rdf-syntax-ns#"
   xmlns:svg="http://www.w3.org/2000/svg"
   xmlns="http://www.w3.org/2000/svg"
   xmlns:sodipodi="http://sodipodi.sourceforge.net/DTD/sodipodi-0.dtd"
   xmlns:inkscape="http://www.inkscape.org/namespaces/inkscape"
   height="16"
   width="16"
   version="1.1"
   id="svg6"
   sodipodi:docname="tag-new-symbolic.svg"
   inkscape:version="0.92.4 (5da689c313, 2019-01-14)">
  <metadata
     id="metadata12">
    <rdf:RDF>
      <cc:Work
         rdf:about="">
        <dc:format>image/svg+xml</dc:format>
        <dc:type
           rdf:resource="http://purl.org/dc/dcmitype/StillImage" />
      </cc:Work>
    </rdf:RDF>
  </metadata>
  <defs
     id="defs10">
    <filter
       id="filter7554"
       style="color-interpolation-filters:sRGB">
      <feBlend
         id="feBlend7556"
         in2="BackgroundImage"
         mode="darken" />
    </filter>
  </defs>
  <sodipodi:namedview
     pagecolor="#ffffff"
     bordercolor="#666666"
     borderopacity="1"
     objecttolerance="10"
     gridtolerance="10"
     guidetolerance="10"
     inkscape:pageopacity="0"
     inkscape:pageshadow="2"
     inkscape:window-width="1366"
     inkscape:window-height="711"
     id="namedview8"
     showgrid="true"
     inkscape:snap-bbox="true"
     inkscape:bbox-nodes="true"
     inkscape:snap-bbox-edge-midpoints="true"
     inkscape:zoom="10.429825"
     inkscape:cx="8.8612672"
     inkscape:cy="-2.2326311"
     inkscape:window-x="0"
     inkscape:window-y="27"
     inkscape:window-maximized="1"
     inkscape:current-layer="svg6">
    <inkscape:grid
       type="xygrid"
       id="grid863" />
  </sodipodi:namedview>
  <g
     id="layer9"
     style="display:inline;enable-background:new"
     transform="translate(-261.00021,-149)" />
  <g
     id="layer10"
     style="display:inline;filter:url(#filter7554);enable-background:new"
     transform="translate(-261.00021,-149)" />
  <g
     id="layer1"
     style="display:inline;enable-background:new"
     transform="translate(-20.00001,-766)" />
  <g
     id="layer14"
     style="display:inline;enable-background:new"
     transform="translate(-261.00021,-149)" />
  <g
     id="layer15"
     style="display:inline;enable-background:new"
     transform="translate(-261.00021,-149)" />
  <g
     id="g71291"
     style="display:inline;enable-background:new"
     transform="translate(-261.00021,-149)" />
  <g
     id="layer2"
     style="display:inline;enable-background:new"
     transform="translate(-20.00001,-616)" />
  <g
     id="g6058"
     style="display:inline;enable-background:new"
     transform="translate(-20.00001,-616)" />
  <g
     id="layer12"
     style="display:inline;enable-background:new"
     transform="translate(-261.00021,-149)">
    <g
       id="g5313"
       transform="translate(18.00001,322)">
      <g
         id="g5315"
         style="display:inline"
         transform="translate(15.000398,-1169)">
        <g
           id="g5317" />
      </g>
    </g>
    <path
       inkscape:connector-curvature="0"
       d="m 263.0002,150 v 7 l 7,7 7,-7 -7,-7 z m 1,1 h 2 3.5625 l 6,6 -5.5625,5.5625 -6,-6 V 153 Z m 2,1 c 0.55228,0 1,0.44772 1,1 0,0.55228 -0.44772,1 -1,1 -0.55228,0 -1,-0.44772 -1,-1 0,-0.55228 0.44772,-1 1,-1 z"
       id="path4849"
       style="fill:#bebebe;fill-opacity:1;stroke:none" />
    <path
       inkscape:connector-curvature="0"
       d="m 262.88282,152.98821 c 0.30112,-0.34375 0.68838,-0.59712 1.12654,-0.73715 0.58421,-0.18672 1.24821,-0.11788 1.84835,0.30234 0.21868,0.14824 0.28015,0.48405 0.12862,0.70045 -0.15152,0.21641 -0.48795,0.27329 -0.70219,0.11871 -0.36789,-0.2576 -0.67505,-0.26314 -0.9933,-0.16143 -0.31826,0.10171 -0.62665,0.37152 -0.83981,0.70903 -0.21315,0.33753 -0.32362,0.73083 -0.27665,1.10337 0.047,0.37253 0.20993,0.71923 0.65269,1.02925 1.77371,1.24196 2.03486,3.21182 1.1207,4.44705 -0.50983,0.68888 -1.35904,1.10936 -2.36568,1.09027 l -0.49652,-1.03435 c 0.9654,0.21774 1.67363,-0.13171 2.06097,-0.6551 0.57154,-0.77231 0.53145,-2.03127 -0.89305,-3.02872 -0.64874,-0.45426 -0.98957,-1.10408 -1.06988,-1.74102 -0.0803,-0.63693 0.10614,-1.24538 0.43034,-1.75873 0.0812,-0.12821 0.16849,-0.26939 0.26887,-0.38397 z m -1.61392,7.26275 c 0.0816,0.0403 0.16193,0.0592 0.24064,0.0922 l 0.54513,1.18285 c -0.0667,-0.0109 -0.13961,-0.0161 -0.20733,-0.0308 z m 0.41212,0.17418 c 0.0864,0.0316 0.17589,0.0434 0.25854,0.0666 l 0.50419,1.07787 c -0.0763,-0.004 -0.1473,0.004 -0.22529,-0.005 z"
       id="path7413-8"
       style="color:#000000;font-style:normal;font-variant:normal;font-weight:normal;font-stretch:normal;font-size:medium;line-height:normal;font-family:Sans;-inkscape-font-specification:Sans;text-indent:0;text-align:start;text-decoration:none;text-decoration-line:none;letter-spacing:normal;word-spacing:normal;text-transform:none;writing-mode:lr-tb;direction:ltr;baseline-shift:baseline;text-anchor:start;display:inline;overflow:visible;visibility:visible;fill:#bebebe;fill-opacity:1;stroke:none;stroke-width:1;marker:none;enable-background:accumulate" />
  </g>
  <path
     style="opacity:1;fill:#bebebe;fill-opacity:1;fill-rule:evenodd;stroke:none;stroke-width:2;stroke-linecap:square;stroke-linejoin:miter;stroke-miterlimit:4;stroke-dasharray:none;stroke-opacity:1;paint-order:fill markers stroke"
     d="M 9 5 A 3 3 0 0 0 6 8 A 3 3 0 0 0 9 11 A 3 3 0 0 0 12 8 A 3 3 0 0 0 9 5 z M 9 6 A 2 2 0 0 1 11 8 A 2 2 0 0 1 9 10 A 2 2 0 0 1 7 8 A 2 2 0 0 1 9 6 z "
     id="path865" />
  <circle
     style="opacity:1;fill:#bebebe;fill-opacity:1;fill-rule:evenodd;stroke:none;stroke-width:2;stroke-linecap:square;stroke-linejoin:miter;stroke-miterlimit:4;stroke-dasharray:none;stroke-opacity:1;paint-order:fill markers stroke"
     id="circle872"
     cx="9"
     cy="8"
     r="1" />
</svg>
