<?xml version="1.0" encoding="UTF-8" standalone="no"?>
<svg
   xmlns:osb="http://www.openswatchbook.org/uri/2009/osb"
   xmlns:dc="http://purl.org/dc/elements/1.1/"
   xmlns:cc="http://creativecommons.org/ns#"
   xmlns:rdf="http://www.w3.org/1999/02/22-rdf-syntax-ns#"
   xmlns:svg="http://www.w3.org/2000/svg"
   xmlns="http://www.w3.org/2000/svg"
   width="16"
   version="1.1"
   style="enable-background:new"
   id="svg7384"
   height="16">
  <metadata
     id="metadata90">
    <rdf:RDF>
      <cc:Work
         rdf:about="">
        <dc:format>image/svg+xml</dc:format>
        <dc:type
           rdf:resource="http://purl.org/dc/dcmitype/StillImage" />
        <dc:title>Moka Symbolic Icon Theme</dc:title>
      </cc:Work>
    </rdf:RDF>
  </metadata>
  <title
     id="title8473">Moka Symbolic Icon Theme</title>
  <defs
     id="defs7386">
    <linearGradient
       osb:paint="solid"
       id="linearGradient5606">
      <stop
         style="stop-color:#000000;stop-opacity:1;"
         offset="0"
         id="stop5608" />
    </linearGradient>
    <filter
       style="color-interpolation-filters:sRGB"
       id="filter7554">
      <feBlend
         mode="darken"
         in2="BackgroundImage"
         id="feBlend7556" />
    </filter>
  </defs>
  <g
     transform="translate(-421.03139,36.034762)"
     style="display:inline"
     id="layer9" />
  <g
     transform="translate(-421.03139,36.034762)"
     style="display:inline;filter:url(#filter7554)"
     id="layer10" />
  <g
     transform="translate(-180.03119,-580.96524)"
     style="display:inline"
     id="layer1" />
  <g
     transform="translate(-421.03139,36.034762)"
     style="display:inline"
     id="layer14" />
  <g
     transform="translate(-421.03139,36.034762)"
     style="display:inline"
     id="layer15" />
  <g
     transform="translate(-421.03139,36.034762)"
     style="display:inline"
     id="g71291" />
  <g
     transform="translate(-180.03119,-430.96524)"
     style="display:inline"
     id="layer2" />
  <g
     transform="translate(-180.03119,-430.96524)"
     style="display:inline"
     id="g6058" />
  <g
     transform="translate(-421.03139,36.034762)"
     style="display:inline"
     id="layer12">
    <path
       style="color:#bebebe;display:inline;overflow:visible;visibility:visible;fill:#bebebe;fill-opacity:1;fill-rule:nonzero;stroke:none;stroke-width:1;marker:none;enable-background:accumulate"
       id="path5283"
       d="m 429.03139,-35.03476 c -3.86599,0 -7,3.13401 -7,7 0,3.86599 3.13401,7 7,7 2.76638,0 5.14457,-1.60814 6.28125,-3.9375 l -1.875,-0.78125 c -0.83392,1.59974 -2.47736,2.71875 -4.40625,2.71875 -2.76142,0 -5,-2.23858 -5,-5 0,-2.76142 2.23858,-5 5,-5 1.63862,0 3.0664,0.80776 3.96875,2.03125 l -1.96875,1.96875 5,0 0,-5 -1.59375,1.59375 c -1.28154,-1.57267 -3.21576,-2.59375 -5.40625,-2.59375 z" />
  </g>
</svg>
