<svg width="16" height="16" version="1.1" xmlns="http://www.w3.org/2000/svg">
 <path d="m7.998 2.0391c-1.1355 0.0013795-2.228 0.21922-3.2266 0.61133l0.75391 0.75391c0.77647-0.2615 1.6112-0.40325 2.4746-0.4043 3.2947 0.00204 6.1722 2.0544 7 4.9922-0.32734 1.1742-0.98317 2.2069-1.8613 3.0254l0.70703 0.70703c1.0231-0.94198 1.7858-2.1371 2.1641-3.4941a1.042 0.95988 0 0 0 0-0.48047c-0.94567-3.3561-4.2459-5.7086-8.0098-5.7109a1.042 0.95988 0 0 0-0.0019531 0zm-4.1914 1.0605c-1.8471 1.0051-3.2554 2.6574-3.8164 4.6699a1.042 0.95988 0 0 0 0 0.47852c0.94567 3.3561 4.2459 5.7106 8.0098 5.7129a1.042 0.95988 0 0 0 0.0019531 0c1.8833-0.002299 3.6496-0.59346 5.0625-1.6035l-0.70703-0.70703c-1.2226 0.85216-2.7395 1.3476-4.3574 1.3496-3.2947-2e-3 -6.1722-2.0544-7-4.9922 0.51084-1.8324 1.8188-3.3208 3.5293-4.1855l-0.72266-0.72266zm4.1934 1.9004a3 3 0 0 0-0.76758 0.11133l0.89453 0.89453a2 2 0 0 1 1.8672 1.8672l0.89453 0.89453a3 3 0 0 0 0.11133-0.76758 3 3 0 0 0-3-3zm-1.7285 0.56445a3 3 0 0 0-1.2715 2.4355 3 3 0 0 0 3 3 3 3 0 0 0 2.4355-1.2715l-0.71484-0.71484a2 2 0 0 1-1.7207 0.98633 2 2 0 0 1-2-2 2 2 0 0 1 0.98633-1.7207l-0.71484-0.71484z" fill="#5d656b" stroke-width=".99999"/>
 <rect transform="rotate(45)" x="1.3137" y="-.5" width="20" height="1" ry="0" fill="#5d656b"/>
</svg>
