<svg height="16" width="16" xmlns="http://www.w3.org/2000/svg"><path color="#5d656b" d="M1.385 3A.381.381 0 0 0 1 3.379v1.242c0 .21.172.379.385.379h1.23C2.829 5 3 4.83 3 4.621V3.38a.381.381 0 0 0-.385-.379zM9 3.219L3.938 9H7v4h4V9h3.188zM1.385 7.016A.381.381 0 0 0 1 7.395v1.242c0 .21.172.379.385.379h1.23A.381.381 0 0 0 3 8.636V7.395a.381.381 0 0 0-.385-.38zm0 3.984a.381.381 0 0 0-.385.379v1.242c0 .21.172.379.385.379h1.23c.214 0 .385-.17.385-.379V11.38a.381.381 0 0 0-.385-.379z" fill="#5d656b" overflow="visible" style="marker:none"/></svg>