<svg width="16px" height="16px" version="1.1" xmlns="http://www.w3.org/2000/svg">
 <path d="m14.32 0.7207c-0.38388 1e-8 -0.76765 0.14656-1.0605 0.43945l-3.8887 3.8887 0.70703 0.70703 2.8926-2.8926c0.07226 0.15451 0.16938 0.29644 0.28906 0.41797 0.58578 0.58579 1.5353 0.58579 2.1211 0 0.58579-0.58579 0.58579-1.5353 0-2.1211-0.29289-0.29289-0.67666-0.43945-1.0605-0.43945zm0 1c0.12796 0 0.25588 0.048853 0.35352 0.14648 0.19526 0.19526 0.19526 0.51177 0 0.70703-0.19526 0.19526-0.51177 0.19526-0.70703 0-0.19526-0.19526-0.19526-0.51177 0-0.70703 0.097631-0.097631 0.22555-0.14648 0.35352-0.14648zm-5.6562 4.0352-0.39453 0.39258 3.5352 3.5352 0.39453-0.39258-0.070313-0.072266-0.70312-0.70117-2.7617-2.7617zm-1.1016 1.0996-6.6074 6.6094-0.77539 0.77539 0.35352 0.35547c1.7574 1.7574 6.3467 0.014614 10.252-3.8906l0.3125-0.31445-0.70703-0.70703-0.3125 0.31445c-3.162 3.159-6.7441 4.9349-8.4121 4.1699l6.6035-6.6055-0.70703-0.70703z" fill="#5d656b" fill-rule="evenodd" stop-color="#000000" stroke-linecap="round" style="paint-order:stroke fill markers"/>
 <rect transform="rotate(45)" x="1.3137" y="-.5" width="20" height="1" ry="0" fill="#5d656b"/>
</svg>
