<svg height="16" width="16" xmlns="http://www.w3.org/2000/svg"><g color="#5d656b" fill="#5d656b"><path d="M9 6.95l-6.931.068c-.583.006-.809.33-.91.613-.008.015-.01.031-.016.047-.057.181-.074.34-.074.34v6c0 .523.476 1 1 1h5L9 14.949c.524 0 1-.476 1-1v-6s-.018-.167-.08-.357c-.004-.008-.004-.017-.008-.026-.1-.284-.327-.623-.912-.617zM2 9h7v5H4.904l-2.835.018V14H2z" font-family="Sans" font-weight="400" overflow="visible" style="line-height:normal;-inkscape-font-specification:Sans;text-indent:0;text-align:start;text-decoration-line:none;text-transform:none;marker:none"/><path d="M10 1l2.25 2.223-1.714 1.714-.027.027c-.38.42-.379 1.068.027 1.473a1.07 1.07 0 0 0 1.473.054l.214-.214 1.554-1.527L16 7V1z" overflow="visible" style="marker:none"/></g></svg>