<?xml version="1.0" encoding="UTF-8" standalone="no"?>
<svg
   xmlns:osb="http://www.openswatchbook.org/uri/2009/osb"
   xmlns:dc="http://purl.org/dc/elements/1.1/"
   xmlns:cc="http://creativecommons.org/ns#"
   xmlns:rdf="http://www.w3.org/1999/02/22-rdf-syntax-ns#"
   xmlns:svg="http://www.w3.org/2000/svg"
   xmlns="http://www.w3.org/2000/svg"
   width="16"
   version="1.1"
   style="enable-background:new"
   id="svg7384"
   height="16">
  <metadata
     id="metadata90">
    <rdf:RDF>
      <cc:Work
         rdf:about="">
        <dc:format>image/svg+xml</dc:format>
        <dc:type
           rdf:resource="http://purl.org/dc/dcmitype/StillImage" />
        <dc:title>Moka Symbolic Icon Theme</dc:title>
      </cc:Work>
    </rdf:RDF>
  </metadata>
  <title
     id="title8473">Moka Symbolic Icon Theme</title>
  <defs
     id="defs7386">
    <linearGradient
       osb:paint="solid"
       id="linearGradient5606">
      <stop
         style="stop-color:#000000;stop-opacity:1;"
         offset="0"
         id="stop5608" />
    </linearGradient>
    <filter
       style="color-interpolation-filters:sRGB"
       id="filter7554">
      <feBlend
         mode="darken"
         in2="BackgroundImage"
         id="feBlend7556" />
    </filter>
  </defs>
  <g
     transform="translate(-401.00021,-3.9966429)"
     style="display:inline"
     id="layer9" />
  <g
     transform="translate(-401.00021,-3.9966429)"
     style="display:inline;filter:url(#filter7554)"
     id="layer10" />
  <g
     transform="translate(-160.00001,-620.99664)"
     style="display:inline"
     id="layer1" />
  <g
     transform="translate(-401.00021,-3.9966429)"
     style="display:inline"
     id="layer14" />
  <g
     transform="translate(-401.00021,-3.9966429)"
     style="display:inline"
     id="layer15" />
  <g
     transform="translate(-401.00021,-3.9966429)"
     style="display:inline"
     id="g71291" />
  <g
     transform="translate(-160.00001,-470.99664)"
     style="display:inline"
     id="layer2" />
  <g
     transform="translate(-160.00001,-470.99664)"
     style="display:inline"
     id="g6058" />
  <g
     transform="translate(-401.00021,-3.9966429)"
     style="display:inline"
     id="layer12">
    <path
       style="color:#bebebe;fill:#bebebe;stroke:none"
       id="rect11749-5-0-1-8"
       d="m 404.0002,5.99664 c -0.554,0 -1,0.446 -1,1 l 0,10 c 0,0.554 0.446,1 1,1 l 10,0 c 0.554,0 1,-0.446 1,-1 l 0,-10 c 0,-0.554 -0.446,-1 -1,-1 l -10,0 z m 4,3 2,0 0,2 2,0 0,2 -2,0 0,2 -2,0 0,-2 -2,0 0,-2 2,0 0,-2 z" />
  </g>
</svg>
