<svg width="64" height="64" version="1.1" viewBox="0 0 16.933 16.933" xmlns="http://www.w3.org/2000/svg">
 <g transform="translate(0 -280.07)">
  <path d="M3.175 282.448c-.293 0-.265.264-.265.53H1.852c-.265 0-.265 0-.265.264v5.556c0 .293.237.53.53.53h12.7a.529.529 0 0 0 .529-.53v-5.556c0-.265 0-.265-.265-.265H7.673c0-.265.028-.53-.265-.53z" fill="#fff" fill-opacity=".976" stroke="#000" stroke-opacity=".268" stroke-width=".529" paint-order="markers stroke fill"/>
  <path d="M3.175 282.448c-.293 0-.265.264-.265.53H1.852c-.265 0-.265 0-.265.264v5.556c0 .293.237.53.53.53h12.7a.529.529 0 0 0 .529-.53v-5.556c0-.265 0-.265-.265-.265H7.673c0-.265.028-.53-.265-.53z" fill="#fff" fill-opacity=".976" paint-order="markers stroke fill"/>
  <path d="M8.467 284.3c-.293 0-.382.276-.53.53l-.308.528H.794c-.265 0-.265.265-.265.265v8.996c0 .264.265.264.265.264H16.14c.264 0 .264-.264.264-.264v-10.054c0-.265-.264-.265-.264-.265z" fill="none" stroke="#762c02" stroke-opacity=".561" stroke-width=".529" paint-order="markers stroke fill"/>
  <path d="M8.467 284.3c-.293 0-.382.276-.53.53l-.308.528H.794c-.265 0-.265.265-.265.265v8.996c0 .264.265.264.265.264H16.14c.264 0 .264-.264.264-.264v-10.054c0-.265-.264-.265-.264-.265z" fill="#fb8441" paint-order="markers stroke fill"/>
  <rect transform="rotate(-45)" x="-199.59" y="217.87" width="5.292" height="4.762" ry=".132" clip-path="url(#b)" fill="url(#c)" opacity=".1" paint-order="stroke markers fill"/>
  <rect x="3.44" y="282.98" width="3.704" height=".529" rx=".265" ry=".265" fill-opacity=".267" paint-order="markers stroke fill"/>
 </g>
</svg>
