<svg width="22" height="22" version="1.1" xmlns="http://www.w3.org/2000/svg">
 <path d="m8 3v1h1v-1zm1 1v1h-1v-1h-3c-1.108 0-2 0.892-2 2v11c0 1.108 0.892 2 2 2h12c1.108 0 2-0.892 2-2v-11c0-1.108-0.892-2-2-2h-3v1h-1v-1zm4 0h1v-1h-1zm-8 4h12c0.554 0 1 0.446 1 1v8c0 0.554-0.446 1-1 1h-12c-0.554 0-1-0.446-1-1v-8c0-0.554 0.446-1 1-1z" fill="#7c868d" fill-rule="evenodd" stop-color="#000000" stroke-linecap="round" stroke-linejoin="round" style="paint-order:stroke fill markers"/>
 <circle cx="15" cy="10" r="1" fill="#27ae60"/>
 <circle cx="15" cy="13" r="1" fill="#27ae60"/>
 <circle cx="11" cy="10" r="1" fill="#27ae60"/>
 <circle cx="11" cy="13" r="1" fill="#27ae60"/>
 <circle cx="7" cy="10" r="1" fill="#27ae60"/>
 <circle cx="7" cy="13" r="1" fill="#27ae60"/>
 <circle cx="15" cy="16" r="1" fill="#27ae60"/>
</svg>
