<svg width="16" height="16" version="1.1" xmlns="http://www.w3.org/2000/svg">
 <g transform="matrix(.5 0 0 .5 0 -510.2)">
  <path d="m19 1022.4a13 13 0 0 0-13 13 13 13 0 0 0 13 13 13 13 0 0 0 13-13 13 13 0 0 0-13-13z" fill="#90a4ae"/>
  <path d="m7 1035.4a12 12 0 0 1 12-12 12 12 0 0 1 12 12 12 12 0 0 1-12 12 12 12 0 0 1-12-12z" fill="#eceff1"/>
  <g fill="#d1d9dd">
   <circle cx="14.5" cy="1029.9" r="1.5"/>
   <circle cx="23.5" cy="1037.9" r="2.5"/>
   <circle cx="14.5" cy="1036.9" r="2.5"/>
   <circle cx="17.5" cy="1041.9" r="1.5"/>
   <circle cx="21.5" cy="1028.9" r=".5"/>
  </g>
  <path d="m8 1038.4v12h6a6 6 0 0 0 6-6 6 6 0 0 0-6-6z" fill="#bdbdbd"/>
  <circle cx="8" cy="1042.4" r="8" fill="#bdbdbd"/>
  <path d="m8 1039.4v10h6c2.7614 0 5-2.2386 5-5s-2.2386-5-5-5z" fill="#f5f5f5"/>
  <circle cx="8" cy="1042.4" r="7" fill="#f5f5f5"/>
  <path d="m15.148 1038.8-0.88867 0.4453a7 7 0 0 1 0.74023 3.1289 7 7 0 0 1-2.0527 4.9473l0.70703 0.707a8 8 0 0 0 2.3457-5.6543 8 8 0 0 0-0.85156-3.5742z" fill="#bdbdbd"/>
 </g>
</svg>
