<svg width="16" height="16" version="1.1" xmlns="http://www.w3.org/2000/svg">
 <path d="m1.975 0.994c-1.341 0-1.341 2.012 0 2.012h0.287c0.128 0 0.222 0.114 0.03 0.227-0.633 0.538-0.353 1.787 0.683 1.773h2.263c0.207 9e-3 0.15 0.152 0.084 0.208-0.52 0.42-0.483 1.304 0.12 1.653 0.09 0.047 0.054 0.123-0.04 0.123h-0.422c-1.398-0.052-1.398 2.072 0 2.02h1.299c0.108 0 0.18 0.125 0.036 0.208-0.52 0.432-0.467 1.315 0.138 1.663 0.177 0.102 0.067 0.184-0.014 0.248-0.598 0.353-0.649 1.24-0.11 1.664 0.125 0.098 0.05 0.186-0.046 0.186h-0.293c-1.362 0-1.362 2.042 0 2.042h1.02c1.016 0.019 1.347-1.203 0.724-1.77-0.129-0.157-0.031-0.235 0.039-0.235h1.242c1.354 0 1.354-2.032 0-2.032h-0.29c-0.142 0-0.153-0.105-0.076-0.173 0.503-0.38 0.523-1.159 0.064-1.571-0.15-0.15-0.075-0.23 0.04-0.23h0.268c1.007 4e-3 1.307-1.195 0.708-1.752-0.114-0.113-0.088-0.248 0.036-0.248h1.256c1.041 0.015 1.327-1.25 0.676-1.787-0.082-0.082-0.081-0.217 0.072-0.217h1.256c1.34 0 1.34-2.012 0-2.012h-0.323c-0.119 0-0.154-0.1-0.068-0.17 0.725-0.502 0.464-1.844-0.61-1.83z" color="#000000" fill="#99c1f1" font-family="sans-serif" font-weight="400" overflow="visible" solid-color="#000000" stroke="#5492de" style="font-feature-settings:normal;font-variant-alternates:normal;font-variant-caps:normal;font-variant-ligatures:normal;font-variant-numeric:normal;font-variant-position:normal;isolation:auto;mix-blend-mode:normal;shape-padding:0;text-decoration-color:#000000;text-decoration-line:none;text-decoration-style:solid;text-indent:0;text-orientation:mixed;text-transform:none;white-space:normal"/>
</svg>
