<svg width="16" height="16" version="1.1" xmlns="http://www.w3.org/2000/svg">
 <path d="m5.4414 1.002c-0.10101 0.0010862-0.20084 0.0083594-0.30078 0.021484a2.49 2.49 0 0 0-1.4395 0.70898 1.0002 1.0002 0 1 0 1.416 1.4121 0.485 0.485 0 0 1 0.59766-0.078125 0.494 0.494 0 0 1 0.23047 0.56445 0.487 0.487 0 0 1-0.47852 0.36914h-5.4668v2h5.4668a2.506 2.506 0 0 0 2.4121-1.8535 2.508 2.508 0 0 0-1.1621-2.8105c-0.39569-0.22994-0.8377-0.33869-1.2754-0.33398zm7.0215 0.99805a3.513 3.513 0 0 0-3.3867 2.7715 1.0005 1.0005 0 0 0 1.957 0.41602 1.487 1.487 0 0 1 1.6758-1.1738 1.488 1.488 0 0 1 1.2871 1.5918c-0.056 0.795-0.6981 1.3945-1.4961 1.3945h-12.5v2h12.5a3.514 3.514 0 0 0 3.4922-3.2559 3.515 3.515 0 0 0-3.0059-3.7109 3.513 3.513 0 0 0-0.52344-0.033203zm-12.463 8v2h10a1 1 0 0 0 0.001953 0 0.99 0.99 0 0 1 0.9707 0.76953 0.992 0.992 0 0 1-0.52344 1.125 0.986 0.986 0 0 1-1.2109-0.25195 1.0005 1.0005 0 1 0-1.5332 1.2852c0.445 0.53 1.0464 0.87381 1.6914 1.0078a2.99 2.99 0 0 0 1.9512-0.25391 3.01 3.01 0 0 0 1.5723-3.373 3.009 3.009 0 0 0-2.918-2.3086 1 1 0 0 0-0.001953 0h-10z" color="#000000" fill="#99c1f1" stroke="#5092e2" style="font-feature-settings:normal;font-variant-alternates:normal;font-variant-caps:normal;font-variant-ligatures:normal;font-variant-numeric:normal;font-variant-position:normal;isolation:auto;mix-blend-mode:normal;shape-padding:0;text-decoration-color:#000000;text-decoration-line:none;text-decoration-style:solid;text-indent:0;text-orientation:mixed;text-transform:none"/>
</svg>
