<svg width="16.014" height="16" version="1.1" xmlns="http://www.w3.org/2000/svg">
 <path d="m3.9238 1.3398c-0.72474 0-1.2109 0.41465-1.4668 0.66211-0.2741 0.26607-0.47531 0.53445-0.64258 0.75a0.50005 0.50005 0 0 0-0.0078125 0.0097657c-0.1159 0.1572-0.24218 0.308-0.375 0.45117-0.00578 0.00378-0.017542 0.011691-0.017578 0.011719 0 0 0.0037863 0.0056994 0.0039063 0.0058594 0.0010699 0.0014099 0.02961 0.038364 0.039062 0.050781-0.020893 0.00742-0.038246 0.017071-0.058594 0.025391-0.00694-0.00693-0.037109-0.037109-0.037109-0.037109l-0.054688 0.068359s-0.0040294 0.0085698-0.0058594 0.011719c-0.14723 0.07419-0.34409 0.073613-0.44727 0.18945-0.23811 0.26734-0.34537 0.60512-0.3457 0.93555-3.3146e-4 0.33042 0.10617 0.66773 0.34375 0.93555 0.23758 0.26781 0.61383 0.44294 1.0312 0.44336 0.7248 0 1.2135-0.41337 1.4707-0.66211a0.50005 0.50005 0 0 0 0.0019532-0.0019531c0.24365-0.23738 0.41512-0.46609 0.57031-0.66797 0.15473 0.20085 0.32565 0.43246 0.57031 0.66992 0.25776 0.2502 0.7459 0.66406 1.4707 0.66406 0.7242 0 1.2119-0.41471 1.4688-0.66406 0.2442-0.23615 0.4161-0.46528 0.57227-0.66797 0.15429 0.2005 0.32413 0.43185 0.57031 0.66992 0.25776 0.2502 0.7459 0.66406 1.4707 0.66406 0.7234 0 1.2097-0.41462 1.4668-0.66406 0.24576-0.23766 0.41835-0.46801 0.57422-0.66992 0.15459 0.20145 0.32495 0.43371 0.57031 0.67188 0.25776 0.2502 0.74455 0.66406 1.4688 0.66406 0.41742 0 0.79536-0.17578 1.0332-0.44336 0.23785-0.26758 0.3457-0.60512 0.3457-0.93555s-0.10786-0.66602-0.3457-0.93359c-0.10254-0.11536-0.29909-0.1172-0.44531-0.19141-0.0045-0.00731-0.011719-0.017578-0.011719-0.017578l-0.041016-0.052734s-0.029036 0.027449-0.035156 0.033203c-0.04695-0.019817-0.086911-0.043693-0.13672-0.058594 0.009799-0.020702 0.040802-0.070709 0.039062-0.072266 0.0029 2e-3 0.016201 0.0077056 0.019531 0.0097656 0.02316 0.014308 0.029224 0.021346 0.027344 0.019531l0.017578 0.017578c-0.13909-0.14822-0.26959-0.3035-0.39062-0.4668a0.50005 0.50005 0 0 0-0.005859-0.0078125c-0.16536-0.21426-0.36583-0.48498-0.64062-0.75195-0.25702-0.2504-0.74455-0.66602-1.4688-0.66602-0.72534 0-1.2139 0.41576-1.4707 0.66406-0.24426 0.23707-0.41548 0.46833-0.57031 0.66992-0.15421-0.20118-0.32425-0.43302-0.57031-0.67188-0.25688-0.24935-0.7453-0.66406-1.4707-0.66406-0.72474 0-1.2139 0.41576-1.4707 0.66406-0.24558 0.23839-0.41521 0.46874-0.57031 0.66992-0.15456-0.20083-0.32579-0.43263-0.57227-0.67188-0.25732-0.24978-0.74455-0.66211-1.4688-0.66211h-0.0019531zm0 0.5h0.0019531c0.54817-1e-7 0.88088 0.28831 1.1211 0.52148s0.4211 0.47925 0.5918 0.69922a6.6432 6.6432 0 0 0 0.32812 0.39062 6.652 6.652 0 0 0 0.32617-0.39062c0.1707-0.21997 0.35159-0.46409 0.5918-0.69727 0.24021-0.23229 0.57487-0.52344 1.123-0.52344 0.54993 0 0.88088 0.29027 1.1211 0.52344 0.24021 0.23317 0.42198 0.47925 0.5918 0.69922a6.6397 6.6397 0 0 0 0.32812 0.39062 7.5319 7.5319 0 0 0 0.32617-0.39062c0.16982-0.21997 0.35247-0.46497 0.5918-0.69727 0.24021-0.23229 0.57399-0.52344 1.123-0.52344 0.54817 0 0.88176 0.29027 1.1211 0.52344 0.24021 0.23317 0.42198 0.47925 0.5918 0.69922a5.7633 5.7633 0 0 0 0.42774 0.51172c0.025297 0.024417 0.045092 0.03974 0.05664 0.046875-0.017957-0.0068076-0.064687-0.019531-0.1582-0.019531a0.87793 0.87793 0 0 1 0 1.7559c-0.54817 0-0.88088-0.29027-1.1211-0.52344-0.24021-0.23317-0.42393-0.47925-0.59375-0.69922-0.13022-0.16806-0.23114-0.28611-0.32617-0.39258-0.095909 0.10647-0.19488 0.2254-0.32422 0.39258-0.1707 0.21997-0.35549 0.46497-0.5957 0.69727-0.24021 0.23317-0.57097 0.52344-1.1191 0.52344-0.54905 0-0.88284-0.29027-1.123-0.52344-0.24021-0.23229-0.42305-0.47925-0.59375-0.69922-0.12934-0.16806-0.23007-0.28416-0.32422-0.39062a6.7224 6.7224 0 0 0-0.32617 0.39062c-0.16982 0.21997-0.35354 0.46497-0.59375 0.69727-0.24021 0.23317-0.57292 0.52344-1.1211 0.52344-0.54905 0-0.88284-0.29027-1.123-0.52344-0.23933-0.23229-0.4211-0.47925-0.5918-0.69922-0.12934-0.16806-0.23114-0.28416-0.32617-0.39062a6.652 6.652 0 0 0-0.32812 0.39062c-0.16982 0.21997-0.35247 0.46605-0.5918 0.69922-0.24021 0.23229-0.57399 0.52148-1.123 0.52148a0.87726 0.87726 0 1 1 0.0019531-1.7539c-0.093516 0-0.13841 0.010886-0.15625 0.017578 0.011507-0.0070941 0.029611-0.020725 0.054688-0.044922a5.7017 5.7017 0 0 0 0.42578-0.51367c0.1707-0.21997 0.35549-0.46409 0.5957-0.69727 0.24021-0.23229 0.57097-0.52148 1.1191-0.52148zm-2.2324 1.2832s0.037245 0.0016431 0.054688 0.0019531c-0.055254 0.0058725-0.11293 0.0057305-0.16992 0.019531-0.014294 0.0034612-0.028807 0.0082333-0.042969 0.013672 0.00698-0.00277 0.029434-0.011763 0.029297-0.011719-2.14e-5 6.9e-6 0.010141-0.0011519 0.013672-0.0019532 0.019076-0.004329 0.072323-0.017586 0.072266-0.017578l0.042969-0.0039062zm12.613 0.0058593c-2.9e-5 -3.2e-6 0.031833 0.0047903 0.0625 0.0097657-0.031512-0.0032421-0.06364-0.0044239-0.09375-0.0078125 0.015039-6.462e-4 0.031249-0.0019532 0.03125-0.0019532zm0.091796 0.015625c0.024375 0.0039527 0.052784 0.0078282 0.052735 0.0078126-1.36e-4 -4.31e-5 0.025873 0.0088297 0.033203 0.011719 0.01148 0.00452 0.006302 0.0026694 0.013672 0.0058594-0.032788-0.014552-0.066056-0.020564-0.09961-0.025391zm-10.473 2.5957c-0.72474 0-1.2109 0.41661-1.4668 0.66406-0.2741 0.26607-0.47531 0.53445-0.64258 0.75a0.50005 0.50005 0 0 0-0.0078125 0.0097656c-0.11673 0.15833-0.24306 0.30903-0.37695 0.45312-0.00447 0.00292-0.015594 0.0097356-0.015625 0.0097656 0 0 0.0038263 0.0038063 0.0039063 0.0039063 8.649e-4 0.00114 0.029324 0.039944 0.039062 0.052734-0.020624 0.0073299-0.038502 0.01523-0.058594 0.023437-0.00694-0.0069299-0.037109-0.037109-0.037109-0.037109l-0.054688 0.068359s-0.0058025 0.0082598-0.0078125 0.011719c-0.14671 0.074122-0.34242 0.07589-0.44531 0.19141-0.23812 0.26733-0.34537 0.60317-0.3457 0.93359s0.10617 0.66773 0.34375 0.93555c0.23758 0.26781 0.61383 0.44294 1.0312 0.44336 0.7248 0 1.2129-0.41386 1.4707-0.66406 0.24381-0.23664 0.41522-0.46621 0.57031-0.66797 0.15501 0.20121 0.32689 0.43176 0.57227 0.66992 0.25776 0.2502 0.7459 0.66406 1.4707 0.66406 0.7242 0 1.2119-0.41471 1.4688-0.66406 0.24404-0.23619 0.41663-0.46579 0.57227-0.66797 0.15426 0.20046 0.32461 0.43142 0.57031 0.66992 0.25776 0.2502 0.7459 0.66406 1.4707 0.66406 0.72304 0 1.2096-0.41263 1.4668-0.66211l0.001953-0.0019531c0.2439-0.23624 0.41521-0.46705 0.57031-0.66797 0.15471 0.2016 0.3266 0.43145 0.57226 0.66992 0.25776 0.2502 0.74455 0.66406 1.4688 0.66406 0.41742 0 0.79536-0.17383 1.0332-0.44141 0.23785-0.26758 0.3457-0.60512 0.3457-0.93555s-0.10786-0.66797-0.3457-0.93555c-0.10244-0.11525-0.29925-0.11527-0.44531-0.18945-5e-3 -0.00824-0.011719-0.019531-0.011719-0.019531l-0.041016-0.050781s-0.029006 0.027421-0.035156 0.033203c-0.04697-0.019843-0.086881-0.043674-0.13672-0.058594 0.010079-0.021267 0.041142-0.073121 0.039062-0.074219 0.0029 2e-3 0.016201 0.0077057 0.019531 0.0097656 0.02316 0.014309 0.029224 0.023299 0.027344 0.021484l0.017578 0.017578c-0.13914-0.14823-0.26959-0.30545-0.39062-0.46875a0.50005 0.50005 0 0 0-0.005859-0.0078126c-0.16561-0.21458-0.36519-0.48459-0.64062-0.75195-0.25702-0.2504-0.74455-0.66406-1.4688-0.66406-0.72534 0-1.2139 0.41381-1.4707 0.66211a0.50005 0.50005 0 0 0 0 0.0019531c-0.24421 0.23703-0.4155 0.4664-0.57031 0.66797-0.1542-0.20116-0.32429-0.43111-0.57031-0.66992-0.25688-0.24935-0.7459-0.66406-1.4707-0.66406-0.72474 0-1.212 0.41381-1.4688 0.66211-0.24655 0.23842-0.41739 0.4708-0.57227 0.67188-0.15454-0.20081-0.32388-0.43266-0.57031-0.67188-0.25776-0.2502-0.7465-0.66406-1.4707-0.66406h-0.0019531zm0 0.5h0.0019531c0.54817 0 0.88088 0.29027 1.1211 0.52344s0.42305 0.47925 0.59375 0.69922a6.6432 6.6432 0 0 0 0.32617 0.38867 6.652 6.652 0 0 0 0.32617-0.38867c0.1707-0.21997 0.35354-0.46693 0.59375-0.69922 0.24021-0.23229 0.57292-0.52148 1.1211-0.52148 0.54905 0 0.88088 0.28831 1.1211 0.52148 0.24021 0.23317 0.42198 0.4812 0.5918 0.70117a6.6397 6.6397 0 0 0 0.32812 0.38867 7.5319 7.5319 0 0 0 0.32617-0.38867c0.16982-0.21997 0.35247-0.46693 0.5918-0.69922 0.24021-0.23229 0.57399-0.52148 1.123-0.52148 0.54817 0 0.88176 0.28831 1.1211 0.52148 0.24021 0.23317 0.42198 0.4812 0.5918 0.70117a5.7633 5.7633 0 0 0 0.42774 0.51172c0.10119 0.097668 0.10697 0.027344-0.10156 0.027344a0.87725 0.87725 0 1 1 0 1.7539c-0.54817 0-0.88088-0.29027-1.1211-0.52344-0.24021-0.23317-0.42393-0.47925-0.59375-0.69922-0.13022-0.16806-0.23114-0.28416-0.32617-0.39062-0.095909 0.10647-0.19488 0.22345-0.32422 0.39062-0.1707 0.21997-0.35549 0.46693-0.5957 0.69922-0.24021 0.23317-0.57097 0.52148-1.1191 0.52148-0.54905 0-0.88284-0.28831-1.123-0.52148-0.24021-0.23317-0.42305-0.4812-0.59375-0.70117-0.12934-0.16718-0.23007-0.2822-0.32422-0.38867a6.7224 6.7224 0 0 0-0.32617 0.38867c-0.16982 0.21997-0.35354 0.46693-0.59375 0.69922-0.24021 0.23317-0.57292 0.52148-1.1211 0.52148-0.54905 0-0.88284-0.28831-1.123-0.52148-0.23933-0.23229-0.4211-0.47925-0.5918-0.69922-0.12934-0.16806-0.23114-0.28416-0.32617-0.39062-0.095028 0.10647-0.1979 0.22257-0.32812 0.39062-0.16982 0.21997-0.35247 0.46497-0.5918 0.69727-0.24021 0.23317-0.57399 0.52148-1.123 0.52148a0.87726 0.87726 0 1 1 0.0019531-1.7539c-0.20853 0-0.20187 0.069444-0.10156-0.027344a5.7017 5.7017 0 0 0 0.42578-0.51172c0.1707-0.21997 0.35549-0.46409 0.5957-0.69727 0.24021-0.23229 0.57097-0.52344 1.1191-0.52344zm-2.2324 1.2852s0.031436-3.465e-4 0.050781 0c-0.072169 8e-3 -0.14881 0.0084097-0.22266 0.041016 0.00732-0.0031999 0.0021199-0.0032325 0.013672-0.0078124 0.00698-0.00277 0.029434-0.0098057 0.029297-0.0097657-1.372e-4 4.45e-5 0.086006-0.01954 0.085938-0.019531l0.042969-0.0039063zm12.613 0.0039063c-3.1e-5 -3.4e-6 0.033488 0.0044252 0.066406 0.0097656-0.034123-0.0036149-0.068765-0.0042816-0.10156-0.0078125 0.01557-6.696e-4 0.035156-0.0019531 0.035157-0.0019531zm-12.826 0.056641c-0.00887 0.0053-0.015857 0.010853-0.029297 0.019531 0.0040399-0.00335 0.00185-0.0051799 0.015625-0.013672 0.0022599-0.00139 0.01184-0.0045594 0.013672-0.0058594zm2.4453 2.5547c-0.72474 0-1.2109 0.41661-1.4668 0.66406-0.27509 0.26602-0.47571 0.53496-0.64258 0.75a0.50005 0.50005 0 0 0 0 0.001953c-0.16502 0.21376-0.32534 0.40605-0.375 0.45508l-0.0019531 0.001953c-0.016413 0.0112-0.037042 0.023377-0.037109 0.023437 0 0 0.032894 0.040405 0.042969 0.052735-0.022718 0.0084-0.042401 0.017924-0.064453 0.027344-0.0052499-0.0048-0.033203-0.029297-0.033203-0.029297s-0.035723 0.049673-0.046875 0.064453c-0.14622 0.07394-0.34265 0.07434-0.44531 0.18945-0.23835 0.26726-0.34732 0.60505-0.34766 0.93555-3.3153e-4 0.3305 0.10808 0.6677 0.3457 0.93555 0.23762 0.26785 0.61372 0.44266 1.0312 0.44336 0.7248 0 1.2129-0.41386 1.4707-0.66406 0.24426-0.23707 0.41548-0.46834 0.57031-0.66992 0.15498 0.20117 0.32737 0.43132 0.57227 0.66992a0.50005 0.50005 0 0 0 0 0.001953c0.25776 0.2502 0.7459 0.66406 1.4707 0.66406 0.7242 0 1.2119-0.41471 1.4688-0.66406 0.24423-0.23618 0.41653-0.46566 0.57227-0.66797 0.15426 0.20046 0.32461 0.43142 0.57031 0.66992 0.25775 0.2502 0.7459 0.66406 1.4707 0.66406 0.72474 0 1.2109-0.41661 1.4668-0.66406 0.24576-0.23766 0.41835-0.468 0.57422-0.66992 0.15459 0.20145 0.32495 0.43371 0.57031 0.67188 0.25776 0.2502 0.74455 0.66211 1.4688 0.66211 0.41753 2.82e-4 0.79513-0.17196 1.0332-0.43945 0.23808-0.2675 0.3457-0.60505 0.3457-0.93555 0-0.3305-0.10781-0.66794-0.3457-0.93555-0.1031-0.11598-0.30007-0.11701-0.44726-0.19141-0.0041-0.0067-0.009766-0.017578-0.009766-0.017578s-0.041025-0.052734-0.041016-0.052734c0 0-0.029036 0.027453-0.035156 0.033203-0.04704-0.01984-0.086811-0.043694-0.13672-0.058594 0.009799-0.0207 0.040802-0.070706 0.039062-0.072266 0.0028 2e-3 0.016241 0.007666 0.019531 0.009766 0.02315 0.01431 0.029224 0.021351 0.027344 0.019531l0.017578 0.017578c-0.1391-0.14822-0.26959-0.3035-0.39062-0.4668a0.50005 0.50005 0 0 0-0.005859-0.007812c-0.16605-0.21509-0.3651-0.48551-0.64062-0.75195-0.25612-0.24952-0.74348-0.66602-1.4688-0.66602-0.7248 0-1.2129 0.41386-1.4707 0.66406-0.24426 0.23707-0.41548 0.46833-0.57031 0.66992-0.15414-0.20137-0.32425-0.43302-0.57031-0.67188-0.25688-0.24935-0.7453-0.66406-1.4707-0.66406-0.72474 0-1.2139 0.41576-1.4707 0.66406-0.24647 0.23834-0.41547 0.46889-0.57031 0.66992-0.15456-0.20083-0.32579-0.43262-0.57227-0.67187-0.25776-0.2502-0.7465-0.66406-1.4707-0.66406zm0 0.5c0.54817 0 0.88284 0.29027 1.123 0.52344 0.24021 0.23317 0.4211 0.47925 0.5918 0.69922a6.6423 6.6423 0 0 0 0.32812 0.39062c0.095028-0.10647 0.19683-0.22344 0.32617-0.39062 0.1707-0.21997 0.35159-0.46497 0.5918-0.69726 0.24021-0.23229 0.57487-0.52344 1.123-0.52344 0.54993 0 0.88088 0.29027 1.1211 0.52344 0.24021 0.23317 0.42198 0.47924 0.5918 0.69922a6.6388 6.6388 0 0 0 0.32812 0.39062 7.5319 7.5319 0 0 0 0.32617-0.39062c0.16982-0.21997 0.35247-0.46497 0.5918-0.69726 0.24021-0.23317 0.57399-0.52344 1.123-0.52344 0.54817 0 0.88176 0.29222 1.1211 0.52539 0.24021 0.23229 0.42198 0.47729 0.5918 0.69727a5.7633 5.7633 0 0 0 0.42774 0.51172c0.10119 0.097668 0.10697 0.027344-0.10156 0.027344a0.87725 0.87725 0 1 1 0 1.7539c-0.54817 0-0.88088-0.28831-1.1211-0.52148-0.24021-0.23317-0.42393-0.47924-0.59375-0.69922-0.13022-0.16806-0.23114-0.28611-0.32617-0.39258-0.095909 0.10647-0.19488 0.2254-0.32422 0.39258-0.1707 0.21997-0.35549 0.46497-0.5957 0.69727s-0.57097 0.52344-1.1191 0.52344c-0.54905 0-0.88284-0.29026-1.123-0.52344-0.24021-0.23317-0.42305-0.47925-0.59375-0.69922-0.12934-0.16718-0.23007-0.28504-0.32422-0.39062a6.4232 6.4232 0 0 0-0.32617 0.39062c-0.16982 0.21997-0.35354 0.46497-0.59375 0.69727-0.24021 0.23317-0.57292 0.52344-1.1211 0.52344-0.54905 0-0.88284-0.29027-1.123-0.52344-0.23933-0.23317-0.4211-0.47925-0.5918-0.69922-0.12934-0.16718-0.23114-0.28416-0.32617-0.39062-0.095028 0.10647-0.1979 0.22344-0.32812 0.39062-0.16982 0.21997-0.35247 0.46497-0.5918 0.69726-0.24021 0.23317-0.57399 0.52344-1.123 0.52344a0.87793 0.87793 0 1 1 0.0019531-1.7559c-0.20853-8.8e-4 -0.20187 0.069444-0.10156-0.027344 0.10031-0.097668 0.25596-0.29174 0.42578-0.51172 0.1707-0.21997 0.35549-0.46497 0.5957-0.69727 0.24021-0.23229 0.57097-0.52344 1.1191-0.52344zm-2.2441 1.2852h0.050781s0.0075656 0.001653 0.0097656 0.001953c-0.069989 0.0073-0.14443 0.005103-0.2207 0.039063 0.00935-0.0042 0.0028704-0.002766 0.021484-0.009766 0.0081-3e-3 0.035294-0.011758 0.035156-0.011719-1.372e-4 4e-5 0.10358-0.019541 0.10352-0.019531zm12.625 0.00586c-3.9e-5 -5e-6 0.04172 0.007133 0.082031 0.013671-0.038123-0.005003-0.076847-0.007618-0.11328-0.011718 0.015029-6.4e-4 0.03125-0.001953 0.03125-0.001953zm0.13867 0.023437c4.29e-4 6.9e-5 0.005865 2e-6 0.00586 0-1.36e-4 -4.3e-5 0.025873 0.006866 0.033203 0.009766 0.01534 6e-3 0.009198 0.005965 0.017578 0.009765-0.018817-0.008447-0.037565-0.014743-0.056641-0.019531z" color="#000000" fill="#2562b1" opacity=".5" stroke-linecap="round" stroke-linejoin="round" style="paint-order:stroke fill markers"/>
 <path d="m3.9247 1.839c-0.54817 0-0.87989 0.29037-1.1201 0.52266-0.24021 0.23317-0.42411 0.47778-0.59481 0.69776a5.7017 5.7017 0 0 1-0.42587 0.5121c-0.10031 0.096788-0.10735 0.027277 0.10119 0.027277a0.87726 0.87726 0 1 0-0.00176 1.7545c0.54905 0 0.88253-0.28949 1.1227-0.52178 0.23933-0.23317 0.42235-0.47778 0.59217-0.69776a6.652 6.652 0 0 1 0.32732-0.39067c0.095029 0.10647 0.19622 0.22261 0.32556 0.39067 0.1707 0.21997 0.35372 0.46634 0.59305 0.69864 0.24021 0.23317 0.57369 0.52266 1.1227 0.52266 0.54817 0 0.87989-0.28949 1.1201-0.52266 0.24021-0.23229 0.42499-0.4769 0.59481-0.69688a6.7224 6.7224 0 0 1 0.32556-0.39067c0.094149 0.10647 0.19622 0.22261 0.32556 0.39067 0.1707 0.21997 0.35284 0.46634 0.59305 0.69864 0.24021 0.23317 0.57369 0.52266 1.1227 0.52266 0.54817 0 0.87989-0.28949 1.1201-0.52266 0.24021-0.23229 0.42411-0.47778 0.59481-0.69776 0.12934-0.16718 0.22877-0.28509 0.32468-0.39155 0.09503 0.10647 0.19622 0.22349 0.32644 0.39155 0.16982 0.21997 0.35284 0.46634 0.59305 0.69952s0.57369 0.52266 1.1219 0.52266a0.87725 0.87725 0 1 0 0-1.7545c0.20854 0 0.20238 0.070391 0.10119-0.027277a5.7633 5.7633 0 0 1-0.42763-0.5121c-0.16982-0.21997-0.35284-0.46634-0.59305-0.69952-0.23933-0.23317-0.57193-0.52266-1.1201-0.52266-0.54905 0-0.88253 0.29037-1.1227 0.52266-0.23933 0.23229-0.42235 0.47778-0.59217 0.69776a7.5319 7.5319 0 0 1-0.32644 0.38979 6.6397 6.6397 0 0 1-0.32732-0.38979c-0.16982-0.21997-0.35196-0.46634-0.59217-0.69952-0.24021-0.23317-0.57193-0.52266-1.1219-0.52266-0.54817 0-0.88165 0.29037-1.1219 0.52266-0.24021 0.23317-0.42235 0.47778-0.59305 0.69776a6.652 6.652 0 0 1-0.32644 0.38979 6.6432 6.6432 0 0 1-0.32644-0.38979c-0.1707-0.21997-0.35284-0.46634-0.59305-0.69952-0.24021-0.23317-0.57281-0.52266-1.121-0.52266zm0 4.4012c-0.54817 0-0.87989 0.29037-1.1201 0.52266-0.24021 0.23317-0.42411 0.47778-0.59481 0.69776a5.7017 5.7017 0 0 1-0.42587 0.5121c-0.10031 0.096788-0.10735 0.027277 0.10119 0.027277a0.87726 0.87726 0 1 0-0.00176 1.7545c0.54905 0 0.88253-0.28949 1.1227-0.52266 0.23933-0.23229 0.42235-0.4769 0.59217-0.69688 0.13022-0.16806 0.23229-0.28421 0.32732-0.39067 0.095029 0.10647 0.19622 0.22261 0.32556 0.39067 0.1707 0.21997 0.35372 0.46634 0.59305 0.69864 0.24021 0.23317 0.57369 0.52266 1.1227 0.52266 0.54817 0 0.87989-0.28949 1.1201-0.52266 0.24021-0.23229 0.42499-0.47778 0.59481-0.69776a6.7224 6.7224 0 0 1 0.32556-0.38979c0.094149 0.10647 0.19622 0.22261 0.32556 0.38979 0.1707 0.21997 0.35284 0.46634 0.59305 0.69952 0.24021 0.23317 0.57369 0.52266 1.1227 0.52266 0.54817 0 0.87989-0.28949 1.1201-0.52266 0.24021-0.23229 0.42411-0.47778 0.59481-0.69776 0.12934-0.16718 0.22877-0.28509 0.32468-0.39155 0.09503 0.10647 0.19622 0.22349 0.32644 0.39155 0.16982 0.21997 0.35284 0.46634 0.59305 0.69952s0.57369 0.52266 1.1219 0.52266a0.87725 0.87725 0 1 0 0-1.7545c0.20854 0 0.20238 0.070392 0.10119-0.027277a5.7633 5.7633 0 0 1-0.42763-0.5121c-0.16982-0.21997-0.35284-0.46634-0.59305-0.69952-0.23933-0.23317-0.57193-0.52266-1.1201-0.52266-0.54905 0-0.88253 0.29037-1.1227 0.52266-0.23933 0.23229-0.42235 0.47778-0.59217 0.69776a7.5319 7.5319 0 0 1-0.32644 0.38979 6.6397 6.6397 0 0 1-0.32732-0.38979c-0.16982-0.21997-0.35196-0.46634-0.59217-0.69952-0.24021-0.23317-0.57193-0.52266-1.121-0.52266-0.54817 0-0.88165 0.29037-1.1219 0.52266s-0.42235 0.47778-0.59305 0.69776a6.652 6.652 0 0 1-0.32644 0.38979 6.6432 6.6432 0 0 1-0.32644-0.38979c-0.1707-0.21997-0.35284-0.46634-0.59305-0.69952-0.24021-0.23317-0.57369-0.52266-1.1219-0.52266zm0 4.4012c-0.54817 0-0.87989 0.29036-1.1201 0.52266-0.24021 0.23229-0.42411 0.47778-0.59481 0.69776-0.16982 0.21997-0.32556 0.41443-0.42587 0.5121-0.10031 0.09679-0.10735 0.0264 0.10119 0.02728a0.87726 0.87726 0 1 0-0.00176 1.7545c0.54905 0 0.88253-0.28948 1.1227-0.52266 0.23933-0.23229 0.42235-0.47778 0.59217-0.69776 0.13022-0.16718 0.23229-0.28333 0.32732-0.38979 0.095029 0.10647 0.19622 0.22261 0.32556 0.38979 0.1707 0.21997 0.35372 0.46634 0.59305 0.69952 0.24021 0.23317 0.57369 0.52266 1.1227 0.52266 0.54817 0 0.87989-0.28948 1.1201-0.52266 0.24021-0.23229 0.42499-0.47778 0.59481-0.69776a6.4232 6.4232 0 0 1 0.32556-0.38979c0.094149 0.10559 0.19622 0.22261 0.32556 0.38979 0.1707 0.21997 0.35284 0.46634 0.59305 0.69952 0.24021 0.23317 0.57369 0.52266 1.1227 0.52266 0.54817 0 0.87989-0.29036 1.1201-0.52266 0.24021-0.23229 0.42411-0.47778 0.59481-0.69776 0.12934-0.16718 0.22877-0.28509 0.32468-0.39155 0.09503 0.10647 0.19622 0.22349 0.32644 0.39155 0.16982 0.21997 0.35284 0.46634 0.59305 0.69952s0.57369 0.52266 1.1219 0.52266a0.87725 0.87725 0 1 0 0-1.7545c0.20854 0 0.20238 0.07039 0.10119-0.02728a5.7633 5.7633 0 0 1-0.42763-0.5121c-0.16982-0.21997-0.35284-0.46546-0.59305-0.69776-0.23933-0.23317-0.57193-0.52442-1.1201-0.52442-0.54905 0-0.88253 0.28948-1.1227 0.52266-0.23933 0.23229-0.42235 0.47778-0.59217 0.69776a7.5319 7.5319 0 0 1-0.32644 0.38979 6.6388 6.6388 0 0 1-0.32732-0.38979c-0.16982-0.21997-0.35196-0.46634-0.59217-0.69952-0.24021-0.23317-0.57193-0.52266-1.1219-0.52266-0.54817 0-0.88165 0.29036-1.1219 0.52266s-0.42235 0.47778-0.59305 0.69776c-0.12934 0.16718-0.23141 0.28333-0.32644 0.38979a6.6423 6.6423 0 0 1-0.32644-0.38979c-0.1707-0.21997-0.35284-0.46634-0.59305-0.69952-0.24021-0.23317-0.57369-0.52266-1.1219-0.52266z" color="#000000" fill="#99bff0" opacity=".5" stroke-linecap="round" stroke-linejoin="round" style="-inkscape-stroke:none;paint-order:stroke fill markers"/>
</svg>
