<?xml version="1.0" encoding="UTF-8"?>
<svg width="16" height="16" version="1.1" xmlns="http://www.w3.org/2000/svg" xmlns:cc="http://creativecommons.org/ns#" xmlns:dc="http://purl.org/dc/elements/1.1/" xmlns:rdf="http://www.w3.org/1999/02/22-rdf-syntax-ns#">
 <metadata>
  <rdf:RDF>
   <cc:Work rdf:about="">
    <dc:format>image/svg+xml</dc:format>
    <dc:type rdf:resource="http://purl.org/dc/dcmitype/StillImage"/>
    <dc:title/>
   </cc:Work>
  </rdf:RDF>
 </metadata>
 <g fill="#5d656b">
  <path d="m8 2c-3.324 0-6 2.676-6 6s2.676 6 6 6 6-2.676 6-6-2.676-6-6-6zm0 2c2.216 0 4 1.784 4 4s-1.784 4-4 4-4-1.784-4-4 1.784-4 4-4z" opacity=".3" stroke-width=".83992" style="paint-order:markers stroke fill"/>
  <path d="m8 0c-4.432 0-8 3.568-8 8s3.568 8 8 8 8-3.568 8-8-3.568-8-8-8zm0 1c3.878 0 7 3.122 7 7s-3.122 7-7 7-7-3.122-7-7 3.122-7 7-7z" stroke-width="1.1199" style="paint-order:markers stroke fill"/>
  <g stroke-width="1.4176">
   <path d="m10.121 5.8796a2.9989 3.0007 0 0 0-4.2425 0l2.1214 2.1226z" opacity=".6"/>
   <path d="m10.121 5.8796a2.9989 3.0007 0 0 1 0 4.2451l-2.1214-2.1226zm-4.2425 4.2419a2.9989 3.0007 0 0 1 0-4.2451l2.1214 2.1258z" opacity=".8"/>
   <path d="m5.8785 10.121a2.9989 3.0007 0 0 0 4.2425 0l-2.1214-2.1193z"/>
  </g>
 </g>
</svg>
