<svg width="16" height="16" enable-background="new" version="1.1" xmlns="http://www.w3.org/2000/svg">
 <path d="m10 1v1h-4v-1zm2 2c1 0 1 1 1 1v4.063c1.141 0.232 2 1.225 2 2.437v0.5h-1v2h-1v-2h-1v2h-1v-2h-1v-0.5c0-1.212 0.859-2.205 2-2.438v-4.062h-8v10h9c0 1-1 1-1 1h-8c-1 0-1-1-1-1v-10s0-1 1-1h2z" color="#000000" enable-background="accumulate" fill="#5d656b" overflow="visible"/>
 <path d="m11 5c1.0079 2.5482-1.9549 3.6683-2 5.5v1.5h1v1h-5v-8h2z" color="#000000" enable-background="accumulate" fill="#5d656b" opacity=".35" overflow="visible"/>
</svg>
