<?xml version="1.0" encoding="UTF-8" standalone="no"?>
<svg
   xmlns:osb="http://www.openswatchbook.org/uri/2009/osb"
   xmlns:dc="http://purl.org/dc/elements/1.1/"
   xmlns:cc="http://creativecommons.org/ns#"
   xmlns:rdf="http://www.w3.org/1999/02/22-rdf-syntax-ns#"
   xmlns:svg="http://www.w3.org/2000/svg"
   xmlns="http://www.w3.org/2000/svg"
   width="16.000015"
   version="1.1"
   style="enable-background:new"
   id="svg7384"
   height="16">
  <metadata
     id="metadata90">
    <rdf:RDF>
      <cc:Work
         rdf:about="">
        <dc:format>image/svg+xml</dc:format>
        <dc:type
           rdf:resource="http://purl.org/dc/dcmitype/StillImage" />
        <dc:title>Moka Symbolic Icon Theme</dc:title>
      </cc:Work>
    </rdf:RDF>
  </metadata>
  <title
     id="title8473">Moka Symbolic Icon Theme</title>
  <defs
     id="defs7386">
    <linearGradient
       osb:paint="solid"
       id="linearGradient5606">
      <stop
         style="stop-color:#000000;stop-opacity:1;"
         offset="0"
         id="stop5608" />
    </linearGradient>
    <filter
       style="color-interpolation-filters:sRGB"
       id="filter7554">
      <feBlend
         mode="darken"
         in2="BackgroundImage"
         id="feBlend7556" />
    </filter>
  </defs>
  <g
     transform="translate(-723.00019,-14.99664)"
     style="display:inline"
     id="layer9" />
  <g
     transform="translate(-723.00019,-14.99664)"
     style="display:inline;filter:url(#filter7554)"
     id="layer10" />
  <g
     transform="translate(-481.99999,-631.99664)"
     style="display:inline"
     id="layer1" />
  <g
     transform="translate(-723.00019,-14.99664)"
     style="display:inline"
     id="layer14" />
  <g
     transform="translate(-723.00019,-14.99664)"
     style="display:inline"
     id="layer15" />
  <g
     transform="translate(-723.00019,-14.99664)"
     style="display:inline"
     id="g71291" />
  <g
     transform="translate(-481.99999,-481.99664)"
     style="display:inline"
     id="layer2" />
  <g
     transform="translate(-481.99999,-481.99664)"
     style="display:inline"
     id="g6058">
    <g
       transform="matrix(-1,0,0,1,879.00019,824.99664)"
       id="g7868-0-6" />
    <path
       style="color:#000000;display:inline;overflow:visible;visibility:visible;fill:#bebebe;fill-opacity:1;stroke:none;stroke-width:2;marker:none;enable-background:accumulate"
       id="path1070-6-1"
       d="m 491.99999,482.99664 0,1 -3,0 -1,0 0,-1 z m 2,2 c 1,0 1,1 1,1 l 2e-5,4.0625 c 1.14126,0.23235 2,1.22563 2,2.4375 l 0,0.5 -1,0 0,2 -1,0 0,-2 -1,0 0,2 -1,0 0,-2 -1,0 0,-0.5 c 0,-1.21187 0.85874,-2.20515 2,-2.4375 l -2e-5,-4.0625 -6,0 -1,0 -1,0 0,10 8,0 2e-5,0 1,0 c 0,1 -1.00002,1 -1.00002,1 l -8,0 c -1,0 -1,-1 -1,-1 l 0,-10 c 0,0 0,-1 1,-1 l 1,0 1,0 z m -1,2 2e-5,2.5625 c -1.12055,0.58172 -2,1.59282 -2,2.9375 l 0,0.5 0,1 1,0 0,1 c 0,0 -4.65537,0 -5.00002,0 l 0,-8 1,0 1,0 z" />
  </g>
  <g
     transform="translate(-723.00019,-14.99664)"
     style="display:inline"
     id="layer12" />
</svg>
