<svg width="16" height="16" version="1.1" xmlns="http://www.w3.org/2000/svg">
 <path d="m4.9824 1c-2.1595 3.41e-5 -3.9341 1.7356-3.9824 3.8945v0.00977c0 0.96295 0.25714 1.723 0.49609 2.3652l0.0039063 0.0097614 0.00391 0.011719c1.154 2.7318 3.361 4.9522 6.1543 7.5742l0.3418 0.32031 0.3418-0.32031c2.7933-2.622 5.0003-4.8424 6.1543-7.5742l0.003906-0.011719 0.0039-0.00977c0.23896-0.64225 0.4961-1.4014 0.4961-2.3652v-0.01172c-0.045839-1.9798-1.4128-3.3631-2.998-3.7676-1.4003-0.35727-2.9312 0.18717-3.9707 1.4668-0.7482-0.94664-1.8216-1.592-3.0488-1.5918zm0 1c1.0677-1.937e-4 2.0518 0.56848 2.584 1.4941l0.43359 0.75391 0.43359-0.75195c0.76998-1.3362 2.1176-1.7097 3.3223-1.4023 1.2034 0.30704 2.2044 1.2795 2.2422 2.8184-0.0016 0.77944-0.19972 1.3824-0.42773 1.9961-1.0016 2.3656-2.9898 4.438-5.5703 6.8789-2.5805-2.4409-4.5687-4.5133-5.5703-6.8789-0.22801-0.61374-0.42618-1.2177-0.42773-1.9961 0.038878-1.6243 1.3551-2.9121 2.9805-2.9121z" color="#000000" fill="#5d656b" stroke-linecap="round" style="-inkscape-stroke:none"/>
</svg>
