<svg width="16" height="16" enable-background="new" version="1.1" xmlns="http://www.w3.org/2000/svg">
 <path d="m8 0a8 8 0 0 0-8 8 8 8 0 0 0 8 8h0.5 4.5 0.5c0.277 0 0.5-0.223 0.5-0.5s-0.223-0.5-0.5-0.5h-0.5-4.5-0.5a7 7 0 0 1-7-7 7 7 0 0 1 7-7 7 7 0 0 1 7 7v0.5c0 0.831-0.669 1.5-1.5 1.5s-1.5-0.669-1.5-1.5v-0.5a4 4 0 0 0-4-4 4 4 0 0 0-4 4 4 4 0 0 0 4 4 4 4 0 0 0 3.4727-2.0352c0.45329 0.62788 1.1904 1.0352 2.0273 1.0352 1.385 0 2.5-1.115 2.5-2.5v-0.5a8 8 0 0 0-8-8zm0 5a3 3 0 0 1 3 3 3 3 0 0 1-3 3 3 3 0 0 1-3-3 3 3 0 0 1 3-3z" fill="#5d656b" fill-rule="evenodd" stop-color="#000000" stroke-width="0" style="paint-order:stroke fill markers"/>
</svg>
