<svg width="16" height="16" version="1.1" xmlns="http://www.w3.org/2000/svg">
 <path d="m4.5 0a4.501 4.501 0 0 0-4.5 4.5c0 1.481 0.73875 2.7738 1.8438 3.5938a5.92 5.92 0 0 1-1.6875 1.4688c0.598 0.287 1.2512 0.36681 1.8652 0.25781 0.10173-0.81628 0.38507-1.5783 0.80469-2.2461-1.0888-0.59227-1.8262-1.743-1.8262-3.0742 0-1.939 1.561-3.5 3.5-3.5h4c1.939 0 3.5 1.561 3.5 3.5 0 0.16947-0.012184 0.33518-0.035156 0.49805 0.33126 0.030062 0.6536 0.089034 0.9668 0.17383 0.033-0.221 0.068359-0.44188 0.068359-0.67188 0-2.484-2.016-4.5-4.5-4.5h-4zm3 6c-2.493 0-4.5 2.007-4.5 4.5 0 2.493 2.007 4.5 4.5 4.5h4c0.28331 0 0.5596-0.026565 0.82812-0.076172 0.87847 0.95961 2.3119 1.2191 3.5156 0.63867a5.92 5.92 0 0 1-1.6641-1.4434c0.9658-0.7149 1.6319-1.808 1.7852-3.0645 4e-4 -0.003279 0.00156-0.006486 0.001953-0.009766 5.7e-4 -0.004551 0.001397-0.009117 0.001953-0.013672 0.006869-0.058858 0.011032-0.11819 0.015625-0.17773 0.002839-0.035227 0.005818-0.069998 0.007813-0.10547 2.9e-4 -0.005185 0.001679-0.010435 0.001953-0.015625 0.003873-0.076911 0.005859-0.15452 0.005859-0.23242 0-0.13916-0.007288-0.27624-0.019531-0.41211-0.001111-0.012329-7.44e-4 -0.02481-0.001953-0.03711-3.95e-4 -0.003972-0.001548-0.007749-0.001954-0.011719-1.94e-4 -0.001931 1.98e-4 -0.003927 0-0.005859-0.014546-0.14228-0.037061-0.28196-0.064453-0.41992-0.028497-0.14354-0.063747-0.28564-0.10547-0.42383-0.041704-0.13813-0.090306-0.2722-0.14453-0.4043-0.43544-1.0607-1.2629-1.9142-2.3047-2.3848-0.38836-0.1754-0.80563-0.3001-1.2441-0.35938-0.001275-1.723e-4 -0.00263 1.713e-4 -0.003906 0-0.003189-4.32e-4 -0.006575 4.254e-4 -0.009766 0-0.14194-0.018755-0.28575-0.031802-0.43164-0.037109-0.001297-4.7e-5 -0.00261 4.61e-5 -0.003907 0-0.054498-0.0019364-0.10907-0.0039062-0.16406-0.0039062h-4zm0 1h4c1.939 0 3.5 1.561 3.5 3.5 0 1.939-1.561 3.5-3.5 3.5h-4c-1.939 0-3.5-1.561-3.5-3.5 0-1.939 1.561-3.5 3.5-3.5z" fill="#5d656b"/>
</svg>
