<svg width="16" height="16" version="1.1" xmlns="http://www.w3.org/2000/svg">
 <path d="m3 2c-1.108 0-2 0.892-2 2v8c0 1.108 0.892 2 2 2h10c1.108 0 2-0.892 2-2v-8c0-1.108-0.892-2-2-2h-10zm0 1h10c0.554 0 1 0.446 1 1v8c0 0.554-0.446 1-1 1h-10c-0.554 0-1-0.446-1-1v-8c0-0.554 0.446-1 1-1z" fill="#5d656b" fill-rule="evenodd" stop-color="#000000" stroke-linecap="round" stroke-linejoin="round" style="paint-order:stroke fill markers"/>
 <path d="m2 3.5569v1.2539l4.8945 3.834c0.6061 0.4749 1.6048 0.47294 2.2109-0.00195l4.8945-3.834v-1.25l-5.6914 4.459c-0.17737 0.13897-0.43787 0.13897-0.61523 1e-7z" color="#000000" fill="#5d656b" fill-rule="evenodd" stroke-linecap="round" stroke-linejoin="round" stroke-width=".98537" style="paint-order:stroke fill markers"/>
</svg>
