<svg width="16" height="16" version="1.1" xmlns="http://www.w3.org/2000/svg">
 <path d="m8.1191 3.0762c0.079333 0.00363 0.21236 0.00265 0.23828 0.099609 0.13119 1.0293 0.77912 1.8897 1.4688 2.6094 0.896 1.0899 0.93581 2.7502 0.21094 3.9434 0.1623-0.53667 0.28028-1.0994 0.23828-1.6641-0.04926-0.97533-0.73868-1.7671-1.5273-2.2441-0.085556-0.059109-0.26801-0.21268-0.33594-0.048828-0.01193 1.7246-0.00223 3.4521-0.00586 5.1777 0.12652 1.0039-0.734 2.006-1.7285 1.9785-0.66889-0.01089-1.3363-0.63991-1.2051-1.3555 0.12756-0.95148 1.0965-1.6003 1.9961-1.5723 0.12859-0.03214 0.33888 0.13141 0.41406-0.037109 0.01088-2.1612 0.00274-4.3246 0.00586-6.4863-0.00415-0.182-0.049531-0.44032 0.23047-0.40039z" color="#000000" fill="#5d656b" stroke-width=".51852"/>
 <path d="m3 1c-1.108 0-2 0.892-2 2v10c0 1.108 0.892 2 2 2h10c1.108 0 2-0.892 2-2v-10c0-1.108-0.892-2-2-2h-10zm0 1h10c0.554 0 1 0.446 1 1v10c0 0.554-0.446 1-1 1h-10c-0.554 0-1-0.446-1-1v-10c0-0.554 0.446-1 1-1z" fill="#5d656b"/>
</svg>
