<svg width="16" height="16" version="1.1" xmlns="http://www.w3.org/2000/svg">
 <path d="m5.5 1c-0.277 0-0.5 0.227-0.5 0.5v0.5h1v-0.5c0-0.277-0.223-0.5-0.5-0.5zm0.5 1v0.5c0 0.66667-1 0.66667-1 0v-0.5h-2.5c-0.831 0-1.5 0.669-1.5 1.5v10c0 0.831 0.669 1.5 1.5 1.5h11c0.831 0 1.5-0.669 1.5-1.5v-10c0-0.831-0.669-1.5-1.5-1.5h-2.5v0.5c0 0.66667-1 0.66667-1 0v-0.5zm4 0h1v-0.5c0-0.66667-1-0.66667-1 0zm-7.5 4h11c0.277 0 0.5 0.223 0.5 0.5v7c0 0.277-0.223 0.5-0.5 0.5h-11c-0.27637 5.54e-4 -0.50055-0.22363-0.5-0.5v-7c0-0.277 0.223-0.5 0.5-0.5z" color="#5d656b" fill="#5d656b" overflow="visible" style="isolation:auto;mix-blend-mode:normal"/>
</svg>
