<svg width="16" height="16" version="1.1" xmlns="http://www.w3.org/2000/svg">
 <title>Gnome Symbolic Icon Theme</title>
 <g fill="#363636" stroke-linecap="round" stroke-linejoin="round" stroke-width="2" style="paint-order:stroke fill markers" aria-label="">
  <path d="m5.5 0c-0.20833-9.2518e-18 -0.40364 0.039061-0.58594 0.11719-0.18229 0.078127-0.34115 0.1849-0.47656 0.32031s-0.24219 0.29427-0.32031 0.47656c-0.078126 0.18229-0.11719 0.3776-0.11719 0.58594v9c0 0.20833 0.039061 0.40364 0.11719 0.58594 0.078126 0.18229 0.1849 0.34115 0.32031 0.47656s0.29427 0.24219 0.47656 0.32031c0.18229 0.078127 0.3776 0.11719 0.58594 0.11719h3.8418a3.5 3.5 0 0 1 1.6582-1.6582v-8.8418c0-0.20833-0.039061-0.40364-0.11719-0.58594-0.078125-0.18229-0.1849-0.34115-0.32031-0.47656s-0.29427-0.24219-0.47656-0.32031c-0.18229-0.078127-0.37761-0.11719-0.58594-0.11719h-4zm0 1h4c0.13541 0 0.2526 0.049478 0.35156 0.14844s0.14844 0.21615 0.14844 0.35156v9c0 0.13541-0.049478 0.2526-0.14844 0.35156-0.09896 0.09896-0.21615 0.14844-0.35156 0.14844h-4c-0.13541 0-0.2526-0.049478-0.35156-0.14844-0.09896-0.098958-0.14844-0.21615-0.14844-0.35156v-9c0-0.13541 0.049478-0.2526 0.14844-0.35156s0.21615-0.14844 0.35156-0.14844zm-3.5 7v2.6133c0 1.876 1.5107 3.3867 3.3867 3.3867h1.6133v1h-2v1h5v-0.0625a3.5 3.5 0 0 1-0.6582-0.9375h-1.3418v-1h1.0352a3.5 3.5 0 0 1-0.035156-0.5 3.5 3.5 0 0 1 0.035156-0.5h-3.6699c-1.3102 0-2.3652-1.055-2.3652-2.3652v-2.6348h-1zm10 0v2.0352a3.5 3.5 0 0 1 0.5-0.035156 3.5 3.5 0 0 1 0.5 0.035156v-2.0352h-1z" fill="#5d656b"/>
 </g>
 <circle cx="12.5" cy="13.5" r="2.5" color="#000000" color-rendering="auto" enable-background="new" fill="#5d656b" image-rendering="auto" shape-rendering="auto" solid-color="#000000" style="isolation:auto;mix-blend-mode:normal;paint-order:normal"/>
</svg>
