<svg width="16px" height="16px" version="1.1" viewBox="0 0 16 16" xmlns="http://www.w3.org/2000/svg">
 <path d="m2.002 1a0.999 0.999 0 0 0-1.002 1v10c0 0.554 0.44695 1 1.002 1h10.877l-0.99805-1h-9.8809v-10h12v7.8789l1 1v-8.8789c0-0.554-0.44695-1-1.002-1h-11.996z" fill="#5d656b"/>
 <rect x="4" y="14" width="8" height="1" rx="0" ry="0" fill="#5d656b" paint-order="markers stroke fill"/>
 <path d="m3 3v8h3.6777c-0.12368-0.098939-0.24467-0.20368-0.35938-0.31836-1.7485-1.7489-1.7485-4.6144 0-6.3633 0.76521-0.76484 1.7802-1.2295 2.8594-1.3066 0.081325-0.0058307 0.16306-0.010318 0.24414-0.011719h-6.4219zm6.4219 0c1.2162-0.021011 2.3948 0.45376 3.2598 1.3184 0.1148 0.11482 0.21932 0.23556 0.31836 0.35938v-1.6777h-3.5781zm0.11328 3c-0.05485-0.0012273-0.11071 0.001006-0.16602 0.0058594-0.35129 0.030892-0.68033 0.18423-0.92969 0.43359-0.59402 0.59413-0.59402 1.527 0 2.1211 0.59413 0.59402 1.527 0.59402 2.1211 0 0.59402-0.59413 0.59402-1.527 0-2.1211-0.27482-0.27482-0.64144-0.43086-1.0254-0.43945z" fill="#5d656b" opacity=".35"/>
 <path d="m9.25 4.0098a3.5 3.5 0 0 0-2.2246 1.0156 3.5 3.5 0 0 0 0 4.9492 3.5 3.5 0 0 0 4.5703 0.32812h2e-3l3.2051 3.207c0.19587 0.19587 0.51116 0.19587 0.70703 0s0.19587-0.51116 0-0.70703l-3.2071-3.207a3.5 3.5 0 0 0-0.32812-4.5703 3.5 3.5 0 0 0-2.7246-1.0156zm0.03125 1a2.5 2.5 0 0 1 1.9863 0.72266 2.5 2.5 0 0 1 0 3.5352 2.5 2.5 0 0 1-3.5352 0 2.5 2.5 0 0 1 0-3.5352 2.5 2.5 0 0 1 1.5488-0.72266z" color="#000000" fill="#5d656b" stroke-linecap="round" stroke-linejoin="round" stroke-width="2" style="-inkscape-stroke:none"/>
</svg>
