<svg width="16px" height="16px" version="1.1" viewBox="0 0 16 16" xmlns="http://www.w3.org/2000/svg">
 <path d="m4.5 1c-1.3807 0-2.5 1.1193-2.5 2.5s1.1193 2.5 2.5 2.5 2.5-1.1193 2.5-2.5-1.1193-2.5-2.5-2.5zm0 1c0.82843 0 1.5 0.67157 1.5 1.5s-0.67157 1.5-1.5 1.5-1.5-0.67157-1.5-1.5 0.67157-1.5 1.5-1.5zm7 2c-1.3807 0-2.5 1.1193-2.5 2.5s1.1193 2.5 2.5 2.5 2.5-1.1193 2.5-2.5-1.1193-2.5-2.5-2.5zm0 1a1.5 1.5 0 0 1 1.5 1.5 1.5 1.5 0 0 1-1.5 1.5 1.5 1.5 0 0 1-1.5-1.5 1.5 1.5 0 0 1 1.5-1.5zm-8.5 2c-1.662 0-3 1.338-3 3v1 1c0 0.554 0.446 1 1 1h2 3c0-0.34559 0.043352-0.68056 0.125-1h-0.125-3-2v-2c0-1.108 0.892-2 2-2h3c0.95754 0 1.7526 0.66642 1.9512 1.5625 0.28806-0.17143 0.60028-0.30907 0.92969-0.4043-0.36208-1.2498-1.5112-2.1582-2.8809-2.1582h-3zm7 3c-1.662 0-3 1.338-3 3v2c0 0.554 0.446 1 1 1h2 3 2c0.554 0 1-0.446 1-1v-2c0-1.662-1.338-3-3-3h-3z" fill="#5d656b"/>
 <path d="m3 9c-0.554 0-1 0.446-1 1v1h1 3 0.5332c0.13388-0.23242 0.2905-0.44875 0.4668-0.64844v-0.35156c0-0.554-0.446-1-1-1h-3z" fill="#5d656b" opacity=".35" stop-color="#000000"/>
</svg>
