<svg width="16px" height="16px" version="1.1" viewBox="0 0 16 16" xmlns="http://www.w3.org/2000/svg">
 <path d="m1.9473 3c-1.0839 0.027277-1.9473 0.90931-1.9473 2v6c0 1.108 0.892 2 2 2v-4c0-1.662 1.338-3 3-3h6c1.662 0 3 1.338 3 3v4c1.108 0 2-0.892 2-2v-6c0-1.108-0.892-2-2-2h-12c-0.017312 0-0.03553-4.33e-4 -0.052734 0zm11.553 2a0.5 0.5 0 0 1 0.5 0.5 0.5 0.5 0 0 1-0.5 0.5 0.5 0.5 0 0 1-0.5-0.5 0.5 0.5 0 0 1 0.5-0.5z" fill="#5d656b"/>
 <path d="m5 0c-1.108 0-2.0366 0.8926-2 2v2h1v-2c0-0.554 0.446-1 1-1h6c0.554 0 1.0418 0.44758 1 1v2h1v-2c0-1.108-0.892-2-2-2z" color="#5d656b" fill="#5d656b"/>
 <path d="m5 7c-1.108 0-2 0.892-2 2v5c0 1.108 0.892 2 2 2h6c1.108 0 2-0.892 2-2v-5c0-1.108-0.892-2-2-2zm0 1h6c0.554 0 1 0.446 1 1v5c0 0.554-0.446 1-1 1h-6c-0.554 0-1-0.446-1-1v-5c0-0.554 0.446-1 1-1z" fill="#5d656b" stroke-linecap="round" stroke-linejoin="round" stroke-width="1.0016"/>
 <rect x="5" y="9" width="6" height="5" rx="0" ry="0" fill="#5d656b" opacity=".35" stop-color="#000000"/>
</svg>
