<svg width="16px" height="16px" version="1.1" viewBox="0 0 16 16" xmlns="http://www.w3.org/2000/svg">
 <path d="m2.002 1a0.999 0.999 0 0 0-1.002 1v10c0 0.554 0.44695 1 1.002 1h11.996a0.999 0.999 0 0 0 1.002-1v-9.8789l-1 1.002v8.877h-12v-10h8.877l1.002-1h-9.877z" fill="#5d656b"/>
 <rect x="4" y="14" width="8" height="1" rx="0" ry="0" fill="#5d656b" paint-order="markers stroke fill"/>
 <path d="m3 3v8h1.0117v-4c1e-7 -2.1998 1.8044-4 4-4h-5.0117zm5.0117 0c0.54822 0 1.0717 0.11407 1.5488 0.31641l0.31641-0.31641h-1.8652zm4.9883 1.123-1.3125 1.3125c0.20681 0.48156 0.32422 1.0099 0.32422 1.5645 0 2.1955-1.7984 4.0104-4.0039 4h4.9922v-6.877zm-5 1.877c-0.56413 0-1 0.43587-1 1v1h1c0.56413 0 1-0.43587 1-1s-0.43587-1-1-1z" fill="#5d656b" opacity=".35"/>
 <path d="m14.293 0-3.8418 3.8418c0.26432 0.20518 0.50185 0.44271 0.70703 0.70703l4.5488-4.5488h-1.4141zm-6.2813 4c-1.6563 0-3 1.3398-3 3v3h3c1.6602 0.0078 3-1.3438 3-3 0-1.6602-1.3398-3-3-3zm-0.011719 1a2 2 0 0 1 2 2 2 2 0 0 1-2 2h-2v-2a2 2 0 0 1 2-2z" color="#000000" fill="#5d656b" stroke-width="2" style="-inkscape-stroke:none"/>
</svg>
