<svg width="16px" height="16px" version="1.1" viewBox="0 0 16 16" xmlns="http://www.w3.org/2000/svg">
 <path d="m5 0c-0.554 0-1 0.446-1 1v1h-1c-1.662 0-3 1.338-3 3v8c0 1.662 1.338 3 3 3h6c0.89093 0 1.6859-0.38722 2.2344-1h-8.2344c-1.108 0-2-0.892-2-2v-8c0-1.108 0.892-2 2-2h6c0.74278 0 1.3874 0.40192 1.7324 1h1.0938c-0.41051-1.1667-1.5157-2-2.8262-2h-1v-1c0-0.554-0.446-1-1-1h-2zm6 5c-1.5275 7.057e-4 -2.8108 1.7229-2.9805 4h-2.5195c-0.277 0-0.5 0.223-0.5 0.5s0.223 0.5 0.5 0.5h2.5195c0.16972 2.2771 1.453 3.9993 2.9805 4h2c0.554 0 1-0.446 1-1v-1h1.5c0.277 0 0.5-0.223 0.5-0.5s-0.223-0.5-0.5-0.5h-1.5v-3h1.5c0.277 0 0.5-0.223 0.5-0.5s-0.223-0.5-0.5-0.5h-1.5v-1c0-0.554-0.446-1-1-1h-2zm0 1h2v1 1 3 1 1h-2c-0.38806-1.78e-4 -0.80099-0.21232-1.1973-0.74414-0.39628-0.53182-0.71279-1.3592-0.78516-2.3301l-0.033203-0.42578 0.033203-0.42578c0.072354-0.97088 0.38888-1.7983 0.78516-2.3301 0.39628-0.53182 0.80921-0.74396 1.1973-0.74414z" fill="#5d656b"/>
 <path d="m3 4c-0.554 0-1 0.446-1 1v8c0 0.554 0.446 1 1 1h5.6836c-0.17529-0.16844-0.33803-0.35242-0.48438-0.54883-0.50133-0.67281-0.8004-1.5304-0.98828-2.4512h-1.7109c-0.8137 0-1.5-0.6863-1.5-1.5s0.6863-1.5 1.5-1.5h1.7109c0.18788-0.92074 0.48695-1.7784 0.98828-2.4512 0.39995-0.53675 0.91527-0.98204 1.5078-1.2559-0.18075-0.18075-0.43003-0.29297-0.70703-0.29297h-6z" fill="#5d656b" opacity=".35" stop-color="#000000" stroke-linecap="round" stroke-linejoin="round" stroke-width="2"/>
 <path d="m11 6c-0.38806 1.793e-4 -0.80099 0.21232-1.1973 0.74414-0.39628 0.53182-0.7128 1.3592-0.78516 2.3301l-0.033203 0.42578 0.033203 0.42578c0.072363 0.97089 0.38888 1.7983 0.78516 2.3301 0.39628 0.53182 0.80921 0.74396 1.1973 0.74414h2v-1-1-3-1-1h-2z" color="#000000" fill="#5d656b" opacity=".35" stroke-width="2" style="-inkscape-stroke:none"/>
</svg>
