<svg width="16px" height="16px" version="1.1" viewBox="0 0 16 16" xmlns="http://www.w3.org/2000/svg">
 <path d="m8 2a6 6 0 0 0-0.85352 0.060547 6 6 0 0 0-5.0859 5.0859 6 6 0 0 0-0.060547 0.85352 6 6 0 0 0 0.060547 0.85352 6 6 0 0 0 5.0859 5.0859 6 6 0 0 0 0.85352 0.060547 6 6 0 0 0 3.9336-1.4688c-0.32585-0.20279-0.62262-0.45499-0.88867-0.74023-0.87502 0.70367-1.8952 1.2054-3.041 1.209h-0.0019531-0.0019531c-2.7496 0-5-2.2504-5-5 0-2.7496 2.2504-5 5-5 2.7496 0 5 2.2504 5 5v1.5c0 0.2943 0.2057 0.5 0.5 0.5 0.053625 0 0.10336-0.0085333 0.15039-0.021484a6 6 0 0 0 0.34961-1.9785 6 6 0 0 0-0.007812-0.29492 6 6 0 0 0-0.021485-0.29297 6 6 0 0 0-0.035156-0.29297 6 6 0 0 0-5.0547-5.0547 6 6 0 0 0-0.29297-0.035156 6 6 0 0 0-0.29297-0.021484 6 6 0 0 0-0.29492-0.0078125zm0 4c-1.1164 0-2 0.88359-2 2s0.88359 2 2 2 2-0.88359 2-2-0.88359-2-2-2z" fill="#5d656b" opacity=".35" stop-color="#000000" stroke-linecap="round" stroke-linejoin="round" stroke-width="2"/>
 <path d="m8 0c-4.4124 0-8 3.5876-8 8s3.5876 8 8 8a0.5 0.5 0 0 0 0.5-0.5 0.5 0.5 0 0 0-0.5-0.5c-3.8719 0-7-3.1281-7-7s3.1281-7 7-7 7 3.1281 7 7v1.5c0 0.831-0.669 1.5-1.5 1.5s-1.5-0.669-1.5-1.5v-1.5a4 4 0 0 0-4-4 4 4 0 0 0-4 4 4 4 0 0 0 4 4 4 4 0 0 0 3.1738-1.582c0.36471 0.92778 1.2659 1.582 2.3262 1.582 1.385 0 2.5-1.115 2.5-2.5v-1.5c0-4.4124-3.5876-8-8-8zm0 5a3 3 0 0 1 3 3 3 3 0 0 1-3 3 3 3 0 0 1-3-3 3 3 0 0 1 3-3z" fill="#5d656b"/>
</svg>
