<svg width="16" height="16" version="1.1" xmlns="http://www.w3.org/2000/svg">
 <path d="m3 2c-1.108 0-2 0.892-2 2v6c0 1.108 0.892 2 2 2h1c0 1.108 0.892 2 2 2h4c1.108 0 2-0.892 2-2h1c1.108 0 2-0.892 2-2v-6c0-1.108-0.892-2-2-2zm0 1h10c0.554 0 1 0.446 1 1v6c0 0.554-0.446 1-1 1h-2v1c0 0.554-0.446 1-1 1h-4c-0.554 0-1-0.446-1-1v-1h-2c-0.554 0-1-0.446-1-1v-6c0-0.554 0.446-1 1-1z" fill="#5d656b"/>
 <path d="m3 4v6h3v2h4v-2h3v-6h-10zm3.5 1c0.277 0 0.5 0.223 0.5 0.5v3c0 0.277-0.223 0.5-0.5 0.5s-0.5-0.223-0.5-0.5v-3c0-0.277 0.223-0.5 0.5-0.5zm3 0c0.277 0 0.5 0.223 0.5 0.5v3c0 0.277-0.223 0.5-0.5 0.5s-0.5-0.223-0.5-0.5v-3c0-0.277 0.223-0.5 0.5-0.5z" fill="#5d656b" opacity=".35" stop-color="#000000"/>
</svg>
