<svg width="16.002" height="16" version="1.1" xmlns="http://www.w3.org/2000/svg">
 <path d="m8 2c-3.3137 0-6 2.6863-6 6 0.002513 2.6903 1.7955 5.0501 4.3867 5.7734-0.27363-0.21346-0.41704-0.5535-0.37891-0.89844l0.35938-2.875h-0.86719c-0.77152-5.023e-4 -1.2519-0.83743-0.86328-1.5039l3.5-6c0.13503-0.22258 0.35154-0.38374 0.60352-0.44922-0.24554-0.030876-0.49276-0.046531-0.74023-0.046875zm1.6309 0.22656c0.26707 0.21731 0.40357 0.55673 0.36133 0.89844l-0.35938 2.875h0.86719c0.77152 5.025e-4 1.2519 0.83743 0.86328 1.5039l-3.5 6c-0.13254 0.21831-0.34358 0.37763-0.58984 0.44531 0.24094 0.031624 0.48357 0.048583 0.72656 0.050781 3.3137 0 6-2.6863 6-6-2.99e-4 -2.6854-1.7849-5.0435-4.3691-5.7734z" fill="#5d656b" opacity=".35" stop-color="#000000" stroke-linecap="round" stroke-linejoin="round" stroke-width="2"/>
 <path d="m8 0a8 8 0 0 0-8 8 8 8 0 0 0 8 8 8 8 0 0 0 8-8 8 8 0 0 0-8-8zm0 1a7 7 0 0 1 7 7 7 7 0 0 1-7 7 7 7 0 0 1-7-7 7 7 0 0 1 7-7z" fill="#5d656b" stop-color="#000000" stroke-linecap="round" stroke-linejoin="round" stroke-width="2"/>
 <path d="m9 3-3.5 6h2l-0.5 4 3.5-6h-2z" color="#bebebe" fill="#5d656b" stroke-linecap="round" stroke-linejoin="round" stroke-width="2" style="-inkscape-stroke:none"/>
</svg>
