<?xml version="1.0" encoding="UTF-8" standalone="no"?>
<svg
   xmlns:osb="http://www.openswatchbook.org/uri/2009/osb"
   xmlns:dc="http://purl.org/dc/elements/1.1/"
   xmlns:cc="http://creativecommons.org/ns#"
   xmlns:rdf="http://www.w3.org/1999/02/22-rdf-syntax-ns#"
   xmlns:svg="http://www.w3.org/2000/svg"
   xmlns="http://www.w3.org/2000/svg"
   xmlns:sodipodi="http://sodipodi.sourceforge.net/DTD/sodipodi-0.dtd"
   xmlns:inkscape="http://www.inkscape.org/namespaces/inkscape"
   width="16"
   version="1.1"
   style="enable-background:new"
   id="svg7384"
   height="16"
   sodipodi:docname="preferences-desktop-accessibility-symbolic.svg"
   inkscape:version="0.92.4 (5da689c313, 2019-01-14)">
  <sodipodi:namedview
     pagecolor="#ffffff"
     bordercolor="#666666"
     borderopacity="1"
     objecttolerance="10"
     gridtolerance="10"
     guidetolerance="10"
     inkscape:pageopacity="0"
     inkscape:pageshadow="2"
     inkscape:window-width="1366"
     inkscape:window-height="708"
     id="namedview21"
     showgrid="true"
     showguides="false"
     inkscape:zoom="20.85965"
     inkscape:cx="7.9842052"
     inkscape:cy="6.6825715"
     inkscape:window-x="0"
     inkscape:window-y="30"
     inkscape:window-maximized="1"
     inkscape:current-layer="svg7384">
    <inkscape:grid
       type="xygrid"
       id="grid831" />
  </sodipodi:namedview>
  <metadata
     id="metadata90">
    <rdf:RDF>
      <cc:Work
         rdf:about="">
        <dc:format>image/svg+xml</dc:format>
        <dc:type
           rdf:resource="http://purl.org/dc/dcmitype/StillImage" />
        <dc:title>Moka Symbolic Icon Theme</dc:title>
      </cc:Work>
    </rdf:RDF>
  </metadata>
  <title
     id="title8473">Moka Symbolic Icon Theme</title>
  <defs
     id="defs7386">
    <linearGradient
       osb:paint="solid"
       id="linearGradient5606">
      <stop
         style="stop-color:#000000;stop-opacity:1;"
         offset="0"
         id="stop5608" />
    </linearGradient>
    <filter
       style="color-interpolation-filters:sRGB"
       id="filter7554">
      <feBlend
         mode="darken"
         in2="BackgroundImage"
         id="feBlend7556" />
    </filter>
  </defs>
  <g
     transform="translate(-701.00022,-14.996641)"
     style="display:inline"
     id="layer9" />
  <g
     transform="translate(-701.00022,-14.996641)"
     style="display:inline;filter:url(#filter7554)"
     id="layer10" />
  <g
     transform="translate(-460.00002,-631.99664)"
     style="display:inline"
     id="layer1" />
  <g
     transform="translate(-701.00022,-14.996641)"
     style="display:inline"
     id="layer14" />
  <g
     transform="translate(-701.00022,-14.996641)"
     style="display:inline"
     id="layer15" />
  <g
     transform="translate(-701.00022,-14.996641)"
     style="display:inline"
     id="g71291" />
  <g
     transform="translate(-460.00002,-481.99664)"
     style="display:inline"
     id="layer2" />
  <g
     transform="translate(-460.00002,-481.99664)"
     style="display:inline"
     id="g6058">
    <path
       style="color:#000000;display:inline;overflow:visible;visibility:visible;fill:#bebebe;fill-opacity:1;fill-rule:nonzero;stroke:none;stroke-width:2;marker:none;enable-background:accumulate"
       d="M 8 1 A 7 7 0 0 0 1 8 A 7 7 0 0 0 8 15 A 7 7 0 0 0 15 8 A 7 7 0 0 0 8 1 z M 8 2 A 6 6 0 0 1 14 8 A 6 6 0 0 1 8 14 A 6 6 0 0 1 2 8 A 6 6 0 0 1 8 2 z "
       transform="translate(460.00002,481.99664)"
       id="path6194" />
    <path
       style="color:#000000;display:inline;overflow:visible;visibility:visible;fill:#bebebe;fill-opacity:1;fill-rule:nonzero;stroke:none;stroke-width:2;marker:none;enable-background:accumulate"
       id="path6327"
       d="m 467.96682,484.99664 c -0.68883,0 -1.2461,0.55923 -1.2461,1.24805 0,0.68883 0.55727,1.24609 1.2461,1.24609 0.68882,0 1.24804,-0.55726 1.24804,-1.24609 0,-0.68882 -0.55922,-1.24805 -1.24804,-1.24805 z m -3.97852,3 c -0.27088,0 -0.48828,0.2174 -0.48828,0.48828 l 0,0.0234 c 0,0.27088 0.2174,0.48828 0.48828,0.48828 l 2.51172,0.25004 0,1.75 -1.43164,2.74801 c -0.36601,0.58317 0.53548,1.10937 0.86328,0.5039 l 1.60547,-2.25191 0.92578,0 1.60547,2.25195 c 0.3278,0.60547 1.22929,0.0793 0.86328,-0.5039 l -1.43164,-2.74805 0,-1.75 2.51172,-0.25 c 0.27088,0 0.48828,-0.2174 0.48828,-0.48828 l 0,-0.0234 c 0,-0.271 -0.2174,-0.48832 -0.48828,-0.48832 z" />
  </g>
  <g
     transform="translate(-701.00022,-14.996641)"
     style="display:inline"
     id="layer12" />
</svg>
