<svg width="16" height="16" version="1.1" xmlns="http://www.w3.org/2000/svg">
 <path d="M7 4h2v2H7zm0 3h2v5H7z" color="#5d656b" fill="#5d656b" overflow="visible"/>
 <path d="m8 0a8 8 0 0 0-8 8 8 8 0 0 0 8 8 8 8 0 0 0 8-8 8 8 0 0 0-8-8zm0 1a7 7 0 0 1 7 7 7 7 0 0 1-7 7 7 7 0 0 1-7-7 7 7 0 0 1 7-7z" fill="#5d656b" stop-color="#000000" stroke-linecap="round" stroke-linejoin="round" stroke-width="2"/>
 <path d="m8 2a6 6 0 0 0-6 6 6 6 0 0 0 6 6 6 6 0 0 0 6-6 6 6 0 0 0-6-6zm-1 1h2c0.554 0 1 0.446 1 1v8c0 0.554-0.446 1-1 1h-2c-0.554 0-1-0.446-1-1v-8c0-0.554 0.446-1 1-1z" fill="#5d656b" opacity=".35" stop-color="#000000"/>
</svg>
