<?xml version="1.0" encoding="UTF-8" standalone="no"?>
<svg
   xmlns:dc="http://purl.org/dc/elements/1.1/"
   xmlns:cc="http://creativecommons.org/ns#"
   xmlns:rdf="http://www.w3.org/1999/02/22-rdf-syntax-ns#"
   xmlns:svg="http://www.w3.org/2000/svg"
   xmlns="http://www.w3.org/2000/svg"
   xmlns:sodipodi="http://sodipodi.sourceforge.net/DTD/sodipodi-0.dtd"
   xmlns:inkscape="http://www.inkscape.org/namespaces/inkscape"
   width="16"
   height="16"
   version="1.1"
   id="svg6"
   sodipodi:docname="preferences-system-notifications-symbolic.svg"
   inkscape:version="0.92.4 (5da689c313, 2019-01-14)">
  <metadata
     id="metadata12">
    <rdf:RDF>
      <cc:Work
         rdf:about="">
        <dc:format>image/svg+xml</dc:format>
        <dc:type
           rdf:resource="http://purl.org/dc/dcmitype/StillImage" />
      </cc:Work>
    </rdf:RDF>
  </metadata>
  <defs
     id="defs10" />
  <sodipodi:namedview
     pagecolor="#ffffff"
     bordercolor="#666666"
     borderopacity="1"
     objecttolerance="10"
     gridtolerance="10"
     guidetolerance="10"
     inkscape:pageopacity="0"
     inkscape:pageshadow="2"
     inkscape:window-width="1366"
     inkscape:window-height="711"
     id="namedview8"
     showgrid="true"
     inkscape:zoom="41.7193"
     inkscape:cx="8.0988206"
     inkscape:cy="8.2069368"
     inkscape:window-x="0"
     inkscape:window-y="27"
     inkscape:window-maximized="1"
     inkscape:current-layer="svg6">
    <inkscape:grid
       type="xygrid"
       id="grid822" />
  </sodipodi:namedview>
  <path
     style="opacity:1;fill:#444444"
     d="M 7.7207031 3 C 7.8357581 3.3180931 7.9065832 3.6544239 7.9511719 4 L 14 4 L 14 12 L 2 12 L 2 8.7246094 C 1.6468844 8.5950864 1.3091416 8.4310911 1 8.2207031 L 1 12 C 1 12.55 1.45 13 2 13 L 9 13 L 11 15 L 13 13 L 14 13 C 14.55 13 15 12.55 15 12 L 15 4 C 15 3.45 14.55 3 14 3 L 7.7207031 3 z "
     id="path2" />
  <path
     style="fill:#444444"
     d="M 3.5,1 C 1.57,1 0,2.57 0,4.5 0,6.43 1.57,8 3.5,8 5.43,8 7,6.43 7,4.5 7,2.57 5.43,1 3.5,1 Z M 3,2 H 4 V 5 H 3 Z M 3,6 H 4 V 7 H 3 Z"
     id="path4" />
  <path
     style="opacity:0.35;fill:#434343;fill-opacity:1;fill-rule:evenodd;stroke:none;stroke-width:2;stroke-linecap:square;stroke-linejoin:miter;stroke-miterlimit:4;stroke-dasharray:none;stroke-opacity:1;paint-order:fill markers stroke"
     d="M 7.96875 5 A 4.5 4.5 0 0 1 3.5 9 A 4.5 4.5 0 0 1 3 8.96875 L 3 11 L 13 11 L 13 5 L 7.96875 5 z "
     id="rect824" />
</svg>
