<?xml version="1.0" encoding="UTF-8" standalone="no"?>
<svg
   xmlns:dc="http://purl.org/dc/elements/1.1/"
   xmlns:cc="http://creativecommons.org/ns#"
   xmlns:rdf="http://www.w3.org/1999/02/22-rdf-syntax-ns#"
   xmlns:svg="http://www.w3.org/2000/svg"
   xmlns="http://www.w3.org/2000/svg"
   xmlns:sodipodi="http://sodipodi.sourceforge.net/DTD/sodipodi-0.dtd"
   xmlns:inkscape="http://www.inkscape.org/namespaces/inkscape"
   width="16"
   height="16"
   version="1.1"
   id="svg6"
   sodipodi:docname="preferences-system-privacy-symbolic.svg"
   inkscape:version="0.92.4 (5da689c313, 2019-01-14)">
  <metadata
     id="metadata12">
    <rdf:RDF>
      <cc:Work
         rdf:about="">
        <dc:format>image/svg+xml</dc:format>
        <dc:type
           rdf:resource="http://purl.org/dc/dcmitype/StillImage" />
      </cc:Work>
    </rdf:RDF>
  </metadata>
  <defs
     id="defs10" />
  <sodipodi:namedview
     pagecolor="#ffffff"
     bordercolor="#666666"
     borderopacity="1"
     objecttolerance="10"
     gridtolerance="10"
     guidetolerance="10"
     inkscape:pageopacity="0"
     inkscape:pageshadow="2"
     inkscape:window-width="1366"
     inkscape:window-height="711"
     id="namedview8"
     showgrid="true"
     inkscape:zoom="14.75"
     inkscape:cx="10.127609"
     inkscape:cy="7.7522287"
     inkscape:window-x="0"
     inkscape:window-y="27"
     inkscape:window-maximized="1"
     inkscape:current-layer="svg6">
    <inkscape:grid
       type="xygrid"
       id="grid822" />
  </sodipodi:namedview>
  <path
     style="opacity:0.3;fill:#434343;fill-opacity:1;fill-rule:evenodd;stroke:none;stroke-width:2;stroke-linecap:square;stroke-linejoin:miter;stroke-miterlimit:4;stroke-dasharray:none;stroke-opacity:1;paint-order:fill markers stroke"
     d="M 8 2 A 6 6 0 0 0 2 8 A 6 6 0 0 0 8 14 A 6 6 0 0 0 14 8 A 6 6 0 0 0 8 2 z M 8 3 L 9.2207031 4.2207031 C 10.830703 4.7407031 12 6.22 12 8 C 12 10.21 10.21 12 8 12 C 5.79 12 4 10.21 4 8 C 4 6.22 5.1692969 4.7407031 6.7792969 4.2207031 L 8 3 z M 8 3 C 7.8538364 3 7.7093977 3.0091755 7.5664062 3.0214844 A 5 5 0 0 1 8 3 z M 7.3085938 3.0527344 C 7.2320395 3.0633561 7.1554866 3.0738392 7.0800781 3.0878906 A 5 5 0 0 1 7.3085938 3.0527344 z M 9.0351562 3.109375 A 5 5 0 0 1 9.9238281 3.3867188 C 9.639571 3.2679091 9.3431118 3.1743101 9.0351562 3.109375 z M 6.921875 3.1230469 C 6.6399816 3.1852011 6.3673367 3.2693949 6.1054688 3.3769531 A 5 5 0 0 1 6.921875 3.1230469 z M 9.9628906 3.4023438 A 5 5 0 0 1 10.757812 3.8339844 C 10.507399 3.6677862 10.242179 3.5218827 9.9628906 3.4023438 z M 5.9765625 3.4355469 C 5.7207371 3.5493027 5.4732571 3.6787334 5.2421875 3.8320312 A 5 5 0 0 1 5.9765625 3.4355469 z M 10.808594 3.8632812 A 5 5 0 0 1 11.501953 4.4375 C 11.287984 4.2271548 11.05745 4.0326694 10.808594 3.8632812 z M 5.1445312 3.9042969 C 4.9085269 4.0692739 4.6842834 4.2508833 4.4804688 4.453125 A 5 5 0 0 1 5.1445312 3.9042969 z M 11.546875 4.4804688 A 5 5 0 0 1 12.095703 5.1445312 C 11.930726 4.9085269 11.749117 4.6842834 11.546875 4.4804688 z M 4.4375 4.4980469 C 4.2271548 4.7120157 4.0326694 4.9425501 3.8632812 5.1914062 A 5 5 0 0 1 4.4375 4.4980469 z M 3.8339844 5.2421875 C 3.6677862 5.4926013 3.5218827 5.7578212 3.4023438 6.0371094 A 5 5 0 0 1 3.8339844 5.2421875 z M 12.167969 5.2421875 A 5 5 0 0 1 12.564453 5.9765625 C 12.450697 5.7207371 12.321267 5.4732571 12.167969 5.2421875 z M 3.3867188 6.0761719 C 3.2679091 6.360429 3.1743101 6.6568882 3.109375 6.9648438 A 5 5 0 0 1 3.3867188 6.0761719 z M 12.623047 6.1054688 A 5 5 0 0 1 12.876953 6.921875 C 12.814799 6.6399816 12.730605 6.3673367 12.623047 6.1054688 z M 12.912109 7.0800781 A 5 5 0 0 1 12.947266 7.3085938 C 12.936644 7.2320395 12.926161 7.1554866 12.912109 7.0800781 z M 12.978516 7.5664062 A 5 5 0 0 1 13 8 C 13 7.8538364 12.990824 7.7093977 12.978516 7.5664062 z M 3 8 C 3 8.1468475 3.0089717 8.2918173 3.0214844 8.4355469 A 5 5 0 0 1 3 8 z M 3.0507812 8.6777344 C 3.0622655 8.7616817 3.0742199 8.8451362 3.0898438 8.9277344 A 5 5 0 0 1 3.0507812 8.6777344 z M 12.896484 9.0136719 A 5 5 0 0 1 12.607422 9.9414062 C 12.732707 9.6455936 12.829884 9.3348776 12.896484 9.0136719 z M 3.1210938 9.0644531 C 3.1842994 9.3533141 3.2698618 9.6342135 3.3808594 9.9023438 A 5 5 0 0 1 3.1210938 9.0644531 z M 12.605469 9.9472656 A 5 5 0 0 1 12.148438 10.787109 C 12.326038 10.523711 12.479922 10.242682 12.605469 9.9472656 z M 3.4238281 10 C 3.5419976 10.268895 3.6800777 10.527611 3.8417969 10.769531 A 5 5 0 0 1 3.4238281 10 z M 12.144531 10.792969 A 5 5 0 0 1 11.535156 11.53125 A 5 5 0 0 1 10.820312 12.123047 C 11.07628 11.947278 11.316451 11.750257 11.535156 11.53125 C 11.760758 11.305336 11.965138 11.058217 12.144531 10.792969 z M 3.8828125 10.826172 C 4.0562645 11.077952 4.2493786 11.315487 4.4648438 11.53125 C 4.6910938 11.757812 4.9390625 11.962402 5.2050781 12.142578 C 5.4706222 12.322435 5.7542546 12.47864 6.0527344 12.605469 A 5 5 0 0 1 5.2050781 12.142578 A 5 5 0 0 1 4.4648438 11.53125 A 5 5 0 0 1 3.8828125 10.826172 z M 10.779297 12.150391 A 5 5 0 0 1 10 12.576172 C 10.27273 12.456329 10.534537 12.314936 10.779297 12.150391 z M 6.0546875 12.605469 C 6.3456615 12.728988 6.6508137 12.823872 6.9667969 12.890625 A 5 5 0 0 1 6.0546875 12.605469 z M 9.9082031 12.617188 A 5 5 0 0 1 9.078125 12.876953 C 9.3647284 12.813526 9.642338 12.727616 9.9082031 12.617188 z M 8.9199219 12.912109 A 5 5 0 0 1 8.6914062 12.947266 C 8.7679605 12.936601 8.8445134 12.926215 8.9199219 12.912109 z M 8.4335938 12.978516 A 5 5 0 0 1 8 13 C 8.1461636 13 8.2906023 12.990876 8.4335938 12.978516 z "
     id="path832" />
  <path
     style="fill:#444444"
     d="M 8,4 6.66,5.34 C 5.68,5.84 5,6.83 5,8 5,9.65 6.34,11 8,11 9.66,11 11,9.65 11,8 11,6.83 10.32,5.84 9.34,5.34 Z"
     id="path4"
     inkscape:connector-curvature="0"
     sodipodi:nodetypes="ccssscc" />
  <path
     style="fill:#444444"
     d="M 8 0 C 3.58 0 0 3.58 0 8 C 0 12.41 3.58 16 8 16 C 12.42 16 16 12.41 16 8 C 16 3.58 12.42 0 8 0 z M 8 1 A 7 7 0 0 1 15 8 A 7 7 0 0 1 8 15 A 7 7 0 0 1 1 8 A 7 7 0 0 1 8 1 z "
     id="path827" />
</svg>
