<svg width="16" height="16" version="1.1" xmlns="http://www.w3.org/2000/svg">
 <path d="m10 3c-1.1046 0-2 0.89543-2 2 8.913e-4 0.14058 0.016603 0.28068 0.046875 0.41797l-2.541 1.2695c-0.37912-0.4359-0.92816-0.68658-1.5059-0.6875-1.1046 0-2 0.89543-2 2s0.89543 2 2 2c0.57836-3.723e-4 1.1283-0.2511 1.5078-0.6875l2.5371 1.2676c-0.029752 0.138-0.04481 0.27876-0.044922 0.41992 0 1.1046 0.89543 2 2 2 1.1046 0 2-0.89543 2-2 0-1.1046-0.89543-2-2-2-0.57836 3.723e-4 -1.1283 0.2511-1.5078 0.6875l-2.5371-1.2676c0.029752-0.138 0.04481-0.27876 0.044922-0.41992-8.913e-4 -0.14058-0.016603-0.28068-0.046875-0.41797l2.541-1.2695c0.37912 0.4359 0.92816 0.68658 1.5059 0.6875 1.1046 0 2-0.89543 2-2s-0.89543-2-2-2zm0 1a1 1 0 0 1 1 1 1 1 0 0 1-1 1 1 1 0 0 1-1-1 1 1 0 0 1 1-1zm-6 3a1 1 0 0 1 1 1 1 1 0 0 1-1 1 1 1 0 0 1-1-1 1 1 0 0 1 1-1zm6 3a1 1 0 0 1 1 1 1 1 0 0 1-1 1 1 1 0 0 1-1-1 1 1 0 0 1 1-1z" fill="#5d656b" style="paint-order:stroke fill markers"/>
 <path d="m8 0a8 8 0 0 0-8 8 8 8 0 0 0 8 8 8 8 0 0 0 8-8 8 8 0 0 0-8-8zm0 1a7 7 0 0 1 7 7 7 7 0 0 1-7 7 7 7 0 0 1-7-7 7 7 0 0 1 7-7z" fill="#5d656b" stop-color="#000000" stroke-linecap="round" stroke-linejoin="round" stroke-width="2"/>
 <circle cx="10" cy="5" r="1" fill="#5d656b" opacity=".35" stop-color="#000000"/>
 <circle cx="4" cy="8" r="1" fill="#5d656b" opacity=".35" stop-color="#000000"/>
 <circle cx="10" cy="11" r="1" fill="#5d656b" opacity=".35" stop-color="#000000"/>
</svg>
