<svg width="16" height="16" version="1" xmlns="http://www.w3.org/2000/svg">
 <path d="m8 5a4 4 0 0 0-4 4 4 4 0 0 0 4 4 4 4 0 0 0 4-4 4 4 0 0 0-4-4zm0 1a3 3 0 0 1 3 3 3 3 0 0 1-3 3 3 3 0 0 1-3-3 3 3 0 0 1 3-3zm0 2a1 1 0 0 0-1 1 1 1 0 0 0 1 1 1 1 0 0 0 1-1 1 1 0 0 0-1-1z" fill="#5d656b" fill-rule="evenodd" opacity=".5" stop-color="#000000" style="paint-order:stroke fill markers"/>
 <path d="m8 7a2 2 0 0 0-2 2 2 2 0 0 0 2 2 2 2 0 0 0 2-2 2 2 0 0 0-2-2zm0 1a1 1 0 0 1 1 1 1 1 0 0 1-1 1 1 1 0 0 1-1-1 1 1 0 0 1 1-1z" fill="#5d656b" style="paint-order:stroke fill markers"/>
 <path d="m4 0c-1.662 0-3 1.338-3 3v10c0 1.662 1.338 3 3 3h8c1.662 0 3-1.338 3-3v-10c0-1.662-1.338-3-3-3h-8zm0 1h8c1.108 0 2 0.892 2 2v10c0 1.108-0.892 2-2 2h-8c-1.108 0-2-0.892-2-2v-10c0-1.108 0.892-2 2-2z" fill="#5d656b" fill-rule="evenodd" stop-color="#000000" style="paint-order:stroke fill markers"/>
 <circle cx="8" cy="3" r="1" fill="#5d656b" fill-rule="evenodd" stop-color="#000000" style="paint-order:stroke fill markers"/>
</svg>
