<svg width="16" height="16" version="1.1" xmlns="http://www.w3.org/2000/svg">
 <path d="m8 2a3 3 0 0 0-3 3 3 3 0 0 0 1.3887 2.5234c0.16797-0.29734 0.38503-0.56244 0.64062-0.78516a2 2 0 0 1-1.0293-1.7383 2 2 0 0 1 2-2 2 2 0 0 1 2 2 2 2 0 0 1-0.28125 1h1.0977a3 3 0 0 0 0.18359-1 3 3 0 0 0-3-3zm-3 8c-1.662 0-3 1.338-3 3v1c0 0.554 0.446 1 1 1h3.1738c-0.11011-0.31294-0.17383-0.64848-0.17383-1h-3v-1c0-1.108 0.892-2 2-2h1v-1h-1z" fill="#5d656b" fill-rule="evenodd" stop-color="#000000" stroke-linecap="round" stroke-linejoin="round" style="paint-order:stroke fill markers"/>
 <rect x="11" y="9" width="1" height="1" fill="#5d656b" fill-rule="evenodd" stop-color="#000000" stroke-linecap="round" stroke-linejoin="round" style="paint-order:stroke fill markers"/>
 <rect x="11" y="11" width="1" height="3" fill="#5d656b" fill-rule="evenodd" stop-color="#000000" stroke-linecap="round" stroke-linejoin="round" style="paint-order:stroke fill markers"/>
 <path d="m9 7c-1.108 0-2 0.892-2 2v5c0 1.108 0.892 2 2 2h5c1.108 0 2-0.892 2-2v-5c0-1.108-0.892-2-2-2zm0 1h5c0.554 0 1 0.446 1 1v5c0 0.554-0.446 1-1 1h-5c-0.554 0-1-0.446-1-1v-5c0-0.554 0.446-1 1-1z" fill="#5d656b" fill-rule="evenodd" stop-color="#000000" stroke-linecap="round" stroke-linejoin="round" style="paint-order:stroke fill markers"/>
</svg>
