<svg width="16" height="16" version="1.1" xmlns="http://www.w3.org/2000/svg">
 <path d="m4.014 3h1v0.941c0.107 0.013 0.22 0.01 0.324 0.034 0.225 0.049 0.46 0.12 0.701 0.209 0.057642 0.02236 0.084136 0.079322 0.06 0.129l-0.314 0.64c-0.024526 0.050363-0.092114 0.074819-0.152 0.055-0.19426-0.070081-0.39263-0.12819-0.594-0.174-0.14624-0.031688-0.29537-0.04811-0.445-0.049-0.166 0-0.276 0.033-0.348 0.086-0.070728 0.045762-0.11155 0.12588-0.107 0.21-0.00204 0.048505 0.012026 0.096322 0.04 0.136 0.043972 0.052541 0.09718 0.096599 0.157 0.13h2e-3c0.073 0.042 0.28 0.134 0.603 0.264 0.44 0.178 0.749 0.356 0.928 0.553 0.177 0.193 0.262 0.43 0.262 0.701 0 0.376-0.168 0.689-0.494 0.908-0.19023 0.12151-0.40154 0.20631-0.623 0.25v0.977h-1v-0.928c-0.381-0.026-0.739-0.087-1.051-0.217-0.040878-0.016603-0.06692-0.051584-0.067-0.09v-0.767c0.0011429-0.071813 0.088585-0.11922 0.166-0.09 0.308 0.116 0.564 0.197 0.768 0.242 0.208 0.047 0.397 0.07 0.563 0.07 0.198 0 0.336-0.035 0.421-0.087 0.086-0.052 0.127-0.114 0.127-0.227 0-0.057-0.02-0.1-0.056-0.142 7.9e-6 -6.666e-4 7.9e-6 -0.00133 0-2e-3 -0.054503-0.060825-0.11955-0.1113-0.192-0.149-6.667e-4 -4.8e-6 -0.00133-4.8e-6 -2e-3 0-0.18877-0.095313-0.38237-0.18076-0.58-0.256-0.2323-0.085406-0.45327-0.19892-0.658-0.338-0.14569-0.10362-0.26968-0.23475-0.365-0.386-0.094047-0.15903-0.14152-0.34129-0.137-0.526 0-0.366 0.15-0.67 0.451-0.886 0.169-0.12 0.378-0.198 0.612-0.25zm2.986 6h4v1h-4z" fill="#5d656b"/>
 <path d="m2 1c-1.108 0-2 0.892-2 2v10c0 1.108 0.892 2 2 2h12c1.108 0 2-0.892 2-2v-10c0-1.108-0.892-2-2-2zm0 1h12c0.554 0 1 0.446 1 1v10c0 0.554-0.446 1-1 1h-12c-0.554 0-1-0.446-1-1v-10c0-0.554 0.446-1 1-1z" fill="#5d656b" fill-rule="evenodd" stop-color="#000000" stroke-linecap="round" stroke-linejoin="round" stroke-width="2" style="paint-order:stroke fill markers"/>
</svg>
