<svg width="16" height="16.003" enable-background="new" version="1.1" xmlns="http://www.w3.org/2000/svg">
 <title>Paper Symbolic Icon Theme</title>
 <path d="m11.094 3.003h-6.1875c-1.0561 0-1.9062 0.85019-1.9062 1.9062v0.1875c0 1.0561 0.85019 1.9062 1.9062 1.9062h6.1875c1.0561 0 1.9062-0.85019 1.9062-1.9062v-0.1875c0-1.0561-0.85019-1.9062-1.9062-1.9062zm-0.0937 1c0.55228 0 1 0.44772 1 1s-0.44772 1-1 1-1-0.44772-1-1 0.44772-1 1-1zm0.0566 5h-6.1133c-1.0767 0-1.9434 0.86668-1.9434 1.9434v0.11328c0 1.0767 0.86668 1.9434 1.9434 1.9434h6.1133c1.0767 0 1.9434-0.86668 1.9434-1.9434v-0.11328c-1e-5 -1.0767-0.86669-1.9434-1.9434-1.9434zm-6.0566 1c0.55228 0 1 0.44772 1 1s-0.44772 1-1 1-1-0.44772-1-1 0.44772-1 1-1z" enable-background="new" fill="#5d656b"/>
 <path d="m3 1c-1.108 0-2 0.892-2 2v10c0 1.108 0.892 2 2 2h10c1.108 0 2-0.892 2-2v-10c0-1.108-0.892-2-2-2zm0 1h10c0.554 0 1 0.446 1 1v10c0 0.554-0.446 1-1 1h-10c-0.554 0-1-0.446-1-1v-10c0-0.554 0.446-1 1-1z" fill="#5d656b" fill-rule="evenodd" stop-color="#000000" stroke-linecap="round" stroke-linejoin="round" stroke-width="2" style="paint-order:stroke fill markers"/>
</svg>
