<svg xmlns="http://www.w3.org/2000/svg" width="22" height="22" version="1.1" id="svg9"><defs id="defs3"><style id="current-color-scheme" type="text/css"></style></defs><g id="g18" transform="translate(3 3)" stroke="none"><rect ry="1" rx="1" y="1" x="1" height="7" width="14" id="rect23" display="inline" opacity="1" fill="#000" fill-opacity=".267" stroke-width="1" stroke-linecap="round" stroke-linejoin="miter" stroke-miterlimit="4" stroke-dasharray="none" stroke-opacity="1" paint-order="stroke markers fill"/><rect ry="0" rx="0" y="2" x="2" height="6" width="12" id="rect816" opacity="1" fill="#f9f9f9" fill-opacity="1" stroke-width="1" stroke-linecap="round" stroke-linejoin="miter" stroke-miterlimit="4" stroke-dasharray="none" stroke-opacity="1" paint-order="stroke markers fill"/><path id="path4-3" d="M8 3L7 5H1c-.554 0-1 .446-1 1v8c0 .554.446 1 1 1h14c.554 0 1-.446 1-1V4c0-.5-.5-1-1-1z" display="inline" fill="#003579" fill-opacity=".561"/><path d="M8.608 4l-.876 2H1v8h14V4z" id="path819" display="inline" fill="#6ba4e7" fill-opacity="1" stroke-width="1"/><path id="rect830" d="M8.918 3l-1.06.283L7 5H1.453L0 5.389v2.07l15.63-4.188C15.45 3.111 15.229 3 15 3zM16 4.229L0 8.518v2.07l16-4.29zm0 3.125L0 11.643v2.07l16-4.287zm0 3.126L0 14.77V15h6.863L16 12.55zm0 3.127L10.807 15H16z" opacity=".15" fill="#fff" fill-opacity="1" stroke-width="1" stroke-linecap="round" stroke-linejoin="miter" stroke-miterlimit="4" stroke-dasharray="none" stroke-opacity="1" paint-order="stroke markers fill"/></g></svg>