<?xml version="1.0" encoding="UTF-8" standalone="no"?>
<svg
   xmlns:dc="http://purl.org/dc/elements/1.1/"
   xmlns:cc="http://creativecommons.org/ns#"
   xmlns:rdf="http://www.w3.org/1999/02/22-rdf-syntax-ns#"
   xmlns:svg="http://www.w3.org/2000/svg"
   xmlns="http://www.w3.org/2000/svg"
   xmlns:sodipodi="http://sodipodi.sourceforge.net/DTD/sodipodi-0.dtd"
   xmlns:inkscape="http://www.inkscape.org/namespaces/inkscape"
   width="22"
   height="22"
   version="1.1"
   viewBox="0 0 22 22"
   id="svg7"
   sodipodi:docname="folder-music.svg"
   inkscape:version="0.92.4 (5da689c313, 2019-01-14)">
  <metadata
     id="metadata11">
    <rdf:RDF>
      <cc:Work
         rdf:about="">
        <dc:format>image/svg+xml</dc:format>
        <dc:type
           rdf:resource="http://purl.org/dc/dcmitype/StillImage" />
        <dc:title></dc:title>
      </cc:Work>
    </rdf:RDF>
  </metadata>
  <sodipodi:namedview
     pagecolor="#ffffff"
     bordercolor="#666666"
     borderopacity="1"
     objecttolerance="10"
     gridtolerance="10"
     guidetolerance="10"
     inkscape:pageopacity="0"
     inkscape:pageshadow="2"
     inkscape:window-width="1366"
     inkscape:window-height="697"
     id="namedview9"
     showgrid="false"
     inkscape:zoom="14.75"
     inkscape:cx="-12.542373"
     inkscape:cy="8"
     inkscape:window-x="0"
     inkscape:window-y="0"
     inkscape:window-maximized="1"
     inkscape:current-layer="svg7" />
  <defs
     id="defs3">
    <style
       id="current-color-scheme"
       type="text/css">
   .ColorScheme-Text { color:#727272; } .ColorScheme-Highlight { color:#5294e2; }
  </style>
  </defs>
  <g
     id="folder-music_16"
     inkscape:label="#g5953"
     transform="translate(-446,-621.00001)">
    <rect
       y="624"
       x="449"
       height="16"
       width="16"
       id="rect5615-8"
       style="opacity:0.75;fill:none;fill-opacity:0.32653061;stroke:none;stroke-width:1;stroke-linecap:butt;stroke-linejoin:miter;stroke-miterlimit:4;stroke-dasharray:none;stroke-dashoffset:0;stroke-opacity:1" />
    <path
       inkscape:connector-curvature="0"
       style="display:inline;opacity:0.65;fill:#5c657a;fill-opacity:1;stroke:#4b4b4b;stroke-width:0;stroke-linejoin:miter;stroke-miterlimit:4;stroke-dasharray:none;stroke-dashoffset:0;stroke-opacity:1"
       d="m 455,625.00001 v 2 h 9 v -2 z m 7,10 a 1.9999949,1.4999949 0 0 0 -2,1.5 1.9999949,1.4999949 0 0 0 2,1.5 1.9999949,1.4999949 0 0 0 2,-1.5 1.9999949,1.4999949 0 0 0 -2,-1.5 z m -10,1 a 1.9999949,1.4999949 0 0 0 -2,1.5 1.9999949,1.4999949 0 0 0 2,1.5 1.9999949,1.4999949 0 0 0 2,-1.5 1.9999949,1.4999949 0 0 0 -2,-1.5 z"
       id="path4208-0-4-2" />
    <path
       style="display:inline;opacity:0.65;fill:#25282f;fill-opacity:1;stroke:#4b4b4b;stroke-width:0;stroke-linejoin:miter;stroke-miterlimit:4;stroke-dasharray:none;stroke-dashoffset:0;stroke-opacity:1"
       d="m 454,624.00001 v 1.97461 2.02539 7.64844 c -0.53158,-0.39894 -1.22831,-0.64844 -2,-0.64844 -1.65685,0 -3,1.11929 -3,2.5 0,1.38071 1.34315,2.5 3,2.5 1.65685,0 3,-1.11929 3,-2.5 0,-0.0482 -0.0143,-0.0931 -0.0176,-0.14063 H 455 v -9.35937 h 9 v 6.64844 c -0.53158,-0.39894 -1.22831,-0.64844 -2,-0.64844 -1.65685,0 -3,1.11929 -3,2.5 0,1.38071 1.34315,2.5 3,2.5 1.65685,0 3,-1.11929 3,-2.5 0,-0.0341 -0.0101,-0.0658 -0.0117,-0.0996 H 465 v -8.40039 -4 h -1 z m 1.00017,1 h 8.99966 v 2 h -8.99966 z m 6.99983,10 c 1.10457,0 2,0.67157 2,1.5 0,0.82843 -0.89543,1.5 -2,1.5 -1.10457,0 -2,-0.67157 -2,-1.5 0,-0.82843 0.89543,-1.5 2,-1.5 z m -10,1 c 1.10457,0 2,0.67157 2,1.5 0,0.82843 -0.89543,1.5 -2,1.5 -1.10457,0 -2,-0.67157 -2,-1.5 0,-0.82843 0.89543,-1.5 2,-1.5 z"
       id="rect4067-4-6"
       inkscape:connector-curvature="0"
       sodipodi:nodetypes="ccccsssscccccsssscccccccccccssssssssss" />
  </g>
</svg>
