<svg width="22" height="22" version="1.1" xmlns="http://www.w3.org/2000/svg">
 <defs>
  <style id="current-color-scheme" type="text/css"/>
 </defs>
 <path d="m14.325 0.5a7.1564 7.1529 0 0 0-5.0755 2.1099 7.1714 7.1679 0 0 0-0.89868 9.0678c-0.042006 0.03149-0.093021 0.05248-0.13503 0.08997l-7.4084 6.778c-0.58661 0.53684-0.24905 1.7695 0.31356 2.3333 0.56261 0.56233 1.7974 0.89973 2.336 0.31491l6.7813-7.4078c0.03601-0.04048 0.05701-0.08997 0.09002-0.13496a7.1714 7.1679 0 0 0 9.0708-0.89673 7.1714 7.1679 0 0 0 0-10.144 7.1564 7.1529 0 0 0-5.074-2.1099zm0 2.8731c1.1027 0 2.2114 0.41538 3.0531 1.2566a4.3238 4.3217 0 0 1 0 6.1032 4.3238 4.3217 0 0 1-6.1062 0 4.3238 4.3217 0 0 1 0-6.1032 4.3043 4.3022 0 0 1 3.0531-1.2566z" fill="#5c657a" opacity=".75" stroke="#252830" stroke-opacity=".65098"/>
</svg>
