<?xml version="1.0" encoding="UTF-8" standalone="no"?>
<svg
   xmlns:dc="http://purl.org/dc/elements/1.1/"
   xmlns:cc="http://creativecommons.org/ns#"
   xmlns:rdf="http://www.w3.org/1999/02/22-rdf-syntax-ns#"
   xmlns:svg="http://www.w3.org/2000/svg"
   xmlns="http://www.w3.org/2000/svg"
   xmlns:sodipodi="http://sodipodi.sourceforge.net/DTD/sodipodi-0.dtd"
   xmlns:inkscape="http://www.inkscape.org/namespaces/inkscape"
   width="22"
   height="22"
   version="1.1"
   viewBox="0 0 22 22"
   id="svg7"
   sodipodi:docname="folder-temp.svg"
   inkscape:version="0.92.4 (5da689c313, 2019-01-14)">
  <metadata
     id="metadata11">
    <rdf:RDF>
      <cc:Work
         rdf:about="">
        <dc:format>image/svg+xml</dc:format>
        <dc:type
           rdf:resource="http://purl.org/dc/dcmitype/StillImage" />
        <dc:title></dc:title>
      </cc:Work>
    </rdf:RDF>
  </metadata>
  <sodipodi:namedview
     pagecolor="#ffffff"
     bordercolor="#666666"
     borderopacity="1"
     objecttolerance="10"
     gridtolerance="10"
     guidetolerance="10"
     inkscape:pageopacity="0"
     inkscape:pageshadow="2"
     inkscape:window-width="1366"
     inkscape:window-height="708"
     id="namedview9"
     showgrid="false"
     inkscape:zoom="14.75"
     inkscape:cx="-22.067797"
     inkscape:cy="8"
     inkscape:window-x="0"
     inkscape:window-y="34"
     inkscape:window-maximized="1"
     inkscape:current-layer="svg7" />
  <defs
     id="defs3">
    <style
       id="current-color-scheme"
       type="text/css">
   .ColorScheme-Text { color:#727272; } .ColorScheme-Highlight { color:#5294e2; }
  </style>
  </defs>
  <g
     id="folder-recent_16"
     inkscape:label="#g5968"
     transform="translate(-945,-365)">
    <rect
       y="368"
       x="948"
       height="16"
       width="16"
       id="rect5615-4"
       style="opacity:0.75;fill:none;fill-opacity:0.32653061;stroke:none;stroke-width:1;stroke-linecap:butt;stroke-linejoin:miter;stroke-miterlimit:4;stroke-dasharray:none;stroke-dashoffset:0;stroke-opacity:1" />
    <path
       inkscape:connector-curvature="0"
       style="color:#000000;display:inline;overflow:visible;visibility:visible;opacity:0.75;fill:#5c657a;fill-opacity:1;fill-rule:nonzero;stroke:none;stroke-width:4.78147125;marker:none;enable-background:accumulate"
       d="m 956.88477,369 c -3.70511,0 -6.75461,2.43995 -7.08789,6 H 948 l 2.6543,3.33398 L 953.3086,375 h -1.73243 c 0.32782,-2.59551 2.58306,-4.26172 5.3086,-4.26172 2.95078,0 5.3457,2.35772 5.3457,5.26172 0,2.904 -2.39492,5.26172 -5.3457,5.26172 -1.60094,0 -3.03761,-0.69642 -4.01758,-1.79492 l -1.30078,1.18554 c 1.30362,1.44241 3.20364,2.34766 5.31836,2.34766 3.92759,0 7.11523,-3.136 7.11523,-7 0,-3.864 -3.18764,-7 -7.11523,-7 z m -0.21875,2.66602 L 956,376.33398 959.33399,379 v -0.66602 l -2,-2.66796 v -4 z"
       id="path2504-1-2-0" />
  </g>
</svg>
