<svg width="22" height="22" version="1.1" xmlns="http://www.w3.org/2000/svg">
 <defs>
  <style id="current-color-scheme" type="text/css"/>
 </defs>
 <g transform="translate(-921,-618)">
  <rect x="921" y="618" width="22" height="22" fill="none" opacity=".75"/>
  <path d="m924 618v21h16v-21zm1 1h1v1h-1zm2 0h10v9h-10zm11 0h1v1h-1zm-13 2h1v1h-1zm13 0h1v1h-1zm-13 2h1v1h-1zm13 0h1v1h-1zm-13 2h1v1h-1zm13 0h1v1h-1zm-13 2h1v1h-1zm13 0h1v1h-1zm-13 2h1v1h-1zm2 0h10v9h-10zm11 0h1v1h-1zm-13 2h1v1h-1zm13 0h1v1h-1zm-13 2h1v1h-1zm13 0h1v1h-1zm-13 2h1v1h-1zm13 0h1v1h-1zm-13 2h1v1h-1zm13 0h1v1h-1z" fill="#25282f" opacity=".65" stroke-width="0"/>
  <path d="m927 619v9h10v-9zm0 10v9h10v-9z" fill="#5c657a" opacity=".65" stroke-width="0"/>
 </g>
</svg>
