<svg width="22" height="22" version="1.1" xmlns="http://www.w3.org/2000/svg">
 <defs>
  <style id="current-color-scheme" type="text/css"/>
 </defs>
 <path d="m8.646 1.5-0.20739 2.5022a7.4067 7.4632 0 0 0-2.1654 1.262l-2.2557-1.072-2.3567 4.1143 2.0483 1.4329a7.4067 7.4632 0 0 0-0.11312 1.2592 7.4067 7.4632 0 0 0 0.10773 1.2633l-2.0429 1.4289 2.3567 4.1129 2.2516-1.0679a7.4067 7.4632 0 0 0 2.1681 1.2538l0.202 2.5104h4.7133l0.20873-2.5022a7.4067 7.4632 0 0 0 2.1654-1.262l2.2557 1.072 2.3567-4.1143-2.0483-1.4329a7.4067 7.4632 0 0 0 0.11312-1.2592 7.4067 7.4632 0 0 0-0.10773-1.2633l2.0429-1.4289-2.3567-4.1129-2.2516 1.0679a7.4067 7.4632 0 0 0-2.1681-1.2538l-0.202-2.5104zm2.3567 6.7847a2.6933 2.7139 0 0 1 2.6933 2.7139 2.6933 2.7139 0 0 1-2.6933 2.7139 2.6933 2.7139 0 0 1-2.6933-2.7139 2.6933 2.7139 0 0 1 2.6933-2.7139z" color="#727272" fill="#5c6579" fill-opacity=".651" stroke="#252830" stroke-opacity=".65098"/>
</svg>
