<svg xmlns="http://www.w3.org/2000/svg" width="22" height="22" version="1.1" id="svg9"><defs id="defs3"><style id="current-color-scheme" type="text/css">.ColorScheme-Text{color:#727272}</style></defs><g id="g821" transform="translate(3 3)"><path id="path5" d="M1 2v6h1l4-2h9V2c0-1-1-1-1-1H2S1 1 1 2z" color="#727272" opacity="1" fill="#000" fill-opacity=".267"/><path id="path7" d="M15 7s1 0 1 1v6s0 1-1 1H1s-1 0-1-1v-4c0-1 1-1 1-1h6l2-2z" class="ColorScheme-Text" color="#727272" fill="#003479" fill-opacity=".561"/><path class="ColorScheme-Text" d="M15 8v6H1v-4h6.443l2-2z" id="path834" color="#727272" fill="#6ba4e7" fill-opacity="1" stroke-width="1"/><path d="M2 2v6h5l2-2h5V2H3z" id="path836" color="#727272" opacity="1" fill="#fff" fill-opacity="1"/></g></svg>