<?xml version="1.0" encoding="UTF-8" standalone="no"?>
<svg
   xmlns:dc="http://purl.org/dc/elements/1.1/"
   xmlns:cc="http://creativecommons.org/ns#"
   xmlns:rdf="http://www.w3.org/1999/02/22-rdf-syntax-ns#"
   xmlns:svg="http://www.w3.org/2000/svg"
   xmlns="http://www.w3.org/2000/svg"
   xmlns:sodipodi="http://sodipodi.sourceforge.net/DTD/sodipodi-0.dtd"
   xmlns:inkscape="http://www.inkscape.org/namespaces/inkscape"
   width="22"
   height="22"
   version="1.1"
   viewBox="0 0 22 22"
   id="svg9"
   sodipodi:docname="folder-visiting.svg"
   inkscape:version="0.92.4 (5da689c313, 2019-01-14)">
  <metadata
     id="metadata13">
    <rdf:RDF>
      <cc:Work
         rdf:about="">
        <dc:format>image/svg+xml</dc:format>
        <dc:type
           rdf:resource="http://purl.org/dc/dcmitype/StillImage" />
        <dc:title></dc:title>
      </cc:Work>
    </rdf:RDF>
  </metadata>
  <sodipodi:namedview
     pagecolor="#ffffff"
     bordercolor="#666666"
     borderopacity="1"
     objecttolerance="10"
     gridtolerance="10"
     guidetolerance="10"
     inkscape:pageopacity="0"
     inkscape:pageshadow="2"
     inkscape:window-width="1366"
     inkscape:window-height="708"
     id="namedview11"
     showgrid="true"
     inkscape:zoom="20.85965"
     inkscape:cx="-9.7652678"
     inkscape:cy="8.863079"
     inkscape:window-x="0"
     inkscape:window-y="34"
     inkscape:window-maximized="1"
     inkscape:current-layer="svg9">
    <inkscape:grid
       type="xygrid"
       id="grid828" />
  </sodipodi:namedview>
  <defs
     id="defs3">
    <style
       id="current-color-scheme"
       type="text/css">
   .ColorScheme-Text { color:#727272; } .ColorScheme-Highlight { color:#5294e2; }
  </style>
  </defs>
  <g
     id="g18"
     transform="translate(3,3)">
    <rect
       ry="1"
       rx="1"
       y="1"
       x="0.99980003"
       height="7"
       width="14"
       id="rect23"
       style="display:inline;opacity:1;fill:#000000;fill-opacity:0.26666667;stroke:none;stroke-width:1;stroke-linecap:round;stroke-linejoin:miter;stroke-miterlimit:4;stroke-dasharray:none;stroke-opacity:1;paint-order:stroke markers fill;enable-background:new" />
    <rect
       ry="0"
       rx="0"
       y="2"
       x="2"
       height="6"
       width="12"
       id="rect816"
       style="opacity:1;fill:#f9f9f9;fill-opacity:1;stroke:none;stroke-width:1;stroke-linecap:round;stroke-linejoin:miter;stroke-miterlimit:4;stroke-dasharray:none;stroke-opacity:1;paint-order:stroke markers fill" />
    <path
       sodipodi:nodetypes="ccssssssccssc"
       id="path4-3"
       d="M 8,3 7,5 H 1 C 0.446,5 0,5.446 0,6 v 8 c 0,0.554 0.446,1 1,1 h 14 c 0.554,0 1,-0.446 1,-1 V 8 6 4 C 16,3.5 15.5,3 15,3 Z"
       style="display:inline;fill:#003579;fill-opacity:0.56078384;stroke:none;enable-background:new"
       inkscape:connector-curvature="0" />
    <path
       inkscape:connector-curvature="0"
       style="display:inline;fill:#6ba4e7;fill-opacity:1;stroke:none;stroke-width:0.99999994;enable-background:new"
       d="M 8.6077176,4.0000001 7.7316582,6 H 1 V 6.8333333 13.166667 14 H 14.14089 15 V 8.1666669 6.5000001 5 4 Z"
       id="path819"
       sodipodi:nodetypes="ccccccccccccc" />
    <path
       id="rect830"
       d="M 8.9179688,3 7.8574219,3.2832031 7,5 H 1.453125 L 0,5.3886719 v 2.0703125 l 15.630859,-4.1875 C 15.450374,3.1112925 15.227721,3 15,3 Z M 16,4.2285156 0,8.5175781 V 10.587891 L 16,6.2988281 Z m 0,3.125 -16,4.2890624 v 2.070313 L 16,9.4257812 Z M 16,10.480469 0,14.769531 V 15 H 6.8632812 L 16,12.550781 Z M 16,13.607422 10.806641,15 H 16 Z"
       style="opacity:0.15;fill:#ffffff;fill-opacity:1;stroke:none;stroke-width:1;stroke-linecap:round;stroke-linejoin:miter;stroke-miterlimit:4;stroke-dasharray:none;stroke-opacity:1;paint-order:stroke markers fill"
       inkscape:connector-curvature="0" />
  </g>
</svg>
