<svg width="22" height="22" version="1.1" xmlns="http://www.w3.org/2000/svg">
 <defs>
  <style id="current-color-scheme" type="text/css"/>
 </defs>
 <path d="M9.252 3.999l-.154 1.844a5.5 5.5 0 0 0-1.608.93l-1.675-.79-1.75 3.032 1.521 1.056a5.5 5.5 0 0 0-.084.928 5.5 5.5 0 0 0 .08.931l-1.517 1.053 1.75 3.031 1.672-.787a5.5 5.5 0 0 0 1.61.924l.15 1.85h3.5l.155-1.844a5.5 5.5 0 0 0 1.608-.93l1.675.79 1.75-3.032-1.521-1.056a5.5 5.5 0 0 0 .084-.928 5.5 5.5 0 0 0-.08-.931l1.517-1.053-1.75-3.031-1.672.787a5.5 5.5 0 0 0-1.61-.924l-.15-1.85zm1.75 5a2 2 0 0 1 2 2 2 2 0 0 1-2 2 2 2 0 0 1-2-2 2 2 0 0 1 2-2z" color="#727272" fill="#5c6579" fill-opacity=".651" stroke="#000" stroke-opacity=".2549"/>
</svg>
