<svg width="22" height="22" version="1.1" xmlns="http://www.w3.org/2000/svg">
 <defs>
  <style id="current-color-scheme" type="text/css">.ColorScheme-Text { color:#5d656b; } .ColorScheme-Highlight { color:#5294e2; }</style>
 </defs>
 <circle class="ColorScheme-Text" cx="11" cy="11" r="7" fill="currentColor" opacity=".35"/>
 <path class="ColorScheme-Text" d="m11 3a8 8 0 0 0-8 8h4v-1h-2.9219a7 7 0 0 1 6.9219-6 7 7 0 0 1 7 7 7 7 0 0 1-7 7 7 7 0 0 1-6.3105-4h-1.0879a8 8 0 0 0 7.3984 5 8 8 0 0 0 8-8 8 8 0 0 0-8-8zm-1 4v5h4v-1h-3v-4z" fill="currentColor"/>
</svg>
