<svg version="1.1" viewBox="0 0 22 22" xmlns="http://www.w3.org/2000/svg">
 <defs>
  <style id="current-color-scheme" type="text/css">.ColorScheme-Text {
        color:#5d656b;
      }</style>
 </defs>
 <path class="ColorScheme-Text" d="m7 6c-1.1408 0.13511-1.8836 0.87608-2.1699 1.25l-2.625 3.4277c-0.13316 0.17448-0.20523 0.38793-0.20508 0.60742v5.7148c0 1.108 0.892 2 2 2h13c1.108 0 1.9979-0.892 2-2v-5.7148c1.48e-4 -0.21949-0.071918-0.43294-0.20508-0.60742l-2.625-3.4277c-0.28628-0.37392-1.0291-1.1149-2.1699-1.25h-7zm0 1h7v0.015625c0.76278 0.10437 1.1244 0.51447 1.375 0.8418l2.4062 3.1426h-4.832c-0.23757 1.1639-1.2613 1.9999-2.4492 2-1.1864-2e-3 -2.208-0.83756-2.4453-2h-4.8359l2.4062-3.1426c0.25061-0.32733 0.61222-0.73743 1.375-0.8418v-0.015625zm-4 5h4.3418c0.57875 1.2201 1.8078 1.9984 3.1582 2 1.3483-0.0038 2.5745-0.78181 3.1523-2h4.3477v5c0 0.554-0.446 1-1 1h-13c-0.554 0-1-0.446-1-1v-5z" fill="currentColor"/>
</svg>
