<svg width="22" height="22" version="1.1" xmlns="http://www.w3.org/2000/svg" xmlns:xlink="http://www.w3.org/1999/xlink">
 <defs>
  <style id="current-color-scheme" type="text/css"/>
 </defs>
 <g transform="translate(-1430,-756)">
  <g id="dcdsnc" transform="translate(10 138)">
   <use transform="translate(28 1)" width="100%" height="100%" xlink:href="#user-desktop_16-5"/>
   <g transform="translate(1420,618)">
    <rect width="22" height="22" fill="none"/>
   </g>
  </g>
  <g transform="translate(1429 755)">
   <path d="m4.873 2.5002h14.255c0.39487 0 0.59093 0.39763 0.71276 0.83864l0.64148 2.3222c0.12182 0.44101-0.31789 0.83864-0.71276 0.83864h-15.538c-0.39487 0-0.83458-0.39763-0.71276-0.83864l0.64148-2.3222c0.12182-0.44101 0.31789-0.83864 0.71276-0.83864z" fill="#636a78" stroke="#272a2f" stroke-opacity=".78431"/>
   <path d="m19 3.0001-2.205 15.615c-0.05497 0.38923-0.3122 0.70975-0.7 0.70975h-8.19c-0.3878 0-0.64503-0.32052-0.7-0.70975l-2.205-15.615z" opacity=".3"/>
   <path d="m20.449 6.5016-1.5264 14.329c-0.03916 0.3676-0.31663 0.6667-0.70994 0.6667h-12.424c-0.39331 0-0.67168-0.29901-0.70994-0.6667l-1.5264-14.329z" fill="#636a78" stroke="#272a2f" stroke-opacity=".78431"/>
   <path d="m8.9293 16.615c-0.095963 0.17235-0.17235 0.43167-0.17235 0.59506 0 0.03793 0 0.08618 0.00941 0.15311l-1.1994-2.0628c-0.038393-0.06693-0.066982-0.16295-0.066982-0.24946 0-0.08662 0.028612-0.19193 0.066982-0.25898l0.57581-1.0075-0.6428-0.3643 2.0917-0.03872 1.0169 1.8324-0.65219-0.37414zm0.92131-6.0391c0.18215-0.31695 0.47985-0.48964 0.84414-0.48964 0.39366 0 0.70077 0.18254 0.9213 0.55623l0.32629 0.54683-1.1324 2.1828-1.8324-1.2902zm0.13396 7.6989c-0.54683 0-0.9977-0.45092-0.9977-0.99774 0-0.15356 0.067372-0.41286 0.16334-0.57581l0.30671-0.54683h2.2743v2.1204h-1.7466zm1.8234-7.7568c-0.14377-0.24913-0.3357-0.42227-0.56602-0.51829h2.3601c0.21113 0 0.37408 0.08662 0.47044 0.24991l0.58522 0.99774 0.63306-0.37448-1.0173 1.8234-2.0816-0.02933 0.6428-0.36429zm3.6367 5.6557c0.28751 0 0.52763-0.07677 0.72898-0.23l-1.19 2.0721c-0.09597 0.16295-0.26843 0.2657-0.46972 0.25898h-1.123v0.73876l-1.0745-1.794 1.0745-1.7945v0.74862h2.0538zm0.92052-1.7271c0.08657 0.15356 0.13474 0.3165 0.13474 0.4893 0 0.34549-0.22092 0.71011-0.52763 0.88248-0.14414 0.07723-0.34624 0.13722-0.54683 0.12535h-0.63379l-1.1317-1.9578 1.8325-1.0459z" fill="#fff"/>
  </g>
 </g>
</svg>
