<svg xmlns="http://www.w3.org/2000/svg" width="32" height="32"><rect width="25" height="27" x="3.5" y="2.5" fill="none" stroke="#000" stroke-linecap="round" stroke-linejoin="round" color="#000" opacity=".25" overflow="visible" rx="2" ry="2" style="marker:none"/><rect width="24" height="26" x="4" y="3" fill="#e8e8e8" color="#000" overflow="visible" rx="1.5" ry="1.5" style="marker:none"/><rect width="8" height="6" x="17.5" y="20.5" fill="#4979ea" color="#000" overflow="visible" rx="1" ry="1" style="marker:none"/><rect width="19" height="6" x="6.5" y="5" fill="#fff" color="#000" opacity=".7" overflow="visible" rx="1" ry="1" style="marker:none"/><path fill="#666" d="M16.69 6.529c-.392 0-.722.111-1.006.316l.296.455c.13-.084.25-.144.356-.178.106-.034.213-.06.315-.06.296 0 .435.12.435.356 0 .154-.046.253-.158.317-.111.062-.292.099-.533.099h-.237v.514h.237c.26 0 .453.018.572.079.12.06.178.17.178.316 0 .164-.055.282-.158.356-.104.074-.276.118-.494.118-.142 0-.27-.02-.414-.059A2.201 2.201 0 0 1 15.664 9v.573c.262.113.57.158.908.158.404 0 .71-.07.928-.237a.863.863 0 0 0 .336-.711.65.65 0 0 0-.198-.495c-.129-.122-.32-.186-.572-.217v-.02a.902.902 0 0 0 .493-.277.728.728 0 0 0 .178-.494.638.638 0 0 0-.276-.553c-.186-.131-.448-.198-.77-.198zm3.81.04-1.007.81.316.395.355-.296a3.14 3.14 0 0 0 .237-.218l-.02.336v2.096h.652V6.568zm2.664 0-1.361 2.016v.455h1.322v.652h.651V9.04h.375v-.514h-.375V6.568zm-.02.75c-.003.028.008.13 0 .297-.006.168-.019.307-.019.396v.514h-.75l.572-.85c.074-.111.145-.24.198-.356zm-4.519 1.7a.436.436 0 0 0-.296.1c-.064.06-.079.157-.079.276 0 .116.033.193.099.257a.385.385 0 0 0 .276.1.338.338 0 0 0 .355-.356c0-.117-.033-.215-.098-.277a.337.337 0 0 0-.257-.1z" font-family="Open Sans" font-size="6.905" font-weight="700" letter-spacing="0" style="line-height:125%;-inkscape-font-specification:&quot;Open Sans Bold&quot;;text-align:end" text-anchor="end" word-spacing="0"/><rect width="8" height="6" x="17.5" y="12.5" fill="#707278" color="#000" overflow="visible" rx="1" ry="1" style="marker:none"/><path fill="#fff" d="M19.944 15.161v.445h3.112v-.445h-3.112zM19.944 22.97v.444h3.112v-.445h-3.112zm0 .89v.445h3.112v-.445h-3.112z" font-family="Helvetica" font-size="9.881" font-weight="400" letter-spacing="0" style="line-height:125%;-inkscape-font-specification:Helvetica" word-spacing="0"/><rect width="8" height="6" x="6.5" y="12.5" fill="#707278" color="#000" overflow="visible" rx="1" ry="1" style="marker:none"/><rect width="8" height="6" x="6.5" y="20.5" fill="#707278" color="#000" overflow="visible" rx="1" ry="1" style="marker:none"/><path fill="#fff" d="M10.278 13.939v1.335H8.944v.445h1.334v1.336h.444v-1.336h1.334v-.445h-1.334V13.94h-.444zm-1.334 8v.445l1.112 1.113-1.112 1.113v.445h.445l1.111-1.113 1.111 1.113h.445v-.445l-1.112-1.113 1.112-1.113v-.445h-.445L10.5 23.052l-1.111-1.113h-.445z" font-family="Helvetica" font-size="9.881" font-weight="400" letter-spacing="0" style="line-height:125%;-inkscape-font-specification:Helvetica" word-spacing="0"/></svg>