<svg xmlns="http://www.w3.org/2000/svg" width="32" height="32"><g transform="translate(-384.57 -515.8)"><rect width="26" height="26" x="387.57" y="518.8" fill="#34b05c" stroke="#2d8b4c" stroke-linecap="round" stroke-linejoin="round" stroke-width="2" rx="1.5" ry="1.5" style="paint-order:markers stroke fill"/><rect width="26" height="26" x="387.57" y="518.8" fill="#34b05c" rx="1.5" ry="1.5" style="paint-order:markers stroke fill"/><path fill="#fff" d="m400.57 523.55-11.001 4.399 11.001 4.404 8.25-3.3v1.93a1.718 1.718 0 0 0-1.032 1.576 1.718 1.718 0 0 0 1.084 1.595l-.912 3.147h3.3l-.938-3.233a1.718 1.718 0 0 0 .904-1.51 1.718 1.718 0 0 0-1.032-1.574v-2.481l1.375-.551-11-4.4zm-5.5 8.25v5.773a5.5 2.476 0 0 0 5.5 2.476 5.5 2.476 0 0 0 5.498-2.476V531.8l-5.498 2.325z"/></g></svg>