<svg xmlns="http://www.w3.org/2000/svg" width="32" height="32" viewBox="0 0 8.466 8.466"><rect width="6.879" height="6.879" x=".794" y=".794" fill="none" stroke="#1e48a6" stroke-linecap="round" stroke-linejoin="round" stroke-opacity=".749" stroke-width=".529" rx=".397" ry=".397" style="paint-order:markers stroke fill"/><rect width="6.879" height="6.879" x=".794" y=".794" fill="#7091e3" rx=".397" ry=".397" style="paint-order:markers stroke fill"/><path d="M16.006 7A9.002 8.998 0 0 0 7 16.006 9.002 8.998 0 0 0 16.002 25 9.002 8.998 0 0 0 25 16.006 9.002 8.998 0 0 0 16.006 7zm-.002 2A7.001 6.999 0 0 1 23 16.004 7.001 6.999 0 0 1 16.002 23 7.001 6.999 0 0 1 9 16.004 7.001 6.999 0 0 1 16.004 9z" opacity=".15" style="paint-order:stroke markers fill" transform="scale(.26458)"/><path fill="#fff" d="M3.894 1.058v.738a1.016 1.016 0 0 0-.678.957 1.016 1.016 0 0 0 .518.885l-.49 1.826h-.366v.34h.276L2.88 6.826l.193.582.43-1.604h1.46l.428 1.604.194-.582-.273-1.022h.277v-.339H5.22l-.49-1.826a1.016 1.016 0 0 0 .52-.886 1.016 1.016 0 0 0-.679-.957v-.738zm.34 1.356a.339.339 0 0 1 .338.339.339.339 0 0 1-.338.339.339.339 0 0 1-.34-.34.339.339 0 0 1 .34-.338zm-.18 1.339a1.016 1.016 0 0 0 .18.017 1.016 1.016 0 0 0 .179-.016l.458 1.71H3.594z"/></svg>