<svg xmlns="http://www.w3.org/2000/svg" width="32" height="32"><defs><clipPath id="a" clipPathUnits="userSpaceOnUse"><path stroke-width="2" d="M15 8c-.277 0-.5.223-.5.5v1.688a5.931 5.931 0 0 0-1.531.656L11.75 9.625a.476.476 0 0 0-.688 0l-1.437 1.438a.476.476 0 0 0 0 .687l1.219 1.219c-.28.476-.516.982-.656 1.531H8.5c-.277 0-.5.223-.5.5v2c0 .277.223.5.5.5h1.688c.14.549.376 1.055.656 1.531L9.625 20.25a.476.476 0 0 0 0 .688l1.438 1.437a.476.476 0 0 0 .687 0l1.219-1.219c.476.28.982.516 1.531.657V23.5c0 .277.223.5.5.5h2c.277 0 .5-.223.5-.5v-1.688a5.931 5.931 0 0 0 1.531-.656l1.219 1.219a.476.476 0 0 0 .688 0l1.437-1.438a.476.476 0 0 0 0-.687l-1.219-1.219a5.94 5.94 0 0 0 .657-1.531H23.5c.277 0 .5-.223.5-.5v-2c0-.277-.223-.5-.5-.5h-1.688a5.931 5.931 0 0 0-.656-1.531l1.219-1.219a.476.476 0 0 0 0-.688l-1.438-1.437a.476.476 0 0 0-.687 0l-1.219 1.219a5.931 5.931 0 0 0-1.531-.656V8.5c0-.277-.223-.5-.5-.5zm1 5a3 3 0 1 1 0 6 3 3 0 0 1 0-6z" color="#000" overflow="visible" style="marker:none"/></clipPath></defs><rect width="26" height="26" x="3" y="-29" fill="#f0f0f0" color="#000" overflow="visible" rx="1.615" ry="1.615" style="marker:none" transform="scale(1 -1)"/><rect width="27" height="27" x="2.5" y="2.5" fill="none" stroke="#555761" stroke-linecap="round" stroke-linejoin="round" color="#000" opacity=".35" overflow="visible" rx="2.16" ry="2.16" style="marker:none"/><path fill="#ccc" d="M15 8c-.277 0-.5.223-.5.5v1.688a5.932 5.932 0 0 0-1.531.656L11.75 9.625a.476.476 0 0 0-.688 0l-1.437 1.438a.476.476 0 0 0 0 .687l1.219 1.219c-.28.476-.516.982-.656 1.531H8.5c-.277 0-.5.223-.5.5v2c0 .277.223.5.5.5h1.688c.14.549.376 1.055.656 1.531L9.625 20.25a.476.476 0 0 0 0 .688l1.438 1.437a.476.476 0 0 0 .687 0l1.219-1.219c.476.28.982.516 1.531.657V23.5c0 .277.223.5.5.5h2c.277 0 .5-.223.5-.5v-1.688a5.931 5.931 0 0 0 1.531-.656l1.219 1.219a.476.476 0 0 0 .688 0l1.437-1.438a.476.476 0 0 0 0-.687l-1.219-1.219a5.94 5.94 0 0 0 .657-1.531H23.5c.277 0 .5-.223.5-.5v-2c0-.277-.223-.5-.5-.5h-1.688a5.931 5.931 0 0 0-.656-1.531l1.219-1.219a.476.476 0 0 0 0-.687l-1.438-1.438a.476.476 0 0 0-.687 0l-1.219 1.219a5.931 5.931 0 0 0-1.531-.656V8.5c0-.277-.223-.5-.5-.5zm1 5a3 3 0 1 1 0 6 3 3 0 0 1 0-6z" color="#000" overflow="visible" style="marker:none"/><path fill="none" stroke="#000" d="M15 8c-.277 0-.5.223-.5.5v1.688a5.931 5.931 0 0 0-1.531.656L11.75 9.625a.476.476 0 0 0-.688 0l-1.437 1.438a.476.476 0 0 0 0 .687l1.219 1.219c-.28.476-.516.982-.656 1.531H8.5c-.277 0-.5.223-.5.5v2c0 .277.223.5.5.5h1.688c.14.549.376 1.055.656 1.531L9.625 20.25a.476.476 0 0 0 0 .688l1.438 1.437a.476.476 0 0 0 .687 0l1.219-1.219c.476.28.982.516 1.531.657V23.5c0 .277.223.5.5.5h2c.277 0 .5-.223.5-.5v-1.688a5.931 5.931 0 0 0 1.531-.656l1.219 1.219a.476.476 0 0 0 .688 0l1.437-1.438a.476.476 0 0 0 0-.687l-1.219-1.219a5.94 5.94 0 0 0 .657-1.531H23.5c.277 0 .5-.223.5-.5v-2c0-.277-.223-.5-.5-.5h-1.688a5.931 5.931 0 0 0-.656-1.531l1.219-1.219a.476.476 0 0 0 0-.688l-1.438-1.437a.476.476 0 0 0-.687 0l-1.219 1.219a5.931 5.931 0 0 0-1.531-.656V8.5c0-.277-.223-.5-.5-.5zm1 5a3 3 0 1 1 0 6 3 3 0 0 1 0-6z" clip-path="url(#a)" color="#000" opacity=".1" overflow="visible" style="marker:none"/></svg>