<svg xmlns="http://www.w3.org/2000/svg" width="32" height="32"><g transform="translate(-384.57 -515.8)"><rect width="26" height="26" x="387.57" y="518.8" fill="#239654" stroke="#23a159" stroke-linecap="round" stroke-linejoin="round" stroke-width="2" rx="1.5" ry="1.5" style="paint-order:markers stroke fill"/><rect width="26" height="26" x="387.57" y="518.8" fill="#48cd7c" rx="1.5" ry="1.5" style="paint-order:markers stroke fill"/><path fill="#fff" d="M411.52 523.61a1.516 1.516 0 1 0-2.285 1.656c-.078 1.114-.407 2.467-1.386 3.653-2.76-3.149-3.926-4.434-4.466-4.956a4.154 4.154 0 0 1 .69-.358c.364.301.865.433 1.359.301a1.514 1.514 0 1 0-1.888-1.682c-1.142.485-5.036 2.643-4.455 9.362-4.268.124-6.511 1.254-7.532 1.991a1.519 1.519 0 1 0-.065 2.91 1.514 1.514 0 0 0 1.127-1.428l4.46 4.684a4.82 4.82 0 0 1-.306.177 1.516 1.516 0 1 0 .615 1.365c2.085-1.036 3.814-3.583 3.363-8.225 1.34 0 2.573-.156 3.684-.446 1.656-.437 3.037-1.184 4.078-2.228 1.32-1.316 2.07-3.04 2.2-5.024a1.516 1.516 0 0 0 .81-1.752zm-13.846 15.681-4.655-4.891c.298-.161.67-.335 1.127-.501l4.359 4.343a4.455 4.455 0 0 1-.831 1.044zm1.173-1.752-3.907-3.892a14.591 14.591 0 0 1 2.145-.42l2.232 2.128c-.065.872-.233 1.592-.47 2.183zm-.791-4.414a18.979 18.979 0 0 1 1.207-.06c.052.457.078.888.083 1.29zm2.523-1.545a12.579 12.579 0 0 1 .01-2.7l2.182 2.557a14.783 14.783 0 0 1-2.194.143zm3.038-.293-2.861-3.357a7.192 7.192 0 0 1 .615-1.716 294.44 294.44 0 0 1 4.024 4.507 9.64 9.64 0 0 1-1.778.566zm2.464-.909c-2.425-2.762-3.661-4.144-4.32-4.829.33-.483.687-.862 1.028-1.148.584.577 2.848 3.126 4.548 5.063a6.517 6.517 0 0 1-1.256.914z"/></g></svg>