<svg xmlns="http://www.w3.org/2000/svg" width="32" height="32"><path fill="#fff" stroke="#000" stroke-opacity=".196" stroke-width="3.857" d="M416.57 488.8a26.998 26.998 0 0 0-26.998 27.001 26.998 26.998 0 0 0 26.998 26.998c7.453 0 6.055-6.199 7.937-8.557 1.414-1.776 3.364-3.617 5.624-3.855 2.638-.284 3.992.907 6.074.85 3.198-.08 5.48-2.581 6.713-5.926.778-2.105.646-7.646.646-9.51a26.998 26.998 0 0 0-26.994-27zm17.632 29.107a4.154 4.154 0 1 1 0 8.308 4.154 4.154 0 0 1 0-8.308z" style="paint-order:stroke markers fill" transform="translate(-200 -251.45) scale(.51852)"/><path fill="#fff" d="M416.57 488.8a26.998 26.998 0 0 0-26.998 27.001 26.998 26.998 0 0 0 26.998 26.998c7.453 0 6.055-6.199 7.937-8.557 1.414-1.776 3.364-3.617 5.624-3.855 2.638-.284 3.992.907 6.074.85 3.198-.08 5.48-2.581 6.713-5.926.778-2.105.646-7.646.646-9.51a26.998 26.998 0 0 0-26.994-27zm17.632 29.107a4.154 4.154 0 1 1 0 8.308 4.154 4.154 0 0 1 0-8.308z" style="paint-order:stroke markers fill" transform="translate(-200 -251.45) scale(.51852)"/><g stroke-width="1.821"><path fill="#ff8e3d" d="M8.742 22.56s2.794.76 4.166-.026c1.374-.784 1.717-2.11 1.227-3.212s-1.201-1.25-2.207-1.225c-1.005.023-1.985.392-2.183 1.372-.196.98.196 1.765-.121 2.404-.32.637-.882.686-.882.686z"/><path fill="#ffd13d" d="M11.19 20.697c1.828.128 2.88-1.283 2.543-1.916s-.827-.718-1.517-.704c-.691.016-1.366.225-1.5.788s-.193.878.017 1.764a1.39 1.39 0 0 1 .948-.627c-.06.243-.27.464-.49.695z"/><path fill="#333" d="m12 5.866-3.95 4.196c-.181.194-.456.232-.593.095l-.493-.495c-.136-.137-.1-.406.094-.588l4.2-3.95c.194-.182.45-.23.587-.092l.247.247c.137.137.09.393-.093.587z" style="paint-order:stroke markers fill" transform="matrix(1.9598 0 0 1.9598 -.593 -.59)"/></g></svg>