<svg xmlns="http://www.w3.org/2000/svg" width="32" height="32"><g transform="translate(-384.57 -515.8)"><rect width="26" height="26" x="387.57" y="518.8" fill="none" stroke="#202020" stroke-linecap="round" stroke-linejoin="round" stroke-width="2" rx="1.5" ry="1.5" style="paint-order:markers stroke fill"/><rect width="26" height="26" x="387.57" y="518.8" fill="#393c3f" rx="1.5" ry="1.5" style="paint-order:markers stroke fill"/><path fill="#fff" d="M399.29 519.8v2.787a3.842 3.842 0 0 0-2.562 3.62 3.842 3.842 0 0 0 1.955 3.343l-1.85 6.903h-1.385v1.285h1.043l-1.035 3.86.73 2.202 1.628-6.064h5.512l1.623 6.064.733-2.202-1.033-3.862h1.046v-1.28h-1.391l-1.85-6.903a3.842 3.842 0 0 0 1.96-3.346 3.842 3.842 0 0 0-2.562-3.62V519.8zm1.282 5.124a1.28 1.28 0 0 1 1.28 1.28 1.28 1.28 0 0 1-1.28 1.283 1.28 1.28 0 0 1-1.282-1.283 1.28 1.28 0 0 1 1.282-1.28zm-.68 5.06a3.842 3.842 0 0 0 .68.065 3.842 3.842 0 0 0 .678-.06l1.73 6.464h-4.824z"/><path fill="#fff" d="M392.57 518.8v5.65c-.17.115-.332.243-.508.35h-4.492v1h2.443a13.45 13.45 0 0 1-2.443.736v1.028a14.476 14.476 0 0 0 4.787-1.764h.213v12h-5v1h5v6h1v-6h13.723a14.485 14.485 0 0 0-4.61 6h1.104a13.485 13.485 0 0 1 3.783-4.922v4.922h1v-5.65c.17-.116.332-.243.508-.35h4.492v-1h-2.443a13.45 13.45 0 0 1 2.443-.736v-1.028a14.48 14.48 0 0 0-4.787 1.764h-.213v-12h5v-1h-5v-6h-1v6h-13.723a14.485 14.485 0 0 0 4.61-6h-1.104a13.485 13.485 0 0 1-3.783 4.922V518.8h-1zm1 7h14v12h-14v-12z" opacity=".1"/></g></svg>