<svg width="32" height="32" version="1.1" xmlns="http://www.w3.org/2000/svg">
 <rect x="3" y="3" width="26" height="26" rx="1.5" ry="1.5" fill="#4e9feb" stroke="#2778d4" stroke-linecap="round" stroke-linejoin="round" stroke-width="2" style="paint-order:markers stroke fill"/>
 <rect x="3" y="3" width="26" height="26" rx="1.5" ry="1.5" fill="#4e9feb" style="paint-order:markers stroke fill"/>
 <path d="m9 8c-0.554 0-1 0.446-1 1v5c0 0.554 0.446 1 1 1h5c0.554 0 1-0.446 1-1v-5c0-0.554-0.446-1-1-1zm9 0c-0.554 0-1 0.446-1 1v5c0 0.554 0.446 1 1 1h5c0.554 0 1-0.446 1-1v-5c0-0.554-0.446-1-1-1zm0 1h5v5h-5zm-9 8c-0.554 0-1 0.446-1 1v5c0 0.554 0.446 1 1 1h5c0.554 0 1-0.446 1-1v-5c0-0.554-0.446-1-1-1zm9 0c-0.554 0-1 0.446-1 1v5c0 0.554 0.446 1 1 1h5c0.554 0 1-0.446 1-1v-5c0-0.554-0.446-1-1-1zm-9 1h5v5h-5zm9 0h5v5h-5z" fill="#ffffff" stroke-linecap="round" stroke-linejoin="round" stroke-width="1.4"/>
</svg>
