<svg width="32" height="32" version="1.1" xmlns="http://www.w3.org/2000/svg">
 <rect x="3" y="3" width="26" height="26" rx="1.5" ry="1.5" fill="#f88e45" stroke="#cf6f23" stroke-linecap="round" stroke-linejoin="round" stroke-width="2" style="paint-order:markers stroke fill"/>
 <rect x="3" y="3" width="26" height="26" rx="1.5" ry="1.5" fill="#f88e45" style="paint-order:markers stroke fill"/>
 <g transform="matrix(2.0997 0 0 2.0997 -1.7774 -589.28)">
  <g stroke-width="1.8">
   <path d="m6.218 285.09a2.249 2.249 0 0 0-2.16 2.872l-0.332 2.594a0.697 0.697 0 0 0-0.022 0.17c0 0.394 0.328 0.713 0.733 0.713a0.74 0.74 0 0 0 0.563-0.258v1e-3l1.437-1.61a2.244 2.244 0 0 0 1.021-0.359h2.017c0.306 0.203 0.657 0.322 1.021 0.359l1.437 1.61a0.74 0.74 0 0 0 0.563 0.258c0.405 0 0.733-0.32 0.733-0.714a0.694 0.694 0 0 0-0.022-0.17l-0.332-2.594a2.249 2.249 0 0 0-2.159-2.873h-4.498z" fill="#fff"/>
   <path d="m10.848 285.89a0.397 0.397 0 0 0-0.397 0.397 0.397 0.397 0 0 0 0.397 0.397 0.397 0.397 0 0 0 0.397-0.397 0.397 0.397 0 0 0-0.397-0.397z" fill="#27ae60"/>
   <path d="m10.054 286.68a0.397 0.397 0 0 0-0.397 0.397 0.397 0.397 0 0 0 0.397 0.397 0.397 0.397 0 0 0 0.397-0.397 0.397 0.397 0 0 0-0.397-0.397z" fill="#f36137"/>
   <path d="m11.642 286.68a0.397 0.397 0 0 0-0.397 0.397 0.397 0.397 0 0 0 0.397 0.397 0.397 0.397 0 0 0 0.397-0.397 0.397 0.397 0 0 0-0.397-0.397z" fill="#f05242"/>
   <path d="m10.848 287.48a0.397 0.397 0 0 0-0.397 0.397 0.397 0.397 0 0 0 0.397 0.397 0.397 0.397 0 0 0 0.397-0.397 0.397 0.397 0 0 0-0.397-0.397z" fill="#2980b9"/>
   <circle cx="6.085" cy="286.95" r=".794" fill="#f88e45" style="paint-order:stroke markers fill"/>
  </g>
  <path d="m7.144 288.53a0.53 0.53 0 0 0-0.53 0.53 0.53 0.53 0 0 0 0.53 0.529 0.53 0.53 0 0 0 0.529-0.53 0.53 0.53 0 0 0-0.53-0.529zm2.646 0a0.53 0.53 0 0 0-0.53 0.53 0.53 0.53 0 0 0 0.53 0.529 0.53 0.53 0 0 0 0.529-0.53 0.53 0.53 0 0 0-0.53-0.529z" fill="#666" stroke="#e1e1e1" stroke-linecap="square" stroke-width=".95223" style="paint-order:markers stroke fill"/>
 </g>
</svg>
