<svg xmlns="http://www.w3.org/2000/svg" width="32" height="32"><g transform="translate(-232.38 -333.87) scale(.66667)"><rect width="39" height="39" x="353.07" y="505.3" fill="#434b50" stroke="#2e3336" stroke-linecap="round" stroke-linejoin="round" stroke-width="3" rx="2.25" ry="2.25" style="paint-order:markers stroke fill"/><rect width="39" height="39" x="353.07" y="505.3" fill="#434b50" rx="2.25" ry="2.25" style="paint-order:markers stroke fill"/><g fill="#f2f2f2"><path d="m358.818 536.027-.552-.874 1.47-4.597c.098-.31.159-.68.184-1.111a7 7 0 0 0 .003-1.07l-.03-.419c-.213-.47-.508-.776-.887-.916-.38-.144-.81-.107-1.293.11-.805.364-1.333.883-1.586 1.559l-.716-.705c.302-.73.957-1.323 1.967-1.778.775-.35 1.487-.417 2.136-.203.648.21 1.13.667 1.447 1.37.008.06.018.142.029.247.009.1.02.303.034.608.018.302.024.594.018.876a8.896 8.896 0 0 1-.077.953 4.523 4.523 0 0 1-.199.926l-1.245 3.652 3.947-1.78.333.905-4.983 2.247M366.315 527.72l2.221-1.001.35.774-2.227 1.004 1.102 2.443-.78.352-1.102-2.443-2.26 1.02-.35-.775 2.266-1.022-1.089-2.414.78-.352 1.09 2.414M371.598 530.263l-.552-.875 1.47-4.596c.098-.31.16-.68.184-1.111a7 7 0 0 0 .004-1.07l-.031-.419c-.213-.47-.508-.776-.886-.916-.38-.144-.812-.107-1.294.11-.804.364-1.333.883-1.586 1.559l-.715-.705c.301-.73.957-1.323 1.966-1.778.775-.35 1.487-.417 2.136-.203.648.21 1.13.667 1.447 1.37.009.06.019.142.03.247.008.1.02.303.034.608a8.896 8.896 0 0 1-.06 1.829 4.523 4.523 0 0 1-.199.925l-1.244 3.653 3.946-1.78.333.905-4.983 2.247M377.09 525.197l-.364-.809 5.495-2.478.365.809-5.495 2.478m-1.09-2.4-.37-.82 5.502-2.482.37.82-5.501 2.481M389.733 519.54l-.969.436.953 2.113-.956.431-.953-2.113-3.85 1.737-.393-.872 1.245-7.222 1.065-.48 2.517 5.58 1.048-.472.292.861m-4.23-4.245-.914 5.572 2.847-1.284-1.934-4.288"/></g><path fill="#007ad9" d="M375.57 542.8h6v1.5h-6z" color="#000" style="text-decoration-line:none"/><path fill="#d6d6d6" d="M383.07 542.8h6v1.5h-6z" color="#000" style="text-decoration-line:none"/></g></svg>