<svg xmlns="http://www.w3.org/2000/svg" width="32" height="32"><g transform="translate(-384.57 -515.8)"><rect width="26" height="26" x="387.57" y="518.8" fill="none" stroke="#343e80" stroke-linecap="round" stroke-linejoin="round" stroke-width="2" rx="1.5" ry="1.5" style="paint-order:markers stroke fill"/><rect width="26" height="26" x="387.57" y="518.8" fill="#3f51b5" rx="1.5" ry="1.5" style="paint-order:markers stroke fill"/><g stroke-width="4.535"><path fill="#fff" fill-rule="evenodd" d="M389.52 520.22a1.14 1.14 0 0 0-1.145 1.145v21.71c0 .636.51 1.145 1.145 1.145h21.713a1.14 1.14 0 0 0 1.142-1.144v-13.714l-9.141-9.142zm16.139 0 6.716 6.716v-5.571a1.14 1.14 0 0 0-1.144-1.145z" style="paint-order:fill markers stroke" transform="translate(66.929 88.279) scale(.83333)"/><g fill="#ccc"><path d="M394.57 530.794v-1h12v1zM394.57 533.794v-1h12v1zM394.57 536.794v-1h12v1zM394.57 539.794v-1h9v1z"/></g></g></g></svg>