<svg xmlns="http://www.w3.org/2000/svg" width="32" height="32"><g transform="translate(-384.57 -515.8)"><rect width="26" height="26" x="387.57" y="518.8" fill="#4e9feb" stroke="#2778d4" stroke-linecap="round" stroke-linejoin="round" stroke-width="2" rx="1.5" ry="1.5" style="paint-order:markers stroke fill"/><rect width="26" height="26" x="387.57" y="518.8" fill="#4e9feb" rx="1.5" ry="1.5" style="paint-order:markers stroke fill"/><g stroke-width="1.75"><g stroke-width="1.292" opacity=".15" style="paint-order:stroke markers fill"><path d="M400.572 523.275a8.515 8.515 0 0 0-8.516 8.515 8.515 8.515 0 0 0 8.516 8.516 8.515 8.515 0 0 0 8.515-8.516 8.515 8.515 0 0 0-8.515-8.515zm0 3.872a4.643 4.643 0 0 1 4.643 4.643 4.643 4.643 0 0 1-4.643 4.646 4.643 4.643 0 0 1-4.646-4.643 4.643 4.643 0 0 1 4.644-4.646z"/><path d="M399.023 519.798h3.097v5.419h-3.097zm0 18.58h3.097v5.42h-3.097zm13.548-8.13v3.097h-5.419v-3.097zm-18.58 0v3.097h-5.42v-3.097zm16.16 8.941-2.189 2.188-3.831-3.831 2.188-2.19zm-13.136-13.139-2.19 2.19-3.833-3.831 2.19-2.19zm-3.833 15.33-2.19-2.19 3.833-3.834 2.188 2.19zm13.137-13.14-2.188-2.19 3.831-3.831 2.19 2.19z"/></g><g fill="#fff" transform="translate(199.19 227) scale(.57139)"><rect width="12" height="19" x="346.44" y="533.42" stroke="#000" stroke-opacity=".255" stroke-width="1.753" opacity=".65" rx="5.998" ry="4.736" style="paint-order:stroke markers fill"/><path stroke="#000" stroke-opacity=".255" stroke-width="1.753" d="M346.44 517.9a13.002 13.002 0 1 0 11.996.008v9.52l-5.998 5.999-6.002-5.998z" style="paint-order:stroke markers fill"/><path d="M346.44 517.9a13.002 13.002 0 1 0 11.996.008v9.52l-5.998 5.999-6.002-5.998z" style="paint-order:stroke markers fill"/></g></g></g></svg>