<svg width="32" height="32" version="1.1" xmlns="http://www.w3.org/2000/svg">
 <path d="m16 1.5c-8 0-14.5 6.5-14.5 14.5s6.5 14.5 14.5 14.5 14.5-6.5 14.5-14.5-6.5-14.5-14.5-14.5z" color="#000000" fill="#3b3b3b" overflow="visible"/>
 <path d="m16 1.502c-8 0-14.498 6.498-14.498 14.498s6.498 14.498 14.498 14.498 14.498-6.498 14.498-14.498-6.498-14.498-14.498-14.498z" color="#000000" fill="none" opacity=".35" overflow="visible" solid-color="#000000" stroke="#000000" stroke-linecap="round" stroke-linejoin="round" style="isolation:auto;mix-blend-mode:normal"/>
 <path d="m10.454 16.992 1.998-5.656 1.804 5.655h-3.802zm5.573 4.842h1.43l-4.176-11.863h-1.69l-4.42 11.863h1.43l1.414-3.754h4.712zm4.935-0.845c-0.829 0-1.446-0.406-1.446-1.381 0-1.22 0.731-1.61 3.201-1.934 0.016 0 0.796-0.114 0.796-0.114v2.145c-0.568 0.78-1.722 1.284-2.55 1.284zm2.584-0.114 0.195 0.959h1.089v-6.403c0-1.95-1.35-2.518-3.072-2.518-1.235 0-2.388 0.308-3.055 0.666l0.374 1.04c0.715-0.341 1.755-0.585 2.714-0.585 1.202 0 1.722 0.552 1.722 1.609v0.99l-0.877 0.098c-2.243 0.325-4.453 0.634-4.453 2.925 0 1.625 1.22 2.373 2.65 2.373 0.91 0 1.95-0.293 2.713-1.154z" fill="#ffffff"/>
</svg>
