<svg xmlns="http://www.w3.org/2000/svg" width="32" height="32"><defs><linearGradient id="a" x2="0" y1="545.8" y2="517.8" gradientTransform="translate(-48.678)" gradientUnits="userSpaceOnUse"><stop offset="0" stop-color="#3889e9"/><stop offset="1" stop-color="#5ea5fb"/></linearGradient></defs><path fill="#4a86ff" stroke="#1863f8" d="M16 1.5C8 1.5 1.5 8 1.5 16S8 30.5 16 30.5 30.5 24 30.5 16 24 1.5 16 1.5z" color="#000" overflow="visible"/><path fill="#4a86ff" d="M16 2C8.275 2 2 8.275 2 16s6.275 14 14 14 14-6.275 14-14S23.725 2 16 2z" color="#000" overflow="visible"/><path fill="#fcfcfc" fill-opacity=".059" d="M13.998 4.17a12 12 0 0 0-1 .22V8h-4V6.272a12 12 0 0 0-1 .802V8H7.07a12 12 0 0 0-.806 1h1.734v4H4.393a12 12 0 0 0-.213 1h3.818v4h-3.83a12 12 0 0 0 .22 1h3.61v4H6.27a12 12 0 0 0 .802 1h.926v.928a12 12 0 0 0 1 .806V24h4v3.604a12 12 0 0 0 1 .214V24h4v3.83a12 12 0 0 0 1-.22V24h4v1.729a12 12 0 0 0 1-.803V24h.928a12 12 0 0 0 .806-1h-1.734v-4h3.604a12 12 0 0 0 .214-1h-3.818v-4h3.83a12 12 0 0 0-.22-1h-3.61V9h1.728a12 12 0 0 0-.802-1h-.926v-.928a12 12 0 0 0-1-.806V8h-4V4.395a12 12 0 0 0-1-.213V8h-4zm-5 4.83h4v4h-4zm5 0h4v4h-4zm5 0h4v4h-4zm-10 5h4v4h-4zm5 0h4v4h-4zm5 0h4v4h-4zm-10 5h4v4h-4zm5 0h4v4h-4zm5 0h4v4h-4z" color="#000"/><path fill="#fff" d="M15.998 4a12 12 0 0 0-12 12 12 12 0 0 0 12 12 12 12 0 0 0 12-12 12 12 0 0 0-12-12zm0 1a11 11 0 0 1 11 11 11 11 0 0 1-11 11 11 11 0 0 1-11-11 11 11 0 0 1 11-11z" opacity=".2"/><path fill="#fff" fill-rule="evenodd" d="M17.64 8.51c-1.047.077-2.143.482-3.143.982 2 0 3 1 4 2l2 2.002v1.002l1 1 3-3.002-1-1.002h-1l-2-2c-.81-.808-1.81-1.06-2.857-.982zm.857 2.986-4 4h-1l-6 6 2 2 6-6v-1l4-4z"/></svg>