<svg width="32" height="32" version="1.1" xmlns="http://www.w3.org/2000/svg">
 <rect transform="scale(1,-1)" x="3" y="-29" width="18" height="18" rx=".5407" ry=".5407" color="#000000" fill="#e7e7e7"/>
 <path d="m10.094 14.25c-0.0045 0.05451-0.0085 0.19736-0.03125 0.40625-0.04088 0.33152-0.07105 0.61215-0.09375 0.84375l-0.03125 0.4375-0.03125 0.3125c-0.51317 0.03634-1.0664 0.06251-1.625 0.0625-0.37239 9e-6 -0.74353-0.03524-1.125-0.0625l0.09375 0.96875c0.14532 0.0091 0.34852 0.03126 0.59375 0.03125 0.63124 8e-6 1.2739-0.03925 1.9688-0.09375-0.06812 0.8129-0.08013 1.5341-0.09375 2.1562-0.45868 0.24978-0.82582 0.49223-1.0938 0.6875-1.4033 1.0581-2.125 2.2188-2.125 3.5312-9e-7 0.9673 0.42348 1.4688 1.25 1.4688 0.68573 0 1.4109-0.29425 2.1875-0.84375 0.0772 0.48592 0.13354 0.81034 0.15625 0.9375l1-0.375c-0.11808-0.44505-0.17788-0.8947-0.21875-1.3125 0.59559-0.56097 1.1209-1.1944 1.5938-1.9062h-0.96875c-0.05703 0-0.10188-0.02217-0.15625-0.03125-0.18914 0.26226-0.38104 0.51294-0.59375 0.75-0.01811-0.26962-0.0209-0.7415-0.03125-1.0938-0.1371-0.17111-0.21875-0.3877-0.21875-0.625v-6.2188zm-0.40625 6.0312c0.01362 1.1535 0.05688 2.0859 0.125 2.8125-0.66758 0.61308-1.2892 0.9375-1.875 0.9375-0.26794 1e-6 -0.40625-0.16902-0.40625-0.46875-1.9e-6 -0.06358-0.017628-0.11084-0.03125-0.15625 0.013622-0.03179 0.031248-0.09267 0.03125-0.15625 0.054494-0.7039 0.42964-1.4206 1.1562-2.1562 0.34059-0.35876 0.6821-0.62176 1-0.8125zm6.6875 1.2188c0.01162 0.10286 0.03125 0.20324 0.03125 0.3125-1.1e-5 0.89918-0.44058 1.6113-1.3125 2.1562-0.68574 0.43142-1.6011 0.72114-2.75 0.84375l0.59375 0.9375c1.3124-0.18619 2.3399-0.56642 3.0938-1.125 0.96729-0.71752 1.4687-1.6681 1.4688-2.8125-1e-6 -0.10848-0.02233-0.20885-0.03125-0.3125z" fill="#666666"/>
 <g>
  <rect x="2.5" y="10.5" width="19" height="19" rx="1" ry="1" color="#000000" fill="none" stroke="#000000" stroke-linecap="round" stroke-linejoin="round" stroke-opacity=".26047"/>
  <rect x="10.5" y="2.5" width="19" height="19" rx="1" ry="1" color="#000000" fill="#52a7f5"/>
  <rect x="10.5" y="2.5" width="19" height="19" rx="1" ry="1" color="#000000" color-rendering="auto" fill-opacity="0" image-rendering="auto" opacity=".5" shape-rendering="auto" solid-color="#000000" stroke="#002e99" stroke-linecap="round" stroke-linejoin="round" style="isolation:auto;mix-blend-mode:normal"/>
 </g>
 <path d="m22.881 17-1.0477-3h-3.6968l-1.0321 3h-1.7166c1.242-3.3333 2.4841-6.6666 3.7261-9.9999h1.7711c1.242 3.3333 2.4841 6.6666 3.7261 9.9999h-1.7302zm-1.3909-4-1.4906-4.3483-1.5208 4.3483z" fill="#ffffff"/>
</svg>
