<svg xmlns="http://www.w3.org/2000/svg" width="32" height="32"><g transform="translate(-384.57 -515.8)"><rect width="26" height="26" x="387.57" y="518.8" fill="#434b50" stroke="#2e3336" stroke-linecap="round" stroke-linejoin="round" stroke-width="2" rx="1.5" ry="1.5" style="paint-order:markers stroke fill"/><rect width="26" height="26" x="387.57" y="518.8" fill="#434b50" rx="1.5" ry="1.5" style="paint-order:markers stroke fill"/><g color="#000"><g fill="none" stroke="#d6d6d6" transform="translate(56.264 -.5)"><ellipse cx="-531.8" cy="344.31" rx="8.5" ry="3.5" transform="rotate(-90)"/><ellipse cx="-630.57" cy="169.9" stroke-width="1.004" rx="10.366" ry="4.571" transform="scale(-1.05701 .93955) rotate(-45)"/><ellipse cx="344.31" cy="531.8" rx="9.5" ry="3.5"/></g><path fill="#54a3d8" d="M392.574 522.3a2 2 0 1 0 0 4 2 2 0 0 0 0-4z"/><path fill="#e05e4c" d="M408.574 527.3a2 2 0 1 0 0 4 2 2 0 0 0 0-4z"/><path fill="#ffa92d" d="M399.574 537.3a2 2 0 1 0 0 4 2 2 0 0 0 0-4z"/></g></g></svg>