<?xml version="1.0" encoding="UTF-8" standalone="no"?>
<svg
   xmlns:dc="http://purl.org/dc/elements/1.1/"
   xmlns:cc="http://creativecommons.org/ns#"
   xmlns:rdf="http://www.w3.org/1999/02/22-rdf-syntax-ns#"
   xmlns:svg="http://www.w3.org/2000/svg"
   xmlns="http://www.w3.org/2000/svg"
   xmlns:xlink="http://www.w3.org/1999/xlink"
   xmlns:sodipodi="http://sodipodi.sourceforge.net/DTD/sodipodi-0.dtd"
   xmlns:inkscape="http://www.inkscape.org/namespaces/inkscape"
   version="1.1"
   width="32"
   height="32"
   id="svg4715"
   sodipodi:docname="applications-multimedia.svg"
   inkscape:version="0.92.4 (5da689c313, 2019-01-14)">
  <sodipodi:namedview
     pagecolor="#ffffff"
     bordercolor="#666666"
     borderopacity="1"
     objecttolerance="10"
     gridtolerance="10"
     guidetolerance="10"
     inkscape:pageopacity="0"
     inkscape:pageshadow="2"
     inkscape:window-width="1366"
     inkscape:window-height="697"
     id="namedview56"
     showgrid="false"
     inkscape:zoom="3.6875"
     inkscape:cx="-39.766755"
     inkscape:cy="23.192827"
     inkscape:window-x="0"
     inkscape:window-y="0"
     inkscape:window-maximized="1"
     inkscape:current-layer="svg4715" />
  <defs
     id="defs4717">
    <linearGradient
       gradientTransform="translate(-206,-58.000018)"
       gradientUnits="userSpaceOnUse"
       xlink:href="#linearGradient5803-0"
       id="linearGradient5874-6"
       y2="76.996925"
       x2="227.20357"
       y1="63.106243"
       x1="227.20357" />
    <linearGradient
       id="linearGradient5803-0">
      <stop
         offset="0"
         style="stop-color:#fff5ef;stop-opacity:1"
         id="stop5805-3" />
      <stop
         offset="1"
         style="stop-color:#fef8dd;stop-opacity:1"
         id="stop5807-4" />
    </linearGradient>
  </defs>
  <metadata
     id="metadata4720">
    <rdf:RDF>
      <cc:Work
         rdf:about="">
        <dc:format>image/svg+xml</dc:format>
        <dc:type
           rdf:resource="http://purl.org/dc/dcmitype/StillImage" />
        <dc:title />
      </cc:Work>
    </rdf:RDF>
  </metadata>
  <rect
     style="display:inline;opacity:1;fill:#61aff3;fill-opacity:1;stroke:none;stroke-width:0.99999994;stroke-linecap:butt;stroke-linejoin:miter;stroke-miterlimit:4;stroke-dasharray:none;stroke-dashoffset:0;stroke-opacity:0.83137255"
     id="rect3457-8"
     y="9.4999695"
     x="5.50002"
     ry="0"
     rx="0"
     height="20"
     width="13" />
  <path
     style="color:#000000;font-style:normal;font-variant:normal;font-weight:normal;font-stretch:normal;font-size:medium;line-height:normal;font-family:sans-serif;text-indent:0;text-align:start;text-decoration:none;text-decoration-line:none;text-decoration-style:solid;text-decoration-color:#000000;letter-spacing:normal;word-spacing:normal;text-transform:none;writing-mode:lr-tb;direction:ltr;baseline-shift:baseline;text-anchor:start;white-space:normal;clip-rule:nonzero;display:inline;overflow:visible;visibility:visible;opacity:0.7;isolation:auto;mix-blend-mode:normal;color-interpolation:sRGB;color-interpolation-filters:linearRGB;solid-color:#000000;solid-opacity:1;fill:#000000;fill-opacity:1;fill-rule:nonzero;stroke:none;stroke-width:0.99999994;stroke-linecap:round;stroke-linejoin:round;stroke-miterlimit:4;stroke-dasharray:none;stroke-dashoffset:0;stroke-opacity:1;marker:none;color-rendering:auto;image-rendering:auto;shape-rendering:auto;text-rendering:auto;enable-background:accumulate"
     d="m 2.4999894,8.9999997 c -0.2761309,2.76e-5 -0.4999724,0.2238691 -0.5,0.5 V 29.5 c 2.76e-5,0.276131 0.2238691,0.499972 0.5,0.5 h 2.5 13.9999996 2.5 c 0.276131,-2.8e-5 0.499972,-0.223869 0.5,-0.5 V 9.4999997 c -2.8e-5,-0.2761309 -0.223869,-0.4999724 -0.5,-0.5 h -2.5 -13.9999996 z m 0.5,1 h 2 V 11 h -2 z m 3,0 H 17.999989 V 29 H 5.9999894 Z m 12.9999996,0 h 2 V 11 h -2 z M 2.9999894,13 h 2 v 1 h -2 z m 15.9999996,0 h 2 v 1 h -2 z M 2.9999894,16 h 2 v 1 h -2 z m 15.9999996,0 h 2 v 1 h -2 z M 2.9999894,19 h 2 v 1 h -2 z m 15.9999996,0 h 2 v 1 h -2 z M 2.9999894,22 h 2 v 1 h -2 z m 15.9999996,0 h 2 v 1 h -2 z M 2.9999894,25 h 2 v 1 h -2 z m 15.9999996,0 h 2 v 1 h -2 z M 2.9999894,28 h 2 v 1 h -2 z m 15.9999996,0 h 2 v 1 h -2 z"
     id="rect5505-21-2" />
  <path
     style="display:block;overflow:visible;visibility:visible;opacity:0.7;fill:none;stroke:#000000;stroke-width:0.99999994;stroke-linecap:square;stroke-linejoin:round;stroke-miterlimit:4;stroke-dasharray:none;stroke-dashoffset:0;stroke-opacity:1;marker:none"
     id="path4320-2"
     d="m 6.5000205,19.499969 c 3.6664995,0 7.3330185,0 10.9995185,0" />
  <path
     style="color:#000000;display:inline;overflow:visible;visibility:visible;opacity:0.3;fill:#e6e6e6;fill-opacity:1;fill-rule:nonzero;stroke:none;stroke-width:1;marker:none;enable-background:accumulate"
     id="rect3953-50-6-7"
     d="m 18.999989,28 h 2 v 1 h -2 z m 0,-3 h 2 v 1 h -2 z m 0,-3 h 2 v 1 h -2 z M 2.9999894,28 h 2 v 1 h -2 z m 0,-3 h 2 v 1 h -2 z m 0,-3 h 2 v 1 h -2 z m 0,-3 h 2 v 1 h -2 z m 0,-3 h 2 v 1 h -2 z m 0,-3 h 2 v 1 h -2 z m 0,-3.0000003 h 2 V 11 h -2 z" />
  <rect
     width="19.000002"
     height="19.000002"
     rx="1"
     ry="1"
     x="10.499999"
     y="2.4999981"
     id="rect5505-21-8"
     style="color:#000000;display:inline;overflow:visible;visibility:visible;opacity:1;fill:#fb9347;fill-opacity:1;fill-rule:nonzero;stroke:none;stroke-width:0.99999994;marker:none;enable-background:accumulate" />
  <path
     d="m 20.41963,5.0049123 c -0.45272,-0.0528 -0.51541,0.32941 -0.46825,0.6335 -0.004,3.02598 0.009,6.0547297 -0.006,9.0789697 -0.11057,0.10409 -0.32276,-0.0671 -0.46364,-0.0227 -1.53471,-0.0843 -3.21152,0.91838 -3.36495,2.36537 -0.18082,1.15045 1.16833,2.09702 2.37142,1.91809 1.51599,-0.14497 2.70037,-1.52342 2.50272,-2.88423 0.004,-2.39597 -0.009,-4.79473 0.006,-7.1889697 0.10333,-0.10663 0.25746,0.1204 0.36632,0.13153 1.2191,0.64992 2.2975,1.7216597 2.3703,3.0563197 0.08,1.0429 -0.27043,2.06339 -0.66476,3.03021 1.32131,-1.46544 1.74429,-3.60323 0.82613,-5.3341397 -0.46958,-1.00476 -1.52888,-1.62396 -2.12148,-2.55722 -0.43763,-0.62366 -0.77069,-1.3199 -0.8749,-2.05618 -0.0858,-0.15353 -0.31179,-0.17223 -0.47891,-0.17058 z"
     id="path7249-8-0-2-7"
     style="opacity:1;fill:url(#linearGradient5874-6);fill-opacity:1;stroke:none" />
  <rect
     width="19.000002"
     height="19.000002"
     rx="1"
     ry="1"
     x="10.499999"
     y="2.4999981"
     id="rect5505-21-8-1-7"
     style="color:#000000;display:inline;overflow:visible;visibility:visible;opacity:0.5;fill:none;stroke:#a62100;stroke-width:1;stroke-linecap:round;stroke-linejoin:round;stroke-miterlimit:4;stroke-dasharray:none;stroke-dashoffset:0;stroke-opacity:1;marker:none;enable-background:accumulate" />
</svg>
