<svg xmlns="http://www.w3.org/2000/svg" width="32" height="32"><path fill="#f9f9f9" d="M18.638 4.5c-2.936 0-5.48 1.723-6.74 4.223a5.157 5.157 0 0 0-2.824-.845c-2.914 0-5.276 2.42-5.276 5.406 0 .474.073.934.185 1.372C1.88 16.11.5 18.584.5 21.392c0 4.492 3.53 8.108 7.915 8.108h15.17c4.385 0 7.915-3.616 7.915-8.108 0-3.587-2.26-6.611-5.4-7.686.085-.466.123-.944.123-1.436 0-4.291-3.396-7.77-7.585-7.77z" color="#000" overflow="visible" style="marker:none"/><path fill="none" stroke="#555761" stroke-linecap="round" stroke-linejoin="round" d="M18.638 4.5c-2.936 0-5.48 1.723-6.74 4.223a5.157 5.157 0 0 0-2.824-.845c-2.914 0-5.276 2.42-5.276 5.406 0 .474.073.934.185 1.372C1.88 16.11.5 18.584.5 21.392c0 4.492 3.53 8.108 7.915 8.108h15.17c4.385 0 7.915-3.616 7.915-8.108 0-3.587-2.26-6.611-5.4-7.686.085-.466.123-.944.123-1.436 0-4.291-3.396-7.77-7.585-7.77z" color="#000" opacity=".35" overflow="visible" style="marker:none"/></svg>