<svg xmlns="http://www.w3.org/2000/svg" width="32" height="32"><g transform="translate(-384.57 -515.8)"><rect width="26" height="26" x="387.57" y="518.8" fill="#434b50" stroke="#2e3336" stroke-linecap="round" stroke-linejoin="round" stroke-width="2" rx="1.5" ry="1.5" style="paint-order:markers stroke fill"/><rect width="26" height="26" x="387.57" y="518.8" fill="#434b50" rx="1.5" ry="1.5" style="paint-order:markers stroke fill"/><g fill="#f2f2f2"><path d="M403.6 532.43v3.872h2.805c.846 0 1.472-.174 1.877-.521.41-.353.615-.89.615-1.612 0-.727-.205-.874-.615-1.216-.405-.348-1.03-.522-1.877-.522H403.6m0-5.169v3.892h2.867c.769 0 1.383-.143 1.757-.428.38-.291.569-1.12.569-1.712 0-.586-.19-1.025-.569-1.316-.374-.29-.988-.436-1.757-.436h-2.867m-1.292-1.293h4.018c1.2 0 2.123.25 2.772.748.649.498.973 1.207.973 2.126 0 .71-.166 1.664-.498 2.085-.332.42-.82.683-1.464.786 1.61.4 2.409 1.513 2.445 2.626 0 1.038-.353 1.84-1.059 2.406-.706.566-1.71.849-3.013.849h-4.174v-11.626M397.576 532.533c-1.109-3.206-1.784-4.862-1.9-5.26 0 0-.575 1.657-1.853 5.26h3.753m1.806 5.075-1.364-3.937h-4.652l-1.411 3.937h-1.388l4.478-11.626h1.396l4.344 11.626h-1.403"/></g></g></svg>