<svg xmlns="http://www.w3.org/2000/svg" width="32" height="32"><path fill="#fff" stroke="#000" stroke-linecap="round" stroke-linejoin="round" stroke-opacity=".25" stroke-width="2" d="M8.918 6.002a7.083 7.082 0 0 0-6.803 9.044l-1.046 8.169A2.195 2.195 0 0 0 1 23.75c0 1.24 1.033 2.245 2.309 2.245a2.33 2.33 0 0 0 1.773-.812v.003l4.526-5.07a7.068 7.067 0 0 0 3.216-1.13h6.352a7.098 7.098 0 0 0 3.216 1.13l4.526 5.07a2.33 2.33 0 0 0 1.773.812c1.276 0 2.309-1.007 2.309-2.248a2.186 2.186 0 0 0-.07-.535l-1.045-8.17a7.083 7.082 0 0 0-6.8-9.047H8.918z"/><path fill="#f9f9f9" d="M8.918 6.002a7.083 7.082 0 0 0-6.803 9.044l-1.046 8.169A2.195 2.195 0 0 0 1 23.75c0 1.24 1.033 2.245 2.309 2.245a2.33 2.33 0 0 0 1.773-.812v.003l4.526-5.07a7.068 7.067 0 0 0 3.216-1.13h6.352a7.098 7.098 0 0 0 3.216 1.13l4.526 5.07a2.33 2.33 0 0 0 1.773.812c1.276 0 2.309-1.007 2.309-2.248a2.186 2.186 0 0 0-.07-.535l-1.045-8.17a7.083 7.082 0 0 0-6.8-9.047H8.918z"/><g stroke="#000" stroke-linecap="round" stroke-linejoin="round" stroke-opacity=".25" stroke-width=".6"><path fill="#27ae60" d="M23 9a1 1 0 0 0-1 1 1 1 0 0 0 1 1 1 1 0 0 0 1-1 1 1 0 0 0-1-1z"/><path fill="#f36137" d="M21 11a1 1 0 0 0-1 1 1 1 0 0 0 1 1 1 1 0 0 0 1-1 1 1 0 0 0-1-1z"/><path fill="#f05242" d="M25 11a1 1 0 0 0-1 1 1 1 0 0 0 1 1 1 1 0 0 0 1-1 1 1 0 0 0-1-1z"/><path fill="#2980b9" d="M23 13a1 1 0 0 0-1 1 1 1 0 0 0 1 1 1 1 0 0 0 1-1 1 1 0 0 0-1-1z"/></g><circle cx="8.498" cy="11.5" r="2.5" fill="#f88e45" stroke="#cf6f23" stroke-linejoin="round" style="paint-order:stroke markers fill"/><circle cx="8.498" cy="11.5" r="2.5" fill="#f88e45" style="paint-order:stroke markers fill"/><circle cx="12" cy="19" r="3" fill="#b3b3b3" fill-opacity=".978"/><circle cx="12" cy="19" r="2" fill="#666"/><circle cx="20" cy="19" r="3" fill="#b3b3b3" fill-opacity=".978"/><circle cx="20" cy="19" r="2" fill="#666"/></svg>