<?xml version="1.0" encoding="UTF-8" standalone="no"?>
<svg
   xmlns:dc="http://purl.org/dc/elements/1.1/"
   xmlns:cc="http://creativecommons.org/ns#"
   xmlns:rdf="http://www.w3.org/1999/02/22-rdf-syntax-ns#"
   xmlns:svg="http://www.w3.org/2000/svg"
   xmlns="http://www.w3.org/2000/svg"
   xmlns:sodipodi="http://sodipodi.sourceforge.net/DTD/sodipodi-0.dtd"
   xmlns:inkscape="http://www.inkscape.org/namespaces/inkscape"
   id="svg4715"
   height="32"
   width="32"
   version="1.1"
   sodipodi:docname="applications-other.svg"
   inkscape:version="0.92.4 (5da689c313, 2019-01-14)">
  <sodipodi:namedview
     pagecolor="#ffffff"
     bordercolor="#666666"
     borderopacity="1"
     objecttolerance="10"
     gridtolerance="10"
     guidetolerance="10"
     inkscape:pageopacity="0"
     inkscape:pageshadow="2"
     inkscape:window-width="1366"
     inkscape:window-height="697"
     id="namedview48"
     showgrid="false"
     inkscape:zoom="10.429825"
     inkscape:cx="-4.9155413"
     inkscape:cy="20.9687"
     inkscape:window-x="0"
     inkscape:window-y="0"
     inkscape:window-maximized="1"
     inkscape:current-layer="svg4715" />
  <defs
     id="defs4717">
    <clipPath
       clipPathUnits="userSpaceOnUse"
       id="clipPath8125">
      <path
         style="color:#000000;display:inline;overflow:visible;visibility:visible;fill:#000000;fill-opacity:1;fill-rule:nonzero;stroke:none;stroke-width:2;stroke-miterlimit:4;stroke-dasharray:none;stroke-opacity:1;marker:none;enable-background:accumulate"
         id="path8127"
         d="m 15,7.9999995 c -0.277,0 -0.5,0.223 -0.5,0.5 V 10.1875 c -0.548639,0.140741 -1.055018,0.37601 -1.53125,0.65625 L 11.75,9.625 c -0.195869,-0.19587 -0.491631,-0.19587 -0.6875,0 L 9.625,11.0625 c -0.1958686,0.195869 -0.1958686,0.491631 0,0.6875 l 1.21875,1.21875 C 10.56351,13.444982 10.328241,13.951361 10.1875,14.5 H 8.5 C 8.223,14.5 8,14.723 8,15 v 2 c 0,0.277 0.223,0.5 0.5,0.5 h 1.6875 c 0.140741,0.548639 0.37601,1.055018 0.65625,1.53125 L 9.625,20.25 c -0.1958686,0.195869 -0.1958686,0.491631 0,0.6875 l 1.4375,1.4375 c 0.195869,0.195869 0.491631,0.195869 0.6875,0 l 1.21875,-1.21875 c 0.476232,0.28024 0.982611,0.515509 1.53125,0.65625 V 23.5 c 0,0.277 0.223,0.5 0.5,0.5 h 2 c 0.277,0 0.5,-0.223 0.5,-0.5 v -1.6875 c 0.548639,-0.140741 1.055018,-0.37601 1.53125,-0.65625 L 20.25,22.375 c 0.195869,0.195869 0.491631,0.195869 0.6875,0 l 1.4375,-1.4375 c 0.195869,-0.195869 0.195869,-0.491631 0,-0.6875 L 21.15625,19.03125 C 21.43649,18.555018 21.671759,18.048639 21.8125,17.5 H 23.5 c 0.277,0 0.5,-0.223 0.5,-0.5 v -2 c 0,-0.277 -0.223,-0.5 -0.5,-0.5 H 21.8125 C 21.671759,13.951361 21.43649,13.444982 21.15625,12.96875 L 22.375,11.75 c 0.195869,-0.19587 0.195869,-0.491631 0,-0.6875 L 20.9375,9.625 c -0.195869,-0.19587 -0.491631,-0.19587 -0.6875,0 l -1.21875,1.21875 C 18.555018,10.56351 18.048639,10.328241 17.5,10.1875 V 8.4999995 c 0,-0.277 -0.223,-0.5 -0.5,-0.5 z M 16,13 c 1.656854,0 3,1.343146 3,3 0,1.656854 -1.343146,3 -3,3 -1.656854,0 -3,-1.343146 -3,-3 0,-1.656854 1.343146,-3 3,-3 z" />
    </clipPath>
  </defs>
  <metadata
     id="metadata4720">
    <rdf:RDF>
      <cc:Work
         rdf:about="">
        <dc:format>image/svg+xml</dc:format>
        <dc:type
           rdf:resource="http://purl.org/dc/dcmitype/StillImage" />
        <dc:title />
      </cc:Work>
    </rdf:RDF>
  </metadata>
  <rect
     style="color:#000000;display:inline;overflow:visible;visibility:visible;fill:#f0f0f0;fill-opacity:1;fill-rule:nonzero;stroke:none;stroke-width:1;marker:none;enable-background:accumulate"
     id="rect5505"
     y="-29"
     x="3"
     ry="1.6154056"
     rx="1.6154056"
     height="26"
     width="26"
     transform="scale(1,-1)" />
  <rect
     style="color:#000000;display:inline;overflow:visible;visibility:visible;fill:none;stroke:#555761;stroke-width:1;stroke-linecap:round;stroke-linejoin:round;stroke-miterlimit:4;stroke-dasharray:none;stroke-dashoffset:0;stroke-opacity:1;marker:none;enable-background:accumulate;opacity:0.35"
     id="rect5505-6-6"
     y="2.5"
     x="2.5"
     ry="2.1600001"
     rx="2.1600001"
     height="27"
     width="27" />
  <path
     style="color:#000000;display:inline;overflow:visible;visibility:visible;fill:#cccccc;fill-opacity:1;fill-rule:nonzero;stroke:none;stroke-width:1;marker:none;enable-background:accumulate"
     id="path3575-5"
     d="m 15,8.0000003 c -0.277,0 -0.5,0.223 -0.5,0.5 V 10.1875 c -0.548639,0.140742 -1.055018,0.376011 -1.53125,0.65625 L 11.75,9.6250005 c -0.195869,-0.1958697 -0.491631,-0.1958697 -0.6875,0 L 9.625,11.062501 c -0.1958686,0.195869 -0.1958686,0.491631 0,0.6875 l 1.21875,1.21875 C 10.56351,13.444983 10.328241,13.951362 10.1875,14.5 H 8.5 C 8.223,14.5 8,14.723001 8,15 v 2 c 0,0.277 0.223,0.5 0.5,0.5 h 1.6875 c 0.140741,0.54864 0.37601,1.055018 0.65625,1.53125 L 9.625,20.25 c -0.1958686,0.195869 -0.1958686,0.491632 0,0.6875 l 1.4375,1.4375 c 0.195869,0.195869 0.491631,0.195869 0.6875,0 l 1.21875,-1.21875 c 0.476232,0.28024 0.982611,0.51551 1.53125,0.65625 V 23.5 c 0,0.277001 0.223,0.5 0.5,0.5 h 2 c 0.277,0 0.5,-0.222999 0.5,-0.5 v -1.6875 c 0.548639,-0.14074 1.055018,-0.37601 1.53125,-0.65625 L 20.25,22.375 c 0.195869,0.195869 0.491631,0.195869 0.6875,0 l 1.4375,-1.4375 c 0.195869,-0.195868 0.195869,-0.491631 0,-0.6875 L 21.15625,19.03125 C 21.43649,18.555018 21.671759,18.04864 21.8125,17.5 H 23.5 c 0.277,0 0.5,-0.223 0.5,-0.5 v -1.999999 c 0,-0.277 -0.223,-0.5 -0.5,-0.5 h -1.6875 c -0.140741,-0.548639 -0.37601,-1.055018 -0.65625,-1.53125 l 1.21875,-1.21875 c 0.195869,-0.195871 0.195869,-0.491631 0,-0.6875 L 20.9375,9.6250005 c -0.195869,-0.1958697 -0.491631,-0.1958697 -0.6875,0 L 19.03125,10.843751 C 18.555018,10.563511 18.048639,10.328242 17.5,10.187501 V 8.5000003 c 0,-0.277 -0.223,-0.5 -0.5,-0.5 z M 16,13 c 1.656854,0 3,1.343147 3,3 0,1.656855 -1.343146,3 -3,3 -1.656854,0 -3,-1.343145 -3,-3 0,-1.656853 1.343146,-2.999999 3,-3 z" />
  <path
     clip-path="url(#clipPath8125)"
     style="color:#000000;display:inline;overflow:visible;visibility:visible;opacity:0.1;fill:none;fill-opacity:1;fill-rule:nonzero;stroke:#000000;stroke-width:1;stroke-miterlimit:4;stroke-dasharray:none;stroke-opacity:1;marker:none;enable-background:accumulate"
     id="path8129"
     d="m 15,7.9999995 c -0.277,0 -0.5,0.223 -0.5,0.5 V 10.1875 c -0.548639,0.140741 -1.055018,0.37601 -1.53125,0.65625 L 11.75,9.625 c -0.195869,-0.19587 -0.491631,-0.19587 -0.6875,0 L 9.625,11.0625 c -0.1958686,0.195869 -0.1958686,0.491631 0,0.6875 l 1.21875,1.21875 C 10.56351,13.444982 10.328241,13.951361 10.1875,14.5 H 8.5 C 8.223,14.5 8,14.723 8,15 v 2 c 0,0.277 0.223,0.5 0.5,0.5 h 1.6875 c 0.140741,0.548639 0.37601,1.055018 0.65625,1.53125 L 9.625,20.25 c -0.1958686,0.195869 -0.1958686,0.491631 0,0.6875 l 1.4375,1.4375 c 0.195869,0.195869 0.491631,0.195869 0.6875,0 l 1.21875,-1.21875 c 0.476232,0.28024 0.982611,0.515509 1.53125,0.65625 V 23.5 c 0,0.277 0.223,0.5 0.5,0.5 h 2 c 0.277,0 0.5,-0.223 0.5,-0.5 v -1.6875 c 0.548639,-0.140741 1.055018,-0.37601 1.53125,-0.65625 L 20.25,22.375 c 0.195869,0.195869 0.491631,0.195869 0.6875,0 l 1.4375,-1.4375 c 0.195869,-0.195869 0.195869,-0.491631 0,-0.6875 L 21.15625,19.03125 C 21.43649,18.555018 21.671759,18.048639 21.8125,17.5 H 23.5 c 0.277,0 0.5,-0.223 0.5,-0.5 v -2 c 0,-0.277 -0.223,-0.5 -0.5,-0.5 H 21.8125 C 21.671759,13.951361 21.43649,13.444982 21.15625,12.96875 L 22.375,11.75 c 0.195869,-0.19587 0.195869,-0.491631 0,-0.6875 L 20.9375,9.625 c -0.195869,-0.19587 -0.491631,-0.19587 -0.6875,0 l -1.21875,1.21875 C 18.555018,10.56351 18.048639,10.328241 17.5,10.1875 V 8.4999995 c 0,-0.277 -0.223,-0.5 -0.5,-0.5 z M 16,13 c 1.656854,0 3,1.343146 3,3 0,1.656854 -1.343146,3 -3,3 -1.656854,0 -3,-1.343146 -3,-3 0,-1.656854 1.343146,-3 3,-3 z" />
</svg>
