<svg xmlns="http://www.w3.org/2000/svg" width="32" height="32"><rect width="26" height="26" x="3" y="-29" fill="#f2f2f2" color="#000" overflow="visible" rx="1.615" ry="1.615" style="marker:none" transform="scale(1 -1)"/><rect width="27" height="27" x="2.5" y="2.5" fill="none" stroke="#555761" stroke-linecap="round" stroke-linejoin="round" color="#000" opacity=".35" overflow="visible" rx="2.16" ry="2.16" style="marker:none"/><path d="M14.009 2.5v12.496c0 1.1.895 2 2 2s2-.9 2-2V2.5z" opacity=".5"/><path fill="#999" d="M16 3v1h1V3zm0 1h-1v1h1zm0 1v1h1V5zm0 1h-1v1h1zm0 1v1h1V7zm0 1h-1v1h1zm0 1v1h1V9zm0 1h-1v1h1zm0 1v1h1v-1zm0 1h-1v1h1zm0 1v1h1v-1zm0 1h-1v1h1zm0 1v1c.552 0 1-.5 1-1z"/><path fill="#ecf0f1" d="M15.009 5.996v-1h1v1zm0-2v-1h1v1z"/><path fill="#ecf0f1" d="M15.009 4.996v1h1v-1zm0 2v1h1v-1zm0 2v1h1v-1zm0 2v1h1v-1zm0 2v1h1v-1zm0 2c0 .5.448 1 1 1v-1z"/><path fill="#ecf0f1" stroke="#000" stroke-opacity=".463" d="M16.009 13.496a2.509 2.509 0 0 0-2.5 2.5v4a2.51 2.51 0 0 0 2.5 2.5 2.51 2.51 0 0 0 2.5-2.5v-4c0-1.372-1.124-2.5-2.5-2.5zm0 1.5c.552 0 1 .4 1 1 0 .5-.448 1-1 1s-1-.5-1-1c0-.6.448-1 1-1zm0 3c.552 0 1 .4 1 1v1c0 .5-.448 1-1 1s-1-.5-1-1v-1c0-.6.448-1 1-1z"/></svg>