<svg width="32" height="32" version="1.1" xmlns="http://www.w3.org/2000/svg">
 <rect x="3" y="3" width="26" height="26" rx="1.5" ry="1.5" fill="#4e9feb" stroke="#2778d4" stroke-linecap="round" stroke-linejoin="round" stroke-width="2" style="paint-order:markers stroke fill"/>
 <rect x="3" y="3" width="26" height="26" rx="1.5" ry="1.5" fill="#4e9feb" style="paint-order:markers stroke fill"/>
 <path d="m16 25a9 9 0 0 1-9-9 9 9 0 0 1 9-9 9 9 0 0 1 9 9 9 9 0 0 1-9 9zm0-1a8 8 0 0 0 8-8 8 8 0 0 0-8-8 8 8 0 0 0-8 8 8 8 0 0 0 8 8zm0-3c-0.554 0-1-0.446-1-1v-5c0-0.554 0.446-1 1-1s1 0.446 1 1v5c0 0.554-0.446 1-1 1zm0-8c-0.554 0-1-0.446-1-1s0.446-1 1-1 1 0.446 1 1-0.446 1-1 1z" fill="#ffffff" stroke-linecap="round" stroke-linejoin="round" stroke-width="1.0316"/>
</svg>
