<svg xmlns="http://www.w3.org/2000/svg" width="32" height="32" version="1.0"><g stroke-width="1.717" transform="matrix(.57986 0 0 .5849 -2.555 -2.425)"><rect width="25" height="15" x="19.5" y="5" fill="#b7b7b7" stroke="#2c3854" stroke-linecap="round" stroke-opacity=".541" paint-order="fill markers stroke" rx="0" ry="0"/><path fill="#5297ff" stroke="#2c3854" stroke-linecap="round" stroke-linejoin="round" stroke-opacity=".46" d="M16.93 19c-.62 3.932-.43 8.14-.43 11.5 0 8.446.376 15.245 2.998 19.879S26.917 57.5 32 57.5s9.88-2.487 12.502-7.121S47.5 38.946 47.5 30.5c0-3.36.19-7.568-.43-11.5z"/><rect width="6" height="4" x="23" y="11" fill="#707680" paint-order="fill markers stroke" rx="0" ry="0"/><rect width="6" height="4" x="35" y="11" fill="#707680" paint-order="fill markers stroke" rx="0" ry="0"/></g><path fill="#fff" d="M15 14v9h2v-9zm1 11c-.554 0-1 .446-1 1s.446 1 1 1 1-.446 1-1-.446-1-1-1z"/></svg>