<svg xmlns="http://www.w3.org/2000/svg" width="32" height="32"><path fill="#55aaf7" fill-opacity=".992" d="M16 1.5C8 1.5 1.5 8 1.5 16S8 30.5 16 30.5 30.5 24 30.5 16 24 1.5 16 1.5z" color="#000" opacity=".99" overflow="visible" style="marker:none"/><path fill="none" stroke="#002e99" stroke-linecap="round" stroke-linejoin="round" d="M16 1.502C8 1.502 1.502 8 1.502 16 1.502 24 8 30.498 16 30.498 24 30.498 30.498 24 30.498 16 30.498 8 24 1.502 16 1.502z" color="#000" opacity=".35" overflow="visible" style="marker:none;font-variant-east_asian:normal;isolation:auto;mix-blend-mode:normal;solid-color:#000;solid-opacity:1;filter-blend-mode:normal;filter-gaussianBlur-deviation:0"/><path fill="#fff" d="M11.8 15.788c.191.52.406.94.865.365.568-.339 2.473-1.82 2.282-.369-.61 2.687-1.352 5.346-1.92 8.04-.593 1.476.755 2.811 2.162 1.852 1.495-.617 2.782-1.621 4.097-2.542-.18-.44-.299-1.072-.794-.497-.651.295-2.073 1.688-2.337.54.547-2.91 1.56-5.712 2.207-8.598.596-1.327-.377-3.004-1.834-1.906-1.745.76-3.204 2.002-4.728 3.115zm6.477-9.786c-1.78-.094-2.712 2.776-1.02 3.562 1.373.563 2.868-.845 2.532-2.252-.104-.733-.761-1.334-1.512-1.31z" font-family="URW Palladio L" font-size="40" font-weight="700" style="line-height:100%;-inkscape-font-specification:&quot;URW Palladio L Bold&quot;;text-align:start"/></svg>