<svg xmlns="http://www.w3.org/2000/svg" width="32" height="32"><g style="paint-order:markers stroke fill"><path fill="#fff" fill-opacity=".976" stroke="#000" stroke-opacity=".268" stroke-width="1.9993026" d="M6.002 3.999c-.556 0-.503.502-.503 1.001h-2c-.498 0-.498 0-.498.499v10.5a.998.998 0 0 0 .998 1h23.999a.998.998 0 0 0 1.001-1v-10.5C29 5 29 5 28.497 5h-14C14.498 4.501 14.555 4 14 4z"/><path fill="#fff" fill-opacity=".976" d="M5.998 3.999c-.552 0-.499.502-.499 1.001h-2c-.498 0-.498 0-.498.499v10.5a.998.998 0 0 0 .998 1h23.999a.998.998 0 0 0 1.001-1v-10.5C29 5 29 5 28.5 5H14.498c0-.499.056-1.001-.5-1.001z"/><path fill="none" stroke="#003779" stroke-opacity=".561" stroke-width="1.9993026" d="M15.998 8.001c-.552 0-.718.522-.998 1.002l-.582.997H1.5c-.498 0-.498.5-.498.5v16.999c0 .499.498.499.498.499h29c.499 0 .499-.5.499-.5V8.5c0-.499-.5-.499-.5-.499z"/><path fill="#6ba4e7" d="M15.998 8.001c-.552 0-.718.522-.998.998L14.415 10H1.5c-.498 0-.498.5-.498.5v16.999c0 .499.498.499.498.499h29c.499 0 .499-.5.499-.5V8.5c0-.499-.5-.499-.5-.499z"/></g><path fill-opacity=".235" d="m16.014 13-6.089 6.09 1.179 1.178.982-.982V24h3.143v-2.357c0-.435.35-.786.785-.786.436 0 .786.35.786.786V24h3.143v-4.714l.982.982 1.179-1.179zm2.357.786v.589l1.572 1.571v-2.16z" color="#000" overflow="visible"/></svg>