<svg xmlns="http://www.w3.org/2000/svg" width="32" height="32"><path fill="#fbc02d" stroke="#ba8708" stroke-width="2" d="M13 26v1.5c0 .277.223.5.5.5h13c.277 0 .514-.223.5-.5V26H13.5zm-8 0v1.5c0 .277.223.5.5.5h5c.277 0 .478-.224.5-.5V26H5.5z"/><path fill="#fbc02d" d="M13 26v1.5c0 .277.223.5.5.5h13c.277 0 .514-.223.5-.5V26H13.5zm-8 0v1.5c0 .277.223.5.5.5h5c.277 0 .478-.224.5-.5V26H5.5z"/><rect width="30" height="23" x="1" y="3" fill="#29702c" rx="2" ry="2"/><g stroke-width=".5"><rect width="28" height="21" x="2" y="4" fill="#388e3c" rx="1" ry="1"/><path fill="#43a047" fill-rule="evenodd" d="m9 17.5-5 4V23l3-2v1l-3 2h2l.5 1H9v-2.5l3-2.5h1.5l-3 2.5V25h19c.277 0 .5-.223.5-.5v-1.546L26.5 18.5h-1l-1-1z"/><circle cx="29.25" cy="24.25" r=".75" fill="#fbc02d"/><circle cx="29.25" cy="24.25" r=".25" fill="#263238"/><circle cx="29.25" cy="4.75" r=".75" fill="#fbc02d"/><circle cx="29.25" cy="4.75" r=".25" fill="#263238"/><circle cx="2.75" cy="24.25" r=".75" fill="#fbc02d"/><circle cx="2.75" cy="24.25" r=".25" fill="#263238"/><circle cx="2.75" cy="4.75" r=".75" fill="#fbc02d"/><circle cx="2.75" cy="4.75" r=".25" fill="#263238"/><path fill="#43a047" fill-rule="evenodd" d="M5 4v4L4 9v1l1.5 1.5h19l3.5-4h2V7h-2V5l-4 4.5h-1.5l4-4.5-1-1z"/></g><rect width="15" height="9" x="8" y="10" fill="#2a363c" rx="1" ry="1"/><rect width="13" height="7" x="9" y="11" fill="#37474f" ry="0"/><rect width="8" height="3" x="6" y="6" fill="#263238" rx=".623" ry=".623"/><path fill="#90a4ae" d="M7 7h2v1H7zm3 0h1v1h-1z"/><rect width="8.5" height="3" x="18" y="20" fill="#eceff1" ry=".5"/><path fill="#37474f" d="M19 21h3v1h-3z"/><path fill="#37474f" fill-rule="evenodd" d="m24 22 1-1 1 1z"/><rect width="1" height="1" x="12" y="7" fill="#90a4ae" ry="0"/><path fill="#dfdfdf" fill-rule="evenodd" d="M10 12h1v5h-1zm2 0h1v5h-1zm2 0h1v5h-1zm2 0h1v5h-1zm2 0h1v5h-1zm2 0h1v5h-1z" opacity=".15" paint-order="fill markers stroke"/></svg>