<svg xmlns="http://www.w3.org/2000/svg" width="32" height="32"><rect width="27" height="27" x="2.5" y="2.5" fill="#fd9a4d" color="#000" overflow="visible" rx="2.16" ry="2.16" style="marker:none"/><rect width="27" height="27" x="2.5" y="2.5" fill="none" stroke="#a62100" stroke-linecap="round" stroke-linejoin="round" color="#000" opacity=".35" overflow="visible" rx="2.16" ry="2.16" style="marker:none"/><path fill="#fff" d="M6.095 24.352c0-.46.159-.847.477-1.16a1.586 1.586 0 0 1 1.167-.477c.449 0 .83.159 1.142.477.318.313.477.7.477 1.16 0 .45-.16.834-.477 1.152-.313.313-.693.47-1.142.47a1.6 1.6 0 0 1-1.167-.47 1.552 1.552 0 0 1-.477-1.152M6 16.956v2.725c3.48 0 6.307 2.832 6.307 6.319h2.734c0-4.995-4.056-9.044-9.041-9.044zm.005-5.962v3.012c6.608 0 11.973 5.373 11.973 11.99H21c0-8.284-6.724-15.002-14.995-15.002z" font-family="Bitstream Vera Serif" font-size="13.59" font-weight="700" style="line-height:125%;text-align:start"/></svg>