<svg xmlns="http://www.w3.org/2000/svg" width="32" height="32"><rect width="27" height="27" x="2.5" y="2.5" fill="#fbd15b" stroke="#b67926" stroke-linecap="round" stroke-linejoin="round" color="#000" overflow="visible" rx="2.16" ry="2.16" style="marker:none"/><rect width="27" height="27" x="2.5" y="2.5" fill="#fbd15b" color="#000" overflow="visible" rx="2.16" ry="2.16" style="marker:none"/><path fill="#b3b3b3" d="M10 23h12v-2.5H10z" color="#000" overflow="visible" style="marker:none"/><path fill="none" stroke="#000" stroke-linecap="square" d="M10.497 22.5h11.006" opacity=".2"/><path fill="none" stroke="#b67926" d="M4.695 4.507c-.207 0-.195.02-.195.174v14.414c0 .288-.035.385.333.385h4.268c.778 0 1.432-.148 1.399.73v2.27h11v-2.36c0-.646.692-.64 1.32-.64h4.456c.229 0 .224-.007.224-.24V4.673c0-.224-.01-.166-.204-.166z" color="#000" opacity=".3" overflow="visible" style="marker:none"/><g transform="matrix(1.1 0 0 1.09842 -1.6 -2.667)"><rect width="20" height="13.182" x="6" y="7.818" fill="#8f8f8f" fill-rule="evenodd" overflow="visible" rx="2.821" ry="2.821" style="marker:none"/><rect width="20" height="13" x="6" y="7" fill="#f9f9f9" fill-rule="evenodd" overflow="visible" rx="1" ry="1" style="marker:none"/><path fill="none" stroke="#a0a0a0" stroke-width=".91" d="m13.483 14.129-6.348 5.54zm5.049.025 6.392 5.413z" opacity=".5" overflow="visible" style="marker:none"/><path fill="none" stroke="#969696" stroke-width=".91" d="M6.22 8.384 16 15.958l9.928-7.625" opacity=".5" overflow="visible" style="marker:none"/></g><path fill="#fdecbb" d="M4.5 3C3.669 3 3 3.669 3 4.5v15c0 .831.669 1.5 1.5 1.5H10v-1H4.5a.499.499 0 0 1-.5-.5v-15c0-.277.223-.5.5-.5h23c.277 0 .5.223.5.5v15c0 .277-.223.5-.5.5H22v1h5.5c.831 0 1.5-.669 1.5-1.5v-15c0-.831-.669-1.5-1.5-1.5zM10 21.5v1.364c0 .63.515 1.136 1.154 1.136h9.692c.64 0 1.154-.507 1.154-1.136V21.5c0 .63-.515 1.5-1.154 1.5h-9.692c-.64 0-1.154-.87-1.154-1.5z" color="#000" overflow="visible" style="marker:none"/></svg>