<?xml version="1.0" encoding="UTF-8" standalone="no"?>
<svg
   xmlns:dc="http://purl.org/dc/elements/1.1/"
   xmlns:cc="http://creativecommons.org/ns#"
   xmlns:rdf="http://www.w3.org/1999/02/22-rdf-syntax-ns#"
   xmlns:svg="http://www.w3.org/2000/svg"
   xmlns="http://www.w3.org/2000/svg"
   xmlns:sodipodi="http://sodipodi.sourceforge.net/DTD/sodipodi-0.dtd"
   xmlns:inkscape="http://www.inkscape.org/namespaces/inkscape"
   version="1.1"
   width="32"
   height="32"
   id="svg6860"
   sodipodi:docname="multimedia-audio-player.svg"
   inkscape:version="0.92.4 (5da689c313, 2019-01-14)">
  <sodipodi:namedview
     pagecolor="#ffffff"
     bordercolor="#666666"
     borderopacity="1"
     objecttolerance="10"
     gridtolerance="10"
     guidetolerance="10"
     inkscape:pageopacity="0"
     inkscape:pageshadow="2"
     inkscape:window-width="1366"
     inkscape:window-height="697"
     id="namedview43"
     showgrid="false"
     inkscape:zoom="20.85965"
     inkscape:cx="12.319586"
     inkscape:cy="17.63767"
     inkscape:window-x="0"
     inkscape:window-y="0"
     inkscape:window-maximized="1"
     inkscape:current-layer="svg6860" />
  <defs
     id="defs6862" />
  <metadata
     id="metadata6865">
    <rdf:RDF>
      <cc:Work
         rdf:about="">
        <dc:format>image/svg+xml</dc:format>
        <dc:type
           rdf:resource="http://purl.org/dc/dcmitype/StillImage" />
        <dc:title />
      </cc:Work>
    </rdf:RDF>
  </metadata>
  <rect
     style="color:#000000;display:inline;overflow:visible;visibility:visible;fill:#fe9e51;fill-opacity:1;fill-rule:nonzero;stroke:none;stroke-width:0.99999994;marker:none;enable-background:accumulate"
     id="rect5505"
     y="2.5"
     x="2.5"
     ry="2.1600001"
     rx="2.1600001"
     height="27"
     width="27" />
  <rect
     style="color:#000000;display:inline;overflow:visible;visibility:visible;opacity:0.35;fill:none;stroke:#a62100;stroke-width:1;stroke-linecap:round;stroke-linejoin:round;stroke-miterlimit:4;stroke-dasharray:none;stroke-dashoffset:0;stroke-opacity:1;marker:none;enable-background:accumulate"
     id="rect5505-6"
     y="2.5"
     x="2.5"
     ry="2.1600001"
     rx="2.1600001"
     height="27"
     width="27" />
  <path
     style="color:#000000;display:inline;overflow:visible;visibility:visible;fill:#fff6ea;fill-opacity:1;fill-rule:nonzero;stroke:none;marker:none;enable-background:accumulate"
     id="path7249-8-0-4-0"
     d="m 16.46712,6.0005703 c -0.53931,-0.0776 -0.45336,0.42193 -0.44483,0.7731 -0.006,4.1691897 0.0117,8.3406697 -0.009,12.5084397 -0.145,0.32452 -0.55212,0.01 -0.80112,0.0722 -1.73418,-0.0541 -3.601661,1.19458 -3.847001,3.03023 -0.25326,1.37886 1.032041,2.59317 2.321571,2.61489 1.91783,0.0526 3.57786,-1.87874 3.33426,-3.81462 0.007,-3.3283 -0.013,-6.65927 0.01,-9.9859 0.13139,-0.31618 0.48559,-0.0185 0.65097,0.0946 1.52116,0.9203 2.85047,2.44629 2.94468,4.32794 0.0815,1.08847 -0.14664,2.17303 -0.46032,3.2072 1.39838,-2.3007 1.32266,-5.50375 -0.40514,-7.60535 -1.33049,-1.38838 -2.57965,-3.0451197 -2.83353,-5.0310797 -0.049,-0.18667 -0.30655,-0.18423 -0.46044,-0.19158 z" />
</svg>
