<svg xmlns="http://www.w3.org/2000/svg" width="32" height="32" version="1.0"><path fill="#e94f50" d="M1.55 3.5C.97 3.5.5 3.975.5 4.564V25h31V4.564c0-.589-.469-1.064-1.05-1.064z" color="#000" overflow="visible" style="marker:none"/><path fill="#7a0000" d="M1.55 3C.698 3 0 3.71 0 4.564V25h1V4.564C1 4.24 1.24 4 1.55 4h28.9c.31 0 .55.24.55.564V25h1V4.564C32 3.71 31.303 3 30.45 3z" color="#000" font-family="sans-serif" font-weight="400" opacity=".35" overflow="visible" style="line-height:normal;text-indent:0;text-align:start;text-decoration-line:none;text-decoration-style:solid;text-decoration-color:#000;text-transform:none;block-progression:tb;white-space:normal;isolation:auto;mix-blend-mode:normal;solid-color:#000;solid-opacity:1;marker:none"/><path fill="#fff" fill-rule="evenodd" d="M12.406 10.008a.504.504 0 0 0-.406.5v8.99a.504.504 0 0 0 .75.438l7.996-4.496a.503.503 0 0 0 0-.874L12.75 10.07a.504.504 0 0 0-.344-.062z"/><path fill="#546268" d="M.5 25v3.436c0 .589.469 1.064 1.05 1.064h28.9c.581 0 1.05-.475 1.05-1.064V25z" color="#000" overflow="visible" style="marker:none"/><path d="M0 25v3.436C0 29.29.697 30 1.55 30h28.9c.853 0 1.55-.71 1.55-1.564V25h-1v3.436c0 .324-.24.564-.55.564H1.55c-.31 0-.55-.24-.55-.564V25z" color="#000" font-family="sans-serif" font-weight="400" opacity=".35" overflow="visible" style="line-height:normal;text-indent:0;text-align:start;text-decoration-line:none;text-decoration-style:solid;text-decoration-color:#000;text-transform:none;block-progression:tb;white-space:normal;isolation:auto;mix-blend-mode:normal;solid-color:#000;solid-opacity:1;marker:none"/><path d="M2.463 27h27.074c.257 0 .463.206.463.463v.074a.462.462 0 0 1-.463.463H2.463A.462.462 0 0 1 2 27.537v-.074c0-.257.206-.463.463-.463z" opacity=".4"/><circle cx="8.5" cy="27.5" r="1.5" fill="#161b1e"/><path fill-rule="evenodd" d="M1 25v1h30v-1z" color="#000" font-family="sans-serif" font-weight="400" opacity=".5" overflow="visible" style="line-height:normal;text-indent:0;text-align:start;text-decoration-line:none;text-decoration-style:solid;text-decoration-color:#000;text-transform:none;block-progression:tb;white-space:normal;isolation:auto;mix-blend-mode:normal;solid-color:#000;solid-opacity:1"/></svg>