<svg xmlns="http://www.w3.org/2000/svg" width="32" height="32"><rect width="26" height="25" x="3" y="4" fill="#fafafa" color="#000" overflow="visible" rx="1.5" ry="1.5" style="marker:none"/><path fill="none" stroke="#000" d="M2.5 10v17.5c0 1.108.892 2 2 2h23c1.108 0 2-.892 2-2V10" color="#000" opacity=".2" overflow="visible" style="marker:none"/><path fill="none" stroke="#5e553c" d="M25.5 22.5h-19zm-.014-8.981L6.5 13.505V25.5h19zM25.5 19.5h-19m19-3h-19m3.013-2.969L9.487 25.5m4.016-11.917L13.498 25.5m4-11.958.005 11.958m3.987-12 .02 12" opacity=".25"/><path fill="#9add49" d="M4.5 3.5c-1.108 0-2 .892-2 2v4h27v-4c0-1.108-.892-2-2-2z" color="#000" overflow="visible" style="marker:none"/><path fill="none" stroke="#126400" d="M2.5 9.5v-4c0-1.108.892-2 2-2h23c1.108 0 2 .892 2 2v4z" color="#000" opacity=".25" overflow="visible" style="marker:none"/><path fill="#126400" d="M6.26 6.5c0 1-1.5 1-1.5 0s1.5-1 1.5 0zm20.99 0c0 1-1.5 1-1.5 0s1.5-1 1.5 0z" color="#000" opacity=".4" overflow="visible" style="marker:none"/></svg>