<svg xmlns="http://www.w3.org/2000/svg" width="32" height="32" version="1.0"><rect width="30" height="25" x="1.5" y="4.5" fill="#707c94" color="#000" overflow="visible" rx="1.017" ry="1.064" style="marker:none"/><path stroke="#000" stroke-linejoin="round" stroke-width="2" d="M7 13v2h3v-2zm4 0v2h3v-2zm4 0v2h3v-2zm4 0v2h3v-2zm4 0v2h3v-2zM7 16v2h3v-2zm4 0v2h3v-2zm4 0v2h3v-2zm4 0v2h3v-2zm4 0v2h3v-2zM7 19v2h3v-2zm4 0v2h3v-2zm4 0v2h3v-2zm4 0v2h3v-2zm4 0v2h3v-2zm-12 3v2h11v-2z" color="#000" opacity=".011" overflow="visible" style="marker:none"/><rect width="30" height="25" x="1.5" y="4.5" fill="none" stroke="#1c2c38" stroke-linecap="round" stroke-linejoin="round" color="#000" opacity=".5" overflow="visible" rx="1.017" ry="1.064" style="marker:none"/><path fill="#f9f9f9" d="M7 11v2h3v-2zm4 0v2h3v-2zm4 0v2h3v-2zm4 0v2h3v-2zm4 0v2h3v-2zM7 14v2h3v-2zm4 0v2h3v-2zm4 0v2h3v-2zm4 0v2h3v-2zm4 0v2h3v-2zM7 17v2h3v-2zm4 0v2h3v-2zm4 0v2h3v-2zm4 0v2h3v-2zm4 0v2h3v-2zm-12 3v2h11v-2z" color="#000" overflow="visible" style="marker:none"/></svg>