<svg width="32" height="32" version="1.1" xmlns="http://www.w3.org/2000/svg">
 <rect transform="scale(1,-1)" y="-31" width="32" height="30" rx="2" ry="2" opacity=".25"/>
 <rect transform="scale(1,-1)" x="1" y="-30" width="30" height="28" rx="1" ry="1" fill="#eeeeee"/>
 <path d="m2 30c-0.554 0-1-0.446-1-1v-3h30v3c0 0.554-0.446 1-1 1z" fill="#e4e4e4"/>
 <rect transform="scale(1,-1)" x="27" y="-29" width="2" height="2" rx="1" fill="#999999"/>
 <rect transform="scale(1,-1)" x="1" y="-26" width="30" height="1" ry="0" opacity=".25"/>
 <path d="m3 27v1h1v-1zm1 1v1h1v-1z" fill="#999999"/>
 <circle cx="16" cy="14" r="8" fill="#ffffff" fill-rule="evenodd" style="paint-order:stroke fill markers"/>
 <path class="ColorScheme-Text" d="m14.549 8.0032a0.386 0.386 0 0 0-0.427 0.484l0.106 0.395a5.424 5.424 0 0 0-0.908 0.41c-0.01 5e-3 -0.022 5e-3 -0.032 0.011s-0.016 0.016-0.026 0.023a5.424 5.424 0 0 0-0.81 0.58l-0.287-0.288a0.38714 0.38714 0 1 0-0.547 0.548l0.286 0.286a5.424 5.424 0 0 0-0.601 0.837 5.424 5.424 0 0 0-0.425 0.938l-0.39-0.105a0.386 0.386 0 0 0-0.475 0.274 0.386 0.386 0 0 0 0.274 0.474l0.392 0.106a5.424 5.424 0 0 0-1e-3 2.05l-0.39 0.105a0.386 0.386 0 0 0-0.275 0.473c0.056 0.208 0.267 0.33 0.474 0.274l0.395-0.106a5.424 5.424 0 0 0 1.023 1.775l-0.288 0.288a0.38749 0.38749 0 1 0 0.548 0.548l0.286-0.286a5.424 5.424 0 0 0 0.837 0.6 5.424 5.424 0 0 0 0.938 0.426l-0.104 0.39a0.386 0.386 0 0 0 0.274 0.474 0.386 0.386 0 0 0 0.473-0.274l0.106-0.392a5.424 5.424 0 0 0 2.05 2e-3l0.105 0.39c0.056 0.207 0.267 0.33 0.474 0.274a0.386 0.386 0 0 0 0.274-0.474l-0.106-0.395a5.424 5.424 0 0 0 1.775-1.023l0.288 0.288a0.38714 0.38714 0 1 0 0.547-0.548l-0.286-0.286a5.424 5.424 0 0 0 0.601-0.837 5.424 5.424 0 0 0 0.425-0.938l0.39 0.104a0.386 0.386 0 0 0 0.475-0.274 0.386 0.386 0 0 0-0.274-0.473l-0.392-0.106a5.424 5.424 0 0 0 0.098-1.003c0-8e-3 5e-3 -0.014 5e-3 -0.022 0-0.01-6e-3 -0.017-6e-3 -0.027a5.424 5.424 0 0 0-0.096-0.999l0.39-0.104a0.386 0.386 0 0 0 0.275-0.474 0.386 0.386 0 0 0-0.474-0.274l-0.395 0.106a5.424 5.424 0 0 0-1.023-1.775l0.288-0.287a0.38749 0.38749 0 1 0-0.548-0.548l-0.286 0.286a5.424 5.424 0 0 0-0.837-0.6 5.424 5.424 0 0 0-0.938-0.426l0.104-0.39a0.386 0.386 0 0 0-0.274-0.474 0.386 0.386 0 0 0-0.474 0.274l-0.106 0.392a5.424 5.424 0 0 0-2.05-2e-3l-0.104-0.39a0.388 0.388 0 0 0-0.321-0.285zm1.232 1.353a4.649 4.649 0 0 1 2.543 0.619 4.649 4.649 0 0 1 2.304 3.638h-3.13a1.55 1.55 0 0 0-1.498-1.163 1.55 1.55 0 0 0-0.413 0.057l-1.566-2.712a4.649 4.649 0 0 1 1.76-0.44zm-2.43 0.83 1.564 2.71a1.55 1.55 0 0 0-0.465 1.104 1.55 1.55 0 0 0 0.463 1.105l-1.564 2.71a4.649 4.649 0 0 1-1.374-6.14 4.649 4.649 0 0 1 1.375-1.488zm2.649 3.041a0.775 0.775 0 0 1 0.775 0.774 0.775 0.775 0 0 1-0.775 0.775 0.775 0.775 0 0 1-0.775-0.775 0.775 0.775 0 0 1 0.775-0.774zm1.5 1.162h3.128a4.649 4.649 0 0 1-0.603 1.937 4.649 4.649 0 0 1-6.004 1.878l1.564-2.71a1.55 1.55 0 0 0 0.415 0.057 1.55 1.55 0 0 0 1.5-1.162z" color="#363636" fill="#808080"/>
</svg>
