<svg xmlns="http://www.w3.org/2000/svg" width="32" height="32"><path fill="none" stroke="#000" d="M16 1.5C8 1.5 1.5 8 1.5 16S8 30.5 16 30.5 30.5 24 30.5 16 24 1.5 16 1.5z" color="#000" opacity=".15" overflow="visible"/><path fill="#f9f9f9" d="M16 2C8.275 2 2 8.275 2 16s6.275 14 14 14 14-6.275 14-14S23.725 2 16 2z" color="#000" overflow="visible"/><g stroke-opacity=".55"><path fill="#404447" d="M16 2C8.244 2 2 8.244 2 16h4.9A9.08 9.08 0 0 1 16 6.9zm9.1 14a9.08 9.08 0 0 1-9.1 9.1V30c7.756 0 14-6.244 14-14z"/><path fill="#83959d" d="M16 5C9.906 5 5 9.906 5 16s4.906 11 11 11 11-4.906 11-11h-4.53A6.456 6.456 0 0 1 16 22.47 6.456 6.456 0 0 1 9.53 16 6.456 6.456 0 0 1 16 9.53z"/><path fill="#20cdab" stroke-width="2.8" d="M16 8c-4.432 0-8 3.568-8 8s3.568 8 8 8 8-3.568 8-8-3.568-8-8-8z"/></g><circle cx="16" cy="16" r="4" fill="#f9f9f9"/></svg>