<svg xmlns="http://www.w3.org/2000/svg" width="32" height="32"><g transform="translate(-384.57 -515.8)"><rect width="32" height="30" x="384.57" y="-546.8" opacity=".25" rx="2" ry="2" transform="scale(1 -1)"/><rect width="30" height="28" x="385.57" y="-545.8" fill="#eee" rx="1" ry="1" transform="scale(1 -1)"/><path fill="#e4e4e4" d="M386.57 545.8c-.554 0-1-.446-1-1v-3h30v3c0 .554-.446 1-1 1z"/><rect width="2" height="2" x="411.57" y="-544.8" fill="#999" rx="1" transform="scale(1 -1)"/><rect width="30" height="1" x="385.57" y="-541.8" opacity=".25" ry="0" transform="scale(1 -1)"/><path fill="#999" d="M387.57 542.8v1h1v-1zm1 1v1h1v-1z"/><path fill="#666" d="M399.07 522.8a5.5 5.5 0 0 0-5.5 5.5 5.5 5.5 0 0 0 5.5 5.5 5.5 5.5 0 0 0 3.52-1.275l4.279 4.279.705-.707-4.281-4.281a5.5 5.5 0 0 0 1.277-3.516 5.5 5.5 0 0 0-5.5-5.5zm0 1a4.5 4.5 0 0 1 4.5 4.5 4.5 4.5 0 0 1-4.5 4.5 4.5 4.5 0 0 1-4.5-4.5 4.5 4.5 0 0 1 4.5-4.5z" opacity=".75"/></g></svg>