<svg xmlns="http://www.w3.org/2000/svg" width="32" height="32"><g transform="translate(0 -1020.4)"><rect width="28" height="28" x="2" y="1022.4" fill="#26333a" rx="14"/><rect width="26" height="26" x="3" y="1023.4" fill="#46515c" rx="13"/><path fill="#ffdb50" d="M16 1029.4a3 3 0 0 0-2.826 2H15v1h-2v1h2v1h-2v1h2v1h-2a3 3 0 0 0 3 3 3 3 0 0 0 3-3h-2v-1h2v-1h-2v-1h2v-1h-2v-1h1.824a3 3 0 0 0-2.824-2zm-5 7a5 5 0 0 0 3.492 4.762L13 1043.4h6l-1.49-2.234A5 5 0 0 0 21 1036.4h-1a4 4 0 0 1-4 4 4 4 0 0 1-4-4h-1z"/></g></svg>