<svg width="32" height="32" version="1.1" xmlns="http://www.w3.org/2000/svg">
 <rect transform="scale(1,-1)" x="3" y="-29" width="26" height="26" rx="1.615" ry="1.615" fill="#f4f4f4" overflow="visible"/>
 <rect x="2.5" y="2.5" width="27" height="27" rx="2.16" ry="2.16" fill="none" opacity=".25" overflow="visible" stroke="#555761" stroke-linecap="round" stroke-linejoin="round"/>
 <path d="m11 7.9999c1.108 0 2 0.89204 2 2.0001v14c0 1.1081-0.892 2.0001-2 2.0001-1.108 0-2-0.89204-2-2.0001v-14c0-1.1081 0.892-2.0001 2-2.0001z" fill="#b3b3b3" fill-rule="evenodd" opacity=".75" stroke-width=".80179" style="paint-order:stroke fill markers"/>
 <g fill="#45a4e9">
  <path d="m6.714 10.924a4.2886 4.3609 0 0 1 8.572 0 4.2862 4.3584 0 0 1-8.572 0z" color="#000000" overflow="visible" stroke="#1987d7" stroke-width="1.4287"/>
  <path d="m7.0004 10.933a4.0023 4.0692 0 0 1 8.0001 0 4 4.0669 0 0 1-8.0001 0z" color="#000000" overflow="visible" stroke-width="2.5196"/>
  <path d="m6.714 10.924a4.2886 4.3609 0 0 1 8.572 0 4.2862 4.3584 0 0 1-8.572 0z" color="#000000" overflow="visible" stroke="#1987d7" stroke-width="1.4287"/>
  <path d="m7.0004 10.933a4.0023 4.0692 0 0 1 8.0001 0 4 4.0669 0 0 1-8.0001 0z" color="#000000" overflow="visible" stroke-width="2.5196"/>
 </g>
 <g transform="matrix(1 0 0 -1 -2 32)">
  <path d="m23 7.9999c1.108 0 2 0.89204 2 2.0001v14c0 1.1081-0.892 2.0001-2 2.0001s-2-0.89204-2-2.0001v-14c0-1.1081 0.892-2.0001 2-2.0001z" fill="#b3b3b3" fill-rule="evenodd" opacity=".75" stroke-width=".80179" style="paint-order:stroke fill markers"/>
  <path d="m18.713 10.924a4.2886 4.3609 0 0 1 8.572 0 4.2862 4.3584 0 0 1-8.572 0z" color="#000000" fill="#45a4e9" overflow="visible" stroke="#1987d7" stroke-width="1.4287"/>
  <path d="m19 10.933a4.0023 4.0692 0 0 1 8.0001 0 4 4.0669 0 0 1-8.0001 0z" color="#000000" fill="#45a4e9" overflow="visible" stroke-width="2.5196"/>
 </g>
</svg>
