<svg xmlns="http://www.w3.org/2000/svg" xmlns:xlink="http://www.w3.org/1999/xlink" viewBox="0 0 32 32"><linearGradient id="b"><stop offset="0" stop-color="#7f8c8d"/><stop offset="1" stop-color="#bdc3c7"/></linearGradient><linearGradient id="c"><stop offset="0" stop-color="#31363b"/><stop offset="1" stop-color="#232629"/></linearGradient><linearGradient xlink:href="#b" id="e" x1="26" x2="27" y1="10" y2="5" gradientUnits="userSpaceOnUse"/><radialGradient id="d" cx="23" cy="13" r="6.324" gradientTransform="matrix(1 0 0 .31624 -1 8.889)" gradientUnits="userSpaceOnUse"><stop offset="0" stop-color="#4d4d4d"/><stop offset="1" stop-color="#31363b"/></radialGradient><linearGradient id="g" x1="9" x2="11" y1="13" y2="15" gradientUnits="userSpaceOnUse"><stop offset="0" stop-color="#fcfcfc"/><stop offset="1" stop-color="#eff0f1"/></linearGradient><linearGradient xlink:href="#b" id="f" x1="13" x2="7" y1="17" y2="11" gradientUnits="userSpaceOnUse"/><linearGradient id="a"><stop offset="0" stop-color="#292c2f"/><stop offset="1" stop-opacity="0"/></linearGradient><g transform="translate(-117.7 -413.07)"><path fill="#e1e3e7" d="M122.7 415.07v28h22v-28z"/><rect width="23" height="29" x="122.2" y="414.57" fill="none" stroke="#000" stroke-opacity=".24" rx=".5" ry=".5"/><g fill="#8c8c8c"><rect width="1" height="1" x="123.7" y="416.07" rx="1" ry="1"/><rect width="1" height="1" x="142.7" y="416.07" rx="1" ry="1"/><rect width="1" height="1" x="142.7" y="441.07" rx="1" ry="1"/><rect width="1" height="1" x="123.7" y="441.07" rx="1" ry="1"/><rect width="1" height="1" x="123.7" y="428.07" rx="1" ry="1"/><rect width="1" height="1" x="142.7" y="428.07" rx="1" ry="1"/></g><path fill="#edeff3" stroke="#cbcdd1" d="m137.3 417.57-9.239 8.892a8.5 8.074 0 0 0-2.867 6.034 8.5 8.074 0 0 0 8.5 8.074 8.5 8.074 0 0 0 8.5-8.074 8.5 8.074 0 0 0-.016-.417.222.222 0 0 0 .016-.073v-14.191a.25.25 0 0 0-.258-.245z"/><rect width="11" height="6" x="126.2" y="418.57" fill="#4c5263" stroke="#323642" rx="1.5" ry="1.5"/><path fill="#e9eaee" d="M127.7 419.74v.667h1.594v-.667zm1.804 0v.667h1.51v-.667zm1.72 0v.667h1.322v-.667zm1.532 0v.667h.588v-.667zm-5.056 1.333v.667h2.538v-.667zm2.79 0v.667h1.217v-.667zm1.448 0v.667h.566v-.667zm-4.238 2v.667h2.811v-.667zm3.02 0v.667h1.473v-.667zm2.313 0v.667h2.667v-.667z"/></g><path fill="url(#d)" d="M15.676 11A7 7 0 0 0 22 15a7 7 0 0 0 6.324-4h-1.129A6 6 0 0 1 22 14a6 6 0 0 1-5.195-3z" style="fill:#333"/><path fill="none" stroke="url(#e)" d="M18 5.5h-2.5V10m13 0V5.5H26" style="fill:none;stroke:#797979;stroke-opacity:1;stroke-linecap:round;stroke-linejoin:round"/><path d="M16 9a1 1 0 0 0-1 1v3a1 1 0 0 0 .293.707l5.691 5.691A5 5 0 0 1 11 19v-3H9v3a7 7 0 0 0 13.984.43l5.723-5.723A1 1 0 0 0 29 13v-3a1 1 0 0 0-1-1 1 1 0 0 0-1 1v2.586l-5 5-5-5V10a1 1 0 0 0-1-1z" style="fill:#4d4d4d"/><path d="M18 7V4h1.5a1.5 1.5 0 1 1 0 3zM26 4v3h-1.5a1.5 1.5 0 1 1 0-3z" style="fill:#333"/><circle cx="10" cy="14" r="3" fill="url(#f)" style="fill:#999"/><circle cx="10" cy="14" r="2" fill="url(#g)" style="fill:#f9f9f9"/></svg>