<svg xmlns="http://www.w3.org/2000/svg" width="32" height="32"><g transform="translate(-384.57 -515.8)"><rect width="32" height="30" x="384.57" y="516.8" opacity=".25" rx="2" ry="2"/><rect width="30" height="28" x="385.57" y="517.8" fill="#eee" rx="1" ry="1"/><path fill="#e4e4e4" d="M386.57 517.8c-.554 0-1 .446-1 1v5h30v-5c0-.554-.446-1-1-1z"/><rect width="2" height="2" x="411.57" y="519.8" fill="#999" rx="1"/><rect width="30" height="1" x="385.57" y="523.8" opacity=".25" ry="0"/><path fill="gray" d="M397.07 527.8c-.485 0-.875.39-.875.875s.39.875.875.875.875-.39.875-.875-.39-.875-.875-.875zm5.5 0-2 2 3 3-3 3 2 2 5-5-2-2zm-7.688 5.25a1.31 1.31 0 0 0-1.312 1.313 1.31 1.31 0 0 0 1.313 1.312 1.31 1.31 0 0 0 1.312-1.313 1.31 1.31 0 0 0-1.313-1.312zm3.938 5.25c-.97 0-1.75.78-1.75 1.75s.78 1.75 1.75 1.75 1.75-.78 1.75-1.75-.78-1.75-1.75-1.75z"/></g></svg>