<?xml version="1.0" encoding="UTF-8" standalone="no"?>
<svg
   xmlns:dc="http://purl.org/dc/elements/1.1/"
   xmlns:cc="http://creativecommons.org/ns#"
   xmlns:rdf="http://www.w3.org/1999/02/22-rdf-syntax-ns#"
   xmlns:svg="http://www.w3.org/2000/svg"
   xmlns="http://www.w3.org/2000/svg"
   xmlns:xlink="http://www.w3.org/1999/xlink"
   xmlns:sodipodi="http://sodipodi.sourceforge.net/DTD/sodipodi-0.dtd"
   xmlns:inkscape="http://www.inkscape.org/namespaces/inkscape"
   version="1.1"
   width="32"
   height="32"
   id="svg4354"
   viewBox="0 0 32 32"
   sodipodi:docname="preferences-desktop-accessibility-zoom.svg"
   inkscape:version="0.92.4 (5da689c313, 2019-01-14)">
  <sodipodi:namedview
     pagecolor="#ffffff"
     bordercolor="#666666"
     borderopacity="1"
     objecttolerance="10"
     gridtolerance="10"
     guidetolerance="10"
     inkscape:pageopacity="0"
     inkscape:pageshadow="2"
     inkscape:window-width="1366"
     inkscape:window-height="697"
     id="namedview126"
     showgrid="true"
     inkscape:zoom="10.429825"
     inkscape:cx="7.5263956"
     inkscape:cy="11.090197"
     inkscape:window-x="0"
     inkscape:window-y="0"
     inkscape:window-maximized="1"
     inkscape:current-layer="svg4354">
    <inkscape:grid
       type="xygrid"
       id="grid933" />
  </sodipodi:namedview>
  <defs
     id="defs4356">
    <linearGradient
       x1="19.874987"
       y1="38.245197"
       x2="19.874987"
       y2="-61.256123"
       id="linearGradient4251"
       xlink:href="#linearGradient3707-319-631-407-1-846-5-4-5-44"
       gradientUnits="userSpaceOnUse"
       gradientTransform="matrix(-0.29999995,0,0,0.29999995,34.258887,19.300002)" />
    <linearGradient
       id="linearGradient3707-319-631-407-1-846-5-4-5-44">
      <stop
         id="stop3788-4-8-9-7"
         style="stop-color:#365a7c;stop-opacity:1"
         offset="0" />
      <stop
         id="stop3790-2-1-9-6"
         style="stop-color:#5ea1ca;stop-opacity:1"
         offset="1" />
    </linearGradient>
    <linearGradient
       id="linearGradient5060-6-6-5">
      <stop
         id="stop5062-3-0-3"
         style="stop-color:#000000;stop-opacity:1"
         offset="0" />
      <stop
         id="stop5064-1-4-9"
         style="stop-color:#000000;stop-opacity:0"
         offset="1" />
    </linearGradient>
    <clipPath
       clipPathUnits="userSpaceOnUse"
       id="clipPath97202-9">
      <circle
         style="opacity:1;fill:#be0505;fill-opacity:1;stroke:none;stroke-width:3.70842028;stroke-linejoin:round;stroke-miterlimit:4;stroke-dasharray:none;stroke-opacity:1"
         id="circle97204-4"
         cx="14.991283"
         cy="21.818609"
         r="7.5999999" />
    </clipPath>
    <radialGradient
       xlink:href="#linearGradient5060-6-6-5"
       id="radialGradient97186-5"
       gradientUnits="userSpaceOnUse"
       gradientTransform="matrix(0.04372487,0,0,0.01647059,0.20519206,21.294422)"
       cx="605.71429"
       cy="486.64789"
       fx="605.71429"
       fy="486.64789"
       r="117.14286" />
  </defs>
  <metadata
     id="metadata4359">
    <rdf:RDF>
      <cc:Work
         rdf:about="">
        <dc:format>image/svg+xml</dc:format>
        <dc:type
           rdf:resource="http://purl.org/dc/dcmitype/StillImage" />
        <dc:title />
      </cc:Work>
    </rdf:RDF>
  </metadata>
  <rect
     style="color:#000000;display:inline;overflow:visible;visibility:visible;fill:#5ab0fa;fill-opacity:1;fill-rule:nonzero;stroke:none;stroke-width:1;stroke-linecap:round;stroke-linejoin:round;stroke-miterlimit:4;stroke-dasharray:none;stroke-dashoffset:0;stroke-opacity:1;marker:none;enable-background:accumulate"
     id="rect5505"
     y="3.5"
     x="1.5"
     ry="2.0799999"
     rx="2"
     height="26"
     width="29" />
  <path
     style="opacity:0.7;fill:#ffffff;fill-opacity:1;stroke:#ffffff;stroke-width:0.99999994px;stroke-linecap:butt;stroke-linejoin:miter;stroke-opacity:1"
     id="path4306"
     d="m 5.5,25.5 c -0.554,0 -1,0.446 -1,1 v 2 h 23 v -2 c 0,-0.554 -0.446,-1 -1,-1 z" />
  <path
     style="color:#000000;display:inline;overflow:visible;visibility:visible;fill:#f7f7f7;fill-opacity:1;fill-rule:nonzero;stroke:#ffffff;stroke-width:0.98542714;stroke-linecap:butt;stroke-linejoin:miter;stroke-miterlimit:4;stroke-dashoffset:0;stroke-opacity:1;marker:none;enable-background:accumulate"
     id="path3176"
     d="M 8.206706,23.492713 H 5.7932951 c -0.1665219,0 -0.3005814,0.13406 -0.3005814,0.300581 v 2.413411 c 0,0.166522 0.1340595,0.300581 0.3005814,0.300581 H 8.206706 c 0.1665209,0 0.3005805,-0.134059 0.3005805,-0.300581 v -2.413411 c 0,-0.166521 -0.1340596,-0.300581 -0.3005805,-0.300581 z" />
  <rect
     style="color:#000000;clip-rule:nonzero;display:inline;overflow:visible;visibility:visible;opacity:0.35;isolation:auto;mix-blend-mode:normal;color-interpolation:sRGB;color-interpolation-filters:linearRGB;solid-color:#000000;solid-opacity:1;fill:#000000;fill-opacity:0;fill-rule:nonzero;stroke:#002e99;stroke-width:1;stroke-linecap:round;stroke-linejoin:round;stroke-miterlimit:4;stroke-dasharray:none;stroke-dashoffset:0;stroke-opacity:1;marker:none;color-rendering:auto;image-rendering:auto;shape-rendering:auto;text-rendering:auto;enable-background:accumulate"
     id="rect5505-1"
     y="3.5"
     x="1.5"
     ry="2.0799999"
     rx="2"
     height="26"
     width="29" />
  <path
     style="color:#000000;display:inline;overflow:visible;visibility:visible;fill:#f7f7f7;fill-opacity:1;fill-rule:nonzero;stroke:#ffffff;stroke-width:0.98542714;stroke-linecap:butt;stroke-linejoin:miter;stroke-miterlimit:4;stroke-dashoffset:0;stroke-opacity:1;marker:none;enable-background:accumulate"
     id="path3176-5-3"
     d="m 26.206706,22.492713 h -2.413411 c -0.166522,0 -0.300581,0.13406 -0.300581,0.300581 v 2.413411 c 0,0.166522 0.134059,0.300581 0.300581,0.300581 h 2.413411 c 0.166521,0 0.300581,-0.134059 0.300581,-0.300581 v -2.413411 c 0,-0.166521 -0.13406,-0.300581 -0.300581,-0.300581 z" />
  <g
     transform="matrix(1.25,0,0,1.25,0.7608952,-7.773262)"
     id="g97098"
     clip-path="url(#clipPath97202-9)">
    <path
       style="display:inline;overflow:visible;visibility:visible;opacity:0.40206185;fill:url(#radialGradient97186-5);fill-opacity:1;fill-rule:nonzero;stroke:none;stroke-width:1;marker:none"
       id="path97102"
       d="m 26.556432,27.333467 c 0,0 0,3.999779 0,3.999779 C 28.808154,31.340773 32,30.437099 32,29.333099 c 0,-1.104 -2.512752,-1.999632 -5.443568,-1.999632 z" />
    <path
       style="color:#000000;display:inline;overflow:visible;visibility:visible;fill:#f7f7f7;fill-opacity:1;fill-rule:nonzero;stroke:#ffffff;stroke-width:0.98542714;stroke-linecap:butt;stroke-linejoin:miter;stroke-miterlimit:4;stroke-dashoffset:0;stroke-opacity:1;marker:none;enable-background:accumulate"
       id="path97112"
       d="M 8.206706,23.492713 H 5.7932951 c -0.1665219,0 -0.3005814,0.13406 -0.3005814,0.300581 v 2.413411 c 0,0.166522 0.1340595,0.300581 0.3005814,0.300581 H 8.206706 c 0.1665209,0 0.3005805,-0.134059 0.3005805,-0.300581 v -2.413411 c 0,-0.166521 -0.1340596,-0.300581 -0.3005805,-0.300581 z" />
    <path
       style="color:#000000;display:inline;overflow:visible;visibility:visible;fill:#f7f7f7;fill-opacity:1;fill-rule:nonzero;stroke:#ffffff;stroke-width:0.98542714;stroke-linecap:butt;stroke-linejoin:miter;stroke-miterlimit:4;stroke-dashoffset:0;stroke-opacity:1;marker:none;enable-background:accumulate"
       id="path97116"
       d="m 14.206706,23.492713 h -2.413411 c -0.166522,0 -0.300581,0.13406 -0.300581,0.300581 v 2.413411 c 0,0.166522 0.134059,0.300581 0.300581,0.300581 h 2.413411 c 0.166521,0 0.300581,-0.134059 0.300581,-0.300581 v -2.413411 c 0,-0.166521 -0.13406,-0.300581 -0.300581,-0.300581 z" />
    <path
       style="color:#000000;display:inline;overflow:visible;visibility:visible;fill:#f7f7f7;fill-opacity:1;fill-rule:nonzero;stroke:#ffffff;stroke-width:0.98542714;stroke-linecap:butt;stroke-linejoin:miter;stroke-miterlimit:4;stroke-dashoffset:0;stroke-opacity:1;marker:none;enable-background:accumulate"
       id="path97120"
       d="m 20.206706,23.492713 h -2.413411 c -0.166522,0 -0.300581,0.13406 -0.300581,0.300581 v 2.413411 c 0,0.166522 0.134059,0.300581 0.300581,0.300581 h 2.413411 c 0.166521,0 0.300581,-0.134059 0.300581,-0.300581 v -2.413411 c 0,-0.166521 -0.13406,-0.300581 -0.300581,-0.300581 z" />
    <path
       style="color:#000000;display:inline;overflow:visible;visibility:visible;opacity:0.3;fill:url(#linearGradient4251);fill-opacity:1;fill-rule:nonzero;stroke:none;stroke-width:1;marker:none;enable-background:accumulate"
       id="path97122"
       d="M 27.118401,22.000001 H 22.881597 C 22.393193,22.000001 22,22.393194 22,22.881598 v 4.236805 C 22,27.606808 22.393193,28 22.881597,28 h 4.236804 C 27.606807,28 28,27.606808 28,27.118403 v -4.236805 c 0,-0.488404 -0.393193,-0.881597 -0.881599,-0.881597 z" />
    <path
       style="color:#000000;display:inline;overflow:visible;visibility:visible;fill:#f7f7f7;fill-opacity:1;fill-rule:nonzero;stroke:#ffffff;stroke-width:0.98542714;stroke-linecap:butt;stroke-linejoin:miter;stroke-miterlimit:4;stroke-dashoffset:0;stroke-opacity:1;marker:none;enable-background:accumulate"
       id="path97124"
       d="m 26.206706,23.492713 h -2.413411 c -0.166522,0 -0.300581,0.13406 -0.300581,0.300581 v 2.413411 c 0,0.166522 0.134059,0.300581 0.300581,0.300581 h 2.413411 c 0.166521,0 0.300581,-0.134059 0.300581,-0.300581 v -2.413411 c 0,-0.166521 -0.13406,-0.300581 -0.300581,-0.300581 z" />
  </g>
  <path
     style="color:#000000;display:inline;overflow:visible;visibility:visible;opacity:1;fill:#737d92;fill-opacity:1;fill-rule:nonzero;stroke:none;stroke-width:0.79069769;marker:none;enable-background:accumulate"
     d="M 19.685486,7.50581 A 11.5,11.5 0 0 0 7.849549,19.0019 a 11.5,11.5 0 0 0 23,0 A 11.5,11.5 0 0 0 19.685486,7.50581 Z m -0.333984,2.99414 c 4.709,0 8.5,3.791 8.5,8.5 0,4.709 -3.791,8.5 -8.5,8.5 -4.709,0 -8.5,-3.791 -8.5,-8.5 0,-4.709 3.791,-8.5 8.5,-8.5 z"
     id="path4218" />
  <path
     style="display:inline;opacity:0.2;fill:none;stroke:#000000;stroke-width:0.99999982;stroke-miterlimit:4;stroke-dasharray:none;stroke-opacity:1"
     id="path7624"
     d="m 30.850462,19.00222 a 11.499999,11.497725 0 0 1 -22.99999,0 11.5,11.497726 0 1 1 22.99999,0 z" />
  <rect
     style="color:#000000;display:inline;overflow:visible;visibility:visible;opacity:0.15;fill:#ffffff;fill-opacity:1;fill-rule:nonzero;stroke:none;stroke-width:0.99999994;marker:none;enable-background:accumulate"
     id="rect12733"
     transform="rotate(90)"
     y="-23.351257"
     x="11.99995"
     ry="25"
     rx="25"
     height="8"
     width="7" />
  <circle
     style="opacity:0.35;fill:#ffffff;fill-opacity:1;stroke:none;stroke-width:2;stroke-linecap:round;stroke-linejoin:round;stroke-miterlimit:4;stroke-dasharray:none;stroke-opacity:1;paint-order:markers stroke fill"
     id="path935"
     cx="19.380152"
     cy="18.955425"
     r="8.5" />
</svg>
