<svg xmlns="http://www.w3.org/2000/svg" width="32" height="32"><linearGradient id="a" x1="-16.5" x2="-16.5" y1="29.5" y2="5.5" gradientUnits="userSpaceOnUse"><stop offset="0" stop-color="#31363b"/><stop offset="1" stop-color="#333c45"/></linearGradient><path fill="#3b84b3" stroke="#000" stroke-linecap="round" stroke-linejoin="round" stroke-opacity=".25" d="M4 30h24v-2H4zM4 2h24v2H4z"/><path fill="#292c2f" d="M4 28h24v2H4z" opacity=".2"/><path fill="#72b6e7" stroke="#000" stroke-linecap="round" stroke-linejoin="round" stroke-opacity=".25" d="M3 2a1 1 0 0 0-.1.006 1 1 0 0 0-.1.014 1 1 0 0 0-.095.025 1 1 0 0 0-.094.033 1 1 0 0 0-.09.045 1 1 0 0 0-.085.05 1 1 0 0 0-.08.061 1 1 0 0 0-.073.069 1 1 0 0 0-.066.076 1 1 0 0 0-.059.08 1 1 0 0 0-.049.088 1 1 0 0 0-.04.09 1 1 0 0 0-.032.095 1 1 0 0 0-.023.098 1 1 0 0 0-.012.1A1 1 0 0 0 2 3v26a1 1 0 0 0 .002.07 1 1 0 0 0 .012.1 1 1 0 0 0 .023.098 1 1 0 0 0 .031.095 1 1 0 0 0 .041.09 1 1 0 0 0 .05.088 1 1 0 0 0 .058.08 1 1 0 0 0 .066.076 1 1 0 0 0 .072.069 1 1 0 0 0 .08.06 1 1 0 0 0 .086.051 1 1 0 0 0 .09.045 1 1 0 0 0 .094.033 1 1 0 0 0 .096.025 1 1 0 0 0 .1.014A1 1 0 0 0 3 30h1a1 1 0 0 0 .1-.006 1 1 0 0 0 .1-.014 1 1 0 0 0 .095-.025 1 1 0 0 0 .094-.033 1 1 0 0 0 .09-.045 1 1 0 0 0 .085-.05 1 1 0 0 0 .08-.061 1 1 0 0 0 .073-.069 1 1 0 0 0 .066-.076 1 1 0 0 0 .059-.08 1 1 0 0 0 .049-.088 1 1 0 0 0 .04-.09 1 1 0 0 0 .032-.095 1 1 0 0 0 .023-.098 1 1 0 0 0 .012-.1A1 1 0 0 0 5 29v-1h22v1a1 1 0 0 0 .002.07 1 1 0 0 0 .012.1 1 1 0 0 0 .023.098 1 1 0 0 0 .031.095 1 1 0 0 0 .041.09 1 1 0 0 0 .05.088 1 1 0 0 0 .058.08 1 1 0 0 0 .066.076 1 1 0 0 0 .072.069 1 1 0 0 0 .08.06 1 1 0 0 0 .086.051 1 1 0 0 0 .09.045 1 1 0 0 0 .094.033 1 1 0 0 0 .096.025 1 1 0 0 0 .1.014A1 1 0 0 0 28 30h1a1 1 0 0 0 .1-.006 1 1 0 0 0 .1-.014 1 1 0 0 0 .095-.025 1 1 0 0 0 .094-.033 1 1 0 0 0 .09-.045 1 1 0 0 0 .085-.05 1 1 0 0 0 .08-.061 1 1 0 0 0 .073-.069 1 1 0 0 0 .066-.076 1 1 0 0 0 .059-.08 1 1 0 0 0 .049-.088 1 1 0 0 0 .04-.09 1 1 0 0 0 .032-.095 1 1 0 0 0 .023-.098 1 1 0 0 0 .012-.1A1 1 0 0 0 30 29V3a1 1 0 0 0-.002-.07 1 1 0 0 0-.012-.1 1 1 0 0 0-.023-.098 1 1 0 0 0-.031-.095 1 1 0 0 0-.041-.09 1 1 0 0 0-.05-.088 1 1 0 0 0-.058-.08 1 1 0 0 0-.066-.076 1 1 0 0 0-.072-.069 1 1 0 0 0-.08-.06 1 1 0 0 0-.086-.051 1 1 0 0 0-.09-.045 1 1 0 0 0-.094-.033 1 1 0 0 0-.096-.025 1 1 0 0 0-.1-.014A1 1 0 0 0 29 2h-1a1 1 0 0 0-.1.006 1 1 0 0 0-.1.014 1 1 0 0 0-.095.025 1 1 0 0 0-.094.033 1 1 0 0 0-.09.045 1 1 0 0 0-.085.05 1 1 0 0 0-.08.061 1 1 0 0 0-.073.069 1 1 0 0 0-.066.076 1 1 0 0 0-.059.08 1 1 0 0 0-.049.088 1 1 0 0 0-.04.09 1 1 0 0 0-.032.095 1 1 0 0 0-.023.098 1 1 0 0 0-.012.1A1 1 0 0 0 27 3v1H5V3a1 1 0 0 0-.002-.07 1 1 0 0 0-.012-.1 1 1 0 0 0-.023-.098 1 1 0 0 0-.031-.095 1 1 0 0 0-.041-.09 1 1 0 0 0-.05-.088 1 1 0 0 0-.058-.08 1 1 0 0 0-.066-.076 1 1 0 0 0-.072-.069 1 1 0 0 0-.08-.06 1 1 0 0 0-.086-.051 1 1 0 0 0-.09-.045 1 1 0 0 0-.094-.033 1 1 0 0 0-.096-.025 1 1 0 0 0-.1-.014A1 1 0 0 0 4 2z"/><path fill="url(#a)" d="M4 4a1 1 0 0 0-1 1v22a1 1 0 0 0 1 1h24a1 1 0 0 0 1-1V5a1 1 0 0 0-1-1zm1 2h10v20H5zm12 0h10v20H17z" opacity=".8"/><g fill="#396b93"><path d="M18 19h8v2h-8zM6 19h8v2H6zM6 11h8v2H6zM18 11h8v2h-8zM18 15h8v2h-8zM6 15h8v2H6z"/></g><path fill="#fff" d="M9.5 4a.5.5 0 0 0-.5.5v23a.5.5 0 0 0 1 0v-23a.5.5 0 0 0-.5-.5zm3 0a.5.5 0 0 0-.5.5v23a.5.5 0 0 0 1 0v-23a.5.5 0 0 0-.5-.5zm7 0a.5.5 0 0 0-.5.5v23a.5.5 0 0 0 1 0v-23a.5.5 0 0 0-.5-.5zm3 0a.5.5 0 0 0-.5.5v23a.5.5 0 0 0 1 0v-23a.5.5 0 0 0-.5-.5z"/></svg>