<svg xmlns="http://www.w3.org/2000/svg" width="32" height="32"><rect width="26" height="26" x="3" y="-29" fill="#f4f4f4" overflow="visible" rx="1.615" ry="1.615" transform="scale(1 -1)"/><rect width="27" height="27" x="2.5" y="2.5" fill="none" stroke="#555761" stroke-linecap="round" stroke-linejoin="round" opacity=".25" overflow="visible" rx="2.16" ry="2.16"/><path fill="#b3b3b3" fill-rule="evenodd" d="M11 7c1.108 0 2 .892 2 2v14c0 1.108-.892 2-2 2s-2-.892-2-2V9c0-1.108.892-2 2-2z" opacity=".75" style="paint-order:stroke fill markers"/><path fill="#1987d7" d="M7 10.95a4.002 4.092 0 0 1 8 0 4 4.09 0 0 1-8 0z" color="#000" overflow="visible"/><path fill="#45a4e9" d="M8 10.95a3.002 3.052 0 0 1 6 0 3 3.05 0 0 1-6 0z" color="#000" overflow="visible"/><path fill="#b3b3b3" fill-rule="evenodd" d="M21 25c1.108 0 2-.892 2-2V9c0-1.108-.892-2-2-2s-2 .892-2 2v14c0 1.108.892 2 2 2z" opacity=".75" style="paint-order:stroke fill markers"/><path fill="#1987d7" d="M17 20.95a4.002 4.092 0 0 1 8 0 4 4.09 0 0 1-8 0z" color="#000" overflow="visible"/><path fill="#45a4e9" d="M18 20.95a3.002 3.052 0 0 1 6 0 3 3.05 0 0 1-6 0z" color="#000" overflow="visible"/></svg>