<svg xmlns="http://www.w3.org/2000/svg" width="32" height="32"><rect width="32" height="30" y="-31" opacity=".25" rx="2" ry="2" transform="scale(1 -1)"/><rect width="30" height="28" x="1" y="-30" fill="#eee" rx="1" ry="1" transform="scale(1 -1)"/><path fill="#e4e4e4" d="M2 30c-.554 0-1-.446-1-1v-3h30v3c0 .554-.446 1-1 1z"/><path fill="#666" d="M16 30v-5h15v4c0 .554-.446 1-1 1z"/><rect width="2" height="2" x="27" y="-29" fill="#f9f9f9" rx="1" transform="scale(1 -1)"/><rect width="30" height="1" x="1" y="-26" opacity=".25" ry="0" transform="scale(1 -1)"/><path fill="#999" d="M3 27v1h1v-1zm1 1v1h1v-1z"/><path fill="#888" d="M12.5 7c-.485 0-.875.39-.875.875s.39.875.875.875.875-.39.875-.875S12.985 7 12.5 7zM18 7l-2 2 3 3-3 3 2 2 5-5-2-2zm-7.688 5.25A1.31 1.31 0 0 0 9 13.563a1.31 1.31 0 0 0 1.313 1.312 1.31 1.31 0 0 0 1.312-1.313 1.31 1.31 0 0 0-1.313-1.312zm3.938 5.25c-.97 0-1.75.78-1.75 1.75S13.28 21 14.25 21 16 20.22 16 19.25s-.78-1.75-1.75-1.75z"/></svg>