<svg xmlns="http://www.w3.org/2000/svg" viewBox="0 0 32 32"><path fill="#999" d="M16 1C7.716 1 1 7.716 1 16s6.716 15 15 15 15-6.716 15-15S24.284 1 16 1zm0 2.143A12.829 12.829 0 0 1 28.857 16 12.829 12.829 0 0 1 16 28.857 12.829 12.829 0 0 1 3.143 16 12.829 12.829 0 0 1 16 3.143z"/><path fill="#f2f3f4" d="M16 4c6.648 0 12 5.352 12 12s-5.352 12-12 12S4 22.648 4 16 9.352 4 16 4z"/><path fill="#4d4d4d" d="M16.5 6h-1V4h1z"/><path fill="#3f4041" d="m18 18-9 5 5-9z"/><path fill="#d8273b" d="m14 14 9-5-5 9z"/><path fill="#bdc3c7" d="M17 16a1 1 0 0 1-1 1 1 1 0 0 1-1-1 1 1 0 0 1 1-1 1 1 0 0 1 1 1z"/><path fill="#9fa5a8" d="M16.5 16a.5.5 0 0 1-.5.5.5.5 0 0 1-.5-.5.5.5 0 0 1 .5-.5.5.5 0 0 1 .5.5z"/><g fill="#4d4d4d" stroke-width="1.414"><path d="M6 15.5v1H4v-1zM28 15.5v1h-2v-1zM16.5 28h-1v-2h1z"/></g><path fill="#ccc" d="M16 2C8.268 2 2 8.268 2 16s6.268 14 14 14 14-6.268 14-14S23.732 2 16 2zm0 2c6.648 0 12 5.352 12 12s-5.352 12-12 12S4 22.648 4 16 9.352 4 16 4z"/></svg>