<svg xmlns="http://www.w3.org/2000/svg" width="32" height="32"><defs><radialGradient id="a" cx="400.57" cy="531.8" r="14" gradientTransform="translate(-415.39 -556.71) scale(1.0769)" gradientUnits="userSpaceOnUse"><stop offset="0" stop-color="#566069"/><stop offset="1" stop-color="#18222a"/></radialGradient></defs><g stroke-linejoin="round" stroke-width="1.077"><rect width="28" height="28" x="2" y="2" fill="url(#a)" rx="1.077"/><rect width="25.846" height="25.846" x="3.077" y="3.077" fill="#4d5760" rx=".538"/><rect width="11.846" height="4.308" x="3.077" y="24.615" fill="#83878a" rx="0"/><rect width="11.846" height="4.308" x="17.077" y="24.615" fill="#83878a" rx="0"/></g><path fill="#1fb5f8" d="M13.846 8.192a2.154 2.154 0 0 0-2.154 2.154 2.154 2.154 0 0 0 1.616 2.084v-1.154a1.077 1.077 0 0 1-.539-.93 1.077 1.077 0 0 1 1.077-1.077 1.077 1.077 0 0 1 1.077 1.077 1.077 1.077 0 0 1-.01.145l.908.707a2.154 2.154 0 0 0 .179-.852 2.154 2.154 0 0 0-2.154-2.154zm0 2.154.006 10.5 3.225-4.308h4.846l-8.077-6.192z"/></svg>