<svg xmlns="http://www.w3.org/2000/svg" width="32" height="32"><path d="M3.43 1.963h23.834c.6 0 1.083.498 1.083 1.119v25.765c0 .618-.484 1.116-1.086 1.116H3.431c-.6.002-1.087-.5-1.085-1.118V3.08c0-.619.486-1.117 1.085-1.117z" opacity=".25" style="paint-order:fill markers stroke" transform="translate(.654 .037)"/><path fill="#ececec" d="M4.346 2.963h22c.554 0 1 .463 1 1.039v23.925c0 .574-.446 1.036-1.002 1.036H4.347c-.554.002-1.003-.464-1.001-1.038V4c0-.574.448-1.037 1.001-1.037z" style="paint-order:fill markers stroke" transform="translate(.654 .037)"/><path fill="#b3b3b3" fill-rule="evenodd" d="M6 5v5h5V5zm.998 1h1v1h1V6h1v1h-1v1h1v1h-1V8h-1v1h-1zm6-1v1h13V5zm0 3v1h13V8zM6 11v1h8v-1zm10 0v10h10V11zm1 1h8v8h-8zM6 14v1h8v-1zm0 3v1h8v-1zm0 3v1h8v-1zm0 3v1h20v-1zm0 3v1h20v-1z"/><path fill="#7cd1cc" fill-rule="evenodd" d="M17.998 12.999H24V19h-6.002z"/></svg>