<svg xmlns="http://www.w3.org/2000/svg" width="32" height="32"><rect width="32" height="30" y="-31" opacity=".25" rx="2" ry="2" transform="scale(1 -1)"/><rect width="30" height="28" x="1" y="-30" fill="#eee" rx="1" ry="1" transform="scale(1 -1)"/><path fill="#e4e4e4" d="M2 30c-.554 0-1-.446-1-1v-3h30v3c0 .554-.446 1-1 1z"/><rect width="2" height="2" x="27" y="-29" fill="#999" rx="1" transform="scale(1 -1)"/><rect width="30" height="1" x="1" y="-26" opacity=".25" ry="0" transform="scale(1 -1)"/><path fill="#999" d="M3 27v1h1v-1zm1 1v1h1v-1z"/><path fill="#888" d="m10.5 7-.531.969L9 8.5l.969.531.531.969.531-.969L12 8.5l-.969-.531Zm4 0-.531.969L13 8.5l.969.531.531.969.531-.969L16 8.5l-.969-.531Zm5.654 0L9 18.154 11.846 21 23 9.846Zm0 1.422 1.422 1.424-3.326 3.33-1.424-1.424ZM12.5 10l-.531.969L11 11.5l.969.531.531.969.531-.969L14 11.5l-.969-.531Z"/></svg>