<svg xmlns="http://www.w3.org/2000/svg" width="32" height="32"><path fill="none" stroke="#42557f" stroke-opacity=".291" d="M13.24 21.998c-.404 0-.73.275-.729.616v4.845l-2.277.154c-.404 0-.728.275-.728.616v.769h13v-.769c0-.34-.325-.616-.729-.616l-2.267-.154v-4.845c0-.341-.325-.616-.729-.616z"/><path fill="#fafafa" d="M13.46 21.915c-.26 0-.452.184-.45.407v5.349l-2.545.184h-.01c-.26 0-.45.184-.45.407v.269h12v-.269c0-.223-.19-.407-.45-.407h-.012L19 27.671v-5.349c0-.223-.19-.407-.45-.407z"/><rect width="29" height="19" x="1.5" y="2.998" fill="#434855" stroke="#252831" stroke-dashoffset=".5" stroke-linecap="round" stroke-linejoin="round" stroke-opacity=".784" rx="1" ry="1"/><path fill="#4d4d4d" fill-rule="evenodd" d="M2 3.498h28v18H2z"/><path fill="#e6e6e6" d="M7.999 5h10v1h-10zm0 6h8v1h-8zm0 2h8v1h-8zm0 2h6v1h-6zm0-8h8v1h-8zm0 2h6v1h-6zm0 8h10v1h-10zm0 2h6v1h-6z"/><path fill="#11d116" d="M4 5h3v1H4zm0 2h3v1H4zm0 2h3v1H4zm0 2h3v1H4zm0 2h3v1H4zm0 2h3v1H4zm0 2h3v1H4zm0 2h3v1H4z"/></svg>