<svg xmlns="http://www.w3.org/2000/svg" xmlns:xlink="http://www.w3.org/1999/xlink" width="32" height="32"><defs><linearGradient xlink:href="#a" id="e" x1="4.49" x2="47.5" y1="23" y2="23" gradientTransform="matrix(1.1372 0 0 -1.1162 3.022 57.685)" gradientUnits="userSpaceOnUse"/><linearGradient id="a"><stop offset="0" stop-color="#fff"/><stop offset="1" stop-color="#fff" stop-opacity="0"/></linearGradient><linearGradient xlink:href="#a" id="d" x1="48.127" x2="2.873" y1="25.828" y2="24.414" gradientTransform="scale(1.1372 -1.1162) rotate(45 89.23 .099)" gradientUnits="userSpaceOnUse"/><linearGradient xlink:href="#a" id="c" x1="46.006" x2="4.287" y1="23.707" y2="27.243" gradientTransform="scale(1.1372 1.1162) rotate(45 19.973 29.048)" gradientUnits="userSpaceOnUse"/><linearGradient xlink:href="#a" id="b" x1="3.5" x2="47.5" y1="23" y2="23" gradientTransform="matrix(0 1.1162 1.1372 0 5.866 3.55)" gradientUnits="userSpaceOnUse"/></defs><path fill="#5294e2" stroke="#1a5295" stroke-opacity=".5" stroke-width=".99984594" d="M16 2.259A14.01 13.75 0 0 0 2 16a14.01 13.75 0 0 0 14 13.74 14.01 13.75 0 0 0 14-13.742 14.01 13.75 0 0 0-14.001-13.74z" color="#000" overflow="visible"/><path fill="none" stroke="url(#b)" stroke-linecap="round" stroke-linejoin="round" stroke-width=".991" d="M36.597 53.751a10.803 23.999 0 0 0-4.602-45.736" opacity=".8" transform="translate(-1.23 -1.235) scale(.53842)"/><path fill="#fff" d="M17.39 27.326a1.225 1.202 0 0 0 2.449 0 1.225 1.202 0 1 0-2.45 0z" color="#000" overflow="visible"/><path fill="none" stroke="url(#c)" stroke-linecap="round" stroke-linejoin="round" stroke-width=".991" d="M49.309 48.982a24.226 10.702 44.207 0 1-36.165-30.14" opacity=".8" transform="translate(-1.23 -1.235) scale(.53842)"/><path fill="#fff" d="M7.134 9.334a1.225 1.202 0 0 1-2.45 0 1.225 1.202 0 1 1 2.448 0z" color="#000" overflow="visible"/><path fill="none" stroke="url(#d)" stroke-linecap="round" stroke-linejoin="round" stroke-width=".991" d="M49.528 15.628a10.702 24.225 45.795 0 0-36.148 25.62" opacity=".8" transform="translate(-1.23 -1.235) scale(.53842)"/><path fill="#fff" d="M5.795 22.985a1.225 1.202 0 0 0 0-2.404 1.225 1.202 0 1 0 0 2.404z"/><path fill="none" stroke="url(#e)" stroke-linecap="round" stroke-linejoin="round" stroke-width=".991" d="M52.846 26.457a24.45 10.604 0 0 0-45.248 6.05" transform="translate(-1.23 -1.235) scale(.53842)"/><path fill="#fff" d="M28.677 13.24a1.225 1.202 0 0 0-2.448 0 1.225 1.202 0 1 0 2.448 0z" color="#000" overflow="visible"/><path fill="#3f4245" d="M15 6v10.5a.5.5 0 0 0 .5.5H23v-1h-7V6z"/><path fill="#e2493a" d="m7.722 9.429 7.424 7.425.708-.708-7.425-7.424z"/><path fill="#3f4245" d="M16 16.5a.5.5 0 0 1-.5.5.5.5 0 0 1-.5-.5.5.5 0 0 1 .5-.5.5.5 0 0 1 .5.5z"/></svg>