<svg xmlns="http://www.w3.org/2000/svg" xmlns:xlink="http://www.w3.org/1999/xlink" viewBox="0 0 32 32"><linearGradient id="a"><stop offset="0"/><stop offset="1" stop-opacity="0"/></linearGradient><linearGradient xlink:href="#a" id="b" x1="-7" x2="18" y1="13" y2="26" gradientTransform="translate(387.571 517.798)" gradientUnits="userSpaceOnUse"/><g transform="translate(-384.57 -515.8)"><g transform="translate(384.57 515.8)"><rect width="32" height="30" y="1" opacity=".25" rx="2" ry="2"/><rect width="30" height="28" x="1" y="2" fill="#eee" rx="1" ry="1"/><path fill="#e4e4e4" d="M2 2c-.554 0-1 .446-1 1v5h30V3c0-.554-.446-1-1-1Z"/></g><rect width="2" height="2" x="411.57" y="519.8" fill="#999" rx="1"/><rect width="30" height="1" x="385.57" y="523.8" opacity=".25" ry="0"/></g><path fill="#fff" d="M11.556 15a4.435 4.435 0 0 0-4.445 4.444 4.435 4.435 0 0 0 4.445 4.445h8.888a4.435 4.435 0 0 0 4.445-4.445A4.435 4.435 0 0 0 20.444 15z" opacity=".2" overflow="visible"/><path fill="#50a4f4" d="M11.5 15A4.49 4.49 0 0 0 7 19.5a4.49 4.49 0 0 0 4.5 4.5h9a4.49 4.49 0 0 0 4.5-4.5 4.49 4.49 0 0 0-4.5-4.5z" overflow="visible"/><path fill="#f9f9f9" d="M20.5 15.5c2.207 0 4 1.793 4 4s-1.793 4-4 4-4-1.793-4-4 1.793-4 4-4z" overflow="visible"/></svg>