<svg xmlns="http://www.w3.org/2000/svg" xmlns:xlink="http://www.w3.org/1999/xlink" width="32" height="32"><defs><linearGradient xlink:href="#a" id="e" x1="4.49" x2="47.5" y1="23" y2="23" gradientTransform="matrix(.64663 0 0 -.64663 -.478 30.873)" gradientUnits="userSpaceOnUse"/><linearGradient id="a"><stop offset="0" stop-color="#fff"/><stop offset="1" stop-color="#fff" stop-opacity="0"/></linearGradient><linearGradient xlink:href="#a" id="d" x1="48.127" x2="2.873" y1="25.828" y2="24.414" gradientTransform="scale(.64664 -.64664) rotate(45 82.779 -2.034)" gradientUnits="userSpaceOnUse"/><linearGradient xlink:href="#a" id="c" x1="46.006" x2="4.287" y1="23.707" y2="27.243" gradientTransform="scale(.64664) rotate(45 23.027 22.98)" gradientUnits="userSpaceOnUse"/><linearGradient xlink:href="#a" id="b" x1="3.5" x2="47.5" y1="23" y2="23" gradientTransform="matrix(0 .64663 .64663 0 1.14 -.489)" gradientUnits="userSpaceOnUse"/></defs><path fill="gray" stroke="#05111e" stroke-opacity=".518" d="M16 1.5C8 1.5 1.5 8 1.5 16S8 30.5 16 30.5 30.5 24 30.5 16 24 1.5 16 1.5z" color="#000" overflow="visible"/><path fill="none" stroke="url(#b)" stroke-linecap="round" stroke-linejoin="round" d="M18.614 28.594a6.143 13.903 0 0 0-2.617-26.496" opacity=".8"/><path fill="#fff" d="M17.467 28.185a1.293 1.293 0 0 0 2.586 0 1.293 1.293 0 1 0-2.586 0z" color="#000" overflow="visible"/><path fill="none" stroke="url(#c)" stroke-linecap="round" stroke-linejoin="round" d="M25.842 25.83A13.903 6.143 45 0 1 5.278 8.37" opacity=".8"/><path fill="#fff" d="M6.635 8.827a1.293 1.293 0 0 1-2.586 0 1.293 1.293 0 1 1 2.586 0z" color="#000" overflow="visible"/><path fill="none" stroke="url(#d)" stroke-linecap="round" stroke-linejoin="round" d="M25.967 6.509A6.143 13.903 45 0 0 5.413 21.35" opacity=".8"/><path fill="#fff" d="M5.222 23.516a1.294 1.294 0 0 0 0-2.587 1.294 1.294 0 1 0 0 2.587z"/><path fill="none" stroke="url(#e)" stroke-linecap="round" stroke-linejoin="round" d="M27.853 12.781a13.903 6.143 0 0 0-25.729 3.506"/><path fill="#fff" d="M29.389 13.03a1.294 1.294 0 0 0-2.587 0 1.294 1.294 0 1 0 2.587 0z" color="#000" overflow="visible"/><path fill="#ffdf60" d="M16 9c-1.662 0-3 1.338-3 3v3h-2v7h10v-7h-2v-3c0-1.662-1.338-3-3-3zm0 1c1.246 0 2 .546 2 2v3h-4v-3c0-1.454.754-2 2-2z"/></svg>