<svg xmlns="http://www.w3.org/2000/svg" width="32" height="32"><defs><linearGradient id="a" x1="10.654" x2="10.654" y1="1" y2="3" gradientTransform="matrix(.6 0 0 .75 .6 .125)" gradientUnits="userSpaceOnUse"><stop offset="0" stop-color="#eee"/><stop offset="1" stop-color="#d9d9da"/></linearGradient><linearGradient id="b" x1="24" x2="24" y1="44" y2="3.899" gradientTransform="matrix(.6 0 0 .07692 1.8 .154)" gradientUnits="userSpaceOnUse"><stop offset="0" stop-color="#272727"/><stop offset="1" stop-color="#454545"/></linearGradient></defs><g stroke="#000" stroke-linecap="round" stroke-linejoin="round" stroke-opacity=".25"><path fill="#5bd68f" d="M28 6h2v4h-2z"/><path fill="#459fd9" d="M28 12h2v4h-2z"/><path fill="#de5461" d="M28 18h2v4h-2z"/></g><path fill="#eee" stroke="#9b876c" stroke-linejoin="round" stroke-miterlimit="0" stroke-width="1.017" d="M27.491 2.304c-.203-.655-.076-1.17-.188-1.795H6.509L6.63 2.49"/><g stroke-linecap="round" stroke-linejoin="round"><path fill="url(#a)" stroke="url(#b)" d="M7.5 3.5H5.1c-.342 0-.6-.032-.6-.073V1.33c0-.666.336-.83.775-.83H7.5" color="#000" overflow="visible"/><rect width="21.981" height="26.981" x="5.51" y="2.51" fill="#cebeaa" stroke="#a79071" stroke-miterlimit="0" stroke-width="1.019" rx=".5" ry=".5"/><path fill="#5f5f5f" stroke="#272727" d="M7.5 2.5v27H5.1c-.343 0-.6-.286-.6-.659V2.5z" color="#000" overflow="visible"/><path fill="#585858" stroke="#272727" d="M16.942 9.53c-.625-.147-1.375.303-1.375.303l-.673.336s-.729.637-.737.853c-.41.727-.223 1.608-.265 2.403.04.682-.434 1.188-.196 1.88-.035.669.516 1.06.87 1.544.398.611.938 1.41.512 2.14-.787 1.143-2.095 1.748-3.29 2.37-.406.041-.253.431-.28.709-.001.221-.074.514.25.41H22.5v-1.147c-1.157-.586-2.364-1.214-3.175-2.256-.487-.698.001-1.537.386-2.158.3-.517.925-.847.934-1.506.23-.669-.117-1.223-.182-1.86-.085-.846.144-1.771-.26-2.558-.547-.805-1.55-1.158-2.459-1.374a4.225 4.225 0 0 0-.802-.09z" color="#000" overflow="visible"/></g></svg>