<svg xmlns="http://www.w3.org/2000/svg" width="32" height="32"><g transform="translate(-384.57 -515.8)"><g transform="translate(384.57 515.8)"><rect width="32" height="30" y="1" opacity=".25" rx="2" ry="2"/><rect width="30" height="28" x="1" y="2" fill="#eee" rx="1" ry="1"/><path fill="#e4e4e4" d="M2 2c-.554 0-1 .446-1 1v5h30V3c0-.554-.446-1-1-1z"/></g><rect width="2" height="2" x="411.57" y="519.8" fill="#999" rx="1"/><rect width="30" height="1" x="385.57" y="523.8" opacity=".25" ry="0"/><g stroke-width="2" color="#000"><path fill="#666" d="M386.57 527.8v1h22v-1zm0 3v1h9v-1zm16 0v12h12v-12zm1 1h10v10h-10v-1zm0 9h2l2-2-1-1zm10 0-3-3-3 3zm-7.5-8c-.831 0-1.5.669-1.5 1.5s.669 1.5 1.5 1.5 1.5-.669 1.5-1.5-.669-1.5-1.5-1.5zm-19.5 1v1h14v-1zm0 3v1h11v-1zm0 3v1h14v-1z"/><path fill="#da4453" d="M408.57 530.8a6 6 0 1 0 0 12 6 6 0 0 0 0-12zm0 1a5 5 0 0 1 5 5c0 1.205-.444 2.295-1.154 3.158l-7.004-7.004c.863-.71 1.953-1.154 3.158-1.154zm-3.846 1.842 7.004 7.004c-.863.71-1.953 1.154-3.158 1.154a5 5 0 0 1-5-5c0-1.205.444-2.295 1.154-3.158z"/><path fill="#da4453" d="M408.57 530.8a6 6 0 1 0 0 12 6 6 0 0 0 0-12zm0 1a5 5 0 0 1 5 5c0 1.205-.444 2.295-1.154 3.158l-7.004-7.004c.863-.71 1.953-1.154 3.158-1.154zm-3.846 1.842 7.004 7.004c-.863.71-1.953 1.154-3.158 1.154a5 5 0 0 1-5-5c0-1.205.444-2.295 1.154-3.158z"/></g></g></svg>