<svg xmlns="http://www.w3.org/2000/svg" width="32" height="32"><linearGradient id="a" x1="5.375" x2="14.75" y1="7" y2="16.375" gradientUnits="userSpaceOnUse"><stop offset="0"/><stop offset="1" stop-opacity="0"/></linearGradient><rect width="32" height="30" y="1" opacity=".25" rx="2" ry="2"/><rect width="30" height="28" x="1" y="2" fill="#eee" rx="1" ry="1"/><path fill="#e4e4e4" d="M2 2c-.554 0-1 .446-1 1v5h30V3c0-.554-.446-1-1-1Z"/><path d="M23 9v21h7c.554 0 1-.446 1-1V9h-8z" style="fill:#f9f9f9"/><rect width="2" height="2" x="27" y="4" fill="#999" rx="1"/><rect width="30" height="1" x="1" y="8" opacity=".25" ry="0"/><path d="m27 12-2 4h4zm0 7c-.554 0-1 .446-1 1 0 .56.446 1 1 1s1-.446 1-1-.446-1-1-1zm-2 5 2 4 2-4z" style="fill:#4d4d4d;stroke-width:2"/><path d="M22 9h1v21h-1z" style="opacity:.35;fill:#333;fill-rule:evenodd;stroke:none;stroke-linecap:round;stroke-linejoin:round;paint-order:stroke fill markers"/></svg>