<svg xmlns="http://www.w3.org/2000/svg" width="32" height="32"><g transform="translate(-117.7 -413.07)"><path fill="#e1e3e7" d="M122.7 415.07v28h22v-28z"/><rect width="23" height="29" x="122.2" y="414.57" fill="none" stroke="#000" stroke-opacity=".24" rx=".5" ry=".5"/><g fill="#8c8c8c"><rect width="1" height="1" x="123.7" y="416.07" rx="1" ry="1"/><rect width="1" height="1" x="142.7" y="416.07" rx="1" ry="1"/><rect width="1" height="1" x="142.7" y="441.07" rx="1" ry="1"/><rect width="1" height="1" x="123.7" y="441.07" rx="1" ry="1"/><rect width="1" height="1" x="123.7" y="428.07" rx="1" ry="1"/><rect width="1" height="1" x="142.7" y="428.07" rx="1" ry="1"/></g><path fill="#edeff3" stroke="#cbcdd1" d="m137.3 417.57-9.239 8.892a8.5 8.074 0 0 0-2.867 6.034 8.5 8.074 0 0 0 8.5 8.074 8.5 8.074 0 0 0 8.5-8.074 8.5 8.074 0 0 0-.016-.417.222.222 0 0 0 .016-.073v-14.191a.25.25 0 0 0-.258-.245z"/><rect width="11" height="6" x="126.2" y="418.57" fill="#4c5263" stroke="#323642" rx="1.5" ry="1.5"/><path fill="#e9eaee" d="M127.7 419.74v.667h1.594v-.667zm1.804 0v.667h1.51v-.667zm1.72 0v.667h1.322v-.667zm1.532 0v.667h.588v-.667zm-5.056 1.333v.667h2.538v-.667zm2.79 0v.667h1.217v-.667zm1.448 0v.667h.566v-.667zm-4.238 2v.667h2.811v-.667zm3.02 0v.667h1.473v-.667zm2.313 0v.667h2.667v-.667z"/></g><path fill="#666" d="M16 11c-4.432 0-8 3.568-8 8s3.568 8 8 8 8-3.568 8-8-3.568-8-8-8m0 1c3.878 0 7 3.122 7 7s-3.122 7-7 7-7-3.122-7-7 3.122-7 7-7m-1 1v7h6v-1h-5v-6z"/></svg>