<svg xmlns="http://www.w3.org/2000/svg" xmlns:xlink="http://www.w3.org/1999/xlink" height="32" width="32"><defs><linearGradient gradientTransform="matrix(1.33333 0 0 1.33333 .735 -.265)" y2="2" x2="9" y1="22" x1="9" gradientUnits="userSpaceOnUse" id="c" xlink:href="#a"/><linearGradient id="a"><stop offset="0"/><stop offset="1" stop-color="#333"/></linearGradient><linearGradient y2="16" x2="6" y1="8" x1="14" gradientUnits="userSpaceOnUse" id="e" xlink:href="#b"/><linearGradient id="b"><stop offset="0" stop-color="#fff"/><stop offset=".125" stop-color="#fff" stop-opacity="0"/><stop offset="1" stop-color="#fff" stop-opacity="0"/></linearGradient><clipPath id="d" clipPathUnits="userSpaceOnUse"><path d="M8 2.686v14l3.133-3.82 2.066 4.986a1 1 0 1 0 1.848-.766l-2.111-5.096 4.378.01L8 2.686z" fill="#333" fill-rule="evenodd" stroke-width="2"/></clipPath></defs><path d="M11.402 5.982V24.65l4.177-5.094 2.755 6.649a1.333 1.333 0 1 0 2.463-1.021l-2.815-6.795 5.839.014L11.4 5.982z" opacity=".2" fill-rule="evenodd" stroke="#000" stroke-width="1.9999949999999997" stroke-linejoin="round"/><path d="M10.068 4.649v18.667l4.177-5.094L17 24.87a1.333 1.333 0 1 0 2.464-1.02l-2.815-6.795 5.838.013-12.419-12.42z" fill="none" stroke="#fff" stroke-width="2"/><path d="M10.068 4.649v18.667l4.177-5.094L17 24.87a1.333 1.333 0 1 0 2.464-1.02l-2.815-6.795 5.838.013-12.419-12.42z" fill="url(#c)" fill-rule="evenodd"/><path transform="matrix(1.33333 0 0 1.33333 -.598 1.068)" clip-path="url(#d)" d="M8 2.686v14l3.133-3.82 2.066 4.986a1 1 0 1 0 1.848-.766l-2.111-5.096 4.378.01L8 2.686z" opacity=".4" fill="none" stroke="url(#e)" stroke-width="2"/></svg>