<svg xmlns="http://www.w3.org/2000/svg" width="32" height="32"><g transform="translate(-384.57 -515.8)"><rect width="17" height="29" x="392.07" y="517.3" fill="#525765" rx="2" ry="2"/><rect width="17" height="29" x="392.07" y="517.3" fill="none" stroke="#000" opacity=".65" rx="2" ry="2"/><path fill-rule="evenodd" d="M396.57 517.3c0 .831.288 1.5.645 1.5h6.71c.357 0 .645-.669.645-1.5h-8z" opacity=".5" style="paint-order:stroke fill markers"/><g fill="#fff"><path d="M399.07 527.8a.5.5 0 1 0 0 1 .5.5 0 0 0 0-1zM402.57 527.8l-1 1 2 2-2 2 1 1 3-3-1-1zM397.57 530.8a1 1 0 1 0 0 2 1 1 0 0 0 0-2zM400.07 533.8a1.5 1.5 0 1 0 0 3 1.5 1.5 0 0 0 0-3z"/></g></g></svg>