<svg xmlns="http://www.w3.org/2000/svg" width="32" height="32"><rect width="30" height="30" x="1" y="1" fill="#179ad4" rx="15"/><rect width="28" height="28" x="2" y="2" fill="#47b7eb" rx="14"/><g fill="#fff"><path d="M16 9c-1.939 0-3.5 1.561-3.5 3.5S14.061 16 16 16s3.5-1.561 3.5-3.5S17.939 9 16 9zm0 7c-3.878 0-7 3.122-7 7h8v-1h-6.91A5.98 5.98 0 0 1 16 17c.359 0 .707.038 1.045.104l.26-.973A6.654 6.654 0 0 0 16 16zm0-6c1.385 0 2.5 1.115 2.5 2.5S17.385 15 16 15s-2.5-1.115-2.5-2.5S14.615 10 16 10z"/><g stroke-width=".707"><path d="M22 17v6h1v-6z"/><path d="M18 22h6v-1h-6zm0-3h6v-1h-6z"/><path d="M19 17v6h1v-6z"/></g></g></svg>