<svg xmlns="http://www.w3.org/2000/svg" width="32" height="32" version="1.0"><g transform="translate(2 2)"><path fill="#61697f" stroke="#252831" stroke-opacity=".784" d="M14 .5c-2.57 0-5.087.695-7.255 2.077h-2.74c-.769 0-1.428.66-1.428 1.428V6.77C1.199 8.93.505 11.438.5 14c0 2.57.695 5.087 2.077 7.255v2.74c0 .769.66 1.428 1.428 1.428H6.77c2.16 1.378 4.668 2.072 7.23 2.077 2.57 0 5.087-.695 7.255-2.077h2.74c.769 0 1.428-.66 1.428-1.428V21.23c1.378-2.16 2.072-4.669 2.077-7.231 0-2.57-.695-5.087-2.077-7.255v-2.74c0-.769-.66-1.428-1.428-1.428H21.23C19.07 1.199 16.562.505 14 .5z"/><circle cx="14" cy="14" r="11.5" fill="#ffff8f" stroke="#252831" stroke-opacity=".784"/><rect width="1" height="1" x="4" y="4" fill="#b2b7bf" rx="1.5" ry="1.5"/><rect width="1" height="1" x="23" y="4" fill="#b2b7bf" rx="1.5" ry="1.5"/><rect width="1" height="1" x="23" y="23" fill="#b2b7bf" rx="1.5" ry="1.5"/><rect width="1" height="1" x="4" y="23" fill="#b2b7bf" rx="1.5" ry="1.5"/><circle cx="14" cy="14" r="4" fill="#4c5263"/></g></svg>