<svg xmlns="http://www.w3.org/2000/svg" width="32" height="32"><rect width="28" height="28" x="2" y="2" fill="#1f212a" rx="2" ry="2" style="paint-order:stroke markers fill"/><rect width="26" height="26" x="3" y="3" fill="#3e4245" rx="1" ry="1" style="paint-order:stroke markers fill"/><path fill="#fff" d="M6 7h12v1H6z"/><rect width="26" height="1" x="3" y="11" fill="#00000f" fill-rule="evenodd" opacity=".5" rx="0" ry="0" style="paint-order:fill markers stroke"/><rect width="26" height="1" x="3" y="20" fill="#00000f" fill-rule="evenodd" opacity=".5" rx="0" ry="0" style="paint-order:fill markers stroke"/><g fill="#72d406"><circle cx="21.5" cy="7.5" r=".5" stroke="#508e0b" stroke-linecap="round" stroke-linejoin="round" opacity=".5"/><circle cx="21.5" cy="7.5" r=".5"/><circle cx="25.5" cy="7.5" r=".5" stroke="#508e0b" stroke-linecap="round" stroke-linejoin="round" opacity=".5"/><circle cx="25.5" cy="7.5" r=".5"/></g><path fill="#fff" d="M6 16h12v1H6z"/><g fill="#72d406"><circle cx="21.5" cy="16.5" r=".5" stroke="#508e0b" stroke-linecap="round" stroke-linejoin="round" opacity=".5"/><circle cx="21.5" cy="16.5" r=".5"/><circle cx="25.5" cy="16.5" r=".5" stroke="#508e0b" stroke-linecap="round" stroke-linejoin="round" opacity=".5"/><circle cx="25.5" cy="16.5" r=".5"/></g><path fill="#fff" d="M6 25h12v1H6z"/><g fill="#72d406"><circle cx="21.5" cy="25.5" r=".5" stroke="#508e0b" stroke-linecap="round" stroke-linejoin="round" opacity=".5"/><circle cx="21.5" cy="25.5" r=".5"/><circle cx="25.5" cy="25.5" r=".5" stroke="#508e0b" stroke-linecap="round" stroke-linejoin="round" opacity=".5"/><circle cx="25.5" cy="25.5" r=".5"/></g><rect width="16" height="16" x="16" y="14" fill="#eff0f1" stroke="#000" stroke-opacity=".25" rx="2"/><path fill="#232629" d="M28 15c-1.108 0-2 .892-2 2s.892 2 2 2 2-.892 2-2-.892-2-2-2zm-9 5c-1.108 0-2 .892-2 2s.892 2 2 2 2-.892 2-2-.892-2-2-2zm9 5c-1.108 0-2 .892-2 2s.892 2 2 2 2-.892 2-2-.892-2-2-2zm-3.5-7a.499.499 0 1 0 0 1 .499.499 0 1 0 0-1zm-2 1a.499.499 0 1 0 0 1 .499.499 0 1 0 0-1zm0 5a.499.499 0 1 0 0 1 .499.499 0 1 0 0-1zm2 1a.499.499 0 1 0 0 1 .499.499 0 1 0 0-1z"/></svg>