<svg width="32" height="32" version="1.1" xmlns="http://www.w3.org/2000/svg">
 <path d="m12.524 30.213c-3.37-0.953-5.415-3.324-6.439-7.467-0.556-2.251-0.773-8.282-0.398-11.086 0.845-6.325 3.421-9.382 8.45-10.025 1.405-0.18 2.34-0.18 3.736-1e-3 5.068 0.647 7.62 3.74 8.48 10.273 0.297 2.26 0.118 8.398-0.3 10.265-0.933 4.17-2.697 6.587-5.656 7.752-1.558 0.613-6.132 0.78-7.873 0.289z" fill="#808080"/>
 <path d="m12.527 30.21c-3.367-0.952-5.41-3.323-6.432-7.466-0.556-2.25-0.772-8.282-0.398-11.086 0.843-6.325 3.417-9.382 8.44-10.024 1.404-0.18 2.339-0.18 3.733-2e-3 5.062 0.648 7.612 3.74 8.47 10.273 0.297 2.26 0.118 8.398-0.299 10.265-0.932 4.17-2.694 6.587-5.65 7.752-1.556 0.613-6.125 0.78-7.864 0.289z" fill="none" opacity=".35" stroke="#2e2e2e"/>
 <path d="m15.573 7c-0.357 0-0.569 0.287-0.573 0.643v6.268l-2.28-1.929c-0.402-0.351-0.974-0.282-1.326 0.12a0.968 0.968 0 0 0 0.08 1.367l2.893 2.531-2.893 2.531a0.968 0.968 0 0 0-0.08 1.366c0.352 0.403 0.924 0.472 1.326 0.12l2.28-1.927v6.268c0 0.356 0.216 0.643 0.573 0.643 0.363 0 0.562-0.025 0.843-0.241l4.54-4.058c0.145-0.129 0.234-0.31 0.282-0.482a0.958 0.958 0 0 0 0.04-0.362 0.929 0.929 0 0 0-0.04-0.2 1.003 1.003 0 0 0-0.282-0.483l-3.616-3.175 3.616-3.174c0.146-0.127 0.232-0.31 0.282-0.482a0.914 0.914 0 0 0 0-0.563 1.003 1.003 0 0 0-0.282-0.482l-4.54-4.058c-0.256-0.207-0.55-0.241-0.843-0.241zm0.427 2.5 2.907 2.563-2.907 2.437zm0 8 2.907 2.438-2.907 2.562z" color="#bebebe" fill="#ffffff" overflow="visible"/>
</svg>
