<svg xmlns="http://www.w3.org/2000/svg" width="32" height="32"><rect width="30" height="30" x="1" y="1" opacity=".25" rx="3" ry="3"/><path fill="#ececec" d="M4 2h24c1.108 0 2 .892 2 2v24c0 1.108-.892 2-2 2H4c-1.108 0-2-.892-2-2V4c0-1.108.892-2 2-2z"/><path fill="#7f8c8d" d="m15.688 8.61-5 4-.188.39v5.76l-4.813 3.85.625.78L11 19.64l4.688 3.75.624-.78-4.812-3.85v-5.52l4.5-3.6 4.5 3.6V19l.188.39 5 4 .625-.78-4.813-3.85V13l-.188-.39-5-4z"/><g stroke="#000" stroke-opacity=".25" stroke-width=".5"><rect width="6" height="6" x="13" y="4" fill="#e27581" rx=".75"/><rect width="6" height="6" x="8" y="13" fill="#aa7ec0" rx=".75"/><rect width="6" height="6" x="18" y="13" fill="#aa7ec0" rx=".75"/></g><g fill="#57af71" stroke="#000" stroke-opacity=".25" stroke-width=".5"><rect width="6" height="6" x="4" y="22" rx=".75"/><rect width="6" height="6" x="13" y="22" rx=".75"/><rect width="6" height="6" x="22" y="22" rx=".75"/></g></svg>