<svg xmlns="http://www.w3.org/2000/svg" width="32" height="32"><g transform="translate(0 1)"><rect width="25" height="29" x="3.5" y=".5" fill="#ececec" rx="2" ry="2"/><rect width="25" height="29" x="3.5" y=".5" fill="none" stroke="#000" opacity=".25" rx="2" ry="2"/><path fill="#393939" d="M6.5 3.5h19v23h-19z" color="#000" overflow="visible"/><path fill="#f9f9f9" d="M9 6.001h14V24H9V6z"/><path fill="#ececec" stroke="#c8c8c8" d="M10 8.465h2.476zm2.628 0h.41zm.576 0h.911zm1.093 0h2.399zm2.55 0h1.837zm1.989 0h.561zM10 10.458h3.113zm3.265 0h1.2zm1.351 0h1.123zm1.275 0h.956zm1.108 0 1.503.015zm1.64.015h2.443zM10 12.465h2.886zm0 1.993h3.113zm3.265 0h1.2zm1.351 0h1.123zm1.275 0h.956zm1.108 0 1.503.015zm1.64.015h2.443zM10 16.465h3.493zm3.645 0h.895zm1.047 0h2.11zm2.246 0h1.442zm1.61 0h.576zm.728 0h.319zm.486 0h.895zM10 19.458h3.113zm3.265 0h1.2zm1.351 0h1.123zm1.275 0h.956zm1.108 0 1.503.015zm1.64.015h2.443zM10 21.465h1.641zm1.793 0h1.35zm1.503 0h1.988zm2.155 0h1.35zm1.487 0h.289zm.44 0h1.716zm1.898 0h.895z"/><path fill="#ff2a2a" d="M6 17h20v1H6z" opacity=".8"/><path fill="none" stroke="#000" stroke-linejoin="round" d="M6.5 3.5h19v23h-19z" opacity=".7"/></g></svg>