<svg xmlns="http://www.w3.org/2000/svg" width="32" height="32"><defs><linearGradient id="b"><stop offset="0" style="stop-color:#000;stop-opacity:1"/><stop offset="1" style="stop-color:#000;stop-opacity:0"/></linearGradient><linearGradient id="a"><stop offset="0" style="stop-color:#ef4728;stop-opacity:1"/><stop offset="1" style="stop-color:#f37760;stop-opacity:1"/></linearGradient></defs><path fill="#5eb4fc" fill-opacity=".992" d="M16 1.5C8 1.5 1.5 8 1.5 16S8 30.5 16 30.5 30.5 24 30.5 16 24 1.5 16 1.5Z" color="#000" opacity=".99" overflow="visible" style="marker:none;fill:#f16147;fill-opacity:1"/><path fill="none" stroke="#002e99" stroke-linecap="round" stroke-linejoin="round" d="M16 1.502C8 1.502 1.502 8 1.502 16 1.502 24 8 30.498 16 30.498 24 30.498 30.498 24 30.498 16 30.498 8 24 1.502 16 1.502Z" color="#000" opacity=".35" overflow="visible" style="isolation:auto;mix-blend-mode:normal;solid-color:#000;solid-opacity:1;marker:none;stroke:#b3280f;stroke-opacity:1"/><g transform="matrix(1.06344 0 0 1.06344 -4.116 -2.323)"><path d="m10 7 13 12m-7 4V13" style="opacity:.5;fill:none;stroke:#fff;stroke-width:2;stroke-linecap:butt;stroke-linejoin:miter;stroke-miterlimit:4;stroke-dasharray:none;stroke-opacity:1"/><circle cx="16" cy="13" r="3" style="opacity:1;fill:#fff;fill-opacity:1;stroke:none;stroke-width:2;stroke-linecap:round;stroke-linejoin:round;stroke-miterlimit:4;stroke-dasharray:none;stroke-opacity:1"/><circle cx="23" cy="19" r="3" style="opacity:1;fill:#fff;fill-opacity:1;stroke:none;stroke-width:2;stroke-linecap:round;stroke-linejoin:round;stroke-miterlimit:4;stroke-dasharray:none;stroke-opacity:1"/><circle cx="16" cy="23" r="3" style="opacity:1;fill:#fff;fill-opacity:1;stroke:none;stroke-width:2;stroke-linecap:round;stroke-linejoin:round;stroke-miterlimit:4;stroke-dasharray:none;stroke-opacity:1"/></g></svg>