<svg version="1.1" viewBox="0 0 32 32" xmlns="http://www.w3.org/2000/svg">
 <path d="m16 1.5c-8 0-14.5 6.5-14.5 14.5s6.5 14.5 14.5 14.5 14.5-6.5 14.5-14.5-6.5-14.5-14.5-14.5z" color="#000000" fill="#5eb4fc" fill-opacity=".992" opacity=".99" overflow="visible"/>
 <path d="m16 1.502c-8 0-14.498 6.498-14.498 14.498s6.498 14.498 14.498 14.498 14.498-6.498 14.498-14.498-6.498-14.498-14.498-14.498z" color="#000000" fill="none" opacity=".35" overflow="visible" solid-color="#000000" stroke="#002e99" stroke-linecap="round" stroke-linejoin="round" style="isolation:auto;mix-blend-mode:normal"/>
 <g transform="translate(-384.57 -515.8)">
  <path d="m397.07 520.8c-4.155 0-7.5 3.345-7.5 7.5s3.345 7.5 7.5 7.5c1.7753 0 3.3829-0.63332 4.6647-1.6569l6.6569 6.6569 1.1784-1.1784-6.6569-6.6569c1.0236-1.2818 1.6569-2.8894 1.6569-4.6647 0-4.155-3.345-7.5-7.5-7.5zm0 1.6667c3.2316 0 5.8333 2.6017 5.8333 5.8333s-2.6017 5.8333-5.8333 5.8333-5.8333-2.6017-5.8333-5.8333 2.6017-5.8333 5.8333-5.8333z" fill="#fff" stroke-width="1.6667"/>
 </g>
</svg>
