<svg xmlns="http://www.w3.org/2000/svg" width="32" height="32"><rect width="32" height="30" y="-31" opacity=".25" rx="2" ry="2" transform="scale(1 -1)"/><rect width="30" height="28" x="1" y="-30" fill="#eee" rx="1" ry="1" transform="scale(1 -1)"/><path fill="#e4e4e4" d="M2 30c-.554 0-1-.446-1-1v-3h30v3c0 .554-.446 1-1 1z"/><rect width="2" height="2" x="27" y="-29" fill="#999" rx="1" transform="scale(1 -1)"/><rect width="30" height="1" x="1" y="-26" opacity=".25" ry="0" transform="scale(1 -1)"/><path fill="#999" d="M3 27v1h1v-1zm1 1v1h1v-1z"/><path d="M1 2v10c5.523 0 10-4.477 10-10z" opacity=".08"/><path d="M1 2v7a7 7 0 0 0 7-7z" opacity=".08"/><path d="M1 2v4a4 4 0 0 0 4-4zM31 2v10c-5.523 0-10-4.477-10-10z" opacity=".08"/><path d="M31 2v7a7 7 0 0 1-7-7z" opacity=".08"/><path d="M31 2v4a4 4 0 0 1-4-4zM1 30V20c5.523 0 10 4.477 10 10z" opacity=".08"/><path d="M1 30v-7a7 7 0 0 1 7 7z" opacity=".08"/><path d="M1 30v-4a4 4 0 0 1 4 4zM31 30V20c-5.523 0-10 4.477-10 10z" opacity=".08"/><path d="M31 30v-7a7 7 0 0 0-7 7z" opacity=".08"/><path d="M31 30v-4a4 4 0 0 0-4 4z" opacity=".08"/></svg>