<svg xmlns="http://www.w3.org/2000/svg" width="32" height="32"><g transform="translate(-384.57 -515.8)"><path fill="#1ea8f7" d="M386.12 519.3c-.58 0-1.05.475-1.05 1.064V540.8h31v-20.436c0-.589-.469-1.064-1.05-1.064z" color="#000" overflow="visible"/><path fill="#00377a" d="M386.12 518.8c-.852 0-1.55.71-1.55 1.564V540.8h1v-20.436c0-.324.24-.564.55-.564h28.9c.31 0 .55.24.55.564V540.8h1v-20.436c0-.854-.697-1.564-1.55-1.564z" color="#000" font-family="sans-serif" font-weight="400" opacity=".35" overflow="visible" style="isolation:auto;mix-blend-mode:normal;text-decoration-color:#000;text-decoration-line:none;text-decoration-style:solid;text-indent:0;text-transform:none;white-space:normal"/><path fill="#fff" fill-rule="evenodd" d="M396.98 525.81a.504.504 0 0 0-.406.5v8.99a.504.504 0 0 0 .75.438l7.996-4.496a.503.503 0 0 0 0-.874l-7.996-4.496a.504.504 0 0 0-.344-.062z"/><path fill="#546268" d="M385.07 540.8v3.436c0 .589.469 1.064 1.05 1.064h28.9c.581 0 1.05-.475 1.05-1.064V540.8z" color="#000" overflow="visible"/><path d="M384.57 540.8v3.436c0 .854.697 1.564 1.55 1.564h28.9c.853 0 1.55-.71 1.55-1.564V540.8h-1v3.436c0 .324-.24.564-.55.564h-28.9c-.31 0-.55-.24-.55-.564V540.8z" color="#000" font-family="sans-serif" font-weight="400" opacity=".35" overflow="visible" style="isolation:auto;mix-blend-mode:normal;text-decoration-color:#000;text-decoration-line:none;text-decoration-style:solid;text-indent:0;text-transform:none;white-space:normal"/><path d="M387.03 542.8h27.074c.257 0 .463.206.463.463v.074a.462.462 0 0 1-.463.463H387.03a.462.462 0 0 1-.463-.463v-.074c0-.257.206-.463.463-.463z" opacity=".4"/><circle cx="393.07" cy="543.3" r="1.5" fill="#161b1e"/><path fill-rule="evenodd" d="M385.57 540.8v1h30v-1z" color="#000" font-family="sans-serif" font-weight="400" opacity=".5" overflow="visible" style="isolation:auto;mix-blend-mode:normal;text-decoration-color:#000;text-decoration-line:none;text-decoration-style:solid;text-indent:0;text-transform:none;white-space:normal"/></g></svg>