<svg xmlns="http://www.w3.org/2000/svg" width="32" height="32"><rect width="30" height="30" x="1" y="1" fill="#1d1f20" rx="3" ry="3"/><rect width="28" height="28" x="2" y="2" fill="#343739" rx="2" ry="2"/><path fill="#38aaeb" d="M5 17h10v10H5zm12 0h10v10H17zm0-12h10v10H17zM5 5h10v10H5z"/><path fill="#fff" d="M22 7v1H10a1.99 1.99 0 0 0-1.566.756A1.998 1.998 0 0 0 8 10v5a2.002 2.002 0 0 0 .03.34 2.001 2.001 0 0 0 .187.566A2 2 0 0 0 10 17h11a1.003 1.003 0 0 1 .49.13 1.002 1.002 0 0 1 .194.142A.996.996 0 0 1 22 18v3a1 1 0 0 1-1 1H10v-1l-3 2 3 2v-1h12a1.99 1.99 0 0 0 1.436-.607 2.002 2.002 0 0 0 .492-.858A2.001 2.001 0 0 0 24 22v-5a2.002 2.002 0 0 0-.03-.34 2.001 2.001 0 0 0-.187-.566A2 2 0 0 0 22 15H11a1.003 1.003 0 0 1-.49-.13 1.002 1.002 0 0 1-.194-.142A.996.996 0 0 1 10 14v-3a1 1 0 0 1 1-1h11v1l3-2z"/></svg>