<svg xmlns="http://www.w3.org/2000/svg" width="32" height="32"><g transform="translate(-384.57 -515.8)"><path fill="#e6e6e6" stroke="#b8b8b8" d="M397.62 528.295c.312 1.542.585 2.708.332 4.25-1.972 1.71-7.214 2.48-7.207 4.25l-.677 5.313c0 1.76 4.701 3.187 10.5 3.187s10.5-1.427 10.5-3.187l-.677-5.313c-.009-1.516-5.281-2.48-7.229-4.25-.166-1.43.066-2.819.354-4.25z"/><path fill="#f2f2f2" stroke="#cacaca" d="M400.57 518.295c-2.485 0-4.5 2-4.5 4.466.02.913.093 1.998.6 4.467.3.957 2.976 3.71 3 4.028.582.32 1.5.32 2.1 0 0-.319 2.4-3.07 2.7-4.028.57-2.566.57-3.51.6-4.467 0-2.466-2.015-4.466-4.5-4.466z"/><circle cx="408.07" cy="541.3" r="6.5" fill="#2f94e4" fill-opacity=".984"/><circle cx="408.07" cy="541.3" r="5.5" fill="#5db5fc" fill-opacity=".984"/><circle cx="408.07" cy="538.3" r=".5" fill="#fff" fill-opacity=".984"/><rect width="1" height="5" x="407.57" y="539.8" fill="#fff" fill-opacity=".984" rx=".5" ry=".5"/></g></svg>