<svg xmlns="http://www.w3.org/2000/svg" xmlns:xlink="http://www.w3.org/1999/xlink" width="32" height="32"><defs><linearGradient xlink:href="#a" id="e" x1="4.49" x2="47.5" y1="23" y2="23" gradientTransform="matrix(.64663 0 0 -.64663 -.478 30.873)" gradientUnits="userSpaceOnUse"/><linearGradient id="a"><stop offset="0" stop-color="#fff"/><stop offset="1" stop-color="#fff" stop-opacity="0"/></linearGradient><linearGradient xlink:href="#a" id="d" x1="48.127" x2="2.873" y1="25.828" y2="24.414" gradientTransform="scale(.64664 -.64664) rotate(45 82.779 -2.034)" gradientUnits="userSpaceOnUse"/><linearGradient xlink:href="#a" id="c" x1="46.006" x2="4.287" y1="23.707" y2="27.243" gradientTransform="scale(.64664) rotate(45 23.027 22.98)" gradientUnits="userSpaceOnUse"/><linearGradient xlink:href="#a" id="b" x1="3.5" x2="47.5" y1="23" y2="23" gradientTransform="matrix(0 .64663 .64663 0 1.14 -.489)" gradientUnits="userSpaceOnUse"/></defs><path fill="gray" stroke="#05111e" stroke-opacity=".518" d="M16 1.5C8 1.5 1.5 8 1.5 16S8 30.5 16 30.5 30.5 24 30.5 16 24 1.5 16 1.5z" color="#000" overflow="visible"/><path fill="none" stroke="url(#b)" stroke-linecap="round" stroke-linejoin="round" d="M18.614 28.594a6.143 13.903 0 0 0-2.617-26.496" opacity=".8"/><path fill="#fff" d="M17.467 28.185a1.293 1.293 0 0 0 2.586 0 1.293 1.293 0 1 0-2.586 0z" color="#000" overflow="visible"/><path fill="none" stroke="url(#c)" stroke-linecap="round" stroke-linejoin="round" d="M25.842 25.83A13.903 6.143 45 0 1 5.278 8.37" opacity=".8"/><path fill="#fff" d="M6.635 8.827a1.293 1.293 0 0 1-2.586 0 1.293 1.293 0 1 1 2.586 0z" color="#000" overflow="visible"/><path fill="none" stroke="url(#d)" stroke-linecap="round" stroke-linejoin="round" d="M25.967 6.509A6.143 13.903 45 0 0 5.413 21.35" opacity=".8"/><path fill="#fff" d="M5.222 23.516a1.294 1.294 0 0 0 0-2.587 1.294 1.294 0 1 0 0 2.587z"/><path fill="none" stroke="url(#e)" stroke-linecap="round" stroke-linejoin="round" d="M27.853 12.781a13.903 6.143 0 0 0-25.729 3.506"/><path fill="#fff" d="M29.389 13.03a1.294 1.294 0 0 0-2.587 0 1.294 1.294 0 1 0 2.587 0z" color="#000" overflow="visible"/><path fill="#ffdf60" d="M16 11.254c-1.526 1.06-3.24 1.596-4.96 1.96.815 4.622 2.57 6.599 4.96 7.837 2.39-1.238 4.145-3.215 4.96-7.837-1.72-.364-3.434-.9-4.96-1.96zM16 9s-1.75 2.324-7 2.907c0 0 0 8.17 7 11.093 7-2.924 7-11.093 7-11.093C17.75 11.324 16 9 16 9zm0 1.205c1.388 1.177 3.393 1.961 5.99 2.357-.14 1.264-.277 2.215-.603 3.135-.688 1.933-1.488 3.11-2.205 3.955-1.115 1.311-2.126 1.84-3.182 2.368-1.056-.527-2.067-1.057-3.182-2.368-.717-.845-1.517-2.022-2.205-3.955-.326-.92-.463-1.87-.604-3.135 2.598-.396 4.603-1.18 5.991-2.357z"/></svg>