<svg xmlns="http://www.w3.org/2000/svg" width="32" height="32"><rect width="32" height="30" y="1" opacity=".25" rx="2" ry="2"/><rect width="30" height="28" x="1" y="2" fill="#eee" rx="1" ry="1"/><path fill="#e4e4e4" d="M2 2c-.554 0-1 .446-1 1v5h30V3c0-.554-.446-1-1-1z"/><rect width="2" height="2" x="27" y="4" fill="#999" rx="1"/><rect width="30" height="1" x="1" y="8" opacity=".25" ry="0"/><path fill="#f84d5e" d="M6.003 14h1.764l2.06 5.714 2.058-5.715h1.765l-2.941 8H8.944z"/><path fill="#3f4144" d="m12.473 22 2.942-8h1.764l-2.94 8zm5.883 0 2.941-8h1.765l-2.942 8z"/><path fill="#8a9596" d="m10.709 22 2.94-8h1.766l-2.942 8zm5.882 0 2.941-8h1.765l-2.941 8z"/><path fill="#bcc1c5" d="M18.356 22H16.59l-2.941-8h1.765zm5.882 0h-1.765l-2.94-8h1.764z"/><path fill="#585858" d="m15.415 14 2.94 8h1.765l-2.94-8zm5.882 0 2.941 8h1.765l-2.941-8z"/><path fill="#27ae60" d="M27 20v6.086l-2.293-2.293L24 24.5l3.5 3.5 3.5-3.5-.707-.707L28 26.086V20z"/></svg>