<svg xmlns="http://www.w3.org/2000/svg" width="32" height="32"><g transform="translate(-384.57 -515.8)"><rect width="32" height="30" x="384.57" y="516.8" opacity=".25" rx="2" ry="2"/><rect width="30" height="28" x="385.57" y="517.8" fill="#eee" rx="1" ry="1"/><path fill="#e4e4e4" d="M386.57 517.8c-.554 0-1 .446-1 1v5h30v-5c0-.554-.446-1-1-1h-28z"/><rect width="2" height="2" x="411.57" y="519.8" fill="#999" rx="1"/><path fill="gray" d="M405 527.8c-2.844 0-3.377 4.155-1.777 4.155 1.6 0 4.621-4.155 1.777-4.155zm-4.38.64c-.045 0-.094.003-.145.008-1.611.196-1.044 2.819-.186 2.868.83.047 1.74-2.872.33-2.876zm-2.795.968a.77.77 0 0 0-.33.06c-1.295.51-.196 2.622.53 2.48.657-.128.752-2.481-.2-2.54zm-2.115 1.726a.595.595 0 0 0-.363.127c-1.037.744.348 2.542.958 2.263.534-.244.194-2.363-.595-2.39zm6.125 1.716c-2.247-.037-5.21 1.059-5.716 3.26-.547 2.384 2.253 5.69 5.175 5.69 1.438 0 3.096-1.263 3.406-2.863.237-1.22-2.788-.73-2.68.076.131.968-.729 1.446-1.57.822-2.682-1.985 4.438-2.976 3.968-5.689-.146-.844-1.235-1.274-2.583-1.296z"/><rect width="30" height="1" x="385.57" y="523.8" opacity=".25" ry="0"/></g></svg>