<svg xmlns="http://www.w3.org/2000/svg" xmlns:xlink="http://www.w3.org/1999/xlink" width="32" height="32"><defs><radialGradient xlink:href="#a" id="b" cx="4.993" cy="43.5" r="2.5" gradientTransform="matrix(2.0038 0 0 1.4 27.988 -17.4)" gradientUnits="userSpaceOnUse"/><radialGradient xlink:href="#a" id="c" cx="4.993" cy="43.5" r="2.5" gradientTransform="matrix(2.0038 0 0 1.4 -20.012 -104.4)" gradientUnits="userSpaceOnUse"/><linearGradient id="a"><stop offset="0" stop-color="#181818"/><stop offset="1" stop-color="#181818" stop-opacity="0"/></linearGradient><linearGradient id="d" x1="25.058" x2="25.058" y1="47.028" y2="39.999" gradientUnits="userSpaceOnUse"><stop offset="0" stop-color="#181818" stop-opacity="0"/><stop offset=".5" stop-color="#181818"/><stop offset="1" stop-color="#181818" stop-opacity="0"/></linearGradient><clipPath id="e"><path fill="url(#i)" d="M14.674 8c-.07 2.905-.988 5.45-2.754 7.635-.07-.86-.336-1.72-.8-2.58-.047.65-.31 1.517-.786 2.597-.476 1.081-.772 1.864-.889 2.352-.255 1.232-.11 2.313.436 3.242.546.93 1.621 1.848 3.224 2.754 2.145 1.289 3.363.99 5.37 0 1.138-.65 2.044-1.366 2.718-2.145.674-.778 1.103-1.533 1.29-2.265a6.421 6.421 0 0 0 .156-2.266 6.628 6.628 0 0 0-.557-2.11 13.149 13.149 0 0 0-.994-1.777c-.372-.557-.708-.998-1.01-1.324-.302-.325-.546-.558-.732-.697.162.442.22.918.174 1.43a4.39 4.39 0 0 1-.348 1.394 6.216 6.216 0 0 0-.611-2.092c-.337-.697-.697-1.273-1.08-1.726a10.852 10.852 0 0 0-1.325-1.307c-.5-.418-.843-.69-1.029-.818A9.263 9.263 0 0 0 14.674 8z" color="#000" overflow="visible" style="isolation:auto;mix-blend-mode:normal"/></clipPath></defs><g fill="#bf413b" color="#000"><path d="M3.5 2.5c-.554 0-1 .446-1 1v4c0 .554.446 1 1 1h4c.554 0 1-.446 1-1 0 .554.446 1 1 1h10c.554 0 1-.446 1-1 0 .554.446 1 1 1h7c.554 0 1-.446 1-1v-4c0-.554-.446-1-1-1h-7c-.554 0-1 .446-1 1 0-.554-.446-1-1-1h-10c-.554 0-1 .446-1 1 0-.554-.446-1-1-1zM3.5 14.5c-.554 0-1 .446-1 1v4c0 .554.446 1 1 1h4c.554 0 1-.446 1-1 0 .554.446 1 1 1h10c.554 0 1-.446 1-1 0 .554.446 1 1 1h7c.554 0 1-.446 1-1v-4c0-.554-.446-1-1-1h-7c-.554 0-1 .446-1 1 0-.554-.446-1-1-1h-10c-.554 0-1 .446-1 1 0-.554-.446-1-1-1z" overflow="visible" style="isolation:auto;mix-blend-mode:normal"/><path d="M3.5 20.5c-.554 0-1 .446-1 1v4c0 .554.446 1 1 1h7c.554 0 1-.446 1-1 0 .554.446 1 1 1h10c.554 0 1-.446 1-1 0 .554.446 1 1 1h4c.554 0 1-.446 1-1v-4c0-.554-.446-1-1-1h-4c-.554 0-1 .446-1 1 0-.554-.446-1-1-1h-10c-.554 0-1 .446-1 1 0-.554-.446-1-1-1zm0-12c-.554 0-1 .446-1 1v4c0 .554.446 1 1 1h7c.554 0 1-.446 1-1 0 .554.446 1 1 1h10c.554 0 1-.446 1-1 0 .554.446 1 1 1h4c.554 0 1-.446 1-1v-4c0-.554-.446-1-1-1h-4c-.554 0-1 .446-1 1 0-.554-.446-1-1-1h-10c-.554 0-1 .446-1 1 0-.554-.446-1-1-1z" overflow="visible"/></g><g fill="none" stroke="#681d22" stroke-linecap="round" stroke-linejoin="round" color="#000"><rect width="6" height="6" x="-29.5" y="20.5" opacity=".35" overflow="visible" rx="1" ry="1" transform="scale(-1 1)"/><rect width="12" height="6" x="-23.5" y="20.5" opacity=".5" overflow="visible" rx="1" ry="1" transform="scale(-1 1)"/><rect width="9" height="6" x="-11.5" y="20.5" opacity=".35" overflow="visible" rx="1" ry="1" transform="scale(-1 1)"/><rect width="6" height="6" x="-29.5" y="8.5" opacity=".35" overflow="visible" rx="1" ry="1" transform="scale(-1 1)"/><rect width="12" height="6" x="-23.5" y="8.5" opacity=".35" overflow="visible" rx="1" ry="1" transform="scale(-1 1)"/><rect width="9" height="6" x="-11.5" y="8.5" opacity=".35" overflow="visible" rx="1" ry="1" transform="scale(-1 1)"/><rect width="6" height="6" x="2.5" y="14.5" opacity=".35" overflow="visible" rx="1" ry="1"/><rect width="12" height="6" x="8.5" y="14.5" opacity=".5" overflow="visible" rx="1" ry="1"/><rect width="9" height="6" x="20.5" y="14.5" opacity=".35" overflow="visible" rx="1" ry="1"/><rect width="6" height="6" x="2.5" y="2.5" opacity=".35" overflow="visible" rx="1" ry="1"/><rect width="12" height="6" x="8.5" y="2.5" opacity=".35" overflow="visible" rx="1" ry="1"/><rect width="9" height="6" x="20.5" y="2.5" opacity=".35" overflow="visible" rx="1" ry="1"/></g><g opacity=".4"><path fill="url(#b)" d="M38 40h5v7h-5z" transform="matrix(.73684 0 0 .57143 -1.684 4.143)"/><path fill="url(#c)" d="M-10-47h5v7h-5z" transform="matrix(-.73684 0 0 -.57143 -1.684 4.143)"/><path fill="url(#d)" d="M10 40h28v7H10z" transform="matrix(.73684 0 0 .57143 -1.684 4.143)"/></g><path fill="#bf413b" d="M3.5 26.5c-.554 0-1 .446-1 1v1c0 .554.446 1 1 1h4c.554 0 1-.446 1-1 0 .554.446 1 1 1h10c.554 0 1-.446 1-1 0 .554.446 1 1 1h7c.554 0 1-.446 1-1v-1c0-.554-.446-1-1-1h-7c-.554 0-1 .446-1 1 0-.554-.446-1-1-1h-10c-.554 0-1 .446-1 1 0-.554-.446-1-1-1z" color="#000" overflow="visible" style="isolation:auto;mix-blend-mode:normal"/><g fill="none" stroke="#681d22" stroke-linecap="round" stroke-linejoin="round" color="#000"><rect width="6" height="3" x="2.5" y="26.5" opacity=".35" overflow="visible" rx="1" ry="1"/><rect width="12" height="3" x="8.5" y="26.5" opacity=".35" overflow="visible" rx="1" ry="1"/><rect width="9" height="3" x="20.5" y="26.5" opacity=".35" overflow="visible" rx="1" ry="1"/></g><g color="#000"><path fill="none" stroke="#662c05" stroke-linejoin="round" stroke-width="2" d="M14.674 8c-.07 2.905-.988 5.45-2.754 7.635-.07-.86-.336-1.72-.8-2.58-.047.65-.31 1.517-.786 2.597-.476 1.081-.772 1.864-.889 2.352-.255 1.232-.11 2.313.436 3.242.546.93 1.621 1.848 3.224 2.754 2.27.758 3.363.99 5.37 0 1.138-.65 2.044-1.366 2.718-2.145.674-.778 1.103-1.533 1.29-2.265a6.421 6.421 0 0 0 .156-2.266 6.628 6.628 0 0 0-.557-2.11 13.149 13.149 0 0 0-.994-1.777c-.372-.557-.708-.998-1.01-1.324-.302-.325-.546-.558-.732-.697.162.442.22.918.174 1.43a4.39 4.39 0 0 1-.348 1.394 6.216 6.216 0 0 0-.611-2.092c-.337-.697-.697-1.273-1.08-1.726a10.852 10.852 0 0 0-1.325-1.307c-.5-.418-.843-.69-1.029-.818A9.263 9.263 0 0 0 14.674 8z" opacity=".3" overflow="visible" style="isolation:auto;mix-blend-mode:normal"/><path fill="#662c05" d="M14.674 9c-.07 2.905-.988 5.45-2.754 7.635-.07-.86-.336-1.72-.8-2.58-.047.65-.31 1.517-.786 2.597-.476 1.081-.772 1.864-.889 2.352-.255 1.232-.11 2.313.436 3.242.546.93 1.621 1.848 3.224 2.754 2.114.789 3.363.99 5.37 0 1.138-.65 2.044-1.366 2.718-2.145.674-.778 1.103-1.533 1.29-2.265a6.421 6.421 0 0 0 .156-2.266 6.628 6.628 0 0 0-.557-2.11 13.077 13.077 0 0 0-.994-1.776c-.372-.558-.708-1-1.01-1.325s-.546-.558-.732-.697c.162.442.22.918.174 1.43a4.39 4.39 0 0 1-.348 1.394 6.216 6.216 0 0 0-.611-2.092c-.337-.697-.697-1.273-1.08-1.726a10.852 10.852 0 0 0-1.325-1.307c-.5-.418-.843-.69-1.029-.818A9.263 9.263 0 0 0 14.674 9z" opacity=".15" overflow="visible" style="isolation:auto;mix-blend-mode:normal"/><path fill="#fbd25c" d="M14.674 8c-.07 2.905-.988 5.45-2.754 7.635-.07-.86-.336-1.72-.8-2.58-.047.65-.31 1.517-.786 2.597-.476 1.081-.772 1.864-.889 2.352-.255 1.232-.11 2.313.436 3.242.546.93 1.621 1.848 3.224 2.754 2.426.945 3.363.99 5.37 0 1.138-.65 2.044-1.366 2.718-2.145.674-.778 1.103-1.533 1.29-2.265a6.421 6.421 0 0 0 .156-2.266 6.628 6.628 0 0 0-.557-2.11 13.149 13.149 0 0 0-.994-1.777c-.372-.557-.708-.998-1.01-1.324-.302-.325-.546-.558-.732-.697.162.442.22.918.174 1.43a4.39 4.39 0 0 1-.348 1.394 6.216 6.216 0 0 0-.611-2.092c-.337-.697-.697-1.273-1.08-1.726a10.852 10.852 0 0 0-1.325-1.307c-.5-.418-.843-.69-1.029-.818A9.263 9.263 0 0 0 14.674 8z" overflow="visible" style="isolation:auto;mix-blend-mode:normal"/><path fill="none" stroke="#ba8234" stroke-linejoin="round" stroke-opacity=".273" stroke-width="2" d="M18.474 24c.767-1.534.918-3.19.453-4.967-.465-1.778-1.383-3.143-2.754-4.096.116.511.053 1.353-.191 2.527s-.634 2.063-1.168 2.667c.093-.744.116-1.348.07-1.813-.047-.465-.117-.813-.21-1.046l-.174-.313c-.14.836-.5 1.673-1.08 2.51a6.618 6.618 0 0 0-.68 1.22c-.151.371-.21.848-.175 1.429.035.58.215 1.208.54 1.882 0 0 .92.75 1.944.75 2.482 0 2.595-.276 3.425-.75z" clip-path="url(#e)" overflow="visible" style="isolation:auto;mix-blend-mode:normal"/><path fill="#fdedc6" d="M18.474 24c.767-1.534.918-3.19.453-4.967-.465-1.778-1.383-3.143-2.754-4.096.116.511.053 1.353-.191 2.527s-.634 2.063-1.168 2.667c.093-.744.116-1.348.07-1.813-.047-.465-.117-.813-.21-1.046l-.174-.313c-.14.836-.5 1.673-1.08 2.51a6.618 6.618 0 0 0-.68 1.22c-.151.371-.21.848-.175 1.429.035.58.215 1.208.54 1.882 0 0 .92.75 1.944.75 2.482 0 2.595-.276 3.425-.75z" overflow="visible" style="isolation:auto;mix-blend-mode:normal"/></g></svg>