<svg xmlns="http://www.w3.org/2000/svg" width="32" height="32"><rect width="32" height="30" y="1" opacity=".25" rx="2" ry="2"/><rect width="30" height="28" x="1" y="2" fill="#eee" rx="1" ry="1"/><path fill="#e4e4e4" d="M2 2c-.554 0-1 .446-1 1v5h30V3c0-.554-.446-1-1-1Z"/><path d="M16 2v6h15V3c0-.554-.446-1-1-1Z" style="opacity:.35;fill:#1a1a1a"/><rect width="30" height="1" x="1" y="8" opacity=".25" ry="0" style="opacity:.15"/><rect width="2" height="2" x="11" y="4" fill="#999" rx="1"/><rect width="1" height="6" x="15" y="2" rx="0" ry="0" style="fill:#1a1a1a;fill-rule:evenodd;stroke-linecap:round;stroke-linejoin:round;paint-order:stroke fill markers;opacity:.15"/><rect width="2" height="2" x="27" y="4" fill="#999" rx="1" style="fill:#f9f9f9"/></svg>