<svg xmlns="http://www.w3.org/2000/svg" xmlns:xlink="http://www.w3.org/1999/xlink" width="32" height="32"><defs><linearGradient xlink:href="#a" id="d" x1="9" x2="9" y1="29.057" y2="26.03" gradientTransform="matrix(.42123 -.4241 .56755 .5658 381.967 526.918)" gradientUnits="userSpaceOnUse"/><linearGradient id="a"><stop offset="0" stop-color="#ece5a5"/><stop offset="1" stop-color="#fcfbf2"/></linearGradient><linearGradient xlink:href="#b" id="e" x1="5.518" x2="9.522" y1="37.372" y2="41.392" gradientTransform="matrix(.36997 .016 .01595 .37021 397.29 524.52)" gradientUnits="userSpaceOnUse"/><linearGradient id="b"><stop offset="0" stop-color="#dbce48"/><stop offset="1" stop-color="#c5b625"/></linearGradient><linearGradient id="c"><stop offset="0" stop-color="#8e8e8e"/><stop offset="1" stop-color="#b5b5b5"/></linearGradient></defs><g transform="translate(-384.571 -515.798)"><rect width="22" height="26" x="389.571" y="518.798" fill="#a0a0a0" stroke="#0c0c0c" stroke-linecap="round" stroke-linejoin="round" stroke-width="2" opacity=".15" paint-order="markers stroke fill" rx=".458" ry=".441"/><rect width="22" height="26" x="389.571" y="518.798" fill="#f9f9f9" paint-order="markers stroke fill" rx="0" ry="0"/><rect width="14" height="1" x="394.571" y="536.798" rx=".5" ry=".5" style="opacity:1;fill:#f9f9f9;fill-rule:evenodd;stroke:#ccc;stroke-linecap:round;stroke-linejoin:round;stroke-opacity:1;paint-order:stroke fill markers"/><rect width="14" height="1" x="394.571" y="524.798" rx=".5" ry=".5" style="opacity:1;fill:#f9f9f9;fill-rule:evenodd;stroke:#ccc;stroke-linecap:round;stroke-linejoin:round;stroke-opacity:1;paint-order:stroke fill markers"/><rect width="14" height="1" x="394.571" y="530.798" rx=".5" ry=".5" style="opacity:1;fill:#f9f9f9;fill-rule:evenodd;stroke:#ccc;stroke-linecap:round;stroke-linejoin:round;stroke-opacity:1;paint-order:stroke fill markers"/><path fill="#a0a0a0" stroke="#0c0c0c" stroke-linejoin="round" stroke-opacity=".564" stroke-width=".5" d="M400.845 536.236c.312-.233 1.19.204 1.995 1.002.804.796 1.228 1.647.998 1.961l.02.019 11.22-11.217c.286-.285-.157-1.185-.988-2.008-.832-.823-1.739-1.26-2.024-.974z"/><path fill="#ffb6ed" stroke="#e28ccd" stroke-linejoin="round" stroke-width=".5" d="M410.721 526.376c.312-.234 1.19.204 1.995 1.002.804.795 1.228 1.647.998 1.96 0 .002.02.018.02.02l1.37-1.37.027-.027c0-.002-.02-.018-.02-.019.23-.314-.194-1.165-.997-1.961-.806-.798-1.683-1.236-1.996-1.002l-.028.028-1.37 1.369z" opacity=".8" style="fill:#f9f9f9;stroke:#c2c2c2;stroke-opacity:1"/><path fill="#0c0c0c" d="M400.847 536.376c.294-.221 1.12.194 1.88.951.757.755 1.156 1.563.94 1.86 0 .002.02.017.018.018l7.28-7.329.025-.026c.001-.001-.018-.017-.017-.018.216-.298-.183-1.105-.94-1.86-.76-.757-1.586-1.172-1.88-.951l-.027.026-7.28 7.33z" opacity=".6"/><path fill="url(#d)" fill-rule="evenodd" stroke="url(#e)" stroke-width=".5" d="m398.821 541.193 4.81-1.965.04-.041c.216-.298-.188-1.106-.945-1.86-.76-.758-1.585-1.17-1.879-.95z" style="fill:url(#d);stroke:url(#l)"/><path fill="#0c0c0c" fill-rule="evenodd" stroke="#0c0c0c" stroke-width=".5" d="m399.37 539.889-.549 1.299 1.312-.539c-.105-.126-.203-.254-.329-.38a5.325 5.325 0 0 0-.434-.38z"/><rect width="1" height="22" x="391.571" y="520.798" fill="#f7abab" fill-opacity=".592" paint-order="markers stroke fill" ry=".478"/></g></svg>