<svg xmlns="http://www.w3.org/2000/svg" height="32" width="32"><defs><clipPath id="a" clipPathUnits="userSpaceOnUse"><path d="M15 8c-.277 0-.5.223-.5.5v1.688a5.931 5.931 0 0 0-1.531.656L11.75 9.625a.476.476 0 0 0-.688 0l-1.437 1.438a.476.476 0 0 0 0 .687l1.219 1.219c-.28.476-.516.982-.656 1.531H8.5c-.277 0-.5.223-.5.5v2c0 .277.223.5.5.5h1.688c.14.549.376 1.055.656 1.531L9.625 20.25a.476.476 0 0 0 0 .688l1.438 1.437a.476.476 0 0 0 .687 0l1.219-1.219c.476.28.982.516 1.531.657V23.5c0 .277.223.5.5.5h2c.277 0 .5-.223.5-.5v-1.688a5.931 5.931 0 0 0 1.531-.656l1.219 1.219a.476.476 0 0 0 .688 0l1.437-1.438a.476.476 0 0 0 0-.687l-1.219-1.219c.28-.476.516-.982.657-1.531H23.5c.277 0 .5-.223.5-.5v-2c0-.277-.223-.5-.5-.5h-1.688a5.931 5.931 0 0 0-.656-1.531l1.219-1.219a.476.476 0 0 0 0-.688l-1.438-1.437a.476.476 0 0 0-.687 0l-1.219 1.219a5.931 5.931 0 0 0-1.531-.656V8.5c0-.277-.223-.5-.5-.5h-2zm1 5a3 3 0 1 1 0 6 3 3 0 0 1 0-6z" style="marker:none" color="#000" overflow="visible" stroke-width="2"/></clipPath></defs><path style="marker:none" d="M16 1.5C8 1.5 1.5 8 1.5 16S8 30.5 16 30.5 30.5 24 30.5 16 24 1.5 16 1.5z" color="#000" fill="#737f97" overflow="visible"/><path style="marker:none;isolation:auto;mix-blend-mode:normal;solid-color:#000;solid-opacity:1;filter-blend-mode:normal;filter-gaussianBlur-deviation:0" d="M16 1.5C8 1.5 1.5 8 1.5 16S8 30.5 16 30.5 30.5 24 30.5 16 24 1.5 16 1.5z" opacity=".35" color="#000" fill="none" stroke="#1c2c38" stroke-linecap="round" stroke-linejoin="round" overflow="visible"/><path d="M15 8c-.277 0-.5.223-.5.5v1.688a5.931 5.931 0 0 0-1.531.656L11.75 9.625a.476.476 0 0 0-.688 0l-1.437 1.438a.476.476 0 0 0 0 .687l1.219 1.219c-.28.476-.516.982-.656 1.531H8.5c-.277 0-.5.223-.5.5v2c0 .277.223.5.5.5h1.688c.14.549.376 1.055.656 1.531L9.625 20.25a.476.476 0 0 0 0 .688l1.438 1.437a.476.476 0 0 0 .687 0l1.219-1.219c.476.28.982.516 1.531.657V23.5c0 .277.223.5.5.5h2c.277 0 .5-.223.5-.5v-1.688a5.931 5.931 0 0 0 1.531-.656l1.219 1.219a.476.476 0 0 0 .688 0l1.437-1.438a.476.476 0 0 0 0-.687l-1.219-1.219c.28-.476.516-.982.657-1.531H23.5c.277 0 .5-.223.5-.5v-2c0-.277-.223-.5-.5-.5h-1.688a5.931 5.931 0 0 0-.656-1.531l1.219-1.219a.476.476 0 0 0 0-.687l-1.438-1.438a.476.476 0 0 0-.687 0l-1.219 1.219a5.931 5.931 0 0 0-1.531-.656V8.5c0-.277-.223-.5-.5-.5h-2zm1 5a3 3 0 1 1 0 6 3 3 0 0 1 0-6z" style="marker:none" color="#000" overflow="visible" fill="#455365"/><path d="M15 8c-.277 0-.5.223-.5.5v1.688a5.931 5.931 0 0 0-1.531.656L11.75 9.625a.476.476 0 0 0-.688 0l-1.437 1.438a.476.476 0 0 0 0 .687l1.219 1.219c-.28.476-.516.982-.656 1.531H8.5c-.277 0-.5.223-.5.5v2c0 .277.223.5.5.5h1.688c.14.549.376 1.055.656 1.531L9.625 20.25a.476.476 0 0 0 0 .688l1.438 1.437a.476.476 0 0 0 .687 0l1.219-1.219c.476.28.982.516 1.531.657V23.5c0 .277.223.5.5.5h2c.277 0 .5-.223.5-.5v-1.688a5.931 5.931 0 0 0 1.531-.656l1.219 1.219a.476.476 0 0 0 .688 0l1.437-1.438a.476.476 0 0 0 0-.687l-1.219-1.219c.28-.476.516-.982.657-1.531H23.5c.277 0 .5-.223.5-.5v-2c0-.277-.223-.5-.5-.5h-1.688a5.931 5.931 0 0 0-.656-1.531l1.219-1.219a.476.476 0 0 0 0-.688l-1.438-1.437a.476.476 0 0 0-.687 0l-1.219 1.219a5.931 5.931 0 0 0-1.531-.656V8.5c0-.277-.223-.5-.5-.5h-2zm1 5a3 3 0 1 1 0 6 3 3 0 0 1 0-6z" style="marker:none" clip-path="url(#a)" color="#000" overflow="visible" opacity=".1" fill="none" stroke="#000"/></svg>