<svg xmlns="http://www.w3.org/2000/svg" width="32" height="32"><g transform="translate(-384.57 -515.8)"><g transform="translate(384.57 515.8)"><rect width="32" height="30" y="1" opacity=".25" rx="2" ry="2"/><rect width="30" height="28" x="1" y="2" fill="#eee" rx="1" ry="1"/><path fill="#e4e4e4" d="M2 2c-.554 0-1 .446-1 1v5h30V3c0-.554-.446-1-1-1z"/></g><rect width="18" height="16" x="391.57" y="526.8" opacity=".25" rx="2" ry="2"/><rect width="2" height="2" x="411.57" y="519.8" fill="#999" rx="1"/><rect width="30" height="1" x="385.57" y="523.8" opacity=".25" ry="0"/><rect width="16" height="12" x="392.57" y="529.8" fill="#fff" rx="1" ry="1"/><path fill="gray" fill-rule="evenodd" d="M399.57 533.8v6l3-3z"/><path fill="#e4e4e4" d="M393.57 527.8c-.554 0-1 .446-1 1v3h16v-3c0-.554-.446-1-1-1z"/><rect width="16" height="1" x="392.57" y="530.8" opacity=".25" ry="0"/></g></svg>