<svg xmlns="http://www.w3.org/2000/svg" width="32" height="32"><path fill="#81b469" stroke="#006608" stroke-linecap="round" stroke-linejoin="round" stroke-opacity=".35" d="M2 7V2h28v28H2V10l2-1z"/><path fill="#e6ea97" fill-rule="evenodd" d="m29 27-2 2h2z"/><path fill="#474c53" stroke="#27272b" stroke-linecap="round" stroke-linejoin="round" stroke-opacity=".35" d="M6 6h20v20H6z"/><path fill="#fff" d="M15.001 17.998c-.554 0-1 .446-1 1s.446 1 1 1 1-.446 1-1-.446-1-1-1zm-1.75-2.5a.748.748 0 0 0-.75.75.75.75 0 1 0 1.5 0 .748.748 0 0 0-.75-.75zm3.75-2.5-1 1 1.5 1.5-1.5 1.5 1 1 1.5-1.5 1-1-1-1zm-2.5 0a.5.5 0 1 0 0 1 .5.5 0 1 0 0-1zM7 21h4v1H7zm0 2h2v1H7zM22 7v3h1V9h1V8h-1V7zm2 1h1V7h-1zm0 1v1h1V9z"/><path d="M5 27h1v1H5zm1 1h1v1H6zm1-1h1v1H7zm1 1h1v1H8zm1-1h1v1H9zm1 1h1v1h-1zm1-1h1v1h-1zm14 0h1v1h-1zm-1 1h1v1h-1zm-1-1h1v1h-1zm-1 1h1v1h-1zm-1-1h1v1h-1zm-1 1h1v1h-1zm-1-1h1v1h-1zm-1 1h1v1h-1zm-6 0h1v1h-1zM27 4h1v1h-1zm1 1h1v1h-1zm-1 1h1v1h-1zm1 1h1v1h-1zm-1 1h1v1h-1zm1 1h1v1h-1zm-1 1h1v1h-1zm1 1h1v1h-1zm-1 1h1v1h-1zm1 1h1v1h-1zm-1 11h1v1h-1zm1-1h1v1h-1zm-1-1h1v1h-1zm1-1h1v1h-1zm-1-1h1v1h-1z" opacity=".35"/></svg>