<svg xmlns="http://www.w3.org/2000/svg" width="32" height="32"><path fill="#c0f471" stroke="#206c00" stroke-opacity=".392" d="M11.016 2.5a6.486 6.486 0 0 0-6.5 6.5v2c0 3.601 2.899 6.5 6.5 6.5h13c.29 0 .564-.026.843-.063 1.207 1.56 3.403 2.045 5.157 1.033a3.918 3.918 0 0 0 .78-.625 8.122 8.122 0 0 1-2.312-2.125A6.484 6.484 0 0 0 30.516 11V9c0-3.601-2.9-6.5-6.5-6.5z"/><path fill="#84d0ff" stroke="#002e99" stroke-opacity=".498" d="M21.016 13.5a6.486 6.486 0 0 1 6.5 6.5v2c0 3.601-2.9 6.5-6.5 6.5h-13a6.35 6.35 0 0 1-.844-.063c-1.205 1.559-3.402 2.044-5.156 1.032-.3-.173-.545-.394-.781-.625a8.122 8.122 0 0 0 2.312-2.125A6.484 6.484 0 0 1 1.516 22v-2c0-3.601 2.899-6.5 6.5-6.5z" opacity=".75"/><path d="m10.663 19.905-.769 1.65-1.778.273 1.286 1.333L9.106 25l1.555-.866 1.555.866-.296-1.839 1.288-1.333-1.779-.274Zm2.545 1.923 1.29 1.333L14.2 25l1.555-.866 1.555.866-.296-1.839 1.289-1.333-1.78-.274-.768-1.65-.769 1.65Zm5.096 0 1.288 1.333L19.296 25l1.555-.866 1.555.866-.296-1.839 1.286-1.333-1.778-.274-.77-1.65-.765 1.65Z" style="fill:#fff;fill-rule:evenodd;stroke-width:1.27383;stroke-linecap:round;stroke-linejoin:round;paint-order:stroke fill markers"/></svg>