<svg xmlns="http://www.w3.org/2000/svg" width="32" height="32"><circle cx="16" cy="16" r="15" opacity=".2"/><circle cx="16" cy="16" r="14" fill="#fcfcfc"/><g fill-rule="evenodd" stroke-width=".545"><path fill="#139dcb" d="m16 16-8.495 8.49a11.955 11.955 0 0 0 5.388 3.091z"/><path fill="#3ed4f0" d="m16 16-3.107 11.581c.992.264 2.03.419 3.107.419s2.115-.155 3.107-.419z"/><path fill="#32d439" d="m16 16 3.107 11.581a11.953 11.953 0 0 0 5.388-3.09z"/><path fill="#cee834" d="m16 16 8.495 8.49a11.94 11.94 0 0 0 3.09-5.382z"/><path fill="#ffe600" d="M27.584 12.892 16 16l11.584 3.108c.264-.992.416-2.03.416-3.108s-.152-2.116-.416-3.108z"/><path fill="#f7ac1b" d="M24.495 7.51 16 16l11.584-3.108a11.94 11.94 0 0 0-3.09-5.383z"/><path fill="#fa7c1a" d="M19.107 4.419 16 15.999l8.494-8.49a11.955 11.955 0 0 0-5.387-3.09z"/><path fill="#ee332c" d="M16 4c-1.077 0-2.115.155-3.107.419L16 15.999l3.107-11.58A12.064 12.064 0 0 0 16 4z"/><path fill="#421ca8" d="M16 16 4.416 19.108a11.94 11.94 0 0 0 3.09 5.383z"/><path fill="#e861e2" d="M4.415 12.892C4.151 13.884 4 14.922 4 16s.151 2.116.415 3.108L16 16z"/><path fill="#ff5474" d="M12.893 4.419a11.953 11.953 0 0 0-5.387 3.09L16 16z"/><path fill="#e92f61" d="M7.505 7.51a11.94 11.94 0 0 0-3.09 5.382L16 16z"/></g><circle cx="16" cy="16" r="11.667" fill="none" stroke="#4f6698" stroke-opacity=".267" stroke-width=".667"/><circle cx="16" cy="16" r="12" fill="#fff" opacity=".25"/></svg>