<svg xmlns="http://www.w3.org/2000/svg" width="32" height="32"><rect width="32" height="30" y="1" opacity=".25" rx="2" ry="2"/><rect width="30" height="28" x="1" y="2" fill="#eee" rx="1" ry="1"/><path fill="#e4e4e4" d="M2 2c-.554 0-1 .446-1 1v5h30V3c0-.554-.446-1-1-1z"/><rect width="2" height="2" x="27" y="4" fill="#999" rx="1"/><rect width="30" height="1" x="1" y="8" opacity=".25" ry="0"/><g stroke-width=".58"><path fill="#f84d5e" d="M6.001 14.001h1.765l2.059 5.714 2.059-5.714h1.764l-2.94 8H8.941z"/><path fill="#3f4144" d="m12.472 22.001 2.941-8h1.765l-2.941 8zm5.882 0 2.942-8h1.764l-2.94 8z"/><path fill="#8a9596" d="m10.707 22.001 2.941-8h1.765l-2.941 8zm5.882 0 2.942-8h1.764l-2.94 8z"/><path fill="#bcc1c5" d="M18.354 22.001h-1.765l-2.94-8h1.764zm5.882 0h-1.764l-2.942-8h1.765z"/><path fill="#585858" d="m15.413 14.001 2.941 8h1.765l-2.941-8zm5.882 0 2.942 8H26l-2.94-8z"/></g></svg>