<?xml version="1.0" encoding="UTF-8" standalone="no"?>
<svg
   xmlns:dc="http://purl.org/dc/elements/1.1/"
   xmlns:cc="http://creativecommons.org/ns#"
   xmlns:rdf="http://www.w3.org/1999/02/22-rdf-syntax-ns#"
   xmlns:svg="http://www.w3.org/2000/svg"
   xmlns="http://www.w3.org/2000/svg"
   xmlns:sodipodi="http://sodipodi.sourceforge.net/DTD/sodipodi-0.dtd"
   xmlns:inkscape="http://www.inkscape.org/namespaces/inkscape"
   viewBox="0 0 32 32"
   id="svg4354"
   height="32"
   width="32"
   version="1.1"
   sodipodi:docname="preferences-desktop-wallpaper.svg"
   inkscape:version="0.92.4 (5da689c313, 2019-01-14)">
  <sodipodi:namedview
     pagecolor="#ffffff"
     bordercolor="#666666"
     borderopacity="1"
     objecttolerance="10"
     gridtolerance="10"
     guidetolerance="10"
     inkscape:pageopacity="0"
     inkscape:pageshadow="2"
     inkscape:window-width="1366"
     inkscape:window-height="697"
     id="namedview56"
     showgrid="false"
     inkscape:zoom="10.429825"
     inkscape:cx="2.9845254"
     inkscape:cy="7.7781843"
     inkscape:window-x="0"
     inkscape:window-y="0"
     inkscape:window-maximized="1"
     inkscape:current-layer="svg4354" />
  <defs
     id="defs4356" />
  <metadata
     id="metadata4359">
    <rdf:RDF>
      <cc:Work
         rdf:about="">
        <dc:format>image/svg+xml</dc:format>
        <dc:type
           rdf:resource="http://purl.org/dc/dcmitype/StillImage" />
        <dc:title />
      </cc:Work>
    </rdf:RDF>
  </metadata>
  <rect
     width="29"
     height="26"
     rx="2"
     ry="2.0799999"
     x="1.5"
     y="3.5"
     id="rect5505"
     style="color:#000000;display:inline;overflow:visible;visibility:visible;fill:#5db3fb;fill-opacity:1;fill-rule:nonzero;stroke:none;stroke-width:1;stroke-linecap:round;stroke-linejoin:round;stroke-miterlimit:4;stroke-dasharray:none;stroke-dashoffset:0;stroke-opacity:1;marker:none;enable-background:accumulate" />
  <path
     d="m 5.5,25.5 c -0.554,0 -1,0.446 -1,1 v 2 h 23 v -2 c 0,-0.554 -0.446,-1 -1,-1 z"
     id="path4306"
     style="opacity:0.7;fill:#ffffff;fill-opacity:1;stroke:#ffffff;stroke-width:0.99999994px;stroke-linecap:butt;stroke-linejoin:miter;stroke-opacity:1" />
  <path
     d="M 8.206706,23.492713 H 5.7932951 c -0.1665219,0 -0.3005814,0.13406 -0.3005814,0.300581 v 2.413411 c 0,0.166522 0.1340595,0.300581 0.3005814,0.300581 H 8.206706 c 0.1665209,0 0.3005805,-0.134059 0.3005805,-0.300581 v -2.413411 c 0,-0.166521 -0.1340596,-0.300581 -0.3005805,-0.300581 z"
     id="path3176"
     style="color:#000000;display:inline;overflow:visible;visibility:visible;fill:#eff5fd;fill-opacity:1;fill-rule:nonzero;stroke:#eff5fd;stroke-width:0.98542714;stroke-linecap:butt;stroke-linejoin:miter;stroke-miterlimit:4;stroke-dashoffset:0;stroke-opacity:1;marker:none;enable-background:accumulate" />
  <path
     d="m 14.206706,23.492713 h -2.413411 c -0.166522,0 -0.300581,0.13406 -0.300581,0.300581 v 2.413411 c 0,0.166522 0.134059,0.300581 0.300581,0.300581 h 2.413411 c 0.166521,0 0.300581,-0.134059 0.300581,-0.300581 v -2.413411 c 0,-0.166521 -0.13406,-0.300581 -0.300581,-0.300581 z"
     id="path3176-9"
     style="color:#000000;display:inline;overflow:visible;visibility:visible;fill:#eff5fd;fill-opacity:1;fill-rule:nonzero;stroke:#eff5fd;stroke-width:0.98542714;stroke-linecap:butt;stroke-linejoin:miter;stroke-miterlimit:4;stroke-dashoffset:0;stroke-opacity:1;marker:none;enable-background:accumulate" />
  <path
     d="m 20.206706,23.492713 h -2.413411 c -0.166522,0 -0.300581,0.13406 -0.300581,0.300581 v 2.413411 c 0,0.166522 0.134059,0.300581 0.300581,0.300581 h 2.413411 c 0.166521,0 0.300581,-0.134059 0.300581,-0.300581 v -2.413411 c 0,-0.166521 -0.13406,-0.300581 -0.300581,-0.300581 z"
     id="path3176-4"
     style="color:#000000;display:inline;overflow:visible;visibility:visible;fill:#eff5fd;fill-opacity:1;fill-rule:nonzero;stroke:#eff5fd;stroke-width:0.98542714;stroke-linecap:butt;stroke-linejoin:miter;stroke-miterlimit:4;stroke-dashoffset:0;stroke-opacity:1;marker:none;enable-background:accumulate" />
  <path
     d="m 26.206706,23.492713 h -2.413411 c -0.166522,0 -0.300581,0.13406 -0.300581,0.300581 v 2.413411 c 0,0.166522 0.134059,0.300581 0.300581,0.300581 h 2.413411 c 0.166521,0 0.300581,-0.134059 0.300581,-0.300581 v -2.413411 c 0,-0.166521 -0.13406,-0.300581 -0.300581,-0.300581 z"
     id="path3176-5"
     style="color:#000000;display:inline;overflow:visible;visibility:visible;fill:#eff5fd;fill-opacity:1;fill-rule:nonzero;stroke:#eff5fd;stroke-width:0.98542714;stroke-linecap:butt;stroke-linejoin:miter;stroke-miterlimit:4;stroke-dashoffset:0;stroke-opacity:1;marker:none;enable-background:accumulate" />
  <rect
     width="29"
     height="26"
     rx="2"
     ry="2.0799999"
     x="1.5"
     y="3.5"
     id="rect5505-1"
     style="color:#000000;clip-rule:nonzero;display:inline;overflow:visible;visibility:visible;opacity:0.35;isolation:auto;mix-blend-mode:normal;color-interpolation:sRGB;color-interpolation-filters:linearRGB;solid-color:#000000;solid-opacity:1;fill:#000000;fill-opacity:0;fill-rule:nonzero;stroke:#002e99;stroke-width:1;stroke-linecap:round;stroke-linejoin:round;stroke-miterlimit:4;stroke-dasharray:none;stroke-dashoffset:0;stroke-opacity:1;marker:none;color-rendering:auto;image-rendering:auto;shape-rendering:auto;text-rendering:auto;enable-background:accumulate" />
</svg>
