<svg xmlns="http://www.w3.org/2000/svg" width="32" height="32"><defs><linearGradient id="a" x1="10.654" x2="10.654" y1="1" y2="3" gradientTransform="matrix(.6 0 0 .75 .6 .125)" gradientUnits="userSpaceOnUse"><stop offset="0" stop-color="#eee"/><stop offset="1" stop-color="#d9d9da"/></linearGradient><linearGradient id="b" x1="24" x2="24" y1="44" y2="3.899" gradientTransform="matrix(.6 0 0 .07692 1.8 .154)" gradientUnits="userSpaceOnUse"><stop offset="0" stop-color="#272727"/><stop offset="1" stop-color="#454545"/></linearGradient></defs><path fill="#eee" stroke="#9b876c" stroke-linejoin="round" stroke-miterlimit="0" stroke-width="1.017" d="M27.491 2.304c-.203-.655-.076-1.17-.188-1.795H6.509L6.63 2.49"/><g stroke-linecap="round" stroke-linejoin="round"><path fill="url(#a)" stroke="url(#b)" d="M7.5 3.5H5.1c-.342 0-.6-.032-.6-.073V1.33c0-.666.336-.83.775-.83H7.5" color="#000" overflow="visible"/><rect width="21.981" height="26.981" x="5.51" y="2.51" fill="#fecf7e" stroke="#a79071" stroke-miterlimit="0" stroke-width="1.019" rx=".5" ry=".5"/><path fill="#5f5f5f" stroke="#272727" d="M7.5 2.5v27H5.1c-.343 0-.6-.286-.6-.659V2.5z" color="#000" overflow="visible"/></g><path fill="#4d4d4d" d="M22 15a2 2 0 0 0-2 2v2h-1v4h6v-4h-1v-2a2 2 0 0 0-2-2zm0 1a1 1 0 0 1 1 1v2h-2v-2a1 1 0 0 1 1-1zm-5 0c-3.878 0-7 3.122-7 7h8v-1h-6.91A5.98 5.98 0 0 1 17 17c.343 0 .676.037 1 .098v-1.012A6.654 6.654 0 0 0 17 16zm0-7c-1.662 0-3 1.338-3 3s1.338 3 3 3 3-1.338 3-3-1.338-3-3-3zm0 1c1.108 0 2 .892 2 2s-.892 2-2 2-2-.892-2-2 .892-2 2-2z"/></svg>