<svg xmlns="http://www.w3.org/2000/svg" height="32" width="32"><defs><linearGradient id="b"><stop offset="0" stop-color="#fff"/><stop offset=".508" stop-color="#fff" stop-opacity=".235"/><stop offset=".835" stop-color="#fff" stop-opacity=".157"/><stop offset="1" stop-color="#fff" stop-opacity=".392"/></linearGradient><linearGradient id="a"><stop offset="0"/><stop offset="1" stop-opacity="0"/></linearGradient><linearGradient id="c"><stop offset="0" stop-color="#90dbec"/><stop offset=".262" stop-color="#55c1ec"/><stop offset=".705" stop-color="#3689e6"/><stop offset="1" stop-color="#2b63a0"/></linearGradient><linearGradient id="d"><stop offset="0" stop-color="#cdf87e"/><stop offset=".262" stop-color="#a2e34f"/><stop offset=".661" stop-color="#68b723"/><stop offset="1" stop-color="#1d7e0d"/></linearGradient><linearGradient id="e"><stop offset="0" stop-color="#f8b17e"/><stop offset=".262" stop-color="#e35d4f"/><stop offset=".661" stop-color="#c6262e"/><stop offset="1" stop-color="#690b54"/></linearGradient></defs><path d="M15.973 13.27a.5.5 0 0 0-.301.11 8.484 8.484 0 0 0-3.014 4.995.5.5 0 0 0 .313.563c.939.358 1.958.564 3.027.564 1.07 0 2.088-.206 3.027-.564a.5.5 0 0 0 .313-.563 8.48 8.48 0 0 0-.977-2.625 8.45 8.45 0 0 0-2.062-2.371.5.5 0 0 0-.326-.11z" style="line-height:normal;text-indent:0;text-align:start;text-decoration-line:none;text-decoration-style:solid;text-decoration-color:#000;text-transform:none;block-progression:tb;white-space:normal;isolation:auto;mix-blend-mode:normal;solid-color:#000;solid-opacity:1;marker:none" color="#000" font-weight="400" font-family="sans-serif" overflow="visible" fill="#fff"/><path d="M15.998 2.502c-4.69 0-8.5 3.81-8.5 8.5 0 .414.04.817.098 1.215a8.45 8.45 0 0 1 3.402-.715c1.87 0 3.598.606 5 1.633A8.435 8.435 0 0 1 21 11.5c1.21 0 2.36.258 3.402.715-.019.133-.049.263-.074.394.1-.522.17-1.055.17-1.607 0-4.69-3.81-8.5-8.5-8.5zm8.19 10.715c-.041.15-.08.3-.127.447.048-.147.086-.297.126-.447zm-.444 1.258a8.41 8.41 0 0 0 0 0zm-.57 1.054c-.058.091-.113.183-.174.272.061-.089.116-.18.174-.272zm-.74 1.002c-.064.075-.128.149-.194.221.067-.072.13-.146.194-.22zm-.922.926c-.053.046-.11.087-.164.13.054-.043.11-.084.164-.13zm-.934.691c-.046.03-.091.063-.139.092.048-.029.092-.062.14-.092zm-1.096.596c-.027.013-.056.025-.084.037l.002.006c.029-.012.054-.03.082-.043z" style="marker:none;isolation:auto;mix-blend-mode:normal;solid-color:#000;solid-opacity:1;filter-blend-mode:normal;filter-gaussianBlur-deviation:0" color="#000" overflow="visible" fill="#b9ee69"/><path d="M11.393 11.52c.076.003.152.006.228.011-.076-.005-.152-.008-.228-.011zm-.832.005c-.121.006-.241.009-.362.02.12-.011.241-.013.362-.02zm2.158.159l.052.011-.052-.011zm-3.512.013c-.128.028-.254.068-.38.102.126-.034.25-.074.38-.102zm-1.068.313zm-.541.22c-.286.126-.572.25-.848.409-4.062 2.345-5.456 7.55-3.111 11.611 2.345 4.062 7.55 5.456 11.611 3.111a8.505 8.505 0 0 0 1.004-.691 8.453 8.453 0 0 1-2.32-2.59 8.431 8.431 0 0 1-1.08-5.185 8.517 8.517 0 0 1-5.256-6.664zm7.316.239c.071.037.141.076.211.115-.07-.039-.14-.078-.21-.115zm1.022.625l.1.072.005-.006c-.034-.025-.071-.042-.105-.066z" style="marker:none;isolation:auto;mix-blend-mode:normal;solid-color:#000;solid-opacity:1;filter-blend-mode:normal;filter-gaussianBlur-deviation:0" color="#000" overflow="visible" fill="#43a1e9"/><path d="M10.998 11.502a8.45 8.45 0 0 0-3.402.715 8.514 8.514 0 0 0 5.002 6.566 8.489 8.489 0 0 1 3.404-5.644 8.434 8.434 0 0 0-5.004-1.637z" style="marker:none" color="#000" overflow="visible" fill="#00f993"/><path d="M19.143 18.874a8.451 8.451 0 0 1-6.555.107 8.432 8.432 0 0 0 1.08 5.187 8.453 8.453 0 0 0 2.32 2.59 8.52 8.52 0 0 0 3.155-7.884z" style="marker:none" color="#000" overflow="visible" fill="#f53ece"/><path style="marker:none;isolation:auto;mix-blend-mode:normal;solid-color:#000;solid-opacity:1;filter-blend-mode:normal;filter-gaussianBlur-deviation:0" d="M24.402 12.215a8.517 8.517 0 0 1-5.256 6.676 8.432 8.432 0 0 1-1.08 5.19 8.453 8.453 0 0 1-2.32 2.589A8.452 8.452 0 0 0 21 28.5c4.69 0 8.5-3.81 8.5-8.5 0-3.48-2.1-6.47-5.098-7.785zm-9.2 13.984z" color="#000" overflow="visible" fill="#e35d4f"/><path d="M21 11.5c-2.664-.055-4.959 1.66-4.959 1.66s1.715 1.542 2.32 2.59a8.43 8.43 0 0 1 1.045 3.027 8.514 8.514 0 0 0 4.996-6.562A8.45 8.45 0 0 0 21 11.5z" style="marker:none" color="#000" overflow="visible" fill="#e9d300"/><path d="M15.997 19.503c-4.69 0-8.5-3.81-8.5-8.5 0-4.69 3.81-8.5 8.5-8.5 4.69 0 8.5 3.81 8.5 8.5 0 4.69-3.81 8.5-8.5 8.5z" style="marker:none" color="#000" overflow="visible" opacity=".2" fill="none" stroke="#000" stroke-linecap="round" stroke-linejoin="round"/><path style="marker:none" d="M18.361 15.75c2.345 4.062.95 9.266-3.111 11.611-4.062 2.345-9.266.95-11.611-3.111-2.345-4.062-.95-9.266 3.111-11.611 4.062-2.345 9.266-.95 11.611 3.111z" color="#000" overflow="visible" opacity=".2" fill="none" stroke="#000" stroke-linecap="round" stroke-linejoin="round"/><path d="M21 11.5c-4.69 0-8.5 3.81-8.5 8.5 0 4.69 3.81 8.5 8.5 8.5 4.69 0 8.5-3.81 8.5-8.5 0-4.69-3.81-8.5-8.5-8.5z" style="marker:none" color="#000" overflow="visible" opacity=".2" fill="none" stroke="#000" stroke-linecap="round" stroke-linejoin="round"/></svg>