<svg xmlns="http://www.w3.org/2000/svg" width="32" height="32"><rect width="32" height="30" y="-31" opacity=".25" rx="2" ry="2" transform="scale(1 -1)"/><path fill="#e4e4e4" d="M2 30c-.554 0-1-.446-1-1v-3h30v3c0 .554-.446 1-1 1z"/><path fill="#666" d="M16 30v-5h15v4c0 .554-.446 1-1 1z"/><g fill-rule="evenodd" stroke-width="1.083"><path fill="#139dcb" d="m15.999 17.971-5.895 7.025h4.315l1.58-7.025z"/><path fill="#3ed4f0" d="m15.999 17.971-1.58 7.025h3.16z"/><path fill="#32d439" d="m15.999 17.971 1.58 7.025h4.315l-5.895-7.025z"/><path fill="#cee834" d="m15.999 17.971 5.895 7.025h9.105v-2.224z"/><path fill="#ffe600" d="m30.998 13.172-15 4.799 15 4.801z"/><path fill="#f7ac1b" d="M29.4 1.998 15.999 17.972l15-4.8V1.999H29.4z"/><path fill="#fa7c1a" d="m19.593 1.998-3.595 15.974 13.4-15.974h-9.805z"/><path fill="#ee332c" d="m12.404 1.998 3.595 15.974 3.595-15.974h-7.19z"/><path fill="#421ca8" d="m15.999 17.971-15 4.801v2.224h9.105z"/><path fill="#e861e2" d="M.999 13.172v9.6l15-4.801z"/><path fill="#ff5474" d="m2.598 1.998 13.4 15.974-3.595-15.974H2.598z"/><path fill="#e92f61" d="M.999 1.998v11.175l15 4.799L2.598 1.998H.999z"/></g><path fill="#fff" d="M.999 2h29.999v22.999H.999z" opacity=".35"/><rect width="2" height="2" x="27" y="-29" fill="#f9f9f9" rx="1" transform="scale(1 -1)"/><rect width="30" height="1" x="1" y="-26" opacity=".25" ry="0" transform="scale(1 -1)"/><path fill="#999" d="M3 27v1h1v-1zm1 1v1h1v-1z"/><path fill="#fff" d="M22.574 7.006a1.75 7.875 44.998 0 0-6.514 4.461 1.75 7.875 44.998 0 0-3.1 3.6 3.037 3.037 0 0 1 1.975 1.975 1.75 7.875 44.998 0 0 3.6-3.1 1.75 7.875 44.998 0 0 4.33-6.806 1.75 7.875 44.998 0 0-.29-.13M12.5 16.331C9 17.269 11.625 19.484 9 21c3.503 0 5.25-1.751 5.25-2.92 0-.581.06-1.653-1.75-1.75z"/></svg>