<svg xmlns="http://www.w3.org/2000/svg" xmlns:xlink="http://www.w3.org/1999/xlink" viewBox="0 0 32 32"><path fill="#5eb4fc" fill-opacity=".992" d="M16 1.5C8 1.5 1.5 8 1.5 16S8 30.5 16 30.5 30.5 24 30.5 16 24 1.5 16 1.5z" color="#000" opacity=".99" overflow="visible"/><path fill="none" stroke="#002e99" stroke-linecap="round" stroke-linejoin="round" d="M16 1.502C8 1.502 1.502 8 1.502 16S8 30.498 16 30.498 30.498 24 30.498 16 24 1.502 16 1.502z" color="#000" opacity=".35" overflow="visible" style="isolation:auto;mix-blend-mode:normal"/><g fill="#fff" transform="translate(-384.57 -515.8)"><path d="M399.94 534.47c-.633-.278-1.817-.259-2.367-.025-1.8.767-4.038.21-4.01-1.52.024-1.564.548-2.154 2.292-3.221 1.347-1.09 1.825-1.495 2.697-1.453 1.223.06 1.68.56 2.598 1.453 1.535.986 2.547 1.435 2.472 3.022-.037 1.894-2.367 2.17-3.682 1.744z" opacity=".69"/><path id="a" stroke-width=".621" d="M398.46 527.74c-.506-.029-.936-.438-.964-1.064-.025-.576.053-1.167.635-1.688.112-1.254.181-1.198.547-2.372.225 1.205.264 1.431.277 2.382.504.362.624.82.556 1.522-.058.6-.424 1.218-1.051 1.22z" opacity=".69"/><g stroke-width="1.033"><use xlink:href="#a" width="100%" height="100%" transform="translate(-4.712 2.53)"/><use xlink:href="#a" width="100%" height="100%" transform="translate(-2.404 .666)"/><use xlink:href="#a" width="100%" height="100%" transform="matrix(-1 0 0 1 799.53 .965)"/><use xlink:href="#a" width="100%" height="100%" transform="matrix(-1 0 0 1 801.79 2.586)"/></g><path d="M398.49 519.35c-5.476 0-9.915 4.44-9.915 9.915 0 5.476 4.439 9.915 9.915 9.915a9.918 9.918 0 0 0 5.929-1.983l4.483 4.6 2.002-2.002-4.483-4.6a9.915 9.915 0 0 0 1.984-5.93c0-5.476-4.44-9.915-9.915-9.915m0 2.833a7.082 7.082 0 0 1 7.082 7.082 7.067 7.067 0 0 1-7.083 7.083 7.082 7.082 0 0 1-7.083-7.082c0-4.409 3.107-7.082 7.083-7.082"/></g></svg>