<svg xmlns="http://www.w3.org/2000/svg" xmlns:xlink="http://www.w3.org/1999/xlink" width="32" height="32"><defs><linearGradient xlink:href="#a" id="b" x1="30.5" x2="49.5" y1="30" y2="30" gradientTransform="translate(-.158 4.631) scale(.57895)" gradientUnits="userSpaceOnUse"/><linearGradient id="a"><stop offset="0" stop-color="#fafafa"/><stop offset="1" stop-color="#e1e1e1"/></linearGradient><clipPath id="c"><rect width="11" height="11" x="17.5" y="1037.862" fill="url(#linearGradient5553)" color="#000" overflow="visible" rx="25" ry="25" style="marker:none"/></clipPath></defs><rect width="26" height="26" x="3" y="-29" fill="#f2f2f2" color="#000" overflow="visible" rx="1.615" ry="1.615" style="marker:none" transform="scale(1 -1)"/><rect width="27" height="27" x="2.5" y="2.5" fill="none" stroke="#555761" stroke-linecap="round" stroke-linejoin="round" color="#000" opacity=".35" overflow="visible" rx="2.16" ry="2.16" style="marker:none"/><path fill="#666" d="m14.684 21.656-.829-2.718H9.691l-.828 2.718h-2.61l4.032-11.468h2.961l4.047 11.468h-2.61m-1.406-4.75a2254.76 2254.76 0 0 1-1.297-4.18 13.13 13.13 0 0 1-.203-.765c-.172.667-.664 2.315-1.476 4.945h2.976m10.805 4.75-.46-1.187h-.063c-.401.505-.816.856-1.243 1.054-.421.193-.974.29-1.656.29-.838 0-1.5-.24-1.984-.72-.48-.478-.719-1.16-.719-2.046 0-.927.323-1.61.969-2.047.65-.443 1.63-.688 2.937-.734l1.516-.047v-.383c0-.886-.453-1.328-1.36-1.328-.697 0-1.518.21-2.46.632l-.79-1.609c1.006-.526 2.12-.789 3.344-.789 1.172 0 2.07.255 2.696.766.625.51.937 1.286.937 2.328v5.82h-1.664m-.703-4.047-.922.031c-.693.021-1.208.146-1.547.375-.338.23-.508.578-.508 1.047 0 .672.386 1.008 1.157 1.008.552 0 .992-.159 1.32-.477.333-.317.5-.74.5-1.265v-.719" font-family="Open Sans" font-size="16" font-weight="700" letter-spacing="0" style="line-height:125%;-inkscape-font-specification:&quot;Open Sans Bold&quot;;text-align:center" text-anchor="middle" word-spacing="0"/><path fill="#747e93" d="M30.5 22.003a7.5 7.5 0 0 1-15 0 7.5 7.5 0 1 1 15 0z" color="#000" overflow="visible" style="marker:none"/><path fill="none" stroke="#000" d="M30.5 22.004a7.5 7.5 0 0 1-15 0 7.5 7.5 0 1 1 15 0z" opacity=".3"/><rect width="11" height="11" x="17.5" y="16.5" fill="url(#b)" color="#000" overflow="visible" rx="25" ry="25" style="marker:none"/><g clip-path="url(#c)" font-family="Open Sans" font-size="18" font-weight="700" letter-spacing="0" opacity=".6" style="line-height:125%;-inkscape-font-specification:&quot;Open Sans Bold&quot;;text-align:center" text-anchor="middle" transform="translate(0 -1021.362)" word-spacing="0"><path fill="gray" d="m25.092 1043.726-.518-1.337h-.07c-.452.569-.918.964-1.398 1.187-.475.217-1.096.325-1.863.325-.944 0-1.688-.27-2.233-.808-.539-.54-.808-1.307-.808-2.303 0-1.043.363-1.81 1.09-2.303.732-.498 1.833-.773 3.304-.826l1.705-.053v-.43c0-.997-.51-1.495-1.529-1.495-.785 0-1.708.238-2.769.712l-.887-1.81c1.13-.592 2.384-.888 3.761-.888 1.319 0 2.33.287 3.033.861.703.574 1.054 1.447 1.054 2.62v6.547h-1.872m-.79-4.553-1.038.035c-.78.023-1.36.165-1.74.422-.38.258-.571.65-.571 1.178 0 .756.433 1.134 1.3 1.134.622 0 1.117-.179 1.486-.536.375-.358.562-.832.562-1.424v-.809"/></g><rect width="11" height="11" x="17.5" y="16.5" color="#000" opacity=".15" overflow="visible" rx="25" ry="25" style="marker:none"/><path fill="none" stroke="#000" d="M28.5 22.003a5.5 5.5 0 0 1-11 0 5.5 5.5 0 1 1 11 0z" opacity=".3"/><rect width="4" height="6" x="18" y="-26" fill="#fff" color="#000" opacity=".15" overflow="visible" rx="25" ry="25" style="marker:none" transform="rotate(90)"/></svg>