<svg xmlns="http://www.w3.org/2000/svg" width="32" height="32"><defs><linearGradient id="a"><stop style="stop-color:#197cf1"/><stop offset="1" style="stop-color:#20bcfa"/></linearGradient><linearGradient id="b"><stop style="stop-color:#7cbaf8"/><stop offset="1" style="stop-color:#f4fcff"/></linearGradient><linearGradient id="c"><stop style="stop-color:#383e51"/><stop offset="1" style="stop-color:#655c6f;stop-opacity:0"/></linearGradient><linearGradient id="d"><stop offset="0" stop-color="#292c2f"/><stop offset="1" stop-opacity="0"/></linearGradient></defs><path fill="#e6e6e6" stroke="#b8b8b8" d="M13.05 12.495c.312 1.542.585 2.708.332 4.25-1.972 1.71-7.214 2.48-7.207 4.25l-.677 5.313c0 1.76 4.701 3.187 10.5 3.187s10.5-1.427 10.5-3.187l-.677-5.313c-.009-1.516-5.281-2.48-7.229-4.25-.166-1.43.066-2.819.354-4.25z"/><path fill="#f2f2f2" stroke="#cacaca" d="M16 2.495c-2.485 0-4.5 2-4.5 4.466.02.913.093 1.998.6 4.467.3.957 2.976 3.71 3 4.028.582.32 1.5.32 2.1 0 0-.319 2.4-3.07 2.7-4.028.57-2.566.57-3.51.6-4.467 0-2.466-2.015-4.466-4.5-4.466z"/><circle cx="23.5" cy="25.5" r="6.5" fill="#2f94e4" fill-opacity=".984"/><circle cx="23.5" cy="25.5" r="5.5" fill="#5db5fc" fill-opacity=".984"/><path d="M22.656 20.07a5.5 5.5 0 0 0-1.093.297c.116.138.212.24.25.24.033 0 .453-.276.843-.537zm2.336.137c-.093.165-.062.605.055.605h.465l.174-.205s.015-.057.039-.136a5.5 5.5 0 0 0-.733-.264zm1.211.506a1.223 1.223 0 0 1-.383.283h-.502s-.541.318-.638.387c-.097.068-.467-.387-.467-.387s.117.592.117.889c0 .296-.484.388-.484.388s.076.64.095.96c-.232.228-.23.638-.23.638l-.35.205-.154 1.256s-.232.388 0 .525.62.8.62.8.407.09.581 0c.174-.092.252-.617.485-.137.232.479.25.068.25.068s.31.204.097.752c.136.16.233.366.233.846v.98s.307.72.447 1.264a5.5 5.5 0 0 0 1.39-.983c-.06-.399.488-.557.526-.76.039-.205-.04-.82-.252-1.003-.213-.183 1.316-1.485 1.064-1.85-.251-.365-.503.25-.697.137-.194-.114-.135-.342-.135-.342s.804-.065 1.178-.367a5.5 5.5 0 0 0-2.79-4.55zm-5.705.182a5.5 5.5 0 0 0-2.086 2.546l.598-.627 1.29-1.18s.37.661.524.387c-.105-.209-.252-.455-.097-.707a2.773 2.773 0 0 1-.229-.42zm-2.164 2.755a5.5 5.5 0 0 0-.17.569l.027.177zm.219 2.178c-.185.005-.372.05-.522.092a5.5 5.5 0 0 0 .024.348c.035.05.047.12.043.203a5.5 5.5 0 0 0 0 .002 5.5 5.5 0 0 0 2.582 3.738l.222-.564s.484-.11.446-.147c-.039-.037.115-.973.154-1.041.039-.068.292-.411.176-.594-.116-.182-.409-.479-.873-.638-.213-.177-.387-.73-.639-.8-.252-.068-.62-.55-.62-.55s-.328.16-.677 0a.726.726 0 0 0-.316-.049z" style="opacity:.5;fill:#007fe5;fill-opacity:.98431373"/><circle cx="23.5" cy="22.5" r=".5" fill="#fff" fill-opacity=".984"/><rect width="1" height="5" x="23" y="24" fill="#fff" fill-opacity=".984" rx=".5" ry=".5"/></svg>