<svg xmlns="http://www.w3.org/2000/svg" width="32" height="32"><path fill="#5eb4fc" fill-opacity=".992" d="M16 1.5C8 1.5 1.5 8 1.5 16S8 30.5 16 30.5 30.5 24 30.5 16 24 1.5 16 1.5z" color="#000" opacity=".99" overflow="visible" style="marker:none"/><path fill="none" stroke="#002e99" stroke-linecap="round" stroke-linejoin="round" d="M16 1.502C8 1.502 1.502 8 1.502 16 1.502 24 8 30.498 16 30.498 24 30.498 30.498 24 30.498 16 30.498 8 24 1.502 16 1.502z" color="#000" opacity=".35" overflow="visible" style="marker:none;font-variant-east_asian:normal;isolation:auto;mix-blend-mode:normal;solid-color:#000;solid-opacity:1;filter-blend-mode:normal;filter-gaussianBlur-deviation:0"/><path fill="#fff" d="M18.3 9.176a2.187 2.187 0 0 1-2.196 2.175 2.187 2.187 0 0 1-2.196-2.175c0-1.201.984-2.176 2.196-2.176 1.212 0 2.196.975 2.196 2.176zm5.48 2.313a.651.651 0 0 0-.28.116L16 12.764l-7.46-1.175a.688.688 0 0 0-.68-.077.67.67 0 0 0-.36.578c-.003.233.147.433.36.54l5.846 1.838-.04 4.218-2.063 6.318a.587.587 0 0 0 .16.849c.298.191.72.133.92-.155l3.328-6.819 3.266 6.807c.177.299.57.402.88.232a.61.61 0 0 0 .24-.849l-2.025-6.345-.08-3.97 5.928-2.146a.621.621 0 0 0 .24-.733c-.104-.264-.389-.418-.68-.386z"/></svg>