<svg xmlns="http://www.w3.org/2000/svg" width="32" height="32"><rect width="28" height="28" x="2" y="2" fill="#1f212a" rx="2" ry="2" style="paint-order:stroke markers fill"/><rect width="26" height="26" x="3" y="3" fill="#3e4245" rx="1" ry="1" style="paint-order:stroke markers fill"/><path fill="#fff" d="M6 7h12v1H6z"/><rect width="26" height="1" x="3" y="11" fill="#00000f" fill-rule="evenodd" opacity=".5" rx="0" ry="0" style="paint-order:fill markers stroke"/><rect width="26" height="1" x="3" y="20" fill="#00000f" fill-rule="evenodd" opacity=".5" rx="0" ry="0" style="paint-order:fill markers stroke"/><g fill="#72d406"><circle cx="21.5" cy="7.5" r=".5" stroke="#508e0b" stroke-linecap="round" stroke-linejoin="round" opacity=".5"/><circle cx="21.5" cy="7.5" r=".5"/><circle cx="25.5" cy="7.5" r=".5" stroke="#508e0b" stroke-linecap="round" stroke-linejoin="round" opacity=".5"/><circle cx="25.5" cy="7.5" r=".5"/></g><path fill="#fff" d="M6 16h12v1H6z"/><g fill="#72d406"><circle cx="21.5" cy="16.5" r=".5" stroke="#508e0b" stroke-linecap="round" stroke-linejoin="round" opacity=".5"/><circle cx="21.5" cy="16.5" r=".5"/><circle cx="25.5" cy="16.5" r=".5" stroke="#508e0b" stroke-linecap="round" stroke-linejoin="round" opacity=".5"/><circle cx="25.5" cy="16.5" r=".5"/></g><path fill="#fff" d="M6 25h12v1H6z"/><g fill="#72d406"><circle cx="21.5" cy="25.5" r=".5" stroke="#508e0b" stroke-linecap="round" stroke-linejoin="round" opacity=".5"/><circle cx="21.5" cy="25.5" r=".5"/><circle cx="25.5" cy="25.5" r=".5" stroke="#508e0b" stroke-linecap="round" stroke-linejoin="round" opacity=".5"/><circle cx="25.5" cy="25.5" r=".5"/></g><rect width="16" height="16" x="16" y="14" fill="#eff0f1" stroke="#000" stroke-opacity=".25" rx="2"/><path fill="#232629" d="M23 16v1h6v7h-6v3h-1c-.554 0-1-.446-1-1v-5h1v-4h-3v4h1v5c0 1.108.892 2 2 2h5v-1h-2v-1h5V16zm-3 3h1v1h-1zm-2 3v4h1v-4z"/></svg>