<svg xmlns="http://www.w3.org/2000/svg" viewBox="0 0 32 32"><g transform="matrix(1 0 0 -1 0 32)"><rect width="32" height="30" y="-31" opacity=".25" rx="2" ry="2" transform="scale(1 -1)"/><rect width="30" height="28" x="1" y="-30" fill="#eee" rx="1" ry="1" transform="scale(1 -1)"/><path fill="#e4e4e4" d="M2 30c-.554 0-1-.446-1-1v-3h30v3c0 .554-.446 1-1 1z"/><path fill="#666" d="M16 30v-5h15v4c0 .554-.446 1-1 1z"/></g><rect width="2" height="2" x="27" y="3" fill="#f9f9f9" rx="1"/><rect width="30" height="1" x="1" y="6" opacity=".25" ry="0"/><rect width="2" height="2" x="3" y="3" fill="#999" rx="1"/></svg>