<svg xmlns="http://www.w3.org/2000/svg" width="32" height="32"><path fill="#f9f9f9" fill-rule="evenodd" d="M8.523 15.945v-5.599c0-4.939 2.937-7.285 7.474-7.224 4.562.062 7.53 2.227 7.53 7.224v5.756c0 1.226-3.067 1.382-3.067 0v-4.5c0-1.256.317-5.317-4.431-5.317-4.71 0-4.366 4.086-4.348 5.311v4.37c0 1.478-3.158 1.471-3.158-.021z"/><path fill="none" stroke="#555761" d="M8.523 15.945v-5.599c0-4.939 2.937-7.285 7.474-7.224 4.562.062 7.53 2.227 7.53 7.224v5.756H20.46v-4.5c0-1.256.317-5.317-4.431-5.317-4.71 0-4.366 4.086-4.348 5.311v4.37z" opacity=".25" style="font-variant-east_asian:normal;marker:none"/><rect width="21" height="15" x="5.5" y="14.5" fill="#edd2a6" color="#000" overflow="visible" rx="1" ry="1" style="marker:none"/><rect width="21" height="15" x="5.5" y="14.5" fill="none" stroke="#7d511a" color="#000" opacity=".35" overflow="visible" rx="1" ry="1" style="marker:none"/></svg>