<svg xmlns="http://www.w3.org/2000/svg" height="32" width="32"><defs><linearGradient id="e"><stop offset="0" stop-color="#fafafa"/><stop offset="1" stop-color="#d4d4d4"/></linearGradient><linearGradient id="d"><stop offset="0" stop-color="#fff"/><stop offset=".04" stop-color="#fff" stop-opacity=".235"/><stop offset=".958" stop-color="#fff" stop-opacity=".157"/><stop offset="1" stop-color="#fff" stop-opacity=".392"/></linearGradient><linearGradient id="a"><stop offset="0" stop-color="#181818"/><stop offset="1" stop-color="#181818" stop-opacity="0"/></linearGradient><linearGradient id="b"><stop offset="0" stop-color="#181818"/><stop offset="1" stop-color="#181818" stop-opacity="0"/></linearGradient><linearGradient id="c"><stop offset="0" stop-color="#181818" stop-opacity="0"/><stop offset=".5" stop-color="#181818"/><stop offset="1" stop-color="#181818" stop-opacity="0"/></linearGradient><linearGradient id="f"><stop offset="0" stop-color="#fff"/><stop offset=".508" stop-color="#fff" stop-opacity=".235"/><stop offset=".835" stop-color="#fff" stop-opacity=".157"/><stop offset="1" stop-color="#fff" stop-opacity=".392"/></linearGradient><linearGradient id="g"><stop offset="0" stop-color="#e9e9e9"/><stop offset="1" stop-color="#fff"/></linearGradient><linearGradient id="h"><stop offset="0" stop-color="#64baff"/><stop offset="1" stop-color="#3689e6"/></linearGradient></defs><rect style="marker:none" y="-29" x="3" ry="1.615" rx="1.615" height="26" width="26" transform="scale(1 -1)" color="#000" overflow="visible" fill="#f4f4f4"/><rect style="marker:none" y="2.5" x="2.5" ry="2.16" rx="2.16" height="27" width="27" color="#000" overflow="visible" fill="none" stroke="#555761" stroke-linecap="round" stroke-linejoin="round" opacity=".25"/><path d="M11.556 12a4.435 4.435 0 0 0-4.445 4.444 4.435 4.435 0 0 0 4.445 4.445h8.888a4.435 4.435 0 0 0 4.445-4.445A4.435 4.435 0 0 0 20.444 12z" style="marker:none" color="#000" overflow="visible" opacity=".2" fill="#fff"/><path d="M11.5 12A4.49 4.49 0 0 0 7 16.5a4.49 4.49 0 0 0 4.5 4.5h9a4.49 4.49 0 0 0 4.5-4.5 4.49 4.49 0 0 0-4.5-4.5z" style="marker:none" color="#000" overflow="visible" fill="#50a4f4"/><path d="M5.222 4.778a.444.444 0 0 1-.889 0 .444.444 0 1 1 .889 0zM27.667 4.778a.444.444 0 0 1-.889 0 .444.444 0 1 1 .889 0zM5.222 27.222a.444.444 0 0 1-.889 0 .444.444 0 1 1 .889 0zM27.667 27.222a.444.444 0 0 1-.889 0 .444.444 0 1 1 .889 0z" style="marker:none" color="#000" overflow="visible" opacity=".15" fill-rule="evenodd"/><path style="marker:none" d="M20.5 12.5c2.207 0 4 1.793 4 4s-1.793 4-4 4-4-1.793-4-4 1.793-4 4-4z" color="#000" overflow="visible" fill="#f9f9f9"/></svg>