<svg xmlns="http://www.w3.org/2000/svg" width="32" height="32"><g transform="translate(-384.57 -515.8)"><rect width="32" height="30" x="384.57" y="516.8" opacity=".25" rx="2" ry="2"/><rect width="30" height="28" x="385.57" y="517.8" fill="#eee" rx="1" ry="1"/><path fill="#e4e4e4" d="M386.57 517.8c-.554 0-1 .446-1 1v5h30v-5c0-.554-.446-1-1-1z"/><rect width="2" height="2" x="411.57" y="519.8" fill="#999" rx="1"/><rect width="30" height="1" x="385.57" y="523.8" opacity=".25" ry="0"/><g stroke="#000" stroke-linecap="round" stroke-linejoin="round" stroke-opacity=".25" stroke-width=".4"><path fill="#7aabdc" d="M388.57 528.8v6h7v-5h-3l-1-1zM388.57 536.8v6h7v-5h-3l-1-1z"/><path fill="#e6e6e6" d="M398.57 528.8v6h5v-4l-2-2z"/><path fill="#b3b3b3" fill-rule="evenodd" d="m401.57 528.8 2 2h-2z"/><path fill="#e6e6e6" d="M398.57 536.8v6h5v-4l-2-2z"/><path fill="#b3b3b3" fill-rule="evenodd" d="m401.57 536.8 2 2h-2z"/><rect width="6" height="6" x="406.57" y="528.8" fill="#e6e6e6" rx="1" ry="1"/><rect width="4" height="2" x="407.57" y="530.8" fill="#3daee9" rx="1"/><rect width="2" height="2" x="409.57" y="530.8" fill="#eff0f1" rx="1"/></g></g></svg>