<svg xmlns="http://www.w3.org/2000/svg" width="32" height="32"><path fill="#283838" stroke="#000" stroke-linecap="round" stroke-linejoin="round" stroke-opacity=".25" d="M5.838 6.184c.8.152 1.625.333 2.162.189a1.61 1.61 0 0 0 .806-.52c.21-.24.377-.529.543-.817 0 0-2.598-1.5-3.098-.634 0 0-.5.866-.413 1.782z"/><path fill="#927155" stroke="#000" stroke-linecap="round" stroke-linejoin="round" stroke-opacity=".25" d="M9.35 5.035c-.167.289-.333.577-.543.817-.21.239-.465.43-.807.521-.538.144-1.362-.037-2.162-.19-.348 1.228-.744 2.127-.356 3.55.732 2.731 2.605 3.434 4.198 4.732 1.592 1.297 3.463 2 5.195 3s1.733.998 2.465 3.73l1.465 5.465 4.695.98A15.264 15.264 0 0 0 26 26a15.34 15.34 0 0 0 3.18-3.566L29 21s-2.465-3.733-1.465-5.465 4.136-9.16 3.27-9.66-3.354 1.142-5.487 1.836c-2.132.694-3.288.028-4.404-.04s-2.192.464-3.393.542c-1.2.077-2.52-.299-4.914-1.488-2.394-1.19-3.257-1.69-3.257-1.69z"/><g fill="#283838" stroke="#000" stroke-linecap="round" stroke-linejoin="round" stroke-opacity=".25"><path d="M18.26 9.603c-.038-.6 1.04-1.133 1.866-1.232.827-.1 1.405.234 1.444.833s-.46 1.462-1.289 1.564c-.83.1-1.982-.565-2.02-1.165zM28.955 8.078c.638.561-.073 2.46-1.029 3.448-.954.99-2.152 1.067-2.792.504s-.717-1.759.239-2.747c.956-.989 2.944-1.764 3.582-1.205zM2.792 12.683c.812-.06 1.656-.098 2.138-.377a1.61 1.61 0 0 0 .644-.71c.14-.287.227-.609.313-.93 0 0-2.898-.777-3.157.19 0 0-.258.965.062 1.827z"/></g><path fill="#5f4c42" stroke="#000" stroke-linecap="round" stroke-linejoin="round" stroke-opacity=".25" d="M26.635 5.904c-1.02.036-2.866 2.067-4.63 3.213-1.88 1.222-3.17.878-4.265 1.102s-1.997 1.017-3.136 1.402c-1.14.386-2.513.364-5.133-.166-2.621-.53-3.584-.789-3.584-.789-.087.322-.172.644-.313.93a1.608 1.608 0 0 1-.644.71c-.482.28-1.325.317-2.137.378-.018 1.275-.167 2.246.576 3.52 1.414 2.449 3.403 2.642 5.277 3.483 1.875.842 3.864 1.036 5.795 1.553 1.932.518 1.932.518 3.346 2.967l3.043 4.54A15.328 15.328 0 0 0 26 26a15.34 15.34 0 0 0 3.18-3.566L29 21s-3.346-2.967-2.828-4.898c.518-1.932 1.622-9.92.656-10.178a.657.657 0 0 0-.193-.02z"/><g fill="#283838" stroke="#000" stroke-linecap="round" stroke-linejoin="round" stroke-opacity=".25"><path d="M15.676 12.77c-.192-.57.71-1.362 1.483-1.672.774-.31 1.418-.138 1.61.43s-.065 1.533-.84 1.845c-.774.312-2.06-.033-2.252-.603zM25.612 8.53c.761.377.565 2.394-.101 3.596-.666 1.203-1.803 1.588-2.567 1.21s-1.147-1.513-.48-2.716c.667-1.202 2.387-2.466 3.148-2.09zM1.533 19.75c.769-.268 1.574-.524 1.967-.918.25-.25.375-.541.438-.853C4 17.666 4 17.333 4 17c0 0-3 0-3 1 0 0 0 1 .533 1.75z"/></g><g stroke="#000" stroke-linecap="round" stroke-linejoin="round" stroke-opacity=".25"><path fill="#ab8b65" d="M23 7c-1 0-2.332 2.665-3.832 4.332S16.334 13 15.334 13.5s-1.667 1.499-2.668 2.166-2.331 1.001-5 1.168S4 17 4 17c0 .333 0 .666-.063.979a1.607 1.607 0 0 1-.437.853c-.393.394-1.198.65-1.967.918.313 1.237.42 2.213 1.467 3.25 2 2 3.972 1.673 6 2s4 0 6 0 2 0 4 2l1.766 1.766A15.328 15.328 0 0 0 26 26a15.336 15.336 0 0 0 4-5s-5-2-5-4-1-10-2-10z"/><path fill="#283838" d="M14 16.5c-.333-.501.334-1.501 1-2 .667-.5 1.334-.5 1.667-.001s.333 1.497-.334 1.999c-.668.502-1.999.502-2.332.001zM22.5 9.832c.833.167 1.166 2.166.833 3.5-.332 1.334-1.33 2-2.166 1.833S19.667 14 20 12.666c.334-1.334 1.668-3 2.5-2.834z"/><path fill="#2094e6" d="M28 20a15.336 15.336 0 0 1-4 5 15.34 15.34 0 0 1-4.47 2.53l1.236 1.236A15.328 15.328 0 0 0 26 26a15.336 15.336 0 0 0 4-5z"/></g></svg>