<svg xmlns="http://www.w3.org/2000/svg" width="32" height="32"><rect width="26" height="26" x="3" y="-29" fill="#f2f2f2" color="#000" overflow="visible" rx="1.615" ry="1.615" style="marker:none" transform="scale(1 -1)"/><rect width="27" height="27" x="2.5" y="2.5" fill="none" stroke="#555761" stroke-linecap="round" stroke-linejoin="round" color="#000" opacity=".35" overflow="visible" rx="2.16" ry="2.16" style="marker:none"/><path fill="#e7595b" d="M24 .5A6.504 6.504 0 0 0 17.5 7c0 3.586 2.914 6.5 6.5 6.5s6.5-2.914 6.5-6.5S27.586.5 24 .5z"/><path fill="none" stroke="#6f0000" stroke-linecap="round" stroke-linejoin="round" d="M24 .5A6.504 6.504 0 0 0 17.5 7c0 3.586 2.914 6.5 6.5 6.5s6.5-2.914 6.5-6.5S27.586.5 24 .5z" color="#000" opacity=".35" overflow="visible" style="marker:none"/></svg>