<svg xmlns="http://www.w3.org/2000/svg" width="32" height="32"><linearGradient id="b" x1="16" x2="16" y1="18" y2="6" gradientTransform="translate(0 1)" gradientUnits="userSpaceOnUse"><stop offset="0" stop-color="#f0f0f0"/><stop offset="1" stop-color="#fcfcfc"/></linearGradient><linearGradient id="a" x1="19.514" x2="15" y1="15.555" y2="11" gradientTransform="translate(0 1)" gradientUnits="userSpaceOnUse"><stop offset="0" stop-color="#f3f3f3"/><stop offset="1" stop-color="#fcfcfc" stop-opacity="0"/></linearGradient><path fill="none" stroke="#42557f" stroke-opacity=".291" d="M13.24 22.474c-.404 0-.73.275-.729.616v4.845l-2.277.154c-.404 0-.728.275-.728.616v.769h13v-.769c0-.34-.325-.616-.729-.616l-2.267-.154V23.09c0-.341-.325-.616-.729-.616z"/><path fill="#fafafa" d="M13.46 22.384c-.26 0-.452.184-.45.407v5.349l-2.545.184h-.01c-.26 0-.45.184-.45.407V29h12v-.269c0-.223-.19-.407-.45-.407h-.012L19 28.14v-5.349c0-.223-.19-.407-.45-.407z"/><rect width="30" height="21" x="1" y="2" fill="#434855" stroke="#252831" stroke-dashoffset=".5" stroke-linecap="round" stroke-linejoin="round" stroke-opacity=".784" stroke-width="2" rx="1.034" ry="1.105"/><path fill="#5294e2" fill-rule="evenodd" d="M2 3h28v19.071H2z"/><path fill="url(#a)" d="M16 7a6 6 0 0 0-6 6 6 6 0 0 0 6 6 6 6 0 0 0 6-6 6 6 0 0 0-6-6zm0 1a5 5 0 0 1 5 5 5 5 0 0 1-5 5 5 5 0 0 1-5-5 5 5 0 0 1 5-5z"/><path fill="url(#b)" d="M16 7a6 6 0 0 0-6 6 6 6 0 0 0 6 6 6 6 0 0 0 4.215-1.736l-.701-.71A5 5 0 0 1 16 18a5 5 0 0 1-5-5 5 5 0 0 1 5-5z"/></svg>