<svg xmlns="http://www.w3.org/2000/svg" width="32" height="32"><path fill="#f9f9f9" d="M16 1.5C8 1.5 1.5 8 1.5 16S8 30.5 16 30.5 30.5 24 30.5 16 24 1.5 16 1.5z" color="#000" overflow="visible" style="marker:none"/><path fill="none" stroke="#000" stroke-linecap="round" stroke-linejoin="round" d="M16 1.5C8 1.5 1.5 8 1.5 16S8 30.5 16 30.5 30.5 24 30.5 16 24 1.5 16 1.5z" color="#000" opacity=".25" overflow="visible" style="marker:none"/><path fill="none" stroke="#333" stroke-linecap="round" stroke-width=".6" d="m15.266 16.837 7.971-9.13"/><path fill="#00f" stroke="#333" stroke-linecap="round" stroke-width=".6" d="m17.171 16.034-6.983-.455"/><path fill="none" stroke="#eb5c3a" stroke-linecap="round" stroke-width=".6" d="m15.168 13.86 3.78 10.254"/><path fill="#e6e6e6" d="M16.523 16a.523.523 0 1 1-1.046 0 .523.523 0 1 1 1.046 0z" color="#000" overflow="visible" style="marker:none"/></svg>