<svg xmlns="http://www.w3.org/2000/svg" width="32" height="32"><g fill-rule="evenodd" stroke-width=".926"><path fill="#139dcb" d="m16 16-5.502 5.498h4.027L16 16z"/><path fill="#3ed4f0" d="m16 16-1.475 5.498h2.95L16 16z"/><path fill="#32d439" d="m16 16 1.475 5.498h4.027L16 16z"/><path fill="#cee834" d="m16 16 5.502 5.498H30v-1.74L16 16z"/><path fill="#ffe600" d="M30 12.244 16 16l14 3.758v-7.514z"/><path fill="#f7ac1b" d="M28.508 3.498 16 16l14-3.756V3.498h-1.492z"/><path fill="#fa7c1a" d="M19.355 3.498 15.999 16 28.508 3.498h-9.152z"/><path fill="#ee332c" d="M12.645 3.498 16.001 16l3.355-12.502h-6.71z"/><path fill="#421ca8" d="M16 16 2 19.758v1.74h8.498L16 16z"/><path fill="#e861e2" d="M2 12.244v7.514L16 16 2 12.244z"/><path fill="#ff5474" d="M3.492 3.498 16 16 12.645 3.498H3.492z"/><path fill="#e92f61" d="M2 3.498v8.746L16 16 3.492 3.498H2z"/></g><path fill="none" stroke="#42557f" stroke-opacity=".291" d="M13.24 22c-.404 0-.73.275-.729.616v4.845l-2.277.154c-.404 0-.728.275-.728.616V29h13v-.769c0-.34-.325-.616-.729-.616l-2.267-.154v-4.845c0-.341-.325-.616-.729-.616z"/><path fill="#fafafa" d="M13.46 21.91c-.26 0-.452.184-.45.407v5.349l-2.545.184h-.01c-.26 0-.45.184-.45.407v.269h12v-.269c0-.223-.19-.407-.45-.407h-.012L19 27.666v-5.349c0-.223-.19-.407-.45-.407z"/><path fill="#434855" d="M387.07 518.8c-.554 0-1 .446-1 1v17c0 .554.446 1 1 1h27c.554 0 1-.446 1-1v-17c0-.554-.446-1-1-1zm-.5.5h28v18h-28z" color="#000" style="font-feature-settings:normal;font-variant-alternates:normal;font-variant-caps:normal;font-variant-east-asian:normal;font-variant-ligatures:normal;font-variant-numeric:normal;font-variant-position:normal;font-variation-settings:normal;inline-size:0;isolation:auto;mix-blend-mode:normal;shape-margin:0;shape-padding:0;text-decoration-color:#000;text-decoration-line:none;text-decoration-style:solid;text-indent:0;text-orientation:mixed;text-transform:none;white-space:normal" transform="translate(-384.57 -515.8)"/><path fill="#252831" fill-opacity=".784" d="M387.07 518.3c-.822 0-1.5.678-1.5 1.5v17c0 .822.678 1.5 1.5 1.5h27c.822 0 1.5-.678 1.5-1.5v-17c0-.822-.678-1.5-1.5-1.5zm-.5 1h28v18h-28z" color="#000" style="font-feature-settings:normal;font-variant-alternates:normal;font-variant-caps:normal;font-variant-east-asian:normal;font-variant-ligatures:normal;font-variant-numeric:normal;font-variant-position:normal;font-variation-settings:normal;inline-size:0;isolation:auto;mix-blend-mode:normal;shape-margin:0;shape-padding:0;text-decoration-color:#000;text-decoration-line:none;text-decoration-style:solid;text-indent:0;text-orientation:mixed;text-transform:none;white-space:normal" transform="translate(-384.57 -515.8)"/><path fill="#fff" d="M2 3.5h28v18H2z" opacity=".35"/></svg>