<svg xmlns="http://www.w3.org/2000/svg" xmlns:xlink="http://www.w3.org/1999/xlink" id="svg36" fill="none" version="1.1" viewBox="0 0 32 33"><defs id="defs22"><linearGradient id="a" x1="10.286" x2="16.3" y1="1" y2="27.933" gradientUnits="userSpaceOnUse"><stop id="stop1" offset="0" stop-color="#26343c"/><stop id="stop2" offset=".448" stop-color="#1a2530"/><stop id="stop3" offset="1" stop-color="#121920"/></linearGradient><linearGradient id="b" x2="32" y1="28" y2="28" gradientUnits="userSpaceOnUse"><stop id="stop4" offset="0" stop-color="#070f17"/><stop id="stop5" offset="1"/></linearGradient><linearGradient id="c" x2="32" y1="1" y2="1" gradientUnits="userSpaceOnUse"><stop id="stop6" offset="0" stop-color="#3b4c56"/><stop id="stop7" offset=".5" stop-color="#334551"/><stop id="stop8" offset="1" stop-color="#243540"/></linearGradient><linearGradient id="d" x1="21.599" x2="-3.073" y1="2.411" y2="17.237" gradientUnits="userSpaceOnUse"><stop id="stop9" offset="0" stop-color="#1abc9c"/><stop id="stop10" offset="1" stop-color="#2980b9"/></linearGradient><linearGradient id="e" x1="9.887" x2="6.089" y1="31.766" y2="19.225" gradientUnits="userSpaceOnUse"><stop id="stop11" offset="0" stop-color="#334545"/><stop id="stop12" offset="1" stop-color="#536161"/></linearGradient><linearGradient id="f" x1="13.217" x2="29.16" y1="16.352" y2="19.478" gradientUnits="userSpaceOnUse"><stop id="stop13" offset="0" stop-color="#cc4a5e"/><stop id="stop14" offset="1" stop-color="#aa478a"/></linearGradient><linearGradient id="g"><stop id="stop15" offset="0"/><stop id="stop16" offset="1" stop-opacity="0"/></linearGradient><linearGradient xlink:href="#g" id="h" x1="16" x2="16" y1="3" y2="26" gradientUnits="userSpaceOnUse"/><linearGradient xlink:href="#g" id="i" x1="15.408" x2="33.185" y1="9.778" y2="29.037" gradientUnits="userSpaceOnUse"/><linearGradient id="j" x1="17.635" x2="17.635" y1="9.846" y2="32.002" gradientTransform="matrix(.76917 0 0 .76917 2.453 1.87)" gradientUnits="userSpaceOnUse"><stop id="stop17" offset="0" stop-color="#fccec0"/><stop id="stop18" offset="1" stop-color="#c98350"/></linearGradient><linearGradient id="k" x1="18" x2="18" y1="21" y2="32" gradientUnits="userSpaceOnUse"><stop id="stop19" offset="0" stop-color="#a96535" stop-opacity="0"/><stop id="stop20" offset="1" stop-color="#a96535"/></linearGradient><linearGradient id="l" x1="18" x2="18" y1="10" y2="25.5" gradientUnits="userSpaceOnUse"><stop id="stop21" offset="0" stop-color="#fff"/><stop id="stop22" offset="1" stop-color="#fff" stop-opacity=".5"/></linearGradient><linearGradient id="a-5" x1="7.937" x2="7.937" y1="15.081" y2="1.852" gradientTransform="matrix(1.88973 0 0 1.88973 0 .015)" gradientUnits="userSpaceOnUse"><stop id="stop3-5" offset="0" style="stop-color:#333;stop-opacity:1"/><stop id="stop4-4" offset="1" style="stop-color:#666;stop-opacity:1"/></linearGradient><style id="current-color-scheme" type="text/css">.ColorScheme-Highlight{color:#3daee9}</style></defs><g id="g3"><rect id="rect2" width="32" height="30" x="0" y="-31" stroke-width="1.035" opacity=".25" rx="2" ry="2" style="fill:#1a1a1a" transform="scale(1 -1)"/><rect id="rect3" width="30" height="28" x="1" y="-30" fill="#eee" stroke-width=".968" rx="1" ry="1" transform="scale(1 -1)"/><path id="path3" fill="#e4e4e4" stroke-width="1.186" d="M2 30c-.554 0-1-.446-1-1v-3h30v3c0 .554-.446 1-1 1z"/></g><rect id="rect4" width="2" height="2" x="27" y="-29" fill="#999" rx="1" transform="scale(1 -1)"/><rect id="rect5" width="30" height="1" x="1" y="-26" opacity=".25" ry="0" transform="scale(1 -1)"/><path id="path5" fill="#999" d="M3 27v1h1v-1zm1 1v1h1v-1z"/><g id="g36" transform="translate(-.176 .014)"><path id="path30" d="M19.637 10.716a4.73 4.73 0 1 1-9.461 0 4.73 4.73 0 0 1 9.46 0z" class="ColorScheme-Highlight" opacity=".5" style="opacity:.15;fill:#1a1a1a;stroke-width:.860083"/><path id="path31" d="M18.637 10.716a3.73 3.73 0 1 1-7.461 0 3.73 3.73 0 0 1 7.46 0z" class="ColorScheme-Highlight" style="opacity:.25;fill:#1a1a1a;stroke-width:.82897"/><path id="path34" fill="url(#j)" d="M15.302 26.257c1.904.211 4.595.226 4.97.227l.089.001c1.654.027 3.085-1.074 3.297-2.72l.532-3.662c.456-2.735-1.596-3.418-2.28-2.05 0-1.596-1.823-2.508-2.734-1.14 0-1.368-1.966-2.28-2.877-.912v-5.014c0-1.823-2.693-2.279-2.693 0v9.729s-.384-1.154-1.153-1.923c-2.507-2.507-3.76-.057-3.76-.057 1.823 1.367 3.203 7.142 6.609 7.52z" style="fill:#edb89e;stroke-width:1;fill-opacity:1;stroke:#000;stroke-opacity:.148773;stroke-dasharray:none;stroke-linecap:round;stroke-linejoin:round"/></g></svg>