<svg xmlns="http://www.w3.org/2000/svg" width="32" height="32"><defs><linearGradient id="a"><stop offset="0" stop-color="#2e5d89"/><stop offset="1" stop-color="#1b92f4"/></linearGradient></defs><rect width="32" height="30" y="1" opacity=".25" rx="2" ry="2"/><rect width="30" height="28" x="1" y="2" fill="#eee" rx="1" ry="1"/><path fill="#4d4d4d" d="M2 2c-.554 0-1 .446-1 1v6h30V3c0-.554-.446-1-1-1z"/><rect width="2" height="2" x="27" y="4" fill="#3995ed" rx="1"/><rect width="30" height="1" x="1" y="8" opacity=".25" ry="0"/><path fill="gray" d="M22 12h2v7.385h-2z"/><path fill="#b3b3b3" d="M22 19.385h2v5.304h-2z"/><path fill="#999" d="M22 24.004h2V25h-2z"/><path fill="gray" fill-rule="evenodd" d="M22 25v.32L23 27l1-1.68V25z"/><rect width="2" height="2" x="3" y="4" fill="#ccc" rx="1"/></svg>