<svg xmlns="http://www.w3.org/2000/svg" width="32" height="32"><defs><linearGradient id="a" x2="0" y1="25" y2="11" gradientTransform="translate(384.57 516.8)" gradientUnits="userSpaceOnUse"><stop offset="0" stop-color="#c6cdd1"/><stop offset="1" stop-color="#e0e5e7"/></linearGradient><linearGradient id="b" x1="22" x2="16" y1="23" y2="18" gradientTransform="translate(384.57 516.8)" gradientUnits="userSpaceOnUse"><stop offset="0" stop-color="#197cf1"/><stop offset="1" stop-color="#20bcfa" stop-opacity="0"/></linearGradient><linearGradient id="c" x1="11" x2="16" y1="25" y2="11" gradientTransform="translate(384.57 516.8)" gradientUnits="userSpaceOnUse"><stop offset="0" stop-color="#197cf1"/><stop offset="1" stop-color="#20bcfa"/></linearGradient></defs><g transform="translate(-384.57 -515.8)"><rect width="32" height="30" x="384.57" y="516.8" opacity=".25" rx="2" ry="2"/><rect width="30" height="28" x="385.57" y="517.8" fill="#eee" rx="1" ry="1"/><path fill="#e4e4e4" d="M386.57 517.8c-.554 0-1 .446-1 1v5h30v-5c0-.554-.446-1-1-1z"/><rect width="2" height="2" x="411.57" y="519.8" fill="#999" rx="1"/><rect width="30" height="1" x="385.57" y="523.8" opacity=".25" ry="0"/><path fill="url(#a)" d="M400.57 527.8a7 7 0 0 0-7 7 7 7 0 0 0 7 7 7 7 0 0 0 7-7 7 7 0 0 0-7-7zm0 1a6 6 0 0 1 6 6 6 6 0 0 1-6 6 6 6 0 0 1-6-6 6 6 0 0 1 6-6z"/><path fill="url(#b)" d="M400.57 527.8a7 7 0 0 0-7 7 7 7 0 0 0 7 7 7 7 0 0 0 7-7 7 7 0 0 0-7-7zm0 1a6 6 0 0 1 6 6 6 6 0 0 1-6 6 6 6 0 0 1-6-6 6 6 0 0 1 6-6z"/><path fill="url(#c)" d="M400.57 527.8a7 7 0 0 0-7 7 7 7 0 0 0 7 7 7 7 0 0 0 4.947-2.053l-.707-.707a6 6 0 0 1-4.24 1.76 6 6 0 0 1-6-6 6 6 0 0 1 6-6z"/></g></svg>