<svg xmlns="http://www.w3.org/2000/svg" width="32" height="32" viewBox="0 0 8.467 8.467"><g stroke-width=".265" color="#000"><rect width="6.879" height="6.879" x=".794" y=".794" fill="#f4f4f4" overflow="visible" rx=".427" ry=".427"/><rect width="7.144" height="7.144" x=".661" y="-7.806" fill="none" stroke="#555761" stroke-linecap="round" stroke-linejoin="round" opacity=".35" overflow="visible" rx=".572" ry=".572" transform="scale(1 -1)"/><path fill="#3c3c3c" d="M2.117 5.821v-2.91h1.058v-.265h.265v-.265h1.587v.265h.265v.265H6.35v2.91z" overflow="visible"/><path fill="none" stroke="#000" d="M2.249 5.689V3.043h1.058v-.265h.265v-.264h1.323v.264h.265v.265h1.058v2.646z" opacity=".3" overflow="visible"/><path fill="#fff4b0" d="M5.358 5.556h.185v-.529h-.185zm-2.447 0h.185v-.529H2.91zm.489 0h.185v-.529H3.4zm.49 0h.185v-.529h-.186zm.489 0h.185v-.529H4.38zm.49 0h.185v-.529h-.186z" overflow="visible"/></g></svg>