<svg xmlns="http://www.w3.org/2000/svg" viewBox="0 0 32 32"><circle cx="16" cy="26.5" r="3.5" fill="#a3a6aa" stroke="#000" stroke-linecap="round" stroke-linejoin="round" stroke-opacity=".25"/><path fill="#f3b851" stroke="#000" stroke-linecap="round" stroke-linejoin="round" stroke-opacity=".25" d="M16 2c-1.984 0-3.5 1.547-3.5 3.477 0 .166.014.359.043.523C8.928 7.227 8.004 10.528 8 14.264 8 19.144 4 23.048 2 25v1h28v-1c-2-1.952-6-5.856-6-10.736-.004-3.736-.928-7.037-4.543-8.264.029-.164.043-.357.043-.523C19.5 3.547 17.984 2 16 2z"/><path d="M2 25h28v1H2zM12.547 5c-.021.157-.047.313-.047.477 0 .166.014.359.043.523h6.914c.029-.164.043-.357.043-.523 0-.164-.026-.32-.047-.477z" opacity=".15"/></svg>