<svg xmlns="http://www.w3.org/2000/svg" width="32" height="32"><g stroke="#000" stroke-linecap="round" stroke-linejoin="round" stroke-opacity=".356"><path fill="#5cbf04" d="M8 2v28h22V9l-7-7H8z"/><path fill="#313437" fill-rule="evenodd" d="m30 9-7-7v7z"/><path fill="#1da1f6" d="M2 2v28h22V9l-7-7H2z"/><path fill="#313437" fill-rule="evenodd" d="m24 9-7-7v7z"/></g><path fill="#fff" d="M10 10c-.554 0-1 .446-1 1s.446 1 1 1 1-.446 1-1-.446-1-1-1zm5 0-2 2 2 2-2 2 2 2 4-4-4-4zm-7 6c-.554 0-1 .446-1 1s.446 1 1 1 1-.446 1-1-.446-1-1-1zm4 4c-.554 0-1 .446-1 1s.446 1 1 1 1-.446 1-1-.446-1-1-1z"/></svg>