<svg width="32" height="32" version="1.1" xmlns="http://www.w3.org/2000/svg">
 <style id="current-color-scheme" type="text/css">.ColorScheme-Text {
        color:#d3dae3;
      }
      .ColorScheme-Background{
        color:#EFF0F1;
      }
      .ColorScheme-Highlight{
        color:#3DAEE6;
      }
      .ColorScheme-ViewText {
        color:#7B7C7E;
      }
      .ColorScheme-ViewBackground{
        color:#FCFCFC;
      }
      .ColorScheme-ViewHover {
        color:#3DAEE6;
      }
      .ColorScheme-ViewFocus{
        color:#1E92FF;
      }
      .ColorScheme-ButtonText {
        color:#7B7C7E;
      }
      .ColorScheme-ButtonBackground{
        color:#EFF0F1;
      }
      .ColorScheme-ButtonHover {
        color:#3DAEE6;
      }
      .ColorScheme-ButtonFocus{
        color:#1E92FF;
      }</style>
 <path class="ColorScheme-Text" d="m5 5c-1.662 0-3 1.338-3 3v12c0 1.662 1.338 3 3 3h9v3h-3.5c-0.277 0-0.5 0.223-0.5 0.5s0.223 0.5 0.5 0.5h11c0.277 0 0.5-0.223 0.5-0.5s-0.223-0.5-0.5-0.5h-3.5v-3h9c1.662 0 3-1.338 3-3v-12c0-1.662-1.338-3-3-3zm0 1h22c1.108 0 2 0.892 2 2v12c0 1.108-0.892 2-2 2h-22c-1.108 0-2-0.892-2-2v-12c0-1.108 0.892-2 2-2zm17.5 2c-0.277 0-0.5 0.223-0.5 0.5s0.223 0.5 0.5 0.5h3.5v3.5c0 0.277 0.223 0.5 0.5 0.5s0.5-0.223 0.5-0.5v-3.5c0-0.554-0.446-1-1-1h-3zm-17 7c-0.277 0-0.5 0.223-0.5 0.5v3.5c0 0.554 0.446 1 1 1h3.5c0.277 0 0.5-0.223 0.5-0.5s-0.223-0.5-0.5-0.5h-3.5v-3.5c0-0.277-0.223-0.5-0.5-0.5zm9.5 8h2v3h-2z" fill="currentColor"/>
</svg>
