<svg xmlns="http://www.w3.org/2000/svg" width="32" height="32"><rect width="32" height="28" y="2" fill="#24282e" rx="2" ry="2"/><path fill="#4c83cc" d="M2 3c-.554 0-1 .446-1 1v11h14V3H2z"/><path fill="#fff" d="M17 3v12h14V4c0-.554-.446-1-1-1H17zM1 17v11c0 .554.446 1 1 1h13V17H1zm16 0v12h13c.554 0 1-.446 1-1V17H17z" opacity=".15"/><path fill="#67aace" fill-rule="evenodd" d="M4 6h8v6H4z"/><path fill="#85c9ec" fill-rule="evenodd" d="M4 6v6h8V6zm1 1h6v4H5z"/><path fill="#636367" d="M20 20h8v6h-8z"/><path fill="#9a9b9d" d="M20 20v6h8v-6zm1 1h6v4h-6z"/></svg>