<svg xmlns="http://www.w3.org/2000/svg" width="32" height="32"><path fill="#5eb4fc" fill-opacity=".992" d="M16 1.5C8 1.5 1.5 8 1.5 16S8 30.5 16 30.5 30.5 24 30.5 16 24 1.5 16 1.5z" color="#000" opacity=".99" overflow="visible"/><path fill="none" stroke="#002e99" stroke-linecap="round" stroke-linejoin="round" d="M16 1.502C8 1.502 1.502 8 1.502 16S8 30.498 16 30.498 30.498 24 30.498 16 24 1.502 16 1.502z" color="#000" opacity=".35" overflow="visible" style="isolation:auto;mix-blend-mode:normal"/><path fill="#fffff9" fill-rule="evenodd" d="M18.002 4.998h3l-5.203 8.589h4.356l-5.635 8.955 1.815.759-5.333 3.697 1.178-6.36 1.286 1.256 3.405-6.22h-4.423z"/></svg>