<svg xmlns="http://www.w3.org/2000/svg" viewBox="0 0 32 32"><rect width="32" height="30" y="1" opacity=".25" rx="2" ry="2"/><rect width="30" height="28" x="1" y="2" fill="#eee" rx="1" ry="1"/><path fill="#e4e4e4" d="M2 2c-.554 0-1 .446-1 1v5h30V3c0-.554-.446-1-1-1z"/><rect width="2" height="2" x="27" y="4" fill="#999" rx="1"/><rect width="30" height="1" x="1" y="8" opacity=".25" ry="0"/><path fill="gray" d="M22.57 12.007a1.75 7.875 44.998 0 0-6.514 4.46 1.75 7.875 44.998 0 0-3.1 3.6 3.037 3.037 0 0 1 1.975 1.975 1.75 7.875 44.998 0 0 3.6-3.1 1.75 7.875 44.998 0 0 4.33-6.805 1.75 7.875 44.998 0 0-.29-.13M12.495 21.33c-3.5.938-.875 3.154-3.5 4.67 3.503 0 5.25-1.751 5.25-2.92 0-.581.06-1.653-1.75-1.75z"/></svg>