<svg xmlns="http://www.w3.org/2000/svg" width="32" height="32"><rect width="29" height="26" x="1.5" y="3.5" fill="#5db3fb" color="#000" overflow="visible" rx="2" ry="2.08" style="marker:none"/><path fill="#fff" stroke="#fff" d="M5.5 25.5c-.554 0-1 .446-1 1v2h23v-2c0-.554-.446-1-1-1z" opacity=".7"/><path fill="#eff5fd" stroke="#eff5fd" stroke-width=".985" d="M8.207 23.493H5.793a.3.3 0 0 0-.3.3v2.414a.3.3 0 0 0 .3.3h2.414a.3.3 0 0 0 .3-.3v-2.414a.3.3 0 0 0-.3-.3zm6 0h-2.414a.3.3 0 0 0-.3.3v2.414a.3.3 0 0 0 .3.3h2.414a.3.3 0 0 0 .3-.3v-2.414a.3.3 0 0 0-.3-.3zm6 0h-2.414a.3.3 0 0 0-.3.3v2.414a.3.3 0 0 0 .3.3h2.414a.3.3 0 0 0 .3-.3v-2.414a.3.3 0 0 0-.3-.3zm6 0h-2.414a.3.3 0 0 0-.3.3v2.414a.3.3 0 0 0 .3.3h2.414a.3.3 0 0 0 .3-.3v-2.414a.3.3 0 0 0-.3-.3z" color="#000" overflow="visible" style="marker:none"/><rect width="29" height="26" x="1.5" y="3.5" fill="none" stroke="#002e99" stroke-linecap="round" stroke-linejoin="round" color="#000" opacity=".35" overflow="visible" rx="2" ry="2.08" style="isolation:auto;mix-blend-mode:normal;solid-color:#000;solid-opacity:1;marker:none"/></svg>