<svg xmlns="http://www.w3.org/2000/svg" width="32" height="32"><path fill="#264b5a" stroke="#000" stroke-linecap="round" stroke-linejoin="round" stroke-opacity=".25" d="M16 2C12.59 3.806 9.18 4.544 5.77 5.23v13.463c0 3.77 5.526 8.918 10.23 11.307 4.704-2.389 10.23-7.537 10.23-11.307V5.231C22.82 4.544 19.41 3.806 16 2z"/><g stroke-width=".538"><path fill="#d85746" d="m20.752 5.419-9.487 18.974c1.473 1.373 3.127 2.636 4.735 3.453 3.98-2.021 8.615-6.503 8.615-9.692V6.308a61.098 61.098 0 0 1-3.863-.889z"/><path fill="#f9f9f9" d="M16 3.615c-2.886 1.529-5.73 2.112-8.615 2.693v11.846c0 1.9 1.707 4.215 3.88 6.24l9.487-18.975c-1.58-.426-3.16-.96-4.752-1.804z"/></g><g stroke-width="1.857"><path fill="#f9f9f9" d="m11.693 6.308 8.615 17.231 4.308-8.615h-2.154L21.924 16h-3.231l-4.846-9.693zm7.538 10.77h2.154l-1.077 2.153z"/><path fill="#d85746" d="m11.693 6.308-4.308 8.616H9.54l.539-1.077h3.23L17.885 23h2.154zm0 4.308 1.077 2.154h-2.154z"/></g></svg>