<svg xmlns="http://www.w3.org/2000/svg" width="32" height="32"><rect width="20" height="17" x="2" y="12" fill="#f2f2f2" color="#000" overflow="visible" rx=".5" ry=".5" style="isolation:auto;mix-blend-mode:normal;solid-color:#000;solid-opacity:1;marker:none"/><path fill="#e8e8e8" d="M2.5 11.5c-.554 0-1 .446-1 1V17h21v-4.5c0-.554-.446-1-1-1z" color="#000" overflow="visible" style="isolation:auto;mix-blend-mode:normal;solid-color:#000;solid-opacity:1;marker:none"/><rect width="21" height="18" x="1.5" y="11.5" fill="none" stroke="#0e141f" stroke-linecap="round" stroke-linejoin="round" color="#000" opacity=".15" overflow="visible" rx="1" ry="1" style="marker:none"/><path fill="none" stroke="#000" d="M2 16.5h20" opacity=".1"/><rect width="20" height="17" x="10" y="3" fill="#eee" color="#000" overflow="visible" rx=".5" ry=".5" style="isolation:auto;mix-blend-mode:normal;solid-color:#000;solid-opacity:1;marker:none"/><path fill="#e4e4e4" d="M10.5 2.5c-.554 0-1 .446-1 1V8h21V3.5c0-.554-.446-1-1-1z" color="#000" overflow="visible" style="isolation:auto;mix-blend-mode:normal;solid-color:#000;solid-opacity:1;marker:none"/><rect width="21" height="18" x="9.5" y="2.5" fill="none" stroke="#0e141f" stroke-linecap="round" stroke-linejoin="round" color="#000" opacity=".25" overflow="visible" rx="1" ry="1" style="marker:none"/><path fill="none" stroke="#000" d="M10 7.5h20" opacity=".2"/></svg>