<svg xmlns="http://www.w3.org/2000/svg" width="32" height="32"><rect width="32" height="30" y="1" opacity=".25" rx="2" ry="2"/><rect width="30" height="28" x="1" y="2" fill="#eee" rx="1" ry="1"/><path fill="#e4e4e4" d="M2 2c-.554 0-1 .446-1 1v5h30V3c0-.554-.446-1-1-1z"/><rect width="2" height="2" x="27" y="4" fill="#999" rx="1"/><rect width="30" height="1" x="1" y="8" opacity=".25" ry="0"/><path fill="gray" d="M3 26h4v1H3zm6 0h12v1H9zm-6-2h4v1H3zm6 0h14v1H9zm-6-2h4v1H3zm6 0h12v1H9zm-6-2h4v1H3zm6 0h14v1H9zm-6-2h4v1H3zm6 0h10v1H9zm-6-2h4v1H3zm6 0h16v1H9zm-6-2h4v1H3zm6 0h18v1H9zm-6-2h4v1H3zm6 0h12v1H9z"/></svg>