<?xml version="1.0" encoding="UTF-8" standalone="no"?>
<svg
   xmlns:dc="http://purl.org/dc/elements/1.1/"
   xmlns:cc="http://creativecommons.org/ns#"
   xmlns:rdf="http://www.w3.org/1999/02/22-rdf-syntax-ns#"
   xmlns:svg="http://www.w3.org/2000/svg"
   xmlns="http://www.w3.org/2000/svg"
   xmlns:sodipodi="http://sodipodi.sourceforge.net/DTD/sodipodi-0.dtd"
   xmlns:inkscape="http://www.inkscape.org/namespaces/inkscape"
   version="1.1"
   width="32"
   height="32"
   id="svg4769"
   inkscape:version="0.92.4 (5da689c313, 2019-01-14)"
   sodipodi:docname="preferences-desktop-applications.svg">
  <sodipodi:namedview
     pagecolor="#ffffff"
     bordercolor="#666666"
     borderopacity="1"
     objecttolerance="10"
     gridtolerance="10"
     guidetolerance="10"
     inkscape:pageopacity="0"
     inkscape:pageshadow="2"
     inkscape:window-width="1366"
     inkscape:window-height="697"
     id="namedview78"
     showgrid="false"
     inkscape:zoom="8"
     inkscape:cx="-3.2594755"
     inkscape:cy="23.637954"
     inkscape:window-x="0"
     inkscape:window-y="0"
     inkscape:window-maximized="1"
     inkscape:current-layer="svg4769">
    <inkscape:grid
       type="xygrid"
       id="grid8138" />
  </sodipodi:namedview>
  <defs
     id="defs4771" />
  <metadata
     id="metadata4774">
    <rdf:RDF>
      <cc:Work
         rdf:about="">
        <dc:format>image/svg+xml</dc:format>
        <dc:type
           rdf:resource="http://purl.org/dc/dcmitype/StillImage" />
        <dc:title />
      </cc:Work>
    </rdf:RDF>
  </metadata>
  <rect
     width="27"
     height="27"
     rx="2.1600001"
     ry="2.1600001"
     x="2.4999998"
     y="2.5000005"
     id="rect5505-0"
     style="color:#000000;display:inline;overflow:visible;visibility:visible;fill:#6b7890;fill-opacity:1;fill-rule:nonzero;stroke:none;stroke-width:0.99999994;marker:none;enable-background:accumulate" />
  <rect
     width="27"
     height="27"
     rx="2.1600001"
     ry="2.1600001"
     x="2.5"
     y="2.5"
     id="rect5505-6"
     style="color:#000000;display:inline;overflow:visible;visibility:visible;opacity:0.35;fill:none;stroke:#1c2c38;stroke-width:1;stroke-linecap:round;stroke-linejoin:round;stroke-miterlimit:4;stroke-dasharray:none;stroke-dashoffset:0;stroke-opacity:1;marker:none;enable-background:accumulate" />
  <path
     style="color:#000000;display:inline;overflow:visible;visibility:visible;fill:#ffffff;fill-opacity:1;fill-rule:nonzero;stroke:none;stroke-width:1;marker:none;enable-background:accumulate"
     d="M 11.4375,6 C 11.011962,5.97598 10.95509,6.443996 11,6.75 l 0,6 C 10.738949,12.69515 10.388065,12.72566 10.09375,12.8125 9.209444,13.047763 8.427085,13.86031 8.5,14.78125 c 0.102194,0.862408 1.126387,1.412378 1.96875,1.15625 0.954266,-0.225906 1.5,-1.054844 1.5,-2.125 l 0,-4.75 c 0.792764,0.41916 1.516313,1.202216 1.5,2.125 0.0086,0.667036 -0.173263,1.330308 -0.4375,1.9375 -0.03556,0.0733 0.0366,0.128423 0.09375,0.15625 0.153015,0.04274 0.226019,-0.15555 0.3125,-0.25 0.920959,-1.234782 0.994044,-3.03685 0,-4.25 C 13.084724,8.350453 12.615596,7.969121 12.375,7.46875 12.134137,7.083895 11.980419,6.657897 11.90625,6.21875 11.80909,6.060022 11.621082,5.998541 11.4375,6 Z m 6,7 C 17.200071,13 17,13.1882 17,13.4375 l 0,8.125 C 17,21.8118 17.200071,22 17.4375,22 l 7.125,0 C 24.799929,22 25,21.8118 25,21.5625 l 0,-8.125 C 25,13.1882 24.799929,13 24.5625,13 Z m 0.125,0.59375 0.59375,0 0,0.59375 -0.59375,0 z m 6.28125,0 0.59375,0 0,0.59375 -0.59375,0 z M 19,13.9375 l 4,0 c 0.158285,0 0.28125,0.1463 0.28125,0.3125 l 0,2.5 c 0,0.1662 -0.122965,0.3125 -0.28125,0.3125 l -4,0 c -0.158286,0 -0.28125,-0.1463 -0.28125,-0.3125 l 0,-2.5 c 0,-0.1662 0.122964,-0.3125 0.28125,-0.3125 z m -1.4375,0.875 0.59375,0 0,0.59375 -0.59375,0 z m 6.28125,0 0.59375,0 0,0.59375 -0.59375,0 z M 17.5625,16 l 0.59375,0 0,0.59375 -0.59375,0 z m 6.28125,0 0.59375,0 0,0.59375 -0.59375,0 z m -6.28125,1.1875 0.59375,0 0,0.625 -0.59375,0 z m 6.28125,0 0.59375,0 0,0.625 -0.59375,0 z M 19,17.9375 l 4,0 c 0.158285,0 0.28125,0.1463 0.28125,0.3125 l 0,2.5 c 0,0.1662 -0.122965,0.3125 -0.28125,0.3125 l -4,0 c -0.158286,0 -0.28125,-0.1463 -0.28125,-0.3125 l 0,-2.5 c 0,-0.1662 0.122964,-0.3125 0.28125,-0.3125 z m -1.4375,0.46875 0.59375,0 0,0.59375 -0.59375,0 z m 6.28125,0 0.59375,0 0,0.59375 -0.59375,0 z M 13,18 l -5,5.125 2.15625,0 -0.96875,2.03125 c -0.353267,0.709104 0.886031,1.124029 1.125,0.59375 L 11.28125,23.8125 13,25.4375 Z m 4.5625,1.59375 0.59375,0 0,0.59375 -0.59375,0 z m 6.28125,0 0.59375,0 0,0.59375 -0.59375,0 z m -6.28125,1.21875 0.59375,0 0,0.59375 -0.59375,0 z m 6.28125,0 0.59375,0 0,0.59375 -0.59375,0 z"
     id="rect3032"
     inkscape:connector-curvature="0"
     sodipodi:nodetypes="ccccccscccccccccsssssssssccccccccccsssssssssccccccccccccccccccccccccccccccssssssssscccccccccccccccccccccccccccccccccccccc" />
</svg>
