<svg xmlns="http://www.w3.org/2000/svg" width="32" height="32"><linearGradient id="a" x1="15" x2="9" y1="9" y2="9" gradientTransform="matrix(1.6667 0 0 5 -10 -33)" gradientUnits="userSpaceOnUse"><stop offset="0" stop-color="#abdaf9"/><stop offset="1" stop-color="#abdaf9" stop-opacity="0"/></linearGradient><rect width="32" height="30" y="-31" opacity=".25" rx="2" ry="2" transform="scale(1 -1)"/><rect width="30" height="28" x="1" y="-30" fill="#eee" rx="1" ry="1" transform="scale(1 -1)"/><path fill="#e4e4e4" d="M2 30c-.554 0-1-.446-1-1v-3h30v3c0 .554-.446 1-1 1z"/><rect width="2" height="2" x="27" y="-29" fill="#999" rx="1" transform="scale(1 -1)"/><rect width="30" height="1" x="1" y="-26" opacity=".25" ry="0" transform="scale(1 -1)"/><path fill="#999" d="M3 27v1h1v-1zm1 1v1h1v-1z"/><path fill="url(#a)" fill-rule="evenodd" d="M5 7h10v5H5z"/><path fill="#888" d="M15.594 21.041 22 21l.725-7.251c.152-1.47-1.67-2.082-2.175-.725.006-1.63-1.67-1.834-2.176-.726.064-1.346-1.647-1.867-2.175-.725v-2.9c0-2.175-2.175-2.175-2.175 0v6.526c-3.626-3.626-4.515-1.02-4.515-1.02 2.464 1.663 3.97 6.876 6.085 6.862z"/></svg>