<svg xmlns="http://www.w3.org/2000/svg" xmlns:xlink="http://www.w3.org/1999/xlink" height="32" width="32"><defs><linearGradient id="b"><stop offset="0" stop-color="#452981"/><stop offset=".571" stop-color="#7239b3"/><stop offset="1" stop-color="#7239b3"/></linearGradient><linearGradient id="a"><stop stop-color="#fff" offset="0"/><stop stop-color="#fff" stop-opacity="0" offset="1"/></linearGradient><linearGradient id="c" y2="18" xlink:href="#a" gradientUnits="userSpaceOnUse" x2="9" gradientTransform="matrix(.5 0 0 .49968 16.75 3.256)" y1="21" x1="9"/></defs><rect transform="scale(1 -1)" rx="1.615" ry="1.615" height="22" width="22" y="-29" x="5" fill="#f2f2f2" color="#000"/><rect stroke-linejoin="round" rx="2.16" ry="2.16" height="23" width="23" stroke="#000" stroke-linecap="round" y="6.5" x="4.5" fill="none" color="#000" stroke-opacity=".196"/><g stroke-width=".911" color="#000"><path stroke-linejoin="round" d="M16.224 12.419c-1.51 0-2.724 1.139-2.724 2.724v6.405h5.448v-6.405c0-1.585-1.215-2.724-2.724-2.724z" stroke="#5c3014" fill="#cd8956" stroke-opacity=".518" transform="matrix(1.0999 0 0 1.0946 3.654 5.913)"/><path d="M24.197 25.083c0 .72-1.1.72-1.1 0s1.1-.72 1.1 0z" fill="#620"/></g><path opacity=".9" style="isolation:auto;mix-blend-mode:normal;solid-color:#000" d="M7.53 17.5h8.001v7h-8z" fill-rule="evenodd" fill="#85ccfe" color="#000"/><path opacity=".2" d="M8.915 20.213l1.867-1.846M9.957 23.524l1.866-1.846M12.497 19.809l1.867-1.846M13.816 22.221l1.867-1.846" stroke="#fff" stroke-linecap="round" fill="none"/><path stroke-linejoin="round" style="isolation:auto;mix-blend-mode:normal;solid-color:#000" d="M7.53 17.5h8v7h-8z" stroke="#64baff" stroke-linecap="round" fill="none" color="#000"/><path d="M23.5 4.5v7.46s.01 2.54-2.5 2.54c-2.489 0-2.5-2.541-2.5-2.541V4.5c1.805.016 5 0 5 0zM13.5 4.5v7.46s.01 2.54-2.5 2.54c-2.49 0-2.5-2.541-2.5-2.541V4.5c1.805.016 5 0 5 0z" stroke-opacity=".365" fill-rule="evenodd" stroke="#000" fill="#eaeaea"/><path style="isolation:auto;mix-blend-mode:normal;solid-color:#000;solid-opacity:1;filter-blend-mode:normal;filter-gaussianBlur-deviation:0;font-variant-east_asian:normal" d="M5.5 4.5s-2.032-.132-2 2v5.459S3.51 14.5 6 14.5c2.51 0 2.5-2.541 2.5-2.541V4.5h-3zm8 0v7.459S13.511 14.5 16 14.5c2.51 0 2.5-2.541 2.5-2.541V4.5s-3.195.016-5 0zm10 0v7.459S23.49 14.5 26 14.5c2.49 0 2.5-2.541 2.5-2.541V6.5c.032-2.132-2-2-2-2h-3z" color="#000" overflow="visible" fill="#976cd0" stroke="#070311" stroke-linecap="round" stroke-linejoin="round" stroke-dashoffset="20" stroke-opacity=".353"/><ellipse stroke-linejoin="round" style="isolation:auto;mix-blend-mode:normal;solid-color:#000" stroke-linecap="round" stroke-opacity=".392" rx="1.5" ry="1.499" stroke="url(#c)" cy="12.001" cx="21" fill="none" color="#000"/><path fill="none" stroke-linecap="round" stroke="#000" d="M7.53 17.5h8v7h-8z" style="isolation:auto;mix-blend-mode:normal;solid-color:#000" stroke-linejoin="round" color="#000" opacity=".2"/></svg>