<svg xmlns="http://www.w3.org/2000/svg" xmlns:xlink="http://www.w3.org/1999/xlink" width="32" height="32"><defs><linearGradient id="d"><stop offset="0" stop-color="#fff"/><stop offset=".01" stop-color="#fff" stop-opacity=".235"/><stop offset=".99" stop-color="#fff" stop-opacity=".157"/><stop offset="1" stop-color="#fff" stop-opacity=".392"/></linearGradient><linearGradient id="e"><stop offset="0" stop-color="#0a0a0a" stop-opacity=".498"/><stop offset="1" stop-color="#0a0a0a" stop-opacity="0"/></linearGradient><linearGradient id="f"><stop offset="0" stop-color="#e9e9e9"/><stop offset="1" stop-color="#b4b4b4"/></linearGradient><linearGradient id="a"><stop offset="0" stop-opacity="0"/><stop offset=".5"/><stop offset="1" stop-opacity="0"/></linearGradient><linearGradient id="b"><stop offset="0"/><stop offset="1" stop-opacity="0"/></linearGradient><linearGradient id="c"><stop offset="0"/><stop offset="1" stop-opacity="0"/></linearGradient><linearGradient id="g"><stop offset="0" stop-color="#fff"/><stop offset=".111" stop-color="#fff" stop-opacity=".235"/><stop offset=".99" stop-color="#fff" stop-opacity=".157"/><stop offset="1" stop-color="#fff" stop-opacity=".392"/></linearGradient><linearGradient id="h"><stop offset="0" stop-color="#f9f9f9"/><stop offset="1" stop-color="#d8d8d8"/></linearGradient><linearGradient id="i"><stop offset="0" stop-opacity=".322"/><stop offset="1" stop-opacity=".278"/></linearGradient><linearGradient x1="-51.786" y1="53.514" x2="-51.786" y2="3.634" id="j" xlink:href="#i" gradientUnits="userSpaceOnUse" gradientTransform="matrix(.50703 0 0 .503 68.03 1.33)"/></defs><path d="M4 4.5c-.433.005-.5.217-.5.635V6.5c-1.245 0-1-.002-1 .544.022 6.533 0 6.901 0 7.456.902 0 27-2.349 27-3.36V7.044c0-.418-.347-.549-.78-.544H14.5V5.135c0-.418-.264-.64-.697-.635z" style="marker:none" color="#000" overflow="visible" opacity=".5" fill="none" stroke="url(#j)"/><path d="M4 5v2H3v4h26V7H14V5z" style="marker:none" color="#000" overflow="visible" fill="#fff"/><path d="M1.927 9.5c-.691.08-.322.903-.377 1.365.08.3.598 17.718.598 18.248 0 .46.226.382.8.382h26.398c.619.014.488.007.488-.39.045-.202.64-18.978.663-19.243 0-.279.058-.362-.305-.362z" style="marker:none" color="#000" overflow="visible" fill="none" stroke="#003579" stroke-width="2" stroke-linecap="round" stroke-linejoin="round" stroke-opacity=".561" paint-order="markers stroke fill"/><path d="M1.927 9.5c-.69.08-.322.903-.377 1.365.08.3.598 17.718.598 18.248 0 .46.227.382.801.382h26.398c.618.014.488.007.488-.39.045-.202.64-18.978.662-19.243 0-.279.058-.362-.305-.362z" style="marker:none" color="#000" overflow="visible" fill="#6ba4e7"/><path d="M16.014 14l-6.089 6.09 1.179 1.178.982-.982V25h3.143v-2.357c0-.435.35-.786.785-.786.436 0 .786.35.786.786V25h3.143v-4.714l.982.982 1.179-1.179zm2.357.786v.589l1.572 1.571v-2.16z" style="marker:none" color="#000" overflow="visible" fill-opacity=".235"/></svg>