<?xml version="1.0" encoding="UTF-8" standalone="no"?>
<svg
   xmlns:dc="http://purl.org/dc/elements/1.1/"
   xmlns:cc="http://creativecommons.org/ns#"
   xmlns:rdf="http://www.w3.org/1999/02/22-rdf-syntax-ns#"
   xmlns:svg="http://www.w3.org/2000/svg"
   xmlns="http://www.w3.org/2000/svg"
   xmlns:sodipodi="http://sodipodi.sourceforge.net/DTD/sodipodi-0.dtd"
   xmlns:inkscape="http://www.inkscape.org/namespaces/inkscape"
   version="1.1"
   width="32"
   height="32"
   id="svg6860"
   sodipodi:docname="system-software-update.svg"
   inkscape:version="0.92.4 (5da689c313, 2019-01-14)">
  <sodipodi:namedview
     pagecolor="#ffffff"
     bordercolor="#666666"
     borderopacity="1"
     objecttolerance="10"
     gridtolerance="10"
     guidetolerance="10"
     inkscape:pageopacity="0"
     inkscape:pageshadow="2"
     inkscape:window-width="1366"
     inkscape:window-height="697"
     id="namedview43"
     showgrid="false"
     inkscape:zoom="7.375"
     inkscape:cx="13.984773"
     inkscape:cy="17.390085"
     inkscape:window-x="0"
     inkscape:window-y="0"
     inkscape:window-maximized="1"
     inkscape:current-layer="svg6860" />
  <defs
     id="defs6862" />
  <metadata
     id="metadata6865">
    <rdf:RDF>
      <cc:Work
         rdf:about="">
        <dc:format>image/svg+xml</dc:format>
        <dc:type
           rdf:resource="http://purl.org/dc/dcmitype/StillImage" />
        <dc:title />
      </cc:Work>
    </rdf:RDF>
  </metadata>
  <rect
     style="color:#000000;display:inline;overflow:visible;visibility:visible;fill:#fc974b;fill-opacity:1;fill-rule:nonzero;stroke:none;stroke-width:0.99999994;marker:none;enable-background:accumulate"
     id="rect5505"
     y="2.5"
     x="2.5"
     ry="2.1600001"
     rx="2.1600001"
     height="27"
     width="27" />
  <rect
     style="color:#000000;display:inline;overflow:visible;visibility:visible;opacity:0.35;fill:none;stroke:#a62100;stroke-width:1;stroke-linecap:round;stroke-linejoin:round;stroke-miterlimit:4;stroke-dasharray:none;stroke-dashoffset:0;stroke-opacity:1;marker:none;enable-background:accumulate"
     id="rect5505-6"
     y="2.5"
     x="2.5"
     ry="2.1600001"
     rx="2.1600001"
     height="27"
     width="27" />
  <path
     style="color:#000000;display:inline;overflow:visible;visibility:visible;fill:#fff6eb;fill-opacity:1;fill-rule:nonzero;stroke:none;stroke-width:1.00000012px;marker:none;enable-background:accumulate"
     id="path3059-0"
     d="m 16,8 c -3.729468,0 -6.8636442,2.547024 -7.75,6 h 2.09375 C 11.167,11.668833 13.387003,10 16,10 c 1.657475,0 3.133711,0.695187 4.21875,1.78125 L 18,14 h 6 V 8 l -2.34375,2.34375 C 20.208714,8.9003855 18.206602,8 16,8 Z M 8,18 v 6 l 2.34375,-2.34375 C 11.791286,23.099614 13.793398,24 16,24 c 3.729468,0 6.863644,-2.547024 7.75,-6 H 21.65625 C 20.833,20.331167 18.612997,22 16,22 14.342525,22 12.866289,21.304813 11.78125,20.21875 L 14,18 Z" />
</svg>
