<?xml version="1.0" encoding="UTF-8" standalone="no"?>
<svg
   xmlns:dc="http://purl.org/dc/elements/1.1/"
   xmlns:cc="http://creativecommons.org/ns#"
   xmlns:rdf="http://www.w3.org/1999/02/22-rdf-syntax-ns#"
   xmlns:svg="http://www.w3.org/2000/svg"
   xmlns="http://www.w3.org/2000/svg"
   xmlns:sodipodi="http://sodipodi.sourceforge.net/DTD/sodipodi-0.dtd"
   xmlns:inkscape="http://www.inkscape.org/namespaces/inkscape"
   version="1.1"
   width="32"
   height="32"
   id="svg3658"
   sodipodi:docname="system-help.svg"
   inkscape:version="0.92.4 (5da689c313, 2019-01-14)">
  <sodipodi:namedview
     pagecolor="#ffffff"
     bordercolor="#666666"
     borderopacity="1"
     objecttolerance="10"
     gridtolerance="10"
     guidetolerance="10"
     inkscape:pageopacity="0"
     inkscape:pageshadow="2"
     inkscape:window-width="1366"
     inkscape:window-height="697"
     id="namedview27"
     showgrid="false"
     inkscape:zoom="14.75"
     inkscape:cx="0.71214303"
     inkscape:cy="16.815137"
     inkscape:window-x="0"
     inkscape:window-y="0"
     inkscape:window-maximized="1"
     inkscape:current-layer="svg3658" />
  <defs
     id="defs3660" />
  <metadata
     id="metadata3663">
    <rdf:RDF>
      <cc:Work
         rdf:about="">
        <dc:format>image/svg+xml</dc:format>
        <dc:type
           rdf:resource="http://purl.org/dc/dcmitype/StillImage" />
        <dc:title />
      </cc:Work>
    </rdf:RDF>
  </metadata>
  <path
     style="color:#000000;display:inline;overflow:visible;visibility:visible;opacity:0.98999999;fill:#58adf8;fill-opacity:0.99215686;fill-rule:nonzero;stroke:none;stroke-width:0.99999982;marker:none;enable-background:accumulate"
     id="path2555-7-8-5-0-9"
     d="m 15.999999,1.4999997 c -8.000603,0 -14.5,6.4993973 -14.5,14.5000003 0,8.000603 6.499397,14.5 14.5,14.5 C 24.000603,30.5 30.500014,24.000603 30.5,16 30.5,7.999397 24.000603,1.4999997 15.999999,1.4999997 Z" />
  <path
     style="fill:none;fill-opacity:1;stroke:#002e99;stroke-width:0.99999988;stroke-linecap:round;stroke-linejoin:round;stroke-miterlimit:4;stroke-opacity:1;stroke-dasharray:none;stroke-dashoffset:0;opacity:0.35;color:#000000;marker:none;visibility:visible;display:inline;overflow:visible;enable-background:accumulate;font-variant-east_asian:normal;vector-effect:none;clip-rule:nonzero;isolation:auto;mix-blend-mode:normal;color-interpolation:sRGB;color-interpolation-filters:linearRGB;solid-color:#000000;solid-opacity:1;fill-rule:nonzero;filter-blend-mode:normal;filter-gaussianBlur-deviation:0;color-rendering:auto;image-rendering:auto;shape-rendering:auto;text-rendering:auto"
     id="path2555-4"
     d="m 16.000001,1.5017981 c -7.9996071,0 -14.4982031,6.4985937 -14.4982031,14.4982009 0,7.999609 6.498596,14.498206 14.4982031,14.498203 7.999605,0 14.498209,-6.498594 14.498201,-14.498203 0,-7.9996072 -6.498596,-14.4982009 -14.498201,-14.4982009 z" />
  <path
     d="m 16.682829,20.122661 c -0.04956,-1.769071 0.34678,-3.486462 2.018151,-4.702956 1.765395,-1.375776 3.465611,-3.097059 3.285935,-5.126062 -0.03923,-1.9567914 -2.319181,-3.4901499 -4.77566,-3.71062 -2.763139,-0.3827895 -6.106521,0.5638021 -7.032431,2.721707 -0.4695998,1.049531 -0.03413,2.932513 1.541846,2.932513 0.92179,0 1.345172,-0.595451 1.414728,-1.140149 0.05262,-0.412136 -0.116577,-0.780169 -0.2165,-1.1205949 -0.113858,-0.3878945 0.372191,-1.1396748 0.901563,-1.4459788 0.442351,-0.2559554 0.905165,-0.3417809 0.973385,-0.3581767 1.588609,-0.3817838 3.172223,0.4615244 3.832935,1.487935 0.660712,1.0264094 -0.06653,2.5832734 -1.112141,4.0972644 -1.045611,1.51399 -2.167737,3.233575 -2.163254,5.060055 0,0.695342 -0.06195,0.931566 -0.01793,1.212884 0.03517,0.224765 0.779419,0.197603 1.349377,0.09218 z m -0.724992,2.381076 c -1.51896,-0.08246 -2.570293,1.639498 -1.657776,2.736619 0.81492,1.21133 3.099769,0.912304 3.491392,-0.459406 0.407146,-1.066681 -0.572657,-2.295019 -1.833615,-2.277214 l -1e-6,1e-6 z"
     id="path3298"
     style="font-style:normal;font-weight:bold;font-size:72px;font-family:'Standard Symbols L';fill:#ffffff;fill-opacity:1;stroke:none" />
</svg>
