<?xml version="1.0" encoding="UTF-8" standalone="no"?>
<svg
   xmlns:dc="http://purl.org/dc/elements/1.1/"
   xmlns:cc="http://creativecommons.org/ns#"
   xmlns:rdf="http://www.w3.org/1999/02/22-rdf-syntax-ns#"
   xmlns:svg="http://www.w3.org/2000/svg"
   xmlns="http://www.w3.org/2000/svg"
   xmlns:sodipodi="http://sodipodi.sourceforge.net/DTD/sodipodi-0.dtd"
   xmlns:inkscape="http://www.inkscape.org/namespaces/inkscape"
   id="svg4505"
   height="32"
   width="32"
   version="1.1"
   sodipodi:docname="system-os-install.svg"
   inkscape:version="0.92.4 (5da689c313, 2019-01-14)">
  <sodipodi:namedview
     pagecolor="#ffffff"
     bordercolor="#666666"
     borderopacity="1"
     objecttolerance="10"
     gridtolerance="10"
     guidetolerance="10"
     inkscape:pageopacity="0"
     inkscape:pageshadow="2"
     inkscape:window-width="1366"
     inkscape:window-height="697"
     id="namedview49"
     showgrid="false"
     inkscape:zoom="7.375"
     inkscape:cx="-13.781972"
     inkscape:cy="12.868822"
     inkscape:window-x="0"
     inkscape:window-y="0"
     inkscape:window-maximized="1"
     inkscape:current-layer="svg4505" />
  <defs
     id="defs4507" />
  <metadata
     id="metadata4510">
    <rdf:RDF>
      <cc:Work
         rdf:about="">
        <dc:format>image/svg+xml</dc:format>
        <dc:type
           rdf:resource="http://purl.org/dc/dcmitype/StillImage" />
        <dc:title />
      </cc:Work>
    </rdf:RDF>
  </metadata>
  <g
     id="g20"
     transform="matrix(2.2047244,0,0,2.2677151,-2.6666663,-638.31141)"
     style="stroke-width:0.8944552;stroke:#003ac8;stroke-opacity:0.627451;stroke-miterlimit:4;stroke-dasharray:none">
    <rect
       ry="0.49338052"
       y="282.36597"
       x="2.1166666"
       height="12.33472"
       width="12.712687"
       id="rect822"
       style="opacity:1;fill:none;fill-opacity:1;stroke:#003ac8;stroke-width:0.89445519;stroke-miterlimit:4;stroke-dasharray:none;stroke-opacity:0.62745098;paint-order:stroke markers fill" />
  </g>
  <g
     style="stroke:none;stroke-width:0.92584908;stroke-miterlimit:4;stroke-dasharray:none;stroke-opacity:0.62745098"
     transform="matrix(2.2047244,0,0,2.1165341,-2.6666663,-594.69065)"
     id="g876">
    <rect
       style="opacity:1;fill:#7cb2ff;fill-opacity:1;stroke:none;stroke-width:0.92584908;stroke-miterlimit:4;stroke-dasharray:none;stroke-opacity:0.62745098;paint-order:stroke markers fill"
       id="rect870"
       width="12.7"
       height="13.229166"
       x="2.1166666"
       y="281.91876"
       ry="0.52915776" />
    <path
       inkscape:connector-curvature="0"
       style="opacity:0.1;fill:#0000ff;fill-opacity:1;stroke:none;stroke-width:3.49927211;stroke-miterlimit:4;stroke-dasharray:none;stroke-opacity:0.62745098;paint-order:stroke markers fill"
       d="M 10,7 C 8.8920186,7 8,7.8920186 8,9 V 28.068359 A 35.000002,35.000002 0 0 0 40,49 35.000002,35.000002 0 0 0 56,45.119141 V 9 C 56,7.8920186 55.107981,7 54,7 Z"
       id="path872"
       transform="matrix(0.26458333,0,0,0.26458333,0,280.06667)" />
  </g>
  <path
     inkscape:connector-curvature="0"
     style="opacity:1;fill:#ffffff;fill-opacity:1;stroke:none;stroke-width:2.77531552;stroke-miterlimit:4;stroke-dasharray:none;stroke-opacity:0.03821656;paint-order:stroke markers fill"
     d="M 8.978586,5.9862586 A 6.9230771,6.9230771 0 0 0 15.901663,12.909336 6.9230771,6.9230771 0 0 0 22.82474,5.9862586 H 21.093971 A 5.1923083,5.1923083 0 0 1 15.901663,11.178567 5.1923083,5.1923083 0 0 1 10.709355,5.9862586 Z"
     id="path824" />
  <path
     style="opacity:0.8;color:#000000;fill:none;stroke:#000000;stroke-width:1;stroke-linecap:butt;stroke-linejoin:miter;stroke-miterlimit:4;stroke-opacity:0.32173914;stroke-dasharray:none;stroke-dashoffset:0;marker:none;visibility:visible;display:inline;overflow:visible;enable-background:accumulate"
     id="path2555-7"
     d="M 24.000001,16.5 C 19.86176,16.5 16.5,19.861758 16.5,24 c 0,4.138242 3.36176,7.500001 7.500001,7.5 4.138239,0 7.500003,-3.361758 7.499999,-7.5 0,-4.138242 -3.36176,-7.5 -7.499999,-7.5 z" />
  <path
     style="color:#000000;fill:#ffffff;fill-opacity:1;fill-rule:nonzero;stroke:none;stroke-width:1;marker:none;visibility:visible;display:inline;overflow:visible;enable-background:accumulate"
     id="path2555-03"
     d="M 24.000001,17 C 20.137642,17 17,20.137641 17,24 c 0,3.862358 3.137642,7.000001 7.000001,7 3.862357,0 7.000002,-3.137642 6.999999,-7 0,-3.862359 -3.137642,-7 -6.999999,-7 z" />
  <path
     style="color:#000000;fill:#208ae4;fill-opacity:1;fill-rule:nonzero;stroke:none;stroke-width:1;marker:none;visibility:visible;display:inline;overflow:visible;enable-background:accumulate"
     id="rect3005-5"
     d="m 23,20 0,4 -3,0 4,4 4,-4 -3,0 0,-4 z" />
</svg>
