<svg xmlns="http://www.w3.org/2000/svg" width="32" height="32" version="1.0"><path fill="#f5f5f5" stroke="#dbdbdb" d="M7.554 13.5c.238 1.179.146 2.07-.047 3.25-1.502 1.308-5.497 1.896-5.49 3.25L1.5 24.063c0 1.346 3.582 2.437 8 2.437s8-1.091 8-2.437L16.984 20c-.006-1.159-4.024-1.896-5.508-3.25-.126-1.094-.15-2.156.07-3.25z"/><path fill="#fff" stroke="#e5e5e5" d="M9.5 6.5c-1.657 0-3 1.363-3 3.045.013.623.062 1.362.4 3.045.2.653 1.984 2.83 2 3.047.388.218 1 .218 1.4 0 0-.218 1.6-2.394 1.8-3.047.38-1.75.38-2.392.4-3.045 0-1.682-1.343-3.045-3-3.045z"/><path fill="#e6e6e6" stroke="#b8b8b8" d="M17.052 12.5c.312 1.542.585 2.708.332 4.25-1.972 1.71-7.214 2.48-7.207 4.25L9.5 26.313c0 1.76 4.701 3.187 10.5 3.187s10.5-1.427 10.5-3.187L29.823 21c-.009-1.516-5.281-2.48-7.229-4.25-.166-1.431.066-2.819.354-4.25z"/><path fill="#f2f2f2" stroke="#cacaca" d="M20 2.5c-2.485 0-4.5 2-4.5 4.466.02.913.093 1.998.6 4.467.3.957 2.976 3.709 3 4.028.582.319 1.5.319 2.1 0 0-.319 2.4-3.071 2.7-4.028.57-2.566.57-3.51.6-4.467C24.5 4.5 22.485 2.5 20 2.5z"/></svg>