<?xml version="1.0" encoding="UTF-8" standalone="no"?>
<svg
   xmlns:dc="http://purl.org/dc/elements/1.1/"
   xmlns:cc="http://creativecommons.org/ns#"
   xmlns:rdf="http://www.w3.org/1999/02/22-rdf-syntax-ns#"
   xmlns:svg="http://www.w3.org/2000/svg"
   xmlns="http://www.w3.org/2000/svg"
   xmlns:sodipodi="http://sodipodi.sourceforge.net/DTD/sodipodi-0.dtd"
   xmlns:inkscape="http://www.inkscape.org/namespaces/inkscape"
   version="1.0"
   width="32"
   height="32"
   id="svg11300"
   inkscape:version="0.92.4 (5da689c313, 2019-01-14)"
   sodipodi:docname="system-users.svg">
  <sodipodi:namedview
     pagecolor="#ffffff"
     bordercolor="#666666"
     borderopacity="1"
     objecttolerance="10"
     gridtolerance="10"
     guidetolerance="10"
     inkscape:pageopacity="0"
     inkscape:pageshadow="2"
     inkscape:window-width="1366"
     inkscape:window-height="708"
     id="namedview2991"
     showgrid="false"
     inkscape:zoom="14.75"
     inkscape:cx="-0.079071729"
     inkscape:cy="15.865908"
     inkscape:window-x="0"
     inkscape:window-y="34"
     inkscape:window-maximized="1"
     inkscape:current-layer="svg11300" />
  <metadata
     id="metadata55">
    <rdf:RDF>
      <cc:Work
         rdf:about="">
        <dc:format>image/svg+xml</dc:format>
        <dc:type
           rdf:resource="http://purl.org/dc/dcmitype/StillImage" />
      </cc:Work>
    </rdf:RDF>
  </metadata>
  <defs
     id="defs3" />
  <g
     id="g820"
     style="opacity:0.5">
    <path
       inkscape:connector-curvature="0"
       style="fill:#e6e6e6;fill-opacity:1;stroke:#b8b8b8;stroke-width:0.99996251;stroke-miterlimit:4;stroke-dasharray:none;stroke-opacity:1"
       id="path3766-9"
       d="m 7.554,13.499982 c 0.2375296,1.179065 0.1455472,2.070945 -0.047146,3.250008 -1.5022978,1.308063 -5.4965028,1.895841 -5.4907412,3.250011 l -0.516132,4.06251 c 0,1.346197 3.581731,2.437508 8.0000172,2.437508 4.41829,0 8.000019,-1.091311 8.000019,-2.437508 l -0.516131,-4.06251 C 16.977687,18.841014 12.960254,18.10416 11.476382,16.74999 11.349635,15.655638 11.326595,14.594334 11.546,13.499982 Z" />
    <path
       inkscape:connector-curvature="0"
       style="fill:#f2f2f2;fill-opacity:1;stroke:#cacaca;stroke-width:0.99993676;stroke-miterlimit:4;stroke-dasharray:none;stroke-opacity:1"
       id="path3764-0"
       d="m 9.4999999,6.499968 c -1.6568723,0 -3.0000315,1.3633656 -3.0000315,3.045162 0.012987,0.6224 0.061832,1.361788 0.4000042,3.045162 0.2000019,0.652533 1.9839251,2.829197 2.0000213,3.046708 0.3878718,0.217514 1.0000104,0.217514 1.4000141,0 0,-0.217511 1.600015,-2.394175 1.800018,-3.046708 0.380556,-1.749529 0.379595,-2.392628 0.400006,-3.045162 0,-1.6817964 -1.34316,-3.045162 -3.0000321,-3.045162 z" />
  </g>
  <path
     d="m 17.052,12.499986 c 0.311757,1.541852 0.584909,2.708155 0.332,4.250006 -1.971764,1.710542 -7.214153,2.479171 -7.206591,4.250007 l -0.6774226,5.312509 c 0,1.760409 4.7010176,3.187506 10.5000126,3.187506 5.798999,0 10.500015,-1.427097 10.500015,-3.187506 l -0.677422,-5.312509 c -0.0081,-1.515596 -5.281011,-2.47917 -7.228592,-4.250007 -0.166358,-1.431074 0.06603,-2.818931 0.354,-4.250006 z"
     id="path3766"
     style="fill:#e6e6e6;fill-opacity:1;stroke:#b8b8b8;stroke-width:0.99997276;stroke-miterlimit:4;stroke-dasharray:none;stroke-opacity:1"
     inkscape:connector-curvature="0" />
  <path
     d="m 19.999999,2.4998895 c -2.485343,0 -4.50011,1.9996461 -4.50011,4.4663339 0.01948,0.912872 0.09275,1.9973308 0.600015,4.4663346 0.300007,0.95707 2.975929,3.709418 3.000073,4.028442 0.581816,0.319023 1.500037,0.319023 2.100051,0 0,-0.319024 2.400059,-3.071372 2.700066,-4.028442 0.57084,-2.5660315 0.569398,-3.5092631 0.600015,-4.4663346 0,-2.4666878 -2.014767,-4.4663339 -4.50011,-4.4663339 z"
     id="path3764"
     style="fill:#f2f2f2;fill-opacity:1;stroke:#cacaca;stroke-width:0.99977899;stroke-miterlimit:4;stroke-dasharray:none;stroke-opacity:1"
     inkscape:connector-curvature="0" />
</svg>
