<svg xmlns="http://www.w3.org/2000/svg" width="32" height="32"><rect width="28.029" height="27.972" x="2.014" y="2.002" fill="none" stroke="#306600" stroke-opacity=".627" stroke-width="1.999" ry="1.118" style="paint-order:stroke markers fill"/><g stroke-opacity=".627" stroke-width=".926" style="paint-order:stroke markers fill" transform="matrix(2.2047 0 0 2.1165 -2.653 -594.7)"><rect width="12.7" height="13.229" x="2.117" y="281.92" fill="#8bbe43" ry=".529"/><path fill="#fff" d="M2.646 281.92a.528.528 0 0 0-.53.529v5.045a9.26 9.26 0 0 0 8.467 5.538 9.26 9.26 0 0 0 4.234-1.027v-9.556a.528.528 0 0 0-.53-.53z" opacity=".1"/></g><path fill="#fff" d="M8.993 5.972a6.923 6.923 0 0 0 6.923 6.923 6.923 6.923 0 0 0 6.923-6.923h-1.731a5.192 5.192 0 0 1-5.192 5.193 5.192 5.192 0 0 1-5.193-5.193z" style="paint-order:stroke markers fill"/><path fill="#fff" d="M3 24v5h5v-5zm1 1h1v1h1v-1h1v2H6v1H5v-1H4z"/></svg>