<svg xmlns="http://www.w3.org/2000/svg" viewBox="0 0 32 32"><rect width="27" height="27" x="2.5" y="2.5" fill="#8bbe43" color="#000" overflow="visible" rx="2.16" ry="2.16"/><rect width="27" height="27" x="2.5" y="2.5" fill="none" stroke="#1e6600" stroke-linecap="round" stroke-linejoin="round" color="#000" opacity=".35" overflow="visible" rx="2.16" ry="2.16"/><path fill="#fff" d="M16 8a8 8 0 0 0-7.75 6h2.094A5.997 5.997 0 0 1 16 10c1.657 0 3.134.695 4.219 1.781L18 14h6V8l-2.344 2.344A7.996 7.996 0 0 0 16 8zM8 18v6l2.344-2.344A8 8 0 0 0 23.75 18h-2.094A5.997 5.997 0 0 1 16 22c-1.657 0-3.134-.695-4.219-1.781L14 18z" color="#000" overflow="visible"/></svg>