<svg xmlns="http://www.w3.org/2000/svg" width="32" height="32"><linearGradient id="a" x1="16" x2="16" y1="22" y2="6" gradientTransform="translate(0 5)" gradientUnits="userSpaceOnUse"><stop offset="0" stop-color="#73ba25"/><stop offset="1" stop-color="#81c13b"/></linearGradient><linearGradient id="b" x1="16" x2="16" y1="22" y2="6" gradientTransform="translate(0 5)" gradientUnits="userSpaceOnUse"><stop offset="0" stop-color="#173f4f"/><stop offset="1" stop-color="#2f5361"/></linearGradient><linearGradient id="c" x1="16" x2="16" y1="22" y2="6" gradientTransform="translate(0 5)" gradientUnits="userSpaceOnUse"><stop offset="0" stop-color="#35b9ab"/><stop offset="1" stop-color="#4ac0b4"/></linearGradient><g transform="translate(-117.7 -413.07)"><path fill="#e1e3e7" d="M122.7 415.07v28h22v-28z"/><rect width="23" height="29" x="122.2" y="414.57" fill="none" stroke="#000" stroke-opacity=".24" rx=".5" ry=".5"/><g fill="#8c8c8c"><rect width="1" height="1" x="123.7" y="416.07" rx="1" ry="1"/><rect width="1" height="1" x="142.7" y="416.07" rx="1" ry="1"/><rect width="1" height="1" x="142.7" y="441.07" rx="1" ry="1"/><rect width="1" height="1" x="123.7" y="441.07" rx="1" ry="1"/><rect width="1" height="1" x="123.7" y="428.07" rx="1" ry="1"/><rect width="1" height="1" x="142.7" y="428.07" rx="1" ry="1"/></g><path fill="#edeff3" stroke="#cbcdd1" d="m137.3 417.57-9.239 8.892a8.5 8.074 0 0 0-2.867 6.034 8.5 8.074 0 0 0 8.5 8.074 8.5 8.074 0 0 0 8.5-8.074 8.5 8.074 0 0 0-.016-.417.222.222 0 0 0 .016-.073v-14.191a.25.25 0 0 0-.258-.245z"/><rect width="11" height="6" x="126.2" y="418.57" fill="#4c5263" stroke="#323642" rx="1.5" ry="1.5"/><path fill="#e9eaee" d="M127.7 419.74v.667h1.594v-.667zm1.804 0v.667h1.51v-.667zm1.72 0v.667h1.322v-.667zm1.532 0v.667h.588v-.667zm-5.056 1.333v.667h2.538v-.667zm2.79 0v.667h1.217v-.667zm1.448 0v.667h.566v-.667zm-4.238 2v.667h2.811v-.667zm3.02 0v.667h1.473v-.667zm2.313 0v.667h2.667v-.667z"/></g><path fill="url(#a)" d="M16 11a8 8 0 0 0-6.912 3.986L16 18.441l6.908-3.455A8 8 0 0 0 16 11z"/><path fill="url(#b)" d="M8.635 15.877A8 8 0 0 0 8 19a8 8 0 0 0 7.5 7.975v-7.666z"/><path fill="url(#c)" d="m23.357 15.879-6.857 3.43v7.673A8 8 0 0 0 24 19a8 8 0 0 0-.643-3.121z"/></svg>