<svg width="16" height="16" version="1.1" xmlns="http://www.w3.org/2000/svg">
 <path d="m9.4142 0.92893c-0.78347-0.78347-2.045-0.78347-2.8284 0l-5.6569 5.6569c-0.78347 0.78347-0.78347 2.045 0 2.8284l5.6569 5.6569c0.78347 0.78347 2.045 0.78347 2.8284 0l5.6569-5.6569c0.78347-0.78347 0.78347-2.045 0-2.8284zm-0.70711 0.70711 5.6569 5.6569c0.39174 0.39174 0.39174 1.0225 0 1.4142l-5.6569 5.6569c-0.39174 0.39174-1.0225 0.39174-1.4142 0l-5.6569-5.6569c-0.39174-0.39174-0.39174-1.0225 0-1.4142l5.6569-5.6569c0.39174-0.39174 1.0225-0.39174 1.4142 0z" fill="#5d656b" fill-rule="evenodd" stop-color="#000000" style="paint-order:stroke fill markers"/>
 <path d="m8.2949 0.36523-0.55273 0.32031a5 5 0 0 0-0.27148-0.27148c-0.3234 0.08899-0.62971 0.26056-0.88477 0.51562l-0.011719 0.011719a4 4 0 0 1 1.4258 3.0586 4 4 0 0 1-4 4 4 4 0 0 1-3.0586-1.4258l-0.011719 0.011719c-0.25446 0.25446-0.4245 0.56026-0.51367 0.88281a5 5 0 0 0 0.27148 0.27148l-0.32227 0.55664c0.034318 0.22821 0.10693 0.4523 0.2207 0.66016l1.2793 0.73828 0.55664-0.96094a5 5 0 0 0 0.57812 0.15234v1.1133h2v-1.1133a5 5 0 0 0 0.57812-0.15234l0.55664 0.96094 1.7305-1-0.55273-0.95508a5 5 0 0 0 0.42773-0.42773l0.95508 0.55273 1-1.7305-0.96094-0.55664a5 5 0 0 0 0.15234-0.57812h1.1133v-2h-1.1016a5 5 0 0 0-0.1582-0.58398l0.95508-0.55078-0.73828-1.2793c-0.20844-0.11409-0.43324-0.18651-0.66211-0.2207zm-2.4316 1.2871-0.71289 0.71289a2 2 0 0 1 0.84961 1.6348 2 2 0 0 1-2 2 2 2 0 0 1-1.6289-0.85547l-0.71094 0.71094a3 3 0 0 0 2.3398 1.1445 3 3 0 0 0 3-3 3 3 0 0 0-1.1367-2.3477zm5.6367 6.3477v1.0469a3 3 0 0 0-0.54102 0.14844l-0.52539-0.91016-0.86719 0.5 0.52344 0.90625a3 3 0 0 0-0.39844 0.39844l-0.90625-0.52344-0.5 0.86719 0.91016 0.52539a3 3 0 0 0-0.14844 0.54102h-1.0469v1h1.0469a3 3 0 0 0 0.14844 0.54102l-0.91016 0.52539 0.5 0.86719 0.90625-0.52344a3 3 0 0 0 0.39844 0.39844l-0.11719 0.20312 0.87891-0.87891a2 2 0 0 1-0.85156-1.6328 2 2 0 0 1 1-1.7324 2 2 0 0 1 1-0.26758 2 2 0 0 1 1.6367 0.84766l0.87695-0.87695-0.20312 0.11719a3 3 0 0 0-0.39844-0.39844l0.52148-0.9043-0.86719-0.5-0.52148 0.9043a3 3 0 0 0-0.54492-0.14648v-1.043h-1zm0.5 3a1 1 0 0 0-0.70703 0.29297 1 1 0 0 0 0 1.4141l1.4141-1.4141a1 1 0 0 0-0.70703-0.29297z" fill="#5d656b" fill-rule="evenodd" stop-color="#000000" style="paint-order:stroke fill markers"/>
</svg>
