<svg width="48" height="48" version="1.1" xmlns="http://www.w3.org/2000/svg">
 <g transform="translate(0,-1)">
  <rect x="2.5" y="6.5" width="43" height="38" rx="1.5" ry="1.5" color="#000000" fill="#66c2af" overflow="visible"/>
  <path d="m4 6.5c-0.831 0-1.5 0.669-1.5 1.5v4h43v-4c0-0.831-0.669-1.5-1.5-1.5z" opacity=".35"/>
  <rect x="2.5" y="6.5" width="43" height="38" rx="1.5" ry="1.5" color="#000000" fill="none" opacity=".35" overflow="visible" solid-color="#000000" stroke="#005d75" stroke-linecap="round" stroke-linejoin="round" style="isolation:auto;mix-blend-mode:normal"/>
  <path d="m45.5 12v-4c0-0.831-0.669-1.5-1.5-1.5h-40c-0.831 0-1.5 0.669-1.5 1.5v4" color="#000000" fill="none" opacity=".5" overflow="visible" solid-color="#000000" stroke="#111" stroke-linejoin="round" style="isolation:auto;mix-blend-mode:normal"/>
 </g>
 <path d="M29.616 34.263l-5.577-2.896-5.547 2.953 1.03-6.2L15 23.757l6.214-.935 2.753-5.65 2.81 5.621 6.223.872-4.478 4.41z" opacity=".35" paint-order="fill markers stroke"/>
</svg>
