<svg width="48" height="48" version="1.1" xmlns="http://www.w3.org/2000/svg">
 <g transform="translate(0,-1)">
  <rect x="2.5" y="6.5" width="43" height="38" rx="1.5" ry="1.5" color="#000000" fill="#66c2af" overflow="visible"/>
  <path d="m4 6.5c-0.831 0-1.5 0.669-1.5 1.5v4h43v-4c0-0.831-0.669-1.5-1.5-1.5z" opacity=".35"/>
  <rect x="2.5" y="6.5" width="43" height="38" rx="1.5" ry="1.5" color="#000000" fill="none" opacity=".35" overflow="visible" solid-color="#000000" stroke="#005d75" stroke-linecap="round" stroke-linejoin="round" style="isolation:auto;mix-blend-mode:normal"/>
  <path d="m45.5 12v-4c0-0.831-0.669-1.5-1.5-1.5h-40c-0.831 0-1.5 0.669-1.5 1.5v4" color="#000000" fill="none" opacity=".5" overflow="visible" solid-color="#000000" stroke="#111" stroke-linejoin="round" style="isolation:auto;mix-blend-mode:normal"/>
 </g>
 <g transform="matrix(.5 0 0 .5 0 -1)" fill="#fff" stroke-width="2">
  <path d="m12 72h72v10h-72z" opacity=".2"/>
  <rect x="26" y="30" width="44" height="32" rx="3.52" ry="4.023" opacity=".3"/>
  <rect x="32" y="44" width="32" height="10" rx="1.882" ry="1.667" opacity=".75"/>
 </g>
 <path d="m20 23.5a1.25 1.25 0 1 1-2.5 0 1.25 1.25 0 1 1 2.5 0zm3.5 0a1.25 1.25 0 1 1-2.5 0 1.25 1.25 0 1 1 2.5 0zm3.5 0a1.25 1.25 0 1 1-2.5 0 1.25 1.25 0 1 1 2.5 0zm3.5 0a1.25 1.25 0 1 1-2.5 0 1.25 1.25 0 1 1 2.5 0z" opacity=".5"/>
 <g transform="translate(0,-1)" fill="#fff" stroke-width="2">
  <path d="m16.274 17.825a0.552 0.552 0 0 1-0.036 0.201 0.438 0.438 0 0 1-0.106 0.161 0.504 0.504 0 0 1-0.177 0.108 0.707 0.707 0 0 1-0.248 0.04h-0.484v0.642h-0.223v-1.648h0.693c0.098 0 0.183 0.012 0.255 0.037a0.491 0.491 0 0 1 0.182 0.1 0.403 0.403 0 0 1 0.108 0.157c0.024 0.06 0.037 0.128 0.037 0.202m-0.225 2e-3c0-0.104-0.032-0.183-0.096-0.237-0.064-0.055-0.16-0.082-0.287-0.082h-0.444v0.65h0.453c0.129 0 0.223-0.028 0.283-0.085s0.091-0.139 0.091-0.246m0.837 1.173c-0.127 0-0.223-0.034-0.286-0.1a0.383 0.383 0 0 1-0.096-0.276 0.4 0.4 0 0 1 0.046-0.205 0.356 0.356 0 0 1 0.124-0.126 0.522 0.522 0 0 1 0.176-0.063c0.065-0.012 0.132-0.019 0.2-0.02l0.284-5e-3v-0.069a0.472 0.472 0 0 0-0.017-0.133 0.206 0.206 0 0 0-0.05-0.09 0.197 0.197 0 0 0-0.085-0.048 0.387 0.387 0 0 0-0.12-0.017 0.588 0.588 0 0 0-0.11 0.01 0.223 0.223 0 0 0-0.085 0.031 0.166 0.166 0 0 0-0.058 0.062 0.256 0.256 0 0 0-0.03 0.098l-0.22-0.02a0.434 0.434 0 0 1 0.045-0.136 0.324 0.324 0 0 1 0.093-0.109c0.04-0.03 0.09-0.054 0.15-0.07a0.818 0.818 0 0 1 0.22-0.026c0.16 0 0.279 0.037 0.36 0.11 0.08 0.073 0.12 0.178 0.12 0.316v0.545c0 0.062 8e-3 0.11 0.024 0.141s0.048 0.047 0.094 0.047a0.267 0.267 0 0 0 0.069-8e-3v0.13a0.709 0.709 0 0 1-0.163 0.02 0.311 0.311 0 0 1-0.103-0.016 0.17 0.17 0 0 1-0.069-0.048 0.226 0.226 0 0 1-0.04-0.08 0.495 0.495 0 0 1-0.018-0.11h-7e-3a0.715 0.715 0 0 1-0.075 0.11 0.402 0.402 0 0 1-0.216 0.136 0.591 0.591 0 0 1-0.157 0.019m0.048-0.158a0.387 0.387 0 0 0 0.375-0.256 0.381 0.381 0 0 0 0.025-0.13v-0.104l-0.23 5e-3c-0.052 0-0.101 5e-3 -0.148 0.012a0.343 0.343 0 0 0-0.121 0.038 0.223 0.223 0 0 0-0.085 0.082 0.274 0.274 0 0 0-0.03 0.138c0 0.069 0.018 0.122 0.055 0.159s0.09 0.056 0.159 0.056m1.911-0.215a0.35 0.35 0 0 1-0.035 0.159 0.317 0.317 0 0 1-0.099 0.117 0.497 0.497 0 0 1-0.161 0.072 1.03 1.03 0 0 1-0.416 7e-3 0.503 0.503 0 0 1-0.155-0.054 0.363 0.363 0 0 1-0.112-0.098 0.425 0.425 0 0 1-0.065-0.15l0.185-0.037a0.232 0.232 0 0 0 0.111 0.15 0.485 0.485 0 0 0 0.234 0.047 0.754 0.754 0 0 0 0.124-0.01 0.31 0.31 0 0 0 0.098-0.031 0.17 0.17 0 0 0 0.064-0.061 0.18 0.18 0 0 0 0.023-0.095 0.153 0.153 0 0 0-0.027-0.093 0.205 0.205 0 0 0-0.075-0.062 0.561 0.561 0 0 0-0.117-0.042 38.293 38.293 0 0 0-0.15-0.041c-0.05-0.014-0.1-0.028-0.15-0.045a0.573 0.573 0 0 1-0.136-0.064 0.34 0.34 0 0 1-0.097-0.1 0.277 0.277 0 0 1-0.037-0.15c0-0.116 0.04-0.203 0.123-0.263 0.082-0.061 0.202-0.091 0.36-0.091 0.14 0 0.25 0.024 0.332 0.073 0.082 0.05 0.134 0.128 0.156 0.236l-0.19 0.024a0.182 0.182 0 0 0-0.038-0.082 0.207 0.207 0 0 0-0.067-0.054 0.291 0.291 0 0 0-0.09-0.03 0.55 0.55 0 0 0-0.103-9e-3 0.4 0.4 0 0 0-0.21 0.044 0.145 0.145 0 0 0-0.069 0.13c0 0.035 9e-3 0.063 0.025 0.086 0.017 0.022 0.04 0.04 0.07 0.056 0.03 0.015 0.067 0.028 0.109 0.04l0.139 0.035 0.103 0.028a0.746 0.746 0 0 1 0.195 0.083 0.292 0.292 0 0 1 0.129 0.155 0.33 0.33 0 0 1 0.02 0.12m1.197 0a0.35 0.35 0 0 1-0.036 0.159 0.317 0.317 0 0 1-0.099 0.117 0.497 0.497 0 0 1-0.161 0.072 1.03 1.03 0 0 1-0.416 7e-3 0.503 0.503 0 0 1-0.155-0.054 0.363 0.363 0 0 1-0.112-0.098 0.425 0.425 0 0 1-0.065-0.15l0.185-0.037a0.232 0.232 0 0 0 0.111 0.15 0.485 0.485 0 0 0 0.234 0.047 0.754 0.754 0 0 0 0.124-0.01 0.31 0.31 0 0 0 0.098-0.031 0.17 0.17 0 0 0 0.064-0.061 0.18 0.18 0 0 0 0.023-0.095 0.153 0.153 0 0 0-0.027-0.093 0.205 0.205 0 0 0-0.075-0.062 0.561 0.561 0 0 0-0.117-0.042 38.293 38.293 0 0 0-0.15-0.041c-0.05-0.014-0.1-0.028-0.15-0.045a0.572 0.572 0 0 1-0.136-0.064 0.34 0.34 0 0 1-0.097-0.1 0.277 0.277 0 0 1-0.037-0.15c0-0.116 0.04-0.203 0.123-0.263 0.082-0.061 0.202-0.091 0.36-0.091 0.14 0 0.25 0.024 0.332 0.073 0.082 0.05 0.134 0.128 0.156 0.236l-0.19 0.024a0.182 0.182 0 0 0-0.038-0.082 0.207 0.207 0 0 0-0.067-0.054 0.291 0.291 0 0 0-0.09-0.03 0.55 0.55 0 0 0-0.103-9e-3 0.4 0.4 0 0 0-0.21 0.044 0.145 0.145 0 0 0-0.069 0.13c0 0.035 9e-3 0.063 0.025 0.086 0.017 0.022 0.04 0.04 0.07 0.056 0.03 0.015 0.067 0.028 0.109 0.04l0.139 0.035 0.103 0.028a0.746 0.746 0 0 1 0.195 0.083 0.292 0.292 0 0 1 0.129 0.155 0.33 0.33 0 0 1 0.02 0.12m1.459 0.35h-0.245l-0.202-0.816a1.244 1.244 0 0 1-0.039-0.17 3.17 3.17 0 0 1-0.022-0.106 4.072 4.072 0 0 1-0.043 0.196l-0.02 0.084-0.208 0.812h-0.243l-0.354-1.265h0.208l0.214 0.859 0.016 0.066a12.264 12.264 0 0 0 0.034 0.165 2.367 2.367 0 0 1 0.038-0.16l0.017-0.062 0.229-0.868h0.226l0.22 0.868a2.856 2.856 0 0 1 0.036 0.142l0.018 0.08a7.92 7.92 0 0 1 0.053-0.231l0.223-0.86h0.206l-0.362 1.266m1.588-0.634c0 0.221-0.048 0.386-0.146 0.495-0.097 0.108-0.239 0.162-0.424 0.162a0.658 0.658 0 0 1-0.236-0.04 0.444 0.444 0 0 1-0.177-0.121 0.564 0.564 0 0 1-0.11-0.205 1.012 1.012 0 0 1-0.037-0.291c0-0.436 0.189-0.655 0.567-0.655 0.098 0 0.183 0.014 0.254 0.041s0.13 0.068 0.175 0.123a0.52 0.52 0 0 1 0.102 0.205c0.022 0.081 0.032 0.177 0.032 0.286m-0.22 0c0-0.098-8e-3 -0.18-0.024-0.243a0.392 0.392 0 0 0-0.067-0.153 0.225 0.225 0 0 0-0.106-0.08 0.409 0.409 0 0 0-0.143-0.023 0.414 0.414 0 0 0-0.146 0.024 0.244 0.244 0 0 0-0.11 0.082 0.405 0.405 0 0 0-0.07 0.153 1.032 1.032 0 0 0-0.023 0.24c0 0.098 8e-3 0.18 0.026 0.244a0.43 0.43 0 0 0 0.07 0.153 0.25 0.25 0 0 0 0.106 0.081 0.453 0.453 0 0 0 0.28 1e-3 0.246 0.246 0 0 0 0.112-0.08 0.405 0.405 0 0 0 0.07-0.155c0.016-0.064 0.025-0.146 0.025-0.244m0.488 0.634v-0.97a2.896 2.896 0 0 0-2e-3 -0.162l-3e-3 -0.073-2e-3 -0.06h0.199a6.173 6.173 0 0 1 6e-3 0.132 1.097 1.097 0 0 1 3e-3 0.126h5e-3a0.971 0.971 0 0 1 0.047-0.125 0.315 0.315 0 0 1 0.06-0.088 0.205 0.205 0 0 1 0.08-0.051 0.324 0.324 0 0 1 0.162-0.013 0.343 0.343 0 0 1 0.037 7e-3v0.193a0.51 0.51 0 0 0-0.112-0.012c-0.049 0-0.09 0.011-0.125 0.033a0.255 0.255 0 0 0-0.083 0.091 0.463 0.463 0 0 0-0.046 0.138 0.93 0.93 0 0 0-0.016 0.174v0.66h-0.21m1.594-0.204a0.373 0.373 0 0 1-0.156 0.174 0.49 0.49 0 0 1-0.238 0.053c-0.16 0-0.278-0.054-0.354-0.162-0.074-0.107-0.112-0.27-0.112-0.488 0-0.441 0.155-0.662 0.466-0.662 0.095 0 0.175 0.018 0.24 0.053a0.38 0.38 0 0 1 0.154 0.167h2e-3l-1e-3 -0.036-1e-3 -0.053a460.79 460.79 0 0 1 0-0.088v-0.49h0.21v1.475a1280.9 1280.9 0 0 0 2e-3 0.165 5.093 5.093 0 0 0 5e-3 0.095h-0.201a0.427 0.427 0 0 1-8e-3 -0.083l-3e-3 -0.058a1.63 1.63 0 0 1 0-0.062h-5e-3m-0.639-0.43c0 0.087 6e-3 0.162 0.016 0.224 0.011 0.063 0.029 0.114 0.053 0.155 0.024 0.04 0.055 0.069 0.092 0.087a0.303 0.303 0 0 0 0.137 0.029 0.37 0.37 0 0 0 0.146-0.027 0.243 0.243 0 0 0 0.107-0.087 0.44 0.44 0 0 0 0.065-0.158c0.015-0.064 0.022-0.143 0.022-0.237a0.987 0.987 0 0 0-0.022-0.227 0.403 0.403 0 0 0-0.065-0.15 0.241 0.241 0 0 0-0.107-0.082 0.373 0.373 0 0 0-0.277 0 0.225 0.225 0 0 0-0.093 0.087 0.458 0.458 0 0 0-0.056 0.156c-0.012 0.063-0.018 0.14-0.018 0.23m1.895-0.39v-0.242h0.227v0.242h-0.228m0 1.023v-0.242h0.228v0.242h-0.228"/>
 </g>
</svg>
