<svg width="48" height="48" version="1.0" xmlns="http://www.w3.org/2000/svg" xmlns:xlink="http://www.w3.org/1999/xlink">
 <rect x="5.001" y="5.002" width="38.029" height="37.972" ry="1.5177" fill="none" opacity=".75" stroke="#1a6e63" stroke-width="1.9998" style="paint-order:stroke markers fill"/>
 <g transform="matrix(2.9914 0 0 2.8732 -1.3318 -805.02)" stroke-opacity=".627" stroke-width=".682" style="paint-order:stroke markers fill">
  <rect x="2.121" y="281.92" width="12.703" height="13.226" ry=".529" fill="#31cfa8"/>
  <path d="m2.646 281.92a0.528 0.528 0 0 0-0.53 0.529v5.045a9.26 9.26 0 0 0 8.467 5.538 9.26 9.26 0 0 0 4.234-1.027v-9.556a0.528 0.528 0 0 0-0.53-0.53z" fill="#005574" opacity=".1"/>
 </g>
 <path d="m14.468 10.392a9.393 9.398 0 0 0 9.394 9.398 9.393 9.398 0 0 0 9.393-9.398h-2.348a7.045 7.048 0 0 1-7.045 7.049 7.045 7.048 0 0 1-7.045-7.049z" fill="#fff" style="paint-order:stroke markers fill"/>
 <path d="M37 28c-4.966 0-9 4.034-9 9s4.034 9 9 9 9-4.034 9-9-4.034-9-9-9zm0 7c1.104 0 2 .896 2 2s-.896 2-2 2-2-.896-2-2 .896-2 2-2z" fill="#fff" overflow="visible" stroke="#2f6871" stroke-opacity=".322"/>
 <path d="m37 32a5 5 0 0 0-5 5 5 5 0 0 0 5 5 5 5 0 0 0 5-5 5 5 0 0 0-5-5zm0 3a2 2 0 0 1 2 2 2 2 0 0 1-2 2 2 2 0 0 1-2-2 2 2 0 0 1 2-2z" fill="#377d89" fill-rule="evenodd" opacity=".5" paint-order="fill markers stroke"/>
</svg>
