<svg width="48" height="48" version="1.0" xmlns="http://www.w3.org/2000/svg">
 <rect transform="matrix(2.9914 0 0 3.0784 -1.346 -864.22)" x="2.117" y="282.37" width="12.713" height="12.335" ry=".493" fill="none" opacity=".75" stroke="#1a6e63" stroke-width=".659" paint-order="stroke markers fill"/>
 <g transform="matrix(2.9914 0 0 2.8732 -1.346 -805)" stroke-opacity=".627" stroke-width=".682" paint-order="stroke markers fill">
  <rect x="2.121" y="281.92" width="12.703" height="13.226" ry=".529" fill="#31cfa8"/>
  <path d="M2.646 281.919a.528.528 0 0 0-.53.529v5.045a9.26 9.26 0 0 0 8.467 5.538 9.26 9.26 0 0 0 4.234-1.027v-9.556a.528.528 0 0 0-.53-.53z" fill="#005574" opacity=".1"/>
 </g>
 <path d="m14.454 10.406a9.393 9.398 0 0 0 9.394 9.398 9.393 9.398 0 0 0 9.393-9.398h-2.348a7.045 7.048 0 0 1-7.045 7.049 7.045 7.048 0 0 1-7.045-7.049z" fill="#fff" paint-order="stroke markers fill"/>
 <path d="m37 28c-4.966 0-9 4.034-9 9s4.034 9 9 9 9-4.034 9-9-4.034-9-9-9z" fill="#fff" overflow="visible" stroke="#2f5271" stroke-opacity=".322"/>
 <path d="M36.5 31c-.277 0-.5.223-.5.5v1.125c-.503.114-.967.31-1.39.578l-.798-.797a.494.494 0 0 0-.703 0l-.703.703a.494.494 0 0 0 0 .703l.797.797A4.436 4.436 0 0 0 32.625 36H31.5c-.277 0-.5.223-.5.5v1c0 .277.223.5.5.5h1.125c.114.503.31.967.578 1.39l-.797.797a.494.494 0 0 0 0 .704l.703.703a.494.494 0 0 0 .703 0l.797-.797c.424.267.888.464 1.391.578V42.5c0 .277.223.5.5.5h1c.277 0 .5-.223.5-.5v-1.125c.503-.114.967-.31 1.39-.578l.797.797a.494.494 0 0 0 .704 0l.703-.703a.494.494 0 0 0 0-.703l-.797-.797c.267-.424.464-.888.578-1.391H42.5c.277 0 .5-.223.5-.5v-1c0-.277-.223-.5-.5-.5h-1.125a4.436 4.436 0 0 0-.578-1.39l.797-.797a.494.494 0 0 0 0-.704l-.703-.703a.494.494 0 0 0-.704 0l-.796.797A4.436 4.436 0 0 0 38 32.625V31.5c0-.277-.223-.5-.5-.5zm.5 4a2 2 0 1 1-.001 4.001A2 2 0 0 1 37 35z" fill="#81aeb1" overflow="visible"/>
</svg>
