<svg width="24" height="24" version="1.1" xmlns="http://www.w3.org/2000/svg">
 <defs>
  <style id="current-color-scheme" type="text/css"/>
 </defs>
 <g transform="translate(1.0008 -.99986)">
  <path d="m12.106 3.9091c-4.6314 0-8.4434 3.1695-8.8601 7.793h-2.2461l3.3168 4.3288 3.3185-4.3288h-2.1662c0.40977-3.3708 3.2302-5.5344 6.6371-5.5344 3.6885 0 6.6815 3.061 6.6815 6.8324s-2.993 6.8324-6.6815 6.8324c-2.0012 0-3.7981-0.90292-5.0231-2.3295l-1.6246 1.5394c1.6295 1.8733 4.0044 3.0487 6.6477 3.0487 4.9095 0 8.8938-4.0727 8.8938-9.0909s-3.9844-9.0909-8.8938-9.0909zm-0.27876 3.4641-0.83452 6.06 4.1673 3.4641v-0.86648l-2.5-3.4641v-5.1935z" color="#000000" fill="#5c7a74" opacity=".65"/>
 </g>
</svg>
