<svg width="24" height="24" version="1.1" xmlns="http://www.w3.org/2000/svg">
 <defs>
  <style id="current-color-scheme" type="text/css"/>
 </defs>
 <g transform="translate(1.0008 -.99986)">
  <path d="m12.105 2.9082c-4.7584 0-8.7064 3.1942-9.5918 7.793h-3.5391l5.3418 6.9746 5.3457-6.9746h-2.8477c0.6241-1.7851 2.0777-2.961 4.0039-3.334l-0.89258 6.4805 4.9687 4.1309c-0.83604 0.49454-1.7544 0.85352-2.7891 0.85352-1.7004 0-3.2177-0.76232-4.2637-1.9805l-0.68359-0.79687-3.084 2.9199 0.62891 0.72461c1.8094 2.08 4.4625 3.3926 7.4023 3.3926 5.4625 0 9.8945-4.5443 9.8945-10.092 0-5.5475-4.432-10.092-9.8945-10.092zm0 1c4.9095 0 8.8945 4.0736 8.8945 9.0918s-3.9851 9.0918-8.8945 9.0918c-2.6434 0-5.0169-1.1756-6.6465-3.0488l1.625-1.541c1.225 1.4266 3.0203 2.3301 5.0215 2.3301 3.6885 0 6.6816-3.0607 6.6816-6.832 0-3.7714-2.9932-6.832-6.6816-6.832-3.4069-1e-7 -6.2269 2.1624-6.6367 5.5332h2.166l-3.3184 4.3301-3.3164-4.3301h2.2461c0.41664-4.6235 4.228-7.793 8.8594-7.793zm-0.27734 3.4648h0.83203v5.1934l2.5 3.4648v0.86523l-4.168-3.4629 0.83594-6.0605zm1.832 0.11523c2.3635 0.70122 4.127 2.8394 4.127 5.5117 0 1.5964-0.62603 3.0273-1.627 4.0762v-1.3691l-2.5-3.4629z" color="#000000" color-rendering="auto" dominant-baseline="auto" fill="#252f2d" image-rendering="auto" opacity=".65" shape-rendering="auto" solid-color="#000000" style="font-feature-settings:normal;font-variant-alternates:normal;font-variant-caps:normal;font-variant-ligatures:normal;font-variant-numeric:normal;font-variant-position:normal;isolation:auto;mix-blend-mode:normal;shape-padding:0;text-decoration-color:#000000;text-decoration-line:none;text-decoration-style:solid;text-indent:0;text-orientation:mixed;text-transform:none;white-space:normal"/>
  <path d="m12.106 3.9091c-4.6314 0-8.4434 3.1695-8.8601 7.793h-2.2461l3.3168 4.3288 3.3185-4.3288h-2.1662c0.40977-3.3708 3.2302-5.5344 6.6371-5.5344 3.6885 0 6.6815 3.061 6.6815 6.8324s-2.993 6.8324-6.6815 6.8324c-2.0012 0-3.7981-0.90292-5.0231-2.3295l-1.6246 1.5394c1.6295 1.8733 4.0044 3.0487 6.6477 3.0487 4.9095 0 8.8938-4.0727 8.8938-9.0909s-3.9844-9.0909-8.8938-9.0909zm-0.27876 3.4641-0.83452 6.06 4.1673 3.4641v-0.86648l-2.5-3.4641v-5.1935z" color="#000000" fill="#5c7a74" opacity=".65"/>
 </g>
</svg>
