<svg width="64" height="64" version="1.1" viewBox="0 0 16.933 16.933" xmlns="http://www.w3.org/2000/svg" xmlns:xlink="http://www.w3.org/1999/xlink">
 <defs>
  <clipPath id="b">
   <rect transform="rotate(45)" x=".529" y="285.36" width="15.875" height="9.525" ry=".529" fill="#5294e2" stroke-opacity=".196" stroke-width=".251" paint-order="markers stroke fill"/>
  </clipPath>
  <linearGradient id="c" x1="-197.1" x2="-196.91" y1="217.68" y2="219.36" gradientUnits="userSpaceOnUse">
   <stop offset="0"/>
   <stop stop-opacity="0" offset="1"/>
  </linearGradient>
 </defs>
 <g transform="translate(0 -280.07)">
  <path d="M3.44 282.448c-.294 0-.395.269-.53.53H1.852c-.265 0-.265.264-.265.264v5.556c0 .293.237.53.53.53h12.7a.529.529 0 0 0 .529-.53v-5.556c0-.265-.265-.265-.265-.265H7.673c-.155-.249-.236-.53-.53-.53z" fill="#fff" stroke="#000" stroke-opacity=".255" stroke-width=".529" paint-order="markers stroke fill"/>
  <path d="M3.44 282.448c-.294 0-.395.269-.53.53H1.852c-.265 0-.265.264-.265.264v5.556c0 .293.237.53.53.53h12.7a.529.529 0 0 0 .529-.53v-5.556c0-.265-.265-.265-.265-.265H7.673c-.155-.249-.236-.53-.53-.53z" fill="#fff" paint-order="markers stroke fill"/>
  <path d="M8.467 286.681c-.293 0-.382.276-.53.53l-.154.264H.793c-.264 0-.264.265-.264.265v6.879s0 .264.265.264H16.14s.264 0 .264-.264v-7.673c0-.265-.264-.265-.264-.265z" fill="#5294e2" stroke="#003579" stroke-opacity=".561" stroke-width=".529" paint-order="markers stroke fill"/>
  <path d="M8.467 286.681c-.293 0-.382.276-.53.53l-.154.264H.793c-.264 0-.264.265-.264.265v6.879s0 .264.265.264H16.14s.264 0 .264-.264v-7.673c0-.265-.264-.265-.264-.265z" fill="#6ba4e7" paint-order="markers stroke fill"/>
  <rect transform="rotate(-45)" x="-199.59" y="217.87" width="5.292" height="4.762" ry=".132" clip-path="url(#b)" fill="url(#c)" opacity=".1" paint-order="stroke markers fill"/>
 </g>
</svg>
