<svg width="16" height="16" version="1.1" xmlns="http://www.w3.org/2000/svg">
 <defs>
  <style id="current-color-scheme" type="text/css"/>
 </defs>
 <g transform="translate(-1447 -240)">
  <path d="m1447 240h16v16h-16z" fill="none" fill-opacity=".327" opacity=".75"/>
  <path d="m1459.6 255.5-4.588-3.225-4.586 3.226 1.469-5.632-4.384-3.274h5.294l2.206-6.094 2.206 6.094h5.294l-4.382 3.273z" fill="none" stroke="#d3dae3" stroke-linecap="round" stroke-linejoin="round"/>
  <path d="M1455.002 241.807l-1.794 4.957a.441.469 0 0 1-.412.3h-3.9l3.243 2.423a.441.469 0 0 1 .17.509l-1.152 4.424 3.602-2.534a.441.469 0 0 1 .487 0l3.604 2.532-1.155-4.424a.441.469 0 0 1 .17-.509l3.242-2.42h-3.9a.441.469 0 0 1-.411-.301z" fill="#d3dae3" opacity=".25" stroke-linecap="round" stroke-linejoin="round"/>
 </g>
</svg>
