<svg width="16" height="16" version="1.1" xmlns="http://www.w3.org/2000/svg">
 <defs>
  <style id="current-color-scheme" type="text/css">
   .ColorScheme-Text { color:#d3dae3; } .ColorScheme-Highlight { color:#5294e2; }
  </style>
 </defs>
 <path d="m5 1v7h6v-7zm0 8v5h6v-5z" style="fill:currentColor" class="ColorScheme-Text" opacity=".25"/>
 <path d="m2 0v15h12v-15zm1 1h1v1h-1zm2 0h6v7h-6zm7 0h1v1h-1zm-9 2h1v1h-1zm9 0h1v1h-1zm-9 2h1v1h-1zm9 0h1v1h-1zm-9 2h1v1h-1zm9 0h1v1h-1zm-9 2h1v1h-1zm2 0h6v5h-6zm7 0h1v1h-1zm-9 2h1v1h-1zm9 0h1v1h-1zm-9 2h1v1h-1zm9 0h1v1h-1z" style="fill:currentColor" class="ColorScheme-Text"/>
</svg>
