<svg width="16" height="16" version="1.1" xmlns="http://www.w3.org/2000/svg" xmlns:xlink="http://www.w3.org/1999/xlink">
 <defs>
  <style id="current-color-scheme" type="text/css">.ColorScheme-Text { color:#d3dae3; } .ColorScheme-Highlight { color:#5294e2; }</style>
 </defs>
 <path class="ColorScheme-Text" d="m8.0005 1.1774e-4c-4.4143 0-8.0001 3.5855-8.0001 8 0 4.4137 3.5858 8 8.0001 8s8.0001-3.5862 8.0001-8c0-4.4144-3.5858-8-8.0001-8z" fill="currentColor" opacity=".25"/>
 <g class="ColorScheme-Text" fill="currentColor">
  <path d="m8.0898 0.4043a0.50015 0.50015 0 1 0 0.0039062 1c0.59403-0.0028099 1.149 0.45944 1.6328 1.4043 0.48384 0.94485 0.83005 2.3036 0.97461 3.7676 0.28911 2.9279-0.2809 6.2723-1.6191 7.6895a0.50015 0.50015 0 1 0 0.72656 0.6875c1.7428-1.8456 2.1961-5.3616 1.8887-8.4746-0.1537-1.5565-0.50986-3.0134-1.0801-4.127-0.57021-1.1135-1.4206-1.9525-2.5273-1.9473z" opacity=".35"/>
  <path d="m9.5215 13.225c-0.27916 0-0.56606 0.09245-0.79492 0.29688-0.22887 0.20442-0.37691 0.52951-0.375 0.87891 0.00189 0.3465 0.15086 0.66913 0.37891 0.87109 0.22804 0.20196 0.51348 0.29102 0.79102 0.29102s0.56102-0.08905 0.78906-0.29102c0.22804-0.20196 0.37701-0.52459 0.37891-0.87109 0.0019-0.3494-0.14613-0.67448-0.375-0.87891-0.22887-0.20442-0.51381-0.29688-0.79297-0.29688z"/>
  <path d="m2.5273 3.6426a0.50015 0.50015 0 0 0-0.47852 0.4707c-0.09073 1.257 0.43436 2.598 1.2559 3.8965 0.82149 1.2985 1.9564 2.556 3.1855 3.5996s2.5475 1.8739 3.7754 2.2949c1.2279 0.42099 2.4656 0.43748 3.2734-0.37109a0.50015 0.50015 0 1 0-0.70703-0.70703c-0.43829 0.4387-1.193 0.49256-2.2422 0.13281-1.0492-0.35974-2.2934-1.1283-3.4512-2.1113-1.1578-0.98305-2.2342-2.1791-2.9883-3.3711-0.75413-1.192-1.1696-2.3778-1.1035-3.293a0.50015 0.50015 0 0 0-0.51953-0.54102z" opacity=".35"/>
  <path d="m2.5801 3.2129c-0.27916 0-0.5641 0.0905-0.79297 0.29492s-0.37691 0.53146-0.375 0.88086c0.00189 0.3465 0.15086 0.66718 0.37891 0.86914 0.22804 0.20196 0.51152 0.29297 0.78906 0.29297s0.56297-0.091006 0.79102-0.29297c0.22804-0.20196 0.37701-0.52264 0.37891-0.86914 0.0019098-0.3494-0.14613-0.67644-0.375-0.88086s-0.51576-0.29492-0.79492-0.29492z"/>
  <path d="m12.416 2.1152c-0.48737-0.11045-1.0338-0.087092-1.5801 0.037109-1.0926 0.2484-2.2866 0.86773-3.457 1.7129-2.3408 1.6903-4.5835 4.2764-5.2461 6.873a0.50015 0.50015 0 1 0 0.96875 0.24805c0.56441-2.2117 2.6764-4.7314 4.8633-6.3105 1.0935-0.78959 2.2044-1.3447 3.0938-1.5469 0.8894-0.20221 1.4562-0.081402 1.791 0.35938a0.5004 0.5004 0 1 0 0.79688-0.60547c-0.3136-0.41285-0.7431-0.65713-1.2305-0.76758z" opacity=".35"/>
  <path d="m2.5352 10.146c-0.35639-0.01154-0.69392 0.13231-0.9043 0.36328-0.21037 0.23097-0.30273 0.52158-0.30273 0.80469s0.092362 0.57372 0.30273 0.80469c0.21037 0.23097 0.5479 0.37482 0.9043 0.36328 0.33928-0.01099 0.65183-0.16257 0.84766-0.38867s0.2832-0.5058 0.2832-0.7793-0.087375-0.5532-0.2832-0.7793c-0.19583-0.2261-0.50838-0.37769-0.84766-0.38867z"/>
  <path d="m5.9121 4.5645c-1.4886 0.20286-2.8483 0.59409-3.8633 1.1875-1.0149 0.59341-1.7438 1.4777-1.6309 2.5449a0.50083 0.50083 0 1 0 0.99609-0.10547c-0.060534-0.57215 0.30114-1.0853 1.1406-1.5762 0.83949-0.49082 2.0971-0.87043 3.4922-1.0605 2.7902-0.38023 6.1296 0.022845 7.8848 1.2832a0.5003 0.5003 0 1 0 0.58398-0.8125c-2.1379-1.5352-5.6263-1.8667-8.6035-1.4609z" opacity=".35"/>
  <path d="m14.35 5.3926c-0.27762 0-0.5629 0.090948-0.79102 0.29297-0.22811 0.20202-0.37701 0.52448-0.37891 0.87109-0.0019 0.34951 0.14607 0.67638 0.375 0.88086s0.51567 0.29492 0.79492 0.29492 0.56404-0.090442 0.79297-0.29492c0.22893-0.20448 0.37691-0.53135 0.375-0.88086-0.0019-0.34662-0.1508-0.66907-0.37891-0.87109s-0.51144-0.29297-0.78906-0.29297z"/>
 </g>
</svg>
