<svg width="16" height="16" version="1.1" xmlns="http://www.w3.org/2000/svg">
 <defs>
  <style id="current-color-scheme" type="text/css"/>
 </defs>
 <path d="m2.817 0.5h10.367c0.287 0 0.43 0.398 0.518 0.839l0.467 2.322c0.089 0.441-0.231 0.839-0.518 0.839h-11.301c-0.288 0-0.608-0.398-0.52-0.839l0.467-2.322c0.09-0.441 0.233-0.839 0.52-0.839z" fill="none" stroke="#d3dae3"/>
 <g fill="#d3dae3">
  <path d="m14.145 4.5-1.11 10.512c-0.029 0.27-0.23 0.49-0.517 0.49h-9.035c-0.286 0-0.489-0.22-0.517-0.49l-1.11-10.512z" fill-opacity=".25098" stroke="#d3dae3"/>
  <path d="m7.9297 0.5-5.0781 0.45117a0.50002 0.50002 0 0 0-0.45508 0.54492l0.27734 3.0039h0.56055l-0.27734-2.998 5.2734-0.46875 0.32031 3.4668h0.55859l-0.33008-3.5742a0.50002 0.50002 0 0 0-0.33008-0.42578h-0.51953z" color="#000000" color-rendering="auto" dominant-baseline="auto" image-rendering="auto" shape-rendering="auto" solid-color="#000000" style="font-feature-settings:normal;font-variant-alternates:normal;font-variant-caps:normal;font-variant-ligatures:normal;font-variant-numeric:normal;font-variant-position:normal;isolation:auto;mix-blend-mode:normal;shape-padding:0;text-decoration-color:#000000;text-decoration-line:none;text-decoration-style:solid;text-indent:0;text-orientation:mixed;text-transform:none;white-space:normal"/>
  <g shape-rendering="auto">
   <path d="m7.5586 0.5a0.50002 0.50002 0 0 0-0.33594 0.42188l-0.35742 3.5781h0.56055l0.3457-3.4648 5.2715 0.50586-0.29688 2.959h0.56055l0.29492-2.9609a0.50002 0.50002 0 0 0-0.44922-0.54688l-5.1211-0.49219h-0.47266z" color="#000000" color-rendering="auto" dominant-baseline="auto" image-rendering="auto" solid-color="#000000" style="font-feature-settings:normal;font-variant-alternates:normal;font-variant-caps:normal;font-variant-ligatures:normal;font-variant-numeric:normal;font-variant-position:normal;isolation:auto;mix-blend-mode:normal;shape-padding:0;text-decoration-color:#000000;text-decoration-line:none;text-decoration-style:solid;text-indent:0;text-orientation:mixed;text-transform:none;white-space:normal"/>
   <path d="m8.0469 0.5-3.6797 1.1504a0.50002 0.50002 0 0 0-0.32617 0.63086l0.7207 2.2188h0.58398l-0.75781-2.3359 5.0449-1.5762 1.2715 3.9121h0.58594l-1.2988-4h-2.1445z" color="#000000" color-rendering="auto" dominant-baseline="auto" image-rendering="auto" solid-color="#000000" style="font-feature-settings:normal;font-variant-alternates:normal;font-variant-caps:normal;font-variant-ligatures:normal;font-variant-numeric:normal;font-variant-position:normal;isolation:auto;mix-blend-mode:normal;shape-padding:0;text-decoration-color:#000000;text-decoration-line:none;text-decoration-style:solid;text-indent:0;text-orientation:mixed;text-transform:none;white-space:normal"/>
   <path d="m7.4062 0.5-1.6484 4h0.60156l1.6133-3.9102 4.9082 1.9512-0.80859 1.959h0.60352l0.74219-1.8008a0.50002 0.50002 0 0 0-0.27734-0.65625l-3.8828-1.543h-1.8516z" color="#000000" color-rendering="auto" dominant-baseline="auto" image-rendering="auto" solid-color="#000000" style="font-feature-settings:normal;font-variant-alternates:normal;font-variant-caps:normal;font-variant-ligatures:normal;font-variant-numeric:normal;font-variant-position:normal;isolation:auto;mix-blend-mode:normal;shape-padding:0;text-decoration-color:#000000;text-decoration-line:none;text-decoration-style:solid;text-indent:0;text-orientation:mixed;text-transform:none;white-space:normal"/>
  </g>
  <path d="m5.767 11.817a1.05 1.05 0 0 0-0.126 0.434c0 0.027 0 0.062 7e-3 0.111l-0.872-1.502a0.39 0.39 0 0 1-0.049-0.182c0-0.063 0.021-0.14 0.049-0.188l0.419-0.734-0.468-0.265 1.522-0.028 0.74 1.334-0.475-0.272zm0.67-4.397a0.681 0.681 0 0 1 0.614-0.357c0.286 0 0.51 0.133 0.67 0.405l0.237 0.398-0.824 1.59-1.332-0.94zm0.097 5.606a0.73 0.73 0 0 1-0.725-0.727c0-0.111 0.049-0.3 0.118-0.419l0.224-0.398h1.654v1.544h-1.27zm1.326-5.649a0.856 0.856 0 0 0-0.41-0.377h1.716c0.154 0 0.272 0.063 0.342 0.182l0.426 0.727 0.46-0.273-0.74 1.328-1.513-0.022 0.467-0.265zm2.645 4.119c0.21 0 0.384-0.056 0.53-0.168l-0.865 1.51a0.377 0.377 0 0 1-0.342 0.188h-0.816v0.538l-0.782-1.307 0.782-1.306v0.545zm0.67-1.258c0.063 0.112 0.098 0.23 0.098 0.357 0 0.251-0.16 0.517-0.384 0.642a0.778 0.778 0 0 1-0.398 0.091h-0.46l-0.824-1.425 1.333-0.762z"/>
 </g>
</svg>
