<svg xmlns="http://www.w3.org/2000/svg" xmlns:xlink="http://www.w3.org/1999/xlink" width="48" height="48" viewBox="0 0 12.7 12.7"><defs><linearGradient id="a"><stop offset="0"/><stop offset="1" stop-opacity="0"/></linearGradient><clipPath clipPathUnits="userSpaceOnUse" id="b"><rect ry=".529" y="285.358" x=".529" height="9.525" width="15.875" transform="rotate(45)" fill="#2eb398" stroke-width=".251" stroke-opacity=".196" paint-order="markers stroke fill"/></clipPath><linearGradient xlink:href="#a" id="c" gradientUnits="userSpaceOnUse" x1="-197.102" y1="217.681" x2="-196.914" y2="219.365"/></defs><g transform="translate(0 -284.3)"><path d="M2.524 285.887c-.226 0-.304.33-.407.53h-.794c-.265 0-.265.264-.265.264v4.091c0 .226.182.407.407.407h9.77a.406.406 0 0 0 .407-.407v-4.09c0-.265-.265-.265-.265-.265h-5.82c-.12-.192-.182-.53-.408-.53z" fill="#fff" stroke="#000" stroke-width=".529" stroke-opacity=".255" paint-order="markers stroke fill"/><path d="M2.524 285.887c-.226 0-.304.33-.407.53h-.794c-.265 0-.265.264-.265.264v4.091c0 .226.182.407.407.407h9.77a.406.406 0 0 0 .407-.407v-4.09c0-.265-.265-.265-.265-.265h-5.82c-.12-.192-.182-.53-.408-.53z" fill="#fff" paint-order="markers stroke fill"/><path d="M6.35 289.062c-.265 0-.359.511-.524.794H.529c-.264 0-.264.265-.264.265v5.027s0 .264.264.264h11.642s.264 0 .264-.264v-5.821c0-.265-.264-.265-.264-.265z" fill="#2eb398" stroke="#195f53" stroke-width=".529" stroke-opacity=".561" paint-order="markers stroke fill"/><path d="M6.35 289.062c-.265 0-.359.511-.524.794H.529c-.264 0-.264.265-.264.265v5.027s0 .264.264.264h11.642s.264 0 .264-.264v-5.821c0-.265-.264-.265-.264-.265z" fill="#2eb398" paint-order="markers stroke fill"/><rect clip-path="url(#b)" transform="scale(.76667) rotate(-45 109.082 45.444)" ry=".132" y="217.868" x="-199.587" height="4.762" width="5.292" opacity=".1" fill="url(#c)" paint-order="stroke markers fill"/></g></svg>