<svg width="48" height="48" version="1.1" viewBox="0 0 12.7 12.7" xmlns="http://www.w3.org/2000/svg" xmlns:xlink="http://www.w3.org/1999/xlink">
 <defs>
  <linearGradient id="c" x1="-197.1" x2="-196.91" y1="217.68" y2="219.36" gradientUnits="userSpaceOnUse">
   <stop offset="0"/>
   <stop stop-opacity="0" offset="1"/>
  </linearGradient>
  <clipPath id="b">
   <rect transform="rotate(45)" x=".529" y="285.36" width="15.875" height="9.525" ry=".529" fill="#2eb398" stroke-opacity=".196" stroke-width=".251" paint-order="markers stroke fill"/>
  </clipPath>
 </defs>
 <g transform="translate(0 -284.3)">
  <path d="M2.524 286.681c-.226 0-.304.33-.407.53H1.058c-.264 0-.264.264-.264.264v4.09c0 .226.181.408.407.408h10.298a.406.406 0 0 0 .407-.407v-4.091c0-.265-.264-.265-.264-.265H5.556c-.12-.19-.181-.529-.407-.529z" fill="#2eb398" paint-order="markers stroke fill"/>
  <path d="M2.524 286.681c-.226 0-.304.33-.407.53H1.058c-.264 0-.264.264-.264.264v4.09c0 .226.181.408.407.408h10.298a.406.406 0 0 0 .407-.407v-4.091c0-.265-.264-.265-.264-.265H5.556c-.12-.19-.181-.529-.407-.529z" opacity=".15" paint-order="markers stroke fill"/>
  <rect x="1.588" y="286.15" width="9.525" height="7.408" rx=".207" ry=".265" fill="#fff" stroke="#000" stroke-opacity=".267" stroke-width=".529" paint-order="markers stroke fill"/>
  <rect x="1.588" y="286.15" width="9.525" height="7.408" rx=".207" ry=".265" fill="#fff" paint-order="markers stroke fill"/>
  <path d="M6.35 289.062c-.265 0-.359.511-.524.794H.529c-.264 0-.264.265-.264.265v5.027s0 .264.264.264h11.642s.264 0 .264-.264v-5.821c0-.265-.264-.265-.264-.265z" fill="#2eb398" stroke="#195f53" stroke-opacity=".561" stroke-width=".529" paint-order="markers stroke fill"/>
  <rect x="2.646" y="289.06" width="7.408" height=".265" rx="0" ry="0" opacity=".25" paint-order="markers stroke fill"/>
  <path d="M6.35 289.062c-.265 0-.359.511-.524.794H.529c-.264 0-.264.265-.264.265v5.027s0 .264.264.264h11.642s.264 0 .264-.264v-5.821c0-.265-.264-.265-.264-.265z" fill="#2eb398" paint-order="markers stroke fill"/>
  <rect transform="scale(.76667) rotate(-45 109.08 45.444)" x="-199.59" y="217.87" width="5.292" height="4.762" ry=".132" clip-path="url(#b)" fill="url(#c)" opacity=".1" paint-order="stroke markers fill"/>
  <rect x="2.646" y="286.68" width="7.408" height=".265" rx="0" ry="0" opacity=".25" paint-order="markers stroke fill"/>
  <rect x="2.646" y="287.48" width="7.408" height=".265" rx="0" ry="0" opacity=".25" paint-order="markers stroke fill"/>
  <rect x="2.646" y="288.27" width="7.408" height=".265" rx="0" ry="0" opacity=".25" paint-order="markers stroke fill"/>
 </g>
</svg>
