<svg xmlns="http://www.w3.org/2000/svg" xmlns:xlink="http://www.w3.org/1999/xlink" width="48" height="48" viewBox="0 0 12.7 12.7"><defs><linearGradient xlink:href="#a" id="c" x1="-197.102" y1="217.681" x2="-196.914" y2="219.365" gradientUnits="userSpaceOnUse"/><linearGradient id="a"><stop offset="0"/><stop offset="1" stop-opacity="0"/></linearGradient><clipPath clipPathUnits="userSpaceOnUse" id="b"><rect ry=".529" y="285.358" x=".529" height="9.525" width="15.875" transform="rotate(45)" fill="#5677fc" stroke-width=".251" stroke-opacity=".196" paint-order="markers stroke fill"/></clipPath></defs><g transform="translate(0 -284.3)"><path d="M2.381 285.887s-.264 0-.264.265v.265h-.794s-.265-.002-.265.262v4.09c0 .226.182.408.407.408h9.77a.406.406 0 0 0 .407-.407v-4.089c0-.264-.265-.264-.265-.264H5.821v-.265c0-.265-.265-.265-.265-.265z" fill="#fff" fill-opacity=".976" stroke="#000" stroke-width=".529" stroke-opacity=".267" paint-order="markers stroke fill"/><path d="M2.381 285.887s-.264 0-.264.265v.265h-.794s-.265-.002-.265.262v4.09c0 .226.182.408.407.408h9.77a.406.406 0 0 0 .407-.407v-4.089c0-.264-.265-.264-.265-.264H5.821v-.265c0-.265-.265-.265-.265-.265z" fill="#fff" fill-opacity=".976" paint-order="markers stroke fill"/><path d="M6.35 287.208c-.225 0-.292.212-.406.406l-.236.388H.529c-.264 0-.264.265-.264.265v6.88c0 .265.264.265.264.265h11.642c.264 0 .264-.264.264-.264v-7.673c0-.265-.264-.265-.264-.265z" fill="#2eb398" stroke="#195f53" stroke-width=".529" stroke-opacity=".561" paint-order="markers stroke fill"/><path d="M6.35 287.208c-.225 0-.292.212-.406.406l-.236.388H.529c-.264 0-.264.265-.264.265v6.88c0 .265.264.265.264.265h11.642c.264 0 .264-.264.264-.264v-7.673c0-.265-.264-.265-.264-.265z" fill="#2eb398" paint-order="markers stroke fill"/><rect clip-path="url(#b)" transform="scale(.76667) rotate(-45 109.079 45.442)" ry=".132" y="217.868" x="-199.587" height="4.762" width="5.292" opacity=".1" fill="url(#c)" paint-order="stroke markers fill"/></g><path d="M5.556 5.556v.53h2.381v-.53zm1.852 2.646a.53.397 0 0 0-.529.397.53.397 0 0 0 .53.397.53.397 0 0 0 .529-.397.53.397 0 0 0-.53-.397zm-2.645.265a.53.397 0 0 0-.53.397.53.397 0 0 0 .53.396.53.397 0 0 0 .529-.396.53.397 0 0 0-.53-.397z" opacity=".15"/><path d="M5.292 5.292v3.082a.88.88 0 0 0-.53-.172c-.438 0-.793.296-.793.662 0 .365.355.661.794.661.438 0 .793-.296.793-.661 0-.013-.004-.025-.004-.038h.004V6.35h2.381v1.76a.88.88 0 0 0-.529-.173c-.438 0-.793.297-.793.662 0 .365.355.661.793.661.439 0 .794-.296.794-.661 0-.01-.003-.017-.003-.026h.003V5.292h-.265zm.264.264h2.381v.53h-2.38zm1.852 2.646c.293 0 .53.178.53.397 0 .22-.237.397-.53.397-.292 0-.529-.178-.529-.397 0-.22.237-.397.53-.397zm-2.645.265c.292 0 .529.177.529.397 0 .219-.237.396-.53.396-.292 0-.529-.177-.529-.396 0-.22.237-.397.53-.397z" opacity=".3"/></svg>