<svg xmlns="http://www.w3.org/2000/svg" xmlns:xlink="http://www.w3.org/1999/xlink" width="48" height="48" viewBox="0 0 12.7 12.7"><defs><linearGradient xlink:href="#a" id="c" x1="-197.102" y1="217.681" x2="-196.914" y2="219.365" gradientUnits="userSpaceOnUse"/><linearGradient id="a"><stop offset="0"/><stop offset="1" stop-opacity="0"/></linearGradient><clipPath clipPathUnits="userSpaceOnUse" id="b"><rect ry=".529" y="285.358" x=".529" height="9.525" width="15.875" transform="rotate(45)" fill="#5677fc" stroke-width=".251" stroke-opacity=".196" paint-order="markers stroke fill"/></clipPath></defs><g transform="translate(0 -284.3)"><path d="M2.381 285.887s-.264 0-.264.265v.265h-.794s-.265-.002-.265.262v4.09c0 .226.182.408.407.408h9.77a.406.406 0 0 0 .407-.407v-4.089c0-.264-.265-.264-.265-.264H5.821v-.265c0-.265-.265-.265-.265-.265z" fill="#fff" fill-opacity=".976" stroke="#000" stroke-width=".529" stroke-opacity=".267" paint-order="markers stroke fill"/><path d="M2.381 285.887s-.264 0-.264.265v.265h-.794s-.265-.002-.265.262v4.09c0 .226.182.408.407.408h9.77a.406.406 0 0 0 .407-.407v-4.089c0-.264-.265-.264-.265-.264H5.821v-.265c0-.265-.265-.265-.265-.265z" fill="#fff" fill-opacity=".976" paint-order="markers stroke fill"/><path d="M6.35 287.208c-.225 0-.292.212-.406.406l-.236.388H.529c-.264 0-.264.265-.264.265v6.88c0 .265.264.265.264.265h11.642c.264 0 .264-.264.264-.264v-7.673c0-.265-.264-.265-.264-.265z" fill="#2eb398" stroke="#195f53" stroke-width=".529" stroke-opacity=".561" paint-order="markers stroke fill"/><path d="M6.35 287.208c-.225 0-.292.212-.406.406l-.236.388H.529c-.264 0-.264.265-.264.265v6.88c0 .265.264.265.264.265h11.642c.264 0 .264-.264.264-.264v-7.673c0-.265-.264-.265-.264-.265z" fill="#2eb398" paint-order="markers stroke fill"/><rect clip-path="url(#b)" transform="scale(.76667) rotate(-45 109.079 45.442)" ry=".132" y="217.868" x="-199.587" height="4.762" width="5.292" opacity=".1" fill="url(#c)" paint-order="stroke markers fill"/></g><path d="M7.726 9.525l-1.376-.91-1.375.91.44-1.59-1.314-.924h1.588l.661-1.72.661 1.72H8.6l-1.314.924z" opacity=".3" fill="none" stroke="#000" stroke-width=".26455436" stroke-linecap="round" stroke-linejoin="round"/><path d="M6.35 5.66l-.537 1.4a.132.132 0 0 1-.124.084H4.52l.973.684a.132.132 0 0 1 .051.144L5.198 9.22l1.08-.715a.132.132 0 0 1 .146 0l1.08.715-.346-1.249a.132.132 0 0 1 .051-.144l.972-.683H7.012a.132.132 0 0 1-.124-.084z" opacity=".15"/></svg>