<svg width="16" height="16" version="1.1" viewBox="0 0 4.233 4.233" xmlns="http://www.w3.org/2000/svg">
 <path d="m0.33586 1.4773c-0.039518 0-0.071811 0.031782-0.071811 0.071308v1.8519c0 0.039526 0.032293 0.071308 0.071811 0.071308h0.56984v0.42526c0 0.0525 0.019634 0.082077 0.070778 0.071308l0.55848-0.49657h1.7917c0.039519 0 0.071295-0.031782 0.071295-0.071308v-1.8519c0-0.039526-0.031776-0.071308-0.071295-0.071308z" fill="none" stroke="#3b85ce" stroke-width=".52912"/>
 <path d="m0.33586 1.4773c-0.039518 0-0.071811 0.031782-0.071811 0.071308v1.8519c0 0.039526 0.032293 0.071308 0.071811 0.071308h0.56984v0.42526c0 0.0525 0.019634 0.082077 0.070778 0.071308l0.55848-0.49657h1.7917c0.039519 0 0.071295-0.031782 0.071295-0.071308v-1.8519c0-0.039526-0.031776-0.071308-0.071295-0.071308z" fill="#5ca4ed"/>
 <path d="m1.475 0.26456a0.071064 0.071077 0 0 0-0.071064 0.071077v1.4248c0 0.039577 0.031763 0.071346 0.071064 0.071346h1.0974l0.39839 0.35404c0.051144 0.010769 0.071064-0.018846 0.071064-0.071346v-0.28269h0.85465a0.071064 0.071077 0 0 0 0.071333-0.071346v-1.4248a0.071064 0.071077 0 0 0-0.071333-0.071077z" fill="none" stroke="#5ec6de" stroke-width=".52912" paint-order="markers stroke fill"/>
 <path d="m1.475 0.26456a0.071064 0.071077 0 0 0-0.071064 0.071077v1.4248c0 0.039577 0.031763 0.071346 0.071064 0.071346h1.0974l0.39839 0.35404c0.051144 0.010769 0.071064-0.018846 0.071064-0.071346v-0.28269h0.85465a0.071064 0.071077 0 0 0 0.071333-0.071346v-1.4248a0.071064 0.071077 0 0 0-0.071333-0.071077z" fill="#a0ecff"/>
</svg>
