<svg width="16" height="16" version="1.0" xmlns="http://www.w3.org/2000/svg">
 <circle cx="8.0016" cy="7.9988" r="6.9997" fill="#666666" opacity=".65" stroke="#000000" stroke-width="1.9994" style="paint-order:stroke markers fill"/>
 <circle cx="8" cy="8" r="7" fill="#666666" stroke-width="3.7797" style="paint-order:stroke markers fill"/>
 <circle cx="8.0016" cy="7.9988" r="3.4998" opacity=".15" stroke-width="3.7795" style="paint-order:stroke markers fill"/>
 <path d="m8.0016 5.0395a2.9632 2.9632 0 0 0-2.9632 2.9594 2.9632 2.9632 0 0 0 2.9632 2.9632 2.9632 2.9632 0 0 0 2.9594-2.9632 2.9632 2.9632 0 0 0-2.9594-2.9594zm0 1.3455a1.6139 1.6139 0 0 1 1.6139 1.6139 1.6139 1.6139 0 0 1-1.6139 1.6176 1.6139 1.6139 0 0 1-1.6176-1.6176 1.6139 1.6139 0 0 1 1.6176-1.6139z" fill="#ffffff" stroke-width="14.037" style="paint-order:stroke markers fill"/>
 <path d="m7.4611 3.8262h1.0772v1.886h-1.0772zm0 6.463h1.0772v1.8822h-1.0772zm4.7131-2.8271v1.0772h-1.886v-1.0772zm-6.463 0v1.0772h-1.8822v-1.0772zm5.6202 3.1068-0.75968 0.76346-1.3342-1.3342 0.76347-0.75969zm-4.5695-4.5657-0.75969 0.75969-1.3342-1.3342 0.76347-0.75969zm-1.3304 5.3291-0.76347-0.76346 1.3342-1.3304 0.75969 0.75969zm4.5695-4.5695-0.76347-0.75969 1.3342-1.3342 0.75968 0.75969z" fill="#ffffff" stroke-width="14.037" style="paint-order:stroke markers fill"/>
</svg>
