<svg xmlns="http://www.w3.org/2000/svg" xmlns:xlink="http://www.w3.org/1999/xlink" height="16" width="16"><defs><linearGradient id="a" stop-color="#fff"><stop offset="0"/><stop stop-opacity="0" offset="1"/></linearGradient><linearGradient id="b" y2="7.016" gradientUnits="userSpaceOnUse" x2="45.448" gradientTransform="matrix(1.0059 0 0 .99417 100 0)" y1="92.54" x1="45.448"><stop offset="0"/><stop stop-opacity=".588" offset="1"/></linearGradient><clipPath clipPathUnits="userSpaceOnUse" id="d"><path d="M25.6 4.631c-11.035 0-20 8.958-20 19.985 0 11.026 8.965 19.984 20 19.984s20-8.958 20-19.984c0-11.027-8.965-19.985-20-19.985z" style="marker:none" color="#000" overflow="visible" opacity=".582" fill="url(#radialGradient4456)" enable-background="accumulate"/></clipPath><linearGradient gradientUnits="userSpaceOnUse" y2="2" x2="26" y1="46" x1="26" id="e" xlink:href="#c"/><linearGradient id="c"><stop offset="0" stop-color="#dfded1"/><stop offset="1" stop-color="#e8e7e0"/></linearGradient><filter id="f"><feBlend in2="BackgroundImage" mode="multiply"/></filter></defs><g transform="translate(270.729 85.83)"><circle r="7" cy="-77.831" cx="-262.729" fill="#fcfcfc"/><g transform="matrix(.3 0 0 .30023 -270.409 -85.221)" clip-path="url(#d)"><rect rx="30" ry="29.977" y="2" x="2" height="44" width="44" fill="url(#e)" transform="translate(1.6 .6)"/><g fill-rule="evenodd"><path d="M25.6 24.6L6.225 43.975A8.98 8.98 0 0 0 12.6 46.6h7.094z" fill="#139dcb"/><path d="M25.6 24.6l-5.906 22h11.812z" fill="#3ed4f0"/><path d="M25.6 24.6l5.906 22H38.6a8.98 8.98 0 0 0 6.375-2.625z" fill="#32d439"/><path d="M25.6 24.6l19.375 19.375A8.98 8.98 0 0 0 47.6 37.6v-7.094z" fill="#cee834"/><path d="M47.6 18.694l-22 5.906 22 5.906z" fill="#ffe600"/><path d="M44.975 5.225L25.6 24.6l22-5.906V11.6a8.98 8.98 0 0 0-2.625-6.375z" fill="#f7ac1b"/><path d="M31.506 2.6l-5.906 22L44.975 5.225A8.98 8.98 0 0 0 38.6 2.6z" fill="#fa7c1a"/><path d="M19.694 2.6l5.906 22 5.906-22z" fill="#ee332c"/><path d="M25.6 24.6l-22 5.906V37.6a8.98 8.98 0 0 0 2.625 6.375z" fill="#421ca8"/><path d="M3.6 18.694v11.812l22-5.906z" fill="#e861e2"/><path d="M12.6 2.6a8.98 8.98 0 0 0-6.375 2.625L25.6 24.6l-5.906-22z" fill="#ff5474"/><path d="M6.225 5.225A8.98 8.98 0 0 0 3.6 11.6v7.094l22 5.906z" fill="#e92f61"/></g><g fill="#fff"><path d="M12.6 2.6a8.98 8.98 0 0 0-9 9v1.156A25.09 25.09 0 0 1 13.756 2.6zm24.844 0A25.09 25.09 0 0 1 47.6 12.756V11.6c0-4.986-4.014-9-9-9zM3.6 36.444V37.6c0 4.986 4.014 9 9 9h1.156A25.09 25.09 0 0 1 3.6 36.444zm44 0A25.09 25.09 0 0 1 37.444 46.6H38.6c4.986 0 9-4.014 9-9z" opacity=".1"/><path d="M13.756 2.6A25.09 25.09 0 0 0 3.6 12.756v23.688A25.09 25.09 0 0 0 13.756 46.6h23.688A25.09 25.09 0 0 0 47.6 36.444V12.756A25.09 25.09 0 0 0 37.444 2.6zm11.844 2c11.046 0 20 8.954 20 20s-8.954 20-20 20-20-8.954-20-20 8.954-20 20-20z" opacity=".2"/></g></g><circle r="7.5" cy="-77.831" cx="-262.729" fill="none" stroke="#4f6698" stroke-opacity=".267"/><ellipse cx="-262.729" cy="-77.831" rx="6" ry="6" opacity=".25" fill="#fff"/><ellipse ry="5.5" rx="5.5" cy="-77.831" cx="-262.729" fill="none" stroke="#4f6698" stroke-opacity=".267"/></g></svg>