<svg width="16" height="16" version="1.1" viewBox="0 0 4.233 4.233" xmlns="http://www.w3.org/2000/svg">
 <rect x="6.281e-8" y=".00029022" width="3.1747" height="3.1712" rx=".52913" ry=".52853" fill="#000000" opacity=".15" stroke-width="1.2838" paint-order="stroke markers fill"/>
 <rect x=".26456" y=".26604" width="2.6456" height="2.6427" rx=".26456" ry=".26427" fill="#ffffff" stroke-width="1.0699" paint-order="stroke markers fill"/>
 <g transform="scale(1.0006 .99944)" fill="#cccccc" stroke-width=".35174" aria-label="O">
  <path d="m2.5358 1.5868q0 0.31981-0.10949 0.55895-0.1066 0.23626-0.31693 0.36879-0.21033 0.13254-0.5215 0.13254-0.31981 0-0.53302-0.13254-0.21033-0.13254-0.31405-0.37168-0.10372-0.23914-0.10372-0.55895 0-0.31693 0.10372-0.55319 0.10372-0.23626 0.31405-0.36879 0.21321-0.13254 0.53591-0.13254 0.30829 0 0.51862 0.13254 0.21033 0.12965 0.31693 0.36879 0.10949 0.23626 0.10949 0.55607zm-1.625 0q0 0.38896 0.16423 0.6137 0.16423 0.22185 0.51286 0.22185 0.35151 0 0.51286-0.22185 0.16135-0.22473 0.16135-0.6137 0-0.38896-0.16135-0.60794-0.16135-0.22185-0.50997-0.22185t-0.51574 0.22185q-0.16423 0.21897-0.16423 0.60794z"/>
 </g>
 <rect x="1.0583" y="1.0571" width="3.1747" height="3.1712" rx=".52913" ry=".52853" fill="#3350cc" stroke-width="1.2838" paint-order="stroke markers fill"/>
 <rect x="1.3228" y="1.3228" width="2.6456" height="2.6427" rx=".26456" ry=".26427" fill="#5576ff" stroke-width="1.0699" paint-order="stroke markers fill"/>
 <g transform="scale(1.0006 .99944)" fill="#ffffff" stroke-width=".36209" aria-label="B">
  <path d="m2.5092 1.5868q0.39744 0 0.59912 0.11864 0.20465 0.11567 0.20465 0.40633 0 0.18685-0.10381 0.31142-0.10381 0.1216-0.29956 0.15719v0.01483q0.13347 0.020762 0.24024 0.077114 0.10974 0.056353 0.17202 0.16016 0.062285 0.10381 0.062285 0.2699 0 0.2877-0.19872 0.44489-0.19575 0.1572-0.53684 0.1572h-0.74445v-2.1177zm0.053387 0.90165q0.27287 0 0.37371-0.086012 0.10084-0.088978 0.10084-0.261 0-0.17499-0.12457-0.24914-0.1216-0.077115-0.3915-0.077115h-0.34998v0.67327zm-0.3915 0.22245v0.76818h0.4271q0.28176 0 0.3915-0.10974t0.10974-0.2877q0-0.16609-0.11567-0.26693-0.11271-0.10381-0.40633-0.10381z"/>
 </g>
</svg>
