<svg width="16" height="16" version="1.1" viewBox="0 0 4.233 4.233" xmlns="http://www.w3.org/2000/svg">
 <circle cx="2.1165" cy="2.1161" r="2.1165" fill="#e6e6e6"/>
 <circle cx="2.1165" cy="2.1161" r="1.8519" fill="#ffffff"/>
 <path d="m2.0728 0.79233a1.3242 1.3237 0 0 0-0.8926 0.38639 1.3242 1.3237 0 0 0-0.10804 1.7465l0.2782-0.27809a0.9347 0.93433 0 0 1 0.10539-1.193 0.9347 0.93433 0 0 1 0.97238-0.21894v0.3343l0.49959-0.49939a1.3242 1.3237 0 0 0-0.85492-0.2778z" fill="#4c8fd8" stroke-width=".29434"/>
 <path d="m3.1611 1.3044-0.2782 0.27809a0.9347 0.93433 0 0 1-0.10569 1.193 0.9347 0.93433 0 0 1-0.97238 0.21894v-0.33459l-0.33031 0.33047-0.16928 0.16892a1.3242 1.3237 0 0 0 1.7475-0.10829 1.3242 1.3237 0 0 0 0.10834-1.7465z" fill="#6ddce7" stroke-width=".29434"/>
</svg>
