<svg width="16" height="16" version="1.1" viewBox="0 0 4.233 4.233" xmlns="http://www.w3.org/2000/svg">
 <g transform="translate(-.163 -75.565) scale(.26923)" stroke-width="3.714" paint-order="stroke markers fill">
  <circle cx="8.4667" cy="288.53" r="7.8613" fill="#547856" stroke-width="4.2444"/>
  <circle cx="8.4667" cy="288.53" r="6.8786" fill="#71aa75" stroke-width="3.7138"/>
  <path d="M5.595 285.662a.132.132 0 0 0 0 .187l5.426 5.426a.794.794 0 0 0 1.138-1.104.132.132 0 0 0-.001-.002.132.132 0 0 0-.015-.017.132.132 0 0 0-.187 0 .132.132 0 0 0 0 .187.53.53 0 1 1-.748.748l-5.426-5.425a.132.132 0 0 0-.187 0z" fill="#fff"/>
  <path d="m5.957 286.02a3.175 3.175 0 0 0 0 4.49l4.49-4.49a3.175 3.175 0 0 0-4.49 0z" fill="#fff"/>
 </g>
</svg>
