<svg width="16" height="16" version="1.1" viewBox="0 0 4.233 4.233" xmlns="http://www.w3.org/2000/svg">
 <circle cx="2.1165" cy="2.1165" r="2.1165" fill="#6aa465" stroke-width="1.1429" style="paint-order:stroke markers fill"/>
 <circle cx="2.117" cy="2.116" r="1.852" fill="#8dd786" style="paint-order:stroke markers fill"/>
 <circle cx="2.117" cy="2.116" r=".926" opacity=".15" style="paint-order:stroke markers fill"/>
 <path d="m2.117 1.333a0.784 0.784 0 0 0-0.784 0.783 0.784 0.784 0 0 0 0.784 0.784 0.784 0.784 0 0 0 0.783-0.784 0.784 0.784 0 0 0-0.783-0.783zm0 0.356a0.427 0.427 0 0 1 0.427 0.427 0.427 0.427 0 0 1-0.427 0.428 0.427 0.427 0 0 1-0.428-0.428 0.427 0.427 0 0 1 0.428-0.427z" fill="#ffffff" stroke-width="3.714" style="paint-order:stroke markers fill"/>
 <path d="m1.974 1.012h0.285v0.499h-0.285zm0 1.71h0.285v0.498h-0.285zm1.247-0.748v0.285h-0.499v-0.285zm-1.71 0v0.285h-0.498v-0.285zm1.487 0.822-0.201 0.202-0.353-0.353 0.202-0.201zm-1.209-1.208-0.201 0.201-0.353-0.353 0.202-0.201zm-0.352 1.41-0.202-0.202 0.353-0.352 0.201 0.201zm1.209-1.209-0.202-0.201 0.353-0.353 0.201 0.201z" fill="#ffffff" stroke-width="3.714" style="paint-order:stroke markers fill"/>
</svg>
