<svg version="1.1" viewBox="0 0 32 32" xmlns="http://www.w3.org/2000/svg">
 <defs>
  <style id="current-color-scheme" type="text/css">.ColorScheme-Text { color:#d3dae3; }</style>
 </defs>
 <path class="ColorScheme-Text" d="m12 2c-0.554 0-1 0.446-1 1v5c-1.662 0-3 1.338-3 3v16c0 1.662 1.338 3 3 3h10c1.662 0 3-1.338 3-3v-16c0-1.662-1.338-3-3-3v-5c0-0.554-0.446-1-1-1zm0 1h8v5h-8zm2 1v3h1v-3zm3 0v3h1v-3zm-6 5h10c1.108 0 2 0.892 2 2v16c0 1.108-0.892 2-2 2h-10c-1.108 0-2-0.892-2-2v-16c0-1.108 0.892-2 2-2z" fill="currentColor"/>
</svg>
