<?xml version="1.0" encoding="UTF-8" standalone="no"?>
<svg
   xmlns:dc="http://purl.org/dc/elements/1.1/"
   xmlns:cc="http://creativecommons.org/ns#"
   xmlns:rdf="http://www.w3.org/1999/02/22-rdf-syntax-ns#"
   xmlns:svg="http://www.w3.org/2000/svg"
   xmlns="http://www.w3.org/2000/svg"
   xmlns:xlink="http://www.w3.org/1999/xlink"
   xmlns:sodipodi="http://sodipodi.sourceforge.net/DTD/sodipodi-0.dtd"
   xmlns:inkscape="http://www.inkscape.org/namespaces/inkscape"
   version="1.1"
   width="32"
   height="32"
   id="svg4248"
   sodipodi:docname="dialog-warning.svg"
   inkscape:version="0.92.4 (5da689c313, 2019-01-14)">
  <sodipodi:namedview
     pagecolor="#ffffff"
     bordercolor="#666666"
     borderopacity="1"
     objecttolerance="10"
     gridtolerance="10"
     guidetolerance="10"
     inkscape:pageopacity="0"
     inkscape:pageshadow="2"
     inkscape:window-width="1366"
     inkscape:window-height="711"
     id="namedview29"
     showgrid="false"
     inkscape:zoom="10.429825"
     inkscape:cx="18.569004"
     inkscape:cy="9.8550596"
     inkscape:window-x="0"
     inkscape:window-y="27"
     inkscape:window-maximized="1"
     inkscape:current-layer="svg4248" />
  <defs
     id="defs4250">
    <linearGradient
       y2="-5.496769"
       x2="44.424442"
       y1="60.535198"
       x1="44.424442"
       gradientTransform="matrix(0.5017423,0,0,0.5017423,-6.7225618,1.2264615)"
       gradientUnits="userSpaceOnUse"
       id="linearGradient3035"
       xlink:href="#linearGradient3856-1-6-5"
       inkscape:collect="always" />
    <linearGradient
       id="linearGradient3856-1-6-5">
      <stop
         offset="0"
         style="stop-color:#634215;stop-opacity:1"
         id="stop3858-0-6-4" />
      <stop
         offset="1"
         style="stop-color:#93700d;stop-opacity:1"
         id="stop3860-2-8-2" />
    </linearGradient>
  </defs>
  <metadata
     id="metadata4253">
    <rdf:RDF>
      <cc:Work
         rdf:about="">
        <dc:format>image/svg+xml</dc:format>
        <dc:type
           rdf:resource="http://purl.org/dc/dcmitype/StillImage" />
        <dc:title></dc:title>
      </cc:Work>
    </rdf:RDF>
  </metadata>
  <g
     id="dialog-warning_32"
     inkscape:label="#g7310"
     transform="translate(-356,-608.00006)">
    <rect
       y="608.00006"
       x="356"
       height="32"
       width="32"
       id="rect4138-25-88-1-0"
       style="opacity:1;fill:none;fill-opacity:0.02898554;stroke:none;stroke-width:0.1;stroke-linecap:butt;stroke-linejoin:miter;stroke-miterlimit:4;stroke-dasharray:none;stroke-dashoffset:0;stroke-opacity:0.78431373" />
    <g
       transform="translate(356.00441,608.00006)"
       id="g6954">
      <g
         style="opacity:0.4"
         id="g3257"
         transform="matrix(0.6666592,0,0,1.3333333,0,-30.333332)" />
      <path
         inkscape:connector-curvature="0"
         style="fill:#fac848;fill-opacity:1;fill-rule:nonzero;stroke:none"
         id="path11155-52"
         d="M 30.293619,26.642856 17.706964,3.4999991 c -0.361777,-0.6428555 -1.016401,-0.999998 -1.745461,-0.999998 -0.729055,0 -1.38704,0.4285671 -1.754313,1.0714275 L 1.7142647,26.714286 c -0.2940649,0.571431 -0.2974269,1.357145 0.06466,1.928571 0.3620822,0.571431 0.9441073,0.857144 1.6731674,0.857144 H 28.531662 c 0.72906,0 1.386736,-0.357143 1.680806,-0.928573 0.366968,-0.571426 0.370025,-1.285711 0.08115,-1.928572 z" />
      <path
         inkscape:connector-curvature="0"
         style="color:#000000;font-style:normal;font-variant:normal;font-weight:normal;font-stretch:normal;font-size:62.4582634px;line-height:125%;font-family:Georgia;text-align:start;writing-mode:lr-tb;text-anchor:start;display:inline;overflow:visible;visibility:visible;fill:url(#linearGradient3035);fill-opacity:1;fill-rule:nonzero;stroke:none;stroke-width:1;marker:none;enable-background:accumulate"
         id="text2315-3"
         d="m 14.416172,9.51553 c 0.375325,3.666215 0.80524,7.3072 1.124735,10.987775 0.32135,0 0.69826,0 1.019615,0 0.26501,-3.53452 0.69246,-7.04768 1.00081,-10.57782 0.157185,-0.83589 -0.27199,-1.82835 -1.154665,-2.03143 -0.87222,-0.25501 -1.8467,0.376475 -1.96268,1.2785 -0.01925,0.113235 -0.0278,0.22816 -0.0278,0.342975 v 0 z m -0.111235,14.905805 c -0.0397,1.09129 1.161085,1.946755 2.186315,1.600775 0.99301,-0.25343 1.516045,-1.501525 1.007125,-2.388705 -0.45557,-0.917095 -1.791505,-1.21926 -2.560005,-0.51737 -0.38846,0.319145 -0.64594,0.79559 -0.633435,1.3053 z" />
      <path
         inkscape:connector-curvature="0"
         style="color:#000000;display:inline;overflow:visible;visibility:visible;opacity:0.3;fill:none;stroke:#311d00;stroke-width:0.99999988;stroke-linecap:butt;stroke-linejoin:miter;stroke-miterlimit:4;stroke-dasharray:none;stroke-dashoffset:0;stroke-opacity:1;marker:none;enable-background:accumulate"
         id="path11155-59-7"
         d="M 30.293619,26.642855 17.706964,3.499998 c -0.361777,-0.6428556 -1.0164,-0.9999981 -1.74546,-0.9999981 -0.729056,0 -1.387041,0.4285672 -1.754314,1.0714276 L 1.7142647,26.714286 c -0.2940649,0.571429 -0.297427,1.357144 0.06466,1.92857 C 2.1410069,29.214287 2.723032,29.5 3.452092,29.5 h 25.07957 c 0.72906,0 1.386736,-0.357142 1.680806,-0.928572 0.366968,-0.571427 0.370025,-1.285713 0.08115,-1.928573 z" />
    </g>
  </g>
</svg>
