<?xml version="1.0" encoding="UTF-8" standalone="no"?>
<svg
   xmlns:dc="http://purl.org/dc/elements/1.1/"
   xmlns:cc="http://creativecommons.org/ns#"
   xmlns:rdf="http://www.w3.org/1999/02/22-rdf-syntax-ns#"
   xmlns:svg="http://www.w3.org/2000/svg"
   xmlns="http://www.w3.org/2000/svg"
   xmlns:sodipodi="http://sodipodi.sourceforge.net/DTD/sodipodi-0.dtd"
   xmlns:inkscape="http://www.inkscape.org/namespaces/inkscape"
   version="1.1"
   width="32"
   height="32"
   id="svg4248"
   sodipodi:docname="dialog-question.svg"
   inkscape:version="0.92.4 (5da689c313, 2019-01-14)">
  <sodipodi:namedview
     pagecolor="#ffffff"
     bordercolor="#666666"
     borderopacity="1"
     objecttolerance="10"
     gridtolerance="10"
     guidetolerance="10"
     inkscape:pageopacity="0"
     inkscape:pageshadow="2"
     inkscape:window-width="708"
     inkscape:window-height="458"
     id="namedview29"
     showgrid="false"
     inkscape:zoom="3.6875"
     inkscape:cx="29.493607"
     inkscape:cy="14.524823"
     inkscape:window-x="195"
     inkscape:window-y="213"
     inkscape:window-maximized="0"
     inkscape:current-layer="svg4248" />
  <defs
     id="defs4250" />
  <metadata
     id="metadata4253">
    <rdf:RDF>
      <cc:Work
         rdf:about="">
        <dc:format>image/svg+xml</dc:format>
        <dc:type
           rdf:resource="http://purl.org/dc/dcmitype/StillImage" />
        <dc:title></dc:title>
      </cc:Work>
    </rdf:RDF>
  </metadata>
  <path
     style="color:#000000;display:inline;overflow:visible;visibility:visible;opacity:0.98999999;fill:#5294e2;fill-opacity:1;fill-rule:nonzero;stroke:none;stroke-width:0.99999982;marker:none;enable-background:accumulate"
     id="path2555-7-8-5-0-9"
     d="M 15.999999,1.4982016 C 7.9984044,1.4982016 1.4982015,7.9984048 1.4982015,16 c 0,8.001595 6.5002029,14.501798 14.5017975,14.501798 8.001596,0 14.501813,-6.500203 14.501799,-14.501798 0,-8.0015952 -6.500203,-14.5017984 -14.501799,-14.5017984 z"
     inkscape:connector-curvature="0" />
  <path
     style="color:#000000;display:inline;overflow:visible;visibility:visible;opacity:0.35;vector-effect:none;fill:none;fill-opacity:1;stroke:#00217a;stroke-width:0.99999988;stroke-linecap:round;stroke-linejoin:round;stroke-miterlimit:4;stroke-dasharray:none;stroke-dashoffset:0;stroke-opacity:1;marker:none;enable-background:accumulate"
     id="path2555-4"
     d="M 16.000001,1.4999999 C 7.9994018,1.4999999 1.5,7.9993994 1.5,15.999999 1.5,24.0006 7.9994018,30.500003 16.000001,30.5 24.000598,30.5 30.500008,24.0006 30.5,15.999999 30.5,7.9993994 24.000598,1.4999999 16.000001,1.4999999 Z"
     inkscape:connector-curvature="0" />
  <path
     inkscape:connector-curvature="0"
     style="font-style:normal;font-weight:bold;font-size:72px;font-family:'Standard Symbols L';fill:#ffffff;fill-opacity:1;stroke:none"
     id="path3298-4"
     d="m 16.682829,19.872661 c -0.04956,-1.769071 0.34678,-3.486462 2.018151,-4.702956 1.765395,-1.375776 3.465611,-3.097059 3.285935,-5.126062 -0.03923,-1.9567921 -2.319181,-3.4901506 -4.77566,-3.7106207 -2.763139,-0.3827895 -6.106521,0.5638021 -7.032431,2.721707 -0.4695995,1.0495317 -0.03413,2.9325137 1.541846,2.9325137 0.92179,0 1.345172,-0.595451 1.414728,-1.140149 0.05262,-0.412136 -0.116577,-0.780169 -0.2165,-1.1205956 -0.113858,-0.3878945 0.372191,-1.1396748 0.901563,-1.4459788 0.442351,-0.2559554 0.905165,-0.3417809 0.973385,-0.3581767 1.588609,-0.3817838 3.172223,0.4615244 3.832935,1.487935 0.660712,1.0264101 -0.06653,2.5832741 -1.112141,4.0972651 -1.045611,1.51399 -2.167737,3.233575 -2.163254,5.060055 0,0.695342 -0.06195,0.931566 -0.01793,1.212884 0.03517,0.224765 0.779419,0.197603 1.349377,0.09218 z m -0.724992,2.381076 c -1.51896,-0.08246 -2.570293,1.639498 -1.657776,2.736619 0.81492,1.21133 3.099769,0.912304 3.491392,-0.459406 0.407146,-1.066681 -0.572657,-2.295019 -1.833615,-2.277214 z" />
</svg>
