<?xml version="1.0" encoding="UTF-8" standalone="no"?>
<svg
   xmlns:dc="http://purl.org/dc/elements/1.1/"
   xmlns:cc="http://creativecommons.org/ns#"
   xmlns:rdf="http://www.w3.org/1999/02/22-rdf-syntax-ns#"
   xmlns:svg="http://www.w3.org/2000/svg"
   xmlns="http://www.w3.org/2000/svg"
   xmlns:sodipodi="http://sodipodi.sourceforge.net/DTD/sodipodi-0.dtd"
   xmlns:inkscape="http://www.inkscape.org/namespaces/inkscape"
   id="svg2526"
   height="32"
   width="32"
   version="1.0"
   sodipodi:docname="image-missing.svg"
   inkscape:version="0.92.4 (5da689c313, 2019-01-14)">
  <sodipodi:namedview
     pagecolor="#ffffff"
     bordercolor="#666666"
     borderopacity="1"
     objecttolerance="10"
     gridtolerance="10"
     guidetolerance="10"
     inkscape:pageopacity="0"
     inkscape:pageshadow="2"
     inkscape:window-width="1366"
     inkscape:window-height="711"
     id="namedview62"
     showgrid="false"
     inkscape:zoom="14.75"
     inkscape:cx="11.004915"
     inkscape:cy="14.198346"
     inkscape:window-x="0"
     inkscape:window-y="27"
     inkscape:window-maximized="1"
     inkscape:current-layer="svg2526" />
  <metadata
     id="metadata58">
    <rdf:RDF>
      <cc:Work
         rdf:about="">
        <dc:format>image/svg+xml</dc:format>
        <dc:type
           rdf:resource="http://purl.org/dc/dcmitype/StillImage" />
        <dc:title />
      </cc:Work>
    </rdf:RDF>
  </metadata>
  <defs
     id="defs2528" />
  <path
     style="fill:#f4f4f4;fill-opacity:1;stroke:none;display:inline"
     id="path4160"
     d="m 0.99999685,4.9999981 c 6.87452305,0 29.99996415,0.00153 29.99996415,0.00153 l 3.6e-5,23.9984699 c 0,0 -19.999999,0 -30.00000015,0 0,-8 0,-16 0,-24.0000001 z" />
  <path
     style="fill:none;stroke:#ffffff;stroke-width:0.99999994;stroke-linecap:round;stroke-linejoin:round;stroke-miterlimit:4;stroke-opacity:1;stroke-dasharray:none;stroke-dashoffset:0"
     id="rect6741-1"
     d="m 30.499996,28.499998 -28.9999985,0 0,-23 28.9999985,0 z" />
  <path
     style="fill:#3b3b3b;fill-opacity:1;stroke:#1d1d1d;stroke-width:1.0000006;stroke-linecap:round;stroke-linejoin:miter;stroke-miterlimit:4;stroke-dasharray:none;stroke-opacity:1"
     id="rect3582-50-4-3"
     d="M 29.5,26.499999 H 2.5000001 l 2e-6,-20.999998 26.9999949,2e-6 z"
     inkscape:connector-curvature="0" />
  <path
     style="display:inline;fill:none;stroke:#000000;stroke-width:0.99992174;stroke-linecap:butt;stroke-linejoin:round;stroke-miterlimit:4;stroke-dasharray:none;stroke-dashoffset:0;stroke-opacity:0.31782945"
     id="path4160-6-1"
     d="m 0.49996085,3.499959 c 7.10368505,0 31.00004615,0.00174 31.00004615,0.00174 l 3.2e-5,24.998342 c 0,0 -20.666718,0 -31.00007815,0 0,-8.33337 0,-16.666657 0,-24.9999301 z"
     inkscape:connector-curvature="0" />
  <g
     transform="matrix(-0.85624991,0,0,0.85624991,211.23354,-507.74986)"
     id="g4249"
     style="color:#000000;display:inline;overflow:visible;visibility:visible;fill:#000000;fill-opacity:1;fill-rule:nonzero;stroke:none;marker:none;enable-background:accumulate;opacity:0.3" />
  <g
     style="color:#000000;display:inline;overflow:visible;visibility:visible;fill:#000000;fill-opacity:1;fill-rule:nonzero;stroke:#000000;marker:none;enable-background:accumulate;opacity:0.15;stroke-width:2.33576667;stroke-miterlimit:4;stroke-dasharray:none;stroke-opacity:1"
     id="g4261"
     transform="matrix(-0.85624991,0,0,0.85624991,211.23354,-507.74986)" />
  <g
     style="color:#000000;display:inline;overflow:visible;visibility:visible;fill:#e0574c;fill-opacity:1;fill-rule:nonzero;stroke:none;marker:none;enable-background:accumulate"
     id="layer12"
     transform="matrix(-0.85624991,0,0,0.85624991,211.23354,-509.74986)">
    <path
       style="color:#000000;text-indent:0;text-transform:none;display:inline;overflow:visible;visibility:visible;fill:#e0574c;fill-opacity:1;fill-rule:nonzero;stroke:none;marker:none;enable-background:accumulate"
       id="path4222"
       d="m 228.01,607.02 c -3.86,0 -7.0073,3.166 -7.0073,7.0103 0,3.8443 3.1472,6.9787 7.0073,6.9787 3.86,0 7.0073,-3.1344 7.0073,-6.9787 0,-3.8443 -3.1472,-7.0103 -7.0073,-7.0103 z m 0,2.021 c 2.7769,0 5.0097,2.2237 5.0097,4.9893 0,2.7656 -2.2328,4.9577 -5.0097,4.9577 -2.777,0 -5.0097,-2.1921 -5.0097,-4.9577 0,-2.7656 2.2328,-4.9893 5.0097,-4.9893 z"
       inkscape:connector-curvature="0" />
    <path
       style="color:#000000;text-indent:0;text-transform:none;display:inline;overflow:visible;visibility:visible;fill:#e0574c;fill-opacity:1;fill-rule:nonzero;stroke:none;marker:none;enable-background:accumulate"
       id="path4992"
       d="m 231.3069,609.3114 -8,8 1.4062,1.4062 8,-8 z"
       inkscape:connector-curvature="0" />
  </g>
</svg>
