<svg xmlns="http://www.w3.org/2000/svg" height="32" width="32" version="1.0"><path d="M1 5l30 .002V29H1V5z" fill="#f4f4f4"/><path d="M30.5 28.5h-29v-23h29z" fill="none" stroke="#fff" stroke-linecap="round" stroke-linejoin="round"/><path d="M29.5 26.5h-27v-21h27z" fill="#3b3b3b" stroke="#1d1d1d" stroke-linecap="round"/><path d="M.5 3.5l31 .002V28.5H.5v-25z" fill="none" stroke="#000" stroke-linejoin="round" stroke-opacity=".318"/><g style="marker:none" color="#000" fill="#e0574c"><path style="text-indent:0;text-transform:none;marker:none" d="M16 10.011c3.305 0 6 2.71 6 6.003 0 3.291-2.695 5.975-6 5.975s-6-2.684-6-5.975c0-3.292 2.695-6.003 6-6.003zm0 1.73a4.27 4.27 0 0 0-4.29 4.273c0 2.368 1.912 4.245 4.29 4.245s4.29-1.877 4.29-4.245A4.27 4.27 0 0 0 16 11.74z" overflow="visible"/><path style="text-indent:0;text-transform:none;marker:none" d="M13.177 11.973l6.85 6.85-1.204 1.204-6.85-6.85z" overflow="visible"/></g></svg>