<?xml version="1.0" encoding="UTF-8" standalone="no"?>
<svg
   xmlns:dc="http://purl.org/dc/elements/1.1/"
   xmlns:cc="http://creativecommons.org/ns#"
   xmlns:rdf="http://www.w3.org/1999/02/22-rdf-syntax-ns#"
   xmlns:svg="http://www.w3.org/2000/svg"
   xmlns="http://www.w3.org/2000/svg"
   xmlns:sodipodi="http://sodipodi.sourceforge.net/DTD/sodipodi-0.dtd"
   xmlns:inkscape="http://www.inkscape.org/namespaces/inkscape"
   version="1.1"
   width="32"
   height="32"
   id="svg4248"
   sodipodi:docname="image-loading.svg"
   inkscape:version="0.92.4 (5da689c313, 2019-01-14)">
  <sodipodi:namedview
     pagecolor="#ffffff"
     bordercolor="#666666"
     borderopacity="1"
     objecttolerance="10"
     gridtolerance="10"
     guidetolerance="10"
     inkscape:pageopacity="0"
     inkscape:pageshadow="2"
     inkscape:window-width="1366"
     inkscape:window-height="711"
     id="namedview29"
     showgrid="false"
     inkscape:zoom="10.429825"
     inkscape:cx="6.04378"
     inkscape:cy="6.0902639"
     inkscape:window-x="0"
     inkscape:window-y="27"
     inkscape:window-maximized="1"
     inkscape:current-layer="svg4248" />
  <defs
     id="defs4250" />
  <metadata
     id="metadata4253">
    <rdf:RDF>
      <cc:Work
         rdf:about="">
        <dc:format>image/svg+xml</dc:format>
        <dc:type
           rdf:resource="http://purl.org/dc/dcmitype/StillImage" />
        <dc:title></dc:title>
      </cc:Work>
    </rdf:RDF>
  </metadata>
  <g
     id="image-loading_32"
     inkscape:label="#g4822"
     transform="translate(-356,-96)">
    <g
       id="g4551">
      <rect
         style="opacity:1;fill:none;fill-opacity:0.02898554;stroke:none;stroke-width:0.1;stroke-linecap:butt;stroke-linejoin:miter;stroke-miterlimit:4;stroke-dasharray:none;stroke-dashoffset:0;stroke-opacity:0.78431373"
         id="rect4138-25"
         width="32"
         height="32"
         x="356"
         y="96" />
      <g
         inkscape:label="Layer 1"
         id="layer1"
         transform="translate(355.99989,95.999894)">
        <path
           id="path3609-6"
           d="M 16.437608,12.666618 H 15.770937 L 15.104267,17.333315 18.437622,20 l 10e-7,-0.66667 -2.000014,-2.666686 z"
           style="opacity:0.3;fill:#ffffff;fill-opacity:1;fill-rule:evenodd;stroke:none"
           inkscape:connector-curvature="0" />
        <path
           id="path3607-6"
           d="M 16,8.9999996 C 11.584001,8.9999996 8,12.584 8,17 c 0,4.415999 3.584001,8 8,8 4.416,0 8,-3.584001 8,-8 0,-4.416 -3.584,-8.0000004 -8,-8.0000004 z M 16,11 c 3.312022,0 6,2.687978 6,6 0,3.312022 -2.687978,6 -6,6 -3.312022,0 -6,-2.687978 -6,-6 0,-3.312022 2.687978,-6 6,-6 z"
           style="opacity:0.3;fill:#ffffff;fill-opacity:1;fill-rule:evenodd;stroke:none"
           inkscape:connector-curvature="0" />
        <path
           id="path3318-9"
           d="m 9,1.9999996 v 2 h 5 v -2 z m 9,0 v 2 h 5 v -2 z M 1,10 v 5 h 2 v -5 z m 28,0 v 5 h 2 V 10 Z M 1,19 v 5 h 2 v -5 z m 28,0 v 5 h 2 V 19 Z M 9,30 v 2 h 5 v -2 z m 9,0 v 2 h 5 v -2 z"
           style="opacity:0.3;fill:#ffffff;fill-opacity:1;fill-rule:evenodd;stroke:none"
           inkscape:connector-curvature="0" />
        <path
           d="m 27.333515,31 c 2.666684,0 2.666684,0 2.666684,-2.666685 m 0,-22.666818 c 0,-2.666684 0,-2.666684 -2.666684,-2.666684 M 2.0000132,28.333315 C 2.0000132,31 2.0000132,31 4.6666978,31 m 0,-28.000187 c -2.6666847,0 -2.6666846,0 -2.6666846,2.666684"
           id="path2387-4"
           style="opacity:0.3;fill:none;stroke:#ffffff;stroke-width:2.00000024;stroke-linecap:butt;stroke-linejoin:miter;stroke-miterlimit:4;stroke-dasharray:none;stroke-opacity:1"
           inkscape:connector-curvature="0" />
        <path
           id="path3609"
           d="m 16.437608,11.666533 h -0.666671 l -0.66667,4.666697 3.333355,2.666685 10e-7,-0.66667 -2.000014,-2.666686 z"
           style="opacity:0.5;fill:#000000;fill-opacity:1;fill-rule:evenodd;stroke:none"
           inkscape:connector-curvature="0" />
        <path
           id="path3607"
           d="m 16,7.99979 c -4.415999,0 -8,3.584 -8,8 0,4.415999 3.584001,8 8,8 4.416,0 8,-3.584001 8,-8 0,-4.416 -3.584,-8 -8,-8 z m 0,2 c 3.312022,0 6,2.687978 6,6 0,3.312022 -2.687978,6 -6,6 -3.312022,0 -6,-2.687978 -6,-6 0,-3.312022 2.687978,-6 6,-6 z"
           style="opacity:0.5;fill:#000000;fill-opacity:1;fill-rule:evenodd;stroke:none"
           inkscape:connector-curvature="0" />
        <path
           id="path3318-6"
           d="m 9,0.99979 v 2 h 5 v -2 z m 9,0 v 2 h 5 v -2 z m -17,8 v 5 h 2 v -5 z m 28,0 v 5 h 2 v -5 z m -28,9 v 5 h 2 v -5 z m 28,0 v 5 h 2 v -5 z m -20,11 v 2 h 5 v -2 z m 9,0 v 2 h 5 v -2 z"
           style="opacity:0.5;fill:#000000;fill-opacity:1;fill-rule:evenodd;stroke:none"
           inkscape:connector-curvature="0" />
        <path
           d="m 27.333515,29.99999 c 2.666684,0 2.666684,0 2.666684,-2.666685 m 0,-22.6668167 c 0,-2.666684 0,-2.666684 -2.666684,-2.666684 M 2.0000132,27.333305 c 0,2.666685 0,2.666685 2.6666846,2.666685 m 0,-28.0001857 c -2.6666847,0 -2.6666846,0 -2.6666846,2.666684"
           id="path6300-2"
           style="opacity:0.5;fill:none;stroke:#000000;stroke-width:2.00000024;stroke-linecap:butt;stroke-linejoin:miter;stroke-miterlimit:4;stroke-dasharray:none;stroke-opacity:1"
           inkscape:connector-curvature="0" />
      </g>
    </g>
  </g>
</svg>
