<svg version="1.1" viewBox="0 0 32 32" xmlns="http://www.w3.org/2000/svg">
 <defs>
  <style id="current-color-scheme" type="text/css">.ColorScheme-Text { color:#d3dae3; }</style>
 </defs>
 <path class="ColorScheme-Text" d="m12.5 2c-1.2139 0-2.219 0.85593-2.4492 2h-1.0508c-2.216 0-4 1.784-4 4v17c0 2.216 1.7845 4.0476 4 4h4.5c0.277 0 0.5-0.223 0.5-0.5s-0.223-0.5-0.5-0.5h-4.5c-1.662 0-3-1.338-3-3v-17c0-1.662 1.338-3 3-3h1.0508c0.2302 1.1441 1.2354 2 2.4492 2h6c1.2139 0 2.219-0.85593 2.4492-2h1.0508c1.662 0 3 1.338 3 3v0.47461c-4.3e-4 0.0085456 0 0.016734 0 0.025391v1c0 0.277 0.223 0.5 0.5 0.5s0.5-0.223 0.5-0.5v-1c0-0.00866 4.3e-4 -0.016845 0-0.025391v-0.47461c0-2.216-1.784-4-4-4h-1.0508c-0.2302-1.1441-1.2354-2-2.4492-2zm0 1h6c0.831 0 1.5 0.669 1.5 1.5s-0.669 1.5-1.5 1.5h-6c-0.831 0-1.5-0.669-1.5-1.5s0.669-1.5 1.5-1.5zm4.5 8c-1.108 0-2 0.892-2 2v14c0 1.108 0.892 2 2 2h10c1.108 0 2-0.892 2-2v-14c0-1.108-0.892-2-2-2zm0 1h10c0.554 0 1 0.446 1 1v14c0 0.554-0.446 1-1 1h-10c-0.554 0-1-0.446-1-1v-14c0-0.554 0.446-1 1-1z" fill="currentColor"/>
</svg>
