<svg width="32" height="32" version="1.1" xmlns="http://www.w3.org/2000/svg">
 <style id="current-color-scheme" type="text/css">.ColorScheme-Text {
            color:#d3dae3;
        }
        .ColorScheme-ButtonFocus {
            color:#3daee9;
        }
        .ColorScheme-NegativeText {
            color:#da4453;
        }</style>
 <path class="ColorScheme-Text" d="m4.1895 4.1855c-0.12781 0-0.25558 0.04855-0.35352 0.14648-0.19587 0.19587-0.19587 0.51116 0 0.70703l4.2754 4.2754c-0.70335 1.2367-1.1113 2.6621-1.1113 4.1855v5.3262l-1.5176 3.8027c-0.26223 0.65647 0.21888 1.3704 0.92578 1.3711h5.6309c0.24848 1.7215 1.7215 2.9994 3.4609 3 1.7394-6.02e-4 3.2144-1.2785 3.4629-3h3.834l3.668 3.668c0.19587 0.19587 0.51116 0.19587 0.70703 0 0.19587-0.19587 0.19587-0.51116 0-0.70703l-17.797-17.797-4.832-4.832c-0.0979-0.09793-0.2257-0.14648-0.35351-0.14648zm11.311 0.81445c-2.4418 0-4.6405 1.0329-6.1914 2.6836l0.70117 0.70117c1.3674-1.4682 3.3163-2.3848 5.4902-2.3848 4.155 0 7.5 3.345 7.5 7.5v5.5059l1.582 3.9512 0.73243 0.73242c0.25749-0.26903 0.36577-0.67293 0.21093-1.0605l-1.5254-3.8164v-5.3125c0-4.6917-3.8083-8.5-8.5-8.5zm-6.6582 5.0449 12.955 12.955h-15.389l1.5918-3.9805v-5.5195c0-1.2484 0.30608-2.422 0.8418-3.4551zm4.2148 13.955h4.8887c-0.23713 1.1617-1.2596 1.9971-2.4453 2-1.1857-0.0029-2.2062-0.83828-2.4434-2z" fill="currentColor"/>
</svg>
