<svg width="32" height="32" version="1.1" xmlns="http://www.w3.org/2000/svg">
 <style id="current-color-scheme" type="text/css">.ColorScheme-Text {
            color:#d3dae3;
        }
        .ColorScheme-ButtonFocus {
            color:#3daee9;
        }
        .ColorScheme-NegativeText {
            color:#da4453;
        }</style>
 <circle class="ColorScheme-Text" cx="21" cy="8" r="3" fill="currentColor" opacity=".35"/>
 <path class="ColorScheme-Text" d="m15.497 5c-4.6917 0-8.5 3.8083-8.5 8.5v5.3262l-1.5195 3.8027c-0.26223 0.65647 0.22083 1.3704 0.92773 1.3711h5.6289c0.24848 1.7215 1.7235 2.9994 3.4629 3 1.7394-6.02e-4 3.2144-1.2785 3.4629-3h5.6348c0.7069-7.16e-4 1.19-0.71463 0.92773-1.3711l-1.5254-3.8164v-5.3125c0-0.86351-0.13132-1.697-0.37109-2.4824a4 4 0 0 1-0.87305 0.57031c0.15928 0.6101 0.24414 1.2507 0.24414 1.9121v5.5059l1.5977 3.9941h-18.189l1.5918-3.9805v-5.5195c0-4.155 3.345-7.5 7.5-7.5 0.66269 0 1.3048 0.08425 1.916 0.24414a4 4 0 0 1 0.57421-0.87305c-0.78751-0.24117-1.6241-0.37109-2.4902-0.37109zm-2.4434 19h4.8867c-0.23713 1.1617-1.2577 1.9971-2.4434 2-1.1857-0.0029-2.2062-0.83828-2.4434-2z" fill="currentColor"/>
</svg>
