<svg version="1.1" viewBox="0 0 32 32" xmlns="http://www.w3.org/2000/svg">
 <defs>
  <style id="current-color-scheme" type="text/css">.ColorScheme-Text { color:#d3dae3; }</style>
 </defs>
 <path class="ColorScheme-Text" d="m11 2c-1.662 0-3 1.338-3 3v22c0 1.662 1.338 3 3 3h10c1.662 0 3-1.338 3-3v-22c0-1.662-1.338-3-3-3zm0 1h10c1.108 0 2 0.892 2 2v22c0 1.108-0.892 2-2 2h-10c-1.108 0-2-0.892-2-2v-22c0-1.108 0.892-2 2-2zm2.5 23c-0.277 0-0.5 0.223-0.5 0.5s0.223 0.5 0.5 0.5h5c0.277 0 0.5-0.223 0.5-0.5s-0.223-0.5-0.5-0.5z" fill="currentColor"/>
</svg>
