<svg width="128" height="128" enable-background="new" version="1.0" xmlns="http://www.w3.org/2000/svg">
 <path d="m64 4a60 60 0 0 0-60 60 60 60 0 0 0 60 60 60 60 0 0 0 60-60 60 60 0 0 0-60-60zm0 8a52 52 0 0 1 33.82 12.523l-11.598 11.598a2.5665 2.5665 0 0 0-1.0625-3.043 2.5665 2.5665 0 0 0-3.5332 0.83594l-5.0801 8.2285c-1.6824-0.91343-3.4232-1.6931-5.2109-2.3066l2.9492-10.246a2.5665 2.5665 0 0 0-1.7559-3.1758 2.5665 2.5665 0 0 0-3.1758 1.7559l-3.0098 10.449c-1.1087-0.15771-2.2293-0.25586-3.3633-0.25586-0.37157 0-0.73842 0.029292-1.1074 0.046875l-2.3184-10.104a2.5665 2.5665 0 0 0-3.0742-1.9277 2.5665 2.5665 0 0 0-1.9277 3.0742l2.2305 9.7305c-1.956 0.50399-3.86 1.2266-5.7031 2.1113l-4.8438-8.3672a2.5665 2.5665 0 0 0-1.5605-1.1934 2.5665 2.5665 0 0 0-1.9473 0.25977 2.5665 2.5665 0 0 0-0.93555 3.5059l4.8086 8.3086c-1.4936 0.96762-2.9291 2.0271-4.3066 3.1387l-5.9492-5.9512a2.5665 2.5665 0 0 0-1.8145-0.75195 2.5665 2.5665 0 0 0-1.8164 0.75195 2.5665 2.5665 0 0 0 0 3.6309l5.7148 5.7129c-1.2264 1.1654-2.3605 2.3471-3.4453 3.5215l-3.3809-3.3809a2.5665 2.5665 0 0 0-1.8145-0.75195 2.5665 2.5665 0 0 0-1.8145 0.75195 2.5665 2.5665 0 0 0 0 3.6289l3.6348 3.6348c-4.1148 5.022-6.5625 9.0703-6.5625 9.0703s5.3305 8.928 13.701 16.781l-14.123 14.123a52 52 0 0 1-12.625-33.719 52 52 0 0 1 52-52zm39.477 18.18a52 52 0 0 1 12.523 33.82 52 52 0 0 1-52 52 52 52 0 0 1-33.719-12.625l14.672-14.672c5.3627 3.8014 11.502 6.5625 18.027 6.5625 20.949 0 37.934-28.451 37.934-28.451s-2.4436-4.0498-6.5586-9.0723l3.6328-3.6328a2.5665 2.5665 0 0 0 0-3.6289 2.5665 2.5665 0 0 0-1.8145-0.75195 2.5665 2.5665 0 0 0-1.8145 0.75195l-3.3711 3.3711c-0.86403-0.9349-1.7738-1.8773-2.7285-2.8105l5.1953-6.6504a2.5665 2.5665 0 0 0-0.44336-3.6016 2.5665 2.5665 0 0 0-0.095703-0.048828l10.561-10.561zm-40.496 17.668c3.5334 0 6.7584 0.71001 9.668 1.8477l-4.0762 4.0762a14.226 14.226 0 0 0-5.5918-1.1816 14.226 14.226 0 0 0-13.049 19.822l-5.873 5.873c-6.2305-5.302-9.5293-11.471-9.5293-11.471s3.5679-6.683 10.301-12.115a2.5665 2.5665 0 0 0 0.99805-0.58984 2.5665 2.5665 0 0 0 0.34375-0.4375c4.4278-3.2493 10.059-5.8242 16.809-5.8242zm16.924 5.9043c7.5257 5.5672 11.527 13.062 11.527 13.062s-10.119 18.967-28.451 18.967c-4.5723 0-8.6334-1.18-12.154-2.9512l4.2168-4.2168a14.226 14.226 0 0 0 7.9375 2.4258 14.226 14.226 0 0 0 11.775-22.139l5.1484-5.1484zm-19.262 2.7539c1.3827 0 2.5756 0.89433 3.0352 2.1602l-4.2676 4.2676c-1.1712-0.51554-2.0059-1.7326-2.0059-3.1172 0-1.8351 1.4649-3.3105 3.2383-3.3105z" fill="#d3dae3"/>
</svg>
