<svg width="32" height="32" enable-background="new" version="1.1" xmlns="http://www.w3.org/2000/svg">
 <defs>
  <style id="current-color-scheme" type="text/css">.ColorScheme-Text { color:#d3dae3; } .ColorScheme-Highlight { color:#4285f4; }</style>
 </defs>
 <circle class="ColorScheme-Text" cx="16" cy="16" r="8" fill="currentColor" opacity=".45"/>
 <path class="ColorScheme-Text" d="m16 2c-7.732 0-14 6.268-14 14 0 7.732 6.268 14 14 14 7.732 0 14-6.268 14-14 0-7.732-6.268-14-14-14zm0 2a12 12 0 0 1 12 12 12 12 0 0 1-12 12 12 12 0 0 1-12-12 12 12 0 0 1 12-12z" fill="currentColor"/>
</svg>
