<?xml version="1.0" encoding="UTF-8" standalone="no"?>
<!-- Created with Inkscape (http://www.inkscape.org/) -->

<svg
   xmlns:dc="http://purl.org/dc/elements/1.1/"
   xmlns:cc="http://creativecommons.org/ns#"
   xmlns:rdf="http://www.w3.org/1999/02/22-rdf-syntax-ns#"
   xmlns:svg="http://www.w3.org/2000/svg"
   xmlns="http://www.w3.org/2000/svg"
   xmlns:sodipodi="http://sodipodi.sourceforge.net/DTD/sodipodi-0.dtd"
   xmlns:inkscape="http://www.inkscape.org/namespaces/inkscape"
   width="32"
   height="32"
   viewBox="0 0 32 32.000002"
   id="svg2"
   version="1.1"
   inkscape:version="0.92.4 (5da689c313, 2019-01-14)"
   sodipodi:docname="system-switch-user.svg">
  <defs
     id="defs4" />
  <sodipodi:namedview
     id="base"
     pagecolor="#ffffff"
     bordercolor="#666666"
     borderopacity="1.0"
     inkscape:pageopacity="0.0"
     inkscape:pageshadow="2"
     inkscape:zoom="9.1260969"
     inkscape:cx="20.127997"
     inkscape:cy="13.463394"
     inkscape:document-units="px"
     inkscape:current-layer="layer1"
     showgrid="true"
     units="px"
     inkscape:showpageshadow="false"
     borderlayer="true"
     inkscape:window-width="1366"
     inkscape:window-height="711"
     inkscape:window-x="0"
     inkscape:window-y="27"
     inkscape:window-maximized="1"
     showguides="true"
     inkscape:guide-bbox="true">
    <inkscape:grid
       type="xygrid"
       id="grid4136" />
  </sodipodi:namedview>
  <metadata
     id="metadata7">
    <rdf:RDF>
      <cc:Work
         rdf:about="">
        <dc:format>image/svg+xml</dc:format>
        <dc:type
           rdf:resource="http://purl.org/dc/dcmitype/StillImage" />
        <dc:title></dc:title>
      </cc:Work>
    </rdf:RDF>
  </metadata>
  <g
     inkscape:label="Capa 1"
     inkscape:groupmode="layer"
     id="layer1"
     transform="translate(0,-1090.5196)">
    <circle
       style="opacity:1;fill:#66bb6a;fill-opacity:1;stroke:none;stroke-width:1;stroke-opacity:1"
       id="path4160"
       cx="16"
       cy="1106.5197"
       r="15" />
    <circle
       r="14.423077"
       cy="-1106.5197"
       cx="16"
       id="circle4251"
       style="opacity:1;fill:#81c784;fill-opacity:1;stroke:none;stroke-width:1;stroke-opacity:1"
       transform="scale(1,-1)" />
    <g
       id="g849"
       transform="translate(2.0003228,-4.4396531e-5)">
      <path
         style="opacity:1;fill:#ffffff;fill-opacity:1;stroke:none;stroke-width:1.99999988;stroke-linecap:round;stroke-linejoin:round;stroke-miterlimit:4;stroke-dasharray:none;stroke-opacity:1"
         d="m 12.51958,1107.0198 c 0.268475,0.011 0.480598,0.2313 0.48042,0.5 v 1.9998 h 6.999287 c 0.276956,0 0.499948,0.223 0.499948,0.5 v 1.9998 c 0,0.2769 -0.222992,0.4999 -0.499948,0.4999 H 13 v 1.9998 c -4.03e-4,0.4156 -0.478198,0.6493 -0.806559,0.3945 l -4.5005176,-3.4997 c -0.2570719,-0.2001 -0.2570719,-0.5888 0,-0.789 l 4.5005176,-3.4996 c 0.0929,-0.072 0.20838,-0.1098 0.326139,-0.1055 z"
         id="path4276"
         inkscape:connector-curvature="0" />
      <path
         inkscape:connector-curvature="0"
         id="path845"
         d="m 15.479774,1098.0201 c -0.268475,0.011 -0.480598,0.2313 -0.48042,0.5 v 1.9998 H 8.0000675 c -0.276956,0 -0.499948,0.223 -0.499948,0.5 v 1.9998 c 0,0.2769 0.222992,0.4999 0.499948,0.4999 h 6.9992865 v 1.9998 c 4.03e-4,0.4156 0.478198,0.6493 0.806559,0.3945 l 4.500518,-3.4997 c 0.257072,-0.2001 0.257072,-0.5888 0,-0.789 l -4.500518,-3.4996 c -0.0929,-0.072 -0.20838,-0.1098 -0.326139,-0.1055 z"
         style="opacity:1;fill:#ffffff;fill-opacity:1;stroke:none;stroke-width:1.99999988;stroke-linecap:round;stroke-linejoin:round;stroke-miterlimit:4;stroke-dasharray:none;stroke-opacity:1" />
    </g>
  </g>
</svg>
