<?xml version="1.0" encoding="UTF-8" standalone="no"?>
<!-- Created with Inkscape (http://www.inkscape.org/) -->

<svg
   xmlns:dc="http://purl.org/dc/elements/1.1/"
   xmlns:cc="http://creativecommons.org/ns#"
   xmlns:rdf="http://www.w3.org/1999/02/22-rdf-syntax-ns#"
   xmlns:svg="http://www.w3.org/2000/svg"
   xmlns="http://www.w3.org/2000/svg"
   xmlns:sodipodi="http://sodipodi.sourceforge.net/DTD/sodipodi-0.dtd"
   xmlns:inkscape="http://www.inkscape.org/namespaces/inkscape"
   width="32"
   height="32"
   viewBox="0 0 32 32.000002"
   id="svg2"
   version="1.1"
   inkscape:version="0.92.4 (5da689c313, 2019-01-14)"
   sodipodi:docname="system-suspend-hibernate.svg">
  <defs
     id="defs4" />
  <sodipodi:namedview
     id="base"
     pagecolor="#ffffff"
     bordercolor="#666666"
     borderopacity="1.0"
     inkscape:pageopacity="0.0"
     inkscape:pageshadow="2"
     inkscape:zoom="9.1260969"
     inkscape:cx="-0.71138623"
     inkscape:cy="9.7331881"
     inkscape:document-units="px"
     inkscape:current-layer="layer1"
     showgrid="true"
     units="px"
     inkscape:showpageshadow="false"
     borderlayer="true"
     inkscape:window-width="1366"
     inkscape:window-height="711"
     inkscape:window-x="0"
     inkscape:window-y="27"
     inkscape:window-maximized="1"
     showguides="true"
     inkscape:guide-bbox="true"
     inkscape:snap-bbox="true"
     inkscape:snap-nodes="false"
     inkscape:snap-bbox-edge-midpoints="true"
     inkscape:bbox-nodes="true"
     inkscape:snap-bbox-midpoints="false">
    <inkscape:grid
       type="xygrid"
       id="grid4136" />
  </sodipodi:namedview>
  <metadata
     id="metadata7">
    <rdf:RDF>
      <cc:Work
         rdf:about="">
        <dc:format>image/svg+xml</dc:format>
        <dc:type
           rdf:resource="http://purl.org/dc/dcmitype/StillImage" />
        <dc:title></dc:title>
      </cc:Work>
    </rdf:RDF>
  </metadata>
  <g
     inkscape:label="Capa 1"
     inkscape:groupmode="layer"
     id="layer1"
     transform="translate(0,-1090.5196)">
    <circle
       style="opacity:1;fill:#7e57c2;fill-opacity:1;stroke:none;stroke-width:1;stroke-opacity:1"
       id="path4160"
       cx="16"
       cy="1106.5197"
       r="15.000001" />
    <circle
       r="14.423078"
       cy="1106.5197"
       cx="16"
       id="circle4251"
       style="opacity:1;fill:#9575cd;fill-opacity:1;stroke:none;stroke-width:1;stroke-opacity:1" />
    <path
       style="opacity:1;fill:#ffffff;fill-opacity:1;stroke:none;stroke-width:2;stroke-linecap:round;stroke-linejoin:round;stroke-miterlimit:4;stroke-dasharray:none;stroke-opacity:0.52777782"
       d="m 16.666666,1100.5196 c -0.369313,0 -0.666666,0.2973 -0.666666,0.6666 v 2 c 0,0.3694 0.297353,0.6668 0.666666,0.6668 h 3.333331 L 16,1107.1863 v 0.6666 2 c 0,0.3693 0.297353,0.6667 0.666666,0.6667 h 6.666662 c 0.369313,0 0.666666,-0.2974 0.666666,-0.6667 v -2 c 0,-0.3693 -0.297353,-0.6666 -0.666666,-0.6666 h -3.333331 l 3.999997,-3.3333 v -0.6668 -2 c 0,-0.3693 -0.297353,-0.6666 -0.666666,-0.6666 z m -7.999994,6 c -0.369313,0 -0.666666,0.2973 -0.666666,0.6667 v 0.6666 c 0,0.3693 0.297813,0.6852 0.666666,0.6666 h 1.333332 l -1.999998,2.0001 v 0.6667 0.6666 c 0,0.3694 0.297353,0.6667 0.666666,0.6667 h 3.33333 c 0.369315,0 0.666667,-0.2973 0.666667,-0.6667 v -0.6666 c 0,-0.3694 -0.297352,-0.6667 -0.666667,-0.6667 h -1.333331 l 1.999998,-2.0001 v -0.6666 -0.6666 c 0,-0.3694 -0.297352,-0.6667 -0.666667,-0.6667 z"
       id="rect4162"
       inkscape:connector-curvature="0"
       sodipodi:nodetypes="sssscccsssssscccssssssscccsssssscccsss" />
  </g>
</svg>
