<svg xmlns="http://www.w3.org/2000/svg" height="32" width="32"><path style="marker:none" d="M16 1.5C8 1.5 1.5 8 1.5 16S8 30.5 16 30.5 30.5 24 30.5 16 24 1.5 16 1.5z" color="#000" fill="#77cb75" overflow="visible"/><path style="marker:none;isolation:auto;mix-blend-mode:normal;solid-color:#000;solid-opacity:1;filter-blend-mode:normal;filter-gaussianBlur-deviation:0" d="M16 1.5C8 1.5 1.5 8 1.5 16S8 30.5 16 30.5 30.5 24 30.5 16 24 1.5 16 1.5z" opacity=".5" color="#000" fill="none" stroke="#2b812b" stroke-linecap="round" stroke-linejoin="round" overflow="visible"/><g style="isolation:auto;mix-blend-mode:normal;solid-color:#000;solid-opacity:1;marker:none;filter-blend-mode:normal;filter-gaussianBlur-deviation:0" color="#000" fill="#fff"><g style="isolation:auto;mix-blend-mode:normal;solid-color:#000;solid-opacity:1;marker:none;filter-blend-mode:normal;filter-gaussianBlur-deviation:0"><path d="M15 8c-2.016 0-4 2.026-4 4v2h10v-2c0-1.995-1.964-4-4-4zm0 2h2c1.157 0 2 1.17 2 2v2h-6v-2c0-.667.801-2 2-2zM10 15v2.25h2.25v.5H10v1.5h2.25v.5H10v1.5h2.25v.5H10v.75c0 .831.669 1.5 1.5 1.5h9c.831 0 1.5-.669 1.5-1.5v-.75h-2.25v-.5H22v-1.5h-2.25v-.5H22v-1.5h-2.25v-.5H22V15z" style="isolation:auto;mix-blend-mode:normal;solid-color:#000;solid-opacity:1;marker:none;filter-blend-mode:normal;filter-gaussianBlur-deviation:0" overflow="visible"/></g></g></svg>