<?xml version="1.0" encoding="UTF-8" standalone="no"?>
<svg
   xmlns:dc="http://purl.org/dc/elements/1.1/"
   xmlns:cc="http://creativecommons.org/ns#"
   xmlns:rdf="http://www.w3.org/1999/02/22-rdf-syntax-ns#"
   xmlns:svg="http://www.w3.org/2000/svg"
   xmlns="http://www.w3.org/2000/svg"
   xmlns:xlink="http://www.w3.org/1999/xlink"
   xmlns:sodipodi="http://sodipodi.sourceforge.net/DTD/sodipodi-0.dtd"
   xmlns:inkscape="http://www.inkscape.org/namespaces/inkscape"
   version="1.1"
   width="32"
   height="32"
   id="svg4248"
   sodipodi:docname="system-shutdown.svg"
   inkscape:version="0.92.4 (5da689c313, 2019-01-14)">
  <sodipodi:namedview
     pagecolor="#ffffff"
     bordercolor="#666666"
     borderopacity="1"
     objecttolerance="10"
     gridtolerance="10"
     guidetolerance="10"
     inkscape:pageopacity="0"
     inkscape:pageshadow="2"
     inkscape:window-width="1366"
     inkscape:window-height="697"
     id="namedview29"
     showgrid="false"
     inkscape:zoom="10.429825"
     inkscape:cx="0.065434415"
     inkscape:cy="13.303559"
     inkscape:window-x="0"
     inkscape:window-y="0"
     inkscape:window-maximized="1"
     inkscape:current-layer="svg4248" />
  <defs
     id="defs4250">
    <linearGradient
       id="linearGradient4011-4">
      <stop
         id="stop4013-8"
         style="stop-color:#ffffff;stop-opacity:1"
         offset="0" />
      <stop
         id="stop4015-5"
         style="stop-color:#ffffff;stop-opacity:0.23529412"
         offset="0.507761" />
      <stop
         id="stop4017-6"
         style="stop-color:#ffffff;stop-opacity:0.15686275"
         offset="0.83456558" />
      <stop
         id="stop4019-1"
         style="stop-color:#ffffff;stop-opacity:0.39215687"
         offset="1" />
    </linearGradient>
    <linearGradient
       x1="71.204407"
       y1="6.2375584"
       x2="71.204407"
       y2="44.340794"
       id="linearGradient3089"
       xlink:href="#linearGradient4011-4"
       gradientUnits="userSpaceOnUse"
       gradientTransform="matrix(0.72972969,0,0,0.72972969,-36.346075,-2.5039314)" />
    <radialGradient
       cx="0.96534902"
       cy="8.4497671"
       r="19.99999"
       fx="0.96534902"
       fy="8.4497671"
       id="radialGradient3092"
       xlink:href="#linearGradient2867-449-88-871-390-598-476-591-434-148-57-177-8-3-3-6-4-8-8-8-5"
       gradientUnits="userSpaceOnUse"
       gradientTransform="matrix(0,4.7500023,-5.0249359,-1.3352823e-7,58.459621,-17.585409)" />
    <linearGradient
       id="linearGradient3820-7-2-2">
      <stop
         id="stop3822-2-6-36"
         style="stop-color:#3d3d3d;stop-opacity:1"
         offset="0" />
      <stop
         id="stop3864-8-7-6"
         style="stop-color:#686868;stop-opacity:0.49803922"
         offset="0.5" />
      <stop
         id="stop3824-1-2-4"
         style="stop-color:#686868;stop-opacity:0"
         offset="1" />
    </linearGradient>
    <radialGradient
       cx="99.157013"
       cy="186.17059"
       r="62.769119"
       fx="99.157013"
       fy="186.17059"
       id="radialGradient3315"
       xlink:href="#linearGradient3820-7-2-2"
       gradientUnits="userSpaceOnUse"
       gradientTransform="matrix(0.17524541,0,0,0.05575992,-1.3768101,18.118568)" />
    <linearGradient
       id="linearGradient2867-449-88-871-390-598-476-591-434-148-57-177-8-3-3-6-4-8-8-8-5">
      <stop
         id="stop3750-1-0-7-6-6-1-3-9-3"
         style="stop-color:#919caf;stop-opacity:1"
         offset="0" />
      <stop
         id="stop3752-3-7-4-0-32-8-923-0-7"
         style="stop-color:#68758e;stop-opacity:1"
         offset="0.26238" />
      <stop
         id="stop3754-1-8-5-2-7-6-7-1-9"
         style="stop-color:#485a6c;stop-opacity:1"
         offset="0.704952" />
      <stop
         id="stop3756-1-6-2-6-6-1-96-6-0"
         style="stop-color:#444c5c;stop-opacity:1"
         offset="1" />
    </linearGradient>
  </defs>
  <metadata
     id="metadata4253">
    <rdf:RDF>
      <cc:Work
         rdf:about="">
        <dc:format>image/svg+xml</dc:format>
        <dc:type
           rdf:resource="http://purl.org/dc/dcmitype/StillImage" />
        <dc:title />
      </cc:Work>
    </rdf:RDF>
  </metadata>
  <path
     style="color:#000000;display:inline;overflow:visible;visibility:visible;opacity:0.98999999;fill:#d93c3f;fill-opacity:0.99215686;fill-rule:nonzero;stroke:none;stroke-width:0.99999982;marker:none;enable-background:accumulate"
     id="path2555-7-8-5-0-9"
     d="M 15.999999,1.4982016 C 7.9984044,1.4982016 1.4982015,7.9984048 1.4982015,16 c 0,8.001595 6.5002029,14.501798 14.5017975,14.501798 8.001596,0 14.501813,-6.500203 14.501799,-14.501798 0,-8.0015952 -6.500203,-14.5017984 -14.501799,-14.5017984 z"
     inkscape:connector-curvature="0" />
  <path
     style="color:#000000;display:inline;overflow:visible;visibility:visible;opacity:0.5;vector-effect:none;fill:none;fill-opacity:1;stroke:#7a0000;stroke-width:0.99999988;stroke-linecap:round;stroke-linejoin:round;stroke-miterlimit:4;stroke-dasharray:none;stroke-dashoffset:0;stroke-opacity:1;marker:none;enable-background:accumulate"
     id="path2555-4"
     d="M 16.000001,1.4999999 C 7.9994018,1.4999999 1.5,7.9993994 1.5,15.999999 1.5,24.0006 7.9994018,30.500003 16.000001,30.5 24.000598,30.5 30.500008,24.0006 30.5,15.999999 30.5,7.9993994 24.000598,1.4999999 16.000001,1.4999999 Z"
     inkscape:connector-curvature="0" />
  <path
     d="m 11.876532,8.7764794 c -0.203664,0 -0.393298,0.080088 -0.565968,0.1617044 l -0.40426,0.2425574 C 8.9220627,10.48952 7.5235326,12.512024 7.1062441,14.88083 c -4.447e-4,0.0026 -0.039984,-0.0024 -0.040429,0 -0.010994,0.06524 0.00957,0.136365 0,0.202131 -0.059892,0.399517 -0.1212787,0.795031 -0.1212787,1.212784 0,4.822579 4.0542686,8.732051 9.0554606,8.732051 5.001192,0 9.05546,-3.909472 9.05546,-8.732051 0,-0.370962 -0.03347,-0.732435 -0.08085,-1.091506 -0.01495,-0.111667 -0.06144,-0.21328 -0.08085,-0.323409 C 24.47647,12.512024 23.07794,10.48952 21.093699,9.1807412 L 20.689438,8.9381838 c -0.17267,-0.08162 -0.362303,-0.1617044 -0.565967,-0.1617044 -0.736656,0 -1.334063,0.5974071 -1.334063,1.3340626 0,0.419245 0.223064,0.806559 0.52554,1.05108 0.09613,0.07772 0.207949,0.153297 0.323409,0.202131 1.250004,0.83178 2.176339,2.075122 2.587275,3.517077 0.0078,0.02751 0.03293,0.05327 0.04043,0.08085 0.13445,0.493921 0.202131,1.000224 0.202131,1.536194 0,3.4447 -2.895905,6.225629 -6.468186,6.225629 -3.572281,0 -6.4681856,-2.780929 -6.4681856,-6.225629 0,-0.53597 0.067682,-1.042273 0.2021309,-1.536194 0.0078,-0.02876 0.032277,-0.05226 0.040429,-0.08085 0.4109357,-1.441955 1.3372707,-2.685297 2.5872757,-3.517077 0.115456,-0.04883 0.227272,-0.124409 0.323408,-0.202131 0.302477,-0.244521 0.525541,-0.631835 0.525541,-1.05108 0,-0.7366555 -0.597407,-1.3340626 -1.334063,-1.3340626 z M 16,5.623239 c 0.716674,0 1.293637,0.5769622 1.293637,1.293637 l 0,7.761823 c 0,0.716675 -0.576963,1.293637 -1.293637,1.293637 -0.716676,0 -1.293638,-0.576962 -1.293638,-1.293637 l 0,-7.761823 c 0,-0.7166748 0.576962,-1.293637 1.293638,-1.293637 z"
     id="path3782"
     style="color:#000000;display:inline;overflow:visible;visibility:visible;opacity:1;fill:#ffffff;fill-opacity:1;fill-rule:nonzero;stroke:none;stroke-width:1px;marker:none;enable-background:accumulate" />
</svg>
