<svg width="32" height="32" version="1.1" xmlns="http://www.w3.org/2000/svg">
 <defs>
  <style id="current-color-scheme" type="text/css">.ColorScheme-Text { color:#d3dae3; } .ColorScheme-Highlight { color:#5294e2; }</style>
 </defs>
 <path class="ColorScheme-Text" d="m3.75 7c-0.41406 0-0.75 0.33594-0.75 0.75v1.5c0 0.41406 0.33594 0.75 0.75 0.75h1.5c0.41406 0 0.75-0.33594 0.75-0.75v-1.5c0-0.41406-0.33594-0.75-0.75-0.75h-1.5zm0 4c-0.41406 0-0.75 0.33594-0.75 0.75v1.5c0 0.41406 0.33594 0.75 0.75 0.75h1.5c0.41406 0 0.75-0.33594 0.75-0.75v-1.5c0-0.41406-0.33594-0.75-0.75-0.75h-1.5zm0 4c-0.41406 0-0.75 0.33594-0.75 0.75v1.5c0 0.41406 0.33594 0.75 0.75 0.75h1.5c0.41406 0 0.75-0.33594 0.75-0.75v-1.5c0-0.41406-0.33594-0.75-0.75-0.75h-1.5zm0 4c-0.41406 0-0.75 0.33594-0.75 0.75v1.5c0 0.41406 0.33594 0.75 0.75 0.75h1.5c0.41406 0 0.75-0.33594 0.75-0.75v-1.5c0-0.41406-0.33594-0.75-0.75-0.75h-1.5z" fill="currentColor" opacity=".25"/>
 <path class="ColorScheme-Text" d="m4 3c-2.216 0-4 1.784-4 4v17c0 2.216 1.784 4 4 4h24c2.216 0 4-1.784 4-4v-17c0-2.216-1.784-4-4-4zm0 1h24c1.662 0 3 1.338 3 3v17c0 1.662-1.338 3-3 3h-24c-1.662 0-3-1.338-3-3v-17c0-1.662 1.338-3 3-3z" fill="currentColor"/>
</svg>
