<svg version="1.1" viewBox="0 0 32 32" xmlns="http://www.w3.org/2000/svg">
 <defs>
  <style id="current-color-scheme" type="text/css">.ColorScheme-Text { color:#5d656b; }</style>
 </defs>
 <rect x="3" y="3" width="26" height="26" rx="6" ry="6" fill="#388ef0" stroke="#326eb3" stroke-width="2"/>
 <rect x="3" y="3" width="26" height="26" rx="6" ry="6" fill="#388ef0"/>
 <path class="ColorScheme-Text" d="m16 7c-1.1046 0-2 0.89543-2 2h-3v0.0059c-1.113 0.03258-2 0.93345-2 2.0547v10.879c0 1.142 0.91853 2.0605 2.0605 2.0605h9.879c1.142 0 2.0605-0.91853 2.0605-2.0605v-10.879c0-1.142-0.91853-2.0605-2.0605-2.0605h-2.9394c0-0.138-0.0053-0.27625-0.03125-0.40625-0.19615-0.93036-1.0179-1.5956-1.9688-1.5938zm-0.01172 1c0.0039-2.29e-5 0.0078-2.29e-5 0.01172 0 0.414 0 0.75425 0.266 0.90625 0.625 0.05689 0.11716 0.08882 0.24486 0.09375 0.375-6.1e-5 0.88813-1.0716 1.3352-1.7031 0.71094-0.63157-0.62426-0.19666-1.7005 0.69141-1.7109zm-4.9883 2h3v1s-1 0-1 1h6c0-0.75-0.56275-0.953-0.84375-1h-0.15625v-1h3c0.554 0 1 0.446 1 1v11c0 0.554-0.446 1-1 1h-10c-0.554 0-1-0.446-1-1v-11c0-0.554 0.446-1 1-1z" color="#5d656b" fill="#ffffff"/>
</svg>
