<svg width="32" height="32" version="1.1" xmlns="http://www.w3.org/2000/svg">
 <defs>
  <style id="current-color-scheme" type="text/css">.ColorScheme-Text {
        color:#5d656b;
      }</style>
 </defs>
 <rect x="3" y="3" width="26" height="26" rx="6" ry="6" fill="#919095" stroke="#747378" stroke-width="2"/>
 <rect x="3" y="3" width="26" height="26" rx="6" ry="6" fill="#919095"/>
 <g fill="#ffffff" stroke-linecap="round" stroke-linejoin="round" stroke-width="2">
  <path d="m9 8c-1.108 0-2 0.892-2 2v3c0 1.108 0.892 2 2 2h4c1.108 0 2-0.892 2-2v-3c0-1.108-0.892-2-2-2h-4zm0 1h4c0.03373 0 0.066914 0.0021028 0.099609 0.0058594 6.47e-4 6.4e-5 0.001308-6.52e-5 0.001953 0 0.50548 0.051028 0.89844 0.47477 0.89844 0.99414v3c0 0.51937-0.39296 0.94311-0.89844 0.99414-6.45e-4 6.5e-5 -0.001306-6.4e-5 -0.001953 0-0.032695 0.003756-0.065879 0.005859-0.099609 0.005859h-4c-0.03373 0-0.066914-0.002103-0.099609-0.005859-6.376e-4 -7.4e-5 -0.0013159 7.4e-5 -0.0019531 0-0.50548-0.051028-0.89844-0.47477-0.89844-0.99414v-3c0-0.51937 0.39296-0.94311 0.89844-0.99414 6.372e-4 -7.47e-5 0.0013155 7.32e-5 0.0019531 0 0.032695-0.0037566 0.065879-0.0058594 0.099609-0.0058594z" style="paint-order:stroke fill markers"/>
  <path d="m19 7c-1.108 0-2 0.892-2 2v4c0 1.108 0.892 2 2 2h4c1.108 0 2-0.892 2-2v-4c0-1.108-0.892-2-2-2h-4zm0 1h4c0.554 0 1 0.446 1 1v4c0 0.554-0.446 1-1 1h-4c-0.554 0-1-0.446-1-1v-4c0-0.554 0.446-1 1-1z" style="paint-order:stroke fill markers"/>
  <path d="m9 17c-1.108 0-2 0.892-2 2v4c0 1.108 0.892 2 2 2h10c1.108 0 2-0.892 2-2v-4c0-1.108-0.892-2-2-2h-10zm0 1h10c0.554 0 1 0.446 1 1v4c0 0.554-0.446 1-1 1h-10c-0.554 0-1-0.446-1-1v-4c0-0.554 0.446-1 1-1z" style="paint-order:stroke fill markers"/>
  <path d="m8 12v1c0 0.554 0.446 1 1 1h4c0.554 0 1-0.446 1-1v-1c0 0.554-0.446 1-1 1h-4c-0.554 0-1-0.446-1-1z" opacity=".35" style="paint-order:stroke fill markers"/>
  <path d="m18 12v1c0 0.554 0.446 1 1 1h4c0.554 0 1-0.446 1-1v-1c0 0.554-0.446 1-1 1h-4c-0.554 0-1-0.446-1-1z" opacity=".35" style="paint-order:stroke fill markers"/>
  <path d="m8 22v1c0 0.554 0.446 1 1 1h10c0.554 0 1-0.446 1-1v-1c0 0.554-0.446 1-1 1h-10c-0.554 0-1-0.446-1-1z" opacity=".35" style="paint-order:stroke fill markers"/>
 </g>
</svg>
