<?xml version="1.0" encoding="UTF-8" standalone="no"?>
<!-- Created with Inkscape (http://www.inkscape.org/) -->

<svg
   xmlns:dc="http://purl.org/dc/elements/1.1/"
   xmlns:cc="http://creativecommons.org/ns#"
   xmlns:rdf="http://www.w3.org/1999/02/22-rdf-syntax-ns#"
   xmlns:svg="http://www.w3.org/2000/svg"
   xmlns="http://www.w3.org/2000/svg"
   xmlns:sodipodi="http://sodipodi.sourceforge.net/DTD/sodipodi-0.dtd"
   xmlns:inkscape="http://www.inkscape.org/namespaces/inkscape"
   width="64"
   height="64"
   viewBox="0 0 64 64.000003"
   id="svg2"
   version="1.1"
   inkscape:version="0.92.4 (5da689c313, 2019-01-14)"
   sodipodi:docname="system-suspend-hibernate.svg">
  <defs
     id="defs4" />
  <sodipodi:namedview
     id="base"
     pagecolor="#ffffff"
     bordercolor="#666666"
     borderopacity="1.0"
     inkscape:pageopacity="0.0"
     inkscape:pageshadow="2"
     inkscape:zoom="25.8125"
     inkscape:cx="24.332872"
     inkscape:cy="51.866349"
     inkscape:document-units="px"
     inkscape:current-layer="layer1"
     showgrid="true"
     units="px"
     inkscape:showpageshadow="false"
     borderlayer="true"
     inkscape:window-width="1366"
     inkscape:window-height="711"
     inkscape:window-x="0"
     inkscape:window-y="27"
     inkscape:window-maximized="1"
     showguides="true"
     inkscape:guide-bbox="true">
    <inkscape:grid
       type="xygrid"
       id="grid4136" />
    <sodipodi:guide
       position="5,5.0000688"
       orientation="0,54"
       id="guide4144"
       inkscape:locked="false" />
    <sodipodi:guide
       position="59,5.0000688"
       orientation="-54,0"
       id="guide4146"
       inkscape:locked="false" />
    <sodipodi:guide
       position="59,59.000069"
       orientation="0,-54"
       id="guide4148"
       inkscape:locked="false" />
    <sodipodi:guide
       position="0,64.000069"
       orientation="64,0"
       id="guide4150"
       inkscape:locked="false" />
    <sodipodi:guide
       position="0,6.875e-05"
       orientation="0,64"
       id="guide4152"
       inkscape:locked="false" />
    <sodipodi:guide
       position="64,4.0000002"
       orientation="-64,0"
       id="guide4154"
       inkscape:locked="false" />
    <sodipodi:guide
       position="64,64.000069"
       orientation="0,-64"
       id="guide4156"
       inkscape:locked="false" />
    <sodipodi:guide
       position="5,41.000002"
       orientation="1,0"
       id="guide4174"
       inkscape:locked="false" />
  </sodipodi:namedview>
  <metadata
     id="metadata7">
    <rdf:RDF>
      <cc:Work
         rdf:about="">
        <dc:format>image/svg+xml</dc:format>
        <dc:type
           rdf:resource="http://purl.org/dc/dcmitype/StillImage" />
        <dc:title></dc:title>
      </cc:Work>
    </rdf:RDF>
  </metadata>
  <g
     inkscape:label="Capa 1"
     inkscape:groupmode="layer"
     id="layer1"
     transform="translate(0,-1058.5196)">
    <circle
       style="opacity:1;fill:#7e57c2;fill-opacity:1;stroke:none;stroke-opacity:1"
       id="path4160"
       cx="32"
       cy="1091.5194"
       r="26" />
    <circle
       r="25"
       cy="1091.5198"
       cx="32"
       id="circle4251"
       style="opacity:1;fill:#9575cd;fill-opacity:1;stroke:none;stroke-opacity:1" />
    <path
       style="opacity:1;fill:#ffffff;fill-opacity:1;stroke:none;stroke-width:2;stroke-linecap:round;stroke-linejoin:round;stroke-miterlimit:4;stroke-dasharray:none;stroke-opacity:0.52777782"
       d="m 33,1082.5198 c -0.553971,0 -1,0.446 -1,1 l 0,3 c 0,0.554 0.446029,1 1,1 l 5,0 -6,5 0,1 0,3 c 0,0.554 0.446029,1 1,1 l 10,0 c 0.553971,0 1,-0.446 1,-1 l 0,-3 c 0,-0.554 -0.446029,-1 -1,-1 l -5,0 6,-5 0,-1 0,-3 c 0,-0.554 -0.446029,-1 -1,-1 z m -12,9 c -0.553971,0 -1,0.446 -1,1 l 0,1 c 0,0.554 0.44672,1.0277 1,1 l 2,0 -3,3 0,1 0,1 c 0,0.554 0.446029,1 1,1 l 5,0 c 0.553971,0 1,-0.446 1,-1 l 0,-1 c 0,-0.554 -0.446029,-1 -1,-1 l -2,0 3,-3 0,-1 0,-1 c 0,-0.554 -0.446029,-1 -1,-1 z"
       id="rect4162"
       inkscape:connector-curvature="0"
       sodipodi:nodetypes="sssscccsssssscccssssssscccsssssscccsss" />
  </g>
</svg>
