<svg version="1.1" viewBox="0 0 32 32" xmlns="http://www.w3.org/2000/svg">
 <defs>
  <style id="current-color-scheme" type="text/css">.ColorScheme-Text {
        color:#5d656b;
      }</style>
 </defs>
 <path class="ColorScheme-Text" d="m16 4c-3.878 0-7 3.122-7 7v3h-3c-1.108 0-2 0.892-2 2v11c0 1.108 0.892 2 2 2h20c1.108 0 2-0.892 2-2v-11c0-1.108-0.892-2-2-2h-3v-3c0-3.878-3.122-7-7-7zm0 1c3.324 0 6 2.676 6 6v3h-12v-3c0-3.324 2.676-6 6-6zm-10 10h3 1 12 1 3c0.554 0 1 0.446 1 1v11c0 0.554-0.446 1-1 1h-20c-0.554 0-1-0.446-1-1v-11c0-0.554 0.446-1 1-1z" fill="currentColor"/>
</svg>
