<?xml version="1.0" encoding="UTF-8" standalone="no"?>
<svg
   xmlns:dc="http://purl.org/dc/elements/1.1/"
   xmlns:cc="http://creativecommons.org/ns#"
   xmlns:rdf="http://www.w3.org/1999/02/22-rdf-syntax-ns#"
   xmlns:svg="http://www.w3.org/2000/svg"
   xmlns="http://www.w3.org/2000/svg"
   xmlns:sodipodi="http://sodipodi.sourceforge.net/DTD/sodipodi-0.dtd"
   xmlns:inkscape="http://www.inkscape.org/namespaces/inkscape"
   version="1.1"
   width="32"
   height="32"
   id="svg3658"
   sodipodi:docname="system-reboot.svg"
   inkscape:version="0.92.4 (5da689c313, 2019-01-14)">
  <sodipodi:namedview
     pagecolor="#ffffff"
     bordercolor="#666666"
     borderopacity="1"
     objecttolerance="10"
     gridtolerance="10"
     guidetolerance="10"
     inkscape:pageopacity="0"
     inkscape:pageshadow="2"
     inkscape:window-width="1366"
     inkscape:window-height="697"
     id="namedview27"
     showgrid="false"
     inkscape:zoom="14.75"
     inkscape:cx="7.8471958"
     inkscape:cy="16.03766"
     inkscape:window-x="0"
     inkscape:window-y="0"
     inkscape:window-maximized="1"
     inkscape:current-layer="svg3658" />
  <defs
     id="defs3660" />
  <metadata
     id="metadata3663">
    <rdf:RDF>
      <cc:Work
         rdf:about="">
        <dc:format>image/svg+xml</dc:format>
        <dc:type
           rdf:resource="http://purl.org/dc/dcmitype/StillImage" />
        <dc:title />
      </cc:Work>
    </rdf:RDF>
  </metadata>
  <path
     style="color:#000000;display:inline;overflow:visible;visibility:visible;opacity:0.98999999;fill:#4da2f3;fill-opacity:0.99215686;fill-rule:nonzero;stroke:none;stroke-width:0.99999982;marker:none;enable-background:accumulate"
     id="path2555-7-8-5-0-9"
     d="m 16.001797,1.4964037 c -8.0015951,0 -14.501798,6.5002032 -14.501798,14.5017983 0,8.001595 6.5002029,14.501798 14.501798,14.501798 8.001596,0 14.501813,-6.500203 14.501799,-14.501798 0,-8.0015951 -6.500203,-14.5017983 -14.501799,-14.5017983 z"
     inkscape:connector-curvature="0" />
  <path
     style="color:#000000;clip-rule:nonzero;display:inline;overflow:visible;visibility:visible;opacity:0.5;isolation:auto;mix-blend-mode:normal;color-interpolation:sRGB;color-interpolation-filters:linearRGB;solid-color:#000000;solid-opacity:1;vector-effect:none;fill:none;fill-opacity:1;fill-rule:nonzero;stroke:#002e99;stroke-width:0.99999988;stroke-linecap:round;stroke-linejoin:round;stroke-miterlimit:4;stroke-dasharray:none;stroke-dashoffset:0;stroke-opacity:1;marker:none;color-rendering:auto;image-rendering:auto;shape-rendering:auto;text-rendering:auto;enable-background:accumulate"
     id="path2555-4"
     d="m 16.001799,1.4982023 c -8.0005991,0 -14.5000009,6.4993995 -14.5000009,14.4999987 0,8.000601 6.4994018,14.500004 14.5000009,14.500001 8.000597,0 14.500007,-6.4994 14.499999,-14.500001 0,-8.0005992 -6.499402,-14.4999987 -14.499999,-14.4999987 z"
     inkscape:connector-curvature="0" />
  <path
     style="color:#bebebe;display:inline;overflow:visible;visibility:visible;opacity:1;fill:#ffffff;fill-opacity:1;fill-rule:nonzero;stroke:none;stroke-width:1;marker:none;enable-background:accumulate"
     d="m 16,6.4999989 0,2.4285709 c -4.023791,0 -7.285714,3.2619262 -7.285714,7.2857162 C 8.714286,20.238077 11.976209,23.5 16,23.5 c 4.023791,0 7.285715,-3.261923 7.285715,-7.285714 l -2.428571,0 c 0,2.682527 -2.174616,4.857143 -4.857144,4.857143 -2.682527,0 -4.857143,-2.174616 -4.857143,-4.857143 0,-2.682527 2.174616,-4.857143 4.857143,-4.857143 l 0,2.428572 6.071429,-3.642857 L 16,6.4999989 Z"
     id="path2984" />
</svg>
