<svg width="32" height="32" version="1.1" xmlns="http://www.w3.org/2000/svg">
 <style id="current-color-scheme" type="text/css">.ColorScheme-Text {
            color:#5d656b;
        }</style>
 <path class="ColorScheme-Text" d="m11 5c-0.554 0-1 0.446-1 1v2h-7c-0.554 0-1 0.446-1 1v17c0 0.554 0.446 1 1 1h26c0.554 0 1-0.446 1-1v-17c0-0.554-0.446-1-1-1h-7v-2c0-0.554-0.446-1-1-1zm0 1h10v2h-10zm-8 3h26v5h-26zm0 6h8v2c0 0.554 0.446 1 1 1h8c0.554 0 1-0.446 1-1v-2h8v11h-26zm9 0h8v2h-8z" fill="currentColor"/>
</svg>
