<?xml version="1.0" encoding="UTF-8" standalone="no"?>
<svg
   xmlns:dc="http://purl.org/dc/elements/1.1/"
   xmlns:cc="http://creativecommons.org/ns#"
   xmlns:rdf="http://www.w3.org/1999/02/22-rdf-syntax-ns#"
   xmlns:svg="http://www.w3.org/2000/svg"
   xmlns="http://www.w3.org/2000/svg"
   xmlns:sodipodi="http://sodipodi.sourceforge.net/DTD/sodipodi-0.dtd"
   xmlns:inkscape="http://www.inkscape.org/namespaces/inkscape"
   width="24"
   height="24"
   version="1.1"
   id="svg7"
   sodipodi:docname="folder-saved-search.svg"
   inkscape:version="0.92.4 (5da689c313, 2019-01-14)">
  <metadata
     id="metadata11">
    <rdf:RDF>
      <cc:Work
         rdf:about="">
        <dc:format>image/svg+xml</dc:format>
        <dc:type
           rdf:resource="http://purl.org/dc/dcmitype/StillImage" />
        <dc:title></dc:title>
      </cc:Work>
    </rdf:RDF>
  </metadata>
  <sodipodi:namedview
     pagecolor="#ffffff"
     bordercolor="#666666"
     borderopacity="1"
     objecttolerance="10"
     gridtolerance="10"
     guidetolerance="10"
     inkscape:pageopacity="0"
     inkscape:pageshadow="2"
     inkscape:window-width="1366"
     inkscape:window-height="708"
     id="namedview9"
     showgrid="false"
     inkscape:zoom="10.429825"
     inkscape:cx="-0.72475069"
     inkscape:cy="13.398763"
     inkscape:window-x="0"
     inkscape:window-y="34"
     inkscape:window-maximized="1"
     inkscape:current-layer="svg7" />
  <defs
     id="defs3">
    <style
       id="current-color-scheme"
       type="text/css">
   .ColorScheme-Text { color:#727272; } .ColorScheme-Highlight { color:#5294e2; }
  </style>
  </defs>
  <path
     style="display:inline;opacity:0.75;fill:#5c657a;fill-opacity:1;stroke:none;stroke-width:2;stroke-linecap:butt;stroke-linejoin:miter;stroke-miterlimit:4;stroke-dasharray:none;stroke-dashoffset:0;stroke-opacity:0.65098039"
     d="m 14.214649,4.9979333 c -1.225726,0 -2.447355,0.4717049 -3.382555,1.4069058 -1.6465959,1.6465924 -1.8512261,4.1845569 -0.598685,6.0466899 -0.02874,0.02152 -0.06277,0.03506 -0.08978,0.05986 l -4.9391255,4.520059 c -0.3909565,0.358829 -0.1656944,1.181333 0.2095468,1.556571 0.3752381,0.375244 1.1977383,0.600508 1.55657,0.20954 l 4.5200487,-4.939125 c 0.02478,-0.02701 0.03831,-0.06104 0.05984,-0.08978 1.862127,1.252542 4.400098,1.047909 6.046695,-0.598688 1.870397,-1.870396 1.870397,-4.8947095 0,-6.765106 -0.935203,-0.9351994 -2.15683,-1.406898 -3.382556,-1.406898 z m 0,1.9157855 c 0.735435,0 1.474398,0.2770346 2.035519,0.8381543 1.122242,1.1222424 1.122242,2.9488009 0,4.0710369 -1.122239,1.122242 -2.948801,1.122242 -4.071035,0 -1.122242,-1.122236 -1.122242,-2.9487945 0,-4.0710369 0.561117,-0.5611197 1.300078,-0.8381527 2.035516,-0.8381543 z"
     id="path836"
     inkscape:connector-curvature="0" />
</svg>
