<?xml version="1.0" encoding="UTF-8" standalone="no"?>
<svg
   xmlns:dc="http://purl.org/dc/elements/1.1/"
   xmlns:cc="http://creativecommons.org/ns#"
   xmlns:rdf="http://www.w3.org/1999/02/22-rdf-syntax-ns#"
   xmlns:svg="http://www.w3.org/2000/svg"
   xmlns="http://www.w3.org/2000/svg"
   xmlns:sodipodi="http://sodipodi.sourceforge.net/DTD/sodipodi-0.dtd"
   xmlns:inkscape="http://www.inkscape.org/namespaces/inkscape"
   width="24"
   height="24"
   viewBox="0 0 24 24"
   version="1.1"
   id="svg9"
   sodipodi:docname="folder-open.svg"
   inkscape:version="0.92.4 (5da689c313, 2019-01-14)">
  <metadata
     id="metadata13">
    <rdf:RDF>
      <cc:Work
         rdf:about="">
        <dc:format>image/svg+xml</dc:format>
        <dc:type
           rdf:resource="http://purl.org/dc/dcmitype/StillImage" />
        <dc:title></dc:title>
      </cc:Work>
    </rdf:RDF>
  </metadata>
  <sodipodi:namedview
     pagecolor="#ffffff"
     bordercolor="#666666"
     borderopacity="1"
     objecttolerance="10"
     gridtolerance="10"
     guidetolerance="10"
     inkscape:pageopacity="0"
     inkscape:pageshadow="2"
     inkscape:window-width="1366"
     inkscape:window-height="708"
     id="namedview11"
     showgrid="true"
     inkscape:zoom="20.85965"
     inkscape:cx="-0.98453222"
     inkscape:cy="10.664327"
     inkscape:window-x="0"
     inkscape:window-y="34"
     inkscape:window-maximized="1"
     inkscape:current-layer="svg9"
     inkscape:snap-object-midpoints="true"
     inkscape:snap-midpoints="true"
     inkscape:snap-smooth-nodes="true"
     inkscape:snap-bbox="true"
     inkscape:bbox-nodes="true"
     inkscape:snap-nodes="true">
    <inkscape:grid
       type="xygrid"
       id="grid826" />
  </sodipodi:namedview>
  <defs
     id="defs3">
    <style
       id="current-color-scheme"
       type="text/css">
   .ColorScheme-Text { color:#727272; } .ColorScheme-Highlight { color:#5294e2; }
  </style>
  </defs>
  <g
     id="g821"
     transform="translate(4,-2)">
    <path
       sodipodi:nodetypes="ccccccccc"
       inkscape:connector-curvature="0"
       id="path5"
       d="m 1,8 v 4 h 1 l 4,-2 h 9 V 8 C 15,7 14,7 14,7 H 2 C 2,7 1,7 1,8 Z"
       style="color:#727272;opacity:1;fill:#000000;fill-opacity:0.26666667" />
    <path
       sodipodi:nodetypes="cscscsscccc"
       inkscape:connector-curvature="0"
       id="path7"
       d="m 15,11 c 0,0 1,0 1,1 v 8 c 0,0 0,1 -1,1 H 1 c 0,0 -1,0 -1,-1 v -6 c 0,-1 1,-1 1,-1 h 6 l 2,-2 z"
       class="ColorScheme-Text"
       style="color:#727272;fill:#003479;fill-opacity:0.56078384" />
    <path
       style="color:#727272;fill:#6ba4e7;fill-opacity:1;stroke-width:1"
       class="ColorScheme-Text"
       d="m 15,12 v 0.8 6.4 0.8 H 1 l -3e-8,-0.8 V 14.8 L 1,14 h 6.4434398 l 2,-2 z"
       id="path834"
       inkscape:connector-curvature="0"
       sodipodi:nodetypes="ccccccccccc" />
    <path
       style="color:#727272;opacity:1;fill:#ffffff;fill-opacity:1"
       d="m 2,8 v 4 h 5 l 2,-2 h 5 V 8 H 13 3 Z"
       id="path836"
       inkscape:connector-curvature="0"
       sodipodi:nodetypes="ccccccccc" />
  </g>
</svg>
