<svg width="24" height="24" version="1.1" xmlns="http://www.w3.org/2000/svg">
 <defs>
  <style id="current-color-scheme" type="text/css"/>
 </defs>
 <g transform="translate(-1419 -233)">
  <rect x="1420" y="234" width="22" height="22" fill="none" opacity=".75"/>
  <path d="m1431 237.26-2.369 5.6378a0.9169 0.95464 0 0 1-0.8398 0.57236h-4.8311l4.0486 3.5665a0.9169 0.95464 0 0 1 0.2775 1.031l-1.5704 4.9088 4.858-2.6586a0.9169 0.95464 0 0 1 0.8542 0l4.8579 2.6567-1.5721-4.907a0.9169 0.95464 0 0 1 0.2775-1.031l4.0487-3.5665h-4.8312a0.9169 0.95464 0 0 1-0.8398-0.57236z" fill="#5c657a" opacity=".65" stroke="#5c657a" stroke-linecap="square"/>
  <path d="m1431 234.4a0.45845 0.47732 0 0 0-0.4011 0.28524l-3.0871 7.3511h-7.0354a0.45845 0.47732 0 0 0-0.2954 0.84083l5.7211 5.0412-2.19 6.8534a0.45845 0.47732 0 0 0 0.6482 0.57422l6.6612-3.6467 6.6611 3.6448a0.45845 0.47732 0 0 0 0.6482-0.57236l-2.1934-6.8534 5.721-5.0412a0.45845 0.47732 0 0 0-0.2955-0.84083h-7.0354l-3.087-7.3511a0.45845 0.47732 0 0 0-0.4405-0.28524zm0.02 1.6686 2.788 6.6352a0.45845 0.47732 0 0 0 0.4208 0.28711h6.0828l-5.003 4.4073a0.45845 0.47732 0 0 0-0.1398 0.51643l1.9321 6.033-5.8661-3.2104a0.45845 0.47732 0 0 0-0.4262 0l-5.8678 3.2123 1.9302-6.0349a0.45845 0.47732 0 0 0-0.1396-0.51643l-5.003-4.4073h6.0828a0.45845 0.47732 0 0 0 0.4208-0.28711z" color="#000000" color-rendering="auto" fill="#25282f" image-rendering="auto" opacity=".65" shape-rendering="auto" solid-color="#000000" style="isolation:auto;mix-blend-mode:normal;text-decoration-color:#000000;text-decoration-line:none;text-decoration-style:solid;text-indent:0;text-transform:none;white-space:normal"/>
 </g>
</svg>
