<svg width="24" height="24" version="1.1" viewBox="0 0 24 24" xmlns="http://www.w3.org/2000/svg">
 <defs>
  <style id="current-color-scheme" type="text/css">.ColorScheme-Text {
        color:#5d656b;
      }</style>
 </defs>
 <g class="ColorScheme-Text" transform="translate(4,4.5)" fill="currentColor">
  <path d="m3 0c-0.554 0-1 0.446-1 1-0.554 0-1 0.446-1 1v3h1v-3h1v-1h4v1h7v1h1v-1c0-0.554-0.446-1-1-1h-6c0-0.554-0.446-1-1-1z" style="paint-order:fill markers stroke"/>
  <path d="m8 3-1 2h-6c-0.554 0-1 0.446-1 1v8c0 0.554 0.446 1 1 1h9v-1h-9v-8h6.7324l0.875-2h6.3926v5h1v-5c0-0.5-0.5-1-1-1z"/>
  <path d="m8.6074 4-0.875 2h-6.7324v8h9v-4c0-0.554 0.446-1 1-1h4v-5z" opacity=".25"/>
 </g>
 <path class="ColorScheme-Text" d="m17 14.5v2h-2v1h2v2h1v-2h2v-1h-2v-2z" fill="currentColor"/>
</svg>
