<svg xmlns="http://www.w3.org/2000/svg" width="24" height="24" version="1.1" id="svg7"><defs id="defs3"><style id="current-color-scheme" type="text/css"></style><clipPath clipPathUnits="userSpaceOnUse" id="clipPath827-5-3"><rect ry=".529" y="285.358" x=".529" height="9.525" width="15.875" id="rect829-3-6" transform="rotate(45)" opacity="1" fill="#5677fc" fill-opacity="1" stroke="none" stroke-width=".251" stroke-miterlimit="4" stroke-dasharray="none" stroke-opacity=".196" paint-order="markers stroke fill"/></clipPath></defs><g id="g826" transform="translate(4 4)" stroke="none"><rect ry="1" rx="1" y="1" x="1" height="7" width="14" id="rect23" display="inline" opacity="1" fill="#000" fill-opacity=".267" stroke-width="1" stroke-linecap="round" stroke-linejoin="miter" stroke-miterlimit="4" stroke-dasharray="none" stroke-opacity="1" paint-order="stroke markers fill"/><rect ry="0" rx="0" y="2" x="2" height="6" width="12" id="rect816" opacity="1" fill="#f9f9f9" fill-opacity="1" stroke-width="1" stroke-linecap="round" stroke-linejoin="miter" stroke-miterlimit="4" stroke-dasharray="none" stroke-opacity="1" paint-order="stroke markers fill"/><path id="path4-3" d="M8 3L7 5H1c-.554 0-1 .446-1 1v8c0 .554.446 1 1 1h14c.554 0 1-.446 1-1V4c0-.5-.5-1-1-1z" display="inline" fill="#003579" fill-opacity=".561"/><path d="M8.608 4l-.876 2H1v8h14V4z" id="path819" display="inline" fill="#6ba4e7" fill-opacity="1" stroke-width="1"/></g></svg>