<svg width="24" height="24" version="1.1" xmlns="http://www.w3.org/2000/svg">
 <defs>
  <style id="current-color-scheme" type="text/css"/>
 </defs>
 <g transform="translate(-920 -361)">
  <rect x="921" y="362" width="22" height="22" fill="none" opacity=".75"/>
  <path d="m933.22 363c-5.0945 0-9.2871 3.4856-9.7454 8.5714h-2.4712l3.6498 4.7619 3.6498-4.7619h-2.3825c0.45075-3.7079 3.5519-6.087 7.2995-6.087 4.0573 0 7.3502 3.367 7.3502 7.5155s-3.2929 7.5155-7.3502 7.5155c-2.2013 0-4.1779-0.99281-5.5254-2.5621l-1.7869 1.6925c1.7925 2.0606 4.4045 3.354 7.3122 3.354 5.4004 0 9.7834-4.48 9.7834-10s-4.383-10-9.7834-10z" color="#000000" fill="#5c657a" opacity=".75"/>
  <path d="m933.83 366.81h-0.91666l-0.91667 6.6667 4.5833 3.8095v-0.95238l-2.75-3.8095z" color="#000000" fill="#5c657a" opacity=".75"/>
 </g>
</svg>
