<svg width="24" height="24" version="1.1" xmlns="http://www.w3.org/2000/svg">
 <defs>
  <style id="current-color-scheme" type="text/css"/>
 </defs>
 <g transform="translate(-920,-105)">
  <rect x="921" y="106" width="22" height="22" fill="none" opacity=".75"/>
  <g stroke-width="0">
   <path d="m922 111c-0.55399 0-1 0.446-1 1v13c0 0.554 0.44602 1 1 1h20c0.55399 0 1-0.446 1-1v-13c0-0.554-0.44601-1-1-1h-2l-1-3h-14l-1 3zm0 1h2.7l1-3h12.6l1 3h2.7v13h-20z" fill="#25282f" opacity=".65"/>
   <path d="m932 112c-2.7614 0-5 2.2386-5 5s2.2386 5 5 5 5-2.2386 5-5-2.2386-5-5-5zm0 1c2.2091 0 4 1.7909 4 4s-1.7909 4-4 4-4-1.7909-4-4 1.7909-4 4-4z" fill="#25282f" opacity=".65"/>
   <path d="m925.5 108-1 3h-2.5v14h20v-14h-2.5l-1-3zm6.5 4c2.7614 0 5 2.2386 5 5s-2.2386 5-5 5-5-2.2386-5-5 2.2386-5 5-5z" fill="#5c657a" opacity=".65"/>
  </g>
 </g>
</svg>
