<?xml version="1.0" encoding="UTF-8" standalone="no"?>
<svg
   xmlns:dc="http://purl.org/dc/elements/1.1/"
   xmlns:cc="http://creativecommons.org/ns#"
   xmlns:rdf="http://www.w3.org/1999/02/22-rdf-syntax-ns#"
   xmlns:svg="http://www.w3.org/2000/svg"
   xmlns="http://www.w3.org/2000/svg"
   xmlns:sodipodi="http://sodipodi.sourceforge.net/DTD/sodipodi-0.dtd"
   xmlns:inkscape="http://www.inkscape.org/namespaces/inkscape"
   width="16"
   height="16"
   version="1.1"
   id="svg7"
   sodipodi:docname="caffeine-cup-full.svg"
   inkscape:version="0.92.4 (5da689c313, 2019-01-14)">
  <metadata
     id="metadata11">
    <rdf:RDF>
      <cc:Work
         rdf:about="">
        <dc:format>image/svg+xml</dc:format>
        <dc:type
           rdf:resource="http://purl.org/dc/dcmitype/StillImage" />
      </cc:Work>
    </rdf:RDF>
  </metadata>
  <sodipodi:namedview
     pagecolor="#bebebe"
     bordercolor="#666666"
     borderopacity="1"
     objecttolerance="10"
     gridtolerance="10"
     guidetolerance="10"
     inkscape:pageopacity="0"
     inkscape:pageshadow="2"
     inkscape:window-width="1366"
     inkscape:window-height="704"
     id="namedview9"
     showgrid="false"
     inkscape:zoom="14.75"
     inkscape:cx="2.6449653"
     inkscape:cy="9.1081517"
     inkscape:window-x="0"
     inkscape:window-y="34"
     inkscape:window-maximized="1"
     inkscape:current-layer="svg7" />
  <defs
     id="defs3">
    <style
       id="current-color-scheme"
       type="text/css">
   .ColorScheme-Text { color:#bebebe; } .ColorScheme-Highlight { color:#5294e2; }
  </style>
  </defs>
  <path
     style="color:#000000;fill:#bebebe;fill-opacity:1;stroke:none"
     d="m 1,7 v 3 c 0,3 2,5 5,5 h 2 c 3,0 4.759784,-1.56569 4.958984,-4 H 13.5 C 15,11 15,9.5 15,9.5 v -1 C 15,7 13.5,7 13.5,7 H 13 Z m 1,1 h 10 v 2 c 0,2.216 -1.784,4 -4,4 H 6 C 3.784,14 2,12.216 2,10 Z m 11.5,0 c 0.5,-0.0323 0.515625,0.53125 0.515625,0.53125 v 1 C 14.015625,10 13.5,10 13.5,10 H 13 l 0.0098,-1.984375 z"
     id="path4274"
     inkscape:connector-curvature="0" />
  <path
     inkscape:connector-curvature="0"
     d="m 7.19332,-3.63e-4 c -1.0982,1.38422 -1.4282,2.06599 -1.0321,2.94706 0.3591,0.79867 1.2876,1.20591 0.821,3.05294 0.7664,-0.89992 1.3758,-2.04275 0.774,-2.9647 -0.6122,-0.9377 -0.9479,-1.5073 -0.5629,-3.0353 z"
     id="path4276"
     sodipodi:nodetypes="cscsc"
     style="color:#000000;opacity:1;fill:#bebebe;fill-opacity:1;stroke:none" />
  <path
     inkscape:connector-curvature="0"
     d="m 4.19332,-3.63e-4 c -1.0982,1.38422 -1.4282,2.06599 -1.0321,2.94706 0.3591,0.79867 1.2876,1.20591 0.821,3.05294 0.7664,-0.89992 1.3758,-2.04275 0.774,-2.9647 -0.6122,-0.9377 -0.9479,-1.5073 -0.5629,-3.0353 z"
     id="path4278"
     sodipodi:nodetypes="cscsc"
     style="color:#000000;opacity:1;fill:#bebebe;fill-opacity:1;stroke:none" />
  <path
     inkscape:connector-curvature="0"
     d="m 10.19332,-3.63e-4 c -1.0982,1.38422 -1.4282,2.06599 -1.0321,2.94706 0.3591,0.79867 1.2876,1.20591 0.821,3.05294 0.7664,-0.89992 1.3758,-2.04275 0.774,-2.9647 -0.6122,-0.9377 -0.9479,-1.5073 -0.5629,-3.0353 z"
     id="path4280"
     sodipodi:nodetypes="cscsc"
     style="color:#000000;opacity:1;fill:#bebebe;fill-opacity:1;stroke:none" />
  <path
     style="opacity:1;fill:#bebebe;fill-opacity:1;fill-rule:evenodd;stroke:none;stroke-width:2;stroke-linecap:square;stroke-linejoin:miter;stroke-miterlimit:4;stroke-dasharray:none;stroke-opacity:1;paint-order:fill markers stroke"
     d="m 3,9 v 1 c 0,1.661999 1.338,3 3,3 h 2 c 1.662,0 3,-1.338001 3,-3 V 9 Z"
     id="rect834"
     inkscape:connector-curvature="0" />
</svg>
