<?xml version="1.0" encoding="UTF-8" standalone="no"?>
<svg
   xmlns:dc="http://purl.org/dc/elements/1.1/"
   xmlns:cc="http://creativecommons.org/ns#"
   xmlns:rdf="http://www.w3.org/1999/02/22-rdf-syntax-ns#"
   xmlns:svg="http://www.w3.org/2000/svg"
   xmlns="http://www.w3.org/2000/svg"
   xmlns:sodipodi="http://sodipodi.sourceforge.net/DTD/sodipodi-0.dtd"
   xmlns:inkscape="http://www.inkscape.org/namespaces/inkscape"
   width="16"
   height="16"
   version="1.1"
   id="svg7"
   sodipodi:docname="fcitx-panel.svg"
   inkscape:version="0.92.4 (5da689c313, 2019-01-14)">
  <metadata
     id="metadata11">
    <rdf:RDF>
      <cc:Work
         rdf:about="">
        <dc:format>image/svg+xml</dc:format>
        <dc:type
           rdf:resource="http://purl.org/dc/dcmitype/StillImage" />
      </cc:Work>
    </rdf:RDF>
  </metadata>
  <sodipodi:namedview
     pagecolor="#bebebe"
     bordercolor="#666666"
     borderopacity="1"
     objecttolerance="10"
     gridtolerance="10"
     guidetolerance="10"
     inkscape:pageopacity="0"
     inkscape:pageshadow="2"
     inkscape:window-width="1366"
     inkscape:window-height="711"
     id="namedview9"
     showgrid="false"
     inkscape:zoom="14.75"
     inkscape:cx="-11.830509"
     inkscape:cy="8"
     inkscape:window-x="0"
     inkscape:window-y="27"
     inkscape:window-maximized="1"
     inkscape:current-layer="svg7" />
  <defs
     id="defs3">
    <style
       id="current-color-scheme"
       type="text/css">
   .ColorScheme-Text { color:#bebebe; } .ColorScheme-Highlight { color:#5294e2; }
  </style>
  </defs>
  <path
     id="path2"
     style="color:#000000;overflow:visible;fill:#dddddd;fill-opacity:1;marker:none"
     overflow="visible"
     d="M 3,1 C 1.892,1 1,1.892 1,3 v 10 c 0,1.108 0.892,2 2,2 h 10 c 1.108,0 2,-0.892 2,-2 V 3 C 15,1.892 14.108,1 13,1 Z m 0,1 h 10 c 0.554,0 1,0.446 1,1 v 9 c 0,0.554 -0.446,1 -1,1 H 3 C 2.446,13 2,12.554 2,12 V 3 C 2,2.446 2.446,2 3,2 Z m 6.656,3.994 c -0.79,0 -1.548,0.257 -2.28,0.75 L 7.75,7.594 C 8.062,7.384 8.366,7.234 8.656,7.125 8.954,7.009 9.227,6.969 9.532,6.969 c 0.449,0 0.791,0.104 1.03,0.344 C 10.802,7.545 11,7.861 11,8.281 V 8.588 C 10.79,8.508 10.48,8.444 10.219,8.4 A 4.015,4.015 0 0 0 9.438,8.338 C 9.082,8.338 8.766,8.376 8.469,8.463 8.179,8.55 7.905,8.678 7.688,8.838 7.478,8.998 7.335,9.183 7.219,9.4 7.103,9.618 7.031,9.95 7.031,10.219 c 0,0.254 0.063,0.501 0.157,0.719 0.101,0.217 0.208,0.402 0.375,0.562 0.174,0.16 0.393,0.28 0.625,0.375 C 8.427,11.962 8.693,12 8.969,12 c 0.428,0 0.818,-0.076 1.188,-0.25 0.377,-0.181 0.683,-0.448 0.937,-0.781 l 0.031,0.344 a 0.743,0.743 0 0 0 0.219,0.437 c 0.123,0.109 0.299,0.173 0.531,0.188 0.08,0 0.187,0.006 0.281,0 0.102,-0.008 0.197,-0.01 0.313,-0.032 V 10.875 C 12.345,10.868 12.165,10.839 12.115,10.781 A 0.497,0.497 0 0 1 12,10.469 V 8.338 C 12,7.591 11.904,7.018 11.469,6.619 11.034,6.22 10.439,5.994 9.656,5.994 Z m -0.09,3.07 c 0.218,0 0.608,0.05 0.833,0.094 0.232,0.044 0.398,0.106 0.601,0.186 v 0.75 c 0,0.145 -0.129,0.307 -0.281,0.437 C 10.292,10.911 9.779,10.961 9.281,11 8.955,11 8.547,11.018 8.337,10.829 8.127,10.633 8,10.408 8,10.125 8,9.82 8.295,9.556 8.563,9.375 a 1.67,1.67 0 0 1 1.004,-0.31 z"
     inkscape:connector-curvature="0" />
</svg>
