<svg id="svg9" width="16" height="16" version="1.1" xmlns="http://www.w3.org/2000/svg">
 <defs id="defs3">
  <style id="current-color-scheme" type="text/css"/>
 </defs>
 <path id="path822" d="m8 0.94336-0.32422 0.11133-5.6758 1.9453v0.71484c0 3.4165-0.065143 5.3082 0.67578 6.9688 0.74685 1.6729 2.2348 2.6923 4.8262 4.1836l0.49805 0.28711 0.49805-0.28711c2.5913-1.4912 4.0794-2.51 4.8262-4.1836 0.74088-1.6604 0.6762-3.5525 0.67578-6.9688v-0.71484l-6-2.0566zm0 1.0566 5 1.7148c4.17e-4 3.4192 0.015556 5.2037-0.58984 6.5605-0.60582 1.3577-1.849 2.2507-4.4102 3.7246-2.5612-1.4739-3.8043-2.3674-4.4102-3.7246-0.6054-1.3568-0.58984-3.141-0.58984-6.5605l5-1.7148z" color="#000000" color-rendering="auto" dominant-baseline="auto" fill="#d3dae3" image-rendering="auto" shape-rendering="auto" solid-color="#000000" style="font-feature-settings:normal;font-variant-alternates:normal;font-variant-caps:normal;font-variant-ligatures:normal;font-variant-numeric:normal;font-variant-position:normal;isolation:auto;mix-blend-mode:normal;shape-padding:0;text-decoration-color:#000000;text-decoration-line:none;text-decoration-style:solid;text-indent:0;text-orientation:mixed;text-transform:none;white-space:normal"/>
 <path id="path5" d="m8 5c0.84039 0.00125 1.6417 0.35494 2.209 0.975l0.789-0.457-0.178 1.474 4e-3 8e-3h-4e-3l-0.121 1-2.299-0.982 0.909-0.526c-0.36292-0.31617-0.82768-0.49086-1.309-0.492-0.7138 7.321e-4 -1.3731 0.38183-1.73 1h-1.097c0.42361-1.1981 1.5562-1.9994 2.827-2zm-2.701 3.018 2.299 0.982-0.897 0.518c0.36174 0.31031 0.8224 0.48124 1.299 0.482 0.7138-7.321e-4 1.3731-0.38183 1.73-1h1.096c-0.42349 1.1978-1.5555 1.999-2.826 2-0.83446-0.001143-1.6307-0.35014-2.197-0.963l-0.803 0.463 0.18-1.49-4e-3 -0.01h4e-3z" color="#d3dae3" fill="currentColor" fill-rule="evenodd"/>
</svg>
