<svg xmlns="http://www.w3.org/2000/svg" width="16" height="16" enable-background="new"><defs><filter id="a" color-interpolation-filters="sRGB"><feBlend mode="darken" in2="BackgroundImage"/></filter></defs><g fill="#444"><path d="M15 1.003l-6 6h2c1.108 0 2 .892 2 2s-.892 2-2 2H5l-4 4h14v-14z" opacity=".35"/><path style="marker:none" d="M5 8.003a1 1 0 1 0 0 2 1 1 0 0 0 0-2zm3 0a1 1 0 1 0 0 2 1 1 0 0 0 0-2zm3 0a1 1 0 1 0 0 2 1 1 0 0 0 0-2z" color="#444" overflow="visible" enable-background="accumulate"/></g></svg>