<?xml version="1.0" encoding="UTF-8" standalone="no"?>
<svg
   xmlns:osb="http://www.openswatchbook.org/uri/2009/osb"
   xmlns:dc="http://purl.org/dc/elements/1.1/"
   xmlns:cc="http://creativecommons.org/ns#"
   xmlns:rdf="http://www.w3.org/1999/02/22-rdf-syntax-ns#"
   xmlns:svg="http://www.w3.org/2000/svg"
   xmlns="http://www.w3.org/2000/svg"
   width="16"
   version="1.1"
   style="enable-background:new"
   id="svg7384"
   height="16">
  <metadata
     id="metadata90">
    <rdf:RDF>
      <cc:Work
         rdf:about="">
        <dc:format>image/svg+xml</dc:format>
        <dc:type
           rdf:resource="http://purl.org/dc/dcmitype/StillImage" />
        <dc:title>Moka Symbolic Icon Theme</dc:title>
      </cc:Work>
    </rdf:RDF>
  </metadata>
  <title
     id="title8473">Moka Symbolic Icon Theme</title>
  <defs
     id="defs7386">
    <linearGradient
       osb:paint="solid"
       id="linearGradient5606">
      <stop
         style="stop-color:#000000;stop-opacity:1;"
         offset="0"
         id="stop5608" />
    </linearGradient>
    <filter
       id="filter7554"
       color-interpolation-filters="sRGB">
      <feBlend
         mode="darken"
         in2="BackgroundImage"
         id="feBlend7556" />
    </filter>
  </defs>
  <g
     transform="translate(-485.0004,431.00336)"
     style="display:inline"
     id="layer9">
    <g
       transform="translate(-13.99978,-28.00336)"
       style="stroke:none;display:inline;enable-background:new"
       id="g9699">
      <path
         style="opacity:0.35;color:#000000;fill:#444444;fill-opacity:1;stroke:none"
         id="path9701"
         d="m 508.99998,-393.99664 5.5,-4.5 -5.5,-4.5 c 0.004,0.003 0,1.33333 0,2 -1,0 -2,0 -3,0 0,1.66667 0,3.33333 0,5 1,0 2,0 3,0 0,0.66667 0,2 0,2 z" />
      <path
         style="opacity:0.35;color:#000000;fill:#444444;fill-opacity:1;stroke:none"
         id="path9705"
         d="m 504.99998,-396.99664 -5.5,4.5 5.5,4.5 c -0.004,-0.003 0,-1.33333 0,-2 1,0 3,0 3,0 l 0,-2.1875 0,-0.8125 0,-2 c 0,0 -2,0 -3,0 0,-0.66667 0,-2 0,-2 z" />
    </g>
  </g>
  <g
     transform="translate(-485.0004,431.00336)"
     style="display:inline;filter:url(#filter7554)"
     id="layer10" />
  <g
     transform="translate(-244.0002,-185.99664)"
     style="display:inline"
     id="layer1" />
  <g
     transform="translate(-485.0004,431.00336)"
     style="display:inline"
     id="layer14" />
  <g
     transform="translate(-485.0004,431.00336)"
     style="display:inline"
     id="layer15" />
  <g
     transform="translate(-485.0004,431.00336)"
     style="display:inline"
     id="g71291" />
  <g
     transform="translate(-244.0002,-35.99664)"
     style="display:inline"
     id="layer2" />
  <g
     transform="translate(-244.0002,-35.99664)"
     style="display:inline"
     id="g6058" />
  <g
     transform="translate(-485.0004,431.00336)"
     style="display:inline"
     id="layer12" />
</svg>
