<?xml version="1.0" encoding="UTF-8" standalone="no"?>
<svg
   xmlns:osb="http://www.openswatchbook.org/uri/2009/osb"
   xmlns:dc="http://purl.org/dc/elements/1.1/"
   xmlns:cc="http://creativecommons.org/ns#"
   xmlns:rdf="http://www.w3.org/1999/02/22-rdf-syntax-ns#"
   xmlns:svg="http://www.w3.org/2000/svg"
   xmlns="http://www.w3.org/2000/svg"
   height="16"
   id="svg7384"
   style="enable-background:new"
   version="1.1"
   width="16">
  <metadata
     id="metadata90">
    <rdf:RDF>
      <cc:Work
         rdf:about="">
        <dc:format>image/svg+xml</dc:format>
        <dc:type
           rdf:resource="http://purl.org/dc/dcmitype/StillImage" />
        <dc:title>Moka Symbolic Icon Theme</dc:title>
      </cc:Work>
    </rdf:RDF>
  </metadata>
  <title
     id="title8473">Moka Symbolic Icon Theme</title>
  <defs
     id="defs7386">
    <linearGradient
       id="linearGradient5606"
       osb:paint="solid">
      <stop
         id="stop5608"
         offset="0"
         style="stop-color:#000000;stop-opacity:1;" />
    </linearGradient>
    <filter
       color-interpolation-filters="sRGB"
       id="filter7554">
      <feBlend
         id="feBlend7556"
         in2="BackgroundImage"
         mode="darken" />
    </filter>
  </defs>
  <g
     id="layer9"
     style="display:inline"
     transform="translate(-321.0002,327.00333)">
    <path
       style="opacity:0.35;fill:#444444;fill-opacity:1;stroke:none"
       d="M 15 1 L 1 15 L 9 15 L 9 13.125 L 9 12.125 L 9 11.125 L 10 11.125 C 10.01675 9.48763 11.35439 8.125 13 8.125 C 13.767637 8.125 14.46927 8.4237675 15 8.90625 L 15 1 z M 11 13.125 L 11 15 L 15 15 L 15 13.125 L 14 13.125 L 12 13.125 L 11 13.125 z "
       transform="translate(321.0002,-327.00333)"
       id="path6584" />
    <path
       d="m 326.0002,-316 -4,4 4,0 0,-4 z"
       id="path6586"
       style="fill:#444444;fill-opacity:1;stroke:none" />
    <path
       style="fill:#444444"
       d="m 334,-317.875 c -1.108,0 -2,0.91081 -2,2.03125 l 0,0.96875 -1,0 0,1 0,2 0,1 1,0 4,0 1,0 0,-1 0,-2 0,-1 -1,0 0,-0.96875 c 0,-1.12 -0.892,-2.03125 -2,-2.03125 z m 0,1 c 0.554,0 1,0.44236 1,1 l 0,1 -2,0 0,-1 c 0,-0.55764 0.446,-1 1,-1 z"
       id="path5983" />
  </g>
  <g
     id="layer10"
     style="display:inline;filter:url(#filter7554)"
     transform="translate(-321.0002,327.00333)" />
  <g
     id="layer1"
     style="display:inline"
     transform="translate(-80,-289.99667)" />
  <g
     id="layer14"
     style="display:inline"
     transform="translate(-321.0002,327.00333)" />
  <g
     id="layer15"
     style="display:inline"
     transform="translate(-321.0002,327.00333)" />
  <g
     id="g71291"
     style="display:inline"
     transform="translate(-321.0002,327.00333)" />
  <g
     id="layer2"
     style="display:inline"
     transform="translate(-80,-139.99667)" />
  <g
     id="g6058"
     style="display:inline"
     transform="translate(-80,-139.99667)" />
  <g
     id="layer12"
     style="display:inline"
     transform="translate(-321.0002,327.00333)" />
</svg>
