<?xml version="1.0" encoding="UTF-8" standalone="no"?>
<svg
   xmlns:osb="http://www.openswatchbook.org/uri/2009/osb"
   xmlns:dc="http://purl.org/dc/elements/1.1/"
   xmlns:cc="http://creativecommons.org/ns#"
   xmlns:rdf="http://www.w3.org/1999/02/22-rdf-syntax-ns#"
   xmlns:svg="http://www.w3.org/2000/svg"
   xmlns="http://www.w3.org/2000/svg"
   width="16"
   version="1.1"
   style="enable-background:new"
   id="svg7384"
   height="16">
  <metadata
     id="metadata90">
    <rdf:RDF>
      <cc:Work
         rdf:about="">
        <dc:format>image/svg+xml</dc:format>
        <dc:type
           rdf:resource="http://purl.org/dc/dcmitype/StillImage" />
        <dc:title>Moka Symbolic Icon Theme</dc:title>
      </cc:Work>
    </rdf:RDF>
  </metadata>
  <title
     id="title8473">Moka Symbolic Icon Theme</title>
  <defs
     id="defs7386">
    <linearGradient
       osb:paint="solid"
       id="linearGradient5606">
      <stop
         style="stop-color:#000000;stop-opacity:1;"
         offset="0"
         id="stop5608" />
    </linearGradient>
    <filter
       id="filter7554"
       color-interpolation-filters="sRGB">
      <feBlend
         mode="darken"
         in2="BackgroundImage"
         id="feBlend7556" />
    </filter>
  </defs>
  <g
     transform="translate(-361.00018,327.00333)"
     style="display:inline"
     id="layer9">
    <path
       style="opacity:0.35;fill:#444444;fill-opacity:1;stroke:none"
       id="path6603"
       d="m 376.0002,-326 -6,6 2,0 c 1.108,0 2,0.892 2,2 0,1.108 -0.892,2 -2,2 l -6,0 -4,4 14,0 0,-14 z" />
    <path
       style="color:#444444;fill:#444444;fill-opacity:1;fill-rule:nonzero;stroke:none;stroke-width:1;marker:none;visibility:visible;display:inline;overflow:visible;enable-background:accumulate"
       id="path5112"
       d="m 366.00014,-319 c -0.55228,0 -1,0.44772 -1,1 0,0.55228 0.44772,1 1,1 0.55228,0 1,-0.44772 1,-1 0,-0.55228 -0.44772,-1 -1,-1 z m 3,0 c -0.55228,0 -1,0.44772 -1,1 0,0.55228 0.44772,1 1,1 0.55228,0 1,-0.44772 1,-1 0,-0.55228 -0.44772,-1 -1,-1 z m 3,0 c -0.55228,0 -1,0.44772 -1,1 0,0.55228 0.44772,1 1,1 0.55228,0 1,-0.44772 1,-1 0,-0.55228 -0.44772,-1 -1,-1 z" />
  </g>
  <g
     transform="translate(-361.00018,327.00333)"
     style="display:inline;filter:url(#filter7554)"
     id="layer10" />
  <g
     transform="translate(-119.99998,-289.99667)"
     style="display:inline"
     id="layer1" />
  <g
     transform="translate(-361.00018,327.00333)"
     style="display:inline"
     id="layer14" />
  <g
     transform="translate(-361.00018,327.00333)"
     style="display:inline"
     id="layer15" />
  <g
     transform="translate(-361.00018,327.00333)"
     style="display:inline"
     id="g71291" />
  <g
     transform="translate(-119.99998,-139.99667)"
     style="display:inline"
     id="layer2" />
  <g
     transform="translate(-119.99998,-139.99667)"
     style="display:inline"
     id="g6058" />
  <g
     transform="translate(-361.00018,327.00333)"
     style="display:inline"
     id="layer12" />
</svg>
