<svg width="16" height="16" version="1.1" xmlns="http://www.w3.org/2000/svg">
 <defs>
  <style id="current-color-scheme" type="text/css"/>
 </defs>
 <g transform="translate(-4,-3)" fill="#d3dae3">
  <path d="m6 3c-1.108 0-2 0.892-2 2v12c0 1.108 0.892 2 2 2h12c1.108 0 2-0.892 2-2v-12c0-1.108-0.892-2-2-2zm0 1h12c0.554 0 1 0.446 1 1v12c0 0.554-0.446 1-1 1h-12c-0.554 0-1-0.446-1-1v-12c0-0.554 0.446-1 1-1z"/>
  <rect x="7" y="7" width="10" height="1" rx="0" ry="0"/>
  <rect x="7" y="10" width="10" height="1" rx="0" ry="0"/>
  <rect x="7" y="13" width="7" height="1" rx="0" ry="0"/>
 </g>
</svg>
