<svg width="16" height="16" version="1.0" xmlns="http://www.w3.org/2000/svg">
 <g transform="matrix(.5 0 0 .5 0 -510.7)" stroke-width="2">
  <path d="m13 1029.4v16h9c4.4183 0 8-3.5817 8-8s-3.5817-8-8-8z" fill="#bdbdbd"/>
  <circle cx="13" cy="1034.4" r="11" fill="#bdbdbd"/>
  <path d="m13 1030.4v14h9a7 7 0 0 0 7-7 7 7 0 0 0-7-7z" fill="#f5f5f5"/>
  <circle cx="13" cy="1034.4" r="10" fill="#f5f5f5"/>
  <path d="m20.773 1026.6-0.70703 0.707a10 10 0 0 1 2.9336 7.0664 10 10 0 0 1-2.6094 6.7188l0.74023 0.6718a11 11 0 0 0 2.8691-7.3906 11 11 0 0 0-3.2266-7.7734z" fill="#bdbdbd"/>
 </g>
 <path class="warning" d="m7 7v4h2v-4zm0 5v2h2v-2z" color="#000000" fill="#ff9000"/>
</svg>
