<svg width="16" height="16" version="1.1" xmlns="http://www.w3.org/2000/svg">
<defs><style id="current-color-scheme" type="text/css">.ColorScheme-Text{color:#d3dae3}</style></defs>
 <path class="ColorScheme-Text" fill="currentColor" d="m1.8664 3.9998c-0.48013 0-0.86642 0.3822-0.86642 0.85706v4.8573c0 1.2663 1.0306 2.286 2.311 2.286h7.223c0.48013 0 0.86643-0.3822 0.86643-0.85706v-4.8573c0-1.2663-1.0306-2.286-2.311-2.286h-5.7782zm12.626 0.0016c-0.16995-0.01257-0.3634 0.07027-0.54766 0.25392-0.64806 0.64578-1.4079 1.1907-1.9391 1.9625-0.21876 0.31785-0.20375 0.73866-0.20547 1.1344-9.6e-4 0.21714 0.0011 0.43341 0 0.64766 0.0011 0.21428-9.6e-4 0.43053 0 0.64766 0.0017 0.39576-0.01329 0.81654 0.20547 1.1344 0.53122 0.77186 1.2911 1.3168 1.9391 1.9625 0.18428 0.18364 0.37772 0.26648 0.54766 0.25392 0.28324-0.02096 0.50082-0.30843 0.50082-0.84142 0-1.0435 0.01528-2.0993 0-3.1571 0.01528-1.0578 0-2.1137 0-3.1571 0-0.53302-0.21755-0.82046-0.50082-0.84142z"/>
</svg>
