<svg xmlns="http://www.w3.org/2000/svg" xmlns:xlink="http://www.w3.org/1999/xlink" width="64" height="64" viewBox="0 0 16.933 16.933"><defs><linearGradient id="a"><stop offset="0"/><stop offset="1" stop-opacity="0"/></linearGradient><clipPath clipPathUnits="userSpaceOnUse" id="b"><rect ry=".529" y="285.358" x=".529" height="9.525" width="15.875" transform="rotate(45)" fill="#2eb398" stroke-width=".251" stroke-opacity=".196" paint-order="markers stroke fill"/></clipPath><linearGradient xlink:href="#a" id="c" x1="-197.102" y1="217.681" x2="-196.914" y2="219.365" gradientUnits="userSpaceOnUse"/></defs><g transform="translate(0 -280.067)"><path d="M3.44 282.448c-.294 0-.395.269-.53.53H1.852c-.265 0-.265.264-.265.264v5.556c0 .293.237.53.53.53h12.7a.529.529 0 0 0 .529-.53v-5.556c0-.265-.265-.265-.265-.265H7.673c-.155-.249-.236-.53-.53-.53z" fill="#fff" stroke="#000" stroke-width=".529" stroke-opacity=".255" paint-order="markers stroke fill"/><path d="M3.44 282.448c-.294 0-.395.269-.53.53H1.852c-.265 0-.265.264-.265.264v5.556c0 .293.237.53.53.53h12.7a.529.529 0 0 0 .529-.53v-5.556c0-.265-.265-.265-.265-.265H7.673c-.155-.249-.236-.53-.53-.53z" fill="#fff" paint-order="markers stroke fill"/><path d="M8.467 286.681c-.293 0-.382.276-.53.53l-.154.264H.793c-.264 0-.264.265-.264.265v6.879s0 .264.265.264H16.14s.264 0 .264-.264v-7.673c0-.265-.264-.265-.264-.265z" fill="#2eb398" stroke="#195f53" stroke-width=".529" stroke-opacity=".561" paint-order="markers stroke fill"/><path d="M8.467 286.681c-.293 0-.382.276-.53.53l-.154.264H.793c-.264 0-.264.265-.264.265v6.879s0 .264.265.264H16.14s.264 0 .264-.264v-7.673c0-.265-.264-.265-.264-.265z" fill="#2eb398" paint-order="markers stroke fill"/><rect width="5.292" height="4.762" x="-199.587" y="217.868" ry=".132" transform="rotate(-45)" clip-path="url(#b)" opacity=".1" fill="url(#c)" paint-order="stroke markers fill"/></g></svg>