<svg xmlns="http://www.w3.org/2000/svg" xmlns:xlink="http://www.w3.org/1999/xlink" width="64" height="64" viewBox="0 0 16.933 16.933"><defs><linearGradient xlink:href="#a" id="c" x1="-197.102" y1="217.681" x2="-196.914" y2="219.365" gradientUnits="userSpaceOnUse"/><linearGradient id="a"><stop offset="0"/><stop offset="1" stop-opacity="0"/></linearGradient><clipPath clipPathUnits="userSpaceOnUse" id="b"><rect ry=".529" y="285.358" x=".529" height="9.525" width="15.875" transform="rotate(45)" fill="#5677fc" stroke-width=".251" stroke-opacity=".196" paint-order="markers stroke fill"/></clipPath></defs><g transform="translate(0 -280.067)"><path d="M3.175 282.448c-.293 0-.265.264-.265.53H1.852c-.265 0-.265 0-.265.264v5.556c0 .293.237.53.53.53h12.7a.529.529 0 0 0 .529-.53v-5.556c0-.265 0-.265-.265-.265H7.673c0-.265.028-.53-.265-.53z" fill="#fff" fill-opacity=".976" stroke="#000" stroke-width=".529" stroke-opacity=".268" paint-order="markers stroke fill"/><path d="M3.175 282.448c-.293 0-.265.264-.265.53H1.852c-.265 0-.265 0-.265.264v5.556c0 .293.237.53.53.53h12.7a.529.529 0 0 0 .529-.53v-5.556c0-.265 0-.265-.265-.265H7.673c0-.265.028-.53-.265-.53z" fill="#fff" fill-opacity=".976" paint-order="markers stroke fill"/><path d="M8.467 284.3c-.293 0-.382.276-.53.53l-.308.528H.794c-.265 0-.265.265-.265.265v8.996c0 .264.265.264.265.264H16.14c.264 0 .264-.264.264-.264v-10.054c0-.265-.264-.265-.264-.265z" fill="none" stroke="#195f53" stroke-width=".529" stroke-opacity=".561" paint-order="markers stroke fill"/><path d="M8.467 284.3c-.293 0-.382.276-.53.53l-.308.528H.794c-.265 0-.265.265-.265.265v8.996c0 .264.265.264.265.264H16.14c.264 0 .264-.264.264-.264v-10.054c0-.265-.264-.265-.264-.265z" fill="#2eb398" paint-order="markers stroke fill"/><rect clip-path="url(#b)" transform="rotate(-45 0 0)" ry=".132" y="217.868" x="-199.587" height="4.762" width="5.292" opacity=".1" fill="url(#c)" paint-order="stroke markers fill"/><rect ry=".265" rx=".265" y="282.977" x="3.44" height=".529" width="3.704" fill-opacity=".267" paint-order="markers stroke fill"/></g><path d="M6.35 7.144V12.7h4.233V7.144zm.265.264h.264v.265h-.264zm.529 0H9.79V9.79H7.144zm2.91 0h.265v.265h-.265zm-3.44.53h.265v.264h-.264zm3.44 0h.265v.264h-.265zm-3.44.529h.265v.264h-.264zm3.44 0h.265v.264h-.265zm-3.44.529h.265v.264h-.264zm3.44 0h.265v.264h-.265zm-3.44.529h.265v.265h-.264zm3.44 0h.265v.265h-.265zm-3.44.53h.265v.264h-.264zm.53 0H9.79v2.38H7.144zm2.91 0h.265v.264h-.265zm-3.44.528h.265v.265h-.264zm3.44 0h.265v.265h-.265zm-3.44.53h.265v.264h-.264zm3.44 0h.265v.264h-.265zm-3.44.529h.265v.264h-.264zm3.44 0h.265v.264h-.265zm-3.44.529h.265v.264h-.264zm3.44 0h.265v.264h-.265z" opacity=".3"/><path d="M7.144 7.408V9.79H9.79V7.408zm0 2.646v2.381H9.79v-2.38z" opacity=".15"/></svg>