<svg width="64" height="64" version="1.1" viewBox="0 0 16.933 16.933" xmlns="http://www.w3.org/2000/svg" xmlns:xlink="http://www.w3.org/1999/xlink">
 <defs>
  <linearGradient id="c" x1="-197.1" x2="-196.91" y1="217.68" y2="219.36" gradientUnits="userSpaceOnUse">
   <stop offset="0"/>
   <stop stop-opacity="0" offset="1"/>
  </linearGradient>
  <clipPath id="b">
   <rect transform="rotate(45)" x=".529" y="285.36" width="15.875" height="9.525" ry=".529" fill="#5677fc" stroke-opacity=".196" stroke-width=".251" paint-order="markers stroke fill"/>
  </clipPath>
 </defs>
 <g transform="translate(0 -280.07)">
  <path d="M3.175 282.448c-.293 0-.265.264-.265.53H1.852c-.265 0-.265 0-.265.264v5.556c0 .293.237.53.53.53h12.7a.529.529 0 0 0 .529-.53v-5.556c0-.265 0-.265-.265-.265H7.673c0-.265.028-.53-.265-.53z" fill="#fff" fill-opacity=".976" stroke="#000" stroke-opacity=".268" stroke-width=".529" paint-order="markers stroke fill"/>
  <path d="M3.175 282.448c-.293 0-.265.264-.265.53H1.852c-.265 0-.265 0-.265.264v5.556c0 .293.237.53.53.53h12.7a.529.529 0 0 0 .529-.53v-5.556c0-.265 0-.265-.265-.265H7.673c0-.265.028-.53-.265-.53z" fill="#fff" fill-opacity=".976" paint-order="markers stroke fill"/>
  <path d="M8.467 284.3c-.293 0-.382.276-.53.53l-.308.528H.794c-.265 0-.265.265-.265.265v8.996c0 .264.265.264.265.264H16.14c.264 0 .264-.264.264-.264v-10.054c0-.265-.264-.265-.264-.265z" fill="none" stroke="#195f53" stroke-opacity=".561" stroke-width=".529" paint-order="markers stroke fill"/>
  <path d="M8.467 284.3c-.293 0-.382.276-.53.53l-.308.528H.794c-.265 0-.265.265-.265.265v8.996c0 .264.265.264.265.264H16.14c.264 0 .264-.264.264-.264v-10.054c0-.265-.264-.265-.264-.265z" fill="#2eb398" paint-order="markers stroke fill"/>
  <rect transform="rotate(-45)" x="-199.59" y="217.87" width="5.292" height="4.762" ry=".132" clip-path="url(#b)" fill="url(#c)" opacity=".1" paint-order="stroke markers fill"/>
  <rect x="3.44" y="282.98" width="3.704" height=".529" rx=".265" ry=".265" fill-opacity=".267" paint-order="markers stroke fill"/>
 </g>
 <path transform="scale(.26458)" d="m29.838 28v1.0039 2.0742c-0.41649 0.13058-0.81616 0.29222-1.2031 0.49414l-2.1777-2.1777-3.0566 3.0645 2.1777 2.1777c-0.20276 0.38676-0.37056 0.78668-0.50195 1.2031h-3.0781v4.3262h3.0781c0.12998 0.41642 0.29481 0.8161 0.49609 1.2031l-2.1719 2.1777 3.0566 3.0488 2.1777-2.1777c0.38736 0.20285 0.78604 0.37064 1.2031 0.50195v3.0781h4.3262v-3.0781c0.41898-0.13085 0.82176-0.29114 1.2109-0.49414l2.1699 2.1699 3.0566-3.0488-2.1777-2.1777c0.20463-0.39012 0.36996-0.79064 0.50195-1.2109h3.0781v-4.3184h-3.0859c-0.13083-0.41898-0.29114-0.82176-0.49414-1.2109l2.1777-2.1777-3.0566-3.0488-2.1777 2.1777c-0.38749-0.20347-0.78579-0.37015-1.2031-0.50195v-3.0781h-4.3262zm1.0039 1h2.3203v2.7227a6.3875 6.3875 0 0 1 2.4531 1.0195l1.9277-1.9277 1.6445 1.6406-1.9238 1.9277a6.3875 6.3875 0 0 1 1.0117 2.457h2.7266v2.3203h-2.7227a6.3875 6.3875 0 0 1-1.0195 2.457l1.9277 1.9277-1.6406 1.6406-1.9277-1.9199a6.3875 6.3875 0 0 1-2.457 1.0117v2.7227h-2.3203v-2.7227a6.3875 6.3875 0 0 1-2.457-1.0195l-1.9277 1.9277-1.6445-1.6406 1.9238-1.9238a6.3875 6.3875 0 0 1-1.0117-2.457h-2.7266v-2.3242h2.7227a6.3875 6.3875 0 0 1 1.0195-2.4531l-1.9277-1.9277 1.6445-1.6484 1.9277 1.9277a6.3875 6.3875 0 0 1 2.457-1.0156v-2.7227zm1.1602 5.5156a3.4848 3.4848 0 0 0-3.4844 3.4844 3.4848 3.4848 0 0 0 3.4844 3.4844 3.4848 3.4848 0 0 0 3.4805-3.4844 3.4848 3.4848 0 0 0-3.4805-3.4805v-0.003906zm-0.007812 1.0059h0.007812c1.3821 0.001499 2.479 1.0983 2.4805 2.4805 1e-6 1.3832-1.0972 2.479-2.4805 2.4805-1.3843 0-2.4883-1.0962-2.4883-2.4805 0-1.3802 1.1019-2.474 2.4805-2.4805z" color="#000000" color-rendering="auto" dominant-baseline="auto" image-rendering="auto" opacity=".35" shape-rendering="auto" solid-color="#000000" style="font-feature-settings:normal;font-variant-alternates:normal;font-variant-caps:normal;font-variant-ligatures:normal;font-variant-numeric:normal;font-variant-position:normal;isolation:auto;mix-blend-mode:normal;paint-order:stroke markers fill;shape-padding:0;text-decoration-color:#000000;text-decoration-line:none;text-decoration-style:solid;text-indent:0;text-orientation:mixed;text-transform:none;white-space:normal"/>
 <path d="M8.16 7.673v.72a1.69 1.69 0 0 0-.65.269L7 8.152l-.435.436.51.51a1.69 1.69 0 0 0-.27.649h-.72v.615h.721a1.69 1.69 0 0 0 .268.65l-.509.509.435.434.51-.51a1.69 1.69 0 0 0 .65.27v.72h.614v-.72a1.69 1.69 0 0 0 .65-.268l.51.508.434-.434-.51-.51a1.69 1.69 0 0 0 .27-.65h.72v-.614h-.721a1.69 1.69 0 0 0-.268-.65l.509-.51-.435-.434-.51.51a1.69 1.69 0 0 0-.649-.27v-.72zm.307 1.46a.922.922 0 0 1 .921.921.922.922 0 0 1-.921.922.922.922 0 0 1-.922-.922.922.922 0 0 1 .922-.922z" opacity=".15" paint-order="stroke markers fill"/>
</svg>
