<svg xmlns="http://www.w3.org/2000/svg" width="16" height="16" version="1.1" id="svg7"><defs id="defs3"><style id="current-color-scheme" type="text/css"></style></defs><g id="folder-music_16" transform="translate(-449 -624)" stroke-linejoin="miter" stroke-miterlimit="4" stroke-dasharray="none" stroke-dashoffset="0" stroke-opacity="1"><path id="rect5615-8" opacity=".75" fill="none" fill-opacity=".327" stroke="none" stroke-width="1" stroke-linecap="butt" d="M449 624h16v16h-16z"/><path d="M455 625v2h9v-2zm7 10a2 1.5 0 0 0-2 1.5 2 1.5 0 0 0 2 1.5 2 1.5 0 0 0 2-1.5 2 1.5 0 0 0-2-1.5zm-10 1a2 1.5 0 0 0-2 1.5 2 1.5 0 0 0 2 1.5 2 1.5 0 0 0 2-1.5 2 1.5 0 0 0-2-1.5z" id="path4208-0-4-2" display="inline" opacity=".65" fill="#5c657a" fill-opacity="1" stroke="#4b4b4b" stroke-width="0"/><path d="M454 624v11.648a3.33 3.33 0 0 0-2-.648c-1.657 0-3 1.12-3 2.5s1.343 2.5 3 2.5 3-1.12 3-2.5c0-.048-.014-.093-.018-.14H455V628h9v6.648a3.33 3.33 0 0 0-2-.648c-1.657 0-3 1.12-3 2.5s1.343 2.5 3 2.5 3-1.12 3-2.5c0-.034-.01-.066-.012-.1H465V624h-1zm1 1h9v2h-9zm7 10c1.105 0 2 .672 2 1.5s-.895 1.5-2 1.5-2-.672-2-1.5.895-1.5 2-1.5zm-10 1c1.105 0 2 .672 2 1.5s-.895 1.5-2 1.5-2-.672-2-1.5.895-1.5 2-1.5z" id="rect4067-4-6" display="inline" opacity=".65" fill="#25282f" fill-opacity="1" stroke="#4b4b4b" stroke-width="0"/></g></svg>