<svg xmlns="http://www.w3.org/2000/svg" width="16" height="16" version="1.1" id="svg7"><defs id="defs3"><style id="current-color-scheme" type="text/css"></style></defs><g id="folder-pictures_16" transform="translate(-948 -112)"><g id="g5937" stroke-linecap="butt" stroke-linejoin="miter" stroke-miterlimit="4" stroke-dashoffset="0" stroke-opacity="1"><path id="rect5615-62" opacity=".75" fill="none" fill-opacity=".327" stroke="none" stroke-width="1" stroke-dasharray="none" d="M948 112h16v16h-16z"/><path id="rect3990-5-1" d="M949 115c-.554 0-1 .446-1 1v9c0 .554.446 1 1 1h14c.554 0 1-.446 1-1v-9c0-.554-.446-1-1-1h-1l-1-2h-10l-1 2zm0 1h1.5l1-2h9l1 2h1.5v9h-14z" display="inline" opacity=".65" fill="#25282f" fill-opacity="1" stroke="#102b68" stroke-width="0" stroke-dasharray="none"/><path id="rect3995-7-3" d="M951.5 114l-1 2H949v9h14v-9h-1.5l-1-2zm4.5 2a4 4 0 1 1 0 8 4 4 0 0 1 0-8z" display="inline" opacity=".65" fill="#5c657a" fill-opacity="1" stroke="#102b68" stroke-width="0"/><path id="path3985-9" d="M956 116a4 4 0 1 0 0 8 4 4 0 0 0 0-8zm0 1a3 3 0 1 1 0 6 3 3 0 0 1 0-6z" display="inline" opacity=".65" fill="#25282f" fill-opacity="1" stroke="#102b68" stroke-width="0" stroke-dasharray="none"/></g></g></svg>