<svg width="16" height="16" version="1.1" xmlns="http://www.w3.org/2000/svg">
 <defs>
  <style id="current-color-scheme" type="text/css"/>
 </defs>
 <g>
  <path d="m8 0.5c-1.428 3.9e-4 -2.8263 0.38599-4.0303 1.1538h-1.5223c-0.42722 0-0.79354 0.36631-0.79354 0.79353v1.5355c-0.76545 1.2002-1.1509 2.5936-1.1538 4.0171 3.9e-4 1.428 0.38599 2.8263 1.1538 4.0303v1.5223c0 0.42722 0.36632 0.79353 0.79354 0.79353h1.5355c1.2003 0.76547 2.5936 1.1509 4.0171 1.1539 1.428-3.9e-4 2.8263-0.38599 4.0303-1.1539h1.5223c0.42722 0 0.79354-0.36631 0.79354-0.79353v-1.5355c0.76546-1.2003 1.1509-2.5936 1.1538-4.0171-3.9e-4 -1.428-0.38599-2.8263-1.1538-4.0303v-1.5223c0-0.42722-0.36632-0.79353-0.79354-0.79353h-1.5355c-1.2003-0.76545-2.5936-1.1509-4.0171-1.1538z" fill="#4c5263" stroke="#252831" stroke-opacity=".78431"/>
  <circle cx="8" cy="8" r="6" fill="#fff669"/>
  <g fill="#b2b7bf">
   <rect x="2.6429" y="2.6429" width=".53571" height=".53571" rx="1.5" ry="1.5"/>
   <rect x="12.821" y="2.6429" width=".53571" height=".53571" rx="1.5" ry="1.5"/>
   <rect x="12.821" y="12.821" width=".53571" height=".53571" rx="1.5" ry="1.5"/>
   <rect x="2.6429" y="12.821" width=".53571" height=".53571" rx="1.5" ry="1.5"/>
  </g>
  <ellipse cx="8" cy="8" rx="2" ry="2" fill="#4c5263"/>
 </g>
</svg>
