<svg width="16" height="16" version="1.1" xmlns="http://www.w3.org/2000/svg">
 <defs>
  <style id="current-color-scheme" type="text/css">.ColorScheme-Text{color:#5d656b}</style>
 </defs>
 <g transform="translate(1.5199e-6 1.9998)">
  <rect x=".5" y=".5" width="15" height="11" rx="2" ry="2" fill="none" stroke="#4f6698" stroke-opacity=".26667"/>
  <g>
   <rect x="1.0001" y="1" width="14" height="10" rx="1.5" ry="1.5" fill="#f5f5f5"/>
   <path d="m1.7885 1h1.2116v10h-1.2116c-0.47484 0-0.7884-0.22537-0.7884-0.61191v-8.7762c0-0.38653 0.31356-0.61189 0.7884-0.61189z" fill="#4c5263"/>
   <ellipse cx="2.0001" cy="9" rx=".52325" ry=".50005" fill="#82b2ea"/>
  </g>
  <path d="m1.7427 0.5h1.7574v11l-1.7574 3.1e-4c-0.71229 1.3e-4 -1.2426-0.68513-1.2426-1.1103v-8.779c0-0.42518 0.53031-1.111 1.2426-1.111z" fill="none" stroke="#252831" stroke-opacity=".78431"/>
  <path d="m11.444 3.355c0.19561 0.14987 0.24009 0.40727 0.0997 0.57715l-3.5474 4.2929c-0.14036 0.16984-0.74215 0.4329-0.85985 0.34273-0.11768-0.0901 0.0134-0.71386 0.1537-0.88372l3.5474-4.2929c0.14038-0.16985 0.41085-0.18599 0.60645-0.0363z" fill="#586075" fill-opacity=".78431"/>
 </g>
</svg>
