<svg xmlns="http://www.w3.org/2000/svg" width="16" height="16" version="1.1" id="svg7"><defs id="defs3"><style id="current-color-scheme" type="text/css"></style></defs><path d="M1 2c-.554 0-1 .446-1 1v10c0 .554.446 1 1 1h13c.554 0 1-.446 1-1V3c0-.554-.446-1-1-1zm0 1h13v10H1z" id="rect819" opacity="1" fill="#dfdfdf" fill-opacity="1" fill-rule="evenodd" stroke="none" stroke-width="2" stroke-linecap="round" stroke-linejoin="round" stroke-miterlimit="4" stroke-dasharray="none" stroke-opacity="1" paint-order="fill markers stroke"/><path id="rect826" opacity="1" fill="#dfdfdf" fill-opacity="1" fill-rule="evenodd" stroke="none" stroke-width="2" stroke-linecap="round" stroke-linejoin="round" stroke-miterlimit="4" stroke-dasharray="none" stroke-opacity="1" paint-order="fill markers stroke" d="M2 4h2v2H2z"/><path id="rect862" opacity="1" fill="#dfdfdf" fill-opacity="1" fill-rule="evenodd" stroke="none" stroke-width="2" stroke-linecap="round" stroke-linejoin="round" stroke-miterlimit="4" stroke-dasharray="none" stroke-opacity="1" paint-order="fill markers stroke" d="M5 4h2v2H5z"/><path id="rect864" opacity="1" fill="#dfdfdf" fill-opacity="1" fill-rule="evenodd" stroke="none" stroke-width="2" stroke-linecap="round" stroke-linejoin="round" stroke-miterlimit="4" stroke-dasharray="none" stroke-opacity="1" paint-order="fill markers stroke" d="M8 4h2v2H8z"/><path id="rect866" opacity="1" fill="#dfdfdf" fill-opacity="1" fill-rule="evenodd" stroke="none" stroke-width="2" stroke-linecap="round" stroke-linejoin="round" stroke-miterlimit="4" stroke-dasharray="none" stroke-opacity="1" paint-order="fill markers stroke" d="M11 4h2v2h-2z"/><path id="rect868" opacity="1" fill="#dfdfdf" fill-opacity="1" fill-rule="evenodd" stroke="none" stroke-width="2" stroke-linecap="round" stroke-linejoin="round" stroke-miterlimit="4" stroke-dasharray="none" stroke-opacity="1" paint-order="fill markers stroke" d="M2 7h2v2H2z"/><path id="rect870" opacity="1" fill="#dfdfdf" fill-opacity="1" fill-rule="evenodd" stroke="none" stroke-width="2" stroke-linecap="round" stroke-linejoin="round" stroke-miterlimit="4" stroke-dasharray="none" stroke-opacity="1" paint-order="fill markers stroke" d="M5 7h2v2H5z"/><path id="rect872" opacity="1" fill="#dfdfdf" fill-opacity="1" fill-rule="evenodd" stroke="none" stroke-width="2" stroke-linecap="round" stroke-linejoin="round" stroke-miterlimit="4" stroke-dasharray="none" stroke-opacity="1" paint-order="fill markers stroke" d="M8 7h2v2H8z"/><path id="rect874" opacity="1" fill="#dfdfdf" fill-opacity="1" fill-rule="evenodd" stroke="none" stroke-width="2" stroke-linecap="round" stroke-linejoin="round" stroke-miterlimit="4" stroke-dasharray="none" stroke-opacity="1" paint-order="fill markers stroke" d="M11 7h2v2h-2z"/><path id="rect876" opacity="1" fill="#dfdfdf" fill-opacity="1" fill-rule="evenodd" stroke="none" stroke-width="2" stroke-linecap="round" stroke-linejoin="round" stroke-miterlimit="4" stroke-dasharray="none" stroke-opacity="1" paint-order="fill markers stroke" d="M4 10h7v2H4z"/></svg>