<svg width="16" height="16" version="1.1" xmlns="http://www.w3.org/2000/svg">
 <defs>
  <style id="current-color-scheme" type="text/css"/>
 </defs>
 <g transform="matrix(.4007 0 0 .4007 -1.6167 -8.0279)">
  <g transform="matrix(.75 0 0 .75 0 16)">
   <ellipse cx="32" cy="32" rx="24.957" ry="24.957" fill="none" stroke="#2c3854" stroke-opacity=".30196" stroke-width="3.3275"/>
   <path d="m32 8.7072c-12.864-4e-7 -23.293 10.429-23.293 23.293-5e-7 12.864 10.429 23.293 23.293 23.293 12.864 1e-6 23.293-10.429 23.293-23.293 0-12.864-10.429-23.293-23.293-23.293zm0 14.817c5.241 0 8.4753 3.2345 8.4753 8.4755 0 5.241-3.2344 8.4754-8.4753 8.4754-5.241 0-8.4755-3.2344-8.4755-8.4754 0-5.241 3.2345-8.4755 8.4755-8.4755z" fill="#fafafa"/>
  </g>
  <path d="m24 32.87c-3.938 0-7.1304 3.1924-7.1304 7.1304 0 3.938 3.1924 7.1304 7.1304 7.1304 3.938 0 7.1304-3.1924 7.1304-7.1304 0-3.938-3.1924-7.1304-7.1304-7.1304zm0 3.6516c1.969 0 3.4788 1.5098 3.4788 3.4788s-1.5098 3.4788-3.4788 3.4788c-1.969 0-3.4788-1.5098-3.4788-3.4788s1.5098-3.4788 3.4788-3.4788z" fill="#fff" fill-opacity=".38776"/>
  <g fill="none" stroke="#2c3854" stroke-opacity=".30196">
   <circle cx="24" cy="40" r="0" stroke-width="2.4957"/>
   <circle cx="24" cy="40" r="0" stroke-width="2.4957"/>
   <ellipse cx="24" cy="40" rx="6.2391" ry="6.2391" stroke-width="2.4957"/>
  </g>
 </g>
</svg>
