<svg width="16" height="16" version="1.1" xmlns="http://www.w3.org/2000/svg">
 <defs>
  <style id="current-color-scheme" type="text/css">.ColorScheme-Text { color:#d3dae3; } .ColorScheme-Highlight { color:#5294e2; }</style>
 </defs>
 <rect x="2" y="3" width="12" height="10" ry="0" fill="#f2f2f2" stroke-linecap="round" stroke-linejoin="round" stroke-width="2" style="paint-order:stroke fill markers"/>
 <path class="ColorScheme-Text" d="m3 2c-1.108 0-2 0.892-2 2v8c0 1.108 0.892 2 2 2h10c1.108 0 2-0.892 2-2v-8c0-1.108-0.892-2-2-2zm0 1h10c0.554 0 1 0.446 1 1v8c0 0.554-0.446 1-1 1h-10c-0.554 0-1-0.446-1-1v-8c0-0.554 0.446-1 1-1z" fill="#616974"/>
 <path class="ColorScheme-Text" d="m5 6c-1.1 0-2 0.9-2 2s0.9 2 2 2h6c1.1 0 2-0.9 2-2s-0.9-2-2-2-2 0.9-2 2c0 0.36 0.1093 0.71 0.2793 1h-2.5586c0.17-0.29 0.2793-0.64 0.2793-1 0-1.1-0.9-2-2-2zm0 1c0.55 0 1 0.45 1 1s-0.45 1-1 1-1-0.45-1-1 0.45-1 1-1zm6 0c0.55 0 1 0.45 1 1s-0.45 1-1 1-1-0.45-1-1 0.45-1 1-1z" fill="#82b2ea"/>
</svg>
