<svg width="16" height="16" version="1.1" viewBox="0 0 16 16" xmlns="http://www.w3.org/2000/svg">
 <defs>
  <style id="current-color-scheme" type="text/css">.ColorScheme-Text { color:#d3dae3; } .ColorScheme-Highlight { color:#5294e2; }</style>
 </defs>
 <rect x="1" y="7" width="14" height="7" ry="1" fill="#56565f" fill-opacity=".34902" stroke="#56565f" stroke-linecap="round" stroke-linejoin="round" stroke-opacity=".34902" stroke-width="2" style="paint-order:stroke fill markers"/>
 <path d="m6 2c-1.6569 0-3 1.3431-3 3h1c0-1.1046 0.89543-2 2-2s2 0.89543 2 2h1c0-1.6569-1.3431-3-3-3zm0 2c-0.55228 0-1 0.44772-1 1v1h2v-1c0-0.55228-0.44772-1-1-1z" fill="#56565f" fill-opacity=".34902"/>
 <rect x="1" y="7" width="14" height="7" ry="1" fill="#f4f4f4" stroke-linecap="round" stroke-linejoin="round" stroke-width="2" style="paint-order:stroke fill markers"/>
 <circle cx="12" cy="11" r="1" fill="#5294e2" style="paint-order:stroke fill markers"/>
 <circle cx="9" cy="11" r="1" fill="#5294e2" opacity=".5" style="paint-order:stroke fill markers"/>
</svg>
