<svg width="16" height="16" version="1.1" viewBox="0 0 16 16" xmlns="http://www.w3.org/2000/svg">
 <defs>
  <style id="current-color-scheme" type="text/css">.ColorScheme-Text { color:#d3dae3; } .ColorScheme-Highlight { color:#5294e2; }</style>
 </defs>
 <path d="m4 0c-1.108 0-2 0.892-2 2v14h12v-14c0-1.108-0.892-2-2-2h-8z" fill="#56565f" fill-opacity=".34902" style="paint-order:stroke fill markers"/>
 <path d="m4 1c-0.554 0-1 0.446-1 1v14h10v-14c0-0.554-0.446-1-1-1h-8z" fill="#f4f4f4" style="paint-order:stroke fill markers"/>
 <rect x="4" y="2" width="8" height="13" ry="1" fill="#3c3c3c" style="paint-order:stroke fill markers"/>
 <path class="ColorScheme-Text" d="m8 3-3 5h3v3l3-5h-3z" fill="#5294e2"/>
 <path class="ColorScheme-Text" d="m6 12c-0.55 0-1 0.45-1 1s0.45 1 1 1 1-0.45 1-1-0.45-1-1-1z" fill="#fff" opacity=".35"/>
</svg>
