<?xml version="1.0" encoding="UTF-8" standalone="no"?>
<svg
   xmlns:dc="http://purl.org/dc/elements/1.1/"
   xmlns:cc="http://creativecommons.org/ns#"
   xmlns:rdf="http://www.w3.org/1999/02/22-rdf-syntax-ns#"
   xmlns:svg="http://www.w3.org/2000/svg"
   xmlns="http://www.w3.org/2000/svg"
   xmlns:sodipodi="http://sodipodi.sourceforge.net/DTD/sodipodi-0.dtd"
   xmlns:inkscape="http://www.inkscape.org/namespaces/inkscape"
   id="svg4505"
   height="32"
   width="32"
   version="1.1"
   sodipodi:docname="audio-speakers.svg"
   inkscape:version="0.92.4 (5da689c313, 2019-01-14)">
  <sodipodi:namedview
     pagecolor="#ffffff"
     bordercolor="#666666"
     borderopacity="1"
     objecttolerance="10"
     gridtolerance="10"
     guidetolerance="10"
     inkscape:pageopacity="0"
     inkscape:pageshadow="2"
     inkscape:window-width="1366"
     inkscape:window-height="697"
     id="namedview77"
     showgrid="false"
     inkscape:zoom="1.84375"
     inkscape:cx="-4.5908969"
     inkscape:cy="9.1942181"
     inkscape:window-x="0"
     inkscape:window-y="0"
     inkscape:window-maximized="1"
     inkscape:current-layer="svg4505" />
  <defs
     id="defs4507" />
  <metadata
     id="metadata4510">
    <rdf:RDF>
      <cc:Work
         rdf:about="">
        <dc:format>image/svg+xml</dc:format>
        <dc:type
           rdf:resource="http://purl.org/dc/dcmitype/StillImage" />
        <dc:title />
      </cc:Work>
    </rdf:RDF>
  </metadata>
  <g
     id="g924"
     transform="translate(137.10169,47.220345)">
    <path
       sodipodi:nodetypes="ccsscccsscccsscccsscc"
       id="rect4197-87"
       d="m -121.10169,-44.72034 c -2.57049,7e-4 -5.08732,0.69477 -7.2546,2.07692 h -2.74011 c -0.769,0 -1.42836,0.65936 -1.42836,1.42836 v 2.7639 c -1.37782,2.16045 -2.07158,4.66842 -2.07693,7.23082 7e-4,2.57049 0.69477,5.08731 2.07693,7.25459 v 2.74011 c 0,0.769 0.65936,1.42836 1.42836,1.42836 h 2.76389 c 2.16046,1.37782 4.66843,2.07158 7.23082,2.07693 2.5705,-7e-4 5.08732,-0.69477 7.2546,-2.07693 h 2.74011 c 0.769,0 1.42837,-0.65936 1.42837,-1.42836 v -2.76389 c 1.37781,-2.16046 2.07158,-4.66842 2.07692,-7.23081 -7e-4,-2.5705 -0.69477,-5.08732 -2.07692,-7.2546 v -2.74012 c 0,-0.769 -0.65937,-1.42836 -1.42837,-1.42836 h -2.76389 c -2.16046,-1.37781 -4.66842,-2.07158 -7.23082,-2.07692 z"
       style="opacity:1;fill:#4c5263;fill-opacity:1;stroke:#252831;stroke-width:0.99999988;stroke-linecap:butt;stroke-linejoin:miter;stroke-miterlimit:4;stroke-dasharray:none;stroke-dashoffset:0;stroke-opacity:0.78431373"
       inkscape:connector-curvature="0" />
    <circle
       r="11.5"
       cy="-31.220341"
       cx="-121.10169"
       id="path4195-2"
       style="opacity:1;fill:#fff669;fill-opacity:1;stroke:#252831;stroke-width:0.99999982;stroke-linecap:butt;stroke-linejoin:miter;stroke-miterlimit:4;stroke-dasharray:none;stroke-dashoffset:0;stroke-opacity:0.78431373" />
    <rect
       ry="1.5"
       rx="1.5"
       y="-41.220341"
       x="-131.10168"
       height="1"
       width="1"
       id="rect4235-5"
       style="opacity:1;fill:#b2b7bf;fill-opacity:1;stroke:none;stroke-width:1;stroke-linecap:butt;stroke-linejoin:miter;stroke-miterlimit:4;stroke-dasharray:none;stroke-dashoffset:0;stroke-opacity:0.78431373" />
    <rect
       ry="1.5"
       rx="1.5"
       y="-41.220341"
       x="-112.10169"
       height="1"
       width="1"
       id="rect4235-9-1"
       style="opacity:1;fill:#b2b7bf;fill-opacity:1;stroke:none;stroke-width:1;stroke-linecap:butt;stroke-linejoin:miter;stroke-miterlimit:4;stroke-dasharray:none;stroke-dashoffset:0;stroke-opacity:0.78431373" />
    <rect
       ry="1.5"
       rx="1.5"
       y="-22.220341"
       x="-112.10169"
       height="1"
       width="1"
       id="rect4235-7-8"
       style="opacity:1;fill:#b2b7bf;fill-opacity:1;stroke:none;stroke-width:1;stroke-linecap:butt;stroke-linejoin:miter;stroke-miterlimit:4;stroke-dasharray:none;stroke-dashoffset:0;stroke-opacity:0.78431373" />
    <rect
       ry="1.5"
       rx="1.5"
       y="-22.220341"
       x="-131.10168"
       height="1"
       width="1"
       id="rect4235-3-1"
       style="opacity:1;fill:#b2b7bf;fill-opacity:1;stroke:none;stroke-width:1;stroke-linecap:butt;stroke-linejoin:miter;stroke-miterlimit:4;stroke-dasharray:none;stroke-dashoffset:0;stroke-opacity:0.78431373" />
    <circle
       r="4.0000029"
       cy="-31.220341"
       cx="-121.10169"
       id="path4264-4"
       style="opacity:1;fill:#4c5263;fill-opacity:1;stroke:none;stroke-width:0.99999994;stroke-linecap:butt;stroke-linejoin:miter;stroke-miterlimit:4;stroke-dasharray:none;stroke-dashoffset:0;stroke-opacity:0.78431373" />
  </g>
</svg>
