<?xml version="1.0" encoding="UTF-8" standalone="no"?>
<!-- Created with Inkscape (http://www.inkscape.org/) -->

<svg
   xmlns:dc="http://purl.org/dc/elements/1.1/"
   xmlns:cc="http://creativecommons.org/ns#"
   xmlns:rdf="http://www.w3.org/1999/02/22-rdf-syntax-ns#"
   xmlns:svg="http://www.w3.org/2000/svg"
   xmlns="http://www.w3.org/2000/svg"
   xmlns:sodipodi="http://sodipodi.sourceforge.net/DTD/sodipodi-0.dtd"
   xmlns:inkscape="http://www.inkscape.org/namespaces/inkscape"
   id="svg2"
   version="1.1"
   inkscape:version="0.92.4 (5da689c313, 2019-01-14)"
   xml:space="preserve"
   width="32"
   height="32"
   viewBox="0 0 45 45"
   sodipodi:docname="audio-headphones.svg"><metadata
     id="metadata8"><rdf:RDF><cc:Work
         rdf:about=""><dc:format>image/svg+xml</dc:format><dc:type
           rdf:resource="http://purl.org/dc/dcmitype/StillImage" /><dc:title /></cc:Work></rdf:RDF></metadata><defs
     id="defs6"><clipPath
       clipPathUnits="userSpaceOnUse"
       id="clipPath16"><path
         d="m 2.839,20.097 c 0,-0.743 0.055,-1.474 0.159,-2.19 l 0,0 C 3.089,16.739 3.072,15.471 3.09,14.429 l 0,0 c 0.019,-1.122 0.043,-2.562 0.043,-2.562 l 0,0 10e-4,10e-4 C 3.148,10.967 3.468,9.493 4.036,7.889 l 0,0 C 4.493,6.601 5.02,5.481 5.496,4.728 l 0,0 c 0,0 0.003,-0.006 0.007,-0.011 l 0,0 C 5.582,4.594 5.658,4.48 5.733,4.377 l 0,0 C 6.056,3.902 6.628,3.069 6.926,2.678 l 0,0 C 6.962,2.63 6.997,2.586 7.03,2.547 l 0,0 0,-0.001 C 7.343,2.172 7.557,1.982 7.848,1.823 l 0,0 C 8.14,1.665 8.36,1.791 8.36,1.791 l 0,0 c 0.184,0.054 0.219,0.575 0.128,1.418 l 0,0 2.516,-1.71 c 0.07,-0.042 0.156,-0.057 0.24,-0.032 l 0,0 1.078,0.319 c 0.003,-0.004 0.005,-0.008 0.007,-0.009 l 0,0 c 0,0 0,-10e-4 10e-4,-10e-4 l 0,0 c 0.031,-0.04 0.059,-0.069 0.085,-0.089 l 0,0 C 12.616,1.508 12.902,1.433 13.18,1.515 l 0,0 1.131,0.333 c 0.571,0.169 0.95,0.678 0.98,1.242 l 0,0 c 0.091,0.749 -0.625,3.982 -1.748,7.791 l 0,0 c -1.164,3.949 -2.36,7.14 -2.809,7.547 l 0,0 c -0.339,0.408 -0.9,0.599 -1.442,0.44 l 0,0 -1.131,-0.334 c -0.23,-0.068 -0.406,-0.229 -0.5,-0.43 l 0,0 -1.217,-0.36 C 6.364,17.721 6.302,17.666 6.266,17.598 l 0,0 -1.153,-2.734 c -0.012,0.024 -0.024,0.047 -0.035,0.07 l 0,0 -0.101,0.28 c -0.306,1.126 -0.47,2.313 -0.47,3.538 l 0,0 c 0,7.452 6.041,13.493 13.493,13.493 l 0,0 c 7.452,0 13.493,-6.041 13.493,-13.493 l 0,0 c 0,-1.293 -0.183,-2.542 -0.522,-3.726 l 0,0 -0.034,-0.092 c -0.011,-0.023 -0.023,-0.046 -0.035,-0.07 l 0,0 -1.152,2.734 c -0.036,0.068 -0.099,0.123 -0.179,0.146 l 0,0 -1.216,0.36 c -0.095,0.201 -0.271,0.362 -0.501,0.43 l 0,0 -1.131,0.334 c -0.541,0.159 -1.103,-0.032 -1.442,-0.44 l 0,0 C 24.832,18.021 23.637,14.83 22.473,10.881 l 0,0 C 21.35,7.072 20.633,3.839 20.723,3.09 l 0,0 c 0.031,-0.564 0.409,-1.073 0.981,-1.242 l 0,0 1.132,-0.333 C 23.113,1.433 23.399,1.508 23.6,1.687 l 0,0 c 0.026,0.02 0.055,0.049 0.085,0.089 l 0,0 0,10e-4 c 0.004,0.001 0.006,0.005 0.008,0.009 l 0,0 1.079,-0.319 c 0.083,-0.025 0.17,-0.01 0.239,0.032 l 0,0 2.516,1.71 C 27.437,2.366 27.472,1.845 27.654,1.791 l 0,0 c 0,0 0.222,-0.126 0.513,0.032 l 0,0 c 0.29,0.159 0.505,0.349 0.817,0.723 l 0,0 c 0,0 10e-4,0 10e-4,0.001 l 0,0 c 0.034,0.039 0.069,0.083 0.104,0.131 l 0,0 c 0.298,0.391 0.87,1.224 1.193,1.699 l 0,0 c 0.074,0.103 0.152,0.217 0.23,0.34 l 0,0 c 0.003,0.005 0.007,0.011 0.007,0.011 l 0,0 c 0.476,0.753 1.004,1.873 1.461,3.161 l 0,0 c 0.568,1.604 0.887,3.078 0.901,3.979 l 0,0 10e-4,-10e-4 c 0,0 0.024,1.44 0.044,2.562 l 0,0 c 0.019,1.123 -0.002,2.51 0.114,3.75 l 0,0 0,0.001 c 0.079,0.627 0.121,1.268 0.121,1.917 l 0,0 c 0,8.374 -6.788,15.161 -15.161,15.161 l 0,0 C 9.627,35.258 2.839,28.471 2.839,20.097"
         id="path18"
         inkscape:connector-curvature="0" /></clipPath><linearGradient
       x1="0"
       y1="0"
       x2="1"
       y2="0"
       gradientUnits="userSpaceOnUse"
       gradientTransform="matrix(0,-33.498745,-33.498745,0,18,34.677788)"
       spreadMethod="pad"
       id="linearGradient24"><stop
         style="stop-opacity:1;stop-color:#3d3d3e"
         offset="0"
         id="stop26" /><stop
         style="stop-opacity:1;stop-color:#3d3d3e"
         offset="0.405589"
         id="stop28" /><stop
         style="stop-opacity:1;stop-color:#343334"
         offset="0.572115"
         id="stop30" /><stop
         style="stop-opacity:1;stop-color:#656263"
         offset="0.747596"
         id="stop32" /><stop
         style="stop-opacity:1;stop-color:#1f1d1d"
         offset="0.971154"
         id="stop34" /><stop
         style="stop-opacity:1;stop-color:#1f1d1d"
         offset="1"
         id="stop36" /></linearGradient><clipPath
       clipPathUnits="userSpaceOnUse"
       id="clipPath44"><path
         d="M 0,36 36,36 36,0 0,0 0,36 Z"
         id="path46"
         inkscape:connector-curvature="0" /></clipPath><clipPath
       clipPathUnits="userSpaceOnUse"
       id="clipPath52"><path
         d="m 2.83974,35.2575 30.32056,0 0,-17.3497 -30.32056,0 0,17.3497 z"
         id="path54"
         inkscape:connector-curvature="0" /></clipPath><clipPath
       clipPathUnits="userSpaceOnUse"
       id="clipPath56"><path
         d="m 4.507,18.752 c 0,7.452 6.041,13.493 13.493,13.493 7.452,0 13.493,-6.041 13.493,-13.493 l 1.547,-0.573 0,0.001 c 0.079,0.628 0.12,1.268 0.12,1.917 0,8.373 -6.787,15.16 -15.16,15.16 -8.373,0 -15.16,-6.787 -15.16,-15.16 0,-0.743 0.055,-1.474 0.158,-2.189"
         id="path58"
         inkscape:connector-curvature="0" /></clipPath><linearGradient
       x1="0"
       y1="0"
       x2="1"
       y2="0"
       gradientUnits="userSpaceOnUse"
       gradientTransform="matrix(2.9150703,-9.0629234,-9.0629234,-2.9150703,12.749837,36.767189)"
       spreadMethod="pad"
       id="linearGradient60"><stop
         style="stop-opacity:1;stop-color:#797b79"
         offset="0"
         id="stop62" /><stop
         style="stop-opacity:1;stop-color:#797b79"
         offset="0.074391"
         id="stop64" /><stop
         style="stop-opacity:1;stop-color:#1f1d1d"
         offset="0.92798"
         id="stop66" /><stop
         style="stop-opacity:1;stop-color:#1f1d1d"
         offset="1"
         id="stop68" /></linearGradient><clipPath
       clipPathUnits="userSpaceOnUse"
       id="clipPath96"><path
         d="m 3.67787,32.7789 28.64423,0 0,-18.4487 -28.64423,0 0,18.4487 z"
         id="path98"
         inkscape:connector-curvature="0" /></clipPath><clipPath
       clipPathUnits="userSpaceOnUse"
       id="clipPath112"><path
         d="M 5.163,24.952 C 5.081,24.78 5.191,24.564 5.36,24.564 l 0,0 0.394,0 c 0.383,0 0.746,0.214 0.968,0.581 l 0,0 c 2.503,4.141 6.62,6.564 11.278,6.564 l 0,0 c 4.658,0 8.775,-2.423 11.278,-6.564 l 0,0 c 0.222,-0.367 0.585,-0.581 0.969,-0.581 l 0,0 0.393,0 c 0.17,0 0.279,0.216 0.196,0.388 l 0,0 C 28.221,30.42 23.453,33.518 18,33.518 l 0,0 c -5.453,0 -10.221,-3.098 -12.837,-8.566"
         id="path114"
         inkscape:connector-curvature="0" /></clipPath><radialGradient
       fx="0"
       fy="0"
       cx="0"
       cy="0"
       r="1"
       gradientUnits="userSpaceOnUse"
       gradientTransform="matrix(13.674317,0.0099846,0.0099846,-13.674328,17.906025,20.018602)"
       spreadMethod="pad"
       id="radialGradient120"><stop
         style="stop-opacity:1;stop-color:#1f1d1d"
         offset="0"
         id="stop122" /><stop
         style="stop-opacity:1;stop-color:#1f1d1d"
         offset="0.927885"
         id="stop124" /><stop
         style="stop-opacity:1;stop-color:#343334"
         offset="1"
         id="stop126" /></radialGradient><clipPath
       clipPathUnits="userSpaceOnUse"
       id="clipPath134"><path
         d="M 31.534,8.461 C 30.76,6.049 29.913,4 29.299,2.963 l 0,0 c 0.308,0.428 0.725,1.035 0.983,1.414 l 0,0 c 0.074,0.103 0.152,0.217 0.23,0.34 l 0,0 c 0.003,0.005 0.007,0.011 0.007,0.011 l 0,0 c 0.476,0.753 1.004,1.873 1.461,3.161 l 0,0 c 0.568,1.604 0.887,3.078 0.901,3.979 l 0,0 10e-4,-10e-4 c 0,0 0.022,1.339 0.042,2.441 l 0,0 c -0.092,-1.19 -0.6,-3.388 -1.39,-5.847"
         id="path136"
         inkscape:connector-curvature="0" /></clipPath><linearGradient
       x1="0"
       y1="0"
       x2="1"
       y2="0"
       gradientUnits="userSpaceOnUse"
       gradientTransform="matrix(3.6248636,0,0,-3.6248636,29.298754,8.6357088)"
       spreadMethod="pad"
       id="linearGradient142"><stop
         style="stop-opacity:1;stop-color:#2b2829"
         offset="0"
         id="stop144" /><stop
         style="stop-opacity:1;stop-color:#2b2829"
         offset="0.370192"
         id="stop146" /><stop
         style="stop-opacity:1;stop-color:#3b3839"
         offset="1"
         id="stop148" /></linearGradient><clipPath
       clipPathUnits="userSpaceOnUse"
       id="clipPath156"><path
         d="M 28.804,9.049 C 27.697,5.18 27.183,1.93 27.654,1.791 l 0,0 c 0.473,-0.139 1.754,2.885 2.86,6.754 l 0,0 c 1.108,3.87 1.622,7.12 1.15,7.259 l 0,0 c -0.011,0.003 -0.022,0.005 -0.033,0.005 l 0,0 c -0.497,-10e-4 -1.744,-2.977 -2.827,-6.76"
         id="path158"
         inkscape:connector-curvature="0" /></clipPath><linearGradient
       x1="0"
       y1="0"
       x2="1"
       y2="0"
       gradientUnits="userSpaceOnUse"
       gradientTransform="matrix(4.3603334,0,0,-4.3603334,27.479135,8.7973118)"
       spreadMethod="pad"
       id="linearGradient164"><stop
         style="stop-opacity:1;stop-color:#1a1817"
         offset="0"
         id="stop166" /><stop
         style="stop-opacity:1;stop-color:#2c2a2a"
         offset="1"
         id="stop168" /></linearGradient><clipPath
       clipPathUnits="userSpaceOnUse"
       id="clipPath176"><path
         d="m 29.749,17.594 c 0.004,-0.009 0.01,-0.017 0.015,-0.027 l 0,0 -0.014,0.033 -0.001,-0.006 z"
         id="path178"
         inkscape:connector-curvature="0" /></clipPath><linearGradient
       x1="0"
       y1="0"
       x2="1"
       y2="0"
       gradientUnits="userSpaceOnUse"
       gradientTransform="matrix(0.0150058,0,0,-0.0150058,29.74863,17.583485)"
       spreadMethod="pad"
       id="linearGradient184"><stop
         style="stop-opacity:1;stop-color:#6d6e70"
         offset="0"
         id="stop186" /><stop
         style="stop-opacity:1;stop-color:#545557"
         offset="0.506415"
         id="stop188" /><stop
         style="stop-opacity:1;stop-color:#2c2a2a"
         offset="1"
         id="stop190" /></linearGradient><clipPath
       clipPathUnits="userSpaceOnUse"
       id="clipPath198"><path
         d="m 29.786,17.476 c 0.145,-0.627 -0.609,-4.055 -1.809,-8.12 l 0,0 C 26.763,5.237 25.521,1.915 25.072,1.539 l 0,0 2.839,1.931 c 0.376,0.252 1.202,2.495 2.088,5.497 l 0,0 c 0.884,3.002 1.299,4.969 1.119,5.386 l 0,0 -1.352,3.209 c 0.011,-0.027 0.017,-0.056 0.02,-0.086"
         id="path200"
         inkscape:connector-curvature="0" /></clipPath><linearGradient
       x1="0"
       y1="0"
       x2="1"
       y2="0"
       gradientUnits="userSpaceOnUse"
       gradientTransform="matrix(3.2592087,9.5822001,9.5822001,-3.2592087,26.779558,4.0416722)"
       spreadMethod="pad"
       id="linearGradient206"><stop
         style="stop-opacity:1;stop-color:#2c2a2a"
         offset="0"
         id="stop208" /><stop
         style="stop-opacity:1;stop-color:#2c2a2a"
         offset="0.5"
         id="stop210" /><stop
         style="stop-opacity:1;stop-color:#545557"
         offset="0.802885"
         id="stop212" /><stop
         style="stop-opacity:1;stop-color:#7b7979"
         offset="1"
         id="stop214" /></linearGradient><clipPath
       clipPathUnits="userSpaceOnUse"
       id="clipPath222"><path
         d="m 25.037,1.515 c 0.005,0.003 0.01,0.007 0.014,0.01 l 0,0 -0.014,-0.01 z M 25.029,1.511 C 25.024,1.507 25.017,1.504 25.012,1.501 l 0,0 -0.001,-0.004 0.026,0.018 C 25.034,1.514 25.032,1.512 25.029,1.511"
         id="path224"
         inkscape:connector-curvature="0" /></clipPath><linearGradient
       x1="0"
       y1="0"
       x2="1"
       y2="0"
       gradientUnits="userSpaceOnUse"
       gradientTransform="matrix(0.0413693,0,0,-0.0413693,25.010281,1.5109762)"
       spreadMethod="pad"
       id="linearGradient230"><stop
         style="stop-opacity:1;stop-color:#6d6e70"
         offset="0"
         id="stop232" /><stop
         style="stop-opacity:1;stop-color:#545557"
         offset="0.506415"
         id="stop234" /><stop
         style="stop-opacity:1;stop-color:#2c2a2a"
         offset="1"
         id="stop236" /></linearGradient><clipPath
       clipPathUnits="userSpaceOnUse"
       id="clipPath244"><path
         d="M 25.281,18.428 C 24.832,18.021 23.637,14.83 22.473,10.881 l 0,0 C 21.35,7.072 20.633,3.839 20.723,3.09 l 0,0 c 0.031,-0.564 0.409,-1.073 0.981,-1.242 l 0,0 1.132,-0.333 C 23.113,1.433 23.399,1.508 23.6,1.687 l 0,0 c 0.026,0.02 0.055,0.049 0.085,0.089 l 0,0 0,10e-4 c 0.519,0.648 1.726,3.902 2.901,7.886 l 0,0 c 1.274,4.323 2.051,7.944 1.804,8.353 l 0,0 c -0.081,0.241 -0.274,0.44 -0.536,0.518 l 0,0 -1.131,0.334 c -0.129,0.038 -0.259,0.056 -0.387,0.056 l 0,0 c -0.409,0 -0.797,-0.185 -1.055,-0.496"
         id="path246"
         inkscape:connector-curvature="0" /></clipPath><linearGradient
       x1="0"
       y1="0"
       x2="1"
       y2="0"
       gradientUnits="userSpaceOnUse"
       gradientTransform="matrix(3.8478081,-1.1351384,-1.1351384,-3.8478081,22.640428,10.821776)"
       spreadMethod="pad"
       id="linearGradient252"><stop
         style="stop-opacity:1;stop-color:#363233"
         offset="0"
         id="stop254" /><stop
         style="stop-opacity:1;stop-color:#343131"
         offset="0.334135"
         id="stop256" /><stop
         style="stop-opacity:1;stop-color:#2b2829"
         offset="1"
         id="stop258" /></linearGradient><clipPath
       clipPathUnits="userSpaceOnUse"
       id="clipPath266"><path
         d="M 25.281,18.428 C 24.832,18.021 23.637,14.83 22.473,10.881 l 0,0 C 21.35,7.072 20.633,3.839 20.723,3.09 l 0,0 c 0.031,-0.564 0.409,-1.073 0.981,-1.242 l 0,0 1.132,-0.333 C 23.113,1.433 23.399,1.508 23.6,1.687 l 0,0 c 0.026,0.02 0.055,0.049 0.085,0.089 l 0,0 0,10e-4 c 0.519,0.648 1.726,3.902 2.901,7.886 l 0,0 c 1.274,4.323 2.051,7.944 1.804,8.353 l 0,0 c -0.081,0.241 -0.274,0.44 -0.536,0.518 l 0,0 -1.131,0.334 c -0.129,0.038 -0.259,0.056 -0.387,0.056 l 0,0 c -0.409,0 -0.797,-0.185 -1.055,-0.496"
         id="path268"
         inkscape:connector-curvature="0" /></clipPath><linearGradient
       x1="0"
       y1="0"
       x2="1"
       y2="0"
       gradientUnits="userSpaceOnUse"
       gradientTransform="matrix(-4.8452311,-16.21851,-16.21851,4.8452311,26.946434,18.364351)"
       spreadMethod="pad"
       id="linearGradient274"><stop
         style="stop-opacity:1;stop-color:#3b3839"
         offset="0"
         id="stop276" /><stop
         style="stop-opacity:1;stop-color:#363233"
         offset="0.278846"
         id="stop278" /><stop
         style="stop-opacity:1;stop-color:#322e2f"
         offset="0.5"
         id="stop280" /><stop
         style="stop-opacity:1;stop-color:#2b2829"
         offset="1"
         id="stop282" /></linearGradient><clipPath
       clipPathUnits="userSpaceOnUse"
       id="clipPath290"><path
         d="m 28.39,18.016 c 0.247,-0.409 -0.53,-4.03 -1.804,-8.353 l 0,0 C 25.415,5.693 24.214,2.45 23.693,1.786 l 0,0 1.079,-0.319 c 0.091,-0.028 0.185,-0.007 0.257,0.044 l 0,0 c 0.408,0.177 1.694,3.586 2.948,7.845 l 0,0 c 1.2,4.065 1.954,7.493 1.809,8.12 l 0,0 c -0.009,0.122 -0.091,0.232 -0.215,0.268 l 0,0 -1.224,0.361 c 0.015,-0.029 0.032,-0.057 0.043,-0.089"
         id="path292"
         inkscape:connector-curvature="0" /></clipPath><linearGradient
       x1="0"
       y1="0"
       x2="1"
       y2="0"
       gradientUnits="userSpaceOnUse"
       gradientTransform="matrix(-3.5400093,-15.508003,-15.508003,3.5400093,28.612156,17.325066)"
       spreadMethod="pad"
       id="linearGradient298"><stop
         style="stop-opacity:1;stop-color:#d3d2d2"
         offset="0"
         id="stop300" /><stop
         style="stop-opacity:1;stop-color:#a7a5a6"
         offset="0.139423"
         id="stop302" /><stop
         style="stop-opacity:1;stop-color:#6d6e70"
         offset="0.274038"
         id="stop304" /><stop
         style="stop-opacity:1;stop-color:#373737"
         offset="1"
         id="stop306" /></linearGradient><clipPath
       clipPathUnits="userSpaceOnUse"
       id="clipPath314"><path
         d="m 3.133,11.867 10e-4,10e-4 C 3.148,10.967 3.468,9.493 4.036,7.889 l 0,0 C 4.493,6.601 5.02,5.481 5.496,4.728 l 0,0 c 0,0 0.003,-0.006 0.007,-0.011 l 0,0 C 5.582,4.594 5.658,4.48 5.733,4.377 l 0,0 C 5.991,3.998 6.407,3.391 6.717,2.963 l 0,0 C 6.102,4 5.255,6.049 4.481,8.461 l 0,0 C 3.692,10.92 3.183,13.118 3.092,14.308 l 0,0 C 3.11,13.206 3.133,11.867 3.133,11.867"
         id="path316"
         inkscape:connector-curvature="0" /></clipPath><linearGradient
       x1="0"
       y1="0"
       x2="1"
       y2="0"
       gradientUnits="userSpaceOnUse"
       gradientTransform="matrix(-3.6248407,0,0,-3.6248407,6.716404,8.6357155)"
       spreadMethod="pad"
       id="linearGradient322"><stop
         style="stop-opacity:1;stop-color:#2b2829"
         offset="0"
         id="stop324" /><stop
         style="stop-opacity:1;stop-color:#2b2829"
         offset="0.370192"
         id="stop326" /><stop
         style="stop-opacity:1;stop-color:#3b3839"
         offset="1"
         id="stop328" /></linearGradient><clipPath
       clipPathUnits="userSpaceOnUse"
       id="clipPath336"><path
         d="M 4.352,15.804 C 3.879,15.665 4.393,12.415 5.501,8.545 l 0,0 C 6.608,4.676 7.889,1.652 8.361,1.791 l 0,0 C 8.833,1.93 8.319,5.18 7.212,9.049 l 0,0 c -1.084,3.783 -2.331,6.759 -2.828,6.76 l 0,0 c -0.011,0 -0.022,-0.002 -0.032,-0.005"
         id="path338"
         inkscape:connector-curvature="0" /></clipPath><linearGradient
       x1="0"
       y1="0"
       x2="1"
       y2="0"
       gradientUnits="userSpaceOnUse"
       gradientTransform="matrix(-4.3603077,0,0,-4.3603077,8.5360222,8.7973175)"
       spreadMethod="pad"
       id="linearGradient344"><stop
         style="stop-opacity:1;stop-color:#1a1817"
         offset="0"
         id="stop346" /><stop
         style="stop-opacity:1;stop-color:#2c2a2a"
         offset="1"
         id="stop348" /></linearGradient><clipPath
       clipPathUnits="userSpaceOnUse"
       id="clipPath356"><path
         d="m 6.253,17.571 c 0.004,0.008 0.009,0.015 0.014,0.023 l 0,0 L 6.265,17.6 6.253,17.571 Z m -0.002,-0.004 0.002,0.004 c 0,-0.001 -0.001,-0.002 -0.002,-0.004"
         id="path358"
         inkscape:connector-curvature="0" /></clipPath><linearGradient
       x1="0"
       y1="0"
       x2="1"
       y2="0"
       gradientUnits="userSpaceOnUse"
       gradientTransform="matrix(-0.0150059,0,0,-0.0150059,6.2665577,17.583492)"
       spreadMethod="pad"
       id="linearGradient364"><stop
         style="stop-opacity:1;stop-color:#6d6e70"
         offset="0"
         id="stop366" /><stop
         style="stop-opacity:1;stop-color:#545557"
         offset="0.506415"
         id="stop368" /><stop
         style="stop-opacity:1;stop-color:#2c2a2a"
         offset="1"
         id="stop370" /></linearGradient><clipPath
       clipPathUnits="userSpaceOnUse"
       id="clipPath378"><path
         d="M 4.899,14.353 C 4.718,13.936 5.131,11.969 6.016,8.967 l 0,0 C 6.901,5.965 7.727,3.722 8.104,3.47 l 0,0 2.838,-1.931 C 10.494,1.915 9.251,5.237 8.037,9.356 l 0,0 c -1.198,4.065 -1.954,7.493 -1.806,8.12 l 0,0 c 0.001,0.03 0.008,0.059 0.018,0.086 l 0,0 -1.35,-3.209 z"
         id="path380"
         inkscape:connector-curvature="0" /></clipPath><linearGradient
       x1="0"
       y1="0"
       x2="1"
       y2="0"
       gradientUnits="userSpaceOnUse"
       gradientTransform="matrix(-3.2592072,9.5821953,-9.5821953,-3.2592072,9.2356176,4.0416808)"
       spreadMethod="pad"
       id="linearGradient386"><stop
         style="stop-opacity:1;stop-color:#2c2a2a"
         offset="0"
         id="stop388" /><stop
         style="stop-opacity:1;stop-color:#2c2a2a"
         offset="0.5"
         id="stop390" /><stop
         style="stop-opacity:1;stop-color:#545557"
         offset="0.802885"
         id="stop392" /><stop
         style="stop-opacity:1;stop-color:#7b7979"
         offset="1"
         id="stop394" /></linearGradient><clipPath
       clipPathUnits="userSpaceOnUse"
       id="clipPath402"><path
         d="M 10.982,1.513 10.964,1.525 C 10.97,1.521 10.977,1.516 10.982,1.513 m 0.023,-0.016 -0.001,0.004 c -0.006,0.003 -0.013,0.006 -0.019,0.01 l 0,0 c -10e-4,0.001 -0.002,0.001 -0.003,0.002 l 0,0 0.023,-0.016 z"
         id="path404"
         inkscape:connector-curvature="0" /></clipPath><linearGradient
       x1="0"
       y1="0"
       x2="1"
       y2="0"
       gradientUnits="userSpaceOnUse"
       gradientTransform="matrix(-0.0413693,0,0,-0.0413693,11.004874,1.5109798)"
       spreadMethod="pad"
       id="linearGradient410"><stop
         style="stop-opacity:1;stop-color:#6d6e70"
         offset="0"
         id="stop412" /><stop
         style="stop-opacity:1;stop-color:#545557"
         offset="0.506415"
         id="stop414" /><stop
         style="stop-opacity:1;stop-color:#2c2a2a"
         offset="1"
         id="stop416" /></linearGradient><clipPath
       clipPathUnits="userSpaceOnUse"
       id="clipPath424"><path
         d="M 9.292,18.868 8.161,18.534 C 7.899,18.456 7.707,18.257 7.626,18.016 l 0,0 C 7.378,17.607 8.155,13.986 9.429,9.663 l 0,0 c 1.176,-3.984 2.382,-7.238 2.9,-7.886 l 0,0 c 0,0 0,-10e-4 10e-4,-10e-4 l 0,0 c 0.031,-0.04 0.059,-0.069 0.085,-0.089 l 0,0 C 12.616,1.508 12.902,1.433 13.18,1.515 l 0,0 1.131,0.333 c 0.571,0.169 0.95,0.678 0.98,1.242 l 0,0 c 0.091,0.749 -0.625,3.982 -1.748,7.791 l 0,0 c -1.164,3.949 -2.36,7.14 -2.809,7.547 l 0,0 c -0.258,0.311 -0.645,0.496 -1.054,0.496 l 0,0 c -0.128,0 -0.258,-0.018 -0.388,-0.056"
         id="path426"
         inkscape:connector-curvature="0" /></clipPath><linearGradient
       x1="0"
       y1="0"
       x2="1"
       y2="0"
       gradientUnits="userSpaceOnUse"
       gradientTransform="matrix(-3.84781,-1.135139,1.135139,-3.84781,13.374746,10.82178)"
       spreadMethod="pad"
       id="linearGradient432"><stop
         style="stop-opacity:1;stop-color:#363233"
         offset="0"
         id="stop434" /><stop
         style="stop-opacity:1;stop-color:#343131"
         offset="0.334135"
         id="stop436" /><stop
         style="stop-opacity:1;stop-color:#2b2829"
         offset="1"
         id="stop438" /></linearGradient><clipPath
       clipPathUnits="userSpaceOnUse"
       id="clipPath446"><path
         d="M 9.292,18.868 8.161,18.534 C 7.899,18.456 7.707,18.257 7.626,18.016 l 0,0 C 7.378,17.607 8.155,13.986 9.429,9.663 l 0,0 c 1.176,-3.984 2.382,-7.238 2.9,-7.886 l 0,0 c 0,0 0,-10e-4 10e-4,-10e-4 l 0,0 c 0.031,-0.04 0.059,-0.069 0.085,-0.089 l 0,0 C 12.616,1.508 12.902,1.433 13.18,1.515 l 0,0 1.131,0.333 c 0.571,0.169 0.95,0.678 0.98,1.242 l 0,0 c 0.091,0.749 -0.625,3.982 -1.748,7.791 l 0,0 c -1.164,3.949 -2.36,7.14 -2.809,7.547 l 0,0 c -0.258,0.311 -0.645,0.496 -1.054,0.496 l 0,0 c -0.128,0 -0.258,-0.018 -0.388,-0.056"
         id="path448"
         inkscape:connector-curvature="0" /></clipPath><linearGradient
       x1="0"
       y1="0"
       x2="1"
       y2="0"
       gradientUnits="userSpaceOnUse"
       gradientTransform="matrix(4.8452296,-16.218504,16.218504,4.8452296,9.0687408,18.364351)"
       spreadMethod="pad"
       id="linearGradient454"><stop
         style="stop-opacity:1;stop-color:#3b3839"
         offset="0"
         id="stop456" /><stop
         style="stop-opacity:1;stop-color:#363233"
         offset="0.278846"
         id="stop458" /><stop
         style="stop-opacity:1;stop-color:#322e2f"
         offset="0.5"
         id="stop460" /><stop
         style="stop-opacity:1;stop-color:#2b2829"
         offset="1"
         id="stop462" /></linearGradient><clipPath
       clipPathUnits="userSpaceOnUse"
       id="clipPath470"><path
         d="M 6.444,17.744 C 6.32,17.708 6.238,17.598 6.231,17.476 l 0,0 C 6.083,16.849 6.839,13.421 8.037,9.356 l 0,0 C 9.293,5.097 10.579,1.688 10.985,1.511 l 0,0 C 11.058,1.46 11.152,1.439 11.244,1.467 l 0,0 1.079,0.319 C 11.802,2.45 10.6,5.693 9.429,9.663 l 0,0 c -1.274,4.323 -2.051,7.944 -1.803,8.353 l 0,0 c 0.011,0.032 0.028,0.06 0.042,0.089 l 0,0 -1.224,-0.361 z"
         id="path472"
         inkscape:connector-curvature="0" /></clipPath><linearGradient
       x1="0"
       y1="0"
       x2="1"
       y2="0"
       gradientUnits="userSpaceOnUse"
       gradientTransform="matrix(3.5400081,-15.507998,15.507998,3.5400081,7.4030147,17.325067)"
       spreadMethod="pad"
       id="linearGradient478"><stop
         style="stop-opacity:1;stop-color:#d3d2d2"
         offset="0"
         id="stop480" /><stop
         style="stop-opacity:1;stop-color:#a7a5a6"
         offset="0.139423"
         id="stop482" /><stop
         style="stop-opacity:1;stop-color:#6d6e70"
         offset="0.274038"
         id="stop484" /><stop
         style="stop-opacity:1;stop-color:#373737"
         offset="1"
         id="stop486" /></linearGradient><clipPath
       clipPathUnits="userSpaceOnUse"
       id="clipPath494"><path
         d="M 0,36 36,36 36,0 0,0 0,36 Z"
         id="path496"
         inkscape:connector-curvature="0" /></clipPath><clipPath
       clipPathUnits="userSpaceOnUse"
       id="clipPath502"><path
         d="m 2.33975,35.7575 31.32055,0 0,-34.802803 -31.32055,0 0,34.802803 z"
         id="path504"
         inkscape:connector-curvature="0" /></clipPath><clipPath
       clipPathUnits="userSpaceOnUse"
       id="clipPath506"><path
         d="m 2.33975,35.7575 31.32055,0 0,-34.802803 -31.32055,0 0,34.802803 z"
         id="path508"
         inkscape:connector-curvature="0" /></clipPath><clipPath
       clipPathUnits="userSpaceOnUse"
       id="clipPath530"><path
         d="m 6.35414,2.54527 11.11816,0 0,-2.5080691 -11.11816,0 0,2.5080691 z"
         id="path532"
         inkscape:connector-curvature="0" /></clipPath><clipPath
       clipPathUnits="userSpaceOnUse"
       id="clipPath534"><path
         d="m 17.472,1.291 c 0,-0.692 -2.489,-1.254 -5.559,-1.254 -3.07,0 -5.559,0.562 -5.559,1.254 0,0.692 2.489,1.254 5.559,1.254 3.07,0 5.559,-0.562 5.559,-1.254"
         id="path536"
         inkscape:connector-curvature="0" /></clipPath><clipPath
       clipPathUnits="userSpaceOnUse"
       id="clipPath538"><path
         d="m -32768,32767 65535,0 0,-65535 -65535,0 0,65535 z"
         id="path540"
         inkscape:connector-curvature="0" /></clipPath><radialGradient
       fx="0"
       fy="0"
       cx="0"
       cy="0"
       r="1"
       gradientUnits="userSpaceOnUse"
       gradientTransform="matrix(5.5833755,0,0,-1.1747696,11.913222,1.2912321)"
       spreadMethod="pad"
       id="radialGradient542"><stop
         style="stop-opacity:1;stop-color:#ffffff"
         offset="0"
         id="stop544" /><stop
         style="stop-opacity:0;stop-color:#ffffff"
         offset="0.53144564"
         id="stop546" /><stop
         style="stop-opacity:0;stop-color:#ffffff"
         offset="1"
         id="stop548" /></radialGradient><mask
       maskUnits="userSpaceOnUse"
       x="0"
       y="0"
       width="1"
       height="1"
       id="mask550"><g
         id="g552"><g
           clip-path="url(#clipPath538)"
           id="g554"><g
             id="g556"><g
               id="g558"><path
                 d="m -32768,32767 65535,0 0,-65535 -65535,0 0,65535 z"
                 style="fill:url(#radialGradient542);stroke:none"
                 id="path560"
                 inkscape:connector-curvature="0" /></g></g></g></g></mask><radialGradient
       fx="0"
       fy="0"
       cx="0"
       cy="0"
       r="1"
       gradientUnits="userSpaceOnUse"
       gradientTransform="matrix(5.5833755,0,0,-1.1747696,11.913222,1.2912321)"
       spreadMethod="pad"
       id="radialGradient562"><stop
         style="stop-opacity:1;stop-color:#100f0d"
         offset="0"
         id="stop564" /><stop
         style="stop-opacity:1;stop-color:#100f0d"
         offset="0.53144564"
         id="stop566" /><stop
         style="stop-opacity:1;stop-color:#100f0d"
         offset="1"
         id="stop568" /></radialGradient><clipPath
       clipPathUnits="userSpaceOnUse"
       id="clipPath592"><path
         d="m 18.7073,2.54526 11.1182,0 0,-2.5080591 -11.1182,0 0,2.5080591 z"
         id="path594"
         inkscape:connector-curvature="0" /></clipPath><clipPath
       clipPathUnits="userSpaceOnUse"
       id="clipPath596"><path
         d="m 29.825,1.291 c 0,-0.692 -2.488,-1.254 -5.558,-1.254 -3.071,0 -5.559,0.562 -5.559,1.254 0,0.692 2.488,1.254 5.559,1.254 3.07,0 5.558,-0.562 5.558,-1.254"
         id="path598"
         inkscape:connector-curvature="0" /></clipPath><clipPath
       clipPathUnits="userSpaceOnUse"
       id="clipPath600"><path
         d="m -32768,32767 65535,0 0,-65535 -65535,0 0,65535 z"
         id="path602"
         inkscape:connector-curvature="0" /></clipPath><radialGradient
       fx="0"
       fy="0"
       cx="0"
       cy="0"
       r="1"
       gradientUnits="userSpaceOnUse"
       gradientTransform="matrix(5.5833755,0,0,-1.1747696,24.266399,1.291229)"
       spreadMethod="pad"
       id="radialGradient604"><stop
         style="stop-opacity:1;stop-color:#ffffff"
         offset="0"
         id="stop606" /><stop
         style="stop-opacity:0;stop-color:#ffffff"
         offset="0.53144564"
         id="stop608" /><stop
         style="stop-opacity:0;stop-color:#ffffff"
         offset="1"
         id="stop610" /></radialGradient><mask
       maskUnits="userSpaceOnUse"
       x="0"
       y="0"
       width="1"
       height="1"
       id="mask612"><g
         id="g614"><g
           clip-path="url(#clipPath600)"
           id="g616"><g
             id="g618"><g
               id="g620"><path
                 d="m -32768,32767 65535,0 0,-65535 -65535,0 0,65535 z"
                 style="fill:url(#radialGradient604);stroke:none"
                 id="path622"
                 inkscape:connector-curvature="0" /></g></g></g></g></mask><radialGradient
       fx="0"
       fy="0"
       cx="0"
       cy="0"
       r="1"
       gradientUnits="userSpaceOnUse"
       gradientTransform="matrix(5.5833755,0,0,-1.1747696,24.266399,1.291229)"
       spreadMethod="pad"
       id="radialGradient624"><stop
         style="stop-opacity:1;stop-color:#100f0d"
         offset="0"
         id="stop626" /><stop
         style="stop-opacity:1;stop-color:#100f0d"
         offset="0.53144564"
         id="stop628" /><stop
         style="stop-opacity:1;stop-color:#100f0d"
         offset="1"
         id="stop630" /></radialGradient></defs><sodipodi:namedview
     pagecolor="#ffffff"
     bordercolor="#666666"
     borderopacity="1"
     objecttolerance="10"
     gridtolerance="10"
     guidetolerance="10"
     inkscape:pageopacity="0"
     inkscape:pageshadow="2"
     inkscape:window-width="1366"
     inkscape:window-height="697"
     id="namedview4"
     showgrid="false"
     inkscape:zoom="10.488889"
     inkscape:cx="-7.1638165"
     inkscape:cy="15.159579"
     inkscape:window-x="0"
     inkscape:window-y="0"
     inkscape:window-maximized="1"
     inkscape:current-layer="g10" /><g
     id="g10"
     inkscape:groupmode="layer"
     inkscape:label="audio-headphones-36"
     transform="matrix(1.25,0,0,-1.25,0,45)"><g
       transform="matrix(1.125,0,0,-1.125,-137.25,72)"
       id="audio-headphones_32"
       inkscape:label="#g7972"><rect
         style="opacity:1;fill:none;fill-opacity:0.09661835;stroke:none;stroke-width:0.5;stroke-linecap:butt;stroke-linejoin:miter;stroke-miterlimit:4;stroke-dasharray:none;stroke-dashoffset:0;stroke-opacity:0.54901961"
         id="rect4184-5-5"
         width="32"
         height="32"
         x="122"
         y="32"
         rx="0.5"
         ry="0.5" /><path
         sodipodi:nodetypes="ccccscccc"
         id="rect4164-3-1-3"
         d="m 148.5,48.5 v 3.166667 c -1.11447,-1.452594 -2.04502,-2.206666 -4,-2.206666 v 11.039997 c 3.14802,0 5.99999,-2.471387 5.99999,-5.519999 0,-0.244628 -0.0253,-0.483784 -0.0607,-0.72 h 0.0607 V 48.5 Z"
         style="opacity:1;fill:#4c5263;fill-opacity:1;stroke:#272a2f;stroke-width:0.99999994;stroke-linecap:butt;stroke-linejoin:miter;stroke-miterlimit:4;stroke-dasharray:none;stroke-dashoffset:0;stroke-opacity:0.78431373"
         inkscape:connector-curvature="0" /><path
         sodipodi:nodetypes="cccsccccc"
         id="rect4164-4-5"
         d="m 125.5,48.5 v 5.759999 h 0.0607 c -0.0354,0.236216 -0.0607,0.475372 -0.0607,0.72 0,3.048612 2.85197,5.52 6,5.52 v -11.04 c -1.95499,0 -2.88553,0.754072 -4,2.206667 V 48.5 Z"
         style="opacity:1;fill:#4c5263;fill-opacity:1;stroke:#272a2f;stroke-width:0.99999988;stroke-linecap:butt;stroke-linejoin:miter;stroke-miterlimit:4;stroke-dasharray:none;stroke-dashoffset:0;stroke-opacity:0.78431373"
         inkscape:connector-curvature="0" /><path
         sodipodi:nodetypes="scccccs"
         inkscape:connector-curvature="0"
         id="path4201-8-3"
         d="M 138.16052,38.000055 C 135.20146,37.955591 132.0926,39.678328 130,41.825547 L 131.40323,43 c 1.74275,-1.827375 4.11781,-2.857018 6.59677,-2.859857 2.47972,0.0014 4.85598,1.030388 6.5998,2.857767 L 146,41.825547 c -2.01405,-2.066617 -4.99151,-3.782717 -7.83948,-3.825492 z"
         style="opacity:1;fill:#6e768e;fill-opacity:1;stroke:none;stroke-width:1;stroke-linecap:butt;stroke-linejoin:miter;stroke-miterlimit:4;stroke-dasharray:none;stroke-dashoffset:0;stroke-opacity:0.78431373" /><rect
         rx="1.9999999"
         ry="0.69999999"
         y="48"
         x="131"
         height="14"
         width="2"
         id="rect4212-3-7"
         style="opacity:1;fill:#6e768e;fill-opacity:1;stroke:none;stroke-width:1;stroke-linecap:butt;stroke-linejoin:miter;stroke-miterlimit:4;stroke-dasharray:none;stroke-dashoffset:0;stroke-opacity:0.78431373" /><rect
         rx="2"
         ry="0.69999999"
         y="48"
         x="143"
         height="14"
         width="2"
         id="rect4212-6-2-9"
         style="opacity:1;fill:#6e768e;fill-opacity:1;stroke:none;stroke-width:1;stroke-linecap:butt;stroke-linejoin:miter;stroke-miterlimit:4;stroke-dasharray:none;stroke-dashoffset:0;stroke-opacity:0.78431373" /><path
         sodipodi:nodetypes="sccsccs"
         inkscape:connector-curvature="0"
         id="path4193-0"
         d="m 138,35.499998 c -7.1797,0 -13,5.631359 -13,13.000001 h 2.66667 c 0,-5.857125 4.62639,-10.263159 10.33333,-10.263159 5.70694,0 10.33333,4.406034 10.33333,10.263159 H 151 c 0,-7.368642 -5.8203,-13.000001 -13,-13.000001 z"
         style="opacity:1;fill:#575e71;fill-opacity:1;stroke:#242832;stroke-width:1;stroke-linecap:butt;stroke-linejoin:miter;stroke-miterlimit:4;stroke-dasharray:none;stroke-dashoffset:0;stroke-opacity:0.78431373" /></g></g></svg>