<?xml version="1.0" encoding="UTF-8" standalone="no"?>
<svg
   xmlns:dc="http://purl.org/dc/elements/1.1/"
   xmlns:cc="http://creativecommons.org/ns#"
   xmlns:rdf="http://www.w3.org/1999/02/22-rdf-syntax-ns#"
   xmlns:svg="http://www.w3.org/2000/svg"
   xmlns="http://www.w3.org/2000/svg"
   xmlns:sodipodi="http://sodipodi.sourceforge.net/DTD/sodipodi-0.dtd"
   xmlns:inkscape="http://www.inkscape.org/namespaces/inkscape"
   version="1.1"
   width="32"
   height="32"
   id="svg4103"
   sodipodi:docname="bluetooth.svg"
   inkscape:version="0.92.4 (5da689c313, 2019-01-14)">
  <sodipodi:namedview
     pagecolor="#ffffff"
     bordercolor="#666666"
     borderopacity="1"
     objecttolerance="10"
     gridtolerance="10"
     guidetolerance="10"
     inkscape:pageopacity="0"
     inkscape:pageshadow="2"
     inkscape:window-width="1366"
     inkscape:window-height="697"
     id="namedview29"
     showgrid="false"
     inkscape:zoom="14.75"
     inkscape:cx="11.516555"
     inkscape:cy="18.225798"
     inkscape:window-x="0"
     inkscape:window-y="0"
     inkscape:window-maximized="1"
     inkscape:current-layer="svg4103" />
  <defs
     id="defs4105" />
  <metadata
     id="metadata4108">
    <rdf:RDF>
      <cc:Work
         rdf:about="">
        <dc:format>image/svg+xml</dc:format>
        <dc:type
           rdf:resource="http://purl.org/dc/dcmitype/StillImage" />
        <dc:title />
      </cc:Work>
    </rdf:RDF>
  </metadata>
  <path
     inkscape:connector-curvature="0"
     id="path855-0"
     d="M 12.524394,30.212522 C 9.1539783,29.259868 7.1091394,26.888668 6.08536,22.745802 5.5291519,20.495029 5.3123269,14.463703 5.6868176,11.659752 6.5315284,5.3350834 9.1083775,2.2781027 14.136802,1.6353215 c 1.405089,-0.1796121 2.340623,-0.1800129 3.736331,-0.00161 5.067409,0.6477646 7.620253,3.7405679 8.479575,10.2731115 0.297197,2.259286 0.11804,8.398234 -0.299564,10.264784 -0.932944,4.169954 -2.696686,6.587322 -5.655955,7.752001 -1.55795,0.613162 -6.131783,0.781007 -7.872795,0.288904 z"
     style="fill:#5cb2fb;fill-opacity:1;stroke-width:1.00000012" />
  <path
     inkscape:connector-curvature="0"
     id="path855-3-63"
     d="M 12.526856,30.210844 C 9.1600477,29.25819 7.1173967,26.88699 6.0947117,22.744124 5.5391007,20.493351 5.3225057,14.462025 5.6965967,11.658074 6.5404037,5.3334053 9.1144947,2.2764246 14.137539,1.6336434 c 1.403586,-0.1796121 2.338119,-0.1800123 3.732335,-0.00161 5.061986,0.6477646 7.612099,3.7405679 8.4705,10.2731116 0.29688,2.259286 0.117914,8.398234 -0.299242,10.264784 -0.931947,4.169954 -2.693802,6.587322 -5.649903,7.752001 -1.556282,0.613162 -6.125222,0.781007 -7.864373,0.288904 z"
     style="opacity:0.35;fill:none;stroke:#002e99;stroke-width:1.00000012" />
  <g
     style="color:#000000;clip-rule:nonzero;display:inline;overflow:visible;visibility:visible;opacity:0.15;isolation:auto;mix-blend-mode:normal;color-interpolation:sRGB;color-interpolation-filters:linearRGB;solid-color:#000000;solid-opacity:1;fill:#000000;fill-opacity:1;fill-rule:nonzero;stroke:none;stroke-width:0.77777779;stroke-linecap:butt;stroke-linejoin:miter;stroke-miterlimit:4;stroke-dasharray:none;stroke-dashoffset:0;stroke-opacity:1;marker:none;color-rendering:auto;image-rendering:auto;shape-rendering:auto;text-rendering:auto;enable-background:accumulate"
     id="layer1-4-1-2"
     transform="matrix(1.2857143,0,0,1.2857143,5.9171428,6.7142851)" />
  <g
     style="color:#000000;clip-rule:nonzero;display:inline;overflow:visible;visibility:visible;opacity:0.05;isolation:auto;mix-blend-mode:normal;color-interpolation:sRGB;color-interpolation-filters:linearRGB;solid-color:#000000;solid-opacity:1;vector-effect:none;fill:#002e99;fill-opacity:1;fill-rule:nonzero;stroke:none;stroke-width:0.77777779;stroke-linecap:butt;stroke-linejoin:miter;stroke-miterlimit:4;stroke-dasharray:none;stroke-dashoffset:0;stroke-opacity:1;marker:none;color-rendering:auto;image-rendering:auto;shape-rendering:auto;text-rendering:auto;enable-background:accumulate"
     id="layer1-4-1-2-5"
     transform="matrix(1.2857143,0,0,1.2857143,5.9171428,6.7142853)" />
  <g
     style="fill:#ffffff"
     id="layer1-4-1"
     transform="matrix(1.2857143,0,0,1.2857143,5.9171428,5.7142865)">
    <path
       inkscape:connector-curvature="0"
       style="color:#bebebe;display:inline;overflow:visible;visibility:visible;fill:#ffffff;fill-opacity:1;fill-rule:nonzero;stroke:none;stroke-width:1.82310748;marker:none;enable-background:accumulate"
       id="rect6885-0"
       d="m 7.5097742,1 c -0.277,0 -0.4422236,0.2230174 -0.4453298,0.5 v 4.875 l -1.7734202,-1.5 c -0.31288,-0.27345 -0.75785,-0.21912 -1.03125,0.09375 -0.2734,0.31288 -0.25038,0.78909 0.0625,1.0625 l 2.25,1.96875 -2.25,1.96875 c -0.31288,0.273401 -0.3359,0.749622 -0.0625,1.0625 0.2734,0.312878 0.71837,0.367151 1.03125,0.09375 l 1.7734202,-1.5 V 14.5 c 0,0.277 0.1683298,0.5 0.4453298,0.5 0.28242,0 0.4375,-0.01953 0.65625,-0.1875 l 3.5312498,-3.15625 c 0.11231,-0.09991 0.18145,-0.24072 0.21875,-0.375 0.0142,-0.05132 0.0283,-0.10335 0.0312,-0.15625 0.004,-0.042 0.003,-0.083 0,-0.125 -0.006,-0.05361 -0.0136,-0.10455 -0.0312,-0.15625 -0.0385,-0.13396 -0.10556,-0.2761 -0.21875,-0.375 L 8.8847742,8 11.697274,5.53125 c 0.11319,-0.098907 0.18028,-0.2410493 0.21875,-0.375 0.0176,-0.051747 0.0254,-0.102645 0.0312,-0.15625 0.003,-0.041989 0.004,-0.083009 0,-0.125 -0.003,-0.052913 -0.017,-0.1049375 -0.0312,-0.15625 -0.0373,-0.1342859 -0.10644,-0.2750953 -0.21875,-0.375 L 8.1660242,1.1875 C 7.9667342,1.0265176 7.7385742,1 7.5097742,1 Z M 7.8422222,2.9444435 10.103524,4.9375 7.8422222,6.8333323 Z m 0,6.2222221 2.2613018,1.8958344 -2.2613018,1.993054 z" />
  </g>
</svg>
