<?xml version="1.0" encoding="UTF-8" standalone="no"?>
<svg
   xmlns:dc="http://purl.org/dc/elements/1.1/"
   xmlns:cc="http://creativecommons.org/ns#"
   xmlns:rdf="http://www.w3.org/1999/02/22-rdf-syntax-ns#"
   xmlns:svg="http://www.w3.org/2000/svg"
   xmlns="http://www.w3.org/2000/svg"
   xmlns:sodipodi="http://sodipodi.sourceforge.net/DTD/sodipodi-0.dtd"
   xmlns:inkscape="http://www.inkscape.org/namespaces/inkscape"
   width="32"
   height="32"
   version="1"
   id="svg22"
   sodipodi:docname="camera-photo.svg"
   inkscape:version="0.92.4 (5da689c313, 2019-01-14)">
  <metadata
     id="metadata28">
    <rdf:RDF>
      <cc:Work
         rdf:about="">
        <dc:format>image/svg+xml</dc:format>
        <dc:type
           rdf:resource="http://purl.org/dc/dcmitype/StillImage" />
        <dc:title></dc:title>
      </cc:Work>
    </rdf:RDF>
  </metadata>
  <defs
     id="defs26" />
  <sodipodi:namedview
     pagecolor="#ffffff"
     bordercolor="#666666"
     borderopacity="1"
     objecttolerance="10"
     gridtolerance="10"
     guidetolerance="10"
     inkscape:pageopacity="0"
     inkscape:pageshadow="2"
     inkscape:window-width="1366"
     inkscape:window-height="697"
     id="namedview24"
     showgrid="true"
     inkscape:zoom="10.429825"
     inkscape:cx="13.001568"
     inkscape:cy="17.840426"
     inkscape:window-x="0"
     inkscape:window-y="0"
     inkscape:window-maximized="1"
     inkscape:current-layer="svg22">
    <inkscape:grid
       type="xygrid"
       id="grid837" />
  </sodipodi:namedview>
  <path
     inkscape:connector-curvature="0"
     style="color:#000000;display:inline;overflow:visible;visibility:visible;opacity:0.15;fill:none;fill-opacity:1;stroke:#000000;stroke-width:1;stroke-miterlimit:4;stroke-dasharray:none;stroke-opacity:1;marker:none;enable-background:accumulate"
     id="path3871"
     d="M 15.999852,1.5003 C 7.999332,1.5003 1.5,7.99963 1.5,16.00015 1.5,24.00067 7.999332,30.5 15.999852,30.5 c 8.00052,0 14.49986,-6.49933 14.49985,-14.49985 0,-8.00052 -6.49933,-14.49985 -14.49985,-14.49985 z" />
  <path
     style="color:#000000;display:inline;overflow:visible;visibility:visible;fill:#f9f9f9;fill-opacity:1;fill-rule:nonzero;stroke:none;stroke-width:0.99999988;marker:none;enable-background:accumulate"
     id="path2555-7-2"
     d="M 16.000001,2.0000009 C 8.2752816,2.0000009 2,8.2752806 2,16 2,23.724719 8.2752816,29.999999 16.000001,29.999999 23.72472,29.999999 30.00001,23.724719 30,16 30,8.2752806 23.72472,2.0000009 16.000001,2.0000009 Z"
     inkscape:connector-curvature="0" />
  <path
     style="color:#000000;display:inline;overflow:visible;visibility:visible;fill:#e6e6e6;fill-opacity:1;fill-rule:nonzero;stroke:none;stroke-width:0.99999994;marker:none;enable-background:accumulate"
     id="path2555-36-4-4"
     d="m 15.99986,6.0000518 c -5.518004,0 -10.0001581,4.4826192 -10.0001581,10.0000982 0,5.517954 4.4826461,10.000098 10.0001581,10.000098 C 21.517831,26.000248 26,21.517629 26,16.00015 26,10.482187 21.517356,6.0000518 15.99986,6.0000518 Z"
     inkscape:connector-curvature="0" />
  <path
     style="color:#000000;display:inline;overflow:visible;visibility:visible;fill:#cccccc;fill-opacity:1;fill-rule:nonzero;stroke:none;stroke-width:0.79069769;marker:none;enable-background:accumulate"
     id="path4218-6"
     d="m 25,16.000047 a 9.0001545,9.0001545 0 0 1 -18.0003089,0 9.0001545,9.0001545 0 1 1 18.0003089,0 z"
     inkscape:connector-curvature="0" />
  <path
     inkscape:connector-curvature="0"
     style="opacity:0.5;fill:#000000;fill-opacity:0;stroke:none"
     id="path2555-3-3-5-8"
     d="m 15.999862,14.00015 c -1.10353,0 -2.00001,0.89645 -2.00001,1.99999 0,1.10351 0.89648,2.00001 2.00001,2.00001 1.10351,0 2,-0.89645 2,-2.00001 0,-1.10349 -0.89645,-1.99999 -2,-1.99999 z" />
  <path
     inkscape:connector-curvature="0"
     style="color:#000000;display:inline;overflow:visible;visibility:visible;opacity:0.5;fill:none;stroke:#ffffff;stroke-width:1.00000012;stroke-linecap:butt;stroke-linejoin:miter;stroke-miterlimit:4;stroke-dasharray:none;stroke-dashoffset:0;stroke-opacity:1;marker:none;enable-background:accumulate"
     id="path4218-4-9-8-8"
     d="m 21.499963,16.000149 a 5.5001196,5.5000939 0 1 0 -11.000239,0 5.5001196,5.5000939 0 0 0 11.000239,0 z" />
  <circle
     style="opacity:0.5;fill:#000000;fill-opacity:1;stroke:none;stroke-width:2;stroke-linecap:round;stroke-linejoin:round;stroke-miterlimit:4;stroke-dasharray:none;stroke-opacity:1;paint-order:markers stroke fill"
     id="path964"
     cx="16"
     cy="16"
     r="5" />
  <circle
     r="4"
     cy="16"
     cx="16"
     id="circle966"
     style="opacity:0.5;fill:#000000;fill-opacity:1;stroke:none;stroke-width:2;stroke-linecap:round;stroke-linejoin:round;stroke-miterlimit:4;stroke-dasharray:none;stroke-opacity:1;paint-order:markers stroke fill" />
  <path
     inkscape:connector-curvature="0"
     style="color:#000000;display:inline;overflow:visible;visibility:visible;opacity:0.4;fill:#feffff;fill-opacity:1;fill-rule:nonzero;stroke:none;stroke-width:1;marker:none;enable-background:accumulate"
     id="path6301-1-8-21"
     d="m 14.440798,14.351442 a 0.773368,0.80903023 0 0 1 -1.546736,0 0.773368,0.80903023 0 1 1 1.546736,0 z" />
</svg>
