<?xml version="1.0" encoding="UTF-8" standalone="no"?>
<svg
   xmlns:dc="http://purl.org/dc/elements/1.1/"
   xmlns:cc="http://creativecommons.org/ns#"
   xmlns:rdf="http://www.w3.org/1999/02/22-rdf-syntax-ns#"
   xmlns:svg="http://www.w3.org/2000/svg"
   xmlns="http://www.w3.org/2000/svg"
   xmlns:sodipodi="http://sodipodi.sourceforge.net/DTD/sodipodi-0.dtd"
   xmlns:inkscape="http://www.inkscape.org/namespaces/inkscape"
   version="1.1"
   width="32"
   height="32"
   id="svg4032"
   sodipodi:docname="computer.svg"
   inkscape:version="0.92.4 (5da689c313, 2019-01-14)">
  <sodipodi:namedview
     pagecolor="#ffffff"
     bordercolor="#666666"
     borderopacity="1"
     objecttolerance="10"
     gridtolerance="10"
     guidetolerance="10"
     inkscape:pageopacity="0"
     inkscape:pageshadow="2"
     inkscape:window-width="1366"
     inkscape:window-height="697"
     id="namedview75"
     showgrid="false"
     inkscape:zoom="0.921875"
     inkscape:cx="-64.146433"
     inkscape:cy="41.263893"
     inkscape:window-x="0"
     inkscape:window-y="0"
     inkscape:window-maximized="1"
     inkscape:current-layer="svg4032" />
  <metadata
     id="metadata41">
    <rdf:RDF>
      <cc:Work
         rdf:about="">
        <dc:format>image/svg+xml</dc:format>
        <dc:type
           rdf:resource="http://purl.org/dc/dcmitype/StillImage" />
      </cc:Work>
    </rdf:RDF>
  </metadata>
  <defs
     id="defs4034" />
  <g
     id="g913"
     transform="translate(239.34746,74.322037)">
    <path
       sodipodi:nodetypes="ssccsccsccsss"
       inkscape:connector-curvature="0"
       id="rect4170-5-1"
       d="m -226.11336,-52.32204 c -0.40332,0 -0.73038,0.27476 -0.7282,0.61566 v 4.84562 l -2.27769,0.15414 c -0.40331,0 -0.7282,0.27475 -0.7282,0.61567 v 0.76891 h 12.99998 v -0.76891 c 0,-0.34092 -0.32489,-0.61567 -0.7282,-0.61567 l -2.26769,-0.15414 v -4.84562 c 0,-0.3409 -0.32488,-0.61566 -0.7282,-0.61566 z"
       style="opacity:1;fill:none;fill-opacity:1;stroke:#42557f;stroke-width:0.99999994;stroke-linecap:butt;stroke-linejoin:miter;stroke-miterlimit:4;stroke-dasharray:none;stroke-dashoffset:0;stroke-opacity:0.29081636" />
    <path
       sodipodi:nodetypes="ssccssccssccsss"
       inkscape:connector-curvature="0"
       id="rect4170-0-1-5"
       d="m -225.89236,-52.40505 c -0.25987,0 -0.45187,0.1842 -0.4502,0.40718 v 5.34865 l -2.54396,0.18405 h -0.0107 c -0.25988,0 -0.4502,0.18419 -0.4502,0.40718 v 0.26895 h 12 v -0.26895 c 0,-0.22299 -0.19032,-0.40718 -0.45019,-0.40718 h -0.0117 l -2.54305,-0.18405 v -5.34865 c 0,-0.22298 -0.19033,-0.40718 -0.4502,-0.40718 z"
       style="opacity:1;fill:#fafafa;fill-opacity:1;stroke:none;stroke-width:0.99999994;stroke-linecap:butt;stroke-linejoin:miter;stroke-miterlimit:4;stroke-dasharray:none;stroke-dashoffset:0;stroke-opacity:1" />
    <rect
       style="fill:#434855;fill-opacity:1;stroke:#252831;stroke-width:1.00023937;stroke-linecap:round;stroke-linejoin:round;stroke-miterlimit:4;stroke-dasharray:none;stroke-dashoffset:0.5;stroke-opacity:0.78431373"
       id="rect2722-2-7"
       y="-71.321915"
       x="-237.84734"
       ry="1"
       rx="1"
       height="18.999758"
       width="28.999758" />
    <rect
       style="display:inline;fill:#5294e2;fill-opacity:1;fill-rule:evenodd;stroke:none;enable-background:new"
       id="rect2716-9-3"
       y="-70.822037"
       x="-237.34746"
       height="18"
       width="28" />
  </g>
</svg>
