<?xml version="1.0" encoding="UTF-8" standalone="no"?>
<svg
   xmlns:dc="http://purl.org/dc/elements/1.1/"
   xmlns:cc="http://creativecommons.org/ns#"
   xmlns:rdf="http://www.w3.org/1999/02/22-rdf-syntax-ns#"
   xmlns:svg="http://www.w3.org/2000/svg"
   xmlns="http://www.w3.org/2000/svg"
   xmlns:sodipodi="http://sodipodi.sourceforge.net/DTD/sodipodi-0.dtd"
   xmlns:inkscape="http://www.inkscape.org/namespaces/inkscape"
   id="svg3658"
   height="32"
   width="32"
   version="1.1"
   sodipodi:docname="fingerprint.svg"
   inkscape:version="0.92.4 (5da689c313, 2019-01-14)">
  <sodipodi:namedview
     pagecolor="#ffffff"
     bordercolor="#666666"
     borderopacity="1"
     objecttolerance="10"
     gridtolerance="10"
     guidetolerance="10"
     inkscape:pageopacity="0"
     inkscape:pageshadow="2"
     inkscape:window-width="1366"
     inkscape:window-height="697"
     id="namedview27"
     showgrid="false"
     inkscape:zoom="14.75"
     inkscape:cx="8.2590114"
     inkscape:cy="18.313894"
     inkscape:window-x="0"
     inkscape:window-y="0"
     inkscape:window-maximized="1"
     inkscape:current-layer="svg3658" />
  <defs
     id="defs3660" />
  <metadata
     id="metadata3663">
    <rdf:RDF>
      <cc:Work
         rdf:about="">
        <dc:format>image/svg+xml</dc:format>
        <dc:type
           rdf:resource="http://purl.org/dc/dcmitype/StillImage" />
        <dc:title />
      </cc:Work>
    </rdf:RDF>
  </metadata>
  <path
     d="m 15.999999,1.4999997 c -8.000603,0 -14.5,6.4993973 -14.5,14.5000003 0,8.000603 6.499397,14.5 14.5,14.5 C 24.000603,30.5 30.500014,24.000603 30.5,16 30.5,7.999397 24.000603,1.4999997 15.999999,1.4999997 Z"
     id="path2555-7-8-5-0-9"
     style="color:#000000;display:inline;overflow:visible;visibility:visible;opacity:0.98999999;fill:#fc847b;fill-opacity:0.99215686;fill-rule:nonzero;stroke:none;stroke-width:0.99999982;marker:none;enable-background:accumulate" />
  <path
     d="m 16.000001,1.5017981 c -7.9996071,0 -14.4982031,6.4985937 -14.4982031,14.4982009 0,7.999609 6.498596,14.498206 14.4982031,14.498203 7.999605,0 14.498209,-6.498594 14.498201,-14.498203 0,-7.9996072 -6.498596,-14.4982009 -14.498201,-14.4982009 z"
     id="path2555-4"
     style="fill:none;fill-opacity:1;stroke:#c6262e;stroke-width:1;stroke-linecap:round;stroke-linejoin:round;stroke-miterlimit:4;stroke-opacity:1;stroke-dasharray:none;stroke-dashoffset:0;opacity:0.35;color:#000000;marker:none;visibility:visible;display:inline;overflow:visible;enable-background:accumulate;font-variant-east_asian:normal;vector-effect:none;clip-rule:nonzero;isolation:auto;mix-blend-mode:normal;color-interpolation:sRGB;color-interpolation-filters:linearRGB;solid-color:#000000;solid-opacity:1;fill-rule:nonzero;filter-blend-mode:normal;filter-gaussianBlur-deviation:0;color-rendering:auto;image-rendering:auto;shape-rendering:auto;text-rendering:auto" />
  <path
     style="opacity:1;vector-effect:none;fill:#fafafa;fill-opacity:1;stroke:none;stroke-width:0.99999988;stroke-linecap:butt;stroke-linejoin:miter;stroke-miterlimit:4;stroke-dasharray:none;stroke-dashoffset:0;stroke-opacity:1;marker:none"
     d="M 16.20659,7.5023397 C 13.928397,7.4512545 11.710729,8.2383441 9.9744858,9.7142254 9.4173288,10.187961 10.12794,11.023589 10.685098,10.549853 13.855563,7.8532409 18.54159,7.9531041 21.594295,10.782337 22.130788,11.297922 22.894324,10.474874 22.339998,9.9785114 20.668356,8.4296024 18.486146,7.5484468 16.207687,7.5023397 Z m -0.197392,2.1888577 c -3.923897,-4.2e-5 -7.109934,3.1712896 -7.128044,7.0951456 0,1.675018 0.3343044,2.977025 0.7665382,4.194485 0.2631904,0.682099 1.2863388,0.287315 1.0231488,-0.394784 -0.462237,-1.198497 -0.6976231,-2.472487 -0.6941621,-3.757028 0,-3.574842 3.2258921,-5.956017 6.0314231,-6.04129 3.331062,0 6.031421,2.700361 6.031421,6.031423 0,0.908472 -0.736462,1.644933 -1.644933,1.644933 -0.908472,0 -1.644933,-0.736461 -1.644933,-1.644933 0,-1.514119 -1.227436,-2.741555 -2.741555,-2.741555 -1.500937,4.93e-4 -2.722447,1.207828 -2.740459,2.708657 0,3.89037 3.027931,7.00395 7.0447,7.160946 0.731082,0.0073 0.742047,-1.089312 0.01097,-1.096622 -3.305355,-0.02353 -5.969019,-2.716135 -5.956851,-6.021553 3e-5,-0.0033 3e-5,-0.0066 0,-0.0099 0,-0.908472 0.736462,-1.644934 1.644932,-1.644934 0.908472,0 1.644934,0.736462 1.644934,1.644934 0,1.514119 1.227436,2.741555 2.741555,2.741555 1.514119,0 2.741556,-1.227436 2.741556,-2.741555 0,-3.93671 -3.191334,-7.1280438 -7.128045,-7.1280438 z m 0,2.1932446 c -2.712193,-6.4e-5 -4.916115,2.188674 -4.9348,4.900804 0,3.440675 1.776203,5.997875 3.869979,7.60728 0.103959,0.07689 0.231746,0.114565 0.36079,0.106372 0.01838,-0.0013 0.03667,-0.0035 0.05483,-0.0066 0.48439,-0.08095 0.626259,-0.708932 0.223711,-0.99025 -2.148794,-1.542366 -3.41996,-4.027921 -3.412688,-6.672946 3.7e-5,-0.0037 3.7e-5,-0.0073 0,-0.01097 0,-2.119768 1.718411,-3.838178 3.838178,-3.838178 2.119767,0 3.838178,1.71841 3.838178,3.838178 0,0.302823 0.245487,0.54831 0.548311,0.54831 0.302823,0 0.54831,-0.245487 0.54831,-0.54831 7.8e-4,-0.01681 7.8e-4,-0.03364 0,-0.05045 -0.02825,-2.70441 -2.228048,-4.882204 -4.932607,-4.883258 z m -0.01097,4.365653 c -0.384749,0.01867 -0.531843,0.328939 -0.542828,0.627276 0.03498,2.682956 2.204617,4.847728 4.887645,4.876677 0.731774,0.008 0.742739,-1.088603 0.01096,-1.096621 -2.108491,-0.01388 -3.809059,-1.729645 -3.804183,-3.838178 3.7e-5,-0.0037 3.7e-5,-0.0073 0,-0.01096 0.005,-0.308406 -0.245364,-0.560208 -0.553794,-0.557084 z"
     id="path45-6-25-2" />
</svg>
