<?xml version="1.0" encoding="UTF-8" standalone="no"?>
<svg
   xmlns:dc="http://purl.org/dc/elements/1.1/"
   xmlns:cc="http://creativecommons.org/ns#"
   xmlns:rdf="http://www.w3.org/1999/02/22-rdf-syntax-ns#"
   xmlns:svg="http://www.w3.org/2000/svg"
   xmlns="http://www.w3.org/2000/svg"
   xmlns:sodipodi="http://sodipodi.sourceforge.net/DTD/sodipodi-0.dtd"
   xmlns:inkscape="http://www.inkscape.org/namespaces/inkscape"
   version="1.1"
   id="svg4220"
   viewBox="0 0 32.000001 32.000001"
   height="32"
   width="32"
   sodipodi:docname="input-keyboard.svg"
   inkscape:version="0.92.4 (5da689c313, 2019-01-14)">
  <sodipodi:namedview
     pagecolor="#ffffff"
     bordercolor="#666666"
     borderopacity="1"
     objecttolerance="10"
     gridtolerance="10"
     guidetolerance="10"
     inkscape:pageopacity="0"
     inkscape:pageshadow="2"
     inkscape:window-width="1366"
     inkscape:window-height="710"
     id="namedview78"
     showgrid="true"
     inkscape:snap-bbox="true"
     inkscape:bbox-nodes="true"
     inkscape:zoom="7.375"
     inkscape:cx="-5.6860178"
     inkscape:cy="11.601688"
     inkscape:window-x="0"
     inkscape:window-y="32"
     inkscape:window-maximized="1"
     inkscape:current-layer="svg4220">
    <inkscape:grid
       type="xygrid"
       id="grid885" />
  </sodipodi:namedview>
  <defs
     id="defs4222" />
  <metadata
     id="metadata4225">
    <rdf:RDF>
      <cc:Work
         rdf:about="">
        <dc:format>image/svg+xml</dc:format>
        <dc:type
           rdf:resource="http://purl.org/dc/dcmitype/StillImage" />
        <dc:title />
      </cc:Work>
    </rdf:RDF>
  </metadata>
  <rect
     width="27.999998"
     height="20"
     rx="0.93333328"
     ry="1.0344827"
     x="2.000001"
     y="6"
     id="rect5505-21-3-8-5-2"
     style="color:#000000;display:inline;overflow:visible;visibility:visible;opacity:1;fill:#ececec;fill-opacity:1;fill-rule:nonzero;stroke:#000000;stroke-width:2;marker:none;enable-background:accumulate;stroke-opacity:0.29803923;stroke-miterlimit:4;stroke-dasharray:none" />
  <rect
     style="color:#000000;display:inline;overflow:visible;visibility:visible;opacity:1;fill:#ececec;fill-opacity:1;fill-rule:nonzero;stroke:none;stroke-width:2;marker:none;enable-background:accumulate;stroke-opacity:0.29803923;stroke-miterlimit:4;stroke-dasharray:none"
     id="rect891"
     y="6"
     x="2.000001"
     ry="1.0344827"
     rx="0.93333328"
     height="20"
     width="27.999998" />
  <path
     style="color:#000000;clip-rule:nonzero;display:inline;overflow:visible;visibility:visible;opacity:0.25;isolation:auto;mix-blend-mode:normal;color-interpolation:sRGB;color-interpolation-filters:linearRGB;solid-color:#000000;solid-opacity:1;fill:#000000;fill-opacity:1;fill-rule:nonzero;stroke:none;stroke-width:1;stroke-linecap:butt;stroke-linejoin:miter;stroke-miterlimit:4;stroke-dasharray:none;stroke-dashoffset:0;stroke-opacity:1;marker:none;color-rendering:auto;image-rendering:auto;shape-rendering:auto;text-rendering:auto;enable-background:accumulate"
     d="M 4.3,21 C 4.1338,21 4,21.1115 4,21.25 v 1.5 C 4,22.8885 4.1338,23 4.3,23 H 6.7 C 6.8662,23 7,22.8885 7,22.75 v -1.5 C 7,21.1115 6.8662,21 6.7,21 Z"
     id="path4264"
     inkscape:connector-curvature="0" />
  <path
     id="path4330"
     d="M 8.3,21 C 8.1338,21 8,21.1115 8,21.25 v 1.5 C 8,22.8885 8.1338,23 8.3,23 h 2.4 c 0.1662,0 0.3,-0.1115 0.3,-0.25 v -1.5 C 11,21.1115 10.8662,21 10.7,21 Z"
     style="color:#000000;clip-rule:nonzero;display:inline;overflow:visible;visibility:visible;opacity:0.25;isolation:auto;mix-blend-mode:normal;color-interpolation:sRGB;color-interpolation-filters:linearRGB;solid-color:#000000;solid-opacity:1;fill:#000000;fill-opacity:1;fill-rule:nonzero;stroke:none;stroke-width:1;stroke-linecap:butt;stroke-linejoin:miter;stroke-miterlimit:4;stroke-dasharray:none;stroke-dashoffset:0;stroke-opacity:1;marker:none;color-rendering:auto;image-rendering:auto;shape-rendering:auto;text-rendering:auto;enable-background:accumulate"
     inkscape:connector-curvature="0" />
  <path
     style="color:#000000;clip-rule:nonzero;display:inline;overflow:visible;visibility:visible;opacity:0.25;isolation:auto;mix-blend-mode:normal;color-interpolation:sRGB;color-interpolation-filters:linearRGB;solid-color:#000000;solid-opacity:1;fill:#000000;fill-opacity:1;fill-rule:nonzero;stroke:none;stroke-width:1;stroke-linecap:butt;stroke-linejoin:miter;stroke-miterlimit:4;stroke-dasharray:none;stroke-dashoffset:0;stroke-opacity:1;marker:none;color-rendering:auto;image-rendering:auto;shape-rendering:auto;text-rendering:auto;enable-background:accumulate"
     d="M 25.3,21 C 25.1338,21 25,21.1115 25,21.25 v 1.5 c 0,0.1385 0.1338,0.25 0.3,0.25 h 2.4 c 0.1662,0 0.3,-0.1115 0.3,-0.25 v -1.5 C 28,21.1115 27.8662,21 27.7,21 Z"
     id="path4336"
     inkscape:connector-curvature="0" />
  <path
     style="color:#000000;clip-rule:nonzero;display:inline;overflow:visible;visibility:visible;opacity:0.25;isolation:auto;mix-blend-mode:normal;color-interpolation:sRGB;color-interpolation-filters:linearRGB;solid-color:#000000;solid-opacity:1;fill:#000000;fill-opacity:1;fill-rule:nonzero;stroke:none;stroke-width:1;stroke-linecap:butt;stroke-linejoin:miter;stroke-miterlimit:4;stroke-dasharray:none;stroke-dashoffset:0;stroke-opacity:1;marker:none;color-rendering:auto;image-rendering:auto;shape-rendering:auto;text-rendering:auto;enable-background:accumulate"
     d="M 21.3,21 C 21.1338,21 21,21.1115 21,21.25 v 1.5 c 0,0.1385 0.1338,0.25 0.3,0.25 h 2.4 c 0.1662,0 0.3,-0.1115 0.3,-0.25 v -1.5 C 24,21.1115 23.8662,21 23.7,21 Z"
     id="path4342"
     inkscape:connector-curvature="0" />
  <path
     style="color:#000000;clip-rule:nonzero;display:inline;overflow:visible;visibility:visible;opacity:0.25;isolation:auto;mix-blend-mode:normal;color-interpolation:sRGB;color-interpolation-filters:linearRGB;solid-color:#000000;solid-opacity:1;fill:#000000;fill-opacity:1;fill-rule:nonzero;stroke:none;stroke-width:1;stroke-linecap:butt;stroke-linejoin:miter;stroke-miterlimit:4;stroke-dasharray:none;stroke-dashoffset:0;stroke-opacity:1;marker:none;color-rendering:auto;image-rendering:auto;shape-rendering:auto;text-rendering:auto;enable-background:accumulate"
     d="M 12.8,21 C 12.3568,21 12,21.1115 12,21.25 v 1.5 c 0,0.1385 0.3568,0.25 0.8,0.25 h 6.4 c 0.4432,0 0.8,-0.1115 0.8,-0.25 v -1.5 C 20,21.1115 19.6432,21 19.2,21 Z"
     id="path4348"
     inkscape:connector-curvature="0" />
  <path
     style="color:#000000;clip-rule:nonzero;display:inline;overflow:visible;visibility:visible;opacity:0.25;isolation:auto;mix-blend-mode:normal;color-interpolation:sRGB;color-interpolation-filters:linearRGB;solid-color:#000000;solid-opacity:1;fill:#000000;fill-opacity:1;fill-rule:nonzero;stroke:none;stroke-width:1;stroke-linecap:butt;stroke-linejoin:miter;stroke-miterlimit:4;stroke-dasharray:none;stroke-dashoffset:0;stroke-opacity:1;marker:none;color-rendering:auto;image-rendering:auto;shape-rendering:auto;text-rendering:auto;enable-background:accumulate"
     d="M 8.2,18 C 8.0892,18 8,18.1115 8,18.25 v 1.5 C 8,19.8885 8.0892,20 8.2,20 H 9.8 C 9.9108,20 10,19.8885 10,19.75 v -1.5 C 10,18.1115 9.9108,18 9.8,18 Z"
     id="path4360"
     inkscape:connector-curvature="0" />
  <path
     id="path4366"
     d="M 14.2,18 C 14.0892,18 14,18.1115 14,18.25 v 1.5 c 0,0.1385 0.0892,0.25 0.2,0.25 h 1.6 c 0.1108,0 0.2,-0.1115 0.2,-0.25 v -1.5 C 16,18.1115 15.9108,18 15.8,18 Z"
     style="color:#000000;clip-rule:nonzero;display:inline;overflow:visible;visibility:visible;opacity:0.25;isolation:auto;mix-blend-mode:normal;color-interpolation:sRGB;color-interpolation-filters:linearRGB;solid-color:#000000;solid-opacity:1;fill:#000000;fill-opacity:1;fill-rule:nonzero;stroke:none;stroke-width:1;stroke-linecap:butt;stroke-linejoin:miter;stroke-miterlimit:4;stroke-dasharray:none;stroke-dashoffset:0;stroke-opacity:1;marker:none;color-rendering:auto;image-rendering:auto;shape-rendering:auto;text-rendering:auto;enable-background:accumulate"
     inkscape:connector-curvature="0" />
  <path
     style="color:#000000;clip-rule:nonzero;display:inline;overflow:visible;visibility:visible;opacity:0.25;isolation:auto;mix-blend-mode:normal;color-interpolation:sRGB;color-interpolation-filters:linearRGB;solid-color:#000000;solid-opacity:1;fill:#000000;fill-opacity:1;fill-rule:nonzero;stroke:none;stroke-width:1;stroke-linecap:butt;stroke-linejoin:miter;stroke-miterlimit:4;stroke-dasharray:none;stroke-dashoffset:0;stroke-opacity:1;marker:none;color-rendering:auto;image-rendering:auto;shape-rendering:auto;text-rendering:auto;enable-background:accumulate"
     d="M 20.2,18 C 20.0892,18 20,18.1115 20,18.25 v 1.5 c 0,0.1385 0.0892,0.25 0.2,0.25 h 1.6 c 0.1108,0 0.2,-0.1115 0.2,-0.25 v -1.5 C 22,18.1115 21.9108,18 21.8,18 Z"
     id="path4372"
     inkscape:connector-curvature="0" />
  <path
     id="path4378"
     d="M 26.2,18 C 26.0892,18 26,18.1115 26,18.25 v 1.5 c 0,0.1385 0.0892,0.25 0.2,0.25 h 1.6 c 0.1108,0 0.2,-0.1115 0.2,-0.25 v -1.5 C 28,18.1115 27.9108,18 27.8,18 Z"
     style="color:#000000;clip-rule:nonzero;display:inline;overflow:visible;visibility:visible;opacity:0.25;isolation:auto;mix-blend-mode:normal;color-interpolation:sRGB;color-interpolation-filters:linearRGB;solid-color:#000000;solid-opacity:1;fill:#000000;fill-opacity:1;fill-rule:nonzero;stroke:none;stroke-width:1;stroke-linecap:butt;stroke-linejoin:miter;stroke-miterlimit:4;stroke-dasharray:none;stroke-dashoffset:0;stroke-opacity:1;marker:none;color-rendering:auto;image-rendering:auto;shape-rendering:auto;text-rendering:auto;enable-background:accumulate"
     inkscape:connector-curvature="0" />
  <path
     id="path4384"
     d="M 4.3,18 C 4.1338,18 4,18.1115 4,18.25 v 1.5 C 4,19.8885 4.1338,20 4.3,20 H 6.7 C 6.8662,20 7,19.8885 7,19.75 v -1.5 C 7,18.1115 6.8662,18 6.7,18 Z"
     style="color:#000000;clip-rule:nonzero;display:inline;overflow:visible;visibility:visible;opacity:0.25;isolation:auto;mix-blend-mode:normal;color-interpolation:sRGB;color-interpolation-filters:linearRGB;solid-color:#000000;solid-opacity:1;fill:#000000;fill-opacity:1;fill-rule:nonzero;stroke:none;stroke-width:1;stroke-linecap:butt;stroke-linejoin:miter;stroke-miterlimit:4;stroke-dasharray:none;stroke-dashoffset:0;stroke-opacity:1;marker:none;color-rendering:auto;image-rendering:auto;shape-rendering:auto;text-rendering:auto;enable-background:accumulate"
     inkscape:connector-curvature="0" />
  <path
     id="path4390"
     d="M 11.2,18 C 11.0892,18 11,18.1115 11,18.25 v 1.5 c 0,0.1385 0.0892,0.25 0.2,0.25 h 1.6 c 0.1108,0 0.2,-0.1115 0.2,-0.25 v -1.5 C 13,18.1115 12.9108,18 12.8,18 Z"
     style="color:#000000;clip-rule:nonzero;display:inline;overflow:visible;visibility:visible;opacity:0.25;isolation:auto;mix-blend-mode:normal;color-interpolation:sRGB;color-interpolation-filters:linearRGB;solid-color:#000000;solid-opacity:1;fill:#000000;fill-opacity:1;fill-rule:nonzero;stroke:none;stroke-width:1;stroke-linecap:butt;stroke-linejoin:miter;stroke-miterlimit:4;stroke-dasharray:none;stroke-dashoffset:0;stroke-opacity:1;marker:none;color-rendering:auto;image-rendering:auto;shape-rendering:auto;text-rendering:auto;enable-background:accumulate"
     inkscape:connector-curvature="0" />
  <path
     style="color:#000000;clip-rule:nonzero;display:inline;overflow:visible;visibility:visible;opacity:0.25;isolation:auto;mix-blend-mode:normal;color-interpolation:sRGB;color-interpolation-filters:linearRGB;solid-color:#000000;solid-opacity:1;fill:#000000;fill-opacity:1;fill-rule:nonzero;stroke:none;stroke-width:1;stroke-linecap:butt;stroke-linejoin:miter;stroke-miterlimit:4;stroke-dasharray:none;stroke-dashoffset:0;stroke-opacity:1;marker:none;color-rendering:auto;image-rendering:auto;shape-rendering:auto;text-rendering:auto;enable-background:accumulate"
     d="M 17.2,18 C 17.0892,18 17,18.1115 17,18.25 v 1.5 c 0,0.1385 0.0892,0.25 0.2,0.25 h 1.6 c 0.1108,0 0.2,-0.1115 0.2,-0.25 v -1.5 C 19,18.1115 18.9108,18 18.8,18 Z"
     id="path4396"
     inkscape:connector-curvature="0" />
  <path
     id="path4402"
     d="M 23.2,18 C 23.0892,18 23,18.1115 23,18.25 v 1.5 c 0,0.1385 0.0892,0.25 0.2,0.25 h 1.6 c 0.1108,0 0.2,-0.1115 0.2,-0.25 v -1.5 C 25,18.1115 24.9108,18 24.8,18 Z"
     style="color:#000000;clip-rule:nonzero;display:inline;overflow:visible;visibility:visible;opacity:0.25;isolation:auto;mix-blend-mode:normal;color-interpolation:sRGB;color-interpolation-filters:linearRGB;solid-color:#000000;solid-opacity:1;fill:#000000;fill-opacity:1;fill-rule:nonzero;stroke:none;stroke-width:1;stroke-linecap:butt;stroke-linejoin:miter;stroke-miterlimit:4;stroke-dasharray:none;stroke-dashoffset:0;stroke-opacity:1;marker:none;color-rendering:auto;image-rendering:auto;shape-rendering:auto;text-rendering:auto;enable-background:accumulate"
     inkscape:connector-curvature="0" />
  <path
     id="path4408"
     d="M 8.2,15 C 8.0892,15 8,15.1115 8,15.25 v 1.5 C 8,16.8885 8.0892,17 8.2,17 H 9.8 C 9.9108,17 10,16.8885 10,16.75 v -1.5 C 10,15.1115 9.9108,15 9.8,15 Z"
     style="color:#000000;clip-rule:nonzero;display:inline;overflow:visible;visibility:visible;opacity:0.25;isolation:auto;mix-blend-mode:normal;color-interpolation:sRGB;color-interpolation-filters:linearRGB;solid-color:#000000;solid-opacity:1;fill:#000000;fill-opacity:1;fill-rule:nonzero;stroke:none;stroke-width:1;stroke-linecap:butt;stroke-linejoin:miter;stroke-miterlimit:4;stroke-dasharray:none;stroke-dashoffset:0;stroke-opacity:1;marker:none;color-rendering:auto;image-rendering:auto;shape-rendering:auto;text-rendering:auto;enable-background:accumulate"
     inkscape:connector-curvature="0" />
  <path
     style="color:#000000;clip-rule:nonzero;display:inline;overflow:visible;visibility:visible;opacity:0.25;isolation:auto;mix-blend-mode:normal;color-interpolation:sRGB;color-interpolation-filters:linearRGB;solid-color:#000000;solid-opacity:1;fill:#000000;fill-opacity:1;fill-rule:nonzero;stroke:none;stroke-width:1;stroke-linecap:butt;stroke-linejoin:miter;stroke-miterlimit:4;stroke-dasharray:none;stroke-dashoffset:0;stroke-opacity:1;marker:none;color-rendering:auto;image-rendering:auto;shape-rendering:auto;text-rendering:auto;enable-background:accumulate"
     d="M 14.2,15 C 14.0892,15 14,15.1115 14,15.25 v 1.5 c 0,0.1385 0.0892,0.25 0.2,0.25 h 1.6 c 0.1108,0 0.2,-0.1115 0.2,-0.25 v -1.5 C 16,15.1115 15.9108,15 15.8,15 Z"
     id="path4412"
     inkscape:connector-curvature="0" />
  <path
     id="path4416"
     d="M 20.2,15 C 20.0892,15 20,15.1115 20,15.25 v 1.5 c 0,0.1385 0.0892,0.25 0.2,0.25 h 1.6 c 0.1108,0 0.2,-0.1115 0.2,-0.25 v -1.5 C 22,15.1115 21.9108,15 21.8,15 Z"
     style="color:#000000;clip-rule:nonzero;display:inline;overflow:visible;visibility:visible;opacity:0.25;isolation:auto;mix-blend-mode:normal;color-interpolation:sRGB;color-interpolation-filters:linearRGB;solid-color:#000000;solid-opacity:1;fill:#000000;fill-opacity:1;fill-rule:nonzero;stroke:none;stroke-width:1;stroke-linecap:butt;stroke-linejoin:miter;stroke-miterlimit:4;stroke-dasharray:none;stroke-dashoffset:0;stroke-opacity:1;marker:none;color-rendering:auto;image-rendering:auto;shape-rendering:auto;text-rendering:auto;enable-background:accumulate"
     inkscape:connector-curvature="0" />
  <path
     style="color:#000000;clip-rule:nonzero;display:inline;overflow:visible;visibility:visible;opacity:0.25;isolation:auto;mix-blend-mode:normal;color-interpolation:sRGB;color-interpolation-filters:linearRGB;solid-color:#000000;solid-opacity:1;fill:#000000;fill-opacity:1;fill-rule:nonzero;stroke:none;stroke-width:1;stroke-linecap:butt;stroke-linejoin:miter;stroke-miterlimit:4;stroke-dasharray:none;stroke-dashoffset:0;stroke-opacity:1;marker:none;color-rendering:auto;image-rendering:auto;shape-rendering:auto;text-rendering:auto;enable-background:accumulate"
     d="M 26.2,15 C 26.0892,15 26,15.1115 26,15.25 v 1.5 c 0,0.1385 0.0892,0.25 0.2,0.25 h 1.6 c 0.1108,0 0.2,-0.1115 0.2,-0.25 v -1.5 C 28,15.1115 27.9108,15 27.8,15 Z"
     id="path4420"
     inkscape:connector-curvature="0" />
  <path
     style="color:#000000;clip-rule:nonzero;display:inline;overflow:visible;visibility:visible;opacity:0.25;isolation:auto;mix-blend-mode:normal;color-interpolation:sRGB;color-interpolation-filters:linearRGB;solid-color:#000000;solid-opacity:1;fill:#000000;fill-opacity:1;fill-rule:nonzero;stroke:none;stroke-width:1;stroke-linecap:butt;stroke-linejoin:miter;stroke-miterlimit:4;stroke-dasharray:none;stroke-dashoffset:0;stroke-opacity:1;marker:none;color-rendering:auto;image-rendering:auto;shape-rendering:auto;text-rendering:auto;enable-background:accumulate"
     d="M 4.3,15 C 4.1338,15 4,15.1115 4,15.25 v 1.5 C 4,16.8885 4.1338,17 4.3,17 H 6.7 C 6.8662,17 7,16.8885 7,16.75 v -1.5 C 7,15.1115 6.8662,15 6.7,15 Z"
     id="path4424"
     inkscape:connector-curvature="0" />
  <path
     style="color:#000000;clip-rule:nonzero;display:inline;overflow:visible;visibility:visible;opacity:0.25;isolation:auto;mix-blend-mode:normal;color-interpolation:sRGB;color-interpolation-filters:linearRGB;solid-color:#000000;solid-opacity:1;fill:#000000;fill-opacity:1;fill-rule:nonzero;stroke:none;stroke-width:1;stroke-linecap:butt;stroke-linejoin:miter;stroke-miterlimit:4;stroke-dasharray:none;stroke-dashoffset:0;stroke-opacity:1;marker:none;color-rendering:auto;image-rendering:auto;shape-rendering:auto;text-rendering:auto;enable-background:accumulate"
     d="M 11.2,15 C 11.0892,15 11,15.1115 11,15.25 v 1.5 c 0,0.1385 0.0892,0.25 0.2,0.25 h 1.6 c 0.1108,0 0.2,-0.1115 0.2,-0.25 v -1.5 C 13,15.1115 12.9108,15 12.8,15 Z"
     id="path4428"
     inkscape:connector-curvature="0" />
  <path
     id="path4432"
     d="M 17.2,15 C 17.0892,15 17,15.1115 17,15.25 v 1.5 c 0,0.1385 0.0892,0.25 0.2,0.25 h 1.6 c 0.1108,0 0.2,-0.1115 0.2,-0.25 v -1.5 C 19,15.1115 18.9108,15 18.8,15 Z"
     style="color:#000000;clip-rule:nonzero;display:inline;overflow:visible;visibility:visible;opacity:0.25;isolation:auto;mix-blend-mode:normal;color-interpolation:sRGB;color-interpolation-filters:linearRGB;solid-color:#000000;solid-opacity:1;fill:#000000;fill-opacity:1;fill-rule:nonzero;stroke:none;stroke-width:1;stroke-linecap:butt;stroke-linejoin:miter;stroke-miterlimit:4;stroke-dasharray:none;stroke-dashoffset:0;stroke-opacity:1;marker:none;color-rendering:auto;image-rendering:auto;shape-rendering:auto;text-rendering:auto;enable-background:accumulate"
     inkscape:connector-curvature="0" />
  <path
     style="color:#000000;clip-rule:nonzero;display:inline;overflow:visible;visibility:visible;opacity:0.25;isolation:auto;mix-blend-mode:normal;color-interpolation:sRGB;color-interpolation-filters:linearRGB;solid-color:#000000;solid-opacity:1;fill:#000000;fill-opacity:1;fill-rule:nonzero;stroke:none;stroke-width:1;stroke-linecap:butt;stroke-linejoin:miter;stroke-miterlimit:4;stroke-dasharray:none;stroke-dashoffset:0;stroke-opacity:1;marker:none;color-rendering:auto;image-rendering:auto;shape-rendering:auto;text-rendering:auto;enable-background:accumulate"
     d="M 23.2,15 C 23.0892,15 23,15.1115 23,15.25 v 1.5 c 0,0.1385 0.0892,0.25 0.2,0.25 h 1.6 c 0.1108,0 0.2,-0.1115 0.2,-0.25 v -1.5 C 25,15.1115 24.9108,15 24.8,15 Z"
     id="path4436"
     inkscape:connector-curvature="0" />
  <path
     id="path4456"
     d="M 25.3,9 C 25.1338,9 25,9.1115 25,9.25 v 1.5 c 0,0.1385 0.1338,0.25 0.3,0.25 h 2.4 C 27.8662,11 28,10.8885 28,10.75 V 9.25 C 28,9.1115 27.8662,9 27.7,9 Z"
     style="color:#000000;clip-rule:nonzero;display:inline;overflow:visible;visibility:visible;opacity:0.25;isolation:auto;mix-blend-mode:normal;color-interpolation:sRGB;color-interpolation-filters:linearRGB;solid-color:#000000;solid-opacity:1;fill:#000000;fill-opacity:1;fill-rule:nonzero;stroke:none;stroke-width:1;stroke-linecap:butt;stroke-linejoin:miter;stroke-miterlimit:4;stroke-dasharray:none;stroke-dashoffset:0;stroke-opacity:1;marker:none;color-rendering:auto;image-rendering:auto;shape-rendering:auto;text-rendering:auto;enable-background:accumulate"
     inkscape:connector-curvature="0" />
  <path
     id="path4462"
     d="M 10.2,9 C 10.0892,9 10,9.1115 10,9.25 v 1.5 c 0,0.1385 0.0892,0.25 0.2,0.25 h 1.6 C 11.9108,11 12,10.8885 12,10.75 V 9.25 C 12,9.1115 11.9108,9 11.8,9 Z"
     style="color:#000000;clip-rule:nonzero;display:inline;overflow:visible;visibility:visible;opacity:0.25;isolation:auto;mix-blend-mode:normal;color-interpolation:sRGB;color-interpolation-filters:linearRGB;solid-color:#000000;solid-opacity:1;fill:#000000;fill-opacity:1;fill-rule:nonzero;stroke:none;stroke-width:1;stroke-linecap:butt;stroke-linejoin:miter;stroke-miterlimit:4;stroke-dasharray:none;stroke-dashoffset:0;stroke-opacity:1;marker:none;color-rendering:auto;image-rendering:auto;shape-rendering:auto;text-rendering:auto;enable-background:accumulate"
     inkscape:connector-curvature="0" />
  <path
     style="color:#000000;clip-rule:nonzero;display:inline;overflow:visible;visibility:visible;opacity:0.25;isolation:auto;mix-blend-mode:normal;color-interpolation:sRGB;color-interpolation-filters:linearRGB;solid-color:#000000;solid-opacity:1;fill:#000000;fill-opacity:1;fill-rule:nonzero;stroke:none;stroke-width:1;stroke-linecap:butt;stroke-linejoin:miter;stroke-miterlimit:4;stroke-dasharray:none;stroke-dashoffset:0;stroke-opacity:1;marker:none;color-rendering:auto;image-rendering:auto;shape-rendering:auto;text-rendering:auto;enable-background:accumulate"
     d="M 16.2,9 C 16.0892,9 16,9.1115 16,9.25 v 1.5 c 0,0.1385 0.0892,0.25 0.2,0.25 h 1.6 C 17.9108,11 18,10.8885 18,10.75 V 9.25 C 18,9.1115 17.9108,9 17.8,9 Z"
     id="path4466"
     inkscape:connector-curvature="0" />
  <path
     id="path4470"
     d="M 22.2,9 C 22.0892,9 22,9.1115 22,9.25 v 1.5 c 0,0.1385 0.0892,0.25 0.2,0.25 h 1.6 C 23.9108,11 24,10.8885 24,10.75 V 9.25 C 24,9.1115 23.9108,9 23.8,9 Z"
     style="color:#000000;clip-rule:nonzero;display:inline;overflow:visible;visibility:visible;opacity:0.25;isolation:auto;mix-blend-mode:normal;color-interpolation:sRGB;color-interpolation-filters:linearRGB;solid-color:#000000;solid-opacity:1;fill:#000000;fill-opacity:1;fill-rule:nonzero;stroke:none;stroke-width:1;stroke-linecap:butt;stroke-linejoin:miter;stroke-miterlimit:4;stroke-dasharray:none;stroke-dashoffset:0;stroke-opacity:1;marker:none;color-rendering:auto;image-rendering:auto;shape-rendering:auto;text-rendering:auto;enable-background:accumulate"
     inkscape:connector-curvature="0" />
  <path
     id="path4474"
     d="M 7.2,9 C 7.0892,9 7,9.1115 7,9.25 v 1.5 C 7,10.8885 7.0892,11 7.2,11 H 8.8 C 8.9108,11 9,10.8885 9,10.75 V 9.25 C 9,9.1115 8.9108,9 8.8,9 Z"
     style="color:#000000;clip-rule:nonzero;display:inline;overflow:visible;visibility:visible;opacity:0.25;isolation:auto;mix-blend-mode:normal;color-interpolation:sRGB;color-interpolation-filters:linearRGB;solid-color:#000000;solid-opacity:1;fill:#000000;fill-opacity:1;fill-rule:nonzero;stroke:none;stroke-width:1;stroke-linecap:butt;stroke-linejoin:miter;stroke-miterlimit:4;stroke-dasharray:none;stroke-dashoffset:0;stroke-opacity:1;marker:none;color-rendering:auto;image-rendering:auto;shape-rendering:auto;text-rendering:auto;enable-background:accumulate"
     inkscape:connector-curvature="0" />
  <path
     style="color:#000000;clip-rule:nonzero;display:inline;overflow:visible;visibility:visible;opacity:0.25;isolation:auto;mix-blend-mode:normal;color-interpolation:sRGB;color-interpolation-filters:linearRGB;solid-color:#000000;solid-opacity:1;fill:#000000;fill-opacity:1;fill-rule:nonzero;stroke:none;stroke-width:1;stroke-linecap:butt;stroke-linejoin:miter;stroke-miterlimit:4;stroke-dasharray:none;stroke-dashoffset:0;stroke-opacity:1;marker:none;color-rendering:auto;image-rendering:auto;shape-rendering:auto;text-rendering:auto;enable-background:accumulate"
     d="M 13.2,9 C 13.0892,9 13,9.1115 13,9.25 v 1.5 c 0,0.1385 0.0892,0.25 0.2,0.25 h 1.6 C 14.9108,11 15,10.8885 15,10.75 V 9.25 C 15,9.1115 14.9108,9 14.8,9 Z"
     id="path4478"
     inkscape:connector-curvature="0" />
  <path
     id="path4482"
     d="M 19.2,9 C 19.0892,9 19,9.1115 19,9.25 v 1.5 c 0,0.1385 0.0892,0.25 0.2,0.25 h 1.6 C 20.9108,11 21,10.8885 21,10.75 V 9.25 C 21,9.1115 20.9108,9 20.8,9 Z"
     style="color:#000000;clip-rule:nonzero;display:inline;overflow:visible;visibility:visible;opacity:0.25;isolation:auto;mix-blend-mode:normal;color-interpolation:sRGB;color-interpolation-filters:linearRGB;solid-color:#000000;solid-opacity:1;fill:#000000;fill-opacity:1;fill-rule:nonzero;stroke:none;stroke-width:1;stroke-linecap:butt;stroke-linejoin:miter;stroke-miterlimit:4;stroke-dasharray:none;stroke-dashoffset:0;stroke-opacity:1;marker:none;color-rendering:auto;image-rendering:auto;shape-rendering:auto;text-rendering:auto;enable-background:accumulate"
     inkscape:connector-curvature="0" />
  <path
     style="color:#000000;clip-rule:nonzero;display:inline;overflow:visible;visibility:visible;opacity:0.25;isolation:auto;mix-blend-mode:normal;color-interpolation:sRGB;color-interpolation-filters:linearRGB;solid-color:#000000;solid-opacity:1;fill:#000000;fill-opacity:1;fill-rule:nonzero;stroke:none;stroke-width:1;stroke-linecap:butt;stroke-linejoin:miter;stroke-miterlimit:4;stroke-dasharray:none;stroke-dashoffset:0;stroke-opacity:1;marker:none;color-rendering:auto;image-rendering:auto;shape-rendering:auto;text-rendering:auto;enable-background:accumulate"
     d="M 4.2,9 C 4.0892,9 4,9.1115 4,9.25 v 1.5 C 4,10.8885 4.0892,11 4.2,11 H 5.8 C 5.9108,11 6,10.8885 6,10.75 V 9.25 C 6,9.1115 5.9108,9 5.8,9 Z"
     id="path4498"
     inkscape:connector-curvature="0" />
  <path
     style="color:#000000;clip-rule:nonzero;display:inline;overflow:visible;visibility:visible;opacity:0.25;isolation:auto;mix-blend-mode:normal;color-interpolation:sRGB;color-interpolation-filters:linearRGB;solid-color:#000000;solid-opacity:1;fill:#000000;fill-opacity:1;fill-rule:nonzero;stroke:none;stroke-width:1;stroke-linecap:butt;stroke-linejoin:miter;stroke-miterlimit:4;stroke-dasharray:none;stroke-dashoffset:0;stroke-opacity:1;marker:none;color-rendering:auto;image-rendering:auto;shape-rendering:auto;text-rendering:auto;enable-background:accumulate"
     d="M 4.2,12 C 4.0892,12 4,12.1115 4,12.25 v 1.5 C 4,13.8885 4.0892,14 4.2,14 H 5.8 C 5.9108,14 6,13.8885 6,13.75 v -1.5 C 6,12.1115 5.9108,12 5.8,12 Z"
     id="path4531"
     inkscape:connector-curvature="0" />
  <path
     id="path4535"
     d="M 10.2,12 C 10.0892,12 10,12.1115 10,12.25 v 1.5 c 0,0.1385 0.0892,0.25 0.2,0.25 h 1.6 c 0.1108,0 0.2,-0.1115 0.2,-0.25 v -1.5 C 12,12.1115 11.9108,12 11.8,12 Z"
     style="color:#000000;clip-rule:nonzero;display:inline;overflow:visible;visibility:visible;opacity:0.25;isolation:auto;mix-blend-mode:normal;color-interpolation:sRGB;color-interpolation-filters:linearRGB;solid-color:#000000;solid-opacity:1;fill:#000000;fill-opacity:1;fill-rule:nonzero;stroke:none;stroke-width:1;stroke-linecap:butt;stroke-linejoin:miter;stroke-miterlimit:4;stroke-dasharray:none;stroke-dashoffset:0;stroke-opacity:1;marker:none;color-rendering:auto;image-rendering:auto;shape-rendering:auto;text-rendering:auto;enable-background:accumulate"
     inkscape:connector-curvature="0" />
  <path
     style="color:#000000;clip-rule:nonzero;display:inline;overflow:visible;visibility:visible;opacity:0.25;isolation:auto;mix-blend-mode:normal;color-interpolation:sRGB;color-interpolation-filters:linearRGB;solid-color:#000000;solid-opacity:1;fill:#000000;fill-opacity:1;fill-rule:nonzero;stroke:none;stroke-width:1;stroke-linecap:butt;stroke-linejoin:miter;stroke-miterlimit:4;stroke-dasharray:none;stroke-dashoffset:0;stroke-opacity:1;marker:none;color-rendering:auto;image-rendering:auto;shape-rendering:auto;text-rendering:auto;enable-background:accumulate"
     d="M 16.2,12 C 16.0892,12 16,12.1115 16,12.25 v 1.5 c 0,0.1385 0.0892,0.25 0.2,0.25 h 1.6 c 0.1108,0 0.2,-0.1115 0.2,-0.25 v -1.5 C 18,12.1115 17.9108,12 17.8,12 Z"
     id="path4539"
     inkscape:connector-curvature="0" />
  <path
     id="path4543"
     d="M 22.2,12 C 22.0892,12 22,12.1115 22,12.25 v 1.5 c 0,0.1385 0.0892,0.25 0.2,0.25 h 1.6 c 0.1108,0 0.2,-0.1115 0.2,-0.25 v -1.5 C 24,12.1115 23.9108,12 23.8,12 Z"
     style="color:#000000;clip-rule:nonzero;display:inline;overflow:visible;visibility:visible;opacity:0.25;isolation:auto;mix-blend-mode:normal;color-interpolation:sRGB;color-interpolation-filters:linearRGB;solid-color:#000000;solid-opacity:1;fill:#000000;fill-opacity:1;fill-rule:nonzero;stroke:none;stroke-width:1;stroke-linecap:butt;stroke-linejoin:miter;stroke-miterlimit:4;stroke-dasharray:none;stroke-dashoffset:0;stroke-opacity:1;marker:none;color-rendering:auto;image-rendering:auto;shape-rendering:auto;text-rendering:auto;enable-background:accumulate"
     inkscape:connector-curvature="0" />
  <path
     id="path4547"
     d="M 7.2,12 C 7.0892,12 7,12.1115 7,12.25 v 1.5 C 7,13.8885 7.0892,14 7.2,14 H 8.8 C 8.9108,14 9,13.8885 9,13.75 v -1.5 C 9,12.1115 8.9108,12 8.8,12 Z"
     style="color:#000000;clip-rule:nonzero;display:inline;overflow:visible;visibility:visible;opacity:0.25;isolation:auto;mix-blend-mode:normal;color-interpolation:sRGB;color-interpolation-filters:linearRGB;solid-color:#000000;solid-opacity:1;fill:#000000;fill-opacity:1;fill-rule:nonzero;stroke:none;stroke-width:1;stroke-linecap:butt;stroke-linejoin:miter;stroke-miterlimit:4;stroke-dasharray:none;stroke-dashoffset:0;stroke-opacity:1;marker:none;color-rendering:auto;image-rendering:auto;shape-rendering:auto;text-rendering:auto;enable-background:accumulate"
     inkscape:connector-curvature="0" />
  <path
     style="color:#000000;clip-rule:nonzero;display:inline;overflow:visible;visibility:visible;opacity:0.25;isolation:auto;mix-blend-mode:normal;color-interpolation:sRGB;color-interpolation-filters:linearRGB;solid-color:#000000;solid-opacity:1;fill:#000000;fill-opacity:1;fill-rule:nonzero;stroke:none;stroke-width:1;stroke-linecap:butt;stroke-linejoin:miter;stroke-miterlimit:4;stroke-dasharray:none;stroke-dashoffset:0;stroke-opacity:1;marker:none;color-rendering:auto;image-rendering:auto;shape-rendering:auto;text-rendering:auto;enable-background:accumulate"
     d="M 13.2,12 C 13.0892,12 13,12.1115 13,12.25 v 1.5 c 0,0.1385 0.0892,0.25 0.2,0.25 h 1.6 c 0.1108,0 0.2,-0.1115 0.2,-0.25 v -1.5 C 15,12.1115 14.9108,12 14.8,12 Z"
     id="path4551"
     inkscape:connector-curvature="0" />
  <path
     id="path4555"
     d="M 19.2,12 C 19.0892,12 19,12.1115 19,12.25 v 1.5 c 0,0.1385 0.0892,0.25 0.2,0.25 h 1.6 c 0.1108,0 0.2,-0.1115 0.2,-0.25 v -1.5 C 21,12.1115 20.9108,12 20.8,12 Z"
     style="color:#000000;clip-rule:nonzero;display:inline;overflow:visible;visibility:visible;opacity:0.25;isolation:auto;mix-blend-mode:normal;color-interpolation:sRGB;color-interpolation-filters:linearRGB;solid-color:#000000;solid-opacity:1;fill:#000000;fill-opacity:1;fill-rule:nonzero;stroke:none;stroke-width:1;stroke-linecap:butt;stroke-linejoin:miter;stroke-miterlimit:4;stroke-dasharray:none;stroke-dashoffset:0;stroke-opacity:1;marker:none;color-rendering:auto;image-rendering:auto;shape-rendering:auto;text-rendering:auto;enable-background:accumulate"
     inkscape:connector-curvature="0" />
  <path
     id="path4573"
     d="M 25.3,12 C 25.1338,12 25,12.1115 25,12.25 v 1.5 c 0,0.1385 0.1338,0.25 0.3,0.25 h 2.4 c 0.1662,0 0.3,-0.1115 0.3,-0.25 v -1.5 C 28,12.1115 27.8662,12 27.7,12 Z"
     style="color:#000000;clip-rule:nonzero;display:inline;overflow:visible;visibility:visible;opacity:0.25;isolation:auto;mix-blend-mode:normal;color-interpolation:sRGB;color-interpolation-filters:linearRGB;solid-color:#000000;solid-opacity:1;fill:#000000;fill-opacity:1;fill-rule:nonzero;stroke:none;stroke-width:1;stroke-linecap:butt;stroke-linejoin:miter;stroke-miterlimit:4;stroke-dasharray:none;stroke-dashoffset:0;stroke-opacity:1;marker:none;color-rendering:auto;image-rendering:auto;shape-rendering:auto;text-rendering:auto;enable-background:accumulate"
     inkscape:connector-curvature="0" />
</svg>
