<?xml version="1.0" encoding="UTF-8" standalone="no"?>
<svg
   xmlns:dc="http://purl.org/dc/elements/1.1/"
   xmlns:cc="http://creativecommons.org/ns#"
   xmlns:rdf="http://www.w3.org/1999/02/22-rdf-syntax-ns#"
   xmlns:svg="http://www.w3.org/2000/svg"
   xmlns="http://www.w3.org/2000/svg"
   xmlns:sodipodi="http://sodipodi.sourceforge.net/DTD/sodipodi-0.dtd"
   xmlns:inkscape="http://www.inkscape.org/namespaces/inkscape"
   version="1.1"
   width="32"
   height="32"
   id="svg3670"
   sodipodi:docname="input-mouse.svg"
   inkscape:version="0.92.4 (5da689c313, 2019-01-14)">
  <sodipodi:namedview
     pagecolor="#ffffff"
     bordercolor="#666666"
     borderopacity="1"
     objecttolerance="10"
     gridtolerance="10"
     guidetolerance="10"
     inkscape:pageopacity="0"
     inkscape:pageshadow="2"
     inkscape:window-width="1366"
     inkscape:window-height="697"
     id="namedview28"
     showgrid="false"
     inkscape:zoom="1.84375"
     inkscape:cx="-2.0397132"
     inkscape:cy="35.209658"
     inkscape:window-x="0"
     inkscape:window-y="0"
     inkscape:window-maximized="1"
     inkscape:current-layer="svg3670" />
  <defs
     id="defs3672" />
  <metadata
     id="metadata3675">
    <rdf:RDF>
      <cc:Work
         rdf:about="">
        <dc:format>image/svg+xml</dc:format>
        <dc:type
           rdf:resource="http://purl.org/dc/dcmitype/StillImage" />
        <dc:title />
      </cc:Work>
    </rdf:RDF>
  </metadata>
  <g
     id="g842"
     transform="translate(130.04245,40.552569)">
    <path
       sodipodi:nodetypes="sssssssssss"
       inkscape:connector-curvature="0"
       id="path4161-8-1-9"
       d="m -114.04247,-37.052563 c -2.07737,0 -3.56315,0.464861 -4.63637,1.213044 -1.07322,0.748182 -1.7445,1.785391 -2.16961,2.975643 -0.85023,2.380505 -0.68013,5.35652 -0.68013,7.576019 0,4.140235 0.48191,7.473165 1.74811,9.744561 1.2662,2.271397 3.28287,3.490733 5.738,3.490733 2.45512,0 4.47179,-1.219336 5.738,-3.490733 1.2662,-2.271396 1.74811,-5.604327 1.74811,-9.744561 0,-2.219499 0.17009,-5.195514 -0.68013,-7.576019 -0.42511,-1.190252 -1.09639,-2.227461 -2.16961,-2.975643 -1.07322,-0.748183 -2.55901,-1.213044 -4.63637,-1.213044 z"
       style="opacity:1;fill:#fafafa;fill-opacity:1;stroke:none;stroke-width:1;stroke-linecap:butt;stroke-linejoin:miter;stroke-miterlimit:4;stroke-dasharray:none;stroke-dashoffset:0;stroke-opacity:0.30196078" />
    <path
       sodipodi:nodetypes="sssss"
       inkscape:connector-curvature="0"
       id="path4161-6-5"
       d="m -106.0618,-25.302569 c 0,8.499997 -2.74336,13.749995 -7.98065,13.749995 -5.23731,0 -7.98064,-5.249998 -7.98064,-13.749995 0,-4.499999 -0.74819,-12.249996 7.98064,-12.249996 8.72883,0 7.98065,7.749997 7.98065,12.249996 z"
       style="opacity:1;fill:none;fill-opacity:1;stroke:#2c3854;stroke-width:0.99999982;stroke-linecap:butt;stroke-linejoin:miter;stroke-miterlimit:4;stroke-dasharray:none;stroke-dashoffset:0;stroke-opacity:0.21568627" />
    <rect
       ry="0"
       rx="0"
       y="-37.052563"
       x="-114.54247"
       height="8"
       width="1"
       id="rect4226-2-2"
       style="opacity:1;fill:#2c3854;fill-opacity:0.12156863;stroke:none;stroke-width:1;stroke-linecap:butt;stroke-linejoin:miter;stroke-miterlimit:4;stroke-dasharray:none;stroke-dashoffset:0;stroke-opacity:1" />
    <rect
       rx="1.9999999"
       ry="1.5"
       y="-32.052563"
       x="-115.54247"
       height="6"
       width="3"
       id="rect4310-5-5"
       style="opacity:1;fill:#8e949f;fill-opacity:1;stroke:none;stroke-width:1;stroke-linecap:butt;stroke-linejoin:miter;stroke-miterlimit:4;stroke-dasharray:none;stroke-dashoffset:0;stroke-opacity:0.30196078" />
  </g>
</svg>
