<?xml version="1.0" encoding="UTF-8" standalone="no"?>
<svg
   xmlns:dc="http://purl.org/dc/elements/1.1/"
   xmlns:cc="http://creativecommons.org/ns#"
   xmlns:rdf="http://www.w3.org/1999/02/22-rdf-syntax-ns#"
   xmlns:svg="http://www.w3.org/2000/svg"
   xmlns="http://www.w3.org/2000/svg"
   xmlns:xlink="http://www.w3.org/1999/xlink"
   xmlns:sodipodi="http://sodipodi.sourceforge.net/DTD/sodipodi-0.dtd"
   xmlns:inkscape="http://www.inkscape.org/namespaces/inkscape"
   id="svg4117"
   height="32"
   width="32"
   version="1.1"
   sodipodi:docname="input-gaming.svg"
   inkscape:version="0.92.4 (5da689c313, 2019-01-14)">
  <sodipodi:namedview
     pagecolor="#ffffff"
     bordercolor="#666666"
     borderopacity="1"
     objecttolerance="10"
     gridtolerance="10"
     guidetolerance="10"
     inkscape:pageopacity="0"
     inkscape:pageshadow="2"
     inkscape:window-width="1366"
     inkscape:window-height="697"
     id="namedview93"
     showgrid="false"
     inkscape:zoom="7.375"
     inkscape:cx="-0.94915254"
     inkscape:cy="16"
     inkscape:window-x="0"
     inkscape:window-y="0"
     inkscape:window-maximized="1"
     inkscape:current-layer="svg4117" />
  <defs
     id="defs4119">
    <filter
       style="color-interpolation-filters:sRGB"
       id="filter3831">
      <feGaussianBlur
         id="feGaussianBlur3833"
         stdDeviation="0.6375" />
    </filter>
    <clipPath
       id="clipPath3823">
      <path
         style="fill:#ffffff;fill-opacity:1;stroke:none"
         id="path3825"
         d="M 108.8125,58 C 107.25437,58 106,59.254375 106,60.8125 l 0,24.375 C 106,86.745625 107.25437,88 108.8125,88 l 24.375,0 C 134.74562,88 136,86.745625 136,85.1875 l 0,-24.375 C 136,59.254375 134.74562,58 133.1875,58 l -24.375,0 z m 7.1875,4.5 10,0 0,8.75 5,0 -10,13.75 -10,-13.75 5,0 0,-8.75 z" />
    </clipPath>
    <linearGradient
       gradientTransform="matrix(0.625,0,0,0.625,78.5,32.25)"
       gradientUnits="userSpaceOnUse"
       xlink:href="#linearGradient5010"
       id="linearGradient3812"
       y2="50.068527"
       x2="65.262688"
       y1="64.205269"
       x1="65.262688" />
    <filter
       style="color-interpolation-filters:sRGB"
       id="filter3806">
      <feGaussianBlur
         id="feGaussianBlur3808"
         stdDeviation="1.2" />
    </filter>
    <linearGradient
       gradientTransform="translate(0,4)"
       gradientUnits="userSpaceOnUse"
       xlink:href="#linearGradient3737"
       id="linearGradient3788"
       y2="75.095024"
       x2="70"
       y1="54"
       x1="70" />
    <linearGradient
       gradientTransform="matrix(0.9375,0,0,0.9375,-140.5,3.5)"
       gradientUnits="userSpaceOnUse"
       xlink:href="#linearGradient3778"
       id="linearGradient3773"
       y2="72"
       x2="88"
       y1="72"
       x1="56" />
    <linearGradient
       gradientTransform="matrix(0.625,0,0,0.625,28.5,31.25)"
       gradientUnits="userSpaceOnUse"
       xlink:href="#linearGradient3737"
       id="linearGradient3832"
       y2="50.068527"
       x2="65.262688"
       y1="64.205269"
       x1="65.262688" />
    <filter
       style="color-interpolation-filters:sRGB"
       id="filter3174">
      <feGaussianBlur
         id="feGaussianBlur3176"
         stdDeviation="1.71" />
    </filter>
    <linearGradient
       id="linearGradient3737">
      <stop
         offset="0"
         style="stop-color:#ffffff;stop-opacity:1"
         id="stop3739" />
      <stop
         offset="1"
         style="stop-color:#ffffff;stop-opacity:0"
         id="stop3741" />
    </linearGradient>
    <linearGradient
       gradientTransform="scale(1.0058652,0.994169)"
       gradientUnits="userSpaceOnUse"
       id="ButtonShadow"
       y2="7.0165396"
       x2="45.447727"
       y1="92.539597"
       x1="45.447727">
      <stop
         offset="0"
         style="stop-color:#000000;stop-opacity:1"
         id="stop3750" />
      <stop
         offset="1"
         style="stop-color:#000000;stop-opacity:0.58823532"
         id="stop3752" />
    </linearGradient>
    <linearGradient
       id="linearGradient5010">
      <stop
         offset="0"
         style="stop-color:#000000;stop-opacity:1"
         id="stop5012" />
      <stop
         offset="1"
         style="stop-color:#000000;stop-opacity:0"
         id="stop5014" />
    </linearGradient>
    <linearGradient
       id="linearGradient3778">
      <stop
         offset="0"
         style="stop-color:#499119;stop-opacity:1"
         id="stop3780" />
      <stop
         offset="1"
         style="stop-color:#8fd625;stop-opacity:1"
         id="stop3782" />
    </linearGradient>
  </defs>
  <metadata
     id="metadata4122">
    <rdf:RDF>
      <cc:Work
         rdf:about="">
        <dc:format>image/svg+xml</dc:format>
        <dc:type
           rdf:resource="http://purl.org/dc/dcmitype/StillImage" />
        <dc:title />
      </cc:Work>
    </rdf:RDF>
  </metadata>
  <g
     style="display:none"
     id="layer2"
     transform="translate(-135.85714,-47.05041)">
    <path
       style="opacity:0.9;fill:url(#ButtonShadow);fill-opacity:1;fill-rule:nonzero;stroke:none;filter:url(#filter3174)"
       id="rect3745"
       d="M 11,7 48,5 85,7 c 3.324,0 6,2.676 6,6 l 0,73 c 0,3.324 -2.676,6 -6,6 L 11,92 C 7.676,92 5,89.324 5,86 L 5,13 C 5,9.676 7.676,7 11,7 Z" />
  </g>
  <g
     style="display:none"
     id="layer4"
     transform="translate(-135.85714,-47.05041)">
    <rect
       style="opacity:0.6;fill:#000000;fill-opacity:1;stroke:none;filter:url(#filter3806)"
       id="rect3790"
       transform="matrix(0,-1,1,0,0,4)"
       y="56"
       x="-86"
       ry="2.8125"
       rx="2.8125"
       height="30"
       width="30" />
    <rect
       style="fill:url(#linearGradient3773);fill-opacity:1;stroke:none"
       id="rect2993"
       transform="matrix(0,-1,1,0,0,0)"
       y="56"
       x="-88"
       ry="2.8125"
       rx="2.8125"
       height="30"
       width="30" />
    <path
       style="opacity:0.5;fill:url(#linearGradient3788);fill-opacity:1;stroke:none"
       id="rect3775"
       d="M 58.8125,58 C 57.254375,58 56,59.254375 56,60.8125 l 0,24.375 c 0,0.873066 0.410816,1.641163 1.03125,2.15625 C 57.02841,87.289908 57,87.242129 57,87.1875 l 0,-24.375 C 57,61.254375 58.17075,60 59.625,60 l 22.75,0 C 83.82925,60 85,61.254375 85,62.8125 l 0,24.375 c 0,0.05463 -0.02841,0.102408 -0.03125,0.15625 C 85.589184,86.828663 86,86.060566 86,85.1875 l 0,-24.375 C 86,59.254375 84.745625,58 83.1875,58 l -24.375,0 z" />
    <path
       style="display:inline;opacity:0.6;fill:url(#linearGradient3812);fill-opacity:1;fill-rule:nonzero;stroke:none;filter:url(#filter3831)"
       id="path3810"
       clip-path="url(#clipPath3823)"
       transform="translate(-50,0)"
       d="m 116,63.5 0,8.75 -5,0 10,13.75 10,-13.75 -5,0 0,-8.75 -10,0 z" />
    <path
       style="display:inline;fill:url(#linearGradient3832);fill-opacity:1;fill-rule:nonzero;stroke:none"
       id="path4278"
       d="m 66,62.5 0,8.75 -5,0 10,13.75 10,-13.75 -5,0 0,-8.75 -10,0 z" />
  </g>
  <g
     transform="translate(-637.00045,-928)"
     id="input-gaming_32"
     inkscape:label="#g6130">
    <path
       id="rect4268-2-4"
       d="m 647.00115,934.00015 c -1.48624,0 -4.53711,1.5942 -4.50586,2.2442 -0.38511,0.332 -0.73836,0.7443 -0.99414,1.2558 0,0 -3.4779,8.166 -3.5,13.5 0.20412,3.5322 2.13282,3.9765 2.5,4 0.50538,-0.01 0.94272,-0.04 1.5,-0.5 0.28516,-0.2578 2.72143,-2.7214 3.5,-3.5 0.77856,-0.7785 1.00017,-0.9818 2,-1 h 5.5 5.5 c 0.99983,0.018 1.22143,0.2214 2,1 0.77856,0.7786 3.21483,3.2422 3.5,3.5 0.55728,0.46 0.99462,0.49 1.5,0.5 0.36718,-0.024 2.29587,-0.4678 2.5,-4 -0.0221,-5.334 -3.5,-13.5 -3.5,-13.5 -0.25578,-0.5115 -0.61099,-0.9238 -0.99609,-1.2558 0.0312,-0.65 -3.01768,-2.2442 -4.50391,-2.2442 -1.08758,0 -2,1 -2,1 h -4 -4 c 0,0 -0.91244,-1 -2,-1 z"
       style="opacity:1;fill:#464c5c;fill-opacity:1;stroke:#464c5c;stroke-width:0.2;stroke-miterlimit:4;stroke-dasharray:none;stroke-opacity:1"
       inkscape:connector-curvature="0" />
    <rect
       y="928"
       x="637.00031"
       height="32"
       width="32"
       id="rect4138-2-8-2-6"
       style="opacity:1;fill:none;fill-opacity:0.02352941;stroke:none;stroke-width:0.1;stroke-linecap:butt;stroke-linejoin:miter;stroke-miterlimit:4;stroke-dasharray:none;stroke-dashoffset:0;stroke-opacity:0.78431373" />
    <path
       sodipodi:nodetypes="sccccccsscccs"
       inkscape:connector-curvature="0"
       id="rect4268-2"
       d="m 647.00047,934.00223 c -1.48624,0 -4.53614,1.59321 -4.50489,2.24316 v 10e-4 c -0.38511,0.332 -0.73934,0.74429 -0.99512,1.25584 0,0 -3.4779,8.16572 -3.5,13.49977 0.20412,3.53215 2.13282,3.9765 2.5,4 0.50538,-0.008 0.94272,-0.04 1.5,-0.5 0.28516,-0.25783 2.72144,-2.72144 3.50001,-3.5 0.77856,-0.77857 1.00017,-0.98182 2,-1 h 5.5 v -14.99977 h -4 c 0,0 -0.91244,-1 -2,-1 z"
       style="opacity:1;fill:#464c5c;fill-opacity:1;stroke:none;stroke-width:0.2;stroke-miterlimit:4;stroke-dasharray:none;stroke-opacity:1" />
    <path
       sodipodi:nodetypes="cccccccsscccsc"
       inkscape:connector-curvature="0"
       id="rect4268-9-9"
       d="m 659.00047,934.00225 c 1.48623,0 4.53613,1.59321 4.50488,2.24315 v 0 c 0.3851,0.332 0.73934,0.7443 0.99512,1.25586 0,0 3.47789,8.16568 3.5,13.49974 -0.20413,3.53215 -2.13282,3.97649 -2.5,4 -0.50538,-0.008 -0.94272,-0.04 -1.5,-0.5 -0.28517,-0.25786 -2.72144,-2.72146 -3.5,-3.5 -0.77857,-0.7786 -1.00017,-0.98182 -2,-1 h -5.5 v -14.99974 h 4 c 0,0 0.91242,-1 2,-1 z"
       style="opacity:1;fill:#464c5c;fill-opacity:1;stroke:none;stroke-width:0.2;stroke-miterlimit:4;stroke-dasharray:none;stroke-opacity:1" />
    <ellipse
       ry="1.2499993"
       rx="1.25"
       cy="938.5"
       cx="661.5"
       id="path4529-6-5-92-6-3"
       style="fill:#000000;fill-opacity:0.19607843;stroke:none;stroke-width:0.2;stroke-miterlimit:4;stroke-dasharray:none;stroke-opacity:1" />
    <ellipse
       ry="0.7499935"
       rx="0.75"
       cy="938.5"
       cx="661.5"
       id="path4500-1-1"
       style="fill:#fff669;fill-opacity:1;stroke:none;stroke-width:0.2;stroke-miterlimit:4;stroke-dasharray:none;stroke-opacity:1" />
    <ellipse
       ry="1.2499993"
       rx="1.25"
       cy="942.5"
       cx="661.5"
       id="path4529-6-5-92-2-2-94"
       style="fill:#000000;fill-opacity:0.19607843;stroke:none;stroke-width:0.2;stroke-miterlimit:4;stroke-dasharray:none;stroke-opacity:1" />
    <ellipse
       ry="0.7499935"
       rx="0.75"
       cy="942.5"
       cx="661.5"
       id="path4500-4-9-7"
       style="fill:#8ce755;fill-opacity:1;stroke:none;stroke-width:0.2;stroke-miterlimit:4;stroke-dasharray:none;stroke-opacity:1" />
    <ellipse
       ry="1.2499993"
       rx="1.25"
       cy="940.5"
       cx="663.5"
       id="path4529-6-5-92-0-3-8"
       style="fill:#000000;fill-opacity:0.19607843;stroke:none;stroke-width:0.2;stroke-miterlimit:4;stroke-dasharray:none;stroke-opacity:1" />
    <ellipse
       ry="0.7499935"
       rx="0.75"
       cy="940.5"
       cx="663.5"
       id="path4500-9-1-4"
       style="fill:#ff5656;fill-opacity:1;stroke:none;stroke-width:0.2;stroke-miterlimit:4;stroke-dasharray:none;stroke-opacity:1" />
    <ellipse
       ry="1.2499993"
       rx="1.25"
       cy="940.5"
       cx="659.5"
       id="path4529-6-5-92-3-9-5"
       style="fill:#000000;fill-opacity:0.19607843;stroke:none;stroke-width:0.2;stroke-miterlimit:4;stroke-dasharray:none;stroke-opacity:1" />
    <ellipse
       ry="0.7499935"
       rx="0.75"
       cy="940.5"
       cx="659.5"
       id="path4500-2-4-0"
       style="fill:#5294e2;fill-opacity:1;stroke:none;stroke-width:0.2;stroke-miterlimit:4;stroke-dasharray:none;stroke-opacity:1" />
    <ellipse
       ry="2.4999971"
       rx="2.5"
       cy="945.5022"
       cx="657.5"
       id="path4529-0-6-8-9-2-7-6-6-8-6-20"
       style="fill:#000000;fill-opacity:0.39215686;stroke:none;stroke-width:0.2;stroke-miterlimit:4;stroke-dasharray:none;stroke-opacity:1" />
    <ellipse
       ry="1.5000021"
       rx="1.5"
       cy="945.5"
       cx="657.5"
       id="path4529-0-6-8-9-2-3-5-2-1-4-3-61"
       style="fill:#595f6f;fill-opacity:1;stroke:none;stroke-width:0.2;stroke-miterlimit:4;stroke-dasharray:none;stroke-opacity:1" />
    <ellipse
       ry="2.4999971"
       rx="2.5"
       cy="945.5022"
       cx="648.5"
       id="path4529-0-6-8-9-2-7-6-6-8-6-0-5"
       style="fill:#000000;fill-opacity:0.39215686;stroke:none;stroke-width:0.2;stroke-miterlimit:4;stroke-dasharray:none;stroke-opacity:1" />
    <path
       sodipodi:nodetypes="cccc"
       inkscape:connector-curvature="0"
       id="path4584-4"
       d="m 642.00046,936.75 c 0,0 3.37305,-1.3453 4.61049,-1.4116 1.01647,0 2.83709,3.1174 3.38952,3.1616 h 3"
       style="fill:none;fill-rule:evenodd;stroke:#5e6474;stroke-width:1px;stroke-linecap:butt;stroke-linejoin:miter;stroke-opacity:1" />
    <path
       sodipodi:nodetypes="cccc"
       inkscape:connector-curvature="0"
       id="path4584-6-7"
       d="m 664.00047,936.75 c 0,0 -3.37305,-1.3453 -4.61049,-1.4116 -1.01647,0 -2.83709,3.1174 -3.38951,3.1616 h -3"
       style="fill:none;fill-rule:evenodd;stroke:#5e6474;stroke-width:1px;stroke-linecap:butt;stroke-linejoin:miter;stroke-opacity:1" />
    <path
       sodipodi:nodetypes="cccscccssscccccccccccccscccccccccccc"
       inkscape:connector-curvature="0"
       id="rect4268-15-6-6"
       d="m 647.00049,934.0021 v 0 c -1.32921,0 -3.9022,1.27265 -4.41015,2.00685 0.32537,-0.1223 0.71892,-0.26905 1.16992,-0.4248 1.0043,-0.3468 2.1401,-0.70665 2.83691,-0.74415 h 0.007 v 0 h 0.007 c 0.38191,0 0.70942,0.24515 1.04883,0.5537 0.33941,0.30855 0.68455,0.70615 1.0127,1.1016 0.32814,0.39545 0.63905,0.78841 0.8955,1.0781 0.12823,0.1448 0.24407,0.26381 0.33301,0.33985 0.0881,0.0754 0.15765,0.0939 0.11816,0.0889 h 2.98145 v 0 h 2.98145 c -0.0395,0.005 0.03,-0.0135 0.11816,-0.0889 0.0889,-0.076 0.20478,-0.19505 0.33301,-0.33985 0.65754,-0.74455 1.20651,-1.53535 1.90821,-2.1797 0.3394,-0.30855 0.66691,-0.5537 1.04882,-0.5537 v 0 h 0.007 0.007 c 0.69681,0.0375 1.83261,0.39735 2.83691,0.74415 0.45134,0.15585 0.84543,0.30245 1.17091,0.4248 -0.50486,-0.7339 -3.0808,-2.0088 -4.41114,-2.0088 v 0 c -1.08757,0 -2,1 -2,1 h -4 -4 c 0,0 -0.91243,-1 -2,-1 z m 16.41114,2.0098 z m -20.82129,0 z"
       style="opacity:1;fill:#3e4454;fill-opacity:1;stroke:none;stroke-width:0.2;stroke-miterlimit:4;stroke-dasharray:none;stroke-opacity:1" />
    <path
       sodipodi:nodetypes="ccccccccccccc"
       inkscape:connector-curvature="0"
       id="rect4275-6-6"
       d="m 648,943.99998 v 1 h -1 v 1 h 1 v 1 h 1 v -1 h 1 v -1 h -1 v -1 z"
       style="fill:#595f6f;fill-opacity:1;stroke:none;stroke-width:0.2;stroke-miterlimit:4;stroke-dasharray:none;stroke-opacity:1" />
    <ellipse
       ry="0.50000298"
       rx="0.50000703"
       cy="940.5"
       cx="651.5"
       id="path4529-6-5-92-6-9-9"
       style="fill:#000000;fill-opacity:0.3014354;stroke:none;stroke-width:0.2;stroke-miterlimit:4;stroke-dasharray:none;stroke-opacity:1" />
    <ellipse
       ry="0.49999598"
       rx="0.5"
       cy="940.5"
       cx="654.5"
       id="path4529-6-5-92-6-9-3-3"
       style="fill:#000000;fill-opacity:0.3014354;stroke:none;stroke-width:0.2;stroke-miterlimit:4;stroke-dasharray:none;stroke-opacity:1" />
    <ellipse
       ry="2.4999971"
       rx="2.5"
       cy="940.50403"
       cx="644.5"
       id="path4529-0-6-8-9-2-7-6-6-8-6-20-7"
       style="fill:#000000;fill-opacity:0.39215686;stroke:none;stroke-width:0.2;stroke-miterlimit:4;stroke-dasharray:none;stroke-opacity:1" />
    <ellipse
       ry="1.5000021"
       rx="1.5"
       cy="940.50183"
       cx="644.5"
       id="path4529-0-6-8-9-2-3-5-2-1-4-3-61-4"
       style="fill:#595f6f;fill-opacity:1;stroke:none;stroke-width:0.2;stroke-miterlimit:4;stroke-dasharray:none;stroke-opacity:1" />
    <path
       id="rect4268-2-5-5"
       d="m 647.00047,933.001 c -1.10064,0 -2.24046,0.4613 -3.27344,0.9863 -0.51649,0.2625 -0.98473,0.5437 -1.36914,0.8476 -0.1922,0.152 -0.36471,0.3062 -0.52344,0.5079 -0.0472,0.06 -0.0519,0.2076 -0.0996,0.2832 -0.42022,0.3838 -0.83241,0.8346 -1.12891,1.4277 l -0.0137,0.027 -0.0117,0.027 c 0,0 -0.88671,2.0827 -1.77344,4.8359 -0.88673,2.7533 -1.7947,6.1705 -1.80664,9.0527 v 0.031 l 0.002,0.031 c 0.11239,1.9448 0.73053,3.2123 1.47852,3.9629 0.74799,0.7507 1.48189,0.9463 1.95508,0.9766 h 0.043 0.041 c 0.53352,-0.011 1.37828,-0.1185 2.11719,-0.7285 l 0.0176,-0.014 0.0156,-0.018 c 0.2672,-0.2415 0.8605,-0.8453 1.60352,-1.5918 0.74302,-0.7464 1.54849,-1.5563 1.93359,-1.9414 0.38651,-0.3865 0.58745,-0.5601 0.68555,-0.6132 0.0981,-0.053 0.19149,-0.086 0.625,-0.094 h 5.48242 5.48242 c 0.43347,0.01 0.52692,0.041 0.625,0.094 0.0981,0.053 0.29902,0.2267 0.68555,0.6132 0.38511,0.3852 1.19058,1.195 1.93359,1.9414 0.74302,0.7465 1.3368,1.3506 1.60352,1.5918 l 0.0156,0.018 0.0176,0.014 c 0.73891,0.61 1.58367,0.7179 2.11719,0.7285 h 0.043 0.041 c 0.47029,-0.031 1.20708,-0.226 1.95508,-0.9766 0.748,-0.7505 1.36612,-2.0181 1.47852,-3.9629 l 0.002,-0.031 v -0.031 c -0.0119,-2.8822 -0.91991,-6.2994 -1.80664,-9.0527 -0.88673,-2.7532 -1.77344,-4.8359 -1.77344,-4.8359 l -0.0117,-0.027 -0.0137,-0.027 c -0.29566,-0.5914 -0.70617,-1.043 -1.12695,-1.4277 -0.0478,-0.075 -0.0523,-0.2233 -0.0996,-0.2832 -0.15881,-0.2016 -0.33115,-0.3559 -0.52344,-0.5079 -0.38458,-0.3038 -0.85243,-0.5852 -1.36914,-0.8476 -1.03341,-0.5249 -2.17473,-0.9863 -3.27539,-0.9863 -1.28255,0 -2.01111,0.6292 -2.37891,1 h -3.62109 -3.62109 c -0.3678,-0.3708 -1.09637,-1 -2.37891,-1 z m 0,1 c 1.08756,0 2,1 2,1 h 4 4 c 0,0 0.91242,-1 2,-1 1.48623,0 4.53706,1.5942 4.50586,2.2441 0.3851,0.332 0.73836,0.7443 0.99414,1.2559 0,0 3.4779,8.1659 3.5,13.5 -0.20413,3.5321 -2.13282,3.976 -2.5,4 -0.50538,-0.01 -0.94272,-0.04 -1.5,-0.5 -0.28517,-0.2579 -2.72144,-2.7215 -3.5,-3.5 -0.77857,-0.7786 -1.00017,-0.982 -2,-1 h -5.5 -5.5 c -0.99983,0.018 -1.22144,0.2214 -2,1 -0.77857,0.7785 -3.21484,3.2422 -3.5,3.5 -0.55728,0.46 -0.99462,0.49 -1.5,0.5 -0.36718,-0.024 -2.29588,-0.4679 -2.5,-4 0.0221,-5.3341 3.5,-13.5 3.5,-13.5 0.25578,-0.5116 0.61098,-0.9239 0.99609,-1.2559 -0.0312,-0.65 3.01767,-2.2441 4.50391,-2.2441 z"
       style="color:#000000;font-style:normal;font-variant:normal;font-weight:normal;font-stretch:normal;font-size:medium;line-height:normal;font-family:sans-serif;text-indent:0;text-align:start;text-decoration:none;text-decoration-line:none;text-decoration-style:solid;text-decoration-color:#000000;letter-spacing:normal;word-spacing:normal;text-transform:none;writing-mode:lr-tb;direction:ltr;baseline-shift:baseline;text-anchor:start;white-space:normal;clip-rule:nonzero;display:inline;overflow:visible;visibility:visible;opacity:1;isolation:auto;mix-blend-mode:normal;color-interpolation:sRGB;color-interpolation-filters:linearRGB;solid-color:#000000;solid-opacity:1;fill:#2c303c;fill-opacity:0.90588235;fill-rule:nonzero;stroke:none;stroke-width:2;stroke-linecap:butt;stroke-linejoin:miter;stroke-miterlimit:4;stroke-dasharray:none;stroke-dashoffset:0;stroke-opacity:1;color-rendering:auto;image-rendering:auto;shape-rendering:auto;text-rendering:auto;enable-background:accumulate"
       inkscape:connector-curvature="0" />
  </g>
</svg>
