<?xml version="1.0" encoding="UTF-8" standalone="no"?>
<svg
   xmlns:dc="http://purl.org/dc/elements/1.1/"
   xmlns:cc="http://creativecommons.org/ns#"
   xmlns:rdf="http://www.w3.org/1999/02/22-rdf-syntax-ns#"
   xmlns:svg="http://www.w3.org/2000/svg"
   xmlns="http://www.w3.org/2000/svg"
   xmlns:sodipodi="http://sodipodi.sourceforge.net/DTD/sodipodi-0.dtd"
   xmlns:inkscape="http://www.inkscape.org/namespaces/inkscape"
   version="1.1"
   width="32"
   height="32"
   id="svg4106"
   sodipodi:docname="media-optical.svg"
   inkscape:version="0.92.4 (5da689c313, 2019-01-14)">
  <sodipodi:namedview
     pagecolor="#ffffff"
     bordercolor="#666666"
     borderopacity="1"
     objecttolerance="10"
     gridtolerance="10"
     guidetolerance="10"
     inkscape:pageopacity="0"
     inkscape:pageshadow="2"
     inkscape:window-width="1366"
     inkscape:window-height="697"
     id="namedview77"
     showgrid="false"
     inkscape:zoom="2.6074563"
     inkscape:cx="67.231326"
     inkscape:cy="40.432901"
     inkscape:window-x="0"
     inkscape:window-y="0"
     inkscape:window-maximized="1"
     inkscape:current-layer="svg4106" />
  <defs
     id="defs4108" />
  <metadata
     id="metadata4111">
    <rdf:RDF>
      <cc:Work
         rdf:about="">
        <dc:format>image/svg+xml</dc:format>
        <dc:type
           rdf:resource="http://purl.org/dc/dcmitype/StillImage" />
        <dc:title />
      </cc:Work>
    </rdf:RDF>
  </metadata>
  <g
     transform="matrix(0.65853673,0,0,0.65853658,0.19511942,-10.341463)"
     inkscape:label="Layer 1"
     id="layer1-7-1">
    <g
       transform="matrix(0.75,0,0,0.75,0,16)"
       id="g4211-4-8">
      <ellipse
         ry="27.333334"
         rx="27.333332"
         style="opacity:1;fill:none;fill-opacity:1;stroke:#2c3854;stroke-width:2.0246911;stroke-linecap:butt;stroke-linejoin:miter;stroke-miterlimit:4;stroke-dasharray:none;stroke-dashoffset:0;stroke-opacity:0.30196078"
         id="path4194-09-6"
         cx="31.999998"
         cy="32" />
      <path
         sodipodi:nodetypes="ssssssssss"
         id="path4194-0-4-3"
         d="M 31.999997,5.6790057 C 17.463319,5.6790053 5.6790147,17.463313 5.679015,31.999993 c -5e-7,14.536681 11.784304,26.320988 26.320982,26.320988 14.536677,10e-7 26.320983,-11.784307 26.320982,-26.320988 0,-14.53668 -11.784305,-26.3209879 -26.320982,-26.3209873 z m 0,16.2663703 c 5.922349,0 10.054615,4.132267 10.054615,10.054617 0,5.922351 -4.132266,10.054618 -10.054615,10.054618 -5.922349,0 -10.054615,-4.132267 -10.054615,-10.054618 0,-5.92235 4.132266,-10.054617 10.054615,-10.054617 z"
         style="opacity:1;fill:#fafafa;fill-opacity:1;stroke:none;stroke-width:1;stroke-linecap:butt;stroke-linejoin:miter;stroke-miterlimit:4;stroke-dasharray:none;stroke-dashoffset:0;stroke-opacity:0.78431373"
         inkscape:connector-curvature="0" />
    </g>
    <path
       sodipodi:nodetypes="sssssaaaaa"
       inkscape:connector-curvature="0"
       id="path4243-3-6"
       d="m 23.999997,32.407402 c -4.193271,0 -7.59259,3.399319 -7.59259,7.592595 0,4.193272 3.399319,7.592591 7.59259,7.592591 4.193273,0 7.592592,-3.399319 7.592592,-7.592591 0,-4.193276 -3.399319,-7.592595 -7.592592,-7.592595 z m 0,4.496334 c 1.459591,0 3.09626,1.63667 3.096259,3.096261 0,1.45959 -1.636669,3.096258 -3.096259,3.096257 -1.45959,0 -3.096257,-1.636667 -3.096258,-3.096257 0,-1.459591 1.636667,-3.096261 3.096258,-3.096261 z"
       style="opacity:1;fill:#ffffff;fill-opacity:0.38775509;stroke:none;stroke-width:1;stroke-linecap:butt;stroke-linejoin:miter;stroke-miterlimit:4;stroke-dasharray:none;stroke-dashoffset:0;stroke-opacity:1" />
    <circle
       r="0"
       cy="40"
       cx="24"
       id="path4243-8-4-0"
       style="opacity:1;fill:none;fill-opacity:0.49803922;stroke:#2c3854;stroke-width:1.51851845;stroke-linecap:butt;stroke-linejoin:miter;stroke-miterlimit:4;stroke-dasharray:none;stroke-dashoffset:0;stroke-opacity:0.30196078" />
    <ellipse
       cy="39.999996"
       cx="23.999998"
       id="path4260-9-2"
       style="opacity:1;fill:none;fill-opacity:0.49803922;stroke:#2c3854;stroke-width:1.51851845;stroke-linecap:butt;stroke-linejoin:miter;stroke-miterlimit:4;stroke-dasharray:none;stroke-dashoffset:0;stroke-opacity:0.30196078"
       rx="2.2777772"
       ry="2.2777779" />
    <ellipse
       style="opacity:1;fill:none;fill-opacity:0.49803922;stroke:#2c3854;stroke-width:1.51851821;stroke-linecap:butt;stroke-linejoin:miter;stroke-miterlimit:4;stroke-dasharray:none;stroke-dashoffset:0;stroke-opacity:0.30196078"
       id="path4243-8-0-1-8"
       cx="23.999998"
       cy="39.999996"
       rx="6.8333321"
       ry="6.833333" />
  </g>
</svg>
