<?xml version="1.0" encoding="UTF-8" standalone="no"?>
<svg
   xmlns:dc="http://purl.org/dc/elements/1.1/"
   xmlns:cc="http://creativecommons.org/ns#"
   xmlns:rdf="http://www.w3.org/1999/02/22-rdf-syntax-ns#"
   xmlns:svg="http://www.w3.org/2000/svg"
   xmlns="http://www.w3.org/2000/svg"
   xmlns:sodipodi="http://sodipodi.sourceforge.net/DTD/sodipodi-0.dtd"
   xmlns:inkscape="http://www.inkscape.org/namespaces/inkscape"
   id="svg4286"
   height="32"
   width="32"
   version="1.1"
   sodipodi:docname="network-wireless.svg"
   inkscape:version="0.92.4 (5da689c313, 2019-01-14)">
  <sodipodi:namedview
     pagecolor="#ffffff"
     bordercolor="#666666"
     inkscape:document-rotation="0"
     borderopacity="1"
     objecttolerance="10"
     gridtolerance="10"
     guidetolerance="10"
     inkscape:pageopacity="0"
     inkscape:pageshadow="2"
     inkscape:window-width="1366"
     inkscape:window-height="697"
     id="namedview42"
     showgrid="false"
     inkscape:zoom="2.5964077"
     inkscape:cx="-4.6310245"
     inkscape:cy="13.430824"
     inkscape:window-x="0"
     inkscape:window-y="0"
     inkscape:window-maximized="1"
     inkscape:current-layer="svg4286" />
  <defs
     id="defs4288" />
  <metadata
     id="metadata4291">
    <rdf:RDF>
      <cc:Work
         rdf:about="">
        <dc:format>image/svg+xml</dc:format>
        <dc:type
           rdf:resource="http://purl.org/dc/dcmitype/StillImage" />
        <dc:title />
      </cc:Work>
    </rdf:RDF>
  </metadata>
  <g
     transform="matrix(2,0,0,2,-402,-1700)"
     id="network-wireless_32"
     inkscape:label="#g6632-5">
    <rect
       y="850"
       x="201"
       height="16"
       width="16"
       id="rect6600-6"
       style="opacity:1;fill:none;fill-opacity:0.42346939;stroke:none;stroke-width:2;stroke-linecap:butt;stroke-linejoin:round;stroke-miterlimit:4;stroke-dasharray:none;stroke-dashoffset:0;stroke-opacity:1" />
    <path
       sodipodi:nodetypes="ccccc"
       inkscape:connector-curvature="0"
       id="path4700-2-93"
       transform="translate(-244,-74)"
       d="m 453,934 c -1.02144,5.9e-4 -2.00395,0.39192 -2.74609,1.09375 l 2.74609,2.91992 2.74414,-2.91601 C 455.0031,934.39487 454.0213,934.00214 453,934 Z"
       style="opacity:1;fill:#5294e2;fill-opacity:1;stroke:none;stroke-width:2;stroke-linecap:butt;stroke-linejoin:round;stroke-miterlimit:4;stroke-dasharray:none;stroke-dashoffset:0;stroke-opacity:1" />
    <path
       sodipodi:nodetypes="scccccs"
       id="path4700-2-9-2"
       d="m 208.83398,851.98828 c -2.94278,0.0459 -5.7529,1.30912 -7.83398,3.52149 l 1.83398,1.94921 c 1.66693,-1.5754 3.87244,-2.45495 6.16602,-2.45898 2.2944,0.002 4.50141,0.88018 6.16992,2.45508 L 217,855.50977 c -2.16244,-2.29887 -5.10819,-3.56919 -8.16602,-3.52149 z"
       style="opacity:0.5;fill:#5294e2;fill-opacity:1;stroke:none;stroke-width:2;stroke-linecap:butt;stroke-linejoin:round;stroke-miterlimit:4;stroke-dasharray:none;stroke-dashoffset:0;stroke-opacity:1"
       inkscape:connector-curvature="0" />
    <path
       sodipodi:nodetypes="ccccccc"
       id="path4700-2-9-0-4"
       d="m 209,855.99967 c -2.03964,0.002 -4.00146,0.7832 -5.48438,2.18359 l 2.05665,2.18555 c 0.92614,-0.87684 2.15235,-1.36663 3.42773,-1.36914 1.27579,10e-4 2.50275,0.49059 3.42969,1.36719 l 2.05273,-2.18164 c -1.48213,-1.40064 -3.44319,-2.18241 -5.48242,-2.18555 z"
       style="opacity:0.8;fill:#5294e2;fill-opacity:1;stroke:none;stroke-width:2;stroke-linecap:butt;stroke-linejoin:round;stroke-miterlimit:4;stroke-dasharray:none;stroke-dashoffset:0;stroke-opacity:1"
       inkscape:connector-curvature="0" />
  </g>
</svg>
